<?xml version="1.0" encoding="utf-8" standalone="no"?>
<!DOCTYPE svg PUBLIC "-//W3C//DTD SVG 1.1//EN"
  "http://www.w3.org/Graphics/SVG/1.1/DTD/svg11.dtd">
<svg xmlns:xlink="http://www.w3.org/1999/xlink" width="460.8pt" height="345.6pt" viewBox="0 0 460.8 345.6" xmlns="http://www.w3.org/2000/svg" version="1.1">
 <metadata>
  <rdf:RDF xmlns:dc="http://purl.org/dc/elements/1.1/" xmlns:cc="http://creativecommons.org/ns#" xmlns:rdf="http://www.w3.org/1999/02/22-rdf-syntax-ns#">
   <cc:Work>
    <dc:type rdf:resource="http://purl.org/dc/dcmitype/StillImage"/>
    <dc:date>2022-08-11T04:08:17.910975</dc:date>
    <dc:format>image/svg+xml</dc:format>
    <dc:creator>
     <cc:Agent>
      <dc:title>Matplotlib v3.5.2, https://matplotlib.org/</dc:title>
     </cc:Agent>
    </dc:creator>
   </cc:Work>
  </rdf:RDF>
 </metadata>
 <defs>
  <style type="text/css">*{stroke-linejoin: round; stroke-linecap: butt}</style>
 </defs>
 <g id="figure_1">
  <g id="patch_1">
   <path d="M 0 345.6 
L 460.8 345.6 
L 460.8 0 
L 0 0 
z
" style="fill: #ffffff"/>
  </g>
  <g id="axes_1">
   <g id="patch_2">
    <path d="M 57.6 307.584 
L 414.72 307.584 
L 414.72 41.472 
L 57.6 41.472 
z
" style="fill: #ffffff"/>
   </g>
   <g id="matplotlib.axis_1">
    <g id="xtick_1">
     <g id="line2d_1">
      <path d="M 73.832727 307.584 
L 73.832727 41.472 
" clip-path="url(#p83aed3bd71)" style="fill: none; stroke: #b0b0b0; stroke-width: 0.8; stroke-linecap: square"/>
     </g>
     <g id="line2d_2">
      <defs>
       <path id="mfae0ec74c1" d="M 0 0 
L 0 3.5 
" style="stroke: #000000; stroke-width: 0.8"/>
      </defs>
      <g>
       <use xlink:href="#mfae0ec74c1" x="73.832727" y="307.584" style="stroke: #000000; stroke-width: 0.8"/>
      </g>
     </g>
     <g id="text_1">
      <!-- 0 -->
      <g transform="translate(70.651477 322.182437)scale(0.1 -0.1)">
       <defs>
        <path id="DejaVuSans-30" d="M 2034 4250 
Q 1547 4250 1301 3770 
Q 1056 3291 1056 2328 
Q 1056 1369 1301 889 
Q 1547 409 2034 409 
Q 2525 409 2770 889 
Q 3016 1369 3016 2328 
Q 3016 3291 2770 3770 
Q 2525 4250 2034 4250 
z
M 2034 4750 
Q 2819 4750 3233 4129 
Q 3647 3509 3647 2328 
Q 3647 1150 3233 529 
Q 2819 -91 2034 -91 
Q 1250 -91 836 529 
Q 422 1150 422 2328 
Q 422 3509 836 4129 
Q 1250 4750 2034 4750 
z
" transform="scale(0.015625)"/>
       </defs>
       <use xlink:href="#DejaVuSans-30"/>
      </g>
     </g>
    </g>
    <g id="xtick_2">
     <g id="line2d_3">
      <path d="M 128.032151 307.584 
L 128.032151 41.472 
" clip-path="url(#p83aed3bd71)" style="fill: none; stroke: #b0b0b0; stroke-width: 0.8; stroke-linecap: square"/>
     </g>
     <g id="line2d_4">
      <g>
       <use xlink:href="#mfae0ec74c1" x="128.032151" y="307.584" style="stroke: #000000; stroke-width: 0.8"/>
      </g>
     </g>
     <g id="text_2">
      <!-- 100 -->
      <g transform="translate(118.488401 322.182437)scale(0.1 -0.1)">
       <defs>
        <path id="DejaVuSans-31" d="M 794 531 
L 1825 531 
L 1825 4091 
L 703 3866 
L 703 4441 
L 1819 4666 
L 2450 4666 
L 2450 531 
L 3481 531 
L 3481 0 
L 794 0 
L 794 531 
z
" transform="scale(0.015625)"/>
       </defs>
       <use xlink:href="#DejaVuSans-31"/>
       <use xlink:href="#DejaVuSans-30" x="63.623047"/>
       <use xlink:href="#DejaVuSans-30" x="127.246094"/>
      </g>
     </g>
    </g>
    <g id="xtick_3">
     <g id="line2d_5">
      <path d="M 182.231574 307.584 
L 182.231574 41.472 
" clip-path="url(#p83aed3bd71)" style="fill: none; stroke: #b0b0b0; stroke-width: 0.8; stroke-linecap: square"/>
     </g>
     <g id="line2d_6">
      <g>
       <use xlink:href="#mfae0ec74c1" x="182.231574" y="307.584" style="stroke: #000000; stroke-width: 0.8"/>
      </g>
     </g>
     <g id="text_3">
      <!-- 200 -->
      <g transform="translate(172.687824 322.182437)scale(0.1 -0.1)">
       <defs>
        <path id="DejaVuSans-32" d="M 1228 531 
L 3431 531 
L 3431 0 
L 469 0 
L 469 531 
Q 828 903 1448 1529 
Q 2069 2156 2228 2338 
Q 2531 2678 2651 2914 
Q 2772 3150 2772 3378 
Q 2772 3750 2511 3984 
Q 2250 4219 1831 4219 
Q 1534 4219 1204 4116 
Q 875 4013 500 3803 
L 500 4441 
Q 881 4594 1212 4672 
Q 1544 4750 1819 4750 
Q 2544 4750 2975 4387 
Q 3406 4025 3406 3419 
Q 3406 3131 3298 2873 
Q 3191 2616 2906 2266 
Q 2828 2175 2409 1742 
Q 1991 1309 1228 531 
z
" transform="scale(0.015625)"/>
       </defs>
       <use xlink:href="#DejaVuSans-32"/>
       <use xlink:href="#DejaVuSans-30" x="63.623047"/>
       <use xlink:href="#DejaVuSans-30" x="127.246094"/>
      </g>
     </g>
    </g>
    <g id="xtick_4">
     <g id="line2d_7">
      <path d="M 236.430997 307.584 
L 236.430997 41.472 
" clip-path="url(#p83aed3bd71)" style="fill: none; stroke: #b0b0b0; stroke-width: 0.8; stroke-linecap: square"/>
     </g>
     <g id="line2d_8">
      <g>
       <use xlink:href="#mfae0ec74c1" x="236.430997" y="307.584" style="stroke: #000000; stroke-width: 0.8"/>
      </g>
     </g>
     <g id="text_4">
      <!-- 300 -->
      <g transform="translate(226.887247 322.182437)scale(0.1 -0.1)">
       <defs>
        <path id="DejaVuSans-33" d="M 2597 2516 
Q 3050 2419 3304 2112 
Q 3559 1806 3559 1356 
Q 3559 666 3084 287 
Q 2609 -91 1734 -91 
Q 1441 -91 1130 -33 
Q 819 25 488 141 
L 488 750 
Q 750 597 1062 519 
Q 1375 441 1716 441 
Q 2309 441 2620 675 
Q 2931 909 2931 1356 
Q 2931 1769 2642 2001 
Q 2353 2234 1838 2234 
L 1294 2234 
L 1294 2753 
L 1863 2753 
Q 2328 2753 2575 2939 
Q 2822 3125 2822 3475 
Q 2822 3834 2567 4026 
Q 2313 4219 1838 4219 
Q 1578 4219 1281 4162 
Q 984 4106 628 3988 
L 628 4550 
Q 988 4650 1302 4700 
Q 1616 4750 1894 4750 
Q 2613 4750 3031 4423 
Q 3450 4097 3450 3541 
Q 3450 3153 3228 2886 
Q 3006 2619 2597 2516 
z
" transform="scale(0.015625)"/>
       </defs>
       <use xlink:href="#DejaVuSans-33"/>
       <use xlink:href="#DejaVuSans-30" x="63.623047"/>
       <use xlink:href="#DejaVuSans-30" x="127.246094"/>
      </g>
     </g>
    </g>
    <g id="xtick_5">
     <g id="line2d_9">
      <path d="M 290.63042 307.584 
L 290.63042 41.472 
" clip-path="url(#p83aed3bd71)" style="fill: none; stroke: #b0b0b0; stroke-width: 0.8; stroke-linecap: square"/>
     </g>
     <g id="line2d_10">
      <g>
       <use xlink:href="#mfae0ec74c1" x="290.63042" y="307.584" style="stroke: #000000; stroke-width: 0.8"/>
      </g>
     </g>
     <g id="text_5">
      <!-- 400 -->
      <g transform="translate(281.08667 322.182437)scale(0.1 -0.1)">
       <defs>
        <path id="DejaVuSans-34" d="M 2419 4116 
L 825 1625 
L 2419 1625 
L 2419 4116 
z
M 2253 4666 
L 3047 4666 
L 3047 1625 
L 3713 1625 
L 3713 1100 
L 3047 1100 
L 3047 0 
L 2419 0 
L 2419 1100 
L 313 1100 
L 313 1709 
L 2253 4666 
z
" transform="scale(0.015625)"/>
       </defs>
       <use xlink:href="#DejaVuSans-34"/>
       <use xlink:href="#DejaVuSans-30" x="63.623047"/>
       <use xlink:href="#DejaVuSans-30" x="127.246094"/>
      </g>
     </g>
    </g>
    <g id="xtick_6">
     <g id="line2d_11">
      <path d="M 344.829844 307.584 
L 344.829844 41.472 
" clip-path="url(#p83aed3bd71)" style="fill: none; stroke: #b0b0b0; stroke-width: 0.8; stroke-linecap: square"/>
     </g>
     <g id="line2d_12">
      <g>
       <use xlink:href="#mfae0ec74c1" x="344.829844" y="307.584" style="stroke: #000000; stroke-width: 0.8"/>
      </g>
     </g>
     <g id="text_6">
      <!-- 500 -->
      <g transform="translate(335.286094 322.182437)scale(0.1 -0.1)">
       <defs>
        <path id="DejaVuSans-35" d="M 691 4666 
L 3169 4666 
L 3169 4134 
L 1269 4134 
L 1269 2991 
Q 1406 3038 1543 3061 
Q 1681 3084 1819 3084 
Q 2600 3084 3056 2656 
Q 3513 2228 3513 1497 
Q 3513 744 3044 326 
Q 2575 -91 1722 -91 
Q 1428 -91 1123 -41 
Q 819 9 494 109 
L 494 744 
Q 775 591 1075 516 
Q 1375 441 1709 441 
Q 2250 441 2565 725 
Q 2881 1009 2881 1497 
Q 2881 1984 2565 2268 
Q 2250 2553 1709 2553 
Q 1456 2553 1204 2497 
Q 953 2441 691 2322 
L 691 4666 
z
" transform="scale(0.015625)"/>
       </defs>
       <use xlink:href="#DejaVuSans-35"/>
       <use xlink:href="#DejaVuSans-30" x="63.623047"/>
       <use xlink:href="#DejaVuSans-30" x="127.246094"/>
      </g>
     </g>
    </g>
    <g id="xtick_7">
     <g id="line2d_13">
      <path d="M 399.029267 307.584 
L 399.029267 41.472 
" clip-path="url(#p83aed3bd71)" style="fill: none; stroke: #b0b0b0; stroke-width: 0.8; stroke-linecap: square"/>
     </g>
     <g id="line2d_14">
      <g>
       <use xlink:href="#mfae0ec74c1" x="399.029267" y="307.584" style="stroke: #000000; stroke-width: 0.8"/>
      </g>
     </g>
     <g id="text_7">
      <!-- 600 -->
      <g transform="translate(389.485517 322.182437)scale(0.1 -0.1)">
       <defs>
        <path id="DejaVuSans-36" d="M 2113 2584 
Q 1688 2584 1439 2293 
Q 1191 2003 1191 1497 
Q 1191 994 1439 701 
Q 1688 409 2113 409 
Q 2538 409 2786 701 
Q 3034 994 3034 1497 
Q 3034 2003 2786 2293 
Q 2538 2584 2113 2584 
z
M 3366 4563 
L 3366 3988 
Q 3128 4100 2886 4159 
Q 2644 4219 2406 4219 
Q 1781 4219 1451 3797 
Q 1122 3375 1075 2522 
Q 1259 2794 1537 2939 
Q 1816 3084 2150 3084 
Q 2853 3084 3261 2657 
Q 3669 2231 3669 1497 
Q 3669 778 3244 343 
Q 2819 -91 2113 -91 
Q 1303 -91 875 529 
Q 447 1150 447 2328 
Q 447 3434 972 4092 
Q 1497 4750 2381 4750 
Q 2619 4750 2861 4703 
Q 3103 4656 3366 4563 
z
" transform="scale(0.015625)"/>
       </defs>
       <use xlink:href="#DejaVuSans-36"/>
       <use xlink:href="#DejaVuSans-30" x="63.623047"/>
       <use xlink:href="#DejaVuSans-30" x="127.246094"/>
      </g>
     </g>
    </g>
    <g id="text_8">
     <!-- Generations -->
     <g transform="translate(205.662344 335.860562)scale(0.1 -0.1)">
      <defs>
       <path id="DejaVuSans-47" d="M 3809 666 
L 3809 1919 
L 2778 1919 
L 2778 2438 
L 4434 2438 
L 4434 434 
Q 4069 175 3628 42 
Q 3188 -91 2688 -91 
Q 1594 -91 976 548 
Q 359 1188 359 2328 
Q 359 3472 976 4111 
Q 1594 4750 2688 4750 
Q 3144 4750 3555 4637 
Q 3966 4525 4313 4306 
L 4313 3634 
Q 3963 3931 3569 4081 
Q 3175 4231 2741 4231 
Q 1884 4231 1454 3753 
Q 1025 3275 1025 2328 
Q 1025 1384 1454 906 
Q 1884 428 2741 428 
Q 3075 428 3337 486 
Q 3600 544 3809 666 
z
" transform="scale(0.015625)"/>
       <path id="DejaVuSans-65" d="M 3597 1894 
L 3597 1613 
L 953 1613 
Q 991 1019 1311 708 
Q 1631 397 2203 397 
Q 2534 397 2845 478 
Q 3156 559 3463 722 
L 3463 178 
Q 3153 47 2828 -22 
Q 2503 -91 2169 -91 
Q 1331 -91 842 396 
Q 353 884 353 1716 
Q 353 2575 817 3079 
Q 1281 3584 2069 3584 
Q 2775 3584 3186 3129 
Q 3597 2675 3597 1894 
z
M 3022 2063 
Q 3016 2534 2758 2815 
Q 2500 3097 2075 3097 
Q 1594 3097 1305 2825 
Q 1016 2553 972 2059 
L 3022 2063 
z
" transform="scale(0.015625)"/>
       <path id="DejaVuSans-6e" d="M 3513 2113 
L 3513 0 
L 2938 0 
L 2938 2094 
Q 2938 2591 2744 2837 
Q 2550 3084 2163 3084 
Q 1697 3084 1428 2787 
Q 1159 2491 1159 1978 
L 1159 0 
L 581 0 
L 581 3500 
L 1159 3500 
L 1159 2956 
Q 1366 3272 1645 3428 
Q 1925 3584 2291 3584 
Q 2894 3584 3203 3211 
Q 3513 2838 3513 2113 
z
" transform="scale(0.015625)"/>
       <path id="DejaVuSans-72" d="M 2631 2963 
Q 2534 3019 2420 3045 
Q 2306 3072 2169 3072 
Q 1681 3072 1420 2755 
Q 1159 2438 1159 1844 
L 1159 0 
L 581 0 
L 581 3500 
L 1159 3500 
L 1159 2956 
Q 1341 3275 1631 3429 
Q 1922 3584 2338 3584 
Q 2397 3584 2469 3576 
Q 2541 3569 2628 3553 
L 2631 2963 
z
" transform="scale(0.015625)"/>
       <path id="DejaVuSans-61" d="M 2194 1759 
Q 1497 1759 1228 1600 
Q 959 1441 959 1056 
Q 959 750 1161 570 
Q 1363 391 1709 391 
Q 2188 391 2477 730 
Q 2766 1069 2766 1631 
L 2766 1759 
L 2194 1759 
z
M 3341 1997 
L 3341 0 
L 2766 0 
L 2766 531 
Q 2569 213 2275 61 
Q 1981 -91 1556 -91 
Q 1019 -91 701 211 
Q 384 513 384 1019 
Q 384 1609 779 1909 
Q 1175 2209 1959 2209 
L 2766 2209 
L 2766 2266 
Q 2766 2663 2505 2880 
Q 2244 3097 1772 3097 
Q 1472 3097 1187 3025 
Q 903 2953 641 2809 
L 641 3341 
Q 956 3463 1253 3523 
Q 1550 3584 1831 3584 
Q 2591 3584 2966 3190 
Q 3341 2797 3341 1997 
z
" transform="scale(0.015625)"/>
       <path id="DejaVuSans-74" d="M 1172 4494 
L 1172 3500 
L 2356 3500 
L 2356 3053 
L 1172 3053 
L 1172 1153 
Q 1172 725 1289 603 
Q 1406 481 1766 481 
L 2356 481 
L 2356 0 
L 1766 0 
Q 1100 0 847 248 
Q 594 497 594 1153 
L 594 3053 
L 172 3053 
L 172 3500 
L 594 3500 
L 594 4494 
L 1172 4494 
z
" transform="scale(0.015625)"/>
       <path id="DejaVuSans-69" d="M 603 3500 
L 1178 3500 
L 1178 0 
L 603 0 
L 603 3500 
z
M 603 4863 
L 1178 4863 
L 1178 4134 
L 603 4134 
L 603 4863 
z
" transform="scale(0.015625)"/>
       <path id="DejaVuSans-6f" d="M 1959 3097 
Q 1497 3097 1228 2736 
Q 959 2375 959 1747 
Q 959 1119 1226 758 
Q 1494 397 1959 397 
Q 2419 397 2687 759 
Q 2956 1122 2956 1747 
Q 2956 2369 2687 2733 
Q 2419 3097 1959 3097 
z
M 1959 3584 
Q 2709 3584 3137 3096 
Q 3566 2609 3566 1747 
Q 3566 888 3137 398 
Q 2709 -91 1959 -91 
Q 1206 -91 779 398 
Q 353 888 353 1747 
Q 353 2609 779 3096 
Q 1206 3584 1959 3584 
z
" transform="scale(0.015625)"/>
       <path id="DejaVuSans-73" d="M 2834 3397 
L 2834 2853 
Q 2591 2978 2328 3040 
Q 2066 3103 1784 3103 
Q 1356 3103 1142 2972 
Q 928 2841 928 2578 
Q 928 2378 1081 2264 
Q 1234 2150 1697 2047 
L 1894 2003 
Q 2506 1872 2764 1633 
Q 3022 1394 3022 966 
Q 3022 478 2636 193 
Q 2250 -91 1575 -91 
Q 1294 -91 989 -36 
Q 684 19 347 128 
L 347 722 
Q 666 556 975 473 
Q 1284 391 1588 391 
Q 1994 391 2212 530 
Q 2431 669 2431 922 
Q 2431 1156 2273 1281 
Q 2116 1406 1581 1522 
L 1381 1569 
Q 847 1681 609 1914 
Q 372 2147 372 2553 
Q 372 3047 722 3315 
Q 1072 3584 1716 3584 
Q 2034 3584 2315 3537 
Q 2597 3491 2834 3397 
z
" transform="scale(0.015625)"/>
      </defs>
      <use xlink:href="#DejaVuSans-47"/>
      <use xlink:href="#DejaVuSans-65" x="77.490234"/>
      <use xlink:href="#DejaVuSans-6e" x="139.013672"/>
      <use xlink:href="#DejaVuSans-65" x="202.392578"/>
      <use xlink:href="#DejaVuSans-72" x="263.916016"/>
      <use xlink:href="#DejaVuSans-61" x="305.029297"/>
      <use xlink:href="#DejaVuSans-74" x="366.308594"/>
      <use xlink:href="#DejaVuSans-69" x="405.517578"/>
      <use xlink:href="#DejaVuSans-6f" x="433.300781"/>
      <use xlink:href="#DejaVuSans-6e" x="494.482422"/>
      <use xlink:href="#DejaVuSans-73" x="557.861328"/>
     </g>
    </g>
   </g>
   <g id="matplotlib.axis_2">
    <g id="ytick_1">
     <g id="line2d_15">
      <path d="M 57.6 264.148304 
L 414.72 264.148304 
" clip-path="url(#p83aed3bd71)" style="fill: none; stroke: #b0b0b0; stroke-width: 0.8; stroke-linecap: square"/>
     </g>
     <g id="line2d_16">
      <defs>
       <path id="mdc2b3ec038" d="M 0 0 
L -3.5 0 
" style="stroke: #000000; stroke-width: 0.8"/>
      </defs>
      <g>
       <use xlink:href="#mdc2b3ec038" x="57.6" y="264.148304" style="stroke: #000000; stroke-width: 0.8"/>
      </g>
     </g>
     <g id="text_9">
      <!-- 0 -->
      <g transform="translate(44.2375 267.947523)scale(0.1 -0.1)">
       <use xlink:href="#DejaVuSans-30"/>
      </g>
     </g>
    </g>
    <g id="ytick_2">
     <g id="line2d_17">
      <path d="M 57.6 206.58493 
L 414.72 206.58493 
" clip-path="url(#p83aed3bd71)" style="fill: none; stroke: #b0b0b0; stroke-width: 0.8; stroke-linecap: square"/>
     </g>
     <g id="line2d_18">
      <g>
       <use xlink:href="#mdc2b3ec038" x="57.6" y="206.58493" style="stroke: #000000; stroke-width: 0.8"/>
      </g>
     </g>
     <g id="text_10">
      <!-- 1 -->
      <g transform="translate(44.2375 210.384148)scale(0.1 -0.1)">
       <use xlink:href="#DejaVuSans-31"/>
      </g>
     </g>
    </g>
    <g id="ytick_3">
     <g id="line2d_19">
      <path d="M 57.6 149.021555 
L 414.72 149.021555 
" clip-path="url(#p83aed3bd71)" style="fill: none; stroke: #b0b0b0; stroke-width: 0.8; stroke-linecap: square"/>
     </g>
     <g id="line2d_20">
      <g>
       <use xlink:href="#mdc2b3ec038" x="57.6" y="149.021555" style="stroke: #000000; stroke-width: 0.8"/>
      </g>
     </g>
     <g id="text_11">
      <!-- 2 -->
      <g transform="translate(44.2375 152.820774)scale(0.1 -0.1)">
       <use xlink:href="#DejaVuSans-32"/>
      </g>
     </g>
    </g>
    <g id="ytick_4">
     <g id="line2d_21">
      <path d="M 57.6 91.458181 
L 414.72 91.458181 
" clip-path="url(#p83aed3bd71)" style="fill: none; stroke: #b0b0b0; stroke-width: 0.8; stroke-linecap: square"/>
     </g>
     <g id="line2d_22">
      <g>
       <use xlink:href="#mdc2b3ec038" x="57.6" y="91.458181" style="stroke: #000000; stroke-width: 0.8"/>
      </g>
     </g>
     <g id="text_12">
      <!-- 3 -->
      <g transform="translate(44.2375 95.2574)scale(0.1 -0.1)">
       <use xlink:href="#DejaVuSans-33"/>
      </g>
     </g>
    </g>
    <g id="text_13">
     <!-- Fitness -->
     <g transform="translate(38.157812 191.845187)rotate(-90)scale(0.1 -0.1)">
      <defs>
       <path id="DejaVuSans-46" d="M 628 4666 
L 3309 4666 
L 3309 4134 
L 1259 4134 
L 1259 2759 
L 3109 2759 
L 3109 2228 
L 1259 2228 
L 1259 0 
L 628 0 
L 628 4666 
z
" transform="scale(0.015625)"/>
      </defs>
      <use xlink:href="#DejaVuSans-46"/>
      <use xlink:href="#DejaVuSans-69" x="50.269531"/>
      <use xlink:href="#DejaVuSans-74" x="78.052734"/>
      <use xlink:href="#DejaVuSans-6e" x="117.261719"/>
      <use xlink:href="#DejaVuSans-65" x="180.640625"/>
      <use xlink:href="#DejaVuSans-73" x="242.164062"/>
      <use xlink:href="#DejaVuSans-73" x="294.263672"/>
     </g>
    </g>
   </g>
   <g id="line2d_23">
    <path d="M 73.832727 263.544731 
L 74.374722 261.337004 
L 74.916716 260.254005 
L 75.45871 257.811751 
L 76.000704 258.307919 
L 76.542698 257.310875 
L 77.084693 257.518627 
L 77.626687 255.906168 
L 78.168681 255.50721 
L 78.710675 255.923317 
L 79.25267 256.799111 
L 79.794664 255.191876 
L 80.336658 255.96857 
L 82.504635 247.500545 
L 83.046629 241.587329 
L 83.588623 240.134746 
L 84.672612 239.548825 
L 85.214606 238.602854 
L 85.7566 238.517596 
L 86.298595 237.392184 
L 86.840589 237.768958 
L 87.382583 236.640863 
L 88.466572 232.999195 
L 89.008566 234.583423 
L 89.55056 233.709448 
L 90.092554 234.505562 
L 90.634548 232.631901 
L 91.176543 231.959853 
L 91.718537 233.908763 
L 92.260531 234.3186 
L 92.802525 233.215657 
L 93.34452 234.14597 
L 93.886514 232.271259 
L 94.428508 233.690971 
L 94.970502 235.909567 
L 95.512497 232.313668 
L 96.054491 236.904181 
L 96.596485 228.859312 
L 97.138479 232.202225 
L 97.680474 229.720666 
L 99.306456 226.548587 
L 99.84845 230.856221 
L 100.390445 231.149141 
L 100.932439 229.610484 
L 101.474433 230.722141 
L 102.016427 232.528401 
L 102.558422 229.713856 
L 103.100416 226.165859 
L 103.64241 224.661254 
L 104.184404 230.399127 
L 104.726399 232.599092 
L 105.268393 230.696074 
L 105.810387 225.558344 
L 106.352381 225.820501 
L 106.894375 228.655597 
L 107.43637 227.95799 
L 107.978364 224.040938 
L 108.520358 228.801311 
L 109.062352 223.937447 
L 109.604347 227.332779 
L 110.146341 225.793111 
L 110.688335 229.707407 
L 111.230329 227.581287 
L 111.772324 228.475021 
L 112.314318 223.837015 
L 113.398306 229.655561 
L 113.940301 225.409566 
L 114.482295 225.591957 
L 115.024289 229.075764 
L 115.566283 228.499157 
L 116.108277 225.360343 
L 116.650272 222.880236 
L 117.192266 223.538904 
L 117.73426 225.742558 
L 118.276254 229.270951 
L 118.818249 224.673582 
L 119.360243 225.324948 
L 119.902237 224.471709 
L 120.444231 224.919169 
L 120.986226 222.960168 
L 121.52822 224.789121 
L 122.070214 224.57564 
L 122.612208 225.087845 
L 123.154202 227.069603 
L 123.696197 221.58768 
L 124.780185 225.92485 
L 125.322179 224.167744 
L 125.864174 226.893764 
L 126.406168 226.825484 
L 126.948162 221.717629 
L 127.490156 223.318773 
L 128.032151 222.187635 
L 129.116139 223.359358 
L 129.658133 220.178373 
L 130.200127 222.946175 
L 130.742122 223.725577 
L 131.284116 222.669961 
L 131.82611 220.642111 
L 132.368104 227.497036 
L 132.910099 222.821092 
L 133.452093 223.366024 
L 133.994087 221.88415 
L 134.536081 225.65227 
L 135.078076 225.184457 
L 135.62007 227.001846 
L 136.162064 223.430423 
L 136.704058 223.554533 
L 137.246053 225.385707 
L 137.788047 220.983775 
L 138.330041 221.536841 
L 138.872035 222.736493 
L 139.414029 224.875567 
L 139.956024 222.571325 
L 140.498018 222.164252 
L 141.040012 221.599104 
L 141.582006 222.863015 
L 142.124001 225.913825 
L 142.665995 221.459174 
L 143.207989 224.999757 
L 143.749983 222.589566 
L 144.291978 226.750091 
L 144.833972 221.759668 
L 145.375966 222.634726 
L 145.91796 219.19091 
L 146.459954 226.36572 
L 147.001949 219.317389 
L 147.543943 219.787279 
L 148.085937 225.463576 
L 148.627931 222.490299 
L 149.169926 220.222531 
L 149.71192 224.335647 
L 150.253914 224.679171 
L 150.795908 224.048332 
L 151.337903 222.918953 
L 151.879897 224.233386 
L 152.421891 220.170471 
L 152.963885 218.46241 
L 153.505879 221.438803 
L 154.047874 223.370856 
L 155.131862 222.38421 
L 155.673856 222.589726 
L 156.215851 225.782243 
L 156.757845 224.88131 
L 157.299839 226.038174 
L 157.841833 222.824285 
L 158.383828 224.880858 
L 158.925822 227.870343 
L 159.467816 224.541607 
L 160.00981 222.600485 
L 160.551805 226.139938 
L 161.093799 222.305448 
L 161.635793 226.341801 
L 162.177787 225.577415 
L 162.719781 222.426111 
L 163.261776 220.695307 
L 163.80377 221.697245 
L 164.345764 220.769335 
L 164.887758 226.661251 
L 165.429753 224.487484 
L 165.971747 223.194948 
L 167.055735 219.832297 
L 167.59773 227.006997 
L 168.139724 222.233879 
L 168.681718 221.959027 
L 169.223712 224.944587 
L 169.765706 220.480356 
L 170.307701 226.183855 
L 170.849695 223.274877 
L 171.391689 222.840542 
L 171.933683 221.673548 
L 172.475678 223.132519 
L 173.017672 221.626373 
L 173.559666 222.843215 
L 174.10166 225.974426 
L 175.185649 221.832899 
L 175.727643 220.105196 
L 176.269637 229.020523 
L 176.811632 222.790807 
L 177.353626 220.184859 
L 177.89562 223.742902 
L 178.437614 222.321326 
L 178.979608 222.578563 
L 179.521603 221.41059 
L 180.063597 225.673908 
L 180.605591 221.29406 
L 181.147585 221.489917 
L 181.68958 223.356146 
L 182.231574 221.534118 
L 182.773568 224.130594 
L 183.315562 225.044655 
L 183.857557 224.662517 
L 184.399551 221.347713 
L 184.941545 225.397515 
L 185.483539 223.493656 
L 186.025533 219.847582 
L 186.567528 218.498866 
L 187.109522 224.465945 
L 187.651516 222.320615 
L 188.19351 221.641074 
L 188.735505 227.099782 
L 189.277499 222.726839 
L 190.361487 227.880409 
L 190.903482 221.940123 
L 191.445476 217.563314 
L 191.98747 224.312055 
L 192.529464 223.391891 
L 193.071458 224.983914 
L 193.613453 221.838367 
L 194.155447 220.906697 
L 194.697441 221.738835 
L 195.78143 217.790791 
L 196.323424 223.969685 
L 196.865418 221.272783 
L 197.407412 221.729669 
L 197.949407 219.176791 
L 198.491401 221.885925 
L 199.033395 221.247957 
L 199.575389 222.313364 
L 200.117384 223.984643 
L 200.659378 222.52596 
L 201.201372 223.929716 
L 201.743366 222.91759 
L 202.28536 225.52722 
L 202.827355 218.814198 
L 203.369349 224.068007 
L 203.911343 221.632147 
L 204.453337 217.76522 
L 205.537326 228.520923 
L 206.621314 225.266377 
L 207.163309 226.177368 
L 207.705303 221.078376 
L 208.247297 219.524141 
L 208.789291 223.414547 
L 209.331285 219.266652 
L 209.87328 225.600286 
L 210.415274 222.381936 
L 210.957268 224.719699 
L 211.499262 218.519155 
L 212.041257 225.168051 
L 212.583251 222.351813 
L 213.125245 223.598812 
L 213.667239 225.732028 
L 214.209234 220.783768 
L 214.751228 220.808028 
L 215.293222 223.947162 
L 216.377211 221.113213 
L 216.919205 220.426272 
L 217.461199 222.837802 
L 218.003193 222.181278 
L 218.545187 220.5122 
L 219.087182 223.678099 
L 219.629176 220.298464 
L 220.17117 220.672818 
L 220.713164 221.770456 
L 221.797153 226.85517 
L 222.339147 222.200677 
L 222.881141 224.857513 
L 223.423136 222.481619 
L 223.96513 221.135805 
L 224.507124 222.969583 
L 225.049118 221.226999 
L 225.591112 224.101333 
L 226.133107 221.623753 
L 226.675101 222.517539 
L 227.217095 221.090879 
L 227.759089 225.724266 
L 228.301084 223.245799 
L 228.843078 224.824775 
L 229.385072 224.222131 
L 229.927066 227.651439 
L 230.469061 225.41686 
L 231.011055 222.500673 
L 231.553049 222.556954 
L 232.095043 221.242163 
L 232.637037 224.161063 
L 233.179032 223.590151 
L 233.721026 220.29474 
L 234.26302 225.128071 
L 234.805014 217.530384 
L 235.347009 225.19813 
L 235.889003 225.666507 
L 236.430997 227.386533 
L 236.972991 223.519633 
L 237.514986 223.230015 
L 238.05698 221.639316 
L 238.598974 223.415327 
L 239.140968 223.225155 
L 239.682963 226.08511 
L 240.224957 224.396819 
L 241.850939 226.25179 
L 242.934928 222.705855 
L 243.476922 228.509266 
L 244.018916 223.327451 
L 244.560911 223.79289 
L 245.102905 224.889906 
L 245.644899 224.867167 
L 246.186893 223.908103 
L 246.728888 218.965535 
L 247.270882 223.58938 
L 247.812876 225.823092 
L 248.35487 220.827034 
L 248.896864 226.786497 
L 249.438859 221.954928 
L 249.980853 221.716331 
L 250.522847 219.790746 
L 251.064841 219.57157 
L 251.606836 222.670883 
L 252.14883 223.262565 
L 252.690824 221.678015 
L 253.232818 225.966808 
L 253.774813 226.513471 
L 254.316807 226.769708 
L 254.858801 223.717646 
L 255.400795 225.343034 
L 255.942789 222.808895 
L 256.484784 221.682188 
L 257.026778 220.253215 
L 257.568772 221.114262 
L 258.110766 225.17873 
L 258.652761 222.785503 
L 259.194755 223.688917 
L 259.736749 225.185375 
L 260.278743 225.116092 
L 260.820738 218.284659 
L 261.362732 222.151621 
L 261.904726 222.600244 
L 262.44672 222.109124 
L 262.988715 223.714257 
L 263.530709 225.758813 
L 264.072703 223.679882 
L 264.614697 223.38156 
L 265.156691 220.666766 
L 266.24068 226.896089 
L 266.782674 225.543924 
L 267.324668 228.261476 
L 267.866663 223.457464 
L 268.408657 223.275176 
L 268.950651 218.438191 
L 269.492645 220.319319 
L 270.03464 225.445149 
L 270.576634 225.391274 
L 271.118628 226.111196 
L 271.660622 222.650547 
L 272.202616 222.042602 
L 272.744611 222.491065 
L 273.286605 221.792102 
L 273.828599 223.958948 
L 274.370593 224.251512 
L 274.912588 222.301271 
L 275.454582 217.436941 
L 275.996576 225.901104 
L 276.53857 225.072511 
L 277.080565 224.770451 
L 277.622559 224.047957 
L 278.164553 229.352601 
L 278.706547 224.757279 
L 279.248542 224.155606 
L 279.790536 224.851024 
L 280.33253 218.908977 
L 280.874524 226.751831 
L 281.416518 223.512296 
L 281.958513 224.327278 
L 282.500507 223.433756 
L 283.042501 219.383182 
L 283.584495 219.150021 
L 284.668484 226.846595 
L 285.210478 219.464253 
L 285.752472 220.962427 
L 286.294467 221.447173 
L 286.836461 224.242439 
L 287.378455 223.716093 
L 287.920449 221.231695 
L 288.462443 221.285534 
L 289.004438 225.334689 
L 290.088426 224.244778 
L 290.63042 221.766333 
L 291.172415 223.755601 
L 291.714409 221.664951 
L 292.256403 224.703419 
L 292.798397 222.868139 
L 293.340392 223.819998 
L 293.882386 229.397794 
L 294.966374 221.075445 
L 295.508368 226.23659 
L 296.050363 225.347128 
L 296.592357 227.886551 
L 297.134351 221.25184 
L 297.676345 225.777072 
L 298.21834 223.180288 
L 298.760334 225.199426 
L 299.302328 224.64017 
L 299.844322 222.272317 
L 300.386317 224.984712 
L 300.928311 225.096418 
L 301.470305 220.023311 
L 302.554294 225.380512 
L 303.096288 224.268965 
L 303.638282 227.540302 
L 304.180276 220.006443 
L 304.72227 222.824551 
L 305.264265 223.121068 
L 305.806259 224.655721 
L 306.348253 227.361258 
L 306.890247 228.557518 
L 307.432242 224.444883 
L 307.974236 221.630954 
L 309.058224 223.98472 
L 309.600219 222.918881 
L 310.142213 223.710531 
L 310.684207 222.431134 
L 311.226201 224.939256 
L 311.768195 226.598895 
L 312.31019 217.64385 
L 312.852184 225.289034 
L 313.394178 225.359472 
L 314.478167 223.703153 
L 315.020161 223.338739 
L 315.562155 223.348829 
L 316.104149 224.917061 
L 316.646144 223.996011 
L 317.188138 222.281131 
L 317.730132 226.653743 
L 318.272126 222.045169 
L 318.814121 226.90847 
L 319.356115 220.547683 
L 319.898109 225.707504 
L 320.440103 221.797083 
L 320.982097 224.050792 
L 321.524092 221.493314 
L 322.066086 226.450212 
L 322.60808 222.802604 
L 323.150074 226.310544 
L 323.692069 225.727781 
L 324.234063 227.893919 
L 324.776057 224.890187 
L 325.318051 225.565456 
L 325.860046 226.590847 
L 326.40204 223.48663 
L 326.944034 221.677069 
L 327.486028 225.400218 
L 328.028022 226.537183 
L 328.570017 222.842783 
L 329.112011 221.240484 
L 329.654005 222.153435 
L 330.195999 224.990999 
L 330.737994 226.514712 
L 331.279988 219.236999 
L 332.363976 225.146466 
L 332.905971 226.364841 
L 333.447965 225.626325 
L 333.989959 223.47981 
L 334.531953 227.243189 
L 335.073947 221.169343 
L 335.615942 227.725775 
L 336.157936 217.90354 
L 336.69993 223.531611 
L 337.241924 225.412436 
L 337.783919 220.76672 
L 338.325913 219.507883 
L 338.867907 226.407125 
L 339.951896 222.402133 
L 340.49389 225.273896 
L 341.035884 229.670016 
L 341.577878 222.152309 
L 342.119873 222.399884 
L 342.661867 222.400587 
L 343.203861 224.809287 
L 343.745855 224.561756 
L 344.287849 225.934126 
L 344.829844 221.1029 
L 345.371838 223.080689 
L 345.913832 221.059826 
L 346.455826 228.856965 
L 346.997821 222.91693 
L 347.539815 228.784008 
L 348.081809 228.42192 
L 349.165798 222.986588 
L 349.707792 226.593586 
L 350.249786 222.617182 
L 351.333774 226.766986 
L 352.417763 226.340145 
L 352.959757 227.969958 
L 353.501751 227.418075 
L 354.043746 222.032382 
L 354.58574 223.168524 
L 355.127734 226.897259 
L 355.669728 222.248181 
L 356.211723 223.1226 
L 357.295711 226.113401 
L 357.837705 224.920029 
L 358.379699 220.136758 
L 358.921694 222.282336 
L 359.463688 227.590173 
L 360.005682 221.983657 
L 360.547676 224.5384 
L 361.089671 221.558843 
L 361.631665 222.110509 
L 362.173659 218.187485 
L 362.715653 227.853436 
L 363.257648 230.25739 
L 363.799642 223.595493 
L 364.341636 225.482408 
L 365.425625 226.939315 
L 365.967619 226.202898 
L 366.509613 221.747015 
L 367.051607 225.901094 
L 367.593601 225.939767 
L 368.135596 219.593616 
L 368.67759 225.62857 
L 369.219584 220.836078 
L 369.761578 220.295838 
L 370.303573 226.063731 
L 370.845567 223.970242 
L 371.387561 222.535182 
L 371.929555 223.902165 
L 372.47155 228.533839 
L 373.013544 222.975556 
L 373.555538 222.635974 
L 374.097532 222.017663 
L 374.639526 223.200415 
L 375.181521 221.819645 
L 375.723515 225.209576 
L 376.265509 227.121588 
L 376.807503 222.396033 
L 377.349498 226.127595 
L 377.891492 226.199012 
L 378.433486 223.408753 
L 378.97548 228.10156 
L 379.517475 224.35362 
L 380.059469 224.823164 
L 380.601463 220.724587 
L 381.143457 224.996728 
L 381.685452 225.700065 
L 382.227446 225.960056 
L 382.76944 222.741524 
L 383.311434 224.871376 
L 383.853428 228.2409 
L 384.395423 220.226931 
L 384.937417 226.150939 
L 385.479411 221.473214 
L 386.021405 224.378971 
L 386.5634 223.426554 
L 387.105394 224.175857 
L 387.647388 225.420161 
L 388.189382 224.559408 
L 388.731377 224.250333 
L 389.273371 225.270246 
L 389.815365 226.611527 
L 390.357359 227.04688 
L 390.899353 222.711531 
L 391.983342 226.117734 
L 392.525336 224.677868 
L 393.06733 227.876174 
L 393.609325 225.06294 
L 394.151319 223.64601 
L 394.693313 228.183028 
L 395.235307 222.347936 
L 395.777302 226.168313 
L 396.319296 226.009589 
L 396.86129 222.746818 
L 397.403284 222.22051 
L 397.945278 224.933774 
L 398.487273 223.133411 
L 398.487273 223.133411 
" clip-path="url(#p83aed3bd71)" style="fill: none; stroke: #0000ff; stroke-width: 1.5; stroke-linecap: square"/>
   </g>
   <g id="line2d_24">
    <path d="M 73.832727 276.75137 
L 74.374722 277.921505 
L 74.916716 278.179697 
L 75.45871 274.878659 
L 76.000704 278.171946 
L 76.542698 276.866967 
L 77.084693 278.738951 
L 77.626687 277.384112 
L 78.168681 278.742053 
L 78.710675 277.514914 
L 79.25267 279.857814 
L 79.794664 279.208251 
L 80.336658 280.092449 
L 80.878652 278.417024 
L 81.420647 277.574959 
L 81.962641 276.136603 
L 82.504635 276.332269 
L 83.046629 273.248351 
L 83.588623 273.340414 
L 84.130618 272.764763 
L 84.672612 272.634833 
L 85.214606 272.03284 
L 85.7566 272.692387 
L 86.840589 273.529742 
L 87.382583 273.883093 
L 87.924577 272.189542 
L 88.466572 272.50627 
L 89.008566 273.313671 
L 89.55056 272.620125 
L 90.092554 273.971442 
L 90.634548 274.398905 
L 91.176543 273.578707 
L 91.718537 274.84272 
L 92.260531 274.616432 
L 92.802525 274.640774 
L 93.34452 275.67861 
L 93.886514 275.512158 
L 94.970502 277.92795 
L 95.512497 276.181541 
L 96.054491 283.304822 
L 96.596485 276.375035 
L 97.138479 278.502433 
L 97.680474 277.210897 
L 98.764462 276.514597 
L 99.306456 275.496741 
L 99.84845 279.800806 
L 100.390445 280.079657 
L 100.932439 278.332094 
L 101.474433 278.776288 
L 102.016427 281.523318 
L 102.558422 280.304913 
L 103.100416 276.35321 
L 103.64241 277.707634 
L 104.184404 281.572462 
L 104.726399 282.396454 
L 105.268393 282.578715 
L 105.810387 278.164653 
L 106.352381 277.1975 
L 106.894375 279.737373 
L 107.43637 279.626461 
L 107.978364 276.42042 
L 108.520358 279.628824 
L 109.062352 276.758593 
L 109.604347 279.87336 
L 110.146341 278.679538 
L 110.688335 281.197784 
L 111.230329 278.123358 
L 111.772324 280.508289 
L 112.314318 277.711879 
L 113.398306 282.394116 
L 113.940301 278.919088 
L 115.024289 280.602191 
L 116.108277 280.268858 
L 116.650272 277.124691 
L 117.192266 277.629655 
L 117.73426 279.254142 
L 118.276254 283.112755 
L 118.818249 278.57666 
L 119.360243 279.395046 
L 119.902237 278.576266 
L 120.444231 280.182921 
L 120.986226 278.638926 
L 121.52822 280.420583 
L 122.070214 280.027657 
L 122.612208 282.566426 
L 123.154202 283.271354 
L 123.696197 280.179618 
L 124.238191 280.250687 
L 124.780185 283.863024 
L 125.322179 281.97337 
L 125.864174 283.273704 
L 126.406168 283.873459 
L 126.948162 278.876158 
L 127.490156 282.260076 
L 128.032151 280.498187 
L 128.574145 280.346284 
L 129.116139 281.984447 
L 129.658133 279.747388 
L 130.200127 282.54503 
L 130.742122 282.627202 
L 131.284116 282.065458 
L 131.82611 280.838887 
L 132.368104 285.288157 
L 132.910099 281.987958 
L 133.452093 282.353774 
L 133.994087 282.137406 
L 134.536081 284.648551 
L 135.078076 285.241932 
L 135.62007 286.857679 
L 136.162064 284.807862 
L 136.704058 283.40105 
L 137.246053 286.252519 
L 137.788047 282.615848 
L 138.330041 282.641261 
L 138.872035 282.422381 
L 139.414029 284.565688 
L 139.956024 283.140608 
L 140.498018 284.502172 
L 141.040012 283.685968 
L 141.582006 283.428674 
L 142.124001 285.157275 
L 142.665995 283.20924 
L 143.207989 286.573699 
L 143.749983 284.047285 
L 144.291978 289.388076 
L 144.833972 284.040075 
L 145.375966 283.505473 
L 145.91796 280.490584 
L 146.459954 287.653768 
L 147.001949 282.729435 
L 147.543943 281.334014 
L 148.085937 286.85795 
L 148.627931 283.864555 
L 149.169926 284.183238 
L 149.71192 286.19343 
L 150.253914 284.760155 
L 150.795908 285.253121 
L 151.337903 284.891424 
L 151.879897 286.612464 
L 152.421891 282.589744 
L 152.963885 281.157166 
L 153.505879 285.543766 
L 154.047874 287.519217 
L 154.589868 285.424416 
L 155.131862 284.247381 
L 155.673856 285.528336 
L 156.215851 286.340072 
L 156.757845 285.278084 
L 157.299839 287.099195 
L 157.841833 285.465216 
L 158.383828 286.666776 
L 158.925822 289.12124 
L 159.467816 285.457102 
L 160.00981 286.177542 
L 160.551805 288.486179 
L 161.093799 284.279291 
L 161.635793 289.078985 
L 162.177787 288.242737 
L 162.719781 287.067805 
L 163.261776 284.039207 
L 163.80377 283.935086 
L 164.345764 285.111261 
L 164.887758 287.412535 
L 165.429753 285.743002 
L 165.971747 285.780813 
L 166.513741 285.698863 
L 167.055735 284.591799 
L 167.59773 289.71545 
L 168.139724 285.169108 
L 168.681718 286.076506 
L 169.223712 285.941484 
L 169.765706 283.810829 
L 170.307701 288.869499 
L 170.849695 287.517711 
L 171.391689 288.101027 
L 171.933683 287.598862 
L 172.475678 286.944003 
L 173.017672 284.591489 
L 173.559666 285.297325 
L 174.10166 288.211569 
L 174.643655 288.269412 
L 175.185649 286.244452 
L 175.727643 285.828664 
L 176.269637 292.334938 
L 176.811632 285.8123 
L 177.353626 284.853009 
L 177.89562 287.731393 
L 178.437614 287.796769 
L 178.979608 287.745813 
L 179.521603 286.888353 
L 180.063597 290.109465 
L 180.605591 286.525132 
L 181.147585 287.092617 
L 182.231574 287.444425 
L 183.857557 290.406963 
L 184.399551 287.030015 
L 184.941545 290.777484 
L 186.025533 284.831321 
L 186.567528 285.394035 
L 187.109522 288.792262 
L 187.651516 286.454246 
L 188.19351 287.25522 
L 188.735505 290.429903 
L 189.277499 287.914604 
L 189.819493 289.83339 
L 190.361487 291.204238 
L 190.903482 286.916778 
L 191.445476 285.20327 
L 191.98747 288.64836 
L 192.529464 287.181016 
L 193.071458 288.370512 
L 193.613453 287.34633 
L 194.155447 286.642809 
L 194.697441 287.278239 
L 195.239435 284.907793 
L 195.78143 284.790647 
L 196.323424 289.694407 
L 196.865418 286.455008 
L 197.407412 288.730167 
L 197.949407 285.768635 
L 198.491401 287.710634 
L 199.033395 285.969454 
L 199.575389 287.376935 
L 200.117384 286.808755 
L 200.659378 288.163727 
L 201.201372 288.868476 
L 201.743366 287.525031 
L 202.28536 291.468737 
L 202.827355 284.111117 
L 203.369349 289.27162 
L 203.911343 287.654813 
L 204.453337 285.553058 
L 204.995332 289.387612 
L 205.537326 292.241451 
L 206.07932 293.212714 
L 206.621314 290.6496 
L 207.163309 290.728238 
L 207.705303 287.154675 
L 208.247297 285.750391 
L 208.789291 289.353512 
L 209.331285 285.896775 
L 209.87328 290.469496 
L 210.415274 289.950279 
L 210.957268 290.203272 
L 211.499262 285.250462 
L 212.041257 290.541786 
L 212.583251 287.620771 
L 213.125245 290.658087 
L 213.667239 291.382581 
L 214.209234 286.407701 
L 214.751228 286.36121 
L 215.293222 289.964332 
L 216.377211 285.796605 
L 216.919205 286.360231 
L 217.461199 289.348509 
L 218.003193 288.362797 
L 218.545187 286.759759 
L 219.087182 288.629435 
L 219.629176 286.036068 
L 220.17117 286.07789 
L 220.713164 287.502477 
L 221.255159 289.917378 
L 221.797153 291.339638 
L 222.339147 287.928042 
L 222.881141 289.161936 
L 224.507124 287.299529 
L 225.049118 288.349113 
L 225.591112 291.2188 
L 226.133107 288.742213 
L 226.675101 289.932963 
L 227.217095 286.919632 
L 227.759089 290.729938 
L 228.301084 290.155883 
L 228.843078 290.057209 
L 229.385072 288.078532 
L 229.927066 291.759831 
L 230.469061 290.058607 
L 231.011055 290.208566 
L 232.095043 288.563812 
L 232.637037 289.566662 
L 233.179032 288.888551 
L 233.721026 286.088621 
L 234.26302 289.994455 
L 234.805014 284.228975 
L 235.347009 289.842306 
L 235.889003 290.321159 
L 236.430997 292.250317 
L 236.972991 288.143506 
L 237.514986 289.50137 
L 238.05698 287.611081 
L 238.598974 288.799339 
L 239.140968 288.718359 
L 239.682963 291.310908 
L 240.224957 288.876286 
L 240.766951 291.915732 
L 241.308945 290.187949 
L 241.850939 290.11873 
L 242.392934 291.960903 
L 242.934928 286.067831 
L 243.476922 292.487744 
L 244.018916 288.217623 
L 244.560911 288.503671 
L 245.102905 289.129645 
L 245.644899 290.330342 
L 246.186893 289.452361 
L 246.728888 287.194396 
L 247.270882 291.310019 
L 247.812876 291.200016 
L 248.35487 286.607004 
L 248.896864 291.467062 
L 249.438859 289.320479 
L 249.980853 288.058348 
L 250.522847 287.577387 
L 251.064841 286.35544 
L 251.606836 289.585365 
L 252.14883 290.297535 
L 252.690824 288.108947 
L 253.232818 290.323381 
L 253.774813 292.017633 
L 254.316807 291.283461 
L 254.858801 290.100823 
L 255.400795 290.513249 
L 255.942789 291.57284 
L 256.484784 287.451476 
L 257.026778 287.707871 
L 257.568772 288.681197 
L 258.110766 291.069333 
L 258.652761 289.314888 
L 259.194755 288.274412 
L 259.736749 290.019212 
L 260.278743 290.154444 
L 260.820738 286.639289 
L 261.904726 290.117887 
L 262.44672 288.025374 
L 262.988715 288.667602 
L 263.530709 291.55237 
L 264.072703 290.858093 
L 264.614697 290.467015 
L 265.156691 289.073317 
L 265.698686 289.011409 
L 266.24068 292.792836 
L 266.782674 289.948453 
L 267.324668 293.821804 
L 267.866663 289.27971 
L 268.408657 289.479468 
L 268.950651 287.350964 
L 269.492645 287.396912 
L 270.03464 290.406488 
L 270.576634 292.532973 
L 271.118628 291.211168 
L 271.660622 287.088559 
L 272.202616 288.894074 
L 272.744611 289.425769 
L 273.286605 288.096317 
L 273.828599 289.572674 
L 274.370593 290.470649 
L 274.912588 288.767392 
L 275.454582 284.997435 
L 275.996576 291.511498 
L 276.53857 290.59663 
L 277.080565 292.305074 
L 277.622559 290.098697 
L 278.164553 294.103431 
L 278.706547 290.326094 
L 279.790536 289.047894 
L 280.33253 285.347563 
L 280.874524 292.297707 
L 281.416518 288.140034 
L 281.958513 290.38818 
L 282.500507 290.807186 
L 283.042501 285.795054 
L 283.584495 285.646843 
L 284.668484 292.406198 
L 285.210478 284.233427 
L 285.752472 288.392546 
L 286.294467 287.229378 
L 286.836461 290.357639 
L 287.378455 290.898324 
L 287.920449 286.755595 
L 288.462443 289.283846 
L 289.004438 290.938794 
L 289.546432 291.107658 
L 290.088426 288.964738 
L 290.63042 287.407726 
L 291.172415 290.055906 
L 291.714409 288.335545 
L 292.256403 289.590293 
L 292.798397 287.600175 
L 293.882386 292.894708 
L 294.966374 287.91193 
L 295.508368 291.154558 
L 296.050363 289.696846 
L 296.592357 291.653092 
L 297.134351 286.632682 
L 297.676345 290.67963 
L 298.21834 289.255599 
L 299.302328 291.346495 
L 299.844322 288.567984 
L 300.386317 292.003687 
L 300.928311 290.622468 
L 301.470305 287.40517 
L 302.012299 289.628317 
L 302.554294 290.948197 
L 303.096288 290.188393 
L 303.638282 291.110341 
L 304.180276 285.589758 
L 304.72227 288.568304 
L 305.264265 288.598886 
L 305.806259 290.446194 
L 306.348253 291.318319 
L 306.890247 290.998176 
L 307.432242 289.220826 
L 307.974236 288.274921 
L 308.51623 291.367449 
L 309.058224 289.965478 
L 309.600219 291.099046 
L 310.142213 290.76508 
L 310.684207 288.632916 
L 311.226201 291.47347 
L 311.768195 290.645998 
L 312.31019 284.213083 
L 312.852184 291.004232 
L 313.394178 290.32677 
L 313.936172 291.129736 
L 314.478167 288.924266 
L 315.020161 288.643279 
L 315.562155 289.057421 
L 316.104149 290.719975 
L 316.646144 290.323486 
L 317.188138 287.930393 
L 317.730132 291.60957 
L 318.272126 287.278919 
L 318.814121 291.632012 
L 319.356115 286.773328 
L 319.898109 291.243822 
L 320.440103 288.094576 
L 320.982097 290.179287 
L 321.524092 289.444464 
L 322.066086 291.949342 
L 322.60808 288.718797 
L 323.150074 292.176999 
L 323.692069 291.921441 
L 324.234063 293.313375 
L 324.776057 291.219123 
L 325.318051 291.251213 
L 325.860046 293.660122 
L 326.944034 288.788378 
L 327.486028 290.94256 
L 328.028022 291.275671 
L 328.570017 288.915603 
L 329.112011 289.831232 
L 329.654005 288.782426 
L 330.195999 290.546026 
L 330.737994 293.495665 
L 331.279988 286.94048 
L 331.821982 289.967211 
L 332.363976 290.168948 
L 332.905971 290.797785 
L 333.447965 291.214084 
L 333.989959 288.112557 
L 334.531953 292.529533 
L 335.073947 287.900493 
L 335.615942 295.004105 
L 336.157936 285.706868 
L 336.69993 290.835814 
L 337.241924 291.18172 
L 337.783919 287.205872 
L 338.325913 287.879564 
L 338.867907 292.994313 
L 339.951896 290.028622 
L 340.49389 292.205248 
L 341.035884 293.828386 
L 341.577878 288.370738 
L 342.119873 289.186583 
L 342.661867 289.412114 
L 343.203861 290.407898 
L 343.745855 290.067327 
L 344.287849 292.230623 
L 344.829844 288.921155 
L 345.371838 289.555653 
L 345.913832 289.35333 
L 346.455826 293.838936 
L 346.997821 288.938299 
L 347.539815 293.374506 
L 348.081809 292.342694 
L 348.623803 290.989542 
L 349.165798 290.211089 
L 349.707792 292.956071 
L 350.249786 287.476072 
L 351.333774 293.565578 
L 352.417763 292.284535 
L 352.959757 292.077599 
L 353.501751 291.000754 
L 354.043746 287.486632 
L 354.58574 288.38719 
L 355.127734 294.067345 
L 355.669728 290.481732 
L 356.211723 289.766728 
L 356.753717 291.144183 
L 357.295711 292.005319 
L 357.837705 292.018907 
L 358.379699 288.026952 
L 358.921694 288.230602 
L 359.463688 293.631327 
L 360.005682 289.873965 
L 360.547676 292.614397 
L 361.089671 288.283119 
L 361.631665 288.939 
L 362.173659 285.808279 
L 362.715653 294.221736 
L 363.257648 295.488 
L 363.799642 289.66032 
L 364.341636 293.238933 
L 364.88363 290.996066 
L 365.425625 292.259015 
L 365.967619 291.769172 
L 366.509613 288.711963 
L 367.051607 292.858392 
L 367.593601 292.364947 
L 368.135596 287.604654 
L 368.67759 291.632167 
L 369.219584 286.908972 
L 369.761578 290.539867 
L 370.303573 292.644246 
L 371.387561 289.782195 
L 371.929555 290.74033 
L 372.47155 294.984217 
L 373.013544 289.576095 
L 373.555538 289.824802 
L 374.097532 289.070975 
L 374.639526 290.40138 
L 375.181521 289.118882 
L 375.723515 291.86966 
L 376.265509 291.611819 
L 376.807503 290.189242 
L 377.891492 292.936674 
L 378.433486 290.915404 
L 378.97548 294.176538 
L 379.517475 291.863978 
L 380.059469 291.010343 
L 380.601463 288.22896 
L 381.143457 292.944063 
L 381.685452 291.14114 
L 382.227446 292.287964 
L 382.76944 290.066694 
L 383.311434 292.601405 
L 383.853428 294.294466 
L 384.395423 287.563917 
L 384.937417 292.827543 
L 385.479411 288.665669 
L 386.021405 291.194114 
L 386.5634 290.604309 
L 387.105394 290.669945 
L 387.647388 292.684682 
L 388.189382 291.016342 
L 388.731377 290.638866 
L 389.273371 292.702663 
L 389.815365 291.148274 
L 390.357359 292.081457 
L 390.899353 290.685266 
L 391.441348 292.430808 
L 392.525336 291.37536 
L 393.06733 293.375122 
L 393.609325 290.937026 
L 394.151319 289.281435 
L 394.693313 294.812668 
L 395.235307 291.339631 
L 396.319296 291.814636 
L 397.403284 288.536099 
L 397.945278 291.547774 
L 398.487273 292.389213 
L 398.487273 292.389213 
" clip-path="url(#p83aed3bd71)" style="fill: none; stroke-dasharray: 9.6,2.4,1.5,2.4; stroke-dashoffset: 0; stroke: #008000; stroke-width: 1.5"/>
   </g>
   <g id="line2d_25">
    <path d="M 73.832727 250.338091 
L 74.374722 244.752503 
L 74.916716 242.328313 
L 75.45871 240.744843 
L 76.000704 238.443893 
L 76.542698 237.754784 
L 77.084693 236.298304 
L 78.168681 232.272367 
L 78.710675 234.331721 
L 79.25267 233.740407 
L 79.794664 231.175501 
L 80.336658 231.84469 
L 80.878652 229.406799 
L 81.962641 223.568385 
L 82.504635 218.66882 
L 83.046629 209.926307 
L 83.588623 206.929077 
L 84.130618 206.887176 
L 84.672612 206.462818 
L 85.214606 205.172867 
L 85.7566 204.342804 
L 86.298595 201.626404 
L 86.840589 202.008174 
L 87.382583 199.398634 
L 87.924577 197.344264 
L 88.466572 193.49212 
L 89.008566 195.853176 
L 89.55056 194.798771 
L 90.092554 195.039682 
L 90.634548 190.864898 
L 91.176543 190.340999 
L 91.718537 192.974807 
L 92.260531 194.020768 
L 92.802525 191.790541 
L 93.34452 192.613331 
L 93.886514 189.03036 
L 94.428508 190.770961 
L 94.970502 193.891184 
L 95.512497 188.445796 
L 96.054491 190.50354 
L 96.596485 181.34359 
L 97.138479 185.902018 
L 97.680474 182.230434 
L 98.764462 178.798047 
L 99.306456 177.600432 
L 99.84845 181.911636 
L 100.390445 182.218625 
L 100.932439 180.888875 
L 101.474433 182.667994 
L 102.016427 183.533483 
L 102.558422 179.1228 
L 103.100416 175.978507 
L 103.64241 171.614874 
L 104.184404 179.225792 
L 104.726399 182.80173 
L 105.268393 178.813432 
L 105.810387 172.952036 
L 106.352381 174.443501 
L 106.894375 177.573822 
L 107.43637 176.28952 
L 107.978364 171.661457 
L 108.520358 177.973798 
L 109.062352 171.116302 
L 109.604347 174.792197 
L 110.146341 172.906685 
L 110.688335 178.217029 
L 111.230329 177.039217 
L 111.772324 176.441754 
L 112.314318 169.962151 
L 112.856312 173.954801 
L 113.398306 176.917005 
L 113.940301 171.900043 
L 114.482295 171.466444 
L 115.024289 177.549337 
L 115.566283 176.59401 
L 116.108277 170.451828 
L 116.650272 168.635781 
L 117.192266 169.448154 
L 118.276254 175.429148 
L 118.818249 170.770504 
L 119.360243 171.25485 
L 120.444231 169.655417 
L 120.986226 167.281409 
L 121.52822 169.157659 
L 122.070214 169.123622 
L 122.612208 167.609264 
L 123.154202 170.867852 
L 123.696197 162.995742 
L 124.238191 167.234683 
L 124.780185 167.986677 
L 125.322179 166.362118 
L 125.864174 170.513824 
L 126.406168 169.777509 
L 126.948162 164.5591 
L 127.490156 164.37747 
L 128.032151 163.877083 
L 128.574145 165.116889 
L 129.116139 164.73427 
L 129.658133 160.609358 
L 130.200127 163.34732 
L 130.742122 164.823952 
L 131.284116 163.274463 
L 131.82611 160.445335 
L 132.368104 169.705915 
L 132.910099 163.654227 
L 133.452093 164.378274 
L 133.994087 161.630894 
L 134.536081 166.655989 
L 135.078076 165.126983 
L 135.62007 167.146013 
L 136.162064 162.052983 
L 136.704058 163.708015 
L 137.246053 164.518895 
L 137.788047 159.351703 
L 138.330041 160.432421 
L 139.414029 165.185446 
L 139.956024 162.002042 
L 140.498018 159.826332 
L 141.040012 159.51224 
L 141.582006 162.297356 
L 142.124001 166.670376 
L 142.665995 159.709107 
L 143.207989 163.425816 
L 143.749983 161.131848 
L 144.291978 164.112106 
L 144.833972 159.479261 
L 145.375966 161.76398 
L 145.91796 157.891236 
L 146.459954 165.077673 
L 147.001949 155.905343 
L 147.543943 158.240544 
L 148.085937 164.069201 
L 148.627931 161.116043 
L 149.169926 156.261824 
L 149.71192 162.477864 
L 150.253914 164.598187 
L 151.337903 160.946482 
L 151.879897 161.854307 
L 152.421891 157.751198 
L 152.963885 155.767654 
L 154.589868 160.462019 
L 155.131862 160.521039 
L 155.673856 159.651117 
L 156.215851 165.224415 
L 156.757845 164.484535 
L 157.299839 164.977154 
L 157.841833 160.183355 
L 158.383828 163.094939 
L 158.925822 166.619446 
L 159.467816 163.626113 
L 160.00981 159.023427 
L 160.551805 163.793697 
L 161.093799 160.331604 
L 161.635793 163.604618 
L 162.177787 162.912093 
L 162.719781 157.784417 
L 163.261776 157.351407 
L 163.80377 159.459405 
L 164.345764 156.427409 
L 164.887758 165.909967 
L 165.971747 160.609084 
L 166.513741 157.106995 
L 167.055735 155.072795 
L 167.59773 164.298544 
L 168.139724 159.29865 
L 168.681718 157.841548 
L 169.223712 163.947691 
L 169.765706 157.149883 
L 170.307701 163.498212 
L 170.849695 159.032042 
L 171.391689 157.580058 
L 171.933683 155.748234 
L 172.475678 159.321035 
L 173.017672 158.661258 
L 173.559666 160.389105 
L 174.10166 163.737282 
L 174.643655 159.306211 
L 175.185649 157.421345 
L 175.727643 154.381728 
L 176.269637 165.706107 
L 176.811632 159.769314 
L 177.353626 155.516709 
L 177.89562 159.754411 
L 178.437614 156.845884 
L 178.979608 157.411314 
L 179.521603 155.932827 
L 180.063597 161.238351 
L 180.605591 156.062989 
L 181.147585 155.887218 
L 181.68958 159.460686 
L 182.231574 155.623811 
L 182.773568 159.890486 
L 183.315562 160.927782 
L 183.857557 158.918072 
L 184.399551 155.665411 
L 184.941545 160.017546 
L 185.483539 159.236058 
L 186.025533 154.863843 
L 186.567528 151.603698 
L 187.109522 160.139628 
L 188.19351 156.026927 
L 188.735505 163.76966 
L 189.277499 157.539075 
L 189.819493 160.443456 
L 190.361487 164.55658 
L 191.445476 149.923358 
L 191.98747 159.975751 
L 192.529464 159.602765 
L 193.071458 161.597316 
L 193.613453 156.330403 
L 194.155447 155.170585 
L 194.697441 156.199432 
L 195.239435 154.660132 
L 195.78143 150.790934 
L 196.323424 158.244962 
L 196.865418 156.090558 
L 197.407412 154.729171 
L 197.949407 152.584947 
L 198.491401 156.061215 
L 199.033395 156.526459 
L 199.575389 157.249792 
L 200.117384 161.160531 
L 200.659378 156.888193 
L 201.201372 158.990957 
L 201.743366 158.310148 
L 202.28536 159.585703 
L 202.827355 153.517278 
L 203.369349 158.864395 
L 203.911343 155.60948 
L 204.453337 149.977383 
L 205.537326 164.800396 
L 206.07932 160.275189 
L 206.621314 159.883154 
L 207.163309 161.626497 
L 207.705303 155.002077 
L 208.247297 153.297891 
L 208.789291 157.475582 
L 209.331285 152.636529 
L 209.87328 160.731076 
L 210.415274 154.813593 
L 210.957268 159.236126 
L 211.499262 151.787848 
L 212.041257 159.794315 
L 212.583251 157.082856 
L 213.125245 156.539538 
L 213.667239 160.081475 
L 214.209234 155.159835 
L 214.751228 155.254845 
L 215.293222 157.929991 
L 216.377211 156.429821 
L 216.919205 154.492314 
L 217.461199 156.327096 
L 218.003193 155.999759 
L 218.545187 154.26464 
L 219.087182 158.726763 
L 219.629176 154.56086 
L 220.713164 156.038434 
L 221.255159 158.477035 
L 221.797153 162.370702 
L 222.339147 156.473313 
L 222.881141 160.553091 
L 223.423136 156.429326 
L 223.96513 154.514276 
L 224.507124 158.639636 
L 225.049118 154.104885 
L 225.591112 156.983866 
L 226.133107 154.505292 
L 226.675101 155.102114 
L 227.217095 155.262125 
L 227.759089 160.718593 
L 228.301084 156.335714 
L 228.843078 159.592342 
L 229.385072 160.365731 
L 229.927066 163.543046 
L 230.469061 160.775112 
L 231.011055 154.79278 
L 231.553049 155.836259 
L 232.095043 153.920513 
L 232.637037 158.755464 
L 233.179032 158.291752 
L 233.721026 154.500859 
L 234.26302 160.261687 
L 234.805014 150.831792 
L 235.347009 160.553953 
L 235.889003 161.011855 
L 236.430997 162.522749 
L 236.972991 158.89576 
L 237.514986 156.95866 
L 238.05698 155.66755 
L 238.598974 158.031314 
L 239.140968 157.731952 
L 239.682963 160.859312 
L 240.224957 159.917353 
L 240.766951 158.074768 
L 241.308945 161.286162 
L 241.850939 162.38485 
L 242.392934 156.893659 
L 242.934928 159.343879 
L 243.476922 164.530788 
L 244.018916 158.43728 
L 244.560911 159.08211 
L 245.102905 160.650168 
L 246.186893 158.363846 
L 246.728888 150.736673 
L 247.812876 160.446168 
L 248.35487 155.047064 
L 248.896864 162.105932 
L 249.438859 154.589377 
L 249.980853 155.374314 
L 250.522847 152.004105 
L 251.064841 152.787701 
L 251.606836 155.7564 
L 252.14883 156.227594 
L 252.690824 155.247083 
L 253.232818 161.610235 
L 253.774813 161.009309 
L 254.316807 162.255955 
L 254.858801 157.334469 
L 255.400795 160.172819 
L 255.942789 154.044949 
L 256.484784 155.912899 
L 257.026778 152.798559 
L 257.568772 153.547328 
L 258.110766 159.288127 
L 258.652761 156.256118 
L 259.194755 159.103422 
L 259.736749 160.351538 
L 260.278743 160.07774 
L 260.820738 149.930029 
L 261.362732 155.86179 
L 261.904726 155.0826 
L 262.44672 156.192873 
L 262.988715 158.760912 
L 263.530709 159.965256 
L 264.072703 156.501671 
L 264.614697 156.296106 
L 265.156691 152.260215 
L 265.698686 158.539403 
L 266.24068 160.999343 
L 266.782674 161.139395 
L 267.324668 162.701147 
L 267.866663 157.635218 
L 268.408657 157.070884 
L 268.950651 149.525417 
L 269.492645 153.241725 
L 270.03464 160.483811 
L 270.576634 158.249575 
L 271.118628 161.011224 
L 272.202616 155.191131 
L 272.744611 155.556361 
L 273.286605 155.487887 
L 273.828599 158.345221 
L 274.370593 158.032375 
L 274.912588 155.83515 
L 275.454582 149.876448 
L 275.996576 160.29071 
L 276.53857 159.548393 
L 277.080565 157.235828 
L 277.622559 157.997217 
L 278.164553 164.601771 
L 278.706547 159.188464 
L 279.248542 158.703088 
L 279.790536 160.654155 
L 280.33253 152.47039 
L 280.874524 161.205955 
L 281.416518 158.884559 
L 281.958513 158.266377 
L 282.500507 156.060326 
L 283.042501 152.97131 
L 283.584495 152.653199 
L 284.12649 156.515952 
L 284.668484 161.286992 
L 285.210478 154.695079 
L 285.752472 153.532308 
L 286.836461 158.127238 
L 287.378455 156.533863 
L 287.920449 155.707794 
L 288.462443 153.287222 
L 289.004438 159.730584 
L 289.546432 158.320913 
L 290.088426 159.524818 
L 290.63042 156.124939 
L 291.172415 157.455297 
L 291.714409 154.994358 
L 292.256403 159.816544 
L 292.798397 158.136103 
L 293.340392 157.436878 
L 293.882386 165.900879 
L 294.966374 154.238961 
L 295.508368 161.318621 
L 296.050363 160.997411 
L 296.592357 164.120011 
L 297.134351 155.870997 
L 297.676345 160.874514 
L 298.21834 157.104977 
L 298.760334 159.980023 
L 299.844322 155.97665 
L 300.928311 159.570369 
L 301.470305 152.641452 
L 302.012299 155.499178 
L 302.554294 159.812827 
L 303.096288 158.349537 
L 303.638282 163.970263 
L 304.180276 154.423129 
L 304.72227 157.080798 
L 305.264265 157.643251 
L 305.806259 158.865249 
L 306.348253 163.404197 
L 306.890247 166.116859 
L 307.432242 159.668939 
L 307.974236 154.986987 
L 308.51623 154.42584 
L 309.058224 158.003962 
L 309.600219 154.738715 
L 310.142213 156.655982 
L 310.684207 156.229353 
L 311.226201 158.405041 
L 311.768195 162.551793 
L 312.31019 151.074618 
L 312.852184 159.573836 
L 313.394178 160.392175 
L 313.936172 157.849544 
L 314.478167 158.482041 
L 315.562155 157.640238 
L 316.104149 159.114147 
L 316.646144 157.668536 
L 317.188138 156.631868 
L 317.730132 161.697917 
L 318.272126 156.811419 
L 318.814121 162.184929 
L 319.356115 154.322039 
L 319.898109 160.171185 
L 320.440103 155.49959 
L 320.982097 157.922297 
L 321.524092 153.542164 
L 322.066086 160.951083 
L 322.60808 156.886412 
L 323.150074 160.444089 
L 323.692069 159.534122 
L 324.234063 162.474462 
L 324.776057 158.561252 
L 325.318051 159.8797 
L 325.860046 159.521572 
L 326.40204 155.869789 
L 326.944034 154.565761 
L 327.486028 159.857877 
L 328.028022 161.798695 
L 329.112011 152.649736 
L 329.654005 155.524444 
L 330.195999 159.435973 
L 330.737994 159.533758 
L 331.279988 151.533519 
L 331.821982 154.638221 
L 332.363976 160.123983 
L 332.905971 161.931897 
L 333.447965 160.038566 
L 333.989959 158.847063 
L 334.531953 161.956844 
L 335.073947 154.438192 
L 335.615942 160.447445 
L 336.157936 150.100213 
L 336.69993 156.227407 
L 337.241924 159.643152 
L 337.783919 154.327568 
L 338.325913 151.136203 
L 338.867907 159.819937 
L 339.951896 154.775644 
L 340.49389 158.342543 
L 341.035884 165.511645 
L 341.577878 155.93388 
L 342.661867 155.38906 
L 343.203861 159.210677 
L 343.745855 159.056185 
L 344.287849 159.637628 
L 344.829844 153.284646 
L 345.371838 156.605724 
L 345.913832 152.766323 
L 346.455826 163.874995 
L 346.997821 156.895561 
L 347.539815 164.193509 
L 348.081809 164.501147 
L 349.165798 155.762086 
L 349.707792 160.2311 
L 350.249786 157.758292 
L 350.79178 159.024197 
L 351.333774 159.968393 
L 351.875769 160.101305 
L 352.417763 160.395755 
L 352.959757 163.862317 
L 353.501751 163.835396 
L 354.043746 156.578131 
L 354.58574 157.949858 
L 355.127734 159.727174 
L 355.669728 154.01463 
L 356.211723 156.478472 
L 356.753717 157.894236 
L 357.295711 160.221483 
L 357.837705 157.821151 
L 358.379699 152.246563 
L 358.921694 156.33407 
L 359.463688 161.54902 
L 360.005682 154.093349 
L 360.547676 156.462403 
L 361.089671 154.834567 
L 361.631665 155.282018 
L 362.173659 150.566692 
L 362.715653 161.485137 
L 363.257648 165.02678 
L 363.799642 157.530666 
L 364.341636 157.725883 
L 364.88363 161.261027 
L 365.425625 161.619615 
L 365.967619 160.636625 
L 366.509613 154.782068 
L 367.051607 158.943797 
L 367.593601 159.514587 
L 368.135596 151.582578 
L 368.67759 159.624974 
L 369.761578 150.051809 
L 370.303573 159.483217 
L 370.845567 156.77611 
L 371.387561 155.288169 
L 371.929555 157.064001 
L 372.47155 162.083461 
L 373.013544 156.375016 
L 373.555538 155.447146 
L 374.097532 154.964352 
L 374.639526 155.999451 
L 375.181521 154.520407 
L 376.265509 162.631358 
L 376.807503 154.602824 
L 377.349498 160.726294 
L 377.891492 159.46135 
L 378.433486 155.902102 
L 378.97548 162.026581 
L 379.517475 156.843262 
L 380.059469 158.635985 
L 380.601463 153.220214 
L 381.685452 160.258991 
L 382.227446 159.632149 
L 382.76944 155.416355 
L 383.311434 157.141347 
L 383.853428 162.187333 
L 384.395423 152.889945 
L 384.937417 159.474335 
L 385.479411 154.28076 
L 386.021405 157.563828 
L 386.5634 156.248799 
L 387.105394 157.681769 
L 387.647388 158.155641 
L 388.189382 158.102474 
L 388.731377 157.861799 
L 389.273371 157.837829 
L 389.815365 162.074781 
L 390.357359 162.012303 
L 390.899353 154.737795 
L 391.441348 156.450415 
L 391.983342 160.377315 
L 392.525336 157.980375 
L 393.06733 162.377227 
L 393.609325 159.188853 
L 394.151319 158.010584 
L 394.693313 161.553387 
L 395.235307 153.356241 
L 395.777302 160.700143 
L 396.319296 160.204542 
L 396.86129 155.503856 
L 397.403284 155.904921 
L 397.945278 158.319773 
L 398.487273 153.877608 
L 398.487273 153.877608 
" clip-path="url(#p83aed3bd71)" style="fill: none; stroke-dasharray: 9.6,2.4,1.5,2.4; stroke-dashoffset: 0; stroke: #008000; stroke-width: 1.5"/>
   </g>
   <g id="line2d_26">
    <path d="M 73.832727 204.847593 
L 76.000704 204.847593 
L 76.542698 173.930609 
L 79.25267 173.930609 
L 79.794664 172.272917 
L 81.420647 172.272917 
L 81.962641 158.493381 
L 82.504635 109.093459 
L 96.054491 109.093459 
L 96.596485 92.274233 
L 106.894375 92.274233 
L 107.43637 87.439819 
L 116.650272 87.439819 
L 117.192266 81.29245 
L 119.902237 81.29245 
L 120.444231 73.084323 
L 153.505879 73.084323 
L 154.047874 63.314009 
L 171.391689 63.314009 
L 171.933683 59.633697 
L 223.96513 59.633697 
L 224.507124 58.271741 
L 324.234063 58.271741 
L 324.776057 57.64358 
L 335.073947 57.64358 
L 335.615942 53.568 
L 398.487273 53.568 
L 398.487273 53.568 
" clip-path="url(#p83aed3bd71)" style="fill: none; stroke: #ff0000; stroke-width: 1.5; stroke-linecap: square"/>
   </g>
   <g id="patch_3">
    <path d="M 57.6 307.584 
L 57.6 41.472 
" style="fill: none; stroke: #000000; stroke-width: 0.8; stroke-linejoin: miter; stroke-linecap: square"/>
   </g>
   <g id="patch_4">
    <path d="M 414.72 307.584 
L 414.72 41.472 
" style="fill: none; stroke: #000000; stroke-width: 0.8; stroke-linejoin: miter; stroke-linecap: square"/>
   </g>
   <g id="patch_5">
    <path d="M 57.6 307.584 
L 414.72 307.584 
" style="fill: none; stroke: #000000; stroke-width: 0.8; stroke-linejoin: miter; stroke-linecap: square"/>
   </g>
   <g id="patch_6">
    <path d="M 57.6 41.472 
L 414.72 41.472 
" style="fill: none; stroke: #000000; stroke-width: 0.8; stroke-linejoin: miter; stroke-linecap: square"/>
   </g>
   <g id="text_14">
    <!-- Population's average and best fitness -->
    <g transform="translate(123.529687 35.472)scale(0.12 -0.12)">
     <defs>
      <path id="DejaVuSans-50" d="M 1259 4147 
L 1259 2394 
L 2053 2394 
Q 2494 2394 2734 2622 
Q 2975 2850 2975 3272 
Q 2975 3691 2734 3919 
Q 2494 4147 2053 4147 
L 1259 4147 
z
M 628 4666 
L 2053 4666 
Q 2838 4666 3239 4311 
Q 3641 3956 3641 3272 
Q 3641 2581 3239 2228 
Q 2838 1875 2053 1875 
L 1259 1875 
L 1259 0 
L 628 0 
L 628 4666 
z
" transform="scale(0.015625)"/>
      <path id="DejaVuSans-70" d="M 1159 525 
L 1159 -1331 
L 581 -1331 
L 581 3500 
L 1159 3500 
L 1159 2969 
Q 1341 3281 1617 3432 
Q 1894 3584 2278 3584 
Q 2916 3584 3314 3078 
Q 3713 2572 3713 1747 
Q 3713 922 3314 415 
Q 2916 -91 2278 -91 
Q 1894 -91 1617 61 
Q 1341 213 1159 525 
z
M 3116 1747 
Q 3116 2381 2855 2742 
Q 2594 3103 2138 3103 
Q 1681 3103 1420 2742 
Q 1159 2381 1159 1747 
Q 1159 1113 1420 752 
Q 1681 391 2138 391 
Q 2594 391 2855 752 
Q 3116 1113 3116 1747 
z
" transform="scale(0.015625)"/>
      <path id="DejaVuSans-75" d="M 544 1381 
L 544 3500 
L 1119 3500 
L 1119 1403 
Q 1119 906 1312 657 
Q 1506 409 1894 409 
Q 2359 409 2629 706 
Q 2900 1003 2900 1516 
L 2900 3500 
L 3475 3500 
L 3475 0 
L 2900 0 
L 2900 538 
Q 2691 219 2414 64 
Q 2138 -91 1772 -91 
Q 1169 -91 856 284 
Q 544 659 544 1381 
z
M 1991 3584 
L 1991 3584 
z
" transform="scale(0.015625)"/>
      <path id="DejaVuSans-6c" d="M 603 4863 
L 1178 4863 
L 1178 0 
L 603 0 
L 603 4863 
z
" transform="scale(0.015625)"/>
      <path id="DejaVuSans-27" d="M 1147 4666 
L 1147 2931 
L 616 2931 
L 616 4666 
L 1147 4666 
z
" transform="scale(0.015625)"/>
      <path id="DejaVuSans-20" transform="scale(0.015625)"/>
      <path id="DejaVuSans-76" d="M 191 3500 
L 800 3500 
L 1894 563 
L 2988 3500 
L 3597 3500 
L 2284 0 
L 1503 0 
L 191 3500 
z
" transform="scale(0.015625)"/>
      <path id="DejaVuSans-67" d="M 2906 1791 
Q 2906 2416 2648 2759 
Q 2391 3103 1925 3103 
Q 1463 3103 1205 2759 
Q 947 2416 947 1791 
Q 947 1169 1205 825 
Q 1463 481 1925 481 
Q 2391 481 2648 825 
Q 2906 1169 2906 1791 
z
M 3481 434 
Q 3481 -459 3084 -895 
Q 2688 -1331 1869 -1331 
Q 1566 -1331 1297 -1286 
Q 1028 -1241 775 -1147 
L 775 -588 
Q 1028 -725 1275 -790 
Q 1522 -856 1778 -856 
Q 2344 -856 2625 -561 
Q 2906 -266 2906 331 
L 2906 616 
Q 2728 306 2450 153 
Q 2172 0 1784 0 
Q 1141 0 747 490 
Q 353 981 353 1791 
Q 353 2603 747 3093 
Q 1141 3584 1784 3584 
Q 2172 3584 2450 3431 
Q 2728 3278 2906 2969 
L 2906 3500 
L 3481 3500 
L 3481 434 
z
" transform="scale(0.015625)"/>
      <path id="DejaVuSans-64" d="M 2906 2969 
L 2906 4863 
L 3481 4863 
L 3481 0 
L 2906 0 
L 2906 525 
Q 2725 213 2448 61 
Q 2172 -91 1784 -91 
Q 1150 -91 751 415 
Q 353 922 353 1747 
Q 353 2572 751 3078 
Q 1150 3584 1784 3584 
Q 2172 3584 2448 3432 
Q 2725 3281 2906 2969 
z
M 947 1747 
Q 947 1113 1208 752 
Q 1469 391 1925 391 
Q 2381 391 2643 752 
Q 2906 1113 2906 1747 
Q 2906 2381 2643 2742 
Q 2381 3103 1925 3103 
Q 1469 3103 1208 2742 
Q 947 2381 947 1747 
z
" transform="scale(0.015625)"/>
      <path id="DejaVuSans-62" d="M 3116 1747 
Q 3116 2381 2855 2742 
Q 2594 3103 2138 3103 
Q 1681 3103 1420 2742 
Q 1159 2381 1159 1747 
Q 1159 1113 1420 752 
Q 1681 391 2138 391 
Q 2594 391 2855 752 
Q 3116 1113 3116 1747 
z
M 1159 2969 
Q 1341 3281 1617 3432 
Q 1894 3584 2278 3584 
Q 2916 3584 3314 3078 
Q 3713 2572 3713 1747 
Q 3713 922 3314 415 
Q 2916 -91 2278 -91 
Q 1894 -91 1617 61 
Q 1341 213 1159 525 
L 1159 0 
L 581 0 
L 581 4863 
L 1159 4863 
L 1159 2969 
z
" transform="scale(0.015625)"/>
      <path id="DejaVuSans-66" d="M 2375 4863 
L 2375 4384 
L 1825 4384 
Q 1516 4384 1395 4259 
Q 1275 4134 1275 3809 
L 1275 3500 
L 2222 3500 
L 2222 3053 
L 1275 3053 
L 1275 0 
L 697 0 
L 697 3053 
L 147 3053 
L 147 3500 
L 697 3500 
L 697 3744 
Q 697 4328 969 4595 
Q 1241 4863 1831 4863 
L 2375 4863 
z
" transform="scale(0.015625)"/>
     </defs>
     <use xlink:href="#DejaVuSans-50"/>
     <use xlink:href="#DejaVuSans-6f" x="56.677734"/>
     <use xlink:href="#DejaVuSans-70" x="117.859375"/>
     <use xlink:href="#DejaVuSans-75" x="181.335938"/>
     <use xlink:href="#DejaVuSans-6c" x="244.714844"/>
     <use xlink:href="#DejaVuSans-61" x="272.498047"/>
     <use xlink:href="#DejaVuSans-74" x="333.777344"/>
     <use xlink:href="#DejaVuSans-69" x="372.986328"/>
     <use xlink:href="#DejaVuSans-6f" x="400.769531"/>
     <use xlink:href="#DejaVuSans-6e" x="461.951172"/>
     <use xlink:href="#DejaVuSans-27" x="525.330078"/>
     <use xlink:href="#DejaVuSans-73" x="552.820312"/>
     <use xlink:href="#DejaVuSans-20" x="604.919922"/>
     <use xlink:href="#DejaVuSans-61" x="636.707031"/>
     <use xlink:href="#DejaVuSans-76" x="697.986328"/>
     <use xlink:href="#DejaVuSans-65" x="757.166016"/>
     <use xlink:href="#DejaVuSans-72" x="818.689453"/>
     <use xlink:href="#DejaVuSans-61" x="859.802734"/>
     <use xlink:href="#DejaVuSans-67" x="921.082031"/>
     <use xlink:href="#DejaVuSans-65" x="984.558594"/>
     <use xlink:href="#DejaVuSans-20" x="1046.082031"/>
     <use xlink:href="#DejaVuSans-61" x="1077.869141"/>
     <use xlink:href="#DejaVuSans-6e" x="1139.148438"/>
     <use xlink:href="#DejaVuSans-64" x="1202.527344"/>
     <use xlink:href="#DejaVuSans-20" x="1266.003906"/>
     <use xlink:href="#DejaVuSans-62" x="1297.791016"/>
     <use xlink:href="#DejaVuSans-65" x="1361.267578"/>
     <use xlink:href="#DejaVuSans-73" x="1422.791016"/>
     <use xlink:href="#DejaVuSans-74" x="1474.890625"/>
     <use xlink:href="#DejaVuSans-20" x="1514.099609"/>
     <use xlink:href="#DejaVuSans-66" x="1545.886719"/>
     <use xlink:href="#DejaVuSans-69" x="1581.091797"/>
     <use xlink:href="#DejaVuSans-74" x="1608.875"/>
     <use xlink:href="#DejaVuSans-6e" x="1648.083984"/>
     <use xlink:href="#DejaVuSans-65" x="1711.462891"/>
     <use xlink:href="#DejaVuSans-73" x="1772.986328"/>
     <use xlink:href="#DejaVuSans-73" x="1825.085938"/>
    </g>
   </g>
   <g id="legend_1">
    <g id="patch_7">
     <path d="M 64.6 108.1845 
L 137.540625 108.1845 
Q 139.540625 108.1845 139.540625 106.1845 
L 139.540625 48.472 
Q 139.540625 46.472 137.540625 46.472 
L 64.6 46.472 
Q 62.6 46.472 62.6 48.472 
L 62.6 106.1845 
Q 62.6 108.1845 64.6 108.1845 
z
" style="fill: #ffffff; opacity: 0.8; stroke: #cccccc; stroke-linejoin: miter"/>
    </g>
    <g id="line2d_27">
     <path d="M 66.6 54.570438 
L 76.6 54.570438 
L 86.6 54.570438 
" style="fill: none; stroke: #0000ff; stroke-width: 1.5; stroke-linecap: square"/>
    </g>
    <g id="text_15">
     <!-- average -->
     <g transform="translate(94.6 58.070438)scale(0.1 -0.1)">
      <use xlink:href="#DejaVuSans-61"/>
      <use xlink:href="#DejaVuSans-76" x="61.279297"/>
      <use xlink:href="#DejaVuSans-65" x="120.458984"/>
      <use xlink:href="#DejaVuSans-72" x="181.982422"/>
      <use xlink:href="#DejaVuSans-61" x="223.095703"/>
      <use xlink:href="#DejaVuSans-67" x="284.375"/>
      <use xlink:href="#DejaVuSans-65" x="347.851562"/>
     </g>
    </g>
    <g id="line2d_28">
     <path d="M 66.6 69.248563 
L 76.6 69.248563 
L 86.6 69.248563 
" style="fill: none; stroke-dasharray: 9.6,2.4,1.5,2.4; stroke-dashoffset: 0; stroke: #008000; stroke-width: 1.5"/>
    </g>
    <g id="text_16">
     <!-- -1 sd -->
     <g transform="translate(94.6 72.748563)scale(0.1 -0.1)">
      <defs>
       <path id="DejaVuSans-2d" d="M 313 2009 
L 1997 2009 
L 1997 1497 
L 313 1497 
L 313 2009 
z
" transform="scale(0.015625)"/>
      </defs>
      <use xlink:href="#DejaVuSans-2d"/>
      <use xlink:href="#DejaVuSans-31" x="36.083984"/>
      <use xlink:href="#DejaVuSans-20" x="99.707031"/>
      <use xlink:href="#DejaVuSans-73" x="131.494141"/>
      <use xlink:href="#DejaVuSans-64" x="183.59375"/>
     </g>
    </g>
    <g id="line2d_29">
     <path d="M 66.6 83.926688 
L 76.6 83.926688 
L 86.6 83.926688 
" style="fill: none; stroke-dasharray: 9.6,2.4,1.5,2.4; stroke-dashoffset: 0; stroke: #008000; stroke-width: 1.5"/>
    </g>
    <g id="text_17">
     <!-- +1 sd -->
     <g transform="translate(94.6 87.426688)scale(0.1 -0.1)">
      <defs>
       <path id="DejaVuSans-2b" d="M 2944 4013 
L 2944 2272 
L 4684 2272 
L 4684 1741 
L 2944 1741 
L 2944 0 
L 2419 0 
L 2419 1741 
L 678 1741 
L 678 2272 
L 2419 2272 
L 2419 4013 
L 2944 4013 
z
" transform="scale(0.015625)"/>
      </defs>
      <use xlink:href="#DejaVuSans-2b"/>
      <use xlink:href="#DejaVuSans-31" x="83.789062"/>
      <use xlink:href="#DejaVuSans-20" x="147.412109"/>
      <use xlink:href="#DejaVuSans-73" x="179.199219"/>
      <use xlink:href="#DejaVuSans-64" x="231.298828"/>
     </g>
    </g>
    <g id="line2d_30">
     <path d="M 66.6 98.604813 
L 76.6 98.604813 
L 86.6 98.604813 
" style="fill: none; stroke: #ff0000; stroke-width: 1.5; stroke-linecap: square"/>
    </g>
    <g id="text_18">
     <!-- best -->
     <g transform="translate(94.6 102.104813)scale(0.1 -0.1)">
      <use xlink:href="#DejaVuSans-62"/>
      <use xlink:href="#DejaVuSans-65" x="63.476562"/>
      <use xlink:href="#DejaVuSans-73" x="125"/>
      <use xlink:href="#DejaVuSans-74" x="177.099609"/>
     </g>
    </g>
   </g>
  </g>
 </g>
 <defs>
  <clipPath id="p83aed3bd71">
   <rect x="57.6" y="41.472" width="357.12" height="266.112"/>
  </clipPath>
 </defs>
</svg>
