<?xml version="1.0" encoding="UTF-8" standalone="no"?>
<!DOCTYPE svg PUBLIC "-//W3C//DTD SVG 1.1//EN"
 "http://www.w3.org/Graphics/SVG/1.1/DTD/svg11.dtd">
<!-- Generated by graphviz version 2.43.0 (0)
 -->
<!-- Title: %3 Pages: 1 -->
<svg width="686pt" height="189pt"
 viewBox="0.00 0.00 686.00 188.51" xmlns="http://www.w3.org/2000/svg" xmlns:xlink="http://www.w3.org/1999/xlink">
<g id="graph0" class="graph" transform="scale(1 1) rotate(0) translate(4 184.51)">
<title>%3</title>
<polygon fill="white" stroke="transparent" points="-4,4 -4,-184.51 682,-184.51 682,4 -4,4"/>
<!-- &#45;1 -->
<g id="node1" class="node">
<title>&#45;1</title>
<polygon fill="lightgray" stroke="black" points="276,-180.51 250,-180.51 250,-162.51 276,-162.51 276,-180.51"/>
<text text-anchor="middle" x="263" y="-169.31" font-family="Times,serif" font-size="9.00">&#45;1</text>
</g>
<!-- 1622 -->
<g id="node18" class="node">
<title>1622</title>
<ellipse fill="white" stroke="black" cx="307" cy="-97.52" rx="28.98" ry="28.98"/>
<text text-anchor="middle" x="307" y="-95.32" font-family="Times,serif" font-size="9.00">1622</text>
</g>
<!-- &#45;1&#45;&gt;1622 -->
<g id="edge1" class="edge">
<title>&#45;1&#45;&gt;1622</title>
<path fill="none" stroke="red" stroke-width="0.35" d="M268.05,-162.25C272.72,-154.6 279.99,-142.7 286.99,-131.25"/>
<polygon fill="red" stroke="red" stroke-width="0.35" points="290.02,-133.02 292.25,-122.66 284.04,-129.37 290.02,-133.02"/>
</g>
<!-- 1623 -->
<g id="node19" class="node">
<title>1623</title>
<ellipse fill="white" stroke="black" cx="383" cy="-97.52" rx="28.98" ry="28.98"/>
<text text-anchor="middle" x="383" y="-95.32" font-family="Times,serif" font-size="9.00">1623</text>
</g>
<!-- &#45;1&#45;&gt;1623 -->
<g id="edge2" class="edge">
<title>&#45;1&#45;&gt;1623</title>
<path fill="none" stroke="green" stroke-width="0.31" d="M276.11,-164.2C292.57,-156.12 321.51,-141.36 345,-126.51 347.4,-124.99 349.85,-123.37 352.29,-121.7"/>
<polygon fill="green" stroke="green" stroke-width="0.31" points="354.31,-124.56 360.46,-115.93 350.27,-118.84 354.31,-124.56"/>
</g>
<!-- 1624 -->
<g id="node20" class="node">
<title>1624</title>
<ellipse fill="white" stroke="black" cx="459" cy="-97.52" rx="28.98" ry="28.98"/>
<text text-anchor="middle" x="459" y="-95.32" font-family="Times,serif" font-size="9.00">1624</text>
</g>
<!-- &#45;1&#45;&gt;1624 -->
<g id="edge3" class="edge">
<title>&#45;1&#45;&gt;1624</title>
<path fill="none" stroke="red" stroke-width="0.4" d="M276.43,-165.41C279.25,-164.4 282.21,-163.38 285,-162.51 344.66,-143.81 364.61,-153.53 421,-126.51 423.48,-125.32 425.96,-123.97 428.4,-122.51"/>
<polygon fill="red" stroke="red" stroke-width="0.4" points="430.54,-125.29 436.98,-116.87 426.7,-119.43 430.54,-125.29"/>
</g>
<!-- 1625 -->
<g id="node21" class="node">
<title>1625</title>
<ellipse fill="white" stroke="black" cx="535" cy="-97.52" rx="28.98" ry="28.98"/>
<text text-anchor="middle" x="535" y="-95.32" font-family="Times,serif" font-size="9.00">1625</text>
</g>
<!-- &#45;1&#45;&gt;1625 -->
<g id="edge4" class="edge">
<title>&#45;1&#45;&gt;1625</title>
<path fill="none" stroke="green" stroke-width="0.11" d="M276.37,-165.21C279.19,-164.22 282.17,-163.26 285,-162.51 377.4,-138.08 409.03,-163.86 497,-126.51 499.53,-125.44 502.05,-124.16 504.51,-122.76"/>
<polygon fill="green" stroke="green" stroke-width="0.11" points="506.6,-125.58 513.15,-117.25 502.84,-119.68 506.6,-125.58"/>
</g>
<!-- 1626 -->
<g id="node22" class="node">
<title>1626</title>
<ellipse fill="white" stroke="black" cx="231" cy="-97.52" rx="28.98" ry="28.98"/>
<text text-anchor="middle" x="231" y="-95.32" font-family="Times,serif" font-size="9.00">1626</text>
</g>
<!-- &#45;1&#45;&gt;1626 -->
<g id="edge5" class="edge">
<title>&#45;1&#45;&gt;1626</title>
<path fill="none" stroke="red" stroke-width="0.14" d="M259.33,-162.25C256.15,-155.11 251.34,-144.27 246.57,-133.55"/>
<polygon fill="red" stroke="red" stroke-width="0.14" points="249.7,-131.97 242.44,-124.25 243.3,-134.81 249.7,-131.97"/>
</g>
<!-- 1627 -->
<g id="node23" class="node">
<title>1627</title>
<ellipse fill="white" stroke="black" cx="155" cy="-97.52" rx="28.98" ry="28.98"/>
<text text-anchor="middle" x="155" y="-95.32" font-family="Times,serif" font-size="9.00">1627</text>
</g>
<!-- &#45;1&#45;&gt;1627 -->
<g id="edge6" class="edge">
<title>&#45;1&#45;&gt;1627</title>
<path fill="none" stroke="green" stroke-width="0.5" d="M249.91,-162.68C235.71,-154.09 212.46,-139.76 193,-126.51 190.65,-124.91 188.24,-123.23 185.83,-121.52"/>
<polygon fill="green" stroke="green" stroke-width="0.5" points="187.87,-118.68 177.71,-115.67 183.78,-124.36 187.87,-118.68"/>
</g>
<!-- &#45;2 -->
<g id="node2" class="node">
<title>&#45;2</title>
<polygon fill="lightgray" stroke="black" points="320,-180.51 294,-180.51 294,-162.51 320,-162.51 320,-180.51"/>
<text text-anchor="middle" x="307" y="-169.31" font-family="Times,serif" font-size="9.00">&#45;2</text>
</g>
<!-- &#45;2&#45;&gt;1622 -->
<g id="edge7" class="edge">
<title>&#45;2&#45;&gt;1622</title>
<path fill="none" stroke="green" stroke-width="0.49" d="M307,-162.25C307,-155.78 307,-146.28 307,-136.58"/>
<polygon fill="green" stroke="green" stroke-width="0.49" points="310.5,-136.51 307,-126.51 303.5,-136.51 310.5,-136.51"/>
</g>
<!-- &#45;2&#45;&gt;1623 -->
<g id="edge8" class="edge">
<title>&#45;2&#45;&gt;1623</title>
<path fill="none" stroke="green" stroke-width="0.15" d="M315.72,-162.25C325.26,-153.21 341.05,-138.26 354.93,-125.11"/>
<polygon fill="green" stroke="green" stroke-width="0.15" points="357.55,-127.45 362.4,-118.03 352.73,-122.37 357.55,-127.45"/>
</g>
<!-- &#45;2&#45;&gt;1624 -->
<g id="edge9" class="edge">
<title>&#45;2&#45;&gt;1624</title>
<path fill="none" stroke="green" stroke-width="0.26" d="M320.06,-165.69C347.99,-155.36 411.75,-131.58 421,-126.51 423.33,-125.23 425.67,-123.83 427.99,-122.36"/>
<polygon fill="green" stroke="green" stroke-width="0.26" points="430.44,-124.93 436.75,-116.42 426.51,-119.14 430.44,-124.93"/>
</g>
<!-- &#45;2&#45;&gt;1625 -->
<g id="edge10" class="edge">
<title>&#45;2&#45;&gt;1625</title>
<path fill="none" stroke="red" stroke-width="0.45" d="M320.4,-165.31C323.22,-164.3 326.19,-163.32 329,-162.51 402.39,-141.41 427.37,-157.86 497,-126.51 499.51,-125.38 502.01,-124.07 504.46,-122.64"/>
<polygon fill="red" stroke="red" stroke-width="0.45" points="506.58,-125.44 513.07,-117.07 502.78,-119.56 506.58,-125.44"/>
</g>
<!-- &#45;2&#45;&gt;1626 -->
<g id="edge11" class="edge">
<title>&#45;2&#45;&gt;1626</title>
<path fill="none" stroke="green" stroke-width="0.19" d="M298.28,-162.25C288.74,-153.21 272.95,-138.26 259.07,-125.11"/>
<polygon fill="green" stroke="green" stroke-width="0.19" points="261.27,-122.37 251.6,-118.03 256.45,-127.45 261.27,-122.37"/>
</g>
<!-- &#45;2&#45;&gt;1627 -->
<g id="edge12" class="edge">
<title>&#45;2&#45;&gt;1627</title>
<path fill="none" stroke="green" stroke-width="0.17" d="M293.94,-165.69C266.01,-155.36 202.25,-131.58 193,-126.51 190.67,-125.23 188.33,-123.83 186.01,-122.36"/>
<polygon fill="green" stroke="green" stroke-width="0.17" points="187.49,-119.14 177.25,-116.42 183.56,-124.93 187.49,-119.14"/>
</g>
<!-- &#45;3 -->
<g id="node3" class="node">
<title>&#45;3</title>
<polygon fill="lightgray" stroke="black" points="364,-180.51 338,-180.51 338,-162.51 364,-162.51 364,-180.51"/>
<text text-anchor="middle" x="351" y="-169.31" font-family="Times,serif" font-size="9.00">&#45;3</text>
</g>
<!-- &#45;3&#45;&gt;1622 -->
<g id="edge13" class="edge">
<title>&#45;3&#45;&gt;1622</title>
<path fill="none" stroke="red" stroke-width="0.31" d="M345.95,-162.25C341.28,-154.6 334.01,-142.7 327.01,-131.25"/>
<polygon fill="red" stroke="red" stroke-width="0.31" points="329.96,-129.37 321.75,-122.66 323.98,-133.02 329.96,-129.37"/>
</g>
<!-- &#45;3&#45;&gt;1623 -->
<g id="edge14" class="edge">
<title>&#45;3&#45;&gt;1623</title>
<path fill="none" stroke="green" stroke-width="0.17" stroke-dasharray="1,5" d="M354.67,-162.25C357.85,-155.11 362.66,-144.27 367.43,-133.55"/>
<polygon fill="green" stroke="green" stroke-width="0.17" points="370.7,-134.81 371.56,-124.25 364.3,-131.97 370.7,-134.81"/>
</g>
<!-- &#45;3&#45;&gt;1624 -->
<g id="edge15" class="edge">
<title>&#45;3&#45;&gt;1624</title>
<path fill="none" stroke="red" stroke-width="0.19" d="M364.09,-162.68C378.29,-154.09 401.54,-139.76 421,-126.51 423.35,-124.91 425.76,-123.23 428.17,-121.52"/>
<polygon fill="red" stroke="red" stroke-width="0.19" points="430.22,-124.36 436.29,-115.67 426.13,-118.68 430.22,-124.36"/>
</g>
<!-- &#45;3&#45;&gt;1625 -->
<g id="edge16" class="edge">
<title>&#45;3&#45;&gt;1625</title>
<path fill="none" stroke="green" stroke-width="0.41" d="M364.45,-165.46C367.26,-164.45 370.22,-163.42 373,-162.51 427.55,-144.69 445.55,-151.92 497,-126.51 499.46,-125.29 501.93,-123.91 504.37,-122.44"/>
<polygon fill="green" stroke="green" stroke-width="0.41" points="506.52,-125.21 512.93,-116.77 502.66,-119.37 506.52,-125.21"/>
</g>
<!-- &#45;3&#45;&gt;1626 -->
<g id="edge17" class="edge">
<title>&#45;3&#45;&gt;1626</title>
<path fill="none" stroke="green" stroke-width="0.5" d="M337.89,-164.2C321.43,-156.12 292.49,-141.36 269,-126.51 266.6,-124.99 264.15,-123.37 261.71,-121.7"/>
<polygon fill="green" stroke="green" stroke-width="0.5" points="263.73,-118.84 253.54,-115.93 259.69,-124.56 263.73,-118.84"/>
</g>
<!-- &#45;3&#45;&gt;1627 -->
<g id="edge18" class="edge">
<title>&#45;3&#45;&gt;1627</title>
<path fill="none" stroke="green" stroke-width="0.16" d="M337.57,-165.41C334.75,-164.4 331.79,-163.38 329,-162.51 269.34,-143.81 249.39,-153.53 193,-126.51 190.52,-125.32 188.04,-123.97 185.6,-122.51"/>
<polygon fill="green" stroke="green" stroke-width="0.16" points="187.3,-119.43 177.02,-116.87 183.46,-125.29 187.3,-119.43"/>
</g>
<!-- &#45;4 -->
<g id="node4" class="node">
<title>&#45;4</title>
<polygon fill="lightgray" stroke="black" points="408,-180.51 382,-180.51 382,-162.51 408,-162.51 408,-180.51"/>
<text text-anchor="middle" x="395" y="-169.31" font-family="Times,serif" font-size="9.00">&#45;4</text>
</g>
<!-- &#45;4&#45;&gt;1622 -->
<g id="edge19" class="edge">
<title>&#45;4&#45;&gt;1622</title>
<path fill="none" stroke="green" stroke-width="0.12" d="M384.91,-162.25C373.27,-152.73 353.6,-136.64 336.93,-123.01"/>
<polygon fill="green" stroke="green" stroke-width="0.12" points="339,-120.17 329.04,-116.55 334.57,-125.59 339,-120.17"/>
</g>
<!-- &#45;4&#45;&gt;1623 -->
<g id="edge20" class="edge">
<title>&#45;4&#45;&gt;1623</title>
<path fill="none" stroke="red" stroke-width="0.33" d="M393.62,-162.25C392.54,-155.73 390.93,-146.12 389.3,-136.33"/>
<polygon fill="red" stroke="red" stroke-width="0.33" points="392.71,-135.48 387.61,-126.19 385.8,-136.63 392.71,-135.48"/>
</g>
<!-- &#45;4&#45;&gt;1624 -->
<g id="edge21" class="edge">
<title>&#45;4&#45;&gt;1624</title>
<path fill="none" stroke="red" stroke-width="0.13" d="M402.34,-162.25C409.9,-153.75 422.12,-140.01 433.27,-127.46"/>
<polygon fill="red" stroke="red" stroke-width="0.13" points="436.01,-129.65 440.03,-119.85 430.77,-125 436.01,-129.65"/>
</g>
<!-- &#45;4&#45;&gt;1625 -->
<g id="edge22" class="edge">
<title>&#45;4&#45;&gt;1625</title>
<path fill="none" stroke="red" stroke-width="0.21" d="M408.3,-165.21C432.11,-155.66 481.03,-135.68 497,-126.51 499.3,-125.19 501.63,-123.75 503.94,-122.26"/>
<polygon fill="red" stroke="red" stroke-width="0.21" points="506.4,-124.81 512.66,-116.27 502.44,-119.04 506.4,-124.81"/>
</g>
<!-- &#45;4&#45;&gt;1626 -->
<g id="edge23" class="edge">
<title>&#45;4&#45;&gt;1626</title>
<path fill="none" stroke="red" stroke-width="0.5" d="M381.98,-165.74C379.03,-164.67 375.91,-163.54 373,-162.51 326.9,-146.15 312.29,-149.27 269,-126.51 266.65,-125.28 264.29,-123.91 261.96,-122.45"/>
<polygon fill="red" stroke="red" stroke-width="0.5" points="263.43,-119.23 253.17,-116.57 259.53,-125.04 263.43,-119.23"/>
</g>
<!-- &#45;4&#45;&gt;1627 -->
<g id="edge24" class="edge">
<title>&#45;4&#45;&gt;1627</title>
<path fill="none" stroke="green" stroke-width="0.16" d="M381.61,-165.28C378.79,-164.28 375.82,-163.3 373,-162.51 294.44,-140.51 267.62,-159.49 193,-126.51 190.49,-125.4 187.98,-124.1 185.52,-122.68"/>
<polygon fill="green" stroke="green" stroke-width="0.16" points="187.2,-119.6 176.9,-117.13 183.41,-125.48 187.2,-119.6"/>
</g>
<!-- &#45;5 -->
<g id="node5" class="node">
<title>&#45;5</title>
<polygon fill="lightgray" stroke="black" points="452,-180.51 426,-180.51 426,-162.51 452,-162.51 452,-180.51"/>
<text text-anchor="middle" x="439" y="-169.31" font-family="Times,serif" font-size="9.00">&#45;5</text>
</g>
<!-- &#45;5&#45;&gt;1622 -->
<g id="edge25" class="edge">
<title>&#45;5&#45;&gt;1622</title>
<path fill="none" stroke="green" stroke-width="0.43" d="M425.82,-165.31C407.25,-157.77 372.57,-142.9 345,-126.51 342.72,-125.15 340.41,-123.69 338.11,-122.18"/>
<polygon fill="green" stroke="green" stroke-width="0.43" points="339.62,-118.96 329.41,-116.15 335.63,-124.72 339.62,-118.96"/>
</g>
<!-- &#45;5&#45;&gt;1623 -->
<g id="edge26" class="edge">
<title>&#45;5&#45;&gt;1623</title>
<path fill="none" stroke="green" stroke-width="0.5" d="M432.58,-162.25C426.23,-154.09 416.12,-141.1 406.69,-128.97"/>
<polygon fill="green" stroke="green" stroke-width="0.5" points="409.22,-126.52 400.32,-120.78 403.69,-130.82 409.22,-126.52"/>
</g>
<!-- &#45;5&#45;&gt;1624 -->
<g id="edge27" class="edge">
<title>&#45;5&#45;&gt;1624</title>
<path fill="none" stroke="green" stroke-width="0.41" d="M441.29,-162.25C443.18,-155.48 445.98,-145.38 448.81,-135.21"/>
<polygon fill="green" stroke="green" stroke-width="0.41" points="452.19,-136.11 451.49,-125.54 445.44,-134.24 452.19,-136.11"/>
</g>
<!-- &#45;5&#45;&gt;1625 -->
<g id="edge28" class="edge">
<title>&#45;5&#45;&gt;1625</title>
<path fill="none" stroke="red" stroke-width="0.44" d="M450.01,-162.25C463.08,-152.45 485.43,-135.69 503.93,-121.82"/>
<polygon fill="red" stroke="red" stroke-width="0.44" points="506.22,-124.48 512.12,-115.68 502.02,-118.88 506.22,-124.48"/>
</g>
<!-- &#45;5&#45;&gt;1626 -->
<g id="edge29" class="edge">
<title>&#45;5&#45;&gt;1626</title>
<path fill="none" stroke="red" stroke-width="0.43" d="M425.58,-165.36C422.77,-164.36 419.8,-163.36 417,-162.51 352.2,-142.91 330.34,-155.14 269,-126.51 266.51,-125.35 264.02,-124.01 261.57,-122.56"/>
<polygon fill="red" stroke="red" stroke-width="0.43" points="263.27,-119.49 252.98,-116.96 259.44,-125.35 263.27,-119.49"/>
</g>
<!-- &#45;5&#45;&gt;1627 -->
<g id="edge30" class="edge">
<title>&#45;5&#45;&gt;1627</title>
<path fill="none" stroke="green" stroke-width="0.15" d="M425.63,-165.19C422.81,-164.2 419.83,-163.25 417,-162.51 319.4,-137.17 285.99,-165.51 193,-126.51 190.47,-125.45 187.94,-124.18 185.47,-122.79"/>
<polygon fill="green" stroke="green" stroke-width="0.15" points="187.15,-119.7 176.83,-117.29 183.39,-125.61 187.15,-119.7"/>
</g>
<!-- &#45;6 -->
<g id="node6" class="node">
<title>&#45;6</title>
<polygon fill="lightgray" stroke="black" points="496,-180.51 470,-180.51 470,-162.51 496,-162.51 496,-180.51"/>
<text text-anchor="middle" x="483" y="-169.31" font-family="Times,serif" font-size="9.00">&#45;6</text>
</g>
<!-- &#45;6&#45;&gt;1622 -->
<g id="edge31" class="edge">
<title>&#45;6&#45;&gt;1622</title>
<path fill="none" stroke="green" stroke-width="0.14" d="M469.54,-165.5C466.73,-164.48 463.77,-163.44 461,-162.51 409.84,-145.28 393.18,-150.86 345,-126.51 342.55,-125.27 340.09,-123.88 337.66,-122.39"/>
<polygon fill="green" stroke="green" stroke-width="0.14" points="339.37,-119.32 329.1,-116.7 335.49,-125.15 339.37,-119.32"/>
</g>
<!-- &#45;6&#45;&gt;1623 -->
<g id="edge32" class="edge">
<title>&#45;6&#45;&gt;1623</title>
<path fill="none" stroke="red" stroke-width="0.5" d="M471.53,-162.46C459.05,-153.68 438.54,-139.19 421,-126.51 418.7,-124.84 416.32,-123.12 413.93,-121.37"/>
<polygon fill="red" stroke="red" stroke-width="0.5" points="415.99,-118.55 405.86,-115.46 411.86,-124.19 415.99,-118.55"/>
</g>
<!-- &#45;6&#45;&gt;1624 -->
<g id="edge33" class="edge">
<title>&#45;6&#45;&gt;1624</title>
<path fill="none" stroke="green" stroke-width="0.37" d="M480.25,-162.25C477.97,-155.42 474.57,-145.21 471.15,-134.96"/>
<polygon fill="green" stroke="green" stroke-width="0.37" points="474.38,-133.6 467.9,-125.22 467.74,-135.81 474.38,-133.6"/>
</g>
<!-- &#45;6&#45;&gt;1625 -->
<g id="edge34" class="edge">
<title>&#45;6&#45;&gt;1625</title>
<path fill="none" stroke="red" stroke-width="0.44" d="M488.97,-162.25C494.72,-154.29 503.79,-141.72 512.37,-129.85"/>
<polygon fill="red" stroke="red" stroke-width="0.44" points="515.45,-131.56 518.47,-121.4 509.78,-127.46 515.45,-131.56"/>
</g>
<!-- &#45;6&#45;&gt;1626 -->
<g id="edge35" class="edge">
<title>&#45;6&#45;&gt;1626</title>
<path fill="none" stroke="green" stroke-width="0.5" d="M469.62,-165.25C466.8,-164.25 463.82,-163.28 461,-162.51 377.26,-139.6 348.62,-161.13 269,-126.51 266.48,-125.41 263.97,-124.13 261.51,-122.71"/>
<polygon fill="green" stroke="green" stroke-width="0.5" points="263.19,-119.63 252.88,-117.18 259.41,-125.52 263.19,-119.63"/>
</g>
<!-- &#45;6&#45;&gt;1627 -->
<g id="edge36" class="edge">
<title>&#45;6&#45;&gt;1627</title>
<path fill="none" stroke="green" stroke-width="0.22" d="M469.65,-165.14C466.82,-164.15 463.84,-163.21 461,-162.51 344.3,-133.81 304.42,-171.56 193,-126.51 190.29,-125.42 187.6,-124.08 184.98,-122.6"/>
<polygon fill="green" stroke="green" stroke-width="0.22" points="186.69,-119.54 176.38,-117.11 182.92,-125.44 186.69,-119.54"/>
</g>
<!-- &#45;7 -->
<g id="node7" class="node">
<title>&#45;7</title>
<polygon fill="lightgray" stroke="black" points="540,-180.51 514,-180.51 514,-162.51 540,-162.51 540,-180.51"/>
<text text-anchor="middle" x="527" y="-169.31" font-family="Times,serif" font-size="9.00">&#45;7</text>
</g>
<!-- &#45;7&#45;&gt;1622 -->
<g id="edge37" class="edge">
<title>&#45;7&#45;&gt;1622</title>
<path fill="none" stroke="red" stroke-width="0.11" d="M513.59,-165.33C510.78,-164.33 507.81,-163.33 505,-162.51 435.05,-142.01 411.31,-156.77 345,-126.51 342.5,-125.37 340,-124.05 337.55,-122.61"/>
<polygon fill="red" stroke="red" stroke-width="0.11" points="339.24,-119.53 328.95,-117.03 335.43,-125.41 339.24,-119.53"/>
</g>
<!-- &#45;7&#45;&gt;1623 -->
<g id="edge38" class="edge">
<title>&#45;7&#45;&gt;1623</title>
<path fill="none" stroke="red" stroke-width="0.12" d="M513.94,-165.55C489.49,-156.17 437.74,-135.97 421,-126.51 418.69,-125.21 416.36,-123.78 414.04,-122.29"/>
<polygon fill="red" stroke="red" stroke-width="0.12" points="415.54,-119.07 405.3,-116.32 411.59,-124.85 415.54,-119.07"/>
</g>
<!-- &#45;7&#45;&gt;1624 -->
<g id="edge39" class="edge">
<title>&#45;7&#45;&gt;1624</title>
<path fill="none" stroke="red" stroke-width="0.33" d="M519.2,-162.25C510.98,-153.54 497.56,-139.35 485.48,-126.56"/>
<polygon fill="red" stroke="red" stroke-width="0.33" points="487.99,-124.11 478.57,-119.24 482.9,-128.91 487.99,-124.11"/>
</g>
<!-- &#45;7&#45;&gt;1625 -->
<g id="edge40" class="edge">
<title>&#45;7&#45;&gt;1625</title>
<path fill="none" stroke="green" stroke-width="0.12" d="M527.92,-162.25C528.64,-155.78 529.69,-146.28 530.77,-136.58"/>
<polygon fill="green" stroke="green" stroke-width="0.12" points="534.26,-136.84 531.89,-126.51 527.31,-136.07 534.26,-136.84"/>
</g>
<!-- &#45;7&#45;&gt;1626 -->
<g id="edge41" class="edge">
<title>&#45;7&#45;&gt;1626</title>
<path fill="none" stroke="red" stroke-width="0.5" d="M513.64,-165.17C510.82,-164.18 507.84,-163.23 505,-162.51 402.2,-136.25 367.01,-167.16 269,-126.51 266.46,-125.46 263.94,-124.2 261.47,-122.81"/>
<polygon fill="red" stroke="red" stroke-width="0.5" points="263.14,-119.73 252.82,-117.32 259.39,-125.64 263.14,-119.73"/>
</g>
<!-- &#45;7&#45;&gt;1627 -->
<g id="edge42" class="edge">
<title>&#45;7&#45;&gt;1627</title>
<path fill="none" stroke="green" stroke-width="0.5" d="M513.66,-165.09C510.83,-164.11 507.85,-163.18 505,-162.51 369.15,-130.44 322.89,-177.62 193,-126.51 190.28,-125.44 187.59,-124.13 184.96,-122.66"/>
<polygon fill="green" stroke="green" stroke-width="0.5" points="186.66,-119.6 176.35,-117.19 182.91,-125.51 186.66,-119.6"/>
</g>
<!-- &#45;8 -->
<g id="node8" class="node">
<title>&#45;8</title>
<polygon fill="lightgray" stroke="black" points="584,-180.51 558,-180.51 558,-162.51 584,-162.51 584,-180.51"/>
<text text-anchor="middle" x="571" y="-169.31" font-family="Times,serif" font-size="9.00">&#45;8</text>
</g>
<!-- &#45;8&#45;&gt;1622 -->
<g id="edge43" class="edge">
<title>&#45;8&#45;&gt;1622</title>
<path fill="none" stroke="red" stroke-width="0.43" d="M557.62,-165.23C554.8,-164.23 551.83,-163.27 549,-162.51 460.07,-138.69 429.63,-162.77 345,-126.51 342.47,-125.43 339.96,-124.15 337.49,-122.74"/>
<polygon fill="red" stroke="red" stroke-width="0.43" points="339.17,-119.66 328.86,-117.22 335.4,-125.56 339.17,-119.66"/>
</g>
<!-- &#45;8&#45;&gt;1623 -->
<g id="edge44" class="edge">
<title>&#45;8&#45;&gt;1623</title>
<path fill="none" stroke="red" stroke-width="0.26" d="M557.56,-165.44C554.74,-164.43 551.79,-163.41 549,-162.51 492.75,-144.4 474.1,-152.45 421,-126.51 418.53,-125.3 416.06,-123.93 413.62,-122.46"/>
<polygon fill="red" stroke="red" stroke-width="0.26" points="415.32,-119.39 405.05,-116.81 411.47,-125.24 415.32,-119.39"/>
</g>
<!-- &#45;8&#45;&gt;1624 -->
<g id="edge45" class="edge">
<title>&#45;8&#45;&gt;1624</title>
<path fill="none" stroke="red" stroke-width="0.26" d="M557.93,-163.26C542.95,-154.83 517.8,-140.31 497,-126.51 494.63,-124.94 492.21,-123.28 489.79,-121.58"/>
<polygon fill="red" stroke="red" stroke-width="0.26" points="491.82,-118.74 481.65,-115.76 487.74,-124.43 491.82,-118.74"/>
</g>
<!-- &#45;8&#45;&gt;1625 -->
<g id="edge46" class="edge">
<title>&#45;8&#45;&gt;1625</title>
<path fill="none" stroke="red" stroke-width="0.39" d="M566.87,-162.25C563.23,-154.98 557.68,-143.88 552.23,-132.96"/>
<polygon fill="red" stroke="red" stroke-width="0.39" points="555.31,-131.31 547.71,-123.93 549.05,-134.44 555.31,-131.31"/>
</g>
<!-- &#45;8&#45;&gt;1626 -->
<g id="edge47" class="edge">
<title>&#45;8&#45;&gt;1626</title>
<path fill="none" stroke="green" stroke-width="0.22" d="M557.65,-165.12C554.83,-164.14 551.84,-163.2 549,-162.51 427.08,-132.89 385.45,-173.21 269,-126.51 266.29,-125.42 263.6,-124.1 260.97,-122.62"/>
<polygon fill="green" stroke="green" stroke-width="0.22" points="262.68,-119.56 252.37,-117.14 258.92,-125.46 262.68,-119.56"/>
</g>
<!-- &#45;8&#45;&gt;1627 -->
<g id="edge48" class="edge">
<title>&#45;8&#45;&gt;1627</title>
<path fill="none" stroke="green" stroke-width="0.5" d="M557.66,-165.06C554.84,-164.08 551.85,-163.16 549,-162.51 393.97,-127.06 341.39,-183.7 193,-126.51 190.28,-125.46 187.57,-124.16 184.94,-122.7"/>
<polygon fill="green" stroke="green" stroke-width="0.5" points="186.65,-119.64 176.32,-117.25 182.91,-125.55 186.65,-119.64"/>
</g>
<!-- &#45;9 -->
<g id="node9" class="node">
<title>&#45;9</title>
<polygon fill="lightgray" stroke="black" points="628,-180.51 602,-180.51 602,-162.51 628,-162.51 628,-180.51"/>
<text text-anchor="middle" x="615" y="-169.31" font-family="Times,serif" font-size="9.00">&#45;9</text>
</g>
<!-- &#45;9&#45;&gt;1622 -->
<g id="edge49" class="edge">
<title>&#45;9&#45;&gt;1622</title>
<path fill="none" stroke="green" stroke-width="0.18" d="M601.64,-165.16C598.82,-164.17 595.84,-163.22 593,-162.51 484.99,-135.34 448.03,-168.8 345,-126.51 342.46,-125.47 339.93,-124.22 337.46,-122.83"/>
<polygon fill="green" stroke="green" stroke-width="0.18" points="339.13,-119.75 328.8,-117.35 335.38,-125.66 339.13,-119.75"/>
</g>
<!-- &#45;9&#45;&gt;1623 -->
<g id="edge50" class="edge">
<title>&#45;9&#45;&gt;1623</title>
<path fill="none" stroke="green" stroke-width="0.17" d="M601.6,-165.29C598.79,-164.3 595.81,-163.31 593,-162.51 517.89,-141.11 492.29,-158.4 421,-126.51 418.49,-125.39 415.99,-124.08 413.53,-122.65"/>
<polygon fill="green" stroke="green" stroke-width="0.17" points="415.22,-119.57 404.92,-117.09 411.42,-125.46 415.22,-119.57"/>
</g>
<!-- &#45;9&#45;&gt;1624 -->
<g id="edge51" class="edge">
<title>&#45;9&#45;&gt;1624</title>
<path fill="none" stroke="red" stroke-width="0.33" d="M601.67,-165.65C571.82,-154.76 501.83,-129.12 497,-126.51 494.67,-125.25 492.32,-123.86 489.99,-122.39"/>
<polygon fill="red" stroke="red" stroke-width="0.33" points="491.47,-119.17 481.22,-116.47 487.55,-124.97 491.47,-119.17"/>
</g>
<!-- &#45;9&#45;&gt;1625 -->
<g id="edge52" class="edge">
<title>&#45;9&#45;&gt;1625</title>
<path fill="none" stroke="green" stroke-width="0.45" d="M605.82,-162.25C595.62,-153.07 578.62,-137.77 563.84,-124.47"/>
<polygon fill="green" stroke="green" stroke-width="0.45" points="566.13,-121.82 556.35,-117.73 561.45,-127.02 566.13,-121.82"/>
</g>
<!-- &#45;9&#45;&gt;1626 -->
<g id="edge53" class="edge">
<title>&#45;9&#45;&gt;1626</title>
<path fill="none" stroke="red" stroke-width="0.5" d="M601.66,-165.08C598.84,-164.1 595.85,-163.18 593,-162.51 451.92,-129.52 403.94,-179.28 269,-126.51 266.28,-125.45 263.58,-124.14 260.95,-122.67"/>
<polygon fill="red" stroke="red" stroke-width="0.5" points="262.66,-119.61 252.34,-117.21 258.91,-125.52 262.66,-119.61"/>
</g>
<!-- &#45;9&#45;&gt;1627 -->
<g id="edge54" class="edge">
<title>&#45;9&#45;&gt;1627</title>
<path fill="none" stroke="green" stroke-width="0.27" d="M601.67,-165.04C598.85,-164.06 595.86,-163.15 593,-162.51 418.78,-123.68 359.91,-189.78 193,-126.51 190.27,-125.48 187.56,-124.19 184.93,-122.73"/>
<polygon fill="green" stroke="green" stroke-width="0.27" points="186.63,-119.67 176.3,-117.3 182.9,-125.59 186.63,-119.67"/>
</g>
<!-- &#45;10 -->
<g id="node10" class="node">
<title>&#45;10</title>
<polygon fill="lightgray" stroke="black" points="32,-180.51 0,-180.51 0,-162.51 32,-162.51 32,-180.51"/>
<text text-anchor="middle" x="16" y="-169.31" font-family="Times,serif" font-size="9.00">&#45;10</text>
</g>
<!-- &#45;10&#45;&gt;1622 -->
<g id="edge55" class="edge">
<title>&#45;10&#45;&gt;1622</title>
<path fill="none" stroke="green" stroke-width="0.38" d="M32.04,-164.98C34.99,-164.07 38.07,-163.2 41,-162.51 140.81,-138.81 174.34,-166.06 269,-126.51 271.54,-125.45 274.06,-124.19 276.53,-122.8"/>
<polygon fill="green" stroke="green" stroke-width="0.38" points="278.61,-125.62 285.17,-117.3 274.86,-119.71 278.61,-125.62"/>
</g>
<!-- &#45;10&#45;&gt;1623 -->
<g id="edge56" class="edge">
<title>&#45;10&#45;&gt;1623</title>
<path fill="none" stroke="green" stroke-width="0.24" d="M32.01,-164.89C34.98,-163.99 38.06,-163.15 41,-162.51 173.96,-133.64 218.47,-176.52 345,-126.51 347.71,-125.44 350.41,-124.12 353.04,-122.65"/>
<polygon fill="green" stroke="green" stroke-width="0.24" points="355.08,-125.5 361.65,-117.18 351.33,-119.59 355.08,-125.5"/>
</g>
<!-- &#45;10&#45;&gt;1624 -->
<g id="edge57" class="edge">
<title>&#45;10&#45;&gt;1624</title>
<path fill="none" stroke="red" stroke-width="0.12" d="M32,-164.83C34.96,-163.94 38.05,-163.11 41,-162.51 207.19,-128.46 262.51,-187.01 421,-126.51 423.73,-125.47 426.43,-124.18 429.07,-122.72"/>
<polygon fill="red" stroke="red" stroke-width="0.12" points="431.1,-125.58 437.69,-117.28 427.36,-119.66 431.1,-125.58"/>
</g>
<!-- &#45;10&#45;&gt;1625 -->
<g id="edge58" class="edge">
<title>&#45;10&#45;&gt;1625</title>
<path fill="none" stroke="green" stroke-width="0.18" d="M32.26,-164.71C35.14,-163.85 38.14,-163.07 41,-162.51 240.47,-123.27 306.51,-197.52 497,-126.51 499.74,-125.49 502.44,-124.21 505.08,-122.77"/>
<polygon fill="green" stroke="green" stroke-width="0.18" points="507.11,-125.63 513.71,-117.35 503.38,-119.7 507.11,-125.63"/>
</g>
<!-- &#45;10&#45;&gt;1626 -->
<g id="edge59" class="edge">
<title>&#45;10&#45;&gt;1626</title>
<path fill="none" stroke="red" stroke-width="0.31" d="M32.08,-165.16C35.04,-164.24 38.1,-163.32 41,-162.51 107.89,-143.92 130,-155.69 193,-126.51 195.49,-125.36 197.99,-124.02 200.43,-122.58"/>
<polygon fill="red" stroke="red" stroke-width="0.31" points="202.56,-125.37 209.03,-116.98 198.74,-119.5 202.56,-125.37"/>
</g>
<!-- &#45;10&#45;&gt;1627 -->
<g id="edge60" class="edge">
<title>&#45;10&#45;&gt;1627</title>
<path fill="none" stroke="red" stroke-width="0.5" d="M31.67,-162.39C53.04,-151.32 91.91,-131.2 120.31,-116.48"/>
<polygon fill="red" stroke="red" stroke-width="0.5" points="122.23,-119.43 129.5,-111.72 119.01,-113.22 122.23,-119.43"/>
</g>
<!-- &#45;11 -->
<g id="node11" class="node">
<title>&#45;11</title>
<polygon fill="lightgray" stroke="black" points="82,-180.51 50,-180.51 50,-162.51 82,-162.51 82,-180.51"/>
<text text-anchor="middle" x="66" y="-169.31" font-family="Times,serif" font-size="9.00">&#45;11</text>
</g>
<!-- &#45;11&#45;&gt;1622 -->
<g id="edge61" class="edge">
<title>&#45;11&#45;&gt;1622</title>
<path fill="none" stroke="green" stroke-width="0.5" d="M82.06,-165.08C85.02,-164.17 88.09,-163.27 91,-162.51 169.11,-142.18 195.21,-159.22 269,-126.51 271.51,-125.4 274.02,-124.09 276.48,-122.67"/>
<polygon fill="green" stroke="green" stroke-width="0.5" points="278.58,-125.48 285.1,-117.12 274.79,-119.59 278.58,-125.48"/>
</g>
<!-- &#45;11&#45;&gt;1623 -->
<g id="edge62" class="edge">
<title>&#45;11&#45;&gt;1623</title>
<path fill="none" stroke="green" stroke-width="0.19" d="M82.03,-164.94C84.99,-164.04 88.07,-163.18 91,-162.51 202.14,-137.04 239.45,-169.63 345,-126.51 347.54,-125.47 350.07,-124.22 352.55,-122.84"/>
<polygon fill="green" stroke="green" stroke-width="0.19" points="354.62,-125.67 361.2,-117.37 350.88,-119.75 354.62,-125.67"/>
</g>
<!-- &#45;11&#45;&gt;1624 -->
<g id="edge63" class="edge">
<title>&#45;11&#45;&gt;1624</title>
<path fill="none" stroke="green" stroke-width="0.38" d="M82.01,-164.86C84.97,-163.97 88.06,-163.13 91,-162.51 235.32,-131.87 283.54,-180.1 421,-126.51 423.72,-125.45 426.42,-124.14 429.05,-122.68"/>
<polygon fill="green" stroke="green" stroke-width="0.38" points="431.09,-125.53 437.66,-117.22 427.34,-119.61 431.09,-125.53"/>
</g>
<!-- &#45;11&#45;&gt;1625 -->
<g id="edge64" class="edge">
<title>&#45;11&#45;&gt;1625</title>
<path fill="none" stroke="red" stroke-width="0.22" d="M82.27,-164.73C85.15,-163.87 88.14,-163.09 91,-162.51 268.57,-126.69 327.57,-190.61 497,-126.51 499.73,-125.48 502.44,-124.19 505.07,-122.74"/>
<polygon fill="red" stroke="red" stroke-width="0.22" points="507.1,-125.6 513.7,-117.31 503.37,-119.67 507.1,-125.6"/>
</g>
<!-- &#45;11&#45;&gt;1626 -->
<g id="edge65" class="edge">
<title>&#45;11&#45;&gt;1626</title>
<path fill="none" stroke="green" stroke-width="0.45" d="M82.48,-165.11C114.51,-154.56 182.93,-131.8 193,-126.51 195.35,-125.27 197.71,-123.9 200.04,-122.45"/>
<polygon fill="green" stroke="green" stroke-width="0.45" points="202.47,-125.04 208.83,-116.57 198.57,-119.23 202.47,-125.04"/>
</g>
<!-- &#45;11&#45;&gt;1627 -->
<g id="edge66" class="edge">
<title>&#45;11&#45;&gt;1627</title>
<path fill="none" stroke="green" stroke-width="0.4" d="M76.21,-162.25C87.98,-152.73 107.88,-136.64 124.73,-123.01"/>
<polygon fill="green" stroke="green" stroke-width="0.4" points="127.13,-125.56 132.71,-116.55 122.73,-120.12 127.13,-125.56"/>
</g>
<!-- &#45;12 -->
<g id="node12" class="node">
<title>&#45;12</title>
<polygon fill="lightgray" stroke="black" points="132,-180.51 100,-180.51 100,-162.51 132,-162.51 132,-180.51"/>
<text text-anchor="middle" x="116" y="-169.31" font-family="Times,serif" font-size="9.00">&#45;12</text>
</g>
<!-- &#45;12&#45;&gt;1622 -->
<g id="edge67" class="edge">
<title>&#45;12&#45;&gt;1622</title>
<path fill="none" stroke="red" stroke-width="0.43" d="M132.11,-165.26C135.06,-164.33 138.12,-163.38 141,-162.51 197.6,-145.5 215.9,-152.45 269,-126.51 271.47,-125.3 273.94,-123.93 276.38,-122.46"/>
<polygon fill="red" stroke="red" stroke-width="0.43" points="278.53,-125.24 284.95,-116.81 274.68,-119.39 278.53,-125.24"/>
</g>
<!-- &#45;12&#45;&gt;1623 -->
<g id="edge68" class="edge">
<title>&#45;12&#45;&gt;1623</title>
<path fill="none" stroke="green" stroke-width="0.4" d="M132.05,-165.02C135,-164.11 138.08,-163.23 141,-162.51 230.38,-140.43 260.37,-162.77 345,-126.51 347.53,-125.43 350.04,-124.15 352.51,-122.74"/>
<polygon fill="green" stroke="green" stroke-width="0.4" points="354.6,-125.56 361.14,-117.22 350.83,-119.66 354.6,-125.56"/>
</g>
<!-- &#45;12&#45;&gt;1624 -->
<g id="edge69" class="edge">
<title>&#45;12&#45;&gt;1624</title>
<path fill="none" stroke="green" stroke-width="0.5" d="M132.02,-164.91C134.98,-164.01 138.06,-163.16 141,-162.51 263.48,-135.28 304.55,-173.21 421,-126.51 423.71,-125.42 426.4,-124.1 429.03,-122.62"/>
<polygon fill="green" stroke="green" stroke-width="0.5" points="431.08,-125.46 437.63,-117.14 427.32,-119.56 431.08,-125.46"/>
</g>
<!-- &#45;12&#45;&gt;1625 -->
<g id="edge70" class="edge">
<title>&#45;12&#45;&gt;1625</title>
<path fill="none" stroke="red" stroke-width="0.21" d="M132.01,-164.84C134.97,-163.95 138.06,-163.12 141,-162.51 296.69,-130.1 348.61,-183.7 497,-126.51 499.72,-125.46 502.43,-124.16 505.06,-122.7"/>
<polygon fill="red" stroke="red" stroke-width="0.21" points="507.09,-125.55 513.68,-117.25 503.35,-119.64 507.09,-125.55"/>
</g>
<!-- &#45;12&#45;&gt;1626 -->
<g id="edge71" class="edge">
<title>&#45;12&#45;&gt;1626</title>
<path fill="none" stroke="red" stroke-width="0.22" d="M131.36,-162.42C147.13,-153.95 172.22,-140.03 193,-126.51 195.38,-124.96 197.82,-123.31 200.24,-121.63"/>
<polygon fill="red" stroke="red" stroke-width="0.22" points="202.28,-124.48 208.4,-115.83 198.22,-118.78 202.28,-124.48"/>
</g>
<!-- &#45;12&#45;&gt;1627 -->
<g id="edge72" class="edge">
<title>&#45;12&#45;&gt;1627</title>
<path fill="none" stroke="green" stroke-width="0.39" d="M120.47,-162.25C124.52,-154.79 130.74,-143.3 136.8,-132.11"/>
<polygon fill="green" stroke="green" stroke-width="0.39" points="139.89,-133.75 141.58,-123.29 133.74,-130.42 139.89,-133.75"/>
</g>
<!-- &#45;13 -->
<g id="node13" class="node">
<title>&#45;13</title>
<polygon fill="lightgray" stroke="black" points="678,-180.51 646,-180.51 646,-162.51 678,-162.51 678,-180.51"/>
<text text-anchor="middle" x="662" y="-169.31" font-family="Times,serif" font-size="9.00">&#45;13</text>
</g>
<!-- &#45;13&#45;&gt;1622 -->
<g id="edge73" class="edge">
<title>&#45;13&#45;&gt;1622</title>
<path fill="none" stroke="red" stroke-width="0.5" d="M645.98,-164.9C643.02,-164 639.94,-163.15 637,-162.51 509.28,-134.46 466.49,-174.86 345,-126.51 342.29,-125.43 339.59,-124.11 336.97,-122.63"/>
<polygon fill="red" stroke="red" stroke-width="0.5" points="338.68,-119.57 328.36,-117.16 334.92,-125.48 338.68,-119.57"/>
</g>
<!-- &#45;13&#45;&gt;1623 -->
<g id="edge74" class="edge">
<title>&#45;13&#45;&gt;1623</title>
<path fill="none" stroke="red" stroke-width="0.5" d="M645.96,-165C643,-164.09 639.92,-163.22 637,-162.51 542.41,-139.62 510.64,-164.41 421,-126.51 418.47,-125.44 415.95,-124.17 413.48,-122.77"/>
<polygon fill="red" stroke="red" stroke-width="0.5" points="415.16,-119.69 404.84,-117.26 411.39,-125.59 415.16,-119.69"/>
</g>
<!-- &#45;13&#45;&gt;1624 -->
<g id="edge75" class="edge">
<title>&#45;13&#45;&gt;1624</title>
<path fill="none" stroke="green" stroke-width="0.5" d="M645.9,-165.21C642.95,-164.28 639.89,-163.34 637,-162.51 575.27,-144.71 555.04,-154.07 497,-126.51 494.52,-125.33 492.03,-123.98 489.59,-122.52"/>
<polygon fill="green" stroke="green" stroke-width="0.5" points="491.29,-119.45 481,-116.9 487.45,-125.31 491.29,-119.45"/>
</g>
<!-- &#45;13&#45;&gt;1625 -->
<g id="edge76" class="edge">
<title>&#45;13&#45;&gt;1625</title>
<path fill="none" stroke="red" stroke-width="0.23" d="M647.43,-162.25C628.4,-151.46 594.48,-132.24 568.87,-117.72"/>
<polygon fill="red" stroke="red" stroke-width="0.23" points="570.27,-114.49 559.85,-112.6 566.82,-120.58 570.27,-114.49"/>
</g>
<!-- &#45;13&#45;&gt;1626 -->
<g id="edge77" class="edge">
<title>&#45;13&#45;&gt;1626</title>
<path fill="none" stroke="red" stroke-width="0.11" d="M646,-164.84C643.03,-163.94 639.95,-163.12 637,-162.51 476.06,-129.28 422.44,-185.35 269,-126.51 266.27,-125.46 263.57,-124.17 260.94,-122.71"/>
<polygon fill="red" stroke="red" stroke-width="0.11" points="262.64,-119.65 252.32,-117.27 258.9,-125.57 262.64,-119.65"/>
</g>
<!-- &#45;14 -->
<g id="node14" class="node">
<title>&#45;14</title>
<polygon fill="lightgray" stroke="black" points="182,-180.51 150,-180.51 150,-162.51 182,-162.51 182,-180.51"/>
<text text-anchor="middle" x="166" y="-169.31" font-family="Times,serif" font-size="9.00">&#45;14</text>
</g>
<!-- &#45;14&#45;&gt;1622 -->
<g id="edge78" class="edge">
<title>&#45;14&#45;&gt;1622</title>
<path fill="none" stroke="red" stroke-width="0.38" d="M182.25,-164.9C203.02,-157.43 239.79,-143.2 269,-126.51 271.3,-125.19 273.63,-123.76 275.94,-122.27"/>
<polygon fill="red" stroke="red" stroke-width="0.38" points="278.4,-124.82 284.67,-116.28 274.44,-119.05 278.4,-124.82"/>
</g>
<!-- &#45;14&#45;&gt;1623 -->
<g id="edge79" class="edge">
<title>&#45;14&#45;&gt;1623</title>
<path fill="none" stroke="green" stroke-width="0.39" d="M182.08,-165.15C185.04,-164.23 188.1,-163.31 191,-162.51 258.75,-143.78 281.18,-155.96 345,-126.51 347.49,-125.36 349.99,-124.03 352.44,-122.59"/>
<polygon fill="green" stroke="green" stroke-width="0.39" points="354.56,-125.38 361.04,-116.99 350.75,-119.51 354.56,-125.38"/>
</g>
<!-- &#45;14&#45;&gt;1624 -->
<g id="edge80" class="edge">
<title>&#45;14&#45;&gt;1624</title>
<path fill="none" stroke="green" stroke-width="0.25" d="M182.04,-164.98C184.99,-164.07 188.07,-163.2 191,-162.51 291.68,-138.67 325.5,-166.33 421,-126.51 423.54,-125.45 426.06,-124.19 428.53,-122.8"/>
<polygon fill="green" stroke="green" stroke-width="0.25" points="430.61,-125.62 437.18,-117.31 426.86,-119.71 430.61,-125.62"/>
</g>
<!-- &#45;14&#45;&gt;1625 -->
<g id="edge81" class="edge">
<title>&#45;14&#45;&gt;1625</title>
<path fill="none" stroke="green" stroke-width="0.31" d="M182.01,-164.88C184.98,-163.99 188.06,-163.15 191,-162.51 324.83,-133.51 369.63,-176.79 497,-126.51 499.72,-125.44 502.41,-124.12 505.04,-122.65"/>
<polygon fill="green" stroke="green" stroke-width="0.31" points="507.09,-125.5 513.65,-117.18 503.33,-119.59 507.09,-125.5"/>
</g>
<!-- &#45;14&#45;&gt;1626 -->
<g id="edge82" class="edge">
<title>&#45;14&#45;&gt;1626</title>
<path fill="none" stroke="green" stroke-width="0.38" d="M173.46,-162.25C181.19,-153.69 193.72,-139.81 205.12,-127.19"/>
<polygon fill="green" stroke="green" stroke-width="0.38" points="207.91,-129.31 212.01,-119.55 202.71,-124.62 207.91,-129.31"/>
</g>
<!-- &#45;14&#45;&gt;1627 -->
<g id="edge83" class="edge">
<title>&#45;14&#45;&gt;1627</title>
<path fill="none" stroke="red" stroke-width="0.16" d="M164.74,-162.25C163.75,-155.78 162.3,-146.28 160.82,-136.58"/>
<polygon fill="red" stroke="red" stroke-width="0.16" points="164.25,-135.87 159.28,-126.51 157.33,-136.93 164.25,-135.87"/>
</g>
<!-- &#45;15 -->
<g id="node15" class="node">
<title>&#45;15</title>
<polygon fill="lightgray" stroke="black" points="232,-180.51 200,-180.51 200,-162.51 232,-162.51 232,-180.51"/>
<text text-anchor="middle" x="216" y="-169.31" font-family="Times,serif" font-size="9.00">&#45;15</text>
</g>
<!-- &#45;15&#45;&gt;1622 -->
<g id="edge84" class="edge">
<title>&#45;15&#45;&gt;1622</title>
<path fill="none" stroke="red" stroke-width="0.5" d="M226.44,-162.25C238.56,-152.67 259.09,-136.42 276.39,-122.73"/>
<polygon fill="red" stroke="red" stroke-width="0.5" points="278.9,-125.21 284.57,-116.26 274.56,-119.72 278.9,-125.21"/>
</g>
<!-- &#45;15&#45;&gt;1623 -->
<g id="edge85" class="edge">
<title>&#45;15&#45;&gt;1623</title>
<path fill="none" stroke="red" stroke-width="0.2" d="M232.24,-165.28C264.57,-154.82 334.73,-131.88 345,-126.51 347.43,-125.24 349.88,-123.82 352.3,-122.31"/>
<polygon fill="red" stroke="red" stroke-width="0.2" points="354.48,-125.06 360.84,-116.58 350.58,-119.25 354.48,-125.06"/>
</g>
<!-- &#45;15&#45;&gt;1624 -->
<g id="edge86" class="edge">
<title>&#45;15&#45;&gt;1624</title>
<path fill="none" stroke="red" stroke-width="0.22" d="M232.06,-165.08C235.02,-164.16 238.09,-163.26 241,-162.51 319.98,-142.04 346.38,-159.49 421,-126.51 423.51,-125.4 426.02,-124.1 428.48,-122.68"/>
<polygon fill="red" stroke="red" stroke-width="0.22" points="430.59,-125.48 437.1,-117.13 426.8,-119.6 430.59,-125.48"/>
</g>
<!-- &#45;15&#45;&gt;1625 -->
<g id="edge87" class="edge">
<title>&#45;15&#45;&gt;1625</title>
<path fill="none" stroke="green" stroke-width="0.39" d="M232.03,-164.94C234.99,-164.04 238.07,-163.18 241,-162.51 353.01,-136.91 390.61,-169.9 497,-126.51 499.54,-125.47 502.07,-124.23 504.55,-122.84"/>
<polygon fill="green" stroke="green" stroke-width="0.39" points="506.62,-125.67 513.2,-117.37 502.88,-119.76 506.62,-125.67"/>
</g>
<!-- &#45;15&#45;&gt;1626 -->
<g id="edge88" class="edge">
<title>&#45;15&#45;&gt;1626</title>
<path fill="none" stroke="green" stroke-width="0.33" d="M217.72,-162.25C219.09,-155.66 221.12,-145.92 223.19,-136.02"/>
<polygon fill="green" stroke="green" stroke-width="0.33" points="226.62,-136.69 225.23,-126.19 219.77,-135.26 226.62,-136.69"/>
</g>
<!-- &#45;15&#45;&gt;1627 -->
<g id="edge89" class="edge">
<title>&#45;15&#45;&gt;1627</title>
<path fill="none" stroke="red" stroke-width="0.3" d="M209,-162.25C201.92,-153.89 190.54,-140.46 180.05,-128.08"/>
<polygon fill="red" stroke="red" stroke-width="0.3" points="182.47,-125.53 173.34,-120.16 177.13,-130.05 182.47,-125.53"/>
</g>
<!-- 0 -->
<g id="node16" class="node">
<title>0</title>
<ellipse fill="lightblue" stroke="black" cx="319" cy="-16.26" rx="16.03" ry="16.03"/>
<text text-anchor="middle" x="319" y="-14.06" font-family="Times,serif" font-size="9.00">0</text>
</g>
<!-- 1 -->
<g id="node17" class="node">
<title>1</title>
<ellipse fill="lightblue" stroke="black" cx="376" cy="-16.26" rx="16.03" ry="16.03"/>
<text text-anchor="middle" x="376" y="-14.06" font-family="Times,serif" font-size="9.00">1</text>
</g>
<!-- 1622&#45;&gt;0 -->
<g id="edge90" class="edge">
<title>1622&#45;&gt;0</title>
<path fill="none" stroke="red" stroke-width="0.17" d="M311.2,-68.8C312.49,-60.26 313.91,-50.91 315.17,-42.55"/>
<polygon fill="red" stroke="red" stroke-width="0.17" points="318.64,-43.03 316.68,-32.62 311.72,-41.98 318.64,-43.03"/>
</g>
<!-- 1622&#45;&gt;1 -->
<g id="edge91" class="edge">
<title>1622&#45;&gt;1</title>
<path fill="none" stroke="red" stroke-width="0.24" d="M325.85,-74.86C336.13,-63.06 348.75,-48.56 358.76,-37.06"/>
<polygon fill="red" stroke="red" stroke-width="0.24" points="361.59,-39.14 365.52,-29.3 356.31,-34.54 361.59,-39.14"/>
</g>
<!-- 1623&#45;&gt;0 -->
<g id="edge92" class="edge">
<title>1623&#45;&gt;0</title>
<path fill="none" stroke="green" stroke-width="0.25" d="M365.17,-74.44C355.86,-62.91 344.54,-48.89 335.44,-37.62"/>
<polygon fill="green" stroke="green" stroke-width="0.25" points="337.99,-35.2 328.98,-29.62 332.54,-39.6 337.99,-35.2"/>
</g>
<!-- 1623&#45;&gt;1 -->
<g id="edge93" class="edge">
<title>1623&#45;&gt;1</title>
<path fill="none" stroke="green" stroke-width="0.5" stroke-dasharray="1,5" d="M380.51,-68.35C379.78,-60.06 378.98,-51.04 378.27,-42.91"/>
<polygon fill="green" stroke="green" stroke-width="0.5" points="381.75,-42.54 377.38,-32.89 374.77,-43.16 381.75,-42.54"/>
</g>
<!-- 1624&#45;&gt;0 -->
<g id="edge94" class="edge">
<title>1624&#45;&gt;0</title>
<path fill="none" stroke="red" stroke-width="0.13" d="M436.53,-79C431.52,-75.37 426.17,-71.7 421,-68.53 406.92,-59.89 367.92,-40.76 342.43,-28.47"/>
<polygon fill="red" stroke="red" stroke-width="0.13" points="343.93,-25.31 333.41,-24.13 340.9,-31.62 343.93,-25.31"/>
</g>
<!-- 1624&#45;&gt;1 -->
<g id="edge95" class="edge">
<title>1624&#45;&gt;1</title>
<path fill="none" stroke="red" stroke-width="0.17" d="M438.48,-76.93C425.13,-64.17 407.83,-47.66 394.83,-35.24"/>
<polygon fill="red" stroke="red" stroke-width="0.17" points="397.01,-32.48 387.36,-28.11 392.17,-37.54 397.01,-32.48"/>
</g>
<!-- 1625&#45;&gt;0 -->
<g id="edge96" class="edge">
<title>1625&#45;&gt;0</title>
<path fill="none" stroke="green" stroke-width="0.37" d="M513.01,-78.09C507.98,-74.52 502.49,-71.1 497,-68.53 436.49,-40.16 413.93,-55.03 351,-32.53 348.17,-31.52 345.26,-30.34 342.41,-29.09"/>
<polygon fill="green" stroke="green" stroke-width="0.37" points="343.61,-25.79 333.07,-24.74 340.66,-32.14 343.61,-25.79"/>
</g>
<!-- 1625&#45;&gt;1 -->
<g id="edge97" class="edge">
<title>1625&#45;&gt;1</title>
<path fill="none" stroke="green" stroke-width="0.5" d="M512.68,-78.74C507.67,-75.13 502.27,-71.53 497,-68.53 465.29,-50.46 425.97,-34.96 400.92,-25.87"/>
<polygon fill="green" stroke="green" stroke-width="0.5" points="402.04,-22.55 391.44,-22.49 399.68,-29.14 402.04,-22.55"/>
</g>
<!-- 1626&#45;&gt;0 -->
<g id="edge98" class="edge">
<title>1626&#45;&gt;0</title>
<path fill="none" stroke="red" stroke-width="0.24" d="M252.3,-77.33C266.76,-64.31 285.72,-47.24 299.73,-34.62"/>
<polygon fill="red" stroke="red" stroke-width="0.24" points="302.24,-37.07 307.33,-27.77 297.56,-31.86 302.24,-37.07"/>
</g>
<!-- 1626&#45;&gt;1 -->
<g id="edge99" class="edge">
<title>1626&#45;&gt;1</title>
<path fill="none" stroke="red" stroke-width="0.1" d="M253.43,-78.92C258.43,-75.3 263.8,-71.65 269,-68.53 269.98,-67.94 320.67,-43.7 351.92,-28.76"/>
<polygon fill="red" stroke="red" stroke-width="0.1" points="353.79,-31.75 361.3,-24.28 350.77,-25.44 353.79,-31.75"/>
</g>
<!-- 1627&#45;&gt;0 -->
<g id="edge100" class="edge">
<title>1627&#45;&gt;0</title>
<path fill="none" stroke="red" stroke-width="0.18" d="M177.29,-78.68C182.3,-75.08 187.71,-71.49 193,-68.53 226.32,-49.86 267.82,-34.32 293.88,-25.41"/>
<polygon fill="red" stroke="red" stroke-width="0.18" points="295.34,-28.61 303.7,-22.11 293.11,-21.97 295.34,-28.61"/>
</g>
<!-- 1627&#45;&gt;1 -->
<g id="edge101" class="edge">
<title>1627&#45;&gt;1</title>
<path fill="none" stroke="red" stroke-width="0.17" d="M176.97,-78.06C182,-74.49 187.5,-71.08 193,-68.53 255.58,-39.49 278.95,-55.51 344,-32.53 346.83,-31.53 349.74,-30.36 352.6,-29.11"/>
<polygon fill="red" stroke="red" stroke-width="0.17" points="354.35,-32.16 361.94,-24.76 351.39,-25.81 354.35,-32.16"/>
</g>
</g>
</svg>
