<?xml version="1.0" encoding="UTF-8" standalone="no"?>
<!DOCTYPE svg PUBLIC "-//W3C//DTD SVG 1.1//EN"
 "http://www.w3.org/Graphics/SVG/1.1/DTD/svg11.dtd">
<!-- Generated by graphviz version 2.43.0 (0)
 -->
<!-- Title: %3 Pages: 1 -->
<svg width="686pt" height="95pt"
 viewBox="0.00 0.00 686.00 94.53" xmlns="http://www.w3.org/2000/svg" xmlns:xlink="http://www.w3.org/1999/xlink">
<g id="graph0" class="graph" transform="scale(1 1) rotate(0) translate(4 90.53)">
<title>%3</title>
<polygon fill="white" stroke="transparent" points="-4,4 -4,-90.53 682,-90.53 682,4 -4,4"/>
<!-- &#45;1 -->
<g id="node1" class="node">
<title>&#45;1</title>
<polygon fill="lightgray" stroke="black" points="76,-86.53 50,-86.53 50,-68.53 76,-68.53 76,-86.53"/>
<text text-anchor="middle" x="63" y="-75.33" font-family="Times,serif" font-size="9.00">&#45;1</text>
</g>
<!-- 0 -->
<g id="node16" class="node">
<title>0</title>
<ellipse fill="lightblue" stroke="black" cx="279" cy="-16.26" rx="16.03" ry="16.03"/>
<text text-anchor="middle" x="279" y="-14.06" font-family="Times,serif" font-size="9.00">0</text>
</g>
<!-- &#45;1&#45;&gt;0 -->
<g id="edge1" class="edge">
<title>&#45;1&#45;&gt;0</title>
<path fill="none" stroke="green" stroke-width="0.35" d="M76.43,-71.42C79.25,-70.42 82.21,-69.4 85,-68.53 144.61,-49.86 215.88,-32.19 253.24,-23.28"/>
<polygon fill="green" stroke="green" stroke-width="0.35" points="254.35,-26.62 263.27,-20.91 252.73,-19.81 254.35,-26.62"/>
</g>
<!-- 1 -->
<g id="node17" class="node">
<title>1</title>
<ellipse fill="lightblue" stroke="black" cx="330" cy="-16.26" rx="16.03" ry="16.03"/>
<text text-anchor="middle" x="330" y="-14.06" font-family="Times,serif" font-size="9.00">1</text>
</g>
<!-- &#45;1&#45;&gt;1 -->
<g id="edge2" class="edge">
<title>&#45;1&#45;&gt;1</title>
<path fill="none" stroke="green" stroke-width="0.26" d="M76.37,-71.22C79.19,-70.22 82.17,-69.27 85,-68.53 180.43,-43.56 211.24,-66.06 304,-32.53 305.25,-32.08 306.5,-31.57 307.75,-31.01"/>
<polygon fill="green" stroke="green" stroke-width="0.26" points="309.74,-33.92 316.97,-26.17 306.49,-27.72 309.74,-33.92"/>
</g>
<!-- &#45;2 -->
<g id="node2" class="node">
<title>&#45;2</title>
<polygon fill="lightgray" stroke="black" points="120,-86.53 94,-86.53 94,-68.53 120,-68.53 120,-86.53"/>
<text text-anchor="middle" x="107" y="-75.33" font-family="Times,serif" font-size="9.00">&#45;2</text>
</g>
<!-- &#45;2&#45;&gt;0 -->
<g id="edge3" class="edge">
<title>&#45;2&#45;&gt;0</title>
<path fill="none" stroke="green" stroke-width="0.39" d="M120.01,-71.75C122.96,-70.68 126.09,-69.55 129,-68.53 172.88,-53.05 224.22,-35.66 254.04,-25.63"/>
<polygon fill="green" stroke="green" stroke-width="0.39" points="255.27,-28.91 263.63,-22.4 253.04,-22.27 255.27,-28.91"/>
</g>
<!-- &#45;2&#45;&gt;1 -->
<g id="edge4" class="edge">
<title>&#45;2&#45;&gt;1</title>
<path fill="none" stroke="red" stroke-width="0.18" d="M120.39,-71.3C123.21,-70.31 126.18,-69.32 129,-68.53 205.4,-46.9 229.88,-61.01 304,-32.53 305.24,-32.05 306.48,-31.52 307.73,-30.95"/>
<polygon fill="red" stroke="red" stroke-width="0.18" points="309.74,-33.84 316.93,-26.06 306.45,-27.66 309.74,-33.84"/>
</g>
<!-- &#45;3 -->
<g id="node3" class="node">
<title>&#45;3</title>
<polygon fill="lightgray" stroke="black" points="164,-86.53 138,-86.53 138,-68.53 164,-68.53 164,-86.53"/>
<text text-anchor="middle" x="151" y="-75.33" font-family="Times,serif" font-size="9.00">&#45;3</text>
</g>
<!-- &#45;3&#45;&gt;0 -->
<g id="edge5" class="edge">
<title>&#45;3&#45;&gt;0</title>
<path fill="none" stroke="green" stroke-width="0.5" stroke-dasharray="1,5" d="M164.22,-70.41C185.72,-60.45 228.57,-40.61 255.4,-28.19"/>
<polygon fill="green" stroke="green" stroke-width="0.5" points="256.89,-31.36 264.49,-23.98 253.94,-25.01 256.89,-31.36"/>
</g>
<!-- &#45;3&#45;&gt;1 -->
<g id="edge6" class="edge">
<title>&#45;3&#45;&gt;1</title>
<path fill="none" stroke="green" stroke-width="0.29" d="M164.44,-71.45C167.25,-70.44 170.21,-69.42 173,-68.53 230.53,-50.19 248.37,-56.01 304,-32.53 305.22,-32.01 306.45,-31.45 307.69,-30.85"/>
<polygon fill="green" stroke="green" stroke-width="0.29" points="309.73,-33.73 316.86,-25.88 306.4,-27.57 309.73,-33.73"/>
</g>
<!-- &#45;4 -->
<g id="node4" class="node">
<title>&#45;4</title>
<polygon fill="lightgray" stroke="black" points="208,-86.53 182,-86.53 182,-68.53 208,-68.53 208,-86.53"/>
<text text-anchor="middle" x="195" y="-75.33" font-family="Times,serif" font-size="9.00">&#45;4</text>
</g>
<!-- &#45;4&#45;&gt;0 -->
<g id="edge7" class="edge">
<title>&#45;4&#45;&gt;0</title>
<path fill="none" stroke="green" stroke-width="0.5" d="M206.68,-68.29C219.84,-59 241.51,-43.72 257.7,-32.29"/>
<polygon fill="green" stroke="green" stroke-width="0.5" points="259.89,-35.03 266.04,-26.41 255.85,-29.31 259.89,-35.03"/>
</g>
<!-- &#45;4&#45;&gt;1 -->
<g id="edge8" class="edge">
<title>&#45;4&#45;&gt;1</title>
<path fill="none" stroke="red" stroke-width="0.38" d="M208.34,-71.42C233.35,-61.81 286.33,-41.22 304,-32.53 305.16,-31.95 306.34,-31.35 307.53,-30.73"/>
<polygon fill="red" stroke="red" stroke-width="0.38" points="309.43,-33.67 316.44,-25.73 306.01,-27.56 309.43,-33.67"/>
</g>
<!-- &#45;5 -->
<g id="node5" class="node">
<title>&#45;5</title>
<polygon fill="lightgray" stroke="black" points="252,-86.53 226,-86.53 226,-68.53 252,-68.53 252,-86.53"/>
<text text-anchor="middle" x="239" y="-75.33" font-family="Times,serif" font-size="9.00">&#45;5</text>
</g>
<!-- &#45;5&#45;&gt;0 -->
<g id="edge9" class="edge">
<title>&#45;5&#45;&gt;0</title>
<path fill="none" stroke="red" stroke-width="0.46" d="M244.56,-68.29C249.68,-60.71 257.49,-49.14 264.38,-38.93"/>
<polygon fill="red" stroke="red" stroke-width="0.46" points="267.41,-40.69 270.1,-30.44 261.61,-36.77 267.41,-40.69"/>
</g>
<!-- &#45;5&#45;&gt;1 -->
<g id="edge10" class="edge">
<title>&#45;5&#45;&gt;1</title>
<path fill="none" stroke="green" stroke-width="0.2" d="M251.65,-68.29C266.21,-58.81 290.37,-43.07 308.02,-31.58"/>
<polygon fill="green" stroke="green" stroke-width="0.2" points="310.1,-34.4 316.57,-26.01 306.28,-28.54 310.1,-34.4"/>
</g>
<!-- &#45;6 -->
<g id="node6" class="node">
<title>&#45;6</title>
<polygon fill="lightgray" stroke="black" points="296,-86.53 270,-86.53 270,-68.53 296,-68.53 296,-86.53"/>
<text text-anchor="middle" x="283" y="-75.33" font-family="Times,serif" font-size="9.00">&#45;6</text>
</g>
<!-- &#45;6&#45;&gt;0 -->
<g id="edge11" class="edge">
<title>&#45;6&#45;&gt;0</title>
<path fill="none" stroke="red" stroke-width="0.5" d="M282.44,-68.29C282,-61.7 281.35,-52.1 280.74,-43"/>
<polygon fill="red" stroke="red" stroke-width="0.5" points="284.21,-42.5 280.05,-32.76 277.23,-42.97 284.21,-42.5"/>
</g>
<!-- &#45;6&#45;&gt;1 -->
<g id="edge12" class="edge">
<title>&#45;6&#45;&gt;1</title>
<path fill="none" stroke="red" stroke-width="0.4" d="M289.54,-68.29C295.82,-60.36 305.58,-48.05 313.94,-37.51"/>
<polygon fill="red" stroke="red" stroke-width="0.4" points="316.78,-39.56 320.25,-29.55 311.3,-35.21 316.78,-39.56"/>
</g>
<!-- &#45;7 -->
<g id="node7" class="node">
<title>&#45;7</title>
<polygon fill="lightgray" stroke="black" points="340,-86.53 314,-86.53 314,-68.53 340,-68.53 340,-86.53"/>
<text text-anchor="middle" x="327" y="-75.33" font-family="Times,serif" font-size="9.00">&#45;7</text>
</g>
<!-- &#45;7&#45;&gt;0 -->
<g id="edge13" class="edge">
<title>&#45;7&#45;&gt;0</title>
<path fill="none" stroke="green" stroke-width="0.33" d="M320.33,-68.29C313.9,-60.36 303.93,-48.05 295.4,-37.51"/>
<polygon fill="green" stroke="green" stroke-width="0.33" points="297.97,-35.12 288.95,-29.55 292.53,-39.53 297.97,-35.12"/>
</g>
<!-- &#45;7&#45;&gt;1 -->
<g id="edge14" class="edge">
<title>&#45;7&#45;&gt;1</title>
<path fill="none" stroke="green" stroke-width="0.5" d="M327.42,-68.29C327.75,-61.7 328.24,-52.1 328.7,-43"/>
<polygon fill="green" stroke="green" stroke-width="0.5" points="332.21,-42.92 329.22,-32.76 325.21,-42.57 332.21,-42.92"/>
</g>
<!-- &#45;8 -->
<g id="node8" class="node">
<title>&#45;8</title>
<polygon fill="lightgray" stroke="black" points="384,-86.53 358,-86.53 358,-68.53 384,-68.53 384,-86.53"/>
<text text-anchor="middle" x="371" y="-75.33" font-family="Times,serif" font-size="9.00">&#45;8</text>
</g>
<!-- &#45;8&#45;&gt;0 -->
<g id="edge15" class="edge">
<title>&#45;8&#45;&gt;0</title>
<path fill="none" stroke="green" stroke-width="0.29" d="M358.21,-68.29C343.41,-58.75 318.79,-42.89 300.92,-31.38"/>
<polygon fill="green" stroke="green" stroke-width="0.29" points="302.58,-28.29 292.28,-25.82 298.79,-34.18 302.58,-28.29"/>
</g>
<!-- &#45;8&#45;&gt;1 -->
<g id="edge16" class="edge">
<title>&#45;8&#45;&gt;1</title>
<path fill="none" stroke="red" stroke-width="0.28" d="M365.3,-68.29C359.94,-60.53 351.68,-48.6 344.5,-38.22"/>
<polygon fill="red" stroke="red" stroke-width="0.28" points="347.38,-36.23 338.81,-30 341.62,-40.21 347.38,-36.23"/>
</g>
<!-- &#45;9 -->
<g id="node9" class="node">
<title>&#45;9</title>
<polygon fill="lightgray" stroke="black" points="678,-86.53 652,-86.53 652,-68.53 678,-68.53 678,-86.53"/>
<text text-anchor="middle" x="665" y="-75.33" font-family="Times,serif" font-size="9.00">&#45;9</text>
</g>
<!-- &#45;9&#45;&gt;1 -->
<g id="edge17" class="edge">
<title>&#45;9&#45;&gt;1</title>
<path fill="none" stroke="red" stroke-width="0.3" d="M651.63,-71.22C648.81,-70.22 645.83,-69.27 643,-68.53 538.58,-41.25 410.58,-25.69 356.32,-19.9"/>
<polygon fill="red" stroke="red" stroke-width="0.3" points="356.49,-16.4 346.18,-18.84 355.76,-23.36 356.49,-16.4"/>
</g>
<!-- &#45;10 -->
<g id="node10" class="node">
<title>&#45;10</title>
<polygon fill="lightgray" stroke="black" points="634,-86.53 602,-86.53 602,-68.53 634,-68.53 634,-86.53"/>
<text text-anchor="middle" x="618" y="-75.33" font-family="Times,serif" font-size="9.00">&#45;10</text>
</g>
<!-- &#45;10&#45;&gt;1 -->
<g id="edge18" class="edge">
<title>&#45;10&#45;&gt;1</title>
<path fill="none" stroke="red" stroke-width="0.32" d="M601.94,-71.08C598.99,-70.17 595.91,-69.27 593,-68.53 507.3,-46.54 403.78,-28.93 356.22,-21.33"/>
<polygon fill="red" stroke="red" stroke-width="0.32" points="356.58,-17.84 346.16,-19.74 355.49,-24.76 356.58,-17.84"/>
</g>
<!-- &#45;11 -->
<g id="node11" class="node">
<title>&#45;11</title>
<polygon fill="lightgray" stroke="black" points="434,-86.53 402,-86.53 402,-68.53 434,-68.53 434,-86.53"/>
<text text-anchor="middle" x="418" y="-75.33" font-family="Times,serif" font-size="9.00">&#45;11</text>
</g>
<!-- &#45;11&#45;&gt;0 -->
<g id="edge19" class="edge">
<title>&#45;11&#45;&gt;0</title>
<path fill="none" stroke="red" stroke-width="0.5" d="M401.94,-71.18C379.72,-63.59 338.54,-48.77 305,-32.53 303.83,-31.96 302.65,-31.36 301.46,-30.74"/>
<polygon fill="red" stroke="red" stroke-width="0.5" points="302.98,-27.58 292.54,-25.76 299.56,-33.69 302.98,-27.58"/>
</g>
<!-- &#45;11&#45;&gt;1 -->
<g id="edge20" class="edge">
<title>&#45;11&#45;&gt;1</title>
<path fill="none" stroke="red" stroke-width="0.24" d="M405.76,-68.29C391.9,-58.95 369.02,-43.54 352.02,-32.09"/>
<polygon fill="red" stroke="red" stroke-width="0.24" points="353.53,-28.89 343.28,-26.21 349.62,-34.7 353.53,-28.89"/>
</g>
<!-- &#45;12 -->
<g id="node12" class="node">
<title>&#45;12</title>
<polygon fill="lightgray" stroke="black" points="484,-86.53 452,-86.53 452,-68.53 484,-68.53 484,-86.53"/>
<text text-anchor="middle" x="468" y="-75.33" font-family="Times,serif" font-size="9.00">&#45;12</text>
</g>
<!-- &#45;12&#45;&gt;0 -->
<g id="edge21" class="edge">
<title>&#45;12&#45;&gt;0</title>
<path fill="none" stroke="red" stroke-width="0.5" stroke-dasharray="1,5" d="M451.9,-71.23C448.95,-70.3 445.89,-69.37 443,-68.53 382.13,-50.86 363.55,-56.8 305,-32.53 303.78,-32.02 302.54,-31.46 301.31,-30.87"/>
<polygon fill="red" stroke="red" stroke-width="0.5" points="302.59,-27.59 292.13,-25.92 299.27,-33.75 302.59,-27.59"/>
</g>
<!-- &#45;12&#45;&gt;1 -->
<g id="edge22" class="edge">
<title>&#45;12&#45;&gt;1</title>
<path fill="none" stroke="red" stroke-width="0.49" d="M451.9,-69.61C427.84,-59.28 382.32,-39.73 354.23,-27.67"/>
<polygon fill="red" stroke="red" stroke-width="0.49" points="355.31,-24.32 344.74,-23.59 352.55,-30.76 355.31,-24.32"/>
</g>
<!-- &#45;13 -->
<g id="node13" class="node">
<title>&#45;13</title>
<polygon fill="lightgray" stroke="black" points="534,-86.53 502,-86.53 502,-68.53 534,-68.53 534,-86.53"/>
<text text-anchor="middle" x="518" y="-75.33" font-family="Times,serif" font-size="9.00">&#45;13</text>
</g>
<!-- &#45;13&#45;&gt;0 -->
<g id="edge23" class="edge">
<title>&#45;13&#45;&gt;0</title>
<path fill="none" stroke="red" stroke-width="0.16" stroke-dasharray="1,5" d="M501.94,-71.07C498.99,-70.16 495.91,-69.27 493,-68.53 410.56,-47.52 384.62,-62.5 305,-32.53 303.76,-32.06 302.51,-31.54 301.27,-30.97"/>
<polygon fill="red" stroke="red" stroke-width="0.16" points="302.53,-27.68 292.06,-26.1 299.26,-33.87 302.53,-27.68"/>
</g>
<!-- &#45;13&#45;&gt;1 -->
<g id="edge24" class="edge">
<title>&#45;13&#45;&gt;1</title>
<path fill="none" stroke="green" stroke-width="0.49" d="M501.87,-71.35C498.92,-70.41 495.87,-69.44 493,-68.53 444.22,-53.05 387.17,-35.16 355.14,-25.13"/>
<polygon fill="green" stroke="green" stroke-width="0.49" points="355.88,-21.69 345.29,-22.04 353.79,-28.37 355.88,-21.69"/>
</g>
<!-- &#45;14 -->
<g id="node14" class="node">
<title>&#45;14</title>
<polygon fill="lightgray" stroke="black" points="584,-86.53 552,-86.53 552,-68.53 584,-68.53 584,-86.53"/>
<text text-anchor="middle" x="568" y="-75.33" font-family="Times,serif" font-size="9.00">&#45;14</text>
</g>
<!-- &#45;14&#45;&gt;0 -->
<g id="edge25" class="edge">
<title>&#45;14&#45;&gt;0</title>
<path fill="none" stroke="green" stroke-width="0.2" d="M551.97,-70.98C549.01,-70.08 545.93,-69.21 543,-68.53 438.83,-44.15 405.84,-68.25 305,-32.53 303.75,-32.08 302.5,-31.58 301.25,-31.03"/>
<polygon fill="green" stroke="green" stroke-width="0.2" points="302.5,-27.74 292.02,-26.21 299.26,-33.94 302.5,-27.74"/>
</g>
<!-- &#45;14&#45;&gt;1 -->
<g id="edge26" class="edge">
<title>&#45;14&#45;&gt;1</title>
<path fill="none" stroke="green" stroke-width="0.5" d="M551.91,-71.19C548.96,-70.26 545.9,-69.34 543,-68.53 475.92,-49.75 395.81,-31.6 355.64,-22.79"/>
<polygon fill="green" stroke="green" stroke-width="0.5" points="356.38,-19.37 345.87,-20.66 354.89,-26.21 356.38,-19.37"/>
</g>
<!-- &#45;15 -->
<g id="node15" class="node">
<title>&#45;15</title>
<polygon fill="lightgray" stroke="black" points="32,-86.53 0,-86.53 0,-68.53 32,-68.53 32,-86.53"/>
<text text-anchor="middle" x="16" y="-75.33" font-family="Times,serif" font-size="9.00">&#45;15</text>
</g>
<!-- &#45;15&#45;&gt;0 -->
<g id="edge27" class="edge">
<title>&#45;15&#45;&gt;0</title>
<path fill="none" stroke="red" stroke-width="0.4" d="M32.07,-71.13C35.02,-70.21 38.09,-69.3 41,-68.53 117.39,-48.13 209.23,-30.17 253.15,-21.97"/>
<polygon fill="red" stroke="red" stroke-width="0.4" points="253.8,-25.41 263,-20.15 252.53,-18.53 253.8,-25.41"/>
</g>
<!-- &#45;15&#45;&gt;1 -->
<g id="edge28" class="edge">
<title>&#45;15&#45;&gt;1</title>
<path fill="none" stroke="green" stroke-width="0.23" stroke-dasharray="1,5" d="M32.02,-70.95C34.98,-70.05 38.07,-69.19 41,-68.53 156.06,-42.45 192.52,-71.14 304,-32.53 305.25,-32.09 306.51,-31.6 307.76,-31.05"/>
<polygon fill="green" stroke="green" stroke-width="0.23" points="309.74,-33.97 317,-26.25 306.51,-27.76 309.74,-33.97"/>
</g>
</g>
</svg>
