<?xml version="1.0" encoding="UTF-8" standalone="no"?>
<!DOCTYPE svg PUBLIC "-//W3C//DTD SVG 1.1//EN"
 "http://www.w3.org/Graphics/SVG/1.1/DTD/svg11.dtd">
<!-- Generated by graphviz version 2.43.0 (0)
 -->
<!-- Title: %3 Pages: 1 -->
<svg width="1033pt" height="282pt"
 viewBox="0.00 0.00 1032.79 282.49" xmlns="http://www.w3.org/2000/svg" xmlns:xlink="http://www.w3.org/1999/xlink">
<g id="graph0" class="graph" transform="scale(1 1) rotate(0) translate(4 278.49)">
<title>%3</title>
<polygon fill="white" stroke="transparent" points="-4,4 -4,-278.49 1028.79,-278.49 1028.79,4 -4,4"/>
<!-- &#45;1 -->
<g id="node1" class="node">
<title>&#45;1</title>
<polygon fill="lightgray" stroke="black" points="402,-274.49 376,-274.49 376,-256.49 402,-256.49 402,-274.49"/>
<text text-anchor="middle" x="389" y="-263.29" font-family="Times,serif" font-size="9.00">&#45;1</text>
</g>
<!-- 1646 -->
<g id="node18" class="node">
<title>1646</title>
<ellipse fill="white" stroke="black" cx="219" cy="-191.5" rx="28.98" ry="28.98"/>
<text text-anchor="middle" x="219" y="-189.3" font-family="Times,serif" font-size="9.00">1646</text>
</g>
<!-- &#45;1&#45;&gt;1646 -->
<g id="edge1" class="edge">
<title>&#45;1&#45;&gt;1646</title>
<path fill="none" stroke="green" stroke-width="0.25" d="M376,-259.68C373.04,-258.62 369.92,-257.5 367,-256.49 318.38,-239.7 302.73,-244.04 257,-220.49 254.56,-219.23 252.1,-217.83 249.68,-216.33"/>
<polygon fill="green" stroke="green" stroke-width="0.25" points="251.4,-213.26 241.14,-210.62 247.51,-219.08 251.4,-213.26"/>
</g>
<!-- 1647 -->
<g id="node19" class="node">
<title>1647</title>
<ellipse fill="white" stroke="black" cx="409" cy="-191.5" rx="28.98" ry="28.98"/>
<text text-anchor="middle" x="409" y="-189.3" font-family="Times,serif" font-size="9.00">1647</text>
</g>
<!-- &#45;1&#45;&gt;1647 -->
<g id="edge2" class="edge">
<title>&#45;1&#45;&gt;1647</title>
<path fill="none" stroke="red" stroke-width="0.23" d="M391.29,-256.23C393.18,-249.46 395.98,-239.36 398.81,-229.19"/>
<polygon fill="red" stroke="red" stroke-width="0.23" points="402.19,-230.09 401.49,-219.52 395.44,-228.22 402.19,-230.09"/>
</g>
<!-- 1649 -->
<g id="node20" class="node">
<title>1649</title>
<ellipse fill="white" stroke="black" cx="295" cy="-191.5" rx="28.98" ry="28.98"/>
<text text-anchor="middle" x="295" y="-189.3" font-family="Times,serif" font-size="9.00">1649</text>
</g>
<!-- &#45;1&#45;&gt;1649 -->
<g id="edge3" class="edge">
<title>&#45;1&#45;&gt;1649</title>
<path fill="none" stroke="green" stroke-width="0.17" d="M378.22,-256.23C365.5,-246.5 343.82,-229.89 325.77,-216.07"/>
<polygon fill="green" stroke="green" stroke-width="0.17" points="327.85,-213.25 317.78,-209.95 323.6,-218.81 327.85,-213.25"/>
</g>
<!-- 1650 -->
<g id="node21" class="node">
<title>1650</title>
<ellipse fill="white" stroke="black" cx="380" cy="-97.52" rx="28.98" ry="28.98"/>
<text text-anchor="middle" x="380" y="-95.32" font-family="Times,serif" font-size="9.00">1650</text>
</g>
<!-- &#45;1&#45;&gt;1650 -->
<g id="edge4" class="edge">
<title>&#45;1&#45;&gt;1650</title>
<path fill="none" stroke="green" stroke-width="0.11" d="M402.01,-258.97C416.05,-252.21 437.67,-239.28 447,-220.49 458.46,-197.41 457.13,-186.2 447,-162.51 439.77,-145.61 425.64,-131.04 412.22,-120.1"/>
<polygon fill="green" stroke="green" stroke-width="0.11" points="414.07,-117.11 404.02,-113.76 409.79,-122.65 414.07,-117.11"/>
</g>
<!-- 1651 -->
<g id="node22" class="node">
<title>1651</title>
<ellipse fill="white" stroke="black" cx="494" cy="-97.52" rx="28.98" ry="28.98"/>
<text text-anchor="middle" x="494" y="-95.32" font-family="Times,serif" font-size="9.00">1651</text>
</g>
<!-- &#45;1&#45;&gt;1651 -->
<g id="edge5" class="edge">
<title>&#45;1&#45;&gt;1651</title>
<path fill="none" stroke="red" stroke-width="0.14" d="M402.42,-259.36C405.24,-258.35 408.2,-257.35 411,-256.49 474.51,-237.12 515.09,-272.8 556,-220.49 571.88,-200.19 565.67,-186.4 556,-162.51 549.57,-146.63 537.1,-132.52 525.02,-121.61"/>
<polygon fill="red" stroke="red" stroke-width="0.14" points="527.08,-118.76 517.21,-114.92 522.53,-124.08 527.08,-118.76"/>
</g>
<!-- &#45;2 -->
<g id="node2" class="node">
<title>&#45;2</title>
<polygon fill="lightgray" stroke="black" points="678,-274.49 652,-274.49 652,-256.49 678,-256.49 678,-274.49"/>
<text text-anchor="middle" x="665" y="-263.29" font-family="Times,serif" font-size="9.00">&#45;2</text>
</g>
<!-- &#45;2&#45;&gt;1646 -->
<g id="edge6" class="edge">
<title>&#45;2&#45;&gt;1646</title>
<path fill="none" stroke="red" stroke-width="0.18" d="M651.67,-259.03C648.84,-258.05 645.86,-257.13 643,-256.49 474.89,-218.74 418.01,-281.82 257,-220.49 254.27,-219.45 251.57,-218.16 248.93,-216.71"/>
<polygon fill="red" stroke="red" stroke-width="0.18" points="250.64,-213.64 240.31,-211.27 246.9,-219.56 250.64,-213.64"/>
</g>
<!-- &#45;2&#45;&gt;1647 -->
<g id="edge7" class="edge">
<title>&#45;2&#45;&gt;1647</title>
<path fill="none" stroke="red" stroke-width="0.1" d="M651.56,-259.41C648.75,-258.4 645.79,-257.38 643,-256.49 574.53,-234.72 493.4,-213.55 446.89,-201.85"/>
<polygon fill="red" stroke="red" stroke-width="0.1" points="447.5,-198.39 436.95,-199.36 445.8,-205.18 447.5,-198.39"/>
</g>
<!-- &#45;2&#45;&gt;1649 -->
<g id="edge8" class="edge">
<title>&#45;2&#45;&gt;1649</title>
<path fill="none" stroke="green" stroke-width="0.31" d="M651.65,-259.11C648.83,-258.13 645.84,-257.19 643,-256.49 524.56,-227.48 489.38,-249.74 371,-220.49 357.64,-217.19 343.4,-212.33 330.89,-207.57"/>
<polygon fill="green" stroke="green" stroke-width="0.31" points="331.87,-204.2 321.28,-203.82 329.32,-210.72 331.87,-204.2"/>
</g>
<!-- &#45;2&#45;&gt;1650 -->
<g id="edge9" class="edge">
<title>&#45;2&#45;&gt;1650</title>
<path fill="none" stroke="green" stroke-width="0.47" d="M661.67,-256.41C653.24,-237.02 629.15,-187.59 593,-162.51 541.27,-126.62 516.05,-145.41 456,-126.51 442.98,-122.41 428.91,-117.4 416.46,-112.75"/>
<polygon fill="green" stroke="green" stroke-width="0.47" points="417.46,-109.39 406.87,-109.13 414.98,-115.94 417.46,-109.39"/>
</g>
<!-- &#45;2&#45;&gt;1651 -->
<g id="edge10" class="edge">
<title>&#45;2&#45;&gt;1651</title>
<path fill="none" stroke="green" stroke-width="0.32" d="M678.04,-263.84C738.48,-260.69 989.42,-246.12 1012,-220.49 1029.04,-201.16 1029.07,-181.82 1012,-162.51 980.32,-126.67 648.48,-106.42 533.2,-100.42"/>
<polygon fill="green" stroke="green" stroke-width="0.32" points="533.21,-96.92 523.05,-99.9 532.86,-103.91 533.21,-96.92"/>
</g>
<!-- &#45;3 -->
<g id="node3" class="node">
<title>&#45;3</title>
<polygon fill="lightgray" stroke="black" points="540,-274.49 514,-274.49 514,-256.49 540,-256.49 540,-274.49"/>
<text text-anchor="middle" x="527" y="-263.29" font-family="Times,serif" font-size="9.00">&#45;3</text>
</g>
<!-- &#45;3&#45;&gt;1646 -->
<g id="edge11" class="edge">
<title>&#45;3&#45;&gt;1646</title>
<path fill="none" stroke="green" stroke-width="0.32" d="M513.64,-259.14C510.82,-258.15 507.84,-257.21 505,-256.49 396.99,-229.32 360.03,-262.79 257,-220.49 254.46,-219.45 251.93,-218.2 249.46,-216.81"/>
<polygon fill="green" stroke="green" stroke-width="0.32" points="251.13,-213.73 240.8,-211.34 247.38,-219.64 251.13,-213.73"/>
</g>
<!-- &#45;3&#45;&gt;1647 -->
<g id="edge12" class="edge">
<title>&#45;3&#45;&gt;1647</title>
<path fill="none" stroke="green" stroke-width="0.26" d="M513.92,-256.51C496.79,-246.06 466.13,-227.36 442.37,-212.86"/>
<polygon fill="green" stroke="green" stroke-width="0.26" points="444,-209.75 433.64,-207.53 440.35,-215.73 444,-209.75"/>
</g>
<!-- &#45;3&#45;&gt;1649 -->
<g id="edge13" class="edge">
<title>&#45;3&#45;&gt;1649</title>
<path fill="none" stroke="green" stroke-width="0.41" d="M513.57,-259.4C510.75,-258.39 507.79,-257.37 505,-256.49 446.19,-237.94 429.77,-239.17 371,-220.49 357.99,-216.36 343.93,-211.34 331.47,-206.69"/>
<polygon fill="green" stroke="green" stroke-width="0.41" points="332.47,-203.33 321.88,-203.08 330,-209.88 332.47,-203.33"/>
</g>
<!-- &#45;3&#45;&gt;1650 -->
<g id="edge14" class="edge">
<title>&#45;3&#45;&gt;1650</title>
<path fill="none" stroke="red" stroke-width="0.24" d="M527.26,-256.39C527.44,-237.78 525.45,-191.37 503,-162.51 491.45,-147.66 448.14,-127.08 416.16,-113.31"/>
<polygon fill="red" stroke="red" stroke-width="0.24" points="417.22,-109.96 406.65,-109.27 414.49,-116.4 417.22,-109.96"/>
</g>
<!-- &#45;3&#45;&gt;1651 -->
<g id="edge15" class="edge">
<title>&#45;3&#45;&gt;1651</title>
<path fill="none" stroke="red" stroke-width="0.17" d="M540.39,-259.26C543.21,-258.26 546.18,-257.28 549,-256.49 627.13,-234.56 676.59,-283.28 728,-220.49 744.33,-200.55 743.64,-182.99 728,-162.51 704.44,-131.64 593.38,-112.04 533.12,-103.49"/>
<polygon fill="red" stroke="red" stroke-width="0.17" points="533.23,-99.97 522.85,-102.07 532.27,-106.9 533.23,-99.97"/>
</g>
<!-- &#45;4 -->
<g id="node4" class="node">
<title>&#45;4</title>
<polygon fill="lightgray" stroke="black" points="584,-274.49 558,-274.49 558,-256.49 584,-256.49 584,-274.49"/>
<text text-anchor="middle" x="571" y="-263.29" font-family="Times,serif" font-size="9.00">&#45;4</text>
</g>
<!-- &#45;4&#45;&gt;1646 -->
<g id="edge16" class="edge">
<title>&#45;4&#45;&gt;1646</title>
<path fill="none" stroke="green" stroke-width="0.45" d="M557.65,-259.09C554.83,-258.11 551.85,-257.18 549,-256.49 421.86,-225.95 378.49,-268.85 257,-220.49 254.29,-219.41 251.59,-218.09 248.97,-216.62"/>
<polygon fill="green" stroke="green" stroke-width="0.45" points="250.68,-213.56 240.36,-211.14 246.92,-219.46 250.68,-213.56"/>
</g>
<!-- &#45;4&#45;&gt;1647 -->
<g id="edge17" class="edge">
<title>&#45;4&#45;&gt;1647</title>
<path fill="none" stroke="green" stroke-width="0.12" d="M557.74,-258.6C533.29,-247.73 480.34,-224.2 444.67,-208.35"/>
<polygon fill="green" stroke="green" stroke-width="0.12" points="445.67,-204.97 435.11,-204.1 442.83,-211.36 445.67,-204.97"/>
</g>
<!-- &#45;4&#45;&gt;1649 -->
<g id="edge18" class="edge">
<title>&#45;4&#45;&gt;1649</title>
<path fill="none" stroke="red" stroke-width="0.29" d="M557.61,-259.26C554.79,-258.26 551.82,-257.28 549,-256.49 471.3,-234.64 448.65,-242.5 371,-220.49 357.87,-216.77 343.77,-211.85 331.33,-207.17"/>
<polygon fill="red" stroke="red" stroke-width="0.29" points="332.34,-203.81 321.75,-203.5 329.84,-210.35 332.34,-203.81"/>
</g>
<!-- &#45;4&#45;&gt;1650 -->
<g id="edge19" class="edge">
<title>&#45;4&#45;&gt;1650</title>
<path fill="none" stroke="red" stroke-width="0.5" d="M569.71,-256.47C566.3,-237.64 555.32,-190.08 528,-162.51 519.63,-154.06 457.2,-128.65 416.14,-112.5"/>
<polygon fill="red" stroke="red" stroke-width="0.5" points="417.3,-109.2 406.71,-108.81 414.75,-115.72 417.3,-109.2"/>
</g>
<!-- &#45;4&#45;&gt;1651 -->
<g id="edge20" class="edge">
<title>&#45;4&#45;&gt;1651</title>
<path fill="none" stroke="red" stroke-width="0.19" d="M584.41,-259.33C587.23,-258.32 590.19,-257.32 593,-256.49 660.8,-236.37 704.01,-275.87 748,-220.49 764.03,-200.31 763.84,-182.84 748,-162.51 721.79,-128.87 597.64,-110.17 533.14,-102.58"/>
<polygon fill="red" stroke="red" stroke-width="0.19" points="533.28,-99.07 522.94,-101.42 532.48,-106.03 533.28,-99.07"/>
</g>
<!-- &#45;5 -->
<g id="node5" class="node">
<title>&#45;5</title>
<polygon fill="lightgray" stroke="black" points="70,-274.49 44,-274.49 44,-256.49 70,-256.49 70,-274.49"/>
<text text-anchor="middle" x="57" y="-263.29" font-family="Times,serif" font-size="9.00">&#45;5</text>
</g>
<!-- &#45;5&#45;&gt;1646 -->
<g id="edge21" class="edge">
<title>&#45;5&#45;&gt;1646</title>
<path fill="none" stroke="green" stroke-width="0.18" d="M70.26,-258.6C94.71,-247.73 147.66,-224.2 183.33,-208.35"/>
<polygon fill="green" stroke="green" stroke-width="0.18" points="185.17,-211.36 192.89,-204.1 182.33,-204.97 185.17,-211.36"/>
</g>
<!-- &#45;5&#45;&gt;1647 -->
<g id="edge22" class="edge">
<title>&#45;5&#45;&gt;1647</title>
<path fill="none" stroke="red" stroke-width="0.39" d="M70.36,-259.13C73.18,-258.14 76.16,-257.2 79,-256.49 189.62,-228.86 222.44,-248.35 333,-220.49 346.34,-217.13 360.59,-212.25 373.09,-207.5"/>
<polygon fill="red" stroke="red" stroke-width="0.39" points="374.66,-210.65 382.7,-203.75 372.12,-204.13 374.66,-210.65"/>
</g>
<!-- &#45;5&#45;&gt;1649 -->
<g id="edge23" class="edge">
<title>&#45;5&#45;&gt;1649</title>
<path fill="none" stroke="green" stroke-width="0.3" d="M70.39,-259.26C73.21,-258.26 76.18,-257.28 79,-256.49 156.7,-234.64 183.21,-253.2 257,-220.49 259.51,-219.38 262.02,-218.08 264.48,-216.66"/>
<polygon fill="green" stroke="green" stroke-width="0.3" points="266.58,-219.46 273.1,-211.1 262.79,-213.58 266.58,-219.46"/>
</g>
<!-- &#45;5&#45;&gt;1650 -->
<g id="edge24" class="edge">
<title>&#45;5&#45;&gt;1650</title>
<path fill="none" stroke="green" stroke-width="0.17" d="M53.5,-256.48C45.89,-237.66 30.25,-190.14 53,-162.51 89.11,-118.65 262.33,-104.42 340.99,-100.18"/>
<polygon fill="green" stroke="green" stroke-width="0.17" points="341.18,-103.67 350.99,-99.66 340.82,-96.68 341.18,-103.67"/>
</g>
<!-- &#45;5&#45;&gt;1651 -->
<g id="edge25" class="edge">
<title>&#45;5&#45;&gt;1651</title>
<path fill="none" stroke="green" stroke-width="0.48" d="M58.04,-256.46C61.07,-236.74 71.78,-185.83 104,-162.51 160.89,-121.33 349.67,-142.76 418,-126.51 431.38,-123.33 445.64,-118.49 458.14,-113.72"/>
<polygon fill="green" stroke="green" stroke-width="0.48" points="459.72,-116.86 467.75,-109.95 457.16,-110.35 459.72,-116.86"/>
</g>
<!-- &#45;6 -->
<g id="node6" class="node">
<title>&#45;6</title>
<polygon fill="lightgray" stroke="black" points="308,-274.49 282,-274.49 282,-256.49 308,-256.49 308,-274.49"/>
<text text-anchor="middle" x="295" y="-263.29" font-family="Times,serif" font-size="9.00">&#45;6</text>
</g>
<!-- &#45;6&#45;&gt;1646 -->
<g id="edge26" class="edge">
<title>&#45;6&#45;&gt;1646</title>
<path fill="none" stroke="green" stroke-width="0.14" d="M286.28,-256.23C276.74,-247.2 260.95,-232.24 247.07,-219.09"/>
<polygon fill="green" stroke="green" stroke-width="0.14" points="249.27,-216.35 239.6,-212.02 244.45,-221.43 249.27,-216.35"/>
</g>
<!-- &#45;6&#45;&gt;1647 -->
<g id="edge27" class="edge">
<title>&#45;6&#45;&gt;1647</title>
<path fill="none" stroke="green" stroke-width="0.5" d="M308.08,-256.23C324.5,-245.87 353.25,-227.71 375.88,-213.42"/>
<polygon fill="green" stroke="green" stroke-width="0.5" points="377.94,-216.26 384.52,-207.96 374.2,-210.34 377.94,-216.26"/>
</g>
<!-- &#45;6&#45;&gt;1649 -->
<g id="edge28" class="edge">
<title>&#45;6&#45;&gt;1649</title>
<path fill="none" stroke="red" stroke-width="0.14" d="M295,-256.23C295,-249.77 295,-240.26 295,-230.56"/>
<polygon fill="red" stroke="red" stroke-width="0.14" points="298.5,-230.5 295,-220.5 291.5,-230.5 298.5,-230.5"/>
</g>
<!-- &#45;6&#45;&gt;1650 -->
<g id="edge29" class="edge">
<title>&#45;6&#45;&gt;1650</title>
<path fill="none" stroke="red" stroke-width="0.32" d="M281.68,-259.58C251.93,-248.56 182.51,-222.69 181,-220.49 166.42,-199.24 165.82,-183.34 181,-162.51 217.57,-112.34 294.12,-100.65 340.89,-98.41"/>
<polygon fill="red" stroke="red" stroke-width="0.32" points="341.1,-101.9 350.96,-98.05 340.85,-94.91 341.1,-101.9"/>
</g>
<!-- &#45;6&#45;&gt;1651 -->
<g id="edge30" class="edge">
<title>&#45;6&#45;&gt;1651</title>
<path fill="none" stroke="green" stroke-width="0.5" d="M308.44,-259.42C311.25,-258.41 314.21,-257.38 317,-256.49 374.1,-238.23 402.59,-260.77 447,-220.49 459.97,-208.73 474.38,-166.84 483.78,-135.4"/>
<polygon fill="green" stroke="green" stroke-width="0.5" points="487.2,-136.2 486.65,-125.62 480.48,-134.23 487.2,-136.2"/>
</g>
<!-- &#45;7 -->
<g id="node7" class="node">
<title>&#45;7</title>
<polygon fill="lightgray" stroke="black" points="26,-274.49 0,-274.49 0,-256.49 26,-256.49 26,-274.49"/>
<text text-anchor="middle" x="13" y="-263.29" font-family="Times,serif" font-size="9.00">&#45;7</text>
</g>
<!-- &#45;7&#45;&gt;1646 -->
<g id="edge31" class="edge">
<title>&#45;7&#45;&gt;1646</title>
<path fill="none" stroke="red" stroke-width="0.2" d="M26.02,-259.72C28.97,-258.65 32.09,-257.53 35,-256.49 85.83,-238.41 144.75,-218.02 181.94,-205.22"/>
<polygon fill="red" stroke="red" stroke-width="0.2" points="183.52,-208.38 191.83,-201.81 181.24,-201.76 183.52,-208.38"/>
</g>
<!-- &#45;7&#45;&gt;1647 -->
<g id="edge32" class="edge">
<title>&#45;7&#45;&gt;1647</title>
<path fill="none" stroke="green" stroke-width="0.48" d="M26.35,-259.09C29.17,-258.1 32.15,-257.17 35,-256.49 164.76,-225.49 203.31,-251.76 333,-220.49 346.37,-217.27 360.63,-212.42 373.13,-207.66"/>
<polygon fill="green" stroke="green" stroke-width="0.48" points="374.71,-210.8 382.74,-203.89 372.15,-204.29 374.71,-210.8"/>
</g>
<!-- &#45;7&#45;&gt;1649 -->
<g id="edge33" class="edge">
<title>&#45;7&#45;&gt;1649</title>
<path fill="none" stroke="green" stroke-width="0.28" d="M26.37,-259.18C29.19,-258.19 32.17,-257.23 35,-256.49 131.73,-231.3 164.85,-259.22 257,-220.49 259.53,-219.43 262.05,-218.16 264.52,-216.77"/>
<polygon fill="green" stroke="green" stroke-width="0.28" points="266.61,-219.59 273.17,-211.27 262.85,-213.68 266.61,-219.59"/>
</g>
<!-- &#45;7&#45;&gt;1650 -->
<g id="edge34" class="edge">
<title>&#45;7&#45;&gt;1650</title>
<path fill="none" stroke="red" stroke-width="0.43" d="M12.31,-256.46C11.15,-237.17 11.12,-187.94 38,-162.51 81.2,-121.64 260.28,-105.78 340.65,-100.64"/>
<polygon fill="red" stroke="red" stroke-width="0.43" points="341.09,-104.12 350.86,-100.01 340.66,-97.13 341.09,-104.12"/>
</g>
<!-- &#45;7&#45;&gt;1651 -->
<g id="edge35" class="edge">
<title>&#45;7&#45;&gt;1651</title>
<path fill="none" stroke="green" stroke-width="0.26" d="M14.34,-256.42C18.11,-236.59 30.77,-185.45 64,-162.51 129.07,-117.59 340.96,-144.31 418,-126.51 431.4,-123.41 445.66,-118.59 458.17,-113.82"/>
<polygon fill="green" stroke="green" stroke-width="0.26" points="459.75,-116.96 467.77,-110.04 457.18,-110.45 459.75,-116.96"/>
</g>
<!-- &#45;8 -->
<g id="node8" class="node">
<title>&#45;8</title>
<polygon fill="lightgray" stroke="black" points="164,-274.49 138,-274.49 138,-256.49 164,-256.49 164,-274.49"/>
<text text-anchor="middle" x="151" y="-263.29" font-family="Times,serif" font-size="9.00">&#45;8</text>
</g>
<!-- &#45;8&#45;&gt;1646 -->
<g id="edge36" class="edge">
<title>&#45;8&#45;&gt;1646</title>
<path fill="none" stroke="green" stroke-width="0.12" d="M158.8,-256.23C167.02,-247.53 180.44,-233.33 192.52,-220.54"/>
<polygon fill="green" stroke="green" stroke-width="0.12" points="195.1,-222.9 199.43,-213.22 190.01,-218.09 195.1,-222.9"/>
</g>
<!-- &#45;8&#45;&gt;1647 -->
<g id="edge37" class="edge">
<title>&#45;8&#45;&gt;1647</title>
<path fill="none" stroke="red" stroke-width="0.25" d="M164.41,-259.31C167.22,-258.31 170.19,-257.32 173,-256.49 242.95,-236 263.09,-241.13 333,-220.49 346.09,-216.63 360.18,-211.67 372.62,-207"/>
<polygon fill="red" stroke="red" stroke-width="0.25" points="374.11,-210.18 382.21,-203.35 371.61,-203.64 374.11,-210.18"/>
</g>
<!-- &#45;8&#45;&gt;1649 -->
<g id="edge38" class="edge">
<title>&#45;8&#45;&gt;1649</title>
<path fill="none" stroke="red" stroke-width="0.26" d="M164.06,-259.53C188.51,-250.16 240.26,-229.95 257,-220.49 259.31,-219.19 261.64,-217.77 263.96,-216.28"/>
<polygon fill="red" stroke="red" stroke-width="0.26" points="266.41,-218.84 272.7,-210.31 262.46,-213.06 266.41,-218.84"/>
</g>
<!-- &#45;8&#45;&gt;1650 -->
<g id="edge39" class="edge">
<title>&#45;8&#45;&gt;1650</title>
<path fill="none" stroke="green" stroke-width="0.37" d="M137.93,-258.33C119.23,-249.21 86.38,-231.96 80,-220.49 67.46,-197.98 63.79,-182.54 80,-162.51 112.41,-122.46 267.2,-106.4 340.86,-100.94"/>
<polygon fill="green" stroke="green" stroke-width="0.37" points="341.39,-104.41 351.12,-100.21 340.9,-97.43 341.39,-104.41"/>
</g>
<!-- &#45;8&#45;&gt;1651 -->
<g id="edge40" class="edge">
<title>&#45;8&#45;&gt;1651</title>
<path fill="none" stroke="red" stroke-width="0.5" d="M148.15,-256.35C142.04,-237.23 130.08,-189.12 154,-162.51 193.59,-118.48 360.55,-140.83 418,-126.51 431.35,-123.18 445.6,-118.31 458.11,-113.56"/>
<polygon fill="red" stroke="red" stroke-width="0.5" points="459.67,-116.71 467.71,-109.81 457.13,-110.18 459.67,-116.71"/>
</g>
<!-- &#45;9 -->
<g id="node9" class="node">
<title>&#45;9</title>
<polygon fill="lightgray" stroke="black" points="496,-274.49 470,-274.49 470,-256.49 496,-256.49 496,-274.49"/>
<text text-anchor="middle" x="483" y="-263.29" font-family="Times,serif" font-size="9.00">&#45;9</text>
</g>
<!-- &#45;9&#45;&gt;1646 -->
<g id="edge41" class="edge">
<title>&#45;9&#45;&gt;1646</title>
<path fill="none" stroke="green" stroke-width="0.22" d="M469.62,-259.21C466.8,-258.21 463.83,-257.25 461,-256.49 372.07,-232.67 341.63,-256.75 257,-220.49 254.47,-219.41 251.96,-218.13 249.49,-216.73"/>
<polygon fill="green" stroke="green" stroke-width="0.22" points="251.17,-213.64 240.86,-211.21 247.4,-219.54 251.17,-213.64"/>
</g>
<!-- &#45;9&#45;&gt;1647 -->
<g id="edge42" class="edge">
<title>&#45;9&#45;&gt;1647</title>
<path fill="none" stroke="green" stroke-width="0.5" d="M474.51,-256.23C465.29,-247.26 450.06,-232.45 436.61,-219.36"/>
<polygon fill="green" stroke="green" stroke-width="0.5" points="438.98,-216.78 429.37,-212.32 434.09,-221.8 438.98,-216.78"/>
</g>
<!-- &#45;9&#45;&gt;1649 -->
<g id="edge43" class="edge">
<title>&#45;9&#45;&gt;1649</title>
<path fill="none" stroke="red" stroke-width="0.1" d="M469.78,-259.43C441.32,-248.53 373.42,-222.53 331.12,-206.33"/>
<polygon fill="red" stroke="red" stroke-width="0.1" points="332.32,-203.05 321.73,-202.74 329.82,-209.58 332.32,-203.05"/>
</g>
<!-- &#45;9&#45;&gt;1650 -->
<g id="edge44" class="edge">
<title>&#45;9&#45;&gt;1650</title>
<path fill="none" stroke="green" stroke-width="0.25" d="M485.6,-256.43C490.95,-238.28 501.28,-193.42 484,-162.51 469.82,-137.14 441,-120.59 417.28,-110.69"/>
<polygon fill="green" stroke="green" stroke-width="0.25" points="418.41,-107.37 407.82,-106.97 415.85,-113.88 418.41,-107.37"/>
</g>
<!-- &#45;9&#45;&gt;1651 -->
<g id="edge45" class="edge">
<title>&#45;9&#45;&gt;1651</title>
<path fill="none" stroke="green" stroke-width="0.21" d="M496.38,-259.21C499.2,-258.22 502.17,-257.25 505,-256.49 549.25,-244.62 678.57,-255.6 708,-220.49 724.56,-200.74 723.39,-183.18 708,-162.51 687.01,-134.33 588.5,-113.98 532.74,-104.5"/>
<polygon fill="green" stroke="green" stroke-width="0.21" points="533.29,-101.04 522.85,-102.85 532.14,-107.94 533.29,-101.04"/>
</g>
<!-- &#45;10 -->
<g id="node10" class="node">
<title>&#45;10</title>
<polygon fill="lightgray" stroke="black" points="264,-274.49 232,-274.49 232,-256.49 264,-256.49 264,-274.49"/>
<text text-anchor="middle" x="248" y="-263.29" font-family="Times,serif" font-size="9.00">&#45;10</text>
</g>
<!-- &#45;10&#45;&gt;1646 -->
<g id="edge46" class="edge">
<title>&#45;10&#45;&gt;1646</title>
<path fill="none" stroke="red" stroke-width="0.43" d="M244.67,-256.23C241.85,-249.22 237.59,-238.64 233.35,-228.11"/>
<polygon fill="red" stroke="red" stroke-width="0.43" points="236.48,-226.52 229.5,-218.56 229.99,-229.14 236.48,-226.52"/>
</g>
<!-- &#45;10&#45;&gt;1647 -->
<g id="edge47" class="edge">
<title>&#45;10&#45;&gt;1647</title>
<path fill="none" stroke="green" stroke-width="0.26" d="M264.03,-257.33C289.4,-245.98 339.43,-223.61 373.55,-208.35"/>
<polygon fill="green" stroke="green" stroke-width="0.26" points="375.02,-211.53 382.72,-204.25 372.16,-205.14 375.02,-211.53"/>
</g>
<!-- &#45;10&#45;&gt;1649 -->
<g id="edge48" class="edge">
<title>&#45;10&#45;&gt;1649</title>
<path fill="none" stroke="green" stroke-width="0.17" d="M253.39,-256.23C258.43,-248.52 266.27,-236.5 273.8,-224.97"/>
<polygon fill="green" stroke="green" stroke-width="0.17" points="276.91,-226.61 279.45,-216.33 271.05,-222.79 276.91,-226.61"/>
</g>
<!-- &#45;10&#45;&gt;1650 -->
<g id="edge49" class="edge">
<title>&#45;10&#45;&gt;1650</title>
<path fill="none" stroke="red" stroke-width="0.26" d="M231.86,-259.33C228.91,-258.38 225.87,-257.41 223,-256.49 172.79,-240.46 141.1,-263.05 110,-220.49 94.79,-199.69 94.02,-182.72 110,-162.51 138.36,-126.64 273.14,-108.78 340.91,-101.94"/>
<polygon fill="red" stroke="red" stroke-width="0.26" points="341.57,-105.4 351.18,-100.94 340.89,-98.43 341.57,-105.4"/>
</g>
<!-- &#45;10&#45;&gt;1651 -->
<g id="edge50" class="edge">
<title>&#45;10&#45;&gt;1651</title>
<path fill="none" stroke="red" stroke-width="0.33" d="M231.86,-259.08C215.69,-252.68 191.71,-240.33 181,-220.49 168.76,-197.81 164.2,-182.05 181,-162.51 215.72,-122.11 366.41,-139.78 418,-126.51 431.32,-123.08 445.56,-118.19 458.08,-113.44"/>
<polygon fill="red" stroke="red" stroke-width="0.33" points="459.64,-116.59 467.69,-109.7 457.1,-110.07 459.64,-116.59"/>
</g>
<!-- &#45;11 -->
<g id="node11" class="node">
<title>&#45;11</title>
<polygon fill="lightgray" stroke="black" points="120,-274.49 88,-274.49 88,-256.49 120,-256.49 120,-274.49"/>
<text text-anchor="middle" x="104" y="-263.29" font-family="Times,serif" font-size="9.00">&#45;11</text>
</g>
<!-- &#45;11&#45;&gt;1646 -->
<g id="edge51" class="edge">
<title>&#45;11&#45;&gt;1646</title>
<path fill="none" stroke="red" stroke-width="0.12" d="M117.19,-256.23C133.86,-245.8 163.13,-227.48 186.02,-213.15"/>
<polygon fill="red" stroke="red" stroke-width="0.12" points="188.13,-215.95 194.75,-207.68 184.42,-210.02 188.13,-215.95"/>
</g>
<!-- &#45;11&#45;&gt;1647 -->
<g id="edge52" class="edge">
<title>&#45;11&#45;&gt;1647</title>
<path fill="none" stroke="red" stroke-width="0.22" d="M120.05,-259.01C123,-258.09 126.08,-257.21 129,-256.49 218.38,-234.41 244.12,-244.5 333,-220.49 346.17,-216.93 360.28,-212.05 372.72,-207.36"/>
<polygon fill="red" stroke="red" stroke-width="0.22" points="374.23,-210.53 382.29,-203.66 371.7,-204 374.23,-210.53"/>
</g>
<!-- &#45;11&#45;&gt;1649 -->
<g id="edge53" class="edge">
<title>&#45;11&#45;&gt;1649</title>
<path fill="none" stroke="red" stroke-width="0.43" d="M120.11,-259.24C123.06,-258.31 126.12,-257.36 129,-256.49 185.6,-239.48 203.9,-246.44 257,-220.49 259.47,-219.29 261.94,-217.92 264.38,-216.44"/>
<polygon fill="red" stroke="red" stroke-width="0.43" points="266.53,-219.22 272.95,-210.79 262.68,-213.37 266.53,-219.22"/>
</g>
<!-- &#45;11&#45;&gt;1650 -->
<g id="edge54" class="edge">
<title>&#45;11&#45;&gt;1650</title>
<path fill="none" stroke="green" stroke-width="0.43" d="M93.65,-256.35C84.4,-248.36 71.49,-235.25 66,-220.49 57.01,-196.34 49.7,-182.47 66,-162.51 100.33,-120.48 264.67,-105.35 340.94,-100.53"/>
<polygon fill="green" stroke="green" stroke-width="0.43" points="341.33,-104.01 351.1,-99.91 340.91,-97.02 341.33,-104.01"/>
</g>
<!-- &#45;11&#45;&gt;1651 -->
<g id="edge55" class="edge">
<title>&#45;11&#45;&gt;1651</title>
<path fill="none" stroke="green" stroke-width="0.27" d="M103.83,-256.3C103.92,-236.65 107.11,-186.69 136,-162.51 184.45,-121.96 356.63,-141.52 418,-126.51 431.36,-123.24 445.61,-118.38 458.12,-113.62"/>
<polygon fill="green" stroke="green" stroke-width="0.27" points="459.69,-116.77 467.73,-109.87 457.14,-110.25 459.69,-116.77"/>
</g>
<!-- &#45;12 -->
<g id="node12" class="node">
<title>&#45;12</title>
<polygon fill="lightgray" stroke="black" points="214,-274.49 182,-274.49 182,-256.49 214,-256.49 214,-274.49"/>
<text text-anchor="middle" x="198" y="-263.29" font-family="Times,serif" font-size="9.00">&#45;12</text>
</g>
<!-- &#45;12&#45;&gt;1646 -->
<g id="edge56" class="edge">
<title>&#45;12&#45;&gt;1646</title>
<path fill="none" stroke="green" stroke-width="0.48" d="M200.41,-256.23C202.38,-249.46 205.33,-239.36 208.3,-229.19"/>
<polygon fill="green" stroke="green" stroke-width="0.48" points="211.68,-230.1 211.12,-219.52 204.96,-228.14 211.68,-230.1"/>
</g>
<!-- &#45;12&#45;&gt;1647 -->
<g id="edge57" class="edge">
<title>&#45;12&#45;&gt;1647</title>
<path fill="none" stroke="green" stroke-width="0.17" d="M214.42,-259.23C245.21,-249.34 310.53,-228.29 333,-220.49 345.89,-216.02 359.93,-210.91 372.4,-206.3"/>
<polygon fill="green" stroke="green" stroke-width="0.17" points="373.85,-209.49 382.01,-202.73 371.41,-202.93 373.85,-209.49"/>
</g>
<!-- &#45;12&#45;&gt;1649 -->
<g id="edge58" class="edge">
<title>&#45;12&#45;&gt;1649</title>
<path fill="none" stroke="green" stroke-width="0.33" d="M209.13,-256.23C222.33,-246.43 244.92,-229.67 263.61,-215.8"/>
<polygon fill="green" stroke="green" stroke-width="0.33" points="265.93,-218.43 271.88,-209.66 261.76,-212.81 265.93,-218.43"/>
</g>
<!-- &#45;12&#45;&gt;1650 -->
<g id="edge59" class="edge">
<title>&#45;12&#45;&gt;1650</title>
<path fill="none" stroke="green" stroke-width="0.49" d="M181.57,-258.6C153.79,-248.49 100.06,-228.16 95,-220.49 80.8,-198.99 78.9,-182.63 95,-162.51 125.37,-124.57 270.01,-107.57 340.8,-101.42"/>
<polygon fill="green" stroke="green" stroke-width="0.49" points="341.42,-104.88 351.09,-100.56 340.83,-97.91 341.42,-104.88"/>
</g>
<!-- &#45;12&#45;&gt;1651 -->
<g id="edge60" class="edge">
<title>&#45;12&#45;&gt;1651</title>
<path fill="none" stroke="red" stroke-width="0.49" d="M189.81,-256.27C182.22,-248.03 171.46,-234.57 167,-220.49 159.22,-195.93 150.12,-181.98 167,-162.51 203.91,-119.93 363.37,-140.32 418,-126.51 431.34,-123.14 445.58,-118.25 458.09,-113.51"/>
<polygon fill="red" stroke="red" stroke-width="0.49" points="459.66,-116.65 467.7,-109.76 457.11,-110.13 459.66,-116.65"/>
</g>
<!-- &#45;13 -->
<g id="node13" class="node">
<title>&#45;13</title>
<polygon fill="lightgray" stroke="black" points="358,-274.49 326,-274.49 326,-256.49 358,-256.49 358,-274.49"/>
<text text-anchor="middle" x="342" y="-263.29" font-family="Times,serif" font-size="9.00">&#45;13</text>
</g>
<!-- &#45;13&#45;&gt;1646 -->
<g id="edge61" class="edge">
<title>&#45;13&#45;&gt;1646</title>
<path fill="none" stroke="green" stroke-width="0.22" d="M325.92,-257.1C308.52,-248.89 280.14,-234.88 257,-220.49 254.59,-218.99 252.13,-217.38 249.68,-215.73"/>
<polygon fill="green" stroke="green" stroke-width="0.22" points="251.7,-212.86 241.5,-209.97 247.67,-218.59 251.7,-212.86"/>
</g>
<!-- &#45;13&#45;&gt;1647 -->
<g id="edge62" class="edge">
<title>&#45;13&#45;&gt;1647</title>
<path fill="none" stroke="red" stroke-width="0.13" d="M349.69,-256.23C357.71,-247.61 370.76,-233.59 382.57,-220.9"/>
<polygon fill="red" stroke="red" stroke-width="0.13" points="385.46,-222.93 389.71,-213.22 380.34,-218.16 385.46,-222.93"/>
</g>
<!-- &#45;13&#45;&gt;1649 -->
<g id="edge63" class="edge">
<title>&#45;13&#45;&gt;1649</title>
<path fill="none" stroke="red" stroke-width="0.21" d="M336.61,-256.23C331.57,-248.52 323.73,-236.5 316.2,-224.97"/>
<polygon fill="red" stroke="red" stroke-width="0.21" points="318.95,-222.79 310.55,-216.33 313.09,-226.61 318.95,-222.79"/>
</g>
<!-- &#45;13&#45;&gt;1650 -->
<g id="edge64" class="edge">
<title>&#45;13&#45;&gt;1650</title>
<path fill="none" stroke="red" stroke-width="0.15" d="M343.83,-256.49C348.74,-235.04 362.43,-175.25 371.49,-135.69"/>
<polygon fill="red" stroke="red" stroke-width="0.15" points="374.92,-136.38 373.74,-125.86 368.1,-134.82 374.92,-136.38"/>
</g>
<!-- &#45;13&#45;&gt;1651 -->
<g id="edge65" class="edge">
<title>&#45;13&#45;&gt;1651</title>
<path fill="none" stroke="red" stroke-width="0.5" d="M358.14,-259.33C361.09,-258.38 364.13,-257.41 367,-256.49 417.21,-240.46 446.52,-261.2 480,-220.49 499.07,-197.31 501.39,-162.73 499.63,-136.3"/>
<polygon fill="red" stroke="red" stroke-width="0.5" points="503.11,-135.91 498.74,-126.25 496.13,-136.52 503.11,-135.91"/>
</g>
<!-- &#45;14 -->
<g id="node14" class="node">
<title>&#45;14</title>
<polygon fill="lightgray" stroke="black" points="452,-274.49 420,-274.49 420,-256.49 452,-256.49 452,-274.49"/>
<text text-anchor="middle" x="436" y="-263.29" font-family="Times,serif" font-size="9.00">&#45;14</text>
</g>
<!-- &#45;14&#45;&gt;1646 -->
<g id="edge66" class="edge">
<title>&#45;14&#45;&gt;1646</title>
<path fill="none" stroke="red" stroke-width="0.32" d="M419.92,-259.14C416.96,-258.21 413.9,-257.29 411,-256.49 343.25,-237.77 320.82,-249.94 257,-220.49 254.51,-219.34 252.01,-218.01 249.56,-216.57"/>
<polygon fill="red" stroke="red" stroke-width="0.32" points="251.25,-213.49 240.96,-210.98 247.44,-219.36 251.25,-213.49"/>
</g>
<!-- &#45;14&#45;&gt;1647 -->
<g id="edge67" class="edge">
<title>&#45;14&#45;&gt;1647</title>
<path fill="none" stroke="green" stroke-width="0.13" d="M432.9,-256.23C430.29,-249.28 426.37,-238.82 422.45,-228.37"/>
<polygon fill="green" stroke="green" stroke-width="0.13" points="425.68,-227.01 418.89,-218.88 419.13,-229.47 425.68,-227.01"/>
</g>
<!-- &#45;14&#45;&gt;1649 -->
<g id="edge68" class="edge">
<title>&#45;14&#45;&gt;1649</title>
<path fill="none" stroke="green" stroke-width="0.15" d="M420.1,-256.37C398.26,-245.23 358.42,-224.88 329.56,-210.14"/>
<polygon fill="green" stroke="green" stroke-width="0.15" points="331.1,-207 320.61,-205.57 327.92,-213.24 331.1,-207"/>
</g>
<!-- &#45;14&#45;&gt;1650 -->
<g id="edge69" class="edge">
<title>&#45;14&#45;&gt;1650</title>
<path fill="none" stroke="red" stroke-width="0.27" d="M443.93,-256.22C451.28,-247.94 461.69,-234.45 466,-220.49 473.6,-195.87 477.57,-185.54 466,-162.51 455.37,-141.36 434.08,-125.43 415.34,-114.75"/>
<polygon fill="red" stroke="red" stroke-width="0.27" points="416.87,-111.6 406.4,-109.93 413.54,-117.76 416.87,-111.6"/>
</g>
<!-- &#45;14&#45;&gt;1651 -->
<g id="edge70" class="edge">
<title>&#45;14&#45;&gt;1651</title>
<path fill="none" stroke="red" stroke-width="0.19" d="M452.07,-259.08C455.02,-258.17 458.09,-257.26 461,-256.49 536.08,-236.63 583.06,-280.8 632,-220.49 648.24,-200.48 645.87,-184.23 632,-162.51 610.33,-128.57 565.5,-112.36 532.81,-104.8"/>
<polygon fill="red" stroke="red" stroke-width="0.19" points="533.17,-101.29 522.66,-102.63 531.71,-108.14 533.17,-101.29"/>
</g>
<!-- &#45;15 -->
<g id="node15" class="node">
<title>&#45;15</title>
<polygon fill="lightgray" stroke="black" points="634,-274.49 602,-274.49 602,-256.49 634,-256.49 634,-274.49"/>
<text text-anchor="middle" x="618" y="-263.29" font-family="Times,serif" font-size="9.00">&#45;15</text>
</g>
<!-- &#45;15&#45;&gt;1646 -->
<g id="edge71" class="edge">
<title>&#45;15&#45;&gt;1646</title>
<path fill="none" stroke="green" stroke-width="0.2" d="M601.99,-258.84C599.03,-257.95 595.94,-257.11 593,-256.49 446.06,-225.45 396.98,-274.92 257,-220.49 254.28,-219.43 251.58,-218.13 248.95,-216.67"/>
<polygon fill="green" stroke="green" stroke-width="0.2" points="250.65,-213.6 240.33,-211.21 246.91,-219.52 250.65,-213.6"/>
</g>
<!-- &#45;15&#45;&gt;1647 -->
<g id="edge72" class="edge">
<title>&#45;15&#45;&gt;1647</title>
<path fill="none" stroke="green" stroke-width="0.5" d="M601.95,-258.96C568.82,-247.55 492.13,-221.14 446.04,-205.26"/>
<polygon fill="green" stroke="green" stroke-width="0.5" points="447.01,-201.89 436.41,-201.94 444.73,-208.51 447.01,-201.89"/>
</g>
<!-- &#45;15&#45;&gt;1649 -->
<g id="edge73" class="edge">
<title>&#45;15&#45;&gt;1649</title>
<path fill="none" stroke="red" stroke-width="0.5" d="M601.96,-258.97C599,-258.06 595.92,-257.19 593,-256.49 495.8,-233.2 467.68,-245.88 371,-220.49 357.8,-217.03 343.69,-212.16 331.25,-207.46"/>
<polygon fill="red" stroke="red" stroke-width="0.5" points="332.27,-204.11 321.68,-203.76 329.74,-210.63 332.27,-204.11"/>
</g>
<!-- &#45;15&#45;&gt;1650 -->
<g id="edge74" class="edge">
<title>&#45;15&#45;&gt;1650</title>
<path fill="none" stroke="red" stroke-width="0.1" d="M615.39,-256.32C608.87,-237.14 590.03,-188.9 558,-162.51 520.9,-131.94 501.22,-142.82 456,-126.51 443.16,-121.88 429.14,-116.74 416.67,-112.14"/>
<polygon fill="red" stroke="red" stroke-width="0.1" points="417.64,-108.77 407.05,-108.58 415.22,-115.33 417.64,-108.77"/>
</g>
<!-- &#45;15&#45;&gt;1651 -->
<g id="edge75" class="edge">
<title>&#45;15&#45;&gt;1651</title>
<path fill="none" stroke="red" stroke-width="0.38" d="M634.12,-259.26C637.07,-258.32 640.12,-257.37 643,-256.49 698.32,-239.68 733.23,-266.68 768,-220.49 783.5,-199.9 784.02,-182.7 768,-162.51 739.12,-126.11 601.86,-108.47 533.24,-101.81"/>
<polygon fill="red" stroke="red" stroke-width="0.38" points="533.52,-98.32 523.24,-100.87 532.87,-105.29 533.52,-98.32"/>
</g>
<!-- 0 -->
<g id="node16" class="node">
<title>0</title>
<ellipse fill="lightblue" stroke="black" cx="247" cy="-16.26" rx="16.03" ry="16.03"/>
<text text-anchor="middle" x="247" y="-14.06" font-family="Times,serif" font-size="9.00">0</text>
</g>
<!-- 1 -->
<g id="node17" class="node">
<title>1</title>
<ellipse fill="lightblue" stroke="black" cx="380" cy="-16.26" rx="16.03" ry="16.03"/>
<text text-anchor="middle" x="380" y="-14.06" font-family="Times,serif" font-size="9.00">1</text>
</g>
<!-- 1646&#45;&gt;0 -->
<g id="edge76" class="edge">
<title>1646&#45;&gt;0</title>
<path fill="none" stroke="red" stroke-width="0.13" d="M205.78,-165.35C194.38,-140.06 181.67,-100.38 195,-68.53 201.16,-53.8 213.84,-41.16 225.14,-32.12"/>
<polygon fill="red" stroke="red" stroke-width="0.13" points="227.48,-34.73 233.37,-25.93 223.28,-29.14 227.48,-34.73"/>
</g>
<!-- 1646&#45;&gt;1 -->
<g id="edge77" class="edge">
<title>1646&#45;&gt;1</title>
<path fill="none" stroke="green" stroke-width="0.12" d="M234.66,-166.56C252.1,-140.83 281.94,-99.48 313,-68.53 326.87,-54.7 344.53,-41.34 358.24,-31.72"/>
<polygon fill="green" stroke="green" stroke-width="0.12" points="360.34,-34.52 366.59,-25.97 356.37,-28.75 360.34,-34.52"/>
</g>
<!-- 1647&#45;&gt;0 -->
<g id="edge78" class="edge">
<title>1647&#45;&gt;0</title>
<path fill="none" stroke="green" stroke-width="0.24" d="M387.99,-171.38C374.54,-158.9 356.88,-142.1 342,-126.51 313.23,-96.36 281.87,-59.43 263.35,-37.16"/>
<polygon fill="green" stroke="green" stroke-width="0.24" points="265.99,-34.85 256.91,-29.38 260.59,-39.32 265.99,-34.85"/>
</g>
<!-- 1647&#45;&gt;1 -->
<g id="edge79" class="edge">
<title>1647&#45;&gt;1</title>
<path fill="none" stroke="red" stroke-width="0.13" d="M416.92,-163.12C422.84,-137.9 428.32,-99.78 418,-68.53 414.01,-56.45 405.95,-44.89 398.28,-35.81"/>
<polygon fill="red" stroke="red" stroke-width="0.13" points="400.76,-33.33 391.47,-28.24 395.55,-38.01 400.76,-33.33"/>
</g>
<!-- 1647&#45;&gt;1650 -->
<g id="edge87" class="edge">
<title>1647&#45;&gt;1650</title>
<path fill="none" stroke="green" stroke-width="0.11" d="M400.46,-163.4C397.65,-154.51 394.49,-144.48 391.51,-135.02"/>
<polygon fill="green" stroke="green" stroke-width="0.11" points="394.83,-133.91 388.48,-125.42 388.15,-136.01 394.83,-133.91"/>
</g>
<!-- 1647&#45;&gt;1651 -->
<g id="edge86" class="edge">
<title>1647&#45;&gt;1651</title>
<path fill="none" stroke="green" stroke-width="0.18" d="M428.29,-169.63C440.03,-156.93 455.17,-140.54 467.96,-126.7"/>
<polygon fill="green" stroke="green" stroke-width="0.18" points="470.57,-129.03 474.79,-119.31 465.43,-124.28 470.57,-129.03"/>
</g>
<!-- 1649&#45;&gt;0 -->
<g id="edge80" class="edge">
<title>1649&#45;&gt;0</title>
<path fill="none" stroke="green" stroke-width="0.45" d="M271.79,-174.1C257.65,-162.6 240.84,-145.87 233,-126.51 221.73,-98.69 229.55,-63.92 237.28,-41.17"/>
<polygon fill="green" stroke="green" stroke-width="0.45" points="240.62,-42.23 240.75,-31.64 234.04,-39.83 240.62,-42.23"/>
</g>
<!-- 1649&#45;&gt;1 -->
<g id="edge81" class="edge">
<title>1649&#45;&gt;1</title>
<path fill="none" stroke="red" stroke-width="0.46" d="M303.1,-163.41C311.22,-138.05 324.94,-99.55 342,-68.53 347.99,-57.64 356.02,-46.45 363.16,-37.32"/>
<polygon fill="red" stroke="red" stroke-width="0.46" points="366.1,-39.25 369.64,-29.27 360.64,-34.87 366.1,-39.25"/>
</g>
<!-- 1650&#45;&gt;0 -->
<g id="edge82" class="edge">
<title>1650&#45;&gt;0</title>
<path fill="none" stroke="green" stroke-width="0.34" d="M355.3,-81.8C330.62,-67.1 293.05,-44.7 269.27,-30.53"/>
<polygon fill="green" stroke="green" stroke-width="0.34" points="270.98,-27.48 260.59,-25.36 267.39,-33.49 270.98,-27.48"/>
</g>
<!-- 1650&#45;&gt;1 -->
<g id="edge83" class="edge">
<title>1650&#45;&gt;1</title>
<path fill="none" stroke="green" stroke-width="0.16" d="M380,-68.35C380,-60.06 380,-51.04 380,-42.91"/>
<polygon fill="green" stroke="green" stroke-width="0.16" points="383.5,-42.89 380,-32.89 376.5,-42.89 383.5,-42.89"/>
</g>
<!-- 1651&#45;&gt;0 -->
<g id="edge84" class="edge">
<title>1651&#45;&gt;0</title>
<path fill="none" stroke="red" stroke-width="0.47" d="M467.06,-86.14C452.59,-80.68 434.41,-74 418,-68.53 366.8,-51.44 306.13,-33.88 272.56,-24.39"/>
<polygon fill="red" stroke="red" stroke-width="0.47" points="273.24,-20.95 262.66,-21.61 271.34,-27.69 273.24,-20.95"/>
</g>
<!-- 1651&#45;&gt;1 -->
<g id="edge85" class="edge">
<title>1651&#45;&gt;1</title>
<path fill="none" stroke="red" stroke-width="0.3" d="M470.66,-80.29C450.32,-66.15 421.08,-45.82 401.35,-32.11"/>
<polygon fill="red" stroke="red" stroke-width="0.3" points="403.23,-29.15 393.03,-26.32 399.24,-34.9 403.23,-29.15"/>
</g>
</g>
</svg>
