<?xml version="1.0" encoding="UTF-8" standalone="no"?>
<!DOCTYPE svg PUBLIC "-//W3C//DTD SVG 1.1//EN"
 "http://www.w3.org/Graphics/SVG/1.1/DTD/svg11.dtd">
<!-- Generated by graphviz version 5.0.0 (20220707.1540)
 -->
<!-- Pages: 1 -->
<svg width="651pt" height="170pt"
 viewBox="0.00 0.00 651.00 170.12" xmlns="http://www.w3.org/2000/svg" xmlns:xlink="http://www.w3.org/1999/xlink">
<g id="graph0" class="graph" transform="scale(1 1) rotate(0) translate(4 166.12)">
<polygon fill="white" stroke="transparent" points="-4,4 -4,-166.12 647,-166.12 647,4 -4,4"/>
<!-- &#45;1 -->
<g id="node1" class="node">
<title>&#45;1</title>
<polygon fill="lightgray" stroke="black" points="433,-162.12 409,-162.12 409,-144.12 433,-144.12 433,-162.12"/>
<text text-anchor="middle" x="421" y="-150.92" font-family="Times New Roman,serif" font-size="9.00">&#45;1</text>
</g>
<!-- 746 -->
<g id="node18" class="node">
<title>746</title>
<ellipse fill="white" stroke="black" cx="178" cy="-86.91" rx="21.43" ry="21.43"/>
<text text-anchor="middle" x="178" y="-84.71" font-family="Times New Roman,serif" font-size="9.00">746</text>
</g>
<!-- &#45;1&#45;&gt;746 -->
<g id="edge1" class="edge">
<title>&#45;1&#45;&gt;746</title>
<path fill="none" stroke="green" stroke-width="0.34" d="M408.69,-147.01C405.86,-145.96 402.85,-144.93 400,-144.12 316.43,-120.58 288.33,-141.06 208,-108.12 206.4,-107.47 204.8,-106.72 203.22,-105.91"/>
<polygon fill="green" stroke="green" stroke-width="0.34" points="204.84,-102.8 194.45,-100.73 201.28,-108.83 204.84,-102.8"/>
</g>
<!-- 747 -->
<g id="node19" class="node">
<title>747</title>
<ellipse fill="white" stroke="black" cx="238" cy="-86.91" rx="21.43" ry="21.43"/>
<text text-anchor="middle" x="238" y="-84.71" font-family="Times New Roman,serif" font-size="9.00">747</text>
</g>
<!-- &#45;1&#45;&gt;747 -->
<g id="edge2" class="edge">
<title>&#45;1&#45;&gt;747</title>
<path fill="none" stroke="green" stroke-width="0.13" d="M408.63,-147.18C405.82,-146.12 402.82,-145.04 400,-144.12 342.18,-125.28 323.28,-133.45 268,-108.12 266.43,-107.41 264.85,-106.61 263.28,-105.76"/>
<polygon fill="green" stroke="green" stroke-width="0.13" points="264.93,-102.66 254.57,-100.47 261.3,-108.65 264.93,-102.66"/>
</g>
<!-- 748 -->
<g id="node20" class="node">
<title>748</title>
<ellipse fill="white" stroke="black" cx="298" cy="-86.91" rx="21.43" ry="21.43"/>
<text text-anchor="middle" x="298" y="-84.71" font-family="Times New Roman,serif" font-size="9.00">748</text>
</g>
<!-- &#45;1&#45;&gt;748 -->
<g id="edge3" class="edge">
<title>&#45;1&#45;&gt;748</title>
<path fill="none" stroke="green" stroke-width="0.31" d="M408.97,-147.13C390.95,-139.49 356.1,-124.12 328,-108.12 326.5,-107.27 324.97,-106.37 323.45,-105.43"/>
<polygon fill="green" stroke="green" stroke-width="0.31" points="325.16,-102.37 314.85,-99.91 321.37,-108.26 325.16,-102.37"/>
</g>
<!-- 749 -->
<g id="node21" class="node">
<title>749</title>
<ellipse fill="white" stroke="black" cx="358" cy="-86.91" rx="21.43" ry="21.43"/>
<text text-anchor="middle" x="358" y="-84.71" font-family="Times New Roman,serif" font-size="9.00">749</text>
</g>
<!-- &#45;1&#45;&gt;749 -->
<g id="edge4" class="edge">
<title>&#45;1&#45;&gt;749</title>
<path fill="none" stroke="green" stroke-width="0.11" d="M413.02,-143.99C404.66,-135.47 391.15,-121.7 379.61,-109.94"/>
<polygon fill="green" stroke="green" stroke-width="0.11" points="381.89,-107.26 372.39,-102.58 376.89,-112.16 381.89,-107.26"/>
</g>
<!-- 750 -->
<g id="node22" class="node">
<title>750</title>
<ellipse fill="white" stroke="black" cx="418" cy="-86.91" rx="21.43" ry="21.43"/>
<text text-anchor="middle" x="418" y="-84.71" font-family="Times New Roman,serif" font-size="9.00">750</text>
</g>
<!-- &#45;1&#45;&gt;750 -->
<g id="edge5" class="edge">
<title>&#45;1&#45;&gt;750</title>
<path fill="none" stroke="green" stroke-width="0.37" d="M420.62,-143.99C420.31,-137.45 419.86,-127.82 419.42,-118.38"/>
<polygon fill="green" stroke="green" stroke-width="0.37" points="422.92,-118.19 418.96,-108.37 415.93,-118.52 422.92,-118.19"/>
</g>
<!-- 751 -->
<g id="node23" class="node">
<title>751</title>
<ellipse fill="white" stroke="black" cx="478" cy="-86.91" rx="21.43" ry="21.43"/>
<text text-anchor="middle" x="478" y="-84.71" font-family="Times New Roman,serif" font-size="9.00">751</text>
</g>
<!-- &#45;1&#45;&gt;751 -->
<g id="edge6" class="edge">
<title>&#45;1&#45;&gt;751</title>
<path fill="none" stroke="green" stroke-width="0.27" d="M428.22,-143.99C435.57,-135.71 447.31,-122.49 457.54,-110.96"/>
<polygon fill="green" stroke="green" stroke-width="0.27" points="460.29,-113.13 464.31,-103.33 455.06,-108.49 460.29,-113.13"/>
</g>
<!-- &#45;2 -->
<g id="node2" class="node">
<title>&#45;2</title>
<polygon fill="lightgray" stroke="black" points="475,-162.12 451,-162.12 451,-144.12 475,-144.12 475,-162.12"/>
<text text-anchor="middle" x="463" y="-150.92" font-family="Times New Roman,serif" font-size="9.00">&#45;2</text>
</g>
<!-- &#45;2&#45;&gt;746 -->
<g id="edge7" class="edge">
<title>&#45;2&#45;&gt;746</title>
<path fill="none" stroke="green" stroke-width="0.2" d="M450.71,-146.94C447.88,-145.9 444.87,-144.88 442,-144.12 340.27,-117.25 306,-146.45 208,-108.12 206.39,-107.5 204.78,-106.77 203.19,-105.97"/>
<polygon fill="green" stroke="green" stroke-width="0.2" points="204.81,-102.86 194.41,-100.84 201.28,-108.91 204.81,-102.86"/>
</g>
<!-- &#45;2&#45;&gt;747 -->
<g id="edge8" class="edge">
<title>&#45;2&#45;&gt;747</title>
<path fill="none" stroke="green" stroke-width="0.14" d="M450.68,-147.05C447.85,-146 444.85,-144.96 442,-144.12 366.19,-122 340.78,-138.77 268,-108.12 266.41,-107.45 264.81,-106.7 263.23,-105.87"/>
<polygon fill="green" stroke="green" stroke-width="0.14" points="264.86,-102.77 254.48,-100.67 261.29,-108.79 264.86,-102.77"/>
</g>
<!-- &#45;2&#45;&gt;748 -->
<g id="edge9" class="edge">
<title>&#45;2&#45;&gt;748</title>
<path fill="none" stroke="green" stroke-width="0.36" d="M450.61,-147.27C447.79,-146.2 444.8,-145.1 442,-144.12 391.82,-126.66 375.86,-131.21 328,-108.12 326.44,-107.37 324.88,-106.55 323.32,-105.68"/>
<polygon fill="green" stroke="green" stroke-width="0.36" points="324.98,-102.59 314.63,-100.34 321.31,-108.56 324.98,-102.59"/>
</g>
<!-- &#45;2&#45;&gt;749 -->
<g id="edge10" class="edge">
<title>&#45;2&#45;&gt;749</title>
<path fill="none" stroke="green" stroke-width="0.23" d="M450.91,-145.34C435.97,-136.89 409.85,-121.88 388,-108.12 386.54,-107.2 385.04,-106.25 383.54,-105.28"/>
<polygon fill="green" stroke="green" stroke-width="0.23" points="385.29,-102.23 375.01,-99.64 381.43,-108.07 385.29,-102.23"/>
</g>
<!-- &#45;2&#45;&gt;750 -->
<g id="edge11" class="edge">
<title>&#45;2&#45;&gt;750</title>
<path fill="none" stroke="green" stroke-width="0.31" d="M457.3,-143.99C451.85,-136.22 443.35,-124.08 435.64,-113.09"/>
<polygon fill="green" stroke="green" stroke-width="0.31" points="438.31,-110.8 429.71,-104.62 432.58,-114.82 438.31,-110.8"/>
</g>
<!-- &#45;2&#45;&gt;751 -->
<g id="edge12" class="edge">
<title>&#45;2&#45;&gt;751</title>
<path fill="none" stroke="red" stroke-width="0.22" d="M464.9,-143.99C466.47,-137.28 468.79,-127.32 471.05,-117.65"/>
<polygon fill="red" stroke="red" stroke-width="0.22" points="474.48,-118.35 473.35,-107.82 467.67,-116.76 474.48,-118.35"/>
</g>
<!-- &#45;3 -->
<g id="node3" class="node">
<title>&#45;3</title>
<polygon fill="lightgray" stroke="black" points="517,-162.12 493,-162.12 493,-144.12 517,-144.12 517,-162.12"/>
<text text-anchor="middle" x="505" y="-150.92" font-family="Times New Roman,serif" font-size="9.00">&#45;3</text>
</g>
<!-- &#45;3&#45;&gt;746 -->
<g id="edge13" class="edge">
<title>&#45;3&#45;&gt;746</title>
<path fill="none" stroke="red" stroke-width="0.29" d="M492.72,-146.9C489.89,-145.85 486.88,-144.85 484,-144.12 364.04,-113.9 323.72,-151.85 208,-108.12 206.38,-107.51 204.77,-106.8 203.17,-106.02"/>
<polygon fill="red" stroke="red" stroke-width="0.29" points="204.78,-102.9 194.38,-100.92 201.28,-108.96 204.78,-102.9"/>
</g>
<!-- &#45;3&#45;&gt;747 -->
<g id="edge14" class="edge">
<title>&#45;3&#45;&gt;747</title>
<path fill="none" stroke="green" stroke-width="0.12" d="M492.7,-146.97C489.88,-145.92 486.86,-144.9 484,-144.12 390.06,-118.68 358.42,-144.14 268,-108.12 266.4,-107.49 264.79,-106.75 263.2,-105.95"/>
<polygon fill="green" stroke="green" stroke-width="0.12" points="264.82,-102.84 254.42,-100.8 261.28,-108.88 264.82,-102.84"/>
</g>
<!-- &#45;3&#45;&gt;748 -->
<g id="edge15" class="edge">
<title>&#45;3&#45;&gt;748</title>
<path fill="none" stroke="red" stroke-width="0.11" d="M492.66,-147.1C489.84,-146.04 486.84,-144.99 484,-144.12 415.93,-123.41 393.26,-136.48 328,-108.12 326.42,-107.44 324.83,-106.66 323.25,-105.83"/>
<polygon fill="red" stroke="red" stroke-width="0.11" points="324.89,-102.73 314.51,-100.6 321.29,-108.74 324.89,-102.73"/>
</g>
<!-- &#45;3&#45;&gt;749 -->
<g id="edge16" class="edge">
<title>&#45;3&#45;&gt;749</title>
<path fill="none" stroke="green" stroke-width="0.23" d="M492.57,-147.38C489.75,-146.3 486.77,-145.17 484,-144.12 441.38,-128.01 428.51,-129 388,-108.12 386.46,-107.33 384.91,-106.48 383.37,-105.58"/>
<polygon fill="green" stroke="green" stroke-width="0.23" points="385.04,-102.51 374.71,-100.17 381.33,-108.44 385.04,-102.51"/>
</g>
<!-- &#45;3&#45;&gt;750 -->
<g id="edge17" class="edge">
<title>&#45;3&#45;&gt;750</title>
<path fill="none" stroke="green" stroke-width="0.16" d="M493.98,-143.99C481.29,-134.62 460.02,-118.93 443.21,-106.52"/>
<polygon fill="green" stroke="green" stroke-width="0.16" points="445.02,-103.5 434.9,-100.38 440.86,-109.14 445.02,-103.5"/>
</g>
<!-- &#45;3&#45;&gt;751 -->
<g id="edge18" class="edge">
<title>&#45;3&#45;&gt;751</title>
<path fill="none" stroke="green" stroke-width="0.38" d="M501.58,-143.99C498.61,-136.93 494.13,-126.28 489.88,-116.15"/>
<polygon fill="green" stroke="green" stroke-width="0.38" points="493.02,-114.6 485.92,-106.74 486.56,-117.31 493.02,-114.6"/>
</g>
<!-- &#45;4 -->
<g id="node4" class="node">
<title>&#45;4</title>
<polygon fill="lightgray" stroke="black" points="559,-162.12 535,-162.12 535,-144.12 559,-144.12 559,-162.12"/>
<text text-anchor="middle" x="547" y="-150.92" font-family="Times New Roman,serif" font-size="9.00">&#45;4</text>
</g>
<!-- &#45;4&#45;&gt;746 -->
<g id="edge19" class="edge">
<title>&#45;4&#45;&gt;746</title>
<path fill="none" stroke="green" stroke-width="0.16" d="M534.73,-146.86C531.9,-145.81 528.88,-144.82 526,-144.12 387.79,-110.54 341.47,-157.27 208,-108.12 206.38,-107.53 204.76,-106.83 203.16,-106.05"/>
<polygon fill="green" stroke="green" stroke-width="0.16" points="204.77,-102.94 194.36,-100.98 201.27,-109 204.77,-102.94"/>
</g>
<!-- &#45;4&#45;&gt;747 -->
<g id="edge20" class="edge">
<title>&#45;4&#45;&gt;747</title>
<path fill="none" stroke="red" stroke-width="0.13" d="M534.71,-146.92C531.89,-145.87 528.87,-144.86 526,-144.12 413.86,-115.33 376.12,-149.54 268,-108.12 266.39,-107.51 264.77,-106.79 263.18,-106"/>
<polygon fill="red" stroke="red" stroke-width="0.13" points="264.79,-102.89 254.39,-100.89 261.28,-108.94 264.79,-102.89"/>
</g>
<!-- &#45;4&#45;&gt;748 -->
<g id="edge21" class="edge">
<title>&#45;4&#45;&gt;748</title>
<path fill="none" stroke="red" stroke-width="0.33" d="M534.69,-147C531.87,-145.95 528.86,-144.92 526,-144.12 439.84,-120.1 410.85,-141.83 328,-108.12 326.4,-107.47 324.8,-106.73 323.21,-105.92"/>
<polygon fill="red" stroke="red" stroke-width="0.33" points="324.84,-102.81 314.44,-100.75 321.28,-108.84 324.84,-102.81"/>
</g>
<!-- &#45;4&#45;&gt;749 -->
<g id="edge22" class="edge">
<title>&#45;4&#45;&gt;749</title>
<path fill="none" stroke="red" stroke-width="0.14" d="M534.64,-147.16C531.82,-146.1 528.82,-145.03 526,-144.12 465.63,-124.81 445.77,-134.21 388,-108.12 386.43,-107.41 384.84,-106.62 383.27,-105.78"/>
<polygon fill="red" stroke="red" stroke-width="0.14" points="384.92,-102.68 374.55,-100.51 381.3,-108.67 384.92,-102.68"/>
</g>
<!-- &#45;4&#45;&gt;750 -->
<g id="edge23" class="edge">
<title>&#45;4&#45;&gt;750</title>
<path fill="none" stroke="green" stroke-width="0.23" d="M534.79,-147.5C515.76,-140.12 478.11,-124.79 448,-108.12 446.49,-107.29 444.96,-106.4 443.42,-105.48"/>
<polygon fill="green" stroke="green" stroke-width="0.23" points="445.12,-102.41 434.81,-99.99 441.36,-108.31 445.12,-102.41"/>
</g>
<!-- &#45;4&#45;&gt;751 -->
<g id="edge24" class="edge">
<title>&#45;4&#45;&gt;751</title>
<path fill="none" stroke="green" stroke-width="0.26" d="M538.26,-143.99C528.89,-135.27 513.63,-121.07 500.81,-109.14"/>
<polygon fill="green" stroke="green" stroke-width="0.26" points="502.93,-106.33 493.22,-102.08 498.16,-111.45 502.93,-106.33"/>
</g>
<!-- &#45;5 -->
<g id="node5" class="node">
<title>&#45;5</title>
<polygon fill="lightgray" stroke="black" points="601,-162.12 577,-162.12 577,-144.12 601,-144.12 601,-162.12"/>
<text text-anchor="middle" x="589" y="-150.92" font-family="Times New Roman,serif" font-size="9.00">&#45;5</text>
</g>
<!-- &#45;5&#45;&gt;746 -->
<g id="edge25" class="edge">
<title>&#45;5&#45;&gt;746</title>
<path fill="none" stroke="red" stroke-width="0.12" d="M576.73,-146.83C573.91,-145.79 570.89,-144.81 568,-144.12 411.5,-107.18 359.25,-162.7 208,-108.12 206.38,-107.54 204.75,-106.85 203.15,-106.07"/>
<polygon fill="red" stroke="red" stroke-width="0.12" points="204.76,-102.96 194.34,-101.02 201.27,-109.03 204.76,-102.96"/>
</g>
<!-- &#45;5&#45;&gt;747 -->
<g id="edge26" class="edge">
<title>&#45;5&#45;&gt;747</title>
<path fill="none" stroke="green" stroke-width="0.44" d="M576.72,-146.87C573.9,-145.83 570.88,-144.83 568,-144.12 437.61,-111.98 393.86,-154.95 268,-108.12 266.38,-107.52 264.76,-106.82 263.17,-106.04"/>
<polygon fill="green" stroke="green" stroke-width="0.44" points="264.78,-102.92 254.36,-100.95 261.27,-108.98 264.78,-102.92"/>
</g>
<!-- &#45;5&#45;&gt;748 -->
<g id="edge27" class="edge">
<title>&#45;5&#45;&gt;748</title>
<path fill="none" stroke="green" stroke-width="0.24" d="M576.71,-146.94C573.88,-145.89 570.87,-144.88 568,-144.12 463.67,-116.77 428.53,-147.22 328,-108.12 326.39,-107.5 324.78,-106.77 323.19,-105.98"/>
<polygon fill="green" stroke="green" stroke-width="0.24" points="324.8,-102.87 314.4,-100.85 321.28,-108.92 324.8,-102.87"/>
</g>
<!-- &#45;5&#45;&gt;749 -->
<g id="edge28" class="edge">
<title>&#45;5&#45;&gt;749</title>
<path fill="none" stroke="green" stroke-width="0.18" d="M576.68,-147.04C573.86,-145.99 570.85,-144.95 568,-144.12 489.61,-121.52 463.3,-139.53 388,-108.12 386.41,-107.46 384.81,-106.7 383.23,-105.89"/>
<polygon fill="green" stroke="green" stroke-width="0.18" points="384.85,-102.78 374.47,-100.69 381.28,-108.8 384.85,-102.78"/>
</g>
<!-- &#45;5&#45;&gt;750 -->
<g id="edge29" class="edge">
<title>&#45;5&#45;&gt;750</title>
<path fill="none" stroke="red" stroke-width="0.25" d="M576.62,-147.24C573.8,-146.17 570.81,-145.08 568,-144.12 515.28,-126.2 498.33,-131.95 448,-108.12 446.44,-107.39 444.87,-106.57 443.3,-105.71"/>
<polygon fill="red" stroke="red" stroke-width="0.25" points="444.96,-102.62 434.6,-100.39 441.31,-108.59 444.96,-102.62"/>
</g>
<!-- &#45;5&#45;&gt;751 -->
<g id="edge30" class="edge">
<title>&#45;5&#45;&gt;751</title>
<path fill="none" stroke="green" stroke-width="0.32" d="M576.7,-145.01C559.53,-135.08 527.94,-116.8 505.11,-103.6"/>
<polygon fill="green" stroke="green" stroke-width="0.32" points="506.65,-100.44 496.24,-98.46 503.14,-106.5 506.65,-100.44"/>
</g>
<!-- &#45;6 -->
<g id="node6" class="node">
<title>&#45;6</title>
<polygon fill="lightgray" stroke="black" points="643,-162.12 619,-162.12 619,-144.12 643,-144.12 643,-162.12"/>
<text text-anchor="middle" x="631" y="-150.92" font-family="Times New Roman,serif" font-size="9.00">&#45;6</text>
</g>
<!-- &#45;6&#45;&gt;746 -->
<g id="edge31" class="edge">
<title>&#45;6&#45;&gt;746</title>
<path fill="none" stroke="red" stroke-width="0.36" d="M618.74,-146.81C615.91,-145.77 612.89,-144.79 610,-144.12 435.21,-103.82 377.05,-168.13 208,-108.12 206.33,-107.53 204.67,-106.83 203.03,-106.04"/>
<polygon fill="red" stroke="red" stroke-width="0.36" points="204.42,-102.8 194.01,-100.84 200.93,-108.87 204.42,-102.8"/>
</g>
<!-- &#45;6&#45;&gt;747 -->
<g id="edge32" class="edge">
<title>&#45;6&#45;&gt;747</title>
<path fill="none" stroke="red" stroke-width="0.14" d="M618.73,-146.84C615.91,-145.8 612.88,-144.81 610,-144.12 461.34,-108.62 411.63,-160.37 268,-108.12 266.38,-107.53 264.76,-106.84 263.16,-106.06"/>
<polygon fill="red" stroke="red" stroke-width="0.14" points="264.76,-102.95 254.35,-101 261.27,-109.02 264.76,-102.95"/>
</g>
<!-- &#45;6&#45;&gt;748 -->
<g id="edge33" class="edge">
<title>&#45;6&#45;&gt;748</title>
<path fill="none" stroke="red" stroke-width="0.13" d="M618.72,-146.89C615.9,-145.84 612.88,-144.85 610,-144.12 487.44,-113.42 446.25,-152.63 328,-108.12 326.38,-107.52 324.77,-106.81 323.17,-106.02"/>
<polygon fill="red" stroke="red" stroke-width="0.13" points="324.78,-102.91 314.37,-100.93 321.27,-108.97 324.78,-102.91"/>
</g>
<!-- &#45;6&#45;&gt;749 -->
<g id="edge34" class="edge">
<title>&#45;6&#45;&gt;749</title>
<path fill="none" stroke="red" stroke-width="0.27" d="M618.7,-146.96C615.88,-145.91 612.86,-144.89 610,-144.12 513.47,-118.2 480.94,-144.91 388,-108.12 386.39,-107.49 384.79,-106.76 383.2,-105.96"/>
<polygon fill="red" stroke="red" stroke-width="0.27" points="384.82,-102.85 374.42,-100.82 381.28,-108.89 384.82,-102.85"/>
</g>
<!-- &#45;6&#45;&gt;750 -->
<g id="edge35" class="edge">
<title>&#45;6&#45;&gt;750</title>
<path fill="none" stroke="red" stroke-width="0.5" d="M618.67,-147.08C615.84,-146.03 612.84,-144.98 610,-144.12 539.35,-122.94 515.77,-137.24 448,-108.12 446.41,-107.44 444.82,-106.67 443.24,-105.85"/>
<polygon fill="red" stroke="red" stroke-width="0.5" points="444.88,-102.74 434.5,-100.62 441.29,-108.76 444.88,-102.74"/>
</g>
<!-- &#45;6&#45;&gt;751 -->
<g id="edge36" class="edge">
<title>&#45;6&#45;&gt;751</title>
<path fill="none" stroke="red" stroke-width="0.44" d="M618.99,-147.09C594.95,-137 540.31,-114.06 506.55,-99.89"/>
<polygon fill="red" stroke="red" stroke-width="0.44" points="507.78,-96.62 497.21,-95.97 505.07,-103.07 507.78,-96.62"/>
</g>
<!-- &#45;7 -->
<g id="node7" class="node">
<title>&#45;7</title>
<polygon fill="lightgray" stroke="black" points="24,-162.12 0,-162.12 0,-144.12 24,-144.12 24,-162.12"/>
<text text-anchor="middle" x="12" y="-150.92" font-family="Times New Roman,serif" font-size="9.00">&#45;7</text>
</g>
<!-- &#45;7&#45;&gt;746 -->
<g id="edge37" class="edge">
<title>&#45;7&#45;&gt;746</title>
<path fill="none" stroke="green" stroke-width="0.22" d="M24.21,-147.4C50.28,-137.32 112.04,-113.43 148.87,-99.18"/>
<polygon fill="green" stroke="green" stroke-width="0.22" points="150.49,-102.31 158.55,-95.44 147.96,-95.78 150.49,-102.31"/>
</g>
<!-- &#45;7&#45;&gt;747 -->
<g id="edge38" class="edge">
<title>&#45;7&#45;&gt;747</title>
<path fill="none" stroke="red" stroke-width="0.19" d="M24.32,-147.05C27.15,-146 30.15,-144.95 33,-144.12 109.24,-121.92 134.8,-138.89 208,-108.12 209.59,-107.46 211.19,-106.7 212.77,-105.88"/>
<polygon fill="red" stroke="red" stroke-width="0.19" points="214.71,-108.79 221.53,-100.68 211.14,-102.77 214.71,-108.79"/>
</g>
<!-- &#45;7&#45;&gt;748 -->
<g id="edge39" class="edge">
<title>&#45;7&#45;&gt;748</title>
<path fill="none" stroke="green" stroke-width="0.21" d="M24.29,-146.94C27.12,-145.89 30.13,-144.88 33,-144.12 135.17,-117.17 169.58,-146.58 268,-108.12 269.61,-107.5 271.22,-106.77 272.81,-105.97"/>
<polygon fill="green" stroke="green" stroke-width="0.21" points="274.72,-108.91 281.59,-100.84 271.19,-102.86 274.72,-108.91"/>
</g>
<!-- &#45;7&#45;&gt;749 -->
<g id="edge40" class="edge">
<title>&#45;7&#45;&gt;749</title>
<path fill="none" stroke="green" stroke-width="0.4" d="M24.28,-146.88C27.1,-145.83 30.12,-144.84 33,-144.12 161.21,-112.38 204.25,-154.3 328,-108.12 329.62,-107.52 331.23,-106.81 332.83,-106.03"/>
<polygon fill="green" stroke="green" stroke-width="0.4" points="334.73,-108.98 341.63,-100.95 331.22,-102.92 334.73,-108.98"/>
</g>
<!-- &#45;7&#45;&gt;750 -->
<g id="edge41" class="edge">
<title>&#45;7&#45;&gt;750</title>
<path fill="none" stroke="green" stroke-width="0.21" d="M24.27,-146.83C27.09,-145.79 30.11,-144.81 33,-144.12 187.32,-107.58 238.86,-162.05 388,-108.12 389.62,-107.54 391.25,-106.84 392.85,-106.07"/>
<polygon fill="green" stroke="green" stroke-width="0.21" points="394.73,-109.03 401.66,-101.01 391.24,-102.96 394.73,-109.03"/>
</g>
<!-- &#45;7&#45;&gt;751 -->
<g id="edge42" class="edge">
<title>&#45;7&#45;&gt;751</title>
<path fill="none" stroke="red" stroke-width="0.2" d="M24.26,-146.8C27.08,-145.76 30.11,-144.79 33,-144.12 213.46,-102.77 273.44,-169.82 448,-108.12 449.67,-107.54 451.33,-106.83 452.98,-106.04"/>
<polygon fill="red" stroke="red" stroke-width="0.2" points="455.07,-108.88 461.99,-100.85 451.58,-102.81 455.07,-108.88"/>
</g>
<!-- &#45;8 -->
<g id="node8" class="node">
<title>&#45;8</title>
<polygon fill="lightgray" stroke="black" points="66,-162.12 42,-162.12 42,-144.12 66,-144.12 66,-162.12"/>
<text text-anchor="middle" x="54" y="-150.92" font-family="Times New Roman,serif" font-size="9.00">&#45;8</text>
</g>
<!-- &#45;8&#45;&gt;746 -->
<g id="edge43" class="edge">
<title>&#45;8&#45;&gt;746</title>
<path fill="none" stroke="red" stroke-width="0.29" d="M66.34,-145.73C85.77,-135.68 123.95,-115.9 150.21,-102.3"/>
<polygon fill="red" stroke="red" stroke-width="0.29" points="152.02,-105.31 159.29,-97.6 148.8,-99.09 152.02,-105.31"/>
</g>
<!-- &#45;8&#45;&gt;747 -->
<g id="edge44" class="edge">
<title>&#45;8&#45;&gt;747</title>
<path fill="none" stroke="green" stroke-width="0.28" d="M66.36,-147.18C69.18,-146.12 72.18,-145.04 75,-144.12 133.24,-125.2 152.3,-133.58 208,-108.12 209.57,-107.41 211.15,-106.61 212.72,-105.76"/>
<polygon fill="green" stroke="green" stroke-width="0.28" points="214.7,-108.65 221.44,-100.48 211.07,-102.67 214.7,-108.65"/>
</g>
<!-- &#45;8&#45;&gt;748 -->
<g id="edge45" class="edge">
<title>&#45;8&#45;&gt;748</title>
<path fill="none" stroke="red" stroke-width="0.12" d="M66.31,-147.01C69.14,-145.96 72.15,-144.93 75,-144.12 159,-120.5 187.25,-141.19 268,-108.12 269.6,-107.47 271.2,-106.72 272.78,-105.91"/>
<polygon fill="red" stroke="red" stroke-width="0.12" points="274.72,-108.83 281.55,-100.74 271.16,-102.81 274.72,-108.83"/>
</g>
<!-- &#45;8&#45;&gt;749 -->
<g id="edge46" class="edge">
<title>&#45;8&#45;&gt;749</title>
<path fill="none" stroke="red" stroke-width="0.3" d="M66.29,-146.92C69.11,-145.87 72.13,-144.87 75,-144.12 184.97,-115.73 221.99,-148.89 328,-108.12 329.61,-107.5 331.22,-106.79 332.82,-105.99"/>
<polygon fill="red" stroke="red" stroke-width="0.3" points="334.72,-108.93 341.61,-100.88 331.2,-102.88 334.72,-108.93"/>
</g>
<!-- &#45;8&#45;&gt;750 -->
<g id="edge47" class="edge">
<title>&#45;8&#45;&gt;750</title>
<path fill="none" stroke="green" stroke-width="0.39" d="M66.27,-146.86C69.1,-145.82 72.12,-144.83 75,-144.12 211.04,-110.94 256.64,-156.63 388,-108.12 389.62,-107.53 391.24,-106.82 392.84,-106.05"/>
<polygon fill="green" stroke="green" stroke-width="0.39" points="394.73,-109 401.64,-100.97 391.23,-102.93 394.73,-109"/>
</g>
<!-- &#45;8&#45;&gt;751 -->
<g id="edge48" class="edge">
<title>&#45;8&#45;&gt;751</title>
<path fill="none" stroke="red" stroke-width="0.25" d="M66.26,-146.82C69.09,-145.78 72.11,-144.8 75,-144.12 237.16,-106.14 291.24,-164.38 448,-108.12 449.67,-107.53 451.33,-106.82 452.97,-106.02"/>
<polygon fill="red" stroke="red" stroke-width="0.25" points="455.07,-108.85 461.98,-100.82 451.57,-102.79 455.07,-108.85"/>
</g>
<!-- &#45;9 -->
<g id="node9" class="node">
<title>&#45;9</title>
<polygon fill="lightgray" stroke="black" points="108,-162.12 84,-162.12 84,-144.12 108,-144.12 108,-162.12"/>
<text text-anchor="middle" x="96" y="-150.92" font-family="Times New Roman,serif" font-size="9.00">&#45;9</text>
</g>
<!-- &#45;9&#45;&gt;746 -->
<g id="edge49" class="edge">
<title>&#45;9&#45;&gt;746</title>
<path fill="none" stroke="green" stroke-width="0.3" d="M106.39,-143.99C118.17,-134.77 137.78,-119.4 153.51,-107.09"/>
<polygon fill="green" stroke="green" stroke-width="0.3" points="156.06,-109.54 161.77,-100.62 151.74,-104.03 156.06,-109.54"/>
</g>
<!-- &#45;9&#45;&gt;747 -->
<g id="edge50" class="edge">
<title>&#45;9&#45;&gt;747</title>
<path fill="none" stroke="red" stroke-width="0.14" d="M108.22,-147.4C136.3,-136.55 203.33,-110.58 208,-108.12 209.53,-107.32 211.08,-106.46 212.62,-105.56"/>
<polygon fill="red" stroke="red" stroke-width="0.14" points="214.66,-108.41 221.27,-100.12 210.94,-102.48 214.66,-108.41"/>
</g>
<!-- &#45;9&#45;&gt;748 -->
<g id="edge51" class="edge">
<title>&#45;9&#45;&gt;748</title>
<path fill="none" stroke="green" stroke-width="0.11" d="M108.34,-147.12C111.16,-146.06 114.17,-145 117,-144.12 182.93,-123.8 204.82,-135.85 268,-108.12 269.58,-107.43 271.17,-106.65 272.74,-105.82"/>
<polygon fill="green" stroke="green" stroke-width="0.11" points="274.71,-108.72 281.48,-100.57 271.11,-102.72 274.71,-108.72"/>
</g>
<!-- &#45;9&#45;&gt;749 -->
<g id="edge52" class="edge">
<title>&#45;9&#45;&gt;749</title>
<path fill="none" stroke="red" stroke-width="0.37" d="M108.3,-146.98C111.13,-145.93 114.14,-144.91 117,-144.12 208.77,-119.07 239.69,-143.5 328,-108.12 329.6,-107.48 331.21,-106.75 332.8,-105.94"/>
<polygon fill="red" stroke="red" stroke-width="0.37" points="334.72,-108.87 341.57,-100.79 331.18,-102.83 334.72,-108.87"/>
</g>
<!-- &#45;9&#45;&gt;750 -->
<g id="edge53" class="edge">
<title>&#45;9&#45;&gt;750</title>
<path fill="none" stroke="red" stroke-width="0.23" d="M108.28,-146.9C111.11,-145.85 114.13,-144.85 117,-144.12 234.78,-114.3 274.39,-151.21 388,-108.12 389.61,-107.51 391.23,-106.8 392.82,-106.01"/>
<polygon fill="red" stroke="red" stroke-width="0.23" points="394.72,-108.96 401.62,-100.91 391.21,-102.9 394.72,-108.96"/>
</g>
<!-- &#45;9&#45;&gt;751 -->
<g id="edge54" class="edge">
<title>&#45;9&#45;&gt;751</title>
<path fill="none" stroke="green" stroke-width="0.24" d="M108.27,-146.85C111.1,-145.81 114.12,-144.82 117,-144.12 260.87,-109.5 309.02,-158.95 448,-108.12 449.62,-107.53 451.24,-106.83 452.84,-106.06"/>
<polygon fill="green" stroke="green" stroke-width="0.24" points="454.73,-109.01 461.65,-100.99 451.24,-102.94 454.73,-109.01"/>
</g>
<!-- &#45;10 -->
<g id="node10" class="node">
<title>&#45;10</title>
<polygon fill="lightgray" stroke="black" points="155.5,-162.12 126.5,-162.12 126.5,-144.12 155.5,-144.12 155.5,-162.12"/>
<text text-anchor="middle" x="141" y="-150.92" font-family="Times New Roman,serif" font-size="9.00">&#45;10</text>
</g>
<!-- &#45;10&#45;&gt;746 -->
<g id="edge55" class="edge">
<title>&#45;10&#45;&gt;746</title>
<path fill="none" stroke="green" stroke-width="0.16" d="M145.69,-143.99C149.96,-136.58 156.51,-125.21 162.6,-114.63"/>
<polygon fill="green" stroke="green" stroke-width="0.16" points="165.81,-116.08 167.77,-105.67 159.74,-112.59 165.81,-116.08"/>
</g>
<!-- &#45;10&#45;&gt;747 -->
<g id="edge56" class="edge">
<title>&#45;10&#45;&gt;747</title>
<path fill="none" stroke="red" stroke-width="0.37" d="M153.38,-144.06C166.85,-135.27 189,-120.77 208,-108.12 209.44,-107.17 210.91,-106.18 212.4,-105.19"/>
<polygon fill="red" stroke="red" stroke-width="0.37" points="214.54,-107.97 220.89,-99.49 210.64,-102.16 214.54,-107.97"/>
</g>
<!-- &#45;10&#45;&gt;748 -->
<g id="edge57" class="edge">
<title>&#45;10&#45;&gt;748</title>
<path fill="none" stroke="green" stroke-width="0.34" d="M155.6,-147.04C158.39,-146.07 161.28,-145.07 164,-144.12 210.21,-128.09 224.24,-129.97 268,-108.12 269.55,-107.35 271.1,-106.51 272.66,-105.63"/>
<polygon fill="green" stroke="green" stroke-width="0.34" points="274.68,-108.5 281.33,-100.25 270.99,-102.55 274.68,-108.5"/>
</g>
<!-- &#45;10&#45;&gt;749 -->
<g id="edge58" class="edge">
<title>&#45;10&#45;&gt;749</title>
<path fill="none" stroke="green" stroke-width="0.26" d="M155.52,-146.78C158.31,-145.84 161.23,-144.91 164,-144.12 235.81,-123.83 259.4,-137.49 328,-108.12 329.59,-107.45 331.18,-106.68 332.76,-105.85"/>
<polygon fill="green" stroke="green" stroke-width="0.26" points="334.71,-108.76 341.51,-100.63 331.13,-102.75 334.71,-108.76"/>
</g>
<!-- &#45;10&#45;&gt;750 -->
<g id="edge59" class="edge">
<title>&#45;10&#45;&gt;750</title>
<path fill="none" stroke="green" stroke-width="0.5" d="M155.98,-146.49C158.63,-145.62 161.38,-144.79 164,-144.12 261.77,-119.47 294.22,-145.16 388,-108.12 389.61,-107.49 391.21,-106.76 392.8,-105.96"/>
<polygon fill="green" stroke="green" stroke-width="0.5" points="394.72,-108.89 401.58,-100.82 391.19,-102.85 394.72,-108.89"/>
</g>
<!-- &#45;10&#45;&gt;751 -->
<g id="edge60" class="edge">
<title>&#45;10&#45;&gt;751</title>
<path fill="none" stroke="red" stroke-width="0.25" d="M155.96,-146.42C158.61,-145.55 161.37,-144.74 164,-144.12 287.87,-115.07 328.9,-152.89 448,-108.12 449.62,-107.52 451.23,-106.81 452.83,-106.02"/>
<polygon fill="red" stroke="red" stroke-width="0.25" points="454.73,-108.97 461.63,-100.93 451.22,-102.91 454.73,-108.97"/>
</g>
<!-- &#45;11 -->
<g id="node11" class="node">
<title>&#45;11</title>
<polygon fill="lightgray" stroke="black" points="202.5,-162.12 173.5,-162.12 173.5,-144.12 202.5,-144.12 202.5,-162.12"/>
<text text-anchor="middle" x="188" y="-150.92" font-family="Times New Roman,serif" font-size="9.00">&#45;11</text>
</g>
<!-- &#45;11&#45;&gt;746 -->
<g id="edge61" class="edge">
<title>&#45;11&#45;&gt;746</title>
<path fill="none" stroke="green" stroke-width="0.32" d="M186.73,-143.99C185.71,-137.4 184.19,-127.67 182.71,-118.17"/>
<polygon fill="green" stroke="green" stroke-width="0.32" points="186.14,-117.44 181.14,-108.09 179.22,-118.51 186.14,-117.44"/>
</g>
<!-- &#45;11&#45;&gt;747 -->
<g id="edge62" class="edge">
<title>&#45;11&#45;&gt;747</title>
<path fill="none" stroke="red" stroke-width="0.1" d="M194.33,-143.99C200.53,-136.03 210.29,-123.5 219.01,-112.31"/>
<polygon fill="red" stroke="red" stroke-width="0.1" points="222.01,-114.14 225.39,-104.1 216.49,-109.84 222.01,-114.14"/>
</g>
<!-- &#45;11&#45;&gt;748 -->
<g id="edge63" class="edge">
<title>&#45;11&#45;&gt;748</title>
<path fill="none" stroke="green" stroke-width="0.14" d="M202.68,-144.56C218.89,-136.09 245.67,-121.75 268,-108.12 269.47,-107.23 270.98,-106.29 272.49,-105.33"/>
<polygon fill="green" stroke="green" stroke-width="0.14" points="274.59,-108.13 281.04,-99.73 270.76,-102.28 274.59,-108.13"/>
</g>
<!-- &#45;11&#45;&gt;749 -->
<g id="edge64" class="edge">
<title>&#45;11&#45;&gt;749</title>
<path fill="none" stroke="red" stroke-width="0.13" d="M202.57,-146.97C205.36,-146 208.27,-145.02 211,-144.12 262.7,-127.19 278.91,-131.58 328,-108.12 329.56,-107.38 331.13,-106.56 332.69,-105.7"/>
<polygon fill="red" stroke="red" stroke-width="0.13" points="334.69,-108.58 341.39,-100.37 331.03,-102.61 334.69,-108.58"/>
</g>
<!-- &#45;11&#45;&gt;750 -->
<g id="edge65" class="edge">
<title>&#45;11&#45;&gt;750</title>
<path fill="none" stroke="green" stroke-width="0.13" d="M202.51,-146.75C205.31,-145.81 208.23,-144.89 211,-144.12 288.42,-122.89 313.96,-139.15 388,-108.12 389.59,-107.46 391.19,-106.7 392.77,-105.88"/>
<polygon fill="green" stroke="green" stroke-width="0.13" points="394.71,-108.8 401.53,-100.68 391.14,-102.78 394.71,-108.8"/>
</g>
<!-- &#45;11&#45;&gt;751 -->
<g id="edge66" class="edge">
<title>&#45;11&#45;&gt;751</title>
<path fill="none" stroke="red" stroke-width="0.15" d="M202.97,-146.47C205.62,-145.6 208.37,-144.78 211,-144.12 314.42,-118.52 348.74,-146.83 448,-108.12 449.61,-107.5 451.22,-106.77 452.81,-105.98"/>
<polygon fill="red" stroke="red" stroke-width="0.15" points="454.72,-108.91 461.6,-100.85 451.19,-102.87 454.72,-108.91"/>
</g>
<!-- &#45;12 -->
<g id="node12" class="node">
<title>&#45;12</title>
<polygon fill="lightgray" stroke="black" points="249.5,-162.12 220.5,-162.12 220.5,-144.12 249.5,-144.12 249.5,-162.12"/>
<text text-anchor="middle" x="235" y="-150.92" font-family="Times New Roman,serif" font-size="9.00">&#45;12</text>
</g>
<!-- &#45;12&#45;&gt;746 -->
<g id="edge67" class="edge">
<title>&#45;12&#45;&gt;746</title>
<path fill="none" stroke="green" stroke-width="0.29" d="M227.78,-143.99C220.43,-135.71 208.69,-122.49 198.46,-110.96"/>
<polygon fill="green" stroke="green" stroke-width="0.29" points="200.94,-108.49 191.69,-103.33 195.71,-113.13 200.94,-108.49"/>
</g>
<!-- &#45;12&#45;&gt;747 -->
<g id="edge68" class="edge">
<title>&#45;12&#45;&gt;747</title>
<path fill="none" stroke="green" stroke-width="0.41" d="M235.38,-143.99C235.69,-137.45 236.14,-127.82 236.58,-118.38"/>
<polygon fill="green" stroke="green" stroke-width="0.41" points="240.07,-118.52 237.04,-108.37 233.08,-118.19 240.07,-118.52"/>
</g>
<!-- &#45;12&#45;&gt;748 -->
<g id="edge69" class="edge">
<title>&#45;12&#45;&gt;748</title>
<path fill="none" stroke="green" stroke-width="0.17" d="M242.98,-143.99C251.34,-135.47 264.85,-121.7 276.39,-109.94"/>
<polygon fill="green" stroke="green" stroke-width="0.17" points="279.11,-112.16 283.61,-102.58 274.11,-107.26 279.11,-112.16"/>
</g>
<!-- &#45;12&#45;&gt;749 -->
<g id="edge70" class="edge">
<title>&#45;12&#45;&gt;749</title>
<path fill="none" stroke="green" stroke-width="0.43" d="M249.52,-146.07C268.11,-138.13 301.14,-123.41 328,-108.12 329.5,-107.27 331.03,-106.37 332.55,-105.43"/>
<polygon fill="green" stroke="green" stroke-width="0.43" points="334.63,-108.26 341.15,-99.91 330.84,-102.37 334.63,-108.26"/>
</g>
<!-- &#45;12&#45;&gt;750 -->
<g id="edge71" class="edge">
<title>&#45;12&#45;&gt;750</title>
<path fill="none" stroke="red" stroke-width="0.46" d="M249.55,-146.9C252.35,-145.95 255.26,-144.98 258,-144.12 315.23,-126.27 333.54,-133.2 388,-108.12 389.57,-107.4 391.15,-106.6 392.71,-105.75"/>
<polygon fill="red" stroke="red" stroke-width="0.46" points="394.7,-108.64 401.43,-100.46 391.06,-102.66 394.7,-108.64"/>
</g>
<!-- &#45;12&#45;&gt;751 -->
<g id="edge72" class="edge">
<title>&#45;12&#45;&gt;751</title>
<path fill="none" stroke="green" stroke-width="0.15" d="M249.99,-146.55C252.64,-145.67 255.39,-144.82 258,-144.12 341.04,-121.95 368.51,-140.81 448,-108.12 449.6,-107.47 451.2,-106.72 452.78,-105.91"/>
<polygon fill="green" stroke="green" stroke-width="0.15" points="454.72,-108.83 461.55,-100.73 451.16,-102.8 454.72,-108.83"/>
</g>
<!-- &#45;13 -->
<g id="node13" class="node">
<title>&#45;13</title>
<polygon fill="lightgray" stroke="black" points="296.5,-162.12 267.5,-162.12 267.5,-144.12 296.5,-144.12 296.5,-162.12"/>
<text text-anchor="middle" x="282" y="-150.92" font-family="Times New Roman,serif" font-size="9.00">&#45;13</text>
</g>
<!-- &#45;13&#45;&gt;746 -->
<g id="edge73" class="edge">
<title>&#45;13&#45;&gt;746</title>
<path fill="none" stroke="green" stroke-width="0.17" d="M267.95,-144.09C252.95,-135.44 228.58,-121.16 208,-108.12 206.54,-107.2 205.05,-106.24 203.55,-105.27"/>
<polygon fill="green" stroke="green" stroke-width="0.17" points="205.29,-102.22 195.02,-99.62 201.43,-108.06 205.29,-102.22"/>
</g>
<!-- &#45;13&#45;&gt;747 -->
<g id="edge74" class="edge">
<title>&#45;13&#45;&gt;747</title>
<path fill="none" stroke="red" stroke-width="0.15" d="M276.43,-143.99C271.14,-136.27 262.9,-124.25 255.41,-113.31"/>
<polygon fill="red" stroke="red" stroke-width="0.15" points="258.17,-111.15 249.63,-104.88 252.39,-115.11 258.17,-111.15"/>
</g>
<!-- &#45;13&#45;&gt;748 -->
<g id="edge75" class="edge">
<title>&#45;13&#45;&gt;748</title>
<path fill="none" stroke="green" stroke-width="0.2" d="M284.03,-143.99C285.7,-137.28 288.18,-127.32 290.59,-117.65"/>
<polygon fill="green" stroke="green" stroke-width="0.2" points="294.02,-118.37 293.04,-107.82 287.23,-116.68 294.02,-118.37"/>
</g>
<!-- &#45;13&#45;&gt;749 -->
<g id="edge76" class="edge">
<title>&#45;13&#45;&gt;749</title>
<path fill="none" stroke="green" stroke-width="0.32" d="M291.63,-143.99C302.24,-135.02 319.73,-120.25 334.09,-108.12"/>
<polygon fill="green" stroke="green" stroke-width="0.32" points="336.72,-110.47 342.1,-101.34 332.21,-105.12 336.72,-110.47"/>
</g>
<!-- &#45;13&#45;&gt;750 -->
<g id="edge77" class="edge">
<title>&#45;13&#45;&gt;750</title>
<path fill="none" stroke="green" stroke-width="0.18" d="M296.82,-147.04C317.72,-139.63 356.76,-124.92 388,-108.12 389.52,-107.31 391.06,-106.43 392.6,-105.52"/>
<polygon fill="green" stroke="green" stroke-width="0.18" points="394.65,-108.37 401.23,-100.06 390.91,-102.45 394.65,-108.37"/>
</g>
<!-- &#45;13&#45;&gt;751 -->
<g id="edge78" class="edge">
<title>&#45;13&#45;&gt;751</title>
<path fill="none" stroke="red" stroke-width="0.15" d="M296.54,-146.85C299.33,-145.9 302.25,-144.95 305,-144.12 367.79,-125.34 388.15,-134.83 448,-108.12 449.58,-107.42 451.16,-106.64 452.73,-105.79"/>
<polygon fill="red" stroke="red" stroke-width="0.15" points="454.7,-108.69 461.46,-100.53 451.09,-102.7 454.7,-108.69"/>
</g>
<!-- &#45;14 -->
<g id="node14" class="node">
<title>&#45;14</title>
<polygon fill="lightgray" stroke="black" points="343.5,-162.12 314.5,-162.12 314.5,-144.12 343.5,-144.12 343.5,-162.12"/>
<text text-anchor="middle" x="329" y="-150.92" font-family="Times New Roman,serif" font-size="9.00">&#45;14</text>
</g>
<!-- &#45;14&#45;&gt;746 -->
<g id="edge79" class="edge">
<title>&#45;14&#45;&gt;746</title>
<path fill="none" stroke="red" stroke-width="0.43" d="M314.24,-146.99C284.18,-136.48 217.81,-113.12 208,-108.12 206.46,-107.34 204.91,-106.49 203.36,-105.6"/>
<polygon fill="red" stroke="red" stroke-width="0.43" points="205.03,-102.52 194.69,-100.21 201.33,-108.46 205.03,-102.52"/>
</g>
<!-- &#45;14&#45;&gt;747 -->
<g id="edge80" class="edge">
<title>&#45;14&#45;&gt;747</title>
<path fill="none" stroke="red" stroke-width="0.22" d="M317.47,-143.99C303.91,-134.42 280.99,-118.25 263.24,-105.72"/>
<polygon fill="red" stroke="red" stroke-width="0.22" points="265.19,-102.82 255,-99.91 261.16,-108.54 265.19,-102.82"/>
</g>
<!-- &#45;14&#45;&gt;748 -->
<g id="edge81" class="edge">
<title>&#45;14&#45;&gt;748</title>
<path fill="none" stroke="red" stroke-width="0.25" d="M325.07,-143.99C321.61,-136.81 316.34,-125.91 311.38,-115.62"/>
<polygon fill="red" stroke="red" stroke-width="0.25" points="314.46,-113.95 306.96,-106.47 308.15,-116.99 314.46,-113.95"/>
</g>
<!-- &#45;14&#45;&gt;749 -->
<g id="edge82" class="edge">
<title>&#45;14&#45;&gt;749</title>
<path fill="none" stroke="green" stroke-width="0.17" d="M332.67,-143.99C335.92,-136.81 340.84,-125.91 345.49,-115.62"/>
<polygon fill="green" stroke="green" stroke-width="0.17" points="348.69,-117.02 349.62,-106.47 342.31,-114.14 348.69,-117.02"/>
</g>
<!-- &#45;14&#45;&gt;750 -->
<g id="edge83" class="edge">
<title>&#45;14&#45;&gt;750</title>
<path fill="none" stroke="red" stroke-width="0.26" d="M340.27,-143.99C353.34,-134.57 375.28,-118.73 392.53,-106.29"/>
<polygon fill="red" stroke="red" stroke-width="0.26" points="394.98,-108.84 401.04,-100.15 390.89,-103.16 394.98,-108.84"/>
</g>
<!-- &#45;14&#45;&gt;751 -->
<g id="edge84" class="edge">
<title>&#45;14&#45;&gt;751</title>
<path fill="none" stroke="green" stroke-width="0.19" d="M343.64,-147.2C371.05,-137.9 429.08,-117.82 448,-108.12 449.54,-107.34 451.09,-106.49 452.64,-105.59"/>
<polygon fill="green" stroke="green" stroke-width="0.19" points="454.67,-108.45 461.3,-100.19 450.96,-102.51 454.67,-108.45"/>
</g>
<!-- &#45;15 -->
<g id="node15" class="node">
<title>&#45;15</title>
<polygon fill="lightgray" stroke="black" points="390.5,-162.12 361.5,-162.12 361.5,-144.12 390.5,-144.12 390.5,-162.12"/>
<text text-anchor="middle" x="376" y="-150.92" font-family="Times New Roman,serif" font-size="9.00">&#45;15</text>
</g>
<!-- &#45;15&#45;&gt;746 -->
<g id="edge85" class="edge">
<title>&#45;15&#45;&gt;746</title>
<path fill="none" stroke="green" stroke-width="0.19" d="M361.46,-146.84C358.67,-145.89 355.76,-144.94 353,-144.12 289.35,-125.2 268.68,-135.09 208,-108.12 206.42,-107.42 204.84,-106.64 203.26,-105.8"/>
<polygon fill="green" stroke="green" stroke-width="0.19" points="204.9,-102.7 194.53,-100.54 201.29,-108.7 204.9,-102.7"/>
</g>
<!-- &#45;15&#45;&gt;747 -->
<g id="edge86" class="edge">
<title>&#45;15&#45;&gt;747</title>
<path fill="none" stroke="green" stroke-width="0.11" d="M361.15,-146.51C335.7,-136.82 284.88,-117.13 268,-108.12 266.48,-107.31 264.93,-106.44 263.39,-105.53"/>
<polygon fill="green" stroke="green" stroke-width="0.11" points="265.08,-102.46 254.76,-100.08 261.35,-108.38 265.08,-102.46"/>
</g>
<!-- &#45;15&#45;&gt;748 -->
<g id="edge87" class="edge">
<title>&#45;15&#45;&gt;748</title>
<path fill="none" stroke="green" stroke-width="0.27" d="M366.12,-143.99C355.05,-134.88 336.71,-119.78 321.85,-107.55"/>
<polygon fill="green" stroke="green" stroke-width="0.27" points="323.96,-104.75 314.02,-101.1 319.52,-110.16 323.96,-104.75"/>
</g>
<!-- &#45;15&#45;&gt;749 -->
<g id="edge88" class="edge">
<title>&#45;15&#45;&gt;749</title>
<path fill="none" stroke="green" stroke-width="0.19" d="M373.72,-143.99C371.82,-137.23 369,-127.17 366.27,-117.43"/>
<polygon fill="green" stroke="green" stroke-width="0.19" points="369.57,-116.23 363.5,-107.55 362.83,-118.12 369.57,-116.23"/>
</g>
<!-- &#45;15&#45;&gt;750 -->
<g id="edge89" class="edge">
<title>&#45;15&#45;&gt;750</title>
<path fill="none" stroke="red" stroke-width="0.32" d="M381.32,-143.99C386.34,-136.32 394.12,-124.41 401.24,-113.54"/>
<polygon fill="red" stroke="red" stroke-width="0.32" points="404.19,-115.43 406.73,-105.14 398.33,-111.59 404.19,-115.43"/>
</g>
<!-- &#45;15&#45;&gt;751 -->
<g id="edge90" class="edge">
<title>&#45;15&#45;&gt;751</title>
<path fill="none" stroke="green" stroke-width="0.24" d="M389.65,-144.03C404.21,-135.34 427.91,-121.03 448,-108.12 449.45,-107.19 450.94,-106.23 452.44,-105.25"/>
<polygon fill="green" stroke="green" stroke-width="0.24" points="454.56,-108.04 460.95,-99.59 450.69,-102.21 454.56,-108.04"/>
</g>
<!-- 0 -->
<g id="node16" class="node">
<title>0</title>
<ellipse fill="lightblue" stroke="black" cx="304" cy="-14.85" rx="14.7" ry="14.7"/>
<text text-anchor="middle" x="304" y="-12.65" font-family="Times New Roman,serif" font-size="9.00">0</text>
</g>
<!-- 1 -->
<g id="node17" class="node">
<title>1</title>
<ellipse fill="lightblue" stroke="black" cx="355" cy="-14.85" rx="14.7" ry="14.7"/>
<text text-anchor="middle" x="355" y="-12.65" font-family="Times New Roman,serif" font-size="9.00">1</text>
</g>
<!-- 746&#45;&gt;0 -->
<g id="edge91" class="edge">
<title>746&#45;&gt;0</title>
<path fill="none" stroke="green" stroke-width="0.22" d="M194.92,-74.02C199.13,-71.2 203.68,-68.26 208,-65.7 232.59,-51.1 261.89,-36.23 281.6,-26.58"/>
<polygon fill="green" stroke="green" stroke-width="0.22" points="283.23,-29.68 290.7,-22.16 280.17,-23.38 283.23,-29.68"/>
</g>
<!-- 746&#45;&gt;1 -->
<g id="edge92" class="edge">
<title>746&#45;&gt;1</title>
<path fill="none" stroke="green" stroke-width="0.27" d="M194.6,-73.44C198.83,-70.63 203.46,-67.85 208,-65.7 258.33,-41.87 276.35,-50.49 328,-29.7 329.65,-29.04 331.33,-28.31 333,-27.54"/>
<polygon fill="green" stroke="green" stroke-width="0.27" points="334.89,-30.52 342.31,-22.96 331.8,-24.24 334.89,-30.52"/>
</g>
<!-- 747&#45;&gt;0 -->
<g id="edge93" class="edge">
<title>747&#45;&gt;0</title>
<path fill="none" stroke="red" stroke-width="0.11" d="M252.32,-70.71C262.55,-59.85 276.34,-45.21 287.11,-33.78"/>
<polygon fill="red" stroke="red" stroke-width="0.11" points="289.69,-36.15 294,-26.47 284.59,-31.35 289.69,-36.15"/>
</g>
<!-- 747&#45;&gt;1 -->
<g id="edge94" class="edge">
<title>747&#45;&gt;1</title>
<path fill="none" stroke="red" stroke-width="0.27" d="M254.99,-74.15C259.2,-71.32 263.73,-68.35 268,-65.7 289.82,-52.12 315.42,-37.62 333.17,-27.78"/>
<polygon fill="red" stroke="red" stroke-width="0.27" points="335.08,-30.72 342.15,-22.83 331.7,-24.59 335.08,-30.72"/>
</g>
<!-- 748&#45;&gt;0 -->
<g id="edge95" class="edge">
<title>748&#45;&gt;0</title>
<path fill="none" stroke="red" stroke-width="0.18" d="M299.74,-65.65C300.43,-57.58 301.23,-48.23 301.95,-39.82"/>
<polygon fill="red" stroke="red" stroke-width="0.18" points="305.43,-40.11 302.8,-29.85 298.46,-39.52 305.43,-40.11"/>
</g>
<!-- 748&#45;&gt;1 -->
<g id="edge96" class="edge">
<title>748&#45;&gt;1</title>
<path fill="none" stroke="red" stroke-width="0.43" d="M310.93,-70.01C319.41,-59.59 330.55,-45.91 339.5,-34.9"/>
<polygon fill="red" stroke="red" stroke-width="0.43" points="342.25,-37.07 345.84,-27.1 336.82,-32.65 342.25,-37.07"/>
</g>
<!-- 749&#45;&gt;0 -->
<g id="edge97" class="edge">
<title>749&#45;&gt;0</title>
<path fill="none" stroke="red" stroke-width="0.2" d="M345.48,-69.66C337.51,-59.33 327.16,-45.9 318.79,-35.04"/>
<polygon fill="red" stroke="red" stroke-width="0.2" points="321.46,-32.77 312.59,-26.99 315.92,-37.05 321.46,-32.77"/>
</g>
<!-- 749&#45;&gt;1 -->
<g id="edge98" class="edge">
<title>749&#45;&gt;1</title>
<path fill="none" stroke="green" stroke-width="0.14" d="M357.13,-65.65C356.79,-57.67 356.4,-48.43 356.04,-40.1"/>
<polygon fill="green" stroke="green" stroke-width="0.14" points="359.52,-39.69 355.6,-29.85 352.53,-39.99 359.52,-39.69"/>
</g>
<!-- 750&#45;&gt;0 -->
<g id="edge99" class="edge">
<title>750&#45;&gt;0</title>
<path fill="none" stroke="green" stroke-width="0.25" d="M400.98,-74.2C396.77,-71.37 392.25,-68.39 388,-65.7 366.96,-52.38 342.43,-37.95 325.33,-28.05"/>
<polygon fill="green" stroke="green" stroke-width="0.25" points="327.07,-25.02 316.66,-23.06 323.58,-31.08 327.07,-25.02"/>
</g>
<!-- 750&#45;&gt;1 -->
<g id="edge100" class="edge">
<title>750&#45;&gt;1</title>
<path fill="none" stroke="green" stroke-width="0.33" d="M404.02,-70.36C394.33,-59.59 381.41,-45.22 371.26,-33.94"/>
<polygon fill="green" stroke="green" stroke-width="0.33" points="373.74,-31.46 364.45,-26.36 368.54,-36.14 373.74,-31.46"/>
</g>
<!-- 751&#45;&gt;0 -->
<g id="edge101" class="edge">
<title>751&#45;&gt;0</title>
<path fill="none" stroke="red" stroke-width="0.12" d="M461.39,-73.46C457.16,-70.65 452.53,-67.86 448,-65.7 398.91,-42.24 381.4,-50.19 331,-29.7 329.36,-29.03 327.68,-28.3 326,-27.53"/>
<polygon fill="red" stroke="red" stroke-width="0.12" points="327.21,-24.22 316.69,-22.94 324.12,-30.5 327.21,-24.22"/>
</g>
<!-- 751&#45;&gt;1 -->
<g id="edge102" class="edge">
<title>751&#45;&gt;1</title>
<path fill="none" stroke="green" stroke-width="0.22" d="M461.06,-74.06C456.85,-71.24 452.3,-68.29 448,-65.7 424.35,-51.44 396.31,-36.69 377.25,-26.97"/>
<polygon fill="green" stroke="green" stroke-width="0.22" points="378.67,-23.77 368.17,-22.38 375.51,-30.02 378.67,-23.77"/>
</g>
</g>
</svg>
