<?xml version="1.0" encoding="UTF-8" standalone="no"?>
<!DOCTYPE svg PUBLIC "-//W3C//DTD SVG 1.1//EN"
 "http://www.w3.org/Graphics/SVG/1.1/DTD/svg11.dtd">
<!-- Generated by graphviz version 5.0.0 (20220707.1540)
 -->
<!-- Pages: 1 -->
<svg width="651pt" height="177pt"
 viewBox="0.00 0.00 651.00 177.20" xmlns="http://www.w3.org/2000/svg" xmlns:xlink="http://www.w3.org/1999/xlink">
<g id="graph0" class="graph" transform="scale(1 1) rotate(0) translate(4 173.2)">
<polygon fill="white" stroke="transparent" points="-4,4 -4,-173.2 647,-173.2 647,4 -4,4"/>
<!-- &#45;1 -->
<g id="node1" class="node">
<title>&#45;1</title>
<polygon fill="lightgray" stroke="black" points="433,-169.2 409,-169.2 409,-151.2 433,-151.2 433,-169.2"/>
<text text-anchor="middle" x="421" y="-158" font-family="Times New Roman,serif" font-size="9.00">&#45;1</text>
</g>
<!-- 1070 -->
<g id="node18" class="node">
<title>1070</title>
<ellipse fill="white" stroke="black" cx="160" cy="-90.45" rx="25" ry="25"/>
<text text-anchor="middle" x="160" y="-88.25" font-family="Times New Roman,serif" font-size="9.00">1070</text>
</g>
<!-- &#45;1&#45;&gt;1070 -->
<g id="edge1" class="edge">
<title>&#45;1&#45;&gt;1070</title>
<path fill="none" stroke="red" stroke-width="0.31" d="M408.69,-154.06C405.87,-153.01 402.86,-151.98 400,-151.2 309.95,-126.46 279.08,-151.39 193,-115.2 191.15,-114.42 189.3,-113.52 187.47,-112.53"/>
<polygon fill="red" stroke="red" stroke-width="0.31" points="189.01,-109.37 178.67,-107.08 185.32,-115.32 189.01,-109.37"/>
</g>
<!-- 1071 -->
<g id="node19" class="node">
<title>1071</title>
<ellipse fill="white" stroke="black" cx="227" cy="-90.45" rx="25" ry="25"/>
<text text-anchor="middle" x="227" y="-88.25" font-family="Times New Roman,serif" font-size="9.00">1071</text>
</g>
<!-- &#45;1&#45;&gt;1071 -->
<g id="edge2" class="edge">
<title>&#45;1&#45;&gt;1071</title>
<path fill="none" stroke="green" stroke-width="0.35" d="M408.64,-154.23C405.82,-153.16 402.83,-152.09 400,-151.2 338.77,-131.73 318.19,-142.43 260,-115.2 258.18,-114.34 256.35,-113.39 254.55,-112.36"/>
<polygon fill="green" stroke="green" stroke-width="0.35" points="256.11,-109.2 245.8,-106.79 252.35,-115.11 256.11,-109.2"/>
</g>
<!-- 1072 -->
<g id="node20" class="node">
<title>1072</title>
<ellipse fill="white" stroke="black" cx="294" cy="-90.45" rx="25" ry="25"/>
<text text-anchor="middle" x="294" y="-88.25" font-family="Times New Roman,serif" font-size="9.00">1072</text>
</g>
<!-- &#45;1&#45;&gt;1072 -->
<g id="edge3" class="edge">
<title>&#45;1&#45;&gt;1072</title>
<path fill="none" stroke="green" stroke-width="0.36" d="M408.77,-154.33C390.47,-146.86 355.13,-131.71 327,-115.2 325.31,-114.2 323.6,-113.15 321.89,-112.05"/>
<polygon fill="green" stroke="green" stroke-width="0.36" points="323.74,-109.08 313.49,-106.38 319.82,-114.88 323.74,-109.08"/>
</g>
<!-- 1073 -->
<g id="node21" class="node">
<title>1073</title>
<ellipse fill="white" stroke="black" cx="361" cy="-90.45" rx="25" ry="25"/>
<text text-anchor="middle" x="361" y="-88.25" font-family="Times New Roman,serif" font-size="9.00">1073</text>
</g>
<!-- &#45;1&#45;&gt;1073 -->
<g id="edge4" class="edge">
<title>&#45;1&#45;&gt;1073</title>
<path fill="none" stroke="green" stroke-width="0.37" d="M413.88,-151.16C406.5,-142.82 394.56,-129.34 383.89,-117.3"/>
<polygon fill="green" stroke="green" stroke-width="0.37" points="386.38,-114.82 377.13,-109.66 381.14,-119.46 386.38,-114.82"/>
</g>
<!-- 1074 -->
<g id="node22" class="node">
<title>1074</title>
<ellipse fill="white" stroke="black" cx="428" cy="-90.45" rx="25" ry="25"/>
<text text-anchor="middle" x="428" y="-88.25" font-family="Times New Roman,serif" font-size="9.00">1074</text>
</g>
<!-- &#45;1&#45;&gt;1074 -->
<g id="edge5" class="edge">
<title>&#45;1&#45;&gt;1074</title>
<path fill="none" stroke="green" stroke-width="0.28" d="M421.83,-151.16C422.51,-144.6 423.51,-134.87 424.52,-125.15"/>
<polygon fill="green" stroke="green" stroke-width="0.28" points="428,-125.48 425.55,-115.17 421.04,-124.76 428,-125.48"/>
</g>
<!-- 1075 -->
<g id="node23" class="node">
<title>1075</title>
<ellipse fill="white" stroke="black" cx="495" cy="-90.45" rx="25" ry="25"/>
<text text-anchor="middle" x="495" y="-88.25" font-family="Times New Roman,serif" font-size="9.00">1075</text>
</g>
<!-- &#45;1&#45;&gt;1075 -->
<g id="edge6" class="edge">
<title>&#45;1&#45;&gt;1075</title>
<path fill="none" stroke="green" stroke-width="0.33" d="M429.78,-151.16C439.6,-142.17 455.95,-127.2 469.82,-114.5"/>
<polygon fill="green" stroke="green" stroke-width="0.33" points="472.2,-117.06 477.22,-107.73 467.48,-111.9 472.2,-117.06"/>
</g>
<!-- &#45;2 -->
<g id="node2" class="node">
<title>&#45;2</title>
<polygon fill="lightgray" stroke="black" points="475,-169.2 451,-169.2 451,-151.2 475,-151.2 475,-169.2"/>
<text text-anchor="middle" x="463" y="-158" font-family="Times New Roman,serif" font-size="9.00">&#45;2</text>
</g>
<!-- &#45;2&#45;&gt;1070 -->
<g id="edge7" class="edge">
<title>&#45;2&#45;&gt;1070</title>
<path fill="none" stroke="red" stroke-width="0.26" d="M450.71,-154C447.89,-152.95 444.87,-151.94 442,-151.2 333.76,-123.12 296.69,-157.05 193,-115.2 191.13,-114.44 189.28,-113.56 187.44,-112.59"/>
<polygon fill="red" stroke="red" stroke-width="0.26" points="188.98,-109.43 178.62,-107.18 185.32,-115.39 188.98,-109.43"/>
</g>
<!-- &#45;2&#45;&gt;1071 -->
<g id="edge8" class="edge">
<title>&#45;2&#45;&gt;1071</title>
<path fill="none" stroke="green" stroke-width="0.33" d="M450.68,-154.11C447.86,-153.05 444.85,-152.01 442,-151.2 362.75,-128.44 335.64,-148.03 260,-115.2 258.15,-114.39 256.31,-113.48 254.49,-112.48"/>
<polygon fill="green" stroke="green" stroke-width="0.33" points="256.04,-109.32 245.7,-106.99 252.33,-115.26 256.04,-109.32"/>
</g>
<!-- &#45;2&#45;&gt;1072 -->
<g id="edge9" class="edge">
<title>&#45;2&#45;&gt;1072</title>
<path fill="none" stroke="red" stroke-width="0.29" d="M450.61,-154.33C447.79,-153.27 444.8,-152.17 442,-151.2 391.4,-133.65 374.9,-139.14 327,-115.2 325.2,-114.3 323.39,-113.3 321.6,-112.25"/>
<polygon fill="red" stroke="red" stroke-width="0.29" points="323.18,-109.1 312.88,-106.6 319.38,-114.98 323.18,-109.1"/>
</g>
<!-- &#45;2&#45;&gt;1073 -->
<g id="edge10" class="edge">
<title>&#45;2&#45;&gt;1073</title>
<path fill="none" stroke="red" stroke-width="0.4" d="M450.9,-151.77C437.02,-143.18 413.64,-128.51 394,-115.2 392.38,-114.1 390.72,-112.96 389.05,-111.8"/>
<polygon fill="red" stroke="red" stroke-width="0.4" points="390.95,-108.85 380.77,-105.95 386.92,-114.57 390.95,-108.85"/>
</g>
<!-- &#45;2&#45;&gt;1074 -->
<g id="edge11" class="edge">
<title>&#45;2&#45;&gt;1074</title>
<path fill="none" stroke="red" stroke-width="0.14" d="M458.85,-151.16C455.09,-143.89 449.32,-132.72 443.79,-122"/>
<polygon fill="red" stroke="red" stroke-width="0.14" points="446.73,-120.08 439.03,-112.8 440.51,-123.3 446.73,-120.08"/>
</g>
<!-- &#45;2&#45;&gt;1075 -->
<g id="edge12" class="edge">
<title>&#45;2&#45;&gt;1075</title>
<path fill="none" stroke="red" stroke-width="0.23" d="M466.8,-151.16C470.2,-143.95 475.43,-132.89 480.45,-122.24"/>
<polygon fill="red" stroke="red" stroke-width="0.23" points="483.67,-123.63 484.77,-113.1 477.34,-120.64 483.67,-123.63"/>
</g>
<!-- &#45;3 -->
<g id="node3" class="node">
<title>&#45;3</title>
<polygon fill="lightgray" stroke="black" points="517,-169.2 493,-169.2 493,-151.2 517,-151.2 517,-169.2"/>
<text text-anchor="middle" x="505" y="-158" font-family="Times New Roman,serif" font-size="9.00">&#45;3</text>
</g>
<!-- &#45;3&#45;&gt;1070 -->
<g id="edge13" class="edge">
<title>&#45;3&#45;&gt;1070</title>
<path fill="none" stroke="green" stroke-width="0.5" d="M492.72,-153.95C489.9,-152.91 486.88,-151.91 484,-151.2 357.53,-119.77 314.34,-162.74 193,-115.2 191.13,-114.46 189.26,-113.6 187.43,-112.64"/>
<polygon fill="green" stroke="green" stroke-width="0.5" points="188.95,-109.47 178.59,-107.26 185.31,-115.45 188.95,-109.47"/>
</g>
<!-- &#45;3&#45;&gt;1071 -->
<g id="edge14" class="edge">
<title>&#45;3&#45;&gt;1071</title>
<path fill="none" stroke="green" stroke-width="0.35" d="M492.7,-154.03C489.88,-152.98 486.86,-151.96 484,-151.2 386.6,-125.11 353.2,-153.68 260,-115.2 258.14,-114.43 256.29,-113.54 254.46,-112.56"/>
<polygon fill="green" stroke="green" stroke-width="0.35" points="256,-109.4 245.65,-107.12 252.32,-115.35 256,-109.4"/>
</g>
<!-- &#45;3&#45;&gt;1072 -->
<g id="edge15" class="edge">
<title>&#45;3&#45;&gt;1072</title>
<path fill="none" stroke="red" stroke-width="0.36" d="M492.66,-154.17C489.84,-153.11 486.84,-152.06 484,-151.2 415.5,-130.4 392.23,-144.69 327,-115.2 325.17,-114.37 323.33,-113.43 321.52,-112.42"/>
<polygon fill="red" stroke="red" stroke-width="0.36" points="323.08,-109.26 312.75,-106.88 319.34,-115.18 323.08,-109.26"/>
</g>
<!-- &#45;3&#45;&gt;1073 -->
<g id="edge16" class="edge">
<title>&#45;3&#45;&gt;1073</title>
<path fill="none" stroke="red" stroke-width="0.17" d="M492.69,-154.51C465.73,-144.23 403.09,-120.17 394,-115.2 392.24,-114.23 390.45,-113.19 388.68,-112.09"/>
<polygon fill="red" stroke="red" stroke-width="0.17" points="390.29,-108.96 380.02,-106.34 386.42,-114.79 390.29,-108.96"/>
</g>
<!-- &#45;3&#45;&gt;1074 -->
<g id="edge17" class="edge">
<title>&#45;3&#45;&gt;1074</title>
<path fill="none" stroke="red" stroke-width="0.24" d="M495.86,-151.16C485.58,-142.11 468.41,-127 453.91,-114.25"/>
<polygon fill="red" stroke="red" stroke-width="0.24" points="456.02,-111.44 446.2,-107.46 451.39,-116.69 456.02,-111.44"/>
</g>
<!-- &#45;3&#45;&gt;1075 -->
<g id="edge18" class="edge">
<title>&#45;3&#45;&gt;1075</title>
<path fill="none" stroke="red" stroke-width="0.34" d="M503.81,-151.16C502.85,-144.6 501.41,-134.87 499.98,-125.15"/>
<polygon fill="red" stroke="red" stroke-width="0.34" points="503.42,-124.55 498.5,-115.17 496.5,-125.57 503.42,-124.55"/>
</g>
<!-- &#45;4 -->
<g id="node4" class="node">
<title>&#45;4</title>
<polygon fill="lightgray" stroke="black" points="559,-169.2 535,-169.2 535,-151.2 559,-151.2 559,-169.2"/>
<text text-anchor="middle" x="547" y="-158" font-family="Times New Roman,serif" font-size="9.00">&#45;4</text>
</g>
<!-- &#45;4&#45;&gt;1070 -->
<g id="edge19" class="edge">
<title>&#45;4&#45;&gt;1070</title>
<path fill="none" stroke="green" stroke-width="0.2" d="M534.73,-153.92C531.91,-152.88 528.88,-151.89 526,-151.2 381.26,-116.41 332.02,-168.44 193,-115.2 191.12,-114.48 189.25,-113.62 187.41,-112.67"/>
<polygon fill="green" stroke="green" stroke-width="0.2" points="188.94,-109.5 178.57,-107.31 185.31,-115.49 188.94,-109.5"/>
</g>
<!-- &#45;4&#45;&gt;1071 -->
<g id="edge20" class="edge">
<title>&#45;4&#45;&gt;1071</title>
<path fill="none" stroke="red" stroke-width="0.35" d="M534.72,-153.98C531.89,-152.93 528.87,-151.93 526,-151.2 410.39,-121.77 370.83,-159.35 260,-115.2 258.13,-114.45 256.27,-113.58 254.44,-112.61"/>
<polygon fill="red" stroke="red" stroke-width="0.35" points="255.97,-109.45 245.61,-107.21 252.31,-115.42 255.97,-109.45"/>
</g>
<!-- &#45;4&#45;&gt;1072 -->
<g id="edge21" class="edge">
<title>&#45;4&#45;&gt;1072</title>
<path fill="none" stroke="green" stroke-width="0.12" d="M534.69,-154.07C531.87,-153.02 528.86,-151.99 526,-151.2 439.41,-127.09 409.74,-150.31 327,-115.2 325.15,-114.41 323.3,-113.5 321.48,-112.52"/>
<polygon fill="green" stroke="green" stroke-width="0.12" points="323.02,-109.35 312.68,-107.05 319.33,-115.3 323.02,-109.35"/>
</g>
<!-- &#45;4&#45;&gt;1073 -->
<g id="edge22" class="edge">
<title>&#45;4&#45;&gt;1073</title>
<path fill="none" stroke="red" stroke-width="0.19" d="M534.63,-154.26C531.82,-153.19 528.82,-152.11 526,-151.2 468.18,-132.35 448.89,-141.37 394,-115.2 392.18,-114.33 390.36,-113.36 388.56,-112.33"/>
<polygon fill="red" stroke="red" stroke-width="0.19" points="390.13,-109.17 379.82,-106.73 386.36,-115.07 390.13,-109.17"/>
</g>
<!-- &#45;4&#45;&gt;1074 -->
<g id="edge23" class="edge">
<title>&#45;4&#45;&gt;1074</title>
<path fill="none" stroke="green" stroke-width="0.22" d="M534.72,-153.63C517.75,-145.78 486.33,-130.67 461,-115.2 459.33,-114.17 457.63,-113.1 455.93,-111.98"/>
<polygon fill="green" stroke="green" stroke-width="0.22" points="457.79,-109.02 447.56,-106.26 453.84,-114.79 457.79,-109.02"/>
</g>
<!-- &#45;4&#45;&gt;1075 -->
<g id="edge24" class="edge">
<title>&#45;4&#45;&gt;1075</title>
<path fill="none" stroke="red" stroke-width="0.39" d="M540.83,-151.16C534.68,-143.15 524.89,-130.39 515.94,-118.72"/>
<polygon fill="red" stroke="red" stroke-width="0.39" points="518.49,-116.3 509.63,-110.5 512.94,-120.57 518.49,-116.3"/>
</g>
<!-- &#45;5 -->
<g id="node5" class="node">
<title>&#45;5</title>
<polygon fill="lightgray" stroke="black" points="601,-169.2 577,-169.2 577,-151.2 601,-151.2 601,-169.2"/>
<text text-anchor="middle" x="589" y="-158" font-family="Times New Roman,serif" font-size="9.00">&#45;5</text>
</g>
<!-- &#45;5&#45;&gt;1070 -->
<g id="edge25" class="edge">
<title>&#45;5&#45;&gt;1070</title>
<path fill="none" stroke="green" stroke-width="0.29" d="M576.74,-153.89C573.91,-152.85 570.89,-151.87 568,-151.2 404.97,-113.05 349.71,-174.14 193,-115.2 191.12,-114.49 189.24,-113.64 187.4,-112.7"/>
<polygon fill="green" stroke="green" stroke-width="0.29" points="188.92,-109.53 178.55,-107.36 185.31,-115.52 188.92,-109.53"/>
</g>
<!-- &#45;5&#45;&gt;1071 -->
<g id="edge26" class="edge">
<title>&#45;5&#45;&gt;1071</title>
<path fill="none" stroke="green" stroke-width="0.35" d="M576.73,-153.94C573.9,-152.89 570.88,-151.9 568,-151.2 434.13,-118.41 388.49,-165.04 260,-115.2 258.12,-114.47 256.26,-113.61 254.42,-112.65"/>
<polygon fill="green" stroke="green" stroke-width="0.35" points="255.95,-109.49 245.58,-107.28 252.31,-115.47 255.95,-109.49"/>
</g>
<!-- &#45;5&#45;&gt;1072 -->
<g id="edge27" class="edge">
<title>&#45;5&#45;&gt;1072</title>
<path fill="none" stroke="red" stroke-width="0.33" d="M576.71,-154.01C573.88,-152.96 570.87,-151.95 568,-151.2 463.23,-123.76 427.33,-155.97 327,-115.2 325.14,-114.44 323.28,-113.56 321.45,-112.58"/>
<polygon fill="red" stroke="red" stroke-width="0.33" points="322.98,-109.42 312.63,-107.16 319.32,-115.38 322.98,-109.42"/>
</g>
<!-- &#45;5&#45;&gt;1073 -->
<g id="edge28" class="edge">
<title>&#45;5&#45;&gt;1073</title>
<path fill="none" stroke="green" stroke-width="0.25" d="M576.68,-154.12C573.85,-153.07 570.85,-152.03 568,-151.2 492.19,-129.07 466.3,-146.96 394,-115.2 392.16,-114.39 390.32,-113.46 388.5,-112.46"/>
<polygon fill="green" stroke="green" stroke-width="0.25" points="390.05,-109.3 379.72,-106.96 386.33,-115.23 390.05,-109.3"/>
</g>
<!-- &#45;5&#45;&gt;1074 -->
<g id="edge29" class="edge">
<title>&#45;5&#45;&gt;1074</title>
<path fill="none" stroke="green" stroke-width="0.44" d="M576.59,-154.38C573.78,-153.31 570.79,-152.2 568,-151.2 520.77,-134.26 505.64,-138.11 461,-115.2 459.21,-114.28 457.41,-113.27 455.62,-112.2"/>
<polygon fill="green" stroke="green" stroke-width="0.44" points="457.21,-109.06 446.92,-106.53 453.39,-114.92 457.21,-109.06"/>
</g>
<!-- &#45;5&#45;&gt;1075 -->
<g id="edge30" class="edge">
<title>&#45;5&#45;&gt;1075</title>
<path fill="none" stroke="red" stroke-width="0.5" d="M577.85,-151.16C564.47,-141.52 541.57,-125.01 523.22,-111.79"/>
<polygon fill="red" stroke="red" stroke-width="0.5" points="524.81,-108.62 514.65,-105.61 520.71,-114.29 524.81,-108.62"/>
</g>
<!-- &#45;6 -->
<g id="node6" class="node">
<title>&#45;6</title>
<polygon fill="lightgray" stroke="black" points="643,-169.2 619,-169.2 619,-151.2 643,-151.2 643,-169.2"/>
<text text-anchor="middle" x="631" y="-158" font-family="Times New Roman,serif" font-size="9.00">&#45;6</text>
</g>
<!-- &#45;6&#45;&gt;1070 -->
<g id="edge31" class="edge">
<title>&#45;6&#45;&gt;1070</title>
<path fill="none" stroke="green" stroke-width="0.18" d="M618.74,-153.87C615.92,-152.83 612.89,-151.86 610,-151.2 428.67,-109.68 367.43,-179.85 193,-115.2 191.11,-114.5 189.24,-113.66 187.4,-112.72"/>
<polygon fill="green" stroke="green" stroke-width="0.18" points="188.91,-109.55 178.54,-107.39 185.3,-115.55 188.91,-109.55"/>
</g>
<!-- &#45;6&#45;&gt;1071 -->
<g id="edge32" class="edge">
<title>&#45;6&#45;&gt;1071</title>
<path fill="none" stroke="red" stroke-width="0.17" d="M618.73,-153.91C615.91,-152.86 612.88,-151.88 610,-151.2 457.86,-115.05 406.18,-170.74 260,-115.2 258.12,-114.48 256.25,-113.63 254.41,-112.69"/>
<polygon fill="red" stroke="red" stroke-width="0.17" points="255.93,-109.52 245.56,-107.33 252.31,-115.5 255.93,-109.52"/>
</g>
<!-- &#45;6&#45;&gt;1072 -->
<g id="edge33" class="edge">
<title>&#45;6&#45;&gt;1072</title>
<path fill="none" stroke="red" stroke-width="0.23" d="M618.72,-153.96C615.9,-152.91 612.88,-151.92 610,-151.2 487,-120.41 444.97,-161.66 327,-115.2 325.13,-114.46 323.26,-113.59 321.43,-112.63"/>
<polygon fill="red" stroke="red" stroke-width="0.23" points="322.96,-109.46 312.6,-107.24 319.31,-115.44 322.96,-109.46"/>
</g>
<!-- &#45;6&#45;&gt;1073 -->
<g id="edge34" class="edge">
<title>&#45;6&#45;&gt;1073</title>
<path fill="none" stroke="red" stroke-width="0.3" d="M618.7,-154.04C615.88,-152.99 612.86,-151.97 610,-151.2 516.06,-125.75 483.85,-152.6 394,-115.2 392.14,-114.42 390.29,-113.53 388.46,-112.55"/>
<polygon fill="red" stroke="red" stroke-width="0.3" points="390,-109.38 379.66,-107.1 386.32,-115.34 390,-109.38"/>
</g>
<!-- &#45;6&#45;&gt;1074 -->
<g id="edge35" class="edge">
<title>&#45;6&#45;&gt;1074</title>
<path fill="none" stroke="green" stroke-width="0.2" d="M618.65,-154.19C615.83,-153.14 612.83,-152.07 610,-151.2 544.93,-131.03 522.91,-143.62 461,-115.2 459.17,-114.36 457.34,-113.41 455.53,-112.39"/>
<polygon fill="green" stroke="green" stroke-width="0.2" points="457.09,-109.23 446.77,-106.84 453.35,-115.15 457.09,-109.23"/>
</g>
<!-- &#45;6&#45;&gt;1075 -->
<g id="edge36" class="edge">
<title>&#45;6&#45;&gt;1075</title>
<path fill="none" stroke="red" stroke-width="0.2" d="M618.93,-153.18C598.28,-142.9 555.56,-121.61 526.1,-106.94"/>
<polygon fill="red" stroke="red" stroke-width="0.2" points="527.55,-103.75 517.04,-102.43 524.43,-110.02 527.55,-103.75"/>
</g>
<!-- &#45;7 -->
<g id="node7" class="node">
<title>&#45;7</title>
<polygon fill="lightgray" stroke="black" points="24,-169.2 0,-169.2 0,-151.2 24,-151.2 24,-169.2"/>
<text text-anchor="middle" x="12" y="-158" font-family="Times New Roman,serif" font-size="9.00">&#45;7</text>
</g>
<!-- &#45;7&#45;&gt;1070 -->
<g id="edge37" class="edge">
<title>&#45;7&#45;&gt;1070</title>
<path fill="none" stroke="green" stroke-width="0.27" d="M24.11,-153.65C46.73,-143.3 96.05,-120.72 128.63,-105.8"/>
<polygon fill="green" stroke="green" stroke-width="0.27" points="130.12,-108.98 137.75,-101.63 127.2,-102.61 130.12,-108.98"/>
</g>
<!-- &#45;7&#45;&gt;1071 -->
<g id="edge38" class="edge">
<title>&#45;7&#45;&gt;1071</title>
<path fill="none" stroke="green" stroke-width="0.18" d="M24.33,-154.16C27.16,-153.1 30.16,-152.05 33,-151.2 103.22,-130.09 127.11,-145.22 194,-115.2 195.84,-114.37 197.67,-113.44 199.48,-112.43"/>
<polygon fill="green" stroke="green" stroke-width="0.18" points="201.66,-115.19 208.26,-106.9 197.93,-109.27 201.66,-115.19"/>
</g>
<!-- &#45;7&#45;&gt;1072 -->
<g id="edge39" class="edge">
<title>&#45;7&#45;&gt;1072</title>
<path fill="none" stroke="green" stroke-width="0.14" d="M24.3,-154.02C27.12,-152.97 30.13,-151.96 33,-151.2 132.13,-124.79 166.12,-154.22 261,-115.2 262.86,-114.43 264.72,-113.54 266.54,-112.57"/>
<polygon fill="green" stroke="green" stroke-width="0.14" points="268.68,-115.36 275.36,-107.13 265.01,-109.4 268.68,-115.36"/>
</g>
<!-- &#45;7&#45;&gt;1073 -->
<g id="edge40" class="edge">
<title>&#45;7&#45;&gt;1073</title>
<path fill="none" stroke="green" stroke-width="0.34" d="M24.28,-153.95C27.1,-152.9 30.12,-151.91 33,-151.2 161.21,-119.45 204.98,-163.28 328,-115.2 329.87,-114.46 331.74,-113.6 333.57,-112.64"/>
<polygon fill="green" stroke="green" stroke-width="0.34" points="335.69,-115.45 342.41,-107.26 332.05,-109.48 335.69,-115.45"/>
</g>
<!-- &#45;7&#45;&gt;1074 -->
<g id="edge41" class="edge">
<title>&#45;7&#45;&gt;1074</title>
<path fill="none" stroke="red" stroke-width="0.24" d="M24.27,-153.9C27.09,-152.86 30.11,-151.88 33,-151.2 190.37,-114.09 243.77,-172.37 395,-115.2 396.88,-114.48 398.75,-113.64 400.59,-112.69"/>
<polygon fill="red" stroke="red" stroke-width="0.24" points="402.69,-115.51 409.44,-107.35 399.07,-109.52 402.69,-115.51"/>
</g>
<!-- &#45;7&#45;&gt;1075 -->
<g id="edge42" class="edge">
<title>&#45;7&#45;&gt;1075</title>
<path fill="none" stroke="green" stroke-width="0.38" d="M24.26,-153.87C27.08,-152.83 30.11,-151.85 33,-151.2 219.56,-108.72 282.51,-181.48 462,-115.2 463.89,-114.5 465.76,-113.66 467.61,-112.73"/>
<polygon fill="green" stroke="green" stroke-width="0.38" points="469.7,-115.56 476.46,-107.4 466.09,-109.56 469.7,-115.56"/>
</g>
<!-- &#45;8 -->
<g id="node8" class="node">
<title>&#45;8</title>
<polygon fill="lightgray" stroke="black" points="66,-169.2 42,-169.2 42,-151.2 66,-151.2 66,-169.2"/>
<text text-anchor="middle" x="54" y="-158" font-family="Times New Roman,serif" font-size="9.00">&#45;8</text>
</g>
<!-- &#45;8&#45;&gt;1070 -->
<g id="edge43" class="edge">
<title>&#45;8&#45;&gt;1070</title>
<path fill="none" stroke="red" stroke-width="0.1" d="M66.16,-151.42C81.77,-141.45 109.36,-123.81 130.6,-110.24"/>
<polygon fill="red" stroke="red" stroke-width="0.1" points="132.72,-113.04 139.26,-104.7 128.95,-107.14 132.72,-113.04"/>
</g>
<!-- &#45;8&#45;&gt;1071 -->
<g id="edge44" class="edge">
<title>&#45;8&#45;&gt;1071</title>
<path fill="none" stroke="red" stroke-width="0.1" d="M66.38,-154.31C69.2,-153.25 72.19,-152.15 75,-151.2 127.29,-133.35 144.46,-139.67 194,-115.2 195.8,-114.31 197.61,-113.32 199.41,-112.27"/>
<polygon fill="red" stroke="red" stroke-width="0.1" points="201.63,-115 208.13,-106.64 197.83,-109.12 201.63,-115"/>
</g>
<!-- &#45;8&#45;&gt;1072 -->
<g id="edge45" class="edge">
<title>&#45;8&#45;&gt;1072</title>
<path fill="none" stroke="red" stroke-width="0.27" d="M66.32,-154.1C69.14,-153.04 72.15,-152.01 75,-151.2 155.98,-128.12 183.69,-148.57 261,-115.2 262.85,-114.4 264.69,-113.48 266.51,-112.49"/>
<polygon fill="red" stroke="red" stroke-width="0.27" points="268.67,-115.27 275.3,-107.01 264.97,-109.33 268.67,-115.27"/>
</g>
<!-- &#45;8&#45;&gt;1073 -->
<g id="edge46" class="edge">
<title>&#45;8&#45;&gt;1073</title>
<path fill="none" stroke="red" stroke-width="0.13" d="M66.29,-153.99C69.11,-152.94 72.13,-151.94 75,-151.2 184.97,-122.8 222.63,-157.6 328,-115.2 329.87,-114.44 331.73,-113.57 333.56,-112.6"/>
<polygon fill="red" stroke="red" stroke-width="0.13" points="335.68,-115.4 342.38,-107.19 332.03,-109.43 335.68,-115.4"/>
</g>
<!-- &#45;8&#45;&gt;1074 -->
<g id="edge47" class="edge">
<title>&#45;8&#45;&gt;1074</title>
<path fill="none" stroke="green" stroke-width="0.13" d="M66.27,-153.93C69.1,-152.88 72.12,-151.9 75,-151.2 214.08,-117.45 261.46,-166.67 395,-115.2 396.88,-114.47 398.75,-113.62 400.58,-112.66"/>
<polygon fill="green" stroke="green" stroke-width="0.13" points="402.69,-115.48 409.42,-107.3 399.06,-109.5 402.69,-115.48"/>
</g>
<!-- &#45;8&#45;&gt;1075 -->
<g id="edge48" class="edge">
<title>&#45;8&#45;&gt;1075</title>
<path fill="none" stroke="red" stroke-width="0.1" d="M66.26,-153.89C69.09,-152.84 72.11,-151.87 75,-151.2 243.26,-112.09 300.23,-175.77 462,-115.2 463.88,-114.49 465.76,-113.65 467.6,-112.71"/>
<polygon fill="red" stroke="red" stroke-width="0.1" points="469.69,-115.53 476.45,-107.37 466.08,-109.54 469.69,-115.53"/>
</g>
<!-- &#45;9 -->
<g id="node9" class="node">
<title>&#45;9</title>
<polygon fill="lightgray" stroke="black" points="108,-169.2 84,-169.2 84,-151.2 108,-151.2 108,-169.2"/>
<text text-anchor="middle" x="96" y="-158" font-family="Times New Roman,serif" font-size="9.00">&#45;9</text>
</g>
<!-- &#45;9&#45;&gt;1070 -->
<g id="edge49" class="edge">
<title>&#45;9&#45;&gt;1070</title>
<path fill="none" stroke="red" stroke-width="0.21" d="M103.59,-151.16C111.65,-142.62 124.8,-128.7 136.38,-116.45"/>
<polygon fill="red" stroke="red" stroke-width="0.21" points="139,-118.77 143.32,-109.1 133.91,-113.97 139,-118.77"/>
</g>
<!-- &#45;9&#45;&gt;1071 -->
<g id="edge50" class="edge">
<title>&#45;9&#45;&gt;1071</title>
<path fill="none" stroke="red" stroke-width="0.22" d="M108.15,-154.66C127.06,-147.4 164.43,-132.24 194,-115.2 195.74,-114.19 197.51,-113.12 199.27,-112"/>
<polygon fill="red" stroke="red" stroke-width="0.22" points="201.55,-114.68 207.89,-106.19 197.64,-108.87 201.55,-114.68"/>
</g>
<!-- &#45;9&#45;&gt;1072 -->
<g id="edge51" class="edge">
<title>&#45;9&#45;&gt;1072</title>
<path fill="none" stroke="green" stroke-width="0.3" d="M108.35,-154.21C111.17,-153.15 114.17,-152.08 117,-151.2 179.94,-131.42 201.16,-142.96 261,-115.2 262.82,-114.35 264.65,-113.4 266.46,-112.37"/>
<polygon fill="green" stroke="green" stroke-width="0.3" points="268.65,-115.13 275.22,-106.81 264.9,-109.22 268.65,-115.13"/>
</g>
<!-- &#45;9&#45;&gt;1073 -->
<g id="edge52" class="edge">
<title>&#45;9&#45;&gt;1073</title>
<path fill="none" stroke="green" stroke-width="0.36" d="M108.3,-154.05C111.13,-153 114.14,-151.98 117,-151.2 208.77,-126.14 240.24,-151.93 328,-115.2 329.86,-114.42 331.71,-113.52 333.53,-112.54"/>
<polygon fill="green" stroke="green" stroke-width="0.36" points="335.68,-115.33 342.34,-107.09 331.99,-109.38 335.68,-115.33"/>
</g>
<!-- &#45;9&#45;&gt;1074 -->
<g id="edge53" class="edge">
<title>&#45;9&#45;&gt;1074</title>
<path fill="none" stroke="red" stroke-width="0.23" d="M108.28,-153.97C111.11,-152.92 114.12,-151.92 117,-151.2 237.82,-120.81 279.13,-160.98 395,-115.2 396.87,-114.46 398.73,-113.59 400.57,-112.63"/>
<polygon fill="red" stroke="red" stroke-width="0.23" points="402.69,-115.43 409.4,-107.24 399.04,-109.46 402.69,-115.43"/>
</g>
<!-- &#45;9&#45;&gt;1075 -->
<g id="edge54" class="edge">
<title>&#45;9&#45;&gt;1075</title>
<path fill="none" stroke="red" stroke-width="0.32" d="M108.27,-153.91C111.09,-152.87 114.12,-151.88 117,-151.2 266.97,-115.45 317.93,-170.06 462,-115.2 463.88,-114.48 465.75,-113.63 467.59,-112.68"/>
<polygon fill="red" stroke="red" stroke-width="0.32" points="469.69,-115.5 476.43,-107.33 466.07,-109.51 469.69,-115.5"/>
</g>
<!-- &#45;10 -->
<g id="node10" class="node">
<title>&#45;10</title>
<polygon fill="lightgray" stroke="black" points="155.5,-169.2 126.5,-169.2 126.5,-151.2 155.5,-151.2 155.5,-169.2"/>
<text text-anchor="middle" x="141" y="-158" font-family="Times New Roman,serif" font-size="9.00">&#45;10</text>
</g>
<!-- &#45;10&#45;&gt;1070 -->
<g id="edge55" class="edge">
<title>&#45;10&#45;&gt;1070</title>
<path fill="none" stroke="red" stroke-width="0.27" d="M143.25,-151.16C145.14,-144.43 147.97,-134.35 150.76,-124.38"/>
<polygon fill="red" stroke="red" stroke-width="0.27" points="154.18,-125.15 153.51,-114.57 147.44,-123.26 154.18,-125.15"/>
</g>
<!-- &#45;10&#45;&gt;1071 -->
<g id="edge56" class="edge">
<title>&#45;10&#45;&gt;1071</title>
<path fill="none" stroke="green" stroke-width="0.29" d="M151.2,-151.16C163.1,-141.79 183.24,-125.92 199.78,-112.89"/>
<polygon fill="green" stroke="green" stroke-width="0.29" points="202.34,-115.33 208.03,-106.39 198.01,-109.83 202.34,-115.33"/>
</g>
<!-- &#45;10&#45;&gt;1072 -->
<g id="edge57" class="edge">
<title>&#45;10&#45;&gt;1072</title>
<path fill="none" stroke="red" stroke-width="0.14" d="M155.65,-154.08C185.49,-143.61 251.35,-120.32 261,-115.2 262.78,-114.25 264.57,-113.23 266.35,-112.15"/>
<polygon fill="red" stroke="red" stroke-width="0.14" points="268.6,-114.85 275.03,-106.43 264.75,-109.01 268.6,-114.85"/>
</g>
<!-- &#45;10&#45;&gt;1073 -->
<g id="edge58" class="edge">
<title>&#45;10&#45;&gt;1073</title>
<path fill="none" stroke="red" stroke-width="0.33" d="M155.52,-153.85C158.31,-152.91 161.23,-151.98 164,-151.2 235.81,-130.9 259.86,-145.62 328,-115.2 329.84,-114.38 331.67,-113.44 333.49,-112.44"/>
<polygon fill="red" stroke="red" stroke-width="0.33" points="335.66,-115.2 342.26,-106.92 331.94,-109.28 335.66,-115.2"/>
</g>
<!-- &#45;10&#45;&gt;1074 -->
<g id="edge59" class="edge">
<title>&#45;10&#45;&gt;1074</title>
<path fill="none" stroke="red" stroke-width="0.33" d="M155.98,-153.55C158.62,-152.68 161.37,-151.85 164,-151.2 264.81,-126.03 298.86,-154.62 395,-115.2 396.86,-114.43 398.72,-113.54 400.55,-112.57"/>
<polygon fill="red" stroke="red" stroke-width="0.33" points="402.68,-115.37 409.36,-107.14 399.01,-109.41 402.68,-115.37"/>
</g>
<!-- &#45;10&#45;&gt;1075 -->
<g id="edge60" class="edge">
<title>&#45;10&#45;&gt;1075</title>
<path fill="none" stroke="green" stroke-width="0.16" d="M155.96,-153.48C158.61,-152.61 161.36,-151.81 164,-151.2 293.97,-121.11 337.72,-163.69 462,-115.2 463.87,-114.46 465.74,-113.6 467.58,-112.65"/>
<polygon fill="green" stroke="green" stroke-width="0.16" points="469.69,-115.46 476.41,-107.27 466.05,-109.48 469.69,-115.46"/>
</g>
<!-- &#45;11 -->
<g id="node11" class="node">
<title>&#45;11</title>
<polygon fill="lightgray" stroke="black" points="202.5,-169.2 173.5,-169.2 173.5,-151.2 202.5,-151.2 202.5,-169.2"/>
<text text-anchor="middle" x="188" y="-158" font-family="Times New Roman,serif" font-size="9.00">&#45;11</text>
</g>
<!-- &#45;11&#45;&gt;1070 -->
<g id="edge61" class="edge">
<title>&#45;11&#45;&gt;1070</title>
<path fill="none" stroke="green" stroke-width="0.24" d="M184.68,-151.16C181.77,-144.13 177.36,-133.44 173.06,-123.04"/>
<polygon fill="green" stroke="green" stroke-width="0.24" points="176.24,-121.59 169.19,-113.68 169.78,-124.26 176.24,-121.59"/>
</g>
<!-- &#45;11&#45;&gt;1071 -->
<g id="edge62" class="edge">
<title>&#45;11&#45;&gt;1071</title>
<path fill="none" stroke="green" stroke-width="0.24" d="M192.63,-151.16C196.91,-143.71 203.56,-132.16 209.88,-121.19"/>
<polygon fill="green" stroke="green" stroke-width="0.24" points="213.08,-122.64 215.04,-112.22 207.02,-119.14 213.08,-122.64"/>
</g>
<!-- &#45;11&#45;&gt;1072 -->
<g id="edge63" class="edge">
<title>&#45;11&#45;&gt;1072</title>
<path fill="none" stroke="red" stroke-width="0.12" d="M202.21,-151.09C217.07,-142.51 240.99,-128.4 261,-115.2 262.64,-114.12 264.3,-112.99 265.98,-111.85"/>
<polygon fill="red" stroke="red" stroke-width="0.12" points="268.1,-114.63 274.29,-106.03 264.09,-108.9 268.1,-114.63"/>
</g>
<!-- &#45;11&#45;&gt;1073 -->
<g id="edge64" class="edge">
<title>&#45;11&#45;&gt;1073</title>
<path fill="none" stroke="green" stroke-width="0.2" d="M202.57,-154.04C205.36,-153.08 208.27,-152.09 211,-151.2 262.7,-134.26 279.28,-139.41 328,-115.2 329.8,-114.3 331.61,-113.31 333.4,-112.26"/>
<polygon fill="green" stroke="green" stroke-width="0.2" points="335.63,-114.99 342.12,-106.62 331.83,-109.11 335.63,-114.99"/>
</g>
<!-- &#45;11&#45;&gt;1074 -->
<g id="edge65" class="edge">
<title>&#45;11&#45;&gt;1074</title>
<path fill="none" stroke="green" stroke-width="0.1" d="M202.5,-153.8C205.3,-152.86 208.22,-151.95 211,-151.2 291.44,-129.45 318.53,-148.3 395,-115.2 396.85,-114.4 398.69,-113.48 400.51,-112.49"/>
<polygon fill="green" stroke="green" stroke-width="0.1" points="402.67,-115.26 409.3,-107 398.96,-109.32 402.67,-115.26"/>
</g>
<!-- &#45;11&#45;&gt;1075 -->
<g id="edge66" class="edge">
<title>&#45;11&#45;&gt;1075</title>
<path fill="none" stroke="green" stroke-width="0.17" d="M202.97,-153.53C205.62,-152.66 208.37,-151.84 211,-151.2 320.5,-124.56 357.47,-157.32 462,-115.2 463.87,-114.44 465.73,-113.57 467.56,-112.6"/>
<polygon fill="green" stroke="green" stroke-width="0.17" points="469.68,-115.4 476.38,-107.19 466.02,-109.43 469.68,-115.4"/>
</g>
<!-- &#45;12 -->
<g id="node12" class="node">
<title>&#45;12</title>
<polygon fill="lightgray" stroke="black" points="249.5,-169.2 220.5,-169.2 220.5,-151.2 249.5,-151.2 249.5,-169.2"/>
<text text-anchor="middle" x="235" y="-158" font-family="Times New Roman,serif" font-size="9.00">&#45;12</text>
</g>
<!-- &#45;12&#45;&gt;1070 -->
<g id="edge67" class="edge">
<title>&#45;12&#45;&gt;1070</title>
<path fill="none" stroke="green" stroke-width="0.22" d="M226.1,-151.16C216.15,-142.17 199.58,-127.2 185.52,-114.5"/>
<polygon fill="green" stroke="green" stroke-width="0.22" points="187.79,-111.83 178.02,-107.73 183.1,-117.03 187.79,-111.83"/>
</g>
<!-- &#45;12&#45;&gt;1071 -->
<g id="edge68" class="edge">
<title>&#45;12&#45;&gt;1071</title>
<path fill="none" stroke="red" stroke-width="0.34" d="M234.05,-151.16C233.28,-144.6 232.13,-134.87 230.98,-125.15"/>
<polygon fill="red" stroke="red" stroke-width="0.34" points="234.45,-124.69 229.8,-115.17 227.5,-125.51 234.45,-124.69"/>
</g>
<!-- &#45;12&#45;&gt;1072 -->
<g id="edge69" class="edge">
<title>&#45;12&#45;&gt;1072</title>
<path fill="none" stroke="green" stroke-width="0.18" d="M242,-151.16C249.26,-142.82 261,-129.34 271.49,-117.3"/>
<polygon fill="green" stroke="green" stroke-width="0.18" points="274.21,-119.5 278.14,-109.66 268.93,-114.9 274.21,-119.5"/>
</g>
<!-- &#45;12&#45;&gt;1073 -->
<g id="edge70" class="edge">
<title>&#45;12&#45;&gt;1073</title>
<path fill="none" stroke="red" stroke-width="0.35" d="M249.6,-153.27C268.27,-145.47 301.38,-130.89 328,-115.2 329.69,-114.2 331.4,-113.14 333.1,-112.05"/>
<polygon fill="red" stroke="red" stroke-width="0.35" points="335.18,-114.87 341.5,-106.37 331.26,-109.07 335.18,-114.87"/>
</g>
<!-- &#45;12&#45;&gt;1074 -->
<g id="edge71" class="edge">
<title>&#45;12&#45;&gt;1074</title>
<path fill="none" stroke="red" stroke-width="0.5" d="M249.54,-153.95C252.34,-152.99 255.25,-152.03 258,-151.2 318.22,-132.84 338.05,-142.03 395,-115.2 396.82,-114.34 398.64,-113.38 400.45,-112.35"/>
<polygon fill="red" stroke="red" stroke-width="0.5" points="402.65,-115.1 409.2,-106.77 398.88,-109.19 402.65,-115.1"/>
</g>
<!-- &#45;12&#45;&gt;1075 -->
<g id="edge72" class="edge">
<title>&#45;12&#45;&gt;1075</title>
<path fill="none" stroke="green" stroke-width="0.11" d="M249.99,-153.6C252.63,-152.72 255.38,-151.88 258,-151.2 347.1,-128 377.17,-150.98 462,-115.2 463.85,-114.41 465.7,-113.51 467.53,-112.53"/>
<polygon fill="green" stroke="green" stroke-width="0.11" points="469.68,-115.31 476.33,-107.07 465.99,-109.36 469.68,-115.31"/>
</g>
<!-- &#45;13 -->
<g id="node13" class="node">
<title>&#45;13</title>
<polygon fill="lightgray" stroke="black" points="296.5,-169.2 267.5,-169.2 267.5,-151.2 296.5,-151.2 296.5,-169.2"/>
<text text-anchor="middle" x="282" y="-158" font-family="Times New Roman,serif" font-size="9.00">&#45;13</text>
</g>
<!-- &#45;13&#45;&gt;1070 -->
<g id="edge73" class="edge">
<title>&#45;13&#45;&gt;1070</title>
<path fill="none" stroke="green" stroke-width="0.23" d="M267.43,-152.89C249.48,-144.92 218.26,-130.39 193,-115.2 191.32,-114.19 189.62,-113.12 187.92,-112.01"/>
<polygon fill="green" stroke="green" stroke-width="0.23" points="189.77,-109.04 179.53,-106.31 185.83,-114.83 189.77,-109.04"/>
</g>
<!-- &#45;13&#45;&gt;1071 -->
<g id="edge74" class="edge">
<title>&#45;13&#45;&gt;1071</title>
<path fill="none" stroke="green" stroke-width="0.13" d="M275.47,-151.16C268.86,-143.01 258.27,-129.96 248.67,-118.14"/>
<polygon fill="green" stroke="green" stroke-width="0.13" points="251.26,-115.78 242.24,-110.22 245.83,-120.19 251.26,-115.78"/>
</g>
<!-- &#45;13&#45;&gt;1072 -->
<g id="edge75" class="edge">
<title>&#45;13&#45;&gt;1072</title>
<path fill="none" stroke="green" stroke-width="0.35" d="M283.42,-151.16C284.59,-144.55 286.34,-134.71 288.07,-124.92"/>
<polygon fill="green" stroke="green" stroke-width="0.35" points="291.55,-125.33 289.85,-114.87 284.66,-124.11 291.55,-125.33"/>
</g>
<!-- &#45;13&#45;&gt;1073 -->
<g id="edge76" class="edge">
<title>&#45;13&#45;&gt;1073</title>
<path fill="none" stroke="green" stroke-width="0.5" d="M291.37,-151.16C301.99,-142.05 319.77,-126.8 334.7,-114"/>
<polygon fill="green" stroke="green" stroke-width="0.5" points="337.33,-116.36 342.64,-107.19 332.77,-111.04 337.33,-116.36"/>
</g>
<!-- &#45;13&#45;&gt;1074 -->
<g id="edge77" class="edge">
<title>&#45;13&#45;&gt;1074</title>
<path fill="none" stroke="green" stroke-width="0.3" d="M296.74,-153.98C323.13,-144.56 377.33,-124.79 395,-115.2 396.77,-114.24 398.55,-113.2 400.32,-112.1"/>
<polygon fill="green" stroke="green" stroke-width="0.3" points="402.59,-114.8 408.99,-106.36 398.72,-108.97 402.59,-114.8"/>
</g>
<!-- &#45;13&#45;&gt;1075 -->
<g id="edge78" class="edge">
<title>&#45;13&#45;&gt;1075</title>
<path fill="none" stroke="green" stroke-width="0.26" d="M296.52,-153.88C299.32,-152.93 302.24,-151.99 305,-151.2 373.8,-131.41 396.77,-144.69 462,-115.2 463.83,-114.37 465.67,-113.43 467.48,-112.42"/>
<polygon fill="green" stroke="green" stroke-width="0.26" points="469.66,-115.18 476.25,-106.88 465.92,-109.26 469.66,-115.18"/>
</g>
<!-- &#45;14 -->
<g id="node14" class="node">
<title>&#45;14</title>
<polygon fill="lightgray" stroke="black" points="343.5,-169.2 314.5,-169.2 314.5,-151.2 343.5,-151.2 343.5,-169.2"/>
<text text-anchor="middle" x="329" y="-158" font-family="Times New Roman,serif" font-size="9.00">&#45;14</text>
</g>
<!-- &#45;14&#45;&gt;1070 -->
<g id="edge79" class="edge">
<title>&#45;14&#45;&gt;1070</title>
<path fill="none" stroke="red" stroke-width="0.29" d="M314.29,-154.26C311.22,-153.24 308.01,-152.18 305,-151.2 255.31,-134.93 239.68,-138.75 193,-115.2 191.2,-114.29 189.4,-113.29 187.61,-112.23"/>
<polygon fill="red" stroke="red" stroke-width="0.29" points="189.19,-109.09 178.9,-106.57 185.38,-114.96 189.19,-109.09"/>
</g>
<!-- &#45;14&#45;&gt;1071 -->
<g id="edge80" class="edge">
<title>&#45;14&#45;&gt;1071</title>
<path fill="none" stroke="red" stroke-width="0.19" d="M315.89,-151.14C301.9,-142.48 279.17,-128.19 260,-115.2 258.38,-114.1 256.72,-112.96 255.05,-111.8"/>
<polygon fill="red" stroke="red" stroke-width="0.19" points="256.95,-108.85 246.77,-105.95 252.92,-114.57 256.95,-108.85"/>
</g>
<!-- &#45;14&#45;&gt;1072 -->
<g id="edge81" class="edge">
<title>&#45;14&#45;&gt;1072</title>
<path fill="none" stroke="green" stroke-width="0.21" d="M324.85,-151.16C321.09,-143.89 315.32,-132.72 309.79,-122"/>
<polygon fill="green" stroke="green" stroke-width="0.21" points="312.73,-120.08 305.03,-112.8 306.51,-123.3 312.73,-120.08"/>
</g>
<!-- &#45;14&#45;&gt;1073 -->
<g id="edge82" class="edge">
<title>&#45;14&#45;&gt;1073</title>
<path fill="none" stroke="green" stroke-width="0.15" d="M332.8,-151.16C336.2,-143.95 341.43,-132.89 346.45,-122.24"/>
<polygon fill="green" stroke="green" stroke-width="0.15" points="349.67,-123.63 350.77,-113.1 343.34,-120.64 349.67,-123.63"/>
</g>
<!-- &#45;14&#45;&gt;1074 -->
<g id="edge83" class="edge">
<title>&#45;14&#45;&gt;1074</title>
<path fill="none" stroke="green" stroke-width="0.18" d="M341.74,-150.89C355.1,-142.15 376.66,-127.9 395,-115.2 396.61,-114.08 398.26,-112.93 399.92,-111.76"/>
<polygon fill="green" stroke="green" stroke-width="0.18" points="402.07,-114.53 408.19,-105.88 398.01,-108.82 402.07,-114.53"/>
</g>
<!-- &#45;14&#45;&gt;1075 -->
<g id="edge84" class="edge">
<title>&#45;14&#45;&gt;1075</title>
<path fill="none" stroke="red" stroke-width="0.28" d="M343.72,-154.28C346.79,-153.26 350,-152.19 353,-151.2 401.42,-135.13 416.55,-138.36 462,-115.2 463.79,-114.28 465.59,-113.28 467.38,-112.21"/>
<polygon fill="red" stroke="red" stroke-width="0.28" points="469.62,-114.94 476.09,-106.55 465.8,-109.07 469.62,-114.94"/>
</g>
<!-- &#45;15 -->
<g id="node15" class="node">
<title>&#45;15</title>
<polygon fill="lightgray" stroke="black" points="390.5,-169.2 361.5,-169.2 361.5,-151.2 390.5,-151.2 390.5,-169.2"/>
<text text-anchor="middle" x="376" y="-158" font-family="Times New Roman,serif" font-size="9.00">&#45;15</text>
</g>
<!-- &#45;15&#45;&gt;1070 -->
<g id="edge85" class="edge">
<title>&#45;15&#45;&gt;1070</title>
<path fill="none" stroke="red" stroke-width="0.11" d="M361.48,-153.87C358.68,-152.92 355.76,-151.98 353,-151.2 282.91,-131.19 259.48,-145.09 193,-115.2 191.17,-114.37 189.33,-113.44 187.52,-112.42"/>
<polygon fill="red" stroke="red" stroke-width="0.11" points="189.07,-109.27 178.75,-106.9 185.34,-115.19 189.07,-109.27"/>
</g>
<!-- &#45;15&#45;&gt;1071 -->
<g id="edge86" class="edge">
<title>&#45;15&#45;&gt;1071</title>
<path fill="none" stroke="green" stroke-width="0.13" d="M361.4,-153.9C332.35,-143.33 269.3,-120.19 260,-115.2 258.23,-114.24 256.44,-113.21 254.67,-112.12"/>
<polygon fill="green" stroke="green" stroke-width="0.13" points="256.27,-108.98 245.99,-106.39 252.41,-114.83 256.27,-108.98"/>
</g>
<!-- &#45;15&#45;&gt;1072 -->
<g id="edge87" class="edge">
<title>&#45;15&#45;&gt;1072</title>
<path fill="none" stroke="red" stroke-width="0.14" d="M366.27,-151.16C355.07,-141.91 336.21,-126.32 320.56,-113.39"/>
<polygon fill="red" stroke="red" stroke-width="0.14" points="322.67,-110.59 312.73,-106.92 318.21,-115.99 322.67,-110.59"/>
</g>
<!-- &#45;15&#45;&gt;1073 -->
<g id="edge88" class="edge">
<title>&#45;15&#45;&gt;1073</title>
<path fill="none" stroke="green" stroke-width="0.19" d="M374.22,-151.16C372.76,-144.55 370.58,-134.71 368.41,-124.92"/>
<polygon fill="green" stroke="green" stroke-width="0.19" points="371.77,-123.88 366.19,-114.87 364.93,-125.39 371.77,-123.88"/>
</g>
<!-- &#45;15&#45;&gt;1074 -->
<g id="edge89" class="edge">
<title>&#45;15&#45;&gt;1074</title>
<path fill="none" stroke="green" stroke-width="0.25" d="M382.17,-151.16C388.32,-143.15 398.11,-130.39 407.06,-118.72"/>
<polygon fill="green" stroke="green" stroke-width="0.25" points="410.06,-120.57 413.37,-110.5 404.51,-116.3 410.06,-120.57"/>
</g>
<!-- &#45;15&#45;&gt;1075 -->
<g id="edge90" class="edge">
<title>&#45;15&#45;&gt;1075</title>
<path fill="none" stroke="red" stroke-width="0.19" d="M390.67,-152.52C408.08,-144.41 437.81,-129.97 462,-115.2 463.67,-114.17 465.37,-113.1 467.07,-111.98"/>
<polygon fill="red" stroke="red" stroke-width="0.19" points="469.16,-114.79 475.44,-106.26 465.21,-109.02 469.16,-114.79"/>
</g>
<!-- 0 -->
<g id="node16" class="node">
<title>0</title>
<ellipse fill="lightblue" stroke="black" cx="303" cy="-14.85" rx="14.7" ry="14.7"/>
<text text-anchor="middle" x="303" y="-12.65" font-family="Times New Roman,serif" font-size="9.00">0</text>
</g>
<!-- 1 -->
<g id="node17" class="node">
<title>1</title>
<ellipse fill="lightblue" stroke="black" cx="356" cy="-14.85" rx="14.7" ry="14.7"/>
<text text-anchor="middle" x="356" y="-12.65" font-family="Times New Roman,serif" font-size="9.00">1</text>
</g>
<!-- 1070&#45;&gt;0 -->
<g id="edge91" class="edge">
<title>1070&#45;&gt;0</title>
<path fill="none" stroke="red" stroke-width="0.13" d="M179.12,-74.72C183.56,-71.57 188.36,-68.39 193,-65.7 221.8,-49.03 257.16,-33.87 279.89,-24.76"/>
<polygon fill="red" stroke="red" stroke-width="0.13" points="281.35,-27.94 289.37,-21.01 278.78,-21.43 281.35,-27.94"/>
</g>
<!-- 1070&#45;&gt;1 -->
<g id="edge92" class="edge">
<title>1070&#45;&gt;1</title>
<path fill="none" stroke="green" stroke-width="0.29" d="M178.81,-74.15C183.28,-71.03 188.15,-68 193,-65.7 248.71,-39.26 269.16,-51.08 327,-29.7 329.3,-28.85 331.66,-27.89 333.99,-26.87"/>
<polygon fill="green" stroke="green" stroke-width="0.29" points="335.64,-29.96 343.23,-22.57 332.68,-23.62 335.64,-29.96"/>
</g>
<!-- 1071&#45;&gt;0 -->
<g id="edge93" class="edge">
<title>1071&#45;&gt;0</title>
<path fill="none" stroke="green" stroke-width="0.34" d="M244.63,-72.38C256.86,-60.53 273.08,-44.82 285.32,-32.97"/>
<polygon fill="green" stroke="green" stroke-width="0.34" points="287.96,-35.28 292.71,-25.81 283.09,-30.26 287.96,-35.28"/>
</g>
<!-- 1071&#45;&gt;1 -->
<g id="edge94" class="edge">
<title>1071&#45;&gt;1</title>
<path fill="none" stroke="green" stroke-width="0.14" d="M246.58,-74.65C250.92,-71.57 255.55,-68.43 260,-65.7 273.29,-57.53 309.75,-38.97 333.72,-26.95"/>
<polygon fill="green" stroke="green" stroke-width="0.14" points="335.44,-30 342.82,-22.4 332.31,-23.74 335.44,-30"/>
</g>
<!-- 1072&#45;&gt;0 -->
<g id="edge95" class="edge">
<title>1072&#45;&gt;0</title>
<path fill="none" stroke="red" stroke-width="0.32" d="M296.9,-65.76C297.91,-57.46 299.05,-48.14 300.07,-39.82"/>
<polygon fill="red" stroke="red" stroke-width="0.32" points="303.58,-39.98 301.32,-29.62 296.63,-39.13 303.58,-39.98"/>
</g>
<!-- 1072&#45;&gt;1 -->
<g id="edge96" class="edge">
<title>1072&#45;&gt;1</title>
<path fill="none" stroke="red" stroke-width="0.2" d="M309.65,-70.88C319.02,-59.75 330.91,-45.64 340.29,-34.5"/>
<polygon fill="red" stroke="red" stroke-width="0.2" points="343.14,-36.55 346.9,-26.65 337.78,-32.04 343.14,-36.55"/>
</g>
<!-- 1073&#45;&gt;0 -->
<g id="edge97" class="edge">
<title>1073&#45;&gt;0</title>
<path fill="none" stroke="red" stroke-width="0.24" d="M346.06,-70.49C337.48,-59.61 326.73,-45.97 318.12,-35.04"/>
<polygon fill="red" stroke="red" stroke-width="0.24" points="320.69,-32.65 311.76,-26.96 315.2,-36.98 320.69,-32.65"/>
</g>
<!-- 1073&#45;&gt;1 -->
<g id="edge98" class="edge">
<title>1073&#45;&gt;1</title>
<path fill="none" stroke="red" stroke-width="0.13" d="M359.36,-65.35C358.81,-57.19 358.19,-48.07 357.63,-39.92"/>
<polygon fill="red" stroke="red" stroke-width="0.13" points="361.12,-39.64 356.95,-29.9 354.14,-40.11 361.12,-39.64"/>
</g>
<!-- 1074&#45;&gt;0 -->
<g id="edge99" class="edge">
<title>1074&#45;&gt;0</title>
<path fill="none" stroke="green" stroke-width="0.39" d="M408.39,-74.71C404.05,-71.63 399.42,-68.47 395,-65.7 371.8,-51.15 344.03,-36.45 325.11,-26.82"/>
<polygon fill="green" stroke="green" stroke-width="0.39" points="326.6,-23.66 316.09,-22.28 323.45,-29.91 326.6,-23.66"/>
</g>
<!-- 1074&#45;&gt;1 -->
<g id="edge100" class="edge">
<title>1074&#45;&gt;1</title>
<path fill="none" stroke="green" stroke-width="0.12" d="M410.94,-72.01C399.58,-60.4 384.72,-45.21 373.32,-33.55"/>
<polygon fill="green" stroke="green" stroke-width="0.12" points="375.55,-30.83 366.06,-26.13 370.55,-35.73 375.55,-30.83"/>
</g>
<!-- 1075&#45;&gt;0 -->
<g id="edge101" class="edge">
<title>1075&#45;&gt;0</title>
<path fill="none" stroke="red" stroke-width="0.1" d="M476.17,-74.17C471.71,-71.05 466.84,-68.02 462,-65.7 407.94,-39.78 388.15,-50.7 332,-29.7 329.71,-28.84 327.35,-27.87 325.01,-26.85"/>
<polygon fill="red" stroke="red" stroke-width="0.1" points="326.32,-23.6 315.78,-22.55 323.37,-29.95 326.32,-23.6"/>
</g>
<!-- 1075&#45;&gt;1 -->
<g id="edge102" class="edge">
<title>1075&#45;&gt;1</title>
<path fill="none" stroke="green" stroke-width="0.2" d="M475.5,-74.52C471.16,-71.45 466.5,-68.35 462,-65.7 434.46,-49.5 400.8,-34.41 378.9,-25.17"/>
<polygon fill="green" stroke="green" stroke-width="0.2" points="380.03,-21.84 369.45,-21.23 377.34,-28.31 380.03,-21.84"/>
</g>
</g>
</svg>
