<?xml version="1.0" encoding="UTF-8" standalone="no"?>
<!DOCTYPE svg PUBLIC "-//W3C//DTD SVG 1.1//EN"
 "http://www.w3.org/Graphics/SVG/1.1/DTD/svg11.dtd">
<!-- Generated by graphviz version 5.0.0 (20220707.1540)
 -->
<!-- Pages: 1 -->
<svg width="122pt" height="92pt"
 viewBox="0.00 0.00 121.70 91.70" xmlns="http://www.w3.org/2000/svg" xmlns:xlink="http://www.w3.org/1999/xlink">
<g id="graph0" class="graph" transform="scale(1 1) rotate(0) translate(4 87.7)">
<polygon fill="white" stroke="transparent" points="-4,4 -4,-87.7 117.7,-87.7 117.7,4 -4,4"/>
<!-- A -->
<g id="node1" class="node">
<title>A</title>
<polygon fill="lightgray" stroke="black" points="38.35,-83.7 15.35,-83.7 15.35,-65.7 38.35,-65.7 38.35,-83.7"/>
<text text-anchor="middle" x="26.85" y="-72.5" font-family="Times New Roman,serif" font-size="9.00">A</text>
</g>
<!-- 0 -->
<g id="node3" class="node">
<title>0</title>
<ellipse fill="lightblue" stroke="black" cx="14.85" cy="-14.85" rx="14.7" ry="14.7"/>
<text text-anchor="middle" x="14.85" y="-12.65" font-family="Times New Roman,serif" font-size="9.00">0</text>
</g>
<!-- A&#45;&gt;0 -->
<g id="edge1" class="edge">
<title>A&#45;&gt;0</title>
<path fill="none" stroke="red" stroke-width="5.04" d="M25.18,-65.65C23.78,-58.89 21.7,-48.86 19.77,-39.57"/>
<polygon fill="red" stroke="red" stroke-width="5.04" points="24.05,-38.5 17.7,-29.6 15.42,-40.29 24.05,-38.5"/>
</g>
<!-- 1 -->
<g id="node4" class="node">
<title>1</title>
<ellipse fill="lightblue" stroke="black" cx="80.85" cy="-14.85" rx="14.7" ry="14.7"/>
<text text-anchor="middle" x="80.85" y="-12.65" font-family="Times New Roman,serif" font-size="9.00">1</text>
</g>
<!-- A&#45;&gt;1 -->
<g id="edge2" class="edge">
<title>A&#45;&gt;1</title>
<path fill="none" stroke="red" stroke-width="0.87" d="M34.36,-65.65C42.02,-57.44 54.18,-44.42 64.14,-33.75"/>
<polygon fill="red" stroke="red" stroke-width="0.87" points="66.95,-35.86 71.22,-26.17 61.84,-31.09 66.95,-35.86"/>
</g>
<!-- B -->
<g id="node2" class="node">
<title>B</title>
<polygon fill="lightgray" stroke="black" points="85.35,-83.7 62.35,-83.7 62.35,-65.7 85.35,-65.7 85.35,-83.7"/>
<text text-anchor="middle" x="73.85" y="-72.5" font-family="Times New Roman,serif" font-size="9.00">B</text>
</g>
<!-- B&#45;&gt;0 -->
<g id="edge3" class="edge">
<title>B&#45;&gt;0</title>
<path fill="none" stroke="red" stroke-width="0.78" d="M65.65,-65.65C57.08,-57.26 43.4,-43.84 32.39,-33.05"/>
<polygon fill="red" stroke="red" stroke-width="0.78" points="34.55,-30.26 24.96,-25.76 29.65,-35.26 34.55,-30.26"/>
</g>
<!-- B&#45;&gt;1 -->
<g id="edge4" class="edge">
<title>B&#45;&gt;1</title>
<path fill="none" stroke="green" stroke-width="1.14" d="M74.82,-65.65C75.62,-59.05 76.8,-49.33 77.9,-40.23"/>
<polygon fill="green" stroke="green" stroke-width="1.14" points="81.4,-40.4 79.13,-30.06 74.45,-39.56 81.4,-40.4"/>
</g>
<!-- 0&#45;&gt;0 -->
<g id="edge5" class="edge">
<title>0&#45;&gt;0</title>
<path fill="none" stroke="red" stroke-width="0.73" d="M26.64,-23.93C36.87,-28.07 47.7,-25.04 47.7,-14.85 47.7,-8 42.81,-4.39 36.5,-4.01"/>
<polygon fill="red" stroke="red" stroke-width="0.73" points="35.87,-0.57 26.64,-5.77 37.1,-7.46 35.87,-0.57"/>
</g>
<!-- 1&#45;&gt;1 -->
<g id="edge6" class="edge">
<title>1&#45;&gt;1</title>
<path fill="none" stroke="red" stroke-width="1.84" d="M92.64,-23.93C102.87,-28.07 113.7,-25.04 113.7,-14.85 113.7,-8 108.81,-4.39 102.5,-4.01"/>
<polygon fill="red" stroke="red" stroke-width="1.84" points="101.87,-0.57 92.64,-5.77 103.1,-7.46 101.87,-0.57"/>
</g>
</g>
</svg>
