<?xml version="1.0" encoding="UTF-8" standalone="no"?>
<!DOCTYPE svg PUBLIC "-//W3C//DTD SVG 1.1//EN"
 "http://www.w3.org/Graphics/SVG/1.1/DTD/svg11.dtd">
<!-- Generated by graphviz version 2.43.0 (0)
 -->
<!-- Title: %3 Pages: 1 -->
<svg width="686pt" height="95pt"
 viewBox="0.00 0.00 686.00 94.53" xmlns="http://www.w3.org/2000/svg" xmlns:xlink="http://www.w3.org/1999/xlink">
<g id="graph0" class="graph" transform="scale(1 1) rotate(0) translate(4 90.53)">
<title>%3</title>
<polygon fill="white" stroke="transparent" points="-4,4 -4,-90.53 682,-90.53 682,4 -4,4"/>
<!-- &#45;1 -->
<g id="node1" class="node">
<title>&#45;1</title>
<polygon fill="lightgray" stroke="black" points="276,-86.53 250,-86.53 250,-68.53 276,-68.53 276,-86.53"/>
<text text-anchor="middle" x="263" y="-75.33" font-family="Times,serif" font-size="9.00">&#45;1</text>
</g>
<!-- 0 -->
<g id="node16" class="node">
<title>0</title>
<ellipse fill="lightblue" stroke="black" cx="307" cy="-16.26" rx="16.03" ry="16.03"/>
<text text-anchor="middle" x="307" y="-14.06" font-family="Times,serif" font-size="9.00">0</text>
</g>
<!-- &#45;1&#45;&gt;0 -->
<g id="edge1" class="edge">
<title>&#45;1&#45;&gt;0</title>
<path fill="none" stroke="green" stroke-width="0.36" d="M269.12,-68.29C274.87,-60.53 283.73,-48.6 291.44,-38.22"/>
<polygon fill="green" stroke="green" stroke-width="0.36" points="294.4,-40.11 297.55,-30 288.78,-35.94 294.4,-40.11"/>
</g>
<!-- 1 -->
<g id="node17" class="node">
<title>1</title>
<ellipse fill="lightblue" stroke="black" cx="358" cy="-16.26" rx="16.03" ry="16.03"/>
<text text-anchor="middle" x="358" y="-14.06" font-family="Times,serif" font-size="9.00">1</text>
</g>
<!-- &#45;1&#45;&gt;1 -->
<g id="edge2" class="edge">
<title>&#45;1&#45;&gt;1</title>
<path fill="none" stroke="red" stroke-width="0.35" d="M276.21,-68.29C291.65,-58.65 317.44,-42.57 335.93,-31.03"/>
<polygon fill="red" stroke="red" stroke-width="0.35" points="337.96,-33.89 344.6,-25.62 334.26,-27.95 337.96,-33.89"/>
</g>
<!-- &#45;2 -->
<g id="node2" class="node">
<title>&#45;2</title>
<polygon fill="lightgray" stroke="black" points="320,-86.53 294,-86.53 294,-68.53 320,-68.53 320,-86.53"/>
<text text-anchor="middle" x="307" y="-75.33" font-family="Times,serif" font-size="9.00">&#45;2</text>
</g>
<!-- &#45;2&#45;&gt;0 -->
<g id="edge3" class="edge">
<title>&#45;2&#45;&gt;0</title>
<path fill="none" stroke="red" stroke-width="0.16" d="M307,-68.29C307,-61.7 307,-52.1 307,-43"/>
<polygon fill="red" stroke="red" stroke-width="0.16" points="310.5,-42.76 307,-32.76 303.5,-42.76 310.5,-42.76"/>
</g>
<!-- &#45;2&#45;&gt;1 -->
<g id="edge4" class="edge">
<title>&#45;2&#45;&gt;1</title>
<path fill="none" stroke="red" stroke-width="0.17" d="M314.09,-68.29C321.07,-60.18 331.99,-47.49 341.19,-36.79"/>
<polygon fill="red" stroke="red" stroke-width="0.17" points="343.93,-38.98 347.8,-29.11 338.63,-34.41 343.93,-38.98"/>
</g>
<!-- &#45;3 -->
<g id="node3" class="node">
<title>&#45;3</title>
<polygon fill="lightgray" stroke="black" points="678,-86.53 652,-86.53 652,-68.53 678,-68.53 678,-86.53"/>
<text text-anchor="middle" x="665" y="-75.33" font-family="Times,serif" font-size="9.00">&#45;3</text>
</g>
<!-- &#45;3&#45;&gt;1 -->
<g id="edge5" class="edge">
<title>&#45;3&#45;&gt;1</title>
<path fill="none" stroke="red" stroke-width="0.2" d="M651.62,-71.25C648.8,-70.25 645.83,-69.29 643,-68.53 549.39,-43.29 435.08,-26.98 384.38,-20.48"/>
<polygon fill="red" stroke="red" stroke-width="0.2" points="384.64,-16.98 374.28,-19.2 383.77,-23.93 384.64,-16.98"/>
</g>
<!-- &#45;4 -->
<g id="node4" class="node">
<title>&#45;4</title>
<polygon fill="lightgray" stroke="black" points="364,-86.53 338,-86.53 338,-68.53 364,-68.53 364,-86.53"/>
<text text-anchor="middle" x="351" y="-75.33" font-family="Times,serif" font-size="9.00">&#45;4</text>
</g>
<!-- &#45;4&#45;&gt;0 -->
<g id="edge6" class="edge">
<title>&#45;4&#45;&gt;0</title>
<path fill="none" stroke="green" stroke-width="0.29" d="M344.88,-68.29C339.13,-60.53 330.27,-48.6 322.56,-38.22"/>
<polygon fill="green" stroke="green" stroke-width="0.29" points="325.22,-35.94 316.45,-30 319.6,-40.11 325.22,-35.94"/>
</g>
<!-- &#45;4&#45;&gt;1 -->
<g id="edge7" class="edge">
<title>&#45;4&#45;&gt;1</title>
<path fill="none" stroke="green" stroke-width="0.17" d="M351.97,-68.29C352.76,-61.63 353.91,-51.89 354.99,-42.7"/>
<polygon fill="green" stroke="green" stroke-width="0.17" points="358.47,-43.1 356.17,-32.76 351.52,-42.28 358.47,-43.1"/>
</g>
<!-- &#45;5 -->
<g id="node5" class="node">
<title>&#45;5</title>
<polygon fill="lightgray" stroke="black" points="408,-86.53 382,-86.53 382,-68.53 408,-68.53 408,-86.53"/>
<text text-anchor="middle" x="395" y="-75.33" font-family="Times,serif" font-size="9.00">&#45;5</text>
</g>
<!-- &#45;5&#45;&gt;0 -->
<g id="edge8" class="edge">
<title>&#45;5&#45;&gt;0</title>
<path fill="none" stroke="red" stroke-width="0.27" d="M382.76,-68.29C368.9,-58.95 346.02,-43.54 329.02,-32.09"/>
<polygon fill="red" stroke="red" stroke-width="0.27" points="330.53,-28.89 320.28,-26.21 326.62,-34.7 330.53,-28.89"/>
</g>
<!-- &#45;5&#45;&gt;1 -->
<g id="edge9" class="edge">
<title>&#45;5&#45;&gt;1</title>
<path fill="none" stroke="green" stroke-width="0.14" d="M389.86,-68.29C385.13,-60.71 377.9,-49.14 371.53,-38.93"/>
<polygon fill="green" stroke="green" stroke-width="0.14" points="374.49,-37.07 366.23,-30.44 368.56,-40.78 374.49,-37.07"/>
</g>
<!-- &#45;6 -->
<g id="node6" class="node">
<title>&#45;6</title>
<polygon fill="lightgray" stroke="black" points="452,-86.53 426,-86.53 426,-68.53 452,-68.53 452,-86.53"/>
<text text-anchor="middle" x="439" y="-75.33" font-family="Times,serif" font-size="9.00">&#45;6</text>
</g>
<!-- &#45;6&#45;&gt;0 -->
<g id="edge10" class="edge">
<title>&#45;6&#45;&gt;0</title>
<path fill="none" stroke="red" stroke-width="0.5" d="M425.69,-71.68C405.34,-64.11 365.46,-48.7 333,-32.53 331.84,-31.95 330.66,-31.34 329.48,-30.71"/>
<polygon fill="red" stroke="red" stroke-width="0.5" points="331,-27.55 320.57,-25.7 327.57,-33.65 331,-27.55"/>
</g>
<!-- &#45;6&#45;&gt;1 -->
<g id="edge11" class="edge">
<title>&#45;6&#45;&gt;1</title>
<path fill="none" stroke="red" stroke-width="0.27" d="M427.74,-68.29C415.24,-59.14 394.78,-44.17 379.25,-32.81"/>
<polygon fill="red" stroke="red" stroke-width="0.27" points="380.9,-29.69 370.77,-26.6 376.77,-35.33 380.9,-29.69"/>
</g>
<!-- &#45;7 -->
<g id="node7" class="node">
<title>&#45;7</title>
<polygon fill="lightgray" stroke="black" points="496,-86.53 470,-86.53 470,-68.53 496,-68.53 496,-86.53"/>
<text text-anchor="middle" x="483" y="-75.33" font-family="Times,serif" font-size="9.00">&#45;7</text>
</g>
<!-- &#45;7&#45;&gt;0 -->
<g id="edge12" class="edge">
<title>&#45;7&#45;&gt;0</title>
<path fill="none" stroke="green" stroke-width="0.22" d="M469.56,-71.46C466.74,-70.45 463.79,-69.42 461,-68.53 404.75,-50.42 387.37,-55.68 333,-32.53 331.78,-32.01 330.55,-31.44 329.32,-30.84"/>
<polygon fill="green" stroke="green" stroke-width="0.22" points="330.61,-27.56 320.15,-25.87 327.27,-33.71 330.61,-27.56"/>
</g>
<!-- &#45;7&#45;&gt;1 -->
<g id="edge13" class="edge">
<title>&#45;7&#45;&gt;1</title>
<path fill="none" stroke="green" stroke-width="0.22" d="M469.62,-70.18C448.62,-60.23 407.64,-40.8 381.6,-28.45"/>
<polygon fill="green" stroke="green" stroke-width="0.22" points="382.97,-25.23 372.43,-24.11 379.97,-31.55 382.97,-25.23"/>
</g>
<!-- &#45;8 -->
<g id="node8" class="node">
<title>&#45;8</title>
<polygon fill="lightgray" stroke="black" points="540,-86.53 514,-86.53 514,-68.53 540,-68.53 540,-86.53"/>
<text text-anchor="middle" x="527" y="-75.33" font-family="Times,serif" font-size="9.00">&#45;8</text>
</g>
<!-- &#45;8&#45;&gt;0 -->
<g id="edge14" class="edge">
<title>&#45;8&#45;&gt;0</title>
<path fill="none" stroke="red" stroke-width="0.12" d="M513.6,-71.31C510.79,-70.31 507.81,-69.33 505,-68.53 429.89,-47.13 405.86,-60.67 333,-32.53 331.76,-32.05 330.52,-31.52 329.28,-30.95"/>
<polygon fill="red" stroke="red" stroke-width="0.12" points="330.55,-27.66 320.08,-26.05 327.26,-33.84 330.55,-27.66"/>
</g>
<!-- &#45;8&#45;&gt;1 -->
<g id="edge15" class="edge">
<title>&#45;8&#45;&gt;1</title>
<path fill="none" stroke="green" stroke-width="0.13" d="M513.98,-71.76C511.03,-70.69 507.91,-69.56 505,-68.53 462.14,-53.26 412.09,-35.91 382.83,-25.81"/>
<polygon fill="green" stroke="green" stroke-width="0.13" points="383.64,-22.39 373.05,-22.44 381.36,-29.01 383.64,-22.39"/>
</g>
<!-- &#45;9 -->
<g id="node9" class="node">
<title>&#45;9</title>
<polygon fill="lightgray" stroke="black" points="584,-86.53 558,-86.53 558,-68.53 584,-68.53 584,-86.53"/>
<text text-anchor="middle" x="571" y="-75.33" font-family="Times,serif" font-size="9.00">&#45;9</text>
</g>
<!-- &#45;9&#45;&gt;0 -->
<g id="edge16" class="edge">
<title>&#45;9&#45;&gt;0</title>
<path fill="none" stroke="red" stroke-width="0.32" d="M557.63,-71.22C554.81,-70.23 551.83,-69.27 549,-68.53 454.87,-43.79 424.49,-65.72 333,-32.53 331.75,-32.08 330.5,-31.56 329.25,-31.01"/>
<polygon fill="red" stroke="red" stroke-width="0.32" points="330.51,-27.72 320.03,-26.17 327.26,-33.91 330.51,-27.72"/>
</g>
<!-- &#45;9&#45;&gt;1 -->
<g id="edge17" class="edge">
<title>&#45;9&#45;&gt;1</title>
<path fill="none" stroke="red" stroke-width="0.5" d="M557.57,-71.43C554.75,-70.42 551.79,-69.41 549,-68.53 490.59,-50.11 420.84,-32.47 383.91,-23.46"/>
<polygon fill="red" stroke="red" stroke-width="0.5" points="384.52,-20.01 373.98,-21.06 382.88,-26.81 384.52,-20.01"/>
</g>
<!-- &#45;10 -->
<g id="node10" class="node">
<title>&#45;10</title>
<polygon fill="lightgray" stroke="black" points="634,-86.53 602,-86.53 602,-68.53 634,-68.53 634,-86.53"/>
<text text-anchor="middle" x="618" y="-75.33" font-family="Times,serif" font-size="9.00">&#45;10</text>
</g>
<!-- &#45;10&#45;&gt;0 -->
<g id="edge18" class="edge">
<title>&#45;10&#45;&gt;0</title>
<path fill="none" stroke="red" stroke-width="0.29" d="M601.97,-70.95C599.02,-70.05 595.93,-69.19 593,-68.53 479.25,-42.65 443.2,-70.79 333,-32.53 331.75,-32.09 330.49,-31.59 329.24,-31.05"/>
<polygon fill="red" stroke="red" stroke-width="0.29" points="330.49,-27.76 320.01,-26.24 327.26,-33.97 330.49,-27.76"/>
</g>
<!-- &#45;10&#45;&gt;1 -->
<g id="edge19" class="edge">
<title>&#45;10&#45;&gt;1</title>
<path fill="none" stroke="red" stroke-width="0.27" d="M601.93,-71.14C598.97,-70.22 595.9,-69.31 593,-68.53 517.71,-48.32 427.26,-30.32 383.8,-22.06"/>
<polygon fill="red" stroke="red" stroke-width="0.27" points="384.28,-18.59 373.8,-20.17 382.98,-25.47 384.28,-18.59"/>
</g>
<!-- &#45;11 -->
<g id="node11" class="node">
<title>&#45;11</title>
<polygon fill="lightgray" stroke="black" points="32,-86.53 0,-86.53 0,-68.53 32,-68.53 32,-86.53"/>
<text text-anchor="middle" x="16" y="-75.33" font-family="Times,serif" font-size="9.00">&#45;11</text>
</g>
<!-- &#45;11&#45;&gt;0 -->
<g id="edge20" class="edge">
<title>&#45;11&#45;&gt;0</title>
<path fill="none" stroke="red" stroke-width="0.21" d="M32.06,-71.08C35.01,-70.16 38.09,-69.27 41,-68.53 127.87,-46.34 232.88,-28.77 280.83,-21.24"/>
<polygon fill="red" stroke="red" stroke-width="0.21" points="281.62,-24.66 290.96,-19.67 280.54,-17.75 281.62,-24.66"/>
</g>
<!-- &#45;11&#45;&gt;1 -->
<g id="edge21" class="edge">
<title>&#45;11&#45;&gt;1</title>
<path fill="none" stroke="red" stroke-width="0.39" d="M32.02,-70.92C34.98,-70.02 38.06,-69.17 41,-68.53 168.28,-40.55 208.58,-74.38 332,-32.53 333.25,-32.1 334.52,-31.61 335.77,-31.07"/>
<polygon fill="red" stroke="red" stroke-width="0.39" points="337.74,-33.99 345.01,-26.29 334.52,-27.78 337.74,-33.99"/>
</g>
<!-- &#45;12 -->
<g id="node12" class="node">
<title>&#45;12</title>
<polygon fill="lightgray" stroke="black" points="82,-86.53 50,-86.53 50,-68.53 82,-68.53 82,-86.53"/>
<text text-anchor="middle" x="66" y="-75.33" font-family="Times,serif" font-size="9.00">&#45;12</text>
</g>
<!-- &#45;12&#45;&gt;0 -->
<g id="edge22" class="edge">
<title>&#45;12&#45;&gt;0</title>
<path fill="none" stroke="green" stroke-width="0.35" d="M82.08,-71.18C85.04,-70.26 88.1,-69.33 91,-68.53 159.17,-49.56 240.66,-31.43 281.3,-22.69"/>
<polygon fill="green" stroke="green" stroke-width="0.35" points="282.13,-26.1 291.17,-20.58 280.66,-19.25 282.13,-26.1"/>
</g>
<!-- &#45;12&#45;&gt;1 -->
<g id="edge23" class="edge">
<title>&#45;12&#45;&gt;1</title>
<path fill="none" stroke="green" stroke-width="0.26" d="M82.03,-70.98C84.99,-70.07 88.07,-69.21 91,-68.53 196.47,-43.94 229.88,-68.6 332,-32.53 333.25,-32.09 334.51,-31.58 335.76,-31.03"/>
<polygon fill="green" stroke="green" stroke-width="0.26" points="337.74,-33.95 344.98,-26.21 334.5,-27.74 337.74,-33.95"/>
</g>
<!-- &#45;13 -->
<g id="node13" class="node">
<title>&#45;13</title>
<polygon fill="lightgray" stroke="black" points="132,-86.53 100,-86.53 100,-68.53 132,-68.53 132,-86.53"/>
<text text-anchor="middle" x="116" y="-75.33" font-family="Times,serif" font-size="9.00">&#45;13</text>
</g>
<!-- &#45;13&#45;&gt;0 -->
<g id="edge24" class="edge">
<title>&#45;13&#45;&gt;0</title>
<path fill="none" stroke="green" stroke-width="0.22" d="M132.13,-71.34C135.08,-70.4 138.13,-69.43 141,-68.53 190.85,-52.85 249.26,-34.92 281.81,-24.96"/>
<polygon fill="green" stroke="green" stroke-width="0.22" points="282.88,-28.29 291.42,-22.02 280.83,-21.59 282.88,-28.29"/>
</g>
<!-- &#45;13&#45;&gt;1 -->
<g id="edge25" class="edge">
<title>&#45;13&#45;&gt;1</title>
<path fill="none" stroke="red" stroke-width="0.24" d="M132.05,-71.07C135.01,-70.15 138.08,-69.27 141,-68.53 224.74,-47.32 251.11,-62.84 332,-32.53 333.24,-32.06 334.49,-31.54 335.73,-30.98"/>
<polygon fill="red" stroke="red" stroke-width="0.24" points="337.74,-33.88 344.95,-26.11 334.47,-27.69 337.74,-33.88"/>
</g>
<!-- &#45;14 -->
<g id="node14" class="node">
<title>&#45;14</title>
<polygon fill="lightgray" stroke="black" points="182,-86.53 150,-86.53 150,-68.53 182,-68.53 182,-86.53"/>
<text text-anchor="middle" x="166" y="-75.33" font-family="Times,serif" font-size="9.00">&#45;14</text>
</g>
<!-- &#45;14&#45;&gt;0 -->
<g id="edge26" class="edge">
<title>&#45;14&#45;&gt;0</title>
<path fill="none" stroke="green" stroke-width="0.18" d="M182.17,-69.73C206.89,-59.34 254.22,-39.45 282.96,-27.37"/>
<polygon fill="green" stroke="green" stroke-width="0.18" points="284.43,-30.55 292.29,-23.45 281.71,-24.09 284.43,-30.55"/>
</g>
<!-- &#45;14&#45;&gt;1 -->
<g id="edge27" class="edge">
<title>&#45;14&#45;&gt;1</title>
<path fill="none" stroke="red" stroke-width="0.42" d="M182.09,-71.22C185.05,-70.29 188.11,-69.36 191,-68.53 253.16,-50.66 272.19,-57.14 332,-32.53 333.23,-32.02 334.46,-31.47 335.7,-30.88"/>
<polygon fill="red" stroke="red" stroke-width="0.42" points="337.73,-33.76 344.88,-25.93 334.41,-27.6 337.73,-33.76"/>
</g>
<!-- &#45;15 -->
<g id="node15" class="node">
<title>&#45;15</title>
<polygon fill="lightgray" stroke="black" points="232,-86.53 200,-86.53 200,-68.53 232,-68.53 232,-86.53"/>
<text text-anchor="middle" x="216" y="-75.33" font-family="Times,serif" font-size="9.00">&#45;15</text>
</g>
<!-- &#45;15&#45;&gt;0 -->
<g id="edge28" class="edge">
<title>&#45;15&#45;&gt;0</title>
<path fill="none" stroke="red" stroke-width="0.2" d="M228.65,-68.29C243.21,-58.81 267.37,-43.07 285.02,-31.58"/>
<polygon fill="red" stroke="red" stroke-width="0.2" points="287.1,-34.4 293.57,-26.01 283.28,-28.54 287.1,-34.4"/>
</g>
<!-- &#45;15&#45;&gt;1 -->
<g id="edge29" class="edge">
<title>&#45;15&#45;&gt;1</title>
<path fill="none" stroke="green" stroke-width="0.35" d="M232.11,-71.37C254.85,-63.89 297.42,-49.09 332,-32.53 333.17,-31.97 334.35,-31.37 335.54,-30.76"/>
<polygon fill="green" stroke="green" stroke-width="0.35" points="337.44,-33.71 344.47,-25.79 334.03,-27.59 337.44,-33.71"/>
</g>
</g>
</svg>
