<?xml version="1.0" encoding="UTF-8" standalone="no"?>
<!DOCTYPE svg PUBLIC "-//W3C//DTD SVG 1.1//EN"
 "http://www.w3.org/Graphics/SVG/1.1/DTD/svg11.dtd">
<!-- Generated by graphviz version 2.43.0 (0)
 -->
<!-- Title: %3 Pages: 1 -->
<svg width="686pt" height="95pt"
 viewBox="0.00 0.00 686.00 94.53" xmlns="http://www.w3.org/2000/svg" xmlns:xlink="http://www.w3.org/1999/xlink">
<g id="graph0" class="graph" transform="scale(1 1) rotate(0) translate(4 90.53)">
<title>%3</title>
<polygon fill="white" stroke="transparent" points="-4,4 -4,-90.53 682,-90.53 682,4 -4,4"/>
<!-- &#45;1 -->
<g id="node1" class="node">
<title>&#45;1</title>
<polygon fill="lightgray" stroke="black" points="458,-86.53 432,-86.53 432,-68.53 458,-68.53 458,-86.53"/>
<text text-anchor="middle" x="445" y="-75.33" font-family="Times,serif" font-size="9.00">&#45;1</text>
</g>
<!-- 0 -->
<g id="node16" class="node">
<title>0</title>
<ellipse fill="lightblue" stroke="black" cx="322" cy="-16.26" rx="16.03" ry="16.03"/>
<text text-anchor="middle" x="322" y="-14.06" font-family="Times,serif" font-size="9.00">0</text>
</g>
<!-- &#45;1&#45;&gt;0 -->
<g id="edge1" class="edge">
<title>&#45;1&#45;&gt;0</title>
<path fill="none" stroke="green" stroke-width="0.22" d="M431.93,-71.11C413.1,-63.2 377.39,-47.76 348,-32.53 346.85,-31.93 345.68,-31.31 344.5,-30.67"/>
<polygon fill="green" stroke="green" stroke-width="0.22" points="346.04,-27.51 335.61,-25.62 342.58,-33.6 346.04,-27.51"/>
</g>
<!-- 1 -->
<g id="node17" class="node">
<title>1</title>
<ellipse fill="lightblue" stroke="black" cx="373" cy="-16.26" rx="16.03" ry="16.03"/>
<text text-anchor="middle" x="373" y="-14.06" font-family="Times,serif" font-size="9.00">1</text>
</g>
<!-- &#45;1&#45;&gt;1 -->
<g id="edge2" class="edge">
<title>&#45;1&#45;&gt;1</title>
<path fill="none" stroke="green" stroke-width="0.32" d="M434.99,-68.29C424.24,-59.44 406.86,-45.14 393.24,-33.92"/>
<polygon fill="green" stroke="green" stroke-width="0.32" points="395.28,-31.07 385.34,-27.42 390.83,-36.47 395.28,-31.07"/>
</g>
<!-- &#45;2 -->
<g id="node2" class="node">
<title>&#45;2</title>
<polygon fill="lightgray" stroke="black" points="502,-86.53 476,-86.53 476,-68.53 502,-68.53 502,-86.53"/>
<text text-anchor="middle" x="489" y="-75.33" font-family="Times,serif" font-size="9.00">&#45;2</text>
</g>
<!-- &#45;2&#45;&gt;0 -->
<g id="edge3" class="edge">
<title>&#45;2&#45;&gt;0</title>
<path fill="none" stroke="red" stroke-width="0.15" d="M475.54,-71.5C472.73,-70.49 469.78,-69.45 467,-68.53 414.57,-51.08 398.63,-54.67 348,-32.53 346.79,-32 345.56,-31.42 344.33,-30.82"/>
<polygon fill="red" stroke="red" stroke-width="0.15" points="345.63,-27.54 335.17,-25.81 342.27,-33.68 345.63,-27.54"/>
</g>
<!-- &#45;2&#45;&gt;1 -->
<g id="edge4" class="edge">
<title>&#45;2&#45;&gt;1</title>
<path fill="none" stroke="red" stroke-width="0.44" d="M475.69,-69.73C456.34,-59.84 420.14,-41.35 396.31,-29.17"/>
<polygon fill="red" stroke="red" stroke-width="0.44" points="397.73,-25.97 387.23,-24.54 394.55,-32.2 397.73,-25.97"/>
</g>
<!-- &#45;3 -->
<g id="node3" class="node">
<title>&#45;3</title>
<polygon fill="lightgray" stroke="black" points="546,-86.53 520,-86.53 520,-68.53 546,-68.53 546,-86.53"/>
<text text-anchor="middle" x="533" y="-75.33" font-family="Times,serif" font-size="9.00">&#45;3</text>
</g>
<!-- &#45;3&#45;&gt;0 -->
<g id="edge5" class="edge">
<title>&#45;3&#45;&gt;0</title>
<path fill="none" stroke="green" stroke-width="0.25" d="M519.6,-71.34C516.78,-70.33 513.81,-69.34 511,-68.53 439.76,-47.81 417.06,-59.64 348,-32.53 346.77,-32.04 345.52,-31.51 344.28,-30.93"/>
<polygon fill="green" stroke="green" stroke-width="0.25" points="345.56,-27.64 335.09,-26.02 342.26,-33.82 345.56,-27.64"/>
</g>
<!-- &#45;3&#45;&gt;1 -->
<g id="edge6" class="edge">
<title>&#45;3&#45;&gt;1</title>
<path fill="none" stroke="green" stroke-width="0.43" d="M519.91,-71.68C493.26,-61.81 432.33,-39.24 397.9,-26.48"/>
<polygon fill="green" stroke="green" stroke-width="0.43" points="398.72,-23.06 388.13,-22.87 396.29,-29.62 398.72,-23.06"/>
</g>
<!-- &#45;4 -->
<g id="node4" class="node">
<title>&#45;4</title>
<polygon fill="lightgray" stroke="black" points="590,-86.53 564,-86.53 564,-68.53 590,-68.53 590,-86.53"/>
<text text-anchor="middle" x="577" y="-75.33" font-family="Times,serif" font-size="9.00">&#45;4</text>
</g>
<!-- &#45;4&#45;&gt;0 -->
<g id="edge7" class="edge">
<title>&#45;4&#45;&gt;0</title>
<path fill="none" stroke="red" stroke-width="0.34" d="M563.62,-71.24C560.8,-70.24 557.83,-69.28 555,-68.53 464.77,-44.48 435.67,-64.68 348,-32.53 346.76,-32.07 345.5,-31.56 344.26,-31"/>
<polygon fill="red" stroke="red" stroke-width="0.34" points="345.52,-27.71 335.04,-26.15 342.26,-33.9 345.52,-27.71"/>
</g>
<!-- &#45;4&#45;&gt;1 -->
<g id="edge8" class="edge">
<title>&#45;4&#45;&gt;1</title>
<path fill="none" stroke="red" stroke-width="0.15" d="M563.56,-71.46C560.74,-70.45 557.79,-69.42 555,-68.53 499.78,-50.74 434.07,-33.08 398.67,-23.85"/>
<polygon fill="red" stroke="red" stroke-width="0.15" points="399.26,-20.39 388.7,-21.26 397.5,-27.16 399.26,-20.39"/>
</g>
<!-- &#45;5 -->
<g id="node5" class="node">
<title>&#45;5</title>
<polygon fill="lightgray" stroke="black" points="634,-86.53 608,-86.53 608,-68.53 634,-68.53 634,-86.53"/>
<text text-anchor="middle" x="621" y="-75.33" font-family="Times,serif" font-size="9.00">&#45;5</text>
</g>
<!-- &#45;5&#45;&gt;0 -->
<g id="edge9" class="edge">
<title>&#45;5&#45;&gt;0</title>
<path fill="none" stroke="green" stroke-width="0.12" d="M607.64,-71.17C604.82,-70.18 601.84,-69.24 599,-68.53 489.69,-41.12 454.37,-69.75 348,-32.53 346.75,-32.09 345.49,-31.59 344.24,-31.04"/>
<polygon fill="green" stroke="green" stroke-width="0.12" points="345.5,-27.75 335.01,-26.23 342.26,-33.96 345.5,-27.75"/>
</g>
<!-- &#45;5&#45;&gt;1 -->
<g id="edge10" class="edge">
<title>&#45;5&#45;&gt;1</title>
<path fill="none" stroke="green" stroke-width="0.16" d="M607.59,-71.35C604.78,-70.35 601.81,-69.35 599,-68.53 527.63,-47.55 441.45,-30.13 399.1,-22.07"/>
<polygon fill="green" stroke="green" stroke-width="0.16" points="399.54,-18.6 389.07,-20.19 398.25,-25.48 399.54,-18.6"/>
</g>
<!-- &#45;6 -->
<g id="node6" class="node">
<title>&#45;6</title>
<polygon fill="lightgray" stroke="black" points="678,-86.53 652,-86.53 652,-68.53 678,-68.53 678,-86.53"/>
<text text-anchor="middle" x="665" y="-75.33" font-family="Times,serif" font-size="9.00">&#45;6</text>
</g>
<!-- &#45;6&#45;&gt;0 -->
<g id="edge11" class="edge">
<title>&#45;6&#45;&gt;0</title>
<path fill="none" stroke="red" stroke-width="0.5" d="M651.65,-71.13C648.83,-70.14 645.85,-69.21 643,-68.53 514.55,-37.76 473.12,-74.85 348,-32.53 346.74,-32.1 345.48,-31.61 344.23,-31.07"/>
<polygon fill="red" stroke="red" stroke-width="0.5" points="345.48,-27.78 334.99,-26.29 342.26,-34 345.48,-27.78"/>
</g>
<!-- &#45;6&#45;&gt;1 -->
<g id="edge12" class="edge">
<title>&#45;6&#45;&gt;1</title>
<path fill="none" stroke="green" stroke-width="0.28" d="M651.61,-71.27C648.8,-70.27 645.82,-69.3 643,-68.53 554.89,-44.31 447.5,-27.64 398.99,-20.77"/>
<polygon fill="green" stroke="green" stroke-width="0.28" points="399.42,-17.3 389.03,-19.39 398.45,-24.23 399.42,-17.3"/>
</g>
<!-- &#45;7 -->
<g id="node7" class="node">
<title>&#45;7</title>
<polygon fill="lightgray" stroke="black" points="26,-86.53 0,-86.53 0,-68.53 26,-68.53 26,-86.53"/>
<text text-anchor="middle" x="13" y="-75.33" font-family="Times,serif" font-size="9.00">&#45;7</text>
</g>
<!-- &#45;7&#45;&gt;0 -->
<g id="edge13" class="edge">
<title>&#45;7&#45;&gt;0</title>
<path fill="none" stroke="red" stroke-width="0.12" d="M26.38,-71.25C29.2,-70.25 32.17,-69.29 35,-68.53 129.49,-43.11 244.93,-26.85 295.8,-20.41"/>
<polygon fill="red" stroke="red" stroke-width="0.12" points="296.43,-23.86 305.92,-19.15 295.56,-16.91 296.43,-23.86"/>
</g>
<!-- &#45;7&#45;&gt;1 -->
<g id="edge14" class="edge">
<title>&#45;7&#45;&gt;1</title>
<path fill="none" stroke="green" stroke-width="0.2" d="M26.34,-71.11C29.17,-70.13 32.15,-69.2 35,-68.53 170.85,-36.46 214.63,-76.82 347,-32.53 348.26,-32.11 349.52,-31.62 350.77,-31.08"/>
<polygon fill="green" stroke="green" stroke-width="0.2" points="352.74,-34.01 360.02,-26.31 349.53,-27.79 352.74,-34.01"/>
</g>
<!-- &#45;8 -->
<g id="node8" class="node">
<title>&#45;8</title>
<polygon fill="lightgray" stroke="black" points="70,-86.53 44,-86.53 44,-68.53 70,-68.53 70,-86.53"/>
<text text-anchor="middle" x="57" y="-75.33" font-family="Times,serif" font-size="9.00">&#45;8</text>
</g>
<!-- &#45;8&#45;&gt;0 -->
<g id="edge15" class="edge">
<title>&#45;8&#45;&gt;0</title>
<path fill="none" stroke="red" stroke-width="0.19" d="M70.4,-71.32C73.22,-70.32 76.19,-69.33 79,-68.53 156.75,-46.31 250.99,-29.13 295.84,-21.53"/>
<polygon fill="red" stroke="red" stroke-width="0.19" points="296.6,-24.96 305.89,-19.85 295.45,-18.05 296.6,-24.96"/>
</g>
<!-- &#45;8&#45;&gt;1 -->
<g id="edge16" class="edge">
<title>&#45;8&#45;&gt;1</title>
<path fill="none" stroke="red" stroke-width="0.44" d="M70.35,-71.15C73.18,-70.16 76.16,-69.23 79,-68.53 195.7,-39.83 233.39,-71.72 347,-32.53 348.25,-32.09 349.51,-31.6 350.76,-31.06"/>
<polygon fill="red" stroke="red" stroke-width="0.44" points="352.74,-33.97 360,-26.26 349.51,-27.76 352.74,-33.97"/>
</g>
<!-- &#45;9 -->
<g id="node9" class="node">
<title>&#45;9</title>
<polygon fill="lightgray" stroke="black" points="114,-86.53 88,-86.53 88,-68.53 114,-68.53 114,-86.53"/>
<text text-anchor="middle" x="101" y="-75.33" font-family="Times,serif" font-size="9.00">&#45;9</text>
</g>
<!-- &#45;9&#45;&gt;0 -->
<g id="edge17" class="edge">
<title>&#45;9&#45;&gt;0</title>
<path fill="none" stroke="green" stroke-width="0.1" d="M114.43,-71.41C117.24,-70.4 120.2,-69.39 123,-68.53 184.52,-49.47 258.23,-31.8 296.35,-23.03"/>
<polygon fill="green" stroke="green" stroke-width="0.1" points="297.15,-26.44 306.12,-20.8 295.59,-19.62 297.15,-26.44"/>
</g>
<!-- &#45;9&#45;&gt;1 -->
<g id="edge18" class="edge">
<title>&#45;9&#45;&gt;1</title>
<path fill="none" stroke="green" stroke-width="0.4" d="M114.37,-71.21C117.19,-70.22 120.17,-69.26 123,-68.53 220.6,-43.18 252.11,-66.64 347,-32.53 348.25,-32.08 349.5,-31.57 350.75,-31.02"/>
<polygon fill="green" stroke="green" stroke-width="0.4" points="352.74,-33.93 359.97,-26.18 349.49,-27.73 352.74,-33.93"/>
</g>
<!-- &#45;10 -->
<g id="node10" class="node">
<title>&#45;10</title>
<polygon fill="lightgray" stroke="black" points="164,-86.53 132,-86.53 132,-68.53 164,-68.53 164,-86.53"/>
<text text-anchor="middle" x="148" y="-75.33" font-family="Times,serif" font-size="9.00">&#45;10</text>
</g>
<!-- &#45;10&#45;&gt;0 -->
<g id="edge19" class="edge">
<title>&#45;10&#45;&gt;0</title>
<path fill="none" stroke="green" stroke-width="0.4" d="M164.06,-71.06C194.38,-60.73 260.28,-38.29 296.64,-25.9"/>
<polygon fill="green" stroke="green" stroke-width="0.4" points="298.14,-29.09 306.48,-22.55 295.89,-22.46 298.14,-29.09"/>
</g>
<!-- &#45;10&#45;&gt;1 -->
<g id="edge20" class="edge">
<title>&#45;10&#45;&gt;1</title>
<path fill="none" stroke="green" stroke-width="0.17" d="M164.06,-71.11C167.02,-70.19 170.09,-69.29 173,-68.53 249.38,-48.46 273.3,-60.89 347,-32.53 348.24,-32.05 349.48,-31.52 350.72,-30.95"/>
<polygon fill="green" stroke="green" stroke-width="0.17" points="352.74,-33.84 359.93,-26.06 349.45,-27.66 352.74,-33.84"/>
</g>
<!-- &#45;11 -->
<g id="node11" class="node">
<title>&#45;11</title>
<polygon fill="lightgray" stroke="black" points="214,-86.53 182,-86.53 182,-68.53 214,-68.53 214,-86.53"/>
<text text-anchor="middle" x="198" y="-75.33" font-family="Times,serif" font-size="9.00">&#45;11</text>
</g>
<!-- &#45;11&#45;&gt;0 -->
<g id="edge21" class="edge">
<title>&#45;11&#45;&gt;0</title>
<path fill="none" stroke="red" stroke-width="0.26" d="M214.21,-68.78C235.77,-58.48 274.02,-40.2 298.68,-28.41"/>
<polygon fill="red" stroke="red" stroke-width="0.26" points="300.19,-31.56 307.71,-24.09 297.18,-25.25 300.19,-31.56"/>
</g>
<!-- &#45;11&#45;&gt;1 -->
<g id="edge22" class="edge">
<title>&#45;11&#45;&gt;1</title>
<path fill="none" stroke="green" stroke-width="0.24" d="M214.12,-71.3C217.07,-70.36 220.12,-69.4 223,-68.53 277.89,-51.78 294.29,-55.23 347,-32.53 348.22,-32 349.45,-31.43 350.68,-30.83"/>
<polygon fill="green" stroke="green" stroke-width="0.24" points="352.73,-33.7 359.84,-25.84 349.38,-27.55 352.73,-33.7"/>
</g>
<!-- &#45;12 -->
<g id="node12" class="node">
<title>&#45;12</title>
<polygon fill="lightgray" stroke="black" points="264,-86.53 232,-86.53 232,-68.53 264,-68.53 264,-86.53"/>
<text text-anchor="middle" x="248" y="-75.33" font-family="Times,serif" font-size="9.00">&#45;12</text>
</g>
<!-- &#45;12&#45;&gt;0 -->
<g id="edge23" class="edge">
<title>&#45;12&#45;&gt;0</title>
<path fill="none" stroke="red" stroke-width="0.25" d="M258.29,-68.29C269.41,-59.38 287.41,-44.97 301.45,-33.72"/>
<polygon fill="red" stroke="red" stroke-width="0.25" points="303.96,-36.2 309.58,-27.21 299.58,-30.73 303.96,-36.2"/>
</g>
<!-- &#45;12&#45;&gt;1 -->
<g id="edge24" class="edge">
<title>&#45;12&#45;&gt;1</title>
<path fill="none" stroke="red" stroke-width="0.41" d="M264.03,-70.06C283.83,-61.92 318.39,-47.22 347,-32.53 348.15,-31.93 349.32,-31.31 350.5,-30.68"/>
<polygon fill="red" stroke="red" stroke-width="0.41" points="352.42,-33.61 359.4,-25.64 348.97,-27.52 352.42,-33.61"/>
</g>
<!-- &#45;13 -->
<g id="node13" class="node">
<title>&#45;13</title>
<polygon fill="lightgray" stroke="black" points="314,-86.53 282,-86.53 282,-68.53 314,-68.53 314,-86.53"/>
<text text-anchor="middle" x="298" y="-75.33" font-family="Times,serif" font-size="9.00">&#45;13</text>
</g>
<!-- &#45;13&#45;&gt;0 -->
<g id="edge25" class="edge">
<title>&#45;13&#45;&gt;0</title>
<path fill="none" stroke="red" stroke-width="0.42" d="M301.34,-68.29C304.17,-61.3 308.37,-50.91 312.25,-41.33"/>
<polygon fill="red" stroke="red" stroke-width="0.42" points="315.6,-42.4 316.11,-31.82 309.11,-39.77 315.6,-42.4"/>
</g>
<!-- &#45;13&#45;&gt;1 -->
<g id="edge26" class="edge">
<title>&#45;13&#45;&gt;1</title>
<path fill="none" stroke="red" stroke-width="0.39" d="M308.43,-68.29C319.76,-59.33 338.16,-44.8 352.42,-33.52"/>
<polygon fill="red" stroke="red" stroke-width="0.39" points="354.99,-35.95 360.67,-27.01 350.65,-30.46 354.99,-35.95"/>
</g>
<!-- &#45;14 -->
<g id="node14" class="node">
<title>&#45;14</title>
<polygon fill="lightgray" stroke="black" points="364,-86.53 332,-86.53 332,-68.53 364,-68.53 364,-86.53"/>
<text text-anchor="middle" x="348" y="-75.33" font-family="Times,serif" font-size="9.00">&#45;14</text>
</g>
<!-- &#45;14&#45;&gt;0 -->
<g id="edge27" class="edge">
<title>&#45;14&#45;&gt;0</title>
<path fill="none" stroke="green" stroke-width="0.37" d="M344.38,-68.29C341.25,-61.13 336.54,-50.41 332.26,-40.64"/>
<polygon fill="green" stroke="green" stroke-width="0.37" points="335.4,-39.11 328.18,-31.36 328.99,-41.92 335.4,-39.11"/>
</g>
<!-- &#45;14&#45;&gt;1 -->
<g id="edge28" class="edge">
<title>&#45;14&#45;&gt;1</title>
<path fill="none" stroke="green" stroke-width="0.26" d="M351.48,-68.29C354.45,-61.23 358.9,-50.7 362.97,-41.03"/>
<polygon fill="green" stroke="green" stroke-width="0.26" points="366.2,-42.39 366.86,-31.82 359.75,-39.67 366.2,-42.39"/>
</g>
<!-- &#45;15 -->
<g id="node15" class="node">
<title>&#45;15</title>
<polygon fill="lightgray" stroke="black" points="414,-86.53 382,-86.53 382,-68.53 414,-68.53 414,-86.53"/>
<text text-anchor="middle" x="398" y="-75.33" font-family="Times,serif" font-size="9.00">&#45;15</text>
</g>
<!-- &#45;15&#45;&gt;0 -->
<g id="edge29" class="edge">
<title>&#45;15&#45;&gt;0</title>
<path fill="none" stroke="green" stroke-width="0.13" d="M387.43,-68.29C375.84,-59.25 356.95,-44.52 342.45,-33.21"/>
<polygon fill="green" stroke="green" stroke-width="0.13" points="344.53,-30.4 334.5,-27.01 340.23,-35.92 344.53,-30.4"/>
</g>
<!-- &#45;15&#45;&gt;1 -->
<g id="edge30" class="edge">
<title>&#45;15&#45;&gt;1</title>
<path fill="none" stroke="red" stroke-width="0.44" d="M394.52,-68.29C391.55,-61.23 387.1,-50.7 383.03,-41.03"/>
<polygon fill="red" stroke="red" stroke-width="0.44" points="386.25,-39.67 379.14,-31.82 379.8,-42.39 386.25,-39.67"/>
</g>
</g>
</svg>
