<?xml version="1.0" encoding="UTF-8" standalone="no"?>
<!DOCTYPE svg PUBLIC "-//W3C//DTD SVG 1.1//EN"
 "http://www.w3.org/Graphics/SVG/1.1/DTD/svg11.dtd">
<!-- Generated by graphviz version 2.43.0 (0)
 -->
<!-- Title: %3 Pages: 1 -->
<svg width="686pt" height="95pt"
 viewBox="0.00 0.00 686.00 94.53" xmlns="http://www.w3.org/2000/svg" xmlns:xlink="http://www.w3.org/1999/xlink">
<g id="graph0" class="graph" transform="scale(1 1) rotate(0) translate(4 90.53)">
<title>%3</title>
<polygon fill="white" stroke="transparent" points="-4,4 -4,-90.53 682,-90.53 682,4 -4,4"/>
<!-- &#45;1 -->
<g id="node1" class="node">
<title>&#45;1</title>
<polygon fill="lightgray" stroke="black" points="164,-86.53 138,-86.53 138,-68.53 164,-68.53 164,-86.53"/>
<text text-anchor="middle" x="151" y="-75.33" font-family="Times,serif" font-size="9.00">&#45;1</text>
</g>
<!-- 0 -->
<g id="node16" class="node">
<title>0</title>
<ellipse fill="lightblue" stroke="black" cx="323" cy="-16.26" rx="16.03" ry="16.03"/>
<text text-anchor="middle" x="323" y="-14.06" font-family="Times,serif" font-size="9.00">0</text>
</g>
<!-- &#45;1&#45;&gt;0 -->
<g id="edge1" class="edge">
<title>&#45;1&#45;&gt;0</title>
<path fill="none" stroke="green" stroke-width="0.37" d="M164.01,-71.75C166.96,-70.68 170.09,-69.55 173,-68.53 216.88,-53.05 268.22,-35.66 298.04,-25.63"/>
<polygon fill="green" stroke="green" stroke-width="0.37" points="299.27,-28.91 307.63,-22.4 297.04,-22.27 299.27,-28.91"/>
</g>
<!-- 1 -->
<g id="node17" class="node">
<title>1</title>
<ellipse fill="lightblue" stroke="black" cx="374" cy="-16.26" rx="16.03" ry="16.03"/>
<text text-anchor="middle" x="374" y="-14.06" font-family="Times,serif" font-size="9.00">1</text>
</g>
<!-- &#45;1&#45;&gt;1 -->
<g id="edge2" class="edge">
<title>&#45;1&#45;&gt;1</title>
<path fill="none" stroke="red" stroke-width="0.15" d="M164.39,-71.3C167.21,-70.31 170.18,-69.32 173,-68.53 249.4,-46.9 273.88,-61.01 348,-32.53 349.24,-32.05 350.48,-31.52 351.73,-30.95"/>
<polygon fill="red" stroke="red" stroke-width="0.15" points="353.74,-33.84 360.93,-26.06 350.45,-27.66 353.74,-33.84"/>
</g>
<!-- &#45;2 -->
<g id="node2" class="node">
<title>&#45;2</title>
<polygon fill="lightgray" stroke="black" points="208,-86.53 182,-86.53 182,-68.53 208,-68.53 208,-86.53"/>
<text text-anchor="middle" x="195" y="-75.33" font-family="Times,serif" font-size="9.00">&#45;2</text>
</g>
<!-- &#45;2&#45;&gt;0 -->
<g id="edge3" class="edge">
<title>&#45;2&#45;&gt;0</title>
<path fill="none" stroke="red" stroke-width="0.34" d="M208.22,-70.41C229.72,-60.45 272.57,-40.61 299.4,-28.19"/>
<polygon fill="red" stroke="red" stroke-width="0.34" points="300.89,-31.36 308.49,-23.98 297.94,-25.01 300.89,-31.36"/>
</g>
<!-- &#45;2&#45;&gt;1 -->
<g id="edge4" class="edge">
<title>&#45;2&#45;&gt;1</title>
<path fill="none" stroke="green" stroke-width="0.11" d="M208.44,-71.45C211.25,-70.44 214.21,-69.42 217,-68.53 274.53,-50.19 292.37,-56.01 348,-32.53 349.22,-32.01 350.45,-31.45 351.69,-30.85"/>
<polygon fill="green" stroke="green" stroke-width="0.11" points="353.73,-33.73 360.86,-25.88 350.4,-27.57 353.73,-33.73"/>
</g>
<!-- &#45;3 -->
<g id="node3" class="node">
<title>&#45;3</title>
<polygon fill="lightgray" stroke="black" points="252,-86.53 226,-86.53 226,-68.53 252,-68.53 252,-86.53"/>
<text text-anchor="middle" x="239" y="-75.33" font-family="Times,serif" font-size="9.00">&#45;3</text>
</g>
<!-- &#45;3&#45;&gt;0 -->
<g id="edge5" class="edge">
<title>&#45;3&#45;&gt;0</title>
<path fill="none" stroke="green" stroke-width="0.25" stroke-dasharray="1,5" d="M250.68,-68.29C263.84,-59 285.51,-43.72 301.7,-32.29"/>
<polygon fill="green" stroke="green" stroke-width="0.25" points="303.89,-35.03 310.04,-26.41 299.85,-29.31 303.89,-35.03"/>
</g>
<!-- &#45;3&#45;&gt;1 -->
<g id="edge6" class="edge">
<title>&#45;3&#45;&gt;1</title>
<path fill="none" stroke="red" stroke-width="0.24" d="M252.34,-71.42C277.35,-61.81 330.33,-41.22 348,-32.53 349.16,-31.95 350.34,-31.35 351.53,-30.73"/>
<polygon fill="red" stroke="red" stroke-width="0.24" points="353.43,-33.67 360.44,-25.73 350.01,-27.56 353.43,-33.67"/>
</g>
<!-- &#45;4 -->
<g id="node4" class="node">
<title>&#45;4</title>
<polygon fill="lightgray" stroke="black" points="296,-86.53 270,-86.53 270,-68.53 296,-68.53 296,-86.53"/>
<text text-anchor="middle" x="283" y="-75.33" font-family="Times,serif" font-size="9.00">&#45;4</text>
</g>
<!-- &#45;4&#45;&gt;0 -->
<g id="edge7" class="edge">
<title>&#45;4&#45;&gt;0</title>
<path fill="none" stroke="red" stroke-width="0.24" stroke-dasharray="1,5" d="M288.56,-68.29C293.68,-60.71 301.49,-49.14 308.38,-38.93"/>
<polygon fill="red" stroke="red" stroke-width="0.24" points="311.41,-40.69 314.1,-30.44 305.61,-36.77 311.41,-40.69"/>
</g>
<!-- &#45;4&#45;&gt;1 -->
<g id="edge8" class="edge">
<title>&#45;4&#45;&gt;1</title>
<path fill="none" stroke="red" stroke-width="0.12" d="M295.65,-68.29C310.21,-58.81 334.37,-43.07 352.02,-31.58"/>
<polygon fill="red" stroke="red" stroke-width="0.12" points="354.1,-34.4 360.57,-26.01 350.28,-28.54 354.1,-34.4"/>
</g>
<!-- &#45;5 -->
<g id="node5" class="node">
<title>&#45;5</title>
<polygon fill="lightgray" stroke="black" points="70,-86.53 44,-86.53 44,-68.53 70,-68.53 70,-86.53"/>
<text text-anchor="middle" x="57" y="-75.33" font-family="Times,serif" font-size="9.00">&#45;5</text>
</g>
<!-- &#45;5&#45;&gt;0 -->
<g id="edge9" class="edge">
<title>&#45;5&#45;&gt;0</title>
<path fill="none" stroke="red" stroke-width="0.3" d="M70.4,-71.31C73.21,-70.31 76.19,-69.33 79,-68.53 157.25,-46.2 252.16,-29.02 297.06,-21.47"/>
<polygon fill="red" stroke="red" stroke-width="0.3" points="297.82,-24.89 307.11,-19.8 296.67,-17.98 297.82,-24.89"/>
</g>
<!-- &#45;6 -->
<g id="node6" class="node">
<title>&#45;6</title>
<polygon fill="lightgray" stroke="black" points="26,-86.53 0,-86.53 0,-68.53 26,-68.53 26,-86.53"/>
<text text-anchor="middle" x="13" y="-75.33" font-family="Times,serif" font-size="9.00">&#45;6</text>
</g>
<!-- &#45;6&#45;&gt;0 -->
<g id="edge10" class="edge">
<title>&#45;6&#45;&gt;0</title>
<path fill="none" stroke="red" stroke-width="0.5" d="M26.38,-71.25C29.2,-70.25 32.17,-69.29 35,-68.53 129.81,-43.05 245.66,-26.82 296.71,-20.4"/>
<polygon fill="red" stroke="red" stroke-width="0.5" points="297.37,-23.84 306.86,-19.14 296.51,-16.9 297.37,-23.84"/>
</g>
<!-- &#45;7 -->
<g id="node7" class="node">
<title>&#45;7</title>
<polygon fill="lightgray" stroke="black" points="340,-86.53 314,-86.53 314,-68.53 340,-68.53 340,-86.53"/>
<text text-anchor="middle" x="327" y="-75.33" font-family="Times,serif" font-size="9.00">&#45;7</text>
</g>
<!-- &#45;7&#45;&gt;0 -->
<g id="edge11" class="edge">
<title>&#45;7&#45;&gt;0</title>
<path fill="none" stroke="green" stroke-width="0.46" d="M326.44,-68.29C326,-61.7 325.35,-52.1 324.74,-43"/>
<polygon fill="green" stroke="green" stroke-width="0.46" points="328.21,-42.5 324.05,-32.76 321.23,-42.97 328.21,-42.5"/>
</g>
<!-- &#45;7&#45;&gt;1 -->
<g id="edge12" class="edge">
<title>&#45;7&#45;&gt;1</title>
<path fill="none" stroke="red" stroke-width="0.15" d="M333.54,-68.29C339.82,-60.36 349.58,-48.05 357.94,-37.51"/>
<polygon fill="red" stroke="red" stroke-width="0.15" points="360.78,-39.56 364.25,-29.55 355.3,-35.21 360.78,-39.56"/>
</g>
<!-- &#45;8 -->
<g id="node8" class="node">
<title>&#45;8</title>
<polygon fill="lightgray" stroke="black" points="384,-86.53 358,-86.53 358,-68.53 384,-68.53 384,-86.53"/>
<text text-anchor="middle" x="371" y="-75.33" font-family="Times,serif" font-size="9.00">&#45;8</text>
</g>
<!-- &#45;8&#45;&gt;0 -->
<g id="edge13" class="edge">
<title>&#45;8&#45;&gt;0</title>
<path fill="none" stroke="green" stroke-width="0.41" d="M364.33,-68.29C357.9,-60.36 347.93,-48.05 339.4,-37.51"/>
<polygon fill="green" stroke="green" stroke-width="0.41" points="341.97,-35.12 332.95,-29.55 336.53,-39.53 341.97,-35.12"/>
</g>
<!-- &#45;8&#45;&gt;1 -->
<g id="edge14" class="edge">
<title>&#45;8&#45;&gt;1</title>
<path fill="none" stroke="green" stroke-width="0.1" d="M371.42,-68.29C371.75,-61.7 372.24,-52.1 372.7,-43"/>
<polygon fill="green" stroke="green" stroke-width="0.1" points="376.21,-42.92 373.22,-32.76 369.21,-42.57 376.21,-42.92"/>
</g>
<!-- &#45;9 -->
<g id="node9" class="node">
<title>&#45;9</title>
<polygon fill="lightgray" stroke="black" points="428,-86.53 402,-86.53 402,-68.53 428,-68.53 428,-86.53"/>
<text text-anchor="middle" x="415" y="-75.33" font-family="Times,serif" font-size="9.00">&#45;9</text>
</g>
<!-- &#45;9&#45;&gt;0 -->
<g id="edge15" class="edge">
<title>&#45;9&#45;&gt;0</title>
<path fill="none" stroke="green" stroke-width="0.48" d="M402.21,-68.29C387.41,-58.75 362.79,-42.89 344.92,-31.38"/>
<polygon fill="green" stroke="green" stroke-width="0.48" points="346.58,-28.29 336.28,-25.82 342.79,-34.18 346.58,-28.29"/>
</g>
<!-- &#45;9&#45;&gt;1 -->
<g id="edge16" class="edge">
<title>&#45;9&#45;&gt;1</title>
<path fill="none" stroke="red" stroke-width="0.16" d="M409.3,-68.29C403.94,-60.53 395.68,-48.6 388.5,-38.22"/>
<polygon fill="red" stroke="red" stroke-width="0.16" points="391.38,-36.23 382.81,-30 385.62,-40.21 391.38,-36.23"/>
</g>
<!-- &#45;10 -->
<g id="node10" class="node">
<title>&#45;10</title>
<polygon fill="lightgray" stroke="black" points="478,-86.53 446,-86.53 446,-68.53 478,-68.53 478,-86.53"/>
<text text-anchor="middle" x="462" y="-75.33" font-family="Times,serif" font-size="9.00">&#45;10</text>
</g>
<!-- &#45;10&#45;&gt;0 -->
<g id="edge28" class="edge">
<title>&#45;10&#45;&gt;0</title>
<path fill="none" stroke="red" stroke-width="0.5" d="M445.94,-71.18C423.72,-63.59 382.54,-48.77 349,-32.53 347.83,-31.96 346.65,-31.36 345.46,-30.74"/>
<polygon fill="red" stroke="red" stroke-width="0.5" points="346.98,-27.58 336.54,-25.76 343.56,-33.69 346.98,-27.58"/>
</g>
<!-- &#45;10&#45;&gt;1 -->
<g id="edge17" class="edge">
<title>&#45;10&#45;&gt;1</title>
<path fill="none" stroke="red" stroke-width="0.33" d="M449.76,-68.29C435.9,-58.95 413.02,-43.54 396.02,-32.09"/>
<polygon fill="red" stroke="red" stroke-width="0.33" points="397.53,-28.89 387.28,-26.21 393.62,-34.7 397.53,-28.89"/>
</g>
<!-- &#45;11 -->
<g id="node11" class="node">
<title>&#45;11</title>
<polygon fill="lightgray" stroke="black" points="528,-86.53 496,-86.53 496,-68.53 528,-68.53 528,-86.53"/>
<text text-anchor="middle" x="512" y="-75.33" font-family="Times,serif" font-size="9.00">&#45;11</text>
</g>
<!-- &#45;11&#45;&gt;0 -->
<g id="edge18" class="edge">
<title>&#45;11&#45;&gt;0</title>
<path fill="none" stroke="red" stroke-width="0.5" d="M495.9,-71.23C492.95,-70.3 489.89,-69.37 487,-68.53 426.13,-50.86 407.55,-56.8 349,-32.53 347.78,-32.02 346.54,-31.46 345.31,-30.87"/>
<polygon fill="red" stroke="red" stroke-width="0.5" points="346.59,-27.59 336.13,-25.92 343.27,-33.75 346.59,-27.59"/>
</g>
<!-- &#45;11&#45;&gt;1 -->
<g id="edge19" class="edge">
<title>&#45;11&#45;&gt;1</title>
<path fill="none" stroke="green" stroke-width="0.5" d="M495.9,-69.61C471.84,-59.28 426.32,-39.73 398.23,-27.67"/>
<polygon fill="green" stroke="green" stroke-width="0.5" points="399.31,-24.32 388.74,-23.59 396.55,-30.76 399.31,-24.32"/>
</g>
<!-- &#45;12 -->
<g id="node12" class="node">
<title>&#45;12</title>
<polygon fill="lightgray" stroke="black" points="578,-86.53 546,-86.53 546,-68.53 578,-68.53 578,-86.53"/>
<text text-anchor="middle" x="562" y="-75.33" font-family="Times,serif" font-size="9.00">&#45;12</text>
</g>
<!-- &#45;12&#45;&gt;0 -->
<g id="edge20" class="edge">
<title>&#45;12&#45;&gt;0</title>
<path fill="none" stroke="green" stroke-width="0.19" d="M545.94,-71.07C542.99,-70.16 539.91,-69.27 537,-68.53 454.56,-47.52 428.62,-62.5 349,-32.53 347.76,-32.06 346.51,-31.54 345.27,-30.97"/>
<polygon fill="green" stroke="green" stroke-width="0.19" points="346.53,-27.68 336.06,-26.1 343.26,-33.87 346.53,-27.68"/>
</g>
<!-- &#45;12&#45;&gt;1 -->
<g id="edge21" class="edge">
<title>&#45;12&#45;&gt;1</title>
<path fill="none" stroke="green" stroke-width="0.5" d="M545.87,-71.35C542.92,-70.41 539.87,-69.44 537,-68.53 488.22,-53.05 431.17,-35.16 399.14,-25.13"/>
<polygon fill="green" stroke="green" stroke-width="0.5" points="399.88,-21.69 389.29,-22.04 397.79,-28.37 399.88,-21.69"/>
</g>
<!-- &#45;13 -->
<g id="node13" class="node">
<title>&#45;13</title>
<polygon fill="lightgray" stroke="black" points="628,-86.53 596,-86.53 596,-68.53 628,-68.53 628,-86.53"/>
<text text-anchor="middle" x="612" y="-75.33" font-family="Times,serif" font-size="9.00">&#45;13</text>
</g>
<!-- &#45;13&#45;&gt;0 -->
<g id="edge22" class="edge">
<title>&#45;13&#45;&gt;0</title>
<path fill="none" stroke="green" stroke-width="0.42" stroke-dasharray="1,5" d="M595.97,-70.98C593.01,-70.08 589.93,-69.21 587,-68.53 482.83,-44.15 449.84,-68.25 349,-32.53 347.75,-32.08 346.5,-31.58 345.25,-31.03"/>
<polygon fill="green" stroke="green" stroke-width="0.42" points="346.5,-27.74 336.02,-26.21 343.26,-33.94 346.5,-27.74"/>
</g>
<!-- &#45;13&#45;&gt;1 -->
<g id="edge23" class="edge">
<title>&#45;13&#45;&gt;1</title>
<path fill="none" stroke="red" stroke-width="0.28" d="M595.91,-71.19C592.96,-70.26 589.9,-69.34 587,-68.53 519.92,-49.75 439.81,-31.6 399.64,-22.79"/>
<polygon fill="red" stroke="red" stroke-width="0.28" points="400.38,-19.37 389.87,-20.66 398.89,-26.21 400.38,-19.37"/>
</g>
<!-- &#45;14 -->
<g id="node14" class="node">
<title>&#45;14</title>
<polygon fill="lightgray" stroke="black" points="678,-86.53 646,-86.53 646,-68.53 678,-68.53 678,-86.53"/>
<text text-anchor="middle" x="662" y="-75.33" font-family="Times,serif" font-size="9.00">&#45;14</text>
</g>
<!-- &#45;14&#45;&gt;0 -->
<g id="edge24" class="edge">
<title>&#45;14&#45;&gt;0</title>
<path fill="none" stroke="green" stroke-width="0.28" d="M645.98,-70.92C643.02,-70.02 639.94,-69.17 637,-68.53 511.03,-40.75 471.14,-74.03 349,-32.53 347.75,-32.1 346.48,-31.61 345.23,-31.07"/>
<polygon fill="green" stroke="green" stroke-width="0.28" points="346.48,-27.78 335.99,-26.28 343.26,-33.99 346.48,-27.78"/>
</g>
<!-- &#45;14&#45;&gt;1 -->
<g id="edge25" class="edge">
<title>&#45;14&#45;&gt;1</title>
<path fill="none" stroke="red" stroke-width="0.21" d="M645.94,-71.08C642.99,-70.17 639.91,-69.27 637,-68.53 551.3,-46.54 447.78,-28.93 400.22,-21.33"/>
<polygon fill="red" stroke="red" stroke-width="0.21" points="400.58,-17.84 390.16,-19.74 399.49,-24.76 400.58,-17.84"/>
</g>
<!-- &#45;15 -->
<g id="node15" class="node">
<title>&#45;15</title>
<polygon fill="lightgray" stroke="black" points="120,-86.53 88,-86.53 88,-68.53 120,-68.53 120,-86.53"/>
<text text-anchor="middle" x="104" y="-75.33" font-family="Times,serif" font-size="9.00">&#45;15</text>
</g>
<!-- &#45;15&#45;&gt;0 -->
<g id="edge26" class="edge">
<title>&#45;15&#45;&gt;0</title>
<path fill="none" stroke="red" stroke-width="0.44" d="M120.1,-71.24C123.05,-70.31 126.11,-69.37 129,-68.53 188.96,-51.02 260.1,-32.89 297.34,-23.6"/>
<polygon fill="red" stroke="red" stroke-width="0.44" points="298.47,-26.92 307.33,-21.11 296.78,-20.13 298.47,-26.92"/>
</g>
<!-- &#45;15&#45;&gt;1 -->
<g id="edge27" class="edge">
<title>&#45;15&#45;&gt;1</title>
<path fill="none" stroke="red" stroke-width="0.23" d="M120.04,-71.01C123,-70.1 126.08,-69.23 129,-68.53 224.9,-45.43 255.24,-66.06 348,-32.53 349.25,-32.08 350.5,-31.57 351.75,-31.01"/>
<polygon fill="red" stroke="red" stroke-width="0.23" points="353.74,-33.92 360.97,-26.17 350.49,-27.72 353.74,-33.92"/>
</g>
</g>
</svg>
