<?xml version="1.0" encoding="utf-8" standalone="no"?>
<!DOCTYPE svg PUBLIC "-//W3C//DTD SVG 1.1//EN"
  "http://www.w3.org/Graphics/SVG/1.1/DTD/svg11.dtd">
<!-- Created with matplotlib (https://matplotlib.org/) -->
<svg height="345.6pt" version="1.1" viewBox="0 0 460.8 345.6" width="460.8pt" xmlns="http://www.w3.org/2000/svg" xmlns:xlink="http://www.w3.org/1999/xlink">
 <defs>
  <style type="text/css">
*{stroke-linecap:butt;stroke-linejoin:round;}
  </style>
 </defs>
 <g id="figure_1">
  <g id="patch_1">
   <path d="M 0 345.6 
L 460.8 345.6 
L 460.8 0 
L 0 0 
z
" style="fill:#ffffff;"/>
  </g>
  <g id="axes_1">
   <g id="patch_2">
    <path d="M 57.6 307.584 
L 414.72 307.584 
L 414.72 41.472 
L 57.6 41.472 
z
" style="fill:#ffffff;"/>
   </g>
   <g id="matplotlib.axis_1">
    <g id="xtick_1">
     <g id="line2d_1">
      <path clip-path="url(#p8d49fecf9b)" d="M 73.832727 307.584 
L 73.832727 41.472 
" style="fill:none;stroke:#b0b0b0;stroke-linecap:square;stroke-width:0.8;"/>
     </g>
     <g id="line2d_2">
      <defs>
       <path d="M 0 0 
L 0 3.5 
" id="m64bcfb051f" style="stroke:#000000;stroke-width:0.8;"/>
      </defs>
      <g>
       <use style="stroke:#000000;stroke-width:0.8;" x="73.832727" xlink:href="#m64bcfb051f" y="307.584"/>
      </g>
     </g>
     <g id="text_1">
      <!-- 0 -->
      <defs>
       <path d="M 31.78125 66.40625 
Q 24.171875 66.40625 20.328125 58.90625 
Q 16.5 51.421875 16.5 36.375 
Q 16.5 21.390625 20.328125 13.890625 
Q 24.171875 6.390625 31.78125 6.390625 
Q 39.453125 6.390625 43.28125 13.890625 
Q 47.125 21.390625 47.125 36.375 
Q 47.125 51.421875 43.28125 58.90625 
Q 39.453125 66.40625 31.78125 66.40625 
z
M 31.78125 74.21875 
Q 44.046875 74.21875 50.515625 64.515625 
Q 56.984375 54.828125 56.984375 36.375 
Q 56.984375 17.96875 50.515625 8.265625 
Q 44.046875 -1.421875 31.78125 -1.421875 
Q 19.53125 -1.421875 13.0625 8.265625 
Q 6.59375 17.96875 6.59375 36.375 
Q 6.59375 54.828125 13.0625 64.515625 
Q 19.53125 74.21875 31.78125 74.21875 
z
" id="DejaVuSans-48"/>
      </defs>
      <g transform="translate(70.651477 322.182437)scale(0.1 -0.1)">
       <use xlink:href="#DejaVuSans-48"/>
      </g>
     </g>
    </g>
    <g id="xtick_2">
     <g id="line2d_3">
      <path clip-path="url(#p8d49fecf9b)" d="M 138.893758 307.584 
L 138.893758 41.472 
" style="fill:none;stroke:#b0b0b0;stroke-linecap:square;stroke-width:0.8;"/>
     </g>
     <g id="line2d_4">
      <g>
       <use style="stroke:#000000;stroke-width:0.8;" x="138.893758" xlink:href="#m64bcfb051f" y="307.584"/>
      </g>
     </g>
     <g id="text_2">
      <!-- 100 -->
      <defs>
       <path d="M 12.40625 8.296875 
L 28.515625 8.296875 
L 28.515625 63.921875 
L 10.984375 60.40625 
L 10.984375 69.390625 
L 28.421875 72.90625 
L 38.28125 72.90625 
L 38.28125 8.296875 
L 54.390625 8.296875 
L 54.390625 0 
L 12.40625 0 
z
" id="DejaVuSans-49"/>
      </defs>
      <g transform="translate(129.350008 322.182437)scale(0.1 -0.1)">
       <use xlink:href="#DejaVuSans-49"/>
       <use x="63.623047" xlink:href="#DejaVuSans-48"/>
       <use x="127.246094" xlink:href="#DejaVuSans-48"/>
      </g>
     </g>
    </g>
    <g id="xtick_3">
     <g id="line2d_5">
      <path clip-path="url(#p8d49fecf9b)" d="M 203.95479 307.584 
L 203.95479 41.472 
" style="fill:none;stroke:#b0b0b0;stroke-linecap:square;stroke-width:0.8;"/>
     </g>
     <g id="line2d_6">
      <g>
       <use style="stroke:#000000;stroke-width:0.8;" x="203.95479" xlink:href="#m64bcfb051f" y="307.584"/>
      </g>
     </g>
     <g id="text_3">
      <!-- 200 -->
      <defs>
       <path d="M 19.1875 8.296875 
L 53.609375 8.296875 
L 53.609375 0 
L 7.328125 0 
L 7.328125 8.296875 
Q 12.9375 14.109375 22.625 23.890625 
Q 32.328125 33.6875 34.8125 36.53125 
Q 39.546875 41.84375 41.421875 45.53125 
Q 43.3125 49.21875 43.3125 52.78125 
Q 43.3125 58.59375 39.234375 62.25 
Q 35.15625 65.921875 28.609375 65.921875 
Q 23.96875 65.921875 18.8125 64.3125 
Q 13.671875 62.703125 7.8125 59.421875 
L 7.8125 69.390625 
Q 13.765625 71.78125 18.9375 73 
Q 24.125 74.21875 28.421875 74.21875 
Q 39.75 74.21875 46.484375 68.546875 
Q 53.21875 62.890625 53.21875 53.421875 
Q 53.21875 48.921875 51.53125 44.890625 
Q 49.859375 40.875 45.40625 35.40625 
Q 44.1875 33.984375 37.640625 27.21875 
Q 31.109375 20.453125 19.1875 8.296875 
z
" id="DejaVuSans-50"/>
      </defs>
      <g transform="translate(194.41104 322.182437)scale(0.1 -0.1)">
       <use xlink:href="#DejaVuSans-50"/>
       <use x="63.623047" xlink:href="#DejaVuSans-48"/>
       <use x="127.246094" xlink:href="#DejaVuSans-48"/>
      </g>
     </g>
    </g>
    <g id="xtick_4">
     <g id="line2d_7">
      <path clip-path="url(#p8d49fecf9b)" d="M 269.015821 307.584 
L 269.015821 41.472 
" style="fill:none;stroke:#b0b0b0;stroke-linecap:square;stroke-width:0.8;"/>
     </g>
     <g id="line2d_8">
      <g>
       <use style="stroke:#000000;stroke-width:0.8;" x="269.015821" xlink:href="#m64bcfb051f" y="307.584"/>
      </g>
     </g>
     <g id="text_4">
      <!-- 300 -->
      <defs>
       <path d="M 40.578125 39.3125 
Q 47.65625 37.796875 51.625 33 
Q 55.609375 28.21875 55.609375 21.1875 
Q 55.609375 10.40625 48.1875 4.484375 
Q 40.765625 -1.421875 27.09375 -1.421875 
Q 22.515625 -1.421875 17.65625 -0.515625 
Q 12.796875 0.390625 7.625 2.203125 
L 7.625 11.71875 
Q 11.71875 9.328125 16.59375 8.109375 
Q 21.484375 6.890625 26.8125 6.890625 
Q 36.078125 6.890625 40.9375 10.546875 
Q 45.796875 14.203125 45.796875 21.1875 
Q 45.796875 27.640625 41.28125 31.265625 
Q 36.765625 34.90625 28.71875 34.90625 
L 20.21875 34.90625 
L 20.21875 43.015625 
L 29.109375 43.015625 
Q 36.375 43.015625 40.234375 45.921875 
Q 44.09375 48.828125 44.09375 54.296875 
Q 44.09375 59.90625 40.109375 62.90625 
Q 36.140625 65.921875 28.71875 65.921875 
Q 24.65625 65.921875 20.015625 65.03125 
Q 15.375 64.15625 9.8125 62.3125 
L 9.8125 71.09375 
Q 15.4375 72.65625 20.34375 73.4375 
Q 25.25 74.21875 29.59375 74.21875 
Q 40.828125 74.21875 47.359375 69.109375 
Q 53.90625 64.015625 53.90625 55.328125 
Q 53.90625 49.265625 50.4375 45.09375 
Q 46.96875 40.921875 40.578125 39.3125 
z
" id="DejaVuSans-51"/>
      </defs>
      <g transform="translate(259.472071 322.182437)scale(0.1 -0.1)">
       <use xlink:href="#DejaVuSans-51"/>
       <use x="63.623047" xlink:href="#DejaVuSans-48"/>
       <use x="127.246094" xlink:href="#DejaVuSans-48"/>
      </g>
     </g>
    </g>
    <g id="xtick_5">
     <g id="line2d_9">
      <path clip-path="url(#p8d49fecf9b)" d="M 334.076852 307.584 
L 334.076852 41.472 
" style="fill:none;stroke:#b0b0b0;stroke-linecap:square;stroke-width:0.8;"/>
     </g>
     <g id="line2d_10">
      <g>
       <use style="stroke:#000000;stroke-width:0.8;" x="334.076852" xlink:href="#m64bcfb051f" y="307.584"/>
      </g>
     </g>
     <g id="text_5">
      <!-- 400 -->
      <defs>
       <path d="M 37.796875 64.3125 
L 12.890625 25.390625 
L 37.796875 25.390625 
z
M 35.203125 72.90625 
L 47.609375 72.90625 
L 47.609375 25.390625 
L 58.015625 25.390625 
L 58.015625 17.1875 
L 47.609375 17.1875 
L 47.609375 0 
L 37.796875 0 
L 37.796875 17.1875 
L 4.890625 17.1875 
L 4.890625 26.703125 
z
" id="DejaVuSans-52"/>
      </defs>
      <g transform="translate(324.533102 322.182437)scale(0.1 -0.1)">
       <use xlink:href="#DejaVuSans-52"/>
       <use x="63.623047" xlink:href="#DejaVuSans-48"/>
       <use x="127.246094" xlink:href="#DejaVuSans-48"/>
      </g>
     </g>
    </g>
    <g id="xtick_6">
     <g id="line2d_11">
      <path clip-path="url(#p8d49fecf9b)" d="M 399.137883 307.584 
L 399.137883 41.472 
" style="fill:none;stroke:#b0b0b0;stroke-linecap:square;stroke-width:0.8;"/>
     </g>
     <g id="line2d_12">
      <g>
       <use style="stroke:#000000;stroke-width:0.8;" x="399.137883" xlink:href="#m64bcfb051f" y="307.584"/>
      </g>
     </g>
     <g id="text_6">
      <!-- 500 -->
      <defs>
       <path d="M 10.796875 72.90625 
L 49.515625 72.90625 
L 49.515625 64.59375 
L 19.828125 64.59375 
L 19.828125 46.734375 
Q 21.96875 47.46875 24.109375 47.828125 
Q 26.265625 48.1875 28.421875 48.1875 
Q 40.625 48.1875 47.75 41.5 
Q 54.890625 34.8125 54.890625 23.390625 
Q 54.890625 11.625 47.5625 5.09375 
Q 40.234375 -1.421875 26.90625 -1.421875 
Q 22.3125 -1.421875 17.546875 -0.640625 
Q 12.796875 0.140625 7.71875 1.703125 
L 7.71875 11.625 
Q 12.109375 9.234375 16.796875 8.0625 
Q 21.484375 6.890625 26.703125 6.890625 
Q 35.15625 6.890625 40.078125 11.328125 
Q 45.015625 15.765625 45.015625 23.390625 
Q 45.015625 31 40.078125 35.4375 
Q 35.15625 39.890625 26.703125 39.890625 
Q 22.75 39.890625 18.8125 39.015625 
Q 14.890625 38.140625 10.796875 36.28125 
z
" id="DejaVuSans-53"/>
      </defs>
      <g transform="translate(389.594133 322.182437)scale(0.1 -0.1)">
       <use xlink:href="#DejaVuSans-53"/>
       <use x="63.623047" xlink:href="#DejaVuSans-48"/>
       <use x="127.246094" xlink:href="#DejaVuSans-48"/>
      </g>
     </g>
    </g>
    <g id="text_7">
     <!-- Generations -->
     <defs>
      <path d="M 59.515625 10.40625 
L 59.515625 29.984375 
L 43.40625 29.984375 
L 43.40625 38.09375 
L 69.28125 38.09375 
L 69.28125 6.78125 
Q 63.578125 2.734375 56.6875 0.65625 
Q 49.8125 -1.421875 42 -1.421875 
Q 24.90625 -1.421875 15.25 8.5625 
Q 5.609375 18.5625 5.609375 36.375 
Q 5.609375 54.25 15.25 64.234375 
Q 24.90625 74.21875 42 74.21875 
Q 49.125 74.21875 55.546875 72.453125 
Q 61.96875 70.703125 67.390625 67.28125 
L 67.390625 56.78125 
Q 61.921875 61.421875 55.765625 63.765625 
Q 49.609375 66.109375 42.828125 66.109375 
Q 29.4375 66.109375 22.71875 58.640625 
Q 16.015625 51.171875 16.015625 36.375 
Q 16.015625 21.625 22.71875 14.15625 
Q 29.4375 6.6875 42.828125 6.6875 
Q 48.046875 6.6875 52.140625 7.59375 
Q 56.25 8.5 59.515625 10.40625 
z
" id="DejaVuSans-71"/>
      <path d="M 56.203125 29.59375 
L 56.203125 25.203125 
L 14.890625 25.203125 
Q 15.484375 15.921875 20.484375 11.0625 
Q 25.484375 6.203125 34.421875 6.203125 
Q 39.59375 6.203125 44.453125 7.46875 
Q 49.3125 8.734375 54.109375 11.28125 
L 54.109375 2.78125 
Q 49.265625 0.734375 44.1875 -0.34375 
Q 39.109375 -1.421875 33.890625 -1.421875 
Q 20.796875 -1.421875 13.15625 6.1875 
Q 5.515625 13.8125 5.515625 26.8125 
Q 5.515625 40.234375 12.765625 48.109375 
Q 20.015625 56 32.328125 56 
Q 43.359375 56 49.78125 48.890625 
Q 56.203125 41.796875 56.203125 29.59375 
z
M 47.21875 32.234375 
Q 47.125 39.59375 43.09375 43.984375 
Q 39.0625 48.390625 32.421875 48.390625 
Q 24.90625 48.390625 20.390625 44.140625 
Q 15.875 39.890625 15.1875 32.171875 
z
" id="DejaVuSans-101"/>
      <path d="M 54.890625 33.015625 
L 54.890625 0 
L 45.90625 0 
L 45.90625 32.71875 
Q 45.90625 40.484375 42.875 44.328125 
Q 39.84375 48.1875 33.796875 48.1875 
Q 26.515625 48.1875 22.3125 43.546875 
Q 18.109375 38.921875 18.109375 30.90625 
L 18.109375 0 
L 9.078125 0 
L 9.078125 54.6875 
L 18.109375 54.6875 
L 18.109375 46.1875 
Q 21.34375 51.125 25.703125 53.5625 
Q 30.078125 56 35.796875 56 
Q 45.21875 56 50.046875 50.171875 
Q 54.890625 44.34375 54.890625 33.015625 
z
" id="DejaVuSans-110"/>
      <path d="M 41.109375 46.296875 
Q 39.59375 47.171875 37.8125 47.578125 
Q 36.03125 48 33.890625 48 
Q 26.265625 48 22.1875 43.046875 
Q 18.109375 38.09375 18.109375 28.8125 
L 18.109375 0 
L 9.078125 0 
L 9.078125 54.6875 
L 18.109375 54.6875 
L 18.109375 46.1875 
Q 20.953125 51.171875 25.484375 53.578125 
Q 30.03125 56 36.53125 56 
Q 37.453125 56 38.578125 55.875 
Q 39.703125 55.765625 41.0625 55.515625 
z
" id="DejaVuSans-114"/>
      <path d="M 34.28125 27.484375 
Q 23.390625 27.484375 19.1875 25 
Q 14.984375 22.515625 14.984375 16.5 
Q 14.984375 11.71875 18.140625 8.90625 
Q 21.296875 6.109375 26.703125 6.109375 
Q 34.1875 6.109375 38.703125 11.40625 
Q 43.21875 16.703125 43.21875 25.484375 
L 43.21875 27.484375 
z
M 52.203125 31.203125 
L 52.203125 0 
L 43.21875 0 
L 43.21875 8.296875 
Q 40.140625 3.328125 35.546875 0.953125 
Q 30.953125 -1.421875 24.3125 -1.421875 
Q 15.921875 -1.421875 10.953125 3.296875 
Q 6 8.015625 6 15.921875 
Q 6 25.140625 12.171875 29.828125 
Q 18.359375 34.515625 30.609375 34.515625 
L 43.21875 34.515625 
L 43.21875 35.40625 
Q 43.21875 41.609375 39.140625 45 
Q 35.0625 48.390625 27.6875 48.390625 
Q 23 48.390625 18.546875 47.265625 
Q 14.109375 46.140625 10.015625 43.890625 
L 10.015625 52.203125 
Q 14.9375 54.109375 19.578125 55.046875 
Q 24.21875 56 28.609375 56 
Q 40.484375 56 46.34375 49.84375 
Q 52.203125 43.703125 52.203125 31.203125 
z
" id="DejaVuSans-97"/>
      <path d="M 18.3125 70.21875 
L 18.3125 54.6875 
L 36.8125 54.6875 
L 36.8125 47.703125 
L 18.3125 47.703125 
L 18.3125 18.015625 
Q 18.3125 11.328125 20.140625 9.421875 
Q 21.96875 7.515625 27.59375 7.515625 
L 36.8125 7.515625 
L 36.8125 0 
L 27.59375 0 
Q 17.1875 0 13.234375 3.875 
Q 9.28125 7.765625 9.28125 18.015625 
L 9.28125 47.703125 
L 2.6875 47.703125 
L 2.6875 54.6875 
L 9.28125 54.6875 
L 9.28125 70.21875 
z
" id="DejaVuSans-116"/>
      <path d="M 9.421875 54.6875 
L 18.40625 54.6875 
L 18.40625 0 
L 9.421875 0 
z
M 9.421875 75.984375 
L 18.40625 75.984375 
L 18.40625 64.59375 
L 9.421875 64.59375 
z
" id="DejaVuSans-105"/>
      <path d="M 30.609375 48.390625 
Q 23.390625 48.390625 19.1875 42.75 
Q 14.984375 37.109375 14.984375 27.296875 
Q 14.984375 17.484375 19.15625 11.84375 
Q 23.34375 6.203125 30.609375 6.203125 
Q 37.796875 6.203125 41.984375 11.859375 
Q 46.1875 17.53125 46.1875 27.296875 
Q 46.1875 37.015625 41.984375 42.703125 
Q 37.796875 48.390625 30.609375 48.390625 
z
M 30.609375 56 
Q 42.328125 56 49.015625 48.375 
Q 55.71875 40.765625 55.71875 27.296875 
Q 55.71875 13.875 49.015625 6.21875 
Q 42.328125 -1.421875 30.609375 -1.421875 
Q 18.84375 -1.421875 12.171875 6.21875 
Q 5.515625 13.875 5.515625 27.296875 
Q 5.515625 40.765625 12.171875 48.375 
Q 18.84375 56 30.609375 56 
z
" id="DejaVuSans-111"/>
      <path d="M 44.28125 53.078125 
L 44.28125 44.578125 
Q 40.484375 46.53125 36.375 47.5 
Q 32.28125 48.484375 27.875 48.484375 
Q 21.1875 48.484375 17.84375 46.4375 
Q 14.5 44.390625 14.5 40.28125 
Q 14.5 37.15625 16.890625 35.375 
Q 19.28125 33.59375 26.515625 31.984375 
L 29.59375 31.296875 
Q 39.15625 29.25 43.1875 25.515625 
Q 47.21875 21.78125 47.21875 15.09375 
Q 47.21875 7.46875 41.1875 3.015625 
Q 35.15625 -1.421875 24.609375 -1.421875 
Q 20.21875 -1.421875 15.453125 -0.5625 
Q 10.6875 0.296875 5.421875 2 
L 5.421875 11.28125 
Q 10.40625 8.6875 15.234375 7.390625 
Q 20.0625 6.109375 24.8125 6.109375 
Q 31.15625 6.109375 34.5625 8.28125 
Q 37.984375 10.453125 37.984375 14.40625 
Q 37.984375 18.0625 35.515625 20.015625 
Q 33.0625 21.96875 24.703125 23.78125 
L 21.578125 24.515625 
Q 13.234375 26.265625 9.515625 29.90625 
Q 5.8125 33.546875 5.8125 39.890625 
Q 5.8125 47.609375 11.28125 51.796875 
Q 16.75 56 26.8125 56 
Q 31.78125 56 36.171875 55.265625 
Q 40.578125 54.546875 44.28125 53.078125 
z
" id="DejaVuSans-115"/>
     </defs>
     <g transform="translate(205.662344 335.860562)scale(0.1 -0.1)">
      <use xlink:href="#DejaVuSans-71"/>
      <use x="77.490234" xlink:href="#DejaVuSans-101"/>
      <use x="139.013672" xlink:href="#DejaVuSans-110"/>
      <use x="202.392578" xlink:href="#DejaVuSans-101"/>
      <use x="263.916016" xlink:href="#DejaVuSans-114"/>
      <use x="305.029297" xlink:href="#DejaVuSans-97"/>
      <use x="366.308594" xlink:href="#DejaVuSans-116"/>
      <use x="405.517578" xlink:href="#DejaVuSans-105"/>
      <use x="433.300781" xlink:href="#DejaVuSans-111"/>
      <use x="494.482422" xlink:href="#DejaVuSans-110"/>
      <use x="557.861328" xlink:href="#DejaVuSans-115"/>
     </g>
    </g>
   </g>
   <g id="matplotlib.axis_2">
    <g id="ytick_1">
     <g id="line2d_13">
      <path clip-path="url(#p8d49fecf9b)" d="M 57.6 278.863273 
L 414.72 278.863273 
" style="fill:none;stroke:#b0b0b0;stroke-linecap:square;stroke-width:0.8;"/>
     </g>
     <g id="line2d_14">
      <defs>
       <path d="M 0 0 
L -3.5 0 
" id="m9d31ca215e" style="stroke:#000000;stroke-width:0.8;"/>
      </defs>
      <g>
       <use style="stroke:#000000;stroke-width:0.8;" x="57.6" xlink:href="#m9d31ca215e" y="278.863273"/>
      </g>
     </g>
     <g id="text_8">
      <!-- 0 -->
      <g transform="translate(44.2375 282.662492)scale(0.1 -0.1)">
       <use xlink:href="#DejaVuSans-48"/>
      </g>
     </g>
    </g>
    <g id="ytick_2">
     <g id="line2d_15">
      <path clip-path="url(#p8d49fecf9b)" d="M 57.6 224.144784 
L 414.72 224.144784 
" style="fill:none;stroke:#b0b0b0;stroke-linecap:square;stroke-width:0.8;"/>
     </g>
     <g id="line2d_16">
      <g>
       <use style="stroke:#000000;stroke-width:0.8;" x="57.6" xlink:href="#m9d31ca215e" y="224.144784"/>
      </g>
     </g>
     <g id="text_9">
      <!-- 1 -->
      <g transform="translate(44.2375 227.944003)scale(0.1 -0.1)">
       <use xlink:href="#DejaVuSans-49"/>
      </g>
     </g>
    </g>
    <g id="ytick_3">
     <g id="line2d_17">
      <path clip-path="url(#p8d49fecf9b)" d="M 57.6 169.426295 
L 414.72 169.426295 
" style="fill:none;stroke:#b0b0b0;stroke-linecap:square;stroke-width:0.8;"/>
     </g>
     <g id="line2d_18">
      <g>
       <use style="stroke:#000000;stroke-width:0.8;" x="57.6" xlink:href="#m9d31ca215e" y="169.426295"/>
      </g>
     </g>
     <g id="text_10">
      <!-- 2 -->
      <g transform="translate(44.2375 173.225514)scale(0.1 -0.1)">
       <use xlink:href="#DejaVuSans-50"/>
      </g>
     </g>
    </g>
    <g id="ytick_4">
     <g id="line2d_19">
      <path clip-path="url(#p8d49fecf9b)" d="M 57.6 114.707806 
L 414.72 114.707806 
" style="fill:none;stroke:#b0b0b0;stroke-linecap:square;stroke-width:0.8;"/>
     </g>
     <g id="line2d_20">
      <g>
       <use style="stroke:#000000;stroke-width:0.8;" x="57.6" xlink:href="#m9d31ca215e" y="114.707806"/>
      </g>
     </g>
     <g id="text_11">
      <!-- 3 -->
      <g transform="translate(44.2375 118.507025)scale(0.1 -0.1)">
       <use xlink:href="#DejaVuSans-51"/>
      </g>
     </g>
    </g>
    <g id="ytick_5">
     <g id="line2d_21">
      <path clip-path="url(#p8d49fecf9b)" d="M 57.6 59.989318 
L 414.72 59.989318 
" style="fill:none;stroke:#b0b0b0;stroke-linecap:square;stroke-width:0.8;"/>
     </g>
     <g id="line2d_22">
      <g>
       <use style="stroke:#000000;stroke-width:0.8;" x="57.6" xlink:href="#m9d31ca215e" y="59.989318"/>
      </g>
     </g>
     <g id="text_12">
      <!-- 4 -->
      <g transform="translate(44.2375 63.788536)scale(0.1 -0.1)">
       <use xlink:href="#DejaVuSans-52"/>
      </g>
     </g>
    </g>
    <g id="text_13">
     <!-- Fitness -->
     <defs>
      <path d="M 9.8125 72.90625 
L 51.703125 72.90625 
L 51.703125 64.59375 
L 19.671875 64.59375 
L 19.671875 43.109375 
L 48.578125 43.109375 
L 48.578125 34.8125 
L 19.671875 34.8125 
L 19.671875 0 
L 9.8125 0 
z
" id="DejaVuSans-70"/>
     </defs>
     <g transform="translate(38.157812 192.202219)rotate(-90)scale(0.1 -0.1)">
      <use xlink:href="#DejaVuSans-70"/>
      <use x="57.410156" xlink:href="#DejaVuSans-105"/>
      <use x="85.193359" xlink:href="#DejaVuSans-116"/>
      <use x="124.402344" xlink:href="#DejaVuSans-110"/>
      <use x="187.78125" xlink:href="#DejaVuSans-101"/>
      <use x="249.304688" xlink:href="#DejaVuSans-115"/>
      <use x="301.404297" xlink:href="#DejaVuSans-115"/>
     </g>
    </g>
   </g>
   <g id="line2d_23">
    <path clip-path="url(#p8d49fecf9b)" d="M 73.832727 269.518552 
L 75.133948 261.785328 
L 75.784558 261.311075 
L 76.435169 257.63594 
L 77.736389 253.29191 
L 78.386999 254.863613 
L 79.03761 252.933777 
L 79.68822 251.923738 
L 80.33883 251.603358 
L 80.989441 250.674892 
L 81.640051 250.43307 
L 82.290661 249.285817 
L 82.941272 249.191887 
L 83.591882 247.731054 
L 84.893103 250.205507 
L 85.543713 249.002132 
L 86.194323 248.277767 
L 86.844934 248.852903 
L 87.495544 247.141746 
L 88.146154 247.845425 
L 88.796764 247.406575 
L 89.447375 247.241104 
L 90.097985 248.830539 
L 90.748595 247.417313 
L 91.399206 246.373189 
L 92.049816 249.264322 
L 92.700426 249.741925 
L 93.351037 249.121648 
L 94.652257 248.548475 
L 95.302868 248.118142 
L 96.604088 248.027262 
L 97.254698 249.152129 
L 97.905309 248.806049 
L 99.206529 249.246848 
L 99.85714 249.250476 
L 100.50775 248.307152 
L 101.15836 247.007463 
L 101.808971 247.489231 
L 102.459581 245.802743 
L 103.110191 246.645345 
L 103.760802 245.833199 
L 104.411412 245.723226 
L 105.062022 252.86695 
L 105.712633 252.807805 
L 106.363243 252.401913 
L 107.013853 252.397425 
L 107.664463 250.931429 
L 108.315074 250.644757 
L 108.965684 251.521759 
L 109.616294 251.682921 
L 110.917515 249.51912 
L 111.568125 249.949535 
L 112.218736 249.873412 
L 112.869346 252.569373 
L 113.519956 251.503756 
L 114.170567 251.795989 
L 114.821177 253.910951 
L 115.471787 252.178054 
L 116.122398 252.314237 
L 117.423618 253.956763 
L 118.074228 253.969713 
L 118.724839 252.263846 
L 119.375449 252.948994 
L 120.026059 254.571809 
L 120.67667 254.317659 
L 121.32728 253.884009 
L 121.97789 254.006207 
L 122.628501 253.149126 
L 123.279111 255.060165 
L 123.929721 252.89285 
L 124.580332 252.524105 
L 125.230942 253.390721 
L 125.881552 255.023819 
L 126.532163 255.52331 
L 127.182773 254.919776 
L 127.833383 254.083166 
L 128.483993 254.059791 
L 129.134604 254.661624 
L 129.785214 256.634643 
L 130.435824 257.407423 
L 131.086435 257.487631 
L 131.737045 257.176683 
L 132.387655 256.997262 
L 133.038266 258.65784 
L 133.688876 257.150673 
L 134.339486 257.68031 
L 134.990097 256.590644 
L 135.640707 257.130366 
L 136.291317 256.631646 
L 136.941927 257.442365 
L 137.592538 257.000277 
L 138.243148 257.907305 
L 138.893758 258.475337 
L 139.544369 258.260238 
L 140.194979 258.472338 
L 141.4962 258.639478 
L 142.14681 259.847763 
L 142.79742 258.438346 
L 143.448031 258.83851 
L 144.098641 258.010036 
L 144.749251 258.790901 
L 146.050472 257.872232 
L 146.701082 257.282077 
L 147.351692 257.832598 
L 148.002303 259.042367 
L 149.303523 258.157298 
L 149.954134 257.772576 
L 150.604744 258.176596 
L 151.255354 257.296807 
L 151.905965 256.817633 
L 152.556575 258.154214 
L 153.207185 257.600324 
L 153.857796 256.459242 
L 154.508406 259.162157 
L 155.159016 258.425706 
L 157.110847 257.362902 
L 157.761457 259.381232 
L 158.412068 257.65601 
L 159.062678 257.731201 
L 159.713288 256.532673 
L 160.363899 258.15079 
L 161.014509 259.22699 
L 161.665119 258.215888 
L 162.31573 258.727453 
L 162.96634 258.782422 
L 163.61695 258.58693 
L 164.267561 258.677115 
L 164.918171 259.433686 
L 165.568781 257.679556 
L 166.219392 260.495833 
L 166.870002 258.57179 
L 167.520612 258.932265 
L 168.171222 258.868471 
L 168.821833 258.932575 
L 169.472443 258.43599 
L 170.123053 259.023203 
L 170.773664 258.664726 
L 171.424274 259.053057 
L 172.725495 258.132071 
L 173.376105 258.650738 
L 174.026715 257.427242 
L 174.677326 257.010031 
L 175.327936 256.944626 
L 175.978546 257.73235 
L 176.629156 258.178025 
L 177.279767 257.926891 
L 177.930377 257.984836 
L 178.580987 257.665135 
L 179.231598 258.325192 
L 179.882208 257.882475 
L 180.532818 258.32494 
L 181.183429 259.54057 
L 181.834039 259.153699 
L 182.484649 259.421181 
L 183.78587 258.290203 
L 184.43648 258.749137 
L 185.087091 258.641603 
L 185.737701 258.954405 
L 186.388311 258.565823 
L 187.038921 259.103309 
L 187.689532 258.280158 
L 188.340142 258.046033 
L 188.990752 257.413833 
L 190.291973 258.183443 
L 191.593194 258.351689 
L 192.243804 258.21599 
L 192.894414 258.665184 
L 193.545025 257.859576 
L 194.195635 257.868359 
L 194.846245 259.293116 
L 195.496856 258.871379 
L 196.798076 258.316229 
L 197.448686 258.857463 
L 198.099297 258.355149 
L 198.749907 257.067027 
L 199.400517 257.928441 
L 200.051128 259.037536 
L 200.701738 259.427629 
L 201.352348 259.206431 
L 202.002959 258.462011 
L 202.653569 259.391305 
L 203.304179 259.502898 
L 203.95479 258.274906 
L 204.6054 258.044863 
L 205.25601 258.828574 
L 205.906621 258.059858 
L 206.557231 258.016595 
L 207.207841 257.137664 
L 207.858451 259.062481 
L 208.509062 257.562828 
L 209.159672 259.2969 
L 209.810282 258.162578 
L 210.460893 258.647346 
L 211.111503 257.749184 
L 211.762113 258.445338 
L 212.412724 258.731337 
L 213.063334 256.708684 
L 213.713944 257.751421 
L 215.015165 257.898176 
L 215.665775 257.499114 
L 216.316385 257.655631 
L 216.966996 257.169413 
L 218.268216 257.891285 
L 218.918827 257.081314 
L 219.569437 257.673525 
L 220.220047 257.062225 
L 220.870658 258.521173 
L 221.521268 257.601196 
L 222.171878 257.84321 
L 222.822489 255.83709 
L 223.473099 257.149936 
L 224.123709 257.093486 
L 224.77432 257.877777 
L 225.42493 258.171701 
L 226.07554 258.259346 
L 227.376761 257.683498 
L 228.027371 258.45817 
L 228.677981 258.574984 
L 229.328592 258.021229 
L 229.979202 257.063809 
L 230.629812 257.229089 
L 231.280423 259.442262 
L 231.931033 257.69831 
L 232.581643 257.632056 
L 233.232254 258.826522 
L 234.533474 257.437552 
L 235.184085 257.39321 
L 235.834695 257.996585 
L 236.485305 258.141554 
L 237.135915 258.758237 
L 237.786526 258.045095 
L 239.087746 257.635616 
L 239.738357 258.519052 
L 240.388967 257.265467 
L 241.039577 257.269645 
L 241.690188 257.559239 
L 242.340798 257.097711 
L 242.991408 257.876545 
L 243.642019 258.341773 
L 244.292629 257.911281 
L 244.943239 258.197741 
L 246.24446 258.098119 
L 246.89507 257.740752 
L 247.54568 257.674326 
L 248.196291 258.52045 
L 249.497511 257.970511 
L 250.148122 258.18539 
L 250.798732 258.137573 
L 251.449342 258.853792 
L 252.099953 257.933946 
L 252.750563 257.503935 
L 253.401173 256.733608 
L 254.051784 259.242219 
L 254.702394 257.877545 
L 255.353004 256.904553 
L 256.003615 257.931102 
L 256.654225 257.784293 
L 257.304835 256.815803 
L 257.955445 256.089592 
L 258.606056 256.399035 
L 259.256666 257.479127 
L 259.907276 257.018559 
L 260.557887 256.058938 
L 261.208497 257.008497 
L 261.859107 257.004224 
L 262.509718 256.850132 
L 263.160328 256.425116 
L 263.810938 257.065561 
L 264.461549 258.945052 
L 265.112159 255.820235 
L 265.762769 256.763736 
L 266.413379 257.387388 
L 267.06399 256.326001 
L 267.7146 256.947765 
L 268.36521 256.398865 
L 269.015821 256.993344 
L 269.666431 258.321679 
L 270.317041 257.273377 
L 270.967652 257.080771 
L 272.268872 258.311278 
L 272.919483 258.465663 
L 273.570093 257.288984 
L 274.220703 258.831041 
L 274.871314 257.409643 
L 275.521924 256.609908 
L 276.172534 257.465158 
L 276.823144 257.686976 
L 277.473755 258.070031 
L 278.124365 256.38587 
L 278.774975 257.302881 
L 279.425586 256.839191 
L 280.726806 257.68112 
L 281.377417 257.983963 
L 282.028027 258.541653 
L 282.678637 258.323945 
L 283.329248 257.96107 
L 283.979858 257.111599 
L 284.630468 257.269382 
L 285.281079 257.174452 
L 287.232909 257.752953 
L 287.88352 257.467062 
L 288.53413 258.208617 
L 289.18474 256.722833 
L 289.835351 257.041965 
L 290.485961 257.033569 
L 291.136571 256.73233 
L 291.787182 258.096915 
L 292.437792 257.023705 
L 293.088402 257.325169 
L 293.739013 257.852287 
L 294.389623 257.757134 
L 295.040233 256.781168 
L 295.690844 257.854046 
L 296.341454 256.584297 
L 296.992064 255.828998 
L 297.642674 258.799243 
L 298.943895 256.131384 
L 299.594505 255.920202 
L 300.245116 257.627526 
L 300.895726 257.927451 
L 301.546336 257.536682 
L 302.847557 258.042558 
L 303.498167 258.083363 
L 304.148778 257.714508 
L 304.799388 257.13889 
L 305.449998 257.255446 
L 306.100608 257.115776 
L 306.751219 258.720118 
L 308.052439 256.899782 
L 308.70305 256.575622 
L 309.35366 256.631013 
L 310.00427 257.251301 
L 310.654881 257.249682 
L 311.305491 258.006932 
L 311.956101 256.541551 
L 312.606712 257.40628 
L 313.257322 257.999424 
L 313.907932 258.035044 
L 314.558543 257.895291 
L 315.209153 257.178642 
L 315.859763 257.91969 
L 316.510373 256.436767 
L 317.160984 257.529814 
L 317.811594 257.910613 
L 318.462204 257.109077 
L 319.763425 256.150282 
L 320.414035 257.218013 
L 321.064646 256.935958 
L 321.715256 257.038501 
L 322.365866 256.540381 
L 323.016477 255.48879 
L 323.667087 257.426763 
L 324.317697 257.380132 
L 324.968308 256.160331 
L 325.618918 258.830672 
L 326.269528 256.297283 
L 326.920138 257.91528 
L 328.221359 256.652254 
L 328.871969 256.729184 
L 329.52258 257.857582 
L 330.17319 256.823199 
L 330.8238 256.599514 
L 331.474411 257.923856 
L 332.125021 256.909192 
L 332.775631 256.907624 
L 333.426242 256.566507 
L 334.076852 255.938463 
L 334.727462 257.093155 
L 335.378073 256.797241 
L 336.028683 257.4441 
L 336.679293 256.250275 
L 337.980514 257.409979 
L 338.631124 256.482321 
L 339.281734 256.606826 
L 339.932345 257.919723 
L 340.582955 257.362242 
L 341.233565 255.959163 
L 341.884176 257.286812 
L 342.534786 257.462143 
L 343.185396 256.422129 
L 343.836007 256.402267 
L 344.486617 256.912721 
L 345.137227 256.703641 
L 345.787837 257.501408 
L 346.438448 256.042628 
L 347.089058 257.316203 
L 347.739668 257.091659 
L 348.390279 256.30197 
L 349.691499 257.815638 
L 350.34211 257.613039 
L 350.99272 256.064355 
L 351.64333 255.901164 
L 352.293941 256.975102 
L 352.944551 256.470955 
L 353.595161 256.364384 
L 354.245772 256.980992 
L 354.896382 256.404133 
L 355.546992 257.139906 
L 356.848213 256.638892 
L 357.498823 255.537023 
L 358.149433 256.668196 
L 358.800044 257.120493 
L 359.450654 256.302792 
L 360.101264 255.847619 
L 360.751875 256.939831 
L 363.354316 257.190968 
L 364.004926 256.453471 
L 364.655537 256.349895 
L 365.956757 255.142012 
L 366.607367 255.757352 
L 367.257978 255.590445 
L 368.559198 257.098819 
L 369.209809 256.263993 
L 369.860419 257.148971 
L 370.511029 256.940966 
L 371.16164 257.195882 
L 371.81225 255.731782 
L 373.113471 256.542886 
L 373.764081 256.415025 
L 374.414691 257.599519 
L 375.065302 255.456329 
L 375.715912 256.962276 
L 376.366522 257.011738 
L 377.017132 256.445491 
L 377.667743 255.609927 
L 378.318353 257.891012 
L 379.619574 255.194442 
L 380.270184 256.951904 
L 380.920794 257.948428 
L 381.571405 256.419259 
L 382.222015 255.59236 
L 382.872625 255.536915 
L 383.523236 256.806379 
L 384.824456 256.243751 
L 385.475066 258.32799 
L 386.125677 257.404561 
L 386.776287 257.664399 
L 387.426897 257.789639 
L 388.077508 257.021473 
L 389.378728 256.265898 
L 390.029339 257.31036 
L 390.679949 255.345956 
L 391.330559 257.067701 
L 391.98117 257.66293 
L 393.28239 256.447975 
L 393.933001 257.817226 
L 394.583611 256.622741 
L 395.234221 257.710129 
L 395.884831 257.171289 
L 396.535442 257.60516 
L 397.186052 257.835057 
L 397.836662 257.478657 
L 398.487273 258.268642 
L 398.487273 258.268642 
" style="fill:none;stroke:#0000ff;stroke-linecap:square;stroke-width:1.5;"/>
   </g>
   <g id="line2d_24">
    <path clip-path="url(#p8d49fecf9b)" d="M 73.832727 279.905041 
L 74.483338 279.595204 
L 75.133948 280.957809 
L 75.784558 281.361287 
L 76.435169 280.521795 
L 77.085779 278.924836 
L 77.736389 279.270198 
L 78.386999 281.039811 
L 79.03761 280.471891 
L 79.68822 280.458197 
L 80.33883 280.668328 
L 80.989441 280.6129 
L 81.640051 281.29799 
L 82.290661 280.716716 
L 82.941272 281.386831 
L 83.591882 280.568202 
L 84.242492 282.266587 
L 84.893103 283.575467 
L 85.543713 282.795395 
L 86.194323 282.991382 
L 86.844934 283.475023 
L 87.495544 282.747267 
L 88.146154 283.617029 
L 88.796764 284.0961 
L 89.447375 283.40744 
L 90.097985 285.679364 
L 90.748595 284.578037 
L 91.399206 283.874796 
L 92.049816 284.561529 
L 92.700426 285.417227 
L 94.001647 285.235388 
L 94.652257 285.464466 
L 95.302868 284.786079 
L 95.953478 285.2038 
L 96.604088 285.873736 
L 97.254698 287.193288 
L 97.905309 285.929843 
L 98.555919 285.578204 
L 99.206529 286.118376 
L 99.85714 286.246361 
L 100.50775 286.152403 
L 101.15836 285.777273 
L 101.808971 287.071 
L 102.459581 286.094846 
L 103.110191 286.803089 
L 104.411412 287.388193 
L 105.062022 288.379809 
L 107.013853 287.742008 
L 107.664463 287.124802 
L 108.315074 287.458337 
L 108.965684 288.173369 
L 109.616294 288.660722 
L 110.917515 287.219667 
L 111.568125 288.482253 
L 112.218736 288.383978 
L 112.869346 289.971821 
L 113.519956 288.834004 
L 114.170567 289.675124 
L 114.821177 289.86731 
L 115.471787 288.913846 
L 116.122398 289.149402 
L 116.773008 289.662393 
L 117.423618 290.534876 
L 118.074228 290.099313 
L 118.724839 288.926557 
L 120.026059 290.512303 
L 120.67667 290.61176 
L 121.32728 290.563525 
L 121.97789 291.199673 
L 122.628501 289.712678 
L 123.279111 291.563875 
L 123.929721 290.202675 
L 124.580332 289.43775 
L 125.230942 290.935631 
L 125.881552 291.546876 
L 126.532163 291.883938 
L 127.182773 291.061442 
L 127.833383 291.602884 
L 128.483993 291.029058 
L 129.134604 291.521219 
L 129.785214 291.471609 
L 130.435824 290.586945 
L 131.086435 291.481213 
L 131.737045 290.613569 
L 132.387655 291.235905 
L 133.038266 292.778948 
L 133.688876 290.87328 
L 134.339486 291.334292 
L 134.990097 290.579763 
L 135.640707 291.615766 
L 136.291317 290.679303 
L 136.941927 291.277077 
L 137.592538 290.553279 
L 138.243148 291.44289 
L 138.893758 291.859745 
L 139.544369 291.693377 
L 141.4962 291.723468 
L 142.14681 292.751912 
L 142.79742 292.412469 
L 143.448031 291.863804 
L 144.098641 291.557275 
L 144.749251 292.269205 
L 145.399862 292.048292 
L 146.050472 292.357155 
L 146.701082 291.865775 
L 147.351692 292.003322 
L 148.002303 292.874139 
L 148.652913 292.297557 
L 149.303523 292.238716 
L 149.954134 291.64508 
L 150.604744 291.959816 
L 151.255354 291.791505 
L 151.905965 291.154458 
L 152.556575 292.085028 
L 153.207185 292.321983 
L 153.857796 290.935911 
L 154.508406 293.347291 
L 155.159016 292.654148 
L 155.809627 292.226506 
L 156.460237 292.775521 
L 157.110847 292.674812 
L 157.761457 294.296448 
L 158.412068 292.569727 
L 159.062678 292.423815 
L 159.713288 291.356906 
L 160.363899 292.984857 
L 161.014509 293.460161 
L 161.665119 293.298289 
L 162.31573 293.456254 
L 162.96634 293.232984 
L 163.61695 293.519735 
L 164.267561 293.312284 
L 164.918171 294.139924 
L 165.568781 293.382413 
L 166.219392 291.795157 
L 166.870002 290.781841 
L 167.520612 291.002211 
L 168.821833 291.900928 
L 169.472443 291.079464 
L 170.123053 291.668583 
L 170.773664 292.077179 
L 172.725495 291.111248 
L 173.376105 291.712037 
L 174.026715 290.944194 
L 174.677326 291.096312 
L 175.327936 291.790601 
L 175.978546 291.926805 
L 176.629156 292.273352 
L 177.279767 292.853475 
L 177.930377 291.934393 
L 178.580987 292.782768 
L 179.882208 291.889991 
L 180.532818 292.052645 
L 181.183429 293.035601 
L 181.834039 293.042807 
L 182.484649 292.647265 
L 183.13526 293.321878 
L 183.78587 292.49886 
L 184.43648 293.677791 
L 185.087091 292.879534 
L 185.737701 293.338624 
L 186.388311 293.114976 
L 187.038921 293.92867 
L 187.689532 293.124562 
L 188.340142 293.279315 
L 188.990752 292.6088 
L 189.641363 292.506141 
L 190.291973 293.520799 
L 190.942583 292.730709 
L 191.593194 293.940672 
L 192.243804 292.538709 
L 192.894414 293.93806 
L 193.545025 292.794031 
L 194.195635 292.647972 
L 194.846245 294.257569 
L 195.496856 293.768368 
L 196.147466 293.460722 
L 196.798076 293.299873 
L 197.448686 293.970252 
L 198.099297 293.636835 
L 198.749907 292.712312 
L 199.400517 293.067929 
L 200.701738 294.363687 
L 201.352348 293.94999 
L 202.002959 293.117746 
L 202.653569 294.399379 
L 203.304179 294.091752 
L 203.95479 293.629677 
L 204.6054 293.816329 
L 205.25601 293.819442 
L 205.906621 293.585144 
L 206.557231 293.545549 
L 207.207841 292.716165 
L 207.858451 294.198048 
L 208.509062 293.019787 
L 209.159672 294.950285 
L 209.810282 294.623584 
L 210.460893 293.960073 
L 211.111503 293.719045 
L 211.762113 293.746212 
L 212.412724 293.169246 
L 213.063334 292.226912 
L 213.713944 293.059925 
L 214.364555 293.320199 
L 215.665775 293.373538 
L 216.966996 293.419052 
L 217.617606 294.039344 
L 218.268216 293.973265 
L 218.918827 292.968415 
L 219.569437 293.931619 
L 220.220047 293.287526 
L 220.870658 294.287827 
L 221.521268 293.40415 
L 222.171878 293.023052 
L 222.822489 292.13079 
L 223.473099 293.229962 
L 224.123709 293.09103 
L 225.42493 293.684506 
L 226.07554 293.895983 
L 226.72615 293.912811 
L 227.376761 293.34256 
L 228.027371 294.670961 
L 228.677981 293.889115 
L 229.328592 293.491417 
L 230.629812 292.99999 
L 231.280423 294.771292 
L 231.931033 293.910107 
L 232.581643 294.364747 
L 233.232254 294.363394 
L 234.533474 293.910836 
L 235.184085 293.741977 
L 235.834695 294.511621 
L 236.485305 294.245516 
L 237.135915 294.314241 
L 237.786526 293.694672 
L 238.437136 294.187947 
L 239.087746 293.682759 
L 239.738357 294.573294 
L 240.388967 294.077711 
L 241.690188 294.187778 
L 242.340798 293.674922 
L 242.991408 293.930861 
L 243.642019 294.314788 
L 244.292629 293.725314 
L 244.943239 294.34014 
L 245.59385 294.029831 
L 246.24446 294.24865 
L 246.89507 293.427105 
L 247.54568 293.786404 
L 248.196291 293.775936 
L 248.846901 294.277315 
L 250.148122 293.895913 
L 251.449342 294.672086 
L 252.099953 294.897424 
L 253.401173 293.370895 
L 254.051784 295.023203 
L 254.702394 293.985634 
L 255.353004 292.623449 
L 256.003615 293.799469 
L 256.654225 293.588589 
L 257.304835 292.809261 
L 257.955445 293.264197 
L 258.606056 292.864102 
L 259.256666 294.007835 
L 259.907276 293.038185 
L 261.208497 293.191512 
L 261.859107 293.398228 
L 262.509718 293.415219 
L 263.160328 293.252556 
L 263.810938 293.856466 
L 264.461549 294.907492 
L 265.112159 292.391854 
L 265.762769 292.810075 
L 266.413379 294.210516 
L 267.06399 293.175004 
L 267.7146 293.444163 
L 268.36521 293.455506 
L 269.015821 293.736578 
L 269.666431 294.29661 
L 270.317041 293.631367 
L 270.967652 293.768586 
L 271.618262 294.640276 
L 272.268872 294.867313 
L 272.919483 294.519048 
L 273.570093 293.502715 
L 274.220703 295.377379 
L 274.871314 294.059953 
L 275.521924 294.031355 
L 276.172534 293.785817 
L 276.823144 293.731586 
L 277.473755 294.301639 
L 278.124365 293.586208 
L 278.774975 293.516475 
L 279.425586 293.218008 
L 280.076196 294.119561 
L 280.726806 293.966631 
L 281.377417 294.444733 
L 282.028027 294.683295 
L 283.329248 294.355516 
L 283.979858 293.472786 
L 284.630468 293.23201 
L 285.281079 293.821863 
L 285.931689 293.965093 
L 286.582299 293.565199 
L 287.232909 293.957114 
L 287.88352 294.668084 
L 288.53413 294.533316 
L 289.18474 293.723881 
L 289.835351 294.291203 
L 290.485961 293.90057 
L 291.136571 293.960562 
L 291.787182 294.945688 
L 292.437792 293.804442 
L 293.088402 294.474521 
L 293.739013 293.7368 
L 294.389623 294.119086 
L 295.040233 294.337378 
L 295.690844 294.392783 
L 296.341454 293.531874 
L 296.992064 293.725963 
L 297.642674 295.052668 
L 298.943895 293.000126 
L 299.594505 292.746096 
L 300.245116 293.892761 
L 300.895726 294.523346 
L 301.546336 293.952024 
L 302.196947 294.183611 
L 302.847557 294.74171 
L 303.498167 294.94227 
L 304.148778 294.079618 
L 304.799388 293.810983 
L 305.449998 293.774362 
L 306.100608 293.906646 
L 306.751219 294.794682 
L 308.052439 293.594343 
L 308.70305 293.351664 
L 309.35366 293.623379 
L 310.00427 293.530631 
L 310.654881 293.580222 
L 311.305491 294.470282 
L 311.956101 293.230795 
L 312.606712 294.029263 
L 313.257322 294.623043 
L 313.907932 294.052115 
L 314.558543 294.178901 
L 315.209153 294.54369 
L 315.859763 294.273537 
L 316.510373 294.255678 
L 317.160984 294.363932 
L 317.811594 294.815602 
L 318.462204 294.489084 
L 319.112815 294.319594 
L 319.763425 293.340385 
L 320.414035 293.18061 
L 321.064646 294.055042 
L 321.715256 294.123021 
L 322.365866 293.510743 
L 323.016477 292.633599 
L 323.667087 294.287006 
L 324.317697 294.108864 
L 324.968308 293.461854 
L 325.618918 295.436116 
L 326.269528 293.441768 
L 326.920138 294.247206 
L 327.570749 293.775979 
L 328.221359 294.116559 
L 328.871969 294.018309 
L 329.52258 294.035352 
L 330.17319 293.799083 
L 330.8238 293.234375 
L 331.474411 294.953507 
L 332.125021 293.732262 
L 332.775631 293.684079 
L 333.426242 293.362856 
L 334.076852 293.36161 
L 334.727462 294.070702 
L 335.378073 293.401368 
L 336.028683 294.018876 
L 336.679293 293.706044 
L 337.329903 293.660938 
L 337.980514 294.423508 
L 338.631124 293.301389 
L 339.281734 293.245193 
L 339.932345 294.780164 
L 340.582955 294.525449 
L 341.233565 294.002724 
L 341.884176 294.619621 
L 342.534786 294.73945 
L 343.185396 293.845193 
L 344.486617 294.203543 
L 345.137227 293.953058 
L 345.787837 294.931557 
L 346.438448 293.236195 
L 347.089058 294.173329 
L 347.739668 293.546508 
L 348.390279 293.251864 
L 350.34211 294.801083 
L 350.99272 293.522726 
L 351.64333 293.384725 
L 352.293941 293.538037 
L 352.944551 294.058987 
L 353.595161 293.22631 
L 354.245772 293.733585 
L 354.896382 293.664317 
L 355.546992 293.370979 
L 356.197602 294.039423 
L 356.848213 293.838166 
L 357.498823 293.252449 
L 358.149433 294.070139 
L 358.800044 294.608198 
L 359.450654 294.341123 
L 360.101264 293.562699 
L 361.402485 294.248162 
L 362.053095 294.324511 
L 362.703706 294.213886 
L 363.354316 294.515295 
L 364.004926 293.700067 
L 364.655537 294.176484 
L 365.306147 292.823384 
L 365.956757 292.025094 
L 366.607367 293.485209 
L 367.257978 293.337178 
L 367.908588 293.764783 
L 368.559198 294.697601 
L 369.209809 293.633898 
L 369.860419 294.149387 
L 370.511029 294.298451 
L 371.16164 294.610689 
L 371.81225 294.025182 
L 372.46286 293.7184 
L 373.764081 293.723512 
L 374.414691 294.332118 
L 375.065302 292.98996 
L 375.715912 294.155483 
L 376.366522 294.258348 
L 377.017132 293.753927 
L 377.667743 292.771175 
L 378.318353 294.666746 
L 379.619574 292.85149 
L 380.270184 293.557735 
L 380.920794 294.857457 
L 382.222015 292.588617 
L 383.523236 294.223873 
L 384.173846 293.978232 
L 384.824456 293.8906 
L 385.475066 295.33262 
L 386.125677 294.491492 
L 386.776287 294.937615 
L 387.426897 294.772006 
L 388.077508 293.985927 
L 388.728118 293.832305 
L 389.378728 294.120814 
L 390.029339 294.625355 
L 390.679949 293.556349 
L 391.330559 294.650279 
L 392.63178 294.288673 
L 393.28239 293.824882 
L 393.933001 294.785279 
L 394.583611 294.092113 
L 395.234221 294.967808 
L 395.884831 294.293043 
L 396.535442 295.054241 
L 397.186052 295.488 
L 397.836662 294.602595 
L 398.487273 295.172041 
L 398.487273 295.172041 
" style="fill:none;stroke:#008000;stroke-dasharray:9.6,2.4,1.5,2.4;stroke-dashoffset:0;stroke-width:1.5;"/>
   </g>
   <g id="line2d_25">
    <path clip-path="url(#p8d49fecf9b)" d="M 73.832727 259.132063 
L 74.483338 251.988084 
L 75.133948 242.612848 
L 75.784558 241.260864 
L 76.435169 234.750085 
L 77.085779 232.209443 
L 77.736389 227.313622 
L 78.386999 228.687416 
L 79.03761 225.395664 
L 79.68822 223.38928 
L 80.33883 222.538389 
L 80.989441 220.736885 
L 81.640051 219.56815 
L 82.290661 217.854918 
L 82.941272 216.996943 
L 83.591882 214.893905 
L 84.242492 215.563712 
L 84.893103 216.835548 
L 86.194323 213.564152 
L 86.844934 214.230782 
L 87.495544 211.536225 
L 88.146154 212.073821 
L 88.796764 210.717049 
L 89.447375 211.074768 
L 90.097985 211.981714 
L 90.748595 210.256588 
L 91.399206 208.871582 
L 92.049816 213.967115 
L 92.700426 214.066623 
L 93.351037 212.921339 
L 94.001647 212.494431 
L 94.652257 211.632484 
L 95.302868 211.450205 
L 95.953478 211.020206 
L 96.604088 210.180788 
L 97.254698 211.110971 
L 97.905309 211.682256 
L 98.555919 212.484352 
L 99.85714 212.254592 
L 100.50775 210.4619 
L 101.15836 208.237653 
L 101.808971 207.907462 
L 102.459581 205.51064 
L 103.110191 206.487601 
L 103.760802 204.623458 
L 104.411412 204.058259 
L 105.062022 217.354091 
L 105.712633 217.469912 
L 106.363243 217.004247 
L 107.013853 217.052842 
L 107.664463 214.738056 
L 108.315074 213.831176 
L 108.965684 214.870149 
L 109.616294 214.70512 
L 110.917515 211.818573 
L 111.568125 211.416817 
L 112.218736 211.362845 
L 112.869346 215.166925 
L 113.519956 214.173509 
L 114.170567 213.916855 
L 114.821177 217.954592 
L 115.471787 215.442263 
L 116.122398 215.479071 
L 116.773008 216.606484 
L 117.423618 217.378649 
L 118.074228 217.840113 
L 118.724839 215.601136 
L 119.375449 216.23476 
L 120.026059 218.631315 
L 120.67667 218.023558 
L 121.32728 217.204492 
L 121.97789 216.812741 
L 122.628501 216.585574 
L 123.279111 218.556455 
L 123.929721 215.583026 
L 124.580332 215.61046 
L 125.230942 215.845812 
L 125.881552 218.500762 
L 126.532163 219.162682 
L 127.182773 218.778109 
L 127.833383 216.563448 
L 128.483993 217.090525 
L 129.134604 217.802028 
L 129.785214 221.797678 
L 130.435824 224.2279 
L 131.086435 223.49405 
L 131.737045 223.739797 
L 132.387655 222.758619 
L 133.038266 224.536733 
L 133.688876 223.428067 
L 134.339486 224.026328 
L 134.990097 222.601524 
L 136.291317 222.58399 
L 136.941927 223.607652 
L 137.592538 223.447274 
L 138.243148 224.37172 
L 138.893758 225.09093 
L 139.544369 224.827099 
L 140.194979 225.213972 
L 141.4962 225.555488 
L 142.14681 226.943613 
L 142.79742 224.464224 
L 143.448031 225.813215 
L 144.098641 224.462797 
L 144.749251 225.312597 
L 145.399862 224.716287 
L 146.050472 223.38731 
L 146.701082 222.698378 
L 147.351692 223.661875 
L 148.002303 225.210595 
L 148.652913 224.775814 
L 149.303523 224.07588 
L 149.954134 223.900072 
L 150.604744 224.393376 
L 151.255354 222.802109 
L 151.905965 222.480808 
L 152.556575 224.223401 
L 153.207185 222.878665 
L 153.857796 221.982573 
L 154.508406 224.977022 
L 155.159016 224.197264 
L 155.809627 223.840122 
L 156.460237 222.273093 
L 157.110847 222.050992 
L 157.761457 224.466016 
L 158.412068 222.742292 
L 159.062678 223.038587 
L 159.713288 221.70844 
L 161.014509 224.99382 
L 161.665119 223.133487 
L 162.31573 223.998652 
L 162.96634 224.33186 
L 163.61695 223.654126 
L 164.267561 224.041945 
L 164.918171 224.727448 
L 165.568781 221.976699 
L 166.219392 229.196508 
L 166.870002 226.361739 
L 167.520612 226.862319 
L 168.171222 226.286796 
L 168.821833 225.964222 
L 169.472443 225.792517 
L 170.123053 226.377823 
L 170.773664 225.252272 
L 171.424274 226.335922 
L 172.074884 225.850303 
L 172.725495 225.152893 
L 173.376105 225.589439 
L 174.026715 223.910291 
L 175.327936 222.09865 
L 175.978546 223.537895 
L 176.629156 224.082697 
L 177.279767 223.000308 
L 177.930377 224.035279 
L 178.580987 222.547502 
L 179.231598 224.293597 
L 179.882208 223.87496 
L 180.532818 224.597235 
L 181.183429 226.045539 
L 181.834039 225.264591 
L 182.484649 226.195097 
L 183.13526 224.287851 
L 184.43648 223.820484 
L 185.087091 224.403671 
L 185.737701 224.570187 
L 186.388311 224.016671 
L 187.038921 224.277948 
L 187.689532 223.435754 
L 188.990752 222.218865 
L 189.641363 223.192823 
L 190.291973 222.846088 
L 190.942583 223.771971 
L 191.593194 222.762707 
L 192.243804 223.893272 
L 193.545025 222.925121 
L 194.195635 223.088745 
L 194.846245 224.328663 
L 195.496856 223.97439 
L 196.147466 223.842394 
L 196.798076 223.332585 
L 197.448686 223.744675 
L 198.099297 223.073464 
L 198.749907 221.421742 
L 200.051128 224.29565 
L 200.701738 224.491571 
L 201.352348 224.462872 
L 202.002959 223.806276 
L 203.304179 224.914043 
L 203.95479 222.920135 
L 204.6054 222.273396 
L 205.25601 223.837706 
L 205.906621 222.534572 
L 206.557231 222.48764 
L 207.207841 221.559162 
L 207.858451 223.926914 
L 208.509062 222.10587 
L 209.159672 223.643516 
L 209.810282 221.701571 
L 210.460893 223.33462 
L 211.111503 221.779322 
L 212.412724 224.293429 
L 213.063334 221.190456 
L 213.713944 222.442917 
L 214.364555 222.348275 
L 215.015165 222.424958 
L 215.665775 221.624689 
L 216.316385 221.964551 
L 216.966996 220.919774 
L 217.617606 220.978166 
L 218.268216 221.809305 
L 218.918827 221.194213 
L 219.569437 221.41543 
L 220.220047 220.836925 
L 220.870658 222.754519 
L 221.521268 221.798241 
L 222.171878 222.663368 
L 222.822489 219.54339 
L 223.473099 221.069909 
L 224.123709 221.095943 
L 224.77432 222.324361 
L 225.42493 222.658897 
L 226.07554 222.622708 
L 226.72615 221.933022 
L 227.376761 222.024436 
L 228.027371 222.24538 
L 228.677981 223.260854 
L 229.328592 222.551041 
L 229.979202 220.884892 
L 230.629812 221.458187 
L 231.280423 224.113232 
L 231.931033 221.486513 
L 232.581643 220.899364 
L 233.232254 223.289651 
L 234.533474 220.964269 
L 235.184085 221.044442 
L 236.485305 222.037592 
L 237.135915 223.202233 
L 238.437136 221.494162 
L 239.087746 221.588473 
L 239.738357 222.46481 
L 240.388967 220.453223 
L 241.039577 220.446562 
L 241.690188 220.930699 
L 242.340798 220.520499 
L 242.991408 221.82223 
L 243.642019 222.368757 
L 244.292629 222.097249 
L 244.943239 222.055342 
L 245.59385 222.376897 
L 246.24446 221.947588 
L 246.89507 222.054399 
L 247.54568 221.562248 
L 248.196291 223.264964 
L 248.846901 222.120466 
L 249.497511 221.848914 
L 250.148122 222.474867 
L 250.798732 221.989 
L 251.449342 223.035499 
L 252.099953 220.970469 
L 252.750563 220.844182 
L 253.401173 220.096321 
L 254.051784 223.461236 
L 254.702394 221.769456 
L 255.353004 221.185657 
L 256.003615 222.062736 
L 256.654225 221.979996 
L 257.304835 220.822346 
L 257.955445 218.914987 
L 259.256666 220.950419 
L 259.907276 220.998932 
L 260.557887 218.999261 
L 261.208497 220.825482 
L 262.509718 220.285044 
L 263.160328 219.597676 
L 263.810938 220.274657 
L 264.461549 222.982612 
L 265.112159 219.248616 
L 265.762769 220.717397 
L 266.413379 220.56426 
L 267.06399 219.476998 
L 267.7146 220.451368 
L 268.36521 219.342224 
L 269.015821 220.250109 
L 269.666431 222.346748 
L 270.317041 220.915386 
L 270.967652 220.392957 
L 271.618262 220.75519 
L 272.268872 221.755244 
L 272.919483 222.412277 
L 273.570093 221.075252 
L 274.220703 222.284702 
L 275.521924 219.188461 
L 276.172534 221.144498 
L 276.823144 221.642365 
L 277.473755 221.838422 
L 278.124365 219.185532 
L 278.774975 221.089286 
L 279.425586 220.460373 
L 280.076196 220.505279 
L 280.726806 221.39561 
L 281.377417 221.523194 
L 282.028027 222.400012 
L 282.678637 222.088214 
L 283.329248 221.566624 
L 283.979858 220.750413 
L 284.630468 221.306754 
L 285.281079 220.527041 
L 285.931689 220.725199 
L 286.582299 221.56515 
L 287.232909 221.548793 
L 287.88352 220.26604 
L 288.53413 221.883918 
L 289.18474 219.721785 
L 289.835351 219.792727 
L 290.485961 220.166568 
L 291.136571 219.504098 
L 291.787182 221.248143 
L 292.437792 220.242967 
L 293.088402 220.175817 
L 293.739013 221.967774 
L 294.389623 221.395182 
L 295.040233 219.224957 
L 295.690844 221.315309 
L 296.992064 217.932034 
L 297.642674 222.545817 
L 298.943895 219.262642 
L 299.594505 219.094308 
L 300.245116 221.362291 
L 300.895726 221.331556 
L 301.546336 221.12134 
L 302.196947 221.483481 
L 303.498167 221.224457 
L 304.148778 221.349398 
L 304.799388 220.466796 
L 305.449998 220.73653 
L 306.100608 220.324907 
L 306.751219 222.645554 
L 307.401829 221.62104 
L 308.052439 220.20522 
L 308.70305 219.79958 
L 309.35366 219.638647 
L 310.00427 220.971972 
L 310.654881 220.919142 
L 311.305491 221.543582 
L 311.956101 219.852306 
L 312.606712 220.783296 
L 313.907932 222.017973 
L 314.558543 221.611682 
L 315.209153 219.813593 
L 315.859763 221.565842 
L 316.510373 218.617857 
L 317.160984 220.695697 
L 317.811594 221.005624 
L 318.462204 219.72907 
L 319.112815 218.884373 
L 319.763425 218.960178 
L 320.414035 221.255416 
L 321.064646 219.816874 
L 321.715256 219.95398 
L 322.365866 219.57002 
L 323.016477 218.34398 
L 323.667087 220.56652 
L 324.317697 220.6514 
L 324.968308 218.858808 
L 325.618918 222.225229 
L 326.269528 219.152798 
L 326.920138 221.583355 
L 327.570749 220.69871 
L 328.221359 219.187949 
L 328.871969 219.440059 
L 329.52258 221.679812 
L 330.17319 219.847316 
L 330.8238 219.964654 
L 331.474411 220.894205 
L 332.125021 220.086123 
L 332.775631 220.131169 
L 333.426242 219.770158 
L 334.076852 218.515316 
L 334.727462 220.115608 
L 335.378073 220.193113 
L 336.028683 220.869323 
L 336.679293 218.794507 
L 337.329903 219.955161 
L 337.980514 220.396449 
L 338.631124 219.663253 
L 339.281734 219.968458 
L 339.932345 221.059282 
L 340.582955 220.199035 
L 341.233565 217.915603 
L 341.884176 219.954002 
L 342.534786 220.184837 
L 343.185396 218.999065 
L 343.836007 218.731753 
L 344.486617 219.621898 
L 345.137227 219.454225 
L 345.787837 220.071259 
L 346.438448 218.84906 
L 347.089058 220.459078 
L 347.739668 220.63681 
L 348.390279 219.352077 
L 349.691499 221.273531 
L 350.34211 220.424995 
L 350.99272 218.605984 
L 351.64333 218.417604 
L 352.293941 220.412166 
L 352.944551 218.882923 
L 354.245772 220.2284 
L 354.896382 219.143949 
L 355.546992 220.908834 
L 356.197602 219.832027 
L 356.848213 219.439617 
L 357.498823 217.821598 
L 358.149433 219.266252 
L 358.800044 219.632789 
L 359.450654 218.26446 
L 360.101264 218.13254 
L 360.751875 219.96917 
L 361.402485 219.797967 
L 362.703706 220.112367 
L 363.354316 219.866642 
L 364.655537 218.523306 
L 365.306147 218.665855 
L 365.956757 218.258929 
L 367.257978 217.843711 
L 367.908588 219.061918 
L 368.559198 219.500037 
L 369.209809 218.894089 
L 369.860419 220.148556 
L 370.511029 219.583481 
L 371.16164 219.781076 
L 371.81225 217.438383 
L 372.46286 218.652323 
L 373.113471 219.353688 
L 373.764081 219.106538 
L 374.414691 220.86692 
L 375.065302 217.922699 
L 375.715912 219.76907 
L 376.366522 219.765129 
L 377.667743 218.44868 
L 378.318353 221.115278 
L 379.619574 217.537393 
L 380.270184 220.346073 
L 380.920794 221.039398 
L 381.571405 219.226416 
L 382.222015 218.596104 
L 382.872625 217.742892 
L 383.523236 219.388885 
L 384.173846 219.132549 
L 384.824456 218.596901 
L 385.475066 221.32336 
L 386.125677 220.317631 
L 386.776287 220.391183 
L 387.426897 220.807272 
L 389.378728 218.410981 
L 390.029339 219.995365 
L 390.679949 217.135564 
L 391.330559 219.485122 
L 391.98117 220.826579 
L 392.63178 219.840801 
L 393.28239 219.071068 
L 393.933001 220.849173 
L 394.583611 219.153369 
L 395.234221 220.45245 
L 395.884831 220.049535 
L 397.836662 220.354719 
L 398.487273 221.365243 
L 398.487273 221.365243 
" style="fill:none;stroke:#008000;stroke-dasharray:9.6,2.4,1.5,2.4;stroke-dashoffset:0;stroke-width:1.5;"/>
   </g>
   <g id="line2d_26">
    <path clip-path="url(#p8d49fecf9b)" d="M 73.832727 173.210256 
L 74.483338 173.210256 
L 75.133948 163.369203 
L 75.784558 163.369203 
L 76.435169 132.866657 
L 84.242492 132.866657 
L 84.893103 113.7171 
L 87.495544 113.7171 
L 88.146154 103.504292 
L 88.796764 86.225656 
L 152.556575 86.225656 
L 153.207185 77.31616 
L 156.460237 77.31616 
L 157.110847 69.722432 
L 203.304179 69.722432 
L 203.95479 53.568 
L 398.487273 53.568 
L 398.487273 53.568 
" style="fill:none;stroke:#ff0000;stroke-linecap:square;stroke-width:1.5;"/>
   </g>
   <g id="patch_3">
    <path d="M 57.6 307.584 
L 57.6 41.472 
" style="fill:none;stroke:#000000;stroke-linecap:square;stroke-linejoin:miter;stroke-width:0.8;"/>
   </g>
   <g id="patch_4">
    <path d="M 414.72 307.584 
L 414.72 41.472 
" style="fill:none;stroke:#000000;stroke-linecap:square;stroke-linejoin:miter;stroke-width:0.8;"/>
   </g>
   <g id="patch_5">
    <path d="M 57.6 307.584 
L 414.72 307.584 
" style="fill:none;stroke:#000000;stroke-linecap:square;stroke-linejoin:miter;stroke-width:0.8;"/>
   </g>
   <g id="patch_6">
    <path d="M 57.6 41.472 
L 414.72 41.472 
" style="fill:none;stroke:#000000;stroke-linecap:square;stroke-linejoin:miter;stroke-width:0.8;"/>
   </g>
   <g id="text_14">
    <!-- Population's average and best fitness -->
    <defs>
     <path d="M 19.671875 64.796875 
L 19.671875 37.40625 
L 32.078125 37.40625 
Q 38.96875 37.40625 42.71875 40.96875 
Q 46.484375 44.53125 46.484375 51.125 
Q 46.484375 57.671875 42.71875 61.234375 
Q 38.96875 64.796875 32.078125 64.796875 
z
M 9.8125 72.90625 
L 32.078125 72.90625 
Q 44.34375 72.90625 50.609375 67.359375 
Q 56.890625 61.8125 56.890625 51.125 
Q 56.890625 40.328125 50.609375 34.8125 
Q 44.34375 29.296875 32.078125 29.296875 
L 19.671875 29.296875 
L 19.671875 0 
L 9.8125 0 
z
" id="DejaVuSans-80"/>
     <path d="M 18.109375 8.203125 
L 18.109375 -20.796875 
L 9.078125 -20.796875 
L 9.078125 54.6875 
L 18.109375 54.6875 
L 18.109375 46.390625 
Q 20.953125 51.265625 25.265625 53.625 
Q 29.59375 56 35.59375 56 
Q 45.5625 56 51.78125 48.09375 
Q 58.015625 40.1875 58.015625 27.296875 
Q 58.015625 14.40625 51.78125 6.484375 
Q 45.5625 -1.421875 35.59375 -1.421875 
Q 29.59375 -1.421875 25.265625 0.953125 
Q 20.953125 3.328125 18.109375 8.203125 
z
M 48.6875 27.296875 
Q 48.6875 37.203125 44.609375 42.84375 
Q 40.53125 48.484375 33.40625 48.484375 
Q 26.265625 48.484375 22.1875 42.84375 
Q 18.109375 37.203125 18.109375 27.296875 
Q 18.109375 17.390625 22.1875 11.75 
Q 26.265625 6.109375 33.40625 6.109375 
Q 40.53125 6.109375 44.609375 11.75 
Q 48.6875 17.390625 48.6875 27.296875 
z
" id="DejaVuSans-112"/>
     <path d="M 8.5 21.578125 
L 8.5 54.6875 
L 17.484375 54.6875 
L 17.484375 21.921875 
Q 17.484375 14.15625 20.5 10.265625 
Q 23.53125 6.390625 29.59375 6.390625 
Q 36.859375 6.390625 41.078125 11.03125 
Q 45.3125 15.671875 45.3125 23.6875 
L 45.3125 54.6875 
L 54.296875 54.6875 
L 54.296875 0 
L 45.3125 0 
L 45.3125 8.40625 
Q 42.046875 3.421875 37.71875 1 
Q 33.40625 -1.421875 27.6875 -1.421875 
Q 18.265625 -1.421875 13.375 4.4375 
Q 8.5 10.296875 8.5 21.578125 
z
M 31.109375 56 
z
" id="DejaVuSans-117"/>
     <path d="M 9.421875 75.984375 
L 18.40625 75.984375 
L 18.40625 0 
L 9.421875 0 
z
" id="DejaVuSans-108"/>
     <path d="M 17.921875 72.90625 
L 17.921875 45.796875 
L 9.625 45.796875 
L 9.625 72.90625 
z
" id="DejaVuSans-39"/>
     <path id="DejaVuSans-32"/>
     <path d="M 2.984375 54.6875 
L 12.5 54.6875 
L 29.59375 8.796875 
L 46.6875 54.6875 
L 56.203125 54.6875 
L 35.6875 0 
L 23.484375 0 
z
" id="DejaVuSans-118"/>
     <path d="M 45.40625 27.984375 
Q 45.40625 37.75 41.375 43.109375 
Q 37.359375 48.484375 30.078125 48.484375 
Q 22.859375 48.484375 18.828125 43.109375 
Q 14.796875 37.75 14.796875 27.984375 
Q 14.796875 18.265625 18.828125 12.890625 
Q 22.859375 7.515625 30.078125 7.515625 
Q 37.359375 7.515625 41.375 12.890625 
Q 45.40625 18.265625 45.40625 27.984375 
z
M 54.390625 6.78125 
Q 54.390625 -7.171875 48.1875 -13.984375 
Q 42 -20.796875 29.203125 -20.796875 
Q 24.46875 -20.796875 20.265625 -20.09375 
Q 16.0625 -19.390625 12.109375 -17.921875 
L 12.109375 -9.1875 
Q 16.0625 -11.328125 19.921875 -12.34375 
Q 23.78125 -13.375 27.78125 -13.375 
Q 36.625 -13.375 41.015625 -8.765625 
Q 45.40625 -4.15625 45.40625 5.171875 
L 45.40625 9.625 
Q 42.625 4.78125 38.28125 2.390625 
Q 33.9375 0 27.875 0 
Q 17.828125 0 11.671875 7.65625 
Q 5.515625 15.328125 5.515625 27.984375 
Q 5.515625 40.671875 11.671875 48.328125 
Q 17.828125 56 27.875 56 
Q 33.9375 56 38.28125 53.609375 
Q 42.625 51.21875 45.40625 46.390625 
L 45.40625 54.6875 
L 54.390625 54.6875 
z
" id="DejaVuSans-103"/>
     <path d="M 45.40625 46.390625 
L 45.40625 75.984375 
L 54.390625 75.984375 
L 54.390625 0 
L 45.40625 0 
L 45.40625 8.203125 
Q 42.578125 3.328125 38.25 0.953125 
Q 33.9375 -1.421875 27.875 -1.421875 
Q 17.96875 -1.421875 11.734375 6.484375 
Q 5.515625 14.40625 5.515625 27.296875 
Q 5.515625 40.1875 11.734375 48.09375 
Q 17.96875 56 27.875 56 
Q 33.9375 56 38.25 53.625 
Q 42.578125 51.265625 45.40625 46.390625 
z
M 14.796875 27.296875 
Q 14.796875 17.390625 18.875 11.75 
Q 22.953125 6.109375 30.078125 6.109375 
Q 37.203125 6.109375 41.296875 11.75 
Q 45.40625 17.390625 45.40625 27.296875 
Q 45.40625 37.203125 41.296875 42.84375 
Q 37.203125 48.484375 30.078125 48.484375 
Q 22.953125 48.484375 18.875 42.84375 
Q 14.796875 37.203125 14.796875 27.296875 
z
" id="DejaVuSans-100"/>
     <path d="M 48.6875 27.296875 
Q 48.6875 37.203125 44.609375 42.84375 
Q 40.53125 48.484375 33.40625 48.484375 
Q 26.265625 48.484375 22.1875 42.84375 
Q 18.109375 37.203125 18.109375 27.296875 
Q 18.109375 17.390625 22.1875 11.75 
Q 26.265625 6.109375 33.40625 6.109375 
Q 40.53125 6.109375 44.609375 11.75 
Q 48.6875 17.390625 48.6875 27.296875 
z
M 18.109375 46.390625 
Q 20.953125 51.265625 25.265625 53.625 
Q 29.59375 56 35.59375 56 
Q 45.5625 56 51.78125 48.09375 
Q 58.015625 40.1875 58.015625 27.296875 
Q 58.015625 14.40625 51.78125 6.484375 
Q 45.5625 -1.421875 35.59375 -1.421875 
Q 29.59375 -1.421875 25.265625 0.953125 
Q 20.953125 3.328125 18.109375 8.203125 
L 18.109375 0 
L 9.078125 0 
L 9.078125 75.984375 
L 18.109375 75.984375 
z
" id="DejaVuSans-98"/>
     <path d="M 37.109375 75.984375 
L 37.109375 68.5 
L 28.515625 68.5 
Q 23.6875 68.5 21.796875 66.546875 
Q 19.921875 64.59375 19.921875 59.515625 
L 19.921875 54.6875 
L 34.71875 54.6875 
L 34.71875 47.703125 
L 19.921875 47.703125 
L 19.921875 0 
L 10.890625 0 
L 10.890625 47.703125 
L 2.296875 47.703125 
L 2.296875 54.6875 
L 10.890625 54.6875 
L 10.890625 58.5 
Q 10.890625 67.625 15.140625 71.796875 
Q 19.390625 75.984375 28.609375 75.984375 
z
" id="DejaVuSans-102"/>
    </defs>
    <g transform="translate(123.315 35.472)scale(0.12 -0.12)">
     <use xlink:href="#DejaVuSans-80"/>
     <use x="60.255859" xlink:href="#DejaVuSans-111"/>
     <use x="121.4375" xlink:href="#DejaVuSans-112"/>
     <use x="184.914062" xlink:href="#DejaVuSans-117"/>
     <use x="248.292969" xlink:href="#DejaVuSans-108"/>
     <use x="276.076172" xlink:href="#DejaVuSans-97"/>
     <use x="337.355469" xlink:href="#DejaVuSans-116"/>
     <use x="376.564453" xlink:href="#DejaVuSans-105"/>
     <use x="404.347656" xlink:href="#DejaVuSans-111"/>
     <use x="465.529297" xlink:href="#DejaVuSans-110"/>
     <use x="528.908203" xlink:href="#DejaVuSans-39"/>
     <use x="556.398438" xlink:href="#DejaVuSans-115"/>
     <use x="608.498047" xlink:href="#DejaVuSans-32"/>
     <use x="640.285156" xlink:href="#DejaVuSans-97"/>
     <use x="701.564453" xlink:href="#DejaVuSans-118"/>
     <use x="760.744141" xlink:href="#DejaVuSans-101"/>
     <use x="822.267578" xlink:href="#DejaVuSans-114"/>
     <use x="863.380859" xlink:href="#DejaVuSans-97"/>
     <use x="924.660156" xlink:href="#DejaVuSans-103"/>
     <use x="988.136719" xlink:href="#DejaVuSans-101"/>
     <use x="1049.660156" xlink:href="#DejaVuSans-32"/>
     <use x="1081.447266" xlink:href="#DejaVuSans-97"/>
     <use x="1142.726562" xlink:href="#DejaVuSans-110"/>
     <use x="1206.105469" xlink:href="#DejaVuSans-100"/>
     <use x="1269.582031" xlink:href="#DejaVuSans-32"/>
     <use x="1301.369141" xlink:href="#DejaVuSans-98"/>
     <use x="1364.845703" xlink:href="#DejaVuSans-101"/>
     <use x="1426.369141" xlink:href="#DejaVuSans-115"/>
     <use x="1478.46875" xlink:href="#DejaVuSans-116"/>
     <use x="1517.677734" xlink:href="#DejaVuSans-32"/>
     <use x="1549.464844" xlink:href="#DejaVuSans-102"/>
     <use x="1584.669922" xlink:href="#DejaVuSans-105"/>
     <use x="1612.453125" xlink:href="#DejaVuSans-116"/>
     <use x="1651.662109" xlink:href="#DejaVuSans-110"/>
     <use x="1715.041016" xlink:href="#DejaVuSans-101"/>
     <use x="1776.564453" xlink:href="#DejaVuSans-115"/>
     <use x="1828.664062" xlink:href="#DejaVuSans-115"/>
    </g>
   </g>
   <g id="legend_1">
    <g id="patch_7">
     <path d="M 334.779375 205.38425 
L 407.72 205.38425 
Q 409.72 205.38425 409.72 203.38425 
L 409.72 145.67175 
Q 409.72 143.67175 407.72 143.67175 
L 334.779375 143.67175 
Q 332.779375 143.67175 332.779375 145.67175 
L 332.779375 203.38425 
Q 332.779375 205.38425 334.779375 205.38425 
z
" style="fill:#ffffff;opacity:0.8;stroke:#cccccc;stroke-linejoin:miter;"/>
    </g>
    <g id="line2d_27">
     <path d="M 336.779375 151.770188 
L 356.779375 151.770188 
" style="fill:none;stroke:#0000ff;stroke-linecap:square;stroke-width:1.5;"/>
    </g>
    <g id="line2d_28"/>
    <g id="text_15">
     <!-- average -->
     <g transform="translate(364.779375 155.270188)scale(0.1 -0.1)">
      <use xlink:href="#DejaVuSans-97"/>
      <use x="61.279297" xlink:href="#DejaVuSans-118"/>
      <use x="120.458984" xlink:href="#DejaVuSans-101"/>
      <use x="181.982422" xlink:href="#DejaVuSans-114"/>
      <use x="223.095703" xlink:href="#DejaVuSans-97"/>
      <use x="284.375" xlink:href="#DejaVuSans-103"/>
      <use x="347.851562" xlink:href="#DejaVuSans-101"/>
     </g>
    </g>
    <g id="line2d_29">
     <path d="M 336.779375 166.448313 
L 356.779375 166.448313 
" style="fill:none;stroke:#008000;stroke-dasharray:9.6,2.4,1.5,2.4;stroke-dashoffset:0;stroke-width:1.5;"/>
    </g>
    <g id="line2d_30"/>
    <g id="text_16">
     <!-- -1 sd -->
     <defs>
      <path d="M 4.890625 31.390625 
L 31.203125 31.390625 
L 31.203125 23.390625 
L 4.890625 23.390625 
z
" id="DejaVuSans-45"/>
     </defs>
     <g transform="translate(364.779375 169.948313)scale(0.1 -0.1)">
      <use xlink:href="#DejaVuSans-45"/>
      <use x="36.083984" xlink:href="#DejaVuSans-49"/>
      <use x="99.707031" xlink:href="#DejaVuSans-32"/>
      <use x="131.494141" xlink:href="#DejaVuSans-115"/>
      <use x="183.59375" xlink:href="#DejaVuSans-100"/>
     </g>
    </g>
    <g id="line2d_31">
     <path d="M 336.779375 181.126438 
L 356.779375 181.126438 
" style="fill:none;stroke:#008000;stroke-dasharray:9.6,2.4,1.5,2.4;stroke-dashoffset:0;stroke-width:1.5;"/>
    </g>
    <g id="line2d_32"/>
    <g id="text_17">
     <!-- +1 sd -->
     <defs>
      <path d="M 46 62.703125 
L 46 35.5 
L 73.1875 35.5 
L 73.1875 27.203125 
L 46 27.203125 
L 46 0 
L 37.796875 0 
L 37.796875 27.203125 
L 10.59375 27.203125 
L 10.59375 35.5 
L 37.796875 35.5 
L 37.796875 62.703125 
z
" id="DejaVuSans-43"/>
     </defs>
     <g transform="translate(364.779375 184.626438)scale(0.1 -0.1)">
      <use xlink:href="#DejaVuSans-43"/>
      <use x="83.789062" xlink:href="#DejaVuSans-49"/>
      <use x="147.412109" xlink:href="#DejaVuSans-32"/>
      <use x="179.199219" xlink:href="#DejaVuSans-115"/>
      <use x="231.298828" xlink:href="#DejaVuSans-100"/>
     </g>
    </g>
    <g id="line2d_33">
     <path d="M 336.779375 195.804563 
L 356.779375 195.804563 
" style="fill:none;stroke:#ff0000;stroke-linecap:square;stroke-width:1.5;"/>
    </g>
    <g id="line2d_34"/>
    <g id="text_18">
     <!-- best -->
     <g transform="translate(364.779375 199.304563)scale(0.1 -0.1)">
      <use xlink:href="#DejaVuSans-98"/>
      <use x="63.476562" xlink:href="#DejaVuSans-101"/>
      <use x="125" xlink:href="#DejaVuSans-115"/>
      <use x="177.099609" xlink:href="#DejaVuSans-116"/>
     </g>
    </g>
   </g>
  </g>
 </g>
 <defs>
  <clipPath id="p8d49fecf9b">
   <rect height="266.112" width="357.12" x="57.6" y="41.472"/>
  </clipPath>
 </defs>
</svg>
