<?xml version="1.0" encoding="utf-8" standalone="no"?>
<!DOCTYPE svg PUBLIC "-//W3C//DTD SVG 1.1//EN"
  "http://www.w3.org/Graphics/SVG/1.1/DTD/svg11.dtd">
<!-- Created with matplotlib (https://matplotlib.org/) -->
<svg height="345.6pt" version="1.1" viewBox="0 0 460.8 345.6" width="460.8pt" xmlns="http://www.w3.org/2000/svg" xmlns:xlink="http://www.w3.org/1999/xlink">
 <defs>
  <style type="text/css">
*{stroke-linecap:butt;stroke-linejoin:round;}
  </style>
 </defs>
 <g id="figure_1">
  <g id="patch_1">
   <path d="M 0 345.6 
L 460.8 345.6 
L 460.8 0 
L 0 0 
z
" style="fill:#ffffff;"/>
  </g>
  <g id="axes_1">
   <g id="patch_2">
    <path d="M 57.6 307.584 
L 414.72 307.584 
L 414.72 41.472 
L 57.6 41.472 
z
" style="fill:#ffffff;"/>
   </g>
   <g id="matplotlib.axis_1">
    <g id="xtick_1">
     <g id="line2d_1">
      <path clip-path="url(#p680e5feb69)" d="M 73.832727 307.584 
L 73.832727 41.472 
" style="fill:none;stroke:#b0b0b0;stroke-linecap:square;stroke-width:0.8;"/>
     </g>
     <g id="line2d_2">
      <defs>
       <path d="M 0 0 
L 0 3.5 
" id="m9ac4f28338" style="stroke:#000000;stroke-width:0.8;"/>
      </defs>
      <g>
       <use style="stroke:#000000;stroke-width:0.8;" x="73.832727" xlink:href="#m9ac4f28338" y="307.584"/>
      </g>
     </g>
     <g id="text_1">
      <!-- 0 -->
      <defs>
       <path d="M 31.78125 66.40625 
Q 24.171875 66.40625 20.328125 58.90625 
Q 16.5 51.421875 16.5 36.375 
Q 16.5 21.390625 20.328125 13.890625 
Q 24.171875 6.390625 31.78125 6.390625 
Q 39.453125 6.390625 43.28125 13.890625 
Q 47.125 21.390625 47.125 36.375 
Q 47.125 51.421875 43.28125 58.90625 
Q 39.453125 66.40625 31.78125 66.40625 
z
M 31.78125 74.21875 
Q 44.046875 74.21875 50.515625 64.515625 
Q 56.984375 54.828125 56.984375 36.375 
Q 56.984375 17.96875 50.515625 8.265625 
Q 44.046875 -1.421875 31.78125 -1.421875 
Q 19.53125 -1.421875 13.0625 8.265625 
Q 6.59375 17.96875 6.59375 36.375 
Q 6.59375 54.828125 13.0625 64.515625 
Q 19.53125 74.21875 31.78125 74.21875 
z
" id="DejaVuSans-48"/>
      </defs>
      <g transform="translate(70.651477 322.182437)scale(0.1 -0.1)">
       <use xlink:href="#DejaVuSans-48"/>
      </g>
     </g>
    </g>
    <g id="xtick_2">
     <g id="line2d_3">
      <path clip-path="url(#p680e5feb69)" d="M 138.893758 307.584 
L 138.893758 41.472 
" style="fill:none;stroke:#b0b0b0;stroke-linecap:square;stroke-width:0.8;"/>
     </g>
     <g id="line2d_4">
      <g>
       <use style="stroke:#000000;stroke-width:0.8;" x="138.893758" xlink:href="#m9ac4f28338" y="307.584"/>
      </g>
     </g>
     <g id="text_2">
      <!-- 100 -->
      <defs>
       <path d="M 12.40625 8.296875 
L 28.515625 8.296875 
L 28.515625 63.921875 
L 10.984375 60.40625 
L 10.984375 69.390625 
L 28.421875 72.90625 
L 38.28125 72.90625 
L 38.28125 8.296875 
L 54.390625 8.296875 
L 54.390625 0 
L 12.40625 0 
z
" id="DejaVuSans-49"/>
      </defs>
      <g transform="translate(129.350008 322.182437)scale(0.1 -0.1)">
       <use xlink:href="#DejaVuSans-49"/>
       <use x="63.623047" xlink:href="#DejaVuSans-48"/>
       <use x="127.246094" xlink:href="#DejaVuSans-48"/>
      </g>
     </g>
    </g>
    <g id="xtick_3">
     <g id="line2d_5">
      <path clip-path="url(#p680e5feb69)" d="M 203.95479 307.584 
L 203.95479 41.472 
" style="fill:none;stroke:#b0b0b0;stroke-linecap:square;stroke-width:0.8;"/>
     </g>
     <g id="line2d_6">
      <g>
       <use style="stroke:#000000;stroke-width:0.8;" x="203.95479" xlink:href="#m9ac4f28338" y="307.584"/>
      </g>
     </g>
     <g id="text_3">
      <!-- 200 -->
      <defs>
       <path d="M 19.1875 8.296875 
L 53.609375 8.296875 
L 53.609375 0 
L 7.328125 0 
L 7.328125 8.296875 
Q 12.9375 14.109375 22.625 23.890625 
Q 32.328125 33.6875 34.8125 36.53125 
Q 39.546875 41.84375 41.421875 45.53125 
Q 43.3125 49.21875 43.3125 52.78125 
Q 43.3125 58.59375 39.234375 62.25 
Q 35.15625 65.921875 28.609375 65.921875 
Q 23.96875 65.921875 18.8125 64.3125 
Q 13.671875 62.703125 7.8125 59.421875 
L 7.8125 69.390625 
Q 13.765625 71.78125 18.9375 73 
Q 24.125 74.21875 28.421875 74.21875 
Q 39.75 74.21875 46.484375 68.546875 
Q 53.21875 62.890625 53.21875 53.421875 
Q 53.21875 48.921875 51.53125 44.890625 
Q 49.859375 40.875 45.40625 35.40625 
Q 44.1875 33.984375 37.640625 27.21875 
Q 31.109375 20.453125 19.1875 8.296875 
z
" id="DejaVuSans-50"/>
      </defs>
      <g transform="translate(194.41104 322.182437)scale(0.1 -0.1)">
       <use xlink:href="#DejaVuSans-50"/>
       <use x="63.623047" xlink:href="#DejaVuSans-48"/>
       <use x="127.246094" xlink:href="#DejaVuSans-48"/>
      </g>
     </g>
    </g>
    <g id="xtick_4">
     <g id="line2d_7">
      <path clip-path="url(#p680e5feb69)" d="M 269.015821 307.584 
L 269.015821 41.472 
" style="fill:none;stroke:#b0b0b0;stroke-linecap:square;stroke-width:0.8;"/>
     </g>
     <g id="line2d_8">
      <g>
       <use style="stroke:#000000;stroke-width:0.8;" x="269.015821" xlink:href="#m9ac4f28338" y="307.584"/>
      </g>
     </g>
     <g id="text_4">
      <!-- 300 -->
      <defs>
       <path d="M 40.578125 39.3125 
Q 47.65625 37.796875 51.625 33 
Q 55.609375 28.21875 55.609375 21.1875 
Q 55.609375 10.40625 48.1875 4.484375 
Q 40.765625 -1.421875 27.09375 -1.421875 
Q 22.515625 -1.421875 17.65625 -0.515625 
Q 12.796875 0.390625 7.625 2.203125 
L 7.625 11.71875 
Q 11.71875 9.328125 16.59375 8.109375 
Q 21.484375 6.890625 26.8125 6.890625 
Q 36.078125 6.890625 40.9375 10.546875 
Q 45.796875 14.203125 45.796875 21.1875 
Q 45.796875 27.640625 41.28125 31.265625 
Q 36.765625 34.90625 28.71875 34.90625 
L 20.21875 34.90625 
L 20.21875 43.015625 
L 29.109375 43.015625 
Q 36.375 43.015625 40.234375 45.921875 
Q 44.09375 48.828125 44.09375 54.296875 
Q 44.09375 59.90625 40.109375 62.90625 
Q 36.140625 65.921875 28.71875 65.921875 
Q 24.65625 65.921875 20.015625 65.03125 
Q 15.375 64.15625 9.8125 62.3125 
L 9.8125 71.09375 
Q 15.4375 72.65625 20.34375 73.4375 
Q 25.25 74.21875 29.59375 74.21875 
Q 40.828125 74.21875 47.359375 69.109375 
Q 53.90625 64.015625 53.90625 55.328125 
Q 53.90625 49.265625 50.4375 45.09375 
Q 46.96875 40.921875 40.578125 39.3125 
z
" id="DejaVuSans-51"/>
      </defs>
      <g transform="translate(259.472071 322.182437)scale(0.1 -0.1)">
       <use xlink:href="#DejaVuSans-51"/>
       <use x="63.623047" xlink:href="#DejaVuSans-48"/>
       <use x="127.246094" xlink:href="#DejaVuSans-48"/>
      </g>
     </g>
    </g>
    <g id="xtick_5">
     <g id="line2d_9">
      <path clip-path="url(#p680e5feb69)" d="M 334.076852 307.584 
L 334.076852 41.472 
" style="fill:none;stroke:#b0b0b0;stroke-linecap:square;stroke-width:0.8;"/>
     </g>
     <g id="line2d_10">
      <g>
       <use style="stroke:#000000;stroke-width:0.8;" x="334.076852" xlink:href="#m9ac4f28338" y="307.584"/>
      </g>
     </g>
     <g id="text_5">
      <!-- 400 -->
      <defs>
       <path d="M 37.796875 64.3125 
L 12.890625 25.390625 
L 37.796875 25.390625 
z
M 35.203125 72.90625 
L 47.609375 72.90625 
L 47.609375 25.390625 
L 58.015625 25.390625 
L 58.015625 17.1875 
L 47.609375 17.1875 
L 47.609375 0 
L 37.796875 0 
L 37.796875 17.1875 
L 4.890625 17.1875 
L 4.890625 26.703125 
z
" id="DejaVuSans-52"/>
      </defs>
      <g transform="translate(324.533102 322.182437)scale(0.1 -0.1)">
       <use xlink:href="#DejaVuSans-52"/>
       <use x="63.623047" xlink:href="#DejaVuSans-48"/>
       <use x="127.246094" xlink:href="#DejaVuSans-48"/>
      </g>
     </g>
    </g>
    <g id="xtick_6">
     <g id="line2d_11">
      <path clip-path="url(#p680e5feb69)" d="M 399.137883 307.584 
L 399.137883 41.472 
" style="fill:none;stroke:#b0b0b0;stroke-linecap:square;stroke-width:0.8;"/>
     </g>
     <g id="line2d_12">
      <g>
       <use style="stroke:#000000;stroke-width:0.8;" x="399.137883" xlink:href="#m9ac4f28338" y="307.584"/>
      </g>
     </g>
     <g id="text_6">
      <!-- 500 -->
      <defs>
       <path d="M 10.796875 72.90625 
L 49.515625 72.90625 
L 49.515625 64.59375 
L 19.828125 64.59375 
L 19.828125 46.734375 
Q 21.96875 47.46875 24.109375 47.828125 
Q 26.265625 48.1875 28.421875 48.1875 
Q 40.625 48.1875 47.75 41.5 
Q 54.890625 34.8125 54.890625 23.390625 
Q 54.890625 11.625 47.5625 5.09375 
Q 40.234375 -1.421875 26.90625 -1.421875 
Q 22.3125 -1.421875 17.546875 -0.640625 
Q 12.796875 0.140625 7.71875 1.703125 
L 7.71875 11.625 
Q 12.109375 9.234375 16.796875 8.0625 
Q 21.484375 6.890625 26.703125 6.890625 
Q 35.15625 6.890625 40.078125 11.328125 
Q 45.015625 15.765625 45.015625 23.390625 
Q 45.015625 31 40.078125 35.4375 
Q 35.15625 39.890625 26.703125 39.890625 
Q 22.75 39.890625 18.8125 39.015625 
Q 14.890625 38.140625 10.796875 36.28125 
z
" id="DejaVuSans-53"/>
      </defs>
      <g transform="translate(389.594133 322.182437)scale(0.1 -0.1)">
       <use xlink:href="#DejaVuSans-53"/>
       <use x="63.623047" xlink:href="#DejaVuSans-48"/>
       <use x="127.246094" xlink:href="#DejaVuSans-48"/>
      </g>
     </g>
    </g>
    <g id="text_7">
     <!-- Generations -->
     <defs>
      <path d="M 59.515625 10.40625 
L 59.515625 29.984375 
L 43.40625 29.984375 
L 43.40625 38.09375 
L 69.28125 38.09375 
L 69.28125 6.78125 
Q 63.578125 2.734375 56.6875 0.65625 
Q 49.8125 -1.421875 42 -1.421875 
Q 24.90625 -1.421875 15.25 8.5625 
Q 5.609375 18.5625 5.609375 36.375 
Q 5.609375 54.25 15.25 64.234375 
Q 24.90625 74.21875 42 74.21875 
Q 49.125 74.21875 55.546875 72.453125 
Q 61.96875 70.703125 67.390625 67.28125 
L 67.390625 56.78125 
Q 61.921875 61.421875 55.765625 63.765625 
Q 49.609375 66.109375 42.828125 66.109375 
Q 29.4375 66.109375 22.71875 58.640625 
Q 16.015625 51.171875 16.015625 36.375 
Q 16.015625 21.625 22.71875 14.15625 
Q 29.4375 6.6875 42.828125 6.6875 
Q 48.046875 6.6875 52.140625 7.59375 
Q 56.25 8.5 59.515625 10.40625 
z
" id="DejaVuSans-71"/>
      <path d="M 56.203125 29.59375 
L 56.203125 25.203125 
L 14.890625 25.203125 
Q 15.484375 15.921875 20.484375 11.0625 
Q 25.484375 6.203125 34.421875 6.203125 
Q 39.59375 6.203125 44.453125 7.46875 
Q 49.3125 8.734375 54.109375 11.28125 
L 54.109375 2.78125 
Q 49.265625 0.734375 44.1875 -0.34375 
Q 39.109375 -1.421875 33.890625 -1.421875 
Q 20.796875 -1.421875 13.15625 6.1875 
Q 5.515625 13.8125 5.515625 26.8125 
Q 5.515625 40.234375 12.765625 48.109375 
Q 20.015625 56 32.328125 56 
Q 43.359375 56 49.78125 48.890625 
Q 56.203125 41.796875 56.203125 29.59375 
z
M 47.21875 32.234375 
Q 47.125 39.59375 43.09375 43.984375 
Q 39.0625 48.390625 32.421875 48.390625 
Q 24.90625 48.390625 20.390625 44.140625 
Q 15.875 39.890625 15.1875 32.171875 
z
" id="DejaVuSans-101"/>
      <path d="M 54.890625 33.015625 
L 54.890625 0 
L 45.90625 0 
L 45.90625 32.71875 
Q 45.90625 40.484375 42.875 44.328125 
Q 39.84375 48.1875 33.796875 48.1875 
Q 26.515625 48.1875 22.3125 43.546875 
Q 18.109375 38.921875 18.109375 30.90625 
L 18.109375 0 
L 9.078125 0 
L 9.078125 54.6875 
L 18.109375 54.6875 
L 18.109375 46.1875 
Q 21.34375 51.125 25.703125 53.5625 
Q 30.078125 56 35.796875 56 
Q 45.21875 56 50.046875 50.171875 
Q 54.890625 44.34375 54.890625 33.015625 
z
" id="DejaVuSans-110"/>
      <path d="M 41.109375 46.296875 
Q 39.59375 47.171875 37.8125 47.578125 
Q 36.03125 48 33.890625 48 
Q 26.265625 48 22.1875 43.046875 
Q 18.109375 38.09375 18.109375 28.8125 
L 18.109375 0 
L 9.078125 0 
L 9.078125 54.6875 
L 18.109375 54.6875 
L 18.109375 46.1875 
Q 20.953125 51.171875 25.484375 53.578125 
Q 30.03125 56 36.53125 56 
Q 37.453125 56 38.578125 55.875 
Q 39.703125 55.765625 41.0625 55.515625 
z
" id="DejaVuSans-114"/>
      <path d="M 34.28125 27.484375 
Q 23.390625 27.484375 19.1875 25 
Q 14.984375 22.515625 14.984375 16.5 
Q 14.984375 11.71875 18.140625 8.90625 
Q 21.296875 6.109375 26.703125 6.109375 
Q 34.1875 6.109375 38.703125 11.40625 
Q 43.21875 16.703125 43.21875 25.484375 
L 43.21875 27.484375 
z
M 52.203125 31.203125 
L 52.203125 0 
L 43.21875 0 
L 43.21875 8.296875 
Q 40.140625 3.328125 35.546875 0.953125 
Q 30.953125 -1.421875 24.3125 -1.421875 
Q 15.921875 -1.421875 10.953125 3.296875 
Q 6 8.015625 6 15.921875 
Q 6 25.140625 12.171875 29.828125 
Q 18.359375 34.515625 30.609375 34.515625 
L 43.21875 34.515625 
L 43.21875 35.40625 
Q 43.21875 41.609375 39.140625 45 
Q 35.0625 48.390625 27.6875 48.390625 
Q 23 48.390625 18.546875 47.265625 
Q 14.109375 46.140625 10.015625 43.890625 
L 10.015625 52.203125 
Q 14.9375 54.109375 19.578125 55.046875 
Q 24.21875 56 28.609375 56 
Q 40.484375 56 46.34375 49.84375 
Q 52.203125 43.703125 52.203125 31.203125 
z
" id="DejaVuSans-97"/>
      <path d="M 18.3125 70.21875 
L 18.3125 54.6875 
L 36.8125 54.6875 
L 36.8125 47.703125 
L 18.3125 47.703125 
L 18.3125 18.015625 
Q 18.3125 11.328125 20.140625 9.421875 
Q 21.96875 7.515625 27.59375 7.515625 
L 36.8125 7.515625 
L 36.8125 0 
L 27.59375 0 
Q 17.1875 0 13.234375 3.875 
Q 9.28125 7.765625 9.28125 18.015625 
L 9.28125 47.703125 
L 2.6875 47.703125 
L 2.6875 54.6875 
L 9.28125 54.6875 
L 9.28125 70.21875 
z
" id="DejaVuSans-116"/>
      <path d="M 9.421875 54.6875 
L 18.40625 54.6875 
L 18.40625 0 
L 9.421875 0 
z
M 9.421875 75.984375 
L 18.40625 75.984375 
L 18.40625 64.59375 
L 9.421875 64.59375 
z
" id="DejaVuSans-105"/>
      <path d="M 30.609375 48.390625 
Q 23.390625 48.390625 19.1875 42.75 
Q 14.984375 37.109375 14.984375 27.296875 
Q 14.984375 17.484375 19.15625 11.84375 
Q 23.34375 6.203125 30.609375 6.203125 
Q 37.796875 6.203125 41.984375 11.859375 
Q 46.1875 17.53125 46.1875 27.296875 
Q 46.1875 37.015625 41.984375 42.703125 
Q 37.796875 48.390625 30.609375 48.390625 
z
M 30.609375 56 
Q 42.328125 56 49.015625 48.375 
Q 55.71875 40.765625 55.71875 27.296875 
Q 55.71875 13.875 49.015625 6.21875 
Q 42.328125 -1.421875 30.609375 -1.421875 
Q 18.84375 -1.421875 12.171875 6.21875 
Q 5.515625 13.875 5.515625 27.296875 
Q 5.515625 40.765625 12.171875 48.375 
Q 18.84375 56 30.609375 56 
z
" id="DejaVuSans-111"/>
      <path d="M 44.28125 53.078125 
L 44.28125 44.578125 
Q 40.484375 46.53125 36.375 47.5 
Q 32.28125 48.484375 27.875 48.484375 
Q 21.1875 48.484375 17.84375 46.4375 
Q 14.5 44.390625 14.5 40.28125 
Q 14.5 37.15625 16.890625 35.375 
Q 19.28125 33.59375 26.515625 31.984375 
L 29.59375 31.296875 
Q 39.15625 29.25 43.1875 25.515625 
Q 47.21875 21.78125 47.21875 15.09375 
Q 47.21875 7.46875 41.1875 3.015625 
Q 35.15625 -1.421875 24.609375 -1.421875 
Q 20.21875 -1.421875 15.453125 -0.5625 
Q 10.6875 0.296875 5.421875 2 
L 5.421875 11.28125 
Q 10.40625 8.6875 15.234375 7.390625 
Q 20.0625 6.109375 24.8125 6.109375 
Q 31.15625 6.109375 34.5625 8.28125 
Q 37.984375 10.453125 37.984375 14.40625 
Q 37.984375 18.0625 35.515625 20.015625 
Q 33.0625 21.96875 24.703125 23.78125 
L 21.578125 24.515625 
Q 13.234375 26.265625 9.515625 29.90625 
Q 5.8125 33.546875 5.8125 39.890625 
Q 5.8125 47.609375 11.28125 51.796875 
Q 16.75 56 26.8125 56 
Q 31.78125 56 36.171875 55.265625 
Q 40.578125 54.546875 44.28125 53.078125 
z
" id="DejaVuSans-115"/>
     </defs>
     <g transform="translate(205.662344 335.860562)scale(0.1 -0.1)">
      <use xlink:href="#DejaVuSans-71"/>
      <use x="77.490234" xlink:href="#DejaVuSans-101"/>
      <use x="139.013672" xlink:href="#DejaVuSans-110"/>
      <use x="202.392578" xlink:href="#DejaVuSans-101"/>
      <use x="263.916016" xlink:href="#DejaVuSans-114"/>
      <use x="305.029297" xlink:href="#DejaVuSans-97"/>
      <use x="366.308594" xlink:href="#DejaVuSans-116"/>
      <use x="405.517578" xlink:href="#DejaVuSans-105"/>
      <use x="433.300781" xlink:href="#DejaVuSans-111"/>
      <use x="494.482422" xlink:href="#DejaVuSans-110"/>
      <use x="557.861328" xlink:href="#DejaVuSans-115"/>
     </g>
    </g>
   </g>
   <g id="matplotlib.axis_2">
    <g id="ytick_1">
     <g id="line2d_13">
      <path clip-path="url(#p680e5feb69)" d="M 57.6 301.68161 
L 414.72 301.68161 
" style="fill:none;stroke:#b0b0b0;stroke-linecap:square;stroke-width:0.8;"/>
     </g>
     <g id="line2d_14">
      <defs>
       <path d="M 0 0 
L -3.5 0 
" id="mc0b1914ef4" style="stroke:#000000;stroke-width:0.8;"/>
      </defs>
      <g>
       <use style="stroke:#000000;stroke-width:0.8;" x="57.6" xlink:href="#mc0b1914ef4" y="301.68161"/>
      </g>
     </g>
     <g id="text_8">
      <!-- −0.5 -->
      <defs>
       <path d="M 10.59375 35.5 
L 73.1875 35.5 
L 73.1875 27.203125 
L 10.59375 27.203125 
z
" id="DejaVuSans-8722"/>
       <path d="M 10.6875 12.40625 
L 21 12.40625 
L 21 0 
L 10.6875 0 
z
" id="DejaVuSans-46"/>
      </defs>
      <g transform="translate(26.317187 305.480829)scale(0.1 -0.1)">
       <use xlink:href="#DejaVuSans-8722"/>
       <use x="83.789062" xlink:href="#DejaVuSans-48"/>
       <use x="147.412109" xlink:href="#DejaVuSans-46"/>
       <use x="179.199219" xlink:href="#DejaVuSans-53"/>
      </g>
     </g>
    </g>
    <g id="ytick_2">
     <g id="line2d_15">
      <path clip-path="url(#p680e5feb69)" d="M 57.6 268.275287 
L 414.72 268.275287 
" style="fill:none;stroke:#b0b0b0;stroke-linecap:square;stroke-width:0.8;"/>
     </g>
     <g id="line2d_16">
      <g>
       <use style="stroke:#000000;stroke-width:0.8;" x="57.6" xlink:href="#mc0b1914ef4" y="268.275287"/>
      </g>
     </g>
     <g id="text_9">
      <!-- 0.0 -->
      <g transform="translate(34.696875 272.074506)scale(0.1 -0.1)">
       <use xlink:href="#DejaVuSans-48"/>
       <use x="63.623047" xlink:href="#DejaVuSans-46"/>
       <use x="95.410156" xlink:href="#DejaVuSans-48"/>
      </g>
     </g>
    </g>
    <g id="ytick_3">
     <g id="line2d_17">
      <path clip-path="url(#p680e5feb69)" d="M 57.6 234.868964 
L 414.72 234.868964 
" style="fill:none;stroke:#b0b0b0;stroke-linecap:square;stroke-width:0.8;"/>
     </g>
     <g id="line2d_18">
      <g>
       <use style="stroke:#000000;stroke-width:0.8;" x="57.6" xlink:href="#mc0b1914ef4" y="234.868964"/>
      </g>
     </g>
     <g id="text_10">
      <!-- 0.5 -->
      <g transform="translate(34.696875 238.668183)scale(0.1 -0.1)">
       <use xlink:href="#DejaVuSans-48"/>
       <use x="63.623047" xlink:href="#DejaVuSans-46"/>
       <use x="95.410156" xlink:href="#DejaVuSans-53"/>
      </g>
     </g>
    </g>
    <g id="ytick_4">
     <g id="line2d_19">
      <path clip-path="url(#p680e5feb69)" d="M 57.6 201.462641 
L 414.72 201.462641 
" style="fill:none;stroke:#b0b0b0;stroke-linecap:square;stroke-width:0.8;"/>
     </g>
     <g id="line2d_20">
      <g>
       <use style="stroke:#000000;stroke-width:0.8;" x="57.6" xlink:href="#mc0b1914ef4" y="201.462641"/>
      </g>
     </g>
     <g id="text_11">
      <!-- 1.0 -->
      <g transform="translate(34.696875 205.261859)scale(0.1 -0.1)">
       <use xlink:href="#DejaVuSans-49"/>
       <use x="63.623047" xlink:href="#DejaVuSans-46"/>
       <use x="95.410156" xlink:href="#DejaVuSans-48"/>
      </g>
     </g>
    </g>
    <g id="ytick_5">
     <g id="line2d_21">
      <path clip-path="url(#p680e5feb69)" d="M 57.6 168.056317 
L 414.72 168.056317 
" style="fill:none;stroke:#b0b0b0;stroke-linecap:square;stroke-width:0.8;"/>
     </g>
     <g id="line2d_22">
      <g>
       <use style="stroke:#000000;stroke-width:0.8;" x="57.6" xlink:href="#mc0b1914ef4" y="168.056317"/>
      </g>
     </g>
     <g id="text_12">
      <!-- 1.5 -->
      <g transform="translate(34.696875 171.855536)scale(0.1 -0.1)">
       <use xlink:href="#DejaVuSans-49"/>
       <use x="63.623047" xlink:href="#DejaVuSans-46"/>
       <use x="95.410156" xlink:href="#DejaVuSans-53"/>
      </g>
     </g>
    </g>
    <g id="ytick_6">
     <g id="line2d_23">
      <path clip-path="url(#p680e5feb69)" d="M 57.6 134.649994 
L 414.72 134.649994 
" style="fill:none;stroke:#b0b0b0;stroke-linecap:square;stroke-width:0.8;"/>
     </g>
     <g id="line2d_24">
      <g>
       <use style="stroke:#000000;stroke-width:0.8;" x="57.6" xlink:href="#mc0b1914ef4" y="134.649994"/>
      </g>
     </g>
     <g id="text_13">
      <!-- 2.0 -->
      <g transform="translate(34.696875 138.449213)scale(0.1 -0.1)">
       <use xlink:href="#DejaVuSans-50"/>
       <use x="63.623047" xlink:href="#DejaVuSans-46"/>
       <use x="95.410156" xlink:href="#DejaVuSans-48"/>
      </g>
     </g>
    </g>
    <g id="ytick_7">
     <g id="line2d_25">
      <path clip-path="url(#p680e5feb69)" d="M 57.6 101.243671 
L 414.72 101.243671 
" style="fill:none;stroke:#b0b0b0;stroke-linecap:square;stroke-width:0.8;"/>
     </g>
     <g id="line2d_26">
      <g>
       <use style="stroke:#000000;stroke-width:0.8;" x="57.6" xlink:href="#mc0b1914ef4" y="101.243671"/>
      </g>
     </g>
     <g id="text_14">
      <!-- 2.5 -->
      <g transform="translate(34.696875 105.04289)scale(0.1 -0.1)">
       <use xlink:href="#DejaVuSans-50"/>
       <use x="63.623047" xlink:href="#DejaVuSans-46"/>
       <use x="95.410156" xlink:href="#DejaVuSans-53"/>
      </g>
     </g>
    </g>
    <g id="ytick_8">
     <g id="line2d_27">
      <path clip-path="url(#p680e5feb69)" d="M 57.6 67.837348 
L 414.72 67.837348 
" style="fill:none;stroke:#b0b0b0;stroke-linecap:square;stroke-width:0.8;"/>
     </g>
     <g id="line2d_28">
      <g>
       <use style="stroke:#000000;stroke-width:0.8;" x="57.6" xlink:href="#mc0b1914ef4" y="67.837348"/>
      </g>
     </g>
     <g id="text_15">
      <!-- 3.0 -->
      <g transform="translate(34.696875 71.636567)scale(0.1 -0.1)">
       <use xlink:href="#DejaVuSans-51"/>
       <use x="63.623047" xlink:href="#DejaVuSans-46"/>
       <use x="95.410156" xlink:href="#DejaVuSans-48"/>
      </g>
     </g>
    </g>
    <g id="text_16">
     <!-- Fitness -->
     <defs>
      <path d="M 9.8125 72.90625 
L 51.703125 72.90625 
L 51.703125 64.59375 
L 19.671875 64.59375 
L 19.671875 43.109375 
L 48.578125 43.109375 
L 48.578125 34.8125 
L 19.671875 34.8125 
L 19.671875 0 
L 9.8125 0 
z
" id="DejaVuSans-70"/>
     </defs>
     <g transform="translate(20.2375 192.202219)rotate(-90)scale(0.1 -0.1)">
      <use xlink:href="#DejaVuSans-70"/>
      <use x="57.410156" xlink:href="#DejaVuSans-105"/>
      <use x="85.193359" xlink:href="#DejaVuSans-116"/>
      <use x="124.402344" xlink:href="#DejaVuSans-110"/>
      <use x="187.78125" xlink:href="#DejaVuSans-101"/>
      <use x="249.304688" xlink:href="#DejaVuSans-115"/>
      <use x="301.404297" xlink:href="#DejaVuSans-115"/>
     </g>
    </g>
   </g>
   <g id="line2d_29">
    <path clip-path="url(#p680e5feb69)" d="M 73.832727 268.677051 
L 75.133948 260.070998 
L 76.435169 248.676188 
L 77.085779 247.984453 
L 77.736389 245.379076 
L 78.386999 245.37641 
L 79.03761 245.243942 
L 79.68822 243.445675 
L 80.33883 243.852427 
L 82.290661 239.540586 
L 82.941272 239.923791 
L 83.591882 240.84873 
L 84.242492 240.42394 
L 84.893103 239.460864 
L 85.543713 239.715993 
L 86.194323 240.229395 
L 86.844934 240.010788 
L 87.495544 239.315273 
L 88.146154 239.728972 
L 88.796764 242.642484 
L 89.447375 240.951675 
L 90.748595 240.476627 
L 91.399206 241.895244 
L 92.049816 242.342462 
L 92.700426 241.496991 
L 93.351037 241.49238 
L 94.001647 240.7296 
L 94.652257 247.012974 
L 95.302868 243.74438 
L 95.953478 242.386824 
L 96.604088 241.360224 
L 97.254698 240.660654 
L 97.905309 241.053881 
L 98.555919 242.938757 
L 99.206529 243.141306 
L 100.50775 243.978074 
L 101.15836 246.223495 
L 101.808971 246.542581 
L 102.459581 243.455123 
L 103.110191 247.435993 
L 103.760802 247.861483 
L 104.411412 245.816482 
L 105.062022 245.485705 
L 105.712633 241.380612 
L 106.363243 243.193753 
L 107.013853 243.443293 
L 107.664463 243.820896 
L 108.315074 243.44312 
L 108.965684 243.742677 
L 109.616294 247.734522 
L 110.266905 247.9133 
L 110.917515 247.300509 
L 111.568125 242.969146 
L 112.218736 242.885372 
L 112.869346 241.887021 
L 113.519956 243.085516 
L 114.821177 242.32934 
L 115.471787 240.450519 
L 116.773008 242.220037 
L 117.423618 240.661776 
L 118.074228 240.588826 
L 119.375449 242.807989 
L 120.026059 242.967701 
L 120.67667 238.837152 
L 121.32728 238.965178 
L 121.97789 240.831662 
L 122.628501 241.210358 
L 123.929721 243.394973 
L 124.580332 242.122478 
L 125.230942 241.105575 
L 126.532163 243.433977 
L 127.182773 241.536812 
L 127.833383 243.13533 
L 128.483993 241.326817 
L 129.134604 244.028861 
L 129.785214 243.033334 
L 130.435824 244.487904 
L 131.086435 243.676359 
L 131.737045 241.509885 
L 133.038266 239.8577 
L 134.339486 243.313978 
L 134.990097 240.435481 
L 135.640707 242.700843 
L 136.291317 242.300195 
L 136.941927 244.753591 
L 137.592538 243.158315 
L 138.243148 244.300836 
L 138.893758 243.828977 
L 139.544369 242.602111 
L 140.194979 245.595198 
L 140.845589 247.47226 
L 141.4962 244.070652 
L 142.14681 244.340295 
L 143.448031 243.73406 
L 144.098641 244.880498 
L 144.749251 244.573365 
L 145.399862 242.857181 
L 146.050472 243.824769 
L 146.701082 243.133369 
L 147.351692 243.321861 
L 148.002303 244.075318 
L 148.652913 244.646906 
L 149.303523 244.116277 
L 149.954134 244.449695 
L 150.604744 244.260716 
L 151.255354 246.351306 
L 151.905965 243.646098 
L 152.556575 247.100262 
L 153.207185 247.432897 
L 153.857796 245.076193 
L 154.508406 244.860897 
L 155.159016 243.362011 
L 155.809627 243.583597 
L 156.460237 243.040515 
L 157.761457 245.46986 
L 158.412068 243.937939 
L 159.062678 242.837148 
L 159.713288 245.836806 
L 160.363899 243.717489 
L 161.014509 243.375593 
L 161.665119 242.315295 
L 162.31573 243.391144 
L 162.96634 244.97437 
L 163.61695 243.638944 
L 164.918171 245.805032 
L 165.568781 244.107748 
L 166.219392 245.249494 
L 166.870002 245.058355 
L 167.520612 243.403751 
L 168.821833 244.359922 
L 169.472443 245.875987 
L 170.123053 242.716666 
L 170.773664 246.02867 
L 172.074884 243.321327 
L 172.725495 245.602738 
L 173.376105 244.524083 
L 174.026715 245.145789 
L 174.677326 245.307113 
L 175.327936 247.344366 
L 175.978546 245.516975 
L 176.629156 244.940945 
L 177.930377 244.876921 
L 178.580987 244.265088 
L 179.231598 245.892985 
L 179.882208 243.934339 
L 180.532818 244.518129 
L 181.183429 245.8921 
L 182.484649 243.428776 
L 183.13526 242.975739 
L 183.78587 245.525128 
L 184.43648 244.903205 
L 185.087091 245.394896 
L 185.737701 243.470357 
L 186.388311 243.593744 
L 187.038921 243.371826 
L 187.689532 244.136102 
L 188.340142 244.279237 
L 188.990752 243.026239 
L 189.641363 244.626617 
L 190.291973 245.744772 
L 190.942583 244.818647 
L 191.593194 245.135385 
L 192.243804 244.390153 
L 192.894414 244.628853 
L 193.545025 244.039979 
L 194.195635 243.999141 
L 194.846245 244.342969 
L 195.496856 245.797958 
L 196.147466 245.141026 
L 196.798076 247.012825 
L 197.448686 244.372677 
L 198.749907 245.740078 
L 199.400517 245.245375 
L 200.051128 244.966257 
L 200.701738 245.895872 
L 201.352348 244.059271 
L 202.002959 245.353333 
L 202.653569 242.570459 
L 203.304179 246.674569 
L 203.95479 244.116817 
L 204.6054 247.773929 
L 205.25601 246.75437 
L 205.906621 246.095529 
L 206.557231 245.598121 
L 207.207841 245.777118 
L 207.858451 242.598489 
L 208.509062 244.517246 
L 209.159672 245.25444 
L 209.810282 244.186788 
L 210.460893 245.787747 
L 211.111503 245.979376 
L 211.762113 246.051975 
L 212.412724 244.957427 
L 213.063334 243.311725 
L 213.713944 243.987675 
L 214.364555 245.521552 
L 215.015165 244.238915 
L 215.665775 245.548773 
L 216.316385 246.102152 
L 216.966996 243.810219 
L 217.617606 243.392927 
L 218.268216 246.236566 
L 218.918827 244.760251 
L 219.569437 245.173399 
L 220.220047 246.49769 
L 220.870658 244.890167 
L 221.521268 245.720175 
L 222.171878 245.074133 
L 222.822489 247.034706 
L 223.473099 244.186972 
L 224.123709 243.047357 
L 224.77432 242.623556 
L 225.42493 245.117902 
L 226.07554 244.094773 
L 226.72615 243.352317 
L 227.376761 245.796287 
L 228.027371 245.143353 
L 229.328592 244.202359 
L 229.979202 245.750803 
L 230.629812 244.94246 
L 231.280423 246.452283 
L 231.931033 243.484365 
L 232.581643 245.310816 
L 233.232254 246.008031 
L 233.882864 244.269654 
L 234.533474 245.024268 
L 235.184085 244.465612 
L 235.834695 244.505192 
L 236.485305 244.920546 
L 237.135915 244.872761 
L 237.786526 242.710772 
L 238.437136 245.184701 
L 239.087746 245.084763 
L 239.738357 246.695886 
L 240.388967 246.182486 
L 241.039577 244.624253 
L 241.690188 244.625333 
L 242.991408 243.643786 
L 243.642019 243.644822 
L 244.292629 245.008668 
L 244.943239 242.893652 
L 245.59385 243.754925 
L 246.24446 244.312426 
L 247.54568 246.267244 
L 248.196291 244.701227 
L 248.846901 245.612826 
L 249.497511 244.180121 
L 250.148122 244.728167 
L 250.798732 244.131104 
L 251.449342 242.914016 
L 252.099953 245.992886 
L 252.750563 245.430409 
L 253.401173 245.638487 
L 254.051784 244.031303 
L 254.702394 243.391608 
L 255.353004 244.136077 
L 256.003615 243.041444 
L 256.654225 244.303202 
L 257.304835 245.857047 
L 257.955445 244.776667 
L 259.256666 245.790292 
L 259.907276 247.169442 
L 261.208497 243.702362 
L 261.859107 245.699922 
L 262.509718 247.095453 
L 263.160328 246.910934 
L 263.810938 246.205092 
L 264.461549 246.030852 
L 265.112159 245.689425 
L 265.762769 244.909226 
L 266.413379 245.167556 
L 267.06399 245.882503 
L 267.7146 244.28311 
L 268.36521 244.210247 
L 269.015821 246.400302 
L 269.666431 245.185955 
L 270.317041 244.829627 
L 270.967652 243.634245 
L 271.618262 245.985887 
L 272.268872 243.758556 
L 272.919483 248.283208 
L 273.570093 245.402278 
L 274.871314 244.18633 
L 275.521924 244.414602 
L 276.172534 244.79516 
L 277.473755 243.344114 
L 278.124365 243.565264 
L 278.774975 243.525786 
L 279.425586 244.862949 
L 280.076196 244.485167 
L 280.726806 246.446351 
L 281.377417 244.107035 
L 282.028027 244.290683 
L 282.678637 245.705134 
L 283.329248 244.682727 
L 283.979858 243.211785 
L 284.630468 244.752028 
L 285.281079 243.782658 
L 285.931689 244.613522 
L 286.582299 246.423912 
L 287.232909 245.978366 
L 287.88352 246.710535 
L 288.53413 244.420407 
L 289.18474 245.853925 
L 289.835351 246.218011 
L 290.485961 245.086418 
L 291.136571 245.49205 
L 291.787182 243.042287 
L 292.437792 244.472332 
L 293.088402 245.136203 
L 293.739013 245.008806 
L 294.389623 247.026803 
L 295.040233 244.913699 
L 295.690844 244.767939 
L 296.341454 245.126746 
L 296.992064 244.596899 
L 297.642674 245.064415 
L 298.293285 240.73329 
L 298.943895 244.753239 
L 299.594505 243.962731 
L 300.245116 243.357456 
L 300.895726 243.197606 
L 301.546336 243.429432 
L 302.196947 245.020364 
L 302.847557 244.919279 
L 303.498167 243.457283 
L 304.148778 243.018679 
L 304.799388 244.091665 
L 305.449998 243.784909 
L 306.100608 242.848754 
L 306.751219 243.985651 
L 307.401829 241.557435 
L 308.052439 244.102201 
L 308.70305 243.774968 
L 309.35366 241.07296 
L 310.00427 242.671938 
L 310.654881 240.155935 
L 311.305491 244.640194 
L 311.956101 243.969775 
L 312.606712 244.503409 
L 313.257322 244.32783 
L 313.907932 242.168708 
L 314.558543 242.66704 
L 315.209153 242.783754 
L 315.859763 242.548538 
L 316.510373 243.013131 
L 317.160984 242.011254 
L 317.811594 242.718196 
L 318.462204 244.478323 
L 319.112815 243.889651 
L 319.763425 242.165965 
L 320.414035 244.371442 
L 321.064646 245.068339 
L 323.016477 244.838192 
L 323.667087 244.476479 
L 324.317697 245.178884 
L 324.968308 247.612619 
L 325.618918 243.59335 
L 326.269528 246.546582 
L 326.920138 243.962187 
L 328.221359 246.048758 
L 328.871969 244.472096 
L 329.52258 243.941142 
L 330.17319 245.150922 
L 330.8238 244.144732 
L 331.474411 245.157975 
L 332.125021 244.46786 
L 332.775631 245.218067 
L 333.426242 245.40719 
L 334.076852 242.617919 
L 335.378073 245.294943 
L 336.679293 244.712286 
L 337.329903 244.478029 
L 338.631124 245.547616 
L 339.281734 245.368615 
L 339.932345 244.861137 
L 340.582955 242.64676 
L 341.233565 242.111865 
L 341.884176 242.411137 
L 342.534786 241.653298 
L 343.185396 240.430462 
L 343.836007 241.25985 
L 344.486617 240.784445 
L 345.137227 242.89073 
L 345.787837 242.499036 
L 346.438448 238.241578 
L 347.739668 245.307684 
L 348.390279 242.723029 
L 349.691499 244.068103 
L 350.34211 242.638344 
L 350.99272 240.104368 
L 351.64333 240.824386 
L 352.293941 241.916516 
L 352.944551 241.788534 
L 353.595161 242.038046 
L 354.245772 243.132332 
L 354.896382 240.195581 
L 355.546992 242.020514 
L 356.197602 240.10781 
L 356.848213 241.561025 
L 357.498823 240.077314 
L 358.149433 243.421813 
L 358.800044 242.595507 
L 359.450654 242.071643 
L 360.101264 242.097274 
L 360.751875 241.185918 
L 361.402485 242.528747 
L 362.053095 242.15393 
L 362.703706 240.237475 
L 363.354316 240.442422 
L 364.004926 237.478128 
L 365.306147 242.411497 
L 365.956757 239.950795 
L 366.607367 242.628723 
L 367.257978 239.591018 
L 367.908588 238.33439 
L 368.559198 238.486242 
L 369.209809 238.878846 
L 369.860419 238.860321 
L 370.511029 240.196049 
L 371.16164 239.47302 
L 371.81225 239.723589 
L 373.113471 239.374047 
L 373.764081 239.964434 
L 375.065302 239.781516 
L 375.715912 241.073968 
L 376.366522 242.115227 
L 377.017132 243.764252 
L 377.667743 243.111906 
L 379.619574 238.39357 
L 380.270184 240.61763 
L 380.920794 239.444386 
L 381.571405 238.804587 
L 382.222015 238.785537 
L 382.872625 242.081103 
L 383.523236 239.431881 
L 384.173846 240.82137 
L 384.824456 241.552054 
L 386.125677 243.773355 
L 386.776287 240.564295 
L 387.426897 242.14393 
L 388.077508 241.432817 
L 388.728118 241.592646 
L 389.378728 240.803868 
L 390.029339 240.847831 
L 390.679949 240.648977 
L 391.330559 239.991513 
L 391.98117 241.422881 
L 393.28239 240.151432 
L 393.933001 238.427035 
L 394.583611 241.88193 
L 395.234221 240.93131 
L 395.884831 239.021962 
L 396.535442 239.363116 
L 397.186052 239.213589 
L 397.836662 240.183454 
L 398.487273 239.468376 
L 398.487273 239.468376 
" style="fill:none;stroke:#0000ff;stroke-linecap:square;stroke-width:1.5;"/>
   </g>
   <g id="line2d_30">
    <path clip-path="url(#p680e5feb69)" d="M 73.832727 282.519267 
L 74.483338 281.724694 
L 75.133948 283.729108 
L 75.784558 281.750805 
L 76.435169 280.718027 
L 77.736389 279.32372 
L 78.386999 279.172376 
L 79.03761 281.774503 
L 79.68822 281.69131 
L 80.33883 282.090317 
L 80.989441 281.589682 
L 81.640051 281.594308 
L 82.290661 279.680678 
L 82.941272 281.594806 
L 83.591882 282.522963 
L 84.242492 282.486909 
L 84.893103 281.239494 
L 85.543713 282.342693 
L 86.194323 284.531028 
L 86.844934 282.922576 
L 87.495544 282.458526 
L 88.146154 285.699815 
L 88.796764 287.284367 
L 89.447375 285.192119 
L 90.097985 287.443728 
L 90.748595 287.861721 
L 91.399206 287.684925 
L 92.049816 288.536702 
L 92.700426 288.380444 
L 93.351037 287.927685 
L 94.001647 286.935207 
L 94.652257 287.957171 
L 95.302868 287.042937 
L 95.953478 285.52807 
L 96.604088 284.724147 
L 97.254698 285.178221 
L 97.905309 286.243135 
L 98.555919 287.647072 
L 99.206529 287.374061 
L 99.85714 289.509838 
L 100.50775 290.697302 
L 101.15836 293.111297 
L 101.808971 292.358608 
L 102.459581 291.063084 
L 103.110191 295.488 
L 103.760802 291.177493 
L 104.411412 289.934041 
L 105.062022 289.32029 
L 105.712633 287.273469 
L 107.013853 289.900103 
L 107.664463 290.310369 
L 108.315074 292.212876 
L 108.965684 293.037635 
L 109.616294 291.994987 
L 110.266905 292.782953 
L 110.917515 290.827539 
L 111.568125 288.338431 
L 112.218736 287.251467 
L 112.869346 287.150805 
L 113.519956 287.319596 
L 114.170567 287.792685 
L 114.821177 288.460968 
L 115.471787 287.002538 
L 116.122398 287.590952 
L 116.773008 286.962946 
L 117.423618 287.667112 
L 118.074228 287.356435 
L 118.724839 287.643177 
L 119.375449 288.855112 
L 120.026059 289.017252 
L 120.67667 285.666563 
L 121.32728 286.276473 
L 121.97789 288.200269 
L 123.929721 290.909858 
L 124.580332 289.121579 
L 125.230942 287.853744 
L 125.881552 289.587555 
L 126.532163 290.369871 
L 127.182773 290.748135 
L 127.833383 283.24166 
L 128.483993 281.613191 
L 129.134604 284.590695 
L 129.785214 283.438206 
L 130.435824 282.974469 
L 131.086435 284.313216 
L 131.737045 281.898771 
L 132.387655 280.988324 
L 133.038266 281.740877 
L 133.688876 281.897751 
L 134.339486 284.631329 
L 134.990097 282.033091 
L 135.640707 284.628258 
L 136.291317 283.737499 
L 136.941927 285.653697 
L 137.592538 284.670064 
L 138.243148 284.932302 
L 138.893758 283.628016 
L 139.544369 283.986303 
L 140.194979 287.787456 
L 140.845589 289.168888 
L 141.4962 285.43788 
L 142.14681 286.245677 
L 142.79742 285.718017 
L 143.448031 285.788781 
L 144.098641 287.240883 
L 144.749251 288.063444 
L 145.399862 285.672039 
L 146.050472 286.515412 
L 146.701082 285.077626 
L 147.351692 284.845943 
L 148.002303 285.815328 
L 148.652913 287.254109 
L 149.303523 286.138625 
L 149.954134 286.913505 
L 150.604744 286.46193 
L 151.255354 288.228398 
L 151.905965 285.744292 
L 152.556575 288.216869 
L 153.207185 288.451559 
L 153.857796 286.786464 
L 154.508406 286.721082 
L 155.159016 286.371383 
L 155.809627 286.222233 
L 156.460237 286.640645 
L 157.110847 286.488437 
L 157.761457 288.222247 
L 158.412068 286.737606 
L 159.062678 285.988117 
L 159.713288 288.17948 
L 160.363899 287.713282 
L 161.665119 285.997001 
L 162.31573 287.209793 
L 162.96634 287.822022 
L 163.61695 285.964389 
L 164.267561 287.693048 
L 164.918171 288.898214 
L 165.568781 286.803799 
L 166.219392 287.979894 
L 166.870002 287.779101 
L 167.520612 286.596006 
L 168.171222 286.370401 
L 168.821833 288.046936 
L 169.472443 288.583918 
L 170.123053 286.135696 
L 170.773664 288.980974 
L 171.424274 287.313082 
L 172.074884 286.709374 
L 172.725495 288.233715 
L 173.376105 286.936971 
L 174.026715 287.690475 
L 174.677326 287.698777 
L 175.327936 290.206977 
L 175.978546 287.814394 
L 176.629156 288.820281 
L 177.279767 287.645298 
L 177.930377 287.890313 
L 178.580987 287.938482 
L 179.231598 288.65669 
L 179.882208 287.584844 
L 180.532818 287.924469 
L 181.183429 288.791707 
L 183.13526 285.701428 
L 183.78587 288.280393 
L 184.43648 287.368131 
L 185.087091 289.945337 
L 185.737701 286.524654 
L 187.038921 286.533271 
L 187.689532 287.482408 
L 188.340142 287.37717 
L 188.990752 285.417336 
L 189.641363 287.595188 
L 190.291973 287.711002 
L 190.942583 289.480434 
L 191.593194 288.069788 
L 192.243804 288.255401 
L 192.894414 287.860081 
L 193.545025 288.22595 
L 194.195635 286.728799 
L 195.496856 289.861326 
L 196.147466 287.838065 
L 196.798076 289.707286 
L 197.448686 287.900772 
L 198.099297 287.665379 
L 198.749907 289.623746 
L 200.051128 287.355113 
L 200.701738 288.876956 
L 201.352348 287.827932 
L 202.002959 288.954265 
L 202.653569 286.814619 
L 203.304179 290.445656 
L 203.95479 288.672347 
L 204.6054 290.708519 
L 205.25601 289.188411 
L 205.906621 289.129223 
L 206.557231 288.062786 
L 207.207841 289.391463 
L 207.858451 286.246507 
L 208.509062 288.741573 
L 209.159672 289.174552 
L 209.810282 287.104044 
L 210.460893 288.737956 
L 211.111503 289.251461 
L 211.762113 288.993781 
L 212.412724 288.400429 
L 213.063334 288.03616 
L 213.713944 288.110096 
L 214.364555 288.983533 
L 215.015165 288.078554 
L 215.665775 289.304186 
L 216.316385 292.010044 
L 216.966996 288.279934 
L 217.617606 286.636327 
L 218.268216 288.480659 
L 218.918827 289.130666 
L 219.569437 288.473526 
L 220.220047 290.306081 
L 220.870658 288.604328 
L 221.521268 289.856745 
L 222.171878 288.549175 
L 222.822489 290.900793 
L 223.473099 288.869297 
L 224.123709 287.230006 
L 224.77432 286.719082 
L 225.42493 289.279497 
L 226.07554 287.74663 
L 226.72615 287.239098 
L 227.376761 288.780049 
L 228.027371 289.214871 
L 228.677981 289.020266 
L 229.328592 288.045807 
L 229.979202 290.252602 
L 230.629812 289.872523 
L 231.280423 290.8417 
L 231.931033 288.084607 
L 232.581643 290.070113 
L 233.232254 290.058673 
L 233.882864 288.640015 
L 234.533474 289.781716 
L 235.184085 288.586425 
L 235.834695 288.902655 
L 236.485305 289.508257 
L 237.135915 289.047893 
L 237.786526 286.591428 
L 238.437136 289.997261 
L 239.087746 290.211303 
L 239.738357 291.14538 
L 240.388967 289.971809 
L 241.039577 289.636089 
L 241.690188 289.723396 
L 242.340798 290.185946 
L 242.991408 288.058472 
L 243.642019 288.912237 
L 244.292629 289.529775 
L 244.943239 287.616468 
L 246.24446 287.989464 
L 246.89507 290.182662 
L 247.54568 291.357979 
L 248.196291 289.725533 
L 248.846901 290.301894 
L 249.497511 288.729872 
L 250.148122 290.046358 
L 250.798732 287.750131 
L 251.449342 286.632205 
L 252.099953 289.549568 
L 252.750563 289.790422 
L 253.401173 289.458269 
L 254.051784 287.916539 
L 254.702394 288.272827 
L 255.353004 289.631602 
L 256.003615 287.211057 
L 256.654225 289.576661 
L 257.304835 289.068338 
L 257.955445 289.382897 
L 258.606056 289.350507 
L 259.256666 289.15493 
L 259.907276 291.86016 
L 260.557887 289.9444 
L 261.208497 288.791679 
L 263.160328 291.326137 
L 263.810938 289.521752 
L 264.461549 290.496385 
L 265.112159 290.501984 
L 265.762769 289.763199 
L 267.06399 290.402717 
L 267.7146 287.724804 
L 268.36521 289.094022 
L 269.015821 289.815252 
L 269.666431 289.082063 
L 270.317041 289.491622 
L 270.967652 288.310555 
L 271.618262 290.553151 
L 272.268872 288.318203 
L 272.919483 291.986253 
L 273.570093 289.173068 
L 274.220703 290.304751 
L 274.871314 289.510183 
L 275.521924 288.98958 
L 276.172534 290.610868 
L 276.823144 289.371247 
L 277.473755 288.722058 
L 278.124365 288.990562 
L 278.774975 288.600487 
L 279.425586 289.874988 
L 280.076196 289.886426 
L 280.726806 290.328744 
L 281.377417 288.35423 
L 282.028027 289.836017 
L 282.678637 290.834307 
L 283.329248 289.04808 
L 283.979858 288.324963 
L 284.630468 289.687582 
L 285.281079 288.426275 
L 286.582299 291.186658 
L 287.232909 290.233707 
L 287.88352 291.679618 
L 288.53413 290.186581 
L 289.18474 289.653664 
L 289.835351 291.052945 
L 291.136571 290.679269 
L 291.787182 288.060605 
L 292.437792 290.180427 
L 293.088402 290.284339 
L 293.739013 289.810398 
L 294.389623 291.470438 
L 295.040233 289.360119 
L 295.690844 289.931844 
L 296.341454 291.303648 
L 296.992064 289.35658 
L 297.642674 289.749171 
L 298.293285 286.47595 
L 298.943895 289.945429 
L 299.594505 289.441432 
L 300.245116 289.256314 
L 300.895726 288.955421 
L 301.546336 288.226418 
L 302.196947 290.122507 
L 302.847557 289.358092 
L 303.498167 288.109375 
L 304.148778 288.321648 
L 304.799388 288.365605 
L 305.449998 287.958355 
L 306.100608 287.268642 
L 306.751219 288.912967 
L 307.401829 287.852257 
L 308.052439 289.137673 
L 308.70305 289.158813 
L 309.35366 286.892589 
L 310.00427 288.566229 
L 310.654881 285.861937 
L 311.305491 290.121086 
L 311.956101 288.37037 
L 312.606712 289.142482 
L 313.257322 289.020805 
L 313.907932 287.756527 
L 314.558543 287.900306 
L 315.209153 288.71773 
L 315.859763 288.7144 
L 316.510373 289.379712 
L 317.160984 287.602804 
L 317.811594 287.689492 
L 318.462204 289.683193 
L 319.112815 288.303279 
L 319.763425 287.574356 
L 321.064646 289.904255 
L 321.715256 290.69783 
L 323.016477 289.263237 
L 323.667087 288.405268 
L 324.317697 290.000332 
L 324.968308 292.148024 
L 325.618918 290.21143 
L 326.269528 292.025825 
L 326.920138 288.946711 
L 327.570749 290.993591 
L 328.221359 291.644096 
L 328.871969 289.672221 
L 329.52258 288.932221 
L 330.17319 290.613005 
L 330.8238 289.206999 
L 331.474411 290.458099 
L 332.125021 289.646831 
L 332.775631 290.286867 
L 333.426242 290.084926 
L 334.076852 287.716762 
L 334.727462 288.45478 
L 335.378073 290.881144 
L 336.028683 291.828108 
L 336.679293 289.862596 
L 337.329903 289.923826 
L 337.980514 289.043212 
L 338.631124 285.493539 
L 339.281734 285.805422 
L 339.932345 286.39758 
L 340.582955 283.848235 
L 341.884176 283.780312 
L 342.534786 283.856647 
L 343.185396 282.954554 
L 343.836007 283.081909 
L 344.486617 282.84171 
L 345.137227 285.454916 
L 345.787837 284.444583 
L 346.438448 281.409613 
L 347.089058 284.549123 
L 347.739668 288.480145 
L 348.390279 285.043246 
L 349.040889 285.880485 
L 349.691499 286.528347 
L 350.34211 285.31363 
L 350.99272 283.221257 
L 352.293941 285.037098 
L 352.944551 286.175948 
L 353.595161 285.183299 
L 354.245772 286.095884 
L 354.896382 283.400557 
L 355.546992 286.429594 
L 356.197602 283.975385 
L 356.848213 284.254702 
L 357.498823 283.56049 
L 358.149433 286.763845 
L 359.450654 284.874533 
L 360.101264 285.110085 
L 360.751875 285.215236 
L 361.402485 284.696846 
L 362.053095 286.594464 
L 362.703706 284.574959 
L 363.354316 284.192637 
L 364.004926 281.347396 
L 364.655537 284.862928 
L 365.306147 285.985836 
L 365.956757 283.161582 
L 366.607367 286.208613 
L 367.257978 283.959638 
L 367.908588 283.219063 
L 368.559198 283.155409 
L 369.209809 283.400567 
L 369.860419 283.996363 
L 370.511029 284.977307 
L 371.16164 283.992313 
L 371.81225 283.813723 
L 372.46286 284.164698 
L 373.113471 284.867296 
L 373.764081 283.709621 
L 374.414691 284.113621 
L 375.065302 284.116486 
L 375.715912 285.69023 
L 376.366522 286.177938 
L 377.017132 288.196415 
L 377.667743 286.384007 
L 378.318353 285.159153 
L 379.619574 282.366539 
L 380.270184 285.15691 
L 380.920794 283.510869 
L 381.571405 283.300362 
L 382.222015 284.816822 
L 382.872625 286.837846 
L 383.523236 284.837093 
L 384.173846 285.958091 
L 384.824456 285.87708 
L 385.475066 288.330938 
L 386.125677 288.393 
L 386.776287 285.784995 
L 387.426897 286.589853 
L 388.077508 286.203811 
L 388.728118 286.339957 
L 389.378728 286.00364 
L 390.029339 285.98996 
L 390.679949 286.285842 
L 391.330559 284.655496 
L 391.98117 286.534121 
L 392.63178 285.531746 
L 393.933001 284.5497 
L 394.583611 286.404582 
L 395.234221 284.567962 
L 395.884831 283.332229 
L 396.535442 283.861252 
L 397.186052 284.76896 
L 397.836662 284.927099 
L 398.487273 284.840957 
L 398.487273 284.840957 
" style="fill:none;stroke:#008000;stroke-dasharray:9.6,2.4,1.5,2.4;stroke-dashoffset:0;stroke-width:1.5;"/>
   </g>
   <g id="line2d_31">
    <path clip-path="url(#p680e5feb69)" d="M 73.832727 254.834834 
L 74.483338 246.93406 
L 76.435169 216.634349 
L 77.085779 215.919618 
L 77.736389 211.434431 
L 78.386999 211.580445 
L 79.03761 208.713382 
L 79.68822 205.200039 
L 80.33883 205.614536 
L 80.989441 203.136539 
L 81.640051 199.896811 
L 82.290661 199.400495 
L 82.941272 198.252777 
L 83.591882 199.174497 
L 84.893103 197.682234 
L 85.543713 197.089293 
L 86.194323 195.927762 
L 86.844934 197.099 
L 87.495544 196.172021 
L 88.146154 193.758128 
L 88.796764 198.000602 
L 89.447375 196.71123 
L 90.097985 194.053436 
L 90.748595 193.091532 
L 91.399206 196.105564 
L 92.049816 196.148221 
L 92.700426 194.613537 
L 93.351037 195.057075 
L 94.001647 194.523993 
L 94.652257 206.068778 
L 95.302868 200.445823 
L 96.604088 197.996301 
L 97.254698 196.143088 
L 97.905309 195.864627 
L 98.555919 198.230441 
L 99.206529 198.908552 
L 99.85714 197.688875 
L 100.50775 197.258846 
L 101.15836 199.335692 
L 101.808971 200.726554 
L 102.459581 195.847161 
L 103.110191 199.383986 
L 103.760802 204.545474 
L 104.411412 201.698923 
L 105.062022 201.65112 
L 105.712633 195.487755 
L 106.363243 197.833345 
L 107.013853 196.986483 
L 107.664463 197.331423 
L 108.315074 194.673365 
L 108.965684 194.447718 
L 109.616294 203.474056 
L 110.266905 203.043647 
L 110.917515 203.77348 
L 111.568125 197.59986 
L 112.218736 198.519277 
L 112.869346 196.623236 
L 113.519956 198.851436 
L 114.821177 196.197712 
L 115.471787 193.898501 
L 116.122398 195.176056 
L 116.773008 197.477128 
L 117.423618 193.65644 
L 118.074228 193.821217 
L 118.724839 195.81638 
L 119.375449 196.760866 
L 120.026059 196.918151 
L 120.67667 192.007741 
L 121.32728 191.653883 
L 121.97789 193.463054 
L 122.628501 193.344303 
L 123.279111 195.014511 
L 123.929721 195.880089 
L 125.230942 194.357405 
L 125.881552 194.904862 
L 126.532163 196.498083 
L 127.182773 192.325489 
L 127.833383 203.029 
L 128.483993 201.040443 
L 129.134604 203.467027 
L 129.785214 202.628463 
L 130.435824 206.00134 
L 131.086435 203.039501 
L 131.737045 201.120999 
L 132.387655 200.416732 
L 133.038266 197.974522 
L 133.688876 201.030452 
L 134.339486 201.996628 
L 134.990097 198.837872 
L 135.640707 200.773428 
L 136.291317 200.862891 
L 136.941927 203.853485 
L 137.592538 201.646565 
L 138.243148 203.669369 
L 138.893758 204.029938 
L 139.544369 201.217919 
L 140.845589 205.775632 
L 141.4962 202.703423 
L 142.79742 202.244244 
L 143.448031 201.67934 
L 144.098641 202.520113 
L 144.749251 201.083286 
L 145.399862 200.042324 
L 146.050472 201.134127 
L 146.701082 201.189112 
L 148.002303 202.335308 
L 148.652913 202.039704 
L 149.303523 202.093929 
L 149.954134 201.985884 
L 150.604744 202.059502 
L 151.255354 204.474214 
L 151.905965 201.547904 
L 152.556575 205.983655 
L 153.207185 206.414235 
L 153.857796 203.365922 
L 154.508406 203.000711 
L 155.159016 200.352638 
L 155.809627 200.944962 
L 156.460237 199.440385 
L 157.110847 202.218099 
L 157.761457 202.717472 
L 159.062678 199.686178 
L 159.713288 203.494132 
L 160.363899 199.721696 
L 161.014509 199.843443 
L 161.665119 198.633589 
L 162.31573 199.572495 
L 162.96634 202.126718 
L 163.61695 201.3135 
L 164.267561 201.846937 
L 164.918171 202.711849 
L 165.568781 201.411696 
L 166.219392 202.519095 
L 166.870002 202.337608 
L 167.520612 200.211496 
L 168.171222 201.30515 
L 168.821833 200.672909 
L 169.472443 203.168056 
L 170.123053 199.297635 
L 170.773664 203.076365 
L 171.424274 202.038427 
L 172.074884 199.93328 
L 172.725495 202.971761 
L 173.376105 202.111195 
L 174.026715 202.601103 
L 174.677326 202.91545 
L 175.327936 204.481756 
L 175.978546 203.219555 
L 176.629156 201.061609 
L 177.279767 202.072011 
L 177.930377 201.86353 
L 178.580987 200.591693 
L 179.231598 203.12928 
L 179.882208 200.283834 
L 180.532818 201.111789 
L 181.183429 202.992494 
L 181.834039 201.328186 
L 182.484649 200.064211 
L 183.13526 200.250049 
L 183.78587 202.769863 
L 184.43648 202.43828 
L 185.087091 200.844456 
L 185.737701 200.41606 
L 186.388311 200.67522 
L 187.038921 200.210382 
L 187.689532 200.789796 
L 188.340142 201.181304 
L 188.990752 200.635142 
L 189.641363 201.658047 
L 190.291973 203.778542 
L 190.942583 200.156861 
L 191.593194 202.200983 
L 192.243804 200.524905 
L 192.894414 201.397625 
L 193.545025 199.854008 
L 194.195635 201.269482 
L 194.846245 200.428937 
L 195.496856 201.73459 
L 196.147466 202.443987 
L 196.798076 204.318364 
L 197.448686 200.844582 
L 198.099297 202.382604 
L 198.749907 201.856409 
L 199.400517 202.01059 
L 200.051128 202.577401 
L 200.701738 202.914789 
L 201.352348 200.29061 
L 202.002959 201.752401 
L 202.653569 198.326299 
L 203.304179 202.903482 
L 203.95479 199.561286 
L 204.6054 204.839339 
L 205.25601 204.320329 
L 205.906621 203.061836 
L 206.557231 203.133456 
L 207.207841 202.162774 
L 207.858451 198.950472 
L 208.509062 200.292919 
L 209.159672 201.334327 
L 209.810282 201.269531 
L 210.460893 202.837538 
L 211.111503 202.70729 
L 211.762113 203.110169 
L 212.412724 201.514425 
L 213.063334 198.58729 
L 213.713944 199.865253 
L 214.364555 202.05957 
L 215.015165 200.399276 
L 215.665775 201.79336 
L 216.316385 200.19426 
L 216.966996 199.340504 
L 217.617606 200.149528 
L 218.268216 203.992472 
L 218.918827 200.389836 
L 219.569437 201.873273 
L 220.220047 202.6893 
L 220.870658 201.176007 
L 221.521268 201.583605 
L 222.171878 201.599091 
L 222.822489 203.168618 
L 223.473099 199.504647 
L 224.123709 198.864707 
L 224.77432 198.528029 
L 225.42493 200.956308 
L 226.07554 200.442915 
L 226.72615 199.465535 
L 227.376761 202.812525 
L 228.027371 201.071836 
L 228.677981 200.353435 
L 229.328592 200.358911 
L 229.979202 201.249005 
L 230.629812 200.012396 
L 231.280423 202.062865 
L 231.931033 198.884123 
L 233.232254 201.957388 
L 233.882864 199.899293 
L 234.533474 200.266819 
L 235.184085 200.344798 
L 235.834695 200.107729 
L 236.485305 200.332836 
L 237.135915 200.697629 
L 237.786526 198.830116 
L 238.437136 200.372141 
L 239.087746 199.958222 
L 239.738357 202.246391 
L 240.388967 202.393163 
L 241.039577 199.612416 
L 241.690188 199.52727 
L 242.340798 198.071251 
L 242.991408 199.229101 
L 243.642019 198.377407 
L 244.292629 200.48756 
L 244.943239 198.170835 
L 245.59385 199.753689 
L 246.24446 200.635389 
L 246.89507 200.608609 
L 247.54568 201.17651 
L 248.196291 199.676921 
L 248.846901 200.923757 
L 249.497511 199.630369 
L 250.148122 199.409975 
L 250.798732 200.512077 
L 251.449342 199.195827 
L 252.099953 202.436205 
L 252.750563 201.070397 
L 253.401173 201.818704 
L 254.702394 198.510389 
L 256.003615 198.871831 
L 256.654225 199.029744 
L 257.304835 202.645756 
L 257.955445 200.170437 
L 258.606056 201.1398 
L 259.256666 202.425654 
L 259.907276 202.478723 
L 260.557887 201.033249 
L 261.208497 198.613046 
L 261.859107 201.751983 
L 262.509718 203.507673 
L 263.160328 202.49573 
L 263.810938 202.888431 
L 264.461549 201.565318 
L 265.762769 200.055253 
L 266.413379 200.21426 
L 267.06399 201.36229 
L 267.7146 200.841417 
L 268.36521 199.326472 
L 269.015821 202.985352 
L 269.666431 201.289847 
L 270.967652 198.957935 
L 271.618262 201.418624 
L 272.268872 199.198909 
L 272.919483 204.580162 
L 273.570093 201.631488 
L 274.220703 199.409966 
L 274.871314 198.862476 
L 275.521924 199.839624 
L 276.172534 198.979452 
L 276.823144 198.865782 
L 277.473755 197.966169 
L 278.124365 198.139965 
L 278.774975 198.451085 
L 279.425586 199.850911 
L 280.076196 199.083909 
L 280.726806 202.563958 
L 281.377417 199.85984 
L 282.028027 198.74535 
L 282.678637 200.57596 
L 283.329248 200.317373 
L 283.979858 198.098607 
L 284.630468 199.816474 
L 285.281079 199.139042 
L 285.931689 199.363578 
L 286.582299 201.661166 
L 287.88352 201.741453 
L 288.53413 198.654233 
L 289.18474 202.054186 
L 289.835351 201.383077 
L 290.485961 199.28162 
L 291.136571 200.304832 
L 291.787182 198.023969 
L 292.437792 198.764237 
L 293.088402 199.988067 
L 293.739013 200.207215 
L 294.389623 202.583167 
L 295.040233 200.467279 
L 295.690844 199.604034 
L 296.341454 198.949844 
L 296.992064 199.837218 
L 297.642674 200.37966 
L 298.293285 194.990631 
L 298.943895 199.561048 
L 300.245116 197.458598 
L 300.895726 197.439791 
L 302.196947 199.91822 
L 302.847557 200.480467 
L 303.498167 198.805191 
L 304.148778 197.71571 
L 304.799388 199.817724 
L 305.449998 199.611464 
L 306.100608 198.428867 
L 306.751219 199.058334 
L 307.401829 195.262613 
L 308.052439 199.066729 
L 308.70305 198.391124 
L 309.35366 195.253332 
L 310.00427 196.777647 
L 310.654881 194.449933 
L 311.305491 199.159301 
L 312.606712 199.864336 
L 313.257322 199.634855 
L 313.907932 196.580889 
L 314.558543 197.433775 
L 315.859763 196.382677 
L 316.510373 196.64655 
L 317.160984 196.419703 
L 318.462204 199.273452 
L 319.112815 199.476022 
L 319.763425 196.757575 
L 320.414035 200.044955 
L 321.064646 200.232423 
L 321.715256 199.26847 
L 322.365866 199.590479 
L 323.016477 200.413147 
L 323.667087 200.547689 
L 324.317697 200.357436 
L 324.968308 203.077214 
L 325.618918 196.97527 
L 326.269528 201.06734 
L 326.920138 198.977663 
L 327.570749 198.907293 
L 328.221359 200.45342 
L 328.871969 199.27197 
L 329.52258 198.950063 
L 330.17319 199.688839 
L 330.8238 199.082466 
L 331.474411 199.857852 
L 332.125021 199.288889 
L 332.775631 200.149267 
L 333.426242 200.729454 
L 334.076852 197.519076 
L 334.727462 199.719405 
L 335.378073 199.708743 
L 336.028683 198.068338 
L 336.679293 199.561975 
L 337.329903 199.032232 
L 337.980514 200.904334 
L 338.631124 205.601692 
L 339.281734 204.931808 
L 340.582955 201.445285 
L 341.233565 200.455672 
L 341.884176 201.041961 
L 343.185396 197.906369 
L 343.836007 199.437792 
L 344.486617 198.727181 
L 345.137227 200.326543 
L 345.787837 200.553488 
L 346.438448 195.073543 
L 347.089058 199.218004 
L 347.739668 202.135224 
L 348.390279 200.402811 
L 349.691499 201.60786 
L 350.34211 199.963057 
L 350.99272 196.987478 
L 351.64333 197.512061 
L 352.293941 198.795933 
L 352.944551 197.40112 
L 354.245772 200.168779 
L 354.896382 196.990605 
L 355.546992 197.611433 
L 356.197602 196.240235 
L 356.848213 198.867349 
L 357.498823 196.594138 
L 358.149433 200.079782 
L 358.800044 199.427179 
L 360.101264 199.084464 
L 360.751875 197.156601 
L 361.402485 200.360648 
L 362.053095 197.713396 
L 362.703706 195.899992 
L 363.354316 196.692206 
L 364.004926 193.608861 
L 364.655537 194.962044 
L 365.306147 198.837158 
L 365.956757 196.740008 
L 366.607367 199.048833 
L 367.257978 195.222398 
L 367.908588 193.449717 
L 368.559198 193.817076 
L 369.209809 194.357126 
L 369.860419 193.72428 
L 370.511029 195.41479 
L 371.16164 194.953726 
L 371.81225 195.633454 
L 372.46286 195.04167 
L 373.113471 193.880798 
L 373.764081 196.219246 
L 374.414691 195.644244 
L 375.065302 195.446545 
L 375.715912 196.457707 
L 376.366522 198.052515 
L 377.017132 199.332089 
L 377.667743 199.839804 
L 378.318353 198.028342 
L 378.968963 196.9726 
L 379.619574 194.420602 
L 380.270184 196.078351 
L 380.920794 195.377903 
L 381.571405 194.308812 
L 382.222015 192.754252 
L 382.872625 197.32436 
L 383.523236 194.02667 
L 384.824456 197.227027 
L 385.475066 196.854052 
L 386.125677 199.15371 
L 386.776287 195.343594 
L 387.426897 197.698007 
L 388.077508 196.661823 
L 388.728118 196.845335 
L 389.378728 195.604096 
L 390.029339 195.705702 
L 390.679949 195.012112 
L 391.330559 195.327531 
L 391.98117 196.311641 
L 392.63178 196.021032 
L 393.28239 195.245709 
L 393.933001 192.30437 
L 394.583611 197.359278 
L 395.234221 197.294658 
L 395.884831 194.711694 
L 396.535442 194.864981 
L 397.186052 193.658218 
L 397.836662 195.43981 
L 398.487273 194.095795 
L 398.487273 194.095795 
" style="fill:none;stroke:#008000;stroke-dasharray:9.6,2.4,1.5,2.4;stroke-dashoffset:0;stroke-width:1.5;"/>
   </g>
   <g id="line2d_32">
    <path clip-path="url(#p680e5feb69)" d="M 73.832727 162.49727 
L 74.483338 157.841012 
L 75.133948 84.262301 
L 79.03761 84.262301 
L 79.68822 76.243743 
L 92.700426 76.243743 
L 93.351037 61.631297 
L 94.001647 53.568 
L 398.487273 53.568 
L 398.487273 53.568 
" style="fill:none;stroke:#ff0000;stroke-linecap:square;stroke-width:1.5;"/>
   </g>
   <g id="patch_3">
    <path d="M 57.6 307.584 
L 57.6 41.472 
" style="fill:none;stroke:#000000;stroke-linecap:square;stroke-linejoin:miter;stroke-width:0.8;"/>
   </g>
   <g id="patch_4">
    <path d="M 414.72 307.584 
L 414.72 41.472 
" style="fill:none;stroke:#000000;stroke-linecap:square;stroke-linejoin:miter;stroke-width:0.8;"/>
   </g>
   <g id="patch_5">
    <path d="M 57.6 307.584 
L 414.72 307.584 
" style="fill:none;stroke:#000000;stroke-linecap:square;stroke-linejoin:miter;stroke-width:0.8;"/>
   </g>
   <g id="patch_6">
    <path d="M 57.6 41.472 
L 414.72 41.472 
" style="fill:none;stroke:#000000;stroke-linecap:square;stroke-linejoin:miter;stroke-width:0.8;"/>
   </g>
   <g id="text_17">
    <!-- Population's average and best fitness -->
    <defs>
     <path d="M 19.671875 64.796875 
L 19.671875 37.40625 
L 32.078125 37.40625 
Q 38.96875 37.40625 42.71875 40.96875 
Q 46.484375 44.53125 46.484375 51.125 
Q 46.484375 57.671875 42.71875 61.234375 
Q 38.96875 64.796875 32.078125 64.796875 
z
M 9.8125 72.90625 
L 32.078125 72.90625 
Q 44.34375 72.90625 50.609375 67.359375 
Q 56.890625 61.8125 56.890625 51.125 
Q 56.890625 40.328125 50.609375 34.8125 
Q 44.34375 29.296875 32.078125 29.296875 
L 19.671875 29.296875 
L 19.671875 0 
L 9.8125 0 
z
" id="DejaVuSans-80"/>
     <path d="M 18.109375 8.203125 
L 18.109375 -20.796875 
L 9.078125 -20.796875 
L 9.078125 54.6875 
L 18.109375 54.6875 
L 18.109375 46.390625 
Q 20.953125 51.265625 25.265625 53.625 
Q 29.59375 56 35.59375 56 
Q 45.5625 56 51.78125 48.09375 
Q 58.015625 40.1875 58.015625 27.296875 
Q 58.015625 14.40625 51.78125 6.484375 
Q 45.5625 -1.421875 35.59375 -1.421875 
Q 29.59375 -1.421875 25.265625 0.953125 
Q 20.953125 3.328125 18.109375 8.203125 
z
M 48.6875 27.296875 
Q 48.6875 37.203125 44.609375 42.84375 
Q 40.53125 48.484375 33.40625 48.484375 
Q 26.265625 48.484375 22.1875 42.84375 
Q 18.109375 37.203125 18.109375 27.296875 
Q 18.109375 17.390625 22.1875 11.75 
Q 26.265625 6.109375 33.40625 6.109375 
Q 40.53125 6.109375 44.609375 11.75 
Q 48.6875 17.390625 48.6875 27.296875 
z
" id="DejaVuSans-112"/>
     <path d="M 8.5 21.578125 
L 8.5 54.6875 
L 17.484375 54.6875 
L 17.484375 21.921875 
Q 17.484375 14.15625 20.5 10.265625 
Q 23.53125 6.390625 29.59375 6.390625 
Q 36.859375 6.390625 41.078125 11.03125 
Q 45.3125 15.671875 45.3125 23.6875 
L 45.3125 54.6875 
L 54.296875 54.6875 
L 54.296875 0 
L 45.3125 0 
L 45.3125 8.40625 
Q 42.046875 3.421875 37.71875 1 
Q 33.40625 -1.421875 27.6875 -1.421875 
Q 18.265625 -1.421875 13.375 4.4375 
Q 8.5 10.296875 8.5 21.578125 
z
M 31.109375 56 
z
" id="DejaVuSans-117"/>
     <path d="M 9.421875 75.984375 
L 18.40625 75.984375 
L 18.40625 0 
L 9.421875 0 
z
" id="DejaVuSans-108"/>
     <path d="M 17.921875 72.90625 
L 17.921875 45.796875 
L 9.625 45.796875 
L 9.625 72.90625 
z
" id="DejaVuSans-39"/>
     <path id="DejaVuSans-32"/>
     <path d="M 2.984375 54.6875 
L 12.5 54.6875 
L 29.59375 8.796875 
L 46.6875 54.6875 
L 56.203125 54.6875 
L 35.6875 0 
L 23.484375 0 
z
" id="DejaVuSans-118"/>
     <path d="M 45.40625 27.984375 
Q 45.40625 37.75 41.375 43.109375 
Q 37.359375 48.484375 30.078125 48.484375 
Q 22.859375 48.484375 18.828125 43.109375 
Q 14.796875 37.75 14.796875 27.984375 
Q 14.796875 18.265625 18.828125 12.890625 
Q 22.859375 7.515625 30.078125 7.515625 
Q 37.359375 7.515625 41.375 12.890625 
Q 45.40625 18.265625 45.40625 27.984375 
z
M 54.390625 6.78125 
Q 54.390625 -7.171875 48.1875 -13.984375 
Q 42 -20.796875 29.203125 -20.796875 
Q 24.46875 -20.796875 20.265625 -20.09375 
Q 16.0625 -19.390625 12.109375 -17.921875 
L 12.109375 -9.1875 
Q 16.0625 -11.328125 19.921875 -12.34375 
Q 23.78125 -13.375 27.78125 -13.375 
Q 36.625 -13.375 41.015625 -8.765625 
Q 45.40625 -4.15625 45.40625 5.171875 
L 45.40625 9.625 
Q 42.625 4.78125 38.28125 2.390625 
Q 33.9375 0 27.875 0 
Q 17.828125 0 11.671875 7.65625 
Q 5.515625 15.328125 5.515625 27.984375 
Q 5.515625 40.671875 11.671875 48.328125 
Q 17.828125 56 27.875 56 
Q 33.9375 56 38.28125 53.609375 
Q 42.625 51.21875 45.40625 46.390625 
L 45.40625 54.6875 
L 54.390625 54.6875 
z
" id="DejaVuSans-103"/>
     <path d="M 45.40625 46.390625 
L 45.40625 75.984375 
L 54.390625 75.984375 
L 54.390625 0 
L 45.40625 0 
L 45.40625 8.203125 
Q 42.578125 3.328125 38.25 0.953125 
Q 33.9375 -1.421875 27.875 -1.421875 
Q 17.96875 -1.421875 11.734375 6.484375 
Q 5.515625 14.40625 5.515625 27.296875 
Q 5.515625 40.1875 11.734375 48.09375 
Q 17.96875 56 27.875 56 
Q 33.9375 56 38.25 53.625 
Q 42.578125 51.265625 45.40625 46.390625 
z
M 14.796875 27.296875 
Q 14.796875 17.390625 18.875 11.75 
Q 22.953125 6.109375 30.078125 6.109375 
Q 37.203125 6.109375 41.296875 11.75 
Q 45.40625 17.390625 45.40625 27.296875 
Q 45.40625 37.203125 41.296875 42.84375 
Q 37.203125 48.484375 30.078125 48.484375 
Q 22.953125 48.484375 18.875 42.84375 
Q 14.796875 37.203125 14.796875 27.296875 
z
" id="DejaVuSans-100"/>
     <path d="M 48.6875 27.296875 
Q 48.6875 37.203125 44.609375 42.84375 
Q 40.53125 48.484375 33.40625 48.484375 
Q 26.265625 48.484375 22.1875 42.84375 
Q 18.109375 37.203125 18.109375 27.296875 
Q 18.109375 17.390625 22.1875 11.75 
Q 26.265625 6.109375 33.40625 6.109375 
Q 40.53125 6.109375 44.609375 11.75 
Q 48.6875 17.390625 48.6875 27.296875 
z
M 18.109375 46.390625 
Q 20.953125 51.265625 25.265625 53.625 
Q 29.59375 56 35.59375 56 
Q 45.5625 56 51.78125 48.09375 
Q 58.015625 40.1875 58.015625 27.296875 
Q 58.015625 14.40625 51.78125 6.484375 
Q 45.5625 -1.421875 35.59375 -1.421875 
Q 29.59375 -1.421875 25.265625 0.953125 
Q 20.953125 3.328125 18.109375 8.203125 
L 18.109375 0 
L 9.078125 0 
L 9.078125 75.984375 
L 18.109375 75.984375 
z
" id="DejaVuSans-98"/>
     <path d="M 37.109375 75.984375 
L 37.109375 68.5 
L 28.515625 68.5 
Q 23.6875 68.5 21.796875 66.546875 
Q 19.921875 64.59375 19.921875 59.515625 
L 19.921875 54.6875 
L 34.71875 54.6875 
L 34.71875 47.703125 
L 19.921875 47.703125 
L 19.921875 0 
L 10.890625 0 
L 10.890625 47.703125 
L 2.296875 47.703125 
L 2.296875 54.6875 
L 10.890625 54.6875 
L 10.890625 58.5 
Q 10.890625 67.625 15.140625 71.796875 
Q 19.390625 75.984375 28.609375 75.984375 
z
" id="DejaVuSans-102"/>
    </defs>
    <g transform="translate(123.315 35.472)scale(0.12 -0.12)">
     <use xlink:href="#DejaVuSans-80"/>
     <use x="60.255859" xlink:href="#DejaVuSans-111"/>
     <use x="121.4375" xlink:href="#DejaVuSans-112"/>
     <use x="184.914062" xlink:href="#DejaVuSans-117"/>
     <use x="248.292969" xlink:href="#DejaVuSans-108"/>
     <use x="276.076172" xlink:href="#DejaVuSans-97"/>
     <use x="337.355469" xlink:href="#DejaVuSans-116"/>
     <use x="376.564453" xlink:href="#DejaVuSans-105"/>
     <use x="404.347656" xlink:href="#DejaVuSans-111"/>
     <use x="465.529297" xlink:href="#DejaVuSans-110"/>
     <use x="528.908203" xlink:href="#DejaVuSans-39"/>
     <use x="556.398438" xlink:href="#DejaVuSans-115"/>
     <use x="608.498047" xlink:href="#DejaVuSans-32"/>
     <use x="640.285156" xlink:href="#DejaVuSans-97"/>
     <use x="701.564453" xlink:href="#DejaVuSans-118"/>
     <use x="760.744141" xlink:href="#DejaVuSans-101"/>
     <use x="822.267578" xlink:href="#DejaVuSans-114"/>
     <use x="863.380859" xlink:href="#DejaVuSans-97"/>
     <use x="924.660156" xlink:href="#DejaVuSans-103"/>
     <use x="988.136719" xlink:href="#DejaVuSans-101"/>
     <use x="1049.660156" xlink:href="#DejaVuSans-32"/>
     <use x="1081.447266" xlink:href="#DejaVuSans-97"/>
     <use x="1142.726562" xlink:href="#DejaVuSans-110"/>
     <use x="1206.105469" xlink:href="#DejaVuSans-100"/>
     <use x="1269.582031" xlink:href="#DejaVuSans-32"/>
     <use x="1301.369141" xlink:href="#DejaVuSans-98"/>
     <use x="1364.845703" xlink:href="#DejaVuSans-101"/>
     <use x="1426.369141" xlink:href="#DejaVuSans-115"/>
     <use x="1478.46875" xlink:href="#DejaVuSans-116"/>
     <use x="1517.677734" xlink:href="#DejaVuSans-32"/>
     <use x="1549.464844" xlink:href="#DejaVuSans-102"/>
     <use x="1584.669922" xlink:href="#DejaVuSans-105"/>
     <use x="1612.453125" xlink:href="#DejaVuSans-116"/>
     <use x="1651.662109" xlink:href="#DejaVuSans-110"/>
     <use x="1715.041016" xlink:href="#DejaVuSans-101"/>
     <use x="1776.564453" xlink:href="#DejaVuSans-115"/>
     <use x="1828.664062" xlink:href="#DejaVuSans-115"/>
    </g>
   </g>
   <g id="legend_1">
    <g id="patch_7">
     <path d="M 64.6 205.38425 
L 137.540625 205.38425 
Q 139.540625 205.38425 139.540625 203.38425 
L 139.540625 145.67175 
Q 139.540625 143.67175 137.540625 143.67175 
L 64.6 143.67175 
Q 62.6 143.67175 62.6 145.67175 
L 62.6 203.38425 
Q 62.6 205.38425 64.6 205.38425 
z
" style="fill:#ffffff;opacity:0.8;stroke:#cccccc;stroke-linejoin:miter;"/>
    </g>
    <g id="line2d_33">
     <path d="M 66.6 151.770188 
L 86.6 151.770188 
" style="fill:none;stroke:#0000ff;stroke-linecap:square;stroke-width:1.5;"/>
    </g>
    <g id="line2d_34"/>
    <g id="text_18">
     <!-- average -->
     <g transform="translate(94.6 155.270188)scale(0.1 -0.1)">
      <use xlink:href="#DejaVuSans-97"/>
      <use x="61.279297" xlink:href="#DejaVuSans-118"/>
      <use x="120.458984" xlink:href="#DejaVuSans-101"/>
      <use x="181.982422" xlink:href="#DejaVuSans-114"/>
      <use x="223.095703" xlink:href="#DejaVuSans-97"/>
      <use x="284.375" xlink:href="#DejaVuSans-103"/>
      <use x="347.851562" xlink:href="#DejaVuSans-101"/>
     </g>
    </g>
    <g id="line2d_35">
     <path d="M 66.6 166.448313 
L 86.6 166.448313 
" style="fill:none;stroke:#008000;stroke-dasharray:9.6,2.4,1.5,2.4;stroke-dashoffset:0;stroke-width:1.5;"/>
    </g>
    <g id="line2d_36"/>
    <g id="text_19">
     <!-- -1 sd -->
     <defs>
      <path d="M 4.890625 31.390625 
L 31.203125 31.390625 
L 31.203125 23.390625 
L 4.890625 23.390625 
z
" id="DejaVuSans-45"/>
     </defs>
     <g transform="translate(94.6 169.948313)scale(0.1 -0.1)">
      <use xlink:href="#DejaVuSans-45"/>
      <use x="36.083984" xlink:href="#DejaVuSans-49"/>
      <use x="99.707031" xlink:href="#DejaVuSans-32"/>
      <use x="131.494141" xlink:href="#DejaVuSans-115"/>
      <use x="183.59375" xlink:href="#DejaVuSans-100"/>
     </g>
    </g>
    <g id="line2d_37">
     <path d="M 66.6 181.126438 
L 86.6 181.126438 
" style="fill:none;stroke:#008000;stroke-dasharray:9.6,2.4,1.5,2.4;stroke-dashoffset:0;stroke-width:1.5;"/>
    </g>
    <g id="line2d_38"/>
    <g id="text_20">
     <!-- +1 sd -->
     <defs>
      <path d="M 46 62.703125 
L 46 35.5 
L 73.1875 35.5 
L 73.1875 27.203125 
L 46 27.203125 
L 46 0 
L 37.796875 0 
L 37.796875 27.203125 
L 10.59375 27.203125 
L 10.59375 35.5 
L 37.796875 35.5 
L 37.796875 62.703125 
z
" id="DejaVuSans-43"/>
     </defs>
     <g transform="translate(94.6 184.626438)scale(0.1 -0.1)">
      <use xlink:href="#DejaVuSans-43"/>
      <use x="83.789062" xlink:href="#DejaVuSans-49"/>
      <use x="147.412109" xlink:href="#DejaVuSans-32"/>
      <use x="179.199219" xlink:href="#DejaVuSans-115"/>
      <use x="231.298828" xlink:href="#DejaVuSans-100"/>
     </g>
    </g>
    <g id="line2d_39">
     <path d="M 66.6 195.804563 
L 86.6 195.804563 
" style="fill:none;stroke:#ff0000;stroke-linecap:square;stroke-width:1.5;"/>
    </g>
    <g id="line2d_40"/>
    <g id="text_21">
     <!-- best -->
     <g transform="translate(94.6 199.304563)scale(0.1 -0.1)">
      <use xlink:href="#DejaVuSans-98"/>
      <use x="63.476562" xlink:href="#DejaVuSans-101"/>
      <use x="125" xlink:href="#DejaVuSans-115"/>
      <use x="177.099609" xlink:href="#DejaVuSans-116"/>
     </g>
    </g>
   </g>
  </g>
 </g>
 <defs>
  <clipPath id="p680e5feb69">
   <rect height="266.112" width="357.12" x="57.6" y="41.472"/>
  </clipPath>
 </defs>
</svg>
