<?xml version="1.0" encoding="utf-8" standalone="no"?>
<!DOCTYPE svg PUBLIC "-//W3C//DTD SVG 1.1//EN"
  "http://www.w3.org/Graphics/SVG/1.1/DTD/svg11.dtd">
<!-- Created with matplotlib (https://matplotlib.org/) -->
<svg height="345.6pt" version="1.1" viewBox="0 0 460.8 345.6" width="460.8pt" xmlns="http://www.w3.org/2000/svg" xmlns:xlink="http://www.w3.org/1999/xlink">
 <defs>
  <style type="text/css">
*{stroke-linecap:butt;stroke-linejoin:round;}
  </style>
 </defs>
 <g id="figure_1">
  <g id="patch_1">
   <path d="M 0 345.6 
L 460.8 345.6 
L 460.8 0 
L 0 0 
z
" style="fill:#ffffff;"/>
  </g>
  <g id="axes_1">
   <g id="patch_2">
    <path d="M 57.6 307.584 
L 414.72 307.584 
L 414.72 41.472 
L 57.6 41.472 
z
" style="fill:#ffffff;"/>
   </g>
   <g id="matplotlib.axis_1">
    <g id="xtick_1">
     <g id="line2d_1">
      <path clip-path="url(#p0f4f2b9188)" d="M 73.832727 307.584 
L 73.832727 41.472 
" style="fill:none;stroke:#b0b0b0;stroke-linecap:square;stroke-width:0.8;"/>
     </g>
     <g id="line2d_2">
      <defs>
       <path d="M 0 0 
L 0 3.5 
" id="mddd85093ef" style="stroke:#000000;stroke-width:0.8;"/>
      </defs>
      <g>
       <use style="stroke:#000000;stroke-width:0.8;" x="73.832727" xlink:href="#mddd85093ef" y="307.584"/>
      </g>
     </g>
     <g id="text_1">
      <!-- 0 -->
      <defs>
       <path d="M 31.78125 66.40625 
Q 24.171875 66.40625 20.328125 58.90625 
Q 16.5 51.421875 16.5 36.375 
Q 16.5 21.390625 20.328125 13.890625 
Q 24.171875 6.390625 31.78125 6.390625 
Q 39.453125 6.390625 43.28125 13.890625 
Q 47.125 21.390625 47.125 36.375 
Q 47.125 51.421875 43.28125 58.90625 
Q 39.453125 66.40625 31.78125 66.40625 
z
M 31.78125 74.21875 
Q 44.046875 74.21875 50.515625 64.515625 
Q 56.984375 54.828125 56.984375 36.375 
Q 56.984375 17.96875 50.515625 8.265625 
Q 44.046875 -1.421875 31.78125 -1.421875 
Q 19.53125 -1.421875 13.0625 8.265625 
Q 6.59375 17.96875 6.59375 36.375 
Q 6.59375 54.828125 13.0625 64.515625 
Q 19.53125 74.21875 31.78125 74.21875 
z
" id="DejaVuSans-48"/>
      </defs>
      <g transform="translate(70.651477 322.182437)scale(0.1 -0.1)">
       <use xlink:href="#DejaVuSans-48"/>
      </g>
     </g>
    </g>
    <g id="xtick_2">
     <g id="line2d_3">
      <path clip-path="url(#p0f4f2b9188)" d="M 114.618474 307.584 
L 114.618474 41.472 
" style="fill:none;stroke:#b0b0b0;stroke-linecap:square;stroke-width:0.8;"/>
     </g>
     <g id="line2d_4">
      <g>
       <use style="stroke:#000000;stroke-width:0.8;" x="114.618474" xlink:href="#mddd85093ef" y="307.584"/>
      </g>
     </g>
     <g id="text_2">
      <!-- 25 -->
      <defs>
       <path d="M 19.1875 8.296875 
L 53.609375 8.296875 
L 53.609375 0 
L 7.328125 0 
L 7.328125 8.296875 
Q 12.9375 14.109375 22.625 23.890625 
Q 32.328125 33.6875 34.8125 36.53125 
Q 39.546875 41.84375 41.421875 45.53125 
Q 43.3125 49.21875 43.3125 52.78125 
Q 43.3125 58.59375 39.234375 62.25 
Q 35.15625 65.921875 28.609375 65.921875 
Q 23.96875 65.921875 18.8125 64.3125 
Q 13.671875 62.703125 7.8125 59.421875 
L 7.8125 69.390625 
Q 13.765625 71.78125 18.9375 73 
Q 24.125 74.21875 28.421875 74.21875 
Q 39.75 74.21875 46.484375 68.546875 
Q 53.21875 62.890625 53.21875 53.421875 
Q 53.21875 48.921875 51.53125 44.890625 
Q 49.859375 40.875 45.40625 35.40625 
Q 44.1875 33.984375 37.640625 27.21875 
Q 31.109375 20.453125 19.1875 8.296875 
z
" id="DejaVuSans-50"/>
       <path d="M 10.796875 72.90625 
L 49.515625 72.90625 
L 49.515625 64.59375 
L 19.828125 64.59375 
L 19.828125 46.734375 
Q 21.96875 47.46875 24.109375 47.828125 
Q 26.265625 48.1875 28.421875 48.1875 
Q 40.625 48.1875 47.75 41.5 
Q 54.890625 34.8125 54.890625 23.390625 
Q 54.890625 11.625 47.5625 5.09375 
Q 40.234375 -1.421875 26.90625 -1.421875 
Q 22.3125 -1.421875 17.546875 -0.640625 
Q 12.796875 0.140625 7.71875 1.703125 
L 7.71875 11.625 
Q 12.109375 9.234375 16.796875 8.0625 
Q 21.484375 6.890625 26.703125 6.890625 
Q 35.15625 6.890625 40.078125 11.328125 
Q 45.015625 15.765625 45.015625 23.390625 
Q 45.015625 31 40.078125 35.4375 
Q 35.15625 39.890625 26.703125 39.890625 
Q 22.75 39.890625 18.8125 39.015625 
Q 14.890625 38.140625 10.796875 36.28125 
z
" id="DejaVuSans-53"/>
      </defs>
      <g transform="translate(108.255974 322.182437)scale(0.1 -0.1)">
       <use xlink:href="#DejaVuSans-50"/>
       <use x="63.623047" xlink:href="#DejaVuSans-53"/>
      </g>
     </g>
    </g>
    <g id="xtick_3">
     <g id="line2d_5">
      <path clip-path="url(#p0f4f2b9188)" d="M 155.404221 307.584 
L 155.404221 41.472 
" style="fill:none;stroke:#b0b0b0;stroke-linecap:square;stroke-width:0.8;"/>
     </g>
     <g id="line2d_6">
      <g>
       <use style="stroke:#000000;stroke-width:0.8;" x="155.404221" xlink:href="#mddd85093ef" y="307.584"/>
      </g>
     </g>
     <g id="text_3">
      <!-- 50 -->
      <g transform="translate(149.041721 322.182437)scale(0.1 -0.1)">
       <use xlink:href="#DejaVuSans-53"/>
       <use x="63.623047" xlink:href="#DejaVuSans-48"/>
      </g>
     </g>
    </g>
    <g id="xtick_4">
     <g id="line2d_7">
      <path clip-path="url(#p0f4f2b9188)" d="M 196.189968 307.584 
L 196.189968 41.472 
" style="fill:none;stroke:#b0b0b0;stroke-linecap:square;stroke-width:0.8;"/>
     </g>
     <g id="line2d_8">
      <g>
       <use style="stroke:#000000;stroke-width:0.8;" x="196.189968" xlink:href="#mddd85093ef" y="307.584"/>
      </g>
     </g>
     <g id="text_4">
      <!-- 75 -->
      <defs>
       <path d="M 8.203125 72.90625 
L 55.078125 72.90625 
L 55.078125 68.703125 
L 28.609375 0 
L 18.3125 0 
L 43.21875 64.59375 
L 8.203125 64.59375 
z
" id="DejaVuSans-55"/>
      </defs>
      <g transform="translate(189.827468 322.182437)scale(0.1 -0.1)">
       <use xlink:href="#DejaVuSans-55"/>
       <use x="63.623047" xlink:href="#DejaVuSans-53"/>
      </g>
     </g>
    </g>
    <g id="xtick_5">
     <g id="line2d_9">
      <path clip-path="url(#p0f4f2b9188)" d="M 236.975715 307.584 
L 236.975715 41.472 
" style="fill:none;stroke:#b0b0b0;stroke-linecap:square;stroke-width:0.8;"/>
     </g>
     <g id="line2d_10">
      <g>
       <use style="stroke:#000000;stroke-width:0.8;" x="236.975715" xlink:href="#mddd85093ef" y="307.584"/>
      </g>
     </g>
     <g id="text_5">
      <!-- 100 -->
      <defs>
       <path d="M 12.40625 8.296875 
L 28.515625 8.296875 
L 28.515625 63.921875 
L 10.984375 60.40625 
L 10.984375 69.390625 
L 28.421875 72.90625 
L 38.28125 72.90625 
L 38.28125 8.296875 
L 54.390625 8.296875 
L 54.390625 0 
L 12.40625 0 
z
" id="DejaVuSans-49"/>
      </defs>
      <g transform="translate(227.431965 322.182437)scale(0.1 -0.1)">
       <use xlink:href="#DejaVuSans-49"/>
       <use x="63.623047" xlink:href="#DejaVuSans-48"/>
       <use x="127.246094" xlink:href="#DejaVuSans-48"/>
      </g>
     </g>
    </g>
    <g id="xtick_6">
     <g id="line2d_11">
      <path clip-path="url(#p0f4f2b9188)" d="M 277.761462 307.584 
L 277.761462 41.472 
" style="fill:none;stroke:#b0b0b0;stroke-linecap:square;stroke-width:0.8;"/>
     </g>
     <g id="line2d_12">
      <g>
       <use style="stroke:#000000;stroke-width:0.8;" x="277.761462" xlink:href="#mddd85093ef" y="307.584"/>
      </g>
     </g>
     <g id="text_6">
      <!-- 125 -->
      <g transform="translate(268.217712 322.182437)scale(0.1 -0.1)">
       <use xlink:href="#DejaVuSans-49"/>
       <use x="63.623047" xlink:href="#DejaVuSans-50"/>
       <use x="127.246094" xlink:href="#DejaVuSans-53"/>
      </g>
     </g>
    </g>
    <g id="xtick_7">
     <g id="line2d_13">
      <path clip-path="url(#p0f4f2b9188)" d="M 318.547209 307.584 
L 318.547209 41.472 
" style="fill:none;stroke:#b0b0b0;stroke-linecap:square;stroke-width:0.8;"/>
     </g>
     <g id="line2d_14">
      <g>
       <use style="stroke:#000000;stroke-width:0.8;" x="318.547209" xlink:href="#mddd85093ef" y="307.584"/>
      </g>
     </g>
     <g id="text_7">
      <!-- 150 -->
      <g transform="translate(309.003459 322.182437)scale(0.1 -0.1)">
       <use xlink:href="#DejaVuSans-49"/>
       <use x="63.623047" xlink:href="#DejaVuSans-53"/>
       <use x="127.246094" xlink:href="#DejaVuSans-48"/>
      </g>
     </g>
    </g>
    <g id="xtick_8">
     <g id="line2d_15">
      <path clip-path="url(#p0f4f2b9188)" d="M 359.332956 307.584 
L 359.332956 41.472 
" style="fill:none;stroke:#b0b0b0;stroke-linecap:square;stroke-width:0.8;"/>
     </g>
     <g id="line2d_16">
      <g>
       <use style="stroke:#000000;stroke-width:0.8;" x="359.332956" xlink:href="#mddd85093ef" y="307.584"/>
      </g>
     </g>
     <g id="text_8">
      <!-- 175 -->
      <g transform="translate(349.789206 322.182437)scale(0.1 -0.1)">
       <use xlink:href="#DejaVuSans-49"/>
       <use x="63.623047" xlink:href="#DejaVuSans-55"/>
       <use x="127.246094" xlink:href="#DejaVuSans-53"/>
      </g>
     </g>
    </g>
    <g id="xtick_9">
     <g id="line2d_17">
      <path clip-path="url(#p0f4f2b9188)" d="M 400.118703 307.584 
L 400.118703 41.472 
" style="fill:none;stroke:#b0b0b0;stroke-linecap:square;stroke-width:0.8;"/>
     </g>
     <g id="line2d_18">
      <g>
       <use style="stroke:#000000;stroke-width:0.8;" x="400.118703" xlink:href="#mddd85093ef" y="307.584"/>
      </g>
     </g>
     <g id="text_9">
      <!-- 200 -->
      <g transform="translate(390.574953 322.182437)scale(0.1 -0.1)">
       <use xlink:href="#DejaVuSans-50"/>
       <use x="63.623047" xlink:href="#DejaVuSans-48"/>
       <use x="127.246094" xlink:href="#DejaVuSans-48"/>
      </g>
     </g>
    </g>
    <g id="text_10">
     <!-- Generations -->
     <defs>
      <path d="M 59.515625 10.40625 
L 59.515625 29.984375 
L 43.40625 29.984375 
L 43.40625 38.09375 
L 69.28125 38.09375 
L 69.28125 6.78125 
Q 63.578125 2.734375 56.6875 0.65625 
Q 49.8125 -1.421875 42 -1.421875 
Q 24.90625 -1.421875 15.25 8.5625 
Q 5.609375 18.5625 5.609375 36.375 
Q 5.609375 54.25 15.25 64.234375 
Q 24.90625 74.21875 42 74.21875 
Q 49.125 74.21875 55.546875 72.453125 
Q 61.96875 70.703125 67.390625 67.28125 
L 67.390625 56.78125 
Q 61.921875 61.421875 55.765625 63.765625 
Q 49.609375 66.109375 42.828125 66.109375 
Q 29.4375 66.109375 22.71875 58.640625 
Q 16.015625 51.171875 16.015625 36.375 
Q 16.015625 21.625 22.71875 14.15625 
Q 29.4375 6.6875 42.828125 6.6875 
Q 48.046875 6.6875 52.140625 7.59375 
Q 56.25 8.5 59.515625 10.40625 
z
" id="DejaVuSans-71"/>
      <path d="M 56.203125 29.59375 
L 56.203125 25.203125 
L 14.890625 25.203125 
Q 15.484375 15.921875 20.484375 11.0625 
Q 25.484375 6.203125 34.421875 6.203125 
Q 39.59375 6.203125 44.453125 7.46875 
Q 49.3125 8.734375 54.109375 11.28125 
L 54.109375 2.78125 
Q 49.265625 0.734375 44.1875 -0.34375 
Q 39.109375 -1.421875 33.890625 -1.421875 
Q 20.796875 -1.421875 13.15625 6.1875 
Q 5.515625 13.8125 5.515625 26.8125 
Q 5.515625 40.234375 12.765625 48.109375 
Q 20.015625 56 32.328125 56 
Q 43.359375 56 49.78125 48.890625 
Q 56.203125 41.796875 56.203125 29.59375 
z
M 47.21875 32.234375 
Q 47.125 39.59375 43.09375 43.984375 
Q 39.0625 48.390625 32.421875 48.390625 
Q 24.90625 48.390625 20.390625 44.140625 
Q 15.875 39.890625 15.1875 32.171875 
z
" id="DejaVuSans-101"/>
      <path d="M 54.890625 33.015625 
L 54.890625 0 
L 45.90625 0 
L 45.90625 32.71875 
Q 45.90625 40.484375 42.875 44.328125 
Q 39.84375 48.1875 33.796875 48.1875 
Q 26.515625 48.1875 22.3125 43.546875 
Q 18.109375 38.921875 18.109375 30.90625 
L 18.109375 0 
L 9.078125 0 
L 9.078125 54.6875 
L 18.109375 54.6875 
L 18.109375 46.1875 
Q 21.34375 51.125 25.703125 53.5625 
Q 30.078125 56 35.796875 56 
Q 45.21875 56 50.046875 50.171875 
Q 54.890625 44.34375 54.890625 33.015625 
z
" id="DejaVuSans-110"/>
      <path d="M 41.109375 46.296875 
Q 39.59375 47.171875 37.8125 47.578125 
Q 36.03125 48 33.890625 48 
Q 26.265625 48 22.1875 43.046875 
Q 18.109375 38.09375 18.109375 28.8125 
L 18.109375 0 
L 9.078125 0 
L 9.078125 54.6875 
L 18.109375 54.6875 
L 18.109375 46.1875 
Q 20.953125 51.171875 25.484375 53.578125 
Q 30.03125 56 36.53125 56 
Q 37.453125 56 38.578125 55.875 
Q 39.703125 55.765625 41.0625 55.515625 
z
" id="DejaVuSans-114"/>
      <path d="M 34.28125 27.484375 
Q 23.390625 27.484375 19.1875 25 
Q 14.984375 22.515625 14.984375 16.5 
Q 14.984375 11.71875 18.140625 8.90625 
Q 21.296875 6.109375 26.703125 6.109375 
Q 34.1875 6.109375 38.703125 11.40625 
Q 43.21875 16.703125 43.21875 25.484375 
L 43.21875 27.484375 
z
M 52.203125 31.203125 
L 52.203125 0 
L 43.21875 0 
L 43.21875 8.296875 
Q 40.140625 3.328125 35.546875 0.953125 
Q 30.953125 -1.421875 24.3125 -1.421875 
Q 15.921875 -1.421875 10.953125 3.296875 
Q 6 8.015625 6 15.921875 
Q 6 25.140625 12.171875 29.828125 
Q 18.359375 34.515625 30.609375 34.515625 
L 43.21875 34.515625 
L 43.21875 35.40625 
Q 43.21875 41.609375 39.140625 45 
Q 35.0625 48.390625 27.6875 48.390625 
Q 23 48.390625 18.546875 47.265625 
Q 14.109375 46.140625 10.015625 43.890625 
L 10.015625 52.203125 
Q 14.9375 54.109375 19.578125 55.046875 
Q 24.21875 56 28.609375 56 
Q 40.484375 56 46.34375 49.84375 
Q 52.203125 43.703125 52.203125 31.203125 
z
" id="DejaVuSans-97"/>
      <path d="M 18.3125 70.21875 
L 18.3125 54.6875 
L 36.8125 54.6875 
L 36.8125 47.703125 
L 18.3125 47.703125 
L 18.3125 18.015625 
Q 18.3125 11.328125 20.140625 9.421875 
Q 21.96875 7.515625 27.59375 7.515625 
L 36.8125 7.515625 
L 36.8125 0 
L 27.59375 0 
Q 17.1875 0 13.234375 3.875 
Q 9.28125 7.765625 9.28125 18.015625 
L 9.28125 47.703125 
L 2.6875 47.703125 
L 2.6875 54.6875 
L 9.28125 54.6875 
L 9.28125 70.21875 
z
" id="DejaVuSans-116"/>
      <path d="M 9.421875 54.6875 
L 18.40625 54.6875 
L 18.40625 0 
L 9.421875 0 
z
M 9.421875 75.984375 
L 18.40625 75.984375 
L 18.40625 64.59375 
L 9.421875 64.59375 
z
" id="DejaVuSans-105"/>
      <path d="M 30.609375 48.390625 
Q 23.390625 48.390625 19.1875 42.75 
Q 14.984375 37.109375 14.984375 27.296875 
Q 14.984375 17.484375 19.15625 11.84375 
Q 23.34375 6.203125 30.609375 6.203125 
Q 37.796875 6.203125 41.984375 11.859375 
Q 46.1875 17.53125 46.1875 27.296875 
Q 46.1875 37.015625 41.984375 42.703125 
Q 37.796875 48.390625 30.609375 48.390625 
z
M 30.609375 56 
Q 42.328125 56 49.015625 48.375 
Q 55.71875 40.765625 55.71875 27.296875 
Q 55.71875 13.875 49.015625 6.21875 
Q 42.328125 -1.421875 30.609375 -1.421875 
Q 18.84375 -1.421875 12.171875 6.21875 
Q 5.515625 13.875 5.515625 27.296875 
Q 5.515625 40.765625 12.171875 48.375 
Q 18.84375 56 30.609375 56 
z
" id="DejaVuSans-111"/>
      <path d="M 44.28125 53.078125 
L 44.28125 44.578125 
Q 40.484375 46.53125 36.375 47.5 
Q 32.28125 48.484375 27.875 48.484375 
Q 21.1875 48.484375 17.84375 46.4375 
Q 14.5 44.390625 14.5 40.28125 
Q 14.5 37.15625 16.890625 35.375 
Q 19.28125 33.59375 26.515625 31.984375 
L 29.59375 31.296875 
Q 39.15625 29.25 43.1875 25.515625 
Q 47.21875 21.78125 47.21875 15.09375 
Q 47.21875 7.46875 41.1875 3.015625 
Q 35.15625 -1.421875 24.609375 -1.421875 
Q 20.21875 -1.421875 15.453125 -0.5625 
Q 10.6875 0.296875 5.421875 2 
L 5.421875 11.28125 
Q 10.40625 8.6875 15.234375 7.390625 
Q 20.0625 6.109375 24.8125 6.109375 
Q 31.15625 6.109375 34.5625 8.28125 
Q 37.984375 10.453125 37.984375 14.40625 
Q 37.984375 18.0625 35.515625 20.015625 
Q 33.0625 21.96875 24.703125 23.78125 
L 21.578125 24.515625 
Q 13.234375 26.265625 9.515625 29.90625 
Q 5.8125 33.546875 5.8125 39.890625 
Q 5.8125 47.609375 11.28125 51.796875 
Q 16.75 56 26.8125 56 
Q 31.78125 56 36.171875 55.265625 
Q 40.578125 54.546875 44.28125 53.078125 
z
" id="DejaVuSans-115"/>
     </defs>
     <g transform="translate(205.662344 335.860562)scale(0.1 -0.1)">
      <use xlink:href="#DejaVuSans-71"/>
      <use x="77.490234" xlink:href="#DejaVuSans-101"/>
      <use x="139.013672" xlink:href="#DejaVuSans-110"/>
      <use x="202.392578" xlink:href="#DejaVuSans-101"/>
      <use x="263.916016" xlink:href="#DejaVuSans-114"/>
      <use x="305.029297" xlink:href="#DejaVuSans-97"/>
      <use x="366.308594" xlink:href="#DejaVuSans-116"/>
      <use x="405.517578" xlink:href="#DejaVuSans-105"/>
      <use x="433.300781" xlink:href="#DejaVuSans-111"/>
      <use x="494.482422" xlink:href="#DejaVuSans-110"/>
      <use x="557.861328" xlink:href="#DejaVuSans-115"/>
     </g>
    </g>
   </g>
   <g id="matplotlib.axis_2">
    <g id="ytick_1">
     <g id="line2d_19">
      <path clip-path="url(#p0f4f2b9188)" d="M 57.6 291.310204 
L 414.72 291.310204 
" style="fill:none;stroke:#b0b0b0;stroke-linecap:square;stroke-width:0.8;"/>
     </g>
     <g id="line2d_20">
      <defs>
       <path d="M 0 0 
L -3.5 0 
" id="m9747f9cb3f" style="stroke:#000000;stroke-width:0.8;"/>
      </defs>
      <g>
       <use style="stroke:#000000;stroke-width:0.8;" x="57.6" xlink:href="#m9747f9cb3f" y="291.310204"/>
      </g>
     </g>
     <g id="text_11">
      <!-- −0.25 -->
      <defs>
       <path d="M 10.59375 35.5 
L 73.1875 35.5 
L 73.1875 27.203125 
L 10.59375 27.203125 
z
" id="DejaVuSans-8722"/>
       <path d="M 10.6875 12.40625 
L 21 12.40625 
L 21 0 
L 10.6875 0 
z
" id="DejaVuSans-46"/>
      </defs>
      <g transform="translate(19.954687 295.109423)scale(0.1 -0.1)">
       <use xlink:href="#DejaVuSans-8722"/>
       <use x="83.789062" xlink:href="#DejaVuSans-48"/>
       <use x="147.412109" xlink:href="#DejaVuSans-46"/>
       <use x="179.199219" xlink:href="#DejaVuSans-50"/>
       <use x="242.822266" xlink:href="#DejaVuSans-53"/>
      </g>
     </g>
    </g>
    <g id="ytick_2">
     <g id="line2d_21">
      <path clip-path="url(#p0f4f2b9188)" d="M 57.6 258.468235 
L 414.72 258.468235 
" style="fill:none;stroke:#b0b0b0;stroke-linecap:square;stroke-width:0.8;"/>
     </g>
     <g id="line2d_22">
      <g>
       <use style="stroke:#000000;stroke-width:0.8;" x="57.6" xlink:href="#m9747f9cb3f" y="258.468235"/>
      </g>
     </g>
     <g id="text_12">
      <!-- 0.00 -->
      <g transform="translate(28.334375 262.267454)scale(0.1 -0.1)">
       <use xlink:href="#DejaVuSans-48"/>
       <use x="63.623047" xlink:href="#DejaVuSans-46"/>
       <use x="95.410156" xlink:href="#DejaVuSans-48"/>
       <use x="159.033203" xlink:href="#DejaVuSans-48"/>
      </g>
     </g>
    </g>
    <g id="ytick_3">
     <g id="line2d_23">
      <path clip-path="url(#p0f4f2b9188)" d="M 57.6 225.626266 
L 414.72 225.626266 
" style="fill:none;stroke:#b0b0b0;stroke-linecap:square;stroke-width:0.8;"/>
     </g>
     <g id="line2d_24">
      <g>
       <use style="stroke:#000000;stroke-width:0.8;" x="57.6" xlink:href="#m9747f9cb3f" y="225.626266"/>
      </g>
     </g>
     <g id="text_13">
      <!-- 0.25 -->
      <g transform="translate(28.334375 229.425485)scale(0.1 -0.1)">
       <use xlink:href="#DejaVuSans-48"/>
       <use x="63.623047" xlink:href="#DejaVuSans-46"/>
       <use x="95.410156" xlink:href="#DejaVuSans-50"/>
       <use x="159.033203" xlink:href="#DejaVuSans-53"/>
      </g>
     </g>
    </g>
    <g id="ytick_4">
     <g id="line2d_25">
      <path clip-path="url(#p0f4f2b9188)" d="M 57.6 192.784297 
L 414.72 192.784297 
" style="fill:none;stroke:#b0b0b0;stroke-linecap:square;stroke-width:0.8;"/>
     </g>
     <g id="line2d_26">
      <g>
       <use style="stroke:#000000;stroke-width:0.8;" x="57.6" xlink:href="#m9747f9cb3f" y="192.784297"/>
      </g>
     </g>
     <g id="text_14">
      <!-- 0.50 -->
      <g transform="translate(28.334375 196.583516)scale(0.1 -0.1)">
       <use xlink:href="#DejaVuSans-48"/>
       <use x="63.623047" xlink:href="#DejaVuSans-46"/>
       <use x="95.410156" xlink:href="#DejaVuSans-53"/>
       <use x="159.033203" xlink:href="#DejaVuSans-48"/>
      </g>
     </g>
    </g>
    <g id="ytick_5">
     <g id="line2d_27">
      <path clip-path="url(#p0f4f2b9188)" d="M 57.6 159.942328 
L 414.72 159.942328 
" style="fill:none;stroke:#b0b0b0;stroke-linecap:square;stroke-width:0.8;"/>
     </g>
     <g id="line2d_28">
      <g>
       <use style="stroke:#000000;stroke-width:0.8;" x="57.6" xlink:href="#m9747f9cb3f" y="159.942328"/>
      </g>
     </g>
     <g id="text_15">
      <!-- 0.75 -->
      <g transform="translate(28.334375 163.741547)scale(0.1 -0.1)">
       <use xlink:href="#DejaVuSans-48"/>
       <use x="63.623047" xlink:href="#DejaVuSans-46"/>
       <use x="95.410156" xlink:href="#DejaVuSans-55"/>
       <use x="159.033203" xlink:href="#DejaVuSans-53"/>
      </g>
     </g>
    </g>
    <g id="ytick_6">
     <g id="line2d_29">
      <path clip-path="url(#p0f4f2b9188)" d="M 57.6 127.100359 
L 414.72 127.100359 
" style="fill:none;stroke:#b0b0b0;stroke-linecap:square;stroke-width:0.8;"/>
     </g>
     <g id="line2d_30">
      <g>
       <use style="stroke:#000000;stroke-width:0.8;" x="57.6" xlink:href="#m9747f9cb3f" y="127.100359"/>
      </g>
     </g>
     <g id="text_16">
      <!-- 1.00 -->
      <g transform="translate(28.334375 130.899578)scale(0.1 -0.1)">
       <use xlink:href="#DejaVuSans-49"/>
       <use x="63.623047" xlink:href="#DejaVuSans-46"/>
       <use x="95.410156" xlink:href="#DejaVuSans-48"/>
       <use x="159.033203" xlink:href="#DejaVuSans-48"/>
      </g>
     </g>
    </g>
    <g id="ytick_7">
     <g id="line2d_31">
      <path clip-path="url(#p0f4f2b9188)" d="M 57.6 94.25839 
L 414.72 94.25839 
" style="fill:none;stroke:#b0b0b0;stroke-linecap:square;stroke-width:0.8;"/>
     </g>
     <g id="line2d_32">
      <g>
       <use style="stroke:#000000;stroke-width:0.8;" x="57.6" xlink:href="#m9747f9cb3f" y="94.25839"/>
      </g>
     </g>
     <g id="text_17">
      <!-- 1.25 -->
      <g transform="translate(28.334375 98.057609)scale(0.1 -0.1)">
       <use xlink:href="#DejaVuSans-49"/>
       <use x="63.623047" xlink:href="#DejaVuSans-46"/>
       <use x="95.410156" xlink:href="#DejaVuSans-50"/>
       <use x="159.033203" xlink:href="#DejaVuSans-53"/>
      </g>
     </g>
    </g>
    <g id="ytick_8">
     <g id="line2d_33">
      <path clip-path="url(#p0f4f2b9188)" d="M 57.6 61.416421 
L 414.72 61.416421 
" style="fill:none;stroke:#b0b0b0;stroke-linecap:square;stroke-width:0.8;"/>
     </g>
     <g id="line2d_34">
      <g>
       <use style="stroke:#000000;stroke-width:0.8;" x="57.6" xlink:href="#m9747f9cb3f" y="61.416421"/>
      </g>
     </g>
     <g id="text_18">
      <!-- 1.50 -->
      <g transform="translate(28.334375 65.21564)scale(0.1 -0.1)">
       <use xlink:href="#DejaVuSans-49"/>
       <use x="63.623047" xlink:href="#DejaVuSans-46"/>
       <use x="95.410156" xlink:href="#DejaVuSans-53"/>
       <use x="159.033203" xlink:href="#DejaVuSans-48"/>
      </g>
     </g>
    </g>
    <g id="text_19">
     <!-- Fitness -->
     <defs>
      <path d="M 9.8125 72.90625 
L 51.703125 72.90625 
L 51.703125 64.59375 
L 19.671875 64.59375 
L 19.671875 43.109375 
L 48.578125 43.109375 
L 48.578125 34.8125 
L 19.671875 34.8125 
L 19.671875 0 
L 9.8125 0 
z
" id="DejaVuSans-70"/>
     </defs>
     <g transform="translate(13.875 192.202219)rotate(-90)scale(0.1 -0.1)">
      <use xlink:href="#DejaVuSans-70"/>
      <use x="57.410156" xlink:href="#DejaVuSans-105"/>
      <use x="85.193359" xlink:href="#DejaVuSans-116"/>
      <use x="124.402344" xlink:href="#DejaVuSans-110"/>
      <use x="187.78125" xlink:href="#DejaVuSans-101"/>
      <use x="249.304688" xlink:href="#DejaVuSans-115"/>
      <use x="301.404297" xlink:href="#DejaVuSans-115"/>
     </g>
    </g>
   </g>
   <g id="line2d_35">
    <path clip-path="url(#p0f4f2b9188)" d="M 73.832727 257.048814 
L 75.464157 253.337435 
L 77.095587 251.075639 
L 78.727017 247.532583 
L 80.358447 243.707689 
L 81.989877 243.045393 
L 83.621307 241.855029 
L 85.252736 242.9046 
L 86.884166 244.74779 
L 88.515596 243.894073 
L 90.147026 242.874793 
L 91.778456 241.674425 
L 93.409886 239.582034 
L 95.041316 234.972225 
L 96.672746 233.43997 
L 98.304175 232.339113 
L 99.935605 230.564433 
L 101.567035 230.367246 
L 103.198465 230.04958 
L 104.829895 226.740554 
L 106.461325 227.6992 
L 108.092755 226.660014 
L 109.724185 224.212693 
L 111.355614 230.065187 
L 112.987044 233.759962 
L 114.618474 230.875926 
L 116.249904 228.989256 
L 117.881334 230.789799 
L 119.512764 230.406204 
L 121.144194 225.873862 
L 122.775624 228.677585 
L 124.407053 229.809752 
L 126.038483 233.720793 
L 127.669913 234.343136 
L 129.301343 238.599107 
L 130.932773 236.494562 
L 132.564203 239.11372 
L 134.195633 234.192236 
L 135.827063 234.182492 
L 137.458492 232.593331 
L 139.089922 230.074965 
L 140.721352 232.388504 
L 142.352782 231.27934 
L 143.984212 230.822863 
L 145.615642 231.993184 
L 148.878502 229.43135 
L 150.509931 230.333963 
L 152.141361 230.468521 
L 153.772791 228.431686 
L 155.404221 230.722253 
L 157.035651 235.288462 
L 158.667081 234.835365 
L 160.298511 235.047889 
L 161.929941 236.89777 
L 163.56137 235.679635 
L 165.1928 235.11189 
L 166.82423 237.879349 
L 168.45566 239.592694 
L 170.08709 238.20761 
L 171.71852 234.722546 
L 173.34995 234.0785 
L 174.98138 236.700936 
L 178.244239 235.514165 
L 179.875669 231.163421 
L 181.507099 236.162152 
L 183.138529 229.537825 
L 184.769959 234.205558 
L 186.401389 234.348346 
L 188.032819 237.472403 
L 189.664249 233.640535 
L 191.295678 234.786732 
L 192.927108 230.280162 
L 194.558538 233.439754 
L 196.189968 231.4331 
L 197.821398 230.254704 
L 199.452828 232.169089 
L 201.084258 230.04367 
L 202.715688 229.56999 
L 204.347117 232.828402 
L 205.978547 232.765621 
L 207.609977 235.366212 
L 209.241407 234.043415 
L 210.872837 231.025431 
L 212.504267 230.271046 
L 214.135697 230.857716 
L 215.767127 229.905982 
L 217.398556 233.833545 
L 220.661416 230.171142 
L 222.292846 233.931204 
L 223.924276 230.725861 
L 225.555706 228.688687 
L 227.187136 230.571335 
L 228.818566 229.511141 
L 230.449995 229.149687 
L 232.081425 230.567099 
L 233.712855 230.835816 
L 235.344285 231.762407 
L 236.975715 229.95101 
L 238.607145 231.454709 
L 240.238575 229.007903 
L 241.870005 229.378095 
L 243.501434 232.180159 
L 245.132864 225.585243 
L 248.395724 231.096078 
L 250.027154 228.031558 
L 251.658584 227.346004 
L 253.290014 231.562986 
L 254.921444 227.436265 
L 256.552873 229.072283 
L 258.184303 230.967281 
L 259.815733 231.706359 
L 261.447163 229.697031 
L 263.078593 230.141782 
L 264.710023 228.96677 
L 266.341453 231.507522 
L 267.972883 226.217029 
L 271.235742 226.383697 
L 272.867172 229.424385 
L 274.498602 227.930356 
L 276.130032 224.277343 
L 277.761462 228.317836 
L 279.392892 227.249441 
L 281.024322 228.144792 
L 282.655751 229.515956 
L 284.287181 229.143418 
L 285.918611 226.974544 
L 287.550041 229.266115 
L 289.181471 228.875737 
L 290.812901 227.573895 
L 292.444331 227.271623 
L 295.70719 224.025617 
L 297.33862 223.195397 
L 298.97005 223.429433 
L 300.60148 225.036471 
L 302.23291 228.559338 
L 303.86434 225.558364 
L 305.49577 224.088043 
L 307.1272 225.422642 
L 308.75863 223.198179 
L 310.390059 222.472877 
L 312.021489 223.041954 
L 313.652919 226.513024 
L 315.284349 222.788153 
L 316.915779 224.604454 
L 318.547209 220.813174 
L 320.178639 223.211645 
L 321.810069 223.476256 
L 323.441498 223.200388 
L 326.704358 228.763834 
L 328.335788 221.686831 
L 329.967218 219.474787 
L 331.598648 220.241834 
L 333.230078 224.565668 
L 334.861508 226.552748 
L 336.492937 222.503232 
L 338.124367 224.783473 
L 339.755797 222.072934 
L 341.387227 219.96929 
L 343.018657 221.243399 
L 344.650087 226.057735 
L 346.281517 225.27794 
L 347.912947 224.34496 
L 349.544376 220.146229 
L 351.175806 222.102211 
L 352.807236 220.632945 
L 354.438666 224.206876 
L 356.070096 220.482024 
L 357.701526 221.78653 
L 359.332956 217.70292 
L 360.964386 218.287417 
L 362.595815 222.134762 
L 364.227245 222.954841 
L 365.858675 222.731202 
L 367.490105 222.161775 
L 369.121535 218.300836 
L 370.752965 220.709528 
L 372.384395 224.102487 
L 374.015825 223.133755 
L 375.647254 221.546667 
L 377.278684 222.442813 
L 378.910114 222.34471 
L 380.541544 223.353897 
L 382.172974 222.568104 
L 383.804404 220.487816 
L 385.435834 220.051925 
L 387.067264 225.237661 
L 388.698693 226.136806 
L 390.330123 220.830108 
L 391.961553 222.388787 
L 393.592983 222.757662 
L 395.224413 222.849647 
L 396.855843 224.250206 
L 398.487273 225.363286 
L 398.487273 225.363286 
" style="fill:none;stroke:#0000ff;stroke-linecap:square;stroke-width:1.5;"/>
   </g>
   <g id="line2d_36">
    <path clip-path="url(#p0f4f2b9188)" d="M 73.832727 275.180445 
L 75.464157 275.128336 
L 77.095587 276.70245 
L 78.727017 276.848694 
L 80.358447 273.13348 
L 81.989877 274.029725 
L 83.621307 274.326538 
L 85.252736 278.609231 
L 86.884166 278.211888 
L 88.515596 278.81285 
L 90.147026 280.032724 
L 91.778456 281.109014 
L 93.409886 278.842205 
L 95.041316 272.376993 
L 96.672746 271.290428 
L 98.304175 269.270831 
L 99.935605 268.841456 
L 101.567035 268.855331 
L 103.198465 270.998379 
L 104.829895 263.798359 
L 106.461325 266.62947 
L 108.092755 265.211902 
L 109.724185 261.509501 
L 111.355614 269.524555 
L 112.987044 274.485058 
L 114.618474 270.539795 
L 116.249904 269.3515 
L 117.881334 276.151333 
L 119.512764 276.23254 
L 121.144194 268.4474 
L 122.775624 273.96087 
L 124.407053 274.045612 
L 126.038483 278.495332 
L 127.669913 279.909465 
L 129.301343 282.96175 
L 130.932773 282.495357 
L 132.564203 284.652792 
L 134.195633 282.168622 
L 135.827063 281.350036 
L 137.458492 282.075426 
L 139.089922 277.954318 
L 140.721352 281.317237 
L 142.352782 279.951793 
L 143.984212 280.782145 
L 145.615642 283.374843 
L 147.247072 282.597587 
L 148.878502 280.811706 
L 150.509931 282.754826 
L 152.141361 282.855659 
L 153.772791 279.390675 
L 155.404221 283.884694 
L 157.035651 290.124209 
L 158.667081 285.604438 
L 160.298511 285.062223 
L 161.929941 287.895507 
L 163.56137 286.560958 
L 165.1928 285.459313 
L 166.82423 290.559596 
L 168.45566 294.154352 
L 170.08709 290.971359 
L 171.71852 287.288429 
L 173.34995 287.252258 
L 174.98138 289.007844 
L 176.61281 290.362435 
L 178.244239 291.404759 
L 179.875669 286.848118 
L 181.507099 290.346868 
L 183.138529 286.791718 
L 184.769959 290.619825 
L 186.401389 287.601093 
L 188.032819 293.793209 
L 189.664249 287.859319 
L 191.295678 290.336618 
L 192.927108 286.44552 
L 194.558538 293.654087 
L 196.189968 289.672254 
L 197.821398 288.281942 
L 199.452828 289.689178 
L 201.084258 289.788681 
L 202.715688 288.632457 
L 204.347117 288.402909 
L 205.978547 290.721899 
L 207.609977 295.035795 
L 209.241407 294.311354 
L 210.872837 291.864245 
L 212.504267 288.849805 
L 214.135697 288.773534 
L 215.767127 287.546799 
L 217.398556 294.100537 
L 219.029986 291.032547 
L 220.661416 292.455016 
L 222.292846 295.208688 
L 223.924276 289.813744 
L 225.555706 286.785846 
L 227.187136 288.794425 
L 228.818566 290.608121 
L 230.449995 291.480906 
L 232.081425 290.63889 
L 233.712855 291.279629 
L 235.344285 290.038167 
L 236.975715 289.800791 
L 238.607145 288.665676 
L 240.238575 286.685634 
L 241.870005 287.49155 
L 243.501434 292.287178 
L 245.132864 286.503596 
L 246.764294 287.631728 
L 248.395724 291.892446 
L 250.027154 287.98505 
L 251.658584 288.543765 
L 253.290014 291.846921 
L 254.921444 288.52124 
L 256.552873 289.620788 
L 258.184303 293.470361 
L 259.815733 295.488 
L 261.447163 290.941606 
L 263.078593 290.572898 
L 264.710023 289.962373 
L 266.341453 290.885543 
L 267.972883 286.551132 
L 269.604312 288.343745 
L 271.235742 287.763839 
L 272.867172 291.334323 
L 274.498602 288.104894 
L 276.130032 287.042244 
L 277.761462 289.490415 
L 279.392892 289.346191 
L 282.655751 290.743386 
L 284.287181 293.57885 
L 285.918611 288.473467 
L 287.550041 293.348867 
L 289.181471 294.828907 
L 290.812901 291.967637 
L 292.444331 289.686571 
L 294.075761 290.027527 
L 295.70719 287.472532 
L 297.33862 286.303143 
L 298.97005 288.204051 
L 300.60148 289.464969 
L 302.23291 290.479086 
L 303.86434 291.129435 
L 305.49577 290.177877 
L 307.1272 291.378007 
L 308.75863 289.507271 
L 310.390059 285.897766 
L 312.021489 290.196606 
L 313.652919 295.03218 
L 315.284349 286.947538 
L 316.915779 291.515783 
L 318.547209 286.873734 
L 320.178639 290.334662 
L 321.810069 287.439805 
L 323.441498 289.653798 
L 325.072928 292.611983 
L 326.704358 294.527872 
L 328.335788 288.474037 
L 329.967218 284.363906 
L 331.598648 285.876322 
L 333.230078 289.500781 
L 334.861508 292.608193 
L 336.492937 287.65331 
L 338.124367 292.082051 
L 339.755797 287.051628 
L 341.387227 285.324537 
L 343.018657 289.204733 
L 344.650087 289.001841 
L 346.281517 293.194756 
L 347.912947 289.583969 
L 349.544376 286.778619 
L 351.175806 289.321356 
L 352.807236 285.999573 
L 354.438666 292.996663 
L 356.070096 289.319665 
L 357.701526 288.193927 
L 359.332956 286.118458 
L 360.964386 286.340862 
L 362.595815 287.61352 
L 364.227245 289.716292 
L 365.858675 288.050618 
L 367.490105 287.604682 
L 369.121535 287.542808 
L 370.752965 288.340897 
L 372.384395 292.742383 
L 374.015825 291.17768 
L 375.647254 287.293961 
L 377.278684 290.059816 
L 378.910114 288.791985 
L 380.541544 290.320946 
L 382.172974 289.333113 
L 383.804404 288.760986 
L 385.435834 286.754308 
L 387.067264 293.967818 
L 388.698693 292.197048 
L 390.330123 289.249033 
L 391.961553 291.057601 
L 393.592983 291.168094 
L 395.224413 290.923153 
L 396.855843 291.109044 
L 398.487273 294.634096 
L 398.487273 294.634096 
" style="fill:none;stroke:#008000;stroke-dasharray:9.6,2.4,1.5,2.4;stroke-dashoffset:0;stroke-width:1.5;"/>
   </g>
   <g id="line2d_37">
    <path clip-path="url(#p0f4f2b9188)" d="M 73.832727 238.917184 
L 75.464157 231.546534 
L 77.095587 225.448828 
L 78.727017 218.216473 
L 80.358447 214.281898 
L 81.989877 212.061061 
L 83.621307 209.383521 
L 85.252736 207.19997 
L 86.884166 211.283693 
L 88.515596 208.975296 
L 91.778456 202.239836 
L 93.409886 200.321863 
L 95.041316 197.567457 
L 96.672746 195.589511 
L 98.304175 195.407395 
L 99.935605 192.28741 
L 101.567035 191.87916 
L 103.198465 189.100782 
L 104.829895 189.682748 
L 106.461325 188.768929 
L 108.092755 188.108126 
L 109.724185 186.915886 
L 111.355614 190.605819 
L 112.987044 193.034866 
L 114.618474 191.212056 
L 116.249904 188.627012 
L 117.881334 185.428266 
L 119.512764 184.579867 
L 121.144194 183.300323 
L 122.775624 183.3943 
L 124.407053 185.573892 
L 126.038483 188.946254 
L 127.669913 188.776807 
L 129.301343 194.236464 
L 130.932773 190.493767 
L 132.564203 193.574648 
L 134.195633 186.21585 
L 135.827063 187.014947 
L 137.458492 183.111237 
L 139.089922 182.195612 
L 140.721352 183.459772 
L 142.352782 182.606887 
L 143.984212 180.863582 
L 145.615642 180.611525 
L 147.247072 178.899064 
L 148.878502 178.050995 
L 150.509931 177.9131 
L 152.141361 178.081382 
L 153.772791 177.472696 
L 155.404221 177.559812 
L 157.035651 180.452715 
L 158.667081 184.066292 
L 161.929941 185.900033 
L 163.56137 184.798312 
L 165.1928 184.764468 
L 166.82423 185.199102 
L 168.45566 185.031037 
L 170.08709 185.443861 
L 171.71852 182.156662 
L 173.34995 180.904741 
L 174.98138 184.394028 
L 176.61281 181.733717 
L 178.244239 179.623571 
L 179.875669 175.478724 
L 181.507099 181.977437 
L 183.138529 172.283933 
L 184.769959 177.79129 
L 186.401389 181.095599 
L 188.032819 181.151598 
L 189.664249 179.42175 
L 191.295678 179.236845 
L 192.927108 174.114804 
L 194.558538 173.225421 
L 196.189968 173.193945 
L 197.821398 172.227465 
L 199.452828 174.649001 
L 201.084258 170.298658 
L 202.715688 170.507523 
L 204.347117 177.253895 
L 205.978547 174.809343 
L 207.609977 175.696629 
L 209.241407 173.775477 
L 210.872837 170.186616 
L 212.504267 171.692287 
L 214.135697 172.941898 
L 215.767127 172.265165 
L 217.398556 173.566554 
L 219.029986 172.864035 
L 220.661416 167.887267 
L 222.292846 172.65372 
L 225.555706 170.591527 
L 227.187136 172.348245 
L 228.818566 168.414161 
L 230.449995 166.818468 
L 232.081425 170.495307 
L 233.712855 170.392004 
L 235.344285 173.486647 
L 236.975715 170.10123 
L 238.607145 174.243742 
L 240.238575 171.330173 
L 241.870005 171.26464 
L 243.501434 172.07314 
L 245.132864 164.666891 
L 246.764294 169.179807 
L 248.395724 170.299711 
L 250.027154 168.078067 
L 251.658584 166.148243 
L 253.290014 171.279051 
L 254.921444 166.35129 
L 256.552873 168.523777 
L 258.184303 168.4642 
L 259.815733 167.924718 
L 261.447163 168.452456 
L 263.078593 169.710666 
L 264.710023 167.971168 
L 266.341453 172.129501 
L 267.972883 165.882927 
L 269.604312 164.293724 
L 271.235742 165.003555 
L 272.867172 167.514448 
L 274.498602 167.755819 
L 276.130032 161.512441 
L 277.761462 167.145256 
L 279.392892 165.152691 
L 281.024322 166.225064 
L 282.655751 168.288526 
L 284.287181 164.707985 
L 285.918611 165.47562 
L 287.550041 165.183364 
L 289.181471 162.922567 
L 290.812901 163.180153 
L 292.444331 164.856674 
L 294.075761 161.341381 
L 295.70719 160.578701 
L 297.33862 160.087651 
L 298.97005 158.654815 
L 300.60148 160.607973 
L 302.23291 166.639589 
L 303.86434 159.987292 
L 305.49577 157.998209 
L 307.1272 159.467277 
L 308.75863 156.889087 
L 310.390059 159.047988 
L 312.021489 155.887301 
L 313.652919 157.993868 
L 315.284349 158.628768 
L 316.915779 157.693125 
L 318.547209 154.752614 
L 320.178639 156.088629 
L 321.810069 159.512708 
L 323.441498 156.746979 
L 325.072928 159.405972 
L 326.704358 162.999796 
L 328.335788 154.899625 
L 329.967218 154.585669 
L 331.598648 154.607346 
L 333.230078 159.630554 
L 334.861508 160.497304 
L 336.492937 157.353154 
L 338.124367 157.484894 
L 339.755797 157.094239 
L 341.387227 154.614044 
L 343.018657 153.282064 
L 344.650087 163.113628 
L 346.281517 157.361124 
L 347.912947 159.105951 
L 349.544376 153.513839 
L 351.175806 154.883065 
L 352.807236 155.266317 
L 354.438666 155.417089 
L 356.070096 151.644382 
L 357.701526 155.379134 
L 359.332956 149.287382 
L 360.964386 150.233972 
L 362.595815 156.656003 
L 364.227245 156.19339 
L 365.858675 157.411786 
L 367.490105 156.718869 
L 369.121535 149.058863 
L 370.752965 153.078159 
L 372.384395 155.462592 
L 374.015825 155.08983 
L 375.647254 155.799374 
L 377.278684 154.82581 
L 378.910114 155.897435 
L 380.541544 156.386849 
L 382.172974 155.803094 
L 383.804404 152.214646 
L 385.435834 153.349541 
L 387.067264 156.507505 
L 388.698693 160.076564 
L 390.330123 152.411183 
L 391.961553 153.719972 
L 393.592983 154.347229 
L 395.224413 154.776142 
L 396.855843 157.391368 
L 398.487273 156.092475 
L 398.487273 156.092475 
" style="fill:none;stroke:#008000;stroke-dasharray:9.6,2.4,1.5,2.4;stroke-dashoffset:0;stroke-width:1.5;"/>
   </g>
   <g id="line2d_38">
    <path clip-path="url(#p0f4f2b9188)" d="M 73.832727 174.371778 
L 75.464157 174.371778 
L 77.095587 134.860126 
L 78.727017 131.620707 
L 80.358447 126.423787 
L 88.515596 126.423787 
L 90.147026 84.760222 
L 121.144194 84.760222 
L 122.775624 72.895376 
L 192.927108 72.895376 
L 194.558538 55.109568 
L 267.972883 55.109568 
L 269.604312 53.568 
L 398.487273 53.568 
L 398.487273 53.568 
" style="fill:none;stroke:#ff0000;stroke-linecap:square;stroke-width:1.5;"/>
   </g>
   <g id="patch_3">
    <path d="M 57.6 307.584 
L 57.6 41.472 
" style="fill:none;stroke:#000000;stroke-linecap:square;stroke-linejoin:miter;stroke-width:0.8;"/>
   </g>
   <g id="patch_4">
    <path d="M 414.72 307.584 
L 414.72 41.472 
" style="fill:none;stroke:#000000;stroke-linecap:square;stroke-linejoin:miter;stroke-width:0.8;"/>
   </g>
   <g id="patch_5">
    <path d="M 57.6 307.584 
L 414.72 307.584 
" style="fill:none;stroke:#000000;stroke-linecap:square;stroke-linejoin:miter;stroke-width:0.8;"/>
   </g>
   <g id="patch_6">
    <path d="M 57.6 41.472 
L 414.72 41.472 
" style="fill:none;stroke:#000000;stroke-linecap:square;stroke-linejoin:miter;stroke-width:0.8;"/>
   </g>
   <g id="text_20">
    <!-- Population's average and best fitness -->
    <defs>
     <path d="M 19.671875 64.796875 
L 19.671875 37.40625 
L 32.078125 37.40625 
Q 38.96875 37.40625 42.71875 40.96875 
Q 46.484375 44.53125 46.484375 51.125 
Q 46.484375 57.671875 42.71875 61.234375 
Q 38.96875 64.796875 32.078125 64.796875 
z
M 9.8125 72.90625 
L 32.078125 72.90625 
Q 44.34375 72.90625 50.609375 67.359375 
Q 56.890625 61.8125 56.890625 51.125 
Q 56.890625 40.328125 50.609375 34.8125 
Q 44.34375 29.296875 32.078125 29.296875 
L 19.671875 29.296875 
L 19.671875 0 
L 9.8125 0 
z
" id="DejaVuSans-80"/>
     <path d="M 18.109375 8.203125 
L 18.109375 -20.796875 
L 9.078125 -20.796875 
L 9.078125 54.6875 
L 18.109375 54.6875 
L 18.109375 46.390625 
Q 20.953125 51.265625 25.265625 53.625 
Q 29.59375 56 35.59375 56 
Q 45.5625 56 51.78125 48.09375 
Q 58.015625 40.1875 58.015625 27.296875 
Q 58.015625 14.40625 51.78125 6.484375 
Q 45.5625 -1.421875 35.59375 -1.421875 
Q 29.59375 -1.421875 25.265625 0.953125 
Q 20.953125 3.328125 18.109375 8.203125 
z
M 48.6875 27.296875 
Q 48.6875 37.203125 44.609375 42.84375 
Q 40.53125 48.484375 33.40625 48.484375 
Q 26.265625 48.484375 22.1875 42.84375 
Q 18.109375 37.203125 18.109375 27.296875 
Q 18.109375 17.390625 22.1875 11.75 
Q 26.265625 6.109375 33.40625 6.109375 
Q 40.53125 6.109375 44.609375 11.75 
Q 48.6875 17.390625 48.6875 27.296875 
z
" id="DejaVuSans-112"/>
     <path d="M 8.5 21.578125 
L 8.5 54.6875 
L 17.484375 54.6875 
L 17.484375 21.921875 
Q 17.484375 14.15625 20.5 10.265625 
Q 23.53125 6.390625 29.59375 6.390625 
Q 36.859375 6.390625 41.078125 11.03125 
Q 45.3125 15.671875 45.3125 23.6875 
L 45.3125 54.6875 
L 54.296875 54.6875 
L 54.296875 0 
L 45.3125 0 
L 45.3125 8.40625 
Q 42.046875 3.421875 37.71875 1 
Q 33.40625 -1.421875 27.6875 -1.421875 
Q 18.265625 -1.421875 13.375 4.4375 
Q 8.5 10.296875 8.5 21.578125 
z
M 31.109375 56 
z
" id="DejaVuSans-117"/>
     <path d="M 9.421875 75.984375 
L 18.40625 75.984375 
L 18.40625 0 
L 9.421875 0 
z
" id="DejaVuSans-108"/>
     <path d="M 17.921875 72.90625 
L 17.921875 45.796875 
L 9.625 45.796875 
L 9.625 72.90625 
z
" id="DejaVuSans-39"/>
     <path id="DejaVuSans-32"/>
     <path d="M 2.984375 54.6875 
L 12.5 54.6875 
L 29.59375 8.796875 
L 46.6875 54.6875 
L 56.203125 54.6875 
L 35.6875 0 
L 23.484375 0 
z
" id="DejaVuSans-118"/>
     <path d="M 45.40625 27.984375 
Q 45.40625 37.75 41.375 43.109375 
Q 37.359375 48.484375 30.078125 48.484375 
Q 22.859375 48.484375 18.828125 43.109375 
Q 14.796875 37.75 14.796875 27.984375 
Q 14.796875 18.265625 18.828125 12.890625 
Q 22.859375 7.515625 30.078125 7.515625 
Q 37.359375 7.515625 41.375 12.890625 
Q 45.40625 18.265625 45.40625 27.984375 
z
M 54.390625 6.78125 
Q 54.390625 -7.171875 48.1875 -13.984375 
Q 42 -20.796875 29.203125 -20.796875 
Q 24.46875 -20.796875 20.265625 -20.09375 
Q 16.0625 -19.390625 12.109375 -17.921875 
L 12.109375 -9.1875 
Q 16.0625 -11.328125 19.921875 -12.34375 
Q 23.78125 -13.375 27.78125 -13.375 
Q 36.625 -13.375 41.015625 -8.765625 
Q 45.40625 -4.15625 45.40625 5.171875 
L 45.40625 9.625 
Q 42.625 4.78125 38.28125 2.390625 
Q 33.9375 0 27.875 0 
Q 17.828125 0 11.671875 7.65625 
Q 5.515625 15.328125 5.515625 27.984375 
Q 5.515625 40.671875 11.671875 48.328125 
Q 17.828125 56 27.875 56 
Q 33.9375 56 38.28125 53.609375 
Q 42.625 51.21875 45.40625 46.390625 
L 45.40625 54.6875 
L 54.390625 54.6875 
z
" id="DejaVuSans-103"/>
     <path d="M 45.40625 46.390625 
L 45.40625 75.984375 
L 54.390625 75.984375 
L 54.390625 0 
L 45.40625 0 
L 45.40625 8.203125 
Q 42.578125 3.328125 38.25 0.953125 
Q 33.9375 -1.421875 27.875 -1.421875 
Q 17.96875 -1.421875 11.734375 6.484375 
Q 5.515625 14.40625 5.515625 27.296875 
Q 5.515625 40.1875 11.734375 48.09375 
Q 17.96875 56 27.875 56 
Q 33.9375 56 38.25 53.625 
Q 42.578125 51.265625 45.40625 46.390625 
z
M 14.796875 27.296875 
Q 14.796875 17.390625 18.875 11.75 
Q 22.953125 6.109375 30.078125 6.109375 
Q 37.203125 6.109375 41.296875 11.75 
Q 45.40625 17.390625 45.40625 27.296875 
Q 45.40625 37.203125 41.296875 42.84375 
Q 37.203125 48.484375 30.078125 48.484375 
Q 22.953125 48.484375 18.875 42.84375 
Q 14.796875 37.203125 14.796875 27.296875 
z
" id="DejaVuSans-100"/>
     <path d="M 48.6875 27.296875 
Q 48.6875 37.203125 44.609375 42.84375 
Q 40.53125 48.484375 33.40625 48.484375 
Q 26.265625 48.484375 22.1875 42.84375 
Q 18.109375 37.203125 18.109375 27.296875 
Q 18.109375 17.390625 22.1875 11.75 
Q 26.265625 6.109375 33.40625 6.109375 
Q 40.53125 6.109375 44.609375 11.75 
Q 48.6875 17.390625 48.6875 27.296875 
z
M 18.109375 46.390625 
Q 20.953125 51.265625 25.265625 53.625 
Q 29.59375 56 35.59375 56 
Q 45.5625 56 51.78125 48.09375 
Q 58.015625 40.1875 58.015625 27.296875 
Q 58.015625 14.40625 51.78125 6.484375 
Q 45.5625 -1.421875 35.59375 -1.421875 
Q 29.59375 -1.421875 25.265625 0.953125 
Q 20.953125 3.328125 18.109375 8.203125 
L 18.109375 0 
L 9.078125 0 
L 9.078125 75.984375 
L 18.109375 75.984375 
z
" id="DejaVuSans-98"/>
     <path d="M 37.109375 75.984375 
L 37.109375 68.5 
L 28.515625 68.5 
Q 23.6875 68.5 21.796875 66.546875 
Q 19.921875 64.59375 19.921875 59.515625 
L 19.921875 54.6875 
L 34.71875 54.6875 
L 34.71875 47.703125 
L 19.921875 47.703125 
L 19.921875 0 
L 10.890625 0 
L 10.890625 47.703125 
L 2.296875 47.703125 
L 2.296875 54.6875 
L 10.890625 54.6875 
L 10.890625 58.5 
Q 10.890625 67.625 15.140625 71.796875 
Q 19.390625 75.984375 28.609375 75.984375 
z
" id="DejaVuSans-102"/>
    </defs>
    <g transform="translate(123.315 35.472)scale(0.12 -0.12)">
     <use xlink:href="#DejaVuSans-80"/>
     <use x="60.255859" xlink:href="#DejaVuSans-111"/>
     <use x="121.4375" xlink:href="#DejaVuSans-112"/>
     <use x="184.914062" xlink:href="#DejaVuSans-117"/>
     <use x="248.292969" xlink:href="#DejaVuSans-108"/>
     <use x="276.076172" xlink:href="#DejaVuSans-97"/>
     <use x="337.355469" xlink:href="#DejaVuSans-116"/>
     <use x="376.564453" xlink:href="#DejaVuSans-105"/>
     <use x="404.347656" xlink:href="#DejaVuSans-111"/>
     <use x="465.529297" xlink:href="#DejaVuSans-110"/>
     <use x="528.908203" xlink:href="#DejaVuSans-39"/>
     <use x="556.398438" xlink:href="#DejaVuSans-115"/>
     <use x="608.498047" xlink:href="#DejaVuSans-32"/>
     <use x="640.285156" xlink:href="#DejaVuSans-97"/>
     <use x="701.564453" xlink:href="#DejaVuSans-118"/>
     <use x="760.744141" xlink:href="#DejaVuSans-101"/>
     <use x="822.267578" xlink:href="#DejaVuSans-114"/>
     <use x="863.380859" xlink:href="#DejaVuSans-97"/>
     <use x="924.660156" xlink:href="#DejaVuSans-103"/>
     <use x="988.136719" xlink:href="#DejaVuSans-101"/>
     <use x="1049.660156" xlink:href="#DejaVuSans-32"/>
     <use x="1081.447266" xlink:href="#DejaVuSans-97"/>
     <use x="1142.726562" xlink:href="#DejaVuSans-110"/>
     <use x="1206.105469" xlink:href="#DejaVuSans-100"/>
     <use x="1269.582031" xlink:href="#DejaVuSans-32"/>
     <use x="1301.369141" xlink:href="#DejaVuSans-98"/>
     <use x="1364.845703" xlink:href="#DejaVuSans-101"/>
     <use x="1426.369141" xlink:href="#DejaVuSans-115"/>
     <use x="1478.46875" xlink:href="#DejaVuSans-116"/>
     <use x="1517.677734" xlink:href="#DejaVuSans-32"/>
     <use x="1549.464844" xlink:href="#DejaVuSans-102"/>
     <use x="1584.669922" xlink:href="#DejaVuSans-105"/>
     <use x="1612.453125" xlink:href="#DejaVuSans-116"/>
     <use x="1651.662109" xlink:href="#DejaVuSans-110"/>
     <use x="1715.041016" xlink:href="#DejaVuSans-101"/>
     <use x="1776.564453" xlink:href="#DejaVuSans-115"/>
     <use x="1828.664062" xlink:href="#DejaVuSans-115"/>
    </g>
   </g>
   <g id="legend_1">
    <g id="patch_7">
     <path d="M 64.6 108.1845 
L 137.540625 108.1845 
Q 139.540625 108.1845 139.540625 106.1845 
L 139.540625 48.472 
Q 139.540625 46.472 137.540625 46.472 
L 64.6 46.472 
Q 62.6 46.472 62.6 48.472 
L 62.6 106.1845 
Q 62.6 108.1845 64.6 108.1845 
z
" style="fill:#ffffff;opacity:0.8;stroke:#cccccc;stroke-linejoin:miter;"/>
    </g>
    <g id="line2d_39">
     <path d="M 66.6 54.570438 
L 86.6 54.570438 
" style="fill:none;stroke:#0000ff;stroke-linecap:square;stroke-width:1.5;"/>
    </g>
    <g id="line2d_40"/>
    <g id="text_21">
     <!-- average -->
     <g transform="translate(94.6 58.070438)scale(0.1 -0.1)">
      <use xlink:href="#DejaVuSans-97"/>
      <use x="61.279297" xlink:href="#DejaVuSans-118"/>
      <use x="120.458984" xlink:href="#DejaVuSans-101"/>
      <use x="181.982422" xlink:href="#DejaVuSans-114"/>
      <use x="223.095703" xlink:href="#DejaVuSans-97"/>
      <use x="284.375" xlink:href="#DejaVuSans-103"/>
      <use x="347.851562" xlink:href="#DejaVuSans-101"/>
     </g>
    </g>
    <g id="line2d_41">
     <path d="M 66.6 69.248563 
L 86.6 69.248563 
" style="fill:none;stroke:#008000;stroke-dasharray:9.6,2.4,1.5,2.4;stroke-dashoffset:0;stroke-width:1.5;"/>
    </g>
    <g id="line2d_42"/>
    <g id="text_22">
     <!-- -1 sd -->
     <defs>
      <path d="M 4.890625 31.390625 
L 31.203125 31.390625 
L 31.203125 23.390625 
L 4.890625 23.390625 
z
" id="DejaVuSans-45"/>
     </defs>
     <g transform="translate(94.6 72.748563)scale(0.1 -0.1)">
      <use xlink:href="#DejaVuSans-45"/>
      <use x="36.083984" xlink:href="#DejaVuSans-49"/>
      <use x="99.707031" xlink:href="#DejaVuSans-32"/>
      <use x="131.494141" xlink:href="#DejaVuSans-115"/>
      <use x="183.59375" xlink:href="#DejaVuSans-100"/>
     </g>
    </g>
    <g id="line2d_43">
     <path d="M 66.6 83.926688 
L 86.6 83.926688 
" style="fill:none;stroke:#008000;stroke-dasharray:9.6,2.4,1.5,2.4;stroke-dashoffset:0;stroke-width:1.5;"/>
    </g>
    <g id="line2d_44"/>
    <g id="text_23">
     <!-- +1 sd -->
     <defs>
      <path d="M 46 62.703125 
L 46 35.5 
L 73.1875 35.5 
L 73.1875 27.203125 
L 46 27.203125 
L 46 0 
L 37.796875 0 
L 37.796875 27.203125 
L 10.59375 27.203125 
L 10.59375 35.5 
L 37.796875 35.5 
L 37.796875 62.703125 
z
" id="DejaVuSans-43"/>
     </defs>
     <g transform="translate(94.6 87.426688)scale(0.1 -0.1)">
      <use xlink:href="#DejaVuSans-43"/>
      <use x="83.789062" xlink:href="#DejaVuSans-49"/>
      <use x="147.412109" xlink:href="#DejaVuSans-32"/>
      <use x="179.199219" xlink:href="#DejaVuSans-115"/>
      <use x="231.298828" xlink:href="#DejaVuSans-100"/>
     </g>
    </g>
    <g id="line2d_45">
     <path d="M 66.6 98.604813 
L 86.6 98.604813 
" style="fill:none;stroke:#ff0000;stroke-linecap:square;stroke-width:1.5;"/>
    </g>
    <g id="line2d_46"/>
    <g id="text_24">
     <!-- best -->
     <g transform="translate(94.6 102.104813)scale(0.1 -0.1)">
      <use xlink:href="#DejaVuSans-98"/>
      <use x="63.476562" xlink:href="#DejaVuSans-101"/>
      <use x="125" xlink:href="#DejaVuSans-115"/>
      <use x="177.099609" xlink:href="#DejaVuSans-116"/>
     </g>
    </g>
   </g>
  </g>
 </g>
 <defs>
  <clipPath id="p0f4f2b9188">
   <rect height="266.112" width="357.12" x="57.6" y="41.472"/>
  </clipPath>
 </defs>
</svg>
