<?xml version="1.0" encoding="utf-8" standalone="no"?>
<!DOCTYPE svg PUBLIC "-//W3C//DTD SVG 1.1//EN"
  "http://www.w3.org/Graphics/SVG/1.1/DTD/svg11.dtd">
<!-- Created with matplotlib (https://matplotlib.org/) -->
<svg height="345.6pt" version="1.1" viewBox="0 0 460.8 345.6" width="460.8pt" xmlns="http://www.w3.org/2000/svg" xmlns:xlink="http://www.w3.org/1999/xlink">
 <defs>
  <style type="text/css">
*{stroke-linecap:butt;stroke-linejoin:round;}
  </style>
 </defs>
 <g id="figure_1">
  <g id="patch_1">
   <path d="M 0 345.6 
L 460.8 345.6 
L 460.8 0 
L 0 0 
z
" style="fill:#ffffff;"/>
  </g>
  <g id="axes_1">
   <g id="patch_2">
    <path d="M 57.6 307.584 
L 414.72 307.584 
L 414.72 41.472 
L 57.6 41.472 
z
" style="fill:#ffffff;"/>
   </g>
   <g id="matplotlib.axis_1">
    <g id="xtick_1">
     <g id="line2d_1">
      <path clip-path="url(#pb33d1790ac)" d="M 73.832727 307.584 
L 73.832727 41.472 
" style="fill:none;stroke:#b0b0b0;stroke-linecap:square;stroke-width:0.8;"/>
     </g>
     <g id="line2d_2">
      <defs>
       <path d="M 0 0 
L 0 3.5 
" id="mb55cc2e3de" style="stroke:#000000;stroke-width:0.8;"/>
      </defs>
      <g>
       <use style="stroke:#000000;stroke-width:0.8;" x="73.832727" xlink:href="#mb55cc2e3de" y="307.584"/>
      </g>
     </g>
     <g id="text_1">
      <!-- 0 -->
      <defs>
       <path d="M 31.78125 66.40625 
Q 24.171875 66.40625 20.328125 58.90625 
Q 16.5 51.421875 16.5 36.375 
Q 16.5 21.390625 20.328125 13.890625 
Q 24.171875 6.390625 31.78125 6.390625 
Q 39.453125 6.390625 43.28125 13.890625 
Q 47.125 21.390625 47.125 36.375 
Q 47.125 51.421875 43.28125 58.90625 
Q 39.453125 66.40625 31.78125 66.40625 
z
M 31.78125 74.21875 
Q 44.046875 74.21875 50.515625 64.515625 
Q 56.984375 54.828125 56.984375 36.375 
Q 56.984375 17.96875 50.515625 8.265625 
Q 44.046875 -1.421875 31.78125 -1.421875 
Q 19.53125 -1.421875 13.0625 8.265625 
Q 6.59375 17.96875 6.59375 36.375 
Q 6.59375 54.828125 13.0625 64.515625 
Q 19.53125 74.21875 31.78125 74.21875 
z
" id="DejaVuSans-48"/>
      </defs>
      <g transform="translate(70.651477 322.182437)scale(0.1 -0.1)">
       <use xlink:href="#DejaVuSans-48"/>
      </g>
     </g>
    </g>
    <g id="xtick_2">
     <g id="line2d_3">
      <path clip-path="url(#pb33d1790ac)" d="M 128.122785 307.584 
L 128.122785 41.472 
" style="fill:none;stroke:#b0b0b0;stroke-linecap:square;stroke-width:0.8;"/>
     </g>
     <g id="line2d_4">
      <g>
       <use style="stroke:#000000;stroke-width:0.8;" x="128.122785" xlink:href="#mb55cc2e3de" y="307.584"/>
      </g>
     </g>
     <g id="text_2">
      <!-- 50 -->
      <defs>
       <path d="M 10.796875 72.90625 
L 49.515625 72.90625 
L 49.515625 64.59375 
L 19.828125 64.59375 
L 19.828125 46.734375 
Q 21.96875 47.46875 24.109375 47.828125 
Q 26.265625 48.1875 28.421875 48.1875 
Q 40.625 48.1875 47.75 41.5 
Q 54.890625 34.8125 54.890625 23.390625 
Q 54.890625 11.625 47.5625 5.09375 
Q 40.234375 -1.421875 26.90625 -1.421875 
Q 22.3125 -1.421875 17.546875 -0.640625 
Q 12.796875 0.140625 7.71875 1.703125 
L 7.71875 11.625 
Q 12.109375 9.234375 16.796875 8.0625 
Q 21.484375 6.890625 26.703125 6.890625 
Q 35.15625 6.890625 40.078125 11.328125 
Q 45.015625 15.765625 45.015625 23.390625 
Q 45.015625 31 40.078125 35.4375 
Q 35.15625 39.890625 26.703125 39.890625 
Q 22.75 39.890625 18.8125 39.015625 
Q 14.890625 38.140625 10.796875 36.28125 
z
" id="DejaVuSans-53"/>
      </defs>
      <g transform="translate(121.760285 322.182437)scale(0.1 -0.1)">
       <use xlink:href="#DejaVuSans-53"/>
       <use x="63.623047" xlink:href="#DejaVuSans-48"/>
      </g>
     </g>
    </g>
    <g id="xtick_3">
     <g id="line2d_5">
      <path clip-path="url(#pb33d1790ac)" d="M 182.412843 307.584 
L 182.412843 41.472 
" style="fill:none;stroke:#b0b0b0;stroke-linecap:square;stroke-width:0.8;"/>
     </g>
     <g id="line2d_6">
      <g>
       <use style="stroke:#000000;stroke-width:0.8;" x="182.412843" xlink:href="#mb55cc2e3de" y="307.584"/>
      </g>
     </g>
     <g id="text_3">
      <!-- 100 -->
      <defs>
       <path d="M 12.40625 8.296875 
L 28.515625 8.296875 
L 28.515625 63.921875 
L 10.984375 60.40625 
L 10.984375 69.390625 
L 28.421875 72.90625 
L 38.28125 72.90625 
L 38.28125 8.296875 
L 54.390625 8.296875 
L 54.390625 0 
L 12.40625 0 
z
" id="DejaVuSans-49"/>
      </defs>
      <g transform="translate(172.869093 322.182437)scale(0.1 -0.1)">
       <use xlink:href="#DejaVuSans-49"/>
       <use x="63.623047" xlink:href="#DejaVuSans-48"/>
       <use x="127.246094" xlink:href="#DejaVuSans-48"/>
      </g>
     </g>
    </g>
    <g id="xtick_4">
     <g id="line2d_7">
      <path clip-path="url(#pb33d1790ac)" d="M 236.702901 307.584 
L 236.702901 41.472 
" style="fill:none;stroke:#b0b0b0;stroke-linecap:square;stroke-width:0.8;"/>
     </g>
     <g id="line2d_8">
      <g>
       <use style="stroke:#000000;stroke-width:0.8;" x="236.702901" xlink:href="#mb55cc2e3de" y="307.584"/>
      </g>
     </g>
     <g id="text_4">
      <!-- 150 -->
      <g transform="translate(227.159151 322.182437)scale(0.1 -0.1)">
       <use xlink:href="#DejaVuSans-49"/>
       <use x="63.623047" xlink:href="#DejaVuSans-53"/>
       <use x="127.246094" xlink:href="#DejaVuSans-48"/>
      </g>
     </g>
    </g>
    <g id="xtick_5">
     <g id="line2d_9">
      <path clip-path="url(#pb33d1790ac)" d="M 290.992958 307.584 
L 290.992958 41.472 
" style="fill:none;stroke:#b0b0b0;stroke-linecap:square;stroke-width:0.8;"/>
     </g>
     <g id="line2d_10">
      <g>
       <use style="stroke:#000000;stroke-width:0.8;" x="290.992958" xlink:href="#mb55cc2e3de" y="307.584"/>
      </g>
     </g>
     <g id="text_5">
      <!-- 200 -->
      <defs>
       <path d="M 19.1875 8.296875 
L 53.609375 8.296875 
L 53.609375 0 
L 7.328125 0 
L 7.328125 8.296875 
Q 12.9375 14.109375 22.625 23.890625 
Q 32.328125 33.6875 34.8125 36.53125 
Q 39.546875 41.84375 41.421875 45.53125 
Q 43.3125 49.21875 43.3125 52.78125 
Q 43.3125 58.59375 39.234375 62.25 
Q 35.15625 65.921875 28.609375 65.921875 
Q 23.96875 65.921875 18.8125 64.3125 
Q 13.671875 62.703125 7.8125 59.421875 
L 7.8125 69.390625 
Q 13.765625 71.78125 18.9375 73 
Q 24.125 74.21875 28.421875 74.21875 
Q 39.75 74.21875 46.484375 68.546875 
Q 53.21875 62.890625 53.21875 53.421875 
Q 53.21875 48.921875 51.53125 44.890625 
Q 49.859375 40.875 45.40625 35.40625 
Q 44.1875 33.984375 37.640625 27.21875 
Q 31.109375 20.453125 19.1875 8.296875 
z
" id="DejaVuSans-50"/>
      </defs>
      <g transform="translate(281.449208 322.182437)scale(0.1 -0.1)">
       <use xlink:href="#DejaVuSans-50"/>
       <use x="63.623047" xlink:href="#DejaVuSans-48"/>
       <use x="127.246094" xlink:href="#DejaVuSans-48"/>
      </g>
     </g>
    </g>
    <g id="xtick_6">
     <g id="line2d_11">
      <path clip-path="url(#pb33d1790ac)" d="M 345.283016 307.584 
L 345.283016 41.472 
" style="fill:none;stroke:#b0b0b0;stroke-linecap:square;stroke-width:0.8;"/>
     </g>
     <g id="line2d_12">
      <g>
       <use style="stroke:#000000;stroke-width:0.8;" x="345.283016" xlink:href="#mb55cc2e3de" y="307.584"/>
      </g>
     </g>
     <g id="text_6">
      <!-- 250 -->
      <g transform="translate(335.739266 322.182437)scale(0.1 -0.1)">
       <use xlink:href="#DejaVuSans-50"/>
       <use x="63.623047" xlink:href="#DejaVuSans-53"/>
       <use x="127.246094" xlink:href="#DejaVuSans-48"/>
      </g>
     </g>
    </g>
    <g id="xtick_7">
     <g id="line2d_13">
      <path clip-path="url(#pb33d1790ac)" d="M 399.573074 307.584 
L 399.573074 41.472 
" style="fill:none;stroke:#b0b0b0;stroke-linecap:square;stroke-width:0.8;"/>
     </g>
     <g id="line2d_14">
      <g>
       <use style="stroke:#000000;stroke-width:0.8;" x="399.573074" xlink:href="#mb55cc2e3de" y="307.584"/>
      </g>
     </g>
     <g id="text_7">
      <!-- 300 -->
      <defs>
       <path d="M 40.578125 39.3125 
Q 47.65625 37.796875 51.625 33 
Q 55.609375 28.21875 55.609375 21.1875 
Q 55.609375 10.40625 48.1875 4.484375 
Q 40.765625 -1.421875 27.09375 -1.421875 
Q 22.515625 -1.421875 17.65625 -0.515625 
Q 12.796875 0.390625 7.625 2.203125 
L 7.625 11.71875 
Q 11.71875 9.328125 16.59375 8.109375 
Q 21.484375 6.890625 26.8125 6.890625 
Q 36.078125 6.890625 40.9375 10.546875 
Q 45.796875 14.203125 45.796875 21.1875 
Q 45.796875 27.640625 41.28125 31.265625 
Q 36.765625 34.90625 28.71875 34.90625 
L 20.21875 34.90625 
L 20.21875 43.015625 
L 29.109375 43.015625 
Q 36.375 43.015625 40.234375 45.921875 
Q 44.09375 48.828125 44.09375 54.296875 
Q 44.09375 59.90625 40.109375 62.90625 
Q 36.140625 65.921875 28.71875 65.921875 
Q 24.65625 65.921875 20.015625 65.03125 
Q 15.375 64.15625 9.8125 62.3125 
L 9.8125 71.09375 
Q 15.4375 72.65625 20.34375 73.4375 
Q 25.25 74.21875 29.59375 74.21875 
Q 40.828125 74.21875 47.359375 69.109375 
Q 53.90625 64.015625 53.90625 55.328125 
Q 53.90625 49.265625 50.4375 45.09375 
Q 46.96875 40.921875 40.578125 39.3125 
z
" id="DejaVuSans-51"/>
      </defs>
      <g transform="translate(390.029324 322.182437)scale(0.1 -0.1)">
       <use xlink:href="#DejaVuSans-51"/>
       <use x="63.623047" xlink:href="#DejaVuSans-48"/>
       <use x="127.246094" xlink:href="#DejaVuSans-48"/>
      </g>
     </g>
    </g>
    <g id="text_8">
     <!-- Generations -->
     <defs>
      <path d="M 59.515625 10.40625 
L 59.515625 29.984375 
L 43.40625 29.984375 
L 43.40625 38.09375 
L 69.28125 38.09375 
L 69.28125 6.78125 
Q 63.578125 2.734375 56.6875 0.65625 
Q 49.8125 -1.421875 42 -1.421875 
Q 24.90625 -1.421875 15.25 8.5625 
Q 5.609375 18.5625 5.609375 36.375 
Q 5.609375 54.25 15.25 64.234375 
Q 24.90625 74.21875 42 74.21875 
Q 49.125 74.21875 55.546875 72.453125 
Q 61.96875 70.703125 67.390625 67.28125 
L 67.390625 56.78125 
Q 61.921875 61.421875 55.765625 63.765625 
Q 49.609375 66.109375 42.828125 66.109375 
Q 29.4375 66.109375 22.71875 58.640625 
Q 16.015625 51.171875 16.015625 36.375 
Q 16.015625 21.625 22.71875 14.15625 
Q 29.4375 6.6875 42.828125 6.6875 
Q 48.046875 6.6875 52.140625 7.59375 
Q 56.25 8.5 59.515625 10.40625 
z
" id="DejaVuSans-71"/>
      <path d="M 56.203125 29.59375 
L 56.203125 25.203125 
L 14.890625 25.203125 
Q 15.484375 15.921875 20.484375 11.0625 
Q 25.484375 6.203125 34.421875 6.203125 
Q 39.59375 6.203125 44.453125 7.46875 
Q 49.3125 8.734375 54.109375 11.28125 
L 54.109375 2.78125 
Q 49.265625 0.734375 44.1875 -0.34375 
Q 39.109375 -1.421875 33.890625 -1.421875 
Q 20.796875 -1.421875 13.15625 6.1875 
Q 5.515625 13.8125 5.515625 26.8125 
Q 5.515625 40.234375 12.765625 48.109375 
Q 20.015625 56 32.328125 56 
Q 43.359375 56 49.78125 48.890625 
Q 56.203125 41.796875 56.203125 29.59375 
z
M 47.21875 32.234375 
Q 47.125 39.59375 43.09375 43.984375 
Q 39.0625 48.390625 32.421875 48.390625 
Q 24.90625 48.390625 20.390625 44.140625 
Q 15.875 39.890625 15.1875 32.171875 
z
" id="DejaVuSans-101"/>
      <path d="M 54.890625 33.015625 
L 54.890625 0 
L 45.90625 0 
L 45.90625 32.71875 
Q 45.90625 40.484375 42.875 44.328125 
Q 39.84375 48.1875 33.796875 48.1875 
Q 26.515625 48.1875 22.3125 43.546875 
Q 18.109375 38.921875 18.109375 30.90625 
L 18.109375 0 
L 9.078125 0 
L 9.078125 54.6875 
L 18.109375 54.6875 
L 18.109375 46.1875 
Q 21.34375 51.125 25.703125 53.5625 
Q 30.078125 56 35.796875 56 
Q 45.21875 56 50.046875 50.171875 
Q 54.890625 44.34375 54.890625 33.015625 
z
" id="DejaVuSans-110"/>
      <path d="M 41.109375 46.296875 
Q 39.59375 47.171875 37.8125 47.578125 
Q 36.03125 48 33.890625 48 
Q 26.265625 48 22.1875 43.046875 
Q 18.109375 38.09375 18.109375 28.8125 
L 18.109375 0 
L 9.078125 0 
L 9.078125 54.6875 
L 18.109375 54.6875 
L 18.109375 46.1875 
Q 20.953125 51.171875 25.484375 53.578125 
Q 30.03125 56 36.53125 56 
Q 37.453125 56 38.578125 55.875 
Q 39.703125 55.765625 41.0625 55.515625 
z
" id="DejaVuSans-114"/>
      <path d="M 34.28125 27.484375 
Q 23.390625 27.484375 19.1875 25 
Q 14.984375 22.515625 14.984375 16.5 
Q 14.984375 11.71875 18.140625 8.90625 
Q 21.296875 6.109375 26.703125 6.109375 
Q 34.1875 6.109375 38.703125 11.40625 
Q 43.21875 16.703125 43.21875 25.484375 
L 43.21875 27.484375 
z
M 52.203125 31.203125 
L 52.203125 0 
L 43.21875 0 
L 43.21875 8.296875 
Q 40.140625 3.328125 35.546875 0.953125 
Q 30.953125 -1.421875 24.3125 -1.421875 
Q 15.921875 -1.421875 10.953125 3.296875 
Q 6 8.015625 6 15.921875 
Q 6 25.140625 12.171875 29.828125 
Q 18.359375 34.515625 30.609375 34.515625 
L 43.21875 34.515625 
L 43.21875 35.40625 
Q 43.21875 41.609375 39.140625 45 
Q 35.0625 48.390625 27.6875 48.390625 
Q 23 48.390625 18.546875 47.265625 
Q 14.109375 46.140625 10.015625 43.890625 
L 10.015625 52.203125 
Q 14.9375 54.109375 19.578125 55.046875 
Q 24.21875 56 28.609375 56 
Q 40.484375 56 46.34375 49.84375 
Q 52.203125 43.703125 52.203125 31.203125 
z
" id="DejaVuSans-97"/>
      <path d="M 18.3125 70.21875 
L 18.3125 54.6875 
L 36.8125 54.6875 
L 36.8125 47.703125 
L 18.3125 47.703125 
L 18.3125 18.015625 
Q 18.3125 11.328125 20.140625 9.421875 
Q 21.96875 7.515625 27.59375 7.515625 
L 36.8125 7.515625 
L 36.8125 0 
L 27.59375 0 
Q 17.1875 0 13.234375 3.875 
Q 9.28125 7.765625 9.28125 18.015625 
L 9.28125 47.703125 
L 2.6875 47.703125 
L 2.6875 54.6875 
L 9.28125 54.6875 
L 9.28125 70.21875 
z
" id="DejaVuSans-116"/>
      <path d="M 9.421875 54.6875 
L 18.40625 54.6875 
L 18.40625 0 
L 9.421875 0 
z
M 9.421875 75.984375 
L 18.40625 75.984375 
L 18.40625 64.59375 
L 9.421875 64.59375 
z
" id="DejaVuSans-105"/>
      <path d="M 30.609375 48.390625 
Q 23.390625 48.390625 19.1875 42.75 
Q 14.984375 37.109375 14.984375 27.296875 
Q 14.984375 17.484375 19.15625 11.84375 
Q 23.34375 6.203125 30.609375 6.203125 
Q 37.796875 6.203125 41.984375 11.859375 
Q 46.1875 17.53125 46.1875 27.296875 
Q 46.1875 37.015625 41.984375 42.703125 
Q 37.796875 48.390625 30.609375 48.390625 
z
M 30.609375 56 
Q 42.328125 56 49.015625 48.375 
Q 55.71875 40.765625 55.71875 27.296875 
Q 55.71875 13.875 49.015625 6.21875 
Q 42.328125 -1.421875 30.609375 -1.421875 
Q 18.84375 -1.421875 12.171875 6.21875 
Q 5.515625 13.875 5.515625 27.296875 
Q 5.515625 40.765625 12.171875 48.375 
Q 18.84375 56 30.609375 56 
z
" id="DejaVuSans-111"/>
      <path d="M 44.28125 53.078125 
L 44.28125 44.578125 
Q 40.484375 46.53125 36.375 47.5 
Q 32.28125 48.484375 27.875 48.484375 
Q 21.1875 48.484375 17.84375 46.4375 
Q 14.5 44.390625 14.5 40.28125 
Q 14.5 37.15625 16.890625 35.375 
Q 19.28125 33.59375 26.515625 31.984375 
L 29.59375 31.296875 
Q 39.15625 29.25 43.1875 25.515625 
Q 47.21875 21.78125 47.21875 15.09375 
Q 47.21875 7.46875 41.1875 3.015625 
Q 35.15625 -1.421875 24.609375 -1.421875 
Q 20.21875 -1.421875 15.453125 -0.5625 
Q 10.6875 0.296875 5.421875 2 
L 5.421875 11.28125 
Q 10.40625 8.6875 15.234375 7.390625 
Q 20.0625 6.109375 24.8125 6.109375 
Q 31.15625 6.109375 34.5625 8.28125 
Q 37.984375 10.453125 37.984375 14.40625 
Q 37.984375 18.0625 35.515625 20.015625 
Q 33.0625 21.96875 24.703125 23.78125 
L 21.578125 24.515625 
Q 13.234375 26.265625 9.515625 29.90625 
Q 5.8125 33.546875 5.8125 39.890625 
Q 5.8125 47.609375 11.28125 51.796875 
Q 16.75 56 26.8125 56 
Q 31.78125 56 36.171875 55.265625 
Q 40.578125 54.546875 44.28125 53.078125 
z
" id="DejaVuSans-115"/>
     </defs>
     <g transform="translate(205.662344 335.860562)scale(0.1 -0.1)">
      <use xlink:href="#DejaVuSans-71"/>
      <use x="77.490234" xlink:href="#DejaVuSans-101"/>
      <use x="139.013672" xlink:href="#DejaVuSans-110"/>
      <use x="202.392578" xlink:href="#DejaVuSans-101"/>
      <use x="263.916016" xlink:href="#DejaVuSans-114"/>
      <use x="305.029297" xlink:href="#DejaVuSans-97"/>
      <use x="366.308594" xlink:href="#DejaVuSans-116"/>
      <use x="405.517578" xlink:href="#DejaVuSans-105"/>
      <use x="433.300781" xlink:href="#DejaVuSans-111"/>
      <use x="494.482422" xlink:href="#DejaVuSans-110"/>
      <use x="557.861328" xlink:href="#DejaVuSans-115"/>
     </g>
    </g>
   </g>
   <g id="matplotlib.axis_2">
    <g id="ytick_1">
     <g id="line2d_15">
      <path clip-path="url(#pb33d1790ac)" d="M 57.6 303.545128 
L 414.72 303.545128 
" style="fill:none;stroke:#b0b0b0;stroke-linecap:square;stroke-width:0.8;"/>
     </g>
     <g id="line2d_16">
      <defs>
       <path d="M 0 0 
L -3.5 0 
" id="m9b53b1cd4f" style="stroke:#000000;stroke-width:0.8;"/>
      </defs>
      <g>
       <use style="stroke:#000000;stroke-width:0.8;" x="57.6" xlink:href="#m9b53b1cd4f" y="303.545128"/>
      </g>
     </g>
     <g id="text_9">
      <!-- −0.5 -->
      <defs>
       <path d="M 10.59375 35.5 
L 73.1875 35.5 
L 73.1875 27.203125 
L 10.59375 27.203125 
z
" id="DejaVuSans-8722"/>
       <path d="M 10.6875 12.40625 
L 21 12.40625 
L 21 0 
L 10.6875 0 
z
" id="DejaVuSans-46"/>
      </defs>
      <g transform="translate(26.317187 307.344347)scale(0.1 -0.1)">
       <use xlink:href="#DejaVuSans-8722"/>
       <use x="83.789062" xlink:href="#DejaVuSans-48"/>
       <use x="147.412109" xlink:href="#DejaVuSans-46"/>
       <use x="179.199219" xlink:href="#DejaVuSans-53"/>
      </g>
     </g>
    </g>
    <g id="ytick_2">
     <g id="line2d_17">
      <path clip-path="url(#pb33d1790ac)" d="M 57.6 266.651518 
L 414.72 266.651518 
" style="fill:none;stroke:#b0b0b0;stroke-linecap:square;stroke-width:0.8;"/>
     </g>
     <g id="line2d_18">
      <g>
       <use style="stroke:#000000;stroke-width:0.8;" x="57.6" xlink:href="#m9b53b1cd4f" y="266.651518"/>
      </g>
     </g>
     <g id="text_10">
      <!-- 0.0 -->
      <g transform="translate(34.696875 270.450737)scale(0.1 -0.1)">
       <use xlink:href="#DejaVuSans-48"/>
       <use x="63.623047" xlink:href="#DejaVuSans-46"/>
       <use x="95.410156" xlink:href="#DejaVuSans-48"/>
      </g>
     </g>
    </g>
    <g id="ytick_3">
     <g id="line2d_19">
      <path clip-path="url(#pb33d1790ac)" d="M 57.6 229.757908 
L 414.72 229.757908 
" style="fill:none;stroke:#b0b0b0;stroke-linecap:square;stroke-width:0.8;"/>
     </g>
     <g id="line2d_20">
      <g>
       <use style="stroke:#000000;stroke-width:0.8;" x="57.6" xlink:href="#m9b53b1cd4f" y="229.757908"/>
      </g>
     </g>
     <g id="text_11">
      <!-- 0.5 -->
      <g transform="translate(34.696875 233.557127)scale(0.1 -0.1)">
       <use xlink:href="#DejaVuSans-48"/>
       <use x="63.623047" xlink:href="#DejaVuSans-46"/>
       <use x="95.410156" xlink:href="#DejaVuSans-53"/>
      </g>
     </g>
    </g>
    <g id="ytick_4">
     <g id="line2d_21">
      <path clip-path="url(#pb33d1790ac)" d="M 57.6 192.864298 
L 414.72 192.864298 
" style="fill:none;stroke:#b0b0b0;stroke-linecap:square;stroke-width:0.8;"/>
     </g>
     <g id="line2d_22">
      <g>
       <use style="stroke:#000000;stroke-width:0.8;" x="57.6" xlink:href="#m9b53b1cd4f" y="192.864298"/>
      </g>
     </g>
     <g id="text_12">
      <!-- 1.0 -->
      <g transform="translate(34.696875 196.663517)scale(0.1 -0.1)">
       <use xlink:href="#DejaVuSans-49"/>
       <use x="63.623047" xlink:href="#DejaVuSans-46"/>
       <use x="95.410156" xlink:href="#DejaVuSans-48"/>
      </g>
     </g>
    </g>
    <g id="ytick_5">
     <g id="line2d_23">
      <path clip-path="url(#pb33d1790ac)" d="M 57.6 155.970688 
L 414.72 155.970688 
" style="fill:none;stroke:#b0b0b0;stroke-linecap:square;stroke-width:0.8;"/>
     </g>
     <g id="line2d_24">
      <g>
       <use style="stroke:#000000;stroke-width:0.8;" x="57.6" xlink:href="#m9b53b1cd4f" y="155.970688"/>
      </g>
     </g>
     <g id="text_13">
      <!-- 1.5 -->
      <g transform="translate(34.696875 159.769907)scale(0.1 -0.1)">
       <use xlink:href="#DejaVuSans-49"/>
       <use x="63.623047" xlink:href="#DejaVuSans-46"/>
       <use x="95.410156" xlink:href="#DejaVuSans-53"/>
      </g>
     </g>
    </g>
    <g id="ytick_6">
     <g id="line2d_25">
      <path clip-path="url(#pb33d1790ac)" d="M 57.6 119.077078 
L 414.72 119.077078 
" style="fill:none;stroke:#b0b0b0;stroke-linecap:square;stroke-width:0.8;"/>
     </g>
     <g id="line2d_26">
      <g>
       <use style="stroke:#000000;stroke-width:0.8;" x="57.6" xlink:href="#m9b53b1cd4f" y="119.077078"/>
      </g>
     </g>
     <g id="text_14">
      <!-- 2.0 -->
      <g transform="translate(34.696875 122.876297)scale(0.1 -0.1)">
       <use xlink:href="#DejaVuSans-50"/>
       <use x="63.623047" xlink:href="#DejaVuSans-46"/>
       <use x="95.410156" xlink:href="#DejaVuSans-48"/>
      </g>
     </g>
    </g>
    <g id="ytick_7">
     <g id="line2d_27">
      <path clip-path="url(#pb33d1790ac)" d="M 57.6 82.183468 
L 414.72 82.183468 
" style="fill:none;stroke:#b0b0b0;stroke-linecap:square;stroke-width:0.8;"/>
     </g>
     <g id="line2d_28">
      <g>
       <use style="stroke:#000000;stroke-width:0.8;" x="57.6" xlink:href="#m9b53b1cd4f" y="82.183468"/>
      </g>
     </g>
     <g id="text_15">
      <!-- 2.5 -->
      <g transform="translate(34.696875 85.982687)scale(0.1 -0.1)">
       <use xlink:href="#DejaVuSans-50"/>
       <use x="63.623047" xlink:href="#DejaVuSans-46"/>
       <use x="95.410156" xlink:href="#DejaVuSans-53"/>
      </g>
     </g>
    </g>
    <g id="ytick_8">
     <g id="line2d_29">
      <path clip-path="url(#pb33d1790ac)" d="M 57.6 45.289858 
L 414.72 45.289858 
" style="fill:none;stroke:#b0b0b0;stroke-linecap:square;stroke-width:0.8;"/>
     </g>
     <g id="line2d_30">
      <g>
       <use style="stroke:#000000;stroke-width:0.8;" x="57.6" xlink:href="#m9b53b1cd4f" y="45.289858"/>
      </g>
     </g>
     <g id="text_16">
      <!-- 3.0 -->
      <g transform="translate(34.696875 49.089077)scale(0.1 -0.1)">
       <use xlink:href="#DejaVuSans-51"/>
       <use x="63.623047" xlink:href="#DejaVuSans-46"/>
       <use x="95.410156" xlink:href="#DejaVuSans-48"/>
      </g>
     </g>
    </g>
    <g id="text_17">
     <!-- Fitness -->
     <defs>
      <path d="M 9.8125 72.90625 
L 51.703125 72.90625 
L 51.703125 64.59375 
L 19.671875 64.59375 
L 19.671875 43.109375 
L 48.578125 43.109375 
L 48.578125 34.8125 
L 19.671875 34.8125 
L 19.671875 0 
L 9.8125 0 
z
" id="DejaVuSans-70"/>
     </defs>
     <g transform="translate(20.2375 192.202219)rotate(-90)scale(0.1 -0.1)">
      <use xlink:href="#DejaVuSans-70"/>
      <use x="57.410156" xlink:href="#DejaVuSans-105"/>
      <use x="85.193359" xlink:href="#DejaVuSans-116"/>
      <use x="124.402344" xlink:href="#DejaVuSans-110"/>
      <use x="187.78125" xlink:href="#DejaVuSans-101"/>
      <use x="249.304688" xlink:href="#DejaVuSans-115"/>
      <use x="301.404297" xlink:href="#DejaVuSans-115"/>
     </g>
    </g>
   </g>
   <g id="line2d_31">
    <path clip-path="url(#pb33d1790ac)" d="M 73.832727 266.809703 
L 74.918528 262.506129 
L 77.090131 256.12424 
L 78.175932 251.782088 
L 79.261733 249.564597 
L 80.347534 248.002937 
L 81.433335 243.658068 
L 82.519137 240.902006 
L 83.604938 243.970962 
L 84.690739 242.035687 
L 85.77654 241.871005 
L 86.862341 237.316557 
L 87.948142 234.998593 
L 89.033943 236.903938 
L 90.119745 239.4182 
L 91.205546 234.307118 
L 92.291347 234.350584 
L 93.377148 235.143207 
L 94.462949 233.347228 
L 95.54875 232.519969 
L 96.634552 232.332236 
L 97.720353 227.5606 
L 98.806154 225.61935 
L 99.891955 226.172413 
L 100.977756 225.876586 
L 102.063557 226.18607 
L 103.149358 226.038373 
L 104.23516 227.787514 
L 105.320961 227.81597 
L 106.406762 227.317595 
L 107.492563 230.829697 
L 108.578364 229.22769 
L 109.664165 226.412636 
L 110.749967 227.479105 
L 111.835768 225.584308 
L 112.921569 229.69818 
L 114.00737 227.170273 
L 115.093171 229.690729 
L 116.178972 227.711839 
L 117.264773 223.463631 
L 118.350575 228.203872 
L 119.436376 230.317715 
L 120.522177 227.411915 
L 121.607978 227.549084 
L 122.693779 226.502441 
L 123.77958 230.740652 
L 124.865382 225.240716 
L 125.951183 226.221914 
L 127.036984 225.752435 
L 128.122785 227.446232 
L 129.208586 224.45565 
L 130.294387 225.610484 
L 131.380189 224.014399 
L 132.46599 224.994954 
L 133.551791 223.220093 
L 135.723393 226.296193 
L 136.809194 233.253293 
L 137.894995 234.607777 
L 138.980797 233.814618 
L 140.066598 234.850493 
L 141.152399 229.748756 
L 142.2382 232.657581 
L 143.324001 233.566503 
L 144.409802 230.6178 
L 145.495604 229.785989 
L 146.581405 227.869096 
L 148.753007 235.103854 
L 149.838808 229.822465 
L 150.924609 229.967831 
L 152.01041 229.622903 
L 153.096212 231.989509 
L 154.182013 231.0714 
L 155.267814 231.474302 
L 156.353615 230.730591 
L 157.439416 230.528311 
L 158.525217 226.140524 
L 159.611019 234.73769 
L 160.69682 231.412304 
L 161.782621 233.573866 
L 163.954223 227.908149 
L 165.040024 229.973312 
L 166.125825 233.421985 
L 167.211627 233.88993 
L 168.297428 235.46686 
L 169.383229 231.658004 
L 170.46903 231.352531 
L 171.554831 233.382873 
L 172.640632 229.549699 
L 173.726434 233.313465 
L 174.812235 230.375448 
L 175.898036 233.474693 
L 176.983837 232.887892 
L 178.069638 234.063633 
L 179.155439 230.875157 
L 180.24124 230.114707 
L 181.327042 232.056611 
L 182.412843 232.177285 
L 183.498644 236.252459 
L 184.584445 235.192614 
L 185.670246 234.870743 
L 186.756047 234.843588 
L 187.841849 235.771386 
L 188.92765 229.696782 
L 190.013451 229.508098 
L 191.099252 233.515782 
L 192.185053 226.997404 
L 193.270854 232.112865 
L 194.356656 228.101989 
L 195.442457 231.622784 
L 196.528258 233.989867 
L 197.614059 229.851501 
L 198.69986 230.509159 
L 199.785661 227.80724 
L 200.871462 231.961988 
L 201.957264 230.599903 
L 203.043065 228.477868 
L 204.128866 224.313494 
L 205.214667 227.691709 
L 206.300468 227.436244 
L 207.386269 229.336577 
L 208.472071 228.277342 
L 209.557872 232.69194 
L 210.643673 225.604924 
L 211.729474 225.95225 
L 212.815275 229.04727 
L 213.901076 227.668089 
L 214.986877 228.359582 
L 216.072679 229.786154 
L 217.15848 231.721065 
L 218.244281 231.779655 
L 219.330082 230.039453 
L 220.415883 224.837197 
L 221.501684 232.047256 
L 222.587486 231.933925 
L 223.673287 230.861744 
L 224.759088 228.294693 
L 225.844889 234.496804 
L 226.93069 234.3158 
L 228.016491 230.915905 
L 229.102292 231.120254 
L 230.188094 233.777437 
L 231.273895 229.011296 
L 232.359696 230.872036 
L 233.445497 229.951742 
L 234.531298 231.027239 
L 235.617099 232.59481 
L 236.702901 232.037425 
L 237.788702 229.813993 
L 238.874503 230.541307 
L 239.960304 232.023705 
L 241.046105 230.922796 
L 242.131906 230.293865 
L 243.217708 231.66125 
L 244.303509 230.349789 
L 245.38931 228.804138 
L 246.475111 230.15481 
L 247.560912 233.082484 
L 248.646713 228.829368 
L 249.732514 232.993823 
L 250.818316 229.969776 
L 251.904117 232.139939 
L 252.989918 230.658057 
L 254.075719 230.03254 
L 255.16152 229.107592 
L 257.333123 228.839801 
L 258.418924 229.57038 
L 259.504725 229.638621 
L 260.590526 233.040544 
L 261.676327 231.733404 
L 262.762128 225.986205 
L 263.847929 231.367083 
L 264.933731 230.003102 
L 266.019532 228.965216 
L 267.105333 228.762963 
L 268.191134 230.527723 
L 269.276935 230.716445 
L 270.362736 231.290533 
L 271.448538 230.056243 
L 272.534339 229.128494 
L 273.62014 228.496959 
L 274.705941 233.549103 
L 275.791742 230.377758 
L 276.877543 230.211695 
L 277.963344 229.852472 
L 279.049146 229.997064 
L 280.134947 228.632059 
L 281.220748 229.581773 
L 282.306549 229.36462 
L 283.39235 231.424166 
L 284.478151 230.285622 
L 285.563953 233.980097 
L 286.649754 232.234523 
L 287.735555 231.631284 
L 288.821356 227.970042 
L 289.907157 230.497222 
L 290.992958 233.601834 
L 292.07876 228.909637 
L 293.164561 230.389905 
L 294.250362 230.85059 
L 295.336163 230.112362 
L 296.421964 227.313897 
L 297.507765 231.919407 
L 298.593566 233.626186 
L 299.679368 229.125116 
L 300.765169 230.498158 
L 301.85097 229.886652 
L 302.936771 230.321504 
L 304.022572 225.737865 
L 305.108373 228.349103 
L 306.194175 235.349143 
L 307.279976 231.844462 
L 308.365777 227.564888 
L 309.451578 230.733756 
L 310.537379 229.775863 
L 311.62318 227.119476 
L 312.708981 234.648089 
L 313.794783 227.65801 
L 314.880584 230.761552 
L 315.966385 227.787528 
L 317.052186 230.449439 
L 318.137987 232.060661 
L 319.223788 228.599226 
L 320.30959 229.327306 
L 321.395391 230.767139 
L 322.481192 231.118157 
L 323.566993 229.796723 
L 324.652794 232.735722 
L 325.738595 227.817457 
L 326.824396 227.549213 
L 327.910198 228.861197 
L 328.995999 229.257583 
L 330.0818 230.786234 
L 331.167601 228.026904 
L 332.253402 230.137374 
L 333.339203 230.275046 
L 334.425005 229.7863 
L 335.510806 228.982697 
L 336.596607 229.486695 
L 337.682408 228.618393 
L 338.768209 228.935532 
L 339.85401 226.21898 
L 340.939811 228.449242 
L 342.025613 229.696808 
L 343.111414 229.033292 
L 344.197215 231.966436 
L 345.283016 226.887072 
L 346.368817 227.886183 
L 347.454618 231.357069 
L 348.54042 230.635961 
L 349.626221 227.361359 
L 350.712022 231.172953 
L 351.797823 228.393289 
L 352.883624 230.008118 
L 353.969425 227.015186 
L 355.055227 232.317225 
L 356.141028 226.500982 
L 357.226829 231.291298 
L 358.31263 229.279981 
L 359.398431 231.707569 
L 360.484232 232.323261 
L 361.570033 228.762324 
L 362.655835 229.499389 
L 363.741636 231.294639 
L 364.827437 229.980076 
L 365.913238 230.66906 
L 366.999039 229.217971 
L 368.08484 229.115729 
L 369.170642 228.596838 
L 370.256443 232.029894 
L 371.342244 231.82117 
L 372.428045 224.087311 
L 373.513846 229.553986 
L 374.599647 228.580184 
L 375.685448 231.635437 
L 376.77125 230.760272 
L 377.857051 233.032281 
L 378.942852 230.455029 
L 380.028653 226.715874 
L 382.200255 230.3471 
L 383.286057 226.784882 
L 384.371858 229.903245 
L 385.457659 231.213744 
L 386.54346 229.005249 
L 387.629261 228.533081 
L 388.715062 232.361457 
L 389.800863 231.118626 
L 390.886665 228.646543 
L 391.972466 230.826265 
L 393.058267 227.487923 
L 394.144068 230.37498 
L 395.229869 227.325078 
L 396.31567 229.091629 
L 397.401472 226.917454 
L 398.487273 228.625174 
L 398.487273 228.625174 
" style="fill:none;stroke:#0000ff;stroke-linecap:square;stroke-width:1.5;"/>
   </g>
   <g id="line2d_32">
    <path clip-path="url(#pb33d1790ac)" d="M 73.832727 281.430032 
L 74.918528 278.682796 
L 76.00433 281.623992 
L 77.090131 280.84145 
L 78.175932 278.647012 
L 79.261733 280.058432 
L 80.347534 279.453737 
L 81.433335 278.581547 
L 82.519137 277.122526 
L 83.604938 280.371112 
L 84.690739 278.655535 
L 85.77654 281.288828 
L 86.862341 275.911056 
L 87.948142 275.57575 
L 89.033943 279.630101 
L 90.119745 281.123446 
L 91.205546 277.959907 
L 92.291347 276.023363 
L 93.377148 279.845291 
L 94.462949 277.394794 
L 95.54875 277.305519 
L 96.634552 277.890651 
L 97.720353 274.132167 
L 98.806154 273.416531 
L 99.891955 273.824216 
L 100.977756 275.657082 
L 102.063557 274.801977 
L 103.149358 275.825354 
L 104.23516 277.186255 
L 105.320961 277.344949 
L 106.406762 277.291435 
L 107.492563 281.832248 
L 109.664165 276.96246 
L 110.749967 279.03173 
L 111.835768 276.370172 
L 112.921569 281.789624 
L 114.00737 278.075526 
L 115.093171 280.939617 
L 116.178972 278.406067 
L 117.264773 275.476454 
L 118.350575 280.961502 
L 119.436376 283.930761 
L 120.522177 281.320038 
L 121.607978 281.721426 
L 122.693779 279.536786 
L 123.77958 284.343416 
L 124.865382 279.208905 
L 125.951183 280.334362 
L 127.036984 280.325305 
L 128.122785 281.375185 
L 129.208586 279.170249 
L 130.294387 281.212023 
L 131.380189 279.448419 
L 132.46599 279.802361 
L 133.551791 277.864372 
L 134.637592 281.215289 
L 135.723393 282.198721 
L 137.894995 285.30555 
L 138.980797 284.769755 
L 140.066598 286.934522 
L 141.152399 280.792233 
L 142.2382 284.870069 
L 143.324001 284.473863 
L 144.409802 282.962105 
L 145.495604 283.621102 
L 146.581405 282.179563 
L 147.667206 284.615059 
L 148.753007 287.639749 
L 149.838808 284.33121 
L 150.924609 283.662844 
L 152.01041 284.432076 
L 153.096212 284.111798 
L 155.267814 284.883691 
L 156.353615 284.372814 
L 157.439416 284.213302 
L 158.525217 280.131754 
L 159.611019 288.737262 
L 160.69682 286.669707 
L 161.782621 287.891782 
L 162.868422 284.379887 
L 163.954223 282.764086 
L 165.040024 283.246636 
L 166.125825 287.699077 
L 167.211627 287.604776 
L 168.297428 290.687143 
L 169.383229 286.43176 
L 170.46903 285.585362 
L 171.554831 287.387103 
L 172.640632 283.969213 
L 173.726434 288.222243 
L 174.812235 286.649385 
L 175.898036 287.039231 
L 176.983837 287.807807 
L 178.069638 288.177491 
L 179.155439 286.175418 
L 180.24124 285.130608 
L 181.327042 287.152738 
L 182.412843 287.38822 
L 183.498644 291.204819 
L 184.584445 290.063171 
L 185.670246 290.328743 
L 186.756047 290.198979 
L 187.841849 290.353204 
L 188.92765 286.047966 
L 190.013451 286.720676 
L 191.099252 289.101327 
L 192.185053 283.569102 
L 193.270854 288.864182 
L 194.356656 283.658459 
L 195.442457 287.415711 
L 196.528258 291.995203 
L 197.614059 285.702724 
L 198.69986 287.046501 
L 199.785661 284.132011 
L 200.871462 289.308801 
L 201.957264 286.448057 
L 203.043065 285.274808 
L 204.128866 281.715825 
L 205.214667 285.790426 
L 206.300468 283.555608 
L 207.386269 286.204064 
L 208.472071 285.045264 
L 209.557872 289.706058 
L 210.643673 282.411062 
L 211.729474 284.005699 
L 212.815275 287.180816 
L 213.901076 284.813727 
L 214.986877 285.959234 
L 216.072679 286.436851 
L 217.15848 287.572829 
L 218.244281 289.388818 
L 219.330082 288.785761 
L 220.415883 282.967326 
L 221.501684 289.534257 
L 222.587486 290.355357 
L 223.673287 289.182886 
L 224.759088 286.427599 
L 225.844889 290.923061 
L 226.93069 290.417998 
L 228.016491 288.117403 
L 229.102292 288.747296 
L 230.188094 291.260364 
L 231.273895 287.957516 
L 232.359696 288.8377 
L 233.445497 287.565699 
L 234.531298 288.101531 
L 235.617099 289.71928 
L 236.702901 289.988207 
L 237.788702 287.897784 
L 238.874503 290.195881 
L 239.960304 289.856619 
L 241.046105 291.055355 
L 242.131906 288.139025 
L 243.217708 289.299429 
L 244.303509 288.448922 
L 245.38931 287.25437 
L 246.475111 288.096621 
L 247.560912 291.131927 
L 248.646713 287.384565 
L 249.732514 290.954558 
L 250.818316 288.058705 
L 251.904117 289.635374 
L 252.989918 288.516739 
L 254.075719 287.812142 
L 255.16152 287.254633 
L 256.247321 288.075857 
L 257.333123 287.368182 
L 258.418924 289.06243 
L 259.504725 288.962618 
L 260.590526 290.530933 
L 261.676327 290.541055 
L 262.762128 285.050594 
L 263.847929 290.632585 
L 264.933731 290.293551 
L 266.019532 287.407862 
L 267.105333 287.248711 
L 268.191134 289.838605 
L 269.276935 290.626878 
L 270.362736 290.440713 
L 271.448538 289.237999 
L 272.534339 288.579437 
L 273.62014 286.517468 
L 274.705941 292.369001 
L 275.791742 288.371768 
L 276.877543 290.025088 
L 277.963344 291.153197 
L 279.049146 291.826952 
L 280.134947 289.290825 
L 281.220748 288.281001 
L 282.306549 288.709202 
L 283.39235 289.635413 
L 284.478151 289.755718 
L 285.563953 292.796439 
L 288.821356 288.541082 
L 289.907157 289.777924 
L 290.992958 292.841111 
L 292.07876 289.198658 
L 293.164561 289.567372 
L 294.250362 290.942538 
L 296.421964 286.520082 
L 298.593566 292.609597 
L 299.679368 287.108852 
L 300.765169 289.769121 
L 301.85097 288.881123 
L 302.936771 289.554141 
L 304.022572 286.382578 
L 305.108373 288.899342 
L 306.194175 294.640249 
L 307.279976 289.676853 
L 308.365777 286.474204 
L 309.451578 290.961367 
L 311.62318 286.982323 
L 312.708981 292.658492 
L 313.794783 288.253815 
L 314.880584 290.925931 
L 315.966385 288.19708 
L 317.052186 290.3802 
L 318.137987 291.002324 
L 319.223788 288.291894 
L 320.30959 289.77942 
L 321.395391 290.51769 
L 322.481192 290.966472 
L 323.566993 289.692827 
L 324.652794 291.874757 
L 325.738595 288.437336 
L 326.824396 288.949023 
L 327.910198 288.117924 
L 328.995999 289.888902 
L 330.0818 291.157909 
L 331.167601 289.371966 
L 332.253402 288.986333 
L 333.339203 291.713601 
L 334.425005 290.263529 
L 337.682408 288.796358 
L 338.768209 290.333559 
L 339.85401 286.946678 
L 340.939811 289.432159 
L 342.025613 288.855639 
L 343.111414 289.190904 
L 344.197215 292.239216 
L 345.283016 288.440987 
L 346.368817 288.512098 
L 347.454618 291.586153 
L 348.54042 290.680111 
L 349.626221 287.961979 
L 350.712022 292.500846 
L 351.797823 289.281842 
L 352.883624 290.529556 
L 353.969425 288.255013 
L 355.055227 294.181496 
L 356.141028 288.401748 
L 357.226829 292.752426 
L 358.31263 289.066146 
L 359.398431 294.170631 
L 360.484232 293.223861 
L 361.570033 289.577967 
L 362.655835 291.227047 
L 363.741636 293.291178 
L 364.827437 291.932598 
L 365.913238 293.022067 
L 366.999039 291.439279 
L 368.08484 290.376502 
L 369.170642 291.030898 
L 370.256443 295.488 
L 371.342244 292.356311 
L 372.428045 284.580118 
L 373.513846 291.486335 
L 374.599647 291.661564 
L 375.685448 293.791892 
L 376.77125 292.179226 
L 377.857051 293.927951 
L 378.942852 292.153417 
L 380.028653 287.766522 
L 381.114454 288.608074 
L 382.200255 292.230006 
L 383.286057 288.577506 
L 384.371858 290.894794 
L 385.457659 292.348424 
L 386.54346 290.236681 
L 387.629261 289.841384 
L 388.715062 293.677214 
L 389.800863 291.810248 
L 390.886665 289.668895 
L 391.972466 291.132902 
L 393.058267 289.354117 
L 394.144068 293.099298 
L 395.229869 290.510143 
L 396.31567 290.45887 
L 397.401472 287.665759 
L 398.487273 290.228448 
L 398.487273 290.228448 
" style="fill:none;stroke:#008000;stroke-dasharray:9.6,2.4,1.5,2.4;stroke-dashoffset:0;stroke-width:1.5;"/>
   </g>
   <g id="line2d_33">
    <path clip-path="url(#pb33d1790ac)" d="M 73.832727 252.189373 
L 74.918528 246.329462 
L 76.00433 237.013262 
L 77.090131 231.407029 
L 79.261733 219.070763 
L 80.347534 216.552137 
L 81.433335 208.73459 
L 82.519137 204.681486 
L 83.604938 207.570812 
L 84.690739 205.415839 
L 85.77654 202.453181 
L 86.862341 198.722058 
L 87.948142 194.421435 
L 89.033943 194.177774 
L 90.119745 197.712955 
L 91.205546 190.654329 
L 92.291347 192.677806 
L 93.377148 190.441123 
L 94.462949 189.299662 
L 95.54875 187.734418 
L 96.634552 186.773821 
L 97.720353 180.989033 
L 98.806154 177.82217 
L 99.891955 178.520609 
L 100.977756 176.09609 
L 102.063557 177.570163 
L 103.149358 176.251392 
L 104.23516 178.388773 
L 105.320961 178.286992 
L 106.406762 177.343755 
L 107.492563 179.827145 
L 108.578364 178.970594 
L 109.664165 175.862812 
L 110.749967 175.92648 
L 111.835768 174.798445 
L 112.921569 177.606735 
L 114.00737 176.26502 
L 115.093171 178.44184 
L 116.178972 177.017611 
L 117.264773 171.450808 
L 118.350575 175.446243 
L 119.436376 176.704669 
L 120.522177 173.503792 
L 121.607978 173.376741 
L 122.693779 173.468096 
L 123.77958 177.137888 
L 124.865382 171.272528 
L 125.951183 172.109467 
L 127.036984 171.179566 
L 128.122785 173.517279 
L 129.208586 169.741052 
L 130.294387 170.008945 
L 131.380189 168.58038 
L 132.46599 170.187547 
L 133.551791 168.575815 
L 134.637592 168.387985 
L 135.723393 170.393664 
L 136.809194 182.71133 
L 137.894995 183.910004 
L 138.980797 182.859481 
L 140.066598 182.766464 
L 141.152399 178.70528 
L 142.2382 180.445094 
L 143.324001 182.659143 
L 144.409802 178.273495 
L 146.581405 173.558629 
L 148.753007 182.567959 
L 149.838808 175.31372 
L 150.924609 176.272819 
L 152.01041 174.81373 
L 153.096212 179.867219 
L 154.182013 177.700496 
L 155.267814 178.064913 
L 156.353615 177.088368 
L 157.439416 176.84332 
L 158.525217 172.149294 
L 159.611019 180.738118 
L 160.69682 176.1549 
L 161.782621 179.25595 
L 162.868422 177.071204 
L 163.954223 173.052212 
L 165.040024 176.699989 
L 166.125825 179.144892 
L 167.211627 180.175083 
L 168.297428 180.246578 
L 169.383229 176.884248 
L 170.46903 177.1197 
L 171.554831 179.378642 
L 172.640632 175.130185 
L 173.726434 178.404688 
L 174.812235 174.10151 
L 175.898036 179.910155 
L 176.983837 177.967977 
L 178.069638 179.949775 
L 179.155439 175.574896 
L 180.24124 175.098806 
L 181.327042 176.960483 
L 182.412843 176.96635 
L 183.498644 181.300098 
L 185.670246 179.412743 
L 186.756047 179.488196 
L 187.841849 181.189569 
L 188.92765 173.345598 
L 190.013451 172.29552 
L 191.099252 177.930237 
L 192.185053 170.425706 
L 193.270854 175.361548 
L 194.356656 172.545519 
L 195.442457 175.829856 
L 196.528258 175.984531 
L 197.614059 174.000278 
L 198.69986 173.971817 
L 199.785661 171.482469 
L 200.871462 174.615176 
L 201.957264 174.751749 
L 203.043065 171.680929 
L 204.128866 166.911162 
L 205.214667 169.592992 
L 206.300468 171.31688 
L 207.386269 172.469089 
L 208.472071 171.50942 
L 209.557872 175.677823 
L 210.643673 168.798786 
L 211.729474 167.898801 
L 212.815275 170.913724 
L 213.901076 170.522452 
L 214.986877 170.75993 
L 216.072679 173.135456 
L 217.15848 175.869301 
L 218.244281 174.170492 
L 219.330082 171.293144 
L 220.415883 166.707067 
L 221.501684 174.560254 
L 223.673287 172.540603 
L 224.759088 170.161787 
L 225.844889 178.070548 
L 226.93069 178.213603 
L 228.016491 173.714407 
L 229.102292 173.493212 
L 230.188094 176.294511 
L 231.273895 170.065076 
L 232.359696 172.906373 
L 233.445497 172.337785 
L 235.617099 175.470339 
L 236.702901 174.086642 
L 237.788702 171.730201 
L 238.874503 170.886733 
L 239.960304 174.190791 
L 241.046105 170.790236 
L 243.217708 174.02307 
L 245.38931 170.353906 
L 246.475111 172.212998 
L 247.560912 175.03304 
L 248.646713 170.274172 
L 249.732514 175.033087 
L 250.818316 171.880848 
L 251.904117 174.644503 
L 252.989918 172.799375 
L 254.075719 172.252938 
L 256.247321 169.772517 
L 257.333123 170.311421 
L 258.418924 170.07833 
L 259.504725 170.314624 
L 260.590526 175.550155 
L 261.676327 172.925752 
L 262.762128 166.921817 
L 263.847929 172.101581 
L 264.933731 169.712653 
L 266.019532 170.522571 
L 267.105333 170.277214 
L 268.191134 171.21684 
L 269.276935 170.806013 
L 270.362736 172.140354 
L 272.534339 169.677551 
L 273.62014 170.476449 
L 274.705941 174.729205 
L 275.791742 172.383749 
L 277.963344 168.551747 
L 279.049146 168.167176 
L 280.134947 167.973293 
L 281.220748 170.882545 
L 282.306549 170.020038 
L 283.39235 173.212919 
L 284.478151 170.815526 
L 285.563953 175.163755 
L 286.649754 173.074601 
L 287.735555 173.45149 
L 288.821356 167.399001 
L 289.907157 171.216519 
L 290.992958 174.362557 
L 292.07876 168.620616 
L 293.164561 171.212437 
L 294.250362 170.758642 
L 295.336163 171.50437 
L 296.421964 168.107712 
L 297.507765 174.284808 
L 298.593566 174.642775 
L 299.679368 171.14138 
L 300.765169 171.227195 
L 301.85097 170.89218 
L 302.936771 171.088867 
L 304.022572 165.093151 
L 305.108373 167.798864 
L 306.194175 176.058037 
L 307.279976 174.012071 
L 308.365777 168.655573 
L 309.451578 170.506145 
L 310.537379 170.506472 
L 311.62318 167.256628 
L 312.708981 176.637687 
L 313.794783 167.062205 
L 314.880584 170.597174 
L 315.966385 167.377976 
L 317.052186 170.518678 
L 318.137987 173.118997 
L 319.223788 168.906557 
L 320.30959 168.875192 
L 321.395391 171.016588 
L 322.481192 171.269842 
L 323.566993 169.900619 
L 324.652794 173.596687 
L 325.738595 167.197577 
L 326.824396 166.149404 
L 327.910198 169.60447 
L 328.995999 168.626265 
L 330.0818 170.414558 
L 331.167601 166.681842 
L 332.253402 171.288414 
L 333.339203 168.836492 
L 334.425005 169.30907 
L 335.510806 168.18498 
L 336.596607 169.765683 
L 337.682408 168.440428 
L 338.768209 167.537506 
L 339.85401 165.491281 
L 340.939811 167.466324 
L 342.025613 170.537977 
L 343.111414 168.87568 
L 344.197215 171.693656 
L 345.283016 165.333157 
L 346.368817 167.260267 
L 347.454618 171.127984 
L 348.54042 170.59181 
L 349.626221 166.760739 
L 350.712022 169.845059 
L 351.797823 167.504736 
L 352.883624 169.48668 
L 353.969425 165.77536 
L 355.055227 170.452953 
L 356.141028 164.600216 
L 357.226829 169.830171 
L 359.398431 169.244507 
L 360.484232 171.422662 
L 361.570033 167.946682 
L 362.655835 167.771731 
L 363.741636 169.2981 
L 364.827437 168.027555 
L 365.913238 168.316054 
L 366.999039 166.996663 
L 368.08484 167.854956 
L 369.170642 166.162778 
L 370.256443 168.571787 
L 371.342244 171.286029 
L 372.428045 163.594505 
L 373.513846 167.621637 
L 374.599647 165.498805 
L 375.685448 169.478983 
L 376.77125 169.341319 
L 377.857051 172.136611 
L 380.028653 165.665226 
L 381.114454 168.507597 
L 382.200255 168.464194 
L 383.286057 164.992259 
L 384.371858 168.911696 
L 385.457659 170.079065 
L 386.54346 167.773818 
L 387.629261 167.224778 
L 388.715062 171.0457 
L 389.800863 170.427003 
L 390.886665 167.624191 
L 391.972466 170.519629 
L 393.058267 165.621729 
L 394.144068 167.650662 
L 395.229869 164.140012 
L 396.31567 167.724388 
L 397.401472 166.169149 
L 398.487273 167.0219 
L 398.487273 167.0219 
" style="fill:none;stroke:#008000;stroke-dasharray:9.6,2.4,1.5,2.4;stroke-dashoffset:0;stroke-width:1.5;"/>
   </g>
   <g id="line2d_34">
    <path clip-path="url(#pb33d1790ac)" d="M 73.832727 199.619644 
L 74.918528 179.75187 
L 76.00433 172.298225 
L 77.090131 161.43798 
L 78.175932 161.43798 
L 79.261733 145.512918 
L 81.433335 145.512918 
L 82.519137 136.238619 
L 86.862341 136.238619 
L 87.948142 102.926452 
L 134.637592 102.926452 
L 135.723393 86.14086 
L 261.676327 86.14086 
L 262.762128 53.568 
L 398.487273 53.568 
L 398.487273 53.568 
" style="fill:none;stroke:#ff0000;stroke-linecap:square;stroke-width:1.5;"/>
   </g>
   <g id="patch_3">
    <path d="M 57.6 307.584 
L 57.6 41.472 
" style="fill:none;stroke:#000000;stroke-linecap:square;stroke-linejoin:miter;stroke-width:0.8;"/>
   </g>
   <g id="patch_4">
    <path d="M 414.72 307.584 
L 414.72 41.472 
" style="fill:none;stroke:#000000;stroke-linecap:square;stroke-linejoin:miter;stroke-width:0.8;"/>
   </g>
   <g id="patch_5">
    <path d="M 57.6 307.584 
L 414.72 307.584 
" style="fill:none;stroke:#000000;stroke-linecap:square;stroke-linejoin:miter;stroke-width:0.8;"/>
   </g>
   <g id="patch_6">
    <path d="M 57.6 41.472 
L 414.72 41.472 
" style="fill:none;stroke:#000000;stroke-linecap:square;stroke-linejoin:miter;stroke-width:0.8;"/>
   </g>
   <g id="text_18">
    <!-- Population's average and best fitness -->
    <defs>
     <path d="M 19.671875 64.796875 
L 19.671875 37.40625 
L 32.078125 37.40625 
Q 38.96875 37.40625 42.71875 40.96875 
Q 46.484375 44.53125 46.484375 51.125 
Q 46.484375 57.671875 42.71875 61.234375 
Q 38.96875 64.796875 32.078125 64.796875 
z
M 9.8125 72.90625 
L 32.078125 72.90625 
Q 44.34375 72.90625 50.609375 67.359375 
Q 56.890625 61.8125 56.890625 51.125 
Q 56.890625 40.328125 50.609375 34.8125 
Q 44.34375 29.296875 32.078125 29.296875 
L 19.671875 29.296875 
L 19.671875 0 
L 9.8125 0 
z
" id="DejaVuSans-80"/>
     <path d="M 18.109375 8.203125 
L 18.109375 -20.796875 
L 9.078125 -20.796875 
L 9.078125 54.6875 
L 18.109375 54.6875 
L 18.109375 46.390625 
Q 20.953125 51.265625 25.265625 53.625 
Q 29.59375 56 35.59375 56 
Q 45.5625 56 51.78125 48.09375 
Q 58.015625 40.1875 58.015625 27.296875 
Q 58.015625 14.40625 51.78125 6.484375 
Q 45.5625 -1.421875 35.59375 -1.421875 
Q 29.59375 -1.421875 25.265625 0.953125 
Q 20.953125 3.328125 18.109375 8.203125 
z
M 48.6875 27.296875 
Q 48.6875 37.203125 44.609375 42.84375 
Q 40.53125 48.484375 33.40625 48.484375 
Q 26.265625 48.484375 22.1875 42.84375 
Q 18.109375 37.203125 18.109375 27.296875 
Q 18.109375 17.390625 22.1875 11.75 
Q 26.265625 6.109375 33.40625 6.109375 
Q 40.53125 6.109375 44.609375 11.75 
Q 48.6875 17.390625 48.6875 27.296875 
z
" id="DejaVuSans-112"/>
     <path d="M 8.5 21.578125 
L 8.5 54.6875 
L 17.484375 54.6875 
L 17.484375 21.921875 
Q 17.484375 14.15625 20.5 10.265625 
Q 23.53125 6.390625 29.59375 6.390625 
Q 36.859375 6.390625 41.078125 11.03125 
Q 45.3125 15.671875 45.3125 23.6875 
L 45.3125 54.6875 
L 54.296875 54.6875 
L 54.296875 0 
L 45.3125 0 
L 45.3125 8.40625 
Q 42.046875 3.421875 37.71875 1 
Q 33.40625 -1.421875 27.6875 -1.421875 
Q 18.265625 -1.421875 13.375 4.4375 
Q 8.5 10.296875 8.5 21.578125 
z
M 31.109375 56 
z
" id="DejaVuSans-117"/>
     <path d="M 9.421875 75.984375 
L 18.40625 75.984375 
L 18.40625 0 
L 9.421875 0 
z
" id="DejaVuSans-108"/>
     <path d="M 17.921875 72.90625 
L 17.921875 45.796875 
L 9.625 45.796875 
L 9.625 72.90625 
z
" id="DejaVuSans-39"/>
     <path id="DejaVuSans-32"/>
     <path d="M 2.984375 54.6875 
L 12.5 54.6875 
L 29.59375 8.796875 
L 46.6875 54.6875 
L 56.203125 54.6875 
L 35.6875 0 
L 23.484375 0 
z
" id="DejaVuSans-118"/>
     <path d="M 45.40625 27.984375 
Q 45.40625 37.75 41.375 43.109375 
Q 37.359375 48.484375 30.078125 48.484375 
Q 22.859375 48.484375 18.828125 43.109375 
Q 14.796875 37.75 14.796875 27.984375 
Q 14.796875 18.265625 18.828125 12.890625 
Q 22.859375 7.515625 30.078125 7.515625 
Q 37.359375 7.515625 41.375 12.890625 
Q 45.40625 18.265625 45.40625 27.984375 
z
M 54.390625 6.78125 
Q 54.390625 -7.171875 48.1875 -13.984375 
Q 42 -20.796875 29.203125 -20.796875 
Q 24.46875 -20.796875 20.265625 -20.09375 
Q 16.0625 -19.390625 12.109375 -17.921875 
L 12.109375 -9.1875 
Q 16.0625 -11.328125 19.921875 -12.34375 
Q 23.78125 -13.375 27.78125 -13.375 
Q 36.625 -13.375 41.015625 -8.765625 
Q 45.40625 -4.15625 45.40625 5.171875 
L 45.40625 9.625 
Q 42.625 4.78125 38.28125 2.390625 
Q 33.9375 0 27.875 0 
Q 17.828125 0 11.671875 7.65625 
Q 5.515625 15.328125 5.515625 27.984375 
Q 5.515625 40.671875 11.671875 48.328125 
Q 17.828125 56 27.875 56 
Q 33.9375 56 38.28125 53.609375 
Q 42.625 51.21875 45.40625 46.390625 
L 45.40625 54.6875 
L 54.390625 54.6875 
z
" id="DejaVuSans-103"/>
     <path d="M 45.40625 46.390625 
L 45.40625 75.984375 
L 54.390625 75.984375 
L 54.390625 0 
L 45.40625 0 
L 45.40625 8.203125 
Q 42.578125 3.328125 38.25 0.953125 
Q 33.9375 -1.421875 27.875 -1.421875 
Q 17.96875 -1.421875 11.734375 6.484375 
Q 5.515625 14.40625 5.515625 27.296875 
Q 5.515625 40.1875 11.734375 48.09375 
Q 17.96875 56 27.875 56 
Q 33.9375 56 38.25 53.625 
Q 42.578125 51.265625 45.40625 46.390625 
z
M 14.796875 27.296875 
Q 14.796875 17.390625 18.875 11.75 
Q 22.953125 6.109375 30.078125 6.109375 
Q 37.203125 6.109375 41.296875 11.75 
Q 45.40625 17.390625 45.40625 27.296875 
Q 45.40625 37.203125 41.296875 42.84375 
Q 37.203125 48.484375 30.078125 48.484375 
Q 22.953125 48.484375 18.875 42.84375 
Q 14.796875 37.203125 14.796875 27.296875 
z
" id="DejaVuSans-100"/>
     <path d="M 48.6875 27.296875 
Q 48.6875 37.203125 44.609375 42.84375 
Q 40.53125 48.484375 33.40625 48.484375 
Q 26.265625 48.484375 22.1875 42.84375 
Q 18.109375 37.203125 18.109375 27.296875 
Q 18.109375 17.390625 22.1875 11.75 
Q 26.265625 6.109375 33.40625 6.109375 
Q 40.53125 6.109375 44.609375 11.75 
Q 48.6875 17.390625 48.6875 27.296875 
z
M 18.109375 46.390625 
Q 20.953125 51.265625 25.265625 53.625 
Q 29.59375 56 35.59375 56 
Q 45.5625 56 51.78125 48.09375 
Q 58.015625 40.1875 58.015625 27.296875 
Q 58.015625 14.40625 51.78125 6.484375 
Q 45.5625 -1.421875 35.59375 -1.421875 
Q 29.59375 -1.421875 25.265625 0.953125 
Q 20.953125 3.328125 18.109375 8.203125 
L 18.109375 0 
L 9.078125 0 
L 9.078125 75.984375 
L 18.109375 75.984375 
z
" id="DejaVuSans-98"/>
     <path d="M 37.109375 75.984375 
L 37.109375 68.5 
L 28.515625 68.5 
Q 23.6875 68.5 21.796875 66.546875 
Q 19.921875 64.59375 19.921875 59.515625 
L 19.921875 54.6875 
L 34.71875 54.6875 
L 34.71875 47.703125 
L 19.921875 47.703125 
L 19.921875 0 
L 10.890625 0 
L 10.890625 47.703125 
L 2.296875 47.703125 
L 2.296875 54.6875 
L 10.890625 54.6875 
L 10.890625 58.5 
Q 10.890625 67.625 15.140625 71.796875 
Q 19.390625 75.984375 28.609375 75.984375 
z
" id="DejaVuSans-102"/>
    </defs>
    <g transform="translate(123.315 35.472)scale(0.12 -0.12)">
     <use xlink:href="#DejaVuSans-80"/>
     <use x="60.255859" xlink:href="#DejaVuSans-111"/>
     <use x="121.4375" xlink:href="#DejaVuSans-112"/>
     <use x="184.914062" xlink:href="#DejaVuSans-117"/>
     <use x="248.292969" xlink:href="#DejaVuSans-108"/>
     <use x="276.076172" xlink:href="#DejaVuSans-97"/>
     <use x="337.355469" xlink:href="#DejaVuSans-116"/>
     <use x="376.564453" xlink:href="#DejaVuSans-105"/>
     <use x="404.347656" xlink:href="#DejaVuSans-111"/>
     <use x="465.529297" xlink:href="#DejaVuSans-110"/>
     <use x="528.908203" xlink:href="#DejaVuSans-39"/>
     <use x="556.398438" xlink:href="#DejaVuSans-115"/>
     <use x="608.498047" xlink:href="#DejaVuSans-32"/>
     <use x="640.285156" xlink:href="#DejaVuSans-97"/>
     <use x="701.564453" xlink:href="#DejaVuSans-118"/>
     <use x="760.744141" xlink:href="#DejaVuSans-101"/>
     <use x="822.267578" xlink:href="#DejaVuSans-114"/>
     <use x="863.380859" xlink:href="#DejaVuSans-97"/>
     <use x="924.660156" xlink:href="#DejaVuSans-103"/>
     <use x="988.136719" xlink:href="#DejaVuSans-101"/>
     <use x="1049.660156" xlink:href="#DejaVuSans-32"/>
     <use x="1081.447266" xlink:href="#DejaVuSans-97"/>
     <use x="1142.726562" xlink:href="#DejaVuSans-110"/>
     <use x="1206.105469" xlink:href="#DejaVuSans-100"/>
     <use x="1269.582031" xlink:href="#DejaVuSans-32"/>
     <use x="1301.369141" xlink:href="#DejaVuSans-98"/>
     <use x="1364.845703" xlink:href="#DejaVuSans-101"/>
     <use x="1426.369141" xlink:href="#DejaVuSans-115"/>
     <use x="1478.46875" xlink:href="#DejaVuSans-116"/>
     <use x="1517.677734" xlink:href="#DejaVuSans-32"/>
     <use x="1549.464844" xlink:href="#DejaVuSans-102"/>
     <use x="1584.669922" xlink:href="#DejaVuSans-105"/>
     <use x="1612.453125" xlink:href="#DejaVuSans-116"/>
     <use x="1651.662109" xlink:href="#DejaVuSans-110"/>
     <use x="1715.041016" xlink:href="#DejaVuSans-101"/>
     <use x="1776.564453" xlink:href="#DejaVuSans-115"/>
     <use x="1828.664062" xlink:href="#DejaVuSans-115"/>
    </g>
   </g>
   <g id="legend_1">
    <g id="patch_7">
     <path d="M 64.6 108.1845 
L 137.540625 108.1845 
Q 139.540625 108.1845 139.540625 106.1845 
L 139.540625 48.472 
Q 139.540625 46.472 137.540625 46.472 
L 64.6 46.472 
Q 62.6 46.472 62.6 48.472 
L 62.6 106.1845 
Q 62.6 108.1845 64.6 108.1845 
z
" style="fill:#ffffff;opacity:0.8;stroke:#cccccc;stroke-linejoin:miter;"/>
    </g>
    <g id="line2d_35">
     <path d="M 66.6 54.570438 
L 86.6 54.570438 
" style="fill:none;stroke:#0000ff;stroke-linecap:square;stroke-width:1.5;"/>
    </g>
    <g id="line2d_36"/>
    <g id="text_19">
     <!-- average -->
     <g transform="translate(94.6 58.070438)scale(0.1 -0.1)">
      <use xlink:href="#DejaVuSans-97"/>
      <use x="61.279297" xlink:href="#DejaVuSans-118"/>
      <use x="120.458984" xlink:href="#DejaVuSans-101"/>
      <use x="181.982422" xlink:href="#DejaVuSans-114"/>
      <use x="223.095703" xlink:href="#DejaVuSans-97"/>
      <use x="284.375" xlink:href="#DejaVuSans-103"/>
      <use x="347.851562" xlink:href="#DejaVuSans-101"/>
     </g>
    </g>
    <g id="line2d_37">
     <path d="M 66.6 69.248563 
L 86.6 69.248563 
" style="fill:none;stroke:#008000;stroke-dasharray:9.6,2.4,1.5,2.4;stroke-dashoffset:0;stroke-width:1.5;"/>
    </g>
    <g id="line2d_38"/>
    <g id="text_20">
     <!-- -1 sd -->
     <defs>
      <path d="M 4.890625 31.390625 
L 31.203125 31.390625 
L 31.203125 23.390625 
L 4.890625 23.390625 
z
" id="DejaVuSans-45"/>
     </defs>
     <g transform="translate(94.6 72.748563)scale(0.1 -0.1)">
      <use xlink:href="#DejaVuSans-45"/>
      <use x="36.083984" xlink:href="#DejaVuSans-49"/>
      <use x="99.707031" xlink:href="#DejaVuSans-32"/>
      <use x="131.494141" xlink:href="#DejaVuSans-115"/>
      <use x="183.59375" xlink:href="#DejaVuSans-100"/>
     </g>
    </g>
    <g id="line2d_39">
     <path d="M 66.6 83.926688 
L 86.6 83.926688 
" style="fill:none;stroke:#008000;stroke-dasharray:9.6,2.4,1.5,2.4;stroke-dashoffset:0;stroke-width:1.5;"/>
    </g>
    <g id="line2d_40"/>
    <g id="text_21">
     <!-- +1 sd -->
     <defs>
      <path d="M 46 62.703125 
L 46 35.5 
L 73.1875 35.5 
L 73.1875 27.203125 
L 46 27.203125 
L 46 0 
L 37.796875 0 
L 37.796875 27.203125 
L 10.59375 27.203125 
L 10.59375 35.5 
L 37.796875 35.5 
L 37.796875 62.703125 
z
" id="DejaVuSans-43"/>
     </defs>
     <g transform="translate(94.6 87.426688)scale(0.1 -0.1)">
      <use xlink:href="#DejaVuSans-43"/>
      <use x="83.789062" xlink:href="#DejaVuSans-49"/>
      <use x="147.412109" xlink:href="#DejaVuSans-32"/>
      <use x="179.199219" xlink:href="#DejaVuSans-115"/>
      <use x="231.298828" xlink:href="#DejaVuSans-100"/>
     </g>
    </g>
    <g id="line2d_41">
     <path d="M 66.6 98.604813 
L 86.6 98.604813 
" style="fill:none;stroke:#ff0000;stroke-linecap:square;stroke-width:1.5;"/>
    </g>
    <g id="line2d_42"/>
    <g id="text_22">
     <!-- best -->
     <g transform="translate(94.6 102.104813)scale(0.1 -0.1)">
      <use xlink:href="#DejaVuSans-98"/>
      <use x="63.476562" xlink:href="#DejaVuSans-101"/>
      <use x="125" xlink:href="#DejaVuSans-115"/>
      <use x="177.099609" xlink:href="#DejaVuSans-116"/>
     </g>
    </g>
   </g>
  </g>
 </g>
 <defs>
  <clipPath id="pb33d1790ac">
   <rect height="266.112" width="357.12" x="57.6" y="41.472"/>
  </clipPath>
 </defs>
</svg>
