<?xml version="1.0" encoding="utf-8" standalone="no"?>
<!DOCTYPE svg PUBLIC "-//W3C//DTD SVG 1.1//EN"
  "http://www.w3.org/Graphics/SVG/1.1/DTD/svg11.dtd">
<!-- Created with matplotlib (https://matplotlib.org/) -->
<svg height="345.6pt" version="1.1" viewBox="0 0 460.8 345.6" width="460.8pt" xmlns="http://www.w3.org/2000/svg" xmlns:xlink="http://www.w3.org/1999/xlink">
 <defs>
  <style type="text/css">
*{stroke-linecap:butt;stroke-linejoin:round;}
  </style>
 </defs>
 <g id="figure_1">
  <g id="patch_1">
   <path d="M 0 345.6 
L 460.8 345.6 
L 460.8 0 
L 0 0 
z
" style="fill:#ffffff;"/>
  </g>
  <g id="axes_1">
   <g id="patch_2">
    <path d="M 57.6 307.584 
L 414.72 307.584 
L 414.72 41.472 
L 57.6 41.472 
z
" style="fill:#ffffff;"/>
   </g>
   <g id="matplotlib.axis_1">
    <g id="xtick_1">
     <g id="line2d_1">
      <path clip-path="url(#p5b9a696358)" d="M 73.832727 307.584 
L 73.832727 41.472 
" style="fill:none;stroke:#b0b0b0;stroke-linecap:square;stroke-width:0.8;"/>
     </g>
     <g id="line2d_2">
      <defs>
       <path d="M 0 0 
L 0 3.5 
" id="m2135208934" style="stroke:#000000;stroke-width:0.8;"/>
      </defs>
      <g>
       <use style="stroke:#000000;stroke-width:0.8;" x="73.832727" xlink:href="#m2135208934" y="307.584"/>
      </g>
     </g>
     <g id="text_1">
      <!-- 0 -->
      <defs>
       <path d="M 31.78125 66.40625 
Q 24.171875 66.40625 20.328125 58.90625 
Q 16.5 51.421875 16.5 36.375 
Q 16.5 21.390625 20.328125 13.890625 
Q 24.171875 6.390625 31.78125 6.390625 
Q 39.453125 6.390625 43.28125 13.890625 
Q 47.125 21.390625 47.125 36.375 
Q 47.125 51.421875 43.28125 58.90625 
Q 39.453125 66.40625 31.78125 66.40625 
z
M 31.78125 74.21875 
Q 44.046875 74.21875 50.515625 64.515625 
Q 56.984375 54.828125 56.984375 36.375 
Q 56.984375 17.96875 50.515625 8.265625 
Q 44.046875 -1.421875 31.78125 -1.421875 
Q 19.53125 -1.421875 13.0625 8.265625 
Q 6.59375 17.96875 6.59375 36.375 
Q 6.59375 54.828125 13.0625 64.515625 
Q 19.53125 74.21875 31.78125 74.21875 
z
" id="DejaVuSans-48"/>
      </defs>
      <g transform="translate(70.651477 322.182437)scale(0.1 -0.1)">
       <use xlink:href="#DejaVuSans-48"/>
      </g>
     </g>
    </g>
    <g id="xtick_2">
     <g id="line2d_3">
      <path clip-path="url(#p5b9a696358)" d="M 128.122785 307.584 
L 128.122785 41.472 
" style="fill:none;stroke:#b0b0b0;stroke-linecap:square;stroke-width:0.8;"/>
     </g>
     <g id="line2d_4">
      <g>
       <use style="stroke:#000000;stroke-width:0.8;" x="128.122785" xlink:href="#m2135208934" y="307.584"/>
      </g>
     </g>
     <g id="text_2">
      <!-- 50 -->
      <defs>
       <path d="M 10.796875 72.90625 
L 49.515625 72.90625 
L 49.515625 64.59375 
L 19.828125 64.59375 
L 19.828125 46.734375 
Q 21.96875 47.46875 24.109375 47.828125 
Q 26.265625 48.1875 28.421875 48.1875 
Q 40.625 48.1875 47.75 41.5 
Q 54.890625 34.8125 54.890625 23.390625 
Q 54.890625 11.625 47.5625 5.09375 
Q 40.234375 -1.421875 26.90625 -1.421875 
Q 22.3125 -1.421875 17.546875 -0.640625 
Q 12.796875 0.140625 7.71875 1.703125 
L 7.71875 11.625 
Q 12.109375 9.234375 16.796875 8.0625 
Q 21.484375 6.890625 26.703125 6.890625 
Q 35.15625 6.890625 40.078125 11.328125 
Q 45.015625 15.765625 45.015625 23.390625 
Q 45.015625 31 40.078125 35.4375 
Q 35.15625 39.890625 26.703125 39.890625 
Q 22.75 39.890625 18.8125 39.015625 
Q 14.890625 38.140625 10.796875 36.28125 
z
" id="DejaVuSans-53"/>
      </defs>
      <g transform="translate(121.760285 322.182437)scale(0.1 -0.1)">
       <use xlink:href="#DejaVuSans-53"/>
       <use x="63.623047" xlink:href="#DejaVuSans-48"/>
      </g>
     </g>
    </g>
    <g id="xtick_3">
     <g id="line2d_5">
      <path clip-path="url(#p5b9a696358)" d="M 182.412843 307.584 
L 182.412843 41.472 
" style="fill:none;stroke:#b0b0b0;stroke-linecap:square;stroke-width:0.8;"/>
     </g>
     <g id="line2d_6">
      <g>
       <use style="stroke:#000000;stroke-width:0.8;" x="182.412843" xlink:href="#m2135208934" y="307.584"/>
      </g>
     </g>
     <g id="text_3">
      <!-- 100 -->
      <defs>
       <path d="M 12.40625 8.296875 
L 28.515625 8.296875 
L 28.515625 63.921875 
L 10.984375 60.40625 
L 10.984375 69.390625 
L 28.421875 72.90625 
L 38.28125 72.90625 
L 38.28125 8.296875 
L 54.390625 8.296875 
L 54.390625 0 
L 12.40625 0 
z
" id="DejaVuSans-49"/>
      </defs>
      <g transform="translate(172.869093 322.182437)scale(0.1 -0.1)">
       <use xlink:href="#DejaVuSans-49"/>
       <use x="63.623047" xlink:href="#DejaVuSans-48"/>
       <use x="127.246094" xlink:href="#DejaVuSans-48"/>
      </g>
     </g>
    </g>
    <g id="xtick_4">
     <g id="line2d_7">
      <path clip-path="url(#p5b9a696358)" d="M 236.702901 307.584 
L 236.702901 41.472 
" style="fill:none;stroke:#b0b0b0;stroke-linecap:square;stroke-width:0.8;"/>
     </g>
     <g id="line2d_8">
      <g>
       <use style="stroke:#000000;stroke-width:0.8;" x="236.702901" xlink:href="#m2135208934" y="307.584"/>
      </g>
     </g>
     <g id="text_4">
      <!-- 150 -->
      <g transform="translate(227.159151 322.182437)scale(0.1 -0.1)">
       <use xlink:href="#DejaVuSans-49"/>
       <use x="63.623047" xlink:href="#DejaVuSans-53"/>
       <use x="127.246094" xlink:href="#DejaVuSans-48"/>
      </g>
     </g>
    </g>
    <g id="xtick_5">
     <g id="line2d_9">
      <path clip-path="url(#p5b9a696358)" d="M 290.992958 307.584 
L 290.992958 41.472 
" style="fill:none;stroke:#b0b0b0;stroke-linecap:square;stroke-width:0.8;"/>
     </g>
     <g id="line2d_10">
      <g>
       <use style="stroke:#000000;stroke-width:0.8;" x="290.992958" xlink:href="#m2135208934" y="307.584"/>
      </g>
     </g>
     <g id="text_5">
      <!-- 200 -->
      <defs>
       <path d="M 19.1875 8.296875 
L 53.609375 8.296875 
L 53.609375 0 
L 7.328125 0 
L 7.328125 8.296875 
Q 12.9375 14.109375 22.625 23.890625 
Q 32.328125 33.6875 34.8125 36.53125 
Q 39.546875 41.84375 41.421875 45.53125 
Q 43.3125 49.21875 43.3125 52.78125 
Q 43.3125 58.59375 39.234375 62.25 
Q 35.15625 65.921875 28.609375 65.921875 
Q 23.96875 65.921875 18.8125 64.3125 
Q 13.671875 62.703125 7.8125 59.421875 
L 7.8125 69.390625 
Q 13.765625 71.78125 18.9375 73 
Q 24.125 74.21875 28.421875 74.21875 
Q 39.75 74.21875 46.484375 68.546875 
Q 53.21875 62.890625 53.21875 53.421875 
Q 53.21875 48.921875 51.53125 44.890625 
Q 49.859375 40.875 45.40625 35.40625 
Q 44.1875 33.984375 37.640625 27.21875 
Q 31.109375 20.453125 19.1875 8.296875 
z
" id="DejaVuSans-50"/>
      </defs>
      <g transform="translate(281.449208 322.182437)scale(0.1 -0.1)">
       <use xlink:href="#DejaVuSans-50"/>
       <use x="63.623047" xlink:href="#DejaVuSans-48"/>
       <use x="127.246094" xlink:href="#DejaVuSans-48"/>
      </g>
     </g>
    </g>
    <g id="xtick_6">
     <g id="line2d_11">
      <path clip-path="url(#p5b9a696358)" d="M 345.283016 307.584 
L 345.283016 41.472 
" style="fill:none;stroke:#b0b0b0;stroke-linecap:square;stroke-width:0.8;"/>
     </g>
     <g id="line2d_12">
      <g>
       <use style="stroke:#000000;stroke-width:0.8;" x="345.283016" xlink:href="#m2135208934" y="307.584"/>
      </g>
     </g>
     <g id="text_6">
      <!-- 250 -->
      <g transform="translate(335.739266 322.182437)scale(0.1 -0.1)">
       <use xlink:href="#DejaVuSans-50"/>
       <use x="63.623047" xlink:href="#DejaVuSans-53"/>
       <use x="127.246094" xlink:href="#DejaVuSans-48"/>
      </g>
     </g>
    </g>
    <g id="xtick_7">
     <g id="line2d_13">
      <path clip-path="url(#p5b9a696358)" d="M 399.573074 307.584 
L 399.573074 41.472 
" style="fill:none;stroke:#b0b0b0;stroke-linecap:square;stroke-width:0.8;"/>
     </g>
     <g id="line2d_14">
      <g>
       <use style="stroke:#000000;stroke-width:0.8;" x="399.573074" xlink:href="#m2135208934" y="307.584"/>
      </g>
     </g>
     <g id="text_7">
      <!-- 300 -->
      <defs>
       <path d="M 40.578125 39.3125 
Q 47.65625 37.796875 51.625 33 
Q 55.609375 28.21875 55.609375 21.1875 
Q 55.609375 10.40625 48.1875 4.484375 
Q 40.765625 -1.421875 27.09375 -1.421875 
Q 22.515625 -1.421875 17.65625 -0.515625 
Q 12.796875 0.390625 7.625 2.203125 
L 7.625 11.71875 
Q 11.71875 9.328125 16.59375 8.109375 
Q 21.484375 6.890625 26.8125 6.890625 
Q 36.078125 6.890625 40.9375 10.546875 
Q 45.796875 14.203125 45.796875 21.1875 
Q 45.796875 27.640625 41.28125 31.265625 
Q 36.765625 34.90625 28.71875 34.90625 
L 20.21875 34.90625 
L 20.21875 43.015625 
L 29.109375 43.015625 
Q 36.375 43.015625 40.234375 45.921875 
Q 44.09375 48.828125 44.09375 54.296875 
Q 44.09375 59.90625 40.109375 62.90625 
Q 36.140625 65.921875 28.71875 65.921875 
Q 24.65625 65.921875 20.015625 65.03125 
Q 15.375 64.15625 9.8125 62.3125 
L 9.8125 71.09375 
Q 15.4375 72.65625 20.34375 73.4375 
Q 25.25 74.21875 29.59375 74.21875 
Q 40.828125 74.21875 47.359375 69.109375 
Q 53.90625 64.015625 53.90625 55.328125 
Q 53.90625 49.265625 50.4375 45.09375 
Q 46.96875 40.921875 40.578125 39.3125 
z
" id="DejaVuSans-51"/>
      </defs>
      <g transform="translate(390.029324 322.182437)scale(0.1 -0.1)">
       <use xlink:href="#DejaVuSans-51"/>
       <use x="63.623047" xlink:href="#DejaVuSans-48"/>
       <use x="127.246094" xlink:href="#DejaVuSans-48"/>
      </g>
     </g>
    </g>
    <g id="text_8">
     <!-- Generations -->
     <defs>
      <path d="M 59.515625 10.40625 
L 59.515625 29.984375 
L 43.40625 29.984375 
L 43.40625 38.09375 
L 69.28125 38.09375 
L 69.28125 6.78125 
Q 63.578125 2.734375 56.6875 0.65625 
Q 49.8125 -1.421875 42 -1.421875 
Q 24.90625 -1.421875 15.25 8.5625 
Q 5.609375 18.5625 5.609375 36.375 
Q 5.609375 54.25 15.25 64.234375 
Q 24.90625 74.21875 42 74.21875 
Q 49.125 74.21875 55.546875 72.453125 
Q 61.96875 70.703125 67.390625 67.28125 
L 67.390625 56.78125 
Q 61.921875 61.421875 55.765625 63.765625 
Q 49.609375 66.109375 42.828125 66.109375 
Q 29.4375 66.109375 22.71875 58.640625 
Q 16.015625 51.171875 16.015625 36.375 
Q 16.015625 21.625 22.71875 14.15625 
Q 29.4375 6.6875 42.828125 6.6875 
Q 48.046875 6.6875 52.140625 7.59375 
Q 56.25 8.5 59.515625 10.40625 
z
" id="DejaVuSans-71"/>
      <path d="M 56.203125 29.59375 
L 56.203125 25.203125 
L 14.890625 25.203125 
Q 15.484375 15.921875 20.484375 11.0625 
Q 25.484375 6.203125 34.421875 6.203125 
Q 39.59375 6.203125 44.453125 7.46875 
Q 49.3125 8.734375 54.109375 11.28125 
L 54.109375 2.78125 
Q 49.265625 0.734375 44.1875 -0.34375 
Q 39.109375 -1.421875 33.890625 -1.421875 
Q 20.796875 -1.421875 13.15625 6.1875 
Q 5.515625 13.8125 5.515625 26.8125 
Q 5.515625 40.234375 12.765625 48.109375 
Q 20.015625 56 32.328125 56 
Q 43.359375 56 49.78125 48.890625 
Q 56.203125 41.796875 56.203125 29.59375 
z
M 47.21875 32.234375 
Q 47.125 39.59375 43.09375 43.984375 
Q 39.0625 48.390625 32.421875 48.390625 
Q 24.90625 48.390625 20.390625 44.140625 
Q 15.875 39.890625 15.1875 32.171875 
z
" id="DejaVuSans-101"/>
      <path d="M 54.890625 33.015625 
L 54.890625 0 
L 45.90625 0 
L 45.90625 32.71875 
Q 45.90625 40.484375 42.875 44.328125 
Q 39.84375 48.1875 33.796875 48.1875 
Q 26.515625 48.1875 22.3125 43.546875 
Q 18.109375 38.921875 18.109375 30.90625 
L 18.109375 0 
L 9.078125 0 
L 9.078125 54.6875 
L 18.109375 54.6875 
L 18.109375 46.1875 
Q 21.34375 51.125 25.703125 53.5625 
Q 30.078125 56 35.796875 56 
Q 45.21875 56 50.046875 50.171875 
Q 54.890625 44.34375 54.890625 33.015625 
z
" id="DejaVuSans-110"/>
      <path d="M 41.109375 46.296875 
Q 39.59375 47.171875 37.8125 47.578125 
Q 36.03125 48 33.890625 48 
Q 26.265625 48 22.1875 43.046875 
Q 18.109375 38.09375 18.109375 28.8125 
L 18.109375 0 
L 9.078125 0 
L 9.078125 54.6875 
L 18.109375 54.6875 
L 18.109375 46.1875 
Q 20.953125 51.171875 25.484375 53.578125 
Q 30.03125 56 36.53125 56 
Q 37.453125 56 38.578125 55.875 
Q 39.703125 55.765625 41.0625 55.515625 
z
" id="DejaVuSans-114"/>
      <path d="M 34.28125 27.484375 
Q 23.390625 27.484375 19.1875 25 
Q 14.984375 22.515625 14.984375 16.5 
Q 14.984375 11.71875 18.140625 8.90625 
Q 21.296875 6.109375 26.703125 6.109375 
Q 34.1875 6.109375 38.703125 11.40625 
Q 43.21875 16.703125 43.21875 25.484375 
L 43.21875 27.484375 
z
M 52.203125 31.203125 
L 52.203125 0 
L 43.21875 0 
L 43.21875 8.296875 
Q 40.140625 3.328125 35.546875 0.953125 
Q 30.953125 -1.421875 24.3125 -1.421875 
Q 15.921875 -1.421875 10.953125 3.296875 
Q 6 8.015625 6 15.921875 
Q 6 25.140625 12.171875 29.828125 
Q 18.359375 34.515625 30.609375 34.515625 
L 43.21875 34.515625 
L 43.21875 35.40625 
Q 43.21875 41.609375 39.140625 45 
Q 35.0625 48.390625 27.6875 48.390625 
Q 23 48.390625 18.546875 47.265625 
Q 14.109375 46.140625 10.015625 43.890625 
L 10.015625 52.203125 
Q 14.9375 54.109375 19.578125 55.046875 
Q 24.21875 56 28.609375 56 
Q 40.484375 56 46.34375 49.84375 
Q 52.203125 43.703125 52.203125 31.203125 
z
" id="DejaVuSans-97"/>
      <path d="M 18.3125 70.21875 
L 18.3125 54.6875 
L 36.8125 54.6875 
L 36.8125 47.703125 
L 18.3125 47.703125 
L 18.3125 18.015625 
Q 18.3125 11.328125 20.140625 9.421875 
Q 21.96875 7.515625 27.59375 7.515625 
L 36.8125 7.515625 
L 36.8125 0 
L 27.59375 0 
Q 17.1875 0 13.234375 3.875 
Q 9.28125 7.765625 9.28125 18.015625 
L 9.28125 47.703125 
L 2.6875 47.703125 
L 2.6875 54.6875 
L 9.28125 54.6875 
L 9.28125 70.21875 
z
" id="DejaVuSans-116"/>
      <path d="M 9.421875 54.6875 
L 18.40625 54.6875 
L 18.40625 0 
L 9.421875 0 
z
M 9.421875 75.984375 
L 18.40625 75.984375 
L 18.40625 64.59375 
L 9.421875 64.59375 
z
" id="DejaVuSans-105"/>
      <path d="M 30.609375 48.390625 
Q 23.390625 48.390625 19.1875 42.75 
Q 14.984375 37.109375 14.984375 27.296875 
Q 14.984375 17.484375 19.15625 11.84375 
Q 23.34375 6.203125 30.609375 6.203125 
Q 37.796875 6.203125 41.984375 11.859375 
Q 46.1875 17.53125 46.1875 27.296875 
Q 46.1875 37.015625 41.984375 42.703125 
Q 37.796875 48.390625 30.609375 48.390625 
z
M 30.609375 56 
Q 42.328125 56 49.015625 48.375 
Q 55.71875 40.765625 55.71875 27.296875 
Q 55.71875 13.875 49.015625 6.21875 
Q 42.328125 -1.421875 30.609375 -1.421875 
Q 18.84375 -1.421875 12.171875 6.21875 
Q 5.515625 13.875 5.515625 27.296875 
Q 5.515625 40.765625 12.171875 48.375 
Q 18.84375 56 30.609375 56 
z
" id="DejaVuSans-111"/>
      <path d="M 44.28125 53.078125 
L 44.28125 44.578125 
Q 40.484375 46.53125 36.375 47.5 
Q 32.28125 48.484375 27.875 48.484375 
Q 21.1875 48.484375 17.84375 46.4375 
Q 14.5 44.390625 14.5 40.28125 
Q 14.5 37.15625 16.890625 35.375 
Q 19.28125 33.59375 26.515625 31.984375 
L 29.59375 31.296875 
Q 39.15625 29.25 43.1875 25.515625 
Q 47.21875 21.78125 47.21875 15.09375 
Q 47.21875 7.46875 41.1875 3.015625 
Q 35.15625 -1.421875 24.609375 -1.421875 
Q 20.21875 -1.421875 15.453125 -0.5625 
Q 10.6875 0.296875 5.421875 2 
L 5.421875 11.28125 
Q 10.40625 8.6875 15.234375 7.390625 
Q 20.0625 6.109375 24.8125 6.109375 
Q 31.15625 6.109375 34.5625 8.28125 
Q 37.984375 10.453125 37.984375 14.40625 
Q 37.984375 18.0625 35.515625 20.015625 
Q 33.0625 21.96875 24.703125 23.78125 
L 21.578125 24.515625 
Q 13.234375 26.265625 9.515625 29.90625 
Q 5.8125 33.546875 5.8125 39.890625 
Q 5.8125 47.609375 11.28125 51.796875 
Q 16.75 56 26.8125 56 
Q 31.78125 56 36.171875 55.265625 
Q 40.578125 54.546875 44.28125 53.078125 
z
" id="DejaVuSans-115"/>
     </defs>
     <g transform="translate(205.662344 335.860562)scale(0.1 -0.1)">
      <use xlink:href="#DejaVuSans-71"/>
      <use x="77.490234" xlink:href="#DejaVuSans-101"/>
      <use x="139.013672" xlink:href="#DejaVuSans-110"/>
      <use x="202.392578" xlink:href="#DejaVuSans-101"/>
      <use x="263.916016" xlink:href="#DejaVuSans-114"/>
      <use x="305.029297" xlink:href="#DejaVuSans-97"/>
      <use x="366.308594" xlink:href="#DejaVuSans-116"/>
      <use x="405.517578" xlink:href="#DejaVuSans-105"/>
      <use x="433.300781" xlink:href="#DejaVuSans-111"/>
      <use x="494.482422" xlink:href="#DejaVuSans-110"/>
      <use x="557.861328" xlink:href="#DejaVuSans-115"/>
     </g>
    </g>
   </g>
   <g id="matplotlib.axis_2">
    <g id="ytick_1">
     <g id="line2d_15">
      <path clip-path="url(#p5b9a696358)" d="M 57.6 302.872812 
L 414.72 302.872812 
" style="fill:none;stroke:#b0b0b0;stroke-linecap:square;stroke-width:0.8;"/>
     </g>
     <g id="line2d_16">
      <defs>
       <path d="M 0 0 
L -3.5 0 
" id="meeb49b8fcd" style="stroke:#000000;stroke-width:0.8;"/>
      </defs>
      <g>
       <use style="stroke:#000000;stroke-width:0.8;" x="57.6" xlink:href="#meeb49b8fcd" y="302.872812"/>
      </g>
     </g>
     <g id="text_9">
      <!-- −0.2 -->
      <defs>
       <path d="M 10.59375 35.5 
L 73.1875 35.5 
L 73.1875 27.203125 
L 10.59375 27.203125 
z
" id="DejaVuSans-8722"/>
       <path d="M 10.6875 12.40625 
L 21 12.40625 
L 21 0 
L 10.6875 0 
z
" id="DejaVuSans-46"/>
      </defs>
      <g transform="translate(26.317187 306.672031)scale(0.1 -0.1)">
       <use xlink:href="#DejaVuSans-8722"/>
       <use x="83.789062" xlink:href="#DejaVuSans-48"/>
       <use x="147.412109" xlink:href="#DejaVuSans-46"/>
       <use x="179.199219" xlink:href="#DejaVuSans-50"/>
      </g>
     </g>
    </g>
    <g id="ytick_2">
     <g id="line2d_17">
      <path clip-path="url(#p5b9a696358)" d="M 57.6 269.679319 
L 414.72 269.679319 
" style="fill:none;stroke:#b0b0b0;stroke-linecap:square;stroke-width:0.8;"/>
     </g>
     <g id="line2d_18">
      <g>
       <use style="stroke:#000000;stroke-width:0.8;" x="57.6" xlink:href="#meeb49b8fcd" y="269.679319"/>
      </g>
     </g>
     <g id="text_10">
      <!-- 0.0 -->
      <g transform="translate(34.696875 273.478537)scale(0.1 -0.1)">
       <use xlink:href="#DejaVuSans-48"/>
       <use x="63.623047" xlink:href="#DejaVuSans-46"/>
       <use x="95.410156" xlink:href="#DejaVuSans-48"/>
      </g>
     </g>
    </g>
    <g id="ytick_3">
     <g id="line2d_19">
      <path clip-path="url(#p5b9a696358)" d="M 57.6 236.485825 
L 414.72 236.485825 
" style="fill:none;stroke:#b0b0b0;stroke-linecap:square;stroke-width:0.8;"/>
     </g>
     <g id="line2d_20">
      <g>
       <use style="stroke:#000000;stroke-width:0.8;" x="57.6" xlink:href="#meeb49b8fcd" y="236.485825"/>
      </g>
     </g>
     <g id="text_11">
      <!-- 0.2 -->
      <g transform="translate(34.696875 240.285044)scale(0.1 -0.1)">
       <use xlink:href="#DejaVuSans-48"/>
       <use x="63.623047" xlink:href="#DejaVuSans-46"/>
       <use x="95.410156" xlink:href="#DejaVuSans-50"/>
      </g>
     </g>
    </g>
    <g id="ytick_4">
     <g id="line2d_21">
      <path clip-path="url(#p5b9a696358)" d="M 57.6 203.292331 
L 414.72 203.292331 
" style="fill:none;stroke:#b0b0b0;stroke-linecap:square;stroke-width:0.8;"/>
     </g>
     <g id="line2d_22">
      <g>
       <use style="stroke:#000000;stroke-width:0.8;" x="57.6" xlink:href="#meeb49b8fcd" y="203.292331"/>
      </g>
     </g>
     <g id="text_12">
      <!-- 0.4 -->
      <defs>
       <path d="M 37.796875 64.3125 
L 12.890625 25.390625 
L 37.796875 25.390625 
z
M 35.203125 72.90625 
L 47.609375 72.90625 
L 47.609375 25.390625 
L 58.015625 25.390625 
L 58.015625 17.1875 
L 47.609375 17.1875 
L 47.609375 0 
L 37.796875 0 
L 37.796875 17.1875 
L 4.890625 17.1875 
L 4.890625 26.703125 
z
" id="DejaVuSans-52"/>
      </defs>
      <g transform="translate(34.696875 207.09155)scale(0.1 -0.1)">
       <use xlink:href="#DejaVuSans-48"/>
       <use x="63.623047" xlink:href="#DejaVuSans-46"/>
       <use x="95.410156" xlink:href="#DejaVuSans-52"/>
      </g>
     </g>
    </g>
    <g id="ytick_5">
     <g id="line2d_23">
      <path clip-path="url(#p5b9a696358)" d="M 57.6 170.098838 
L 414.72 170.098838 
" style="fill:none;stroke:#b0b0b0;stroke-linecap:square;stroke-width:0.8;"/>
     </g>
     <g id="line2d_24">
      <g>
       <use style="stroke:#000000;stroke-width:0.8;" x="57.6" xlink:href="#meeb49b8fcd" y="170.098838"/>
      </g>
     </g>
     <g id="text_13">
      <!-- 0.6 -->
      <defs>
       <path d="M 33.015625 40.375 
Q 26.375 40.375 22.484375 35.828125 
Q 18.609375 31.296875 18.609375 23.390625 
Q 18.609375 15.53125 22.484375 10.953125 
Q 26.375 6.390625 33.015625 6.390625 
Q 39.65625 6.390625 43.53125 10.953125 
Q 47.40625 15.53125 47.40625 23.390625 
Q 47.40625 31.296875 43.53125 35.828125 
Q 39.65625 40.375 33.015625 40.375 
z
M 52.59375 71.296875 
L 52.59375 62.3125 
Q 48.875 64.0625 45.09375 64.984375 
Q 41.3125 65.921875 37.59375 65.921875 
Q 27.828125 65.921875 22.671875 59.328125 
Q 17.53125 52.734375 16.796875 39.40625 
Q 19.671875 43.65625 24.015625 45.921875 
Q 28.375 48.1875 33.59375 48.1875 
Q 44.578125 48.1875 50.953125 41.515625 
Q 57.328125 34.859375 57.328125 23.390625 
Q 57.328125 12.15625 50.6875 5.359375 
Q 44.046875 -1.421875 33.015625 -1.421875 
Q 20.359375 -1.421875 13.671875 8.265625 
Q 6.984375 17.96875 6.984375 36.375 
Q 6.984375 53.65625 15.1875 63.9375 
Q 23.390625 74.21875 37.203125 74.21875 
Q 40.921875 74.21875 44.703125 73.484375 
Q 48.484375 72.75 52.59375 71.296875 
z
" id="DejaVuSans-54"/>
      </defs>
      <g transform="translate(34.696875 173.898057)scale(0.1 -0.1)">
       <use xlink:href="#DejaVuSans-48"/>
       <use x="63.623047" xlink:href="#DejaVuSans-46"/>
       <use x="95.410156" xlink:href="#DejaVuSans-54"/>
      </g>
     </g>
    </g>
    <g id="ytick_6">
     <g id="line2d_25">
      <path clip-path="url(#p5b9a696358)" d="M 57.6 136.905344 
L 414.72 136.905344 
" style="fill:none;stroke:#b0b0b0;stroke-linecap:square;stroke-width:0.8;"/>
     </g>
     <g id="line2d_26">
      <g>
       <use style="stroke:#000000;stroke-width:0.8;" x="57.6" xlink:href="#meeb49b8fcd" y="136.905344"/>
      </g>
     </g>
     <g id="text_14">
      <!-- 0.8 -->
      <defs>
       <path d="M 31.78125 34.625 
Q 24.75 34.625 20.71875 30.859375 
Q 16.703125 27.09375 16.703125 20.515625 
Q 16.703125 13.921875 20.71875 10.15625 
Q 24.75 6.390625 31.78125 6.390625 
Q 38.8125 6.390625 42.859375 10.171875 
Q 46.921875 13.96875 46.921875 20.515625 
Q 46.921875 27.09375 42.890625 30.859375 
Q 38.875 34.625 31.78125 34.625 
z
M 21.921875 38.8125 
Q 15.578125 40.375 12.03125 44.71875 
Q 8.5 49.078125 8.5 55.328125 
Q 8.5 64.0625 14.71875 69.140625 
Q 20.953125 74.21875 31.78125 74.21875 
Q 42.671875 74.21875 48.875 69.140625 
Q 55.078125 64.0625 55.078125 55.328125 
Q 55.078125 49.078125 51.53125 44.71875 
Q 48 40.375 41.703125 38.8125 
Q 48.828125 37.15625 52.796875 32.3125 
Q 56.78125 27.484375 56.78125 20.515625 
Q 56.78125 9.90625 50.3125 4.234375 
Q 43.84375 -1.421875 31.78125 -1.421875 
Q 19.734375 -1.421875 13.25 4.234375 
Q 6.78125 9.90625 6.78125 20.515625 
Q 6.78125 27.484375 10.78125 32.3125 
Q 14.796875 37.15625 21.921875 38.8125 
z
M 18.3125 54.390625 
Q 18.3125 48.734375 21.84375 45.5625 
Q 25.390625 42.390625 31.78125 42.390625 
Q 38.140625 42.390625 41.71875 45.5625 
Q 45.3125 48.734375 45.3125 54.390625 
Q 45.3125 60.0625 41.71875 63.234375 
Q 38.140625 66.40625 31.78125 66.40625 
Q 25.390625 66.40625 21.84375 63.234375 
Q 18.3125 60.0625 18.3125 54.390625 
z
" id="DejaVuSans-56"/>
      </defs>
      <g transform="translate(34.696875 140.704563)scale(0.1 -0.1)">
       <use xlink:href="#DejaVuSans-48"/>
       <use x="63.623047" xlink:href="#DejaVuSans-46"/>
       <use x="95.410156" xlink:href="#DejaVuSans-56"/>
      </g>
     </g>
    </g>
    <g id="ytick_7">
     <g id="line2d_27">
      <path clip-path="url(#p5b9a696358)" d="M 57.6 103.711851 
L 414.72 103.711851 
" style="fill:none;stroke:#b0b0b0;stroke-linecap:square;stroke-width:0.8;"/>
     </g>
     <g id="line2d_28">
      <g>
       <use style="stroke:#000000;stroke-width:0.8;" x="57.6" xlink:href="#meeb49b8fcd" y="103.711851"/>
      </g>
     </g>
     <g id="text_15">
      <!-- 1.0 -->
      <g transform="translate(34.696875 107.511069)scale(0.1 -0.1)">
       <use xlink:href="#DejaVuSans-49"/>
       <use x="63.623047" xlink:href="#DejaVuSans-46"/>
       <use x="95.410156" xlink:href="#DejaVuSans-48"/>
      </g>
     </g>
    </g>
    <g id="ytick_8">
     <g id="line2d_29">
      <path clip-path="url(#p5b9a696358)" d="M 57.6 70.518357 
L 414.72 70.518357 
" style="fill:none;stroke:#b0b0b0;stroke-linecap:square;stroke-width:0.8;"/>
     </g>
     <g id="line2d_30">
      <g>
       <use style="stroke:#000000;stroke-width:0.8;" x="57.6" xlink:href="#meeb49b8fcd" y="70.518357"/>
      </g>
     </g>
     <g id="text_16">
      <!-- 1.2 -->
      <g transform="translate(34.696875 74.317576)scale(0.1 -0.1)">
       <use xlink:href="#DejaVuSans-49"/>
       <use x="63.623047" xlink:href="#DejaVuSans-46"/>
       <use x="95.410156" xlink:href="#DejaVuSans-50"/>
      </g>
     </g>
    </g>
    <g id="text_17">
     <!-- Fitness -->
     <defs>
      <path d="M 9.8125 72.90625 
L 51.703125 72.90625 
L 51.703125 64.59375 
L 19.671875 64.59375 
L 19.671875 43.109375 
L 48.578125 43.109375 
L 48.578125 34.8125 
L 19.671875 34.8125 
L 19.671875 0 
L 9.8125 0 
z
" id="DejaVuSans-70"/>
     </defs>
     <g transform="translate(20.2375 192.202219)rotate(-90)scale(0.1 -0.1)">
      <use xlink:href="#DejaVuSans-70"/>
      <use x="57.410156" xlink:href="#DejaVuSans-105"/>
      <use x="85.193359" xlink:href="#DejaVuSans-116"/>
      <use x="124.402344" xlink:href="#DejaVuSans-110"/>
      <use x="187.78125" xlink:href="#DejaVuSans-101"/>
      <use x="249.304688" xlink:href="#DejaVuSans-115"/>
      <use x="301.404297" xlink:href="#DejaVuSans-115"/>
     </g>
    </g>
   </g>
   <g id="line2d_31">
    <path clip-path="url(#p5b9a696358)" d="M 73.832727 268.69309 
L 74.918528 264.336965 
L 76.00433 262.332249 
L 77.090131 250.29002 
L 78.175932 241.83635 
L 79.261733 237.95824 
L 80.347534 240.668692 
L 81.433335 239.475371 
L 82.519137 234.849628 
L 83.604938 233.692474 
L 84.690739 234.289308 
L 85.77654 233.554319 
L 86.862341 233.20138 
L 87.948142 227.747405 
L 89.033943 228.191979 
L 90.119745 224.6626 
L 91.205546 227.12485 
L 92.291347 226.729459 
L 93.377148 222.441098 
L 94.462949 222.857229 
L 96.634552 212.599326 
L 97.720353 216.135441 
L 98.806154 214.465926 
L 99.891955 215.058147 
L 100.977756 214.595709 
L 102.063557 209.192544 
L 103.149358 213.004334 
L 104.23516 215.102597 
L 105.320961 221.948007 
L 106.406762 216.122301 
L 107.492563 220.784097 
L 108.578364 217.423507 
L 109.664165 218.764994 
L 110.749967 217.104062 
L 111.835768 224.124512 
L 112.921569 221.95457 
L 114.00737 222.927464 
L 115.093171 224.373943 
L 116.178972 221.469312 
L 117.264773 222.435657 
L 118.350575 219.302321 
L 119.436376 221.255015 
L 120.522177 216.483985 
L 121.607978 219.037579 
L 122.693779 219.028572 
L 123.77958 220.525832 
L 124.865382 219.511076 
L 125.951183 217.616549 
L 127.036984 220.077219 
L 128.122785 217.750353 
L 129.208586 214.499727 
L 130.294387 210.087979 
L 131.380189 214.473824 
L 132.46599 211.073977 
L 133.551791 212.845083 
L 134.637592 213.041691 
L 135.723393 212.729312 
L 136.809194 215.70353 
L 137.894995 214.294456 
L 140.066598 213.4451 
L 141.152399 211.981229 
L 142.2382 214.743327 
L 143.324001 212.923847 
L 144.409802 218.59467 
L 145.495604 214.355814 
L 146.581405 216.605909 
L 148.753007 215.066225 
L 149.838808 214.519617 
L 150.924609 209.29352 
L 152.01041 209.818442 
L 153.096212 213.299714 
L 154.182013 211.620727 
L 155.267814 213.606556 
L 156.353615 213.653224 
L 157.439416 212.383973 
L 158.525217 207.334532 
L 159.611019 211.818658 
L 160.69682 221.121562 
L 161.782621 217.394398 
L 162.868422 218.44149 
L 163.954223 222.233626 
L 165.040024 219.044315 
L 166.125825 217.105187 
L 167.211627 217.392013 
L 168.297428 222.689747 
L 169.383229 220.516743 
L 170.46903 222.529632 
L 171.554831 212.978745 
L 172.640632 217.225265 
L 173.726434 224.270148 
L 174.812235 214.988841 
L 175.898036 217.822085 
L 176.983837 218.621564 
L 178.069638 223.271705 
L 179.155439 221.089182 
L 180.24124 219.621114 
L 181.327042 221.279992 
L 182.412843 220.448836 
L 183.498644 223.309721 
L 184.584445 222.237245 
L 185.670246 220.341224 
L 186.756047 220.662793 
L 188.92765 217.409731 
L 190.013451 220.058751 
L 191.099252 220.994781 
L 192.185053 220.412655 
L 193.270854 219.575665 
L 194.356656 220.067485 
L 195.442457 223.50897 
L 196.528258 219.656212 
L 197.614059 220.479161 
L 198.69986 220.548664 
L 199.785661 216.696393 
L 200.871462 220.797379 
L 201.957264 220.157903 
L 203.043065 220.137343 
L 204.128866 216.827377 
L 205.214667 221.577338 
L 207.386269 215.935637 
L 208.472071 222.423561 
L 209.557872 222.426444 
L 210.643673 219.715997 
L 211.729474 220.370863 
L 212.815275 219.584492 
L 213.901076 220.095872 
L 214.986877 219.40092 
L 216.072679 223.201723 
L 217.15848 222.959754 
L 218.244281 220.88381 
L 219.330082 220.905342 
L 220.415883 217.502057 
L 221.501684 217.683921 
L 222.587486 220.799898 
L 223.673287 222.854308 
L 224.759088 221.676362 
L 225.844889 220.880035 
L 226.93069 222.890712 
L 228.016491 222.165379 
L 229.102292 213.696195 
L 230.188094 218.358849 
L 231.273895 215.861135 
L 232.359696 222.138093 
L 233.445497 222.102554 
L 234.531298 228.763174 
L 235.617099 221.896329 
L 236.702901 216.301257 
L 237.788702 221.51089 
L 238.874503 219.701188 
L 239.960304 222.825284 
L 241.046105 220.080424 
L 242.131906 223.777522 
L 243.217708 216.808258 
L 244.303509 220.669871 
L 245.38931 218.679749 
L 246.475111 221.894076 
L 247.560912 217.379939 
L 248.646713 220.537973 
L 249.732514 221.429177 
L 250.818316 218.878785 
L 251.904117 220.873459 
L 252.989918 216.08869 
L 254.075719 222.631638 
L 255.16152 215.783056 
L 256.247321 216.829151 
L 257.333123 218.345691 
L 258.418924 223.841116 
L 259.504725 211.461081 
L 260.590526 221.441893 
L 261.676327 218.489278 
L 262.762128 216.781848 
L 263.847929 221.199127 
L 264.933731 216.992945 
L 266.019532 222.431701 
L 267.105333 216.947751 
L 268.191134 223.097533 
L 269.276935 218.964174 
L 270.362736 219.330216 
L 271.448538 222.753496 
L 273.62014 217.32698 
L 274.705941 218.337233 
L 275.791742 216.369792 
L 276.877543 219.128303 
L 277.963344 219.664108 
L 279.049146 216.653172 
L 280.134947 216.461322 
L 281.220748 214.943312 
L 282.306549 222.068074 
L 283.39235 219.253946 
L 284.478151 223.313107 
L 285.563953 216.699883 
L 286.649754 217.509637 
L 287.735555 218.570089 
L 288.821356 215.351828 
L 289.907157 216.548885 
L 290.992958 219.761657 
L 292.07876 220.229815 
L 293.164561 220.980574 
L 294.250362 220.050977 
L 295.336163 215.806638 
L 296.421964 217.866153 
L 297.507765 215.527478 
L 298.593566 215.62937 
L 299.679368 218.227018 
L 300.765169 219.751631 
L 301.85097 219.716107 
L 302.936771 217.900403 
L 304.022572 218.899074 
L 305.108373 218.630374 
L 306.194175 222.292762 
L 307.279976 220.754297 
L 308.365777 217.590076 
L 309.451578 217.273924 
L 310.537379 216.170793 
L 311.62318 218.907802 
L 312.708981 217.807318 
L 313.794783 219.52617 
L 314.880584 222.935592 
L 315.966385 219.869622 
L 317.052186 216.351874 
L 318.137987 216.874012 
L 319.223788 219.712245 
L 320.30959 218.964791 
L 321.395391 213.759182 
L 322.481192 217.691964 
L 323.566993 219.628527 
L 324.652794 218.979745 
L 325.738595 222.231457 
L 326.824396 215.966538 
L 327.910198 221.191824 
L 328.995999 217.529494 
L 330.0818 221.088226 
L 331.167601 215.489172 
L 333.339203 219.334868 
L 334.425005 218.964631 
L 336.596607 218.703006 
L 337.682408 216.35774 
L 338.768209 220.387389 
L 339.85401 217.668444 
L 340.939811 214.30459 
L 342.025613 218.967283 
L 343.111414 219.711014 
L 344.197215 221.824769 
L 345.283016 221.220185 
L 346.368817 219.079112 
L 347.454618 213.954131 
L 348.54042 219.01028 
L 349.626221 220.864133 
L 350.712022 218.72092 
L 351.797823 221.125207 
L 352.883624 218.720239 
L 353.969425 218.707049 
L 355.055227 212.66877 
L 356.141028 215.924017 
L 357.226829 211.860305 
L 358.31263 219.346055 
L 359.398431 217.241576 
L 360.484232 219.389689 
L 361.570033 214.034068 
L 362.655835 215.090859 
L 363.741636 220.235961 
L 364.827437 220.683527 
L 365.913238 217.707415 
L 366.999039 217.752425 
L 369.170642 221.468374 
L 370.256443 214.714688 
L 372.428045 222.10736 
L 374.599647 213.912583 
L 375.685448 215.858108 
L 376.77125 218.679132 
L 377.857051 215.359853 
L 378.942852 214.008057 
L 380.028653 220.192733 
L 381.114454 222.582109 
L 382.200255 221.060144 
L 383.286057 219.236023 
L 384.371858 220.366909 
L 385.457659 219.814734 
L 386.54346 214.400226 
L 387.629261 220.726362 
L 388.715062 219.387524 
L 389.800863 217.140416 
L 390.886665 218.951234 
L 391.972466 221.524742 
L 393.058267 216.639141 
L 394.144068 220.300875 
L 395.229869 219.235919 
L 396.31567 216.013468 
L 397.401472 214.909102 
L 398.487273 216.179502 
L 398.487273 216.179502 
" style="fill:none;stroke:#0000ff;stroke-linecap:square;stroke-width:1.5;"/>
   </g>
   <g id="line2d_32">
    <path clip-path="url(#p5b9a696358)" d="M 73.832727 286.738062 
L 74.918528 289.081019 
L 76.00433 292.422605 
L 77.090131 282.394519 
L 79.261733 278.730274 
L 80.347534 285.231279 
L 81.433335 283.408817 
L 82.519137 279.807221 
L 83.604938 279.346779 
L 84.690739 278.673675 
L 85.77654 279.424925 
L 86.862341 282.337773 
L 87.948142 275.405955 
L 89.033943 275.535525 
L 90.119745 273.122081 
L 91.205546 276.907015 
L 92.291347 278.71277 
L 93.377148 273.217485 
L 94.462949 275.408062 
L 95.54875 269.007864 
L 96.634552 263.274807 
L 97.720353 269.238252 
L 98.806154 269.415659 
L 99.891955 271.181192 
L 100.977756 270.41762 
L 102.063557 264.262444 
L 103.149358 269.571725 
L 104.23516 271.896935 
L 105.320961 276.443222 
L 106.406762 271.874429 
L 107.492563 276.217621 
L 108.578364 273.019721 
L 109.664165 276.559761 
L 110.749967 276.250252 
L 111.835768 276.215556 
L 112.921569 273.88388 
L 114.00737 277.756129 
L 115.093171 278.753623 
L 116.178972 274.209686 
L 117.264773 276.902592 
L 118.350575 274.864919 
L 119.436376 276.076238 
L 120.522177 273.26364 
L 121.607978 276.420994 
L 122.693779 276.013607 
L 123.77958 279.304506 
L 124.865382 279.776539 
L 125.951183 275.581775 
L 127.036984 279.940224 
L 128.122785 277.994377 
L 129.208586 275.506946 
L 130.294387 270.869805 
L 131.380189 275.184719 
L 132.46599 272.949299 
L 133.551791 274.425488 
L 134.637592 276.732609 
L 135.723393 275.958283 
L 136.809194 279.09659 
L 138.980797 276.429646 
L 140.066598 276.342411 
L 141.152399 274.774421 
L 142.2382 278.278239 
L 143.324001 276.713343 
L 144.409802 283.368434 
L 145.495604 275.321933 
L 146.581405 279.150106 
L 147.667206 277.674399 
L 148.753007 279.152317 
L 149.838808 276.864428 
L 150.924609 273.951928 
L 152.01041 275.519141 
L 153.096212 281.285884 
L 154.182013 276.481766 
L 155.267814 278.192347 
L 156.353615 280.192715 
L 157.439416 278.254153 
L 158.525217 271.294583 
L 159.611019 277.096278 
L 160.69682 285.825233 
L 161.782621 280.04572 
L 162.868422 282.714464 
L 163.954223 288.010666 
L 165.040024 282.176856 
L 166.125825 281.482504 
L 167.211627 281.475422 
L 168.297428 285.572975 
L 169.383229 284.187318 
L 170.46903 288.019486 
L 171.554831 277.496606 
L 172.640632 282.358926 
L 173.726434 288.743806 
L 174.812235 280.896865 
L 175.898036 283.67378 
L 176.983837 283.042822 
L 178.069638 288.058194 
L 179.155439 285.695185 
L 180.24124 283.768059 
L 181.327042 286.502924 
L 182.412843 286.393752 
L 183.498644 290.027139 
L 184.584445 287.439509 
L 185.670246 287.059228 
L 186.756047 285.846145 
L 187.841849 285.736551 
L 188.92765 284.04801 
L 191.099252 287.894174 
L 192.185053 286.14649 
L 193.270854 286.531519 
L 194.356656 285.426594 
L 195.442457 289.754467 
L 196.528258 286.672313 
L 197.614059 285.617017 
L 198.69986 286.400912 
L 199.785661 281.663728 
L 200.871462 286.601029 
L 201.957264 284.979007 
L 203.043065 286.031292 
L 204.128866 282.772198 
L 205.214667 286.786964 
L 206.300468 285.503688 
L 207.386269 282.833043 
L 208.472071 288.907839 
L 209.557872 288.505834 
L 210.643673 286.575161 
L 211.729474 285.267072 
L 212.815275 287.674394 
L 213.901076 285.863557 
L 214.986877 286.267149 
L 216.072679 289.709705 
L 217.15848 289.826851 
L 218.244281 288.889871 
L 219.330082 290.038106 
L 220.415883 284.277288 
L 221.501684 286.782369 
L 222.587486 287.062373 
L 223.673287 289.02646 
L 224.759088 289.076942 
L 225.844889 287.665804 
L 226.93069 290.05655 
L 228.016491 288.971693 
L 229.102292 281.883603 
L 230.188094 286.077075 
L 231.273895 284.668259 
L 232.359696 289.393398 
L 233.445497 290.154624 
L 234.531298 295.488 
L 235.617099 291.596258 
L 236.702901 284.268516 
L 237.788702 288.639656 
L 238.874503 287.980878 
L 239.960304 290.927082 
L 241.046105 287.355295 
L 242.131906 291.774391 
L 243.217708 285.818787 
L 244.303509 288.654192 
L 245.38931 286.608201 
L 246.475111 289.48076 
L 247.560912 286.75596 
L 248.646713 289.141417 
L 249.732514 288.860124 
L 250.818316 288.049513 
L 251.904117 288.36352 
L 252.989918 285.157232 
L 254.075719 292.192926 
L 255.16152 284.85049 
L 256.247321 284.671168 
L 257.333123 286.068394 
L 258.418924 294.658698 
L 259.504725 280.114527 
L 260.590526 289.759171 
L 262.762128 285.68843 
L 263.847929 290.109325 
L 264.933731 285.671241 
L 266.019532 290.872625 
L 267.105333 285.422408 
L 268.191134 291.509032 
L 269.276935 287.142847 
L 270.362736 288.171851 
L 271.448538 289.502156 
L 272.534339 286.843737 
L 273.62014 284.945289 
L 274.705941 285.998722 
L 275.791742 284.635984 
L 276.877543 289.26369 
L 277.963344 290.477149 
L 279.049146 284.973069 
L 280.134947 284.3397 
L 281.220748 283.283088 
L 282.306549 291.214131 
L 283.39235 288.027097 
L 284.478151 292.770837 
L 285.563953 284.829384 
L 286.649754 286.849732 
L 287.735555 287.707263 
L 288.821356 284.56524 
L 290.992958 288.409334 
L 292.07876 289.464669 
L 293.164561 289.585237 
L 294.250362 289.155926 
L 295.336163 285.463394 
L 296.421964 286.568397 
L 297.507765 284.162017 
L 298.593566 285.681374 
L 299.679368 285.974165 
L 300.765169 289.269892 
L 301.85097 287.881993 
L 302.936771 287.731968 
L 304.022572 288.038136 
L 305.108373 286.947494 
L 306.194175 291.917055 
L 307.279976 290.778679 
L 308.365777 285.97628 
L 309.451578 286.37519 
L 310.537379 284.66741 
L 311.62318 288.749349 
L 312.708981 287.655911 
L 313.794783 291.202661 
L 314.880584 293.457331 
L 315.966385 289.170718 
L 317.052186 285.93256 
L 318.137987 287.419497 
L 319.223788 289.548834 
L 320.30959 290.054245 
L 321.395391 285.419363 
L 322.481192 289.386392 
L 323.566993 289.228539 
L 324.652794 288.768773 
L 325.738595 290.743249 
L 326.824396 285.963415 
L 327.910198 290.988906 
L 328.995999 286.671807 
L 330.0818 290.847832 
L 331.167601 287.277213 
L 332.253402 288.088873 
L 333.339203 289.924882 
L 334.425005 288.65382 
L 335.510806 289.561291 
L 336.596607 289.018888 
L 337.682408 286.899315 
L 338.768209 291.674539 
L 339.85401 289.039862 
L 340.939811 284.564463 
L 342.025613 289.816043 
L 343.111414 289.832814 
L 344.197215 291.408333 
L 345.283016 291.226369 
L 346.368817 289.214508 
L 347.454618 283.450721 
L 348.54042 290.91453 
L 349.626221 291.805047 
L 350.712022 289.08946 
L 351.797823 292.52089 
L 352.883624 289.028653 
L 353.969425 287.735264 
L 355.055227 283.252342 
L 356.141028 287.152291 
L 357.226829 282.50608 
L 358.31263 290.282266 
L 359.398431 287.343544 
L 360.484232 290.515877 
L 361.570033 283.874839 
L 362.655835 287.709295 
L 363.741636 290.573359 
L 364.827437 290.929525 
L 365.913238 288.079718 
L 366.999039 291.147404 
L 368.08484 290.613183 
L 369.170642 293.470152 
L 370.256443 285.700209 
L 371.342244 289.62167 
L 372.428045 292.671239 
L 373.513846 287.632442 
L 374.599647 283.614598 
L 376.77125 290.050408 
L 377.857051 285.88281 
L 378.942852 284.071304 
L 380.028653 293.705006 
L 381.114454 293.924336 
L 382.200255 291.835909 
L 383.286057 289.215153 
L 384.371858 290.082947 
L 385.457659 290.086543 
L 386.54346 285.415967 
L 387.629261 292.383389 
L 388.715062 291.634526 
L 389.800863 288.064066 
L 390.886665 290.303007 
L 391.972466 293.07944 
L 393.058267 287.537142 
L 394.144068 292.860351 
L 395.229869 289.489507 
L 396.31567 287.001911 
L 397.401472 287.293519 
L 398.487273 288.03753 
L 398.487273 288.03753 
" style="fill:none;stroke:#008000;stroke-dasharray:9.6,2.4,1.5,2.4;stroke-dashoffset:0;stroke-width:1.5;"/>
   </g>
   <g id="line2d_33">
    <path clip-path="url(#p5b9a696358)" d="M 73.832727 250.648117 
L 74.918528 239.592911 
L 76.00433 232.241893 
L 78.175932 203.016189 
L 79.261733 197.186205 
L 80.347534 196.106106 
L 81.433335 195.541924 
L 82.519137 189.892036 
L 83.604938 188.038168 
L 84.690739 189.904942 
L 85.77654 187.683713 
L 87.948142 180.088856 
L 89.033943 180.848433 
L 90.119745 176.203118 
L 91.205546 177.342685 
L 92.291347 174.746149 
L 93.377148 171.664712 
L 94.462949 170.306396 
L 96.634552 161.923844 
L 97.720353 163.03263 
L 98.806154 159.516194 
L 99.891955 158.935102 
L 100.977756 158.773798 
L 102.063557 154.122643 
L 103.149358 156.436942 
L 104.23516 158.308259 
L 105.320961 167.452792 
L 106.406762 160.370172 
L 107.492563 165.350574 
L 108.578364 161.827293 
L 109.664165 160.970227 
L 110.749967 157.957872 
L 111.835768 172.033468 
L 114.00737 168.098799 
L 115.093171 169.994264 
L 116.178972 168.728937 
L 117.264773 167.968722 
L 118.350575 163.739723 
L 119.436376 166.433793 
L 120.522177 159.70433 
L 121.607978 161.654164 
L 122.693779 162.043536 
L 123.77958 161.747158 
L 124.865382 159.245612 
L 125.951183 159.651323 
L 127.036984 160.214215 
L 128.122785 157.506328 
L 130.294387 149.306154 
L 131.380189 153.762929 
L 132.46599 149.198655 
L 133.551791 151.264678 
L 134.637592 149.350772 
L 135.723393 149.50034 
L 136.809194 152.310469 
L 137.894995 150.807242 
L 138.980797 151.400232 
L 140.066598 150.547789 
L 141.152399 149.188038 
L 142.2382 151.208414 
L 143.324001 149.134352 
L 144.409802 153.820906 
L 145.495604 153.389695 
L 146.581405 154.061712 
L 147.667206 153.971396 
L 148.753007 150.980132 
L 149.838808 152.174805 
L 150.924609 144.635112 
L 152.01041 144.117743 
L 153.096212 145.313545 
L 154.182013 146.759687 
L 155.267814 149.020766 
L 156.353615 147.113733 
L 157.439416 146.513792 
L 158.525217 143.37448 
L 159.611019 146.541037 
L 160.69682 156.417891 
L 161.782621 154.743076 
L 162.868422 154.168516 
L 163.954223 156.456585 
L 165.040024 155.911775 
L 166.125825 152.72787 
L 167.211627 153.308603 
L 168.297428 159.806519 
L 169.383229 156.846169 
L 170.46903 157.039777 
L 171.554831 148.460883 
L 172.640632 152.091603 
L 173.726434 159.79649 
L 174.812235 149.080817 
L 175.898036 151.97039 
L 176.983837 154.200307 
L 178.069638 158.485216 
L 179.155439 156.483179 
L 180.24124 155.474169 
L 181.327042 156.057061 
L 182.412843 154.50392 
L 183.498644 156.592303 
L 184.584445 157.03498 
L 185.670246 153.623221 
L 186.756047 155.479441 
L 187.841849 152.353983 
L 188.92765 150.771453 
L 190.013451 154.154392 
L 191.099252 154.095387 
L 192.185053 154.67882 
L 193.270854 152.61981 
L 194.356656 154.708377 
L 195.442457 157.263473 
L 196.528258 152.640111 
L 197.614059 155.341305 
L 198.69986 154.696417 
L 199.785661 151.729058 
L 200.871462 154.993729 
L 201.957264 155.336798 
L 203.043065 154.243394 
L 204.128866 150.882555 
L 205.214667 156.367713 
L 206.300468 151.92897 
L 207.386269 149.03823 
L 208.472071 155.939284 
L 209.557872 156.347055 
L 210.643673 152.856834 
L 211.729474 155.474654 
L 212.815275 151.49459 
L 213.901076 154.328187 
L 214.986877 152.534692 
L 216.072679 156.693742 
L 217.15848 156.092657 
L 218.244281 152.877748 
L 220.415883 150.726827 
L 221.501684 148.585473 
L 222.587486 154.537423 
L 223.673287 156.682157 
L 224.759088 154.275782 
L 225.844889 154.094267 
L 226.93069 155.724875 
L 228.016491 155.359066 
L 229.102292 145.508786 
L 230.188094 150.640623 
L 231.273895 147.054011 
L 232.359696 154.882788 
L 233.445497 154.050484 
L 234.531298 162.038348 
L 235.617099 152.196401 
L 236.702901 148.333999 
L 237.788702 154.382123 
L 238.874503 151.421498 
L 239.960304 154.723487 
L 241.046105 152.805554 
L 242.131906 155.780652 
L 243.217708 147.79773 
L 244.303509 152.68555 
L 245.38931 150.751296 
L 246.475111 154.307393 
L 247.560912 148.003917 
L 248.646713 151.934528 
L 249.732514 153.998231 
L 250.818316 149.708058 
L 251.904117 153.383398 
L 252.989918 147.020149 
L 254.075719 153.070349 
L 255.16152 146.715622 
L 256.247321 148.987135 
L 257.333123 150.622987 
L 258.418924 153.023534 
L 259.504725 142.807634 
L 260.590526 153.124616 
L 261.676327 149.227323 
L 262.762128 147.875266 
L 263.847929 152.288929 
L 264.933731 148.314648 
L 266.019532 153.990777 
L 267.105333 148.473093 
L 268.191134 154.686033 
L 269.276935 150.785502 
L 270.362736 150.488581 
L 271.448538 156.004836 
L 272.534339 153.434085 
L 273.62014 149.708671 
L 274.705941 150.675743 
L 275.791742 148.103599 
L 276.877543 148.992916 
L 277.963344 148.851067 
L 279.049146 148.333275 
L 280.134947 148.582945 
L 281.220748 146.603537 
L 282.306549 152.922018 
L 283.39235 150.480794 
L 284.478151 153.855377 
L 285.563953 148.570383 
L 286.649754 148.169542 
L 287.735555 149.432916 
L 288.821356 146.138415 
L 289.907157 146.661975 
L 290.992958 151.113981 
L 292.07876 150.99496 
L 293.164561 152.37591 
L 294.250362 150.946027 
L 295.336163 146.149881 
L 296.421964 149.163909 
L 297.507765 146.89294 
L 298.593566 145.577366 
L 299.679368 150.47987 
L 300.765169 150.23337 
L 301.85097 151.550221 
L 302.936771 148.068837 
L 304.022572 149.760011 
L 305.108373 150.313254 
L 306.194175 152.668469 
L 307.279976 150.729915 
L 308.365777 149.203873 
L 309.451578 148.172658 
L 310.537379 147.674175 
L 311.62318 149.066255 
L 312.708981 147.958725 
L 313.794783 147.849678 
L 314.880584 152.413853 
L 315.966385 150.568526 
L 317.052186 146.771188 
L 318.137987 146.328527 
L 319.223788 149.875657 
L 320.30959 147.875336 
L 321.395391 142.099001 
L 323.566993 150.028515 
L 324.652794 149.190716 
L 325.738595 153.719664 
L 326.824396 145.969661 
L 327.910198 151.394742 
L 328.995999 148.387182 
L 330.0818 151.328621 
L 331.167601 143.701131 
L 332.253402 146.711465 
L 333.339203 148.744853 
L 334.425005 149.275442 
L 335.510806 148.013863 
L 336.596607 148.387124 
L 337.682408 145.816164 
L 338.768209 149.10024 
L 339.85401 146.297026 
L 340.939811 144.044716 
L 342.025613 148.118522 
L 343.111414 149.589214 
L 344.197215 152.241206 
L 345.283016 151.214002 
L 346.368817 148.943715 
L 347.454618 144.45754 
L 349.626221 149.923218 
L 350.712022 148.352381 
L 351.797823 149.729525 
L 352.883624 148.411824 
L 353.969425 149.678834 
L 355.055227 142.085197 
L 356.141028 144.695743 
L 357.226829 141.214529 
L 358.31263 148.409845 
L 359.398431 147.139607 
L 360.484232 148.263501 
L 361.570033 144.193298 
L 362.655835 142.472423 
L 363.741636 149.898562 
L 364.827437 150.437528 
L 366.999039 144.357447 
L 368.08484 148.557661 
L 369.170642 149.466596 
L 370.256443 143.729166 
L 371.342244 146.952746 
L 372.428045 151.543482 
L 373.513846 148.790565 
L 374.599647 144.210567 
L 375.685448 144.949894 
L 376.77125 147.307857 
L 377.857051 144.836895 
L 378.942852 143.944809 
L 380.028653 146.680459 
L 381.114454 151.239882 
L 383.286057 149.256894 
L 384.371858 150.650871 
L 385.457659 149.542925 
L 386.54346 143.384485 
L 387.629261 149.069335 
L 388.715062 147.140521 
L 389.800863 146.216766 
L 390.886665 147.59946 
L 391.972466 149.970044 
L 393.058267 145.741141 
L 394.144068 147.741399 
L 395.229869 148.982331 
L 396.31567 145.025025 
L 397.401472 142.524685 
L 398.487273 144.321474 
L 398.487273 144.321474 
" style="fill:none;stroke:#008000;stroke-dasharray:9.6,2.4,1.5,2.4;stroke-dashoffset:0;stroke-width:1.5;"/>
   </g>
   <g id="line2d_34">
    <path clip-path="url(#p5b9a696358)" d="M 73.832727 176.379917 
L 74.918528 163.318427 
L 76.00433 163.318427 
L 77.090131 151.616104 
L 78.175932 137.639092 
L 79.261733 137.476311 
L 80.347534 127.305223 
L 81.433335 127.305223 
L 82.519137 108.716786 
L 85.77654 108.716786 
L 86.862341 101.128164 
L 100.977756 101.128164 
L 102.063557 99.970923 
L 109.664165 99.970923 
L 110.749967 53.568 
L 398.487273 53.568 
L 398.487273 53.568 
" style="fill:none;stroke:#ff0000;stroke-linecap:square;stroke-width:1.5;"/>
   </g>
   <g id="patch_3">
    <path d="M 57.6 307.584 
L 57.6 41.472 
" style="fill:none;stroke:#000000;stroke-linecap:square;stroke-linejoin:miter;stroke-width:0.8;"/>
   </g>
   <g id="patch_4">
    <path d="M 414.72 307.584 
L 414.72 41.472 
" style="fill:none;stroke:#000000;stroke-linecap:square;stroke-linejoin:miter;stroke-width:0.8;"/>
   </g>
   <g id="patch_5">
    <path d="M 57.6 307.584 
L 414.72 307.584 
" style="fill:none;stroke:#000000;stroke-linecap:square;stroke-linejoin:miter;stroke-width:0.8;"/>
   </g>
   <g id="patch_6">
    <path d="M 57.6 41.472 
L 414.72 41.472 
" style="fill:none;stroke:#000000;stroke-linecap:square;stroke-linejoin:miter;stroke-width:0.8;"/>
   </g>
   <g id="text_18">
    <!-- Population's average and best fitness -->
    <defs>
     <path d="M 19.671875 64.796875 
L 19.671875 37.40625 
L 32.078125 37.40625 
Q 38.96875 37.40625 42.71875 40.96875 
Q 46.484375 44.53125 46.484375 51.125 
Q 46.484375 57.671875 42.71875 61.234375 
Q 38.96875 64.796875 32.078125 64.796875 
z
M 9.8125 72.90625 
L 32.078125 72.90625 
Q 44.34375 72.90625 50.609375 67.359375 
Q 56.890625 61.8125 56.890625 51.125 
Q 56.890625 40.328125 50.609375 34.8125 
Q 44.34375 29.296875 32.078125 29.296875 
L 19.671875 29.296875 
L 19.671875 0 
L 9.8125 0 
z
" id="DejaVuSans-80"/>
     <path d="M 18.109375 8.203125 
L 18.109375 -20.796875 
L 9.078125 -20.796875 
L 9.078125 54.6875 
L 18.109375 54.6875 
L 18.109375 46.390625 
Q 20.953125 51.265625 25.265625 53.625 
Q 29.59375 56 35.59375 56 
Q 45.5625 56 51.78125 48.09375 
Q 58.015625 40.1875 58.015625 27.296875 
Q 58.015625 14.40625 51.78125 6.484375 
Q 45.5625 -1.421875 35.59375 -1.421875 
Q 29.59375 -1.421875 25.265625 0.953125 
Q 20.953125 3.328125 18.109375 8.203125 
z
M 48.6875 27.296875 
Q 48.6875 37.203125 44.609375 42.84375 
Q 40.53125 48.484375 33.40625 48.484375 
Q 26.265625 48.484375 22.1875 42.84375 
Q 18.109375 37.203125 18.109375 27.296875 
Q 18.109375 17.390625 22.1875 11.75 
Q 26.265625 6.109375 33.40625 6.109375 
Q 40.53125 6.109375 44.609375 11.75 
Q 48.6875 17.390625 48.6875 27.296875 
z
" id="DejaVuSans-112"/>
     <path d="M 8.5 21.578125 
L 8.5 54.6875 
L 17.484375 54.6875 
L 17.484375 21.921875 
Q 17.484375 14.15625 20.5 10.265625 
Q 23.53125 6.390625 29.59375 6.390625 
Q 36.859375 6.390625 41.078125 11.03125 
Q 45.3125 15.671875 45.3125 23.6875 
L 45.3125 54.6875 
L 54.296875 54.6875 
L 54.296875 0 
L 45.3125 0 
L 45.3125 8.40625 
Q 42.046875 3.421875 37.71875 1 
Q 33.40625 -1.421875 27.6875 -1.421875 
Q 18.265625 -1.421875 13.375 4.4375 
Q 8.5 10.296875 8.5 21.578125 
z
M 31.109375 56 
z
" id="DejaVuSans-117"/>
     <path d="M 9.421875 75.984375 
L 18.40625 75.984375 
L 18.40625 0 
L 9.421875 0 
z
" id="DejaVuSans-108"/>
     <path d="M 17.921875 72.90625 
L 17.921875 45.796875 
L 9.625 45.796875 
L 9.625 72.90625 
z
" id="DejaVuSans-39"/>
     <path id="DejaVuSans-32"/>
     <path d="M 2.984375 54.6875 
L 12.5 54.6875 
L 29.59375 8.796875 
L 46.6875 54.6875 
L 56.203125 54.6875 
L 35.6875 0 
L 23.484375 0 
z
" id="DejaVuSans-118"/>
     <path d="M 45.40625 27.984375 
Q 45.40625 37.75 41.375 43.109375 
Q 37.359375 48.484375 30.078125 48.484375 
Q 22.859375 48.484375 18.828125 43.109375 
Q 14.796875 37.75 14.796875 27.984375 
Q 14.796875 18.265625 18.828125 12.890625 
Q 22.859375 7.515625 30.078125 7.515625 
Q 37.359375 7.515625 41.375 12.890625 
Q 45.40625 18.265625 45.40625 27.984375 
z
M 54.390625 6.78125 
Q 54.390625 -7.171875 48.1875 -13.984375 
Q 42 -20.796875 29.203125 -20.796875 
Q 24.46875 -20.796875 20.265625 -20.09375 
Q 16.0625 -19.390625 12.109375 -17.921875 
L 12.109375 -9.1875 
Q 16.0625 -11.328125 19.921875 -12.34375 
Q 23.78125 -13.375 27.78125 -13.375 
Q 36.625 -13.375 41.015625 -8.765625 
Q 45.40625 -4.15625 45.40625 5.171875 
L 45.40625 9.625 
Q 42.625 4.78125 38.28125 2.390625 
Q 33.9375 0 27.875 0 
Q 17.828125 0 11.671875 7.65625 
Q 5.515625 15.328125 5.515625 27.984375 
Q 5.515625 40.671875 11.671875 48.328125 
Q 17.828125 56 27.875 56 
Q 33.9375 56 38.28125 53.609375 
Q 42.625 51.21875 45.40625 46.390625 
L 45.40625 54.6875 
L 54.390625 54.6875 
z
" id="DejaVuSans-103"/>
     <path d="M 45.40625 46.390625 
L 45.40625 75.984375 
L 54.390625 75.984375 
L 54.390625 0 
L 45.40625 0 
L 45.40625 8.203125 
Q 42.578125 3.328125 38.25 0.953125 
Q 33.9375 -1.421875 27.875 -1.421875 
Q 17.96875 -1.421875 11.734375 6.484375 
Q 5.515625 14.40625 5.515625 27.296875 
Q 5.515625 40.1875 11.734375 48.09375 
Q 17.96875 56 27.875 56 
Q 33.9375 56 38.25 53.625 
Q 42.578125 51.265625 45.40625 46.390625 
z
M 14.796875 27.296875 
Q 14.796875 17.390625 18.875 11.75 
Q 22.953125 6.109375 30.078125 6.109375 
Q 37.203125 6.109375 41.296875 11.75 
Q 45.40625 17.390625 45.40625 27.296875 
Q 45.40625 37.203125 41.296875 42.84375 
Q 37.203125 48.484375 30.078125 48.484375 
Q 22.953125 48.484375 18.875 42.84375 
Q 14.796875 37.203125 14.796875 27.296875 
z
" id="DejaVuSans-100"/>
     <path d="M 48.6875 27.296875 
Q 48.6875 37.203125 44.609375 42.84375 
Q 40.53125 48.484375 33.40625 48.484375 
Q 26.265625 48.484375 22.1875 42.84375 
Q 18.109375 37.203125 18.109375 27.296875 
Q 18.109375 17.390625 22.1875 11.75 
Q 26.265625 6.109375 33.40625 6.109375 
Q 40.53125 6.109375 44.609375 11.75 
Q 48.6875 17.390625 48.6875 27.296875 
z
M 18.109375 46.390625 
Q 20.953125 51.265625 25.265625 53.625 
Q 29.59375 56 35.59375 56 
Q 45.5625 56 51.78125 48.09375 
Q 58.015625 40.1875 58.015625 27.296875 
Q 58.015625 14.40625 51.78125 6.484375 
Q 45.5625 -1.421875 35.59375 -1.421875 
Q 29.59375 -1.421875 25.265625 0.953125 
Q 20.953125 3.328125 18.109375 8.203125 
L 18.109375 0 
L 9.078125 0 
L 9.078125 75.984375 
L 18.109375 75.984375 
z
" id="DejaVuSans-98"/>
     <path d="M 37.109375 75.984375 
L 37.109375 68.5 
L 28.515625 68.5 
Q 23.6875 68.5 21.796875 66.546875 
Q 19.921875 64.59375 19.921875 59.515625 
L 19.921875 54.6875 
L 34.71875 54.6875 
L 34.71875 47.703125 
L 19.921875 47.703125 
L 19.921875 0 
L 10.890625 0 
L 10.890625 47.703125 
L 2.296875 47.703125 
L 2.296875 54.6875 
L 10.890625 54.6875 
L 10.890625 58.5 
Q 10.890625 67.625 15.140625 71.796875 
Q 19.390625 75.984375 28.609375 75.984375 
z
" id="DejaVuSans-102"/>
    </defs>
    <g transform="translate(123.315 35.472)scale(0.12 -0.12)">
     <use xlink:href="#DejaVuSans-80"/>
     <use x="60.255859" xlink:href="#DejaVuSans-111"/>
     <use x="121.4375" xlink:href="#DejaVuSans-112"/>
     <use x="184.914062" xlink:href="#DejaVuSans-117"/>
     <use x="248.292969" xlink:href="#DejaVuSans-108"/>
     <use x="276.076172" xlink:href="#DejaVuSans-97"/>
     <use x="337.355469" xlink:href="#DejaVuSans-116"/>
     <use x="376.564453" xlink:href="#DejaVuSans-105"/>
     <use x="404.347656" xlink:href="#DejaVuSans-111"/>
     <use x="465.529297" xlink:href="#DejaVuSans-110"/>
     <use x="528.908203" xlink:href="#DejaVuSans-39"/>
     <use x="556.398438" xlink:href="#DejaVuSans-115"/>
     <use x="608.498047" xlink:href="#DejaVuSans-32"/>
     <use x="640.285156" xlink:href="#DejaVuSans-97"/>
     <use x="701.564453" xlink:href="#DejaVuSans-118"/>
     <use x="760.744141" xlink:href="#DejaVuSans-101"/>
     <use x="822.267578" xlink:href="#DejaVuSans-114"/>
     <use x="863.380859" xlink:href="#DejaVuSans-97"/>
     <use x="924.660156" xlink:href="#DejaVuSans-103"/>
     <use x="988.136719" xlink:href="#DejaVuSans-101"/>
     <use x="1049.660156" xlink:href="#DejaVuSans-32"/>
     <use x="1081.447266" xlink:href="#DejaVuSans-97"/>
     <use x="1142.726562" xlink:href="#DejaVuSans-110"/>
     <use x="1206.105469" xlink:href="#DejaVuSans-100"/>
     <use x="1269.582031" xlink:href="#DejaVuSans-32"/>
     <use x="1301.369141" xlink:href="#DejaVuSans-98"/>
     <use x="1364.845703" xlink:href="#DejaVuSans-101"/>
     <use x="1426.369141" xlink:href="#DejaVuSans-115"/>
     <use x="1478.46875" xlink:href="#DejaVuSans-116"/>
     <use x="1517.677734" xlink:href="#DejaVuSans-32"/>
     <use x="1549.464844" xlink:href="#DejaVuSans-102"/>
     <use x="1584.669922" xlink:href="#DejaVuSans-105"/>
     <use x="1612.453125" xlink:href="#DejaVuSans-116"/>
     <use x="1651.662109" xlink:href="#DejaVuSans-110"/>
     <use x="1715.041016" xlink:href="#DejaVuSans-101"/>
     <use x="1776.564453" xlink:href="#DejaVuSans-115"/>
     <use x="1828.664062" xlink:href="#DejaVuSans-115"/>
    </g>
   </g>
   <g id="legend_1">
    <g id="patch_7">
     <path d="M 64.6 108.1845 
L 137.540625 108.1845 
Q 139.540625 108.1845 139.540625 106.1845 
L 139.540625 48.472 
Q 139.540625 46.472 137.540625 46.472 
L 64.6 46.472 
Q 62.6 46.472 62.6 48.472 
L 62.6 106.1845 
Q 62.6 108.1845 64.6 108.1845 
z
" style="fill:#ffffff;opacity:0.8;stroke:#cccccc;stroke-linejoin:miter;"/>
    </g>
    <g id="line2d_35">
     <path d="M 66.6 54.570438 
L 86.6 54.570438 
" style="fill:none;stroke:#0000ff;stroke-linecap:square;stroke-width:1.5;"/>
    </g>
    <g id="line2d_36"/>
    <g id="text_19">
     <!-- average -->
     <g transform="translate(94.6 58.070438)scale(0.1 -0.1)">
      <use xlink:href="#DejaVuSans-97"/>
      <use x="61.279297" xlink:href="#DejaVuSans-118"/>
      <use x="120.458984" xlink:href="#DejaVuSans-101"/>
      <use x="181.982422" xlink:href="#DejaVuSans-114"/>
      <use x="223.095703" xlink:href="#DejaVuSans-97"/>
      <use x="284.375" xlink:href="#DejaVuSans-103"/>
      <use x="347.851562" xlink:href="#DejaVuSans-101"/>
     </g>
    </g>
    <g id="line2d_37">
     <path d="M 66.6 69.248563 
L 86.6 69.248563 
" style="fill:none;stroke:#008000;stroke-dasharray:9.6,2.4,1.5,2.4;stroke-dashoffset:0;stroke-width:1.5;"/>
    </g>
    <g id="line2d_38"/>
    <g id="text_20">
     <!-- -1 sd -->
     <defs>
      <path d="M 4.890625 31.390625 
L 31.203125 31.390625 
L 31.203125 23.390625 
L 4.890625 23.390625 
z
" id="DejaVuSans-45"/>
     </defs>
     <g transform="translate(94.6 72.748563)scale(0.1 -0.1)">
      <use xlink:href="#DejaVuSans-45"/>
      <use x="36.083984" xlink:href="#DejaVuSans-49"/>
      <use x="99.707031" xlink:href="#DejaVuSans-32"/>
      <use x="131.494141" xlink:href="#DejaVuSans-115"/>
      <use x="183.59375" xlink:href="#DejaVuSans-100"/>
     </g>
    </g>
    <g id="line2d_39">
     <path d="M 66.6 83.926688 
L 86.6 83.926688 
" style="fill:none;stroke:#008000;stroke-dasharray:9.6,2.4,1.5,2.4;stroke-dashoffset:0;stroke-width:1.5;"/>
    </g>
    <g id="line2d_40"/>
    <g id="text_21">
     <!-- +1 sd -->
     <defs>
      <path d="M 46 62.703125 
L 46 35.5 
L 73.1875 35.5 
L 73.1875 27.203125 
L 46 27.203125 
L 46 0 
L 37.796875 0 
L 37.796875 27.203125 
L 10.59375 27.203125 
L 10.59375 35.5 
L 37.796875 35.5 
L 37.796875 62.703125 
z
" id="DejaVuSans-43"/>
     </defs>
     <g transform="translate(94.6 87.426688)scale(0.1 -0.1)">
      <use xlink:href="#DejaVuSans-43"/>
      <use x="83.789062" xlink:href="#DejaVuSans-49"/>
      <use x="147.412109" xlink:href="#DejaVuSans-32"/>
      <use x="179.199219" xlink:href="#DejaVuSans-115"/>
      <use x="231.298828" xlink:href="#DejaVuSans-100"/>
     </g>
    </g>
    <g id="line2d_41">
     <path d="M 66.6 98.604813 
L 86.6 98.604813 
" style="fill:none;stroke:#ff0000;stroke-linecap:square;stroke-width:1.5;"/>
    </g>
    <g id="line2d_42"/>
    <g id="text_22">
     <!-- best -->
     <g transform="translate(94.6 102.104813)scale(0.1 -0.1)">
      <use xlink:href="#DejaVuSans-98"/>
      <use x="63.476562" xlink:href="#DejaVuSans-101"/>
      <use x="125" xlink:href="#DejaVuSans-115"/>
      <use x="177.099609" xlink:href="#DejaVuSans-116"/>
     </g>
    </g>
   </g>
  </g>
 </g>
 <defs>
  <clipPath id="p5b9a696358">
   <rect height="266.112" width="357.12" x="57.6" y="41.472"/>
  </clipPath>
 </defs>
</svg>
