<?xml version="1.0" encoding="utf-8" standalone="no"?>
<!DOCTYPE svg PUBLIC "-//W3C//DTD SVG 1.1//EN"
  "http://www.w3.org/Graphics/SVG/1.1/DTD/svg11.dtd">
<!-- Created with matplotlib (https://matplotlib.org/) -->
<svg height="345.6pt" version="1.1" viewBox="0 0 460.8 345.6" width="460.8pt" xmlns="http://www.w3.org/2000/svg" xmlns:xlink="http://www.w3.org/1999/xlink">
 <defs>
  <style type="text/css">
*{stroke-linecap:butt;stroke-linejoin:round;}
  </style>
 </defs>
 <g id="figure_1">
  <g id="patch_1">
   <path d="M 0 345.6 
L 460.8 345.6 
L 460.8 0 
L 0 0 
z
" style="fill:#ffffff;"/>
  </g>
  <g id="axes_1">
   <g id="patch_2">
    <path d="M 57.6 307.584 
L 414.72 307.584 
L 414.72 41.472 
L 57.6 41.472 
z
" style="fill:#ffffff;"/>
   </g>
   <g id="matplotlib.axis_1">
    <g id="xtick_1">
     <g id="line2d_1">
      <path clip-path="url(#p823c6c84f6)" d="M 73.832727 307.584 
L 73.832727 41.472 
" style="fill:none;stroke:#b0b0b0;stroke-linecap:square;stroke-width:0.8;"/>
     </g>
     <g id="line2d_2">
      <defs>
       <path d="M 0 0 
L 0 3.5 
" id="m629511cff5" style="stroke:#000000;stroke-width:0.8;"/>
      </defs>
      <g>
       <use style="stroke:#000000;stroke-width:0.8;" x="73.832727" xlink:href="#m629511cff5" y="307.584"/>
      </g>
     </g>
     <g id="text_1">
      <!-- 0 -->
      <defs>
       <path d="M 31.78125 66.40625 
Q 24.171875 66.40625 20.328125 58.90625 
Q 16.5 51.421875 16.5 36.375 
Q 16.5 21.390625 20.328125 13.890625 
Q 24.171875 6.390625 31.78125 6.390625 
Q 39.453125 6.390625 43.28125 13.890625 
Q 47.125 21.390625 47.125 36.375 
Q 47.125 51.421875 43.28125 58.90625 
Q 39.453125 66.40625 31.78125 66.40625 
z
M 31.78125 74.21875 
Q 44.046875 74.21875 50.515625 64.515625 
Q 56.984375 54.828125 56.984375 36.375 
Q 56.984375 17.96875 50.515625 8.265625 
Q 44.046875 -1.421875 31.78125 -1.421875 
Q 19.53125 -1.421875 13.0625 8.265625 
Q 6.59375 17.96875 6.59375 36.375 
Q 6.59375 54.828125 13.0625 64.515625 
Q 19.53125 74.21875 31.78125 74.21875 
z
" id="DejaVuSans-48"/>
      </defs>
      <g transform="translate(70.651477 322.182437)scale(0.1 -0.1)">
       <use xlink:href="#DejaVuSans-48"/>
      </g>
     </g>
    </g>
    <g id="xtick_2">
     <g id="line2d_3">
      <path clip-path="url(#p823c6c84f6)" d="M 128.122785 307.584 
L 128.122785 41.472 
" style="fill:none;stroke:#b0b0b0;stroke-linecap:square;stroke-width:0.8;"/>
     </g>
     <g id="line2d_4">
      <g>
       <use style="stroke:#000000;stroke-width:0.8;" x="128.122785" xlink:href="#m629511cff5" y="307.584"/>
      </g>
     </g>
     <g id="text_2">
      <!-- 50 -->
      <defs>
       <path d="M 10.796875 72.90625 
L 49.515625 72.90625 
L 49.515625 64.59375 
L 19.828125 64.59375 
L 19.828125 46.734375 
Q 21.96875 47.46875 24.109375 47.828125 
Q 26.265625 48.1875 28.421875 48.1875 
Q 40.625 48.1875 47.75 41.5 
Q 54.890625 34.8125 54.890625 23.390625 
Q 54.890625 11.625 47.5625 5.09375 
Q 40.234375 -1.421875 26.90625 -1.421875 
Q 22.3125 -1.421875 17.546875 -0.640625 
Q 12.796875 0.140625 7.71875 1.703125 
L 7.71875 11.625 
Q 12.109375 9.234375 16.796875 8.0625 
Q 21.484375 6.890625 26.703125 6.890625 
Q 35.15625 6.890625 40.078125 11.328125 
Q 45.015625 15.765625 45.015625 23.390625 
Q 45.015625 31 40.078125 35.4375 
Q 35.15625 39.890625 26.703125 39.890625 
Q 22.75 39.890625 18.8125 39.015625 
Q 14.890625 38.140625 10.796875 36.28125 
z
" id="DejaVuSans-53"/>
      </defs>
      <g transform="translate(121.760285 322.182437)scale(0.1 -0.1)">
       <use xlink:href="#DejaVuSans-53"/>
       <use x="63.623047" xlink:href="#DejaVuSans-48"/>
      </g>
     </g>
    </g>
    <g id="xtick_3">
     <g id="line2d_5">
      <path clip-path="url(#p823c6c84f6)" d="M 182.412843 307.584 
L 182.412843 41.472 
" style="fill:none;stroke:#b0b0b0;stroke-linecap:square;stroke-width:0.8;"/>
     </g>
     <g id="line2d_6">
      <g>
       <use style="stroke:#000000;stroke-width:0.8;" x="182.412843" xlink:href="#m629511cff5" y="307.584"/>
      </g>
     </g>
     <g id="text_3">
      <!-- 100 -->
      <defs>
       <path d="M 12.40625 8.296875 
L 28.515625 8.296875 
L 28.515625 63.921875 
L 10.984375 60.40625 
L 10.984375 69.390625 
L 28.421875 72.90625 
L 38.28125 72.90625 
L 38.28125 8.296875 
L 54.390625 8.296875 
L 54.390625 0 
L 12.40625 0 
z
" id="DejaVuSans-49"/>
      </defs>
      <g transform="translate(172.869093 322.182437)scale(0.1 -0.1)">
       <use xlink:href="#DejaVuSans-49"/>
       <use x="63.623047" xlink:href="#DejaVuSans-48"/>
       <use x="127.246094" xlink:href="#DejaVuSans-48"/>
      </g>
     </g>
    </g>
    <g id="xtick_4">
     <g id="line2d_7">
      <path clip-path="url(#p823c6c84f6)" d="M 236.702901 307.584 
L 236.702901 41.472 
" style="fill:none;stroke:#b0b0b0;stroke-linecap:square;stroke-width:0.8;"/>
     </g>
     <g id="line2d_8">
      <g>
       <use style="stroke:#000000;stroke-width:0.8;" x="236.702901" xlink:href="#m629511cff5" y="307.584"/>
      </g>
     </g>
     <g id="text_4">
      <!-- 150 -->
      <g transform="translate(227.159151 322.182437)scale(0.1 -0.1)">
       <use xlink:href="#DejaVuSans-49"/>
       <use x="63.623047" xlink:href="#DejaVuSans-53"/>
       <use x="127.246094" xlink:href="#DejaVuSans-48"/>
      </g>
     </g>
    </g>
    <g id="xtick_5">
     <g id="line2d_9">
      <path clip-path="url(#p823c6c84f6)" d="M 290.992958 307.584 
L 290.992958 41.472 
" style="fill:none;stroke:#b0b0b0;stroke-linecap:square;stroke-width:0.8;"/>
     </g>
     <g id="line2d_10">
      <g>
       <use style="stroke:#000000;stroke-width:0.8;" x="290.992958" xlink:href="#m629511cff5" y="307.584"/>
      </g>
     </g>
     <g id="text_5">
      <!-- 200 -->
      <defs>
       <path d="M 19.1875 8.296875 
L 53.609375 8.296875 
L 53.609375 0 
L 7.328125 0 
L 7.328125 8.296875 
Q 12.9375 14.109375 22.625 23.890625 
Q 32.328125 33.6875 34.8125 36.53125 
Q 39.546875 41.84375 41.421875 45.53125 
Q 43.3125 49.21875 43.3125 52.78125 
Q 43.3125 58.59375 39.234375 62.25 
Q 35.15625 65.921875 28.609375 65.921875 
Q 23.96875 65.921875 18.8125 64.3125 
Q 13.671875 62.703125 7.8125 59.421875 
L 7.8125 69.390625 
Q 13.765625 71.78125 18.9375 73 
Q 24.125 74.21875 28.421875 74.21875 
Q 39.75 74.21875 46.484375 68.546875 
Q 53.21875 62.890625 53.21875 53.421875 
Q 53.21875 48.921875 51.53125 44.890625 
Q 49.859375 40.875 45.40625 35.40625 
Q 44.1875 33.984375 37.640625 27.21875 
Q 31.109375 20.453125 19.1875 8.296875 
z
" id="DejaVuSans-50"/>
      </defs>
      <g transform="translate(281.449208 322.182437)scale(0.1 -0.1)">
       <use xlink:href="#DejaVuSans-50"/>
       <use x="63.623047" xlink:href="#DejaVuSans-48"/>
       <use x="127.246094" xlink:href="#DejaVuSans-48"/>
      </g>
     </g>
    </g>
    <g id="xtick_6">
     <g id="line2d_11">
      <path clip-path="url(#p823c6c84f6)" d="M 345.283016 307.584 
L 345.283016 41.472 
" style="fill:none;stroke:#b0b0b0;stroke-linecap:square;stroke-width:0.8;"/>
     </g>
     <g id="line2d_12">
      <g>
       <use style="stroke:#000000;stroke-width:0.8;" x="345.283016" xlink:href="#m629511cff5" y="307.584"/>
      </g>
     </g>
     <g id="text_6">
      <!-- 250 -->
      <g transform="translate(335.739266 322.182437)scale(0.1 -0.1)">
       <use xlink:href="#DejaVuSans-50"/>
       <use x="63.623047" xlink:href="#DejaVuSans-53"/>
       <use x="127.246094" xlink:href="#DejaVuSans-48"/>
      </g>
     </g>
    </g>
    <g id="xtick_7">
     <g id="line2d_13">
      <path clip-path="url(#p823c6c84f6)" d="M 399.573074 307.584 
L 399.573074 41.472 
" style="fill:none;stroke:#b0b0b0;stroke-linecap:square;stroke-width:0.8;"/>
     </g>
     <g id="line2d_14">
      <g>
       <use style="stroke:#000000;stroke-width:0.8;" x="399.573074" xlink:href="#m629511cff5" y="307.584"/>
      </g>
     </g>
     <g id="text_7">
      <!-- 300 -->
      <defs>
       <path d="M 40.578125 39.3125 
Q 47.65625 37.796875 51.625 33 
Q 55.609375 28.21875 55.609375 21.1875 
Q 55.609375 10.40625 48.1875 4.484375 
Q 40.765625 -1.421875 27.09375 -1.421875 
Q 22.515625 -1.421875 17.65625 -0.515625 
Q 12.796875 0.390625 7.625 2.203125 
L 7.625 11.71875 
Q 11.71875 9.328125 16.59375 8.109375 
Q 21.484375 6.890625 26.8125 6.890625 
Q 36.078125 6.890625 40.9375 10.546875 
Q 45.796875 14.203125 45.796875 21.1875 
Q 45.796875 27.640625 41.28125 31.265625 
Q 36.765625 34.90625 28.71875 34.90625 
L 20.21875 34.90625 
L 20.21875 43.015625 
L 29.109375 43.015625 
Q 36.375 43.015625 40.234375 45.921875 
Q 44.09375 48.828125 44.09375 54.296875 
Q 44.09375 59.90625 40.109375 62.90625 
Q 36.140625 65.921875 28.71875 65.921875 
Q 24.65625 65.921875 20.015625 65.03125 
Q 15.375 64.15625 9.8125 62.3125 
L 9.8125 71.09375 
Q 15.4375 72.65625 20.34375 73.4375 
Q 25.25 74.21875 29.59375 74.21875 
Q 40.828125 74.21875 47.359375 69.109375 
Q 53.90625 64.015625 53.90625 55.328125 
Q 53.90625 49.265625 50.4375 45.09375 
Q 46.96875 40.921875 40.578125 39.3125 
z
" id="DejaVuSans-51"/>
      </defs>
      <g transform="translate(390.029324 322.182437)scale(0.1 -0.1)">
       <use xlink:href="#DejaVuSans-51"/>
       <use x="63.623047" xlink:href="#DejaVuSans-48"/>
       <use x="127.246094" xlink:href="#DejaVuSans-48"/>
      </g>
     </g>
    </g>
    <g id="text_8">
     <!-- Generations -->
     <defs>
      <path d="M 59.515625 10.40625 
L 59.515625 29.984375 
L 43.40625 29.984375 
L 43.40625 38.09375 
L 69.28125 38.09375 
L 69.28125 6.78125 
Q 63.578125 2.734375 56.6875 0.65625 
Q 49.8125 -1.421875 42 -1.421875 
Q 24.90625 -1.421875 15.25 8.5625 
Q 5.609375 18.5625 5.609375 36.375 
Q 5.609375 54.25 15.25 64.234375 
Q 24.90625 74.21875 42 74.21875 
Q 49.125 74.21875 55.546875 72.453125 
Q 61.96875 70.703125 67.390625 67.28125 
L 67.390625 56.78125 
Q 61.921875 61.421875 55.765625 63.765625 
Q 49.609375 66.109375 42.828125 66.109375 
Q 29.4375 66.109375 22.71875 58.640625 
Q 16.015625 51.171875 16.015625 36.375 
Q 16.015625 21.625 22.71875 14.15625 
Q 29.4375 6.6875 42.828125 6.6875 
Q 48.046875 6.6875 52.140625 7.59375 
Q 56.25 8.5 59.515625 10.40625 
z
" id="DejaVuSans-71"/>
      <path d="M 56.203125 29.59375 
L 56.203125 25.203125 
L 14.890625 25.203125 
Q 15.484375 15.921875 20.484375 11.0625 
Q 25.484375 6.203125 34.421875 6.203125 
Q 39.59375 6.203125 44.453125 7.46875 
Q 49.3125 8.734375 54.109375 11.28125 
L 54.109375 2.78125 
Q 49.265625 0.734375 44.1875 -0.34375 
Q 39.109375 -1.421875 33.890625 -1.421875 
Q 20.796875 -1.421875 13.15625 6.1875 
Q 5.515625 13.8125 5.515625 26.8125 
Q 5.515625 40.234375 12.765625 48.109375 
Q 20.015625 56 32.328125 56 
Q 43.359375 56 49.78125 48.890625 
Q 56.203125 41.796875 56.203125 29.59375 
z
M 47.21875 32.234375 
Q 47.125 39.59375 43.09375 43.984375 
Q 39.0625 48.390625 32.421875 48.390625 
Q 24.90625 48.390625 20.390625 44.140625 
Q 15.875 39.890625 15.1875 32.171875 
z
" id="DejaVuSans-101"/>
      <path d="M 54.890625 33.015625 
L 54.890625 0 
L 45.90625 0 
L 45.90625 32.71875 
Q 45.90625 40.484375 42.875 44.328125 
Q 39.84375 48.1875 33.796875 48.1875 
Q 26.515625 48.1875 22.3125 43.546875 
Q 18.109375 38.921875 18.109375 30.90625 
L 18.109375 0 
L 9.078125 0 
L 9.078125 54.6875 
L 18.109375 54.6875 
L 18.109375 46.1875 
Q 21.34375 51.125 25.703125 53.5625 
Q 30.078125 56 35.796875 56 
Q 45.21875 56 50.046875 50.171875 
Q 54.890625 44.34375 54.890625 33.015625 
z
" id="DejaVuSans-110"/>
      <path d="M 41.109375 46.296875 
Q 39.59375 47.171875 37.8125 47.578125 
Q 36.03125 48 33.890625 48 
Q 26.265625 48 22.1875 43.046875 
Q 18.109375 38.09375 18.109375 28.8125 
L 18.109375 0 
L 9.078125 0 
L 9.078125 54.6875 
L 18.109375 54.6875 
L 18.109375 46.1875 
Q 20.953125 51.171875 25.484375 53.578125 
Q 30.03125 56 36.53125 56 
Q 37.453125 56 38.578125 55.875 
Q 39.703125 55.765625 41.0625 55.515625 
z
" id="DejaVuSans-114"/>
      <path d="M 34.28125 27.484375 
Q 23.390625 27.484375 19.1875 25 
Q 14.984375 22.515625 14.984375 16.5 
Q 14.984375 11.71875 18.140625 8.90625 
Q 21.296875 6.109375 26.703125 6.109375 
Q 34.1875 6.109375 38.703125 11.40625 
Q 43.21875 16.703125 43.21875 25.484375 
L 43.21875 27.484375 
z
M 52.203125 31.203125 
L 52.203125 0 
L 43.21875 0 
L 43.21875 8.296875 
Q 40.140625 3.328125 35.546875 0.953125 
Q 30.953125 -1.421875 24.3125 -1.421875 
Q 15.921875 -1.421875 10.953125 3.296875 
Q 6 8.015625 6 15.921875 
Q 6 25.140625 12.171875 29.828125 
Q 18.359375 34.515625 30.609375 34.515625 
L 43.21875 34.515625 
L 43.21875 35.40625 
Q 43.21875 41.609375 39.140625 45 
Q 35.0625 48.390625 27.6875 48.390625 
Q 23 48.390625 18.546875 47.265625 
Q 14.109375 46.140625 10.015625 43.890625 
L 10.015625 52.203125 
Q 14.9375 54.109375 19.578125 55.046875 
Q 24.21875 56 28.609375 56 
Q 40.484375 56 46.34375 49.84375 
Q 52.203125 43.703125 52.203125 31.203125 
z
" id="DejaVuSans-97"/>
      <path d="M 18.3125 70.21875 
L 18.3125 54.6875 
L 36.8125 54.6875 
L 36.8125 47.703125 
L 18.3125 47.703125 
L 18.3125 18.015625 
Q 18.3125 11.328125 20.140625 9.421875 
Q 21.96875 7.515625 27.59375 7.515625 
L 36.8125 7.515625 
L 36.8125 0 
L 27.59375 0 
Q 17.1875 0 13.234375 3.875 
Q 9.28125 7.765625 9.28125 18.015625 
L 9.28125 47.703125 
L 2.6875 47.703125 
L 2.6875 54.6875 
L 9.28125 54.6875 
L 9.28125 70.21875 
z
" id="DejaVuSans-116"/>
      <path d="M 9.421875 54.6875 
L 18.40625 54.6875 
L 18.40625 0 
L 9.421875 0 
z
M 9.421875 75.984375 
L 18.40625 75.984375 
L 18.40625 64.59375 
L 9.421875 64.59375 
z
" id="DejaVuSans-105"/>
      <path d="M 30.609375 48.390625 
Q 23.390625 48.390625 19.1875 42.75 
Q 14.984375 37.109375 14.984375 27.296875 
Q 14.984375 17.484375 19.15625 11.84375 
Q 23.34375 6.203125 30.609375 6.203125 
Q 37.796875 6.203125 41.984375 11.859375 
Q 46.1875 17.53125 46.1875 27.296875 
Q 46.1875 37.015625 41.984375 42.703125 
Q 37.796875 48.390625 30.609375 48.390625 
z
M 30.609375 56 
Q 42.328125 56 49.015625 48.375 
Q 55.71875 40.765625 55.71875 27.296875 
Q 55.71875 13.875 49.015625 6.21875 
Q 42.328125 -1.421875 30.609375 -1.421875 
Q 18.84375 -1.421875 12.171875 6.21875 
Q 5.515625 13.875 5.515625 27.296875 
Q 5.515625 40.765625 12.171875 48.375 
Q 18.84375 56 30.609375 56 
z
" id="DejaVuSans-111"/>
      <path d="M 44.28125 53.078125 
L 44.28125 44.578125 
Q 40.484375 46.53125 36.375 47.5 
Q 32.28125 48.484375 27.875 48.484375 
Q 21.1875 48.484375 17.84375 46.4375 
Q 14.5 44.390625 14.5 40.28125 
Q 14.5 37.15625 16.890625 35.375 
Q 19.28125 33.59375 26.515625 31.984375 
L 29.59375 31.296875 
Q 39.15625 29.25 43.1875 25.515625 
Q 47.21875 21.78125 47.21875 15.09375 
Q 47.21875 7.46875 41.1875 3.015625 
Q 35.15625 -1.421875 24.609375 -1.421875 
Q 20.21875 -1.421875 15.453125 -0.5625 
Q 10.6875 0.296875 5.421875 2 
L 5.421875 11.28125 
Q 10.40625 8.6875 15.234375 7.390625 
Q 20.0625 6.109375 24.8125 6.109375 
Q 31.15625 6.109375 34.5625 8.28125 
Q 37.984375 10.453125 37.984375 14.40625 
Q 37.984375 18.0625 35.515625 20.015625 
Q 33.0625 21.96875 24.703125 23.78125 
L 21.578125 24.515625 
Q 13.234375 26.265625 9.515625 29.90625 
Q 5.8125 33.546875 5.8125 39.890625 
Q 5.8125 47.609375 11.28125 51.796875 
Q 16.75 56 26.8125 56 
Q 31.78125 56 36.171875 55.265625 
Q 40.578125 54.546875 44.28125 53.078125 
z
" id="DejaVuSans-115"/>
     </defs>
     <g transform="translate(205.662344 335.860562)scale(0.1 -0.1)">
      <use xlink:href="#DejaVuSans-71"/>
      <use x="77.490234" xlink:href="#DejaVuSans-101"/>
      <use x="139.013672" xlink:href="#DejaVuSans-110"/>
      <use x="202.392578" xlink:href="#DejaVuSans-101"/>
      <use x="263.916016" xlink:href="#DejaVuSans-114"/>
      <use x="305.029297" xlink:href="#DejaVuSans-97"/>
      <use x="366.308594" xlink:href="#DejaVuSans-116"/>
      <use x="405.517578" xlink:href="#DejaVuSans-105"/>
      <use x="433.300781" xlink:href="#DejaVuSans-111"/>
      <use x="494.482422" xlink:href="#DejaVuSans-110"/>
      <use x="557.861328" xlink:href="#DejaVuSans-115"/>
     </g>
    </g>
   </g>
   <g id="matplotlib.axis_2">
    <g id="ytick_1">
     <g id="line2d_15">
      <path clip-path="url(#p823c6c84f6)" d="M 57.6 296.934238 
L 414.72 296.934238 
" style="fill:none;stroke:#b0b0b0;stroke-linecap:square;stroke-width:0.8;"/>
     </g>
     <g id="line2d_16">
      <defs>
       <path d="M 0 0 
L -3.5 0 
" id="m420ef8b9e1" style="stroke:#000000;stroke-width:0.8;"/>
      </defs>
      <g>
       <use style="stroke:#000000;stroke-width:0.8;" x="57.6" xlink:href="#m420ef8b9e1" y="296.934238"/>
      </g>
     </g>
     <g id="text_9">
      <!-- −0.0025 -->
      <defs>
       <path d="M 10.59375 35.5 
L 73.1875 35.5 
L 73.1875 27.203125 
L 10.59375 27.203125 
z
" id="DejaVuSans-8722"/>
       <path d="M 10.6875 12.40625 
L 21 12.40625 
L 21 0 
L 10.6875 0 
z
" id="DejaVuSans-46"/>
      </defs>
      <g transform="translate(7.229687 300.733457)scale(0.1 -0.1)">
       <use xlink:href="#DejaVuSans-8722"/>
       <use x="83.789062" xlink:href="#DejaVuSans-48"/>
       <use x="147.412109" xlink:href="#DejaVuSans-46"/>
       <use x="179.199219" xlink:href="#DejaVuSans-48"/>
       <use x="242.822266" xlink:href="#DejaVuSans-48"/>
       <use x="306.445312" xlink:href="#DejaVuSans-50"/>
       <use x="370.068359" xlink:href="#DejaVuSans-53"/>
      </g>
     </g>
    </g>
    <g id="ytick_2">
     <g id="line2d_17">
      <path clip-path="url(#p823c6c84f6)" d="M 57.6 265.73156 
L 414.72 265.73156 
" style="fill:none;stroke:#b0b0b0;stroke-linecap:square;stroke-width:0.8;"/>
     </g>
     <g id="line2d_18">
      <g>
       <use style="stroke:#000000;stroke-width:0.8;" x="57.6" xlink:href="#m420ef8b9e1" y="265.73156"/>
      </g>
     </g>
     <g id="text_10">
      <!-- 0.0000 -->
      <g transform="translate(15.609375 269.530779)scale(0.1 -0.1)">
       <use xlink:href="#DejaVuSans-48"/>
       <use x="63.623047" xlink:href="#DejaVuSans-46"/>
       <use x="95.410156" xlink:href="#DejaVuSans-48"/>
       <use x="159.033203" xlink:href="#DejaVuSans-48"/>
       <use x="222.65625" xlink:href="#DejaVuSans-48"/>
       <use x="286.279297" xlink:href="#DejaVuSans-48"/>
      </g>
     </g>
    </g>
    <g id="ytick_3">
     <g id="line2d_19">
      <path clip-path="url(#p823c6c84f6)" d="M 57.6 234.528882 
L 414.72 234.528882 
" style="fill:none;stroke:#b0b0b0;stroke-linecap:square;stroke-width:0.8;"/>
     </g>
     <g id="line2d_20">
      <g>
       <use style="stroke:#000000;stroke-width:0.8;" x="57.6" xlink:href="#m420ef8b9e1" y="234.528882"/>
      </g>
     </g>
     <g id="text_11">
      <!-- 0.0025 -->
      <g transform="translate(15.609375 238.328101)scale(0.1 -0.1)">
       <use xlink:href="#DejaVuSans-48"/>
       <use x="63.623047" xlink:href="#DejaVuSans-46"/>
       <use x="95.410156" xlink:href="#DejaVuSans-48"/>
       <use x="159.033203" xlink:href="#DejaVuSans-48"/>
       <use x="222.65625" xlink:href="#DejaVuSans-50"/>
       <use x="286.279297" xlink:href="#DejaVuSans-53"/>
      </g>
     </g>
    </g>
    <g id="ytick_4">
     <g id="line2d_21">
      <path clip-path="url(#p823c6c84f6)" d="M 57.6 203.326204 
L 414.72 203.326204 
" style="fill:none;stroke:#b0b0b0;stroke-linecap:square;stroke-width:0.8;"/>
     </g>
     <g id="line2d_22">
      <g>
       <use style="stroke:#000000;stroke-width:0.8;" x="57.6" xlink:href="#m420ef8b9e1" y="203.326204"/>
      </g>
     </g>
     <g id="text_12">
      <!-- 0.0050 -->
      <g transform="translate(15.609375 207.125423)scale(0.1 -0.1)">
       <use xlink:href="#DejaVuSans-48"/>
       <use x="63.623047" xlink:href="#DejaVuSans-46"/>
       <use x="95.410156" xlink:href="#DejaVuSans-48"/>
       <use x="159.033203" xlink:href="#DejaVuSans-48"/>
       <use x="222.65625" xlink:href="#DejaVuSans-53"/>
       <use x="286.279297" xlink:href="#DejaVuSans-48"/>
      </g>
     </g>
    </g>
    <g id="ytick_5">
     <g id="line2d_23">
      <path clip-path="url(#p823c6c84f6)" d="M 57.6 172.123526 
L 414.72 172.123526 
" style="fill:none;stroke:#b0b0b0;stroke-linecap:square;stroke-width:0.8;"/>
     </g>
     <g id="line2d_24">
      <g>
       <use style="stroke:#000000;stroke-width:0.8;" x="57.6" xlink:href="#m420ef8b9e1" y="172.123526"/>
      </g>
     </g>
     <g id="text_13">
      <!-- 0.0075 -->
      <defs>
       <path d="M 8.203125 72.90625 
L 55.078125 72.90625 
L 55.078125 68.703125 
L 28.609375 0 
L 18.3125 0 
L 43.21875 64.59375 
L 8.203125 64.59375 
z
" id="DejaVuSans-55"/>
      </defs>
      <g transform="translate(15.609375 175.922745)scale(0.1 -0.1)">
       <use xlink:href="#DejaVuSans-48"/>
       <use x="63.623047" xlink:href="#DejaVuSans-46"/>
       <use x="95.410156" xlink:href="#DejaVuSans-48"/>
       <use x="159.033203" xlink:href="#DejaVuSans-48"/>
       <use x="222.65625" xlink:href="#DejaVuSans-55"/>
       <use x="286.279297" xlink:href="#DejaVuSans-53"/>
      </g>
     </g>
    </g>
    <g id="ytick_6">
     <g id="line2d_25">
      <path clip-path="url(#p823c6c84f6)" d="M 57.6 140.920848 
L 414.72 140.920848 
" style="fill:none;stroke:#b0b0b0;stroke-linecap:square;stroke-width:0.8;"/>
     </g>
     <g id="line2d_26">
      <g>
       <use style="stroke:#000000;stroke-width:0.8;" x="57.6" xlink:href="#m420ef8b9e1" y="140.920848"/>
      </g>
     </g>
     <g id="text_14">
      <!-- 0.0100 -->
      <g transform="translate(15.609375 144.720067)scale(0.1 -0.1)">
       <use xlink:href="#DejaVuSans-48"/>
       <use x="63.623047" xlink:href="#DejaVuSans-46"/>
       <use x="95.410156" xlink:href="#DejaVuSans-48"/>
       <use x="159.033203" xlink:href="#DejaVuSans-49"/>
       <use x="222.65625" xlink:href="#DejaVuSans-48"/>
       <use x="286.279297" xlink:href="#DejaVuSans-48"/>
      </g>
     </g>
    </g>
    <g id="ytick_7">
     <g id="line2d_27">
      <path clip-path="url(#p823c6c84f6)" d="M 57.6 109.71817 
L 414.72 109.71817 
" style="fill:none;stroke:#b0b0b0;stroke-linecap:square;stroke-width:0.8;"/>
     </g>
     <g id="line2d_28">
      <g>
       <use style="stroke:#000000;stroke-width:0.8;" x="57.6" xlink:href="#m420ef8b9e1" y="109.71817"/>
      </g>
     </g>
     <g id="text_15">
      <!-- 0.0125 -->
      <g transform="translate(15.609375 113.517389)scale(0.1 -0.1)">
       <use xlink:href="#DejaVuSans-48"/>
       <use x="63.623047" xlink:href="#DejaVuSans-46"/>
       <use x="95.410156" xlink:href="#DejaVuSans-48"/>
       <use x="159.033203" xlink:href="#DejaVuSans-49"/>
       <use x="222.65625" xlink:href="#DejaVuSans-50"/>
       <use x="286.279297" xlink:href="#DejaVuSans-53"/>
      </g>
     </g>
    </g>
    <g id="ytick_8">
     <g id="line2d_29">
      <path clip-path="url(#p823c6c84f6)" d="M 57.6 78.515492 
L 414.72 78.515492 
" style="fill:none;stroke:#b0b0b0;stroke-linecap:square;stroke-width:0.8;"/>
     </g>
     <g id="line2d_30">
      <g>
       <use style="stroke:#000000;stroke-width:0.8;" x="57.6" xlink:href="#m420ef8b9e1" y="78.515492"/>
      </g>
     </g>
     <g id="text_16">
      <!-- 0.0150 -->
      <g transform="translate(15.609375 82.314711)scale(0.1 -0.1)">
       <use xlink:href="#DejaVuSans-48"/>
       <use x="63.623047" xlink:href="#DejaVuSans-46"/>
       <use x="95.410156" xlink:href="#DejaVuSans-48"/>
       <use x="159.033203" xlink:href="#DejaVuSans-49"/>
       <use x="222.65625" xlink:href="#DejaVuSans-53"/>
       <use x="286.279297" xlink:href="#DejaVuSans-48"/>
      </g>
     </g>
    </g>
    <g id="ytick_9">
     <g id="line2d_31">
      <path clip-path="url(#p823c6c84f6)" d="M 57.6 47.312814 
L 414.72 47.312814 
" style="fill:none;stroke:#b0b0b0;stroke-linecap:square;stroke-width:0.8;"/>
     </g>
     <g id="line2d_32">
      <g>
       <use style="stroke:#000000;stroke-width:0.8;" x="57.6" xlink:href="#m420ef8b9e1" y="47.312814"/>
      </g>
     </g>
     <g id="text_17">
      <!-- 0.0175 -->
      <g transform="translate(15.609375 51.112033)scale(0.1 -0.1)">
       <use xlink:href="#DejaVuSans-48"/>
       <use x="63.623047" xlink:href="#DejaVuSans-46"/>
       <use x="95.410156" xlink:href="#DejaVuSans-48"/>
       <use x="159.033203" xlink:href="#DejaVuSans-49"/>
       <use x="222.65625" xlink:href="#DejaVuSans-55"/>
       <use x="286.279297" xlink:href="#DejaVuSans-53"/>
      </g>
     </g>
    </g>
    <g id="text_18">
     <!-- Fitness -->
     <defs>
      <path d="M 9.8125 72.90625 
L 51.703125 72.90625 
L 51.703125 64.59375 
L 19.671875 64.59375 
L 19.671875 43.109375 
L 48.578125 43.109375 
L 48.578125 34.8125 
L 19.671875 34.8125 
L 19.671875 0 
L 9.8125 0 
z
" id="DejaVuSans-70"/>
     </defs>
     <g transform="translate(1.15 192.202219)rotate(-90)scale(0.1 -0.1)">
      <use xlink:href="#DejaVuSans-70"/>
      <use x="57.410156" xlink:href="#DejaVuSans-105"/>
      <use x="85.193359" xlink:href="#DejaVuSans-116"/>
      <use x="124.402344" xlink:href="#DejaVuSans-110"/>
      <use x="187.78125" xlink:href="#DejaVuSans-101"/>
      <use x="249.304688" xlink:href="#DejaVuSans-115"/>
      <use x="301.404297" xlink:href="#DejaVuSans-115"/>
     </g>
    </g>
   </g>
   <g id="line2d_33">
    <path clip-path="url(#p823c6c84f6)" d="M 73.832727 264.448878 
L 74.918528 246.420374 
L 76.00433 240.04033 
L 77.090131 218.189941 
L 78.175932 204.689188 
L 79.261733 209.148084 
L 80.347534 210.419382 
L 81.433335 201.696056 
L 82.519137 198.214206 
L 83.604938 192.010972 
L 84.690739 191.993205 
L 85.77654 190.65059 
L 86.862341 182.321321 
L 87.948142 180.75585 
L 89.033943 180.896604 
L 90.119745 179.216917 
L 91.205546 174.020678 
L 92.291347 175.641386 
L 93.377148 172.028582 
L 94.462949 170.813603 
L 95.54875 163.73062 
L 96.634552 163.688233 
L 97.720353 162.833077 
L 98.806154 169.372705 
L 99.891955 161.772576 
L 100.977756 160.086873 
L 102.063557 158.834661 
L 103.149358 155.836319 
L 104.23516 162.210612 
L 105.320961 152.383128 
L 106.406762 152.251007 
L 107.492563 156.216549 
L 108.578364 155.989198 
L 109.664165 165.787946 
L 110.749967 154.397447 
L 111.835768 156.363037 
L 112.921569 156.251962 
L 114.00737 157.814698 
L 115.093171 154.505623 
L 116.178972 156.086304 
L 117.264773 152.285466 
L 118.350575 152.701581 
L 119.436376 172.629681 
L 120.522177 171.968539 
L 121.607978 172.975415 
L 122.693779 167.555089 
L 123.77958 174.439749 
L 124.865382 173.428228 
L 125.951183 169.347686 
L 127.036984 170.392787 
L 128.122785 163.984707 
L 129.208586 166.634128 
L 130.294387 167.836955 
L 131.380189 167.705175 
L 132.46599 166.238668 
L 133.551791 169.640854 
L 134.637592 172.325106 
L 136.809194 162.995002 
L 137.894995 171.851367 
L 138.980797 177.561237 
L 140.066598 171.576545 
L 141.152399 169.368144 
L 142.2382 170.602059 
L 143.324001 173.303752 
L 145.495604 167.769956 
L 146.581405 164.171961 
L 147.667206 185.370951 
L 149.838808 174.438005 
L 150.924609 174.544813 
L 152.01041 179.395268 
L 153.096212 179.987657 
L 154.182013 177.92886 
L 155.267814 177.008347 
L 156.353615 178.74342 
L 157.439416 179.083356 
L 158.525217 179.982024 
L 159.611019 176.066627 
L 160.69682 177.211346 
L 161.782621 179.703444 
L 162.868422 170.96843 
L 163.954223 172.028098 
L 165.040024 176.358753 
L 166.125825 182.213333 
L 167.211627 172.99452 
L 168.297428 181.755205 
L 169.383229 176.986311 
L 170.46903 177.439285 
L 171.554831 175.617397 
L 172.640632 175.896351 
L 174.812235 184.77878 
L 175.898036 186.713296 
L 176.983837 187.308473 
L 178.069638 186.530421 
L 179.155439 181.096393 
L 180.24124 187.256948 
L 181.327042 187.753846 
L 182.412843 189.871603 
L 183.498644 185.201465 
L 184.584445 188.597115 
L 185.670246 186.551156 
L 186.756047 189.585191 
L 187.841849 190.739559 
L 188.92765 197.291452 
L 190.013451 183.373983 
L 191.099252 188.843351 
L 192.185053 184.136856 
L 194.356656 194.603343 
L 195.442457 189.330441 
L 196.528258 185.427074 
L 197.614059 189.306874 
L 198.69986 185.05477 
L 199.785661 187.938653 
L 200.871462 188.402784 
L 201.957264 190.444986 
L 203.043065 190.179056 
L 204.128866 185.25654 
L 205.214667 185.742461 
L 206.300468 189.571982 
L 207.386269 183.547064 
L 208.472071 183.865454 
L 209.557872 196.826049 
L 210.643673 184.544824 
L 211.729474 188.315353 
L 212.815275 189.289325 
L 213.901076 187.789644 
L 214.986877 190.530228 
L 216.072679 195.572382 
L 217.15848 190.116784 
L 218.244281 191.255795 
L 219.330082 190.183923 
L 221.501684 192.463086 
L 222.587486 184.181729 
L 223.673287 184.42429 
L 224.759088 191.040589 
L 225.844889 195.188562 
L 226.93069 186.704934 
L 228.016491 190.015174 
L 229.102292 197.210227 
L 230.188094 192.423381 
L 231.273895 195.145396 
L 232.359696 192.903022 
L 233.445497 189.030751 
L 234.531298 181.776484 
L 235.617099 191.100469 
L 236.702901 196.795185 
L 237.788702 187.833107 
L 238.874503 190.703063 
L 239.960304 191.925579 
L 241.046105 185.616623 
L 242.131906 190.760807 
L 243.217708 185.619277 
L 244.303509 190.568509 
L 245.38931 184.676812 
L 246.475111 192.236987 
L 247.560912 191.912033 
L 248.646713 192.990995 
L 249.732514 190.318576 
L 250.818316 191.200107 
L 251.904117 188.421396 
L 252.989918 194.127644 
L 254.075719 191.072361 
L 255.16152 189.790296 
L 256.247321 187.085651 
L 257.333123 190.445281 
L 258.418924 189.763319 
L 259.504725 193.756111 
L 260.590526 183.336568 
L 261.676327 185.339444 
L 262.762128 189.598974 
L 263.847929 183.415903 
L 264.933731 192.215131 
L 266.019532 193.666012 
L 267.105333 192.216997 
L 268.191134 188.398046 
L 269.276935 190.059389 
L 270.362736 186.069817 
L 271.448538 182.692736 
L 272.534339 191.4544 
L 273.62014 190.563077 
L 274.705941 185.623857 
L 275.791742 191.958788 
L 276.877543 187.058526 
L 277.963344 188.377642 
L 279.049146 189.106116 
L 280.134947 182.630017 
L 281.220748 182.063311 
L 282.306549 184.731004 
L 283.39235 185.30971 
L 284.478151 187.160356 
L 285.563953 186.039298 
L 286.649754 186.764237 
L 287.735555 197.35953 
L 288.821356 198.12179 
L 289.907157 186.652802 
L 290.992958 190.439333 
L 292.07876 188.180988 
L 293.164561 187.700236 
L 294.250362 190.83202 
L 295.336163 188.74536 
L 296.421964 190.029126 
L 297.507765 195.135166 
L 298.593566 192.965194 
L 299.679368 192.997773 
L 300.765169 185.635672 
L 301.85097 189.867572 
L 302.936771 196.490041 
L 304.022572 192.391279 
L 305.108373 198.431969 
L 306.194175 189.928 
L 307.279976 187.262775 
L 308.365777 194.532101 
L 309.451578 196.051936 
L 311.62318 185.633164 
L 312.708981 190.769894 
L 313.794783 191.694081 
L 314.880584 187.306008 
L 315.966385 195.900054 
L 317.052186 196.121916 
L 318.137987 193.77998 
L 319.223788 193.903239 
L 320.30959 195.812343 
L 321.395391 199.060777 
L 322.481192 191.998055 
L 323.566993 188.128607 
L 324.652794 200.475989 
L 325.738595 188.310119 
L 326.824396 191.818511 
L 327.910198 195.707195 
L 328.995999 192.048875 
L 330.0818 198.901901 
L 332.253402 192.696548 
L 333.339203 201.408121 
L 334.425005 186.543097 
L 335.510806 195.017436 
L 336.596607 194.912235 
L 337.682408 190.718011 
L 338.768209 195.995558 
L 339.85401 196.61 
L 340.939811 197.377219 
L 342.025613 192.84949 
L 343.111414 192.709942 
L 344.197215 192.81411 
L 345.283016 190.288144 
L 346.368817 196.377581 
L 347.454618 192.448373 
L 348.54042 196.825227 
L 349.626221 187.789059 
L 350.712022 193.256111 
L 351.797823 201.768667 
L 352.883624 197.39237 
L 353.969425 201.330561 
L 355.055227 198.127726 
L 356.141028 203.130664 
L 357.226829 195.554812 
L 358.31263 202.839486 
L 359.398431 202.348746 
L 360.484232 202.520636 
L 361.570033 190.479108 
L 362.655835 201.516544 
L 363.741636 201.341454 
L 364.827437 200.086647 
L 365.913238 202.107961 
L 366.999039 198.767475 
L 368.08484 197.417409 
L 369.170642 202.874212 
L 370.256443 199.747854 
L 371.342244 199.699904 
L 372.428045 203.092247 
L 373.513846 199.941297 
L 374.599647 203.668832 
L 375.685448 197.744779 
L 376.77125 205.496559 
L 377.857051 201.245762 
L 378.942852 201.615538 
L 380.028653 200.776169 
L 381.114454 204.570753 
L 382.200255 198.222771 
L 383.286057 193.323637 
L 384.371858 200.89525 
L 385.457659 203.275546 
L 386.54346 196.47183 
L 387.629261 205.400198 
L 388.715062 203.305445 
L 389.800863 203.887828 
L 390.886665 205.172668 
L 391.972466 201.694303 
L 393.058267 208.266895 
L 394.144068 202.425961 
L 395.229869 204.805109 
L 396.31567 198.808592 
L 397.401472 206.896014 
L 398.487273 203.877896 
L 398.487273 203.877896 
" style="fill:none;stroke:#0000ff;stroke-linecap:square;stroke-width:1.5;"/>
   </g>
   <g id="line2d_34">
    <path clip-path="url(#p823c6c84f6)" d="M 73.832727 295.488 
L 74.918528 282.607057 
L 76.00433 287.134479 
L 77.090131 269.154 
L 78.175932 257.504487 
L 79.261733 268.798472 
L 80.347534 270.100096 
L 81.433335 264.136875 
L 82.519137 261.250111 
L 83.604938 254.762395 
L 84.690739 258.709391 
L 85.77654 258.149196 
L 86.862341 245.163481 
L 87.948142 246.290387 
L 89.033943 249.353283 
L 90.119745 247.073076 
L 91.205546 241.475413 
L 92.291347 244.022915 
L 93.377148 240.095228 
L 94.462949 241.631376 
L 95.54875 231.161685 
L 96.634552 233.878234 
L 97.720353 232.982743 
L 98.806154 242.440706 
L 99.891955 233.979889 
L 100.977756 233.905606 
L 102.063557 233.08415 
L 103.149358 231.746426 
L 104.23516 242.484976 
L 105.320961 228.58527 
L 106.406762 226.649578 
L 107.492563 235.856698 
L 108.578364 235.224562 
L 109.664165 249.381478 
L 110.749967 233.239322 
L 111.835768 236.622275 
L 112.921569 236.537562 
L 114.00737 238.79489 
L 115.093171 236.647774 
L 116.178972 238.276208 
L 117.264773 233.478907 
L 118.350575 235.676501 
L 119.436376 253.127962 
L 120.522177 253.783201 
L 121.607978 253.19808 
L 122.693779 250.337503 
L 123.77958 256.358533 
L 124.865382 254.82368 
L 125.951183 250.01265 
L 127.036984 250.628294 
L 128.122785 245.042303 
L 129.208586 247.136431 
L 130.294387 248.52545 
L 131.380189 250.7552 
L 132.46599 248.734936 
L 133.551791 252.290082 
L 134.637592 253.523112 
L 135.723393 248.101773 
L 136.809194 244.787972 
L 137.894995 254.358669 
L 138.980797 261.46976 
L 140.066598 255.726476 
L 141.152399 251.104626 
L 142.2382 253.673841 
L 143.324001 257.285416 
L 144.409802 254.421724 
L 145.495604 250.374444 
L 146.581405 245.292532 
L 147.667206 267.497662 
L 148.753007 259.923073 
L 149.838808 254.024008 
L 150.924609 257.228654 
L 152.01041 259.861175 
L 153.096212 257.902359 
L 154.182013 256.549204 
L 155.267814 258.101448 
L 156.353615 259.062533 
L 157.439416 259.308029 
L 158.525217 259.869634 
L 159.611019 255.276581 
L 160.69682 256.628635 
L 161.782621 259.888265 
L 162.868422 250.772506 
L 163.954223 251.230554 
L 165.040024 255.523164 
L 166.125825 261.585224 
L 167.211627 254.716309 
L 168.297428 261.442216 
L 169.383229 256.924176 
L 170.46903 258.428979 
L 171.554831 257.556674 
L 172.640632 255.86726 
L 173.726434 263.848742 
L 174.812235 260.947646 
L 175.898036 261.213223 
L 176.983837 263.482773 
L 178.069638 263.244673 
L 179.155439 257.818952 
L 180.24124 263.406139 
L 181.327042 264.065403 
L 182.412843 267.552063 
L 183.498644 260.553171 
L 184.584445 266.19786 
L 185.670246 264.151315 
L 186.756047 265.112199 
L 187.841849 271.455071 
L 188.92765 274.659815 
L 190.013451 261.171418 
L 191.099252 267.760952 
L 192.185053 260.770135 
L 193.270854 269.465812 
L 194.356656 271.112328 
L 195.442457 269.32221 
L 196.528258 263.668391 
L 197.614059 266.749676 
L 198.69986 262.049289 
L 199.785661 263.708664 
L 200.871462 265.685381 
L 201.957264 268.893564 
L 203.043065 269.31409 
L 204.128866 261.922551 
L 205.214667 264.192031 
L 206.300468 267.967119 
L 207.386269 260.911557 
L 208.472071 263.089004 
L 209.557872 272.543972 
L 210.643673 259.220294 
L 211.729474 264.760939 
L 212.815275 265.667143 
L 213.901076 263.619297 
L 214.986877 266.544492 
L 216.072679 272.724297 
L 217.15848 266.309199 
L 218.244281 268.116204 
L 219.330082 268.305537 
L 220.415883 269.184292 
L 221.501684 268.824636 
L 222.587486 262.820796 
L 223.673287 262.36755 
L 224.759088 267.365339 
L 225.844889 273.389101 
L 226.93069 264.52325 
L 229.102292 275.531748 
L 230.188094 271.487267 
L 231.273895 275.286233 
L 233.445497 269.103684 
L 234.531298 259.719362 
L 235.617099 271.144225 
L 236.702901 276.900157 
L 237.788702 267.355015 
L 238.874503 271.767914 
L 239.960304 273.465557 
L 241.046105 263.601965 
L 242.131906 270.804697 
L 243.217708 263.220963 
L 244.303509 271.44655 
L 245.38931 263.721767 
L 246.475111 274.305722 
L 247.560912 269.266839 
L 248.646713 271.147556 
L 249.732514 270.249027 
L 250.818316 272.177607 
L 251.904117 266.798058 
L 252.989918 270.337428 
L 254.075719 270.3992 
L 255.16152 268.899353 
L 256.247321 264.202054 
L 257.333123 267.974857 
L 258.418924 272.283547 
L 259.504725 270.248882 
L 260.590526 262.853459 
L 261.676327 265.893355 
L 262.762128 268.575695 
L 263.847929 259.999823 
L 264.933731 270.538404 
L 266.019532 273.109129 
L 267.105333 271.236824 
L 268.191134 266.756451 
L 269.276935 267.095122 
L 270.362736 262.571537 
L 271.448538 259.725831 
L 272.534339 269.83283 
L 273.62014 265.27178 
L 274.705941 263.246049 
L 275.791742 270.722579 
L 276.877543 266.566286 
L 277.963344 268.559858 
L 279.049146 267.53605 
L 280.134947 260.409635 
L 281.220748 259.274173 
L 282.306549 261.970633 
L 283.39235 263.820218 
L 284.478151 263.613705 
L 285.563953 263.220119 
L 286.649754 267.130871 
L 287.735555 274.987324 
L 288.821356 273.080712 
L 289.907157 265.160912 
L 290.992958 268.302965 
L 292.07876 264.146875 
L 293.164561 265.949362 
L 294.250362 270.856944 
L 296.421964 268.382077 
L 297.507765 274.645341 
L 298.593566 270.274132 
L 299.679368 272.568899 
L 300.765169 262.700678 
L 302.936771 275.336654 
L 304.022572 268.827291 
L 305.108373 278.256607 
L 306.194175 267.582801 
L 307.279976 267.285561 
L 308.365777 273.48988 
L 309.451578 273.94503 
L 310.537379 270.195479 
L 311.62318 265.027001 
L 312.708981 270.800981 
L 313.794783 272.095661 
L 314.880584 266.024602 
L 315.966385 274.646748 
L 317.052186 275.294698 
L 318.137987 270.794887 
L 319.223788 273.815052 
L 320.30959 275.486446 
L 321.395391 275.834096 
L 322.481192 271.864067 
L 323.566993 266.376144 
L 324.652794 276.380179 
L 325.738595 266.62201 
L 326.824396 270.338361 
L 327.910198 275.254884 
L 328.995999 271.802544 
L 330.0818 276.795985 
L 331.167601 275.642818 
L 332.253402 275.111606 
L 333.339203 283.339748 
L 334.425005 266.360593 
L 335.510806 274.892176 
L 336.596607 275.380559 
L 337.682408 273.23552 
L 338.768209 275.443961 
L 339.85401 276.53234 
L 340.939811 277.795391 
L 342.025613 271.463535 
L 343.111414 275.554581 
L 344.197215 275.830827 
L 345.283016 270.429893 
L 346.368817 277.013041 
L 347.454618 272.607455 
L 348.54042 276.168367 
L 349.626221 268.513893 
L 351.797823 281.1427 
L 352.883624 277.760806 
L 353.969425 283.370347 
L 355.055227 279.146906 
L 356.141028 286.368392 
L 357.226829 278.115159 
L 358.31263 287.225938 
L 359.398431 285.553063 
L 360.484232 285.369942 
L 361.570033 273.407848 
L 362.655835 282.829867 
L 363.741636 283.406571 
L 364.827437 282.039631 
L 365.913238 284.426976 
L 366.999039 280.42757 
L 368.08484 278.652135 
L 369.170642 284.269813 
L 370.256443 279.362484 
L 371.342244 282.0881 
L 372.428045 283.48893 
L 373.513846 280.605618 
L 374.599647 286.052052 
L 375.685448 280.070757 
L 376.77125 286.066115 
L 377.857051 281.852191 
L 378.942852 282.615073 
L 380.028653 283.079851 
L 381.114454 289.126183 
L 382.200255 281.088065 
L 383.286057 279.643914 
L 384.371858 284.750248 
L 385.457659 284.903534 
L 386.54346 281.639421 
L 387.629261 289.150401 
L 388.715062 289.208325 
L 389.800863 288.280625 
L 390.886665 287.527201 
L 391.972466 285.471055 
L 393.058267 292.886588 
L 394.144068 286.779039 
L 395.229869 286.993266 
L 396.31567 284.481404 
L 397.401472 290.701831 
L 398.487273 287.912061 
L 398.487273 287.912061 
" style="fill:none;stroke:#008000;stroke-dasharray:9.6,2.4,1.5,2.4;stroke-dashoffset:0;stroke-width:1.5;"/>
   </g>
   <g id="line2d_35">
    <path clip-path="url(#p823c6c84f6)" d="M 73.832727 233.409756 
L 74.918528 210.233691 
L 76.00433 192.946181 
L 77.090131 167.225881 
L 78.175932 151.873889 
L 79.261733 149.497697 
L 80.347534 150.738668 
L 81.433335 139.255237 
L 82.519137 135.178301 
L 83.604938 129.25955 
L 84.690739 125.277018 
L 85.77654 123.151983 
L 86.862341 119.479162 
L 87.948142 115.221313 
L 89.033943 112.439925 
L 90.119745 111.360757 
L 91.205546 106.565943 
L 92.291347 107.259856 
L 93.377148 103.961936 
L 95.54875 96.299554 
L 96.634552 93.498233 
L 97.720353 92.68341 
L 98.806154 96.304703 
L 99.891955 89.565263 
L 100.977756 86.268141 
L 102.063557 84.585172 
L 103.149358 79.926212 
L 104.23516 81.936248 
L 105.320961 76.180987 
L 106.406762 77.852437 
L 107.492563 76.5764 
L 108.578364 76.753834 
L 109.664165 82.194413 
L 110.749967 75.555573 
L 111.835768 76.103799 
L 112.921569 75.966363 
L 114.00737 76.834506 
L 115.093171 72.363471 
L 116.178972 73.8964 
L 117.264773 71.092026 
L 118.350575 69.726662 
L 119.436376 92.1314 
L 120.522177 90.153876 
L 121.607978 92.75275 
L 122.693779 84.772675 
L 123.77958 92.520965 
L 124.865382 92.032775 
L 125.951183 88.682722 
L 127.036984 90.15728 
L 128.122785 82.927112 
L 129.208586 86.131825 
L 130.294387 87.14846 
L 131.380189 84.655151 
L 132.46599 83.7424 
L 133.551791 86.991627 
L 134.637592 91.1271 
L 135.723393 86.804491 
L 136.809194 81.202032 
L 137.894995 89.344065 
L 138.980797 93.652715 
L 140.066598 87.426613 
L 141.152399 87.631661 
L 142.2382 87.530277 
L 143.324001 89.322089 
L 144.409802 86.828075 
L 145.495604 85.165468 
L 146.581405 83.05139 
L 147.667206 103.24424 
L 148.753007 99.287291 
L 149.838808 94.852002 
L 150.924609 91.860972 
L 152.01041 98.929361 
L 153.096212 102.072956 
L 154.182013 99.308516 
L 155.267814 95.915245 
L 156.353615 98.424307 
L 157.439416 98.858684 
L 158.525217 100.094414 
L 159.611019 96.856672 
L 160.69682 97.794058 
L 161.782621 99.518624 
L 162.868422 91.164353 
L 163.954223 92.825642 
L 165.040024 97.194342 
L 166.125825 102.841443 
L 167.211627 91.272731 
L 168.297428 102.068194 
L 169.383229 97.048445 
L 170.46903 96.44959 
L 171.554831 93.67812 
L 172.640632 95.925442 
L 173.726434 96.620466 
L 174.812235 108.609914 
L 175.898036 112.213369 
L 176.983837 111.134174 
L 178.069638 109.816169 
L 179.155439 104.373833 
L 180.24124 111.107758 
L 181.327042 111.442288 
L 182.412843 112.191142 
L 183.498644 109.849759 
L 184.584445 110.996369 
L 185.670246 108.950998 
L 186.756047 114.058184 
L 187.841849 110.024047 
L 188.92765 119.92309 
L 190.013451 105.576549 
L 191.099252 109.92575 
L 192.185053 107.503577 
L 193.270854 109.831272 
L 194.356656 118.094358 
L 195.442457 109.338672 
L 196.528258 107.185757 
L 197.614059 111.864073 
L 198.69986 108.060251 
L 199.785661 112.168641 
L 200.871462 111.120187 
L 201.957264 111.996409 
L 203.043065 111.044021 
L 204.128866 108.59053 
L 205.214667 107.292891 
L 206.300468 111.176846 
L 207.386269 106.182571 
L 208.472071 104.641903 
L 209.557872 121.108126 
L 210.643673 109.869354 
L 211.729474 111.869766 
L 212.815275 112.911506 
L 213.901076 111.95999 
L 214.986877 114.515963 
L 216.072679 118.420466 
L 217.15848 113.924369 
L 218.244281 114.395386 
L 219.330082 112.062308 
L 220.415883 113.501902 
L 221.501684 116.101536 
L 222.587486 105.542663 
L 223.673287 106.48103 
L 224.759088 114.715838 
L 225.844889 116.988024 
L 226.93069 108.886618 
L 228.016491 109.853751 
L 229.102292 118.888707 
L 230.188094 113.359495 
L 231.273895 115.00456 
L 232.359696 113.685568 
L 234.531298 103.833606 
L 235.617099 111.056713 
L 236.702901 116.690213 
L 237.788702 108.311198 
L 238.874503 109.638212 
L 239.960304 110.385602 
L 241.046105 107.631281 
L 242.131906 110.716918 
L 243.217708 108.017591 
L 244.303509 109.690468 
L 245.38931 105.631858 
L 247.560912 114.557227 
L 248.646713 114.834433 
L 249.732514 110.388125 
L 251.904117 110.044734 
L 252.989918 117.917859 
L 254.075719 111.745522 
L 255.16152 110.681238 
L 256.247321 109.969249 
L 257.333123 112.915705 
L 258.418924 107.243091 
L 259.504725 117.26334 
L 260.590526 103.819677 
L 261.676327 104.785534 
L 262.762128 110.622253 
L 263.847929 106.831984 
L 264.933731 113.891858 
L 266.019532 114.222894 
L 267.105333 113.19717 
L 268.191134 110.03964 
L 269.276935 113.023655 
L 270.362736 109.568097 
L 271.448538 105.659641 
L 272.534339 113.07597 
L 273.62014 115.854373 
L 274.705941 108.001666 
L 275.791742 113.194997 
L 276.877543 107.550765 
L 277.963344 108.195426 
L 279.049146 110.676182 
L 280.134947 104.8504 
L 281.220748 104.85245 
L 282.306549 107.491375 
L 283.39235 106.799201 
L 284.478151 110.707007 
L 285.563953 108.858478 
L 286.649754 106.397604 
L 287.735555 119.731735 
L 288.821356 123.162869 
L 289.907157 108.144691 
L 290.992958 112.575702 
L 292.07876 112.215101 
L 293.164561 109.45111 
L 294.250362 110.807096 
L 295.336163 107.915605 
L 297.507765 115.624991 
L 298.593566 115.656255 
L 299.679368 113.426648 
L 300.765169 108.570666 
L 301.85097 110.854232 
L 302.936771 117.643428 
L 304.022572 115.955267 
L 305.108373 118.607331 
L 306.194175 112.273199 
L 307.279976 107.239989 
L 308.365777 115.574323 
L 309.451578 118.158843 
L 310.537379 111.811091 
L 311.62318 106.239327 
L 312.708981 110.738807 
L 313.794783 111.292502 
L 314.880584 108.587415 
L 315.966385 117.15336 
L 318.137987 116.765072 
L 319.223788 113.991426 
L 320.30959 116.13824 
L 321.395391 122.287458 
L 322.481192 112.132043 
L 323.566993 109.88107 
L 324.652794 124.571798 
L 325.738595 109.998228 
L 326.824396 113.298662 
L 327.910198 116.159506 
L 328.995999 112.295206 
L 330.0818 121.007818 
L 332.253402 110.28149 
L 333.339203 119.476494 
L 334.425005 106.7256 
L 335.510806 115.142696 
L 336.596607 114.443911 
L 337.682408 108.200503 
L 338.768209 116.547156 
L 339.85401 116.68766 
L 340.939811 116.959048 
L 342.025613 114.235445 
L 343.111414 109.865304 
L 344.197215 109.797393 
L 345.283016 110.146395 
L 346.368817 115.742121 
L 347.454618 112.289291 
L 348.54042 117.482088 
L 349.626221 107.064225 
L 350.712022 111.707309 
L 351.797823 122.394633 
L 352.883624 117.023935 
L 353.969425 119.290776 
L 355.055227 117.108546 
L 356.141028 119.892936 
L 357.226829 112.994465 
L 358.31263 118.453034 
L 359.398431 119.144429 
L 360.484232 119.671331 
L 361.570033 107.550368 
L 362.655835 120.203221 
L 363.741636 119.276338 
L 364.827437 118.133664 
L 365.913238 119.788945 
L 366.999039 117.107379 
L 368.08484 116.182683 
L 369.170642 121.478612 
L 370.256443 120.133224 
L 371.342244 117.311707 
L 372.428045 122.695564 
L 373.513846 119.276977 
L 374.599647 121.285611 
L 375.685448 115.418802 
L 376.77125 124.927003 
L 377.857051 120.639333 
L 378.942852 120.616002 
L 380.028653 118.472487 
L 381.114454 120.015323 
L 382.200255 115.357477 
L 383.286057 107.003359 
L 384.371858 117.040252 
L 385.457659 121.647558 
L 386.54346 111.304239 
L 387.629261 121.649994 
L 388.715062 117.402565 
L 389.800863 119.49503 
L 390.886665 122.818135 
L 391.972466 117.917552 
L 393.058267 123.647202 
L 394.144068 118.072882 
L 395.229869 122.616953 
L 396.31567 113.135779 
L 397.401472 123.090198 
L 398.487273 119.843731 
L 398.487273 119.843731 
" style="fill:none;stroke:#008000;stroke-dasharray:9.6,2.4,1.5,2.4;stroke-dashoffset:0;stroke-width:1.5;"/>
   </g>
   <g id="line2d_36">
    <path clip-path="url(#p823c6c84f6)" d="M 73.832727 102.737707 
L 74.918528 90.227368 
L 76.00433 82.606777 
L 77.090131 72.131231 
L 78.175932 65.791545 
L 87.948142 65.791545 
L 89.033943 62.256759 
L 95.54875 62.256759 
L 96.634552 61.179979 
L 98.806154 61.179979 
L 99.891955 56.483468 
L 145.495604 56.477931 
L 146.581405 54.817815 
L 204.128866 54.817815 
L 205.214667 54.047094 
L 306.194175 53.966993 
L 307.279976 53.568 
L 398.487273 53.568 
L 398.487273 53.568 
" style="fill:none;stroke:#ff0000;stroke-linecap:square;stroke-width:1.5;"/>
   </g>
   <g id="patch_3">
    <path d="M 57.6 307.584 
L 57.6 41.472 
" style="fill:none;stroke:#000000;stroke-linecap:square;stroke-linejoin:miter;stroke-width:0.8;"/>
   </g>
   <g id="patch_4">
    <path d="M 414.72 307.584 
L 414.72 41.472 
" style="fill:none;stroke:#000000;stroke-linecap:square;stroke-linejoin:miter;stroke-width:0.8;"/>
   </g>
   <g id="patch_5">
    <path d="M 57.6 307.584 
L 414.72 307.584 
" style="fill:none;stroke:#000000;stroke-linecap:square;stroke-linejoin:miter;stroke-width:0.8;"/>
   </g>
   <g id="patch_6">
    <path d="M 57.6 41.472 
L 414.72 41.472 
" style="fill:none;stroke:#000000;stroke-linecap:square;stroke-linejoin:miter;stroke-width:0.8;"/>
   </g>
   <g id="text_19">
    <!-- Population's average and best fitness -->
    <defs>
     <path d="M 19.671875 64.796875 
L 19.671875 37.40625 
L 32.078125 37.40625 
Q 38.96875 37.40625 42.71875 40.96875 
Q 46.484375 44.53125 46.484375 51.125 
Q 46.484375 57.671875 42.71875 61.234375 
Q 38.96875 64.796875 32.078125 64.796875 
z
M 9.8125 72.90625 
L 32.078125 72.90625 
Q 44.34375 72.90625 50.609375 67.359375 
Q 56.890625 61.8125 56.890625 51.125 
Q 56.890625 40.328125 50.609375 34.8125 
Q 44.34375 29.296875 32.078125 29.296875 
L 19.671875 29.296875 
L 19.671875 0 
L 9.8125 0 
z
" id="DejaVuSans-80"/>
     <path d="M 18.109375 8.203125 
L 18.109375 -20.796875 
L 9.078125 -20.796875 
L 9.078125 54.6875 
L 18.109375 54.6875 
L 18.109375 46.390625 
Q 20.953125 51.265625 25.265625 53.625 
Q 29.59375 56 35.59375 56 
Q 45.5625 56 51.78125 48.09375 
Q 58.015625 40.1875 58.015625 27.296875 
Q 58.015625 14.40625 51.78125 6.484375 
Q 45.5625 -1.421875 35.59375 -1.421875 
Q 29.59375 -1.421875 25.265625 0.953125 
Q 20.953125 3.328125 18.109375 8.203125 
z
M 48.6875 27.296875 
Q 48.6875 37.203125 44.609375 42.84375 
Q 40.53125 48.484375 33.40625 48.484375 
Q 26.265625 48.484375 22.1875 42.84375 
Q 18.109375 37.203125 18.109375 27.296875 
Q 18.109375 17.390625 22.1875 11.75 
Q 26.265625 6.109375 33.40625 6.109375 
Q 40.53125 6.109375 44.609375 11.75 
Q 48.6875 17.390625 48.6875 27.296875 
z
" id="DejaVuSans-112"/>
     <path d="M 8.5 21.578125 
L 8.5 54.6875 
L 17.484375 54.6875 
L 17.484375 21.921875 
Q 17.484375 14.15625 20.5 10.265625 
Q 23.53125 6.390625 29.59375 6.390625 
Q 36.859375 6.390625 41.078125 11.03125 
Q 45.3125 15.671875 45.3125 23.6875 
L 45.3125 54.6875 
L 54.296875 54.6875 
L 54.296875 0 
L 45.3125 0 
L 45.3125 8.40625 
Q 42.046875 3.421875 37.71875 1 
Q 33.40625 -1.421875 27.6875 -1.421875 
Q 18.265625 -1.421875 13.375 4.4375 
Q 8.5 10.296875 8.5 21.578125 
z
M 31.109375 56 
z
" id="DejaVuSans-117"/>
     <path d="M 9.421875 75.984375 
L 18.40625 75.984375 
L 18.40625 0 
L 9.421875 0 
z
" id="DejaVuSans-108"/>
     <path d="M 17.921875 72.90625 
L 17.921875 45.796875 
L 9.625 45.796875 
L 9.625 72.90625 
z
" id="DejaVuSans-39"/>
     <path id="DejaVuSans-32"/>
     <path d="M 2.984375 54.6875 
L 12.5 54.6875 
L 29.59375 8.796875 
L 46.6875 54.6875 
L 56.203125 54.6875 
L 35.6875 0 
L 23.484375 0 
z
" id="DejaVuSans-118"/>
     <path d="M 45.40625 27.984375 
Q 45.40625 37.75 41.375 43.109375 
Q 37.359375 48.484375 30.078125 48.484375 
Q 22.859375 48.484375 18.828125 43.109375 
Q 14.796875 37.75 14.796875 27.984375 
Q 14.796875 18.265625 18.828125 12.890625 
Q 22.859375 7.515625 30.078125 7.515625 
Q 37.359375 7.515625 41.375 12.890625 
Q 45.40625 18.265625 45.40625 27.984375 
z
M 54.390625 6.78125 
Q 54.390625 -7.171875 48.1875 -13.984375 
Q 42 -20.796875 29.203125 -20.796875 
Q 24.46875 -20.796875 20.265625 -20.09375 
Q 16.0625 -19.390625 12.109375 -17.921875 
L 12.109375 -9.1875 
Q 16.0625 -11.328125 19.921875 -12.34375 
Q 23.78125 -13.375 27.78125 -13.375 
Q 36.625 -13.375 41.015625 -8.765625 
Q 45.40625 -4.15625 45.40625 5.171875 
L 45.40625 9.625 
Q 42.625 4.78125 38.28125 2.390625 
Q 33.9375 0 27.875 0 
Q 17.828125 0 11.671875 7.65625 
Q 5.515625 15.328125 5.515625 27.984375 
Q 5.515625 40.671875 11.671875 48.328125 
Q 17.828125 56 27.875 56 
Q 33.9375 56 38.28125 53.609375 
Q 42.625 51.21875 45.40625 46.390625 
L 45.40625 54.6875 
L 54.390625 54.6875 
z
" id="DejaVuSans-103"/>
     <path d="M 45.40625 46.390625 
L 45.40625 75.984375 
L 54.390625 75.984375 
L 54.390625 0 
L 45.40625 0 
L 45.40625 8.203125 
Q 42.578125 3.328125 38.25 0.953125 
Q 33.9375 -1.421875 27.875 -1.421875 
Q 17.96875 -1.421875 11.734375 6.484375 
Q 5.515625 14.40625 5.515625 27.296875 
Q 5.515625 40.1875 11.734375 48.09375 
Q 17.96875 56 27.875 56 
Q 33.9375 56 38.25 53.625 
Q 42.578125 51.265625 45.40625 46.390625 
z
M 14.796875 27.296875 
Q 14.796875 17.390625 18.875 11.75 
Q 22.953125 6.109375 30.078125 6.109375 
Q 37.203125 6.109375 41.296875 11.75 
Q 45.40625 17.390625 45.40625 27.296875 
Q 45.40625 37.203125 41.296875 42.84375 
Q 37.203125 48.484375 30.078125 48.484375 
Q 22.953125 48.484375 18.875 42.84375 
Q 14.796875 37.203125 14.796875 27.296875 
z
" id="DejaVuSans-100"/>
     <path d="M 48.6875 27.296875 
Q 48.6875 37.203125 44.609375 42.84375 
Q 40.53125 48.484375 33.40625 48.484375 
Q 26.265625 48.484375 22.1875 42.84375 
Q 18.109375 37.203125 18.109375 27.296875 
Q 18.109375 17.390625 22.1875 11.75 
Q 26.265625 6.109375 33.40625 6.109375 
Q 40.53125 6.109375 44.609375 11.75 
Q 48.6875 17.390625 48.6875 27.296875 
z
M 18.109375 46.390625 
Q 20.953125 51.265625 25.265625 53.625 
Q 29.59375 56 35.59375 56 
Q 45.5625 56 51.78125 48.09375 
Q 58.015625 40.1875 58.015625 27.296875 
Q 58.015625 14.40625 51.78125 6.484375 
Q 45.5625 -1.421875 35.59375 -1.421875 
Q 29.59375 -1.421875 25.265625 0.953125 
Q 20.953125 3.328125 18.109375 8.203125 
L 18.109375 0 
L 9.078125 0 
L 9.078125 75.984375 
L 18.109375 75.984375 
z
" id="DejaVuSans-98"/>
     <path d="M 37.109375 75.984375 
L 37.109375 68.5 
L 28.515625 68.5 
Q 23.6875 68.5 21.796875 66.546875 
Q 19.921875 64.59375 19.921875 59.515625 
L 19.921875 54.6875 
L 34.71875 54.6875 
L 34.71875 47.703125 
L 19.921875 47.703125 
L 19.921875 0 
L 10.890625 0 
L 10.890625 47.703125 
L 2.296875 47.703125 
L 2.296875 54.6875 
L 10.890625 54.6875 
L 10.890625 58.5 
Q 10.890625 67.625 15.140625 71.796875 
Q 19.390625 75.984375 28.609375 75.984375 
z
" id="DejaVuSans-102"/>
    </defs>
    <g transform="translate(123.315 35.472)scale(0.12 -0.12)">
     <use xlink:href="#DejaVuSans-80"/>
     <use x="60.255859" xlink:href="#DejaVuSans-111"/>
     <use x="121.4375" xlink:href="#DejaVuSans-112"/>
     <use x="184.914062" xlink:href="#DejaVuSans-117"/>
     <use x="248.292969" xlink:href="#DejaVuSans-108"/>
     <use x="276.076172" xlink:href="#DejaVuSans-97"/>
     <use x="337.355469" xlink:href="#DejaVuSans-116"/>
     <use x="376.564453" xlink:href="#DejaVuSans-105"/>
     <use x="404.347656" xlink:href="#DejaVuSans-111"/>
     <use x="465.529297" xlink:href="#DejaVuSans-110"/>
     <use x="528.908203" xlink:href="#DejaVuSans-39"/>
     <use x="556.398438" xlink:href="#DejaVuSans-115"/>
     <use x="608.498047" xlink:href="#DejaVuSans-32"/>
     <use x="640.285156" xlink:href="#DejaVuSans-97"/>
     <use x="701.564453" xlink:href="#DejaVuSans-118"/>
     <use x="760.744141" xlink:href="#DejaVuSans-101"/>
     <use x="822.267578" xlink:href="#DejaVuSans-114"/>
     <use x="863.380859" xlink:href="#DejaVuSans-97"/>
     <use x="924.660156" xlink:href="#DejaVuSans-103"/>
     <use x="988.136719" xlink:href="#DejaVuSans-101"/>
     <use x="1049.660156" xlink:href="#DejaVuSans-32"/>
     <use x="1081.447266" xlink:href="#DejaVuSans-97"/>
     <use x="1142.726562" xlink:href="#DejaVuSans-110"/>
     <use x="1206.105469" xlink:href="#DejaVuSans-100"/>
     <use x="1269.582031" xlink:href="#DejaVuSans-32"/>
     <use x="1301.369141" xlink:href="#DejaVuSans-98"/>
     <use x="1364.845703" xlink:href="#DejaVuSans-101"/>
     <use x="1426.369141" xlink:href="#DejaVuSans-115"/>
     <use x="1478.46875" xlink:href="#DejaVuSans-116"/>
     <use x="1517.677734" xlink:href="#DejaVuSans-32"/>
     <use x="1549.464844" xlink:href="#DejaVuSans-102"/>
     <use x="1584.669922" xlink:href="#DejaVuSans-105"/>
     <use x="1612.453125" xlink:href="#DejaVuSans-116"/>
     <use x="1651.662109" xlink:href="#DejaVuSans-110"/>
     <use x="1715.041016" xlink:href="#DejaVuSans-101"/>
     <use x="1776.564453" xlink:href="#DejaVuSans-115"/>
     <use x="1828.664062" xlink:href="#DejaVuSans-115"/>
    </g>
   </g>
   <g id="legend_1">
    <g id="patch_7">
     <path d="M 64.6 302.584 
L 137.540625 302.584 
Q 139.540625 302.584 139.540625 300.584 
L 139.540625 242.8715 
Q 139.540625 240.8715 137.540625 240.8715 
L 64.6 240.8715 
Q 62.6 240.8715 62.6 242.8715 
L 62.6 300.584 
Q 62.6 302.584 64.6 302.584 
z
" style="fill:#ffffff;opacity:0.8;stroke:#cccccc;stroke-linejoin:miter;"/>
    </g>
    <g id="line2d_37">
     <path d="M 66.6 248.969937 
L 86.6 248.969937 
" style="fill:none;stroke:#0000ff;stroke-linecap:square;stroke-width:1.5;"/>
    </g>
    <g id="line2d_38"/>
    <g id="text_20">
     <!-- average -->
     <g transform="translate(94.6 252.469937)scale(0.1 -0.1)">
      <use xlink:href="#DejaVuSans-97"/>
      <use x="61.279297" xlink:href="#DejaVuSans-118"/>
      <use x="120.458984" xlink:href="#DejaVuSans-101"/>
      <use x="181.982422" xlink:href="#DejaVuSans-114"/>
      <use x="223.095703" xlink:href="#DejaVuSans-97"/>
      <use x="284.375" xlink:href="#DejaVuSans-103"/>
      <use x="347.851562" xlink:href="#DejaVuSans-101"/>
     </g>
    </g>
    <g id="line2d_39">
     <path d="M 66.6 263.648062 
L 86.6 263.648062 
" style="fill:none;stroke:#008000;stroke-dasharray:9.6,2.4,1.5,2.4;stroke-dashoffset:0;stroke-width:1.5;"/>
    </g>
    <g id="line2d_40"/>
    <g id="text_21">
     <!-- -1 sd -->
     <defs>
      <path d="M 4.890625 31.390625 
L 31.203125 31.390625 
L 31.203125 23.390625 
L 4.890625 23.390625 
z
" id="DejaVuSans-45"/>
     </defs>
     <g transform="translate(94.6 267.148062)scale(0.1 -0.1)">
      <use xlink:href="#DejaVuSans-45"/>
      <use x="36.083984" xlink:href="#DejaVuSans-49"/>
      <use x="99.707031" xlink:href="#DejaVuSans-32"/>
      <use x="131.494141" xlink:href="#DejaVuSans-115"/>
      <use x="183.59375" xlink:href="#DejaVuSans-100"/>
     </g>
    </g>
    <g id="line2d_41">
     <path d="M 66.6 278.326187 
L 86.6 278.326187 
" style="fill:none;stroke:#008000;stroke-dasharray:9.6,2.4,1.5,2.4;stroke-dashoffset:0;stroke-width:1.5;"/>
    </g>
    <g id="line2d_42"/>
    <g id="text_22">
     <!-- +1 sd -->
     <defs>
      <path d="M 46 62.703125 
L 46 35.5 
L 73.1875 35.5 
L 73.1875 27.203125 
L 46 27.203125 
L 46 0 
L 37.796875 0 
L 37.796875 27.203125 
L 10.59375 27.203125 
L 10.59375 35.5 
L 37.796875 35.5 
L 37.796875 62.703125 
z
" id="DejaVuSans-43"/>
     </defs>
     <g transform="translate(94.6 281.826187)scale(0.1 -0.1)">
      <use xlink:href="#DejaVuSans-43"/>
      <use x="83.789062" xlink:href="#DejaVuSans-49"/>
      <use x="147.412109" xlink:href="#DejaVuSans-32"/>
      <use x="179.199219" xlink:href="#DejaVuSans-115"/>
      <use x="231.298828" xlink:href="#DejaVuSans-100"/>
     </g>
    </g>
    <g id="line2d_43">
     <path d="M 66.6 293.004312 
L 86.6 293.004312 
" style="fill:none;stroke:#ff0000;stroke-linecap:square;stroke-width:1.5;"/>
    </g>
    <g id="line2d_44"/>
    <g id="text_23">
     <!-- best -->
     <g transform="translate(94.6 296.504312)scale(0.1 -0.1)">
      <use xlink:href="#DejaVuSans-98"/>
      <use x="63.476562" xlink:href="#DejaVuSans-101"/>
      <use x="125" xlink:href="#DejaVuSans-115"/>
      <use x="177.099609" xlink:href="#DejaVuSans-116"/>
     </g>
    </g>
   </g>
  </g>
 </g>
 <defs>
  <clipPath id="p823c6c84f6">
   <rect height="266.112" width="357.12" x="57.6" y="41.472"/>
  </clipPath>
 </defs>
</svg>
