<?xml version="1.0" encoding="UTF-8" standalone="no"?>
<!DOCTYPE svg PUBLIC "-//W3C//DTD SVG 1.1//EN"
 "http://www.w3.org/Graphics/SVG/1.1/DTD/svg11.dtd">
<!-- Generated by graphviz version 2.40.1 (20161225.0304)
 -->
<!-- Title: %3 Pages: 1 -->
<svg width="392pt" height="263pt"
 viewBox="0.00 0.00 392.50 262.69" xmlns="http://www.w3.org/2000/svg" xmlns:xlink="http://www.w3.org/1999/xlink">
<g id="graph0" class="graph" transform="scale(1 1) rotate(0) translate(4 258.6934)">
<title>%3</title>
<polygon fill="#ffffff" stroke="transparent" points="-4,4 -4,-258.6934 388.4975,-258.6934 388.4975,4 -4,4"/>
<!-- &#45;1 -->
<g id="node1" class="node">
<title>&#45;1</title>
<polygon fill="#d3d3d3" stroke="#000000" points="245.7487,-254.6934 221.7487,-254.6934 221.7487,-236.6934 245.7487,-236.6934 245.7487,-254.6934"/>
<text text-anchor="middle" x="233.7487" y="-243.4934" font-family="Times,serif" font-size="9.00" fill="#000000">&#45;1</text>
</g>
<!-- 1728 -->
<g id="node6" class="node">
<title>1728</title>
<ellipse fill="#ffffff" stroke="#000000" cx="292.7487" cy="-175.9447" rx="25" ry="25"/>
<text text-anchor="middle" x="292.7487" y="-173.7447" font-family="Times,serif" font-size="9.00" fill="#000000">1728</text>
</g>
<!-- &#45;1&#45;&gt;1728 -->
<g id="edge5" class="edge">
<title>&#45;1&#45;&gt;1728</title>
<path fill="none" stroke="#00ff00" stroke-width=".1023" d="M241.462,-236.575C248.6696,-228.0543 259.7976,-214.8989 269.8484,-203.0171"/>
<polygon fill="#00ff00" stroke="#00ff00" stroke-width=".1023" points="272.787,-204.9625 276.5731,-195.0673 267.4426,-200.4417 272.787,-204.9625"/>
</g>
<!-- 1729 -->
<g id="node7" class="node">
<title>1729</title>
<ellipse fill="#ffffff" stroke="#000000" cx="359.7487" cy="-175.9447" rx="25" ry="25"/>
<text text-anchor="middle" x="359.7487" y="-173.7447" font-family="Times,serif" font-size="9.00" fill="#000000">1729</text>
</g>
<!-- &#45;1&#45;&gt;1729 -->
<g id="edge6" class="edge">
<title>&#45;1&#45;&gt;1729</title>
<path fill="none" stroke="#00ff00" stroke-width=".359" d="M245.8789,-240.7179C264.0123,-233.0839 299.0216,-217.5814 326.7487,-200.6934 328.446,-199.6597 330.163,-198.5592 331.8756,-197.4187"/>
<polygon fill="#00ff00" stroke="#00ff00" stroke-width=".359" points="334.1206,-200.1189 340.2895,-191.5052 330.0954,-194.3919 334.1206,-200.1189"/>
</g>
<!-- 1724 -->
<g id="node9" class="node">
<title>1724</title>
<ellipse fill="#ffffff" stroke="#000000" cx="24.7487" cy="-175.9447" rx="25" ry="25"/>
<text text-anchor="middle" x="24.7487" y="-173.7447" font-family="Times,serif" font-size="9.00" fill="#000000">1724</text>
</g>
<!-- &#45;1&#45;&gt;1724 -->
<g id="edge1" class="edge">
<title>&#45;1&#45;&gt;1724</title>
<path fill="none" stroke="#00ff00" stroke-width=".3801" d="M221.4512,-239.9939C218.6282,-238.8063 215.6135,-237.6318 212.7487,-236.6934 145.5401,-214.6781 121.8597,-230.5508 57.7487,-200.6934 55.9473,-199.8545 54.1486,-198.9066 52.3732,-197.8832"/>
<polygon fill="#00ff00" stroke="#00ff00" stroke-width=".3801" points="54.0765,-194.8158 43.7865,-192.2928 50.2572,-200.6821 54.0765,-194.8158"/>
</g>
<!-- 1725 -->
<g id="node10" class="node">
<title>1725</title>
<ellipse fill="#ffffff" stroke="#000000" cx="91.7487" cy="-175.9447" rx="25" ry="25"/>
<text text-anchor="middle" x="91.7487" y="-173.7447" font-family="Times,serif" font-size="9.00" fill="#000000">1725</text>
</g>
<!-- &#45;1&#45;&gt;1725 -->
<g id="edge2" class="edge">
<title>&#45;1&#45;&gt;1725</title>
<path fill="none" stroke="#00ff00" stroke-width=".3028" d="M221.3263,-240.3292C218.5098,-239.1242 215.5293,-237.8579 212.7487,-236.6934 173.7716,-220.3699 161.5063,-221.5396 124.7487,-200.6934 123.0201,-199.7131 121.2785,-198.6545 119.547,-197.5461"/>
<polygon fill="#00ff00" stroke="#00ff00" stroke-width=".3028" points="121.3033,-194.5061 111.0811,-191.7212 117.3355,-200.2729 121.3033,-194.5061"/>
</g>
<!-- 1726 -->
<g id="node11" class="node">
<title>1726</title>
<ellipse fill="#ffffff" stroke="#000000" cx="158.7487" cy="-175.9447" rx="25" ry="25"/>
<text text-anchor="middle" x="158.7487" y="-173.7447" font-family="Times,serif" font-size="9.00" fill="#000000">1726</text>
</g>
<!-- &#45;1&#45;&gt;1726 -->
<g id="edge3" class="edge">
<title>&#45;1&#45;&gt;1726</title>
<path fill="none" stroke="#00ff00" stroke-width=".3543" d="M223.9438,-236.575C213.9862,-227.3146 198.1422,-212.5799 184.5671,-199.9554"/>
<polygon fill="#00ff00" stroke="#00ff00" stroke-width=".3543" points="186.6045,-197.0705 176.8982,-192.8234 181.8374,-202.1964 186.6045,-197.0705"/>
</g>
<!-- 1727 -->
<g id="node12" class="node">
<title>1727</title>
<ellipse fill="#ffffff" stroke="#000000" cx="225.7487" cy="-175.9447" rx="25" ry="25"/>
<text text-anchor="middle" x="225.7487" y="-173.7447" font-family="Times,serif" font-size="9.00" fill="#000000">1727</text>
</g>
<!-- &#45;1&#45;&gt;1727 -->
<g id="edge4" class="edge">
<title>&#45;1&#45;&gt;1727</title>
<path fill="none" stroke="#ff0000" stroke-width=".1334" d="M232.7029,-236.575C231.9377,-229.9041 230.8468,-220.3923 229.7552,-210.875"/>
<polygon fill="#ff0000" stroke="#ff0000" stroke-width=".1334" points="233.2026,-210.2157 228.5858,-200.6797 226.2482,-211.0134 233.2026,-210.2157"/>
</g>
<!-- &#45;2 -->
<g id="node2" class="node">
<title>&#45;2</title>
<polygon fill="#d3d3d3" stroke="#000000" points="161.7487,-254.6934 137.7487,-254.6934 137.7487,-236.6934 161.7487,-236.6934 161.7487,-254.6934"/>
<text text-anchor="middle" x="149.7487" y="-243.4934" font-family="Times,serif" font-size="9.00" fill="#000000">&#45;2</text>
</g>
<!-- &#45;2&#45;&gt;1728 -->
<g id="edge11" class="edge">
<title>&#45;2&#45;&gt;1728</title>
<path fill="none" stroke="#00ff00" stroke-width=".41" d="M162.1678,-240.3211C164.9845,-239.1165 167.9659,-237.8524 170.7487,-236.6934 210.1381,-220.2885 222.5917,-221.6695 259.7487,-200.6934 261.4793,-199.7165 263.2224,-198.6605 264.9551,-197.5542"/>
<polygon fill="#00ff00" stroke="#00ff00" stroke-width=".41" points="267.1644,-200.2828 273.4242,-191.7349 263.2002,-194.5134 267.1644,-200.2828"/>
</g>
<!-- &#45;2&#45;&gt;1729 -->
<g id="edge12" class="edge">
<title>&#45;2&#45;&gt;1729</title>
<path fill="none" stroke="#ff0000" stroke-width=".446" d="M162.0453,-239.9909C164.8684,-238.8034 167.8833,-237.6298 170.7487,-236.6934 238.3845,-214.5911 262.224,-230.688 326.7487,-200.6934 328.5508,-199.8557 330.35,-198.9088 332.1256,-197.8863"/>
<polygon fill="#ff0000" stroke="#ff0000" stroke-width=".446" points="334.2407,-200.6858 340.7134,-192.2979 330.4228,-194.8186 334.2407,-200.6858"/>
</g>
<!-- &#45;2&#45;&gt;1724 -->
<g id="edge7" class="edge">
<title>&#45;2&#45;&gt;1724</title>
<path fill="none" stroke="#ff0000" stroke-width=".3003" d="M137.4557,-240.5674C119.4406,-232.8603 85.0472,-217.4001 57.7487,-200.6934 56.0537,-199.6561 54.3384,-198.5528 52.6271,-197.4101"/>
<polygon fill="#ff0000" stroke="#ff0000" stroke-width=".3003" points="54.409,-194.3843 44.2169,-191.4907 50.3799,-200.1085 54.409,-194.3843"/>
</g>
<!-- &#45;2&#45;&gt;1725 -->
<g id="edge8" class="edge">
<title>&#45;2&#45;&gt;1725</title>
<path fill="none" stroke="#ff0000" stroke-width=".4661" d="M142.1663,-236.575C135.0808,-228.0543 124.1413,-214.8989 114.2609,-203.0171"/>
<polygon fill="#ff0000" stroke="#ff0000" stroke-width=".4661" points="116.7352,-200.5184 107.6502,-195.0673 111.3529,-204.994 116.7352,-200.5184"/>
</g>
<!-- &#45;2&#45;&gt;1726 -->
<g id="edge9" class="edge">
<title>&#45;2&#45;&gt;1726</title>
<path fill="none" stroke="#00ff00" stroke-width=".4034" d="M150.9253,-236.575C151.7861,-229.9041 153.0135,-220.3923 154.2415,-210.875"/>
<polygon fill="#00ff00" stroke="#00ff00" stroke-width=".4034" points="157.7485,-211.0454 155.5571,-200.6797 150.806,-210.1495 157.7485,-211.0454"/>
</g>
<!-- &#45;2&#45;&gt;1727 -->
<g id="edge10" class="edge">
<title>&#45;2&#45;&gt;1727</title>
<path fill="none" stroke="#ff0000" stroke-width=".3345" d="M159.6844,-236.575C169.8691,-227.2281 186.1307,-212.304 199.9712,-199.602"/>
<polygon fill="#ff0000" stroke="#ff0000" stroke-width=".3345" points="202.3563,-202.1636 207.3573,-192.8234 197.6232,-197.0063 202.3563,-202.1636"/>
</g>
<!-- &#45;3 -->
<g id="node3" class="node">
<title>&#45;3</title>
<polygon fill="#d3d3d3" stroke="#000000" points="203.7487,-254.6934 179.7487,-254.6934 179.7487,-236.6934 203.7487,-236.6934 203.7487,-254.6934"/>
<text text-anchor="middle" x="191.7487" y="-243.4934" font-family="Times,serif" font-size="9.00" fill="#000000">&#45;3</text>
</g>
<!-- &#45;3&#45;&gt;1728 -->
<g id="edge17" class="edge">
<title>&#45;3&#45;&gt;1728</title>
<path fill="none" stroke="#ff0000" stroke-width=".3848" d="M203.9312,-237.9391C217.6518,-229.1349 240.5417,-214.2334 259.7487,-200.6934 261.373,-199.5484 263.0329,-198.3608 264.7016,-197.1534"/>
<polygon fill="#ff0000" stroke="#ff0000" stroke-width=".3848" points="267.0115,-199.7993 272.9944,-191.0554 262.8645,-194.1598 267.0115,-199.7993"/>
</g>
<!-- &#45;3&#45;&gt;1729 -->
<g id="edge18" class="edge">
<title>&#45;3&#45;&gt;1729</title>
<path fill="none" stroke="#ff0000" stroke-width=".2411" d="M204.1035,-240.1578C206.9236,-238.9617 209.9225,-237.7424 212.7487,-236.6934 262.5615,-218.2057 279.4902,-224.978 326.7487,-200.6934 328.5163,-199.7851 330.2884,-198.783 332.0433,-197.7179"/>
<polygon fill="#ff0000" stroke="#ff0000" stroke-width=".2411" points="334.2074,-200.4813 340.5738,-192.0125 330.3158,-194.6627 334.2074,-200.4813"/>
</g>
<!-- &#45;3&#45;&gt;1724 -->
<g id="edge13" class="edge">
<title>&#45;3&#45;&gt;1724</title>
<path fill="none" stroke="#ff0000" stroke-width=".2073" d="M179.392,-240.1631C176.572,-238.9667 173.5736,-237.7459 170.7487,-236.6934 121.3564,-218.2904 104.5999,-224.8438 57.7487,-200.6934 55.9823,-199.7829 54.2111,-198.779 52.4569,-197.7126"/>
<polygon fill="#ff0000" stroke="#ff0000" stroke-width=".2073" points="54.1853,-194.6578 43.9283,-192.0035 50.2913,-200.4748 54.1853,-194.6578"/>
</g>
<!-- &#45;3&#45;&gt;1725 -->
<g id="edge14" class="edge">
<title>&#45;3&#45;&gt;1725</title>
<path fill="none" stroke="#ff0000" stroke-width=".2479" d="M179.2684,-237.5902C165.7125,-228.724 143.4853,-213.9979 124.7487,-200.6934 123.1284,-199.5429 121.4716,-198.351 119.8053,-197.1402"/>
<polygon fill="#ff0000" stroke="#ff0000" stroke-width=".2479" points="121.6454,-194.1485 111.519,-191.0329 117.4923,-199.7834 121.6454,-194.1485"/>
</g>
<!-- &#45;3&#45;&gt;1726 -->
<g id="edge15" class="edge">
<title>&#45;3&#45;&gt;1726</title>
<path fill="none" stroke="#00ff00" stroke-width=".1864" d="M187.4346,-236.575C183.9213,-229.1494 178.7427,-218.2038 173.7488,-207.6488"/>
<polygon fill="#00ff00" stroke="#00ff00" stroke-width=".1864" points="176.8949,-206.1145 169.4543,-198.572 170.5674,-209.1083 176.8949,-206.1145"/>
</g>
<!-- &#45;3&#45;&gt;1727 -->
<g id="edge16" class="edge">
<title>&#45;3&#45;&gt;1727</title>
<path fill="none" stroke="#00ff00" stroke-width=".3294" d="M196.1936,-236.575C199.8412,-229.0923 205.2311,-218.0352 210.4128,-207.4053"/>
<polygon fill="#00ff00" stroke="#00ff00" stroke-width=".3294" points="213.6281,-208.797 214.8638,-198.2744 207.3359,-205.7297 213.6281,-208.797"/>
</g>
<!-- 0 -->
<g id="node4" class="node">
<title>0</title>
<ellipse fill="#add8e6" stroke="#000000" cx="196.7487" cy="-90.4472" rx="14.7" ry="14.7"/>
<text text-anchor="middle" x="196.7487" y="-88.2472" font-family="Times,serif" font-size="9.00" fill="#000000">0</text>
</g>
<!-- 1 -->
<g id="node5" class="node">
<title>1</title>
<ellipse fill="#add8e6" stroke="#000000" cx="153.7487" cy="-14.8492" rx="14.7" ry="14.7"/>
<text text-anchor="middle" x="153.7487" y="-12.6492" font-family="Times,serif" font-size="9.00" fill="#000000">1</text>
</g>
<!-- 1728&#45;&gt;0 -->
<g id="edge27" class="edge">
<title>1728&#45;&gt;0</title>
<path fill="none" stroke="#ff0000" stroke-width=".4032" d="M274.239,-159.4599C257.3826,-144.4476 232.6042,-122.38 215.632,-107.2646"/>
<polygon fill="#ff0000" stroke="#ff0000" stroke-width=".4032" points="217.7918,-104.5013 207.9962,-100.4642 213.1362,-109.7287 217.7918,-104.5013"/>
</g>
<!-- 1728&#45;&gt;1 -->
<g id="edge28" class="edge">
<title>1728&#45;&gt;1</title>
<path fill="none" stroke="#ff0000" stroke-width=".1055" d="M286.0854,-152.0487C278.391,-127.955 263.7552,-90.8291 240.7487,-65.6985 223.0435,-46.3586 196.25,-32.2351 177.0781,-23.8489"/>
<polygon fill="#ff0000" stroke="#ff0000" stroke-width=".1055" points="178.4122,-20.6132 167.8357,-19.9892 175.7146,-27.0725 178.4122,-20.6132"/>
</g>
<!-- 1729&#45;&gt;0 -->
<g id="edge29" class="edge">
<title>1729&#45;&gt;0</title>
<path fill="none" stroke="#ff0000" stroke-width=".379" d="M340.3176,-160.3377C335.9678,-157.1399 331.2932,-153.922 326.7487,-151.196 291.2923,-129.9273 247.1691,-110.7028 220.5195,-99.8114"/>
<polygon fill="#ff0000" stroke="#ff0000" stroke-width=".379" points="221.475,-96.4229 210.8917,-95.9293 218.8573,-102.915 221.475,-96.4229"/>
</g>
<!-- 1729&#45;&gt;1 -->
<g id="edge30" class="edge">
<title>1729&#45;&gt;1</title>
<path fill="none" stroke="#ff0000" stroke-width=".2637" d="M346.8078,-154.2589C331.3475,-129.9183 303.4314,-90.5855 270.7487,-65.6985 242.225,-43.9784 202.9932,-29.3953 178,-21.6079"/>
<polygon fill="#ff0000" stroke="#ff0000" stroke-width=".2637" points="178.8168,-18.199 168.2332,-18.6855 176.8102,-24.9053 178.8168,-18.199"/>
</g>
<!-- 1827 -->
<g id="node8" class="node">
<title>1827</title>
<ellipse fill="#ffffff" stroke="#000000" cx="24.7487" cy="-90.4472" rx="25" ry="25"/>
<text text-anchor="middle" x="24.7487" y="-88.2472" font-family="Times,serif" font-size="9.00" fill="#000000">1827</text>
</g>
<!-- 1827&#45;&gt;1 -->
<g id="edge32" class="edge">
<title>1827&#45;&gt;1</title>
<path fill="none" stroke="#ff0000" stroke-width=".1393" stroke-dasharray="1,5" d="M45.676,-76.8906C51.4908,-73.1996 57.8332,-69.2434 63.7487,-65.6985 86.5842,-52.0143 113.1744,-37.1154 131.5006,-27.0041"/>
<polygon fill="#ff0000" stroke="#ff0000" stroke-width=".1393" points="133.4336,-29.9356 140.511,-22.0513 130.0616,-23.8012 133.4336,-29.9356"/>
</g>
<!-- 1724&#45;&gt;0 -->
<g id="edge19" class="edge">
<title>1724&#45;&gt;0</title>
<path fill="none" stroke="#ff0000" stroke-width=".1149" d="M44.1285,-160.2508C48.4815,-157.0585 53.1704,-153.8647 57.7487,-151.196 96.2506,-128.7532 144.5862,-109.437 172.9323,-98.92"/>
<polygon fill="#ff0000" stroke="#ff0000" stroke-width=".1149" points="174.225,-102.174 182.4159,-95.4539 171.8221,-95.5994 174.225,-102.174"/>
</g>
<!-- 1724&#45;&gt;1 -->
<g id="edge20" class="edge">
<title>1724&#45;&gt;1</title>
<path fill="none" stroke="#ff0000" stroke-width=".244" stroke-dasharray="1,5" d="M40.0193,-156.3239C57.2904,-134.1959 86.3233,-97.1894 111.7487,-65.6985 120.1194,-55.331 129.559,-43.8813 137.3659,-34.4758"/>
<polygon fill="#ff0000" stroke="#ff0000" stroke-width=".244" points="140.2942,-36.4285 143.9989,-26.5025 134.9129,-31.9517 140.2942,-36.4285"/>
</g>
<!-- 1724&#45;&gt;1827 -->
<g id="edge31" class="edge">
<title>1724&#45;&gt;1827</title>
<path fill="none" stroke="#00ff00" stroke-width=".308" d="M24.7487,-150.7551C24.7487,-142.8408 24.7487,-133.9548 24.7487,-125.4862"/>
<polygon fill="#00ff00" stroke="#00ff00" stroke-width=".308" points="28.2488,-125.4568 24.7487,-115.4568 21.2488,-125.4569 28.2488,-125.4568"/>
</g>
<!-- 1725&#45;&gt;0 -->
<g id="edge21" class="edge">
<title>1725&#45;&gt;0</title>
<path fill="none" stroke="#00ff00" stroke-width=".1755" d="M111.0074,-160.2631C129.7983,-144.9624 158.2408,-121.8028 177.1478,-106.4075"/>
<polygon fill="#00ff00" stroke="#00ff00" stroke-width=".1755" points="179.5504,-108.9647 185.0949,-99.9365 175.1305,-103.5366 179.5504,-108.9647"/>
</g>
<!-- 1725&#45;&gt;1 -->
<g id="edge22" class="edge">
<title>1725&#45;&gt;1</title>
<path fill="none" stroke="#ff0000" stroke-width=".2495" d="M100.7641,-152.52C112.532,-121.9434 133.008,-68.7401 144.7619,-38.2"/>
<polygon fill="#ff0000" stroke="#ff0000" stroke-width=".2495" points="148.0629,-39.367 148.3884,-28.7771 141.5301,-36.8526 148.0629,-39.367"/>
</g>
<!-- 1726&#45;&gt;0 -->
<g id="edge23" class="edge">
<title>1726&#45;&gt;0</title>
<path fill="none" stroke="#00ff00" stroke-width=".3052" d="M168.932,-153.0329C174.4137,-140.6995 181.1535,-125.5354 186.6259,-113.2229"/>
<polygon fill="#00ff00" stroke="#00ff00" stroke-width=".3052" points="189.8315,-114.628 190.6947,-104.0684 183.4348,-111.7849 189.8315,-114.628"/>
</g>
<!-- 1726&#45;&gt;1 -->
<g id="edge24" class="edge">
<title>1726&#45;&gt;1</title>
<path fill="none" stroke="#00ff00" stroke-width=".2434" d="M157.9784,-151.1266C157.0416,-120.942 155.4691,-70.2776 154.5281,-39.961"/>
<polygon fill="#00ff00" stroke="#00ff00" stroke-width=".2434" points="158.021,-39.6745 154.2124,-29.7879 151.0244,-39.8917 158.021,-39.6745"/>
</g>
<!-- 1727&#45;&gt;0 -->
<g id="edge25" class="edge">
<title>1727&#45;&gt;0</title>
<path fill="none" stroke="#00ff00" stroke-width=".5" d="M217.6706,-152.1289C213.6782,-140.3585 208.8718,-126.1882 204.8731,-114.3994"/>
<polygon fill="#00ff00" stroke="#00ff00" stroke-width=".5" points="208.1345,-113.1184 201.6078,-104.7726 201.5055,-115.367 208.1345,-113.1184"/>
</g>
<!-- 1727&#45;&gt;1 -->
<g id="edge26" class="edge">
<title>1727&#45;&gt;1</title>
<path fill="none" stroke="#00ff00" stroke-width=".3911" d="M230.3573,-151.1834C233.4441,-127.7627 234.7316,-92.3317 220.7487,-65.6985 211.1926,-47.4968 191.8847,-33.9365 176.4405,-25.4173"/>
<polygon fill="#00ff00" stroke="#00ff00" stroke-width=".3911" points="177.936,-22.2504 167.4454,-20.7679 174.7218,-28.4689 177.936,-22.2504"/>
</g>
</g>
</svg>
