<?xml version="1.0" encoding="UTF-8" standalone="no"?>
<!DOCTYPE svg PUBLIC "-//W3C//DTD SVG 1.1//EN"
 "http://www.w3.org/Graphics/SVG/1.1/DTD/svg11.dtd">
<!-- Generated by graphviz version 2.40.1 (20161225.0304)
 -->
<!-- Title: %3 Pages: 1 -->
<svg width="778pt" height="334pt"
 viewBox="0.00 0.00 777.88 334.05" xmlns="http://www.w3.org/2000/svg" xmlns:xlink="http://www.w3.org/1999/xlink">
<g id="graph0" class="graph" transform="scale(1 1) rotate(0) translate(4 330.0488)">
<title>%3</title>
<polygon fill="#ffffff" stroke="transparent" points="-4,4 -4,-330.0488 773.8776,-330.0488 773.8776,4 -4,4"/>
<!-- &#45;1 -->
<g id="node1" class="node">
<title>&#45;1</title>
<polygon fill="#d3d3d3" stroke="#000000" points="147.6008,-256.3 123.6008,-256.3 123.6008,-238.3 147.6008,-238.3 147.6008,-256.3"/>
<text text-anchor="middle" x="135.6008" y="-245.1" font-family="Times,serif" font-size="9.00" fill="#000000">&#45;1</text>
</g>
<!-- 800 -->
<g id="node18" class="node">
<title>800</title>
<ellipse fill="#ffffff" stroke="#000000" cx="289.6008" cy="-86.9117" rx="21.4286" ry="21.4286"/>
<text text-anchor="middle" x="289.6008" y="-84.7117" font-family="Times,serif" font-size="9.00" fill="#000000">800</text>
</g>
<!-- &#45;1&#45;&gt;800 -->
<g id="edge1" class="edge">
<title>&#45;1&#45;&gt;800</title>
<path fill="none" stroke="#00ff00" stroke-width=".1983" d="M134.83,-238.1361C133.6921,-218.5696 133.7674,-172.2072 156.6008,-144.1249 181.9921,-112.8968 227.6521,-98.3506 258.2922,-91.8351"/>
<polygon fill="#00ff00" stroke="#00ff00" stroke-width=".1983" points="259.3025,-95.204 268.4457,-89.8512 257.9601,-88.3339 259.3025,-95.204"/>
</g>
<!-- 803 -->
<g id="node19" class="node">
<title>803</title>
<ellipse fill="#ffffff" stroke="#000000" cx="512.6008" cy="-165.3381" rx="21.4286" ry="21.4286"/>
<text text-anchor="middle" x="512.6008" y="-163.1381" font-family="Times,serif" font-size="9.00" fill="#000000">803</text>
</g>
<!-- &#45;1&#45;&gt;803 -->
<g id="edge3" class="edge">
<title>&#45;1&#45;&gt;803</title>
<path fill="none" stroke="#00ff00" stroke-width=".124" d="M141.0036,-237.996C144.6793,-232.559 150.0581,-226.0896 156.6008,-222.5513 270.067,-161.1882 318.53,-213.8673 444.6008,-186.5513 457.314,-183.7967 471.0602,-179.7244 482.8441,-175.8822"/>
<polygon fill="#00ff00" stroke="#00ff00" stroke-width=".124" points="484.2511,-179.102 492.6193,-172.604 482.0253,-172.4653 484.2511,-179.102"/>
</g>
<!-- 802 -->
<g id="node20" class="node">
<title>802</title>
<ellipse fill="#ffffff" stroke="#000000" cx="218.6008" cy="-165.3381" rx="21.4286" ry="21.4286"/>
<text text-anchor="middle" x="218.6008" y="-163.1381" font-family="Times,serif" font-size="9.00" fill="#000000">802</text>
</g>
<!-- &#45;1&#45;&gt;802 -->
<g id="edge2" class="edge">
<title>&#45;1&#45;&gt;802</title>
<path fill="none" stroke="#00ff00" stroke-width=".1701" d="M143.1207,-237.8988C147.0131,-233.1742 151.9199,-227.4312 156.6008,-222.5513 168.6281,-210.0126 182.8216,-196.8094 194.5914,-186.2499"/>
<polygon fill="#00ff00" stroke="#00ff00" stroke-width=".1701" points="197.1464,-188.6617 202.296,-179.4025 192.4962,-183.4294 197.1464,-188.6617"/>
</g>
<!-- 804 -->
<g id="node21" class="node">
<title>804</title>
<ellipse fill="#ffffff" stroke="#000000" cx="354.6008" cy="-165.3381" rx="21.4286" ry="21.4286"/>
<text text-anchor="middle" x="354.6008" y="-163.1381" font-family="Times,serif" font-size="9.00" fill="#000000">804</text>
</g>
<!-- &#45;1&#45;&gt;804 -->
<g id="edge4" class="edge">
<title>&#45;1&#45;&gt;804</title>
<path fill="none" stroke="#ff0000" stroke-width=".2204" d="M141.5588,-237.8641C145.2948,-232.6564 150.5448,-226.4692 156.6008,-222.5513 184.3797,-204.5799 275.3489,-182.7169 323.7168,-171.9629"/>
<polygon fill="#ff0000" stroke="#ff0000" stroke-width=".2204" points="324.6195,-175.3481 333.6339,-169.7811 323.1154,-168.5116 324.6195,-175.3481"/>
</g>
<!-- 805 -->
<g id="node22" class="node">
<title>805</title>
<ellipse fill="#ffffff" stroke="#000000" cx="414.6008" cy="-165.3381" rx="21.4286" ry="21.4286"/>
<text text-anchor="middle" x="414.6008" y="-163.1381" font-family="Times,serif" font-size="9.00" fill="#000000">805</text>
</g>
<!-- &#45;1&#45;&gt;805 -->
<g id="edge5" class="edge">
<title>&#45;1&#45;&gt;805</title>
<path fill="none" stroke="#00ff00" stroke-width=".3538" d="M141.0444,-238.0699C144.7354,-232.6607 150.116,-226.1947 156.6008,-222.5513 246.0403,-172.3016 289.5619,-225.1784 384.6008,-186.5513 386.2259,-185.8908 387.848,-185.1274 389.4491,-184.2909"/>
<polygon fill="#00ff00" stroke="#00ff00" stroke-width=".3538" points="391.5535,-187.1068 398.2623,-178.9067 387.9041,-181.1333 391.5535,-187.1068"/>
</g>
<!-- &#45;2 -->
<g id="node2" class="node">
<title>&#45;2</title>
<polygon fill="#d3d3d3" stroke="#000000" points="680.6008,-256.3 656.6008,-256.3 656.6008,-238.3 680.6008,-238.3 680.6008,-256.3"/>
<text text-anchor="middle" x="668.6008" y="-245.1" font-family="Times,serif" font-size="9.00" fill="#000000">&#45;2</text>
</g>
<!-- &#45;2&#45;&gt;800 -->
<g id="edge6" class="edge">
<title>&#45;2&#45;&gt;800</title>
<path fill="none" stroke="#ff0000" stroke-width=".4616" d="M667.7816,-238.1237C665.4343,-217.6883 656.7692,-168.3313 626.6008,-144.1249 579.7269,-106.5144 396.0791,-92.6039 321.4203,-88.4342"/>
<polygon fill="#ff0000" stroke="#ff0000" stroke-width=".4616" points="321.3981,-84.9281 311.2251,-87.8881 321.0236,-91.9181 321.3981,-84.9281"/>
</g>
<!-- &#45;2&#45;&gt;803 -->
<g id="edge8" class="edge">
<title>&#45;2&#45;&gt;803</title>
<path fill="none" stroke="#00ff00" stroke-width=".4026" d="M662.4591,-238.1302C658.6619,-233.0112 653.4119,-226.824 647.6008,-222.5513 615.4539,-198.9146 572.0606,-182.7735 543.2457,-173.8105"/>
<polygon fill="#00ff00" stroke="#00ff00" stroke-width=".4026" points="543.9214,-170.359 533.3372,-170.8325 541.9066,-177.0628 543.9214,-170.359"/>
</g>
<!-- &#45;2&#45;&gt;802 -->
<g id="edge7" class="edge">
<title>&#45;2&#45;&gt;802</title>
<path fill="none" stroke="#00ff00" stroke-width=".4247" d="M663.2145,-237.9652C659.5451,-232.5166 654.167,-226.0459 647.6008,-222.5513 520.0901,-154.6896 467.3301,-208.7445 324.6008,-186.5513 299.2176,-182.6044 270.6753,-176.8139 249.6084,-172.2794"/>
<polygon fill="#00ff00" stroke="#00ff00" stroke-width=".4247" points="250.138,-168.8128 239.6221,-170.1037 248.6478,-175.6523 250.138,-168.8128"/>
</g>
<!-- &#45;2&#45;&gt;804 -->
<g id="edge9" class="edge">
<title>&#45;2&#45;&gt;804</title>
<path fill="none" stroke="#ff0000" stroke-width=".1208" d="M663.1834,-238.0229C659.5022,-232.5959 654.1228,-226.1278 647.6008,-222.5513 544.1551,-165.8239 494.3482,-229.8469 384.6008,-186.5513 382.969,-185.9075 381.3416,-185.1573 379.7365,-184.3309"/>
<polygon fill="#ff0000" stroke="#ff0000" stroke-width=".1208" points="381.2765,-181.1714 370.9116,-178.9758 377.645,-187.1558 381.2765,-181.1714"/>
</g>
<!-- &#45;2&#45;&gt;805 -->
<g id="edge10" class="edge">
<title>&#45;2&#45;&gt;805</title>
<path fill="none" stroke="#00ff00" stroke-width=".3359" d="M663.0807,-238.2017C659.3609,-232.8421 653.9769,-226.3818 647.6008,-222.5513 583.2606,-183.8975 555.1635,-205.7461 482.6008,-186.5513 470.1176,-183.2492 456.5052,-179.1118 444.7614,-175.3698"/>
<polygon fill="#00ff00" stroke="#00ff00" stroke-width=".3359" points="445.5892,-171.9591 434.9974,-172.2141 443.4364,-178.6199 445.5892,-171.9591"/>
</g>
<!-- &#45;3 -->
<g id="node3" class="node">
<title>&#45;3</title>
<polygon fill="#d3d3d3" stroke="#000000" points="456.6008,-326.0488 432.6008,-326.0488 432.6008,-308.0488 456.6008,-308.0488 456.6008,-326.0488"/>
<text text-anchor="middle" x="444.6008" y="-314.8488" font-family="Times,serif" font-size="9.00" fill="#000000">&#45;3</text>
</g>
<!-- &#45;3&#45;&gt;800 -->
<g id="edge11" class="edge">
<title>&#45;3&#45;&gt;800</title>
<path fill="none" stroke="#ff0000" stroke-width=".294" d="M432.2774,-316.7135C365.1177,-314.7625 45.2219,-303.8369 16.6008,-272.0488 -24.5777,-226.3138 19.3518,-179.6551 69.6008,-144.1249 100.0367,-122.6042 205.3485,-101.6907 258.4592,-92.2068"/>
<polygon fill="#ff0000" stroke="#ff0000" stroke-width=".294" points="259.1061,-95.6468 268.3476,-90.4656 257.8922,-88.7528 259.1061,-95.6468"/>
</g>
<!-- &#45;3&#45;&gt;803 -->
<g id="edge13" class="edge">
<title>&#45;3&#45;&gt;803</title>
<path fill="none" stroke="#00ff00" stroke-width=".4836" stroke-dasharray="1,5" d="M456.735,-316.2302C511.9236,-312.3864 737.4231,-295.3349 757.6008,-272.0488 820.1326,-199.8838 623.7508,-174.7811 544.3593,-167.7128"/>
<polygon fill="#00ff00" stroke="#00ff00" stroke-width=".4836" points="544.2324,-164.1895 533.9724,-166.832 543.6409,-171.1645 544.2324,-164.1895"/>
</g>
<!-- &#45;3&#45;&gt;802 -->
<g id="edge12" class="edge">
<title>&#45;3&#45;&gt;802</title>
<path fill="none" stroke="#ff0000" stroke-width=".3402" d="M432.25,-316.6667C366.3584,-314.5046 58.1817,-302.79 30.6008,-272.0488 15.9097,-255.6743 17.504,-240.2268 30.6008,-222.5513 49.3815,-197.2047 139.1345,-178.6219 187.5205,-170.2577"/>
<polygon fill="#ff0000" stroke="#ff0000" stroke-width=".3402" points="188.1796,-173.6961 197.459,-168.583 187.0164,-166.7934 188.1796,-173.6961"/>
</g>
<!-- &#45;3&#45;&gt;805 -->
<g id="edge14" class="edge">
<title>&#45;3&#45;&gt;805</title>
<path fill="none" stroke="#00ff00" stroke-width=".1544" d="M442.814,-308.0129C438.5615,-286.5077 427.6772,-231.4655 420.7381,-196.3747"/>
<polygon fill="#00ff00" stroke="#00ff00" stroke-width=".1544" points="424.0965,-195.3152 418.723,-186.1841 417.2295,-196.6732 424.0965,-195.3152"/>
</g>
<!-- 1978 -->
<g id="node23" class="node">
<title>1978</title>
<ellipse fill="#ffffff" stroke="#000000" cx="723.6008" cy="-247.3" rx="25" ry="25"/>
<text text-anchor="middle" x="723.6008" y="-245.1" font-family="Times,serif" font-size="9.00" fill="#000000">1978</text>
</g>
<!-- &#45;3&#45;&gt;1978 -->
<g id="edge85" class="edge">
<title>&#45;3&#45;&gt;1978</title>
<path fill="none" stroke="#ff0000" stroke-width=".2193" d="M456.6169,-316.7125C493.1528,-315.3058 605.5498,-308.1241 689.6008,-272.0488 691.6722,-271.1597 693.7386,-270.1251 695.7709,-268.993"/>
<polygon fill="#ff0000" stroke="#ff0000" stroke-width=".2193" points="697.7915,-271.8564 704.3738,-263.5543 694.051,-265.9396 697.7915,-271.8564"/>
</g>
<!-- &#45;4 -->
<g id="node4" class="node">
<title>&#45;4</title>
<polygon fill="#d3d3d3" stroke="#000000" points="63.6008,-256.3 39.6008,-256.3 39.6008,-238.3 63.6008,-238.3 63.6008,-256.3"/>
<text text-anchor="middle" x="51.6008" y="-245.1" font-family="Times,serif" font-size="9.00" fill="#000000">&#45;4</text>
</g>
<!-- &#45;4&#45;&gt;800 -->
<g id="edge15" class="edge">
<title>&#45;4&#45;&gt;800</title>
<path fill="none" stroke="#00ff00" stroke-width=".4041" d="M53.8443,-238.0649C59.2106,-217.9436 74.7011,-169.8906 105.6008,-144.1249 150.0821,-107.0343 218.5526,-93.9442 258.222,-89.3561"/>
<polygon fill="#00ff00" stroke="#00ff00" stroke-width=".4041" points="258.7839,-92.8165 268.3662,-88.2966 258.0567,-85.8544 258.7839,-92.8165"/>
</g>
<!-- &#45;4&#45;&gt;803 -->
<g id="edge17" class="edge">
<title>&#45;4&#45;&gt;803</title>
<path fill="none" stroke="#ff0000" stroke-width=".1755" d="M56.9694,-237.9316C60.6321,-232.4703 66.0094,-225.9981 72.6008,-222.5513 146.1985,-184.0655 363.1941,-203.0052 444.6008,-186.5513 457.3512,-183.9742 471.104,-179.9335 482.8828,-176.067"/>
<polygon fill="#ff0000" stroke="#ff0000" stroke-width=".1755" points="484.3043,-179.2808 492.6509,-172.7552 482.0566,-172.6515 484.3043,-179.2808"/>
</g>
<!-- &#45;4&#45;&gt;802 -->
<g id="edge16" class="edge">
<title>&#45;4&#45;&gt;802</title>
<path fill="none" stroke="#ff0000" stroke-width=".3348" d="M57.699,-238.0702C61.4818,-232.9313 66.7318,-226.7441 72.6008,-222.5513 108.2256,-197.1013 156.7087,-181.0482 187.8357,-172.6293"/>
<polygon fill="#ff0000" stroke="#ff0000" stroke-width=".3348" points="188.888,-175.9721 197.6829,-170.0643 187.1235,-169.1981 188.888,-175.9721"/>
</g>
<!-- &#45;4&#45;&gt;804 -->
<g id="edge18" class="edge">
<title>&#45;4&#45;&gt;804</title>
<path fill="none" stroke="#ff0000" stroke-width=".3669" d="M57.1013,-238.1687C60.8137,-232.7967 66.1969,-226.335 72.6008,-222.5513 73.9651,-221.7452 250.5143,-186.2365 323.5367,-171.5725"/>
<polygon fill="#ff0000" stroke="#ff0000" stroke-width=".3669" points="324.4108,-174.9669 333.5261,-169.5668 323.0328,-168.1039 324.4108,-174.9669"/>
</g>
<!-- &#45;4&#45;&gt;805 -->
<g id="edge19" class="edge">
<title>&#45;4&#45;&gt;805</title>
<path fill="none" stroke="#ff0000" stroke-width=".4708" d="M56.9919,-237.9742C60.6631,-232.5289 66.0414,-226.0586 72.6008,-222.5513 195.6959,-156.733 254.2184,-236.3999 384.6008,-186.5513 386.2393,-185.9248 387.872,-185.1882 389.4812,-184.3723"/>
<polygon fill="#ff0000" stroke="#ff0000" stroke-width=".4708" points="391.5592,-187.2064 398.3177,-179.0471 387.9462,-181.2109 391.5592,-187.2064"/>
</g>
<!-- &#45;5 -->
<g id="node5" class="node">
<title>&#45;5</title>
<polygon fill="#d3d3d3" stroke="#000000" points="231.6008,-256.3 207.6008,-256.3 207.6008,-238.3 231.6008,-238.3 231.6008,-256.3"/>
<text text-anchor="middle" x="219.6008" y="-245.1" font-family="Times,serif" font-size="9.00" fill="#000000">&#45;5</text>
</g>
<!-- &#45;5&#45;&gt;800 -->
<g id="edge20" class="edge">
<title>&#45;5&#45;&gt;800</title>
<path fill="none" stroke="#ff0000" stroke-width=".5" d="M212.5081,-238.2435C201.7075,-224.2308 182.0249,-197.7454 178.6008,-186.5513 173.0853,-168.5198 168.7861,-160.2254 178.6008,-144.1249 195.8353,-115.8525 232.0128,-100.9509 258.397,-93.529"/>
<polygon fill="#ff0000" stroke="#ff0000" stroke-width=".5" points="259.5183,-96.854 268.319,-90.955 257.7605,-90.0783 259.5183,-96.854"/>
</g>
<!-- &#45;5&#45;&gt;803 -->
<g id="edge22" class="edge">
<title>&#45;5&#45;&gt;803</title>
<path fill="none" stroke="#00ff00" stroke-width=".1764" d="M225.0677,-238.1111C228.7675,-232.7173 234.1492,-226.2531 240.6008,-222.5513 320.457,-176.7317 355.14,-208.3047 444.6008,-186.5513 457.2407,-183.4778 470.9738,-179.3486 482.7678,-175.5502"/>
<polygon fill="#00ff00" stroke="#00ff00" stroke-width=".1764" points="484.15,-178.7801 492.5568,-172.3321 481.9639,-172.1302 484.15,-178.7801"/>
</g>
<!-- &#45;5&#45;&gt;802 -->
<g id="edge21" class="edge">
<title>&#45;5&#45;&gt;802</title>
<path fill="none" stroke="#ff0000" stroke-width=".2995" d="M219.49,-238.2155C219.3688,-228.288 219.168,-211.8251 218.9878,-197.056"/>
<polygon fill="#ff0000" stroke="#ff0000" stroke-width=".2995" points="222.4835,-196.6753 218.8617,-186.7188 215.484,-196.7608 222.4835,-196.6753"/>
</g>
<!-- &#45;5&#45;&gt;804 -->
<g id="edge23" class="edge">
<title>&#45;5&#45;&gt;804</title>
<path fill="none" stroke="#ff0000" stroke-width=".34" d="M225.8477,-238.2686C229.68,-233.1957 234.93,-227.0086 240.6008,-222.5513 266.4608,-202.2252 300.6902,-186.2253 324.871,-176.3741"/>
<polygon fill="#ff0000" stroke="#ff0000" stroke-width=".34" points="326.2395,-179.5967 334.2454,-172.6572 323.6594,-173.0895 326.2395,-179.5967"/>
</g>
<!-- &#45;5&#45;&gt;805 -->
<g id="edge24" class="edge">
<title>&#45;5&#45;&gt;805</title>
<path fill="none" stroke="#ff0000" stroke-width=".1785" d="M225.1621,-238.2691C228.8974,-232.9348 234.2833,-226.4776 240.6008,-222.5513 296.6313,-187.7292 324.6429,-214.0659 384.6008,-186.5513 386.1553,-185.838 387.7132,-185.0413 389.2569,-184.1867"/>
<polygon fill="#ff0000" stroke="#ff0000" stroke-width=".1785" points="391.1944,-187.1031 397.8175,-178.8336 387.4831,-181.168 391.1944,-187.1031"/>
</g>
<!-- &#45;6 -->
<g id="node6" class="node">
<title>&#45;6</title>
<polygon fill="#d3d3d3" stroke="#000000" points="638.6008,-256.3 614.6008,-256.3 614.6008,-238.3 638.6008,-238.3 638.6008,-256.3"/>
<text text-anchor="middle" x="626.6008" y="-245.1" font-family="Times,serif" font-size="9.00" fill="#000000">&#45;6</text>
</g>
<!-- &#45;6&#45;&gt;800 -->
<g id="edge25" class="edge">
<title>&#45;6&#45;&gt;800</title>
<path fill="none" stroke="#ff0000" stroke-width=".1041" d="M627.2826,-238.2752C628.2641,-218.1502 627.5588,-169.387 600.6008,-144.1249 560.4021,-106.455 392.0876,-92.6854 321.2429,-88.4942"/>
<polygon fill="#ff0000" stroke="#ff0000" stroke-width=".1041" points="321.3153,-84.9928 311.1336,-87.9225 320.9201,-91.9816 321.3153,-84.9928"/>
</g>
<!-- &#45;6&#45;&gt;803 -->
<g id="edge27" class="edge">
<title>&#45;6&#45;&gt;803</title>
<path fill="none" stroke="#00ff00" stroke-width=".307" stroke-dasharray="1,5" d="M619.4332,-238.0098C615.3839,-233.0951 610.0519,-227.145 604.6008,-222.5513 584.7007,-205.7815 559.4378,-190.4265 540.4217,-179.8556"/>
<polygon fill="#00ff00" stroke="#00ff00" stroke-width=".307" points="542.0942,-176.7811 531.6392,-175.0653 538.7423,-182.9264 542.0942,-176.7811"/>
</g>
<!-- &#45;6&#45;&gt;802 -->
<g id="edge26" class="edge">
<title>&#45;6&#45;&gt;802</title>
<path fill="none" stroke="#ff0000" stroke-width=".3588" d="M620.839,-238.0004C616.9501,-232.565 611.3106,-226.0958 604.6008,-222.5513 493.6602,-163.9458 448.4128,-206.8742 324.6008,-186.5513 299.2518,-182.3904 270.7072,-176.6147 249.6307,-172.1404"/>
<polygon fill="#ff0000" stroke="#ff0000" stroke-width=".3588" points="250.1505,-168.6724 239.639,-169.9981 248.683,-175.5169 250.1505,-168.6724"/>
</g>
<!-- &#45;6&#45;&gt;804 -->
<g id="edge28" class="edge">
<title>&#45;6&#45;&gt;804</title>
<path fill="none" stroke="#ff0000" stroke-width=".5" d="M620.7955,-238.0811C616.8902,-232.676 611.2488,-226.2105 604.6008,-222.5513 517.8022,-174.7758 476.2828,-224.1133 384.6008,-186.5513 382.9776,-185.8863 381.3569,-185.1193 379.7569,-184.28"/>
<polygon fill="#ff0000" stroke="#ff0000" stroke-width=".5" points="381.3034,-181.123 370.9469,-178.888 377.6491,-187.0935 381.3034,-181.123"/>
</g>
<!-- &#45;6&#45;&gt;805 -->
<g id="edge29" class="edge">
<title>&#45;6&#45;&gt;805</title>
<path fill="none" stroke="#00ff00" stroke-width=".4962" d="M620.2604,-237.8831C616.3136,-232.6817 610.8136,-226.4945 604.6008,-222.5513 556.8693,-192.2568 536.6978,-202.9698 482.6008,-186.5513 470.2448,-182.8012 456.6558,-178.5813 444.8951,-174.8986"/>
<polygon fill="#00ff00" stroke="#00ff00" stroke-width=".4962" points="445.6969,-171.4819 435.1076,-171.8259 443.6001,-178.1606 445.6969,-171.4819"/>
</g>
<!-- &#45;7 -->
<g id="node7" class="node">
<title>&#45;7</title>
<polygon fill="#d3d3d3" stroke="#000000" points="321.6008,-256.3 297.6008,-256.3 297.6008,-238.3 321.6008,-238.3 321.6008,-256.3"/>
<text text-anchor="middle" x="309.6008" y="-245.1" font-family="Times,serif" font-size="9.00" fill="#000000">&#45;7</text>
</g>
<!-- &#45;7&#45;&gt;800 -->
<g id="edge30" class="edge">
<title>&#45;7&#45;&gt;800</title>
<path fill="none" stroke="#ff0000" stroke-width=".5" stroke-dasharray="1,5" d="M305.9964,-238.0092C301.6316,-226.2433 294.5042,-205.247 291.6008,-186.5513 288.106,-164.0473 287.6763,-138.3438 288.0836,-118.6801"/>
<polygon fill="#ff0000" stroke="#ff0000" stroke-width=".5" points="291.5893,-118.5335 288.3819,-108.4359 284.5922,-118.3298 291.5893,-118.5335"/>
</g>
<!-- &#45;7&#45;&gt;803 -->
<g id="edge32" class="edge">
<title>&#45;7&#45;&gt;803</title>
<path fill="none" stroke="#00ff00" stroke-width=".5" d="M315.5933,-237.9168C319.3409,-232.7266 324.5909,-226.5394 330.6008,-222.5513 331.4195,-222.0081 431.1124,-190.8069 482.5836,-174.717"/>
<polygon fill="#00ff00" stroke="#00ff00" stroke-width=".5" points="483.6908,-178.038 492.1913,-171.714 481.6025,-171.3567 483.6908,-178.038"/>
</g>
<!-- &#45;7&#45;&gt;802 -->
<g id="edge31" class="edge">
<title>&#45;7&#45;&gt;802</title>
<path fill="none" stroke="#00ff00" stroke-width=".3078" d="M302.1744,-238.2966C298.0492,-233.4659 292.7274,-227.5046 287.6008,-222.5513 273.6992,-209.1197 257.0426,-195.2522 243.5778,-184.5343"/>
<polygon fill="#00ff00" stroke="#00ff00" stroke-width=".3078" points="245.6818,-181.7362 235.6597,-178.2999 241.3514,-187.236 245.6818,-181.7362"/>
</g>
<!-- &#45;7&#45;&gt;804 -->
<g id="edge33" class="edge">
<title>&#45;7&#45;&gt;804</title>
<path fill="none" stroke="#ff0000" stroke-width=".3441" stroke-dasharray="1,5" d="M314.5885,-238.2155C320.5568,-227.345 330.8273,-208.6386 339.4682,-192.9002"/>
<polygon fill="#ff0000" stroke="#ff0000" stroke-width=".3441" points="342.578,-194.5085 344.3227,-184.0583 336.442,-191.1396 342.578,-194.5085"/>
</g>
<!-- &#45;7&#45;&gt;805 -->
<g id="edge34" class="edge">
<title>&#45;7&#45;&gt;805</title>
<path fill="none" stroke="#00ff00" stroke-width=".145" d="M316.4308,-238.0524C320.2926,-233.1501 325.3827,-227.1984 330.6008,-222.5513 352.1414,-203.3679 360.8229,-202.8795 384.6008,-186.5513 386.0107,-185.5831 387.4544,-184.585 388.9093,-183.5739"/>
<polygon fill="#00ff00" stroke="#00ff00" stroke-width=".145" points="391.0271,-186.3637 397.2076,-177.7584 387.0097,-180.6313 391.0271,-186.3637"/>
</g>
<!-- &#45;8 -->
<g id="node8" class="node">
<title>&#45;8</title>
<polygon fill="#d3d3d3" stroke="#000000" points="105.6008,-256.3 81.6008,-256.3 81.6008,-238.3 105.6008,-238.3 105.6008,-256.3"/>
<text text-anchor="middle" x="93.6008" y="-245.1" font-family="Times,serif" font-size="9.00" fill="#000000">&#45;8</text>
</g>
<!-- &#45;8&#45;&gt;800 -->
<g id="edge35" class="edge">
<title>&#45;8&#45;&gt;800</title>
<path fill="none" stroke="#ff0000" stroke-width=".3342" d="M94.7102,-238.2167C97.6001,-218.3981 107.1462,-170.9111 134.6008,-144.1249 168.7437,-110.8132 223.9347,-96.6372 258.4207,-90.7927"/>
<polygon fill="#ff0000" stroke="#ff0000" stroke-width=".3342" points="259.0712,-94.2337 268.4123,-89.2344 257.9924,-87.3173 259.0712,-94.2337"/>
</g>
<!-- &#45;8&#45;&gt;803 -->
<g id="edge37" class="edge">
<title>&#45;8&#45;&gt;803</title>
<path fill="none" stroke="#ff0000" stroke-width=".263" d="M98.9842,-237.9598C102.6526,-232.5091 108.0305,-226.0382 114.6008,-222.5513 244.9223,-153.389 300.1691,-216.661 444.6008,-186.5513 457.3352,-183.8966 471.0852,-179.842 482.8662,-175.9862"/>
<polygon fill="#ff0000" stroke="#ff0000" stroke-width=".263" points="484.2813,-179.2026 492.6374,-172.6891 482.0432,-172.5701 484.2813,-179.2026"/>
</g>
<!-- &#45;8&#45;&gt;802 -->
<g id="edge36" class="edge">
<title>&#45;8&#45;&gt;802</title>
<path fill="none" stroke="#00ff00" stroke-width=".1075" d="M100.277,-237.872C104.0937,-232.917 109.1898,-226.9723 114.6008,-222.5513 137.6765,-203.6974 167.8653,-187.8886 189.7692,-177.7002"/>
<polygon fill="#00ff00" stroke="#00ff00" stroke-width=".1075" points="191.2408,-180.876 198.8991,-173.5547 188.3467,-174.5022 191.2408,-180.876"/>
</g>
<!-- &#45;8&#45;&gt;804 -->
<g id="edge38" class="edge">
<title>&#45;8&#45;&gt;804</title>
<path fill="none" stroke="#00ff00" stroke-width=".5" d="M99.1471,-238.2447C102.8767,-232.9012 108.2618,-226.4429 114.6008,-222.5513 132.4217,-211.6108 262.7005,-184.0712 323.5035,-171.6217"/>
<polygon fill="#00ff00" stroke="#00ff00" stroke-width=".5" points="324.566,-174.9771 333.6649,-169.5493 323.1671,-168.1183 324.566,-174.9771"/>
</g>
<!-- &#45;8&#45;&gt;805 -->
<g id="edge39" class="edge">
<title>&#45;8&#45;&gt;805</title>
<path fill="none" stroke="#ff0000" stroke-width=".1171" d="M99.0139,-238.0149C102.6934,-232.5849 108.0726,-226.1164 114.6008,-222.5513 220.8511,-164.5266 271.9081,-230.7821 384.6008,-186.5513 386.2337,-185.9104 387.862,-185.1624 389.4678,-184.3377"/>
<polygon fill="#ff0000" stroke="#ff0000" stroke-width=".1171" points="391.5571,-187.1641 398.2946,-178.9875 387.9287,-181.1779 391.5571,-187.1641"/>
</g>
<!-- &#45;9 -->
<g id="node9" class="node">
<title>&#45;9</title>
<polygon fill="#d3d3d3" stroke="#000000" points="189.6008,-256.3 165.6008,-256.3 165.6008,-238.3 189.6008,-238.3 189.6008,-256.3"/>
<text text-anchor="middle" x="177.6008" y="-245.1" font-family="Times,serif" font-size="9.00" fill="#000000">&#45;9</text>
</g>
<!-- &#45;9&#45;&gt;800 -->
<g id="edge40" class="edge">
<title>&#45;9&#45;&gt;800</title>
<path fill="none" stroke="#ff0000" stroke-width=".4396" d="M173.512,-238.1549C165.6317,-219.0195 150.712,-174.0564 169.6008,-144.1249 189.0181,-113.3559 230.0244,-98.7863 258.6686,-92.1328"/>
<polygon fill="#ff0000" stroke="#ff0000" stroke-width=".4396" points="259.5445,-95.5249 268.5995,-90.0243 258.0906,-88.6776 259.5445,-95.5249"/>
</g>
<!-- &#45;9&#45;&gt;803 -->
<g id="edge42" class="edge">
<title>&#45;9&#45;&gt;803</title>
<path fill="none" stroke="#ff0000" stroke-width=".3585" d="M183.03,-238.0441C186.7156,-232.6252 192.0955,-226.158 198.6008,-222.5513 295.2397,-168.9723 336.8599,-211.0803 444.6008,-186.5513 457.2844,-183.6637 471.0254,-179.5676 482.8133,-175.7437"/>
<polygon fill="#ff0000" stroke="#ff0000" stroke-width=".3585" points="484.2098,-178.9678 492.5941,-172.4906 482.0005,-172.3256 484.2098,-178.9678"/>
</g>
<!-- &#45;9&#45;&gt;802 -->
<g id="edge41" class="edge">
<title>&#45;9&#45;&gt;802</title>
<path fill="none" stroke="#00ff00" stroke-width=".3889" d="M182.1452,-238.2155C187.4976,-227.5157 196.6477,-209.2239 204.4416,-193.6435"/>
<polygon fill="#00ff00" stroke="#00ff00" stroke-width=".3889" points="207.7293,-194.8942 209.073,-184.3849 201.4689,-191.7625 207.7293,-194.8942"/>
</g>
<!-- &#45;9&#45;&gt;804 -->
<g id="edge43" class="edge">
<title>&#45;9&#45;&gt;804</title>
<path fill="none" stroke="#00ff00" stroke-width=".1382" d="M183.6648,-238.0217C187.4361,-232.8666 192.6861,-226.6794 198.6008,-222.5513 237.3428,-195.5119 290.3618,-179.6532 323.5343,-171.7362"/>
<polygon fill="#00ff00" stroke="#00ff00" stroke-width=".1382" points="324.5969,-175.0836 333.5639,-169.4407 323.0351,-168.26 324.5969,-175.0836"/>
</g>
<!-- &#45;9&#45;&gt;805 -->
<g id="edge44" class="edge">
<title>&#45;9&#45;&gt;805</title>
<path fill="none" stroke="#ff0000" stroke-width=".3803" stroke-dasharray="1,5" d="M183.0894,-238.1485C186.7973,-232.7688 192.18,-226.3062 198.6008,-222.5513 271.2851,-180.0452 307.1564,-219.5989 384.6008,-186.5513 386.1739,-185.88 387.7466,-185.1166 389.3016,-184.2878"/>
<polygon fill="#ff0000" stroke="#ff0000" stroke-width=".3803" points="391.2055,-187.226 397.8961,-179.0111 387.5429,-181.2607 391.2055,-187.226"/>
</g>
<!-- &#45;10 -->
<g id="node10" class="node">
<title>&#45;10</title>
<polygon fill="#d3d3d3" stroke="#000000" points="279.1008,-256.3 250.1008,-256.3 250.1008,-238.3 279.1008,-238.3 279.1008,-256.3"/>
<text text-anchor="middle" x="264.6008" y="-245.1" font-family="Times,serif" font-size="9.00" fill="#000000">&#45;10</text>
</g>
<!-- &#45;10&#45;&gt;800 -->
<g id="edge45" class="edge">
<title>&#45;10&#45;&gt;800</title>
<path fill="none" stroke="#00ff00" stroke-width=".419" d="M256.554,-238.1735C252.0699,-233.3068 246.2621,-227.3503 240.6008,-222.5513 219.1589,-204.3753 201.6464,-211.4498 188.6008,-186.5513 179.8495,-169.8489 179.1058,-160.416 188.6008,-144.1249 203.6956,-118.2257 235.3487,-103.1076 259.2211,-94.986"/>
<polygon fill="#00ff00" stroke="#00ff00" stroke-width=".419" points="260.4262,-98.2758 268.9049,-91.9227 258.3149,-91.6018 260.4262,-98.2758"/>
</g>
<!-- &#45;10&#45;&gt;803 -->
<g id="edge47" class="edge">
<title>&#45;10&#45;&gt;803</title>
<path fill="none" stroke="#00ff00" stroke-width=".3092" d="M271.1956,-238.2385C275.5545,-232.8927 281.7204,-226.4341 288.6008,-222.5513 350.5698,-187.5804 375.9216,-205.1598 444.6008,-186.5513 457.064,-183.1744 470.6727,-179.0232 482.4192,-175.2912"/>
<polygon fill="#00ff00" stroke="#00ff00" stroke-width=".3092" points="483.739,-178.5433 492.1869,-172.1493 481.5955,-171.8796 483.739,-178.5433"/>
</g>
<!-- &#45;10&#45;&gt;802 -->
<g id="edge46" class="edge">
<title>&#45;10&#45;&gt;802</title>
<path fill="none" stroke="#ff0000" stroke-width=".5" d="M259.5022,-238.2155C253.4013,-227.345 242.9026,-208.6386 234.0697,-192.9002"/>
<polygon fill="#ff0000" stroke="#ff0000" stroke-width=".5" points="237.0537,-191.0658 229.1073,-184.0583 230.9494,-194.4918 237.0537,-191.0658"/>
</g>
<!-- &#45;10&#45;&gt;804 -->
<g id="edge48" class="edge">
<title>&#45;10&#45;&gt;804</title>
<path fill="none" stroke="#00ff00" stroke-width=".2441" d="M273.3061,-237.9453C277.7828,-233.2325 283.3824,-227.4861 288.6008,-222.5513 301.9772,-209.9017 317.5101,-196.3824 330.1457,-185.6633"/>
<polygon fill="#00ff00" stroke="#00ff00" stroke-width=".2441" points="332.5883,-188.182 337.9789,-179.061 328.0769,-182.8296 332.5883,-188.182"/>
</g>
<!-- &#45;10&#45;&gt;805 -->
<g id="edge49" class="edge">
<title>&#45;10&#45;&gt;805</title>
<path fill="none" stroke="#ff0000" stroke-width=".2405" d="M271.7939,-238.0734C276.1917,-232.9354 282.1917,-226.7482 288.6008,-222.5513 326.7227,-197.588 344.3332,-207.8811 384.6008,-186.5513 386.1122,-185.7507 387.6361,-184.8851 389.1533,-183.9769"/>
<polygon fill="#ff0000" stroke="#ff0000" stroke-width=".2405" points="391.1573,-186.8488 397.6358,-178.4655 387.3434,-180.979 391.1573,-186.8488"/>
</g>
<!-- &#45;11 -->
<g id="node11" class="node">
<title>&#45;11</title>
<polygon fill="#d3d3d3" stroke="#000000" points="369.1008,-256.3 340.1008,-256.3 340.1008,-238.3 369.1008,-238.3 369.1008,-256.3"/>
<text text-anchor="middle" x="354.6008" y="-245.1" font-family="Times,serif" font-size="9.00" fill="#000000">&#45;11</text>
</g>
<!-- &#45;11&#45;&gt;800 -->
<g id="edge50" class="edge">
<title>&#45;11&#45;&gt;800</title>
<path fill="none" stroke="#00ff00" stroke-width=".4861" d="M349.5648,-237.9939C343.2922,-226.2122 332.4468,-205.1996 324.6008,-186.5513 314.9735,-163.6692 305.7392,-137.119 299.1753,-117.1819"/>
<polygon fill="#00ff00" stroke="#00ff00" stroke-width=".4861" points="302.4196,-115.8405 295.9983,-107.4133 295.7628,-118.0055 302.4196,-115.8405"/>
</g>
<!-- &#45;11&#45;&gt;803 -->
<g id="edge52" class="edge">
<title>&#45;11&#45;&gt;803</title>
<path fill="none" stroke="#00ff00" stroke-width=".4138" d="M361.49,-238.1581C365.703,-233.0484 371.453,-226.8612 377.6008,-222.5513 410.2731,-199.6464 453.5484,-183.3408 482.1928,-174.1404"/>
<polygon fill="#00ff00" stroke="#00ff00" stroke-width=".4138" points="483.5311,-177.3895 492.0373,-171.0732 481.4488,-170.7064 483.5311,-177.3895"/>
</g>
<!-- &#45;11&#45;&gt;802 -->
<g id="edge51" class="edge">
<title>&#45;11&#45;&gt;802</title>
<path fill="none" stroke="#ff0000" stroke-width=".4086" d="M346.7988,-237.8644C342.3864,-232.9071 336.5691,-226.9627 330.6008,-222.5513 304.7895,-203.473 271.6914,-187.4402 248.1857,-177.246"/>
<polygon fill="#ff0000" stroke="#ff0000" stroke-width=".4086" points="249.321,-173.9258 238.7483,-173.2426 246.5874,-180.3699 249.321,-173.9258"/>
</g>
<!-- &#45;11&#45;&gt;804 -->
<g id="edge53" class="edge">
<title>&#45;11&#45;&gt;804</title>
<path fill="none" stroke="#00ff00" stroke-width=".1527" d="M354.6008,-238.2155C354.6008,-228.288 354.6008,-211.8251 354.6008,-197.056"/>
<polygon fill="#00ff00" stroke="#00ff00" stroke-width=".1527" points="358.1009,-196.7187 354.6008,-186.7188 351.1009,-196.7188 358.1009,-196.7187"/>
</g>
<!-- &#45;11&#45;&gt;805 -->
<g id="edge54" class="edge">
<title>&#45;11&#45;&gt;805</title>
<path fill="none" stroke="#ff0000" stroke-width=".429" d="M361.2511,-238.2155C369.4891,-226.9621 383.8747,-207.3109 395.6332,-191.2485"/>
<polygon fill="#ff0000" stroke="#ff0000" stroke-width=".429" points="398.7569,-192.9067 401.8396,-182.7703 393.1086,-188.7719 398.7569,-192.9067"/>
</g>
<!-- &#45;12 -->
<g id="node12" class="node">
<title>&#45;12</title>
<polygon fill="#d3d3d3" stroke="#000000" points="416.1008,-256.3 387.1008,-256.3 387.1008,-238.3 416.1008,-238.3 416.1008,-256.3"/>
<text text-anchor="middle" x="401.6008" y="-245.1" font-family="Times,serif" font-size="9.00" fill="#000000">&#45;12</text>
</g>
<!-- &#45;12&#45;&gt;800 -->
<g id="edge55" class="edge">
<title>&#45;12&#45;&gt;800</title>
<path fill="none" stroke="#00ff00" stroke-width=".2057" d="M411.1633,-238.0966C429.5881,-219.2321 466.3462,-175.331 444.6008,-144.1249 430.0496,-123.2429 361.1894,-103.819 320.3072,-93.8662"/>
<polygon fill="#00ff00" stroke="#00ff00" stroke-width=".2057" points="321.1054,-90.4585 310.5664,-91.5448 319.4825,-97.2678 321.1054,-90.4585"/>
</g>
<!-- &#45;12&#45;&gt;803 -->
<g id="edge57" class="edge">
<title>&#45;12&#45;&gt;803</title>
<path fill="none" stroke="#00ff00" stroke-width=".3805" d="M413.9039,-238.2155C431.522,-225.2064 464.3387,-200.9746 487.2758,-184.038"/>
<polygon fill="#00ff00" stroke="#00ff00" stroke-width=".3805" points="489.5651,-186.6984 495.5306,-177.9426 485.407,-181.0672 489.5651,-186.6984"/>
</g>
<!-- &#45;12&#45;&gt;802 -->
<g id="edge56" class="edge">
<title>&#45;12&#45;&gt;802</title>
<path fill="none" stroke="#00ff00" stroke-width=".438" stroke-dasharray="1,5" d="M394.4286,-238.0412C390.0379,-232.8925 384.0379,-226.7053 377.6008,-222.5513 337.1192,-196.4276 283.1422,-180.2759 249.6443,-172.0527"/>
<polygon fill="#00ff00" stroke="#00ff00" stroke-width=".438" points="250.0684,-168.5564 239.531,-169.6589 248.4559,-175.3682 250.0684,-168.5564"/>
</g>
<!-- &#45;12&#45;&gt;804 -->
<g id="edge58" class="edge">
<title>&#45;12&#45;&gt;804</title>
<path fill="none" stroke="#ff0000" stroke-width=".499" d="M396.3914,-238.2155C390.1579,-227.345 379.4309,-208.6386 370.4059,-192.9002"/>
<polygon fill="#ff0000" stroke="#ff0000" stroke-width=".499" points="373.3465,-190.9922 365.3357,-184.0583 367.274,-194.4744 373.3465,-190.9922"/>
</g>
<!-- &#45;12&#45;&gt;805 -->
<g id="edge59" class="edge">
<title>&#45;12&#45;&gt;805</title>
<path fill="none" stroke="#00ff00" stroke-width=".1668" stroke-dasharray="1,5" d="M403.0417,-238.2155C404.6423,-228.1239 407.3141,-211.279 409.686,-196.325"/>
<polygon fill="#00ff00" stroke="#00ff00" stroke-width=".1668" points="413.1535,-196.8053 411.2633,-186.3805 406.2399,-195.7087 413.1535,-196.8053"/>
</g>
<!-- &#45;13 -->
<g id="node13" class="node">
<title>&#45;13</title>
<polygon fill="#d3d3d3" stroke="#000000" points="502.1008,-256.3 473.1008,-256.3 473.1008,-238.3 502.1008,-238.3 502.1008,-256.3"/>
<text text-anchor="middle" x="487.6008" y="-245.1" font-family="Times,serif" font-size="9.00" fill="#000000">&#45;13</text>
</g>
<!-- &#45;13&#45;&gt;800 -->
<g id="edge60" class="edge">
<title>&#45;13&#45;&gt;800</title>
<path fill="none" stroke="#ff0000" stroke-width=".1934" d="M496.0794,-238.1067C511.3563,-221.519 541.9868,-188.1443 542.6008,-186.5513 549.3823,-168.9568 554.3722,-158.8555 542.6008,-144.1249 515.2186,-109.859 383.0103,-94.6133 321.3668,-89.2825"/>
<polygon fill="#ff0000" stroke="#ff0000" stroke-width=".1934" points="321.3197,-85.7667 311.0645,-88.4276 320.7407,-92.7427 321.3197,-85.7667"/>
</g>
<!-- &#45;13&#45;&gt;803 -->
<g id="edge62" class="edge">
<title>&#45;13&#45;&gt;803</title>
<path fill="none" stroke="#ff0000" stroke-width=".4026" d="M490.3718,-238.2155C493.5212,-227.8901 498.8271,-210.4949 503.4653,-195.2888"/>
<polygon fill="#ff0000" stroke="#ff0000" stroke-width=".4026" points="506.8176,-196.2947 506.3874,-185.7086 500.1221,-194.2524 506.8176,-196.2947"/>
</g>
<!-- &#45;13&#45;&gt;802 -->
<g id="edge61" class="edge">
<title>&#45;13&#45;&gt;802</title>
<path fill="none" stroke="#ff0000" stroke-width=".4851" d="M472.9929,-241.0643C460.3244,-235.7766 441.4297,-228.177 424.6008,-222.5513 363.0716,-201.9827 289.5334,-182.8306 249.0667,-172.7488"/>
<polygon fill="#ff0000" stroke="#ff0000" stroke-width=".4851" points="249.8285,-169.3318 239.2805,-170.3273 248.147,-176.1269 249.8285,-169.3318"/>
</g>
<!-- &#45;13&#45;&gt;804 -->
<g id="edge63" class="edge">
<title>&#45;13&#45;&gt;804</title>
<path fill="none" stroke="#ff0000" stroke-width=".3677" d="M473.043,-239.2171C452.8815,-227.9099 415.4541,-206.5098 384.6008,-186.5513 383.1647,-185.6223 381.7004,-184.6553 380.2295,-183.6683"/>
<polygon fill="#ff0000" stroke="#ff0000" stroke-width=".3677" points="382.1055,-180.7106 371.8837,-177.9238 378.1366,-186.4767 382.1055,-180.7106"/>
</g>
<!-- &#45;13&#45;&gt;805 -->
<g id="edge64" class="edge">
<title>&#45;13&#45;&gt;805</title>
<path fill="none" stroke="#ff0000" stroke-width=".5" d="M479.5096,-238.2155C468.9821,-226.3955 450.2029,-205.3109 435.543,-188.8512"/>
<polygon fill="#ff0000" stroke="#ff0000" stroke-width=".5" points="437.9961,-186.3431 428.7314,-181.2034 432.7688,-190.9988 437.9961,-186.3431"/>
</g>
<!-- &#45;14 -->
<g id="node14" class="node">
<title>&#45;14</title>
<polygon fill="#d3d3d3" stroke="#000000" points="549.1008,-256.3 520.1008,-256.3 520.1008,-238.3 549.1008,-238.3 549.1008,-256.3"/>
<text text-anchor="middle" x="534.6008" y="-245.1" font-family="Times,serif" font-size="9.00" fill="#000000">&#45;14</text>
</g>
<!-- &#45;14&#45;&gt;800 -->
<g id="edge65" class="edge">
<title>&#45;14&#45;&gt;800</title>
<path fill="none" stroke="#ff0000" stroke-width=".4056" d="M541.5474,-238.1864C555.4861,-218.7174 583.6379,-172.5334 560.6008,-144.1249 530.6917,-107.2421 385.6286,-93.2154 320.8973,-88.731"/>
<polygon fill="#ff0000" stroke="#ff0000" stroke-width=".4056" points="321.0761,-85.2352 310.8671,-88.0685 320.6147,-92.22 321.0761,-85.2352"/>
</g>
<!-- &#45;14&#45;&gt;803 -->
<g id="edge67" class="edge">
<title>&#45;14&#45;&gt;803</title>
<path fill="none" stroke="#ff0000" stroke-width=".5" d="M532.1624,-238.2155C529.4354,-228.0562 524.8714,-211.0526 520.8375,-196.0241"/>
<polygon fill="#ff0000" stroke="#ff0000" stroke-width=".5" points="524.1314,-194.7945 518.1586,-186.0437 517.3707,-196.6092 524.1314,-194.7945"/>
</g>
<!-- &#45;14&#45;&gt;802 -->
<g id="edge66" class="edge">
<title>&#45;14&#45;&gt;802</title>
<path fill="none" stroke="#ff0000" stroke-width=".5" d="M528.0539,-238.1518C523.713,-232.7734 517.5493,-226.311 510.6008,-222.5513 436.5456,-182.4814 407.2164,-202.8129 324.6008,-186.5513 299.3962,-181.5902 270.8416,-175.8699 249.7245,-171.6206"/>
<polygon fill="#ff0000" stroke="#ff0000" stroke-width=".5" points="250.2044,-168.147 239.7102,-169.6035 248.8222,-175.0092 250.2044,-168.147"/>
</g>
<!-- &#45;14&#45;&gt;804 -->
<g id="edge68" class="edge">
<title>&#45;14&#45;&gt;804</title>
<path fill="none" stroke="#ff0000" stroke-width=".2941" d="M527.5304,-237.8774C523.1736,-232.6742 517.1736,-226.487 510.6008,-222.5513 460.633,-192.6312 437.1222,-211.7208 384.6008,-186.5513 383.0584,-185.8122 381.5101,-184.9951 379.9738,-184.1247"/>
<polygon fill="#ff0000" stroke="#ff0000" stroke-width=".2941" points="381.7576,-181.1116 371.4351,-178.7247 378.0161,-187.0278 381.7576,-181.1116"/>
</g>
<!-- &#45;14&#45;&gt;805 -->
<g id="edge69" class="edge">
<title>&#45;14&#45;&gt;805</title>
<path fill="none" stroke="#ff0000" stroke-width=".1691" d="M526.6816,-238.0176C522.2349,-233.1052 516.4222,-227.1548 510.6008,-222.5513 489.3175,-205.7205 462.638,-190.2042 442.8099,-179.5892"/>
<polygon fill="#ff0000" stroke="#ff0000" stroke-width=".1691" points="444.433,-176.4884 433.9535,-174.929 441.1733,-182.6831 444.433,-176.4884"/>
</g>
<!-- &#45;15 -->
<g id="node15" class="node">
<title>&#45;15</title>
<polygon fill="#d3d3d3" stroke="#000000" points="596.1008,-256.3 567.1008,-256.3 567.1008,-238.3 596.1008,-238.3 596.1008,-256.3"/>
<text text-anchor="middle" x="581.6008" y="-245.1" font-family="Times,serif" font-size="9.00" fill="#000000">&#45;15</text>
</g>
<!-- &#45;15&#45;&gt;800 -->
<g id="edge70" class="edge">
<title>&#45;15&#45;&gt;800</title>
<path fill="none" stroke="#00ff00" stroke-width=".3708" d="M584.7541,-238.2962C591.0092,-218.6363 602.5058,-171.4461 579.6008,-144.1249 546.741,-104.9295 389.2257,-92.0849 321.1054,-88.3191"/>
<polygon fill="#00ff00" stroke="#00ff00" stroke-width=".3708" points="321.1418,-84.8163 310.9729,-87.79 320.7767,-91.8068 321.1418,-84.8163"/>
</g>
<!-- &#45;15&#45;&gt;803 -->
<g id="edge72" class="edge">
<title>&#45;15&#45;&gt;803</title>
<path fill="none" stroke="#00ff00" stroke-width=".4967" d="M573.953,-238.2155C564.2122,-226.645 546.9977,-206.1966 533.2777,-189.8993"/>
<polygon fill="#00ff00" stroke="#00ff00" stroke-width=".4967" points="535.5975,-187.2202 526.4797,-181.8242 530.2424,-191.7284 535.5975,-187.2202"/>
</g>
<!-- &#45;15&#45;&gt;802 -->
<g id="edge71" class="edge">
<title>&#45;15&#45;&gt;802</title>
<path fill="none" stroke="#ff0000" stroke-width=".5" d="M575.1031,-238.0587C570.7808,-232.6453 564.6193,-226.1787 557.6008,-222.5513 464.5141,-174.4408 427.7773,-204.8369 324.6008,-186.5513 299.3067,-182.0685 270.7583,-176.3151 249.6664,-171.9313"/>
<polygon fill="#ff0000" stroke="#ff0000" stroke-width=".5" points="250.1709,-168.4612 239.6661,-169.8394 248.7375,-175.3129 250.1709,-168.4612"/>
</g>
<!-- &#45;15&#45;&gt;804 -->
<g id="edge73" class="edge">
<title>&#45;15&#45;&gt;804</title>
<path fill="none" stroke="#00ff00" stroke-width=".5" d="M575.0353,-238.1859C570.6874,-232.8204 564.5229,-226.3595 557.6008,-222.5513 488.7908,-184.6953 456.6177,-217.8797 384.6008,-186.5513 383.0324,-185.869 381.4635,-185.097 379.9114,-184.2614"/>
<polygon fill="#00ff00" stroke="#00ff00" stroke-width=".5" points="381.6739,-181.2364 371.3255,-178.9647 377.9986,-187.1939 381.6739,-181.2364"/>
</g>
<!-- &#45;15&#45;&gt;805 -->
<g id="edge74" class="edge">
<title>&#45;15&#45;&gt;805</title>
<path fill="none" stroke="#00ff00" stroke-width=".5" stroke-dasharray="1,5" d="M574.3731,-238.1256C569.9638,-233.0051 563.9638,-226.8179 557.6008,-222.5513 538.4676,-209.7219 480.3111,-188.2448 444.3279,-175.5723"/>
<polygon fill="#00ff00" stroke="#00ff00" stroke-width=".5" points="445.4124,-172.2438 434.8176,-172.246 443.1014,-178.8513 445.4124,-172.2438"/>
</g>
<!-- 0 -->
<g id="node16" class="node">
<title>0</title>
<ellipse fill="#add8e6" stroke="#000000" cx="338.6008" cy="-14.8492" rx="14.7" ry="14.7"/>
<text text-anchor="middle" x="338.6008" y="-12.6492" font-family="Times,serif" font-size="9.00" fill="#000000">0</text>
</g>
<!-- 1 -->
<g id="node17" class="node">
<title>1</title>
<ellipse fill="#add8e6" stroke="#000000" cx="452.6008" cy="-14.8492" rx="14.7" ry="14.7"/>
<text text-anchor="middle" x="452.6008" y="-12.6492" font-family="Times,serif" font-size="9.00" fill="#000000">1</text>
</g>
<!-- 800&#45;&gt;0 -->
<g id="edge75" class="edge">
<title>800&#45;&gt;0</title>
<path fill="none" stroke="#00ff00" stroke-width=".12" d="M301.7132,-69.0985C308.6212,-58.9392 317.3122,-46.1576 324.5228,-35.5532"/>
<polygon fill="#00ff00" stroke="#00ff00" stroke-width=".12" points="327.4313,-37.5003 330.16,-27.2628 321.6427,-33.5642 327.4313,-37.5003"/>
</g>
<!-- 800&#45;&gt;1 -->
<g id="edge76" class="edge">
<title>800&#45;&gt;1</title>
<path fill="none" stroke="#ff0000" stroke-width=".5" d="M309.2624,-78.2193C339.366,-64.9105 396.7757,-39.5296 429.0549,-25.2589"/>
<polygon fill="#ff0000" stroke="#ff0000" stroke-width=".5" points="430.8548,-28.29 438.5856,-21.0454 428.0243,-21.8878 430.8548,-28.29"/>
</g>
<!-- 803&#45;&gt;0 -->
<g id="edge79" class="edge">
<title>803&#45;&gt;0</title>
<path fill="none" stroke="#ff0000" stroke-width=".4982" d="M496.5432,-151.4502C464.434,-123.6796 392.4332,-61.4077 357.8546,-31.5015"/>
<polygon fill="#ff0000" stroke="#ff0000" stroke-width=".4982" points="359.77,-28.5306 349.9168,-24.6362 355.1909,-33.8251 359.77,-28.5306"/>
</g>
<!-- 803&#45;&gt;1 -->
<g id="edge80" class="edge">
<title>803&#45;&gt;1</title>
<path fill="none" stroke="#ff0000" stroke-width=".3464" stroke-dasharray="1,5" d="M508.244,-144.5521C503.5473,-123.9977 495.1598,-91.9088 483.6008,-65.6985 479.0801,-55.4476 472.8323,-44.7643 467.1294,-35.8512"/>
<polygon fill="#ff0000" stroke="#ff0000" stroke-width=".3464" points="469.9107,-33.7114 461.479,-27.296 464.0697,-37.5692 469.9107,-33.7114"/>
</g>
<!-- 802&#45;&gt;0 -->
<g id="edge77" class="edge">
<title>802&#45;&gt;0</title>
<path fill="none" stroke="#00ff00" stroke-width=".1171" d="M214.5082,-144.2067C211.5297,-122.4938 210.4409,-88.7038 226.6008,-65.6985 246.775,-36.9785 287.2093,-24.1767 313.5737,-18.6915"/>
<polygon fill="#00ff00" stroke="#00ff00" stroke-width=".1171" points="314.3947,-22.0987 323.58,-16.8184 313.1067,-15.2182 314.3947,-22.0987"/>
</g>
<!-- 802&#45;&gt;1 -->
<g id="edge78" class="edge">
<title>802&#45;&gt;1</title>
<path fill="none" stroke="#ff0000" stroke-width=".5" d="M221.6561,-144.2243C226.0577,-121.5434 236.3768,-86.0274 259.6008,-65.6985 284.7039,-43.7248 381.2416,-26.0376 427.5447,-18.6211"/>
<polygon fill="#ff0000" stroke="#ff0000" stroke-width=".5" points="428.3116,-22.0438 437.6496,-17.0385 427.2285,-15.1281 428.3116,-22.0438"/>
</g>
<!-- 804&#45;&gt;0 -->
<g id="edge81" class="edge">
<title>804&#45;&gt;0</title>
<path fill="none" stroke="#ff0000" stroke-width=".1894" stroke-dasharray="1,5" d="M352.3423,-144.0959C349.4245,-116.6522 344.353,-68.9517 341.2545,-39.8089"/>
<polygon fill="#ff0000" stroke="#ff0000" stroke-width=".1894" points="344.7099,-39.203 340.1722,-29.6291 337.7492,-39.9431 344.7099,-39.203"/>
</g>
<!-- 804&#45;&gt;1 -->
<g id="edge82" class="edge">
<title>804&#45;&gt;1</title>
<path fill="none" stroke="#00ff00" stroke-width=".442" d="M366.2275,-147.4841C384.423,-119.5431 419.5462,-65.6079 438.9275,-35.846"/>
<polygon fill="#00ff00" stroke="#00ff00" stroke-width=".442" points="441.8767,-37.7309 444.4008,-27.4411 436.0108,-33.911 441.8767,-37.7309"/>
</g>
<!-- 804&#45;&gt;800 -->
<g id="edge87" class="edge">
<title>804&#45;&gt;800</title>
<path fill="none" stroke="#ff0000" stroke-width=".1036" d="M340.816,-148.7059C331.793,-137.8191 319.8504,-123.4097 309.7675,-111.244"/>
<polygon fill="#ff0000" stroke="#ff0000" stroke-width=".1036" points="312.2189,-108.7169 303.1429,-103.251 306.8294,-113.1838 312.2189,-108.7169"/>
</g>
<!-- 805&#45;&gt;0 -->
<g id="edge83" class="edge">
<title>805&#45;&gt;0</title>
<path fill="none" stroke="#00ff00" stroke-width=".5" d="M404.9754,-146.2786C390.9799,-118.5659 365.0541,-67.2298 350.0818,-37.583"/>
<polygon fill="#00ff00" stroke="#00ff00" stroke-width=".5" points="353.0895,-35.7743 345.4573,-28.4258 346.8411,-38.9299 353.0895,-35.7743"/>
</g>
<!-- 805&#45;&gt;1 -->
<g id="edge84" class="edge">
<title>805&#45;&gt;1</title>
<path fill="none" stroke="#00ff00" stroke-width=".2639" stroke-dasharray="1,5" d="M431.7496,-152.4195C444.0501,-142.0023 459.6321,-126.1532 466.6008,-108.1249 475.4087,-85.3384 469.1962,-57.4325 462.4787,-38.1126"/>
<polygon fill="#00ff00" stroke="#00ff00" stroke-width=".2639" points="465.6971,-36.728 458.8921,-28.6075 459.1478,-39.1992 465.6971,-36.728"/>
</g>
<!-- 1978&#45;&gt;803 -->
<g id="edge86" class="edge">
<title>1978&#45;&gt;803</title>
<path fill="none" stroke="#00ff00" stroke-width=".1285" d="M704.1452,-231.5337C699.5509,-228.2728 694.5456,-225.0688 689.6008,-222.5513 641.1425,-197.8798 579.8574,-180.9117 543.5821,-172.1866"/>
<polygon fill="#00ff00" stroke="#00ff00" stroke-width=".1285" points="544.1425,-168.7231 533.6071,-169.8443 542.5422,-175.5377 544.1425,-168.7231"/>
</g>
</g>
</svg>
