<?xml version="1.0" encoding="UTF-8" standalone="no"?>
<!DOCTYPE svg PUBLIC "-//W3C//DTD SVG 1.1//EN"
 "http://www.w3.org/Graphics/SVG/1.1/DTD/svg11.dtd">
<!-- Generated by graphviz version 2.40.1 (20161225.0304)
 -->
<!-- Title: %3 Pages: 1 -->
<svg width="325pt" height="177pt"
 viewBox="0.00 0.00 325.50 177.20" xmlns="http://www.w3.org/2000/svg" xmlns:xlink="http://www.w3.org/1999/xlink">
<g id="graph0" class="graph" transform="scale(1 1) rotate(0) translate(4 173.196)">
<title>%3</title>
<polygon fill="#ffffff" stroke="transparent" points="-4,4 -4,-173.196 321.4975,-173.196 321.4975,4 -4,4"/>
<!-- &#45;1 -->
<g id="node1" class="node">
<title>&#45;1</title>
<polygon fill="#d3d3d3" stroke="#000000" points="115.7487,-169.196 91.7487,-169.196 91.7487,-151.196 115.7487,-151.196 115.7487,-169.196"/>
<text text-anchor="middle" x="103.7487" y="-157.996" font-family="Times,serif" font-size="9.00" fill="#000000">&#45;1</text>
</g>
<!-- 5265 -->
<g id="node6" class="node">
<title>5265</title>
<ellipse fill="#ffffff" stroke="#000000" cx="225.7487" cy="-90.4472" rx="25" ry="25"/>
<text text-anchor="middle" x="225.7487" y="-88.2472" font-family="Times,serif" font-size="9.00" fill="#000000">5265</text>
</g>
<!-- &#45;1&#45;&gt;5265 -->
<g id="edge1" class="edge">
<title>&#45;1&#45;&gt;5265</title>
<path fill="none" stroke="#ff0000" stroke-width=".2906" d="M115.915,-154.8698C133.3985,-147.0338 166.4215,-131.5484 192.7487,-115.196 194.4369,-114.1474 196.1468,-113.0354 197.8539,-111.886"/>
<polygon fill="#ff0000" stroke="#ff0000" stroke-width=".2906" points="200.1079,-114.5789 206.2527,-105.948 196.0668,-108.8631 200.1079,-114.5789"/>
</g>
<!-- 5266 -->
<g id="node7" class="node">
<title>5266</title>
<ellipse fill="#ffffff" stroke="#000000" cx="24.7487" cy="-90.4472" rx="25" ry="25"/>
<text text-anchor="middle" x="24.7487" y="-88.2472" font-family="Times,serif" font-size="9.00" fill="#000000">5266</text>
</g>
<!-- &#45;1&#45;&gt;5266 -->
<g id="edge2" class="edge">
<title>&#45;1&#45;&gt;5266</title>
<path fill="none" stroke="#ff0000" stroke-width=".1113" d="M93.4209,-151.0775C82.7636,-141.6683 65.705,-126.6073 51.2564,-113.8507"/>
<polygon fill="#ff0000" stroke="#ff0000" stroke-width=".1113" points="53.368,-111.0461 43.5552,-107.0513 48.7351,-116.2936 53.368,-111.0461"/>
</g>
<!-- 5267 -->
<g id="node8" class="node">
<title>5267</title>
<ellipse fill="#ffffff" stroke="#000000" cx="91.7487" cy="-90.4472" rx="25" ry="25"/>
<text text-anchor="middle" x="91.7487" y="-88.2472" font-family="Times,serif" font-size="9.00" fill="#000000">5267</text>
</g>
<!-- &#45;1&#45;&gt;5267 -->
<g id="edge3" class="edge">
<title>&#45;1&#45;&gt;5267</title>
<path fill="none" stroke="#00ff00" stroke-width=".3752" d="M102.1799,-151.0775C101.0106,-144.2808 99.3339,-134.5351 97.6657,-124.8392"/>
<polygon fill="#00ff00" stroke="#00ff00" stroke-width=".3752" points="101.097,-124.1404 95.9521,-114.8787 94.1984,-125.3274 101.097,-124.1404"/>
</g>
<!-- 5269 -->
<g id="node10" class="node">
<title>5269</title>
<ellipse fill="#ffffff" stroke="#000000" cx="158.7487" cy="-90.4472" rx="25" ry="25"/>
<text text-anchor="middle" x="158.7487" y="-88.2472" font-family="Times,serif" font-size="9.00" fill="#000000">5269</text>
</g>
<!-- &#45;1&#45;&gt;5269 -->
<g id="edge4" class="edge">
<title>&#45;1&#45;&gt;5269</title>
<path fill="none" stroke="#ff0000" stroke-width=".3353" d="M110.939,-151.0775C117.5634,-142.6768 127.7401,-129.7711 137.0045,-118.0224"/>
<polygon fill="#ff0000" stroke="#ff0000" stroke-width=".3353" points="139.774,-120.1627 143.2177,-110.1431 134.2773,-115.8283 139.774,-120.1627"/>
</g>
<!-- &#45;2 -->
<g id="node2" class="node">
<title>&#45;2</title>
<polygon fill="#d3d3d3" stroke="#000000" points="205.7487,-169.196 181.7487,-169.196 181.7487,-151.196 205.7487,-151.196 205.7487,-169.196"/>
<text text-anchor="middle" x="193.7487" y="-157.996" font-family="Times,serif" font-size="9.00" fill="#000000">&#45;2</text>
</g>
<!-- &#45;2&#45;&gt;5265 -->
<g id="edge5" class="edge">
<title>&#45;2&#45;&gt;5265</title>
<path fill="none" stroke="#ff0000" stroke-width=".3559" d="M197.9322,-151.0775C201.3046,-143.7269 206.2594,-132.9271 211.0564,-122.4713"/>
<polygon fill="#ff0000" stroke="#ff0000" stroke-width=".3559" points="214.3787,-123.6232 215.3675,-113.0746 208.0163,-120.7041 214.3787,-123.6232"/>
</g>
<!-- &#45;2&#45;&gt;5266 -->
<g id="edge6" class="edge">
<title>&#45;2&#45;&gt;5266</title>
<path fill="none" stroke="#ff0000" stroke-width=".1907" d="M181.3959,-154.6551C178.5758,-153.4593 175.5762,-152.2414 172.7487,-151.196 122.5152,-132.6235 105.415,-139.6147 57.7487,-115.196 55.98,-114.2899 54.207,-113.2894 52.4515,-112.2257"/>
<polygon fill="#ff0000" stroke="#ff0000" stroke-width=".1907" points="54.1782,-109.1701 43.9191,-106.524 50.2889,-114.9902 54.1782,-109.1701"/>
</g>
<!-- &#45;2&#45;&gt;5267 -->
<g id="edge7" class="edge">
<title>&#45;2&#45;&gt;5267</title>
<path fill="none" stroke="#00ff00" stroke-width=".4073" d="M181.6232,-152.6269C167.7169,-143.8686 144.3155,-128.8916 124.7487,-115.196 123.1207,-114.0564 121.4578,-112.8731 119.7868,-111.6689"/>
<polygon fill="#00ff00" stroke="#00ff00" stroke-width=".4073" points="121.6208,-108.6735 111.4876,-105.5799 117.4799,-114.3174 121.6208,-108.6735"/>
</g>
<!-- 5268 -->
<g id="node9" class="node">
<title>5268</title>
<ellipse fill="#ffffff" stroke="#000000" cx="292.7487" cy="-90.4472" rx="25" ry="25"/>
<text text-anchor="middle" x="292.7487" y="-88.2472" font-family="Times,serif" font-size="9.00" fill="#000000">5268</text>
</g>
<!-- &#45;2&#45;&gt;5268 -->
<g id="edge8" class="edge">
<title>&#45;2&#45;&gt;5268</title>
<path fill="none" stroke="#00ff00" stroke-width=".4153" d="M206.0268,-152.0648C219.3667,-143.1749 241.2505,-128.4285 259.7487,-115.196 261.365,-114.0398 263.0187,-112.8434 264.6826,-111.6292"/>
<polygon fill="#00ff00" stroke="#00ff00" stroke-width=".4153" points="266.9987,-114.2697 272.9622,-105.5126 262.8393,-108.6395 266.9987,-114.2697"/>
</g>
<!-- &#45;2&#45;&gt;5269 -->
<g id="edge9" class="edge">
<title>&#45;2&#45;&gt;5269</title>
<path fill="none" stroke="#00ff00" stroke-width=".4576" d="M189.1731,-151.0775C185.4182,-143.5948 179.8698,-132.5378 174.5357,-121.9078"/>
<polygon fill="#00ff00" stroke="#00ff00" stroke-width=".4576" points="177.5671,-120.145 169.9538,-112.7769 171.3106,-123.2845 177.5671,-120.145"/>
</g>
<!-- &#45;3 -->
<g id="node3" class="node">
<title>&#45;3</title>
<polygon fill="#d3d3d3" stroke="#000000" points="163.7487,-169.196 139.7487,-169.196 139.7487,-151.196 163.7487,-151.196 163.7487,-169.196"/>
<text text-anchor="middle" x="151.7487" y="-157.996" font-family="Times,serif" font-size="9.00" fill="#000000">&#45;3</text>
</g>
<!-- &#45;3&#45;&gt;5265 -->
<g id="edge10" class="edge">
<title>&#45;3&#45;&gt;5265</title>
<path fill="none" stroke="#00ff00" stroke-width=".4549" stroke-dasharray="1,5" d="M161.4229,-151.0775C171.1823,-141.8789 186.6724,-127.2787 200.0064,-114.7107"/>
<polygon fill="#00ff00" stroke="#00ff00" stroke-width=".4549" points="202.6722,-117.0077 207.5486,-107.6018 197.8709,-111.9138 202.6722,-117.0077"/>
</g>
<!-- &#45;3&#45;&gt;5266 -->
<g id="edge11" class="edge">
<title>&#45;3&#45;&gt;5266</title>
<path fill="none" stroke="#ff0000" stroke-width=".1007" d="M139.4828,-155.2433C121.1476,-147.6385 85.7532,-132.1728 57.7487,-115.196 56.0493,-114.1658 54.3306,-113.0681 52.6167,-111.9297"/>
<polygon fill="#ff0000" stroke="#ff0000" stroke-width=".1007" points="54.3952,-108.902 44.1993,-106.0221 50.3739,-114.6317 54.3952,-108.902"/>
</g>
<!-- &#45;3&#45;&gt;5267 -->
<g id="edge12" class="edge">
<title>&#45;3&#45;&gt;5267</title>
<path fill="none" stroke="#00ff00" stroke-width=".3676" d="M143.9048,-151.0775C136.4524,-142.4143 124.8787,-128.9601 114.5253,-116.9245"/>
<polygon fill="#00ff00" stroke="#00ff00" stroke-width=".3676" points="117.1283,-114.5834 107.9535,-109.2849 111.8216,-119.1484 117.1283,-114.5834"/>
</g>
<!-- &#45;3&#45;&gt;5268 -->
<g id="edge13" class="edge">
<title>&#45;3&#45;&gt;5268</title>
<path fill="none" stroke="#ff0000" stroke-width=".269" d="M164.1746,-154.84C166.991,-153.6346 169.9705,-152.366 172.7487,-151.196 211.3142,-134.9536 223.3903,-135.9125 259.7487,-115.196 261.4754,-114.2121 263.2155,-113.1508 264.9458,-112.0403"/>
<polygon fill="#ff0000" stroke="#ff0000" stroke-width=".269" points="267.1595,-114.7654 273.4084,-106.2096 263.1879,-109.0011 267.1595,-114.7654"/>
</g>
<!-- &#45;3&#45;&gt;5269 -->
<g id="edge14" class="edge">
<title>&#45;3&#45;&gt;5269</title>
<path fill="none" stroke="#00ff00" stroke-width=".3007" d="M152.6639,-151.0775C153.3334,-144.4066 154.288,-134.8948 155.2431,-125.3775"/>
<polygon fill="#00ff00" stroke="#00ff00" stroke-width=".3007" points="158.7502,-125.4818 156.2663,-115.1822 151.7851,-124.7827 158.7502,-125.4818"/>
</g>
<!-- 0 -->
<g id="node4" class="node">
<title>0</title>
<ellipse fill="#add8e6" stroke="#000000" cx="134.7487" cy="-14.8492" rx="14.7" ry="14.7"/>
<text text-anchor="middle" x="134.7487" y="-12.6492" font-family="Times,serif" font-size="9.00" fill="#000000">0</text>
</g>
<!-- 1 -->
<g id="node5" class="node">
<title>1</title>
<ellipse fill="#add8e6" stroke="#000000" cx="182.7487" cy="-14.8492" rx="14.7" ry="14.7"/>
<text text-anchor="middle" x="182.7487" y="-12.6492" font-family="Times,serif" font-size="9.00" fill="#000000">1</text>
</g>
<!-- 5265&#45;&gt;0 -->
<g id="edge15" class="edge">
<title>5265&#45;&gt;0</title>
<path fill="none" stroke="#00ff00" stroke-width=".3135" d="M206.45,-74.4148C191.0428,-61.6154 169.5554,-43.7648 154.1273,-30.948"/>
<polygon fill="#00ff00" stroke="#00ff00" stroke-width=".3135" points="156.1852,-28.1073 146.2567,-24.4094 151.7121,-33.4917 156.1852,-28.1073"/>
</g>
<!-- 5265&#45;&gt;1 -->
<g id="edge16" class="edge">
<title>5265&#45;&gt;1</title>
<path fill="none" stroke="#ff0000" stroke-width=".3266" d="M213.3114,-68.5812C207.6724,-58.6673 201.0153,-46.9636 195.3561,-37.0142"/>
<polygon fill="#ff0000" stroke="#ff0000" stroke-width=".3266" points="198.2883,-35.0901 190.3018,-28.1283 192.2037,-38.551 198.2883,-35.0901"/>
</g>
<!-- 5266&#45;&gt;0 -->
<g id="edge17" class="edge">
<title>5266&#45;&gt;0</title>
<path fill="none" stroke="#ff0000" stroke-width=".3" d="M44.5009,-75.3334C48.8306,-72.1049 53.4159,-68.7498 57.7487,-65.6985 76.3622,-52.5904 98.0382,-38.366 113.6408,-28.3039"/>
<polygon fill="#ff0000" stroke="#ff0000" stroke-width=".3" points="115.5327,-31.2485 122.0565,-22.9004 111.7507,-25.3582 115.5327,-31.2485"/>
</g>
<!-- 5266&#45;&gt;1 -->
<g id="edge18" class="edge">
<title>5266&#45;&gt;1</title>
<path fill="none" stroke="#ff0000" stroke-width=".4501" d="M43.9919,-74.5092C48.3534,-71.3321 53.0803,-68.2062 57.7487,-65.6985 99.7304,-43.1474 115.8012,-50.351 158.7487,-29.6985 159.5988,-29.2897 160.4566,-28.8585 161.3164,-28.4104"/>
<polygon fill="#ff0000" stroke="#ff0000" stroke-width=".4501" points="163.4046,-31.2471 170.3273,-23.2267 159.9139,-25.1794 163.4046,-31.2471"/>
</g>
<!-- 5267&#45;&gt;0 -->
<g id="edge19" class="edge">
<title>5267&#45;&gt;0</title>
<path fill="none" stroke="#00ff00" stroke-width=".2704" d="M104.1861,-68.5812C109.8251,-58.6673 116.4821,-46.9636 122.1414,-37.0142"/>
<polygon fill="#00ff00" stroke="#00ff00" stroke-width=".2704" points="125.2937,-38.551 127.1956,-28.1283 119.2092,-35.0901 125.2937,-38.551"/>
</g>
<!-- 5267&#45;&gt;1 -->
<g id="edge20" class="edge">
<title>5267&#45;&gt;1</title>
<path fill="none" stroke="#ff0000" stroke-width=".3878" d="M111.0475,-74.4148C126.4546,-61.6154 147.9421,-43.7648 163.3701,-30.948"/>
<polygon fill="#ff0000" stroke="#ff0000" stroke-width=".3878" points="165.7854,-33.4917 171.2408,-24.4094 161.3123,-28.1073 165.7854,-33.4917"/>
</g>
<!-- 5268&#45;&gt;0 -->
<g id="edge21" class="edge">
<title>5268&#45;&gt;0</title>
<path fill="none" stroke="#00ff00" stroke-width=".5" d="M273.5056,-74.5092C269.1441,-71.3321 264.4172,-68.2062 259.7487,-65.6985 217.7671,-43.1474 201.6962,-50.351 158.7487,-29.6985 157.8987,-29.2897 157.0408,-28.8585 156.1811,-28.4104"/>
<polygon fill="#00ff00" stroke="#00ff00" stroke-width=".5" points="157.5835,-25.1794 147.1702,-23.2267 154.0929,-31.2471 157.5835,-25.1794"/>
</g>
<!-- 5268&#45;&gt;1 -->
<g id="edge22" class="edge">
<title>5268&#45;&gt;1</title>
<path fill="none" stroke="#ff0000" stroke-width=".5" d="M272.9966,-75.3334C268.6668,-72.1049 264.0815,-68.7498 259.7487,-65.6985 241.1353,-52.5904 219.4593,-38.366 203.8567,-28.3039"/>
<polygon fill="#ff0000" stroke="#ff0000" stroke-width=".5" points="205.7468,-25.3582 195.441,-22.9004 201.9647,-31.2485 205.7468,-25.3582"/>
</g>
<!-- 5269&#45;&gt;0 -->
<g id="edge23" class="edge">
<title>5269&#45;&gt;0</title>
<path fill="none" stroke="#00ff00" stroke-width=".3674" d="M151.155,-66.5275C148.3518,-57.6976 145.176,-47.6942 142.3703,-38.8566"/>
<polygon fill="#00ff00" stroke="#00ff00" stroke-width=".3674" points="145.653,-37.6297 139.2912,-29.1575 138.9812,-39.7478 145.653,-37.6297"/>
</g>
<!-- 5269&#45;&gt;1 -->
<g id="edge24" class="edge">
<title>5269&#45;&gt;1</title>
<path fill="none" stroke="#ff0000" stroke-width=".4759" d="M166.3425,-66.5275C169.1457,-57.6976 172.3215,-47.6942 175.1272,-38.8566"/>
<polygon fill="#ff0000" stroke="#ff0000" stroke-width=".4759" points="178.5163,-39.7478 178.2063,-29.1575 171.8444,-37.6297 178.5163,-39.7478"/>
</g>
</g>
</svg>
