<?xml version="1.0" encoding="UTF-8" standalone="no"?>
<!DOCTYPE svg PUBLIC "-//W3C//DTD SVG 1.1//EN"
 "http://www.w3.org/Graphics/SVG/1.1/DTD/svg11.dtd">
<!-- Generated by graphviz version 2.43.0 (0)
 -->
<!-- Title: %3 Pages: 1 -->
<svg width="446pt" height="189pt"
 viewBox="0.00 0.00 445.98 188.51" xmlns="http://www.w3.org/2000/svg" xmlns:xlink="http://www.w3.org/1999/xlink">
<g id="graph0" class="graph" transform="scale(1 1) rotate(0) translate(4 184.51)">
<title>%3</title>
<polygon fill="white" stroke="transparent" points="-4,4 -4,-184.51 441.98,-184.51 441.98,4 -4,4"/>
<!-- &#45;1 -->
<g id="node1" class="node">
<title>&#45;1</title>
<polygon fill="lightgray" stroke="black" points="187.99,-180.51 161.99,-180.51 161.99,-162.51 187.99,-162.51 187.99,-180.51"/>
<text text-anchor="middle" x="174.99" y="-169.31" font-family="Times,serif" font-size="9.00">&#45;1</text>
</g>
<!-- 1440 -->
<g id="node6" class="node">
<title>1440</title>
<ellipse fill="white" stroke="black" cx="28.99" cy="-97.52" rx="28.98" ry="28.98"/>
<text text-anchor="middle" x="28.99" y="-95.32" font-family="Times,serif" font-size="9.00">1440</text>
</g>
<!-- &#45;1&#45;&gt;1440 -->
<g id="edge5" class="edge">
<title>&#45;1&#45;&gt;1440</title>
<path fill="none" stroke="green" stroke-width="0.15" d="M161.88,-166.35C141.06,-159.49 99.49,-144.72 66.99,-126.51 64.68,-125.21 62.34,-123.8 60.02,-122.31"/>
<polygon fill="green" stroke="green" stroke-width="0.15" points="61.52,-119.09 51.28,-116.35 57.57,-124.87 61.52,-119.09"/>
</g>
<!-- 1441 -->
<g id="node7" class="node">
<title>1441</title>
<ellipse fill="white" stroke="black" cx="104.99" cy="-97.52" rx="28.98" ry="28.98"/>
<text text-anchor="middle" x="104.99" y="-95.32" font-family="Times,serif" font-size="9.00">1441</text>
</g>
<!-- &#45;1&#45;&gt;1441 -->
<g id="edge6" class="edge">
<title>&#45;1&#45;&gt;1441</title>
<path fill="none" stroke="red" stroke-width="0.48" d="M166.96,-162.25C158.44,-153.48 144.49,-139.14 131.99,-126.28"/>
<polygon fill="red" stroke="red" stroke-width="0.48" points="134.33,-123.67 124.85,-118.94 129.31,-128.55 134.33,-123.67"/>
</g>
<!-- 1436 -->
<g id="node8" class="node">
<title>1436</title>
<ellipse fill="white" stroke="black" cx="180.99" cy="-97.52" rx="28.98" ry="28.98"/>
<text text-anchor="middle" x="180.99" y="-95.32" font-family="Times,serif" font-size="9.00">1436</text>
</g>
<!-- &#45;1&#45;&gt;1436 -->
<g id="edge1" class="edge">
<title>&#45;1&#45;&gt;1436</title>
<path fill="none" stroke="green" stroke-width="0.11" d="M175.68,-162.25C176.22,-155.78 177.01,-146.28 177.82,-136.58"/>
<polygon fill="green" stroke="green" stroke-width="0.11" points="181.32,-136.77 178.66,-126.51 174.34,-136.19 181.32,-136.77"/>
</g>
<!-- 1437 -->
<g id="node9" class="node">
<title>1437</title>
<ellipse fill="white" stroke="black" cx="256.99" cy="-97.52" rx="28.98" ry="28.98"/>
<text text-anchor="middle" x="256.99" y="-95.32" font-family="Times,serif" font-size="9.00">1437</text>
</g>
<!-- &#45;1&#45;&gt;1437 -->
<g id="edge2" class="edge">
<title>&#45;1&#45;&gt;1437</title>
<path fill="none" stroke="red" stroke-width="0.5" d="M184.4,-162.25C194.93,-153 212.52,-137.56 227.75,-124.19"/>
<polygon fill="red" stroke="red" stroke-width="0.5" points="230.24,-126.66 235.44,-117.44 225.62,-121.4 230.24,-126.66"/>
</g>
<!-- 1438 -->
<g id="node10" class="node">
<title>1438</title>
<ellipse fill="white" stroke="black" cx="332.99" cy="-97.52" rx="28.98" ry="28.98"/>
<text text-anchor="middle" x="332.99" y="-95.32" font-family="Times,serif" font-size="9.00">1438</text>
</g>
<!-- &#45;1&#45;&gt;1438 -->
<g id="edge3" class="edge">
<title>&#45;1&#45;&gt;1438</title>
<path fill="none" stroke="red" stroke-width="0.26" d="M188.13,-165.72C219.02,-154.45 293.75,-127.18 294.99,-126.51 297.33,-125.25 299.68,-123.87 302.01,-122.4"/>
<polygon fill="red" stroke="red" stroke-width="0.26" points="304.44,-124.98 310.78,-116.49 300.53,-119.18 304.44,-124.98"/>
</g>
<!-- 1439 -->
<g id="node11" class="node">
<title>1439</title>
<ellipse fill="white" stroke="black" cx="408.99" cy="-97.52" rx="28.98" ry="28.98"/>
<text text-anchor="middle" x="408.99" y="-95.32" font-family="Times,serif" font-size="9.00">1439</text>
</g>
<!-- &#45;1&#45;&gt;1439 -->
<g id="edge4" class="edge">
<title>&#45;1&#45;&gt;1439</title>
<path fill="none" stroke="red" stroke-width="0.18" d="M188.39,-165.29C191.2,-164.29 194.18,-163.31 196.99,-162.51 272.97,-140.96 298.87,-158.67 370.99,-126.51 373.5,-125.39 376,-124.08 378.46,-122.66"/>
<polygon fill="red" stroke="red" stroke-width="0.18" points="380.57,-125.46 387.08,-117.1 376.78,-119.58 380.57,-125.46"/>
</g>
<!-- &#45;2 -->
<g id="node2" class="node">
<title>&#45;2</title>
<polygon fill="lightgray" stroke="black" points="231.99,-180.51 205.99,-180.51 205.99,-162.51 231.99,-162.51 231.99,-180.51"/>
<text text-anchor="middle" x="218.99" y="-169.31" font-family="Times,serif" font-size="9.00">&#45;2</text>
</g>
<!-- &#45;2&#45;&gt;1440 -->
<g id="edge11" class="edge">
<title>&#45;2&#45;&gt;1440</title>
<path fill="none" stroke="red" stroke-width="0.38" d="M205.55,-165.43C202.74,-164.42 199.78,-163.4 196.99,-162.51 139.89,-144.25 120.91,-152.72 66.99,-126.51 64.52,-125.31 62.04,-123.94 59.61,-122.47"/>
<polygon fill="red" stroke="red" stroke-width="0.38" points="61.31,-119.4 51.03,-116.83 57.46,-125.25 61.31,-119.4"/>
</g>
<!-- &#45;2&#45;&gt;1441 -->
<g id="edge12" class="edge">
<title>&#45;2&#45;&gt;1441</title>
<path fill="none" stroke="green" stroke-width="0.23" d="M205.82,-163.46C190.45,-155.11 164.42,-140.54 142.99,-126.51 140.61,-124.95 138.18,-123.3 135.76,-121.62"/>
<polygon fill="green" stroke="green" stroke-width="0.23" points="137.78,-118.76 127.61,-115.81 133.72,-124.46 137.78,-118.76"/>
</g>
<!-- &#45;2&#45;&gt;1436 -->
<g id="edge7" class="edge">
<title>&#45;2&#45;&gt;1436</title>
<path fill="none" stroke="red" stroke-width="0.36" d="M214.63,-162.25C210.76,-154.92 204.84,-143.7 199.04,-132.71"/>
<polygon fill="red" stroke="red" stroke-width="0.36" points="202,-130.82 194.24,-123.61 195.81,-134.09 202,-130.82"/>
</g>
<!-- &#45;2&#45;&gt;1437 -->
<g id="edge8" class="edge">
<title>&#45;2&#45;&gt;1437</title>
<path fill="none" stroke="red" stroke-width="0.26" d="M223.35,-162.25C227.22,-154.92 233.14,-143.7 238.95,-132.71"/>
<polygon fill="red" stroke="red" stroke-width="0.26" points="242.17,-134.09 243.75,-123.61 235.98,-130.82 242.17,-134.09"/>
</g>
<!-- &#45;2&#45;&gt;1438 -->
<g id="edge9" class="edge">
<title>&#45;2&#45;&gt;1438</title>
<path fill="none" stroke="red" stroke-width="0.5" d="M232.16,-163.46C247.53,-155.11 273.56,-140.54 294.99,-126.51 297.37,-124.95 299.8,-123.3 302.23,-121.62"/>
<polygon fill="red" stroke="red" stroke-width="0.5" points="304.26,-124.46 310.37,-115.81 300.2,-118.76 304.26,-124.46"/>
</g>
<!-- &#45;2&#45;&gt;1439 -->
<g id="edge10" class="edge">
<title>&#45;2&#45;&gt;1439</title>
<path fill="none" stroke="red" stroke-width="0.17" d="M232.43,-165.43C235.24,-164.42 238.2,-163.4 240.99,-162.51 298.1,-144.25 317.07,-152.72 370.99,-126.51 373.46,-125.31 375.94,-123.94 378.37,-122.47"/>
<polygon fill="red" stroke="red" stroke-width="0.17" points="380.52,-125.25 386.95,-116.83 376.67,-119.4 380.52,-125.25"/>
</g>
<!-- &#45;3 -->
<g id="node3" class="node">
<title>&#45;3</title>
<polygon fill="lightgray" stroke="black" points="275.99,-180.51 249.99,-180.51 249.99,-162.51 275.99,-162.51 275.99,-180.51"/>
<text text-anchor="middle" x="262.99" y="-169.31" font-family="Times,serif" font-size="9.00">&#45;3</text>
</g>
<!-- &#45;3&#45;&gt;1440 -->
<g id="edge17" class="edge">
<title>&#45;3&#45;&gt;1440</title>
<path fill="none" stroke="green" stroke-width="0.39" d="M249.6,-165.29C246.78,-164.29 243.81,-163.31 240.99,-162.51 165.02,-140.96 139.12,-158.67 66.99,-126.51 64.48,-125.39 61.98,-124.08 59.52,-122.66"/>
<polygon fill="green" stroke="green" stroke-width="0.39" points="61.21,-119.58 50.9,-117.1 57.41,-125.46 61.21,-119.58"/>
</g>
<!-- &#45;3&#45;&gt;1441 -->
<g id="edge18" class="edge">
<title>&#45;3&#45;&gt;1441</title>
<path fill="none" stroke="red" stroke-width="0.29" d="M249.85,-165.72C218.96,-154.45 144.23,-127.18 142.99,-126.51 140.65,-125.25 138.3,-123.87 135.97,-122.4"/>
<polygon fill="red" stroke="red" stroke-width="0.29" points="137.45,-119.18 127.2,-116.49 133.54,-124.98 137.45,-119.18"/>
</g>
<!-- &#45;3&#45;&gt;1436 -->
<g id="edge13" class="edge">
<title>&#45;3&#45;&gt;1436</title>
<path fill="none" stroke="green" stroke-width="0.48" d="M253.58,-162.25C243.05,-153 225.46,-137.56 210.24,-124.19"/>
<polygon fill="green" stroke="green" stroke-width="0.48" points="212.36,-121.4 202.54,-117.44 207.74,-126.66 212.36,-121.4"/>
</g>
<!-- &#45;3&#45;&gt;1437 -->
<g id="edge14" class="edge">
<title>&#45;3&#45;&gt;1437</title>
<path fill="none" stroke="green" stroke-width="0.4" d="M262.3,-162.25C261.76,-155.78 260.97,-146.28 260.16,-136.58"/>
<polygon fill="green" stroke="green" stroke-width="0.4" points="263.64,-136.19 259.32,-126.51 256.67,-136.77 263.64,-136.19"/>
</g>
<!-- &#45;3&#45;&gt;1438 -->
<g id="edge15" class="edge">
<title>&#45;3&#45;&gt;1438</title>
<path fill="none" stroke="red" stroke-width="0.15" d="M271.02,-162.25C279.55,-153.48 293.49,-139.14 305.99,-126.28"/>
<polygon fill="red" stroke="red" stroke-width="0.15" points="308.68,-128.55 313.14,-118.94 303.66,-123.67 308.68,-128.55"/>
</g>
<!-- &#45;3&#45;&gt;1439 -->
<g id="edge16" class="edge">
<title>&#45;3&#45;&gt;1439</title>
<path fill="none" stroke="green" stroke-width="0.5" d="M276.1,-166.35C296.92,-159.49 338.49,-144.72 370.99,-126.51 373.31,-125.21 375.64,-123.8 377.96,-122.31"/>
<polygon fill="green" stroke="green" stroke-width="0.5" points="380.41,-124.87 386.7,-116.35 376.47,-119.09 380.41,-124.87"/>
</g>
<!-- 0 -->
<g id="node4" class="node">
<title>0</title>
<ellipse fill="lightblue" stroke="black" cx="192.99" cy="-16.26" rx="16.03" ry="16.03"/>
<text text-anchor="middle" x="192.99" y="-14.06" font-family="Times,serif" font-size="9.00">0</text>
</g>
<!-- 1 -->
<g id="node5" class="node">
<title>1</title>
<ellipse fill="lightblue" stroke="black" cx="249.99" cy="-16.26" rx="16.03" ry="16.03"/>
<text text-anchor="middle" x="249.99" y="-14.06" font-family="Times,serif" font-size="9.00">1</text>
</g>
<!-- 1440&#45;&gt;0 -->
<g id="edge27" class="edge">
<title>1440&#45;&gt;0</title>
<path fill="none" stroke="green" stroke-width="0.5" d="M51.28,-78.68C56.29,-75.08 61.7,-71.49 66.99,-68.53 100.31,-49.86 141.82,-34.32 167.87,-25.41"/>
<polygon fill="green" stroke="green" stroke-width="0.5" points="169.33,-28.61 177.69,-22.11 167.1,-21.97 169.33,-28.61"/>
</g>
<!-- 1440&#45;&gt;1 -->
<g id="edge28" class="edge">
<title>1440&#45;&gt;1</title>
<path fill="none" stroke="green" stroke-width="0.16" d="M50.96,-78.06C56,-74.49 61.49,-71.08 66.99,-68.53 129.57,-39.49 152.94,-55.51 217.99,-32.53 220.82,-31.53 223.73,-30.36 226.59,-29.11"/>
<polygon fill="green" stroke="green" stroke-width="0.16" points="228.34,-32.16 235.93,-24.76 225.39,-25.81 228.34,-32.16"/>
</g>
<!-- 1441&#45;&gt;0 -->
<g id="edge29" class="edge">
<title>1441&#45;&gt;0</title>
<path fill="none" stroke="green" stroke-width="0.13" d="M126.29,-77.33C140.75,-64.31 159.71,-47.24 173.72,-34.62"/>
<polygon fill="green" stroke="green" stroke-width="0.13" points="176.23,-37.07 181.32,-27.77 171.55,-31.86 176.23,-37.07"/>
</g>
<!-- 1441&#45;&gt;1 -->
<g id="edge30" class="edge">
<title>1441&#45;&gt;1</title>
<path fill="none" stroke="green" stroke-width="0.29" d="M127.42,-78.92C132.43,-75.3 137.79,-71.65 142.99,-68.53 143.97,-67.94 194.66,-43.7 225.92,-28.76"/>
<polygon fill="green" stroke="green" stroke-width="0.29" points="227.78,-31.75 235.29,-24.28 224.76,-25.44 227.78,-31.75"/>
</g>
<!-- 1436&#45;&gt;0 -->
<g id="edge19" class="edge">
<title>1436&#45;&gt;0</title>
<path fill="none" stroke="green" stroke-width="0.5" d="M185.19,-68.8C186.48,-60.26 187.9,-50.91 189.16,-42.55"/>
<polygon fill="green" stroke="green" stroke-width="0.5" points="192.63,-43.03 190.67,-32.62 185.71,-41.98 192.63,-43.03"/>
</g>
<!-- 1436&#45;&gt;1 -->
<g id="edge20" class="edge">
<title>1436&#45;&gt;1</title>
<path fill="none" stroke="red" stroke-width="0.28" d="M199.85,-74.86C210.12,-63.06 222.74,-48.56 232.75,-37.06"/>
<polygon fill="red" stroke="red" stroke-width="0.28" points="235.59,-39.14 239.51,-29.3 230.31,-34.54 235.59,-39.14"/>
</g>
<!-- 1437&#45;&gt;0 -->
<g id="edge21" class="edge">
<title>1437&#45;&gt;0</title>
<path fill="none" stroke="green" stroke-width="0.25" d="M239.16,-74.44C229.85,-62.91 218.53,-48.89 209.43,-37.62"/>
<polygon fill="green" stroke="green" stroke-width="0.25" points="211.98,-35.2 202.97,-29.62 206.53,-39.6 211.98,-35.2"/>
</g>
<!-- 1437&#45;&gt;1 -->
<g id="edge22" class="edge">
<title>1437&#45;&gt;1</title>
<path fill="none" stroke="red" stroke-width="0.33" d="M254.5,-68.35C253.77,-60.06 252.97,-51.04 252.26,-42.91"/>
<polygon fill="red" stroke="red" stroke-width="0.33" points="255.74,-42.54 251.37,-32.89 248.76,-43.16 255.74,-42.54"/>
</g>
<!-- 1438&#45;&gt;0 -->
<g id="edge23" class="edge">
<title>1438&#45;&gt;0</title>
<path fill="none" stroke="green" stroke-width="0.5" d="M310.52,-79C305.52,-75.37 300.16,-71.7 294.99,-68.53 280.91,-59.89 241.92,-40.76 216.43,-28.47"/>
<polygon fill="green" stroke="green" stroke-width="0.5" points="217.93,-25.31 207.4,-24.13 214.89,-31.62 217.93,-25.31"/>
</g>
<!-- 1438&#45;&gt;1 -->
<g id="edge24" class="edge">
<title>1438&#45;&gt;1</title>
<path fill="none" stroke="green" stroke-width="0.42" d="M312.47,-76.93C299.12,-64.17 281.82,-47.66 268.82,-35.24"/>
<polygon fill="green" stroke="green" stroke-width="0.42" points="271,-32.48 261.35,-28.11 266.16,-37.54 271,-32.48"/>
</g>
<!-- 1439&#45;&gt;0 -->
<g id="edge25" class="edge">
<title>1439&#45;&gt;0</title>
<path fill="none" stroke="green" stroke-width="0.5" d="M387.01,-78.09C381.97,-74.52 376.48,-71.1 370.99,-68.53 310.48,-40.16 287.92,-55.03 224.99,-32.53 222.17,-31.52 219.26,-30.34 216.4,-29.09"/>
<polygon fill="green" stroke="green" stroke-width="0.5" points="217.61,-25.79 207.06,-24.74 214.65,-32.14 217.61,-25.79"/>
</g>
<!-- 1439&#45;&gt;1 -->
<g id="edge26" class="edge">
<title>1439&#45;&gt;1</title>
<path fill="none" stroke="red" stroke-width="0.5" d="M386.67,-78.74C381.66,-75.13 376.26,-71.53 370.99,-68.53 339.28,-50.46 299.96,-34.96 274.91,-25.87"/>
<polygon fill="red" stroke="red" stroke-width="0.5" points="276.03,-22.55 265.43,-22.49 273.68,-29.14 276.03,-22.55"/>
</g>
</g>
</svg>
