<?xml version="1.0" encoding="UTF-8" standalone="no"?>
<!DOCTYPE svg PUBLIC "-//W3C//DTD SVG 1.1//EN"
 "http://www.w3.org/Graphics/SVG/1.1/DTD/svg11.dtd">
<!-- Generated by graphviz version 2.40.1 (20161225.0304)
 -->
<!-- Title: %3 Pages: 1 -->
<svg width="391pt" height="250pt"
 viewBox="0.00 0.00 390.56 249.97" xmlns="http://www.w3.org/2000/svg" xmlns:xlink="http://www.w3.org/1999/xlink">
<g id="graph0" class="graph" transform="scale(1 1) rotate(0) translate(4 245.9655)">
<title>%3</title>
<polygon fill="#ffffff" stroke="transparent" points="-4,4 -4,-245.9655 386.5612,-245.9655 386.5612,4 -4,4"/>
<!-- &#45;1 -->
<g id="node1" class="node">
<title>&#45;1</title>
<polygon fill="#d3d3d3" stroke="#000000" points="303.7487,-241.9655 279.7487,-241.9655 279.7487,-223.9655 303.7487,-223.9655 303.7487,-241.9655"/>
<text text-anchor="middle" x="291.7487" y="-230.7655" font-family="Times,serif" font-size="9.00" fill="#000000">&#45;1</text>
</g>
<!-- 80 -->
<g id="node7" class="node">
<title>80</title>
<ellipse fill="#ffffff" stroke="#000000" cx="346.7487" cy="-163.2168" rx="18.2703" ry="18.2703"/>
<text text-anchor="middle" x="346.7487" y="-161.0168" font-family="Times,serif" font-size="9.00" fill="#000000">80</text>
</g>
<!-- &#45;1&#45;&gt;80 -->
<g id="edge1" class="edge">
<title>&#45;1&#45;&gt;80</title>
<path fill="none" stroke="#00ff00" stroke-width=".1179" d="M298.939,-223.8471C306.5347,-214.2145 318.801,-198.6589 329.007,-185.7161"/>
<polygon fill="#00ff00" stroke="#00ff00" stroke-width=".1179" points="331.9028,-187.6963 335.3464,-177.6767 326.4061,-183.3619 331.9028,-187.6963"/>
</g>
<!-- 81 -->
<g id="node8" class="node">
<title>81</title>
<ellipse fill="#ffffff" stroke="#000000" cx="245.7487" cy="-84.0833" rx="18.2703" ry="18.2703"/>
<text text-anchor="middle" x="245.7487" y="-81.8833" font-family="Times,serif" font-size="9.00" fill="#000000">81</text>
</g>
<!-- &#45;1&#45;&gt;81 -->
<g id="edge2" class="edge">
<title>&#45;1&#45;&gt;81</title>
<path fill="none" stroke="#ff0000" stroke-width=".1075" d="M303.9475,-230.3909C322.8264,-225.6761 358.5292,-213.6784 373.7487,-187.9655 384.9542,-169.0343 385.8876,-156.8147 373.7487,-138.468 351.7008,-105.1447 304.6691,-92.1779 274.1681,-87.1744"/>
<polygon fill="#ff0000" stroke="#ff0000" stroke-width=".1075" points="274.5364,-83.6912 264.1369,-85.7163 273.5295,-90.6184 274.5364,-83.6912"/>
</g>
<!-- 83 -->
<g id="node9" class="node">
<title>83</title>
<ellipse fill="#ffffff" stroke="#000000" cx="291.7487" cy="-163.2168" rx="18.2703" ry="18.2703"/>
<text text-anchor="middle" x="291.7487" y="-161.0168" font-family="Times,serif" font-size="9.00" fill="#000000">83</text>
</g>
<!-- &#45;1&#45;&gt;83 -->
<g id="edge3" class="edge">
<title>&#45;1&#45;&gt;83</title>
<path fill="none" stroke="#ff0000" stroke-width=".5" stroke-dasharray="1,5" d="M291.7487,-223.8471C291.7487,-215.7049 291.7487,-203.3306 291.7487,-191.8795"/>
<polygon fill="#ff0000" stroke="#ff0000" stroke-width=".5" points="295.2488,-191.7707 291.7487,-181.7708 288.2488,-191.7708 295.2488,-191.7707"/>
</g>
<!-- 84 -->
<g id="node10" class="node">
<title>84</title>
<ellipse fill="#ffffff" stroke="#000000" cx="77.7487" cy="-84.0833" rx="18.2703" ry="18.2703"/>
<text text-anchor="middle" x="77.7487" y="-81.8833" font-family="Times,serif" font-size="9.00" fill="#000000">84</text>
</g>
<!-- &#45;1&#45;&gt;84 -->
<g id="edge4" class="edge">
<title>&#45;1&#45;&gt;84</title>
<path fill="none" stroke="#ff0000" stroke-width=".1448" d="M279.6647,-227.9478C276.1711,-226.5762 272.3332,-225.1443 268.7487,-223.9655 210.1679,-204.7003 183.2489,-226.0522 134.7487,-187.9655 121.4919,-177.5551 101.8503,-137.9045 89.4304,-110.7151"/>
<polygon fill="#ff0000" stroke="#ff0000" stroke-width=".1448" points="92.5052,-109.019 85.2067,-101.339 86.1229,-111.8941 92.5052,-109.019"/>
</g>
<!-- 85 -->
<g id="node11" class="node">
<title>85</title>
<ellipse fill="#ffffff" stroke="#000000" cx="161.7487" cy="-163.2168" rx="18.2703" ry="18.2703"/>
<text text-anchor="middle" x="161.7487" y="-161.0168" font-family="Times,serif" font-size="9.00" fill="#000000">85</text>
</g>
<!-- &#45;1&#45;&gt;85 -->
<g id="edge5" class="edge">
<title>&#45;1&#45;&gt;85</title>
<path fill="none" stroke="#00ff00" stroke-width=".1263" d="M279.2838,-226.2777C258.1363,-214.9315 214.8294,-191.6961 187.1003,-176.8186"/>
<polygon fill="#00ff00" stroke="#00ff00" stroke-width=".1263" points="188.4703,-173.5818 178.0037,-171.938 185.1608,-179.75 188.4703,-173.5818"/>
</g>
<!-- &#45;2 -->
<g id="node2" class="node">
<title>&#45;2</title>
<polygon fill="#d3d3d3" stroke="#000000" points="217.7487,-241.9655 193.7487,-241.9655 193.7487,-223.9655 217.7487,-223.9655 217.7487,-241.9655"/>
<text text-anchor="middle" x="205.7487" y="-230.7655" font-family="Times,serif" font-size="9.00" fill="#000000">&#45;2</text>
</g>
<!-- 1825 -->
<g id="node6" class="node">
<title>1825</title>
<ellipse fill="#ffffff" stroke="#000000" cx="24.7487" cy="-163.2168" rx="25" ry="25"/>
<text text-anchor="middle" x="24.7487" y="-161.0168" font-family="Times,serif" font-size="9.00" fill="#000000">1825</text>
</g>
<!-- &#45;2&#45;&gt;1825 -->
<g id="edge24" class="edge">
<title>&#45;2&#45;&gt;1825</title>
<path fill="none" stroke="#00ff00" stroke-width=".5" d="M193.5753,-230.2374C168.5218,-224.3817 109.6907,-209.3798 63.7487,-187.9655 60.5257,-186.4632 57.2491,-184.7388 54.0341,-182.9143"/>
<polygon fill="#00ff00" stroke="#00ff00" stroke-width=".5" points="55.6039,-179.7738 45.2326,-177.6086 51.99,-185.7688 55.6039,-179.7738"/>
</g>
<!-- &#45;2&#45;&gt;80 -->
<g id="edge6" class="edge">
<title>&#45;2&#45;&gt;80</title>
<path fill="none" stroke="#ff0000" stroke-width=".1118" d="M218.158,-227.5696C220.9753,-226.3663 223.9593,-225.1087 226.7487,-223.9655 267.3772,-207.3153 281.2798,-210.8562 318.7487,-187.9655 321.2401,-186.4435 323.7208,-184.6918 326.1175,-182.8383"/>
<polygon fill="#ff0000" stroke="#ff0000" stroke-width=".1118" points="328.4476,-185.4517 333.8365,-176.3298 323.9353,-180.1002 328.4476,-185.4517"/>
</g>
<!-- &#45;2&#45;&gt;81 -->
<g id="edge7" class="edge">
<title>&#45;2&#45;&gt;81</title>
<path fill="none" stroke="#ff0000" stroke-width=".4085" d="M208.2509,-223.6523C214.1564,-201.6716 229.1503,-145.8636 238.2888,-111.8495"/>
<polygon fill="#ff0000" stroke="#ff0000" stroke-width=".4085" points="241.7058,-112.6204 240.9204,-102.0547 234.9455,-110.804 241.7058,-112.6204"/>
</g>
<!-- &#45;2&#45;&gt;83 -->
<g id="edge8" class="edge">
<title>&#45;2&#45;&gt;83</title>
<path fill="none" stroke="#00ff00" stroke-width=".2076" d="M216.9917,-223.8471C230.1741,-213.1558 252.3532,-195.1678 269.1385,-181.5544"/>
<polygon fill="#00ff00" stroke="#00ff00" stroke-width=".2076" points="271.7862,-183.9135 277.3482,-174.8961 267.3768,-178.4768 271.7862,-183.9135"/>
</g>
<!-- &#45;2&#45;&gt;85 -->
<g id="edge9" class="edge">
<title>&#45;2&#45;&gt;85</title>
<path fill="none" stroke="#00ff00" stroke-width=".5" d="M199.9965,-223.8471C194.2231,-214.6951 185.0768,-200.1965 177.1759,-187.6719"/>
<polygon fill="#00ff00" stroke="#00ff00" stroke-width=".5" points="180.0047,-185.596 171.709,-179.0057 174.0842,-189.3309 180.0047,-185.596"/>
</g>
<!-- &#45;3 -->
<g id="node3" class="node">
<title>&#45;3</title>
<polygon fill="#d3d3d3" stroke="#000000" points="259.7487,-241.9655 235.7487,-241.9655 235.7487,-223.9655 259.7487,-223.9655 259.7487,-241.9655"/>
<text text-anchor="middle" x="247.7487" y="-230.7655" font-family="Times,serif" font-size="9.00" fill="#000000">&#45;3</text>
</g>
<!-- &#45;3&#45;&gt;80 -->
<g id="edge10" class="edge">
<title>&#45;3&#45;&gt;80</title>
<path fill="none" stroke="#00ff00" stroke-width=".5" d="M259.9436,-226.0395C274.4046,-217.6465 299.031,-202.7807 318.7487,-187.9655 320.8818,-186.3628 323.0522,-184.6363 325.1927,-182.8672"/>
<polygon fill="#00ff00" stroke="#00ff00" stroke-width=".5" points="327.8671,-185.1831 333.1592,-176.0046 323.2984,-179.8795 327.8671,-185.1831"/>
</g>
<!-- &#45;3&#45;&gt;81 -->
<g id="edge11" class="edge">
<title>&#45;3&#45;&gt;81</title>
<path fill="none" stroke="#00ff00" stroke-width=".5" d="M247.6236,-223.6523C247.3312,-201.8813 246.5929,-146.925 246.1349,-112.8286"/>
<polygon fill="#00ff00" stroke="#00ff00" stroke-width=".5" points="249.631,-112.5119 245.9969,-102.5598 242.6317,-112.6059 249.631,-112.5119"/>
</g>
<!-- &#45;3&#45;&gt;83 -->
<g id="edge12" class="edge">
<title>&#45;3&#45;&gt;83</title>
<path fill="none" stroke="#ff0000" stroke-width=".4294" d="M253.501,-223.8471C259.2743,-214.6951 268.4206,-200.1965 276.3216,-187.6719"/>
<polygon fill="#ff0000" stroke="#ff0000" stroke-width=".4294" points="279.4132,-189.3309 281.7885,-179.0057 273.4928,-185.596 279.4132,-189.3309"/>
</g>
<!-- &#45;3&#45;&gt;84 -->
<g id="edge13" class="edge">
<title>&#45;3&#45;&gt;84</title>
<path fill="none" stroke="#00ff00" stroke-width=".2147" d="M235.4135,-227.3764C232.5924,-226.1831 229.5881,-224.9784 226.7487,-223.9655 172.296,-204.5409 141.524,-229.922 101.7487,-187.9655 82.8395,-168.0193 77.7916,-136.2633 76.8868,-113.1076"/>
<polygon fill="#00ff00" stroke="#00ff00" stroke-width=".2147" points="80.3823,-112.7796 76.73,-102.8342 73.3831,-112.8865 80.3823,-112.7796"/>
</g>
<!-- &#45;3&#45;&gt;85 -->
<g id="edge14" class="edge">
<title>&#45;3&#45;&gt;85</title>
<path fill="none" stroke="#ff0000" stroke-width=".4374" d="M236.5057,-223.8471C223.3234,-213.1558 201.1443,-195.1678 184.359,-181.5544"/>
<polygon fill="#ff0000" stroke="#ff0000" stroke-width=".4374" points="186.1207,-178.4768 176.1493,-174.8961 181.7113,-183.9135 186.1207,-178.4768"/>
</g>
<!-- 0 -->
<g id="node4" class="node">
<title>0</title>
<ellipse fill="#add8e6" stroke="#000000" cx="288.7487" cy="-14.8492" rx="14.7" ry="14.7"/>
<text text-anchor="middle" x="288.7487" y="-12.6492" font-family="Times,serif" font-size="9.00" fill="#000000">0</text>
</g>
<!-- 1 -->
<g id="node5" class="node">
<title>1</title>
<ellipse fill="#add8e6" stroke="#000000" cx="199.7487" cy="-14.8492" rx="14.7" ry="14.7"/>
<text text-anchor="middle" x="199.7487" y="-12.6492" font-family="Times,serif" font-size="9.00" fill="#000000">1</text>
</g>
<!-- 1825&#45;&gt;84 -->
<g id="edge25" class="edge">
<title>1825&#45;&gt;84</title>
<path fill="none" stroke="#ff0000" stroke-width=".173" d="M38.6739,-142.4254C45.6704,-131.9789 54.1894,-119.2593 61.4853,-108.366"/>
<polygon fill="#ff0000" stroke="#ff0000" stroke-width=".173" points="64.609,-109.9916 67.2658,-99.7352 58.7929,-106.0962 64.609,-109.9916"/>
</g>
<!-- 80&#45;&gt;0 -->
<g id="edge15" class="edge">
<title>80&#45;&gt;0</title>
<path fill="none" stroke="#00ff00" stroke-width=".3639" d="M339.9819,-145.9068C329.6104,-119.3758 309.7571,-68.5899 298.0432,-38.625"/>
<polygon fill="#00ff00" stroke="#00ff00" stroke-width=".3639" points="301.1689,-37.0076 294.2682,-28.9683 294.6494,-39.5563 301.1689,-37.0076"/>
</g>
<!-- 80&#45;&gt;1 -->
<g id="edge16" class="edge">
<title>80&#45;&gt;1</title>
<path fill="none" stroke="#ff0000" stroke-width=".2806" d="M337.0462,-147.4934C324.024,-127.1566 299.4244,-91.3096 272.7487,-65.6985 257.1559,-50.7279 236.7944,-36.9285 221.5384,-27.494"/>
<polygon fill="#ff0000" stroke="#ff0000" stroke-width=".2806" points="223.1576,-24.3832 212.7875,-22.2123 219.5404,-30.3762 223.1576,-24.3832"/>
</g>
<!-- 81&#45;&gt;0 -->
<g id="edge17" class="edge">
<title>81&#45;&gt;0</title>
<path fill="none" stroke="#00ff00" stroke-width=".5" d="M255.5061,-68.373C261.4089,-58.8689 269.0152,-46.6221 275.4619,-36.2422"/>
<polygon fill="#00ff00" stroke="#00ff00" stroke-width=".5" points="278.454,-38.0585 280.7568,-27.717 272.5075,-34.3653 278.454,-38.0585"/>
</g>
<!-- 81&#45;&gt;1 -->
<g id="edge18" class="edge">
<title>81&#45;&gt;1</title>
<path fill="none" stroke="#00ff00" stroke-width=".3174" d="M235.5398,-68.718C229.1526,-59.1047 220.8357,-46.5869 213.8268,-36.038"/>
<polygon fill="#00ff00" stroke="#00ff00" stroke-width=".3174" points="216.5349,-33.7893 208.0857,-27.397 210.7045,-37.6631 216.5349,-33.7893"/>
</g>
<!-- 83&#45;&gt;0 -->
<g id="edge19" class="edge">
<title>83&#45;&gt;0</title>
<path fill="none" stroke="#ff0000" stroke-width=".2491" d="M291.3749,-144.7259C290.8428,-118.4134 289.8653,-70.0716 289.2647,-40.3651"/>
<polygon fill="#ff0000" stroke="#ff0000" stroke-width=".2491" points="292.7562,-39.9042 289.0546,-29.9771 285.7576,-40.0458 292.7562,-39.9042"/>
</g>
<!-- 83&#45;&gt;1 -->
<g id="edge20" class="edge">
<title>83&#45;&gt;1</title>
<path fill="none" stroke="#ff0000" stroke-width=".1638" d="M275.6738,-154.2769C258.7859,-144.0175 232.7702,-125.5889 218.7487,-102.468 207.2114,-83.4434 202.6345,-58.3462 200.8422,-39.8897"/>
<polygon fill="#ff0000" stroke="#ff0000" stroke-width=".1638" points="204.3296,-39.5902 200.077,-29.8863 197.35,-40.1241 204.3296,-39.5902"/>
</g>
<!-- 83&#45;&gt;81 -->
<g id="edge26" class="edge">
<title>83&#45;&gt;81</title>
<path fill="none" stroke="#00ff00" stroke-width=".1357" stroke-dasharray="1,5" d="M282.44,-147.2029C276.0803,-136.2624 267.5248,-121.5444 260.2751,-109.0728"/>
<polygon fill="#00ff00" stroke="#00ff00" stroke-width=".1357" points="263.0952,-106.9598 255.0437,-100.0733 257.0434,-110.4777 263.0952,-106.9598"/>
</g>
<!-- 84&#45;&gt;1 -->
<g id="edge21" class="edge">
<title>84&#45;&gt;1</title>
<path fill="none" stroke="#ff0000" stroke-width=".2824" d="M93.6871,-74.8962C98.8113,-71.9507 104.5158,-68.68 109.7487,-65.6985 132.773,-52.5805 159.1783,-37.6785 177.4047,-27.4146"/>
<polygon fill="#ff0000" stroke="#ff0000" stroke-width=".2824" points="179.6178,-30.1853 186.6156,-22.2304 176.1844,-24.0851 179.6178,-30.1853"/>
</g>
<!-- 85&#45;&gt;0 -->
<g id="edge22" class="edge">
<title>85&#45;&gt;0</title>
<path fill="none" stroke="#00ff00" stroke-width=".1314" d="M169.1497,-145.9622C178.5802,-125.3066 196.3745,-90.4123 218.7487,-65.6985 232.6418,-50.3527 251.8627,-36.793 266.649,-27.5436"/>
<polygon fill="#00ff00" stroke="#00ff00" stroke-width=".1314" points="268.881,-30.284 275.6247,-22.1124 265.2571,-24.295 268.881,-30.284"/>
</g>
<!-- 85&#45;&gt;1 -->
<g id="edge23" class="edge">
<title>85&#45;&gt;1</title>
<path fill="none" stroke="#ff0000" stroke-width=".1993" d="M154.1126,-146.3149C146.2301,-126.3064 136.5379,-92.3414 147.7487,-65.6985 154.0707,-50.6741 167.2398,-37.872 178.7428,-28.8714"/>
<polygon fill="#ff0000" stroke="#ff0000" stroke-width=".1993" points="181.0835,-31.495 187.0734,-22.7559 176.9411,-25.8522 181.0835,-31.495"/>
</g>
</g>
</svg>
