<?xml version="1.0" encoding="UTF-8" standalone="no"?>
<!DOCTYPE svg PUBLIC "-//W3C//DTD SVG 1.1//EN"
 "http://www.w3.org/Graphics/SVG/1.1/DTD/svg11.dtd">
<!-- Generated by graphviz version 2.40.1 (20161225.0304)
 -->
<!-- Title: %3 Pages: 1 -->
<svg width="841pt" height="256pt"
 viewBox="0.00 0.00 840.86 255.62" xmlns="http://www.w3.org/2000/svg" xmlns:xlink="http://www.w3.org/1999/xlink">
<g id="graph0" class="graph" transform="scale(1 1) rotate(0) translate(4 251.6224)">
<title>%3</title>
<polygon fill="#ffffff" stroke="transparent" points="-4,4 -4,-251.6224 836.8574,-251.6224 836.8574,4 -4,4"/>
<!-- &#45;1 -->
<g id="node1" class="node">
<title>&#45;1</title>
<polygon fill="#d3d3d3" stroke="#000000" points="411.8077,-177.8736 387.8077,-177.8736 387.8077,-159.8736 411.8077,-159.8736 411.8077,-177.8736"/>
<text text-anchor="middle" x="399.8077" y="-166.6736" font-family="Times,serif" font-size="9.00" fill="#000000">&#45;1</text>
</g>
<!-- 332 -->
<g id="node18" class="node">
<title>332</title>
<ellipse fill="#ffffff" stroke="#000000" cx="238.8077" cy="-86.9117" rx="21.4286" ry="21.4286"/>
<text text-anchor="middle" x="238.8077" y="-84.7117" font-family="Times,serif" font-size="9.00" fill="#000000">332</text>
</g>
<!-- &#45;1&#45;&gt;332 -->
<g id="edge1" class="edge">
<title>&#45;1&#45;&gt;332</title>
<path fill="none" stroke="#ff0000" stroke-width=".5" d="M393.7976,-159.5167C390.0442,-154.3353 384.7942,-148.1481 378.8077,-144.1249 336.1131,-115.4319 314.766,-131.2326 268.8077,-108.1249 267.2797,-107.3566 265.7426,-106.5165 264.2152,-105.6281"/>
<polygon fill="#ff0000" stroke="#ff0000" stroke-width=".5" points="266.0109,-102.622 255.7025,-100.1753 262.2352,-108.5164 266.0109,-102.622"/>
</g>
<!-- 333 -->
<g id="node19" class="node">
<title>333</title>
<ellipse fill="#ffffff" stroke="#000000" cx="298.8077" cy="-86.9117" rx="21.4286" ry="21.4286"/>
<text text-anchor="middle" x="298.8077" y="-84.7117" font-family="Times,serif" font-size="9.00" fill="#000000">333</text>
</g>
<!-- &#45;1&#45;&gt;333 -->
<g id="edge2" class="edge">
<title>&#45;1&#45;&gt;333</title>
<path fill="none" stroke="#00ff00" stroke-width=".5" d="M392.9163,-159.6938C389.0365,-154.8114 383.9489,-148.857 378.8077,-144.1249 376.343,-141.8562 346.8308,-120.8645 324.3622,-104.9601"/>
<polygon fill="#00ff00" stroke="#00ff00" stroke-width=".5" points="326.3522,-102.0806 316.1669,-99.1633 322.3098,-107.7955 326.3522,-102.0806"/>
</g>
<!-- 334 -->
<g id="node20" class="node">
<title>334</title>
<ellipse fill="#ffffff" stroke="#000000" cx="358.8077" cy="-86.9117" rx="21.4286" ry="21.4286"/>
<text text-anchor="middle" x="358.8077" y="-84.7117" font-family="Times,serif" font-size="9.00" fill="#000000">334</text>
</g>
<!-- &#45;1&#45;&gt;334 -->
<g id="edge3" class="edge">
<title>&#45;1&#45;&gt;334</title>
<path fill="none" stroke="#ff0000" stroke-width=".1008" d="M395.2634,-159.7891C389.911,-149.0893 380.7608,-130.7975 372.967,-115.217"/>
<polygon fill="#ff0000" stroke="#ff0000" stroke-width=".1008" points="375.9396,-113.3361 368.3356,-105.9585 369.6792,-116.4678 375.9396,-113.3361"/>
</g>
<!-- 335 -->
<g id="node21" class="node">
<title>335</title>
<ellipse fill="#ffffff" stroke="#000000" cx="538.8077" cy="-86.9117" rx="21.4286" ry="21.4286"/>
<text text-anchor="middle" x="538.8077" y="-84.7117" font-family="Times,serif" font-size="9.00" fill="#000000">335</text>
</g>
<!-- &#45;1&#45;&gt;335 -->
<g id="edge4" class="edge">
<title>&#45;1&#45;&gt;335</title>
<path fill="none" stroke="#ff0000" stroke-width=".1268" d="M405.9294,-159.6764C409.72,-154.5483 414.97,-148.3611 420.8077,-144.1249 455.009,-119.3065 471.762,-128.4545 508.8077,-108.1249 510.3071,-107.3021 511.8216,-106.4189 513.3314,-105.497"/>
<polygon fill="#ff0000" stroke="#ff0000" stroke-width=".1268" points="515.3515,-108.3577 521.7921,-99.9452 511.5112,-102.5052 515.3515,-108.3577"/>
</g>
<!-- 336 -->
<g id="node22" class="node">
<title>336</title>
<ellipse fill="#ffffff" stroke="#000000" cx="418.8077" cy="-86.9117" rx="21.4286" ry="21.4286"/>
<text text-anchor="middle" x="418.8077" y="-84.7117" font-family="Times,serif" font-size="9.00" fill="#000000">336</text>
</g>
<!-- &#45;1&#45;&gt;336 -->
<g id="edge5" class="edge">
<title>&#45;1&#45;&gt;336</title>
<path fill="none" stroke="#00ff00" stroke-width=".1907" d="M401.9137,-159.7891C404.2688,-149.6298 408.2104,-132.6262 411.6943,-117.5977"/>
<polygon fill="#00ff00" stroke="#00ff00" stroke-width=".1907" points="415.1591,-118.1494 414.0079,-107.6173 408.3399,-116.5686 415.1591,-118.1494"/>
</g>
<!-- 337 -->
<g id="node23" class="node">
<title>337</title>
<ellipse fill="#ffffff" stroke="#000000" cx="478.8077" cy="-86.9117" rx="21.4286" ry="21.4286"/>
<text text-anchor="middle" x="478.8077" y="-84.7117" font-family="Times,serif" font-size="9.00" fill="#000000">337</text>
</g>
<!-- &#45;1&#45;&gt;337 -->
<g id="edge6" class="edge">
<title>&#45;1&#45;&gt;337</title>
<path fill="none" stroke="#00ff00" stroke-width=".3074" d="M407.3969,-159.5378C411.307,-154.8299 416.2087,-149.0821 420.8077,-144.1249 431.9546,-132.1098 444.8936,-119.2499 455.7185,-108.7715"/>
<polygon fill="#00ff00" stroke="#00ff00" stroke-width=".3074" points="458.3866,-111.0616 463.1713,-101.6086 453.536,-106.0146 458.3866,-111.0616"/>
</g>
<!-- &#45;2 -->
<g id="node2" class="node">
<title>&#45;2</title>
<polygon fill="#d3d3d3" stroke="#000000" points="100.8077,-177.8736 76.8077,-177.8736 76.8077,-159.8736 100.8077,-159.8736 100.8077,-177.8736"/>
<text text-anchor="middle" x="88.8077" y="-166.6736" font-family="Times,serif" font-size="9.00" fill="#000000">&#45;2</text>
</g>
<!-- &#45;2&#45;&gt;332 -->
<g id="edge7" class="edge">
<title>&#45;2&#45;&gt;332</title>
<path fill="none" stroke="#00ff00" stroke-width=".2118" d="M96.8584,-159.8601C101.7086,-154.7932 108.2086,-148.606 114.8077,-144.1249 144.5907,-123.9011 182.6677,-107.54 208.7217,-97.5743"/>
<polygon fill="#00ff00" stroke="#00ff00" stroke-width=".2118" points="210.2736,-100.7307 218.4141,-93.9497 207.8216,-94.1742 210.2736,-100.7307"/>
</g>
<!-- &#45;2&#45;&gt;333 -->
<g id="edge8" class="edge">
<title>&#45;2&#45;&gt;333</title>
<path fill="none" stroke="#ff0000" stroke-width=".2703" d="M96.1041,-159.8305C100.8834,-154.4917 107.5698,-148.034 114.8077,-144.1249 176.654,-110.723 204.7006,-136.9505 268.8077,-108.1249 270.3676,-107.4235 271.9299,-106.6363 273.4768,-105.789"/>
<polygon fill="#ff0000" stroke="#ff0000" stroke-width=".2703" points="275.4049,-108.7116 282.0474,-100.4576 271.7075,-102.7678 275.4049,-108.7116"/>
</g>
<!-- &#45;2&#45;&gt;334 -->
<g id="edge9" class="edge">
<title>&#45;2&#45;&gt;334</title>
<path fill="none" stroke="#00ff00" stroke-width=".1181" d="M96.02,-159.6688C100.7676,-154.2691 107.4503,-147.8041 114.8077,-144.1249 201.0705,-100.9873 239.6419,-144.8887 328.8077,-108.1249 330.4295,-107.4562 332.049,-106.6864 333.648,-105.845"/>
<polygon fill="#00ff00" stroke="#00ff00" stroke-width=".1181" points="335.7586,-108.6565 342.4555,-100.4466 332.1005,-102.6884 335.7586,-108.6565"/>
</g>
<!-- &#45;2&#45;&gt;335 -->
<g id="edge10" class="edge">
<title>&#45;2&#45;&gt;335</title>
<path fill="none" stroke="#00ff00" stroke-width=".3503" d="M101.0935,-162.4441C112.7764,-156.6418 131.0111,-148.3831 147.8077,-144.1249 304.1036,-104.5013 357.7584,-164.5387 508.8077,-108.1249 510.4511,-107.5111 512.0875,-106.7845 513.6996,-105.9762"/>
<polygon fill="#00ff00" stroke="#00ff00" stroke-width=".3503" points="515.7677,-108.8172 522.5445,-100.6731 512.1681,-102.8136 515.7677,-108.8172"/>
</g>
<!-- &#45;2&#45;&gt;336 -->
<g id="edge11" class="edge">
<title>&#45;2&#45;&gt;336</title>
<path fill="none" stroke="#ff0000" stroke-width=".5" d="M101.1435,-162.6314C112.8616,-156.9615 131.1202,-148.7924 147.8077,-144.1249 252.1045,-114.9532 288.3095,-148.4845 388.8077,-108.1249 390.4356,-107.4712 392.0599,-106.7131 393.6626,-105.8806"/>
<polygon fill="#ff0000" stroke="#ff0000" stroke-width=".5" points="395.7618,-108.7002 402.4805,-100.5082 392.1196,-102.7223 395.7618,-108.7002"/>
</g>
<!-- &#45;3 -->
<g id="node3" class="node">
<title>&#45;3</title>
<polygon fill="#d3d3d3" stroke="#000000" points="180.8077,-177.8736 156.8077,-177.8736 156.8077,-159.8736 180.8077,-159.8736 180.8077,-177.8736"/>
<text text-anchor="middle" x="168.8077" y="-166.6736" font-family="Times,serif" font-size="9.00" fill="#000000">&#45;3</text>
</g>
<!-- &#45;3&#45;&gt;332 -->
<g id="edge12" class="edge">
<title>&#45;3&#45;&gt;332</title>
<path fill="none" stroke="#00ff00" stroke-width=".1669" d="M176.5766,-159.6976C180.5325,-155.0304 185.4209,-149.2708 189.8077,-144.1249 199.0462,-133.2877 209.2908,-121.3185 218.0141,-111.1409"/>
<polygon fill="#00ff00" stroke="#00ff00" stroke-width=".1669" points="220.7833,-113.2884 224.6356,-103.4187 215.4693,-108.7318 220.7833,-113.2884"/>
</g>
<!-- &#45;3&#45;&gt;333 -->
<g id="edge13" class="edge">
<title>&#45;3&#45;&gt;333</title>
<path fill="none" stroke="#ff0000" stroke-width=".4587" d="M174.9926,-159.7617C178.8043,-154.6621 184.0543,-148.4749 189.8077,-144.1249 220.5858,-120.8548 235.3525,-127.3482 268.8077,-108.1249 270.2907,-107.2728 271.7921,-106.3665 273.2918,-105.4267"/>
<polygon fill="#ff0000" stroke="#ff0000" stroke-width=".4587" points="275.3328,-108.2727 281.7227,-99.8217 271.4574,-102.4434 275.3328,-108.2727"/>
</g>
<!-- &#45;3&#45;&gt;334 -->
<g id="edge14" class="edge">
<title>&#45;3&#45;&gt;334</title>
<path fill="none" stroke="#00ff00" stroke-width=".4333" d="M174.3808,-159.8614C178.1205,-154.5342 183.5068,-148.0778 189.8077,-144.1249 243.8664,-110.2109 270.9201,-134.9859 328.8077,-108.1249 330.3592,-107.405 331.9147,-106.6032 333.4565,-105.7445"/>
<polygon fill="#00ff00" stroke="#00ff00" stroke-width=".4333" points="335.3992,-108.6576 342.0117,-100.3795 331.6802,-102.7272 335.3992,-108.6576"/>
</g>
<!-- &#45;3&#45;&gt;335 -->
<g id="edge15" class="edge">
<title>&#45;3&#45;&gt;335</title>
<path fill="none" stroke="#00ff00" stroke-width=".1597" d="M174.1957,-159.542C177.8658,-154.0946 183.2439,-147.624 189.8077,-144.1249 315.7126,-77.0063 375.4746,-158.9108 508.8077,-108.1249 510.447,-107.5005 512.0803,-106.7654 513.69,-105.9507"/>
<polygon fill="#00ff00" stroke="#00ff00" stroke-width=".1597" points="515.7664,-108.786 522.5279,-100.6292 512.1555,-102.7892 515.7664,-108.786"/>
</g>
<!-- &#45;3&#45;&gt;337 -->
<g id="edge16" class="edge">
<title>&#45;3&#45;&gt;337</title>
<path fill="none" stroke="#ff0000" stroke-width=".1004" d="M174.2278,-159.6012C177.91,-154.1761 183.2895,-147.7081 189.8077,-144.1249 291.6513,-88.1386 340.7428,-150.8864 448.8077,-108.1249 450.4389,-107.4794 452.0658,-106.7279 453.6705,-105.9005"/>
<polygon fill="#ff0000" stroke="#ff0000" stroke-width=".1004" points="455.7633,-108.7244 462.4942,-100.5424 452.13,-102.7412 455.7633,-108.7244"/>
</g>
<!-- &#45;4 -->
<g id="node4" class="node">
<title>&#45;4</title>
<polygon fill="#d3d3d3" stroke="#000000" points="453.8077,-177.8736 429.8077,-177.8736 429.8077,-159.8736 453.8077,-159.8736 453.8077,-177.8736"/>
<text text-anchor="middle" x="441.8077" y="-166.6736" font-family="Times,serif" font-size="9.00" fill="#000000">&#45;4</text>
</g>
<!-- &#45;4&#45;&gt;332 -->
<g id="edge17" class="edge">
<title>&#45;4&#45;&gt;332</title>
<path fill="none" stroke="#ff0000" stroke-width=".1215" d="M436.2635,-159.815C432.5346,-154.4703 427.1496,-148.0118 420.8077,-144.1249 361.6165,-107.8461 332.0842,-136.6879 268.8077,-108.1249 267.2489,-107.4212 265.6874,-106.6322 264.1411,-105.7835"/>
<polygon fill="#ff0000" stroke="#ff0000" stroke-width=".1215" points="265.9113,-102.7628 255.5724,-100.448 262.2112,-108.705 265.9113,-102.7628"/>
</g>
<!-- &#45;4&#45;&gt;333 -->
<g id="edge18" class="edge">
<title>&#45;4&#45;&gt;333</title>
<path fill="none" stroke="#00ff00" stroke-width=".5" d="M435.7103,-159.6428C431.9278,-154.5034 426.6778,-148.3162 420.8077,-144.1249 385.0739,-118.6103 367.4613,-128.9529 328.8077,-108.1249 327.3021,-107.3136 325.7827,-106.4395 324.269,-105.5247"/>
<polygon fill="#00ff00" stroke="#00ff00" stroke-width=".5" points="326.0838,-102.5297 315.7969,-99.9938 322.2572,-108.3912 326.0838,-102.5297"/>
</g>
<!-- &#45;4&#45;&gt;334 -->
<g id="edge19" class="edge">
<title>&#45;4&#45;&gt;334</title>
<path fill="none" stroke="#ff0000" stroke-width=".3034" d="M434.2879,-159.4724C430.3955,-154.7478 425.4887,-149.0048 420.8077,-144.1249 408.7805,-131.5862 394.5869,-118.383 382.8172,-107.8235"/>
<polygon fill="#ff0000" stroke="#ff0000" stroke-width=".3034" points="384.9123,-105.003 375.1126,-100.976 380.2622,-110.2353 384.9123,-105.003"/>
</g>
<!-- &#45;4&#45;&gt;335 -->
<g id="edge20" class="edge">
<title>&#45;4&#45;&gt;335</title>
<path fill="none" stroke="#00ff00" stroke-width=".1419" d="M448.7456,-159.7436C452.639,-154.8759 457.7249,-148.9195 462.8077,-144.1249 471.4677,-135.956 494.4769,-118.843 512.9271,-105.4504"/>
<polygon fill="#00ff00" stroke="#00ff00" stroke-width=".1419" points="515.2199,-108.1118 521.2749,-99.4177 511.1197,-102.4382 515.2199,-108.1118"/>
</g>
<!-- &#45;4&#45;&gt;336 -->
<g id="edge21" class="edge">
<title>&#45;4&#45;&gt;336</title>
<path fill="none" stroke="#ff0000" stroke-width=".2633" d="M439.2585,-159.7891C436.4076,-149.6298 431.6361,-132.6262 427.4188,-117.5977"/>
<polygon fill="#ff0000" stroke="#ff0000" stroke-width=".2633" points="430.6898,-116.2997 424.6181,-107.6173 423.9502,-118.1911 430.6898,-116.2997"/>
</g>
<!-- &#45;4&#45;&gt;337 -->
<g id="edge22" class="edge">
<title>&#45;4&#45;&gt;337</title>
<path fill="none" stroke="#ff0000" stroke-width=".3542" d="M445.9088,-159.7891C450.7078,-149.1583 458.89,-131.0332 465.8936,-115.5189"/>
<polygon fill="#ff0000" stroke="#ff0000" stroke-width=".3542" points="469.1367,-116.8413 470.0612,-106.2869 462.7567,-113.9611 469.1367,-116.8413"/>
</g>
<!-- &#45;5 -->
<g id="node5" class="node">
<title>&#45;5</title>
<polygon fill="#d3d3d3" stroke="#000000" points="495.8077,-177.8736 471.8077,-177.8736 471.8077,-159.8736 495.8077,-159.8736 495.8077,-177.8736"/>
<text text-anchor="middle" x="483.8077" y="-166.6736" font-family="Times,serif" font-size="9.00" fill="#000000">&#45;5</text>
</g>
<!-- &#45;5&#45;&gt;332 -->
<g id="edge23" class="edge">
<title>&#45;5&#45;&gt;332</title>
<path fill="none" stroke="#00ff00" stroke-width=".3448" d="M478.3293,-159.7046C474.6252,-154.3184 469.243,-147.8551 462.8077,-144.1249 386.9379,-100.1472 349.5972,-142.2326 268.8077,-108.1249 267.2321,-107.4597 265.6574,-106.7011 264.1007,-105.876"/>
<polygon fill="#00ff00" stroke="#00ff00" stroke-width=".3448" points="265.8575,-102.8477 255.5016,-100.6103 262.2019,-108.8174 265.8575,-102.8477"/>
</g>
<!-- &#45;5&#45;&gt;333 -->
<g id="edge24" class="edge">
<title>&#45;5&#45;&gt;333</title>
<path fill="none" stroke="#00ff00" stroke-width=".1186" d="M477.8772,-159.3948C474.1503,-154.1728 468.9003,-147.9856 462.8077,-144.1249 410.7179,-111.1172 384.6284,-134.334 328.8077,-108.1249 327.2596,-107.398 325.7066,-106.5906 324.1668,-105.7277"/>
<polygon fill="#00ff00" stroke="#00ff00" stroke-width=".1186" points="325.9458,-102.7119 315.6176,-100.35 322.2186,-108.6371 325.9458,-102.7119"/>
</g>
<!-- &#45;5&#45;&gt;334 -->
<g id="edge25" class="edge">
<title>&#45;5&#45;&gt;334</title>
<path fill="none" stroke="#ff0000" stroke-width=".1028" d="M477.5814,-159.8158C473.756,-154.7342 468.506,-148.547 462.8077,-144.1249 433.9136,-121.7015 420.2877,-126.7446 388.8077,-108.1249 387.3356,-107.2542 385.8428,-106.3331 384.3497,-105.3819"/>
<polygon fill="#ff0000" stroke="#ff0000" stroke-width=".1028" points="386.1937,-102.4044 375.9385,-99.7432 382.2959,-108.2188 386.1937,-102.4044"/>
</g>
<!-- &#45;5&#45;&gt;335 -->
<g id="edge26" class="edge">
<title>&#45;5&#45;&gt;335</title>
<path fill="none" stroke="#00ff00" stroke-width=".141" d="M489.9038,-159.7891C497.4082,-148.606 510.4775,-129.1298 521.2184,-113.1237"/>
<polygon fill="#00ff00" stroke="#00ff00" stroke-width=".141" points="524.2299,-114.917 526.8958,-104.6631 518.4173,-111.0165 524.2299,-114.917"/>
</g>
<!-- &#45;5&#45;&gt;336 -->
<g id="edge27" class="edge">
<title>&#45;5&#45;&gt;336</title>
<path fill="none" stroke="#ff0000" stroke-width=".3389" d="M476.6033,-159.7891C467.4835,-148.2895 451.4093,-128.0208 438.5243,-111.7733"/>
<polygon fill="#ff0000" stroke="#ff0000" stroke-width=".3389" points="441.0866,-109.3716 432.1306,-103.7112 435.602,-113.7212 441.0866,-109.3716"/>
</g>
<!-- &#45;5&#45;&gt;337 -->
<g id="edge28" class="edge">
<title>&#45;5&#45;&gt;337</title>
<path fill="none" stroke="#ff0000" stroke-width=".4561" d="M483.2536,-159.7891C482.6479,-149.8616 481.6436,-133.3987 480.7427,-118.6296"/>
<polygon fill="#ff0000" stroke="#ff0000" stroke-width=".4561" points="484.2146,-118.0607 480.112,-108.2924 477.2275,-118.487 484.2146,-118.0607"/>
</g>
<!-- &#45;6 -->
<g id="node6" class="node">
<title>&#45;6</title>
<polygon fill="#d3d3d3" stroke="#000000" points="537.8077,-177.8736 513.8077,-177.8736 513.8077,-159.8736 537.8077,-159.8736 537.8077,-177.8736"/>
<text text-anchor="middle" x="525.8077" y="-166.6736" font-family="Times,serif" font-size="9.00" fill="#000000">&#45;6</text>
</g>
<!-- &#45;6&#45;&gt;332 -->
<g id="edge29" class="edge">
<title>&#45;6&#45;&gt;332</title>
<path fill="none" stroke="#00ff00" stroke-width=".1442" stroke-dasharray="1,5" d="M520.3708,-159.6316C516.6824,-154.2179 511.3021,-147.7513 504.8077,-144.1249 412.1696,-92.3962 367.2056,-147.8179 268.8077,-108.1249 267.1809,-107.4686 265.5574,-106.7086 263.9553,-105.8746"/>
<polygon fill="#00ff00" stroke="#00ff00" stroke-width=".1442" points="265.499,-102.7166 255.1391,-100.4978 261.8542,-108.6928 265.499,-102.7166"/>
</g>
<!-- &#45;6&#45;&gt;333 -->
<g id="edge30" class="edge">
<title>&#45;6&#45;&gt;333</title>
<path fill="none" stroke="#00ff00" stroke-width=".4301" d="M520.3051,-159.7459C516.5919,-154.3753 511.2087,-147.9137 504.8077,-144.1249 436.1004,-103.4554 402.0762,-139.8496 328.8077,-108.1249 327.2382,-107.4453 325.6684,-106.6754 324.1155,-105.8415"/>
<polygon fill="#00ff00" stroke="#00ff00" stroke-width=".4301" points="325.8771,-102.8159 315.5275,-100.5496 322.2049,-108.7753 325.8771,-102.8159"/>
</g>
<!-- &#45;6&#45;&gt;334 -->
<g id="edge31" class="edge">
<title>&#45;6&#45;&gt;334</title>
<path fill="none" stroke="#ff0000" stroke-width=".4887" d="M519.8207,-159.4821C516.075,-154.2892 510.825,-148.102 504.8077,-144.1249 459.7743,-114.3598 437.2208,-132.0027 388.8077,-108.1249 387.2738,-107.3684 385.7321,-106.5376 384.2011,-105.6564"/>
<polygon fill="#ff0000" stroke="#ff0000" stroke-width=".4887" points="385.9919,-102.6474 375.6777,-100.2249 382.2301,-108.5507 385.9919,-102.6474"/>
</g>
<!-- &#45;6&#45;&gt;335 -->
<g id="edge32" class="edge">
<title>&#45;6&#45;&gt;335</title>
<path fill="none" stroke="#00ff00" stroke-width=".3492" d="M527.2486,-159.7891C528.8493,-149.6975 531.521,-132.8526 533.8929,-117.8986"/>
<polygon fill="#00ff00" stroke="#00ff00" stroke-width=".3492" points="537.3604,-118.3789 535.4702,-107.954 530.4468,-117.2823 537.3604,-118.3789"/>
</g>
<!-- &#45;6&#45;&gt;336 -->
<g id="edge33" class="edge">
<title>&#45;6&#45;&gt;336</title>
<path fill="none" stroke="#ff0000" stroke-width=".4387" d="M519.0085,-159.5911C515.1557,-154.6787 510.0644,-148.7283 504.8077,-144.1249 482.5485,-124.6317 473.3375,-124.6703 448.8077,-108.1249 447.3898,-107.1685 445.9398,-106.1797 444.48,-105.1759"/>
<polygon fill="#ff0000" stroke="#ff0000" stroke-width=".4387" points="446.3723,-102.2285 436.1671,-99.3817 442.3695,-107.9712 446.3723,-102.2285"/>
</g>
<!-- &#45;6&#45;&gt;337 -->
<g id="edge34" class="edge">
<title>&#45;6&#45;&gt;337</title>
<path fill="none" stroke="#ff0000" stroke-width=".5" stroke-dasharray="1,5" d="M520.5983,-159.7891C514.3648,-148.9186 503.6378,-130.2122 494.6129,-114.4738"/>
<polygon fill="#ff0000" stroke="#ff0000" stroke-width=".5" points="497.5534,-112.5658 489.5426,-105.6319 491.481,-116.048 497.5534,-112.5658"/>
</g>
<!-- &#45;7 -->
<g id="node7" class="node">
<title>&#45;7</title>
<polygon fill="#d3d3d3" stroke="#000000" points="579.8077,-177.8736 555.8077,-177.8736 555.8077,-159.8736 579.8077,-159.8736 579.8077,-177.8736"/>
<text text-anchor="middle" x="567.8077" y="-166.6736" font-family="Times,serif" font-size="9.00" fill="#000000">&#45;7</text>
</g>
<!-- &#45;7&#45;&gt;332 -->
<g id="edge35" class="edge">
<title>&#45;7&#45;&gt;332</title>
<path fill="none" stroke="#00ff00" stroke-width=".246" stroke-dasharray="1,5" d="M562.3994,-159.5798C558.7217,-154.1466 553.3426,-147.6777 546.8077,-144.1249 437.3511,-84.6168 384.8676,-153.4248 268.8077,-108.1249 267.1736,-107.4871 265.5444,-106.7415 263.9379,-105.9187"/>
<polygon fill="#00ff00" stroke="#00ff00" stroke-width=".246" points="265.4761,-102.7585 255.109,-100.5738 261.8509,-108.7467 265.4761,-102.7585"/>
</g>
<!-- &#45;7&#45;&gt;333 -->
<g id="edge36" class="edge">
<title>&#45;7&#45;&gt;333</title>
<path fill="none" stroke="#00ff00" stroke-width=".3651" d="M562.3551,-159.6596C558.6607,-154.2565 553.2797,-147.7911 546.8077,-144.1249 461.3638,-95.7225 419.6509,-145.4208 328.8077,-108.1249 327.185,-107.4587 325.5647,-106.6908 323.965,-105.8508"/>
<polygon fill="#00ff00" stroke="#00ff00" stroke-width=".3651" points="325.5118,-102.6939 315.1559,-100.4567 321.8563,-108.6636 325.5118,-102.6939"/>
</g>
<!-- &#45;7&#45;&gt;334 -->
<g id="edge37" class="edge">
<title>&#45;7&#45;&gt;334</title>
<path fill="none" stroke="#ff0000" stroke-width=".2195" d="M562.2751,-159.7959C558.5506,-154.4441 553.1661,-147.9848 546.8077,-144.1249 485.2419,-106.7511 454.5775,-137.4763 388.8077,-108.1249 387.2459,-107.4279 385.6821,-106.6442 384.1339,-105.7996"/>
<polygon fill="#ff0000" stroke="#ff0000" stroke-width=".2195" points="385.9017,-102.7774 375.5598,-100.4761 382.2093,-108.7244 385.9017,-102.7774"/>
</g>
<!-- &#45;7&#45;&gt;335 -->
<g id="edge38" class="edge">
<title>&#45;7&#45;&gt;335</title>
<path fill="none" stroke="#ff0000" stroke-width=".5" d="M564.5934,-159.7891C560.9159,-149.3953 554.7036,-131.8378 549.2982,-116.5606"/>
<polygon fill="#ff0000" stroke="#ff0000" stroke-width=".5" points="552.5325,-115.2085 545.8973,-106.9487 545.9334,-117.5435 552.5325,-115.2085"/>
</g>
<!-- &#45;7&#45;&gt;336 -->
<g id="edge39" class="edge">
<title>&#45;7&#45;&gt;336</title>
<path fill="none" stroke="#00ff00" stroke-width=".1737" d="M561.743,-159.5965C557.9714,-154.4417 552.7214,-148.2545 546.8077,-144.1249 508.7644,-117.5582 489.8846,-129.7068 448.8077,-108.1249 447.2937,-107.3294 445.7677,-106.4678 444.2488,-105.5628"/>
<polygon fill="#00ff00" stroke="#00ff00" stroke-width=".1737" points="446.0564,-102.5635 435.7614,-100.0606 442.2486,-108.4372 446.0564,-102.5635"/>
</g>
<!-- &#45;7&#45;&gt;337 -->
<g id="edge40" class="edge">
<title>&#45;7&#45;&gt;337</title>
<path fill="none" stroke="#00ff00" stroke-width=".3217" d="M560.7648,-159.852C556.8406,-155.016 551.7589,-149.0554 546.8077,-144.1249 533.356,-130.7292 517.1257,-116.9931 503.8956,-106.3386"/>
<polygon fill="#00ff00" stroke="#00ff00" stroke-width=".3217" points="505.6994,-103.3013 495.6941,-99.8166 501.3425,-108.7801 505.6994,-103.3013"/>
</g>
<!-- &#45;8 -->
<g id="node8" class="node">
<title>&#45;8</title>
<polygon fill="#d3d3d3" stroke="#000000" points="58.8077,-177.8736 34.8077,-177.8736 34.8077,-159.8736 58.8077,-159.8736 58.8077,-177.8736"/>
<text text-anchor="middle" x="46.8077" y="-166.6736" font-family="Times,serif" font-size="9.00" fill="#000000">&#45;8</text>
</g>
<!-- &#45;8&#45;&gt;332 -->
<g id="edge41" class="edge">
<title>&#45;8&#45;&gt;332</title>
<path fill="none" stroke="#00ff00" stroke-width=".5" d="M52.8278,-159.5315C56.5845,-154.355 61.8345,-148.1678 67.8077,-144.1249 111.46,-114.5792 171.6656,-99.1487 207.7649,-92.0472"/>
<polygon fill="#00ff00" stroke="#00ff00" stroke-width=".5" points="208.5278,-95.4652 217.7114,-90.1821 207.2376,-88.5852 208.5278,-95.4652"/>
</g>
<!-- &#45;8&#45;&gt;333 -->
<g id="edge42" class="edge">
<title>&#45;8&#45;&gt;333</title>
<path fill="none" stroke="#00ff00" stroke-width=".3468" d="M52.278,-159.6905C55.979,-154.2989 61.3608,-147.8349 67.8077,-144.1249 146.4675,-98.8581 185.0886,-143.1614 268.8077,-108.1249 270.4259,-107.4477 272.0427,-106.6712 273.6396,-105.8245"/>
<polygon fill="#00ff00" stroke="#00ff00" stroke-width=".3468" points="275.7566,-108.6315 282.4408,-100.4113 272.0893,-102.669 275.7566,-108.6315"/>
</g>
<!-- &#45;8&#45;&gt;334 -->
<g id="edge43" class="edge">
<title>&#45;8&#45;&gt;334</title>
<path fill="none" stroke="#00ff00" stroke-width=".4354" d="M52.2265,-159.5988C55.9081,-154.1728 61.2876,-147.7047 67.8077,-144.1249 170.4523,-87.7681 219.9016,-151.1534 328.8077,-108.1249 330.4392,-107.4803 332.0664,-106.7294 333.6713,-105.9025"/>
<polygon fill="#00ff00" stroke="#00ff00" stroke-width=".4354" points="335.7634,-108.7269 342.4956,-100.5459 332.131,-102.7431 335.7634,-108.7269"/>
</g>
<!-- &#45;8&#45;&gt;336 -->
<g id="edge44" class="edge">
<title>&#45;8&#45;&gt;336</title>
<path fill="none" stroke="#ff0000" stroke-width=".2852" d="M52.1949,-159.5404C55.8646,-154.0924 61.2427,-147.6217 67.8077,-144.1249 194.5155,-76.6348 254.6314,-159.1786 388.8077,-108.1249 390.4473,-107.5011 392.0807,-106.7665 393.6905,-105.9521"/>
<polygon fill="#ff0000" stroke="#ff0000" stroke-width=".2852" points="395.7665,-108.7877 402.5288,-100.6315 392.1562,-102.7905 395.7665,-108.7877"/>
</g>
<!-- &#45;8&#45;&gt;337 -->
<g id="edge45" class="edge">
<title>&#45;8&#45;&gt;337</title>
<path fill="none" stroke="#00ff00" stroke-width=".3184" d="M52.1736,-159.4999C55.8353,-154.0367 61.2124,-147.5642 67.8077,-144.1249 218.6209,-65.479 289.3165,-167.2208 448.8077,-108.1249 450.4527,-107.5154 452.0903,-106.7921 453.7034,-105.9864"/>
<polygon fill="#00ff00" stroke="#00ff00" stroke-width=".3184" points="455.7681,-108.8297 462.551,-100.6907 452.173,-102.8234 455.7681,-108.8297"/>
</g>
<!-- &#45;9 -->
<g id="node9" class="node">
<title>&#45;9</title>
<polygon fill="#d3d3d3" stroke="#000000" points="621.8077,-177.8736 597.8077,-177.8736 597.8077,-159.8736 621.8077,-159.8736 621.8077,-177.8736"/>
<text text-anchor="middle" x="609.8077" y="-166.6736" font-family="Times,serif" font-size="9.00" fill="#000000">&#45;9</text>
</g>
<!-- &#45;9&#45;&gt;332 -->
<g id="edge46" class="edge">
<title>&#45;9&#45;&gt;332</title>
<path fill="none" stroke="#ff0000" stroke-width=".5" d="M604.4202,-159.5412C600.7503,-154.0935 595.3721,-147.6228 588.8077,-144.1249 462.5014,-76.8206 402.5625,-159.0447 268.8077,-108.1249 267.1683,-107.5008 265.535,-106.766 263.9252,-105.9514"/>
<polygon fill="#ff0000" stroke="#ff0000" stroke-width=".5" points="265.4596,-102.7898 255.0872,-100.6304 261.849,-108.7868 265.4596,-102.7898"/>
</g>
<!-- &#45;9&#45;&gt;333 -->
<g id="edge47" class="edge">
<title>&#45;9&#45;&gt;333</title>
<path fill="none" stroke="#00ff00" stroke-width=".4801" d="M604.3883,-159.6C600.7064,-154.1744 595.3269,-147.7064 588.8077,-144.1249 486.5637,-87.9534 437.2933,-151.0199 328.8077,-108.1249 327.1764,-107.4799 325.5494,-106.7287 323.9446,-105.9015"/>
<polygon fill="#00ff00" stroke="#00ff00" stroke-width=".4801" points="325.485,-102.7421 315.1206,-100.5442 321.8521,-108.7257 325.485,-102.7421"/>
</g>
<!-- &#45;9&#45;&gt;334 -->
<g id="edge48" class="edge">
<title>&#45;9&#45;&gt;334</title>
<path fill="none" stroke="#00ff00" stroke-width=".4132" d="M604.3363,-159.6924C600.6349,-154.3016 595.253,-147.8377 588.8077,-144.1249 510.5466,-99.0424 472.1082,-143.0286 388.8077,-108.1249 387.1898,-107.447 385.5733,-106.6699 383.9766,-105.8228"/>
<polygon fill="#00ff00" stroke="#00ff00" stroke-width=".4132" points="385.5271,-102.6674 375.1759,-100.4084 381.8591,-108.6295 385.5271,-102.6674"/>
</g>
<!-- &#45;9&#45;&gt;335 -->
<g id="edge49" class="edge">
<title>&#45;9&#45;&gt;335</title>
<path fill="none" stroke="#00ff00" stroke-width=".1131" d="M602.0606,-159.679C598.1103,-155.007 593.2202,-149.2488 588.8077,-144.1249 579.2987,-133.0826 568.6859,-120.9166 559.6926,-110.6529"/>
<polygon fill="#00ff00" stroke="#00ff00" stroke-width=".1131" points="562.1054,-108.096 552.8794,-102.8873 556.8435,-112.7126 562.1054,-108.096"/>
</g>
<!-- &#45;9&#45;&gt;336 -->
<g id="edge50" class="edge">
<title>&#45;9&#45;&gt;336</title>
<path fill="none" stroke="#ff0000" stroke-width=".5" d="M604.2371,-159.8576C600.4983,-154.5289 595.1121,-148.0723 588.8077,-144.1249 534.355,-110.0294 507.1092,-135.1165 448.8077,-108.1249 447.2557,-107.4063 445.6996,-106.6056 444.1575,-105.7478"/>
<polygon fill="#ff0000" stroke="#ff0000" stroke-width=".5" points="445.9332,-102.7301 435.6011,-100.3852 442.2158,-108.6615 445.9332,-102.7301"/>
</g>
<!-- &#45;9&#45;&gt;337 -->
<g id="edge51" class="edge">
<title>&#45;9&#45;&gt;337</title>
<path fill="none" stroke="#ff0000" stroke-width=".5" stroke-dasharray="1,5" d="M603.6305,-159.7515C599.8215,-154.6484 594.5715,-148.4613 588.8077,-144.1249 557.6512,-120.6842 542.6599,-127.4699 508.8077,-108.1249 507.3228,-107.2763 505.8198,-106.3728 504.3188,-105.4351"/>
<polygon fill="#ff0000" stroke="#ff0000" stroke-width=".5" points="506.1515,-102.4507 495.8843,-99.8365 502.2803,-108.2829 506.1515,-102.4507"/>
</g>
<!-- &#45;10 -->
<g id="node10" class="node">
<title>&#45;10</title>
<polygon fill="#d3d3d3" stroke="#000000" points="669.3077,-177.8736 640.3077,-177.8736 640.3077,-159.8736 669.3077,-159.8736 669.3077,-177.8736"/>
<text text-anchor="middle" x="654.8077" y="-166.6736" font-family="Times,serif" font-size="9.00" fill="#000000">&#45;10</text>
</g>
<!-- &#45;10&#45;&gt;332 -->
<g id="edge52" class="edge">
<title>&#45;10&#45;&gt;332</title>
<path fill="none" stroke="#ff0000" stroke-width=".4641" stroke-dasharray="1,5" d="M648.3774,-159.4976C644.0804,-154.0334 637.9219,-147.5609 630.8077,-144.1249 485.2169,-73.8075 420.2791,-164.6728 268.8077,-108.1249 267.1643,-107.5114 265.5278,-106.7849 263.9157,-105.9767"/>
<polygon fill="#ff0000" stroke="#ff0000" stroke-width=".4641" points="265.4472,-102.8141 255.0707,-100.6741 261.8478,-108.8179 265.4472,-102.8141"/>
</g>
<!-- &#45;10&#45;&gt;333 -->
<g id="edge53" class="edge">
<title>&#45;10&#45;&gt;333</title>
<path fill="none" stroke="#00ff00" stroke-width=".149" d="M648.3535,-159.5463C644.0476,-154.1005 637.888,-147.6302 630.8077,-144.1249 509.6681,-84.1516 454.9758,-156.635 328.8077,-108.1249 327.1704,-107.4954 325.5387,-106.7563 323.9302,-105.9385"/>
<polygon fill="#00ff00" stroke="#00ff00" stroke-width=".149" points="325.4661,-102.7775 315.0957,-100.608 321.8497,-108.771 325.4661,-102.7775"/>
</g>
<!-- &#45;10&#45;&gt;334 -->
<g id="edge54" class="edge">
<title>&#45;10&#45;&gt;334</title>
<path fill="none" stroke="#00ff00" stroke-width=".4069" d="M648.3172,-159.6184C643.9976,-154.1997 637.8364,-147.7326 630.8077,-144.1249 534.0679,-94.4701 489.7261,-148.6178 388.8077,-108.1249 387.1797,-107.4717 385.5553,-106.714 383.9524,-105.8818"/>
<polygon fill="#00ff00" stroke="#00ff00" stroke-width=".4069" points="385.4952,-102.7234 375.1341,-100.5102 381.8536,-108.7016 385.4952,-102.7234"/>
</g>
<!-- &#45;10&#45;&gt;335 -->
<g id="edge55" class="edge">
<title>&#45;10&#45;&gt;335</title>
<path fill="none" stroke="#ff0000" stroke-width=".3349" d="M646.8537,-159.6349C642.3967,-154.7353 636.5853,-148.7832 630.8077,-144.1249 610.6408,-127.8648 585.5441,-112.5403 566.6595,-101.8512"/>
<polygon fill="#ff0000" stroke="#ff0000" stroke-width=".3349" points="568.1133,-98.6547 557.6736,-96.8482 564.7081,-104.7707 568.1133,-98.6547"/>
</g>
<!-- &#45;10&#45;&gt;336 -->
<g id="edge56" class="edge">
<title>&#45;10&#45;&gt;336</title>
<path fill="none" stroke="#00ff00" stroke-width=".4571" d="M648.2554,-159.7354C643.9125,-154.3608 637.7485,-147.8988 630.8077,-144.1249 558.3675,-104.7368 524.581,-140.643 448.8077,-108.1249 447.236,-107.4504 445.6644,-106.6845 444.1102,-105.8537"/>
<polygon fill="#00ff00" stroke="#00ff00" stroke-width=".4571" points="445.8701,-102.8271 435.5182,-100.5711 442.2038,-108.7902 445.8701,-102.8271"/>
</g>
<!-- &#45;10&#45;&gt;337 -->
<g id="edge57" class="edge">
<title>&#45;10&#45;&gt;337</title>
<path fill="none" stroke="#00ff00" stroke-width=".3655" d="M647.7245,-159.4723C643.3635,-154.2761 637.3635,-148.089 630.8077,-144.1249 582.4306,-114.8726 559.6835,-132.7766 508.8077,-108.1249 507.2686,-107.3791 505.7227,-106.5568 504.1885,-105.6823"/>
<polygon fill="#00ff00" stroke="#00ff00" stroke-width=".3655" points="505.9749,-102.6707 495.6556,-100.2703 502.2257,-108.582 505.9749,-102.6707"/>
</g>
<!-- &#45;11 -->
<g id="node11" class="node">
<title>&#45;11</title>
<polygon fill="#d3d3d3" stroke="#000000" points="712.3077,-247.6224 683.3077,-247.6224 683.3077,-229.6224 712.3077,-229.6224 712.3077,-247.6224"/>
<text text-anchor="middle" x="697.8077" y="-236.4224" font-family="Times,serif" font-size="9.00" fill="#000000">&#45;11</text>
</g>
<!-- &#45;11&#45;&gt;332 -->
<g id="edge58" class="edge">
<title>&#45;11&#45;&gt;332</title>
<path fill="none" stroke="#ff0000" stroke-width=".415" d="M683.06,-238.222C585.3639,-235.5003 34.6311,-219.0572 10.8077,-193.6224 -4.2309,-177.5665 -2.723,-161.4705 10.8077,-144.1249 34.8607,-113.2904 150.6811,-96.5583 207.3895,-90.0947"/>
<polygon fill="#ff0000" stroke="#ff0000" stroke-width=".415" points="208.0205,-93.5464 217.5769,-88.9719 207.2536,-86.5885 208.0205,-93.5464"/>
</g>
<!-- &#45;11&#45;&gt;333 -->
<g id="edge59" class="edge">
<title>&#45;11&#45;&gt;333</title>
<path fill="none" stroke="#00ff00" stroke-width=".5" d="M683.0728,-238.2002C586.662,-235.3689 49.0701,-218.4945 25.8077,-193.6224 10.7808,-177.5555 11.4371,-160.7813 25.8077,-144.1249 61.4678,-102.7926 218.1385,-128.438 268.8077,-108.1249 270.436,-107.4721 272.0606,-106.7148 273.6635,-105.883"/>
<polygon fill="#00ff00" stroke="#00ff00" stroke-width=".5" points="275.7619,-108.7031 282.4822,-100.5122 272.1209,-102.7245 275.7619,-108.7031"/>
</g>
<!-- &#45;11&#45;&gt;334 -->
<g id="edge60" class="edge">
<title>&#45;11&#45;&gt;334</title>
<path fill="none" stroke="#ff0000" stroke-width=".4028" d="M683.0804,-237.9761C597.4212,-234.148 166.5139,-213.9215 147.8077,-193.6224 132.8999,-177.445 133.8517,-161.1301 147.8077,-144.1249 199.8413,-80.7229 253.4521,-140.5107 328.8077,-108.1249 330.3791,-107.4496 331.9504,-106.683 333.5044,-105.8517"/>
<polygon fill="#ff0000" stroke="#ff0000" stroke-width=".4028" points="335.4115,-108.7878 342.0957,-100.5676 331.7442,-102.8253 335.4115,-108.7878"/>
</g>
<!-- &#45;11&#45;&gt;335 -->
<g id="edge61" class="edge">
<title>&#45;11&#45;&gt;335</title>
<path fill="none" stroke="#00ff00" stroke-width=".5" stroke-dasharray="1,5" d="M712.5841,-235.5153C742.7639,-228.838 809.7441,-212.2096 822.8077,-193.6224 835.4574,-175.6241 836.7429,-161.1473 822.8077,-144.1249 791.1292,-105.4281 637.2949,-92.3271 570.202,-88.4067"/>
<polygon fill="#00ff00" stroke="#00ff00" stroke-width=".5" points="570.3889,-84.9118 560.2108,-87.8538 570.0021,-91.9011 570.3889,-84.9118"/>
</g>
<!-- &#45;11&#45;&gt;336 -->
<g id="edge62" class="edge">
<title>&#45;11&#45;&gt;336</title>
<path fill="none" stroke="#00ff00" stroke-width=".4643" d="M699.0391,-229.5115C701.0332,-210.5947 702.6159,-166.9272 678.8077,-144.1249 604.0841,-72.5584 544.6862,-147.0184 448.8077,-108.1249 447.1822,-107.4655 445.5597,-106.703 443.9584,-105.8671"/>
<polygon fill="#00ff00" stroke="#00ff00" stroke-width=".4643" points="445.5031,-102.7094 435.1444,-100.4848 441.8549,-108.6836 445.5031,-102.7094"/>
</g>
<!-- &#45;11&#45;&gt;337 -->
<g id="edge63" class="edge">
<title>&#45;11&#45;&gt;337</title>
<path fill="none" stroke="#ff0000" stroke-width=".1967" d="M703.1957,-229.5882C713.3899,-211.1949 732.6902,-169.0365 711.8077,-144.1249 652.9436,-73.9034 593.3643,-143.4269 508.8077,-108.1249 507.189,-107.4491 505.5718,-106.6736 503.9745,-105.8278"/>
<polygon fill="#ff0000" stroke="#ff0000" stroke-width=".1967" points="505.5243,-102.6721 495.1723,-100.417 501.8586,-108.6356 505.5243,-102.6721"/>
</g>
<!-- 2319 -->
<g id="node24" class="node">
<title>2319</title>
<ellipse fill="#ffffff" stroke="#000000" cx="788.8077" cy="-168.8736" rx="25" ry="25"/>
<text text-anchor="middle" x="788.8077" y="-166.6736" font-family="Times,serif" font-size="9.00" fill="#000000">2319</text>
</g>
<!-- &#45;11&#45;&gt;2319 -->
<g id="edge100" class="edge">
<title>&#45;11&#45;&gt;2319</title>
<path fill="none" stroke="#ff0000" stroke-width=".5" d="M709.7044,-229.5039C722.6219,-219.6031 743.7035,-203.4446 760.856,-190.2978"/>
<polygon fill="#ff0000" stroke="#ff0000" stroke-width=".5" points="763.1001,-192.9877 768.9077,-184.1264 758.8417,-187.4319 763.1001,-192.9877"/>
</g>
<!-- &#45;12 -->
<g id="node12" class="node">
<title>&#45;12</title>
<polygon fill="#d3d3d3" stroke="#000000" points="228.3077,-177.8736 199.3077,-177.8736 199.3077,-159.8736 228.3077,-159.8736 228.3077,-177.8736"/>
<text text-anchor="middle" x="213.8077" y="-166.6736" font-family="Times,serif" font-size="9.00" fill="#000000">&#45;12</text>
</g>
<!-- &#45;12&#45;&gt;332 -->
<g id="edge64" class="edge">
<title>&#45;12&#45;&gt;332</title>
<path fill="none" stroke="#00ff00" stroke-width=".416" d="M216.5787,-159.7891C219.7281,-149.4637 225.034,-132.0685 229.6722,-116.8624"/>
<polygon fill="#00ff00" stroke="#00ff00" stroke-width=".416" points="233.0245,-117.8683 232.5943,-107.2822 226.329,-115.826 233.0245,-117.8683"/>
</g>
<!-- &#45;12&#45;&gt;333 -->
<g id="edge65" class="edge">
<title>&#45;12&#45;&gt;333</title>
<path fill="none" stroke="#00ff00" stroke-width=".3374" d="M222.163,-159.5473C226.4565,-154.8418 231.8218,-149.0933 236.8077,-144.1249 249.115,-131.8609 263.3291,-118.6779 275.0402,-108.0608"/>
<polygon fill="#00ff00" stroke="#00ff00" stroke-width=".3374" points="277.6084,-110.4579 282.6938,-101.1633 272.9221,-105.258 277.6084,-110.4579"/>
</g>
<!-- &#45;12&#45;&gt;334 -->
<g id="edge66" class="edge">
<title>&#45;12&#45;&gt;334</title>
<path fill="none" stroke="#ff0000" stroke-width=".5" stroke-dasharray="1,5" d="M220.6523,-159.6671C224.8505,-154.5359 230.6005,-148.3487 236.8077,-144.1249 273.1084,-119.4234 290.1542,-128.9529 328.8077,-108.1249 330.3134,-107.3136 331.8328,-106.4395 333.3464,-105.5247"/>
<polygon fill="#ff0000" stroke="#ff0000" stroke-width=".5" points="335.3583,-108.3912 341.8185,-99.9938 331.5316,-102.5297 335.3583,-108.3912"/>
</g>
<!-- &#45;12&#45;&gt;335 -->
<g id="edge67" class="edge">
<title>&#45;12&#45;&gt;335</title>
<path fill="none" stroke="#ff0000" stroke-width=".5" d="M219.9269,-159.5802C224.0286,-154.1472 229.9286,-147.6783 236.8077,-144.1249 345.1505,-88.1609 395.2734,-152.6229 508.8077,-108.1249 510.441,-107.4848 512.0695,-106.7374 513.6755,-105.9132"/>
<polygon fill="#ff0000" stroke="#ff0000" stroke-width=".5" points="515.7642,-108.74 522.5028,-100.5643 512.1366,-102.7533 515.7642,-108.74"/>
</g>
<!-- &#45;12&#45;&gt;336 -->
<g id="edge68" class="edge">
<title>&#45;12&#45;&gt;336</title>
<path fill="none" stroke="#ff0000" stroke-width=".2059" stroke-dasharray="1,5" d="M220.0593,-159.8213C224.2108,-154.4791 230.1167,-148.0209 236.8077,-144.1249 296.8028,-109.1915 325.5313,-136.6879 388.8077,-108.1249 390.3666,-107.4212 391.928,-106.6322 393.4744,-105.7835"/>
<polygon fill="#ff0000" stroke="#ff0000" stroke-width=".2059" points="395.4043,-108.705 402.043,-100.448 391.7042,-102.7628 395.4043,-108.705"/>
</g>
<!-- &#45;12&#45;&gt;337 -->
<g id="edge69" class="edge">
<title>&#45;12&#45;&gt;337</title>
<path fill="none" stroke="#ff0000" stroke-width=".3818" d="M219.9735,-159.6684C224.0928,-154.2686 229.9948,-147.8036 236.8077,-144.1249 320.9025,-98.7167 360.4803,-144.6228 448.8077,-108.1249 450.429,-107.455 452.0481,-106.6842 453.6468,-105.842"/>
<polygon fill="#ff0000" stroke="#ff0000" stroke-width=".3818" points="455.7583,-108.6529 462.4533,-100.4414 452.0989,-102.6855 455.7583,-108.6529"/>
</g>
<!-- &#45;13 -->
<g id="node13" class="node">
<title>&#45;13</title>
<polygon fill="#d3d3d3" stroke="#000000" points="275.3077,-177.8736 246.3077,-177.8736 246.3077,-159.8736 275.3077,-159.8736 275.3077,-177.8736"/>
<text text-anchor="middle" x="260.8077" y="-166.6736" font-family="Times,serif" font-size="9.00" fill="#000000">&#45;13</text>
</g>
<!-- &#45;13&#45;&gt;332 -->
<g id="edge70" class="edge">
<title>&#45;13&#45;&gt;332</title>
<path fill="none" stroke="#00ff00" stroke-width=".3309" d="M258.3693,-159.7891C255.6424,-149.6298 251.0783,-132.6262 247.0444,-117.5977"/>
<polygon fill="#00ff00" stroke="#00ff00" stroke-width=".3309" points="250.3383,-116.3681 244.3655,-107.6173 243.5776,-118.1828 250.3383,-116.3681"/>
</g>
<!-- &#45;13&#45;&gt;333 -->
<g id="edge71" class="edge">
<title>&#45;13&#45;&gt;333</title>
<path fill="none" stroke="#00ff00" stroke-width=".1657" d="M265.0196,-159.7891C269.9484,-149.1583 278.3517,-131.0332 285.5446,-115.5189"/>
<polygon fill="#00ff00" stroke="#00ff00" stroke-width=".1657" points="288.7939,-116.8314 289.8248,-106.2869 282.4432,-113.887 288.7939,-116.8314"/>
</g>
<!-- &#45;13&#45;&gt;334 -->
<g id="edge72" class="edge">
<title>&#45;13&#45;&gt;334</title>
<path fill="none" stroke="#ff0000" stroke-width=".2449" d="M268.9568,-159.8646C273.4709,-155.0322 279.2746,-149.0711 284.8077,-144.1249 300.2924,-130.2826 318.7753,-115.991 333.3956,-105.1542"/>
<polygon fill="#ff0000" stroke="#ff0000" stroke-width=".2449" points="335.5145,-107.9406 341.5056,-99.2023 331.3729,-102.2972 335.5145,-107.9406"/>
</g>
<!-- &#45;13&#45;&gt;335 -->
<g id="edge73" class="edge">
<title>&#45;13&#45;&gt;335</title>
<path fill="none" stroke="#ff0000" stroke-width=".5" d="M267.3132,-159.6472C271.6384,-154.2394 277.8003,-147.7735 284.8077,-144.1249 374.2437,-97.5575 415.4476,-146.2193 508.8077,-108.1249 510.4319,-107.4622 512.0534,-106.697 513.6539,-105.8591"/>
<polygon fill="#ff0000" stroke="#ff0000" stroke-width=".5" points="515.7599,-108.6739 522.4655,-100.4711 512.1082,-102.7018 515.7599,-108.6739"/>
</g>
<!-- &#45;13&#45;&gt;336 -->
<g id="edge74" class="edge">
<title>&#45;13&#45;&gt;336</title>
<path fill="none" stroke="#ff0000" stroke-width=".1805" d="M267.9611,-159.5853C272.3455,-154.4268 278.3455,-148.2397 284.8077,-144.1249 326.0667,-117.8535 345.2954,-130.467 388.8077,-108.1249 390.3292,-107.3437 391.8611,-106.4934 393.3845,-105.5971"/>
<polygon fill="#ff0000" stroke="#ff0000" stroke-width=".1805" points="395.3742,-108.4787 401.8853,-100.1208 391.5832,-102.5941 395.3742,-108.4787"/>
</g>
<!-- &#45;13&#45;&gt;337 -->
<g id="edge75" class="edge">
<title>&#45;13&#45;&gt;337</title>
<path fill="none" stroke="#ff0000" stroke-width=".5" d="M267.388,-159.7861C271.7414,-154.4305 277.9066,-147.9708 284.8077,-144.1249 349.9932,-107.7979 380.5414,-138.2661 448.8077,-108.1249 450.3724,-107.4341 451.9383,-106.6553 453.4882,-105.8145"/>
<polygon fill="#ff0000" stroke="#ff0000" stroke-width=".5" points="455.4078,-108.7425 462.0673,-100.5023 451.7226,-102.7911 455.4078,-108.7425"/>
</g>
<!-- &#45;14 -->
<g id="node14" class="node">
<title>&#45;14</title>
<polygon fill="#d3d3d3" stroke="#000000" points="322.3077,-177.8736 293.3077,-177.8736 293.3077,-159.8736 322.3077,-159.8736 322.3077,-177.8736"/>
<text text-anchor="middle" x="307.8077" y="-166.6736" font-family="Times,serif" font-size="9.00" fill="#000000">&#45;14</text>
</g>
<!-- &#45;14&#45;&gt;332 -->
<g id="edge76" class="edge">
<title>&#45;14&#45;&gt;332</title>
<path fill="none" stroke="#ff0000" stroke-width=".1714" stroke-dasharray="1,5" d="M300.1599,-159.7891C290.4192,-148.2185 273.2047,-127.7702 259.4847,-111.4729"/>
<polygon fill="#ff0000" stroke="#ff0000" stroke-width=".1714" points="261.8044,-108.7938 252.6866,-103.3978 256.4494,-113.302 261.8044,-108.7938"/>
</g>
<!-- &#45;14&#45;&gt;333 -->
<g id="edge77" class="edge">
<title>&#45;14&#45;&gt;333</title>
<path fill="none" stroke="#00ff00" stroke-width=".1808" d="M306.8102,-159.7891C305.7201,-149.8616 303.9123,-133.3987 302.2906,-118.6296"/>
<polygon fill="#00ff00" stroke="#00ff00" stroke-width=".1808" points="305.7262,-117.8506 301.1555,-108.2924 298.768,-118.6147 305.7262,-117.8506"/>
</g>
<!-- &#45;14&#45;&gt;334 -->
<g id="edge78" class="edge">
<title>&#45;14&#45;&gt;334</title>
<path fill="none" stroke="#00ff00" stroke-width=".2011" d="M313.4605,-159.7891C320.3113,-148.7793 332.1637,-129.7312 342.0332,-113.87"/>
<polygon fill="#00ff00" stroke="#00ff00" stroke-width=".2011" points="345.2508,-115.3238 347.5623,-104.9842 339.3075,-111.6256 345.2508,-115.3238"/>
</g>
<!-- &#45;14&#45;&gt;335 -->
<g id="edge79" class="edge">
<title>&#45;14&#45;&gt;335</title>
<path fill="none" stroke="#ff0000" stroke-width=".4383" d="M314.3673,-159.7485C318.7129,-154.3789 324.8771,-147.9174 331.8077,-144.1249 402.2306,-105.5883 435.122,-139.9817 508.8077,-108.1249 510.3776,-107.4462 511.9478,-106.6769 513.5009,-105.8435"/>
<polygon fill="#ff0000" stroke="#ff0000" stroke-width=".4383" points="515.4108,-108.7779 522.0896,-100.5533 511.7396,-102.8178 515.4108,-108.7779"/>
</g>
<!-- &#45;14&#45;&gt;336 -->
<g id="edge80" class="edge">
<title>&#45;14&#45;&gt;336</title>
<path fill="none" stroke="#ff0000" stroke-width=".4112" d="M315.7748,-159.6509C320.2355,-154.756 326.0464,-148.8033 331.8077,-144.1249 355.0677,-125.237 363.9003,-124.7801 388.8077,-108.1249 390.2295,-107.1742 391.6825,-106.1899 393.1447,-105.1896"/>
<polygon fill="#ff0000" stroke="#ff0000" stroke-width=".4112" points="395.2515,-107.9876 401.4645,-99.4057 391.2558,-102.24 395.2515,-107.9876"/>
</g>
<!-- &#45;14&#45;&gt;337 -->
<g id="edge81" class="edge">
<title>&#45;14&#45;&gt;337</title>
<path fill="none" stroke="#ff0000" stroke-width=".4519" d="M314.9082,-159.5007C319.275,-154.314 325.275,-148.1268 331.8077,-144.1249 378.2007,-115.7049 399.9847,-132.1314 448.8077,-108.1249 450.3426,-107.3702 451.885,-106.5409 453.4166,-105.6609"/>
<polygon fill="#ff0000" stroke="#ff0000" stroke-width=".4519" points="455.3862,-108.5561 461.9416,-100.2328 451.6265,-102.6514 455.3862,-108.5561"/>
</g>
<!-- &#45;15 -->
<g id="node15" class="node">
<title>&#45;15</title>
<polygon fill="#d3d3d3" stroke="#000000" points="369.3077,-177.8736 340.3077,-177.8736 340.3077,-159.8736 369.3077,-159.8736 369.3077,-177.8736"/>
<text text-anchor="middle" x="354.8077" y="-166.6736" font-family="Times,serif" font-size="9.00" fill="#000000">&#45;15</text>
</g>
<!-- &#45;15&#45;&gt;332 -->
<g id="edge82" class="edge">
<title>&#45;15&#45;&gt;332</title>
<path fill="none" stroke="#ff0000" stroke-width=".1242" d="M347.314,-159.5246C343.0805,-154.5926 337.5062,-148.6448 331.8077,-144.1249 306.5418,-124.0841 296.0049,-125.4545 268.8077,-108.1249 267.3653,-107.2058 265.896,-106.2466 264.4211,-105.2656"/>
<polygon fill="#ff0000" stroke="#ff0000" stroke-width=".1242" points="266.2915,-102.3044 256.0638,-99.5391 262.3347,-108.0788 266.2915,-102.3044"/>
</g>
<!-- &#45;15&#45;&gt;333 -->
<g id="edge83" class="edge">
<title>&#45;15&#45;&gt;333</title>
<path fill="none" stroke="#00ff00" stroke-width=".4249" d="M348.6008,-159.7891C340.96,-148.606 327.653,-129.1298 316.7169,-113.1237"/>
<polygon fill="#00ff00" stroke="#00ff00" stroke-width=".4249" points="319.4676,-110.9454 310.9363,-104.6631 313.6878,-114.8944 319.4676,-110.9454"/>
</g>
<!-- &#45;15&#45;&gt;334 -->
<g id="edge84" class="edge">
<title>&#45;15&#45;&gt;334</title>
<path fill="none" stroke="#ff0000" stroke-width=".3706" d="M355.2511,-159.7891C355.7356,-149.8616 356.539,-133.3987 357.2598,-118.6296"/>
<polygon fill="#ff0000" stroke="#ff0000" stroke-width=".3706" points="360.7726,-118.4511 357.7643,-108.2924 353.7809,-118.1098 360.7726,-118.4511"/>
</g>
<!-- &#45;15&#45;&gt;335 -->
<g id="edge85" class="edge">
<title>&#45;15&#45;&gt;335</title>
<path fill="none" stroke="#00ff00" stroke-width=".5" d="M361.8662,-159.4309C366.219,-154.221 372.219,-148.0338 378.8077,-144.1249 430.3689,-113.5353 454.638,-133.8136 508.8077,-108.1249 510.3531,-107.392 511.9039,-106.58 513.4419,-105.7134"/>
<polygon fill="#00ff00" stroke="#00ff00" stroke-width=".5" points="515.3947,-108.6198 521.9861,-100.3249 511.6606,-102.6989 515.3947,-108.6198"/>
</g>
<!-- &#45;15&#45;&gt;336 -->
<g id="edge86" class="edge">
<title>&#45;15&#45;&gt;336</title>
<path fill="none" stroke="#00ff00" stroke-width=".2174" d="M361.9014,-159.7891C370.8808,-148.2895 386.7077,-128.0208 399.3946,-111.7733"/>
<polygon fill="#00ff00" stroke="#00ff00" stroke-width=".2174" points="402.294,-113.7471 405.6899,-103.7112 396.7767,-109.4389 402.294,-113.7471"/>
</g>
<!-- &#45;15&#45;&gt;337 -->
<g id="edge87" class="edge">
<title>&#45;15&#45;&gt;337</title>
<path fill="none" stroke="#ff0000" stroke-width=".4048" d="M362.6146,-159.4445C367.0283,-154.4891 372.8455,-148.5444 378.8077,-144.1249 406.9127,-123.2919 418.8962,-126.2687 448.8077,-108.1249 450.2701,-107.2379 451.7552,-106.3039 453.2423,-105.3427"/>
<polygon fill="#ff0000" stroke="#ff0000" stroke-width=".4048" points="455.3073,-108.1715 461.6357,-99.6744 451.3897,-102.3704 455.3073,-108.1715"/>
</g>
<!-- 0 -->
<g id="node16" class="node">
<title>0</title>
<ellipse fill="#add8e6" stroke="#000000" cx="364.8077" cy="-14.8492" rx="14.7" ry="14.7"/>
<text text-anchor="middle" x="364.8077" y="-12.6492" font-family="Times,serif" font-size="9.00" fill="#000000">0</text>
</g>
<!-- 1 -->
<g id="node17" class="node">
<title>1</title>
<ellipse fill="#add8e6" stroke="#000000" cx="415.8077" cy="-14.8492" rx="14.7" ry="14.7"/>
<text text-anchor="middle" x="415.8077" y="-12.6492" font-family="Times,serif" font-size="9.00" fill="#000000">1</text>
</g>
<!-- 332&#45;&gt;0 -->
<g id="edge88" class="edge">
<title>332&#45;&gt;0</title>
<path fill="none" stroke="#00ff00" stroke-width=".5" stroke-dasharray="1,5" d="M256.0025,-74.1863C260.1287,-71.292 264.5694,-68.3046 268.8077,-65.6985 293.1347,-50.7401 322.2691,-35.6875 342.0133,-25.8852"/>
<polygon fill="#00ff00" stroke="#00ff00" stroke-width=".5" points="343.7194,-28.9465 351.148,-21.3923 340.6299,-22.6652 343.7194,-28.9465"/>
</g>
<!-- 332&#45;&gt;1 -->
<g id="edge89" class="edge">
<title>332&#45;&gt;1</title>
<path fill="none" stroke="#00ff00" stroke-width=".3067" d="M255.6627,-73.5678C259.8029,-70.699 264.3351,-67.8782 268.8077,-65.6985 318.8618,-41.3051 337.4597,-51.2351 388.8077,-29.6985 390.4357,-29.0157 392.0927,-28.2621 393.744,-27.4675"/>
<polygon fill="#00ff00" stroke="#00ff00" stroke-width=".3067" points="395.6656,-30.4121 402.9007,-22.6723 392.4181,-24.211 395.6656,-30.4121"/>
</g>
<!-- 333&#45;&gt;0 -->
<g id="edge90" class="edge">
<title>333&#45;&gt;0</title>
<path fill="none" stroke="#ff0000" stroke-width=".4146" d="M313.4553,-70.9187C323.5761,-59.8682 337.0738,-45.1307 347.691,-33.5382"/>
<polygon fill="#ff0000" stroke="#ff0000" stroke-width=".4146" points="350.3313,-35.8375 354.5043,-26.0991 345.1691,-31.1097 350.3313,-35.8375"/>
</g>
<!-- 333&#45;&gt;1 -->
<g id="edge91" class="edge">
<title>333&#45;&gt;1</title>
<path fill="none" stroke="#ff0000" stroke-width=".2358" d="M316.0829,-74.314C320.2058,-71.4144 324.6248,-68.3927 328.8077,-65.6985 350.4011,-51.7907 375.8406,-37.1111 393.613,-27.1191"/>
<polygon fill="#ff0000" stroke="#ff0000" stroke-width=".2358" points="395.6015,-30.0174 402.6247,-22.0848 392.1876,-23.9063 395.6015,-30.0174"/>
</g>
<!-- 334&#45;&gt;0 -->
<g id="edge92" class="edge">
<title>334&#45;&gt;0</title>
<path fill="none" stroke="#00ff00" stroke-width=".5" d="M360.5755,-65.6803C361.2463,-57.6235 362.0166,-48.3716 362.7146,-39.9882"/>
<polygon fill="#00ff00" stroke="#00ff00" stroke-width=".5" points="366.2053,-40.2448 363.5472,-29.9888 359.2294,-39.6639 366.2053,-40.2448"/>
</g>
<!-- 334&#45;&gt;1 -->
<g id="edge93" class="edge">
<title>334&#45;&gt;1</title>
<path fill="none" stroke="#ff0000" stroke-width=".2046" d="M372.028,-70.198C380.4143,-59.5956 391.3066,-45.8249 400.1286,-34.6717"/>
<polygon fill="#ff0000" stroke="#ff0000" stroke-width=".2046" points="402.9367,-36.7633 406.3954,-26.7489 397.4465,-32.4207 402.9367,-36.7633"/>
</g>
<!-- 335&#45;&gt;0 -->
<g id="edge94" class="edge">
<title>335&#45;&gt;0</title>
<path fill="none" stroke="#ff0000" stroke-width=".299" d="M521.9416,-73.5906C517.8019,-70.7208 513.2727,-67.8939 508.8077,-65.6985 459.9847,-41.692 441.9049,-50.9182 391.8077,-29.6985 390.1822,-29.0099 388.527,-28.2522 386.877,-27.4544"/>
<polygon fill="#ff0000" stroke="#ff0000" stroke-width=".299" points="388.2045,-24.1986 377.7231,-22.6528 384.9529,-30.3975 388.2045,-24.1986"/>
</g>
<!-- 335&#45;&gt;1 -->
<g id="edge95" class="edge">
<title>335&#45;&gt;1</title>
<path fill="none" stroke="#ff0000" stroke-width=".2869" d="M521.5878,-74.2269C517.4627,-71.3309 513.0288,-68.3326 508.8077,-65.6985 485.4104,-51.0973 457.5332,-36.164 438.441,-26.292"/>
<polygon fill="#ff0000" stroke="#ff0000" stroke-width=".2869" points="439.8234,-23.0677 429.328,-21.6195 436.6296,-29.2966 439.8234,-23.0677"/>
</g>
<!-- 336&#45;&gt;0 -->
<g id="edge96" class="edge">
<title>336&#45;&gt;0</title>
<path fill="none" stroke="#00ff00" stroke-width=".4583" d="M406.0105,-69.8339C398.2338,-59.456 388.2596,-46.1455 380.0727,-35.2201"/>
<polygon fill="#00ff00" stroke="#00ff00" stroke-width=".4583" points="382.7638,-32.9748 373.9662,-27.0711 377.162,-37.1725 382.7638,-32.9748"/>
</g>
<!-- 336&#45;&gt;1 -->
<g id="edge97" class="edge">
<title>336&#45;&gt;1</title>
<path fill="none" stroke="#ff0000" stroke-width=".1431" d="M417.9239,-65.6803C417.5885,-57.6235 417.2033,-48.3716 416.8543,-39.9882"/>
<polygon fill="#ff0000" stroke="#ff0000" stroke-width=".1431" points="420.351,-39.8346 416.438,-29.9888 413.3571,-40.1258 420.351,-39.8346"/>
</g>
<!-- 337&#45;&gt;0 -->
<g id="edge98" class="edge">
<title>337&#45;&gt;0</title>
<path fill="none" stroke="#00ff00" stroke-width=".5" d="M461.5023,-74.3606C457.3807,-71.4591 452.9698,-68.4248 448.8077,-65.6985 427.9923,-52.0635 403.6046,-37.4457 386.4858,-27.3987"/>
<polygon fill="#00ff00" stroke="#00ff00" stroke-width=".5" points="388.1925,-24.3424 377.792,-22.3226 384.663,-30.3874 388.1925,-24.3424"/>
</g>
<!-- 337&#45;&gt;1 -->
<g id="edge99" class="edge">
<title>337&#45;&gt;1</title>
<path fill="none" stroke="#ff0000" stroke-width=".4452" d="M464.826,-70.9187C455.2581,-59.9745 442.5285,-45.4137 432.4395,-33.8735"/>
<polygon fill="#ff0000" stroke="#ff0000" stroke-width=".4452" points="434.8597,-31.3241 425.6428,-26.0991 429.5897,-35.9314 434.8597,-31.3241"/>
</g>
<!-- 2319&#45;&gt;335 -->
<g id="edge101" class="edge">
<title>2319&#45;&gt;335</title>
<path fill="none" stroke="#ff0000" stroke-width=".2418" d="M768.4031,-154.3069C762.5904,-150.6118 756.1184,-146.9062 749.8077,-144.1249 688.6539,-117.1722 611.8049,-100.2297 569.7816,-92.278"/>
<polygon fill="#ff0000" stroke="#ff0000" stroke-width=".2418" points="570.3481,-88.8235 559.8787,-90.4494 569.077,-95.7071 570.3481,-88.8235"/>
</g>
</g>
</svg>
