<?xml version="1.0" encoding="UTF-8" standalone="no"?>
<!DOCTYPE svg PUBLIC "-//W3C//DTD SVG 1.1//EN"
 "http://www.w3.org/Graphics/SVG/1.1/DTD/svg11.dtd">
<!-- Generated by graphviz version 2.40.1 (20161225.0304)
 -->
<!-- Title: %3 Pages: 1 -->
<svg width="772pt" height="263pt"
 viewBox="0.00 0.00 772.46 262.69" xmlns="http://www.w3.org/2000/svg" xmlns:xlink="http://www.w3.org/1999/xlink">
<g id="graph0" class="graph" transform="scale(1 1) rotate(0) translate(4 258.6934)">
<title>%3</title>
<polygon fill="#ffffff" stroke="transparent" points="-4,4 -4,-258.6934 768.4567,-258.6934 768.4567,4 -4,4"/>
<!-- &#45;1 -->
<g id="node1" class="node">
<title>&#45;1</title>
<polygon fill="#d3d3d3" stroke="#000000" points="473.708,-184.9447 449.708,-184.9447 449.708,-166.9447 473.708,-166.9447 473.708,-184.9447"/>
<text text-anchor="middle" x="461.708" y="-173.7447" font-family="Times,serif" font-size="9.00" fill="#000000">&#45;1</text>
</g>
<!-- 1064 -->
<g id="node18" class="node">
<title>1064</title>
<ellipse fill="#ffffff" stroke="#000000" cx="528.708" cy="-90.4472" rx="25" ry="25"/>
<text text-anchor="middle" x="528.708" y="-88.2472" font-family="Times,serif" font-size="9.00" fill="#000000">1064</text>
</g>
<!-- &#45;1&#45;&gt;1064 -->
<g id="edge1" class="edge">
<title>&#45;1&#45;&gt;1064</title>
<path fill="none" stroke="#00ff00" stroke-width=".3151" d="M468.8782,-166.795C477.9296,-155.2446 493.9087,-134.8539 507.0775,-118.0495"/>
<polygon fill="#00ff00" stroke="#00ff00" stroke-width=".3151" points="509.8604,-120.1725 513.2738,-110.1426 504.3507,-115.8548 509.8604,-120.1725"/>
</g>
<!-- 1065 -->
<g id="node19" class="node">
<title>1065</title>
<ellipse fill="#ffffff" stroke="#000000" cx="394.708" cy="-90.4472" rx="25" ry="25"/>
<text text-anchor="middle" x="394.708" y="-88.2472" font-family="Times,serif" font-size="9.00" fill="#000000">1065</text>
</g>
<!-- &#45;1&#45;&gt;1065 -->
<g id="edge2" class="edge">
<title>&#45;1&#45;&gt;1065</title>
<path fill="none" stroke="#ff0000" stroke-width=".5" d="M454.5378,-166.795C445.4864,-155.2446 429.5072,-134.8539 416.3385,-118.0495"/>
<polygon fill="#ff0000" stroke="#ff0000" stroke-width=".5" points="419.0653,-115.8548 410.1422,-110.1426 413.5555,-120.1725 419.0653,-115.8548"/>
</g>
<!-- 1066 -->
<g id="node20" class="node">
<title>1066</title>
<ellipse fill="#ffffff" stroke="#000000" cx="327.708" cy="-90.4472" rx="25" ry="25"/>
<text text-anchor="middle" x="327.708" y="-88.2472" font-family="Times,serif" font-size="9.00" fill="#000000">1066</text>
</g>
<!-- &#45;1&#45;&gt;1066 -->
<g id="edge3" class="edge">
<title>&#45;1&#45;&gt;1066</title>
<path fill="none" stroke="#00ff00" stroke-width=".1223" d="M455.5308,-166.8226C451.7217,-161.7195 446.4717,-155.5323 440.708,-151.196 409.5515,-127.7552 394.286,-135.0129 360.708,-115.196 358.9966,-114.1859 357.2684,-113.104 355.5472,-111.9778"/>
<polygon fill="#00ff00" stroke="#00ff00" stroke-width=".1223" points="357.3166,-108.9449 347.1098,-106.1036 353.3169,-114.6898 357.3166,-108.9449"/>
</g>
<!-- 1068 -->
<g id="node21" class="node">
<title>1068</title>
<ellipse fill="#ffffff" stroke="#000000" cx="461.708" cy="-90.4472" rx="25" ry="25"/>
<text text-anchor="middle" x="461.708" y="-88.2472" font-family="Times,serif" font-size="9.00" fill="#000000">1068</text>
</g>
<!-- &#45;1&#45;&gt;1068 -->
<g id="edge4" class="edge">
<title>&#45;1&#45;&gt;1068</title>
<path fill="none" stroke="#00ff00" stroke-width=".4316" d="M461.708,-166.795C461.708,-156.9247 461.708,-140.5987 461.708,-125.5717"/>
<polygon fill="#00ff00" stroke="#00ff00" stroke-width=".4316" points="465.2081,-125.4712 461.708,-115.4712 458.2081,-125.4712 465.2081,-125.4712"/>
</g>
<!-- &#45;2 -->
<g id="node2" class="node">
<title>&#45;2</title>
<polygon fill="#d3d3d3" stroke="#000000" points="515.708,-184.9447 491.708,-184.9447 491.708,-166.9447 515.708,-166.9447 515.708,-184.9447"/>
<text text-anchor="middle" x="503.708" y="-173.7447" font-family="Times,serif" font-size="9.00" fill="#000000">&#45;2</text>
</g>
<!-- &#45;2&#45;&gt;1064 -->
<g id="edge5" class="edge">
<title>&#45;2&#45;&gt;1064</title>
<path fill="none" stroke="#00ff00" stroke-width=".1141" d="M506.3834,-166.795C509.3593,-156.6178 514.3421,-139.5771 518.8461,-124.1738"/>
<polygon fill="#00ff00" stroke="#00ff00" stroke-width=".1141" points="522.2636,-124.9571 521.7109,-114.3767 515.5449,-122.9925 522.2636,-124.9571"/>
</g>
<!-- &#45;2&#45;&gt;1065 -->
<g id="edge6" class="edge">
<title>&#45;2&#45;&gt;1065</title>
<path fill="none" stroke="#ff0000" stroke-width=".4857" stroke-dasharray="1,5" d="M496.8936,-166.6794C493.0363,-161.772 487.9457,-155.821 482.708,-151.196 460.8087,-131.8582 451.6287,-131.9688 427.708,-115.196 426.0809,-114.055 424.4187,-112.8707 422.7483,-111.6657"/>
<polygon fill="#ff0000" stroke="#ff0000" stroke-width=".4857" points="424.5831,-108.6707 414.4507,-105.5744 420.4407,-114.3135 424.5831,-108.6707"/>
</g>
<!-- &#45;2&#45;&gt;1066 -->
<g id="edge7" class="edge">
<title>&#45;2&#45;&gt;1066</title>
<path fill="none" stroke="#ff0000" stroke-width=".3595" d="M497.7417,-166.5216C494.0029,-161.3181 488.7529,-155.1309 482.708,-151.196 435.3285,-120.3539 411.2337,-140.5574 360.708,-115.196 358.9319,-114.3045 357.1531,-113.3154 355.3931,-112.2605"/>
<polygon fill="#ff0000" stroke="#ff0000" stroke-width=".3595" points="357.1145,-109.2021 346.8485,-106.5829 353.2404,-115.0324 357.1145,-109.2021"/>
</g>
<!-- &#45;2&#45;&gt;1068 -->
<g id="edge8" class="edge">
<title>&#45;2&#45;&gt;1068</title>
<path fill="none" stroke="#ff0000" stroke-width=".5" d="M499.2133,-166.795C493.977,-156.1358 485.0423,-137.9478 477.2068,-121.9975"/>
<polygon fill="#ff0000" stroke="#ff0000" stroke-width=".5" points="480.3074,-120.3709 472.7567,-112.9386 474.0245,-123.4573 480.3074,-120.3709"/>
</g>
<!-- &#45;3 -->
<g id="node3" class="node">
<title>&#45;3</title>
<polygon fill="#d3d3d3" stroke="#000000" points="557.708,-184.9447 533.708,-184.9447 533.708,-166.9447 557.708,-166.9447 557.708,-184.9447"/>
<text text-anchor="middle" x="545.708" y="-173.7447" font-family="Times,serif" font-size="9.00" fill="#000000">&#45;3</text>
</g>
<!-- &#45;3&#45;&gt;1064 -->
<g id="edge9" class="edge">
<title>&#45;3&#45;&gt;1064</title>
<path fill="none" stroke="#00ff00" stroke-width=".5" d="M543.8887,-166.795C541.8983,-156.7847 538.5876,-140.1343 535.565,-124.9331"/>
<polygon fill="#00ff00" stroke="#00ff00" stroke-width=".5" points="538.9214,-123.8655 533.5383,-114.7401 532.0558,-125.2307 538.9214,-123.8655"/>
</g>
<!-- &#45;3&#45;&gt;1065 -->
<g id="edge10" class="edge">
<title>&#45;3&#45;&gt;1065</title>
<path fill="none" stroke="#00ff00" stroke-width=".1616" d="M539.638,-166.6749C535.8647,-161.5226 530.6147,-155.3354 524.708,-151.196 487.0504,-124.8052 468.0758,-137.2189 427.708,-115.196 425.9635,-114.2442 424.2094,-113.208 422.4683,-112.1168"/>
<polygon fill="#00ff00" stroke="#00ff00" stroke-width=".1616" points="424.2128,-109.0705 413.976,-106.3393 420.2753,-114.8581 424.2128,-109.0705"/>
</g>
<!-- &#45;3&#45;&gt;1066 -->
<g id="edge11" class="edge">
<title>&#45;3&#45;&gt;1066</title>
<path fill="none" stroke="#00ff00" stroke-width=".1342" d="M540.1861,-166.8492C536.4657,-161.4906 531.0816,-155.0306 524.708,-151.196 460.7643,-112.7252 428.5458,-146.2898 360.708,-115.196 358.9015,-114.3679 357.0988,-113.4286 355.3204,-112.4118"/>
<polygon fill="#00ff00" stroke="#00ff00" stroke-width=".1342" points="357.0202,-109.3427 346.7253,-106.8395 353.2122,-115.2163 357.0202,-109.3427"/>
</g>
<!-- &#45;3&#45;&gt;1068 -->
<g id="edge12" class="edge">
<title>&#45;3&#45;&gt;1068</title>
<path fill="none" stroke="#ff0000" stroke-width=".2106" d="M538.1426,-166.5867C534.2385,-161.8731 529.3351,-156.127 524.708,-151.196 512.853,-138.5623 499.0603,-125.1312 487.4078,-114.1193"/>
<polygon fill="#ff0000" stroke="#ff0000" stroke-width=".2106" points="489.7892,-111.5543 480.1015,-107.265 484.9999,-116.6595 489.7892,-111.5543"/>
</g>
<!-- &#45;4 -->
<g id="node4" class="node">
<title>&#45;4</title>
<polygon fill="#d3d3d3" stroke="#000000" points="599.708,-184.9447 575.708,-184.9447 575.708,-166.9447 599.708,-166.9447 599.708,-184.9447"/>
<text text-anchor="middle" x="587.708" y="-173.7447" font-family="Times,serif" font-size="9.00" fill="#000000">&#45;4</text>
</g>
<!-- &#45;4&#45;&gt;1064 -->
<g id="edge13" class="edge">
<title>&#45;4&#45;&gt;1064</title>
<path fill="none" stroke="#00ff00" stroke-width=".4143" d="M581.394,-166.795C573.597,-155.4964 559.9626,-135.7385 548.5174,-119.1532"/>
<polygon fill="#00ff00" stroke="#00ff00" stroke-width=".4143" points="551.3348,-117.0736 542.7744,-110.8309 545.5734,-121.0494 551.3348,-117.0736"/>
</g>
<!-- &#45;4&#45;&gt;1065 -->
<g id="edge14" class="edge">
<title>&#45;4&#45;&gt;1065</title>
<path fill="none" stroke="#ff0000" stroke-width=".292" d="M582.135,-166.9325C578.3953,-161.6053 573.0089,-155.1489 566.708,-151.196 512.6493,-117.282 485.214,-142.8647 427.708,-115.196 425.9172,-114.3343 424.1269,-113.3687 422.3581,-112.3318"/>
<polygon fill="#ff0000" stroke="#ff0000" stroke-width=".292" points="424.0689,-109.268 413.7891,-106.7038 420.2261,-115.119 424.0689,-109.268"/>
</g>
<!-- &#45;4&#45;&gt;1066 -->
<g id="edge15" class="edge">
<title>&#45;4&#45;&gt;1066</title>
<path fill="none" stroke="#00ff00" stroke-width=".288" d="M582.2432,-166.752C578.5443,-161.3568 573.1627,-154.8924 566.708,-151.196 486.0541,-105.0076 446.013,-152.0942 360.708,-115.196 358.884,-114.407 357.0678,-113.4983 355.2789,-112.5051"/>
<polygon fill="#00ff00" stroke="#00ff00" stroke-width=".288" points="356.9667,-109.4301 346.6549,-106.9976 353.1991,-115.3297 356.9667,-109.4301"/>
</g>
<!-- &#45;4&#45;&gt;1068 -->
<g id="edge16" class="edge">
<title>&#45;4&#45;&gt;1068</title>
<path fill="none" stroke="#00ff00" stroke-width=".1551" d="M581.4636,-166.9101C577.6321,-161.8362 572.3821,-155.649 566.708,-151.196 538.5633,-129.1081 525.142,-134.0047 494.708,-115.196 493.0175,-114.1512 491.3058,-113.0422 489.5972,-111.895"/>
<polygon fill="#00ff00" stroke="#00ff00" stroke-width=".1551" points="491.3826,-108.8711 481.1946,-105.9633 487.3455,-114.5898 491.3826,-108.8711"/>
</g>
<!-- &#45;5 -->
<g id="node5" class="node">
<title>&#45;5</title>
<polygon fill="#d3d3d3" stroke="#000000" points="641.708,-184.9447 617.708,-184.9447 617.708,-166.9447 641.708,-166.9447 641.708,-184.9447"/>
<text text-anchor="middle" x="629.708" y="-173.7447" font-family="Times,serif" font-size="9.00" fill="#000000">&#45;5</text>
</g>
<!-- &#45;5&#45;&gt;1064 -->
<g id="edge17" class="edge">
<title>&#45;5&#45;&gt;1064</title>
<path fill="none" stroke="#00ff00" stroke-width=".3108" d="M622.7621,-166.8231C618.8664,-161.9579 613.7808,-156.0012 608.708,-151.196 592.8976,-136.2197 573.4762,-121.3994 557.7287,-110.1464"/>
<polygon fill="#00ff00" stroke="#00ff00" stroke-width=".3108" points="559.5954,-107.1802 549.4043,-104.2834 555.5646,-112.9032 559.5954,-107.1802"/>
</g>
<!-- &#45;5&#45;&gt;1065 -->
<g id="edge18" class="edge">
<title>&#45;5&#45;&gt;1065</title>
<path fill="none" stroke="#00ff00" stroke-width=".4156" d="M624.2126,-166.8048C620.5021,-161.4295 615.1192,-154.9674 608.708,-151.196 538.0129,-109.6086 502.6029,-148.6334 427.708,-115.196 425.8934,-114.3858 424.0844,-113.4605 422.3011,-112.4545"/>
<polygon fill="#00ff00" stroke="#00ff00" stroke-width=".4156" points="423.9953,-109.3826 413.6926,-106.9119 420.2058,-115.2682 423.9953,-109.3826"/>
</g>
<!-- &#45;5&#45;&gt;1066 -->
<g id="edge19" class="edge">
<title>&#45;5&#45;&gt;1066</title>
<path fill="none" stroke="#ff0000" stroke-width=".1127" d="M624.2803,-166.6861C620.5953,-161.2662 615.2154,-154.7989 608.708,-151.196 511.2686,-97.2468 463.5597,-157.9331 360.708,-115.196 358.8233,-114.4128 356.9492,-113.4973 355.1067,-112.4886"/>
<polygon fill="#ff0000" stroke="#ff0000" stroke-width=".1127" points="356.5698,-109.2708 346.2552,-106.85 352.8088,-115.1747 356.5698,-109.2708"/>
</g>
<!-- &#45;5&#45;&gt;1068 -->
<g id="edge20" class="edge">
<title>&#45;5&#45;&gt;1068</title>
<path fill="none" stroke="#ff0000" stroke-width=".1404" d="M623.7135,-166.5644C619.9654,-161.3752 614.7154,-155.188 608.708,-151.196 564.455,-121.7888 541.9666,-139.4805 494.708,-115.196 492.9404,-114.2877 491.1683,-113.2855 489.4134,-112.2205"/>
<polygon fill="#ff0000" stroke="#ff0000" stroke-width=".1404" points="491.141,-109.1652 480.8829,-106.5151 487.2493,-114.9838 491.141,-109.1652"/>
</g>
<!-- &#45;6 -->
<g id="node6" class="node">
<title>&#45;6</title>
<polygon fill="#d3d3d3" stroke="#000000" points="108.708,-254.6934 84.708,-254.6934 84.708,-236.6934 108.708,-236.6934 108.708,-254.6934"/>
<text text-anchor="middle" x="96.708" y="-243.4934" font-family="Times,serif" font-size="9.00" fill="#000000">&#45;6</text>
</g>
<!-- &#45;6&#45;&gt;1064 -->
<g id="edge21" class="edge">
<title>&#45;6&#45;&gt;1064</title>
<path fill="none" stroke="#00ff00" stroke-width=".4092" d="M108.783,-245.3302C196.3154,-242.6405 730.786,-225.2391 753.708,-200.6934 768.7227,-184.6152 767.0834,-168.6616 753.708,-151.196 730.6646,-121.1059 620.8541,-102.5229 563.6084,-94.7193"/>
<polygon fill="#00ff00" stroke="#00ff00" stroke-width=".4092" points="563.9373,-91.2324 553.5639,-93.3873 563.017,-98.1716 563.9373,-91.2324"/>
</g>
<!-- &#45;6&#45;&gt;1065 -->
<g id="edge22" class="edge">
<title>&#45;6&#45;&gt;1065</title>
<path fill="none" stroke="#00ff00" stroke-width=".5" d="M95.4586,-236.5636C93.4304,-217.611 91.7866,-173.8795 115.708,-151.196 195.8888,-75.1642 259.6931,-157.6546 361.708,-115.196 363.5923,-114.4117 365.466,-113.4954 367.3082,-112.486"/>
<polygon fill="#00ff00" stroke="#00ff00" stroke-width=".5" points="369.6068,-115.1715 376.159,-106.8457 365.8448,-109.2683 369.6068,-115.1715"/>
</g>
<!-- &#45;6&#45;&gt;1066 -->
<g id="edge23" class="edge">
<title>&#45;6&#45;&gt;1066</title>
<path fill="none" stroke="#ff0000" stroke-width=".3975" d="M84.4393,-243.5002C64.6274,-239.2245 26.1519,-227.7122 9.708,-200.6934 -1.7291,-181.9013 -4.3124,-168.1482 9.708,-151.196 45.3017,-108.159 217.2624,-95.3317 292.4244,-91.7463"/>
<polygon fill="#ff0000" stroke="#ff0000" stroke-width=".3975" points="292.9506,-95.2263 302.7838,-91.2818 292.637,-88.2333 292.9506,-95.2263"/>
</g>
<!-- &#45;6&#45;&gt;1068 -->
<g id="edge24" class="edge">
<title>&#45;6&#45;&gt;1068</title>
<path fill="none" stroke="#ff0000" stroke-width=".4739" d="M108.9827,-245.2984C195.6447,-242.4518 712.5173,-224.5045 734.708,-200.6934 749.7063,-184.5999 749.0635,-167.8654 734.708,-151.196 699.5156,-110.331 544.4606,-136.0075 494.708,-115.196 492.8251,-114.4083 490.9525,-113.4894 489.1111,-112.478"/>
<polygon fill="#ff0000" stroke="#ff0000" stroke-width=".4739" points="490.5754,-109.2606 480.2626,-106.8323 486.8102,-115.1617 490.5754,-109.2606"/>
</g>
<!-- 2584 -->
<g id="node22" class="node">
<title>2584</title>
<ellipse fill="#ffffff" stroke="#000000" cx="43.708" cy="-175.9447" rx="25" ry="25"/>
<text text-anchor="middle" x="43.708" y="-173.7447" font-family="Times,serif" font-size="9.00" fill="#000000">2584</text>
</g>
<!-- &#45;6&#45;&gt;2584 -->
<g id="edge69" class="edge">
<title>&#45;6&#45;&gt;2584</title>
<path fill="none" stroke="#ff0000" stroke-width=".1171" d="M89.7792,-236.575C83.5023,-228.3145 73.9154,-215.6981 65.1092,-204.109"/>
<polygon fill="#ff0000" stroke="#ff0000" stroke-width=".1171" points="67.7304,-201.7735 58.8934,-195.929 62.1569,-206.0087 67.7304,-201.7735"/>
</g>
<!-- &#45;7 -->
<g id="node7" class="node">
<title>&#45;7</title>
<polygon fill="#d3d3d3" stroke="#000000" points="683.708,-184.9447 659.708,-184.9447 659.708,-166.9447 683.708,-166.9447 683.708,-184.9447"/>
<text text-anchor="middle" x="671.708" y="-173.7447" font-family="Times,serif" font-size="9.00" fill="#000000">&#45;7</text>
</g>
<!-- &#45;7&#45;&gt;1064 -->
<g id="edge25" class="edge">
<title>&#45;7&#45;&gt;1064</title>
<path fill="none" stroke="#ff0000" stroke-width=".1038" d="M665.4663,-166.9066C661.6358,-161.8315 656.3858,-155.6443 650.708,-151.196 623.4573,-129.846 587.5059,-113.0573 561.7,-102.5897"/>
<polygon fill="#ff0000" stroke="#ff0000" stroke-width=".1038" points="562.9322,-99.3133 552.3457,-98.8911 560.3583,-105.8229 562.9322,-99.3133"/>
</g>
<!-- &#45;7&#45;&gt;1065 -->
<g id="edge26" class="edge">
<title>&#45;7&#45;&gt;1065</title>
<path fill="none" stroke="#ff0000" stroke-width=".1333" d="M666.26,-166.7225C662.5673,-161.3162 657.1865,-154.8505 650.708,-151.196 563.2667,-101.8701 520.1081,-154.4545 427.708,-115.196 425.879,-114.4189 424.0587,-113.5194 422.2668,-112.5333"/>
<polygon fill="#ff0000" stroke="#ff0000" stroke-width=".1333" points="423.9512,-109.4567 413.6344,-107.0455 420.1957,-115.3641 423.9512,-109.4567"/>
</g>
<!-- &#45;7&#45;&gt;1066 -->
<g id="edge27" class="edge">
<title>&#45;7&#45;&gt;1066</title>
<path fill="none" stroke="#00ff00" stroke-width=".1051" d="M666.3062,-166.6387C662.631,-161.201 657.2522,-154.7315 650.708,-151.196 536.4397,-89.4618 481.1524,-163.7913 360.708,-115.196 358.8153,-114.4323 356.935,-113.532 355.0878,-112.5348"/>
<polygon fill="#00ff00" stroke="#00ff00" stroke-width=".1051" points="356.5458,-109.3156 346.2237,-106.9271 352.8033,-115.2312 356.5458,-109.3156"/>
</g>
<!-- &#45;7&#45;&gt;1068 -->
<g id="edge28" class="edge">
<title>&#45;7&#45;&gt;1068</title>
<path fill="none" stroke="#00ff00" stroke-width=".2226" d="M666.1716,-166.8732C662.4457,-161.5237 657.061,-155.0646 650.708,-151.196 589.934,-114.1873 559.2327,-145.1905 494.708,-115.196 492.9059,-114.3583 491.1068,-113.4114 489.3311,-112.3888"/>
<polygon fill="#00ff00" stroke="#00ff00" stroke-width=".2226" points="491.034,-109.3211 480.7433,-106.8005 487.216,-115.1883 491.034,-109.3211"/>
</g>
<!-- &#45;8 -->
<g id="node8" class="node">
<title>&#45;8</title>
<polygon fill="#d3d3d3" stroke="#000000" points="725.708,-184.9447 701.708,-184.9447 701.708,-166.9447 725.708,-166.9447 725.708,-184.9447"/>
<text text-anchor="middle" x="713.708" y="-173.7447" font-family="Times,serif" font-size="9.00" fill="#000000">&#45;8</text>
</g>
<!-- &#45;8&#45;&gt;1064 -->
<g id="edge29" class="edge">
<title>&#45;8&#45;&gt;1064</title>
<path fill="none" stroke="#00ff00" stroke-width=".1948" d="M707.639,-166.6735C703.866,-161.5208 698.616,-155.3336 692.708,-151.196 652.5295,-123.0574 597.7496,-106.2406 562.798,-97.662"/>
<polygon fill="#00ff00" stroke="#00ff00" stroke-width=".1948" points="563.5973,-94.2546 553.0602,-95.3594 561.9864,-101.0667 563.5973,-94.2546"/>
</g>
<!-- &#45;8&#45;&gt;1065 -->
<g id="edge30" class="edge">
<title>&#45;8&#45;&gt;1065</title>
<path fill="none" stroke="#ff0000" stroke-width=".3257" d="M708.2918,-166.6652C704.6111,-161.2374 699.2318,-154.7691 692.708,-151.196 588.4611,-94.098 537.6762,-160.3025 427.708,-115.196 425.8197,-114.4214 423.9428,-113.5126 422.0983,-112.509"/>
<polygon fill="#ff0000" stroke="#ff0000" stroke-width=".3257" points="423.5591,-109.2906 413.2412,-106.884 419.8063,-115.1996 423.5591,-109.2906"/>
</g>
<!-- &#45;8&#45;&gt;1066 -->
<g id="edge31" class="edge">
<title>&#45;8&#45;&gt;1066</title>
<path fill="none" stroke="#ff0000" stroke-width=".2027" d="M708.3254,-166.603C704.6573,-161.1517 699.2794,-154.6807 692.708,-151.196 561.5834,-81.662 498.7739,-169.6611 360.708,-115.196 358.8094,-114.447 356.9245,-113.5581 355.0739,-112.5696"/>
<polygon fill="#ff0000" stroke="#ff0000" stroke-width=".2027" points="356.5282,-109.3494 346.2005,-106.9852 352.7997,-115.2738 356.5282,-109.3494"/>
</g>
<!-- &#45;8&#45;&gt;1068 -->
<g id="edge32" class="edge">
<title>&#45;8&#45;&gt;1068</title>
<path fill="none" stroke="#00ff00" stroke-width=".3838" stroke-dasharray="1,5" d="M708.2343,-166.7675C704.532,-161.3782 699.15,-154.9145 692.708,-151.196 615.2442,-106.4818 576.6783,-150.9852 494.708,-115.196 492.8868,-114.4008 491.0726,-113.4872 489.2854,-112.4902"/>
<polygon fill="#00ff00" stroke="#00ff00" stroke-width=".3838" points="490.975,-109.4161 480.6658,-106.9724 487.201,-115.3116 490.975,-109.4161"/>
</g>
<!-- &#45;9 -->
<g id="node9" class="node">
<title>&#45;9</title>
<polygon fill="#d3d3d3" stroke="#000000" points="148.708,-184.9447 124.708,-184.9447 124.708,-166.9447 148.708,-166.9447 148.708,-184.9447"/>
<text text-anchor="middle" x="136.708" y="-173.7447" font-family="Times,serif" font-size="9.00" fill="#000000">&#45;9</text>
</g>
<!-- &#45;9&#45;&gt;1064 -->
<g id="edge33" class="edge">
<title>&#45;9&#45;&gt;1064</title>
<path fill="none" stroke="#ff0000" stroke-width=".2694" d="M142.0883,-166.5986C145.7555,-161.1457 151.1333,-154.6745 157.708,-151.196 291.2423,-80.5468 355.123,-170.5003 495.708,-115.196 497.6073,-114.4488 499.4927,-113.5613 501.3438,-112.5739"/>
<polygon fill="#ff0000" stroke="#ff0000" stroke-width=".2694" points="503.6168,-115.279 510.2183,-106.9923 499.89,-109.3536 503.6168,-115.279"/>
</g>
<!-- &#45;9&#45;&gt;1065 -->
<g id="edge34" class="edge">
<title>&#45;9&#45;&gt;1065</title>
<path fill="none" stroke="#ff0000" stroke-width=".3659" d="M142.1749,-166.7557C145.8747,-161.362 151.2564,-154.8978 157.708,-151.196 237.5641,-105.3763 277.2369,-151.8168 361.708,-115.196 363.5313,-114.4055 365.3471,-113.4956 367.1355,-112.5015"/>
<polygon fill="#ff0000" stroke="#ff0000" stroke-width=".3659" points="369.2164,-115.3253 375.7585,-106.9915 365.4473,-109.4267 369.2164,-115.3253"/>
</g>
<!-- &#45;9&#45;&gt;1066 -->
<g id="edge35" class="edge">
<title>&#45;9&#45;&gt;1066</title>
<path fill="none" stroke="#ff0000" stroke-width=".2167" d="M142.7591,-166.6479C146.5262,-161.4866 151.7762,-155.2994 157.708,-151.196 199.7007,-122.1467 257.0957,-105.4678 293.2819,-97.1794"/>
<polygon fill="#ff0000" stroke="#ff0000" stroke-width=".2167" points="294.3282,-100.533 303.3427,-94.9663 292.8243,-93.6964 294.3282,-100.533"/>
</g>
<!-- &#45;9&#45;&gt;1068 -->
<g id="edge36" class="edge">
<title>&#45;9&#45;&gt;1068</title>
<path fill="none" stroke="#00ff00" stroke-width=".2919" d="M142.1205,-166.6584C145.7997,-161.2281 151.179,-154.7595 157.708,-151.196 264.359,-92.9858 316.2266,-161.1394 428.708,-115.196 430.5974,-114.4242 432.4752,-113.5176 434.3204,-112.5156"/>
<polygon fill="#00ff00" stroke="#00ff00" stroke-width=".2919" points="436.6105,-115.2077 443.1793,-106.8951 432.8604,-109.297 436.6105,-115.2077"/>
</g>
<!-- &#45;10 -->
<g id="node10" class="node">
<title>&#45;10</title>
<polygon fill="#d3d3d3" stroke="#000000" points="196.208,-184.9447 167.208,-184.9447 167.208,-166.9447 196.208,-166.9447 196.208,-184.9447"/>
<text text-anchor="middle" x="181.708" y="-173.7447" font-family="Times,serif" font-size="9.00" fill="#000000">&#45;10</text>
</g>
<!-- &#45;10&#45;&gt;1064 -->
<g id="edge37" class="edge">
<title>&#45;10&#45;&gt;1064</title>
<path fill="none" stroke="#00ff00" stroke-width=".3703" d="M187.8166,-166.6307C191.9143,-161.1899 197.8138,-154.7201 204.708,-151.196 320.7459,-91.8806 374.8444,-163.9309 495.708,-115.196 497.6009,-114.4327 499.4813,-113.5327 501.3286,-112.5357"/>
<polygon fill="#00ff00" stroke="#00ff00" stroke-width=".3703" points="503.6128,-115.2324 510.193,-106.9287 499.8707,-109.3165 503.6128,-115.2324"/>
</g>
<!-- &#45;10&#45;&gt;1065 -->
<g id="edge38" class="edge">
<title>&#45;10&#45;&gt;1065</title>
<path fill="none" stroke="#00ff00" stroke-width=".2375" d="M187.9498,-166.8755C192.0976,-161.5269 198.0031,-155.068 204.708,-151.196 266.7018,-115.3951 296.7695,-145.3278 361.708,-115.196 363.5107,-114.3595 365.3103,-113.4136 367.0863,-112.3918"/>
<polygon fill="#00ff00" stroke="#00ff00" stroke-width=".2375" points="369.2005,-115.1919 375.675,-106.8056 365.3838,-109.3239 369.2005,-115.1919"/>
</g>
<!-- &#45;10&#45;&gt;1066 -->
<g id="edge39" class="edge">
<title>&#45;10&#45;&gt;1066</title>
<path fill="none" stroke="#ff0000" stroke-width=".5" d="M188.6927,-166.9348C192.9375,-161.8692 198.6875,-155.682 204.708,-151.196 232.6498,-130.3757 268.8289,-113.5112 294.7032,-102.8815"/>
<polygon fill="#ff0000" stroke="#ff0000" stroke-width=".5" points="296.1009,-106.0919 304.0765,-99.1176 293.4924,-99.596 296.1009,-106.0919"/>
</g>
<!-- &#45;10&#45;&gt;1068 -->
<g id="edge40" class="edge">
<title>&#45;10&#45;&gt;1068</title>
<path fill="none" stroke="#00ff00" stroke-width=".2845" stroke-dasharray="1,5" d="M187.8624,-166.7182C191.9773,-161.3104 197.8789,-154.8445 204.708,-151.196 293.6441,-103.6809 335.8902,-154.5935 428.708,-115.196 430.5373,-114.4195 432.3578,-113.5206 434.1498,-112.5348"/>
<polygon fill="#00ff00" stroke="#00ff00" stroke-width=".2845" points="436.2204,-115.366 442.7827,-107.0481 432.4656,-109.4582 436.2204,-115.366"/>
</g>
<!-- &#45;11 -->
<g id="node11" class="node">
<title>&#45;11</title>
<polygon fill="#d3d3d3" stroke="#000000" points="243.208,-184.9447 214.208,-184.9447 214.208,-166.9447 243.208,-166.9447 243.208,-184.9447"/>
<text text-anchor="middle" x="228.708" y="-173.7447" font-family="Times,serif" font-size="9.00" fill="#000000">&#45;11</text>
</g>
<!-- &#45;11&#45;&gt;1064 -->
<g id="edge41" class="edge">
<title>&#45;11&#45;&gt;1064</title>
<path fill="none" stroke="#00ff00" stroke-width=".3526" d="M234.846,-166.6873C238.9547,-161.2678 244.8555,-154.8005 251.708,-151.196 348.7232,-100.1642 394.5297,-157.376 495.708,-115.196 497.5918,-114.4106 499.4652,-113.4934 501.3071,-112.4834"/>
<polygon fill="#00ff00" stroke="#00ff00" stroke-width=".3526" points="503.6065,-115.1683 510.1571,-106.8413 499.8434,-109.2658 503.6065,-115.1683"/>
</g>
<!-- &#45;11&#45;&gt;1065 -->
<g id="edge42" class="edge">
<title>&#45;11&#45;&gt;1065</title>
<path fill="none" stroke="#00ff00" stroke-width=".3475" d="M235.4646,-166.605C239.6335,-161.4293 245.3835,-155.2421 251.708,-151.196 295.0395,-123.474 316.0777,-138.9447 361.708,-115.196 363.4708,-114.2785 365.2392,-113.2691 366.9912,-112.1986"/>
<polygon fill="#00ff00" stroke="#00ff00" stroke-width=".3475" points="369.1615,-114.9572 375.5139,-106.4779 365.2602,-109.1451 369.1615,-114.9572"/>
</g>
<!-- &#45;11&#45;&gt;1066 -->
<g id="edge43" class="edge">
<title>&#45;11&#45;&gt;1066</title>
<path fill="none" stroke="#ff0000" stroke-width=".3429" d="M236.4949,-166.9371C240.8142,-162.1052 246.3771,-156.144 251.708,-151.196 266.818,-137.1712 284.7945,-122.7116 299.47,-111.4193"/>
<polygon fill="#ff0000" stroke="#ff0000" stroke-width=".3429" points="301.8483,-114.0076 307.6827,-105.1639 297.6067,-108.4389 301.8483,-114.0076"/>
</g>
<!-- &#45;11&#45;&gt;1068 -->
<g id="edge44" class="edge">
<title>&#45;11&#45;&gt;1068</title>
<path fill="none" stroke="#ff0000" stroke-width=".412" d="M234.9164,-166.8169C239.0517,-161.4462 244.9557,-154.9847 251.708,-151.196 321.7174,-111.9133 355.4754,-148.0811 428.708,-115.196 430.5209,-114.3819 432.3285,-113.4535 434.1107,-112.4451"/>
<polygon fill="#ff0000" stroke="#ff0000" stroke-width=".412" points="436.2088,-115.2568 442.7163,-106.896 432.4153,-109.3738 436.2088,-115.2568"/>
</g>
<!-- &#45;12 -->
<g id="node12" class="node">
<title>&#45;12</title>
<polygon fill="#d3d3d3" stroke="#000000" points="290.208,-184.9447 261.208,-184.9447 261.208,-166.9447 290.208,-166.9447 290.208,-184.9447"/>
<text text-anchor="middle" x="275.708" y="-173.7447" font-family="Times,serif" font-size="9.00" fill="#000000">&#45;12</text>
</g>
<!-- &#45;12&#45;&gt;1064 -->
<g id="edge45" class="edge">
<title>&#45;12&#45;&gt;1064</title>
<path fill="none" stroke="#ff0000" stroke-width=".2239" d="M282.2424,-166.7731C286.5785,-161.386 292.7417,-154.9225 299.708,-151.196 377.8045,-109.4195 414.5709,-150.7082 495.708,-115.196 497.5285,-114.3991 499.3421,-113.4843 501.1289,-112.4863"/>
<polygon fill="#ff0000" stroke="#ff0000" stroke-width=".2239" points="503.2145,-115.3069 509.7473,-106.9658 499.4388,-109.4125 503.2145,-115.3069"/>
</g>
<!-- &#45;12&#45;&gt;1065 -->
<g id="edge46" class="edge">
<title>&#45;12&#45;&gt;1065</title>
<path fill="none" stroke="#ff0000" stroke-width=".1989" d="M283.6063,-166.6358C288.0469,-161.7156 293.8605,-155.7663 299.708,-151.196 324.8134,-131.5739 335.1387,-132.7851 361.708,-115.196 363.3651,-114.099 365.0506,-112.949 366.7391,-111.7704"/>
<polygon fill="#ff0000" stroke="#ff0000" stroke-width=".1989" points="369.0217,-114.4395 375.0863,-105.7521 364.9278,-108.7615 369.0217,-114.4395"/>
</g>
<!-- &#45;12&#45;&gt;1066 -->
<g id="edge47" class="edge">
<title>&#45;12&#45;&gt;1066</title>
<path fill="none" stroke="#00ff00" stroke-width=".4622" d="M281.2729,-166.795C287.9491,-155.8181 299.4814,-136.8569 309.3826,-120.5775"/>
<polygon fill="#00ff00" stroke="#00ff00" stroke-width=".4622" points="312.4682,-122.2397 314.6743,-111.877 306.4875,-118.6021 312.4682,-122.2397"/>
</g>
<!-- &#45;12&#45;&gt;1068 -->
<g id="edge48" class="edge">
<title>&#45;12&#45;&gt;1068</title>
<path fill="none" stroke="#ff0000" stroke-width=".483" d="M282.7693,-166.5069C287.1231,-161.2986 293.1231,-155.1114 299.708,-151.196 350.8706,-120.7739 375.3136,-141.5047 428.708,-115.196 430.4906,-114.3176 432.2745,-113.3389 434.0385,-112.2919"/>
<polygon fill="#ff0000" stroke="#ff0000" stroke-width=".483" points="436.1821,-115.0705 442.594,-106.6361 432.3218,-109.2311 436.1821,-115.0705"/>
</g>
<!-- &#45;13 -->
<g id="node13" class="node">
<title>&#45;13</title>
<polygon fill="#d3d3d3" stroke="#000000" points="337.208,-184.9447 308.208,-184.9447 308.208,-166.9447 337.208,-166.9447 337.208,-184.9447"/>
<text text-anchor="middle" x="322.708" y="-173.7447" font-family="Times,serif" font-size="9.00" fill="#000000">&#45;13</text>
</g>
<!-- &#45;13&#45;&gt;1064 -->
<g id="edge49" class="edge">
<title>&#45;13&#45;&gt;1064</title>
<path fill="none" stroke="#00ff00" stroke-width=".5" d="M329.3169,-166.908C333.6811,-161.5716 339.8476,-155.1141 346.708,-151.196 405.8673,-117.409 434.0772,-144.231 495.708,-115.196 497.5057,-114.349 499.3015,-113.3949 501.0746,-112.3667"/>
<polygon fill="#00ff00" stroke="#00ff00" stroke-width=".5" points="503.1962,-115.1615 509.6552,-106.7631 499.3687,-109.3006 503.1962,-115.1615"/>
</g>
<!-- &#45;13&#45;&gt;1065 -->
<g id="edge50" class="edge">
<title>&#45;13&#45;&gt;1065</title>
<path fill="none" stroke="#ff0000" stroke-width=".1035" d="M330.4133,-166.795C340.2648,-155.0966 357.7533,-134.3296 372.0061,-117.4049"/>
<polygon fill="#ff0000" stroke="#ff0000" stroke-width=".1035" points="374.931,-119.3653 378.6953,-109.4617 369.5767,-114.8562 374.931,-119.3653"/>
</g>
<!-- &#45;13&#45;&gt;1066 -->
<g id="edge51" class="edge">
<title>&#45;13&#45;&gt;1066</title>
<path fill="none" stroke="#ff0000" stroke-width=".1412" d="M323.2431,-166.795C323.8203,-156.9247 324.7751,-140.5987 325.6539,-125.5717"/>
<polygon fill="#ff0000" stroke="#ff0000" stroke-width=".1412" points="329.1547,-125.6585 326.2446,-115.4712 322.1666,-125.2498 329.1547,-125.6585"/>
</g>
<!-- &#45;13&#45;&gt;1068 -->
<g id="edge52" class="edge">
<title>&#45;13&#45;&gt;1068</title>
<path fill="none" stroke="#00ff00" stroke-width=".2877" d="M329.9894,-166.8488C334.4165,-161.7544 340.4165,-155.5673 346.708,-151.196 379.3948,-128.4854 394.3381,-135.2685 428.708,-115.196 430.424,-114.1938 432.1558,-113.118 433.8797,-111.9965"/>
<polygon fill="#00ff00" stroke="#00ff00" stroke-width=".2877" points="436.1051,-114.7124 442.3248,-106.1353 432.1139,-108.9617 436.1051,-114.7124"/>
</g>
<!-- &#45;14 -->
<g id="node14" class="node">
<title>&#45;14</title>
<polygon fill="#d3d3d3" stroke="#000000" points="384.208,-184.9447 355.208,-184.9447 355.208,-166.9447 384.208,-166.9447 384.208,-184.9447"/>
<text text-anchor="middle" x="369.708" y="-173.7447" font-family="Times,serif" font-size="9.00" fill="#000000">&#45;14</text>
</g>
<!-- &#45;14&#45;&gt;1064 -->
<g id="edge53" class="edge">
<title>&#45;14&#45;&gt;1064</title>
<path fill="none" stroke="#ff0000" stroke-width=".1498" d="M376.8707,-166.671C381.2583,-161.5174 387.2583,-155.3303 393.708,-151.196 434.1809,-125.2527 453.3221,-137.8795 495.708,-115.196 497.4601,-114.2583 499.2202,-113.2331 500.9658,-112.1503"/>
<polygon fill="#ff0000" stroke="#ff0000" stroke-width=".1498" points="503.1495,-114.8987 509.4707,-106.3962 499.227,-109.101 503.1495,-114.8987"/>
</g>
<!-- &#45;14&#45;&gt;1065 -->
<g id="edge54" class="edge">
<title>&#45;14&#45;&gt;1065</title>
<path fill="none" stroke="#00ff00" stroke-width=".5" d="M372.3834,-166.795C375.3593,-156.6178 380.3421,-139.5771 384.8461,-124.1738"/>
<polygon fill="#00ff00" stroke="#00ff00" stroke-width=".5" points="388.2636,-124.9571 387.7109,-114.3767 381.5449,-122.9925 388.2636,-124.9571"/>
</g>
<!-- &#45;14&#45;&gt;1066 -->
<g id="edge55" class="edge">
<title>&#45;14&#45;&gt;1066</title>
<path fill="none" stroke="#00ff00" stroke-width=".4178" d="M365.2133,-166.795C359.977,-156.1358 351.0423,-137.9478 343.2068,-121.9975"/>
<polygon fill="#00ff00" stroke="#00ff00" stroke-width=".4178" points="346.3074,-120.3709 338.7567,-112.9386 340.0245,-123.4573 346.3074,-120.3709"/>
</g>
<!-- &#45;14&#45;&gt;1068 -->
<g id="edge56" class="edge">
<title>&#45;14&#45;&gt;1068</title>
<path fill="none" stroke="#00ff00" stroke-width=".1552" d="M378.4446,-166.6228C382.9293,-161.9184 388.5266,-156.1696 393.708,-151.196 407.1377,-138.3047 422.5777,-124.4385 435.3474,-113.2131"/>
<polygon fill="#00ff00" stroke="#00ff00" stroke-width=".1552" points="437.6886,-115.8153 442.9115,-106.5973 433.0801,-110.5463 437.6886,-115.8153"/>
</g>
<!-- &#45;15 -->
<g id="node15" class="node">
<title>&#45;15</title>
<polygon fill="#d3d3d3" stroke="#000000" points="431.208,-184.9447 402.208,-184.9447 402.208,-166.9447 431.208,-166.9447 431.208,-184.9447"/>
<text text-anchor="middle" x="416.708" y="-173.7447" font-family="Times,serif" font-size="9.00" fill="#000000">&#45;15</text>
</g>
<!-- &#45;15&#45;&gt;1064 -->
<g id="edge57" class="edge">
<title>&#45;15&#45;&gt;1064</title>
<path fill="none" stroke="#ff0000" stroke-width=".23" d="M424.7055,-166.7592C429.1751,-161.8752 434.9849,-155.921 440.708,-151.196 463.2372,-132.5958 471.7872,-131.9688 495.708,-115.196 497.3351,-114.055 498.9973,-112.8707 500.6677,-111.6657"/>
<polygon fill="#ff0000" stroke="#ff0000" stroke-width=".23" points="502.9753,-114.3135 508.9653,-105.5744 498.8329,-108.6707 502.9753,-114.3135"/>
</g>
<!-- &#45;15&#45;&gt;1065 -->
<g id="edge58" class="edge">
<title>&#45;15&#45;&gt;1065</title>
<path fill="none" stroke="#00ff00" stroke-width=".3004" d="M414.3536,-166.795C411.753,-156.6884 407.4108,-139.8135 403.4691,-124.495"/>
<polygon fill="#00ff00" stroke="#00ff00" stroke-width=".3004" points="406.8406,-123.5524 400.959,-114.7401 400.0615,-125.2968 406.8406,-123.5524"/>
</g>
<!-- &#45;15&#45;&gt;1066 -->
<g id="edge59" class="edge">
<title>&#45;15&#45;&gt;1066</title>
<path fill="none" stroke="#ff0000" stroke-width=".2815" d="M408.3554,-166.6157C404.0626,-161.9094 398.6971,-156.1612 393.708,-151.196 380.9406,-138.4897 366.2373,-124.8642 353.9536,-113.7439"/>
<polygon fill="#ff0000" stroke="#ff0000" stroke-width=".2815" points="356.0497,-110.9216 346.2756,-106.8329 351.3666,-116.1244 356.0497,-110.9216"/>
</g>
<!-- &#45;15&#45;&gt;1068 -->
<g id="edge60" class="edge">
<title>&#45;15&#45;&gt;1068</title>
<path fill="none" stroke="#ff0000" stroke-width=".3522" d="M421.5238,-166.795C427.1719,-156.0638 436.8365,-137.7017 445.2721,-121.6745"/>
<polygon fill="#ff0000" stroke="#ff0000" stroke-width=".3522" points="448.4968,-123.0624 450.0572,-112.5831 442.3024,-119.8021 448.4968,-123.0624"/>
</g>
<!-- 0 -->
<g id="node16" class="node">
<title>0</title>
<ellipse fill="#add8e6" stroke="#000000" cx="403.708" cy="-14.8492" rx="14.7" ry="14.7"/>
<text text-anchor="middle" x="403.708" y="-12.6492" font-family="Times,serif" font-size="9.00" fill="#000000">0</text>
</g>
<!-- 1 -->
<g id="node17" class="node">
<title>1</title>
<ellipse fill="#add8e6" stroke="#000000" cx="456.708" cy="-14.8492" rx="14.7" ry="14.7"/>
<text text-anchor="middle" x="456.708" y="-12.6492" font-family="Times,serif" font-size="9.00" fill="#000000">1</text>
</g>
<!-- 1064&#45;&gt;0 -->
<g id="edge61" class="edge">
<title>1064&#45;&gt;0</title>
<path fill="none" stroke="#00ff00" stroke-width=".3432" stroke-dasharray="1,5" d="M509.1328,-75.0713C504.792,-71.8592 500.1575,-68.5769 495.708,-65.6985 483.172,-57.5889 449.0767,-39.0727 426.103,-26.7659"/>
<polygon fill="#00ff00" stroke="#00ff00" stroke-width=".3432" points="427.5028,-23.5456 417.0333,-21.9202 424.2041,-29.7196 427.5028,-23.5456"/>
</g>
<!-- 1064&#45;&gt;1 -->
<g id="edge62" class="edge">
<title>1064&#45;&gt;1</title>
<path fill="none" stroke="#ff0000" stroke-width=".4923" d="M511.2788,-72.1471C500.0523,-60.3595 485.5077,-45.0881 474.2575,-33.2757"/>
<polygon fill="#ff0000" stroke="#ff0000" stroke-width=".4923" points="476.5077,-30.5634 467.0765,-25.7359 471.4388,-35.3911 476.5077,-30.5634"/>
</g>
<!-- 1065&#45;&gt;0 -->
<g id="edge63" class="edge">
<title>1065&#45;&gt;0</title>
<path fill="none" stroke="#ff0000" stroke-width=".4937" d="M397.6549,-65.6936C398.6387,-57.4298 399.7354,-48.2178 400.7222,-39.9294"/>
<polygon fill="#ff0000" stroke="#ff0000" stroke-width=".4937" points="404.2305,-40.0666 401.9373,-29.7229 397.2796,-39.239 404.2305,-40.0666"/>
</g>
<!-- 1065&#45;&gt;1 -->
<g id="edge64" class="edge">
<title>1065&#45;&gt;1</title>
<path fill="none" stroke="#00ff00" stroke-width=".3599" d="M410.6745,-70.9789C419.8237,-59.823 431.2781,-45.8565 440.472,-34.6461"/>
<polygon fill="#00ff00" stroke="#00ff00" stroke-width=".3599" points="443.3513,-36.6547 446.9864,-26.703 437.9387,-32.2157 443.3513,-36.6547"/>
</g>
<!-- 1066&#45;&gt;0 -->
<g id="edge65" class="edge">
<title>1066&#45;&gt;0</title>
<path fill="none" stroke="#00ff00" stroke-width=".5" d="M345.3349,-72.9135C357.4211,-60.8913 373.411,-44.9859 385.5992,-32.8623"/>
<polygon fill="#00ff00" stroke="#00ff00" stroke-width=".5" points="388.3587,-35.054 392.9802,-25.5202 383.4221,-30.0911 388.3587,-35.054"/>
</g>
<!-- 1066&#45;&gt;1 -->
<g id="edge66" class="edge">
<title>1066&#45;&gt;1</title>
<path fill="none" stroke="#00ff00" stroke-width=".2635" d="M347.2446,-75.011C351.5878,-71.8027 356.233,-68.5372 360.708,-65.6985 367.5519,-61.3571 408.486,-39.9207 434.6452,-26.3035"/>
<polygon fill="#00ff00" stroke="#00ff00" stroke-width=".2635" points="436.2665,-29.4054 443.5238,-21.6865 433.0369,-23.1949 436.2665,-29.4054"/>
</g>
<!-- 1068&#45;&gt;0 -->
<g id="edge67" class="edge">
<title>1068&#45;&gt;0</title>
<path fill="none" stroke="#ff0000" stroke-width=".1034" d="M446.4692,-70.5847C438.1004,-59.6767 427.7412,-46.1744 419.315,-35.1917"/>
<polygon fill="#ff0000" stroke="#ff0000" stroke-width=".1034" points="421.9108,-32.8251 413.0468,-27.0216 416.357,-37.0861 421.9108,-32.8251"/>
</g>
<!-- 1068&#45;&gt;1 -->
<g id="edge68" class="edge">
<title>1068&#45;&gt;1</title>
<path fill="none" stroke="#ff0000" stroke-width=".4778" d="M460.0708,-65.6936C459.5242,-57.4298 458.915,-48.2178 458.3668,-39.9294"/>
<polygon fill="#ff0000" stroke="#ff0000" stroke-width=".4778" points="461.8441,-39.4701 457.6917,-29.7229 454.8594,-39.9322 461.8441,-39.4701"/>
</g>
<!-- 2584&#45;&gt;1066 -->
<g id="edge70" class="edge">
<title>2584&#45;&gt;1066</title>
<path fill="none" stroke="#ff0000" stroke-width=".5" d="M64.0731,-161.287C69.8857,-157.5916 76.3675,-153.9086 82.708,-151.196 154.2145,-120.6041 244.3274,-103.2318 292.8803,-95.4528"/>
<polygon fill="#ff0000" stroke="#ff0000" stroke-width=".5" points="293.532,-98.8935 302.873,-93.8939 292.453,-91.9772 293.532,-98.8935"/>
</g>
</g>
</svg>
