<?xml version="1.0" encoding="UTF-8" standalone="no"?>
<!DOCTYPE svg PUBLIC "-//W3C//DTD SVG 1.1//EN"
 "http://www.w3.org/Graphics/SVG/1.1/DTD/svg11.dtd">
<!-- Generated by graphviz version 2.40.1 (20161225.0304)
 -->
<!-- Title: %3 Pages: 1 -->
<svg width="290pt" height="170pt"
 viewBox="0.00 0.00 290.43 170.12" xmlns="http://www.w3.org/2000/svg" xmlns:xlink="http://www.w3.org/1999/xlink">
<g id="graph0" class="graph" transform="scale(1 1) rotate(0) translate(4 166.1249)">
<title>%3</title>
<polygon fill="#ffffff" stroke="transparent" points="-4,4 -4,-166.1249 286.4264,-166.1249 286.4264,4 -4,4"/>
<!-- &#45;1 -->
<g id="node1" class="node">
<title>&#45;1</title>
<polygon fill="#d3d3d3" stroke="#000000" points="208.2132,-162.1249 184.2132,-162.1249 184.2132,-144.1249 208.2132,-144.1249 208.2132,-162.1249"/>
<text text-anchor="middle" x="196.2132" y="-150.9249" font-family="Times,serif" font-size="9.00" fill="#000000">&#45;1</text>
</g>
<!-- 986 -->
<g id="node6" class="node">
<title>986</title>
<ellipse fill="#ffffff" stroke="#000000" cx="141.2132" cy="-86.9117" rx="21.4286" ry="21.4286"/>
<text text-anchor="middle" x="141.2132" y="-84.7117" font-family="Times,serif" font-size="9.00" fill="#000000">986</text>
</g>
<!-- &#45;1&#45;&gt;986 -->
<g id="edge1" class="edge">
<title>&#45;1&#45;&gt;986</title>
<path fill="none" stroke="#00ff00" stroke-width=".5" d="M188.5657,-143.9182C181.5827,-135.5116 170.9429,-122.7026 161.5166,-111.3545"/>
<polygon fill="#00ff00" stroke="#00ff00" stroke-width=".5" points="164.0189,-108.8893 154.9369,-103.4333 158.6342,-113.3621 164.0189,-108.8893"/>
</g>
<!-- 988 -->
<g id="node8" class="node">
<title>988</title>
<ellipse fill="#ffffff" stroke="#000000" cx="201.2132" cy="-86.9117" rx="21.4286" ry="21.4286"/>
<text text-anchor="middle" x="201.2132" y="-84.7117" font-family="Times,serif" font-size="9.00" fill="#000000">988</text>
</g>
<!-- &#45;1&#45;&gt;988 -->
<g id="edge2" class="edge">
<title>&#45;1&#45;&gt;988</title>
<path fill="none" stroke="#ff0000" stroke-width=".2221" d="M196.9084,-143.9182C197.4114,-137.2572 198.1231,-127.8323 198.8233,-118.5602"/>
<polygon fill="#ff0000" stroke="#ff0000" stroke-width=".2221" points="202.3342,-118.5473 199.5972,-108.3121 195.354,-118.0201 202.3342,-118.5473"/>
</g>
<!-- 989 -->
<g id="node9" class="node">
<title>989</title>
<ellipse fill="#ffffff" stroke="#000000" cx="261.2132" cy="-86.9117" rx="21.4286" ry="21.4286"/>
<text text-anchor="middle" x="261.2132" y="-84.7117" font-family="Times,serif" font-size="9.00" fill="#000000">989</text>
</g>
<!-- &#45;1&#45;&gt;989 -->
<g id="edge3" class="edge">
<title>&#45;1&#45;&gt;989</title>
<path fill="none" stroke="#ff0000" stroke-width=".4779" d="M205.2512,-143.9182C213.9502,-135.0569 227.4511,-121.304 239.0126,-109.5267"/>
<polygon fill="#ff0000" stroke="#ff0000" stroke-width=".4779" points="241.7523,-111.732 246.2601,-102.1439 236.757,-106.8282 241.7523,-111.732"/>
</g>
<!-- 991 -->
<g id="node10" class="node">
<title>991</title>
<ellipse fill="#ffffff" stroke="#000000" cx="81.2132" cy="-86.9117" rx="21.4286" ry="21.4286"/>
<text text-anchor="middle" x="81.2132" y="-84.7117" font-family="Times,serif" font-size="9.00" fill="#000000">991</text>
</g>
<!-- &#45;1&#45;&gt;991 -->
<g id="edge4" class="edge">
<title>&#45;1&#45;&gt;991</title>
<path fill="none" stroke="#ff0000" stroke-width=".158" d="M184.1183,-147.3355C167.386,-139.1894 136.3906,-123.6025 111.2132,-108.1249 109.7562,-107.2292 108.2752,-106.2884 106.7914,-105.3218"/>
<polygon fill="#ff0000" stroke="#ff0000" stroke-width=".158" points="108.6487,-102.3525 98.4076,-99.6378 104.7205,-108.1464 108.6487,-102.3525"/>
</g>
<!-- &#45;2 -->
<g id="node2" class="node">
<title>&#45;2</title>
<polygon fill="#d3d3d3" stroke="#000000" points="115.2132,-162.1249 91.2132,-162.1249 91.2132,-144.1249 115.2132,-144.1249 115.2132,-162.1249"/>
<text text-anchor="middle" x="103.2132" y="-150.9249" font-family="Times,serif" font-size="9.00" fill="#000000">&#45;2</text>
</g>
<!-- &#45;2&#45;&gt;986 -->
<g id="edge5" class="edge">
<title>&#45;2&#45;&gt;986</title>
<path fill="none" stroke="#00ff00" stroke-width=".4268" d="M108.4969,-143.9182C112.8818,-136.2778 119.3537,-125.0009 125.3863,-114.4893"/>
<polygon fill="#00ff00" stroke="#00ff00" stroke-width=".4268" points="128.5691,-115.9749 130.5111,-105.5595 122.4979,-112.4906 128.5691,-115.9749"/>
</g>
<!-- 987 -->
<g id="node7" class="node">
<title>987</title>
<ellipse fill="#ffffff" stroke="#000000" cx="21.2132" cy="-86.9117" rx="21.4286" ry="21.4286"/>
<text text-anchor="middle" x="21.2132" y="-84.7117" font-family="Times,serif" font-size="9.00" fill="#000000">987</text>
</g>
<!-- &#45;2&#45;&gt;987 -->
<g id="edge6" class="edge">
<title>&#45;2&#45;&gt;987</title>
<path fill="none" stroke="#ff0000" stroke-width=".5" d="M91.8115,-143.9182C80.0039,-134.3839 61.1837,-119.187 45.9434,-106.8808"/>
<polygon fill="#ff0000" stroke="#ff0000" stroke-width=".5" points="47.8912,-103.955 37.9121,-100.3957 43.4936,-109.4012 47.8912,-103.955"/>
</g>
<!-- &#45;2&#45;&gt;988 -->
<g id="edge7" class="edge">
<title>&#45;2&#45;&gt;988</title>
<path fill="none" stroke="#00ff00" stroke-width=".141" d="M115.3261,-145.2703C128.9843,-136.3764 151.8185,-121.3946 171.2132,-108.1249 172.6248,-107.1591 174.0697,-106.1629 175.5256,-105.1533"/>
<polygon fill="#00ff00" stroke="#00ff00" stroke-width=".141" points="177.642,-107.9442 183.827,-99.3421 173.6276,-102.2097 177.642,-107.9442"/>
</g>
<!-- &#45;2&#45;&gt;989 -->
<g id="edge8" class="edge">
<title>&#45;2&#45;&gt;989</title>
<path fill="none" stroke="#00ff00" stroke-width=".202" d="M115.5827,-147.6283C118.402,-146.4302 121.3969,-145.2002 124.2132,-144.1249 171.0878,-126.228 186.4791,-130.8492 231.2132,-108.1249 232.7381,-107.3503 234.2726,-106.5052 235.7981,-105.613"/>
<polygon fill="#00ff00" stroke="#00ff00" stroke-width=".202" points="237.7828,-108.498 244.305,-100.1487 233.9997,-102.6084 237.7828,-108.498"/>
</g>
<!-- &#45;2&#45;&gt;991 -->
<g id="edge9" class="edge">
<title>&#45;2&#45;&gt;991</title>
<path fill="none" stroke="#ff0000" stroke-width=".2692" d="M100.1542,-143.9182C97.7988,-136.8291 94.4032,-126.6095 91.1357,-116.7752"/>
<polygon fill="#ff0000" stroke="#ff0000" stroke-width=".2692" points="94.4287,-115.5859 87.9541,-107.1996 87.7858,-117.7931 94.4287,-115.5859"/>
</g>
<!-- &#45;3 -->
<g id="node3" class="node">
<title>&#45;3</title>
<polygon fill="#d3d3d3" stroke="#000000" points="157.2132,-162.1249 133.2132,-162.1249 133.2132,-144.1249 157.2132,-144.1249 157.2132,-162.1249"/>
<text text-anchor="middle" x="145.2132" y="-150.9249" font-family="Times,serif" font-size="9.00" fill="#000000">&#45;3</text>
</g>
<!-- &#45;3&#45;&gt;986 -->
<g id="edge10" class="edge">
<title>&#45;3&#45;&gt;986</title>
<path fill="none" stroke="#ff0000" stroke-width=".4501" d="M144.657,-143.9182C144.2546,-137.2572 143.6853,-127.8323 143.1251,-118.5602"/>
<polygon fill="#ff0000" stroke="#ff0000" stroke-width=".4501" points="146.6028,-118.0828 142.506,-108.3121 139.6155,-118.505 146.6028,-118.0828"/>
</g>
<!-- &#45;3&#45;&gt;987 -->
<g id="edge11" class="edge">
<title>&#45;3&#45;&gt;987</title>
<path fill="none" stroke="#00ff00" stroke-width=".4031" d="M132.9922,-147.5871C111.1051,-137.6176 66.113,-116.8746 51.2132,-108.1249 49.7384,-107.2588 48.2434,-106.3415 46.7486,-105.393"/>
<polygon fill="#00ff00" stroke="#00ff00" stroke-width=".4031" points="48.5902,-102.4141 38.3325,-99.7628 44.6979,-108.2322 48.5902,-102.4141"/>
</g>
<!-- &#45;3&#45;&gt;988 -->
<g id="edge12" class="edge">
<title>&#45;3&#45;&gt;988</title>
<path fill="none" stroke="#00ff00" stroke-width=".4956" d="M152.9998,-143.9182C160.1581,-135.4544 171.0905,-122.5281 180.7364,-111.1231"/>
<polygon fill="#00ff00" stroke="#00ff00" stroke-width=".4956" points="183.675,-113.0684 187.4603,-103.1729 178.3302,-108.5481 183.675,-113.0684"/>
</g>
<!-- &#45;3&#45;&gt;989 -->
<g id="edge13" class="edge">
<title>&#45;3&#45;&gt;989</title>
<path fill="none" stroke="#00ff00" stroke-width=".1901" d="M157.4581,-147.3587C174.3962,-139.2395 205.7665,-123.6837 231.2132,-108.1249 232.6724,-107.2327 234.155,-106.2947 235.6402,-105.3303"/>
<polygon fill="#00ff00" stroke="#00ff00" stroke-width=".1901" points="237.7087,-108.1566 244.0279,-99.6526 233.7848,-102.3597 237.7087,-108.1566"/>
</g>
<!-- &#45;3&#45;&gt;991 -->
<g id="edge14" class="edge">
<title>&#45;3&#45;&gt;991</title>
<path fill="none" stroke="#00ff00" stroke-width=".4646" d="M136.3143,-143.9182C127.8054,-135.1152 114.6306,-121.4847 103.2972,-109.7594"/>
<polygon fill="#00ff00" stroke="#00ff00" stroke-width=".4646" points="105.6495,-107.1569 96.183,-102.3992 100.6163,-112.0219 105.6495,-107.1569"/>
</g>
<!-- 0 -->
<g id="node4" class="node">
<title>0</title>
<ellipse fill="#add8e6" stroke="#000000" cx="87.2132" cy="-14.8492" rx="14.7" ry="14.7"/>
<text text-anchor="middle" x="87.2132" y="-12.6492" font-family="Times,serif" font-size="9.00" fill="#000000">0</text>
</g>
<!-- 1 -->
<g id="node5" class="node">
<title>1</title>
<ellipse fill="#add8e6" stroke="#000000" cx="141.2132" cy="-14.8492" rx="14.7" ry="14.7"/>
<text text-anchor="middle" x="141.2132" y="-12.6492" font-family="Times,serif" font-size="9.00" fill="#000000">1</text>
</g>
<!-- 986&#45;&gt;0 -->
<g id="edge15" class="edge">
<title>986&#45;&gt;0</title>
<path fill="none" stroke="#00ff00" stroke-width=".5" d="M128.416,-69.8339C120.6393,-59.456 110.6651,-46.1455 102.4781,-35.2201"/>
<polygon fill="#00ff00" stroke="#00ff00" stroke-width=".5" points="105.1692,-32.9748 96.3717,-27.0711 99.5675,-37.1725 105.1692,-32.9748"/>
</g>
<!-- 986&#45;&gt;1 -->
<g id="edge16" class="edge">
<title>986&#45;&gt;1</title>
<path fill="none" stroke="#00ff00" stroke-width=".2187" d="M141.2132,-65.6803C141.2132,-57.713 141.2132,-48.5771 141.2132,-40.2679"/>
<polygon fill="#00ff00" stroke="#00ff00" stroke-width=".2187" points="144.7133,-39.9888 141.2132,-29.9888 137.7133,-39.9889 144.7133,-39.9888"/>
</g>
<!-- 987&#45;&gt;0 -->
<g id="edge17" class="edge">
<title>987&#45;&gt;0</title>
<path fill="none" stroke="#00ff00" stroke-width=".3732" d="M35.8607,-70.9187C45.9816,-59.8682 59.4793,-45.1307 70.0965,-33.5382"/>
<polygon fill="#00ff00" stroke="#00ff00" stroke-width=".3732" points="72.7367,-35.8375 76.9098,-26.0991 67.5746,-31.1097 72.7367,-35.8375"/>
</g>
<!-- 987&#45;&gt;1 -->
<g id="edge18" class="edge">
<title>987&#45;&gt;1</title>
<path fill="none" stroke="#ff0000" stroke-width=".5" d="M38.4599,-74.2694C42.5839,-71.3717 47.0106,-68.362 51.2132,-65.6985 73.6993,-51.4475 100.345,-36.6387 118.7797,-26.7034"/>
<polygon fill="#ff0000" stroke="#ff0000" stroke-width=".5" points="120.685,-29.6536 127.8517,-21.8504 117.3831,-23.4813 120.685,-29.6536"/>
</g>
<!-- 988&#45;&gt;0 -->
<g id="edge19" class="edge">
<title>988&#45;&gt;0</title>
<path fill="none" stroke="#00ff00" stroke-width=".1806" stroke-dasharray="1,5" d="M183.9078,-74.3606C179.7861,-71.4591 175.3753,-68.4248 171.2132,-65.6985 150.3978,-52.0635 126.01,-37.4457 108.8912,-27.3987"/>
<polygon fill="#00ff00" stroke="#00ff00" stroke-width=".1806" points="110.598,-24.3424 100.1975,-22.3226 107.0684,-30.3874 110.598,-24.3424"/>
</g>
<!-- 988&#45;&gt;1 -->
<g id="edge20" class="edge">
<title>988&#45;&gt;1</title>
<path fill="none" stroke="#00ff00" stroke-width=".2823" d="M187.5983,-70.5596C178.5839,-59.7329 166.7223,-45.4867 157.2507,-34.1109"/>
<polygon fill="#00ff00" stroke="#00ff00" stroke-width=".2823" points="159.9395,-31.8703 150.8512,-26.4248 154.56,-36.3493 159.9395,-31.8703"/>
</g>
<!-- 989&#45;&gt;1 -->
<g id="edge21" class="edge">
<title>989&#45;&gt;1</title>
<path fill="none" stroke="#ff0000" stroke-width=".2289" d="M243.9665,-74.2694C239.8425,-71.3717 235.4158,-68.362 231.2132,-65.6985 208.7271,-51.4475 182.0814,-36.6387 163.6467,-26.7034"/>
<polygon fill="#ff0000" stroke="#ff0000" stroke-width=".2289" points="165.0433,-23.4813 154.5747,-21.8504 161.7414,-29.6536 165.0433,-23.4813"/>
</g>
<!-- 991&#45;&gt;0 -->
<g id="edge22" class="edge">
<title>991&#45;&gt;0</title>
<path fill="none" stroke="#ff0000" stroke-width=".1658" d="M82.9809,-65.6803C83.6518,-57.6235 84.4221,-48.3716 85.1201,-39.9882"/>
<polygon fill="#ff0000" stroke="#ff0000" stroke-width=".1658" points="88.6108,-40.2448 85.9527,-29.9888 81.6349,-39.6639 88.6108,-40.2448"/>
</g>
<!-- 991&#45;&gt;1 -->
<g id="edge23" class="edge">
<title>991&#45;&gt;1</title>
<path fill="none" stroke="#ff0000" stroke-width=".5" d="M94.8281,-70.5596C103.8425,-59.7329 115.7041,-45.4867 125.1757,-34.1109"/>
<polygon fill="#ff0000" stroke="#ff0000" stroke-width=".5" points="127.8664,-36.3493 131.5752,-26.4248 122.4869,-31.8703 127.8664,-36.3493"/>
</g>
</g>
</svg>
