<?xml version="1.0" encoding="UTF-8" standalone="no"?>
<!DOCTYPE svg PUBLIC "-//W3C//DTD SVG 1.1//EN"
 "http://www.w3.org/Graphics/SVG/1.1/DTD/svg11.dtd">
<!-- Generated by graphviz version 2.40.1 (20161225.0304)
 -->
<!-- Title: %3 Pages: 1 -->
<svg width="256pt" height="228pt"
 viewBox="0.00 0.00 256.50 228.49" xmlns="http://www.w3.org/2000/svg" xmlns:xlink="http://www.w3.org/1999/xlink">
<g id="graph0" class="graph" transform="scale(1 1) rotate(0) translate(4 224.4924)">
<title>%3</title>
<polygon fill="#ffffff" stroke="transparent" points="-4,4 -4,-224.4924 252.4975,-224.4924 252.4975,4 -4,4"/>
<!-- &#45;1 -->
<g id="node1" class="node">
<title>&#45;1</title>
<polygon fill="#d3d3d3" stroke="#000000" points="36.7487,-204.7437 12.7487,-204.7437 12.7487,-186.7437 36.7487,-186.7437 36.7487,-204.7437"/>
<text text-anchor="middle" x="24.7487" y="-193.5437" font-family="Times,serif" font-size="9.00" fill="#000000">&#45;1</text>
</g>
<!-- 9350 -->
<g id="node6" class="node">
<title>9350</title>
<ellipse fill="#ffffff" stroke="#000000" cx="24.7487" cy="-110.2462" rx="25" ry="25"/>
<text text-anchor="middle" x="24.7487" y="-108.0462" font-family="Times,serif" font-size="9.00" fill="#000000">9350</text>
</g>
<!-- &#45;1&#45;&gt;9350 -->
<g id="edge9" class="edge">
<title>&#45;1&#45;&gt;9350</title>
<path fill="none" stroke="#ff0000" stroke-width=".1571" d="M24.7487,-186.594C24.7487,-176.7237 24.7487,-160.3977 24.7487,-145.3707"/>
<polygon fill="#ff0000" stroke="#ff0000" stroke-width=".1571" points="28.2488,-145.2702 24.7487,-135.2702 21.2488,-145.2702 28.2488,-145.2702"/>
</g>
<!-- &#45;2 -->
<g id="node2" class="node">
<title>&#45;2</title>
<polygon fill="#d3d3d3" stroke="#000000" points="127.7487,-204.7437 103.7487,-204.7437 103.7487,-186.7437 127.7487,-186.7437 127.7487,-204.7437"/>
<text text-anchor="middle" x="115.7487" y="-193.5437" font-family="Times,serif" font-size="9.00" fill="#000000">&#45;2</text>
</g>
<!-- 1 -->
<g id="node5" class="node">
<title>1</title>
<ellipse fill="#add8e6" stroke="#000000" cx="67.7487" cy="-24.7487" rx="14.7" ry="14.7"/>
<text text-anchor="middle" x="67.7487" y="-22.5487" font-family="Times,serif" font-size="9.00" fill="#000000">1</text>
</g>
<!-- &#45;2&#45;&gt;1 -->
<g id="edge5" class="edge">
<title>&#45;2&#45;&gt;1</title>
<path fill="none" stroke="#00ff00" stroke-width=".4892" d="M113.168,-186.5503C105.9415,-160.8064 85.329,-87.3766 74.5321,-48.9136"/>
<polygon fill="#00ff00" stroke="#00ff00" stroke-width=".4892" points="77.8388,-47.7429 71.7663,-39.061 71.0993,-49.6348 77.8388,-47.7429"/>
</g>
<!-- 4146 -->
<g id="node8" class="node">
<title>4146</title>
<ellipse fill="#ffffff" stroke="#000000" cx="168.7487" cy="-110.2462" rx="25" ry="25"/>
<text text-anchor="middle" x="168.7487" y="-108.0462" font-family="Times,serif" font-size="9.00" fill="#000000">4146</text>
</g>
<!-- &#45;2&#45;&gt;4146 -->
<g id="edge1" class="edge">
<title>&#45;2&#45;&gt;4146</title>
<path fill="none" stroke="#ff0000" stroke-width=".5" d="M121.4207,-186.594C128.2703,-175.5444 140.1352,-156.4044 150.2712,-140.0534"/>
<polygon fill="#ff0000" stroke="#ff0000" stroke-width=".5" points="153.3876,-141.6691 155.6816,-131.3256 147.438,-137.9809 153.3876,-141.6691"/>
</g>
<!-- 6367 -->
<g id="node9" class="node">
<title>6367</title>
<ellipse fill="#ffffff" stroke="#000000" cx="125.7487" cy="-24.7487" rx="25" ry="25"/>
<text text-anchor="middle" x="125.7487" y="-22.5487" font-family="Times,serif" font-size="9.00" fill="#000000">6367</text>
</g>
<!-- &#45;2&#45;&gt;6367 -->
<g id="edge7" class="edge">
<title>&#45;2&#45;&gt;6367</title>
<path fill="none" stroke="#ff0000" stroke-width=".4303" d="M116.2864,-186.5503C117.6606,-163.0525 121.3581,-99.827 123.7033,-59.7249"/>
<polygon fill="#ff0000" stroke="#ff0000" stroke-width=".4303" points="127.2071,-59.7602 124.297,-49.5729 120.2191,-59.3515 127.2071,-59.7602"/>
</g>
<!-- &#45;3 -->
<g id="node3" class="node">
<title>&#45;3</title>
<polygon fill="#d3d3d3" stroke="#000000" points="180.7487,-204.7437 156.7487,-204.7437 156.7487,-186.7437 180.7487,-186.7437 180.7487,-204.7437"/>
<text text-anchor="middle" x="168.7487" y="-193.5437" font-family="Times,serif" font-size="9.00" fill="#000000">&#45;3</text>
</g>
<!-- &#45;3&#45;&gt;4146 -->
<g id="edge2" class="edge">
<title>&#45;3&#45;&gt;4146</title>
<path fill="none" stroke="#00ff00" stroke-width=".5" d="M168.7487,-186.594C168.7487,-176.7237 168.7487,-160.3977 168.7487,-145.3707"/>
<polygon fill="#00ff00" stroke="#00ff00" stroke-width=".5" points="172.2488,-145.2702 168.7487,-135.2702 165.2488,-145.2702 172.2488,-145.2702"/>
</g>
<!-- 0 -->
<g id="node4" class="node">
<title>0</title>
<ellipse fill="#add8e6" stroke="#000000" cx="183.7487" cy="-24.7487" rx="14.7" ry="14.7"/>
<text text-anchor="middle" x="183.7487" y="-22.5487" font-family="Times,serif" font-size="9.00" fill="#000000">0</text>
</g>
<!-- 9350&#45;&gt;1 -->
<g id="edge6" class="edge">
<title>9350&#45;&gt;1</title>
<path fill="none" stroke="#ff0000" stroke-width=".1398" stroke-dasharray="1,5" d="M36.0465,-87.7828C42.2902,-75.3683 50.0283,-59.9825 56.2964,-47.5195"/>
<polygon fill="#ff0000" stroke="#ff0000" stroke-width=".1398" points="59.5852,-48.77 60.9516,-38.2636 53.3316,-45.6248 59.5852,-48.77"/>
</g>
<!-- 9830 -->
<g id="node7" class="node">
<title>9830</title>
<ellipse fill="#ffffff" stroke="#000000" cx="223.7487" cy="-195.7437" rx="25" ry="25"/>
<text text-anchor="middle" x="223.7487" y="-193.5437" font-family="Times,serif" font-size="9.00" fill="#000000">9830</text>
</g>
<!-- 4146&#45;&gt;0 -->
<g id="edge3" class="edge">
<title>4146&#45;&gt;0</title>
<path fill="none" stroke="#00ff00" stroke-width=".2891" d="M173.0874,-85.5168C175.0676,-74.23 177.4077,-60.8919 179.3902,-49.5914"/>
<polygon fill="#00ff00" stroke="#00ff00" stroke-width=".2891" points="182.8774,-49.9691 181.1581,-39.5147 175.9827,-48.7594 182.8774,-49.9691"/>
</g>
<!-- 4146&#45;&gt;1 -->
<g id="edge4" class="edge">
<title>4146&#45;&gt;1</title>
<path fill="none" stroke="#00ff00" stroke-width=".2111" d="M148.5372,-95.4641C132.6513,-83.5728 110.2015,-66.1566 91.7487,-49.4975 89.583,-47.5422 87.3718,-45.4342 85.2109,-43.3025"/>
<polygon fill="#00ff00" stroke="#00ff00" stroke-width=".2111" points="87.6984,-40.8402 78.1977,-36.1511 82.7006,-45.7415 87.6984,-40.8402"/>
</g>
<!-- 4146&#45;&gt;6367 -->
<g id="edge8" class="edge">
<title>4146&#45;&gt;6367</title>
<path fill="none" stroke="#00ff00" stroke-width=".1232" d="M157.451,-87.7828C152.612,-78.1613 146.8754,-66.7552 141.6212,-56.3081"/>
<polygon fill="#00ff00" stroke="#00ff00" stroke-width=".1232" points="144.591,-54.4233 136.971,-47.0622 138.3374,-57.5685 144.591,-54.4233"/>
</g>
</g>
</svg>
