<?xml version="1.0" encoding="UTF-8" standalone="no"?>
<!DOCTYPE svg PUBLIC "-//W3C//DTD SVG 1.1//EN"
 "http://www.w3.org/Graphics/SVG/1.1/DTD/svg11.dtd">
<!-- Generated by graphviz version 2.40.1 (20161225.0304)
 -->
<!-- Title: %3 Pages: 1 -->
<svg width="332pt" height="274pt"
 viewBox="0.00 0.00 331.96 274.01" xmlns="http://www.w3.org/2000/svg" xmlns:xlink="http://www.w3.org/1999/xlink">
<g id="graph0" class="graph" transform="scale(1 1) rotate(0) translate(4 270.0071)">
<title>%3</title>
<polygon fill="#ffffff" stroke="transparent" points="-4,4 -4,-270.0071 327.9619,-270.0071 327.9619,4 -4,4"/>
<!-- &#45;1 -->
<g id="node1" class="node">
<title>&#45;1</title>
<polygon fill="#d3d3d3" stroke="#000000" points="67.5772,-266.0071 43.5772,-266.0071 43.5772,-248.0071 67.5772,-248.0071 67.5772,-266.0071"/>
<text text-anchor="middle" x="55.5772" y="-254.8071" font-family="Times,serif" font-size="9.00" fill="#000000">&#45;1</text>
</g>
<!-- &#45;2 -->
<g id="node2" class="node">
<title>&#45;2</title>
<polygon fill="#d3d3d3" stroke="#000000" points="109.5772,-266.0071 85.5772,-266.0071 85.5772,-248.0071 109.5772,-248.0071 109.5772,-266.0071"/>
<text text-anchor="middle" x="97.5772" y="-254.8071" font-family="Times,serif" font-size="9.00" fill="#000000">&#45;2</text>
</g>
<!-- 18023 -->
<g id="node7" class="node">
<title>18023</title>
<ellipse fill="#ffffff" stroke="#000000" cx="27.5772" cy="-184.43" rx="27.6545" ry="27.6545"/>
<text text-anchor="middle" x="27.5772" y="-182.23" font-family="Times,serif" font-size="9.00" fill="#000000">18023</text>
</g>
<!-- &#45;2&#45;&gt;18023 -->
<g id="edge15" class="edge">
<title>&#45;2&#45;&gt;18023</title>
<path fill="none" stroke="#ff0000" stroke-width=".1104" d="M88.7116,-247.8152C79.9777,-238.7597 66.1992,-224.474 53.9322,-211.7553"/>
<polygon fill="#ff0000" stroke="#ff0000" stroke-width=".1104" points="56.3951,-209.2672 46.9338,-204.4992 51.3567,-214.1267 56.3951,-209.2672"/>
</g>
<!-- 26 -->
<g id="node8" class="node">
<title>26</title>
<ellipse fill="#ffffff" stroke="#000000" cx="91.5772" cy="-184.43" rx="18.2703" ry="18.2703"/>
<text text-anchor="middle" x="91.5772" y="-182.23" font-family="Times,serif" font-size="9.00" fill="#000000">26</text>
</g>
<!-- &#45;2&#45;&gt;26 -->
<g id="edge1" class="edge">
<title>&#45;2&#45;&gt;26</title>
<path fill="none" stroke="#00ff00" stroke-width=".5" d="M96.8173,-247.8152C96.093,-239.0541 94.964,-225.3974 93.9391,-213.0006"/>
<polygon fill="#00ff00" stroke="#00ff00" stroke-width=".5" points="97.426,-212.6964 93.1139,-203.0188 90.4498,-213.2732 97.426,-212.6964"/>
</g>
<!-- 28 -->
<g id="node9" class="node">
<title>28</title>
<ellipse fill="#ffffff" stroke="#000000" cx="146.5772" cy="-184.43" rx="18.2703" ry="18.2703"/>
<text text-anchor="middle" x="146.5772" y="-182.23" font-family="Times,serif" font-size="9.00" fill="#000000">28</text>
</g>
<!-- &#45;2&#45;&gt;28 -->
<g id="edge2" class="edge">
<title>&#45;2&#45;&gt;28</title>
<path fill="none" stroke="#00ff00" stroke-width=".5" d="M103.783,-247.8152C110.4585,-237.9277 121.3439,-221.8047 130.4651,-208.2946"/>
<polygon fill="#00ff00" stroke="#00ff00" stroke-width=".5" points="133.4476,-210.132 136.1424,-199.8856 127.646,-206.2151 133.4476,-210.132"/>
</g>
<!-- 31 -->
<g id="node11" class="node">
<title>31</title>
<ellipse fill="#ffffff" stroke="#000000" cx="305.5772" cy="-93.2756" rx="18.2703" ry="18.2703"/>
<text text-anchor="middle" x="305.5772" y="-91.0756" font-family="Times,serif" font-size="9.00" fill="#000000">31</text>
</g>
<!-- &#45;2&#45;&gt;31 -->
<g id="edge3" class="edge">
<title>&#45;2&#45;&gt;31</title>
<path fill="none" stroke="#ff0000" stroke-width=".2944" stroke-dasharray="1,5" d="M109.8834,-255.6198C135.0169,-252.237 193.0345,-241.5574 230.5772,-212.0071 239.0342,-205.3505 271.5044,-151.393 290.8395,-118.5507"/>
<polygon fill="#ff0000" stroke="#ff0000" stroke-width=".2944" points="294.1034,-119.9041 296.1457,-109.5079 288.0661,-116.3614 294.1034,-119.9041"/>
</g>
<!-- &#45;3 -->
<g id="node3" class="node">
<title>&#45;3</title>
<polygon fill="#d3d3d3" stroke="#000000" points="186.5772,-266.0071 162.5772,-266.0071 162.5772,-248.0071 186.5772,-248.0071 186.5772,-266.0071"/>
<text text-anchor="middle" x="174.5772" y="-254.8071" font-family="Times,serif" font-size="9.00" fill="#000000">&#45;3</text>
</g>
<!-- &#45;3&#45;&gt;26 -->
<g id="edge4" class="edge">
<title>&#45;3&#45;&gt;26</title>
<path fill="none" stroke="#ff0000" stroke-width=".3089" d="M162.9441,-247.9987C151.6315,-239.1207 134.08,-225.032 119.5772,-212.0071 117.039,-209.7277 114.4242,-207.2866 111.8596,-204.8341"/>
<polygon fill="#ff0000" stroke="#ff0000" stroke-width=".3089" points="114.0427,-202.074 104.4426,-197.592 109.1524,-207.0825 114.0427,-202.074"/>
</g>
<!-- &#45;3&#45;&gt;28 -->
<g id="edge5" class="edge">
<title>&#45;3&#45;&gt;28</title>
<path fill="none" stroke="#ff0000" stroke-width=".5" d="M171.0309,-247.8152C167.4895,-238.6357 161.8747,-224.0818 156.918,-211.2339"/>
<polygon fill="#ff0000" stroke="#ff0000" stroke-width=".5" points="160.166,-209.9287 153.3011,-201.8587 153.6351,-212.4483 160.166,-209.9287"/>
</g>
<!-- 29 -->
<g id="node10" class="node">
<title>29</title>
<ellipse fill="#ffffff" stroke="#000000" cx="203.5772" cy="-184.43" rx="18.2703" ry="18.2703"/>
<text text-anchor="middle" x="203.5772" y="-182.23" font-family="Times,serif" font-size="9.00" fill="#000000">29</text>
</g>
<!-- &#45;3&#45;&gt;29 -->
<g id="edge6" class="edge">
<title>&#45;3&#45;&gt;29</title>
<path fill="none" stroke="#ff0000" stroke-width=".5" d="M178.25,-247.8152C181.9422,-238.5749 187.8104,-223.8888 192.9689,-210.9788"/>
<polygon fill="#ff0000" stroke="#ff0000" stroke-width=".5" points="196.2671,-212.1571 196.7275,-201.5723 189.7668,-209.5597 196.2671,-212.1571"/>
</g>
<!-- &#45;3&#45;&gt;31 -->
<g id="edge7" class="edge">
<title>&#45;3&#45;&gt;31</title>
<path fill="none" stroke="#ff0000" stroke-width=".4248" d="M186.8795,-254.4622C206.9142,-249.6808 246.5593,-237.458 268.5772,-212.0071 290.5524,-186.6055 299.483,-148.2313 303.108,-122.0311"/>
<polygon fill="#ff0000" stroke="#ff0000" stroke-width=".4248" points="306.5999,-122.3084 304.3244,-111.9608 299.6504,-121.4689 306.5999,-122.3084"/>
</g>
<!-- 0 -->
<g id="node4" class="node">
<title>0</title>
<ellipse fill="#add8e6" stroke="#000000" cx="143.5772" cy="-93.2756" rx="14.7" ry="14.7"/>
<text text-anchor="middle" x="143.5772" y="-91.0756" font-family="Times,serif" font-size="9.00" fill="#000000">0</text>
</g>
<!-- 1 -->
<g id="node5" class="node">
<title>1</title>
<ellipse fill="#add8e6" stroke="#000000" cx="203.5772" cy="-14.8492" rx="14.7" ry="14.7"/>
<text text-anchor="middle" x="203.5772" y="-12.6492" font-family="Times,serif" font-size="9.00" fill="#000000">1</text>
</g>
<!-- 62214 -->
<g id="node6" class="node">
<title>62214</title>
<ellipse fill="#ffffff" stroke="#000000" cx="203.5772" cy="-93.2756" rx="27.6545" ry="27.6545"/>
<text text-anchor="middle" x="203.5772" y="-91.0756" font-family="Times,serif" font-size="9.00" fill="#000000">62214</text>
</g>
<!-- 62214&#45;&gt;1 -->
<g id="edge17" class="edge">
<title>62214&#45;&gt;1</title>
<path fill="none" stroke="#00ff00" stroke-width=".1608" d="M203.5772,-65.4046C203.5772,-57.0779 203.5772,-48.0047 203.5772,-39.8726"/>
<polygon fill="#00ff00" stroke="#00ff00" stroke-width=".1608" points="207.0773,-39.8662 203.5772,-29.8663 200.0773,-39.8663 207.0773,-39.8662"/>
</g>
<!-- 26&#45;&gt;1 -->
<g id="edge8" class="edge">
<title>26&#45;&gt;1</title>
<path fill="none" stroke="#ff0000" stroke-width=".4764" d="M89.3958,-166.114C87.4044,-141.0923 87.4393,-95.892 108.5772,-65.6985 125.341,-41.7528 157.0327,-28.0946 179.184,-21.0866"/>
<polygon fill="#ff0000" stroke="#ff0000" stroke-width=".4764" points="180.2802,-24.4126 188.8933,-18.2429 178.3126,-17.6948 180.2802,-24.4126"/>
</g>
<!-- 28&#45;&gt;0 -->
<g id="edge9" class="edge">
<title>28&#45;&gt;0</title>
<path fill="none" stroke="#ff0000" stroke-width=".2986" d="M145.9701,-165.9835C145.5209,-152.3366 144.9039,-133.5872 144.4089,-118.5464"/>
<polygon fill="#ff0000" stroke="#ff0000" stroke-width=".2986" points="147.9013,-118.2553 144.0741,-108.3759 140.9051,-118.4856 147.9013,-118.2553"/>
</g>
<!-- 28&#45;&gt;1 -->
<g id="edge10" class="edge">
<title>28&#45;&gt;1</title>
<path fill="none" stroke="#00ff00" stroke-width=".4558" stroke-dasharray="1,5" d="M136.3781,-168.8046C122.3029,-145.0861 100.687,-99.2154 119.5772,-65.6985 132.2643,-43.1877 159.3764,-29.5073 179.3834,-22.0923"/>
<polygon fill="#00ff00" stroke="#00ff00" stroke-width=".4558" points="180.7563,-25.3218 189.0842,-18.7722 178.4896,-18.6989 180.7563,-25.3218"/>
</g>
<!-- 29&#45;&gt;0 -->
<g id="edge11" class="edge">
<title>29&#45;&gt;0</title>
<path fill="none" stroke="#ff0000" stroke-width=".4767" d="M193.399,-168.9669C183.5255,-153.9667 168.4671,-131.0894 157.4896,-114.412"/>
<polygon fill="#ff0000" stroke="#ff0000" stroke-width=".4767" points="160.2913,-112.3026 151.8697,-105.874 154.4443,-116.1513 160.2913,-112.3026"/>
</g>
<!-- 29&#45;&gt;1 -->
<g id="edge12" class="edge">
<title>29&#45;&gt;1</title>
<path fill="none" stroke="#00ff00" stroke-width=".2981" stroke-dasharray="1,5" d="M215.1477,-169.7746C224.0566,-157.4991 235.6537,-139.1011 240.5772,-120.8528 246.9625,-97.186 248.1605,-89.009 240.5772,-65.6985 236.6466,-53.6163 228.6435,-42.0109 221.0828,-32.9456"/>
<polygon fill="#00ff00" stroke="#00ff00" stroke-width=".2981" points="223.6439,-30.5584 214.3932,-25.3936 218.404,-35.1999 223.6439,-30.5584"/>
</g>
<!-- 29&#45;&gt;62214 -->
<g id="edge16" class="edge">
<title>29&#45;&gt;62214</title>
<path fill="none" stroke="#00ff00" stroke-width=".5" d="M203.5772,-165.9835C203.5772,-156.005 203.5772,-143.2984 203.5772,-131.3084"/>
<polygon fill="#00ff00" stroke="#00ff00" stroke-width=".5" points="207.0773,-131.0427 203.5772,-121.0427 200.0773,-131.0428 207.0773,-131.0427"/>
</g>
<!-- 29&#45;&gt;31 -->
<g id="edge14" class="edge">
<title>29&#45;&gt;31</title>
<path fill="none" stroke="#00ff00" stroke-width=".5" d="M217.3333,-172.1365C234.5194,-156.7778 264.1121,-130.3317 284.2463,-112.3384"/>
<polygon fill="#00ff00" stroke="#00ff00" stroke-width=".5" points="286.589,-114.9388 291.7132,-105.6655 281.9245,-109.7193 286.589,-114.9388"/>
</g>
<!-- 31&#45;&gt;1 -->
<g id="edge13" class="edge">
<title>31&#45;&gt;1</title>
<path fill="none" stroke="#00ff00" stroke-width=".3584" d="M291.7699,-80.9379C286.2055,-76.0821 279.6717,-70.5246 273.5772,-65.6985 257.4453,-52.924 238.5334,-39.2603 224.4363,-29.3171"/>
<polygon fill="#00ff00" stroke="#00ff00" stroke-width=".3584" points="226.1434,-26.2396 215.9454,-23.367 222.1263,-31.9722 226.1434,-26.2396"/>
</g>
</g>
</svg>
