<?xml version="1.0" encoding="UTF-8" standalone="no"?>
<!DOCTYPE svg PUBLIC "-//W3C//DTD SVG 1.1//EN"
 "http://www.w3.org/Graphics/SVG/1.1/DTD/svg11.dtd">
<!-- Generated by graphviz version 2.40.1 (20161225.0304)
 -->
<!-- Title: %3 Pages: 1 -->
<svg width="368pt" height="275pt"
 viewBox="0.00 0.00 367.86 275.42" xmlns="http://www.w3.org/2000/svg" xmlns:xlink="http://www.w3.org/1999/xlink">
<g id="graph0" class="graph" transform="scale(1 1) rotate(0) translate(4 271.4214)">
<title>%3</title>
<polygon fill="#ffffff" stroke="transparent" points="-4,4 -4,-271.4214 363.8614,-271.4214 363.8614,4 -4,4"/>
<!-- &#45;1 -->
<g id="node1" class="node">
<title>&#45;1</title>
<polygon fill="#d3d3d3" stroke="#000000" points="180.1127,-267.4214 156.1127,-267.4214 156.1127,-249.4214 180.1127,-249.4214 180.1127,-267.4214"/>
<text text-anchor="middle" x="168.1127" y="-256.2214" font-family="Times,serif" font-size="9.00" fill="#000000">&#45;1</text>
</g>
<!-- 202379 -->
<g id="node6" class="node">
<title>202379</title>
<ellipse fill="#ffffff" stroke="#000000" cx="31.1127" cy="-182.3087" rx="31.2258" ry="31.2258"/>
<text text-anchor="middle" x="31.1127" y="-180.1087" font-family="Times,serif" font-size="9.00" fill="#000000">202379</text>
</g>
<!-- &#45;1&#45;&gt;202379 -->
<g id="edge26" class="edge">
<title>&#45;1&#45;&gt;202379</title>
<path fill="none" stroke="#00ff00" stroke-width=".3014" d="M155.9035,-253.1554C137.9927,-245.274 103.7281,-229.5987 76.1127,-213.4214 72.4248,-211.261 68.643,-208.8987 64.9142,-206.4724"/>
<polygon fill="#00ff00" stroke="#00ff00" stroke-width=".3014" points="66.6362,-203.4133 56.3791,-200.7593 62.7424,-209.2304 66.6362,-203.4133"/>
</g>
<!-- 2426 -->
<g id="node7" class="node">
<title>2426</title>
<ellipse fill="#ffffff" stroke="#000000" cx="268.1127" cy="-90.4472" rx="25" ry="25"/>
<text text-anchor="middle" x="268.1127" y="-88.2472" font-family="Times,serif" font-size="9.00" fill="#000000">2426</text>
</g>
<!-- &#45;1&#45;&gt;2426 -->
<g id="edge1" class="edge">
<title>&#45;1&#45;&gt;2426</title>
<path fill="none" stroke="#ff0000" stroke-width=".102" d="M180.1309,-257.1864C202.2653,-254.1907 249.043,-244.335 269.1127,-213.4214 286.1501,-187.1785 283.3537,-150.6827 277.8481,-124.2723"/>
<polygon fill="#ff0000" stroke="#ff0000" stroke-width=".102" points="281.2137,-123.291 275.5524,-114.3355 274.3933,-124.8668 281.2137,-123.291"/>
</g>
<!-- 2427 -->
<g id="node8" class="node">
<title>2427</title>
<ellipse fill="#ffffff" stroke="#000000" cx="67.1127" cy="-90.4472" rx="25" ry="25"/>
<text text-anchor="middle" x="67.1127" y="-88.2472" font-family="Times,serif" font-size="9.00" fill="#000000">2427</text>
</g>
<!-- &#45;1&#45;&gt;2427 -->
<g id="edge2" class="edge">
<title>&#45;1&#45;&gt;2427</title>
<path fill="none" stroke="#ff0000" stroke-width=".334" stroke-dasharray="1,5" d="M160.1177,-249.1107C152.6878,-240.2424 141.5329,-226.3632 133.1127,-213.4214 113.6624,-183.5261 94.7593,-147.3536 82.2046,-122.0059"/>
<polygon fill="#ff0000" stroke="#ff0000" stroke-width=".334" points="85.2627,-120.2928 77.7158,-112.8568 78.9784,-123.3761 85.2627,-120.2928"/>
</g>
<!-- 2428 -->
<g id="node9" class="node">
<title>2428</title>
<ellipse fill="#ffffff" stroke="#000000" cx="201.1127" cy="-90.4472" rx="25" ry="25"/>
<text text-anchor="middle" x="201.1127" y="-88.2472" font-family="Times,serif" font-size="9.00" fill="#000000">2428</text>
</g>
<!-- &#45;1&#45;&gt;2428 -->
<g id="edge3" class="edge">
<title>&#45;1&#45;&gt;2428</title>
<path fill="none" stroke="#ff0000" stroke-width=".2792" d="M173.5983,-249.1249C178.5429,-240.2666 185.5649,-226.3942 189.1127,-213.4214 197.0347,-184.4536 199.8809,-150.3911 200.8337,-125.4698"/>
<polygon fill="#ff0000" stroke="#ff0000" stroke-width=".2792" points="204.3345,-125.4907 201.1354,-115.3904 197.3377,-125.2812 204.3345,-125.4907"/>
</g>
<!-- 2430 -->
<g id="node10" class="node">
<title>2430</title>
<ellipse fill="#ffffff" stroke="#000000" cx="134.1127" cy="-90.4472" rx="25" ry="25"/>
<text text-anchor="middle" x="134.1127" y="-88.2472" font-family="Times,serif" font-size="9.00" fill="#000000">2430</text>
</g>
<!-- &#45;1&#45;&gt;2430 -->
<g id="edge4" class="edge">
<title>&#45;1&#45;&gt;2430</title>
<path fill="none" stroke="#00ff00" stroke-width=".4203" d="M162.651,-249.1183C157.7233,-240.2554 150.7127,-226.3799 147.1127,-213.4214 139.0676,-184.462 135.9339,-150.3988 134.7458,-125.475"/>
<polygon fill="#00ff00" stroke="#00ff00" stroke-width=".4203" points="138.2396,-125.2483 134.3471,-115.3945 131.2451,-125.525 138.2396,-125.2483"/>
</g>
<!-- 2431 -->
<g id="node11" class="node">
<title>2431</title>
<ellipse fill="#ffffff" stroke="#000000" cx="335.1127" cy="-90.4472" rx="25" ry="25"/>
<text text-anchor="middle" x="335.1127" y="-88.2472" font-family="Times,serif" font-size="9.00" fill="#000000">2431</text>
</g>
<!-- &#45;1&#45;&gt;2431 -->
<g id="edge5" class="edge">
<title>&#45;1&#45;&gt;2431</title>
<path fill="none" stroke="#00ff00" stroke-width=".2044" stroke-dasharray="1,5" d="M180.1801,-257.2329C204.165,-254.2447 258.1795,-244.2959 289.1127,-213.4214 312.8603,-189.7188 324.5068,-152.6176 330.117,-125.3618"/>
<polygon fill="#00ff00" stroke="#00ff00" stroke-width=".2044" points="333.5731,-125.9213 331.9842,-115.4463 326.694,-124.6258 333.5731,-125.9213"/>
</g>
<!-- &#45;2 -->
<g id="node2" class="node">
<title>&#45;2</title>
<polygon fill="#d3d3d3" stroke="#000000" points="260.1127,-191.3087 236.1127,-191.3087 236.1127,-173.3087 260.1127,-173.3087 260.1127,-191.3087"/>
<text text-anchor="middle" x="248.1127" y="-180.1087" font-family="Times,serif" font-size="9.00" fill="#000000">&#45;2</text>
</g>
<!-- &#45;2&#45;&gt;2426 -->
<g id="edge6" class="edge">
<title>&#45;2&#45;&gt;2426</title>
<path fill="none" stroke="#ff0000" stroke-width=".2937" d="M250.1035,-173.1648C252.5648,-161.8599 256.8942,-141.9744 260.6913,-124.5342"/>
<polygon fill="#ff0000" stroke="#ff0000" stroke-width=".2937" points="264.1398,-125.1472 262.8473,-114.6315 257.3,-123.658 264.1398,-125.1472"/>
</g>
<!-- &#45;2&#45;&gt;2427 -->
<g id="edge7" class="edge">
<title>&#45;2&#45;&gt;2427</title>
<path fill="none" stroke="#00ff00" stroke-width=".2881" d="M236.0891,-175.5096C224.2916,-168.9484 205.7065,-158.9033 189.1127,-151.196 150.4143,-133.2216 137.2698,-136.172 100.1127,-115.196 98.3821,-114.219 96.639,-113.1631 94.9064,-112.0567"/>
<polygon fill="#00ff00" stroke="#00ff00" stroke-width=".2881" points="96.6613,-109.016 86.4372,-106.2375 92.697,-114.7853 96.6613,-109.016"/>
</g>
<!-- &#45;2&#45;&gt;2428 -->
<g id="edge8" class="edge">
<title>&#45;2&#45;&gt;2428</title>
<path fill="none" stroke="#00ff00" stroke-width=".4301" stroke-dasharray="1,5" d="M243.4343,-173.1648C237.3444,-161.2621 226.3879,-139.8475 217.1488,-121.7898"/>
<polygon fill="#00ff00" stroke="#00ff00" stroke-width=".4301" points="220.1796,-120.0292 212.5088,-112.7209 213.9479,-123.2176 220.1796,-120.0292"/>
</g>
<!-- &#45;2&#45;&gt;2430 -->
<g id="edge9" class="edge">
<title>&#45;2&#45;&gt;2430</title>
<path fill="none" stroke="#00ff00" stroke-width=".1414" d="M236.7652,-173.1648C219.435,-159.2001 185.8563,-132.1423 161.8203,-112.774"/>
<polygon fill="#00ff00" stroke="#00ff00" stroke-width=".1414" points="163.7413,-109.8271 153.7587,-106.278 159.3492,-115.2778 163.7413,-109.8271"/>
</g>
<!-- &#45;2&#45;&gt;2431 -->
<g id="edge10" class="edge">
<title>&#45;2&#45;&gt;2431</title>
<path fill="none" stroke="#00ff00" stroke-width=".3495" d="M256.7727,-173.1648C269.2385,-160.0024 292.7205,-135.2083 310.7374,-116.1846"/>
<polygon fill="#00ff00" stroke="#00ff00" stroke-width=".3495" points="313.4949,-118.3629 317.83,-108.6956 308.4125,-113.5495 313.4949,-118.3629"/>
</g>
<!-- &#45;3 -->
<g id="node3" class="node">
<title>&#45;3</title>
<polygon fill="#d3d3d3" stroke="#000000" points="180.1127,-191.3087 156.1127,-191.3087 156.1127,-173.3087 180.1127,-173.3087 180.1127,-191.3087"/>
<text text-anchor="middle" x="168.1127" y="-180.1087" font-family="Times,serif" font-size="9.00" fill="#000000">&#45;3</text>
</g>
<!-- &#45;3&#45;&gt;2426 -->
<g id="edge11" class="edge">
<title>&#45;3&#45;&gt;2426</title>
<path fill="none" stroke="#00ff00" stroke-width=".3574" d="M178.0667,-173.1648C192.873,-159.5635 221.2002,-133.5417 242.1452,-114.3014"/>
<polygon fill="#00ff00" stroke="#00ff00" stroke-width=".3574" points="244.7709,-116.642 249.7675,-107.2994 240.0353,-111.4869 244.7709,-116.642"/>
</g>
<!-- &#45;3&#45;&gt;2427 -->
<g id="edge12" class="edge">
<title>&#45;3&#45;&gt;2427</title>
<path fill="none" stroke="#ff0000" stroke-width=".255" d="M158.0592,-173.1648C143.0389,-159.5036 114.242,-133.3122 93.0608,-114.0475"/>
<polygon fill="#ff0000" stroke="#ff0000" stroke-width=".255" points="95.3942,-111.4386 85.6413,-107.2994 90.6842,-116.6171 95.3942,-111.4386"/>
</g>
<!-- &#45;3&#45;&gt;2428 -->
<g id="edge13" class="edge">
<title>&#45;3&#45;&gt;2428</title>
<path fill="none" stroke="#00ff00" stroke-width=".1412" d="M171.3975,-173.1648C175.5516,-161.601 182.9309,-141.0594 189.2963,-123.3403"/>
<polygon fill="#00ff00" stroke="#00ff00" stroke-width=".1412" points="192.6144,-124.4562 192.7014,-113.8617 186.0265,-122.0896 192.6144,-124.4562"/>
</g>
<!-- &#45;3&#45;&gt;2430 -->
<g id="edge14" class="edge">
<title>&#45;3&#45;&gt;2430</title>
<path fill="none" stroke="#ff0000" stroke-width=".5" d="M164.7283,-173.1648C160.4483,-161.601 152.8454,-141.0594 146.2872,-123.3403"/>
<polygon fill="#ff0000" stroke="#ff0000" stroke-width=".5" points="149.5325,-122.025 142.7789,-113.8617 142.9677,-124.4549 149.5325,-122.025"/>
</g>
<!-- &#45;3&#45;&gt;2431 -->
<g id="edge15" class="edge">
<title>&#45;3&#45;&gt;2431</title>
<path fill="none" stroke="#ff0000" stroke-width=".3812" d="M180.2469,-175.7382C192.1264,-169.3465 210.7705,-159.4233 227.1127,-151.196 260.1381,-134.5696 270.5044,-134.3799 302.1127,-115.196 303.8116,-114.1649 305.5299,-113.0665 307.2434,-111.9276"/>
<polygon fill="#ff0000" stroke="#ff0000" stroke-width=".3812" points="309.4868,-114.6291 315.66,-106.0185 305.4645,-108.9001 309.4868,-114.6291"/>
</g>
<!-- 0 -->
<g id="node4" class="node">
<title>0</title>
<ellipse fill="#add8e6" stroke="#000000" cx="177.1127" cy="-14.8492" rx="14.7" ry="14.7"/>
<text text-anchor="middle" x="177.1127" y="-12.6492" font-family="Times,serif" font-size="9.00" fill="#000000">0</text>
</g>
<!-- 1 -->
<g id="node5" class="node">
<title>1</title>
<ellipse fill="#add8e6" stroke="#000000" cx="225.1127" cy="-14.8492" rx="14.7" ry="14.7"/>
<text text-anchor="middle" x="225.1127" y="-12.6492" font-family="Times,serif" font-size="9.00" fill="#000000">1</text>
</g>
<!-- 202379&#45;&gt;2427 -->
<g id="edge27" class="edge">
<title>202379&#45;&gt;2427</title>
<path fill="none" stroke="#ff0000" stroke-width=".3649" d="M42.5033,-153.2431C46.273,-143.624 50.4918,-132.8588 54.3571,-122.9957"/>
<polygon fill="#ff0000" stroke="#ff0000" stroke-width=".3649" points="57.6847,-124.0968 58.0748,-113.5092 51.1673,-121.5427 57.6847,-124.0968"/>
</g>
<!-- 2426&#45;&gt;0 -->
<g id="edge16" class="edge">
<title>2426&#45;&gt;0</title>
<path fill="none" stroke="#ff0000" stroke-width=".2485" stroke-dasharray="1,5" d="M248.8139,-74.4148C233.4068,-61.6154 211.9194,-43.7648 196.4913,-30.948"/>
<polygon fill="#ff0000" stroke="#ff0000" stroke-width=".2485" points="198.5492,-28.1073 188.6206,-24.4094 194.0761,-33.4917 198.5492,-28.1073"/>
</g>
<!-- 2426&#45;&gt;1 -->
<g id="edge17" class="edge">
<title>2426&#45;&gt;1</title>
<path fill="none" stroke="#00ff00" stroke-width=".1769" d="M255.6753,-68.5812C250.0363,-58.6673 243.3793,-46.9636 237.7201,-37.0142"/>
<polygon fill="#00ff00" stroke="#00ff00" stroke-width=".1769" points="240.6523,-35.0901 232.6658,-28.1283 234.5677,-38.551 240.6523,-35.0901"/>
</g>
<!-- 2427&#45;&gt;0 -->
<g id="edge18" class="edge">
<title>2427&#45;&gt;0</title>
<path fill="none" stroke="#ff0000" stroke-width=".2854" stroke-dasharray="1,5" d="M86.8648,-75.3334C91.1946,-72.1049 95.7799,-68.7498 100.1127,-65.6985 118.7262,-52.5904 140.4021,-38.366 156.0048,-28.3039"/>
<polygon fill="#ff0000" stroke="#ff0000" stroke-width=".2854" points="157.8967,-31.2485 164.4205,-22.9004 154.1146,-25.3582 157.8967,-31.2485"/>
</g>
<!-- 2427&#45;&gt;1 -->
<g id="edge19" class="edge">
<title>2427&#45;&gt;1</title>
<path fill="none" stroke="#00ff00" stroke-width=".293" d="M86.3559,-74.5092C90.7173,-71.3321 95.4442,-68.2062 100.1127,-65.6985 142.0944,-43.1474 158.1652,-50.351 201.1127,-29.6985 201.9627,-29.2897 202.8206,-28.8585 203.6804,-28.4104"/>
<polygon fill="#00ff00" stroke="#00ff00" stroke-width=".293" points="205.7685,-31.2471 212.6912,-23.2267 202.2779,-25.1794 205.7685,-31.2471"/>
</g>
<!-- 2428&#45;&gt;0 -->
<g id="edge20" class="edge">
<title>2428&#45;&gt;0</title>
<path fill="none" stroke="#ff0000" stroke-width=".426" stroke-dasharray="1,5" d="M193.5189,-66.5275C190.7157,-57.6976 187.54,-47.6942 184.7343,-38.8566"/>
<polygon fill="#ff0000" stroke="#ff0000" stroke-width=".426" points="188.017,-37.6297 181.6551,-29.1575 181.3451,-39.7478 188.017,-37.6297"/>
</g>
<!-- 2428&#45;&gt;1 -->
<g id="edge21" class="edge">
<title>2428&#45;&gt;1</title>
<path fill="none" stroke="#00ff00" stroke-width=".1705" d="M208.7064,-66.5275C211.5097,-57.6976 214.6854,-47.6942 217.4911,-38.8566"/>
<polygon fill="#00ff00" stroke="#00ff00" stroke-width=".1705" points="220.8803,-39.7478 220.5703,-29.1575 214.2084,-37.6297 220.8803,-39.7478"/>
</g>
<!-- 2430&#45;&gt;0 -->
<g id="edge22" class="edge">
<title>2430&#45;&gt;0</title>
<path fill="none" stroke="#ff0000" stroke-width=".3339" stroke-dasharray="1,5" d="M146.5501,-68.5812C152.1891,-58.6673 158.8461,-46.9636 164.5053,-37.0142"/>
<polygon fill="#ff0000" stroke="#ff0000" stroke-width=".3339" points="167.6577,-38.551 169.5596,-28.1283 161.5731,-35.0901 167.6577,-38.551"/>
</g>
<!-- 2430&#45;&gt;1 -->
<g id="edge23" class="edge">
<title>2430&#45;&gt;1</title>
<path fill="none" stroke="#00ff00" stroke-width=".1668" d="M153.4115,-74.4148C168.8186,-61.6154 190.306,-43.7648 205.7341,-30.948"/>
<polygon fill="#00ff00" stroke="#00ff00" stroke-width=".1668" points="208.1493,-33.4917 213.6048,-24.4094 203.6762,-28.1073 208.1493,-33.4917"/>
</g>
<!-- 2431&#45;&gt;0 -->
<g id="edge24" class="edge">
<title>2431&#45;&gt;0</title>
<path fill="none" stroke="#ff0000" stroke-width=".3825" d="M315.8695,-74.5092C311.5081,-71.3321 306.7812,-68.2062 302.1127,-65.6985 260.131,-43.1474 244.0602,-50.351 201.1127,-29.6985 200.2627,-29.2897 199.4048,-28.8585 198.545,-28.4104"/>
<polygon fill="#ff0000" stroke="#ff0000" stroke-width=".3825" points="199.9475,-25.1794 189.5342,-23.2267 196.4569,-31.2471 199.9475,-25.1794"/>
</g>
<!-- 2431&#45;&gt;1 -->
<g id="edge25" class="edge">
<title>2431&#45;&gt;1</title>
<path fill="none" stroke="#00ff00" stroke-width=".368" d="M315.3606,-75.3334C311.0308,-72.1049 306.4455,-68.7498 302.1127,-65.6985 283.4992,-52.5904 261.8233,-38.366 246.2206,-28.3039"/>
<polygon fill="#00ff00" stroke="#00ff00" stroke-width=".368" points="248.1108,-25.3582 237.8049,-22.9004 244.3287,-31.2485 248.1108,-25.3582"/>
</g>
</g>
</svg>
