<?xml version="1.0" encoding="UTF-8" standalone="no"?>
<!DOCTYPE svg PUBLIC "-//W3C//DTD SVG 1.1//EN"
 "http://www.w3.org/Graphics/SVG/1.1/DTD/svg11.dtd">
<!-- Generated by graphviz version 2.40.1 (20161225.0304)
 -->
<!-- Title: %3 Pages: 1 -->
<svg width="255pt" height="250pt"
 viewBox="0.00 0.00 254.60 249.97" xmlns="http://www.w3.org/2000/svg" xmlns:xlink="http://www.w3.org/1999/xlink">
<g id="graph0" class="graph" transform="scale(1 1) rotate(0) translate(4 245.9655)">
<title>%3</title>
<polygon fill="#ffffff" stroke="transparent" points="-4,4 -4,-245.9655 250.598,-245.9655 250.598,4 -4,4"/>
<!-- &#45;1 -->
<g id="node1" class="node">
<title>&#45;1</title>
<polygon fill="#d3d3d3" stroke="#000000" points="57.8492,-241.9655 33.8492,-241.9655 33.8492,-223.9655 57.8492,-223.9655 57.8492,-241.9655"/>
<text text-anchor="middle" x="45.8492" y="-230.7655" font-family="Times,serif" font-size="9.00" fill="#000000">&#45;1</text>
</g>
<!-- 8 -->
<g id="node6" class="node">
<title>8</title>
<ellipse fill="#ffffff" stroke="#000000" cx="14.8492" cy="-169.5807" rx="14.7" ry="14.7"/>
<text text-anchor="middle" x="14.8492" y="-167.3807" font-family="Times,serif" font-size="9.00" fill="#000000">8</text>
</g>
<!-- &#45;1&#45;&gt;8 -->
<g id="edge1" class="edge">
<title>&#45;1&#45;&gt;8</title>
<path fill="none" stroke="#ff0000" stroke-width=".323" d="M41.4077,-223.884C37.3677,-215.6236 31.2363,-203.0869 25.8824,-192.1398"/>
<polygon fill="#ff0000" stroke="#ff0000" stroke-width=".323" points="28.9873,-190.5218 21.4496,-183.0763 22.699,-193.5973 28.9873,-190.5218"/>
</g>
<!-- 9 -->
<g id="node7" class="node">
<title>9</title>
<ellipse fill="#ffffff" stroke="#000000" cx="62.8492" cy="-169.5807" rx="14.7" ry="14.7"/>
<text text-anchor="middle" x="62.8492" y="-167.3807" font-family="Times,serif" font-size="9.00" fill="#000000">9</text>
</g>
<!-- &#45;1&#45;&gt;9 -->
<g id="edge2" class="edge">
<title>&#45;1&#45;&gt;9</title>
<path fill="none" stroke="#00ff00" stroke-width=".4629" d="M48.2849,-223.884C50.3782,-216.0793 53.4953,-204.4571 56.3093,-193.9651"/>
<polygon fill="#00ff00" stroke="#00ff00" stroke-width=".4629" points="59.763,-194.5985 58.9731,-184.0331 53.002,-192.7851 59.763,-194.5985"/>
</g>
<!-- 10 -->
<g id="node8" class="node">
<title>10</title>
<ellipse fill="#ffffff" stroke="#000000" cx="113.8492" cy="-169.5807" rx="18.2703" ry="18.2703"/>
<text text-anchor="middle" x="113.8492" y="-167.3807" font-family="Times,serif" font-size="9.00" fill="#000000">10</text>
</g>
<!-- &#45;1&#45;&gt;10 -->
<g id="edge3" class="edge">
<title>&#45;1&#45;&gt;10</title>
<path fill="none" stroke="#00ff00" stroke-width=".3676" d="M55.592,-223.884C65.3238,-214.8127 80.588,-200.5845 93.0507,-188.9676"/>
<polygon fill="#00ff00" stroke="#00ff00" stroke-width=".3676" points="95.4455,-191.5201 100.374,-182.1414 90.6726,-186.3997 95.4455,-191.5201"/>
</g>
<!-- 11 -->
<g id="node9" class="node">
<title>11</title>
<ellipse fill="#ffffff" stroke="#000000" cx="168.8492" cy="-169.5807" rx="18.2703" ry="18.2703"/>
<text text-anchor="middle" x="168.8492" y="-167.3807" font-family="Times,serif" font-size="9.00" fill="#000000">11</text>
</g>
<!-- &#45;1&#45;&gt;11 -->
<g id="edge4" class="edge">
<title>&#45;1&#45;&gt;11</title>
<path fill="none" stroke="#ff0000" stroke-width=".3632" stroke-dasharray="1,5" d="M58.1736,-227.386C80.2501,-217.3486 125.6529,-196.4994 140.8492,-187.9655 142.1802,-187.2181 143.5327,-186.4306 144.8882,-185.6192"/>
<polygon fill="#ff0000" stroke="#ff0000" stroke-width=".3632" points="147.0818,-188.3742 153.6829,-180.0871 143.3546,-182.449 147.0818,-188.3742"/>
</g>
<!-- &#45;2 -->
<g id="node2" class="node">
<title>&#45;2</title>
<polygon fill="#d3d3d3" stroke="#000000" points="99.8492,-241.9655 75.8492,-241.9655 75.8492,-223.9655 99.8492,-223.9655 99.8492,-241.9655"/>
<text text-anchor="middle" x="87.8492" y="-230.7655" font-family="Times,serif" font-size="9.00" fill="#000000">&#45;2</text>
</g>
<!-- &#45;2&#45;&gt;8 -->
<g id="edge5" class="edge">
<title>&#45;2&#45;&gt;8</title>
<path fill="none" stroke="#00ff00" stroke-width=".4263" d="M77.3901,-223.884C66.0532,-214.0404 47.7227,-198.1243 33.8306,-186.062"/>
<polygon fill="#00ff00" stroke="#00ff00" stroke-width=".4263" points="36.0961,-183.3938 26.2505,-179.4803 31.5066,-188.6794 36.0961,-183.3938"/>
</g>
<!-- &#45;2&#45;&gt;9 -->
<g id="edge6" class="edge">
<title>&#45;2&#45;&gt;9</title>
<path fill="none" stroke="#00ff00" stroke-width=".3697" d="M84.2674,-223.884C81.0836,-215.8118 76.2891,-203.6562 72.0431,-192.8908"/>
<polygon fill="#00ff00" stroke="#00ff00" stroke-width=".3697" points="75.2848,-191.5705 68.3598,-183.5521 68.773,-194.1389 75.2848,-191.5705"/>
</g>
<!-- &#45;2&#45;&gt;10 -->
<g id="edge7" class="edge">
<title>&#45;2&#45;&gt;10</title>
<path fill="none" stroke="#00ff00" stroke-width=".1681" d="M91.5744,-223.884C94.5442,-216.6441 98.8614,-206.1193 102.9061,-196.2589"/>
<polygon fill="#00ff00" stroke="#00ff00" stroke-width=".1681" points="106.2429,-197.3464 106.7999,-186.7662 99.7666,-194.6898 106.2429,-197.3464"/>
</g>
<!-- &#45;2&#45;&gt;11 -->
<g id="edge8" class="edge">
<title>&#45;2&#45;&gt;11</title>
<path fill="none" stroke="#ff0000" stroke-width=".3597" d="M99.4546,-223.884C111.6347,-214.3527 131.0902,-199.1283 146.3058,-187.2216"/>
<polygon fill="#ff0000" stroke="#ff0000" stroke-width=".3597" points="148.5312,-189.9245 154.2496,-181.0053 144.2173,-184.4117 148.5312,-189.9245"/>
</g>
<!-- &#45;3 -->
<g id="node3" class="node">
<title>&#45;3</title>
<polygon fill="#d3d3d3" stroke="#000000" points="141.8492,-241.9655 117.8492,-241.9655 117.8492,-223.9655 141.8492,-223.9655 141.8492,-241.9655"/>
<text text-anchor="middle" x="129.8492" y="-230.7655" font-family="Times,serif" font-size="9.00" fill="#000000">&#45;3</text>
</g>
<!-- &#45;3&#45;&gt;8 -->
<g id="edge9" class="edge">
<title>&#45;3&#45;&gt;8</title>
<path fill="none" stroke="#ff0000" stroke-width=".4458" d="M117.6574,-227.2981C96.3067,-217.3134 53.0666,-196.8092 38.8492,-187.9655 37.5679,-187.1685 36.2717,-186.3186 34.9801,-185.4378"/>
<polygon fill="#ff0000" stroke="#ff0000" stroke-width=".4458" points="36.869,-182.4832 26.73,-179.4087 32.7388,-188.1349 36.869,-182.4832"/>
</g>
<!-- &#45;3&#45;&gt;9 -->
<g id="edge10" class="edge">
<title>&#45;3&#45;&gt;9</title>
<path fill="none" stroke="#ff0000" stroke-width=".1568" d="M120.2498,-223.884C110.0618,-214.2458 93.72,-198.7858 81.0738,-186.822"/>
<polygon fill="#ff0000" stroke="#ff0000" stroke-width=".1568" points="83.4351,-184.2377 73.7654,-179.9079 78.6244,-189.3228 83.4351,-184.2377"/>
</g>
<!-- &#45;3&#45;&gt;10 -->
<g id="edge11" class="edge">
<title>&#45;3&#45;&gt;10</title>
<path fill="none" stroke="#00ff00" stroke-width=".3131" d="M127.5568,-223.884C125.8054,-216.9458 123.2925,-206.9906 120.8954,-197.4946"/>
<polygon fill="#00ff00" stroke="#00ff00" stroke-width=".3131" points="124.2225,-196.3743 118.3814,-187.535 117.4354,-198.0876 124.2225,-196.3743"/>
</g>
<!-- &#45;3&#45;&gt;11 -->
<g id="edge12" class="edge">
<title>&#45;3&#45;&gt;11</title>
<path fill="none" stroke="#00ff00" stroke-width=".5" d="M135.437,-223.884C140.1938,-216.1531 147.2551,-204.6766 153.6624,-194.2631"/>
<polygon fill="#00ff00" stroke="#00ff00" stroke-width=".5" points="156.7909,-195.8575 159.0504,-185.5064 150.829,-192.1892 156.7909,-195.8575"/>
</g>
<!-- 0 -->
<g id="node4" class="node">
<title>0</title>
<ellipse fill="#add8e6" stroke="#000000" cx="87.8492" cy="-90.4472" rx="14.7" ry="14.7"/>
<text text-anchor="middle" x="87.8492" y="-88.2472" font-family="Times,serif" font-size="9.00" fill="#000000">0</text>
</g>
<!-- 1 -->
<g id="node5" class="node">
<title>1</title>
<ellipse fill="#add8e6" stroke="#000000" cx="130.8492" cy="-14.8492" rx="14.7" ry="14.7"/>
<text text-anchor="middle" x="130.8492" y="-12.6492" font-family="Times,serif" font-size="9.00" fill="#000000">1</text>
</g>
<!-- 8&#45;&gt;0 -->
<g id="edge13" class="edge">
<title>8&#45;&gt;0</title>
<path fill="none" stroke="#ff0000" stroke-width=".2703" d="M24.9996,-158.5776C36.8095,-145.7754 56.4999,-124.4306 70.6971,-109.0405"/>
<polygon fill="#ff0000" stroke="#ff0000" stroke-width=".2703" points="73.3418,-111.3354 77.5498,-101.6121 68.1967,-106.5891 73.3418,-111.3354"/>
</g>
<!-- 8&#45;&gt;1 -->
<g id="edge14" class="edge">
<title>8&#45;&gt;1</title>
<path fill="none" stroke="#00ff00" stroke-width=".1989" d="M16.8492,-154.6755C20.3979,-133.0574 29.5382,-92.6477 50.8492,-65.6985 65.8358,-46.747 89.9441,-32.8087 107.7829,-24.3665"/>
<polygon fill="#00ff00" stroke="#00ff00" stroke-width=".1989" points="109.2651,-27.5377 116.9506,-20.2449 106.3947,-21.1532 109.2651,-27.5377"/>
</g>
<!-- 9&#45;&gt;0 -->
<g id="edge15" class="edge">
<title>9&#45;&gt;0</title>
<path fill="none" stroke="#00ff00" stroke-width=".2743" d="M67.4346,-155.0664C70.9939,-143.8 76.0077,-127.9299 80.1756,-114.7369"/>
<polygon fill="#00ff00" stroke="#00ff00" stroke-width=".2743" points="83.6178,-115.4594 83.2929,-104.8695 76.943,-113.3506 83.6178,-115.4594"/>
</g>
<!-- 9&#45;&gt;1 -->
<g id="edge16" class="edge">
<title>9&#45;&gt;1</title>
<path fill="none" stroke="#00ff00" stroke-width=".4007" d="M59.1323,-154.8693C54.6409,-133.8409 49.3546,-94.5461 63.8492,-65.6985 73.079,-47.3292 92.4195,-33.7856 107.9591,-25.3154"/>
<polygon fill="#00ff00" stroke="#00ff00" stroke-width=".4007" points="109.6979,-28.3577 117.0192,-20.6994 106.5201,-22.1206 109.6979,-28.3577"/>
</g>
<!-- 10&#45;&gt;0 -->
<g id="edge17" class="edge">
<title>10&#45;&gt;0</title>
<path fill="none" stroke="#00ff00" stroke-width=".1304" d="M108.079,-152.0184C104.4324,-140.9195 99.6729,-126.4335 95.6866,-114.301"/>
<polygon fill="#00ff00" stroke="#00ff00" stroke-width=".1304" points="99.008,-113.197 92.5614,-104.7892 92.3578,-115.382 99.008,-113.197"/>
</g>
<!-- 10&#45;&gt;1 -->
<g id="edge18" class="edge">
<title>10&#45;&gt;1</title>
<path fill="none" stroke="#ff0000" stroke-width=".2061" d="M115.8661,-151.2234C118.903,-123.5822 124.6582,-71.1993 128.0841,-40.0174"/>
<polygon fill="#ff0000" stroke="#ff0000" stroke-width=".2061" points="131.5773,-40.2699 129.1904,-29.9474 124.6192,-39.5053 131.5773,-40.2699"/>
</g>
<!-- 11&#45;&gt;0 -->
<g id="edge19" class="edge">
<title>11&#45;&gt;0</title>
<path fill="none" stroke="#00ff00" stroke-width=".3797" d="M155.4737,-156.5134C142.0047,-143.3548 121.1282,-122.9593 106.1341,-108.3108"/>
<polygon fill="#00ff00" stroke="#00ff00" stroke-width=".3797" points="108.4987,-105.7278 98.8998,-101.2431 103.607,-110.7349 108.4987,-105.7278"/>
</g>
<!-- 11&#45;&gt;1 -->
<g id="edge20" class="edge">
<title>11&#45;&gt;1</title>
<path fill="none" stroke="#00ff00" stroke-width=".298" d="M164.4158,-151.5282C157.6207,-123.8593 144.6133,-70.895 136.9387,-39.6448"/>
<polygon fill="#00ff00" stroke="#00ff00" stroke-width=".298" points="140.2495,-38.4506 134.4654,-29.5739 133.4515,-40.1201 140.2495,-38.4506"/>
</g>
<!-- 1972 -->
<g id="node10" class="node">
<title>1972</title>
<ellipse fill="#ffffff" stroke="#000000" cx="221.8492" cy="-90.4472" rx="25" ry="25"/>
<text text-anchor="middle" x="221.8492" y="-88.2472" font-family="Times,serif" font-size="9.00" fill="#000000">1972</text>
</g>
<!-- 11&#45;&gt;1972 -->
<g id="edge21" class="edge">
<title>11&#45;&gt;1972</title>
<path fill="none" stroke="#00ff00" stroke-width=".5" stroke-dasharray="1,5" d="M179.3203,-153.9465C185.8592,-144.1835 194.4836,-131.3065 202.2559,-119.7017"/>
<polygon fill="#00ff00" stroke="#00ff00" stroke-width=".5" points="205.3279,-121.4045 207.9847,-111.1482 199.5119,-117.5092 205.3279,-121.4045"/>
</g>
<!-- 1972&#45;&gt;1 -->
<g id="edge22" class="edge">
<title>1972&#45;&gt;1</title>
<path fill="none" stroke="#ff0000" stroke-width=".3162" d="M202.5505,-74.4148C187.1433,-61.6154 165.6559,-43.7648 150.2278,-30.948"/>
<polygon fill="#ff0000" stroke="#ff0000" stroke-width=".3162" points="152.2857,-28.1073 142.3572,-24.4094 147.8126,-33.4917 152.2857,-28.1073"/>
</g>
</g>
</svg>
