<?xml version="1.0" encoding="UTF-8" standalone="no"?>
<!DOCTYPE svg PUBLIC "-//W3C//DTD SVG 1.1//EN"
 "http://www.w3.org/Graphics/SVG/1.1/DTD/svg11.dtd">
<!-- Generated by graphviz version 2.40.1 (20161225.0304)
 -->
<!-- Title: %3 Pages: 1 -->
<svg width="873pt" height="360pt"
 viewBox="0.00 0.00 873.36 359.50" xmlns="http://www.w3.org/2000/svg" xmlns:xlink="http://www.w3.org/1999/xlink">
<g id="graph0" class="graph" transform="scale(1 1) rotate(0) translate(4 355.5046)">
<title>%3</title>
<polygon fill="#ffffff" stroke="transparent" points="-4,4 -4,-355.5046 869.3584,-355.5046 869.3584,4 -4,4"/>
<!-- &#45;1 -->
<g id="node1" class="node">
<title>&#45;1</title>
<polygon fill="#d3d3d3" stroke="#000000" points="491.6399,-278.9275 467.6399,-278.9275 467.6399,-260.9275 491.6399,-260.9275 491.6399,-278.9275"/>
<text text-anchor="middle" x="479.6399" y="-267.7275" font-family="Times,serif" font-size="9.00" fill="#000000">&#45;1</text>
</g>
<!-- 1208 -->
<g id="node20" class="node">
<title>1208</title>
<ellipse fill="#ffffff" stroke="#000000" cx="569.6399" cy="-178.7731" rx="25" ry="25"/>
<text text-anchor="middle" x="569.6399" y="-176.5731" font-family="Times,serif" font-size="9.00" fill="#000000">1208</text>
</g>
<!-- &#45;1&#45;&gt;1208 -->
<g id="edge1" class="edge">
<title>&#45;1&#45;&gt;1208</title>
<path fill="none" stroke="#ff0000" stroke-width=".3229" d="M485.8838,-260.9193C489.876,-255.3725 495.2922,-248.2241 500.6399,-242.3503 513.7168,-227.9868 529.583,-213.2094 542.8022,-201.5205"/>
<polygon fill="#ff0000" stroke="#ff0000" stroke-width=".3229" points="545.4131,-203.8872 550.6424,-194.6728 540.8083,-198.615 545.4131,-203.8872"/>
</g>
<!-- 1209 -->
<g id="node21" class="node">
<title>1209</title>
<ellipse fill="#ffffff" stroke="#000000" cx="313.6399" cy="-90.4472" rx="25" ry="25"/>
<text text-anchor="middle" x="313.6399" y="-88.2472" font-family="Times,serif" font-size="9.00" fill="#000000">1209</text>
</g>
<!-- &#45;1&#45;&gt;1209 -->
<g id="edge2" class="edge">
<title>&#45;1&#45;&gt;1209</title>
<path fill="none" stroke="#ff0000" stroke-width=".2422" d="M480.8532,-260.7194C483.1779,-239.0646 485.9169,-184.2485 459.6399,-151.196 432.3122,-116.8219 382.1363,-101.6868 348.3327,-95.1684"/>
<polygon fill="#ff0000" stroke="#ff0000" stroke-width=".2422" points="348.8682,-91.7089 338.4109,-93.4104 347.6469,-98.6015 348.8682,-91.7089"/>
</g>
<!-- 1210 -->
<g id="node22" class="node">
<title>1210</title>
<ellipse fill="#ffffff" stroke="#000000" cx="636.6399" cy="-178.7731" rx="25" ry="25"/>
<text text-anchor="middle" x="636.6399" y="-176.5731" font-family="Times,serif" font-size="9.00" fill="#000000">1210</text>
</g>
<!-- &#45;1&#45;&gt;1210 -->
<g id="edge3" class="edge">
<title>&#45;1&#45;&gt;1210</title>
<path fill="none" stroke="#00ff00" stroke-width=".2444" d="M484.6289,-260.8618C488.3429,-254.8626 493.9203,-247.2302 500.6399,-242.3503 539.8778,-213.8548 561.4647,-230.2847 603.6399,-206.3503 605.8558,-205.0928 608.0673,-203.6805 610.2362,-202.177"/>
<polygon fill="#00ff00" stroke="#00ff00" stroke-width=".2444" points="612.452,-204.8894 618.3097,-196.0611 608.2252,-199.3096 612.452,-204.8894"/>
</g>
<!-- 1211 -->
<g id="node23" class="node">
<title>1211</title>
<ellipse fill="#ffffff" stroke="#000000" cx="358.6399" cy="-178.7731" rx="25" ry="25"/>
<text text-anchor="middle" x="358.6399" y="-176.5731" font-family="Times,serif" font-size="9.00" fill="#000000">1211</text>
</g>
<!-- &#45;1&#45;&gt;1211 -->
<g id="edge4" class="edge">
<title>&#45;1&#45;&gt;1211</title>
<path fill="none" stroke="#00ff00" stroke-width=".4318" d="M473.6953,-260.703C469.6585,-254.9356 463.9254,-247.6272 457.6399,-242.3503 432.0493,-220.8662 419.2597,-225.1542 391.6399,-206.3503 389.5338,-204.9164 387.4028,-203.3748 385.2909,-201.7797"/>
<polygon fill="#00ff00" stroke="#00ff00" stroke-width=".4318" points="387.3459,-198.9425 377.334,-195.4766 382.9994,-204.4295 387.3459,-198.9425"/>
</g>
<!-- 1213 -->
<g id="node24" class="node">
<title>1213</title>
<ellipse fill="#ffffff" stroke="#000000" cx="425.6399" cy="-178.7731" rx="25" ry="25"/>
<text text-anchor="middle" x="425.6399" y="-176.5731" font-family="Times,serif" font-size="9.00" fill="#000000">1213</text>
</g>
<!-- &#45;1&#45;&gt;1213 -->
<g id="edge5" class="edge">
<title>&#45;1&#45;&gt;1213</title>
<path fill="none" stroke="#ff0000" stroke-width=".278" d="M474.2647,-260.854C467.1769,-248.8895 454.3515,-227.2396 443.6518,-209.178"/>
<polygon fill="#ff0000" stroke="#ff0000" stroke-width=".278" points="446.4001,-206.9501 438.2919,-200.1304 440.3775,-210.5179 446.4001,-206.9501"/>
</g>
<!-- &#45;2 -->
<g id="node2" class="node">
<title>&#45;2</title>
<polygon fill="#d3d3d3" stroke="#000000" points="153.6399,-278.9275 129.6399,-278.9275 129.6399,-260.9275 153.6399,-260.9275 153.6399,-278.9275"/>
<text text-anchor="middle" x="141.6399" y="-267.7275" font-family="Times,serif" font-size="9.00" fill="#000000">&#45;2</text>
</g>
<!-- &#45;2&#45;&gt;1209 -->
<g id="edge6" class="edge">
<title>&#45;2&#45;&gt;1209</title>
<path fill="none" stroke="#00ff00" stroke-width=".5" stroke-dasharray="1,5" d="M129.5135,-263.4711C112.6213,-253.7 82.7234,-233.3906 70.6399,-206.3503 60.6388,-183.9702 55.5542,-170.5172 70.6399,-151.196 96.0752,-118.6191 217.7148,-100.9271 278.6665,-93.9762"/>
<polygon fill="#00ff00" stroke="#00ff00" stroke-width=".5" points="279.4,-97.4165 288.9551,-92.8394 278.6312,-90.4589 279.4,-97.4165"/>
</g>
<!-- &#45;2&#45;&gt;1211 -->
<g id="edge7" class="edge">
<title>&#45;2&#45;&gt;1211</title>
<path fill="none" stroke="#00ff00" stroke-width=".5" d="M146.5941,-260.8133C150.2925,-254.7923 155.8656,-247.154 162.6399,-242.3503 212.2726,-207.1547 282.4728,-190.6624 324.0014,-183.5566"/>
<polygon fill="#00ff00" stroke="#00ff00" stroke-width=".5" points="324.6025,-187.005 333.9118,-181.9467 323.4799,-180.0956 324.6025,-187.005"/>
</g>
<!-- &#45;2&#45;&gt;1213 -->
<g id="edge8" class="edge">
<title>&#45;2&#45;&gt;1213</title>
<path fill="none" stroke="#ff0000" stroke-width=".3814" d="M146.2102,-260.7297C149.8013,-254.5077 155.4034,-246.6646 162.6399,-242.3503 251.5107,-189.3657 298.407,-249.0768 392.6399,-206.3503 395.0198,-205.2712 397.3659,-203.9717 399.6428,-202.5322"/>
<polygon fill="#ff0000" stroke="#ff0000" stroke-width=".3814" points="401.9732,-205.1653 408.0074,-196.4567 397.8595,-199.5016 401.9732,-205.1653"/>
</g>
<!-- &#45;3 -->
<g id="node3" class="node">
<title>&#45;3</title>
<polygon fill="#d3d3d3" stroke="#000000" points="279.6399,-278.9275 255.6399,-278.9275 255.6399,-260.9275 279.6399,-260.9275 279.6399,-278.9275"/>
<text text-anchor="middle" x="267.6399" y="-267.7275" font-family="Times,serif" font-size="9.00" fill="#000000">&#45;3</text>
</g>
<!-- &#45;3&#45;&gt;1208 -->
<g id="edge9" class="edge">
<title>&#45;3&#45;&gt;1208</title>
<path fill="none" stroke="#ff0000" stroke-width=".3495" d="M272.2811,-260.8452C275.9057,-254.6777 281.5185,-246.8521 288.6399,-242.3503 354.2881,-200.8496 383.9588,-223.7967 459.6399,-206.3503 485.3111,-200.4324 514.1987,-193.1668 535.9268,-187.579"/>
<polygon fill="#ff0000" stroke="#ff0000" stroke-width=".3495" points="536.8632,-190.9521 545.6702,-185.0625 535.1126,-184.1745 536.8632,-190.9521"/>
</g>
<!-- &#45;3&#45;&gt;1209 -->
<g id="edge10" class="edge">
<title>&#45;3&#45;&gt;1209</title>
<path fill="none" stroke="#00ff00" stroke-width=".3094" d="M262.1908,-260.8619C250.6505,-240.4052 226.1821,-189.4617 243.6399,-151.196 251.8471,-133.2066 268.3039,-118.4902 283.1995,-108.0497"/>
<polygon fill="#00ff00" stroke="#00ff00" stroke-width=".3094" points="285.3145,-110.8469 291.7153,-102.4041 281.4465,-105.0126 285.3145,-110.8469"/>
</g>
<!-- &#45;3&#45;&gt;1210 -->
<g id="edge11" class="edge">
<title>&#45;3&#45;&gt;1210</title>
<path fill="none" stroke="#ff0000" stroke-width=".1235" d="M272.0045,-260.9043C275.5622,-254.5962 281.2109,-246.5732 288.6399,-242.3503 411.143,-172.7156 474.1254,-261.8661 603.6399,-206.3503 606.0417,-205.3207 608.4036,-204.0572 610.6917,-202.643"/>
<polygon fill="#ff0000" stroke="#ff0000" stroke-width=".1235" points="612.9993,-205.2948 619.0782,-196.6174 608.9148,-199.61 612.9993,-205.2948"/>
</g>
<!-- &#45;3&#45;&gt;1211 -->
<g id="edge12" class="edge">
<title>&#45;3&#45;&gt;1211</title>
<path fill="none" stroke="#00ff00" stroke-width=".3736" d="M273.869,-260.9058C277.8557,-255.3539 283.2711,-248.2049 288.6399,-242.3503 301.8714,-227.9212 317.9652,-213.1393 331.3834,-201.4643"/>
<polygon fill="#00ff00" stroke="#00ff00" stroke-width=".3736" points="334.0377,-203.7982 339.3429,-194.6273 329.4766,-198.4882 334.0377,-203.7982"/>
</g>
<!-- &#45;3&#45;&gt;1213 -->
<g id="edge13" class="edge">
<title>&#45;3&#45;&gt;1213</title>
<path fill="none" stroke="#ff0000" stroke-width=".1388" d="M272.6242,-260.8554C276.3362,-254.8533 281.913,-247.2201 288.6399,-242.3503 328.2605,-213.6675 350.0634,-230.4281 392.6399,-206.3503 394.8577,-205.0961 397.0706,-203.6862 399.2405,-202.1845"/>
<polygon fill="#ff0000" stroke="#ff0000" stroke-width=".1388" points="401.4548,-204.8981 407.316,-196.0721 397.2301,-199.3166 401.4548,-204.8981"/>
</g>
<!-- &#45;4 -->
<g id="node4" class="node">
<title>&#45;4</title>
<polygon fill="#d3d3d3" stroke="#000000" points="321.6399,-278.9275 297.6399,-278.9275 297.6399,-260.9275 321.6399,-260.9275 321.6399,-278.9275"/>
<text text-anchor="middle" x="309.6399" y="-267.7275" font-family="Times,serif" font-size="9.00" fill="#000000">&#45;4</text>
</g>
<!-- &#45;4&#45;&gt;1208 -->
<g id="edge14" class="edge">
<title>&#45;4&#45;&gt;1208</title>
<path fill="none" stroke="#ff0000" stroke-width=".3888" stroke-dasharray="1,5" d="M321.6413,-263.7509C333.4224,-257.8239 351.9958,-248.8403 368.6399,-242.3503 426.2014,-219.9055 495.2468,-199.4172 535.6032,-188.0642"/>
<polygon fill="#ff0000" stroke="#ff0000" stroke-width=".3888" points="536.7727,-191.3716 545.4635,-185.3118 534.8907,-184.6293 536.7727,-191.3716"/>
</g>
<!-- &#45;4&#45;&gt;1209 -->
<g id="edge15" class="edge">
<title>&#45;4&#45;&gt;1209</title>
<path fill="none" stroke="#00ff00" stroke-width=".5" d="M302.9102,-260.516C298.917,-255.0807 293.667,-248.1864 288.6399,-242.3503 274.0759,-225.4427 262.0342,-227.0266 253.6399,-206.3503 244.4188,-183.6377 244.3294,-173.872 253.6399,-151.196 260.152,-135.3353 273.0277,-121.4058 285.1873,-110.9001"/>
<polygon fill="#00ff00" stroke="#00ff00" stroke-width=".5" points="287.479,-113.5473 293.0005,-104.5049 283.0453,-108.1305 287.479,-113.5473"/>
</g>
<!-- &#45;4&#45;&gt;1210 -->
<g id="edge16" class="edge">
<title>&#45;4&#45;&gt;1210</title>
<path fill="none" stroke="#00ff00" stroke-width=".3566" d="M321.8882,-262.9357C333.5446,-256.5922 351.7614,-247.4721 368.6399,-242.3503 469.7499,-211.668 507.3361,-249.8271 603.6399,-206.3503 606.0216,-205.275 608.3689,-203.9783 610.6467,-202.5408"/>
<polygon fill="#00ff00" stroke="#00ff00" stroke-width=".3566" points="612.9754,-205.1754 619.013,-196.4693 608.8639,-199.5101 612.9754,-205.1754"/>
</g>
<!-- &#45;4&#45;&gt;1211 -->
<g id="edge17" class="edge">
<title>&#45;4&#45;&gt;1211</title>
<path fill="none" stroke="#00ff00" stroke-width=".4516" d="M314.5173,-260.854C320.8663,-249.0429 332.2891,-227.7932 341.9213,-209.8745"/>
<polygon fill="#00ff00" stroke="#00ff00" stroke-width=".4516" points="345.1068,-211.3407 346.7588,-200.8754 338.9411,-208.0263 345.1068,-211.3407"/>
</g>
<!-- &#45;4&#45;&gt;1213 -->
<g id="edge18" class="edge">
<title>&#45;4&#45;&gt;1213</title>
<path fill="none" stroke="#00ff00" stroke-width=".1384" d="M317.0896,-260.9274C322.0297,-255.2495 328.8344,-247.9565 335.6399,-242.3503 358.7664,-223.2992 368.424,-223.9959 392.6399,-206.3503 394.699,-204.8498 396.7956,-203.2593 398.883,-201.6295"/>
<polygon fill="#00ff00" stroke="#00ff00" stroke-width=".1384" points="401.2011,-204.2565 406.7901,-195.2557 396.808,-198.8066 401.2011,-204.2565"/>
</g>
<!-- &#45;5 -->
<g id="node5" class="node">
<title>&#45;5</title>
<polygon fill="#d3d3d3" stroke="#000000" points="237.6399,-351.5046 213.6399,-351.5046 213.6399,-333.5046 237.6399,-333.5046 237.6399,-351.5046"/>
<text text-anchor="middle" x="225.6399" y="-340.3046" font-family="Times,serif" font-size="9.00" fill="#000000">&#45;5</text>
</g>
<!-- 31008 -->
<g id="node18" class="node">
<title>31008</title>
<ellipse fill="#ffffff" stroke="#000000" cx="45.6399" cy="-269.9275" rx="27.6545" ry="27.6545"/>
<text text-anchor="middle" x="45.6399" y="-267.7275" font-family="Times,serif" font-size="9.00" fill="#000000">31008</text>
</g>
<!-- &#45;5&#45;&gt;31008 -->
<g id="edge85" class="edge">
<title>&#45;5&#45;&gt;31008</title>
<path fill="none" stroke="#ff0000" stroke-width=".1409" d="M213.4116,-339.6837C188.8157,-333.7605 131.9281,-318.795 87.6399,-297.5046 84.0284,-295.7685 80.3606,-293.7675 76.773,-291.6525"/>
<polygon fill="#ff0000" stroke="#ff0000" stroke-width=".1409" points="78.4363,-288.565 68.0982,-286.2465 74.734,-294.5058 78.4363,-288.565"/>
</g>
<!-- &#45;5&#45;&gt;1208 -->
<g id="edge19" class="edge">
<title>&#45;5&#45;&gt;1208</title>
<path fill="none" stroke="#00ff00" stroke-width=".3012" d="M237.6521,-341.6503C293.3458,-337.5815 524.6962,-319.4524 547.6399,-297.5046 569.8401,-276.268 573.8327,-240.4371 573.1886,-213.6801"/>
<polygon fill="#00ff00" stroke="#00ff00" stroke-width=".3012" points="576.6788,-213.3865 572.7187,-203.5597 569.6863,-213.7113 576.6788,-213.3865"/>
</g>
<!-- &#45;5&#45;&gt;1209 -->
<g id="edge20" class="edge">
<title>&#45;5&#45;&gt;1209</title>
<path fill="none" stroke="#ff0000" stroke-width=".5" d="M213.6132,-341.9283C171.9545,-339.6576 34.9309,-329.8071 8.6399,-297.5046 -6.8339,-278.4928 2.6556,-266.1217 8.6399,-242.3503 19.8685,-197.7465 21.171,-179.2246 57.6399,-151.196 92.1337,-124.6853 217.026,-103.9935 278.6953,-95.1385"/>
<polygon fill="#ff0000" stroke="#ff0000" stroke-width=".5" points="279.321,-98.5849 288.7337,-93.7217 278.3427,-91.6536 279.321,-98.5849"/>
</g>
<!-- &#45;5&#45;&gt;1210 -->
<g id="edge21" class="edge">
<title>&#45;5&#45;&gt;1210</title>
<path fill="none" stroke="#00ff00" stroke-width=".4451" d="M237.8351,-342.0453C320.6754,-338.8681 798.1311,-319.6287 818.6399,-297.5046 835.3045,-279.5275 832.8301,-262.3384 818.6399,-242.3503 801.2661,-217.878 718.9145,-196.492 671.1521,-185.8784"/>
<polygon fill="#00ff00" stroke="#00ff00" stroke-width=".4451" points="671.7521,-182.4271 661.2363,-183.7191 670.2626,-189.2668 671.7521,-182.4271"/>
</g>
<!-- &#45;5&#45;&gt;1211 -->
<g id="edge22" class="edge">
<title>&#45;5&#45;&gt;1211</title>
<path fill="none" stroke="#00ff00" stroke-width=".1411" stroke-dasharray="1,5" d="M213.521,-341.4759C190.6902,-338.8095 141.7111,-329.46 120.6399,-297.5046 107.1457,-277.0401 105.7098,-261.7921 120.6399,-242.3503 145.336,-210.1911 264.018,-190.7923 323.9096,-182.8939"/>
<polygon fill="#00ff00" stroke="#00ff00" stroke-width=".1411" points="324.5555,-186.3398 334.0286,-181.5954 323.6644,-179.3968 324.5555,-186.3398"/>
</g>
<!-- &#45;5&#45;&gt;1213 -->
<g id="edge23" class="edge">
<title>&#45;5&#45;&gt;1213</title>
<path fill="none" stroke="#ff0000" stroke-width=".483" d="M237.8236,-339.6667C258.6881,-334.3238 301.7935,-321.1288 330.6399,-297.5046 353.67,-278.6437 350.2223,-265.7365 368.6399,-242.3503 378.8493,-229.3866 390.957,-215.6763 401.3818,-204.3198"/>
<polygon fill="#ff0000" stroke="#ff0000" stroke-width=".483" points="404.0547,-206.5848 408.2862,-196.8716 398.9211,-201.8259 404.0547,-206.5848"/>
</g>
<!-- &#45;6 -->
<g id="node6" class="node">
<title>&#45;6</title>
<polygon fill="#d3d3d3" stroke="#000000" points="401.6399,-278.9275 377.6399,-278.9275 377.6399,-260.9275 401.6399,-260.9275 401.6399,-278.9275"/>
<text text-anchor="middle" x="389.6399" y="-267.7275" font-family="Times,serif" font-size="9.00" fill="#000000">&#45;6</text>
</g>
<!-- &#45;6&#45;&gt;1208 -->
<g id="edge24" class="edge">
<title>&#45;6&#45;&gt;1208</title>
<path fill="none" stroke="#ff0000" stroke-width=".4093" stroke-dasharray="1,5" d="M394.8626,-260.6955C398.6058,-254.7778 404.1254,-247.3044 410.6399,-242.3503 448.4906,-213.5653 501.1148,-195.9307 535.2742,-186.7502"/>
<polygon fill="#ff0000" stroke="#ff0000" stroke-width=".4093" points="536.4417,-190.0634 545.2458,-184.1695 534.6878,-183.2867 536.4417,-190.0634"/>
</g>
<!-- &#45;6&#45;&gt;1209 -->
<g id="edge25" class="edge">
<title>&#45;6&#45;&gt;1209</title>
<path fill="none" stroke="#00ff00" stroke-width=".5" stroke-dasharray="1,5" d="M377.5769,-263.9653C353.533,-251.8044 301.1275,-223.8146 291.6399,-206.3503 277.3119,-179.9761 286.5973,-145.8165 297.1565,-121.4278"/>
<polygon fill="#00ff00" stroke="#00ff00" stroke-width=".5" points="300.3687,-122.8198 301.3765,-112.273 294.0116,-119.8893 300.3687,-122.8198"/>
</g>
<!-- &#45;6&#45;&gt;1210 -->
<g id="edge26" class="edge">
<title>&#45;6&#45;&gt;1210</title>
<path fill="none" stroke="#ff0000" stroke-width=".156" d="M394.2494,-260.7944C397.859,-254.6029 403.4671,-246.7696 410.6399,-242.3503 484.9286,-196.579 524.7035,-243.5374 603.6399,-206.3503 606.0039,-205.2366 608.3383,-203.912 610.6071,-202.4549"/>
<polygon fill="#ff0000" stroke="#ff0000" stroke-width=".156" points="612.9531,-205.0751 618.9556,-196.3447 608.8188,-199.4264 612.9531,-205.0751"/>
</g>
<!-- &#45;6&#45;&gt;1211 -->
<g id="edge27" class="edge">
<title>&#45;6&#45;&gt;1211</title>
<path fill="none" stroke="#ff0000" stroke-width=".2323" d="M386.5541,-260.854C382.7135,-249.5608 375.9383,-229.6385 370.0246,-212.2496"/>
<polygon fill="#ff0000" stroke="#ff0000" stroke-width=".2323" points="373.2044,-210.729 366.671,-202.3884 366.5772,-212.9828 373.2044,-210.729"/>
</g>
<!-- &#45;6&#45;&gt;1213 -->
<g id="edge28" class="edge">
<title>&#45;6&#45;&gt;1213</title>
<path fill="none" stroke="#00ff00" stroke-width=".2632" d="M393.2233,-260.854C397.7551,-249.3792 405.8052,-228.9957 412.7492,-211.413"/>
<polygon fill="#00ff00" stroke="#00ff00" stroke-width=".2632" points="416.0459,-212.594 416.4638,-202.0074 409.5352,-210.0226 416.0459,-212.594"/>
</g>
<!-- &#45;7 -->
<g id="node7" class="node">
<title>&#45;7</title>
<polygon fill="#d3d3d3" stroke="#000000" points="237.6399,-278.9275 213.6399,-278.9275 213.6399,-260.9275 237.6399,-260.9275 237.6399,-278.9275"/>
<text text-anchor="middle" x="225.6399" y="-267.7275" font-family="Times,serif" font-size="9.00" fill="#000000">&#45;7</text>
</g>
<!-- 17361 -->
<g id="node19" class="node">
<title>17361</title>
<ellipse fill="#ffffff" stroke="#000000" cx="135.6399" cy="-178.7731" rx="27.6545" ry="27.6545"/>
<text text-anchor="middle" x="135.6399" y="-176.5731" font-family="Times,serif" font-size="9.00" fill="#000000">17361</text>
</g>
<!-- &#45;7&#45;&gt;17361 -->
<g id="edge83" class="edge">
<title>&#45;7&#45;&gt;17361</title>
<path fill="none" stroke="#00ff00" stroke-width=".5" d="M219.3959,-260.9193C215.4037,-255.3725 209.9876,-248.2241 204.6399,-242.3503 192.1986,-228.6851 177.2327,-214.6451 164.4234,-203.2466"/>
<polygon fill="#00ff00" stroke="#00ff00" stroke-width=".5" points="166.59,-200.491 156.7684,-196.5177 161.9685,-205.7486 166.59,-200.491"/>
</g>
<!-- &#45;7&#45;&gt;1208 -->
<g id="edge29" class="edge">
<title>&#45;7&#45;&gt;1208</title>
<path fill="none" stroke="#ff0000" stroke-width=".2094" d="M230.2265,-260.7568C233.8252,-254.5476 239.4298,-246.7086 246.6399,-242.3503 328.8044,-192.6838 365.6711,-226.0389 459.6399,-206.3503 485.4245,-200.9478 514.3069,-193.6588 536.0043,-187.9313"/>
<polygon fill="#ff0000" stroke="#ff0000" stroke-width=".2094" points="536.9687,-191.2965 545.7315,-185.3413 535.1676,-184.5322 536.9687,-191.2965"/>
</g>
<!-- &#45;7&#45;&gt;1209 -->
<g id="edge30" class="edge">
<title>&#45;7&#45;&gt;1209</title>
<path fill="none" stroke="#00ff00" stroke-width=".1204" stroke-dasharray="1,5" d="M220.6645,-260.8429C216.9567,-254.8351 211.3809,-247.2004 204.6399,-242.3503 164.2531,-213.2923 127.6174,-246.7948 98.6399,-206.3503 84.3631,-186.4239 83.8496,-170.7443 98.6399,-151.196 120.4061,-122.4274 224.0526,-103.3929 279.0979,-95.1354"/>
<polygon fill="#00ff00" stroke="#00ff00" stroke-width=".1204" points="279.7116,-98.583 289.1002,-93.6734 278.6991,-91.6566 279.7116,-98.583"/>
</g>
<!-- &#45;7&#45;&gt;1210 -->
<g id="edge31" class="edge">
<title>&#45;7&#45;&gt;1210</title>
<path fill="none" stroke="#ff0000" stroke-width=".2536" d="M229.9879,-260.8748C233.5373,-254.5521 239.183,-246.5237 246.6399,-242.3503 385.799,-164.4668 456.6522,-268.2028 603.6399,-206.3503 606.0485,-205.3367 608.4154,-204.0848 610.7068,-202.6787"/>
<polygon fill="#ff0000" stroke="#ff0000" stroke-width=".2536" points="613.007,-205.3366 619.1002,-196.6692 608.9319,-199.645 613.007,-205.3366"/>
</g>
<!-- &#45;7&#45;&gt;1211 -->
<g id="edge32" class="edge">
<title>&#45;7&#45;&gt;1211</title>
<path fill="none" stroke="#ff0000" stroke-width=".5" d="M231.2648,-260.7228C235.0984,-254.9632 240.5675,-247.6562 246.6399,-242.3503 270.6128,-221.4033 302.5651,-204.0901 326.205,-192.8483"/>
<polygon fill="#ff0000" stroke="#ff0000" stroke-width=".5" points="327.8623,-195.9378 335.4601,-188.5539 324.9159,-189.5881 327.8623,-195.9378"/>
</g>
<!-- &#45;7&#45;&gt;1213 -->
<g id="edge33" class="edge">
<title>&#45;7&#45;&gt;1213</title>
<path fill="none" stroke="#00ff00" stroke-width=".2694" d="M230.3293,-260.9199C233.9765,-254.7876 239.5967,-246.9735 246.6399,-242.3503 302.511,-205.6762 333.022,-236.5543 392.6399,-206.3503 394.971,-205.1693 397.2815,-203.7957 399.5335,-202.3044"/>
<polygon fill="#00ff00" stroke="#00ff00" stroke-width=".2694" points="401.9091,-204.8997 407.8489,-196.1265 397.7345,-199.2807 401.9091,-204.8997"/>
</g>
<!-- &#45;8 -->
<g id="node8" class="node">
<title>&#45;8</title>
<polygon fill="#d3d3d3" stroke="#000000" points="761.6399,-278.9275 737.6399,-278.9275 737.6399,-260.9275 761.6399,-260.9275 761.6399,-278.9275"/>
<text text-anchor="middle" x="749.6399" y="-267.7275" font-family="Times,serif" font-size="9.00" fill="#000000">&#45;8</text>
</g>
<!-- &#45;8&#45;&gt;1208 -->
<g id="edge34" class="edge">
<title>&#45;8&#45;&gt;1208</title>
<path fill="none" stroke="#00ff00" stroke-width=".1762" d="M744.7391,-260.7365C741.0645,-254.6812 735.498,-247.0335 728.6399,-242.3503 680.5433,-209.5065 654.104,-233.6164 602.6399,-206.3503 600.3307,-205.1269 598.0362,-203.7225 595.7953,-202.2096"/>
<polygon fill="#00ff00" stroke="#00ff00" stroke-width=".1762" points="597.6019,-199.1895 587.502,-195.9891 593.4017,-204.7894 597.6019,-199.1895"/>
</g>
<!-- &#45;8&#45;&gt;1209 -->
<g id="edge35" class="edge">
<title>&#45;8&#45;&gt;1209</title>
<path fill="none" stroke="#ff0000" stroke-width=".5" d="M751.3599,-260.9222C755.0238,-238.7389 760.9628,-181.0969 730.6399,-151.196 723.7995,-144.4509 447.3289,-107.8615 348.3968,-94.9561"/>
<polygon fill="#ff0000" stroke="#ff0000" stroke-width=".5" points="348.6795,-91.4634 338.3112,-93.6423 347.7753,-98.4048 348.6795,-91.4634"/>
</g>
<!-- &#45;8&#45;&gt;1210 -->
<g id="edge36" class="edge">
<title>&#45;8&#45;&gt;1210</title>
<path fill="none" stroke="#ff0000" stroke-width=".4894" d="M743.8511,-260.902C739.9522,-255.214 734.4719,-247.9193 728.6399,-242.3503 710.0569,-224.6053 686.1,-208.2161 667.2919,-196.5234"/>
<polygon fill="#ff0000" stroke="#ff0000" stroke-width=".4894" points="668.8789,-193.3918 658.5185,-191.1752 665.2353,-199.3688 668.8789,-193.3918"/>
</g>
<!-- &#45;8&#45;&gt;1211 -->
<g id="edge37" class="edge">
<title>&#45;8&#45;&gt;1211</title>
<path fill="none" stroke="#ff0000" stroke-width=".4968" d="M745.2844,-260.888C741.7314,-254.5718 736.0843,-246.5457 728.6399,-242.3503 597.4143,-168.396 530.3047,-265.1844 391.6399,-206.3503 389.2342,-205.3296 386.8696,-204.0725 384.5796,-202.6628"/>
<polygon fill="#ff0000" stroke="#ff0000" stroke-width=".4968" points="386.3554,-199.6294 376.1893,-196.6461 382.2761,-205.3179 386.3554,-199.6294"/>
</g>
<!-- &#45;9 -->
<g id="node9" class="node">
<title>&#45;9</title>
<polygon fill="#d3d3d3" stroke="#000000" points="195.6399,-278.9275 171.6399,-278.9275 171.6399,-260.9275 195.6399,-260.9275 195.6399,-278.9275"/>
<text text-anchor="middle" x="183.6399" y="-267.7275" font-family="Times,serif" font-size="9.00" fill="#000000">&#45;9</text>
</g>
<!-- &#45;9&#45;&gt;1208 -->
<g id="edge38" class="edge">
<title>&#45;9&#45;&gt;1208</title>
<path fill="none" stroke="#00ff00" stroke-width=".1977" stroke-dasharray="1,5" d="M188.1904,-260.6962C191.7721,-254.4584 197.3712,-246.6102 204.6399,-242.3503 303.3878,-184.4772 347.3066,-228.2974 459.6399,-206.3503 485.4955,-201.2987 514.3747,-193.9938 536.0528,-188.1712"/>
<polygon fill="#00ff00" stroke="#00ff00" stroke-width=".1977" points="537.0374,-191.5306 545.7699,-185.5311 535.2021,-184.7755 537.0374,-191.5306"/>
</g>
<!-- &#45;9&#45;&gt;1209 -->
<g id="edge39" class="edge">
<title>&#45;9&#45;&gt;1209</title>
<path fill="none" stroke="#00ff00" stroke-width=".2667" d="M178.3308,-260.8061C174.551,-254.9351 169.0233,-247.4722 162.6399,-242.3503 132.8603,-218.4557 105.2176,-238.5114 84.6399,-206.3503 71.4285,-185.7021 69.693,-170.6248 84.6399,-151.196 108.1916,-120.5819 220.439,-102.1907 278.5656,-94.5653"/>
<polygon fill="#00ff00" stroke="#00ff00" stroke-width=".2667" points="279.2786,-98.0028 288.7557,-93.2662 278.3933,-91.059 279.2786,-98.0028"/>
</g>
<!-- &#45;9&#45;&gt;1211 -->
<g id="edge40" class="edge">
<title>&#45;9&#45;&gt;1211</title>
<path fill="none" stroke="#00ff00" stroke-width=".2083" d="M188.8808,-260.7194C192.6318,-254.8118 198.1531,-247.3407 204.6399,-242.3503 241.1023,-214.2991 291.6999,-196.5632 324.795,-187.1526"/>
<polygon fill="#00ff00" stroke="#00ff00" stroke-width=".2083" points="325.7521,-190.5194 334.4689,-184.4971 323.8992,-183.7691 325.7521,-190.5194"/>
</g>
<!-- &#45;9&#45;&gt;1213 -->
<g id="edge41" class="edge">
<title>&#45;9&#45;&gt;1213</title>
<path fill="none" stroke="#00ff00" stroke-width=".2149" d="M188.2559,-260.805C191.8686,-254.6184 197.4777,-246.7868 204.6399,-242.3503 276.9625,-197.5511 315.7659,-242.791 392.6399,-206.3503 395.0012,-205.2309 397.3337,-203.9022 399.6011,-202.4422"/>
<polygon fill="#00ff00" stroke="#00ff00" stroke-width=".2149" points="401.9496,-205.0604 407.9469,-196.3263 397.812,-199.4141 401.9496,-205.0604"/>
</g>
<!-- &#45;10 -->
<g id="node10" class="node">
<title>&#45;10</title>
<polygon fill="#d3d3d3" stroke="#000000" points="539.1399,-278.9275 510.1399,-278.9275 510.1399,-260.9275 539.1399,-260.9275 539.1399,-278.9275"/>
<text text-anchor="middle" x="524.6399" y="-267.7275" font-family="Times,serif" font-size="9.00" fill="#000000">&#45;10</text>
</g>
<!-- &#45;10&#45;&gt;1208 -->
<g id="edge42" class="edge">
<title>&#45;10&#45;&gt;1208</title>
<path fill="none" stroke="#00ff00" stroke-width=".5" d="M529.1191,-260.854C534.912,-249.1196 545.3042,-228.0687 554.1136,-210.2239"/>
<polygon fill="#00ff00" stroke="#00ff00" stroke-width=".5" points="557.255,-211.7671 558.5433,-201.2508 550.9782,-208.6684 557.255,-211.7671"/>
</g>
<!-- &#45;10&#45;&gt;1209 -->
<g id="edge43" class="edge">
<title>&#45;10&#45;&gt;1209</title>
<path fill="none" stroke="#ff0000" stroke-width=".3787" d="M524.1881,-260.815C522.6135,-238.8879 515.6054,-182.6735 484.6399,-151.196 447.9851,-113.9352 387.023,-99.4555 348.6528,-93.8787"/>
<polygon fill="#ff0000" stroke="#ff0000" stroke-width=".3787" points="348.8414,-90.3732 338.4684,-92.5303 347.9225,-97.3127 348.8414,-90.3732"/>
</g>
<!-- &#45;10&#45;&gt;1210 -->
<g id="edge44" class="edge">
<title>&#45;10&#45;&gt;1210</title>
<path fill="none" stroke="#00ff00" stroke-width=".3775" stroke-dasharray="1,5" d="M536.207,-260.7282C551.6481,-248.4231 579.8175,-225.8871 603.6399,-206.3503 605.6099,-204.7346 607.6412,-203.0597 609.6823,-201.3699"/>
<polygon fill="#00ff00" stroke="#00ff00" stroke-width=".3775" points="612.0434,-203.9586 617.4948,-194.8738 607.5679,-198.5762 612.0434,-203.9586"/>
</g>
<!-- &#45;10&#45;&gt;1211 -->
<g id="edge45" class="edge">
<title>&#45;10&#45;&gt;1211</title>
<path fill="none" stroke="#00ff00" stroke-width=".5" d="M518.692,-260.8427C514.3376,-254.8348 507.9333,-247.2001 500.6399,-242.3503 458.1566,-214.1007 436.2265,-231.1474 391.6399,-206.3503 389.3561,-205.0802 387.08,-203.6419 384.8521,-202.1051"/>
<polygon fill="#00ff00" stroke="#00ff00" stroke-width=".5" points="386.6677,-199.0895 376.5842,-195.8376 382.4389,-204.6679 386.6677,-199.0895"/>
</g>
<!-- &#45;10&#45;&gt;1213 -->
<g id="edge46" class="edge">
<title>&#45;10&#45;&gt;1213</title>
<path fill="none" stroke="#00ff00" stroke-width=".2031" d="M516.9762,-260.4192C512.4216,-254.9517 506.4216,-248.0574 500.6399,-242.3503 485.8133,-227.7152 468.0772,-212.5843 453.5758,-200.7567"/>
<polygon fill="#00ff00" stroke="#00ff00" stroke-width=".2031" points="455.4373,-197.7613 445.4577,-194.2033 451.0403,-203.2081 455.4373,-197.7613"/>
</g>
<!-- &#45;11 -->
<g id="node11" class="node">
<title>&#45;11</title>
<polygon fill="#d3d3d3" stroke="#000000" points="625.1399,-278.9275 596.1399,-278.9275 596.1399,-260.9275 625.1399,-260.9275 625.1399,-278.9275"/>
<text text-anchor="middle" x="610.6399" y="-267.7275" font-family="Times,serif" font-size="9.00" fill="#000000">&#45;11</text>
</g>
<!-- &#45;11&#45;&gt;1208 -->
<g id="edge47" class="edge">
<title>&#45;11&#45;&gt;1208</title>
<path fill="none" stroke="#00ff00" stroke-width=".5" d="M606.5587,-260.854C601.3634,-249.3032 592.1077,-228.7254 584.1639,-211.0641"/>
<polygon fill="#00ff00" stroke="#00ff00" stroke-width=".5" points="587.2138,-209.3124 579.9198,-201.6282 580.8299,-212.1838 587.2138,-209.3124"/>
</g>
<!-- &#45;11&#45;&gt;1209 -->
<g id="edge48" class="edge">
<title>&#45;11&#45;&gt;1209</title>
<path fill="none" stroke="#00ff00" stroke-width=".3203" d="M618.0729,-260.5297C622.4673,-255.099 628.2173,-248.2047 633.6399,-242.3503 649.2309,-225.5176 661.7147,-227.487 670.6399,-206.3503 680.1755,-183.768 686.4526,-169.9268 670.6399,-151.196 660.2149,-138.8472 436.1788,-107.1385 348.4392,-95.1412"/>
<polygon fill="#00ff00" stroke="#00ff00" stroke-width=".3203" points="348.8194,-91.6607 338.4384,-93.7784 347.8742,-98.5966 348.8194,-91.6607"/>
</g>
<!-- &#45;11&#45;&gt;1210 -->
<g id="edge49" class="edge">
<title>&#45;11&#45;&gt;1210</title>
<path fill="none" stroke="#ff0000" stroke-width=".5" d="M613.2279,-260.854C616.4276,-249.6361 622.0559,-229.9037 626.9921,-212.5977"/>
<polygon fill="#ff0000" stroke="#ff0000" stroke-width=".5" points="630.4176,-213.3478 629.7949,-202.7713 623.6861,-211.4277 630.4176,-213.3478"/>
</g>
<!-- &#45;11&#45;&gt;1211 -->
<g id="edge50" class="edge">
<title>&#45;11&#45;&gt;1211</title>
<path fill="none" stroke="#00ff00" stroke-width=".2653" d="M595.9257,-262.5538C583.3488,-256.4793 564.6416,-247.9789 547.6399,-242.3503 480.0898,-219.9872 455.3528,-238.0326 391.6399,-206.3503 389.3,-205.1868 386.9831,-203.8259 384.7266,-202.3434"/>
<polygon fill="#00ff00" stroke="#00ff00" stroke-width=".2653" points="386.5227,-199.3184 376.4024,-196.1831 382.3586,-204.9452 386.5227,-199.3184"/>
</g>
<!-- &#45;11&#45;&gt;1213 -->
<g id="edge51" class="edge">
<title>&#45;11&#45;&gt;1213</title>
<path fill="none" stroke="#ff0000" stroke-width=".3371" d="M596.1232,-262.7747C566.315,-248.0874 497.6118,-214.2356 457.1071,-194.2778"/>
<polygon fill="#ff0000" stroke="#ff0000" stroke-width=".3371" points="458.4609,-191.0431 447.9437,-189.7628 455.3669,-197.3223 458.4609,-191.0431"/>
</g>
<!-- &#45;12 -->
<g id="node12" class="node">
<title>&#45;12</title>
<polygon fill="#d3d3d3" stroke="#000000" points="672.1399,-278.9275 643.1399,-278.9275 643.1399,-260.9275 672.1399,-260.9275 672.1399,-278.9275"/>
<text text-anchor="middle" x="657.6399" y="-267.7275" font-family="Times,serif" font-size="9.00" fill="#000000">&#45;12</text>
</g>
<!-- &#45;12&#45;&gt;1208 -->
<g id="edge52" class="edge">
<title>&#45;12&#45;&gt;1208</title>
<path fill="none" stroke="#ff0000" stroke-width=".3069" d="M649.8039,-260.587C645.192,-255.1754 639.192,-248.2811 633.6399,-242.3503 621.2598,-229.1259 607.0021,-214.8731 595.0906,-203.2207"/>
<polygon fill="#ff0000" stroke="#ff0000" stroke-width=".3069" points="597.253,-200.4413 587.6451,-195.9759 592.3713,-205.4582 597.253,-200.4413"/>
</g>
<!-- &#45;12&#45;&gt;1209 -->
<g id="edge53" class="edge">
<title>&#45;12&#45;&gt;1209</title>
<path fill="none" stroke="#00ff00" stroke-width=".1219" d="M665.0424,-260.6904C681.51,-238.9729 717.5959,-184.0313 689.6399,-151.196 678.5454,-138.1652 439.436,-106.474 348.4046,-94.8314"/>
<polygon fill="#00ff00" stroke="#00ff00" stroke-width=".1219" points="348.6738,-91.3375 338.3115,-93.5452 347.7888,-98.2814 348.6738,-91.3375"/>
</g>
<!-- &#45;12&#45;&gt;1210 -->
<g id="edge54" class="edge">
<title>&#45;12&#45;&gt;1210</title>
<path fill="none" stroke="#ff0000" stroke-width=".5" d="M655.5495,-260.854C652.9825,-249.7114 648.4802,-230.1682 644.5127,-212.9465"/>
<polygon fill="#ff0000" stroke="#ff0000" stroke-width=".5" points="647.9128,-212.1149 642.2571,-203.1559 641.0915,-213.6864 647.9128,-212.1149"/>
</g>
<!-- &#45;12&#45;&gt;1211 -->
<g id="edge55" class="edge">
<title>&#45;12&#45;&gt;1211</title>
<path fill="none" stroke="#00ff00" stroke-width=".4139" d="M652.1226,-260.7018C647.88,-254.4667 641.4328,-246.6193 633.6399,-242.3503 538.2728,-190.1073 490.8441,-250.8781 391.6399,-206.3503 389.2558,-205.2802 386.9068,-203.9872 384.6278,-202.5524"/>
<polygon fill="#00ff00" stroke="#00ff00" stroke-width=".4139" points="386.4099,-199.5213 376.2591,-196.486 382.3015,-205.1889 386.4099,-199.5213"/>
</g>
<!-- &#45;12&#45;&gt;1213 -->
<g id="edge56" class="edge">
<title>&#45;12&#45;&gt;1213</title>
<path fill="none" stroke="#00ff00" stroke-width=".5" d="M651.7263,-260.7905C647.3872,-254.7594 640.9871,-247.1183 633.6399,-242.3503 604.6732,-223.5521 510.9255,-199.1624 459.7483,-186.7662"/>
<polygon fill="#00ff00" stroke="#00ff00" stroke-width=".5" points="460.353,-183.312 449.8122,-184.3807 458.7188,-190.1186 460.353,-183.312"/>
</g>
<!-- &#45;13 -->
<g id="node13" class="node">
<title>&#45;13</title>
<polygon fill="#d3d3d3" stroke="#000000" points="719.1399,-278.9275 690.1399,-278.9275 690.1399,-260.9275 719.1399,-260.9275 719.1399,-278.9275"/>
<text text-anchor="middle" x="704.6399" y="-267.7275" font-family="Times,serif" font-size="9.00" fill="#000000">&#45;13</text>
</g>
<!-- &#45;13&#45;&gt;1208 -->
<g id="edge57" class="edge">
<title>&#45;13&#45;&gt;1208</title>
<path fill="none" stroke="#00ff00" stroke-width=".2556" d="M698.3152,-260.8439C693.887,-254.9888 687.5452,-247.5295 680.6399,-242.3503 650.0957,-219.441 634.902,-226.7691 602.6399,-206.3503 600.487,-204.9877 598.3216,-203.4984 596.1855,-201.9403"/>
<polygon fill="#00ff00" stroke="#00ff00" stroke-width=".2556" points="598.2212,-199.0896 588.1789,-195.7129 593.9236,-204.6151 598.2212,-199.0896"/>
</g>
<!-- &#45;13&#45;&gt;1209 -->
<g id="edge58" class="edge">
<title>&#45;13&#45;&gt;1209</title>
<path fill="none" stroke="#00ff00" stroke-width=".5" d="M708.7015,-260.854C717.7904,-239.0135 736.9172,-182.9769 709.6399,-151.196 703.7248,-144.3043 443.7291,-108.2025 348.2959,-95.1564"/>
<polygon fill="#00ff00" stroke="#00ff00" stroke-width=".5" points="348.6606,-91.6738 338.2791,-93.7892 347.7138,-98.6095 348.6606,-91.6738"/>
</g>
<!-- &#45;13&#45;&gt;1210 -->
<g id="edge59" class="edge">
<title>&#45;13&#45;&gt;1210</title>
<path fill="none" stroke="#00ff00" stroke-width=".1137" stroke-dasharray="1,5" d="M697.8712,-260.854C688.549,-248.3576 671.3449,-225.2954 657.5412,-206.7914"/>
<polygon fill="#00ff00" stroke="#00ff00" stroke-width=".1137" points="660.2636,-204.5873 651.4787,-198.6647 654.6528,-208.7729 660.2636,-204.5873"/>
</g>
<!-- &#45;13&#45;&gt;1211 -->
<g id="edge60" class="edge">
<title>&#45;13&#45;&gt;1211</title>
<path fill="none" stroke="#ff0000" stroke-width=".5" d="M699.3334,-260.912C695.1092,-254.6078 688.595,-246.5862 680.6399,-242.3503 566.3897,-181.5154 510.3482,-257.9479 391.6399,-206.3503 389.2433,-205.3086 386.8851,-204.0363 384.5998,-202.6158"/>
<polygon fill="#ff0000" stroke="#ff0000" stroke-width=".5" points="386.3782,-199.5833 376.2185,-196.578 382.2865,-205.263 386.3782,-199.5833"/>
</g>
<!-- &#45;13&#45;&gt;1213 -->
<g id="edge61" class="edge">
<title>&#45;13&#45;&gt;1213</title>
<path fill="none" stroke="#00ff00" stroke-width=".5" d="M698.8056,-260.6647C694.5019,-254.5774 688.1115,-246.9209 680.6399,-242.3503 623.9967,-207.7 600.066,-222.4239 535.6399,-206.3503 510.0788,-199.9731 481.1863,-192.7283 459.4283,-187.2651"/>
<polygon fill="#00ff00" stroke="#00ff00" stroke-width=".5" points="460.2206,-183.8555 449.6692,-184.8141 458.5154,-190.6446 460.2206,-183.8555"/>
</g>
<!-- &#45;14 -->
<g id="node14" class="node">
<title>&#45;14</title>
<polygon fill="#d3d3d3" stroke="#000000" points="809.1399,-278.9275 780.1399,-278.9275 780.1399,-260.9275 809.1399,-260.9275 809.1399,-278.9275"/>
<text text-anchor="middle" x="794.6399" y="-267.7275" font-family="Times,serif" font-size="9.00" fill="#000000">&#45;14</text>
</g>
<!-- 0 -->
<g id="node16" class="node">
<title>0</title>
<ellipse fill="#add8e6" stroke="#000000" cx="526.6399" cy="-90.4472" rx="14.7" ry="14.7"/>
<text text-anchor="middle" x="526.6399" y="-88.2472" font-family="Times,serif" font-size="9.00" fill="#000000">0</text>
</g>
<!-- &#45;14&#45;&gt;0 -->
<g id="edge82" class="edge">
<title>&#45;14&#45;&gt;0</title>
<path fill="none" stroke="#00ff00" stroke-width=".5" d="M808.1758,-260.8114C823.054,-249.885 846.1087,-230.0509 855.6399,-206.3503 864.7859,-183.6074 871.3208,-170.0374 855.6399,-151.196 816.7557,-104.4747 621.5335,-93.5434 551.6059,-91.11"/>
<polygon fill="#00ff00" stroke="#00ff00" stroke-width=".5" points="551.6083,-87.6084 541.5019,-90.7883 551.3854,-94.6049 551.6083,-87.6084"/>
</g>
<!-- &#45;14&#45;&gt;1208 -->
<g id="edge62" class="edge">
<title>&#45;14&#45;&gt;1208</title>
<path fill="none" stroke="#00ff00" stroke-width=".5" d="M789.0368,-260.8527C784.7538,-254.6886 778.2936,-246.8643 770.6399,-242.3503 704.8654,-203.5581 671.2794,-239.8127 602.6399,-206.3503 600.2909,-205.2052 597.9674,-203.8577 595.7064,-202.3846"/>
<polygon fill="#00ff00" stroke="#00ff00" stroke-width=".5" points="597.4994,-199.3582 587.373,-196.2428 593.3464,-204.9932 597.4994,-199.3582"/>
</g>
<!-- &#45;14&#45;&gt;1209 -->
<g id="edge63" class="edge">
<title>&#45;14&#45;&gt;1209</title>
<path fill="none" stroke="#00ff00" stroke-width=".4647" d="M794.674,-260.7296C794.2156,-238.1065 789.6346,-179.5404 755.6399,-151.196 751.7036,-147.914 451.9346,-108.5065 348.371,-94.9748"/>
<polygon fill="#00ff00" stroke="#00ff00" stroke-width=".4647" points="348.784,-91.4991 338.415,-93.6747 347.8775,-98.4401 348.784,-91.4991"/>
</g>
<!-- &#45;14&#45;&gt;1210 -->
<g id="edge64" class="edge">
<title>&#45;14&#45;&gt;1210</title>
<path fill="none" stroke="#ff0000" stroke-width=".2779" stroke-dasharray="1,5" d="M788.2971,-260.868C783.8612,-255.0231 777.5176,-247.566 770.6399,-242.3503 739.623,-218.8286 698.5096,-200.9164 670.0407,-190.1912"/>
<polygon fill="#ff0000" stroke="#ff0000" stroke-width=".2779" points="671.1291,-186.8624 660.5355,-186.6999 668.7156,-193.4332 671.1291,-186.8624"/>
</g>
<!-- &#45;14&#45;&gt;1211 -->
<g id="edge65" class="edge">
<title>&#45;14&#45;&gt;1211</title>
<path fill="none" stroke="#00ff00" stroke-width=".5" d="M789.3697,-260.8426C785.1636,-254.5038 778.6561,-246.4695 770.6399,-242.3503 620.1439,-165.0167 547.7866,-271.5248 391.6399,-206.3503 389.2283,-205.3437 386.8593,-204.0969 384.5663,-202.6944"/>
<polygon fill="#00ff00" stroke="#00ff00" stroke-width=".5" points="386.3405,-199.6603 376.17,-196.6919 382.2695,-205.3548 386.3405,-199.6603"/>
</g>
<!-- &#45;14&#45;&gt;1213 -->
<g id="edge66" class="edge">
<title>&#45;14&#45;&gt;1213</title>
<path fill="none" stroke="#00ff00" stroke-width=".1242" d="M789.1169,-260.7122C784.8716,-254.482 778.4236,-246.6362 770.6399,-242.3503 678.081,-191.3847 639.2211,-227.2205 535.6399,-206.3503 509.8143,-201.1468 480.9338,-193.8487 459.2475,-188.0673"/>
<polygon fill="#00ff00" stroke="#00ff00" stroke-width=".1242" points="460.0923,-184.6702 449.5261,-185.449 458.2717,-191.4293 460.0923,-184.6702"/>
</g>
<!-- &#45;15 -->
<g id="node15" class="node">
<title>&#45;15</title>
<polygon fill="#d3d3d3" stroke="#000000" points="449.1399,-278.9275 420.1399,-278.9275 420.1399,-260.9275 449.1399,-260.9275 449.1399,-278.9275"/>
<text text-anchor="middle" x="434.6399" y="-267.7275" font-family="Times,serif" font-size="9.00" fill="#000000">&#45;15</text>
</g>
<!-- &#45;15&#45;&gt;1208 -->
<g id="edge67" class="edge">
<title>&#45;15&#45;&gt;1208</title>
<path fill="none" stroke="#00ff00" stroke-width=".377" stroke-dasharray="1,5" d="M441.318,-260.7845C445.7989,-255.0497 452.0665,-247.7469 458.6399,-242.3503 483.0792,-222.2862 514.6698,-204.8738 537.8967,-193.3701"/>
<polygon fill="#00ff00" stroke="#00ff00" stroke-width=".377" points="539.5129,-196.4761 546.9803,-188.9602 536.4558,-190.179 539.5129,-196.4761"/>
</g>
<!-- &#45;15&#45;&gt;1209 -->
<g id="edge68" class="edge">
<title>&#45;15&#45;&gt;1209</title>
<path fill="none" stroke="#ff0000" stroke-width=".4305" d="M428.3759,-260.7615C423.9733,-254.8716 417.6372,-247.4045 410.6399,-242.3503 377.05,-218.088 349.2017,-239.7218 324.6399,-206.3503 307.6564,-183.2753 306.1082,-150.2187 308.1091,-125.309"/>
<polygon fill="#ff0000" stroke="#ff0000" stroke-width=".4305" points="311.6088,-125.4904 309.1492,-115.1851 304.6454,-124.775 311.6088,-125.4904"/>
</g>
<!-- &#45;15&#45;&gt;1210 -->
<g id="edge69" class="edge">
<title>&#45;15&#45;&gt;1210</title>
<path fill="none" stroke="#ff0000" stroke-width=".4606" d="M440.4741,-260.6647C444.7778,-254.5774 451.1682,-246.9209 458.6399,-242.3503 515.283,-207.7 544.4309,-236.4067 603.6399,-206.3503 605.97,-205.1674 608.2799,-203.7925 610.5314,-202.3002"/>
<polygon fill="#ff0000" stroke="#ff0000" stroke-width=".4606" points="612.9078,-204.8949 618.8459,-196.1205 608.7321,-199.2767 612.9078,-204.8949"/>
</g>
<!-- &#45;15&#45;&gt;1211 -->
<g id="edge70" class="edge">
<title>&#45;15&#45;&gt;1211</title>
<path fill="none" stroke="#00ff00" stroke-width=".4615" d="M427.0748,-260.854C416.4782,-248.1444 396.7692,-224.5054 381.2139,-205.8484"/>
<polygon fill="#00ff00" stroke="#00ff00" stroke-width=".4615" points="383.7161,-203.3839 374.6241,-197.9446 378.3396,-207.8665 383.7161,-203.3839"/>
</g>
<!-- &#45;15&#45;&gt;1213 -->
<g id="edge71" class="edge">
<title>&#45;15&#45;&gt;1213</title>
<path fill="none" stroke="#00ff00" stroke-width=".1762" d="M433.744,-260.854C432.6615,-249.8901 430.776,-230.7929 429.0959,-213.7769"/>
<polygon fill="#00ff00" stroke="#00ff00" stroke-width=".1762" points="432.5511,-213.1499 428.0854,-203.5422 425.585,-213.8378 432.5511,-213.1499"/>
</g>
<!-- 1 -->
<g id="node17" class="node">
<title>1</title>
<ellipse fill="#add8e6" stroke="#000000" cx="425.6399" cy="-14.8492" rx="14.7" ry="14.7"/>
<text text-anchor="middle" x="425.6399" y="-12.6492" font-family="Times,serif" font-size="9.00" fill="#000000">1</text>
</g>
<!-- 31008&#45;&gt;1211 -->
<g id="edge86" class="edge">
<title>31008&#45;&gt;1211</title>
<path fill="none" stroke="#ff0000" stroke-width=".3231" d="M67.924,-253.2256C74.0711,-249.2054 80.9074,-245.2422 87.6399,-242.3503 168.2293,-207.7331 270.7626,-190.2447 323.6174,-182.9974"/>
<polygon fill="#ff0000" stroke="#ff0000" stroke-width=".3231" points="324.3588,-186.4298 333.8107,-181.6431 323.4368,-179.4907 324.3588,-186.4298"/>
</g>
<!-- 17361&#45;&gt;1209 -->
<g id="edge84" class="edge">
<title>17361&#45;&gt;1209</title>
<path fill="none" stroke="#ff0000" stroke-width=".2561" d="M158.3358,-162.9169C164.4797,-158.8903 171.2115,-154.7124 177.6399,-151.196 211.9373,-132.4349 253.1541,-114.6471 281.1577,-103.2256"/>
<polygon fill="#ff0000" stroke="#ff0000" stroke-width=".2561" points="282.5179,-106.451 290.4789,-99.46 279.8959,-99.9606 282.5179,-106.451"/>
</g>
<!-- 1208&#45;&gt;0 -->
<g id="edge72" class="edge">
<title>1208&#45;&gt;0</title>
<path fill="none" stroke="#ff0000" stroke-width=".2456" stroke-dasharray="1,5" d="M558.7891,-156.4848C552.3025,-143.1607 544.0858,-126.2827 537.5829,-112.9251"/>
<polygon fill="#ff0000" stroke="#ff0000" stroke-width=".2456" points="540.724,-111.3812 533.1999,-103.9221 534.4302,-114.4453 540.724,-111.3812"/>
</g>
<!-- 1208&#45;&gt;1 -->
<g id="edge73" class="edge">
<title>1208&#45;&gt;1</title>
<path fill="none" stroke="#00ff00" stroke-width=".5" d="M572.011,-153.9485C573.0274,-128.9854 570.6787,-90.7101 550.6399,-65.6985 525.9602,-34.8945 479.6257,-22.6121 450.8279,-17.8142"/>
<polygon fill="#00ff00" stroke="#00ff00" stroke-width=".5" points="451.1361,-14.3218 440.7312,-16.3189 450.1105,-21.2463 451.1361,-14.3218"/>
</g>
<!-- 1209&#45;&gt;1 -->
<g id="edge74" class="edge">
<title>1209&#45;&gt;1</title>
<path fill="none" stroke="#ff0000" stroke-width=".2902" d="M334.1824,-76.5814C354.226,-63.0523 384.5647,-42.5742 404.7322,-28.9615"/>
<polygon fill="#ff0000" stroke="#ff0000" stroke-width=".2902" points="406.8787,-31.7354 413.2091,-23.2398 402.9624,-25.9334 406.8787,-31.7354"/>
</g>
<!-- 1210&#45;&gt;0 -->
<g id="edge75" class="edge">
<title>1210&#45;&gt;0</title>
<path fill="none" stroke="#00ff00" stroke-width=".4593" d="M617.5206,-162.6408C612.9902,-158.8612 608.1607,-154.8671 603.6399,-151.196 584.3453,-135.528 562.0199,-117.977 546.3929,-105.7843"/>
<polygon fill="#00ff00" stroke="#00ff00" stroke-width=".4593" points="548.5024,-102.991 538.4622,-99.6078 544.2012,-108.5137 548.5024,-102.991"/>
</g>
<!-- 1210&#45;&gt;1 -->
<g id="edge76" class="edge">
<title>1210&#45;&gt;1</title>
<path fill="none" stroke="#ff0000" stroke-width=".435" d="M629.4256,-155.0784C620.4985,-129.572 602.916,-89.4699 574.6399,-65.6985 538.3323,-35.1751 482.7795,-22.6677 450.7581,-17.7772"/>
<polygon fill="#ff0000" stroke="#ff0000" stroke-width=".435" points="450.8701,-14.2591 440.4832,-16.3479 449.9056,-21.1924 450.8701,-14.2591"/>
</g>
<!-- 1211&#45;&gt;0 -->
<g id="edge77" class="edge">
<title>1211&#45;&gt;0</title>
<path fill="none" stroke="#ff0000" stroke-width=".1691" d="M377.1574,-161.7992C381.7125,-158.0544 386.7041,-154.2869 391.6399,-151.196 428.3383,-128.2144 475.2033,-109.1708 502.959,-98.8354"/>
<polygon fill="#ff0000" stroke="#ff0000" stroke-width=".1691" points="504.4098,-102.0317 512.5999,-95.3106 502.0061,-95.4573 504.4098,-102.0317"/>
</g>
<!-- 1211&#45;&gt;1 -->
<g id="edge78" class="edge">
<title>1211&#45;&gt;1</title>
<path fill="none" stroke="#ff0000" stroke-width=".2757" d="M368.0972,-155.6345C380.8011,-124.5528 403.2547,-69.6172 416.0341,-38.351"/>
<polygon fill="#ff0000" stroke="#ff0000" stroke-width=".2757" points="419.4253,-39.3046 419.969,-28.7237 412.9457,-36.6561 419.4253,-39.3046"/>
</g>
<!-- 1211&#45;&gt;1209 -->
<g id="edge81" class="edge">
<title>1211&#45;&gt;1209</title>
<path fill="none" stroke="#00ff00" stroke-width=".2859" d="M347.2845,-156.4848C341.955,-146.0242 335.5096,-133.3731 329.6922,-121.9547"/>
<polygon fill="#00ff00" stroke="#00ff00" stroke-width=".2859" points="332.6498,-120.0498 324.9916,-112.7284 326.4127,-123.2276 332.6498,-120.0498"/>
</g>
<!-- 1213&#45;&gt;0 -->
<g id="edge79" class="edge">
<title>1213&#45;&gt;0</title>
<path fill="none" stroke="#00ff00" stroke-width=".2789" d="M444.6372,-162.1597C462.6747,-146.3856 489.64,-122.8041 507.6688,-107.0376"/>
<polygon fill="#00ff00" stroke="#00ff00" stroke-width=".2789" points="510.0358,-109.6173 515.2594,-100.3996 505.4277,-104.348 510.0358,-109.6173"/>
</g>
<!-- 1213&#45;&gt;1 -->
<g id="edge80" class="edge">
<title>1213&#45;&gt;1</title>
<path fill="none" stroke="#00ff00" stroke-width=".4892" d="M425.6399,-153.8766C425.6399,-123.2454 425.6399,-71.5041 425.6399,-40.5215"/>
<polygon fill="#00ff00" stroke="#00ff00" stroke-width=".4892" points="429.14,-40.1236 425.6399,-30.1236 422.14,-40.1236 429.14,-40.1236"/>
</g>
</g>
</svg>
