<?xml version="1.0" encoding="UTF-8" standalone="no"?>
<!DOCTYPE svg PUBLIC "-//W3C//DTD SVG 1.1//EN"
 "http://www.w3.org/Graphics/SVG/1.1/DTD/svg11.dtd">
<!-- Generated by graphviz version 2.40.1 (20161225.0304)
 -->
<!-- Title: %3 Pages: 1 -->
<svg width="287pt" height="263pt"
 viewBox="0.00 0.00 287.47 262.69" xmlns="http://www.w3.org/2000/svg" xmlns:xlink="http://www.w3.org/1999/xlink">
<g id="graph0" class="graph" transform="scale(1 1) rotate(0) translate(4 258.6934)">
<title>%3</title>
<polygon fill="#ffffff" stroke="transparent" points="-4,4 -4,-258.6934 283.4708,-258.6934 283.4708,4 -4,4"/>
<!-- &#45;1 -->
<g id="node1" class="node">
<title>&#45;1</title>
<polygon fill="#d3d3d3" stroke="#000000" points="171.6352,-254.6934 147.6352,-254.6934 147.6352,-236.6934 171.6352,-236.6934 171.6352,-254.6934"/>
<text text-anchor="middle" x="159.6352" y="-243.4934" font-family="Times,serif" font-size="9.00" fill="#000000">&#45;1</text>
</g>
<!-- 1114 -->
<g id="node6" class="node">
<title>1114</title>
<ellipse fill="#ffffff" stroke="#000000" cx="40.6352" cy="-175.9447" rx="25" ry="25"/>
<text text-anchor="middle" x="40.6352" y="-173.7447" font-family="Times,serif" font-size="9.00" fill="#000000">1114</text>
</g>
<!-- &#45;1&#45;&gt;1114 -->
<g id="edge1" class="edge">
<title>&#45;1&#45;&gt;1114</title>
<path fill="none" stroke="#00ff00" stroke-width=".2478" d="M147.3483,-238.4918C129.4721,-228.0141 95.7272,-208.2354 70.9533,-193.7148"/>
<polygon fill="#00ff00" stroke="#00ff00" stroke-width=".2478" points="72.6751,-190.6672 62.2779,-188.63 69.1354,-196.7063 72.6751,-190.6672"/>
</g>
<!-- 1115 -->
<g id="node7" class="node">
<title>1115</title>
<ellipse fill="#ffffff" stroke="#000000" cx="237.6352" cy="-90.4472" rx="25" ry="25"/>
<text text-anchor="middle" x="237.6352" y="-88.2472" font-family="Times,serif" font-size="9.00" fill="#000000">1115</text>
</g>
<!-- &#45;1&#45;&gt;1115 -->
<g id="edge2" class="edge">
<title>&#45;1&#45;&gt;1115</title>
<path fill="none" stroke="#00ff00" stroke-width=".4224" d="M171.7803,-239.9578C185.5132,-232.7974 207.4166,-219.2011 218.6352,-200.6934 232.2805,-178.1824 236.803,-148.6055 238.0376,-125.7544"/>
<polygon fill="#00ff00" stroke="#00ff00" stroke-width=".4224" points="241.546,-125.5754 238.4001,-115.4584 234.5504,-125.3291 241.546,-125.5754"/>
</g>
<!-- 1116 -->
<g id="node8" class="node">
<title>1116</title>
<ellipse fill="#ffffff" stroke="#000000" cx="93.6352" cy="-90.4472" rx="25" ry="25"/>
<text text-anchor="middle" x="93.6352" y="-88.2472" font-family="Times,serif" font-size="9.00" fill="#000000">1116</text>
</g>
<!-- &#45;1&#45;&gt;1116 -->
<g id="edge3" class="edge">
<title>&#45;1&#45;&gt;1116</title>
<path fill="none" stroke="#ff0000" stroke-width=".2266" stroke-dasharray="1,5" d="M155.7042,-236.447C146.4202,-214.6089 122.7686,-158.9752 107.489,-123.0345"/>
<polygon fill="#ff0000" stroke="#ff0000" stroke-width=".2266" points="110.5538,-121.2975 103.4203,-113.464 104.1118,-124.0362 110.5538,-121.2975"/>
</g>
<!-- 1117 -->
<g id="node9" class="node">
<title>1117</title>
<ellipse fill="#ffffff" stroke="#000000" cx="184.6352" cy="-175.9447" rx="25" ry="25"/>
<text text-anchor="middle" x="184.6352" y="-173.7447" font-family="Times,serif" font-size="9.00" fill="#000000">1117</text>
</g>
<!-- &#45;1&#45;&gt;1117 -->
<g id="edge4" class="edge">
<title>&#45;1&#45;&gt;1117</title>
<path fill="none" stroke="#00ff00" stroke-width=".2752" d="M162.9035,-236.575C165.4511,-229.4673 169.1547,-219.1346 172.7849,-209.0063"/>
<polygon fill="#00ff00" stroke="#00ff00" stroke-width=".2752" points="176.1235,-210.0649 176.2029,-199.4703 169.534,-207.7029 176.1235,-210.0649"/>
</g>
<!-- &#45;2 -->
<g id="node2" class="node">
<title>&#45;2</title>
<polygon fill="#d3d3d3" stroke="#000000" points="52.6352,-254.6934 28.6352,-254.6934 28.6352,-236.6934 52.6352,-236.6934 52.6352,-254.6934"/>
<text text-anchor="middle" x="40.6352" y="-243.4934" font-family="Times,serif" font-size="9.00" fill="#000000">&#45;2</text>
</g>
<!-- &#45;2&#45;&gt;1114 -->
<g id="edge5" class="edge">
<title>&#45;2&#45;&gt;1114</title>
<path fill="none" stroke="#ff0000" stroke-width=".4078" d="M40.6352,-236.575C40.6352,-229.9583 40.6352,-220.5468 40.6352,-211.1071"/>
<polygon fill="#ff0000" stroke="#ff0000" stroke-width=".4078" points="44.1353,-210.9839 40.6352,-200.984 37.1353,-210.984 44.1353,-210.9839"/>
</g>
<!-- &#45;2&#45;&gt;1116 -->
<g id="edge6" class="edge">
<title>&#45;2&#45;&gt;1116</title>
<path fill="none" stroke="#ff0000" stroke-width=".5" d="M30.7031,-236.4341C22.4659,-228.0231 11.3668,-214.8047 6.6352,-200.6934 -.3585,-179.8358 -3.5355,-170.7026 6.6352,-151.196 18.0533,-129.297 41.3716,-113.6743 60.9949,-103.76"/>
<polygon fill="#ff0000" stroke="#ff0000" stroke-width=".5" points="62.7376,-106.8068 70.263,-99.349 59.7294,-100.4862 62.7376,-106.8068"/>
</g>
<!-- &#45;2&#45;&gt;1117 -->
<g id="edge7" class="edge">
<title>&#45;2&#45;&gt;1117</title>
<path fill="none" stroke="#ff0000" stroke-width=".5" d="M52.9126,-239.7467C74.8556,-229.1182 121.4466,-206.5511 152.9102,-191.3112"/>
<polygon fill="#ff0000" stroke="#ff0000" stroke-width=".5" points="154.671,-194.3474 162.1451,-186.8381 151.6195,-188.0475 154.671,-194.3474"/>
</g>
<!-- &#45;3 -->
<g id="node3" class="node">
<title>&#45;3</title>
<polygon fill="#d3d3d3" stroke="#000000" points="105.6352,-254.6934 81.6352,-254.6934 81.6352,-236.6934 105.6352,-236.6934 105.6352,-254.6934"/>
<text text-anchor="middle" x="93.6352" y="-243.4934" font-family="Times,serif" font-size="9.00" fill="#000000">&#45;3</text>
</g>
<!-- &#45;3&#45;&gt;1114 -->
<g id="edge8" class="edge">
<title>&#45;3&#45;&gt;1114</title>
<path fill="none" stroke="#ff0000" stroke-width=".4354" stroke-dasharray="1,5" d="M86.7064,-236.575C80.4295,-228.3145 70.8426,-215.6981 62.0364,-204.109"/>
<polygon fill="#ff0000" stroke="#ff0000" stroke-width=".4354" points="64.6576,-201.7735 55.8207,-195.929 59.0841,-206.0087 64.6576,-201.7735"/>
</g>
<!-- &#45;3&#45;&gt;1116 -->
<g id="edge9" class="edge">
<title>&#45;3&#45;&gt;1116</title>
<path fill="none" stroke="#00ff00" stroke-width=".5" d="M93.6352,-236.447C93.6352,-215.0587 93.6352,-161.2526 93.6352,-125.2799"/>
<polygon fill="#00ff00" stroke="#00ff00" stroke-width=".5" points="97.1353,-125.1966 93.6352,-115.1966 90.1353,-125.1967 97.1353,-125.1966"/>
</g>
<!-- &#45;3&#45;&gt;1117 -->
<g id="edge10" class="edge">
<title>&#45;3&#45;&gt;1117</title>
<path fill="none" stroke="#00ff00" stroke-width=".2949" d="M105.5319,-236.575C118.4493,-226.6742 139.531,-210.5157 156.6835,-197.3688"/>
<polygon fill="#00ff00" stroke="#00ff00" stroke-width=".2949" points="158.9275,-200.0587 164.7352,-191.1975 154.6691,-194.5029 158.9275,-200.0587"/>
</g>
<!-- 0 -->
<g id="node4" class="node">
<title>0</title>
<ellipse fill="#add8e6" stroke="#000000" cx="190.6352" cy="-14.8492" rx="14.7" ry="14.7"/>
<text text-anchor="middle" x="190.6352" y="-12.6492" font-family="Times,serif" font-size="9.00" fill="#000000">0</text>
</g>
<!-- 1 -->
<g id="node5" class="node">
<title>1</title>
<ellipse fill="#add8e6" stroke="#000000" cx="140.6352" cy="-14.8492" rx="14.7" ry="14.7"/>
<text text-anchor="middle" x="140.6352" y="-12.6492" font-family="Times,serif" font-size="9.00" fill="#000000">1</text>
</g>
<!-- 1114&#45;&gt;0 -->
<g id="edge11" class="edge">
<title>1114&#45;&gt;0</title>
<path fill="none" stroke="#00ff00" stroke-width=".5" d="M62.4837,-164.0532C81.2752,-153.0885 108.3256,-135.4743 127.6352,-115.196 150.0233,-91.6847 168.7519,-59.0226 179.8238,-37.4294"/>
<polygon fill="#00ff00" stroke="#00ff00" stroke-width=".5" points="183.0169,-38.8693 184.3578,-28.3597 176.7557,-35.7393 183.0169,-38.8693"/>
</g>
<!-- 1114&#45;&gt;1 -->
<g id="edge12" class="edge">
<title>1114&#45;&gt;1</title>
<path fill="none" stroke="#00ff00" stroke-width=".1006" d="M39.3457,-151.053C39.3176,-127.2105 42.551,-91.1901 59.6352,-65.6985 73.3474,-45.2383 98.3654,-31.4161 116.9828,-23.409"/>
<polygon fill="#00ff00" stroke="#00ff00" stroke-width=".1006" points="118.3339,-26.6381 126.2978,-19.6504 115.7146,-20.1466 118.3339,-26.6381"/>
</g>
<!-- 1114&#45;&gt;1116 -->
<g id="edge19" class="edge">
<title>1114&#45;&gt;1116</title>
<path fill="none" stroke="#00ff00" stroke-width=".35" d="M53.7363,-154.8105C60.1703,-144.4315 68.0343,-131.7456 75.0746,-120.3885"/>
<polygon fill="#00ff00" stroke="#00ff00" stroke-width=".35" points="78.2071,-121.9781 80.5011,-111.6346 72.2575,-118.2899 78.2071,-121.9781"/>
</g>
<!-- 1115&#45;&gt;0 -->
<g id="edge13" class="edge">
<title>1115&#45;&gt;0</title>
<path fill="none" stroke="#ff0000" stroke-width=".2279" d="M224.5431,-69.389C218.0726,-58.9814 210.2829,-46.4519 203.8023,-36.028"/>
<polygon fill="#ff0000" stroke="#ff0000" stroke-width=".2279" points="206.7625,-34.1605 198.5102,-27.516 200.8178,-37.8565 206.7625,-34.1605"/>
</g>
<!-- 1115&#45;&gt;1 -->
<g id="edge14" class="edge">
<title>1115&#45;&gt;1</title>
<path fill="none" stroke="#ff0000" stroke-width=".1045" d="M218.0058,-75.1488C201.3177,-62.1428 177.4597,-43.5488 160.6597,-30.4555"/>
<polygon fill="#ff0000" stroke="#ff0000" stroke-width=".1045" points="162.6321,-27.5554 152.5931,-24.1688 158.3291,-33.0766 162.6321,-27.5554"/>
</g>
<!-- 1116&#45;&gt;0 -->
<g id="edge15" class="edge">
<title>1116&#45;&gt;0</title>
<path fill="none" stroke="#00ff00" stroke-width=".4613" d="M113.2646,-75.1488C129.9527,-62.1428 153.8107,-43.5488 170.6107,-30.4555"/>
<polygon fill="#00ff00" stroke="#00ff00" stroke-width=".4613" points="172.9413,-33.0766 178.6773,-24.1688 168.6383,-27.5554 172.9413,-33.0766"/>
</g>
<!-- 1116&#45;&gt;1 -->
<g id="edge16" class="edge">
<title>1116&#45;&gt;1</title>
<path fill="none" stroke="#ff0000" stroke-width=".4468" d="M106.7273,-69.389C113.1978,-58.9814 120.9875,-46.4519 127.4681,-36.028"/>
<polygon fill="#ff0000" stroke="#ff0000" stroke-width=".4468" points="130.4526,-37.8565 132.7602,-27.516 124.5079,-34.1605 130.4526,-37.8565"/>
</g>
<!-- 1117&#45;&gt;0 -->
<g id="edge17" class="edge">
<title>1117&#45;&gt;0</title>
<path fill="none" stroke="#00ff00" stroke-width=".3879" d="M208.0074,-167.0429C228.9487,-157.6624 258.3487,-140.6784 271.6352,-115.196 281.8059,-95.6894 282.2804,-84.9502 271.6352,-65.6985 259.5805,-43.8978 233.8335,-30.1849 214.5843,-22.5678"/>
<polygon fill="#00ff00" stroke="#00ff00" stroke-width=".3879" points="215.5462,-19.1928 204.9525,-19.0401 213.1388,-25.7658 215.5462,-19.1928"/>
</g>
<!-- 1117&#45;&gt;1 -->
<g id="edge18" class="edge">
<title>1117&#45;&gt;1</title>
<path fill="none" stroke="#ff0000" stroke-width=".4704" stroke-dasharray="1,5" d="M178.048,-151.8271C169.7701,-121.5197 155.6418,-69.7922 147.3188,-39.3197"/>
<polygon fill="#ff0000" stroke="#ff0000" stroke-width=".4704" points="150.6473,-38.222 144.6361,-29.4976 143.8946,-40.0664 150.6473,-38.222"/>
</g>
</g>
</svg>
