<?xml version="1.0" encoding="UTF-8" standalone="no"?>
<!DOCTYPE svg PUBLIC "-//W3C//DTD SVG 1.1//EN"
 "http://www.w3.org/Graphics/SVG/1.1/DTD/svg11.dtd">
<!-- Generated by graphviz version 2.40.1 (20161225.0304)
 -->
<!-- Title: %3 Pages: 1 -->
<svg width="191pt" height="177pt"
 viewBox="0.00 0.00 191.50 177.20" xmlns="http://www.w3.org/2000/svg" xmlns:xlink="http://www.w3.org/1999/xlink">
<g id="graph0" class="graph" transform="scale(1 1) rotate(0) translate(4 173.196)">
<title>%3</title>
<polygon fill="#ffffff" stroke="transparent" points="-4,4 -4,-173.196 187.4975,-173.196 187.4975,4 -4,4"/>
<!-- &#45;1 -->
<g id="node1" class="node">
<title>&#45;1</title>
<polygon fill="#d3d3d3" stroke="#000000" points="61.7487,-169.196 37.7487,-169.196 37.7487,-151.196 61.7487,-151.196 61.7487,-169.196"/>
<text text-anchor="middle" x="49.7487" y="-157.996" font-family="Times,serif" font-size="9.00" fill="#000000">&#45;1</text>
</g>
<!-- 4407 -->
<g id="node6" class="node">
<title>4407</title>
<ellipse fill="#ffffff" stroke="#000000" cx="24.7487" cy="-90.4472" rx="25" ry="25"/>
<text text-anchor="middle" x="24.7487" y="-88.2472" font-family="Times,serif" font-size="9.00" fill="#000000">4407</text>
</g>
<!-- &#45;1&#45;&gt;4407 -->
<g id="edge1" class="edge">
<title>&#45;1&#45;&gt;4407</title>
<path fill="none" stroke="#00ff00" stroke-width=".4859" d="M46.4804,-151.0775C43.9328,-143.9698 40.2293,-133.6371 36.599,-123.5089"/>
<polygon fill="#00ff00" stroke="#00ff00" stroke-width=".4859" points="39.8499,-122.2055 33.181,-113.9728 33.2604,-124.5674 39.8499,-122.2055"/>
</g>
<!-- 4410 -->
<g id="node7" class="node">
<title>4410</title>
<ellipse fill="#ffffff" stroke="#000000" cx="158.7487" cy="-90.4472" rx="25" ry="25"/>
<text text-anchor="middle" x="158.7487" y="-88.2472" font-family="Times,serif" font-size="9.00" fill="#000000">4410</text>
</g>
<!-- &#45;1&#45;&gt;4410 -->
<g id="edge2" class="edge">
<title>&#45;1&#45;&gt;4410</title>
<path fill="none" stroke="#ff0000" stroke-width=".3041" d="M61.8435,-153.5733C77.0498,-145.1254 103.8191,-129.8485 125.7487,-115.196 127.4011,-114.0919 129.083,-112.9364 130.7686,-111.7536"/>
<polygon fill="#ff0000" stroke="#ff0000" stroke-width=".3041" points="133.0554,-114.4193 139.1081,-105.7235 128.9537,-108.7468 133.0554,-114.4193"/>
</g>
<!-- 4411 -->
<g id="node8" class="node">
<title>4411</title>
<ellipse fill="#ffffff" stroke="#000000" cx="91.7487" cy="-90.4472" rx="25" ry="25"/>
<text text-anchor="middle" x="91.7487" y="-88.2472" font-family="Times,serif" font-size="9.00" fill="#000000">4411</text>
</g>
<!-- &#45;1&#45;&gt;4411 -->
<g id="edge3" class="edge">
<title>&#45;1&#45;&gt;4411</title>
<path fill="none" stroke="#ff0000" stroke-width=".4022" stroke-dasharray="1,5" d="M55.2395,-151.0775C59.9416,-143.2688 66.9877,-131.5676 73.6393,-120.5213"/>
<polygon fill="#ff0000" stroke="#ff0000" stroke-width=".4022" points="76.6766,-122.262 78.8369,-111.8898 70.6799,-118.651 76.6766,-122.262"/>
</g>
<!-- &#45;2 -->
<g id="node2" class="node">
<title>&#45;2</title>
<polygon fill="#d3d3d3" stroke="#000000" points="103.7487,-169.196 79.7487,-169.196 79.7487,-151.196 103.7487,-151.196 103.7487,-169.196"/>
<text text-anchor="middle" x="91.7487" y="-157.996" font-family="Times,serif" font-size="9.00" fill="#000000">&#45;2</text>
</g>
<!-- &#45;2&#45;&gt;4407 -->
<g id="edge4" class="edge">
<title>&#45;2&#45;&gt;4407</title>
<path fill="none" stroke="#ff0000" stroke-width=".5" d="M82.9897,-151.0775C74.4123,-142.1483 60.9459,-128.1294 49.1217,-115.8201"/>
<polygon fill="#ff0000" stroke="#ff0000" stroke-width=".5" points="51.4818,-113.2247 42.0301,-108.4376 46.4336,-118.074 51.4818,-113.2247"/>
</g>
<!-- &#45;2&#45;&gt;4410 -->
<g id="edge5" class="edge">
<title>&#45;2&#45;&gt;4410</title>
<path fill="none" stroke="#00ff00" stroke-width=".1912" d="M100.5078,-151.0775C109.0851,-142.1483 122.5516,-128.1294 134.3758,-115.8201"/>
<polygon fill="#00ff00" stroke="#00ff00" stroke-width=".1912" points="137.0639,-118.074 141.4674,-108.4376 132.0157,-113.2247 137.0639,-118.074"/>
</g>
<!-- &#45;2&#45;&gt;4411 -->
<g id="edge6" class="edge">
<title>&#45;2&#45;&gt;4411</title>
<path fill="none" stroke="#ff0000" stroke-width=".4183" d="M91.7487,-151.0775C91.7487,-144.4608 91.7487,-135.0493 91.7487,-125.6096"/>
<polygon fill="#ff0000" stroke="#ff0000" stroke-width=".4183" points="95.2488,-125.4865 91.7487,-115.4865 88.2488,-125.4865 95.2488,-125.4865"/>
</g>
<!-- &#45;3 -->
<g id="node3" class="node">
<title>&#45;3</title>
<polygon fill="#d3d3d3" stroke="#000000" points="145.7487,-169.196 121.7487,-169.196 121.7487,-151.196 145.7487,-151.196 145.7487,-169.196"/>
<text text-anchor="middle" x="133.7487" y="-157.996" font-family="Times,serif" font-size="9.00" fill="#000000">&#45;3</text>
</g>
<!-- &#45;3&#45;&gt;4407 -->
<g id="edge7" class="edge">
<title>&#45;3&#45;&gt;4407</title>
<path fill="none" stroke="#ff0000" stroke-width=".3056" d="M121.654,-153.5733C106.4477,-145.1254 79.6784,-129.8485 57.7487,-115.196 56.0964,-114.0919 54.4145,-112.9364 52.7289,-111.7536"/>
<polygon fill="#ff0000" stroke="#ff0000" stroke-width=".3056" points="54.5438,-108.7468 44.3894,-105.7235 50.4421,-114.4193 54.5438,-108.7468"/>
</g>
<!-- &#45;3&#45;&gt;4410 -->
<g id="edge8" class="edge">
<title>&#45;3&#45;&gt;4410</title>
<path fill="none" stroke="#ff0000" stroke-width=".4971" d="M137.0171,-151.0775C139.5647,-143.9698 143.2682,-133.6371 146.8985,-123.5089"/>
<polygon fill="#ff0000" stroke="#ff0000" stroke-width=".4971" points="150.2371,-124.5674 150.3165,-113.9728 143.6475,-122.2055 150.2371,-124.5674"/>
</g>
<!-- &#45;3&#45;&gt;4411 -->
<g id="edge9" class="edge">
<title>&#45;3&#45;&gt;4411</title>
<path fill="none" stroke="#00ff00" stroke-width=".3792" d="M128.258,-151.0775C123.5558,-143.2688 116.5098,-131.5676 109.8582,-120.5213"/>
<polygon fill="#00ff00" stroke="#00ff00" stroke-width=".3792" points="112.8176,-118.651 104.6606,-111.8898 106.8208,-122.262 112.8176,-118.651"/>
</g>
<!-- 0 -->
<g id="node4" class="node">
<title>0</title>
<ellipse fill="#add8e6" stroke="#000000" cx="62.7487" cy="-14.8492" rx="14.7" ry="14.7"/>
<text text-anchor="middle" x="62.7487" y="-12.6492" font-family="Times,serif" font-size="9.00" fill="#000000">0</text>
</g>
<!-- 1 -->
<g id="node5" class="node">
<title>1</title>
<ellipse fill="#add8e6" stroke="#000000" cx="119.7487" cy="-14.8492" rx="14.7" ry="14.7"/>
<text text-anchor="middle" x="119.7487" y="-12.6492" font-family="Times,serif" font-size="9.00" fill="#000000">1</text>
</g>
<!-- 4407&#45;&gt;0 -->
<g id="edge10" class="edge">
<title>4407&#45;&gt;0</title>
<path fill="none" stroke="#00ff00" stroke-width=".5" d="M35.9445,-68.1742C40.8046,-58.5053 46.4894,-47.1958 51.37,-37.4863"/>
<polygon fill="#00ff00" stroke="#00ff00" stroke-width=".5" points="54.5582,-38.9368 55.9222,-28.4301 48.3038,-35.793 54.5582,-38.9368"/>
</g>
<!-- 4410&#45;&gt;1 -->
<g id="edge11" class="edge">
<title>4410&#45;&gt;1</title>
<path fill="none" stroke="#ff0000" stroke-width=".4023" d="M147.2584,-68.1742C142.2703,-58.5053 136.4359,-47.1958 131.4269,-37.4863"/>
<polygon fill="#ff0000" stroke="#ff0000" stroke-width=".4023" points="134.4502,-35.7125 126.7549,-28.4301 128.2292,-38.9219 134.4502,-35.7125"/>
</g>
<!-- 4411&#45;&gt;0 -->
<g id="edge12" class="edge">
<title>4411&#45;&gt;0</title>
<path fill="none" stroke="#00ff00" stroke-width=".3724" d="M82.7319,-66.9419C79.2527,-57.8723 75.2796,-47.515 71.7974,-38.4375"/>
<polygon fill="#00ff00" stroke="#00ff00" stroke-width=".3724" points="74.9764,-36.9524 68.127,-28.8694 68.4408,-39.4596 74.9764,-36.9524"/>
</g>
<!-- 4411&#45;&gt;1 -->
<g id="edge13" class="edge">
<title>4411&#45;&gt;1</title>
<path fill="none" stroke="#00ff00" stroke-width=".2194" stroke-dasharray="1,5" d="M100.4546,-66.9419C103.8139,-57.8723 107.65,-47.515 111.0121,-38.4375"/>
<polygon fill="#00ff00" stroke="#00ff00" stroke-width=".2194" points="114.3648,-39.4625 114.556,-28.8694 107.8006,-37.0312 114.3648,-39.4625"/>
</g>
</g>
</svg>
