<?xml version="1.0" encoding="UTF-8" standalone="no"?>
<!DOCTYPE svg PUBLIC "-//W3C//DTD SVG 1.1//EN"
 "http://www.w3.org/Graphics/SVG/1.1/DTD/svg11.dtd">
<!-- Generated by graphviz version 2.40.1 (20161225.0304)
 -->
<!-- Title: %3 Pages: 1 -->
<svg width="651pt" height="177pt"
 viewBox="0.00 0.00 650.50 177.20" xmlns="http://www.w3.org/2000/svg" xmlns:xlink="http://www.w3.org/1999/xlink">
<g id="graph0" class="graph" transform="scale(1 1) rotate(0) translate(4 173.196)">
<title>%3</title>
<polygon fill="#ffffff" stroke="transparent" points="-4,4 -4,-173.196 646.5,-173.196 646.5,4 -4,4"/>
<!-- &#45;1 -->
<g id="node1" class="node">
<title>&#45;1</title>
<polygon fill="#d3d3d3" stroke="#000000" points="306.5,-169.196 282.5,-169.196 282.5,-151.196 306.5,-151.196 306.5,-169.196"/>
<text text-anchor="middle" x="294.5" y="-157.996" font-family="Times,serif" font-size="9.00" fill="#000000">&#45;1</text>
</g>
<!-- 4768 -->
<g id="node18" class="node">
<title>4768</title>
<ellipse fill="#ffffff" stroke="#000000" cx="236.5" cy="-90.4472" rx="25" ry="25"/>
<text text-anchor="middle" x="236.5" y="-88.2472" font-family="Times,serif" font-size="9.00" fill="#000000">4768</text>
</g>
<!-- &#45;1&#45;&gt;4768 -->
<g id="edge3" class="edge">
<title>&#45;1&#45;&gt;4768</title>
<path fill="none" stroke="#00ff00" stroke-width=".2117" d="M286.9175,-151.0775C279.8321,-142.5568 268.8926,-129.4014 259.0122,-117.5196"/>
<polygon fill="#00ff00" stroke="#00ff00" stroke-width=".2117" points="261.4864,-115.0209 252.4015,-109.5698 256.1042,-119.4966 261.4864,-115.0209"/>
</g>
<!-- 4769 -->
<g id="node19" class="node">
<title>4769</title>
<ellipse fill="#ffffff" stroke="#000000" cx="303.5" cy="-90.4472" rx="25" ry="25"/>
<text text-anchor="middle" x="303.5" y="-88.2472" font-family="Times,serif" font-size="9.00" fill="#000000">4769</text>
</g>
<!-- &#45;1&#45;&gt;4769 -->
<g id="edge4" class="edge">
<title>&#45;1&#45;&gt;4769</title>
<path fill="none" stroke="#ff0000" stroke-width=".3302" d="M295.6766,-151.0775C296.5374,-144.4066 297.7647,-134.8948 298.9928,-125.3775"/>
<polygon fill="#ff0000" stroke="#ff0000" stroke-width=".3302" points="302.4997,-125.5479 300.3083,-115.1822 295.5573,-124.6521 302.4997,-125.5479"/>
</g>
<!-- 4770 -->
<g id="node20" class="node">
<title>4770</title>
<ellipse fill="#ffffff" stroke="#000000" cx="370.5" cy="-90.4472" rx="25" ry="25"/>
<text text-anchor="middle" x="370.5" y="-88.2472" font-family="Times,serif" font-size="9.00" fill="#000000">4770</text>
</g>
<!-- &#45;1&#45;&gt;4770 -->
<g id="edge5" class="edge">
<title>&#45;1&#45;&gt;4770</title>
<path fill="none" stroke="#ff0000" stroke-width=".1744" d="M304.4357,-151.0775C314.6203,-141.7306 330.8819,-126.8066 344.7224,-114.1045"/>
<polygon fill="#ff0000" stroke="#ff0000" stroke-width=".1744" points="347.1075,-116.6661 352.1086,-107.3259 342.3744,-111.5088 347.1075,-116.6661"/>
</g>
<!-- 4771 -->
<g id="node21" class="node">
<title>4771</title>
<ellipse fill="#ffffff" stroke="#000000" cx="437.5" cy="-90.4472" rx="25" ry="25"/>
<text text-anchor="middle" x="437.5" y="-88.2472" font-family="Times,serif" font-size="9.00" fill="#000000">4771</text>
</g>
<!-- &#45;1&#45;&gt;4771 -->
<g id="edge6" class="edge">
<title>&#45;1&#45;&gt;4771</title>
<path fill="none" stroke="#00ff00" stroke-width=".1127" d="M306.919,-154.8236C309.7358,-153.619 312.7171,-152.355 315.5,-151.196 354.8893,-134.791 367.3429,-136.172 404.5,-115.196 406.2306,-114.219 407.9737,-113.1631 409.7063,-112.0567"/>
<polygon fill="#00ff00" stroke="#00ff00" stroke-width=".1127" points="411.9157,-114.7853 418.1755,-106.2375 407.9514,-109.016 411.9157,-114.7853"/>
</g>
<!-- 4766 -->
<g id="node22" class="node">
<title>4766</title>
<ellipse fill="#ffffff" stroke="#000000" cx="504.5" cy="-90.4472" rx="25" ry="25"/>
<text text-anchor="middle" x="504.5" y="-88.2472" font-family="Times,serif" font-size="9.00" fill="#000000">4766</text>
</g>
<!-- &#45;1&#45;&gt;4766 -->
<g id="edge1" class="edge">
<title>&#45;1&#45;&gt;4766</title>
<path fill="none" stroke="#ff0000" stroke-width=".1256" d="M306.7965,-154.4934C309.6196,-153.306 312.6345,-152.1323 315.5,-151.196 383.1358,-129.0936 406.9753,-145.1905 471.5,-115.196 473.3021,-114.3583 475.1012,-113.4114 476.8769,-112.3888"/>
<polygon fill="#ff0000" stroke="#ff0000" stroke-width=".1256" points="478.992,-115.1883 485.4647,-106.8005 475.174,-109.3211 478.992,-115.1883"/>
</g>
<!-- 4767 -->
<g id="node23" class="node">
<title>4767</title>
<ellipse fill="#ffffff" stroke="#000000" cx="169.5" cy="-90.4472" rx="25" ry="25"/>
<text text-anchor="middle" x="169.5" y="-88.2472" font-family="Times,serif" font-size="9.00" fill="#000000">4767</text>
</g>
<!-- &#45;1&#45;&gt;4767 -->
<g id="edge2" class="edge">
<title>&#45;1&#45;&gt;4767</title>
<path fill="none" stroke="#00ff00" stroke-width=".152" d="M282.207,-155.0699C264.1919,-147.3628 229.7984,-131.9026 202.5,-115.196 200.805,-114.1586 199.0897,-113.0553 197.3784,-111.9126"/>
<polygon fill="#00ff00" stroke="#00ff00" stroke-width=".152" points="199.1602,-108.8868 188.9682,-105.9932 195.1312,-114.6111 199.1602,-108.8868"/>
</g>
<!-- &#45;2 -->
<g id="node2" class="node">
<title>&#45;2</title>
<polygon fill="#d3d3d3" stroke="#000000" points="348.5,-169.196 324.5,-169.196 324.5,-151.196 348.5,-151.196 348.5,-169.196"/>
<text text-anchor="middle" x="336.5" y="-157.996" font-family="Times,serif" font-size="9.00" fill="#000000">&#45;2</text>
</g>
<!-- &#45;2&#45;&gt;4768 -->
<g id="edge9" class="edge">
<title>&#45;2&#45;&gt;4768</title>
<path fill="none" stroke="#ff0000" stroke-width=".2337" d="M324.0197,-152.0927C310.4638,-143.2266 288.2366,-128.5004 269.5,-115.196 267.8797,-114.0454 266.2229,-112.8535 264.5565,-111.6427"/>
<polygon fill="#ff0000" stroke="#ff0000" stroke-width=".2337" points="266.3967,-108.651 256.2702,-105.5355 262.2436,-114.2859 266.3967,-108.651"/>
</g>
<!-- &#45;2&#45;&gt;4769 -->
<g id="edge10" class="edge">
<title>&#45;2&#45;&gt;4769</title>
<path fill="none" stroke="#ff0000" stroke-width=".3002" d="M332.1858,-151.0775C328.6726,-143.6519 323.4939,-132.7064 318.5001,-122.1514"/>
<polygon fill="#ff0000" stroke="#ff0000" stroke-width=".3002" points="321.6462,-120.617 314.2056,-113.0746 315.3186,-123.6108 321.6462,-120.617"/>
</g>
<!-- &#45;2&#45;&gt;4770 -->
<g id="edge11" class="edge">
<title>&#45;2&#45;&gt;4770</title>
<path fill="none" stroke="#ff0000" stroke-width=".1148" d="M340.9449,-151.0775C344.5925,-143.5948 349.9824,-132.5378 355.1641,-121.9078"/>
<polygon fill="#ff0000" stroke="#ff0000" stroke-width=".1148" points="358.3794,-123.2995 359.6151,-112.7769 352.0871,-120.2322 358.3794,-123.2995"/>
</g>
<!-- &#45;2&#45;&gt;4771 -->
<g id="edge12" class="edge">
<title>&#45;2&#45;&gt;4771</title>
<path fill="none" stroke="#ff0000" stroke-width=".2348" d="M348.6824,-152.4416C362.403,-143.6374 385.293,-128.7359 404.5,-115.196 406.1242,-114.0509 407.7841,-112.8634 409.4528,-111.6559"/>
<polygon fill="#ff0000" stroke="#ff0000" stroke-width=".2348" points="411.7627,-114.3018 417.7456,-105.5579 407.6158,-108.6623 411.7627,-114.3018"/>
</g>
<!-- &#45;2&#45;&gt;4766 -->
<g id="edge7" class="edge">
<title>&#45;2&#45;&gt;4766</title>
<path fill="none" stroke="#ff0000" stroke-width=".2794" d="M348.8547,-154.6603C351.6748,-153.4642 354.6738,-152.2449 357.5,-151.196 407.3128,-132.7083 424.2414,-139.4805 471.5,-115.196 473.2676,-114.2877 475.0397,-113.2855 476.7946,-112.2205"/>
<polygon fill="#ff0000" stroke="#ff0000" stroke-width=".2794" points="478.9586,-114.9838 485.3251,-106.5151 475.067,-109.1652 478.9586,-114.9838"/>
</g>
<!-- &#45;2&#45;&gt;4767 -->
<g id="edge8" class="edge">
<title>&#45;2&#45;&gt;4767</title>
<path fill="none" stroke="#ff0000" stroke-width=".5" d="M324.1433,-154.6657C321.3233,-153.4693 318.3249,-152.2485 315.5,-151.196 266.1077,-132.7929 249.3512,-139.3463 202.5,-115.196 200.7336,-114.2854 198.9624,-113.2815 197.2082,-112.2151"/>
<polygon fill="#ff0000" stroke="#ff0000" stroke-width=".5" points="198.9366,-109.1603 188.6796,-106.506 195.0426,-114.9773 198.9366,-109.1603"/>
</g>
<!-- &#45;3 -->
<g id="node3" class="node">
<title>&#45;3</title>
<polygon fill="#d3d3d3" stroke="#000000" points="390.5,-169.196 366.5,-169.196 366.5,-151.196 390.5,-151.196 390.5,-169.196"/>
<text text-anchor="middle" x="378.5" y="-157.996" font-family="Times,serif" font-size="9.00" fill="#000000">&#45;3</text>
</g>
<!-- &#45;3&#45;&gt;4768 -->
<g id="edge15" class="edge">
<title>&#45;3&#45;&gt;4768</title>
<path fill="none" stroke="#00ff00" stroke-width=".1728" d="M366.0776,-154.8318C363.261,-153.6267 360.2806,-152.3605 357.5,-151.196 318.5228,-134.8724 306.2575,-136.0422 269.5,-115.196 267.7714,-114.2156 266.0298,-113.157 264.2983,-112.0486"/>
<polygon fill="#00ff00" stroke="#00ff00" stroke-width=".1728" points="266.0546,-109.0086 255.8323,-106.2237 262.0868,-114.7755 266.0546,-109.0086"/>
</g>
<!-- &#45;3&#45;&gt;4769 -->
<g id="edge16" class="edge">
<title>&#45;3&#45;&gt;4769</title>
<path fill="none" stroke="#ff0000" stroke-width=".4606" d="M368.6951,-151.0775C358.7375,-141.8171 342.8934,-127.0825 329.3184,-114.4579"/>
<polygon fill="#ff0000" stroke="#ff0000" stroke-width=".4606" points="331.3558,-111.573 321.6494,-107.3259 326.5887,-116.699 331.3558,-111.573"/>
</g>
<!-- &#45;3&#45;&gt;4770 -->
<g id="edge17" class="edge">
<title>&#45;3&#45;&gt;4770</title>
<path fill="none" stroke="#ff0000" stroke-width=".1803" d="M377.4541,-151.0775C376.689,-144.4066 375.598,-134.8948 374.5064,-125.3775"/>
<polygon fill="#ff0000" stroke="#ff0000" stroke-width=".1803" points="377.9538,-124.7182 373.337,-115.1822 370.9994,-125.5159 377.9538,-124.7182"/>
</g>
<!-- &#45;3&#45;&gt;4771 -->
<g id="edge18" class="edge">
<title>&#45;3&#45;&gt;4771</title>
<path fill="none" stroke="#00ff00" stroke-width=".2657" d="M386.2132,-151.0775C393.4208,-142.5568 404.5489,-129.4014 414.5997,-117.5196"/>
<polygon fill="#00ff00" stroke="#00ff00" stroke-width=".2657" points="417.5383,-119.4651 421.3244,-109.5698 412.1938,-114.9442 417.5383,-119.4651"/>
</g>
<!-- &#45;3&#45;&gt;4766 -->
<g id="edge13" class="edge">
<title>&#45;3&#45;&gt;4766</title>
<path fill="none" stroke="#00ff00" stroke-width=".183" d="M390.6126,-154.6893C412.302,-144.7704 456.8705,-124.1065 471.5,-115.196 473.1972,-114.1622 474.9143,-113.0618 476.6269,-111.9212"/>
<polygon fill="#00ff00" stroke="#00ff00" stroke-width=".183" points="478.8718,-114.6214 485.0407,-106.0078 474.8467,-108.8944 478.8718,-114.6214"/>
</g>
<!-- &#45;3&#45;&gt;4767 -->
<g id="edge14" class="edge">
<title>&#45;3&#45;&gt;4767</title>
<path fill="none" stroke="#ff0000" stroke-width=".1249" d="M366.2025,-154.4964C363.3794,-153.3088 360.3648,-152.1344 357.5,-151.196 290.2913,-129.1806 266.611,-145.0533 202.5,-115.196 200.6985,-114.357 198.8998,-113.4091 197.1245,-112.3858"/>
<polygon fill="#ff0000" stroke="#ff0000" stroke-width=".1249" points="198.8278,-109.3183 188.5377,-106.7953 195.0085,-115.1846 198.8278,-109.3183"/>
</g>
<!-- &#45;4 -->
<g id="node4" class="node">
<title>&#45;4</title>
<polygon fill="#d3d3d3" stroke="#000000" points="432.5,-169.196 408.5,-169.196 408.5,-151.196 432.5,-151.196 432.5,-169.196"/>
<text text-anchor="middle" x="420.5" y="-157.996" font-family="Times,serif" font-size="9.00" fill="#000000">&#45;4</text>
</g>
<!-- &#45;4&#45;&gt;4768 -->
<g id="edge21" class="edge">
<title>&#45;4&#45;&gt;4768</title>
<path fill="none" stroke="#00ff00" stroke-width=".2644" d="M408.1724,-154.5852C405.3509,-153.393 402.3445,-152.1942 399.5,-151.196 342.9304,-131.3428 323.3049,-141.6404 269.5,-115.196 267.7165,-114.3194 265.9319,-113.3421 264.1674,-112.2961"/>
<polygon fill="#00ff00" stroke="#00ff00" stroke-width=".2644" points="265.8834,-109.235 255.6105,-106.6433 262.025,-115.0756 265.8834,-109.235"/>
</g>
<!-- &#45;4&#45;&gt;4769 -->
<g id="edge22" class="edge">
<title>&#45;4&#45;&gt;4769</title>
<path fill="none" stroke="#00ff00" stroke-width=".3791" d="M408.493,-154.4827C391.8944,-146.4249 361.1907,-130.9399 336.5,-115.196 334.8244,-114.1275 333.1243,-112.9999 331.4247,-111.8385"/>
<polygon fill="#00ff00" stroke="#00ff00" stroke-width=".3791" points="333.2215,-108.8212 323.0467,-105.8675 329.1588,-114.5216 333.2215,-108.8212"/>
</g>
<!-- &#45;4&#45;&gt;4770 -->
<g id="edge23" class="edge">
<title>&#45;4&#45;&gt;4770</title>
<path fill="none" stroke="#ff0000" stroke-width=".2772" d="M413.9634,-151.0775C408.0844,-142.8764 399.1275,-130.3819 390.8693,-118.8618"/>
<polygon fill="#ff0000" stroke="#ff0000" stroke-width=".2772" points="393.7043,-116.8093 385.0334,-110.721 388.0151,-120.8876 393.7043,-116.8093"/>
</g>
<!-- &#45;4&#45;&gt;4771 -->
<g id="edge24" class="edge">
<title>&#45;4&#45;&gt;4771</title>
<path fill="none" stroke="#ff0000" stroke-width=".4304" d="M422.7225,-151.0775C424.41,-144.1539 426.8433,-134.1701 429.25,-124.296"/>
<polygon fill="#ff0000" stroke="#ff0000" stroke-width=".4304" points="432.6514,-125.1203 431.6191,-114.5759 425.8505,-123.4627 432.6514,-125.1203"/>
</g>
<!-- &#45;4&#45;&gt;4766 -->
<g id="edge19" class="edge">
<title>&#45;4&#45;&gt;4766</title>
<path fill="none" stroke="#00ff00" stroke-width=".2208" d="M431.4815,-151.0775C443.0697,-141.4554 461.7759,-125.9229 477.3531,-112.9884"/>
<polygon fill="#00ff00" stroke="#00ff00" stroke-width=".2208" points="479.7019,-115.5875 485.1595,-106.5064 475.2301,-110.202 479.7019,-115.5875"/>
</g>
<!-- &#45;4&#45;&gt;4767 -->
<g id="edge20" class="edge">
<title>&#45;4&#45;&gt;4767</title>
<path fill="none" stroke="#ff0000" stroke-width=".3231" stroke-dasharray="1,5" d="M408.2343,-154.3952C405.4096,-153.2128 402.3863,-152.0661 399.5,-151.196 314.2831,-125.5043 284.0537,-150.8467 202.5,-115.196 200.6791,-114.4 198.8652,-113.4857 197.0782,-112.4883"/>
<polygon fill="#ff0000" stroke="#ff0000" stroke-width=".3231" points="198.7681,-109.4143 188.4593,-106.9691 194.9932,-115.3093 198.7681,-109.4143"/>
</g>
<!-- &#45;5 -->
<g id="node5" class="node">
<title>&#45;5</title>
<polygon fill="#d3d3d3" stroke="#000000" points="474.5,-169.196 450.5,-169.196 450.5,-151.196 474.5,-151.196 474.5,-169.196"/>
<text text-anchor="middle" x="462.5" y="-157.996" font-family="Times,serif" font-size="9.00" fill="#000000">&#45;5</text>
</g>
<!-- &#45;5&#45;&gt;4768 -->
<g id="edge27" class="edge">
<title>&#45;5&#45;&gt;4768</title>
<path fill="none" stroke="#00ff00" stroke-width=".1225" d="M450.2175,-154.4499C447.3936,-153.2646 444.3749,-152.103 441.5,-151.196 367.0179,-127.6975 340.6562,-147.3915 269.5,-115.196 267.6894,-114.3767 265.8836,-113.4443 264.1029,-112.4329"/>
<polygon fill="#00ff00" stroke="#00ff00" stroke-width=".1225" points="265.7998,-109.3623 255.501,-106.8752 262.001,-115.2419 265.7998,-109.3623"/>
</g>
<!-- &#45;5&#45;&gt;4769 -->
<g id="edge28" class="edge">
<title>&#45;5&#45;&gt;4769</title>
<path fill="none" stroke="#ff0000" stroke-width=".5" d="M450.1259,-154.7114C447.3069,-153.5126 444.3132,-152.2793 441.5,-151.196 395.4624,-133.467 380.1005,-138.2779 336.5,-115.196 334.7437,-114.2662 332.9803,-113.2471 331.2322,-112.1692"/>
<polygon fill="#ff0000" stroke="#ff0000" stroke-width=".5" points="332.9679,-109.1182 322.7203,-106.4281 329.0537,-114.9216 332.9679,-109.1182"/>
</g>
<!-- &#45;5&#45;&gt;4770 -->
<g id="edge29" class="edge">
<title>&#45;5&#45;&gt;4770</title>
<path fill="none" stroke="#00ff00" stroke-width=".4827" d="M450.4726,-151.0775C437.3295,-141.1132 415.8263,-124.8108 398.4259,-111.6189"/>
<polygon fill="#00ff00" stroke="#00ff00" stroke-width=".4827" points="400.3514,-108.6866 390.2681,-105.4342 396.1224,-114.2647 400.3514,-108.6866"/>
</g>
<!-- &#45;5&#45;&gt;4771 -->
<g id="edge30" class="edge">
<title>&#45;5&#45;&gt;4771</title>
<path fill="none" stroke="#00ff00" stroke-width=".1967" d="M459.2317,-151.0775C456.6841,-143.9698 452.9805,-133.6371 449.3503,-123.5089"/>
<polygon fill="#00ff00" stroke="#00ff00" stroke-width=".1967" points="452.6012,-122.2055 445.9323,-113.9728 446.0117,-124.5674 452.6012,-122.2055"/>
</g>
<!-- &#45;5&#45;&gt;4766 -->
<g id="edge25" class="edge">
<title>&#45;5&#45;&gt;4766</title>
<path fill="none" stroke="#ff0000" stroke-width=".3588" d="M467.9908,-151.0775C472.6929,-143.2688 479.7389,-131.5676 486.3905,-120.5213"/>
<polygon fill="#ff0000" stroke="#ff0000" stroke-width=".3588" points="489.4279,-122.262 491.5881,-111.8898 483.4312,-118.651 489.4279,-122.262"/>
</g>
<!-- &#45;5&#45;&gt;4767 -->
<g id="edge26" class="edge">
<title>&#45;5&#45;&gt;4767</title>
<path fill="none" stroke="#ff0000" stroke-width=".3384" d="M450.254,-154.3282C447.4283,-153.1493 444.3995,-152.0209 441.5,-151.196 338.1802,-121.7991 301.587,-156.6799 202.5,-115.196 200.6174,-114.4078 198.7449,-113.4883 196.9037,-112.4767"/>
<polygon fill="#ff0000" stroke="#ff0000" stroke-width=".3384" points="198.3681,-109.2593 188.0555,-106.83 194.6024,-115.1601 198.3681,-109.2593"/>
</g>
<!-- &#45;6 -->
<g id="node6" class="node">
<title>&#45;6</title>
<polygon fill="#d3d3d3" stroke="#000000" points="516.5,-169.196 492.5,-169.196 492.5,-151.196 516.5,-151.196 516.5,-169.196"/>
<text text-anchor="middle" x="504.5" y="-157.996" font-family="Times,serif" font-size="9.00" fill="#000000">&#45;6</text>
</g>
<!-- &#45;6&#45;&gt;4768 -->
<g id="edge33" class="edge">
<title>&#45;6&#45;&gt;4768</title>
<path fill="none" stroke="#ff0000" stroke-width=".3108" d="M492.2433,-154.365C489.4181,-153.1842 486.3923,-152.0458 483.5,-151.196 390.9641,-124.007 358.1425,-153.2043 269.5,-115.196 267.6736,-114.4128 265.8553,-113.5086 264.065,-112.5189"/>
<polygon fill="#ff0000" stroke="#ff0000" stroke-width=".3108" points="265.7511,-109.4431 255.4368,-107.0211 261.9894,-115.3466 265.7511,-109.4431"/>
</g>
<!-- &#45;6&#45;&gt;4769 -->
<g id="edge34" class="edge">
<title>&#45;6&#45;&gt;4769</title>
<path fill="none" stroke="#00ff00" stroke-width=".4649" d="M492.1941,-154.5218C489.3715,-153.3329 486.3591,-152.1515 483.5,-151.196 419.7044,-129.8754 397.3049,-143.9573 336.5,-115.196 334.7036,-114.3462 332.9088,-113.3899 331.1365,-112.3601"/>
<polygon fill="#00ff00" stroke="#00ff00" stroke-width=".4649" points="332.8434,-109.2944 322.5581,-106.7518 329.0129,-115.1534 332.8434,-109.2944"/>
</g>
<!-- &#45;6&#45;&gt;4770 -->
<g id="edge35" class="edge">
<title>&#45;6&#45;&gt;4770</title>
<path fill="none" stroke="#ff0000" stroke-width=".2247" d="M492.1775,-154.8904C467.0671,-144.0519 411.6509,-119.9861 403.5,-115.196 401.7867,-114.1891 400.0571,-113.1097 398.3348,-111.9853"/>
<polygon fill="#ff0000" stroke="#ff0000" stroke-width=".2247" points="400.1027,-108.9517 389.8943,-106.1164 396.1065,-114.6989 400.1027,-108.9517"/>
</g>
<!-- &#45;6&#45;&gt;4771 -->
<g id="edge36" class="edge">
<title>&#45;6&#45;&gt;4771</title>
<path fill="none" stroke="#00ff00" stroke-width=".2946" d="M495.7409,-151.0775C487.1636,-142.1483 473.6971,-128.1294 461.873,-115.8201"/>
<polygon fill="#00ff00" stroke="#00ff00" stroke-width=".2946" points="464.2331,-113.2247 454.7814,-108.4376 459.1848,-118.074 464.2331,-113.2247"/>
</g>
<!-- &#45;6&#45;&gt;4766 -->
<g id="edge31" class="edge">
<title>&#45;6&#45;&gt;4766</title>
<path fill="none" stroke="#00ff00" stroke-width=".2604" d="M504.5,-151.0775C504.5,-144.4608 504.5,-135.0493 504.5,-125.6096"/>
<polygon fill="#00ff00" stroke="#00ff00" stroke-width=".2604" points="508.0001,-125.4865 504.5,-115.4865 501.0001,-125.4865 508.0001,-125.4865"/>
</g>
<!-- &#45;6&#45;&gt;4767 -->
<g id="edge32" class="edge">
<title>&#45;6&#45;&gt;4767</title>
<path fill="none" stroke="#00ff00" stroke-width=".5" d="M492.2672,-154.2806C489.4408,-153.1042 486.4084,-151.9889 483.5,-151.196 362.0238,-118.0786 319.1716,-162.5348 202.5,-115.196 200.6088,-114.4286 198.7296,-113.5254 196.8833,-112.526"/>
<polygon fill="#00ff00" stroke="#00ff00" stroke-width=".5" points="198.3423,-109.3071 188.0216,-106.9124 194.5963,-115.2205 198.3423,-109.3071"/>
</g>
<!-- &#45;7 -->
<g id="node7" class="node">
<title>&#45;7</title>
<polygon fill="#d3d3d3" stroke="#000000" points="558.5,-169.196 534.5,-169.196 534.5,-151.196 558.5,-151.196 558.5,-169.196"/>
<text text-anchor="middle" x="546.5" y="-157.996" font-family="Times,serif" font-size="9.00" fill="#000000">&#45;7</text>
</g>
<!-- &#45;7&#45;&gt;4768 -->
<g id="edge39" class="edge">
<title>&#45;7&#45;&gt;4768</title>
<path fill="none" stroke="#00ff00" stroke-width=".5" d="M534.2599,-154.3071C531.4339,-153.1293 528.4035,-152.0067 525.5,-151.196 414.8361,-120.2946 375.6998,-159.0478 269.5,-115.196 267.6135,-114.417 265.7381,-113.5047 263.8946,-112.4985"/>
<polygon fill="#00ff00" stroke="#00ff00" stroke-width=".5" points="265.3566,-109.2804 255.0404,-106.8665 261.5996,-115.1868 265.3566,-109.2804"/>
</g>
<!-- &#45;7&#45;&gt;4769 -->
<g id="edge40" class="edge">
<title>&#45;7&#45;&gt;4769</title>
<path fill="none" stroke="#ff0000" stroke-width=".5" d="M534.2295,-154.4112C531.405,-153.228 528.383,-152.0769 525.5,-151.196 443.7224,-126.2074 414.7225,-149.7393 336.5,-115.196 334.6821,-114.3932 332.8706,-113.4736 331.0854,-112.4721"/>
<polygon fill="#ff0000" stroke="#ff0000" stroke-width=".5" points="332.7773,-109.3991 322.4714,-106.9416 328.9954,-115.2896 332.7773,-109.3991"/>
</g>
<!-- &#45;7&#45;&gt;4770 -->
<g id="edge41" class="edge">
<title>&#45;7&#45;&gt;4770</title>
<path fill="none" stroke="#00ff00" stroke-width=".1954" d="M534.1598,-154.6206C531.339,-153.4265 528.336,-152.2181 525.5,-151.196 472.3151,-132.0278 454.0257,-140.5574 403.5,-115.196 401.7239,-114.3045 399.9451,-113.3154 398.1851,-112.2605"/>
<polygon fill="#00ff00" stroke="#00ff00" stroke-width=".1954" points="399.9065,-109.2021 389.6405,-106.5829 396.0324,-115.0324 399.9065,-109.2021"/>
</g>
<!-- &#45;7&#45;&gt;4771 -->
<g id="edge42" class="edge">
<title>&#45;7&#45;&gt;4771</title>
<path fill="none" stroke="#ff0000" stroke-width=".5" d="M534.4052,-153.5733C519.1989,-145.1254 492.4296,-129.8485 470.5,-115.196 468.8476,-114.0919 467.1657,-112.9364 465.4801,-111.7536"/>
<polygon fill="#ff0000" stroke="#ff0000" stroke-width=".5" points="467.295,-108.7468 457.1407,-105.7235 463.1934,-114.4193 467.295,-108.7468"/>
</g>
<!-- &#45;7&#45;&gt;4766 -->
<g id="edge37" class="edge">
<title>&#45;7&#45;&gt;4766</title>
<path fill="none" stroke="#ff0000" stroke-width=".5" d="M541.0092,-151.0775C536.3071,-143.2688 529.2611,-131.5676 522.6095,-120.5213"/>
<polygon fill="#ff0000" stroke="#ff0000" stroke-width=".5" points="525.5688,-118.651 517.4119,-111.8898 519.5721,-122.262 525.5688,-118.651"/>
</g>
<!-- &#45;7&#45;&gt;4767 -->
<g id="edge38" class="edge">
<title>&#45;7&#45;&gt;4767</title>
<path fill="none" stroke="#00ff00" stroke-width=".2608" d="M534.2767,-154.2452C531.4498,-153.0706 528.4148,-151.965 525.5,-151.196 385.8343,-114.3491 336.788,-168.4025 202.5,-115.196 200.6025,-114.4442 198.7185,-113.553 196.8686,-112.5629"/>
<polygon fill="#00ff00" stroke="#00ff00" stroke-width=".2608" points="198.3235,-109.3429 187.9969,-106.974 194.5923,-115.2656 198.3235,-109.3429"/>
</g>
<!-- &#45;8 -->
<g id="node8" class="node">
<title>&#45;8</title>
<polygon fill="#d3d3d3" stroke="#000000" points="600.5,-169.196 576.5,-169.196 576.5,-151.196 600.5,-151.196 600.5,-169.196"/>
<text text-anchor="middle" x="588.5" y="-157.996" font-family="Times,serif" font-size="9.00" fill="#000000">&#45;8</text>
</g>
<!-- &#45;8&#45;&gt;4768 -->
<g id="edge45" class="edge">
<title>&#45;8&#45;&gt;4768</title>
<path fill="none" stroke="#00ff00" stroke-width=".2695" d="M576.2714,-154.2651C573.4448,-153.0895 570.4113,-151.9784 567.5,-151.196 438.6646,-116.5699 393.299,-164.9086 269.5,-115.196 267.606,-114.4354 265.7247,-113.5375 263.8768,-112.5422"/>
<polygon fill="#00ff00" stroke="#00ff00" stroke-width=".2695" points="265.334,-109.3227 255.0107,-106.9394 261.5945,-115.2402 265.334,-109.3227"/>
</g>
<!-- &#45;8&#45;&gt;4769 -->
<g id="edge46" class="edge">
<title>&#45;8&#45;&gt;4769</title>
<path fill="none" stroke="#00ff00" stroke-width=".1843" d="M576.2508,-154.3391C573.4253,-153.1597 570.3974,-152.0283 567.5,-151.196 467.6333,-122.5063 432.2426,-155.5668 336.5,-115.196 334.6689,-114.4238 332.847,-113.5283 331.0538,-112.5452"/>
<polygon fill="#00ff00" stroke="#00ff00" stroke-width=".1843" points="332.7367,-109.468 322.4178,-107.0657 328.9864,-115.3786 332.7367,-109.468"/>
</g>
<!-- &#45;8&#45;&gt;4770 -->
<g id="edge47" class="edge">
<title>&#45;8&#45;&gt;4770</title>
<path fill="none" stroke="#ff0000" stroke-width=".3185" d="M576.2109,-154.4706C573.3874,-153.2844 570.3704,-152.117 567.5,-151.196 496.4439,-128.3965 471.3378,-146.2898 403.5,-115.196 401.6935,-114.3679 399.8908,-113.4286 398.1124,-112.4118"/>
<polygon fill="#ff0000" stroke="#ff0000" stroke-width=".3185" points="399.8122,-109.3427 389.5173,-106.8395 396.0043,-115.2163 399.8122,-109.3427"/>
</g>
<!-- &#45;8&#45;&gt;4771 -->
<g id="edge48" class="edge">
<title>&#45;8&#45;&gt;4771</title>
<path fill="none" stroke="#00ff00" stroke-width=".2376" d="M576.1055,-154.7636C573.2875,-153.5621 570.2994,-152.3145 567.5,-151.196 524.7982,-134.1337 510.8678,-137.2189 470.5,-115.196 468.7555,-114.2442 467.0014,-113.208 465.2603,-112.1168"/>
<polygon fill="#00ff00" stroke="#00ff00" stroke-width=".2376" points="467.0048,-109.0705 456.768,-106.3393 463.0673,-114.8581 467.0048,-109.0705"/>
</g>
<!-- &#45;8&#45;&gt;4766 -->
<g id="edge43" class="edge">
<title>&#45;8&#45;&gt;4766</title>
<path fill="none" stroke="#ff0000" stroke-width=".3845" d="M577.5185,-151.0775C565.9303,-141.4554 547.2241,-125.9229 531.6469,-112.9884"/>
<polygon fill="#ff0000" stroke="#ff0000" stroke-width=".3845" points="533.7699,-110.202 523.8405,-106.5064 529.2981,-115.5875 533.7699,-110.202"/>
</g>
<!-- &#45;8&#45;&gt;4767 -->
<g id="edge44" class="edge">
<title>&#45;8&#45;&gt;4767</title>
<path fill="none" stroke="#ff0000" stroke-width=".1549" d="M576.2839,-154.2177C573.4566,-153.0446 570.4197,-151.9465 567.5,-151.196 409.623,-110.6138 354.4253,-174.2786 202.5,-115.196 200.5978,-114.4562 198.7101,-113.5744 196.8574,-112.5914"/>
<polygon fill="#ff0000" stroke="#ff0000" stroke-width=".1549" points="198.3094,-109.3707 187.9782,-107.0216 194.5896,-115.3005 198.3094,-109.3707"/>
</g>
<!-- &#45;9 -->
<g id="node9" class="node">
<title>&#45;9</title>
<polygon fill="#d3d3d3" stroke="#000000" points="642.5,-169.196 618.5,-169.196 618.5,-151.196 642.5,-151.196 642.5,-169.196"/>
<text text-anchor="middle" x="630.5" y="-157.996" font-family="Times,serif" font-size="9.00" fill="#000000">&#45;9</text>
</g>
<!-- &#45;9&#45;&gt;4768 -->
<g id="edge51" class="edge">
<title>&#45;9&#45;&gt;4768</title>
<path fill="none" stroke="#ff0000" stroke-width=".2971" d="M618.2798,-154.2333C615.4528,-153.0593 612.417,-151.9569 609.5,-151.196 462.4652,-112.8378 410.9248,-170.7801 269.5,-115.196 267.6005,-114.4494 265.7149,-113.5623 263.8637,-112.5753"/>
<polygon fill="#ff0000" stroke="#ff0000" stroke-width=".2971" points="265.3173,-109.3549 254.9888,-106.9946 261.5911,-115.2808 265.3173,-109.3549"/>
</g>
<!-- &#45;9&#45;&gt;4769 -->
<g id="edge52" class="edge">
<title>&#45;9&#45;&gt;4769</title>
<path fill="none" stroke="#ff0000" stroke-width=".3234" d="M618.265,-154.2886C615.4387,-153.1117 612.407,-151.9942 609.5,-151.196 491.4851,-118.7881 449.8193,-161.4184 336.5,-115.196 334.6102,-114.4251 332.7322,-113.5192 330.8867,-112.5178"/>
<polygon fill="#ff0000" stroke="#ff0000" stroke-width=".3234" points="332.3465,-109.2991 322.0272,-106.8986 328.5973,-115.2104 332.3465,-109.2991"/>
</g>
<!-- &#45;9&#45;&gt;4770 -->
<g id="edge53" class="edge">
<title>&#45;9&#45;&gt;4770</title>
<path fill="none" stroke="#00ff00" stroke-width=".2518" d="M618.2393,-154.3786C615.4143,-153.1971 612.3896,-152.055 609.5,-151.196 520.41,-124.7121 488.805,-152.0942 403.5,-115.196 401.676,-114.407 399.8598,-113.4983 398.0709,-112.5051"/>
<polygon fill="#00ff00" stroke="#00ff00" stroke-width=".2518" points="399.7587,-109.4301 389.4469,-106.9976 395.9911,-115.3297 399.7587,-109.4301"/>
</g>
<!-- &#45;9&#45;&gt;4771 -->
<g id="edge54" class="edge">
<title>&#45;9&#45;&gt;4771</title>
<path fill="none" stroke="#00ff00" stroke-width=".1388" d="M618.1846,-154.5499C615.3625,-153.3595 612.3527,-152.1704 609.5,-151.196 549.1099,-130.5676 528.006,-142.8647 470.5,-115.196 468.7092,-114.3343 466.9189,-113.3687 465.1501,-112.3318"/>
<polygon fill="#00ff00" stroke="#00ff00" stroke-width=".1388" points="466.8609,-109.268 456.5811,-106.7038 463.0181,-115.119 466.8609,-109.268"/>
</g>
<!-- &#45;9&#45;&gt;4766 -->
<g id="edge49" class="edge">
<title>&#45;9&#45;&gt;4766</title>
<path fill="none" stroke="#00ff00" stroke-width=".4009" d="M618.4186,-153.5082C599.4646,-143.0159 562.1445,-122.357 535.3813,-107.5419"/>
<polygon fill="#00ff00" stroke="#00ff00" stroke-width=".4009" points="536.8466,-104.3526 526.4025,-102.5716 533.4564,-110.4769 536.8466,-104.3526"/>
</g>
<!-- &#45;9&#45;&gt;4767 -->
<g id="edge50" class="edge">
<title>&#45;9&#45;&gt;4767</title>
<path fill="none" stroke="#00ff00" stroke-width=".2486" d="M618.2894,-154.1959C615.4619,-153.0238 612.4234,-151.9317 609.5,-151.196 433.3966,-106.8746 372.0772,-180.1603 202.5,-115.196 200.5941,-114.4658 198.7035,-113.5915 196.8486,-112.6142"/>
<polygon fill="#00ff00" stroke="#00ff00" stroke-width=".2486" points="198.2983,-109.3928 187.9635,-107.0596 194.5876,-115.3284 198.2983,-109.3928"/>
</g>
<!-- &#45;10 -->
<g id="node10" class="node">
<title>&#45;10</title>
<polygon fill="#d3d3d3" stroke="#000000" points="29,-169.196 0,-169.196 0,-151.196 29,-151.196 29,-169.196"/>
<text text-anchor="middle" x="14.5" y="-157.996" font-family="Times,serif" font-size="9.00" fill="#000000">&#45;10</text>
</g>
<!-- &#45;10&#45;&gt;4768 -->
<g id="edge56" class="edge">
<title>&#45;10&#45;&gt;4768</title>
<path fill="none" stroke="#00ff00" stroke-width=".3188" d="M29.4731,-153.9409C32.1219,-152.9485 34.8729,-151.9893 37.5,-151.196 109.7694,-129.3719 134.8331,-146.565 203.5,-115.196 205.3076,-114.3702 207.111,-113.4327 208.89,-112.4173"/>
<polygon fill="#00ff00" stroke="#00ff00" stroke-width=".3188" points="210.9966,-115.2229 217.4869,-106.8488 207.191,-109.3477 210.9966,-115.2229"/>
</g>
<!-- &#45;10&#45;&gt;4769 -->
<g id="edge57" class="edge">
<title>&#45;10&#45;&gt;4769</title>
<path fill="none" stroke="#00ff00" stroke-width=".1039" d="M29.4347,-153.8068C32.0878,-152.8292 34.8502,-151.9098 37.5,-151.196 138.6774,-123.94 173.9215,-155.845 270.5,-115.196 272.3316,-114.425 274.1539,-113.5304 275.9474,-112.5481"/>
<polygon fill="#00ff00" stroke="#00ff00" stroke-width=".1039" points="278.0139,-115.3821 284.5842,-107.0705 274.2648,-109.4707 278.0139,-115.3821"/>
</g>
<!-- &#45;10&#45;&gt;4770 -->
<g id="edge58" class="edge">
<title>&#45;10&#45;&gt;4770</title>
<path fill="none" stroke="#00ff00" stroke-width=".1456" d="M29.415,-153.7309C32.0703,-152.7617 34.8385,-151.8648 37.5,-151.196 167.7402,-118.4657 212.8622,-165.188 337.5,-115.196 339.3943,-114.4362 341.2758,-113.5388 343.1239,-112.5439"/>
<polygon fill="#00ff00" stroke="#00ff00" stroke-width=".1456" points="345.4057,-115.2424 351.9905,-106.9423 341.6669,-109.3245 345.4057,-115.2424"/>
</g>
<!-- &#45;10&#45;&gt;4771 -->
<g id="edge59" class="edge">
<title>&#45;10&#45;&gt;4771</title>
<path fill="none" stroke="#00ff00" stroke-width=".2399" d="M29.403,-153.6822C32.0596,-152.7185 34.8314,-151.836 37.5,-151.196 196.8746,-112.9732 251.7344,-174.5585 404.5,-115.196 406.4024,-114.4567 408.2902,-113.5753 410.1431,-112.5926"/>
<polygon fill="#00ff00" stroke="#00ff00" stroke-width=".2399" points="412.4105,-115.302 419.0226,-107.0236 408.6912,-109.3718 412.4105,-115.302"/>
</g>
<!-- &#45;10&#45;&gt;4767 -->
<g id="edge55" class="edge">
<title>&#45;10&#45;&gt;4767</title>
<path fill="none" stroke="#00ff00" stroke-width=".5" d="M29.082,-153.6342C53.7747,-142.5227 104.3699,-119.7552 137.6022,-104.801"/>
<polygon fill="#00ff00" stroke="#00ff00" stroke-width=".5" points="139.2113,-107.915 146.8943,-100.6196 136.3388,-101.5315 139.2113,-107.915"/>
</g>
<!-- &#45;11 -->
<g id="node11" class="node">
<title>&#45;11</title>
<polygon fill="#d3d3d3" stroke="#000000" points="76,-169.196 47,-169.196 47,-151.196 76,-151.196 76,-169.196"/>
<text text-anchor="middle" x="61.5" y="-157.996" font-family="Times,serif" font-size="9.00" fill="#000000">&#45;11</text>
</g>
<!-- &#45;11&#45;&gt;4768 -->
<g id="edge62" class="edge">
<title>&#45;11&#45;&gt;4768</title>
<path fill="none" stroke="#ff0000" stroke-width=".4201" d="M76.036,-154.3074C78.8305,-153.2324 81.7448,-152.1501 84.5,-151.196 136.7138,-133.1141 154.201,-140.1528 203.5,-115.196 205.273,-114.2984 207.0494,-113.3046 208.8076,-112.246"/>
<polygon fill="#ff0000" stroke="#ff0000" stroke-width=".4201" points="210.9644,-115.0148 217.3472,-106.5584 207.084,-109.1888 210.9644,-115.0148"/>
</g>
<!-- &#45;11&#45;&gt;4769 -->
<g id="edge63" class="edge">
<title>&#45;11&#45;&gt;4769</title>
<path fill="none" stroke="#00ff00" stroke-width=".2672" d="M76.4584,-153.8913C79.1088,-152.9043 81.8642,-151.9598 84.5,-151.196 165.3729,-127.7578 193.5258,-149.3244 270.5,-115.196 272.3167,-114.3905 274.1273,-113.4688 275.9118,-112.4656"/>
<polygon fill="#00ff00" stroke="#00ff00" stroke-width=".2672" points="278.0037,-115.2817 284.5238,-106.9307 274.2191,-109.393 278.0037,-115.2817"/>
</g>
<!-- &#45;11&#45;&gt;4770 -->
<g id="edge64" class="edge">
<title>&#45;11&#45;&gt;4770</title>
<path fill="none" stroke="#ff0000" stroke-width=".3195" d="M76.4276,-153.78C79.0815,-152.8054 81.846,-151.8939 84.5,-151.196 194.3421,-122.3087 232.5559,-158.6297 337.5,-115.196 339.3858,-114.4155 341.2608,-113.502 343.1039,-112.4949"/>
<polygon fill="#ff0000" stroke="#ff0000" stroke-width=".3195" points="345.3999,-115.1824 351.9571,-106.8604 341.6415,-109.2769 345.3999,-115.1824"/>
</g>
<!-- &#45;11&#45;&gt;4771 -->
<g id="edge65" class="edge">
<title>&#45;11&#45;&gt;4771</title>
<path fill="none" stroke="#00ff00" stroke-width=".2286" d="M76.4108,-153.7143C79.0666,-152.747 81.8361,-151.855 84.5,-151.196 223.4315,-116.8275 271.4711,-167.9831 404.5,-115.196 406.3971,-114.4432 408.2808,-113.5513 410.1305,-112.5606"/>
<polygon fill="#00ff00" stroke="#00ff00" stroke-width=".2286" points="412.4074,-115.2627 419.0016,-106.9701 408.6753,-109.3406 412.4074,-115.2627"/>
</g>
<!-- &#45;11&#45;&gt;4766 -->
<g id="edge60" class="edge">
<title>&#45;11&#45;&gt;4766</title>
<path fill="none" stroke="#00ff00" stroke-width=".1835" d="M76.4003,-153.6709C79.0572,-152.7084 81.8298,-151.8293 84.5,-151.196 252.5799,-111.3316 310.33,-177.3589 471.5,-115.196 473.4042,-114.4615 475.2935,-113.5838 477.1475,-112.604"/>
<polygon fill="#00ff00" stroke="#00ff00" stroke-width=".1835" points="479.4116,-115.3159 486.0299,-107.0425 475.6968,-109.3829 479.4116,-115.3159"/>
</g>
<!-- &#45;11&#45;&gt;4767 -->
<g id="edge61" class="edge">
<title>&#45;11&#45;&gt;4767</title>
<path fill="none" stroke="#00ff00" stroke-width=".2728" d="M75.6191,-151.0775C91.8288,-140.6089 118.871,-123.1445 139.7798,-109.6412"/>
<polygon fill="#00ff00" stroke="#00ff00" stroke-width=".2728" points="141.814,-112.4939 148.3157,-104.1285 138.0164,-106.6136 141.814,-112.4939"/>
</g>
<!-- &#45;12 -->
<g id="node12" class="node">
<title>&#45;12</title>
<polygon fill="#d3d3d3" stroke="#000000" points="123,-169.196 94,-169.196 94,-151.196 123,-151.196 123,-169.196"/>
<text text-anchor="middle" x="108.5" y="-157.996" font-family="Times,serif" font-size="9.00" fill="#000000">&#45;12</text>
</g>
<!-- &#45;12&#45;&gt;4768 -->
<g id="edge68" class="edge">
<title>&#45;12&#45;&gt;4768</title>
<path fill="none" stroke="#00ff00" stroke-width=".2068" d="M123.1283,-154.3524C142.1948,-146.4948 176.3116,-131.6018 203.5,-115.196 205.2015,-114.1693 206.9219,-113.0743 208.637,-111.938"/>
<polygon fill="#00ff00" stroke="#00ff00" stroke-width=".2068" points="210.8777,-114.6417 217.058,-106.0362 206.8602,-108.9094 210.8777,-114.6417"/>
</g>
<!-- &#45;12&#45;&gt;4769 -->
<g id="edge69" class="edge">
<title>&#45;12&#45;&gt;4769</title>
<path fill="none" stroke="#00ff00" stroke-width=".193" d="M123.0057,-154.2171C125.803,-153.1505 128.7261,-152.0943 131.5,-151.196 192.2115,-131.5336 212.994,-142.8647 270.5,-115.196 272.2908,-114.3343 274.0811,-113.3687 275.8499,-112.3318"/>
<polygon fill="#00ff00" stroke="#00ff00" stroke-width=".193" points="277.9819,-115.119 284.4189,-106.7038 274.1391,-109.268 277.9819,-115.119"/>
</g>
<!-- &#45;12&#45;&gt;4770 -->
<g id="edge70" class="edge">
<title>&#45;12&#45;&gt;4770</title>
<path fill="none" stroke="#ff0000" stroke-width=".2372" d="M123.4468,-153.8508C126.0986,-152.8683 128.8574,-151.9359 131.5,-151.196 221.0011,-126.1366 252.195,-152.0942 337.5,-115.196 339.324,-114.407 341.1402,-113.4983 342.9291,-112.5051"/>
<polygon fill="#ff0000" stroke="#ff0000" stroke-width=".2372" points="345.0089,-115.3297 351.5531,-106.9976 341.2413,-109.4301 345.0089,-115.3297"/>
</g>
<!-- &#45;12&#45;&gt;4771 -->
<g id="edge71" class="edge">
<title>&#45;12&#45;&gt;4771</title>
<path fill="none" stroke="#ff0000" stroke-width=".3283" d="M123.4217,-153.7571C126.0762,-152.785 128.8425,-151.8803 131.5,-151.196 250.0168,-120.6748 291.1807,-161.4184 404.5,-115.196 406.3898,-114.4251 408.2678,-113.5192 410.1133,-112.5178"/>
<polygon fill="#ff0000" stroke="#ff0000" stroke-width=".3283" points="412.4027,-115.2104 418.9728,-106.8986 408.6535,-109.2991 412.4027,-115.2104"/>
</g>
<!-- &#45;12&#45;&gt;4766 -->
<g id="edge66" class="edge">
<title>&#45;12&#45;&gt;4766</title>
<path fill="none" stroke="#00ff00" stroke-width=".2563" d="M123.4072,-153.6996C126.0634,-152.7339 128.8339,-151.8462 131.5,-151.196 279.1279,-115.1881 330.0752,-170.7801 471.5,-115.196 473.3995,-114.4494 475.2851,-113.5623 477.1363,-112.5753"/>
<polygon fill="#00ff00" stroke="#00ff00" stroke-width=".2563" points="479.4089,-115.2808 486.0112,-106.9946 475.6827,-109.3549 479.4089,-115.2808"/>
</g>
<!-- &#45;12&#45;&gt;4767 -->
<g id="edge67" class="edge">
<title>&#45;12&#45;&gt;4767</title>
<path fill="none" stroke="#00ff00" stroke-width=".104" d="M116.4747,-151.0775C124.0513,-142.4143 135.8179,-128.9601 146.3438,-116.9245"/>
<polygon fill="#00ff00" stroke="#00ff00" stroke-width=".104" points="149.0765,-119.1164 153.0252,-109.2849 143.8074,-114.5082 149.0765,-119.1164"/>
</g>
<!-- &#45;13 -->
<g id="node13" class="node">
<title>&#45;13</title>
<polygon fill="#d3d3d3" stroke="#000000" points="170,-169.196 141,-169.196 141,-151.196 170,-151.196 170,-169.196"/>
<text text-anchor="middle" x="155.5" y="-157.996" font-family="Times,serif" font-size="9.00" fill="#000000">&#45;13</text>
</g>
<!-- &#45;13&#45;&gt;4768 -->
<g id="edge74" class="edge">
<title>&#45;13&#45;&gt;4768</title>
<path fill="none" stroke="#ff0000" stroke-width=".4246" d="M166.0893,-151.0775C177.0888,-141.606 194.7388,-126.4076 209.6152,-113.5976"/>
<polygon fill="#ff0000" stroke="#ff0000" stroke-width=".4246" points="212.2407,-115.9556 217.5347,-106.7782 207.6731,-110.6512 212.2407,-115.9556"/>
</g>
<!-- &#45;13&#45;&gt;4769 -->
<g id="edge75" class="edge">
<title>&#45;13&#45;&gt;4769</title>
<path fill="none" stroke="#ff0000" stroke-width=".2334" d="M170.0215,-154.5208C200.8801,-142.46 270.2088,-115.3582 270.5,-115.196 272.2361,-114.2289 273.9836,-113.1807 275.7195,-112.0803"/>
<polygon fill="#ff0000" stroke="#ff0000" stroke-width=".2334" points="277.9225,-114.8138 284.1978,-106.2774 273.9688,-109.0373 277.9225,-114.8138"/>
</g>
<!-- &#45;13&#45;&gt;4770 -->
<g id="edge76" class="edge">
<title>&#45;13&#45;&gt;4770</title>
<path fill="none" stroke="#00ff00" stroke-width=".2546" d="M170.4792,-153.9611C173.1274,-152.9664 175.8766,-152.0012 178.5,-151.196 247.7657,-129.9346 271.7336,-145.6024 337.5,-115.196 339.3038,-114.362 341.1043,-113.418 342.881,-112.3977"/>
<polygon fill="#00ff00" stroke="#00ff00" stroke-width=".2546" points="344.9935,-115.1991 351.4717,-106.8155 341.1794,-109.3294 344.9935,-115.1991"/>
</g>
<!-- &#45;13&#45;&gt;4771 -->
<g id="edge77" class="edge">
<title>&#45;13&#45;&gt;4771</title>
<path fill="none" stroke="#ff0000" stroke-width=".4107" d="M170.4376,-153.8172C173.0903,-152.8385 175.8519,-151.916 178.5,-151.196 276.6476,-124.5102 310.8467,-154.8715 404.5,-115.196 406.3298,-114.4208 408.1507,-113.5228 409.9431,-112.5379"/>
<polygon fill="#ff0000" stroke="#ff0000" stroke-width=".4107" points="412.0128,-115.3696 418.5769,-107.0532 408.2593,-109.461 412.0128,-115.3696"/>
</g>
<!-- &#45;13&#45;&gt;4766 -->
<g id="edge72" class="edge">
<title>&#45;13&#45;&gt;4766</title>
<path fill="none" stroke="#00ff00" stroke-width=".5" d="M170.4166,-153.7372C173.0717,-152.7674 175.8395,-151.8686 178.5,-151.196 305.6996,-119.0387 349.7978,-164.2102 471.5,-115.196 473.3932,-114.4335 475.2739,-113.5341 477.1213,-112.5376"/>
<polygon fill="#00ff00" stroke="#00ff00" stroke-width=".5" points="479.405,-115.2347 485.9862,-106.9318 475.6637,-109.3183 479.405,-115.2347"/>
</g>
<!-- &#45;13&#45;&gt;4767 -->
<g id="edge73" class="edge">
<title>&#45;13&#45;&gt;4767</title>
<path fill="none" stroke="#00ff00" stroke-width=".5" d="M157.3303,-151.0775C158.6945,-144.2808 160.6507,-134.5351 162.5968,-124.8392"/>
<polygon fill="#00ff00" stroke="#00ff00" stroke-width=".5" points="166.0596,-125.3719 164.5961,-114.8787 159.1965,-123.9943 166.0596,-125.3719"/>
</g>
<!-- &#45;14 -->
<g id="node14" class="node">
<title>&#45;14</title>
<polygon fill="#d3d3d3" stroke="#000000" points="217,-169.196 188,-169.196 188,-151.196 217,-151.196 217,-169.196"/>
<text text-anchor="middle" x="202.5" y="-157.996" font-family="Times,serif" font-size="9.00" fill="#000000">&#45;14</text>
</g>
<!-- &#45;14&#45;&gt;4768 -->
<g id="edge80" class="edge">
<title>&#45;14&#45;&gt;4768</title>
<path fill="none" stroke="#00ff00" stroke-width=".3912" d="M206.9449,-151.0775C210.5925,-143.5948 215.9824,-132.5378 221.1641,-121.9078"/>
<polygon fill="#00ff00" stroke="#00ff00" stroke-width=".3912" points="224.3794,-123.2995 225.6151,-112.7769 218.0871,-120.2322 224.3794,-123.2995"/>
</g>
<!-- &#45;14&#45;&gt;4769 -->
<g id="edge81" class="edge">
<title>&#45;14&#45;&gt;4769</title>
<path fill="none" stroke="#ff0000" stroke-width=".2116" d="M216.7286,-151.1271C230.6007,-142.2043 252.2186,-128.0834 270.5,-115.196 272.1242,-114.0509 273.7841,-112.8634 275.4528,-111.6559"/>
<polygon fill="#ff0000" stroke="#ff0000" stroke-width=".2116" points="277.7627,-114.3018 283.7456,-105.5579 273.6158,-108.6623 277.7627,-114.3018"/>
</g>
<!-- &#45;14&#45;&gt;4770 -->
<g id="edge82" class="edge">
<title>&#45;14&#45;&gt;4770</title>
<path fill="none" stroke="#ff0000" stroke-width=".133" d="M217.0494,-154.3457C219.8427,-153.2672 222.7531,-152.1738 225.5,-151.196 274.758,-133.661 291.056,-139.2123 337.5,-115.196 339.2652,-114.2832 341.0355,-113.2774 342.789,-112.2097"/>
<polygon fill="#ff0000" stroke="#ff0000" stroke-width=".133" points="344.9561,-114.9707 351.3157,-106.4968 341.0598,-109.1553 344.9561,-114.9707"/>
</g>
<!-- &#45;14&#45;&gt;4771 -->
<g id="edge83" class="edge">
<title>&#45;14&#45;&gt;4771</title>
<path fill="none" stroke="#ff0000" stroke-width=".4456" d="M217.4631,-153.9075C220.113,-152.9187 222.867,-151.9694 225.5,-151.196 303.3585,-128.3237 330.4364,-148.3572 404.5,-115.196 406.3138,-114.3839 408.1221,-113.457 409.9048,-112.4499"/>
<polygon fill="#ff0000" stroke="#ff0000" stroke-width=".4456" points="412.0015,-115.2626 418.5119,-106.904 408.21,-109.3782 412.0015,-115.2626"/>
</g>
<!-- &#45;14&#45;&gt;4766 -->
<g id="edge78" class="edge">
<title>&#45;14&#45;&gt;4766</title>
<path fill="none" stroke="#ff0000" stroke-width=".4757" d="M217.43,-153.7889C220.0836,-152.8133 222.8474,-151.8992 225.5,-151.196 332.3082,-122.88 369.4851,-157.6546 471.5,-115.196 473.3843,-114.4117 475.258,-113.4954 477.1002,-112.486"/>
<polygon fill="#ff0000" stroke="#ff0000" stroke-width=".4757" points="479.3988,-115.1715 485.951,-106.8457 475.6368,-109.2683 479.3988,-115.1715"/>
</g>
<!-- &#45;14&#45;&gt;4767 -->
<g id="edge79" class="edge">
<title>&#45;14&#45;&gt;4767</title>
<path fill="none" stroke="#ff0000" stroke-width=".292" d="M198.1858,-151.0775C194.6726,-143.6519 189.4939,-132.7064 184.5001,-122.1514"/>
<polygon fill="#ff0000" stroke="#ff0000" stroke-width=".292" points="187.6462,-120.617 180.2056,-113.0746 181.3186,-123.6108 187.6462,-120.617"/>
</g>
<!-- &#45;15 -->
<g id="node15" class="node">
<title>&#45;15</title>
<polygon fill="#d3d3d3" stroke="#000000" points="264,-169.196 235,-169.196 235,-151.196 264,-151.196 264,-169.196"/>
<text text-anchor="middle" x="249.5" y="-157.996" font-family="Times,serif" font-size="9.00" fill="#000000">&#45;15</text>
</g>
<!-- &#45;15&#45;&gt;4768 -->
<g id="edge86" class="edge">
<title>&#45;15&#45;&gt;4768</title>
<path fill="none" stroke="#00ff00" stroke-width=".4999" d="M247.8005,-151.0775C246.5337,-144.2808 244.7172,-134.5351 242.9101,-124.8392"/>
<polygon fill="#00ff00" stroke="#00ff00" stroke-width=".4999" points="246.3267,-124.0681 241.0536,-114.8787 239.4452,-125.3507 246.3267,-124.0681"/>
</g>
<!-- &#45;15&#45;&gt;4769 -->
<g id="edge87" class="edge">
<title>&#45;15&#45;&gt;4769</title>
<path fill="none" stroke="#ff0000" stroke-width=".3663" d="M256.5596,-151.0775C263.0009,-142.7576 272.8634,-130.0188 281.8885,-118.3616"/>
<polygon fill="#ff0000" stroke="#ff0000" stroke-width=".3663" points="284.897,-120.193 288.2513,-110.1431 279.3619,-115.9077 284.897,-120.193"/>
</g>
<!-- &#45;15&#45;&gt;4770 -->
<g id="edge88" class="edge">
<title>&#45;15&#45;&gt;4770</title>
<path fill="none" stroke="#00ff00" stroke-width=".2927" d="M264.2433,-153.6028C282.0684,-145.4191 312.7551,-130.6439 337.5,-115.196 339.1857,-114.1436 340.8938,-113.0285 342.5995,-111.8768"/>
<polygon fill="#00ff00" stroke="#00ff00" stroke-width=".2927" points="344.8558,-114.5678 350.9943,-105.9324 340.8105,-108.855 344.8558,-114.5678"/>
</g>
<!-- &#45;15&#45;&gt;4771 -->
<g id="edge89" class="edge">
<title>&#45;15&#45;&gt;4771</title>
<path fill="none" stroke="#ff0000" stroke-width=".4942" d="M264.149,-154.4625C267.2203,-153.3282 270.4521,-152.184 273.5,-151.196 330.9381,-132.5763 350.2845,-141.7761 404.5,-115.196 406.2844,-114.3211 408.0696,-113.3452 409.8347,-112.3003"/>
<polygon fill="#ff0000" stroke="#ff0000" stroke-width=".4942" points="411.9758,-115.0807 418.393,-106.6504 408.1192,-109.2389 411.9758,-115.0807"/>
</g>
<!-- &#45;15&#45;&gt;4766 -->
<g id="edge84" class="edge">
<title>&#45;15&#45;&gt;4766</title>
<path fill="none" stroke="#ff0000" stroke-width=".5" d="M264.086,-154.2524C267.1618,-153.1333 270.4115,-152.0484 273.5,-151.196 359.7187,-127.3981 389.5297,-150.9852 471.5,-115.196 473.3212,-114.4008 475.1354,-113.4872 476.9226,-112.4902"/>
<polygon fill="#ff0000" stroke="#ff0000" stroke-width=".5" points="479.007,-115.3116 485.5422,-106.9724 475.233,-109.4161 479.007,-115.3116"/>
</g>
<!-- &#45;15&#45;&gt;4767 -->
<g id="edge85" class="edge">
<title>&#45;15&#45;&gt;4767</title>
<path fill="none" stroke="#ff0000" stroke-width=".5" d="M239.0414,-151.0775C228.1777,-141.606 210.7456,-126.4076 196.0529,-113.5976"/>
<polygon fill="#ff0000" stroke="#ff0000" stroke-width=".5" points="198.0688,-110.7117 188.2312,-106.7782 193.4686,-115.988 198.0688,-110.7117"/>
</g>
<!-- 0 -->
<g id="node16" class="node">
<title>0</title>
<ellipse fill="#add8e6" stroke="#000000" cx="312.5" cy="-14.8492" rx="14.7" ry="14.7"/>
<text text-anchor="middle" x="312.5" y="-12.6492" font-family="Times,serif" font-size="9.00" fill="#000000">0</text>
</g>
<!-- 1 -->
<g id="node17" class="node">
<title>1</title>
<ellipse fill="#add8e6" stroke="#000000" cx="365.5" cy="-14.8492" rx="14.7" ry="14.7"/>
<text text-anchor="middle" x="365.5" y="-12.6492" font-family="Times,serif" font-size="9.00" fill="#000000">1</text>
</g>
<!-- 4768&#45;&gt;0 -->
<g id="edge94" class="edge">
<title>4768&#45;&gt;0</title>
<path fill="none" stroke="#00ff00" stroke-width=".1494" d="M254.127,-72.9135C266.2131,-60.8913 282.203,-44.9859 294.3912,-32.8623"/>
<polygon fill="#00ff00" stroke="#00ff00" stroke-width=".1494" points="297.1507,-35.054 301.7722,-25.5202 292.2141,-30.0911 297.1507,-35.054"/>
</g>
<!-- 4768&#45;&gt;1 -->
<g id="edge95" class="edge">
<title>4768&#45;&gt;1</title>
<path fill="none" stroke="#00ff00" stroke-width=".2047" d="M256.0366,-75.011C260.3798,-71.8027 265.025,-68.5372 269.5,-65.6985 276.3439,-61.3571 317.278,-39.9207 343.4372,-26.3035"/>
<polygon fill="#00ff00" stroke="#00ff00" stroke-width=".2047" points="345.0585,-29.4054 352.3158,-21.6865 341.8289,-23.1949 345.0585,-29.4054"/>
</g>
<!-- 4769&#45;&gt;0 -->
<g id="edge96" class="edge">
<title>4769&#45;&gt;0</title>
<path fill="none" stroke="#ff0000" stroke-width=".2014" d="M306.4469,-65.6936C307.4307,-57.4298 308.5274,-48.2178 309.5142,-39.9294"/>
<polygon fill="#ff0000" stroke="#ff0000" stroke-width=".2014" points="313.0225,-40.0666 310.7293,-29.7229 306.0716,-39.239 313.0225,-40.0666"/>
</g>
<!-- 4769&#45;&gt;1 -->
<g id="edge97" class="edge">
<title>4769&#45;&gt;1</title>
<path fill="none" stroke="#ff0000" stroke-width=".1825" d="M319.4665,-70.9789C328.6157,-59.823 340.0701,-45.8565 349.264,-34.6461"/>
<polygon fill="#ff0000" stroke="#ff0000" stroke-width=".1825" points="352.1433,-36.6547 355.7784,-26.703 346.7307,-32.2157 352.1433,-36.6547"/>
</g>
<!-- 4770&#45;&gt;0 -->
<g id="edge98" class="edge">
<title>4770&#45;&gt;0</title>
<path fill="none" stroke="#00ff00" stroke-width=".1262" d="M355.2612,-70.5847C346.8924,-59.6767 336.5332,-46.1744 328.107,-35.1917"/>
<polygon fill="#00ff00" stroke="#00ff00" stroke-width=".1262" points="330.7028,-32.8251 321.8388,-27.0216 325.149,-37.0861 330.7028,-32.8251"/>
</g>
<!-- 4770&#45;&gt;1 -->
<g id="edge99" class="edge">
<title>4770&#45;&gt;1</title>
<path fill="none" stroke="#00ff00" stroke-width=".1051" d="M368.8628,-65.6936C368.3163,-57.4298 367.707,-48.2178 367.1588,-39.9294"/>
<polygon fill="#00ff00" stroke="#00ff00" stroke-width=".1051" points="370.6361,-39.4701 366.4837,-29.7229 363.6514,-39.9322 370.6361,-39.4701"/>
</g>
<!-- 4771&#45;&gt;0 -->
<g id="edge100" class="edge">
<title>4771&#45;&gt;0</title>
<path fill="none" stroke="#00ff00" stroke-width=".3103" d="M417.9248,-75.0713C413.584,-71.8592 408.9495,-68.5769 404.5,-65.6985 391.964,-57.5889 357.8687,-39.0727 334.895,-26.7659"/>
<polygon fill="#00ff00" stroke="#00ff00" stroke-width=".3103" points="336.2948,-23.5456 325.8253,-21.9202 332.9961,-29.7196 336.2948,-23.5456"/>
</g>
<!-- 4771&#45;&gt;1 -->
<g id="edge101" class="edge">
<title>4771&#45;&gt;1</title>
<path fill="none" stroke="#ff0000" stroke-width=".3942" d="M420.0708,-72.1471C408.8443,-60.3595 394.2997,-45.0881 383.0495,-33.2757"/>
<polygon fill="#ff0000" stroke="#ff0000" stroke-width=".3942" points="385.2997,-30.5634 375.8685,-25.7359 380.2308,-35.3911 385.2997,-30.5634"/>
</g>
<!-- 4766&#45;&gt;0 -->
<g id="edge90" class="edge">
<title>4766&#45;&gt;0</title>
<path fill="none" stroke="#00ff00" stroke-width=".5" d="M485.3895,-74.2511C481.0198,-71.0901 476.256,-68.036 471.5,-65.6985 417.6951,-39.254 397.3583,-51.4728 341.5,-29.6985 339.2322,-28.8145 336.9074,-27.8081 334.6089,-26.7454"/>
<polygon fill="#00ff00" stroke="#00ff00" stroke-width=".5" points="336.0342,-23.5455 325.5214,-22.2301 332.9194,-29.8143 336.0342,-23.5455"/>
</g>
<!-- 4766&#45;&gt;1 -->
<g id="edge91" class="edge">
<title>4766&#45;&gt;1</title>
<path fill="none" stroke="#00ff00" stroke-width=".2239" d="M485.0478,-74.8751C480.6993,-71.6752 476.0306,-68.4475 471.5,-65.6985 444.2342,-49.1545 410.7626,-33.8625 388.8187,-24.4576"/>
<polygon fill="#00ff00" stroke="#00ff00" stroke-width=".2239" points="389.9045,-21.1169 379.3307,-20.4506 387.1811,-27.5655 389.9045,-21.1169"/>
</g>
<!-- 4767&#45;&gt;0 -->
<g id="edge92" class="edge">
<title>4767&#45;&gt;0</title>
<path fill="none" stroke="#00ff00" stroke-width=".1079" d="M188.9226,-74.8259C193.2729,-71.6291 197.9499,-68.4151 202.5,-65.6985 231.0105,-48.6765 266.1768,-33.3158 288.9554,-24.0378"/>
<polygon fill="#00ff00" stroke="#00ff00" stroke-width=".1079" points="290.5017,-27.1888 298.4812,-20.2189 287.8969,-20.6915 290.5017,-27.1888"/>
</g>
<!-- 4767&#45;&gt;1 -->
<g id="edge93" class="edge">
<title>4767&#45;&gt;1</title>
<path fill="none" stroke="#ff0000" stroke-width=".4891" d="M188.5969,-74.2234C192.9675,-71.064 197.735,-68.0177 202.5,-65.6985 257.9483,-38.7106 278.958,-51.8745 336.5,-29.6985 338.7712,-28.8232 341.0982,-27.8226 343.3981,-26.7636"/>
<polygon fill="#ff0000" stroke="#ff0000" stroke-width=".4891" points="345.0859,-29.8334 352.4873,-22.2525 341.9739,-23.5631 345.0859,-29.8334"/>
</g>
</g>
</svg>
