<?xml version="1.0" encoding="UTF-8" standalone="no"?>
<!DOCTYPE svg PUBLIC "-//W3C//DTD SVG 1.1//EN"
 "http://www.w3.org/Graphics/SVG/1.1/DTD/svg11.dtd">
<!-- Generated by graphviz version 2.40.1 (20161225.0304)
 -->
<!-- Title: %3 Pages: 1 -->
<svg width="245pt" height="256pt"
 viewBox="0.00 0.00 244.89 255.62" xmlns="http://www.w3.org/2000/svg" xmlns:xlink="http://www.w3.org/1999/xlink">
<g id="graph0" class="graph" transform="scale(1 1) rotate(0) translate(4 251.6224)">
<title>%3</title>
<polygon fill="#ffffff" stroke="transparent" points="-4,4 -4,-251.6224 240.8898,-251.6224 240.8898,4 -4,4"/>
<!-- &#45;1 -->
<g id="node1" class="node">
<title>&#45;1</title>
<polygon fill="#d3d3d3" stroke="#000000" points="167.6766,-247.6224 143.6766,-247.6224 143.6766,-229.6224 167.6766,-229.6224 167.6766,-247.6224"/>
<text text-anchor="middle" x="155.6766" y="-236.4224" font-family="Times,serif" font-size="9.00" fill="#000000">&#45;1</text>
</g>
<!-- 668 -->
<g id="node7" class="node">
<title>668</title>
<ellipse fill="#ffffff" stroke="#000000" cx="95.6766" cy="-172.4092" rx="21.4286" ry="21.4286"/>
<text text-anchor="middle" x="95.6766" y="-170.2092" font-family="Times,serif" font-size="9.00" fill="#000000">668</text>
</g>
<!-- &#45;1&#45;&gt;668 -->
<g id="edge1" class="edge">
<title>&#45;1&#45;&gt;668</title>
<path fill="none" stroke="#ff0000" stroke-width=".4222" stroke-dasharray="1,5" d="M147.3338,-229.4157C139.4851,-220.7542 127.4016,-207.4194 116.8943,-195.8241"/>
<polygon fill="#ff0000" stroke="#ff0000" stroke-width=".4222" points="119.2517,-193.2132 109.9433,-188.1532 114.0646,-197.9137 119.2517,-193.2132"/>
</g>
<!-- 669 -->
<g id="node8" class="node">
<title>669</title>
<ellipse fill="#ffffff" stroke="#000000" cx="215.6766" cy="-172.4092" rx="21.4286" ry="21.4286"/>
<text text-anchor="middle" x="215.6766" y="-170.2092" font-family="Times,serif" font-size="9.00" fill="#000000">669</text>
</g>
<!-- &#45;1&#45;&gt;669 -->
<g id="edge2" class="edge">
<title>&#45;1&#45;&gt;669</title>
<path fill="none" stroke="#ff0000" stroke-width=".2067" d="M164.0193,-229.4157C171.868,-220.7542 183.9516,-207.4194 194.4588,-195.8241"/>
<polygon fill="#ff0000" stroke="#ff0000" stroke-width=".2067" points="197.2885,-197.9137 201.4098,-188.1532 192.1014,-193.2132 197.2885,-197.9137"/>
</g>
<!-- 670 -->
<g id="node9" class="node">
<title>670</title>
<ellipse fill="#ffffff" stroke="#000000" cx="155.6766" cy="-172.4092" rx="21.4286" ry="21.4286"/>
<text text-anchor="middle" x="155.6766" y="-170.2092" font-family="Times,serif" font-size="9.00" fill="#000000">670</text>
</g>
<!-- &#45;1&#45;&gt;670 -->
<g id="edge3" class="edge">
<title>&#45;1&#45;&gt;670</title>
<path fill="none" stroke="#ff0000" stroke-width=".2792" d="M155.6766,-229.4157C155.6766,-222.7547 155.6766,-213.3298 155.6766,-204.0577"/>
<polygon fill="#ff0000" stroke="#ff0000" stroke-width=".2792" points="159.1767,-203.8095 155.6766,-193.8095 152.1767,-203.8096 159.1767,-203.8095"/>
</g>
<!-- 671 -->
<g id="node10" class="node">
<title>671</title>
<ellipse fill="#ffffff" stroke="#000000" cx="35.6766" cy="-172.4092" rx="21.4286" ry="21.4286"/>
<text text-anchor="middle" x="35.6766" y="-170.2092" font-family="Times,serif" font-size="9.00" fill="#000000">671</text>
</g>
<!-- &#45;1&#45;&gt;671 -->
<g id="edge4" class="edge">
<title>&#45;1&#45;&gt;671</title>
<path fill="none" stroke="#00ff00" stroke-width=".1416" d="M143.4291,-233.2183C125.8166,-225.2875 92.5041,-209.6877 65.6766,-193.6224 64.2092,-192.7437 62.7201,-191.8163 61.23,-190.8602"/>
<polygon fill="#00ff00" stroke="#00ff00" stroke-width=".1416" points="63.0782,-187.8852 52.8274,-185.207 59.1706,-193.6931 63.0782,-187.8852"/>
</g>
<!-- &#45;2 -->
<g id="node2" class="node">
<title>&#45;2</title>
<polygon fill="#d3d3d3" stroke="#000000" points="125.6766,-247.6224 101.6766,-247.6224 101.6766,-229.6224 125.6766,-229.6224 125.6766,-247.6224"/>
<text text-anchor="middle" x="113.6766" y="-236.4224" font-family="Times,serif" font-size="9.00" fill="#000000">&#45;2</text>
</g>
<!-- &#45;2&#45;&gt;668 -->
<g id="edge5" class="edge">
<title>&#45;2&#45;&gt;668</title>
<path fill="none" stroke="#00ff00" stroke-width=".2344" d="M111.1737,-229.4157C109.281,-222.4532 106.5673,-212.4709 103.9382,-202.7999"/>
<polygon fill="#00ff00" stroke="#00ff00" stroke-width=".2344" points="107.2678,-201.7055 101.2671,-192.9738 100.513,-203.5418 107.2678,-201.7055"/>
</g>
<!-- &#45;2&#45;&gt;669 -->
<g id="edge6" class="edge">
<title>&#45;2&#45;&gt;669</title>
<path fill="none" stroke="#00ff00" stroke-width=".1181" d="M125.7849,-231.3441C140.2011,-222.6123 164.9356,-207.4209 185.6766,-193.6224 187.1006,-192.675 188.5554,-191.6934 190.0189,-190.6951"/>
<polygon fill="#00ff00" stroke="#00ff00" stroke-width=".1181" points="192.1236,-193.4948 198.3428,-184.9173 188.1321,-187.7443 192.1236,-193.4948"/>
</g>
<!-- &#45;2&#45;&gt;670 -->
<g id="edge7" class="edge">
<title>&#45;2&#45;&gt;670</title>
<path fill="none" stroke="#ff0000" stroke-width=".1867" d="M119.5165,-229.4157C124.4823,-221.587 131.8698,-209.9406 138.6755,-199.2114"/>
<polygon fill="#ff0000" stroke="#ff0000" stroke-width=".1867" points="141.7885,-200.8378 144.1895,-190.5186 135.8774,-197.0883 141.7885,-200.8378"/>
</g>
<!-- &#45;2&#45;&gt;671 -->
<g id="edge8" class="edge">
<title>&#45;2&#45;&gt;671</title>
<path fill="none" stroke="#00ff00" stroke-width=".5" d="M102.831,-229.4157C91.6701,-219.9414 73.9222,-204.8754 59.4743,-192.6108"/>
<polygon fill="#00ff00" stroke="#00ff00" stroke-width=".5" points="61.7387,-189.942 51.85,-186.1386 57.2086,-195.2785 61.7387,-189.942"/>
</g>
<!-- &#45;3 -->
<g id="node3" class="node">
<title>&#45;3</title>
<polygon fill="#d3d3d3" stroke="#000000" points="83.6766,-247.6224 59.6766,-247.6224 59.6766,-229.6224 83.6766,-229.6224 83.6766,-247.6224"/>
<text text-anchor="middle" x="71.6766" y="-236.4224" font-family="Times,serif" font-size="9.00" fill="#000000">&#45;3</text>
</g>
<!-- &#45;3&#45;&gt;668 -->
<g id="edge9" class="edge">
<title>&#45;3&#45;&gt;668</title>
<path fill="none" stroke="#00ff00" stroke-width=".3755" d="M75.0137,-229.4157C77.6025,-222.2733 81.3432,-211.9531 84.9324,-202.0509"/>
<polygon fill="#00ff00" stroke="#00ff00" stroke-width=".3755" points="88.3056,-203.0155 88.4229,-192.4213 81.7246,-200.63 88.3056,-203.0155"/>
</g>
<!-- &#45;3&#45;&gt;670 -->
<g id="edge10" class="edge">
<title>&#45;3&#45;&gt;670</title>
<path fill="none" stroke="#00ff00" stroke-width=".206" d="M83.3564,-229.4157C95.528,-219.8214 114.974,-204.4931 130.6373,-192.1464"/>
<polygon fill="#00ff00" stroke="#00ff00" stroke-width=".206" points="133.193,-194.5886 138.8798,-185.6493 128.8596,-189.0911 133.193,-194.5886"/>
</g>
<!-- &#45;3&#45;&gt;671 -->
<g id="edge11" class="edge">
<title>&#45;3&#45;&gt;671</title>
<path fill="none" stroke="#ff0000" stroke-width=".4948" d="M66.6709,-229.4157C62.5168,-221.7753 56.3856,-210.4984 50.6705,-199.9868"/>
<polygon fill="#ff0000" stroke="#ff0000" stroke-width=".4948" points="53.6669,-198.1706 45.8154,-191.057 47.5171,-201.5143 53.6669,-198.1706"/>
</g>
<!-- 0 -->
<g id="node4" class="node">
<title>0</title>
<ellipse fill="#add8e6" stroke="#000000" cx="136.6766" cy="-90.4472" rx="14.7" ry="14.7"/>
<text text-anchor="middle" x="136.6766" y="-88.2472" font-family="Times,serif" font-size="9.00" fill="#000000">0</text>
</g>
<!-- 1 -->
<g id="node5" class="node">
<title>1</title>
<ellipse fill="#add8e6" stroke="#000000" cx="93.6766" cy="-14.8492" rx="14.7" ry="14.7"/>
<text text-anchor="middle" x="93.6766" y="-12.6492" font-family="Times,serif" font-size="9.00" fill="#000000">1</text>
</g>
<!-- 1809 -->
<g id="node6" class="node">
<title>1809</title>
<ellipse fill="#ffffff" stroke="#000000" cx="40.6766" cy="-90.4472" rx="25" ry="25"/>
<text text-anchor="middle" x="40.6766" y="-88.2472" font-family="Times,serif" font-size="9.00" fill="#000000">1809</text>
</g>
<!-- 1809&#45;&gt;1 -->
<g id="edge21" class="edge">
<title>1809&#45;&gt;1</title>
<path fill="none" stroke="#00ff00" stroke-width=".3502" d="M55.159,-69.7897C62.6298,-59.1337 71.7171,-46.1717 79.1886,-35.5145"/>
<polygon fill="#00ff00" stroke="#00ff00" stroke-width=".3502" points="82.1389,-37.4032 85.0137,-27.2058 76.4072,-33.3848 82.1389,-37.4032"/>
</g>
<!-- 668&#45;&gt;0 -->
<g id="edge12" class="edge">
<title>668&#45;&gt;0</title>
<path fill="none" stroke="#ff0000" stroke-width=".2764" d="M105.1858,-153.3994C111.2181,-141.3405 119.0529,-125.6781 125.3985,-112.9928"/>
<polygon fill="#ff0000" stroke="#ff0000" stroke-width=".2764" points="128.5626,-114.4909 129.9062,-103.9816 122.3022,-111.3592 128.5626,-114.4909"/>
</g>
<!-- 668&#45;&gt;1 -->
<g id="edge13" class="edge">
<title>668&#45;&gt;1</title>
<path fill="none" stroke="#ff0000" stroke-width=".1141" stroke-dasharray="1,5" d="M95.4068,-151.1599C95.0422,-122.4325 94.3927,-71.2637 94.0015,-40.4515"/>
<polygon fill="#ff0000" stroke="#ff0000" stroke-width=".1141" points="97.4969,-40.0546 93.8701,-30.0999 90.4974,-40.1436 97.4969,-40.0546"/>
</g>
<!-- 668&#45;&gt;1809 -->
<g id="edge20" class="edge">
<title>668&#45;&gt;1809</title>
<path fill="none" stroke="#00ff00" stroke-width=".1223" d="M83.7424,-154.6246C76.8945,-144.4198 68.1264,-131.3535 60.2913,-119.6774"/>
<polygon fill="#00ff00" stroke="#00ff00" stroke-width=".1223" points="63.0072,-117.4434 54.5287,-111.09 57.1946,-121.344 63.0072,-117.4434"/>
</g>
<!-- 669&#45;&gt;0 -->
<g id="edge14" class="edge">
<title>669&#45;&gt;0</title>
<path fill="none" stroke="#ff0000" stroke-width=".265" stroke-dasharray="1,5" d="M200.8173,-156.9927C187.6934,-143.3768 168.5272,-123.4921 154.5654,-109.0067"/>
<polygon fill="#ff0000" stroke="#ff0000" stroke-width=".265" points="156.8754,-106.36 147.4156,-101.5889 151.8354,-111.2179 156.8754,-106.36"/>
</g>
<!-- 669&#45;&gt;1 -->
<g id="edge15" class="edge">
<title>669&#45;&gt;1</title>
<path fill="none" stroke="#ff0000" stroke-width=".243" d="M212.9639,-151.0447C209.0729,-127.8464 199.9894,-90.7614 179.6766,-65.6985 163.3083,-45.5026 136.629,-31.5254 117.3221,-23.4076"/>
<polygon fill="#ff0000" stroke="#ff0000" stroke-width=".243" points="118.577,-20.1401 107.9916,-19.6948 115.9889,-26.6441 118.577,-20.1401"/>
</g>
<!-- 670&#45;&gt;0 -->
<g id="edge16" class="edge">
<title>670&#45;&gt;0</title>
<path fill="none" stroke="#ff0000" stroke-width=".4024" d="M150.8821,-151.7267C148.2897,-140.5438 145.0719,-126.663 142.3547,-114.9416"/>
<polygon fill="#ff0000" stroke="#ff0000" stroke-width=".4024" points="145.7003,-113.8747 140.0324,-104.9235 138.8811,-115.4556 145.7003,-113.8747"/>
</g>
<!-- 670&#45;&gt;1 -->
<g id="edge17" class="edge">
<title>670&#45;&gt;1</title>
<path fill="none" stroke="#ff0000" stroke-width=".2054" d="M162.281,-151.9344C168.2735,-129.515 174.284,-93.1084 160.6766,-65.6985 151.5353,-47.285 132.186,-33.7458 116.6205,-25.2886"/>
<polygon fill="#ff0000" stroke="#ff0000" stroke-width=".2054" points="118.0441,-22.0862 107.5428,-20.6813 114.876,-28.3282 118.0441,-22.0862"/>
</g>
<!-- 671&#45;&gt;0 -->
<g id="edge18" class="edge">
<title>671&#45;&gt;0</title>
<path fill="none" stroke="#ff0000" stroke-width=".4554" d="M52.3547,-158.8748C70.1377,-144.4438 98.2765,-121.6091 117.0982,-106.3352"/>
<polygon fill="#ff0000" stroke="#ff0000" stroke-width=".4554" points="119.4602,-108.9259 125.0197,-99.9068 115.0493,-103.4904 119.4602,-108.9259"/>
</g>
<!-- 671&#45;&gt;1 -->
<g id="edge19" class="edge">
<title>671&#45;&gt;1</title>
<path fill="none" stroke="#00ff00" stroke-width=".102" d="M23.2953,-155.1157C9.2018,-133.1108 -9.8531,-94.5057 6.6766,-65.6985 20.0096,-42.4624 48.5202,-28.8305 69.2807,-21.6268"/>
<polygon fill="#00ff00" stroke="#00ff00" stroke-width=".102" points="70.5694,-24.8894 79.0289,-18.5108 68.438,-18.2218 70.5694,-24.8894"/>
</g>
<!-- 671&#45;&gt;1809 -->
<g id="edge22" class="edge">
<title>671&#45;&gt;1809</title>
<path fill="none" stroke="#ff0000" stroke-width=".4439" d="M36.9903,-150.8746C37.4634,-143.1192 38.0103,-134.1541 38.5356,-125.543"/>
<polygon fill="#ff0000" stroke="#ff0000" stroke-width=".4439" points="42.0437,-125.5147 39.1592,-115.3201 35.0567,-125.0884 42.0437,-125.5147"/>
</g>
</g>
</svg>
