<?xml version="1.0" encoding="UTF-8" standalone="no"?>
<!DOCTYPE svg PUBLIC "-//W3C//DTD SVG 1.1//EN"
 "http://www.w3.org/Graphics/SVG/1.1/DTD/svg11.dtd">
<!-- Generated by graphviz version 2.40.1 (20161225.0304)
 -->
<!-- Title: %3 Pages: 1 -->
<svg width="344pt" height="263pt"
 viewBox="0.00 0.00 344.46 262.69" xmlns="http://www.w3.org/2000/svg" xmlns:xlink="http://www.w3.org/1999/xlink">
<g id="graph0" class="graph" transform="scale(1 1) rotate(0) translate(4 258.6934)">
<title>%3</title>
<polygon fill="#ffffff" stroke="transparent" points="-4,4 -4,-258.6934 340.4605,-258.6934 340.4605,4 -4,4"/>
<!-- &#45;1 -->
<g id="node1" class="node">
<title>&#45;1</title>
<polygon fill="#d3d3d3" stroke="#000000" points="271.7487,-254.6934 247.7487,-254.6934 247.7487,-236.6934 271.7487,-236.6934 271.7487,-254.6934"/>
<text text-anchor="middle" x="259.7487" y="-243.4934" font-family="Times,serif" font-size="9.00" fill="#000000">&#45;1</text>
</g>
<!-- 3633 -->
<g id="node6" class="node">
<title>3633</title>
<ellipse fill="#ffffff" stroke="#000000" cx="293.7487" cy="-175.9447" rx="25" ry="25"/>
<text text-anchor="middle" x="293.7487" y="-173.7447" font-family="Times,serif" font-size="9.00" fill="#000000">3633</text>
</g>
<!-- &#45;1&#45;&gt;3633 -->
<g id="edge1" class="edge">
<title>&#45;1&#45;&gt;3633</title>
<path fill="none" stroke="#00ff00" stroke-width=".1166" d="M264.1936,-236.575C267.8412,-229.0923 273.2311,-218.0352 278.4128,-207.4053"/>
<polygon fill="#00ff00" stroke="#00ff00" stroke-width=".1166" points="281.6281,-208.797 282.8638,-198.2744 275.3359,-205.7297 281.6281,-208.797"/>
</g>
<!-- 3634 -->
<g id="node7" class="node">
<title>3634</title>
<ellipse fill="#ffffff" stroke="#000000" cx="168.7487" cy="-90.4472" rx="25" ry="25"/>
<text text-anchor="middle" x="168.7487" y="-88.2472" font-family="Times,serif" font-size="9.00" fill="#000000">3634</text>
</g>
<!-- &#45;1&#45;&gt;3634 -->
<g id="edge2" class="edge">
<title>&#45;1&#45;&gt;3634</title>
<path fill="none" stroke="#ff0000" stroke-width=".5" stroke-dasharray="1,5" d="M271.7904,-241.788C287.9214,-235.8279 315.8878,-222.7654 327.7487,-200.6934 338.1621,-181.3153 340.2232,-169.316 327.7487,-151.196 313.1974,-130.0591 245.2065,-109.6411 202.9844,-98.6953"/>
<polygon fill="#ff0000" stroke="#ff0000" stroke-width=".5" points="203.6644,-95.257 193.1104,-96.1859 201.9402,-102.0413 203.6644,-95.257"/>
</g>
<!-- 3635 -->
<g id="node8" class="node">
<title>3635</title>
<ellipse fill="#ffffff" stroke="#000000" cx="120.7487" cy="-175.9447" rx="25" ry="25"/>
<text text-anchor="middle" x="120.7487" y="-173.7447" font-family="Times,serif" font-size="9.00" fill="#000000">3635</text>
</g>
<!-- &#45;1&#45;&gt;3635 -->
<g id="edge3" class="edge">
<title>&#45;1&#45;&gt;3635</title>
<path fill="none" stroke="#00ff00" stroke-width=".4472" d="M247.4134,-239.5037C226.3096,-228.914 182.6431,-207.0027 152.5297,-191.8921"/>
<polygon fill="#00ff00" stroke="#00ff00" stroke-width=".4472" points="153.7823,-188.6047 143.2747,-187.248 150.6428,-194.8612 153.7823,-188.6047"/>
</g>
<!-- 3637 -->
<g id="node10" class="node">
<title>3637</title>
<ellipse fill="#ffffff" stroke="#000000" cx="226.7487" cy="-175.9447" rx="25" ry="25"/>
<text text-anchor="middle" x="226.7487" y="-173.7447" font-family="Times,serif" font-size="9.00" fill="#000000">3637</text>
</g>
<!-- &#45;1&#45;&gt;3637 -->
<g id="edge4" class="edge">
<title>&#45;1&#45;&gt;3637</title>
<path fill="none" stroke="#00ff00" stroke-width=".5" stroke-dasharray="1,5" d="M255.4346,-236.575C251.9213,-229.1494 246.7427,-218.2038 241.7488,-207.6488"/>
<polygon fill="#00ff00" stroke="#00ff00" stroke-width=".5" points="244.8949,-206.1145 237.4543,-198.572 238.5674,-209.1083 244.8949,-206.1145"/>
</g>
<!-- &#45;2 -->
<g id="node2" class="node">
<title>&#45;2</title>
<polygon fill="#d3d3d3" stroke="#000000" points="185.7487,-254.6934 161.7487,-254.6934 161.7487,-236.6934 185.7487,-236.6934 185.7487,-254.6934"/>
<text text-anchor="middle" x="173.7487" y="-243.4934" font-family="Times,serif" font-size="9.00" fill="#000000">&#45;2</text>
</g>
<!-- &#45;2&#45;&gt;3633 -->
<g id="edge5" class="edge">
<title>&#45;2&#45;&gt;3633</title>
<path fill="none" stroke="#00ff00" stroke-width=".2259" d="M185.9163,-240.1873C203.0641,-232.2533 235.1098,-216.7824 260.7487,-200.6934 262.432,-199.6371 264.1381,-198.519 265.8424,-197.3649"/>
<polygon fill="#00ff00" stroke="#00ff00" stroke-width=".2259" points="268.101,-200.054 274.2331,-191.414 264.0515,-194.3442 268.101,-200.054"/>
</g>
<!-- &#45;2&#45;&gt;3634 -->
<g id="edge6" class="edge">
<title>&#45;2&#45;&gt;3634</title>
<path fill="none" stroke="#00ff00" stroke-width=".3118" d="M173.4509,-236.447C172.7621,-215.0587 171.0292,-161.2526 169.8706,-125.2799"/>
<polygon fill="#00ff00" stroke="#00ff00" stroke-width=".3118" points="173.366,-125.0787 169.5458,-115.1966 166.3697,-125.3041 173.366,-125.0787"/>
</g>
<!-- &#45;2&#45;&gt;3635 -->
<g id="edge7" class="edge">
<title>&#45;2&#45;&gt;3635</title>
<path fill="none" stroke="#00ff00" stroke-width=".5" d="M166.8199,-236.575C160.543,-228.3145 150.9561,-215.6981 142.15,-204.109"/>
<polygon fill="#00ff00" stroke="#00ff00" stroke-width=".5" points="144.7712,-201.7735 135.9342,-195.929 139.1977,-206.0087 144.7712,-201.7735"/>
</g>
<!-- 3636 -->
<g id="node9" class="node">
<title>3636</title>
<ellipse fill="#ffffff" stroke="#000000" cx="24.7487" cy="-90.4472" rx="25" ry="25"/>
<text text-anchor="middle" x="24.7487" y="-88.2472" font-family="Times,serif" font-size="9.00" fill="#000000">3636</text>
</g>
<!-- &#45;2&#45;&gt;3636 -->
<g id="edge8" class="edge">
<title>&#45;2&#45;&gt;3636</title>
<path fill="none" stroke="#00ff00" stroke-width=".1369" d="M161.7238,-241.9761C143.5924,-235.8668 109.0122,-222.192 86.7487,-200.6934 74.4017,-188.7705 54.0143,-150.2982 40.0107,-122.1478"/>
<polygon fill="#00ff00" stroke="#00ff00" stroke-width=".1369" points="43.0872,-120.4727 35.5272,-113.05 36.8083,-123.5671 43.0872,-120.4727"/>
</g>
<!-- &#45;2&#45;&gt;3637 -->
<g id="edge9" class="edge">
<title>&#45;2&#45;&gt;3637</title>
<path fill="none" stroke="#00ff00" stroke-width=".1862" d="M180.6776,-236.575C186.9545,-228.3145 196.5413,-215.6981 205.3475,-204.109"/>
<polygon fill="#00ff00" stroke="#00ff00" stroke-width=".1862" points="208.2998,-206.0087 211.5633,-195.929 202.7263,-201.7735 208.2998,-206.0087"/>
</g>
<!-- &#45;3 -->
<g id="node3" class="node">
<title>&#45;3</title>
<polygon fill="#d3d3d3" stroke="#000000" points="132.7487,-254.6934 108.7487,-254.6934 108.7487,-236.6934 132.7487,-236.6934 132.7487,-254.6934"/>
<text text-anchor="middle" x="120.7487" y="-243.4934" font-family="Times,serif" font-size="9.00" fill="#000000">&#45;3</text>
</g>
<!-- &#45;3&#45;&gt;3633 -->
<g id="edge10" class="edge">
<title>&#45;3&#45;&gt;3633</title>
<path fill="none" stroke="#ff0000" stroke-width=".2341" d="M132.8827,-242.0456C164.7208,-232.4386 249.013,-206.762 260.7487,-200.6934 262.514,-199.7806 264.2842,-198.7749 266.0378,-197.7072"/>
<polygon fill="#ff0000" stroke="#ff0000" stroke-width=".2341" points="268.2049,-200.4682 274.5644,-191.9943 264.3085,-194.6528 268.2049,-200.4682"/>
</g>
<!-- &#45;3&#45;&gt;3634 -->
<g id="edge11" class="edge">
<title>&#45;3&#45;&gt;3634</title>
<path fill="none" stroke="#ff0000" stroke-width=".2969" d="M110.8166,-236.4341C102.5795,-228.0231 91.4803,-214.8047 86.7487,-200.6934 79.7551,-179.8358 76.8526,-170.8433 86.7487,-151.196 92.4672,-139.8427 117.5402,-122.1295 138.4726,-108.7538"/>
<polygon fill="#ff0000" stroke="#ff0000" stroke-width=".2969" points="140.5174,-111.6026 147.1217,-103.318 136.7925,-105.6759 140.5174,-111.6026"/>
</g>
<!-- &#45;3&#45;&gt;3635 -->
<g id="edge12" class="edge">
<title>&#45;3&#45;&gt;3635</title>
<path fill="none" stroke="#ff0000" stroke-width=".3135" d="M120.7487,-236.575C120.7487,-229.9583 120.7487,-220.5468 120.7487,-211.1071"/>
<polygon fill="#ff0000" stroke="#ff0000" stroke-width=".3135" points="124.2488,-210.9839 120.7487,-200.984 117.2488,-210.984 124.2488,-210.9839"/>
</g>
<!-- &#45;3&#45;&gt;3636 -->
<g id="edge13" class="edge">
<title>&#45;3&#45;&gt;3636</title>
<path fill="none" stroke="#00ff00" stroke-width=".5" d="M109.6477,-236.5996C99.7932,-228.0963 85.4867,-214.646 75.7487,-200.6934 59.0318,-176.7415 45.4752,-146.4364 36.5525,-123.6637"/>
<polygon fill="#00ff00" stroke="#00ff00" stroke-width=".5" points="39.7359,-122.1887 32.9005,-114.0937 33.1959,-124.6844 39.7359,-122.1887"/>
</g>
<!-- &#45;3&#45;&gt;3637 -->
<g id="edge14" class="edge">
<title>&#45;3&#45;&gt;3637</title>
<path fill="none" stroke="#ff0000" stroke-width=".1696" d="M132.9083,-237.6924C148.5851,-227.3769 176.358,-209.1021 197.6357,-195.1013"/>
<polygon fill="#ff0000" stroke="#ff0000" stroke-width=".1696" points="199.5821,-198.0103 206.0119,-189.5897 195.7343,-192.1627 199.5821,-198.0103"/>
</g>
<!-- 0 -->
<g id="node4" class="node">
<title>0</title>
<ellipse fill="#add8e6" stroke="#000000" cx="144.7487" cy="-14.8492" rx="14.7" ry="14.7"/>
<text text-anchor="middle" x="144.7487" y="-12.6492" font-family="Times,serif" font-size="9.00" fill="#000000">0</text>
</g>
<!-- 1 -->
<g id="node5" class="node">
<title>1</title>
<ellipse fill="#add8e6" stroke="#000000" cx="192.7487" cy="-14.8492" rx="14.7" ry="14.7"/>
<text text-anchor="middle" x="192.7487" y="-12.6492" font-family="Times,serif" font-size="9.00" fill="#000000">1</text>
</g>
<!-- 3633&#45;&gt;0 -->
<g id="edge15" class="edge">
<title>3633&#45;&gt;0</title>
<path fill="none" stroke="#ff0000" stroke-width=".2473" d="M283.3143,-153.2068C271.5648,-129.368 250.6828,-91.8139 224.7487,-65.6985 222.3281,-63.2609 189.0245,-42.3665 166.1587,-28.1317"/>
<polygon fill="#ff0000" stroke="#ff0000" stroke-width=".2473" points="167.7505,-25.0001 157.4099,-22.6929 164.0548,-30.945 167.7505,-25.0001"/>
</g>
<!-- 3633&#45;&gt;1 -->
<g id="edge16" class="edge">
<title>3633&#45;&gt;1</title>
<path fill="none" stroke="#00ff00" stroke-width=".4807" stroke-dasharray="1,5" d="M305.638,-154.18C316.8047,-130.4824 329.3783,-92.4032 311.7487,-65.6985 290.895,-34.1098 245.9493,-22.0755 217.6539,-17.5391"/>
<polygon fill="#00ff00" stroke="#00ff00" stroke-width=".4807" points="218.0993,-14.0674 207.7097,-16.1424 217.1256,-20.9993 218.0993,-14.0674"/>
</g>
<!-- 3634&#45;&gt;0 -->
<g id="edge17" class="edge">
<title>3634&#45;&gt;0</title>
<path fill="none" stroke="#00ff00" stroke-width=".5" d="M161.155,-66.5275C158.3518,-57.6976 155.176,-47.6942 152.3703,-38.8566"/>
<polygon fill="#00ff00" stroke="#00ff00" stroke-width=".5" points="155.653,-37.6297 149.2912,-29.1575 148.9812,-39.7478 155.653,-37.6297"/>
</g>
<!-- 3634&#45;&gt;1 -->
<g id="edge18" class="edge">
<title>3634&#45;&gt;1</title>
<path fill="none" stroke="#00ff00" stroke-width=".3277" stroke-dasharray="1,5" d="M176.3425,-66.5275C179.1457,-57.6976 182.3215,-47.6942 185.1272,-38.8566"/>
<polygon fill="#00ff00" stroke="#00ff00" stroke-width=".3277" points="188.5163,-39.7478 188.2063,-29.1575 181.8444,-37.6297 188.5163,-39.7478"/>
</g>
<!-- 3635&#45;&gt;0 -->
<g id="edge19" class="edge">
<title>3635&#45;&gt;0</title>
<path fill="none" stroke="#00ff00" stroke-width=".1888" d="M110.2296,-153.3728C101.1574,-130.6491 91.0645,-94.8794 101.7487,-65.6985 106.5932,-52.4671 116.5708,-40.3092 125.6961,-31.2014"/>
<polygon fill="#00ff00" stroke="#00ff00" stroke-width=".1888" points="128.1379,-33.7098 133.0295,-24.3117 123.3448,-28.6081 128.1379,-33.7098"/>
</g>
<!-- 3635&#45;&gt;1 -->
<g id="edge20" class="edge">
<title>3635&#45;&gt;1</title>
<path fill="none" stroke="#ff0000" stroke-width=".1358" d="M119.0308,-151.234C118.485,-127.8499 120.5289,-92.4444 134.7487,-65.6985 139.3469,-57.0498 157.6295,-41.681 172.4554,-30.0965"/>
<polygon fill="#ff0000" stroke="#ff0000" stroke-width=".1358" points="174.8607,-32.6621 180.6556,-23.7925 170.5944,-27.1125 174.8607,-32.6621"/>
</g>
<!-- 3635&#45;&gt;3634 -->
<g id="edge25" class="edge">
<title>3635&#45;&gt;3634</title>
<path fill="none" stroke="#00ff00" stroke-width=".2469" d="M133.1099,-153.927C138.7522,-143.8769 145.5269,-131.8099 151.6474,-120.908"/>
<polygon fill="#00ff00" stroke="#00ff00" stroke-width=".2469" points="154.752,-122.5276 156.5956,-112.0944 148.6482,-119.1007 154.752,-122.5276"/>
</g>
<!-- 3636&#45;&gt;0 -->
<g id="edge21" class="edge">
<title>3636&#45;&gt;0</title>
<path fill="none" stroke="#00ff00" stroke-width=".2797" d="M45.7867,-77.0706C51.6019,-73.3802 57.9168,-69.3794 63.7487,-65.6985 83.937,-52.9563 106.9991,-38.4871 123.3385,-28.2503"/>
<polygon fill="#00ff00" stroke="#00ff00" stroke-width=".2797" points="125.4922,-31.0313 132.1096,-22.7572 121.7767,-25.0987 125.4922,-31.0313"/>
</g>
<!-- 3636&#45;&gt;1 -->
<g id="edge22" class="edge">
<title>3636&#45;&gt;1</title>
<path fill="none" stroke="#00ff00" stroke-width=".149" stroke-dasharray="1,5" d="M48.1972,-81.8434C77.1212,-70.9397 127.5218,-50.986 168.7487,-29.6985 169.5868,-29.2657 170.4345,-28.8141 171.2857,-28.3489"/>
<polygon fill="#00ff00" stroke="#00ff00" stroke-width=".149" points="173.4031,-31.1646 180.2567,-23.085 169.8605,-25.1272 173.4031,-31.1646"/>
</g>
<!-- 3637&#45;&gt;0 -->
<g id="edge23" class="edge">
<title>3637&#45;&gt;0</title>
<path fill="none" stroke="#00ff00" stroke-width=".1628" stroke-dasharray="1,5" d="M225.7641,-151.1204C223.8549,-127.6541 218.3666,-92.1912 202.7487,-65.6985 193.774,-50.4746 178.6392,-37.4338 166.0803,-28.3709"/>
<polygon fill="#00ff00" stroke="#00ff00" stroke-width=".1628" points="167.7429,-25.2673 157.5157,-22.5005 163.7853,-31.0412 167.7429,-25.2673"/>
</g>
<!-- 3637&#45;&gt;1 -->
<g id="edge24" class="edge">
<title>3637&#45;&gt;1</title>
<path fill="none" stroke="#ff0000" stroke-width=".4127" stroke-dasharray="1,5" d="M234.3963,-151.9365C240.3811,-129.0609 246.1147,-94.0102 235.7487,-65.6985 230.9042,-52.4671 220.9266,-40.3092 211.8014,-31.2014"/>
<polygon fill="#ff0000" stroke="#ff0000" stroke-width=".4127" points="214.1526,-28.6081 204.468,-24.3117 209.3596,-33.7098 214.1526,-28.6081"/>
</g>
</g>
</svg>
