<?xml version="1.0" encoding="UTF-8" standalone="no"?>
<!DOCTYPE svg PUBLIC "-//W3C//DTD SVG 1.1//EN"
 "http://www.w3.org/Graphics/SVG/1.1/DTD/svg11.dtd">
<!-- Generated by graphviz version 2.40.1 (20161225.0304)
 -->
<!-- Title: %3 Pages: 1 -->
<svg width="116pt" height="177pt"
 viewBox="0.00 0.00 116.00 177.20" xmlns="http://www.w3.org/2000/svg" xmlns:xlink="http://www.w3.org/1999/xlink">
<g id="graph0" class="graph" transform="scale(1 1) rotate(0) translate(4 173.196)">
<title>%3</title>
<polygon fill="#ffffff" stroke="transparent" points="-4,4 -4,-173.196 112,-173.196 112,4 -4,4"/>
<!-- &#45;1 -->
<g id="node1" class="node">
<title>&#45;1</title>
<polygon fill="#d3d3d3" stroke="#000000" points="24,-169.196 0,-169.196 0,-151.196 24,-151.196 24,-169.196"/>
<text text-anchor="middle" x="12" y="-157.996" font-family="Times,serif" font-size="9.00" fill="#000000">&#45;1</text>
</g>
<!-- 1241 -->
<g id="node6" class="node">
<title>1241</title>
<ellipse fill="#ffffff" stroke="#000000" cx="54" cy="-90.4472" rx="25" ry="25"/>
<text text-anchor="middle" x="54" y="-88.2472" font-family="Times,serif" font-size="9.00" fill="#000000">1241</text>
</g>
<!-- &#45;1&#45;&gt;1241 -->
<g id="edge1" class="edge">
<title>&#45;1&#45;&gt;1241</title>
<path fill="none" stroke="#ff0000" stroke-width=".5" stroke-dasharray="1,5" d="M17.4908,-151.0775C22.1929,-143.2688 29.2389,-131.5676 35.8905,-120.5213"/>
<polygon fill="#ff0000" stroke="#ff0000" stroke-width=".5" points="38.9279,-122.262 41.0881,-111.8898 32.9312,-118.651 38.9279,-122.262"/>
</g>
<!-- &#45;2 -->
<g id="node2" class="node">
<title>&#45;2</title>
<polygon fill="#d3d3d3" stroke="#000000" points="66,-169.196 42,-169.196 42,-151.196 66,-151.196 66,-169.196"/>
<text text-anchor="middle" x="54" y="-157.996" font-family="Times,serif" font-size="9.00" fill="#000000">&#45;2</text>
</g>
<!-- &#45;2&#45;&gt;1241 -->
<g id="edge2" class="edge">
<title>&#45;2&#45;&gt;1241</title>
<path fill="none" stroke="#00ff00" stroke-width=".3295" d="M54,-151.0775C54,-144.4608 54,-135.0493 54,-125.6096"/>
<polygon fill="#00ff00" stroke="#00ff00" stroke-width=".3295" points="57.5001,-125.4865 54,-115.4865 50.5001,-125.4865 57.5001,-125.4865"/>
</g>
<!-- &#45;3 -->
<g id="node3" class="node">
<title>&#45;3</title>
<polygon fill="#d3d3d3" stroke="#000000" points="108,-169.196 84,-169.196 84,-151.196 108,-151.196 108,-169.196"/>
<text text-anchor="middle" x="96" y="-157.996" font-family="Times,serif" font-size="9.00" fill="#000000">&#45;3</text>
</g>
<!-- &#45;3&#45;&gt;1241 -->
<g id="edge3" class="edge">
<title>&#45;3&#45;&gt;1241</title>
<path fill="none" stroke="#ff0000" stroke-width=".3925" d="M90.5092,-151.0775C85.8071,-143.2688 78.7611,-131.5676 72.1095,-120.5213"/>
<polygon fill="#ff0000" stroke="#ff0000" stroke-width=".3925" points="75.0688,-118.651 66.9119,-111.8898 69.0721,-122.262 75.0688,-118.651"/>
</g>
<!-- 0 -->
<g id="node4" class="node">
<title>0</title>
<ellipse fill="#add8e6" stroke="#000000" cx="30" cy="-14.8492" rx="14.7" ry="14.7"/>
<text text-anchor="middle" x="30" y="-12.6492" font-family="Times,serif" font-size="9.00" fill="#000000">0</text>
</g>
<!-- 1 -->
<g id="node5" class="node">
<title>1</title>
<ellipse fill="#add8e6" stroke="#000000" cx="78" cy="-14.8492" rx="14.7" ry="14.7"/>
<text text-anchor="middle" x="78" y="-12.6492" font-family="Times,serif" font-size="9.00" fill="#000000">1</text>
</g>
<!-- 1241&#45;&gt;0 -->
<g id="edge4" class="edge">
<title>1241&#45;&gt;0</title>
<path fill="none" stroke="#ff0000" stroke-width=".3681" d="M46.4063,-66.5275C43.603,-57.6976 40.4273,-47.6942 37.6216,-38.8566"/>
<polygon fill="#ff0000" stroke="#ff0000" stroke-width=".3681" points="40.9043,-37.6297 34.5424,-29.1575 34.2324,-39.7478 40.9043,-37.6297"/>
</g>
<!-- 1241&#45;&gt;1 -->
<g id="edge5" class="edge">
<title>1241&#45;&gt;1</title>
<path fill="none" stroke="#00ff00" stroke-width=".1933" d="M61.5938,-66.5275C64.397,-57.6976 67.5727,-47.6942 70.3784,-38.8566"/>
<polygon fill="#00ff00" stroke="#00ff00" stroke-width=".1933" points="73.7676,-39.7478 73.4576,-29.1575 67.0957,-37.6297 73.7676,-39.7478"/>
</g>
</g>
</svg>
