<?xml version="1.0" encoding="UTF-8" standalone="no"?>
<!DOCTYPE svg PUBLIC "-//W3C//DTD SVG 1.1//EN"
 "http://www.w3.org/Graphics/SVG/1.1/DTD/svg11.dtd">
<!-- Generated by graphviz version 2.40.1 (20161225.0304)
 -->
<!-- Title: %3 Pages: 1 -->
<svg width="653pt" height="177pt"
 viewBox="0.00 0.00 653.00 177.20" xmlns="http://www.w3.org/2000/svg" xmlns:xlink="http://www.w3.org/1999/xlink">
<g id="graph0" class="graph" transform="scale(1 1) rotate(0) translate(4 173.196)">
<title>%3</title>
<polygon fill="#ffffff" stroke="transparent" points="-4,4 -4,-173.196 649,-173.196 649,4 -4,4"/>
<!-- &#45;1 -->
<g id="node1" class="node">
<title>&#45;1</title>
<polygon fill="#d3d3d3" stroke="#000000" points="387,-169.196 363,-169.196 363,-151.196 387,-151.196 387,-169.196"/>
<text text-anchor="middle" x="375" y="-157.996" font-family="Times,serif" font-size="9.00" fill="#000000">&#45;1</text>
</g>
<!-- 1701 -->
<g id="node18" class="node">
<title>1701</title>
<ellipse fill="#ffffff" stroke="#000000" cx="256" cy="-90.4472" rx="25" ry="25"/>
<text text-anchor="middle" x="256" y="-88.2472" font-family="Times,serif" font-size="9.00" fill="#000000">1701</text>
</g>
<!-- &#45;1&#45;&gt;1701 -->
<g id="edge1" class="edge">
<title>&#45;1&#45;&gt;1701</title>
<path fill="none" stroke="#ff0000" stroke-width=".2352" d="M362.9791,-154.666C346.0367,-146.7037 314.3689,-131.1993 289,-115.196 287.3192,-114.1357 285.6151,-113.0145 283.9124,-111.858"/>
<polygon fill="#ff0000" stroke="#ff0000" stroke-width=".2352" points="285.7052,-108.8383 275.5258,-105.9005 281.6513,-114.5451 285.7052,-108.8383"/>
</g>
<!-- 1702 -->
<g id="node19" class="node">
<title>1702</title>
<ellipse fill="#ffffff" stroke="#000000" cx="189" cy="-90.4472" rx="25" ry="25"/>
<text text-anchor="middle" x="189" y="-88.2472" font-family="Times,serif" font-size="9.00" fill="#000000">1702</text>
</g>
<!-- &#45;1&#45;&gt;1702 -->
<g id="edge2" class="edge">
<title>&#45;1&#45;&gt;1702</title>
<path fill="none" stroke="#ff0000" stroke-width=".3632" d="M362.6753,-154.577C359.8536,-153.3852 356.8464,-152.1887 354,-151.196 296.5825,-131.1709 276.6263,-141.912 222,-115.196 220.2148,-114.3229 218.4289,-113.3483 216.6633,-112.3044"/>
<polygon fill="#ff0000" stroke="#ff0000" stroke-width=".3632" points="218.3781,-109.2427 208.1036,-106.6574 214.5234,-115.0857 218.3781,-109.2427"/>
</g>
<!-- 1703 -->
<g id="node20" class="node">
<title>1703</title>
<ellipse fill="#ffffff" stroke="#000000" cx="390" cy="-90.4472" rx="25" ry="25"/>
<text text-anchor="middle" x="390" y="-88.2472" font-family="Times,serif" font-size="9.00" fill="#000000">1703</text>
</g>
<!-- &#45;1&#45;&gt;1703 -->
<g id="edge3" class="edge">
<title>&#45;1&#45;&gt;1703</title>
<path fill="none" stroke="#00ff00" stroke-width=".2171" d="M376.961,-151.0775C378.4227,-144.2808 380.5186,-134.5351 382.6037,-124.8392"/>
<polygon fill="#00ff00" stroke="#00ff00" stroke-width=".2171" points="386.065,-125.3911 384.7458,-114.8787 379.2215,-123.9193 386.065,-125.3911"/>
</g>
<!-- 1704 -->
<g id="node21" class="node">
<title>1704</title>
<ellipse fill="#ffffff" stroke="#000000" cx="323" cy="-90.4472" rx="25" ry="25"/>
<text text-anchor="middle" x="323" y="-88.2472" font-family="Times,serif" font-size="9.00" fill="#000000">1704</text>
</g>
<!-- &#45;1&#45;&gt;1704 -->
<g id="edge4" class="edge">
<title>&#45;1&#45;&gt;1704</title>
<path fill="none" stroke="#ff0000" stroke-width=".3922" stroke-dasharray="1,5" d="M368.2019,-151.0775C362.0434,-142.817 352.6375,-130.2006 343.9974,-118.6116"/>
<polygon fill="#ff0000" stroke="#ff0000" stroke-width=".3922" points="346.682,-116.3567 337.8989,-110.4315 341.07,-120.5407 346.682,-116.3567"/>
</g>
<!-- 1705 -->
<g id="node22" class="node">
<title>1705</title>
<ellipse fill="#ffffff" stroke="#000000" cx="457" cy="-90.4472" rx="25" ry="25"/>
<text text-anchor="middle" x="457" y="-88.2472" font-family="Times,serif" font-size="9.00" fill="#000000">1705</text>
</g>
<!-- &#45;1&#45;&gt;1705 -->
<g id="edge5" class="edge">
<title>&#45;1&#45;&gt;1705</title>
<path fill="none" stroke="#ff0000" stroke-width=".5" d="M385.7201,-151.0775C397.0324,-141.4554 415.2931,-125.9229 430.4994,-112.9884"/>
<polygon fill="#ff0000" stroke="#ff0000" stroke-width=".5" points="432.7705,-115.6516 438.12,-106.5064 428.2351,-110.3196 432.7705,-115.6516"/>
</g>
<!-- &#45;2 -->
<g id="node2" class="node">
<title>&#45;2</title>
<polygon fill="#d3d3d3" stroke="#000000" points="555,-169.196 531,-169.196 531,-151.196 555,-151.196 555,-169.196"/>
<text text-anchor="middle" x="543" y="-157.996" font-family="Times,serif" font-size="9.00" fill="#000000">&#45;2</text>
</g>
<!-- &#45;2&#45;&gt;1701 -->
<g id="edge6" class="edge">
<title>&#45;2&#45;&gt;1701</title>
<path fill="none" stroke="#ff0000" stroke-width=".292" d="M530.7516,-154.3363C527.926,-153.157 524.8979,-152.0264 522,-151.196 421.2702,-122.3296 385.5785,-155.845 289,-115.196 287.1684,-114.425 285.3461,-113.5304 283.5526,-112.5481"/>
<polygon fill="#ff0000" stroke="#ff0000" stroke-width=".292" points="285.2352,-109.4707 274.9158,-107.0705 281.4861,-115.3821 285.2352,-109.4707"/>
</g>
<!-- &#45;2&#45;&gt;1703 -->
<g id="edge7" class="edge">
<title>&#45;2&#45;&gt;1703</title>
<path fill="none" stroke="#ff0000" stroke-width=".4349" d="M530.6109,-154.7499C527.7926,-153.5491 524.8031,-152.3053 522,-151.196 478.4662,-133.9678 464.1741,-137.4827 423,-115.196 421.2523,-114.25 419.4958,-113.2183 417.7528,-112.1306"/>
<polygon fill="#ff0000" stroke="#ff0000" stroke-width=".4349" points="419.495,-109.083 409.2553,-106.3627 415.5636,-114.8748 419.495,-109.083"/>
</g>
<!-- &#45;2&#45;&gt;1704 -->
<g id="edge8" class="edge">
<title>&#45;2&#45;&gt;1704</title>
<path fill="none" stroke="#ff0000" stroke-width=".3316" d="M530.7126,-154.4653C527.889,-153.2793 524.8716,-152.1134 522,-151.196 450.0879,-128.2219 424.6669,-146.565 356,-115.196 354.1924,-114.3702 352.389,-113.4327 350.61,-112.4173"/>
<polygon fill="#ff0000" stroke="#ff0000" stroke-width=".3316" points="352.309,-109.3477 342.0131,-106.8488 348.5034,-115.2229 352.309,-109.3477"/>
</g>
<!-- &#45;2&#45;&gt;1705 -->
<g id="edge9" class="edge">
<title>&#45;2&#45;&gt;1705</title>
<path fill="none" stroke="#ff0000" stroke-width=".1807" d="M531.757,-151.0775C519.8154,-141.3925 500.4907,-125.7196 484.481,-112.7352"/>
<polygon fill="#ff0000" stroke="#ff0000" stroke-width=".1807" points="486.4391,-109.8169 476.4677,-106.2362 482.0298,-115.2536 486.4391,-109.8169"/>
</g>
<!-- &#45;3 -->
<g id="node3" class="node">
<title>&#45;3</title>
<polygon fill="#d3d3d3" stroke="#000000" points="24,-169.196 0,-169.196 0,-151.196 24,-151.196 24,-169.196"/>
<text text-anchor="middle" x="12" y="-157.996" font-family="Times,serif" font-size="9.00" fill="#000000">&#45;3</text>
</g>
<!-- &#45;3&#45;&gt;1701 -->
<g id="edge10" class="edge">
<title>&#45;3&#45;&gt;1701</title>
<path fill="none" stroke="#ff0000" stroke-width=".3126" d="M24.2699,-154.4091C27.0944,-153.226 30.1166,-152.0755 33,-151.196 115.2073,-126.1196 144.3613,-149.8776 223,-115.196 224.8183,-114.394 226.6301,-113.4752 228.4156,-112.4742"/>
<polygon fill="#ff0000" stroke="#ff0000" stroke-width=".3126" points="230.5049,-115.2921 237.0302,-106.9452 226.7239,-109.401 230.5049,-115.2921"/>
</g>
<!-- &#45;3&#45;&gt;1702 -->
<g id="edge11" class="edge">
<title>&#45;3&#45;&gt;1702</title>
<path fill="none" stroke="#00ff00" stroke-width=".2849" d="M24.4079,-154.7967C27.2252,-153.5935 30.2096,-152.3368 33,-151.196 75.2393,-133.9261 124.3465,-114.9891 156.0089,-102.926"/>
<polygon fill="#00ff00" stroke="#00ff00" stroke-width=".2849" points="157.542,-106.0876 165.6451,-99.2618 155.054,-99.5447 157.542,-106.0876"/>
</g>
<!-- &#45;3&#45;&gt;1703 -->
<g id="edge12" class="edge">
<title>&#45;3&#45;&gt;1703</title>
<path fill="none" stroke="#00ff00" stroke-width=".3414" d="M24.2231,-154.2444C27.05,-153.0699 30.085,-151.9645 33,-151.196 173.0991,-114.2602 222.2923,-168.5423 357,-115.196 358.8976,-114.4445 360.7817,-113.5536 362.6317,-112.5636"/>
<polygon fill="#00ff00" stroke="#00ff00" stroke-width=".3414" points="364.9077,-115.2665 371.5036,-106.9752 361.1769,-109.3436 364.9077,-115.2665"/>
</g>
<!-- &#45;3&#45;&gt;1704 -->
<g id="edge13" class="edge">
<title>&#45;3&#45;&gt;1704</title>
<path fill="none" stroke="#00ff00" stroke-width=".3534" stroke-dasharray="1,5" d="M24.2398,-154.306C27.0658,-153.1282 30.0963,-152.0059 33,-151.196 144.0961,-120.206 183.3816,-159.1872 290,-115.196 291.8867,-114.4175 293.7623,-113.5056 295.6059,-112.4997"/>
<polygon fill="#00ff00" stroke="#00ff00" stroke-width=".3534" points="297.9005,-115.1883 304.4605,-106.8685 294.1441,-109.2816 297.9005,-115.1883"/>
</g>
<!-- &#45;4 -->
<g id="node4" class="node">
<title>&#45;4</title>
<polygon fill="#d3d3d3" stroke="#000000" points="429,-169.196 405,-169.196 405,-151.196 429,-151.196 429,-169.196"/>
<text text-anchor="middle" x="417" y="-157.996" font-family="Times,serif" font-size="9.00" fill="#000000">&#45;4</text>
</g>
<!-- &#45;4&#45;&gt;1701 -->
<g id="edge14" class="edge">
<title>&#45;4&#45;&gt;1701</title>
<path fill="none" stroke="#ff0000" stroke-width=".2872" d="M404.6305,-154.6994C401.8112,-153.5013 398.8163,-152.2712 396,-151.196 349.1254,-133.2991 333.4116,-138.5442 289,-115.196 287.241,-114.2712 285.4756,-113.2561 283.7258,-112.1812"/>
<polygon fill="#ff0000" stroke="#ff0000" stroke-width=".2872" points="285.4596,-109.1292 275.2095,-106.4485 281.5507,-114.9362 285.4596,-109.1292"/>
</g>
<!-- &#45;4&#45;&gt;1702 -->
<g id="edge15" class="edge">
<title>&#45;4&#45;&gt;1702</title>
<path fill="none" stroke="#ff0000" stroke-width=".5" d="M404.719,-154.4449C401.8951,-153.26 398.8759,-152.0996 396,-151.196 320.6607,-127.5225 293.9865,-147.6673 222,-115.196 220.1885,-114.3788 218.382,-113.4481 216.6006,-112.4379"/>
<polygon fill="#ff0000" stroke="#ff0000" stroke-width=".5" points="218.2969,-109.367 207.9972,-106.8837 214.5003,-115.248 218.2969,-109.367"/>
</g>
<!-- &#45;4&#45;&gt;1703 -->
<g id="edge16" class="edge">
<title>&#45;4&#45;&gt;1703</title>
<path fill="none" stroke="#00ff00" stroke-width=".2419" d="M413.4702,-151.0775C410.6971,-143.9138 406.6559,-133.4742 402.7057,-123.2696"/>
<polygon fill="#00ff00" stroke="#00ff00" stroke-width=".2419" points="405.8647,-121.7347 398.9906,-113.6725 399.3367,-124.2617 405.8647,-121.7347"/>
</g>
<!-- &#45;4&#45;&gt;1704 -->
<g id="edge17" class="edge">
<title>&#45;4&#45;&gt;1704</title>
<path fill="none" stroke="#ff0000" stroke-width=".2478" d="M404.8268,-151.2593C392.4994,-142.1992 372.895,-127.7627 356,-115.196 354.4055,-114.0099 352.7689,-112.7902 351.118,-111.5581"/>
<polygon fill="#ff0000" stroke="#ff0000" stroke-width=".2478" points="352.9787,-108.579 342.8745,-105.392 348.7859,-114.1844 352.9787,-108.579"/>
</g>
<!-- &#45;4&#45;&gt;1705 -->
<g id="edge18" class="edge">
<title>&#45;4&#45;&gt;1705</title>
<path fill="none" stroke="#00ff00" stroke-width=".1224" d="M422.2293,-151.0775C426.6301,-143.4038 433.1866,-131.971 439.424,-121.0948"/>
<polygon fill="#00ff00" stroke="#00ff00" stroke-width=".1224" points="442.5952,-122.6005 444.5339,-112.1845 436.5229,-119.118 442.5952,-122.6005"/>
</g>
<!-- &#45;5 -->
<g id="node5" class="node">
<title>&#45;5</title>
<polygon fill="#d3d3d3" stroke="#000000" points="471,-169.196 447,-169.196 447,-151.196 471,-151.196 471,-169.196"/>
<text text-anchor="middle" x="459" y="-157.996" font-family="Times,serif" font-size="9.00" fill="#000000">&#45;5</text>
</g>
<!-- &#45;5&#45;&gt;1701 -->
<g id="edge19" class="edge">
<title>&#45;5&#45;&gt;1701</title>
<path fill="none" stroke="#ff0000" stroke-width=".4151" stroke-dasharray="1,5" d="M446.6963,-154.5152C443.8736,-153.3266 440.8606,-152.147 438,-151.196 373.3518,-129.7019 350.6307,-144.231 289,-115.196 287.2022,-114.349 285.4065,-113.3949 283.6334,-112.3667"/>
<polygon fill="#ff0000" stroke="#ff0000" stroke-width=".4151" points="285.3393,-109.3006 275.0528,-106.7631 281.5118,-115.1615 285.3393,-109.3006"/>
</g>
<!-- &#45;5&#45;&gt;1702 -->
<g id="edge20" class="edge">
<title>&#45;5&#45;&gt;1702</title>
<path fill="none" stroke="#ff0000" stroke-width=".1831" d="M446.7443,-154.3618C443.9191,-153.1812 440.893,-152.0436 438,-151.196 344.6023,-123.8306 311.4772,-153.482 222,-115.196 220.173,-114.4142 218.3543,-113.5111 216.5636,-112.5222"/>
<polygon fill="#ff0000" stroke="#ff0000" stroke-width=".1831" points="218.2493,-109.4463 207.9344,-107.0266 214.489,-115.3506 218.2493,-109.4463"/>
</g>
<!-- &#45;5&#45;&gt;1703 -->
<g id="edge21" class="edge">
<title>&#45;5&#45;&gt;1703</title>
<path fill="none" stroke="#00ff00" stroke-width=".2376" d="M449.9795,-151.0775C441.0856,-142.0871 427.0874,-127.9371 414.8506,-115.5674"/>
<polygon fill="#00ff00" stroke="#00ff00" stroke-width=".2376" points="417.0414,-112.8053 407.5203,-108.1577 412.065,-117.7283 417.0414,-112.8053"/>
</g>
<!-- &#45;5&#45;&gt;1704 -->
<g id="edge22" class="edge">
<title>&#45;5&#45;&gt;1704</title>
<path fill="none" stroke="#ff0000" stroke-width=".3744" d="M446.9752,-155.0307C420.7102,-143.7365 360.2149,-117.6525 356,-115.196 354.2831,-114.1953 352.5506,-113.1208 350.8261,-112.0001"/>
<polygon fill="#ff0000" stroke="#ff0000" stroke-width=".3744" points="352.5913,-108.965 342.3796,-106.1415 348.6017,-114.7168 352.5913,-108.965"/>
</g>
<!-- &#45;5&#45;&gt;1705 -->
<g id="edge23" class="edge">
<title>&#45;5&#45;&gt;1705</title>
<path fill="none" stroke="#ff0000" stroke-width=".5" d="M458.7385,-151.0775C458.5488,-144.4608 458.2789,-135.0493 458.0083,-125.6096"/>
<polygon fill="#ff0000" stroke="#ff0000" stroke-width=".5" points="461.5033,-125.382 457.718,-115.4865 454.5061,-125.5827 461.5033,-125.382"/>
</g>
<!-- &#45;6 -->
<g id="node6" class="node">
<title>&#45;6</title>
<polygon fill="#d3d3d3" stroke="#000000" points="645,-169.196 621,-169.196 621,-151.196 645,-151.196 645,-169.196"/>
<text text-anchor="middle" x="633" y="-157.996" font-family="Times,serif" font-size="9.00" fill="#000000">&#45;6</text>
</g>
<!-- &#45;6&#45;&gt;1703 -->
<g id="edge24" class="edge">
<title>&#45;6&#45;&gt;1703</title>
<path fill="none" stroke="#ff0000" stroke-width=".5" d="M620.7295,-154.4112C617.905,-153.228 614.883,-152.0769 612,-151.196 530.2224,-126.2074 501.2225,-149.7393 423,-115.196 421.1821,-114.3932 419.3706,-113.4736 417.5854,-112.4721"/>
<polygon fill="#ff0000" stroke="#ff0000" stroke-width=".5" points="419.2773,-109.3991 408.9714,-106.9416 415.4954,-115.2896 419.2773,-109.3991"/>
</g>
<!-- &#45;6&#45;&gt;1704 -->
<g id="edge25" class="edge">
<title>&#45;6&#45;&gt;1704</title>
<path fill="none" stroke="#ff0000" stroke-width=".5" d="M620.7599,-154.3071C617.9339,-153.1293 614.9035,-152.0067 612,-151.196 501.3361,-120.2946 462.1998,-159.0478 356,-115.196 354.1135,-114.417 352.2381,-113.5047 350.3946,-112.4985"/>
<polygon fill="#ff0000" stroke="#ff0000" stroke-width=".5" points="351.8566,-109.2804 341.5404,-106.8665 348.0996,-115.1868 351.8566,-109.2804"/>
</g>
<!-- &#45;6&#45;&gt;1705 -->
<g id="edge26" class="edge">
<title>&#45;6&#45;&gt;1705</title>
<path fill="none" stroke="#ff0000" stroke-width=".4877" d="M620.5902,-154.8012C617.773,-153.5978 614.7891,-152.3399 612,-151.196 570.0145,-133.9764 521.2259,-115.028 489.772,-102.9486"/>
<polygon fill="#ff0000" stroke="#ff0000" stroke-width=".4877" points="490.7897,-99.5904 480.1994,-99.279 488.284,-106.1266 490.7897,-99.5904"/>
</g>
<!-- &#45;7 -->
<g id="node7" class="node">
<title>&#45;7</title>
<polygon fill="#d3d3d3" stroke="#000000" points="513,-169.196 489,-169.196 489,-151.196 513,-151.196 513,-169.196"/>
<text text-anchor="middle" x="501" y="-157.996" font-family="Times,serif" font-size="9.00" fill="#000000">&#45;7</text>
</g>
<!-- &#45;7&#45;&gt;1702 -->
<g id="edge27" class="edge">
<title>&#45;7&#45;&gt;1702</title>
<path fill="none" stroke="#00ff00" stroke-width=".1179" d="M488.7605,-154.3048C485.9345,-153.1271 482.9039,-152.0052 480,-151.196 368.4717,-120.1175 329.0371,-159.3265 222,-115.196 220.1131,-114.418 218.2373,-113.5065 216.3936,-112.5009"/>
<polygon fill="#00ff00" stroke="#00ff00" stroke-width=".1179" points="217.8553,-109.2827 207.5387,-106.8705 214.0993,-115.1898 217.8553,-109.2827"/>
</g>
<!-- &#45;7&#45;&gt;1703 -->
<g id="edge28" class="edge">
<title>&#45;7&#45;&gt;1703</title>
<path fill="none" stroke="#ff0000" stroke-width=".3248" d="M488.8376,-153.7706C473.2582,-145.4072 445.573,-130.0943 423,-115.196 421.3414,-114.1013 419.6546,-112.9531 417.9653,-111.7759"/>
<polygon fill="#ff0000" stroke="#ff0000" stroke-width=".3248" points="419.7753,-108.7663 409.6155,-105.7614 415.684,-114.4462 419.7753,-108.7663"/>
</g>
<!-- &#45;7&#45;&gt;1704 -->
<g id="edge29" class="edge">
<title>&#45;7&#45;&gt;1704</title>
<path fill="none" stroke="#ff0000" stroke-width=".2749" stroke-dasharray="1,5" d="M488.6631,-154.6114C485.8421,-153.4178 482.8382,-152.2119 480,-151.196 425.97,-131.8569 407.3444,-140.8276 356,-115.196 354.222,-114.3083 352.4417,-113.3224 350.6804,-112.2698"/>
<polygon fill="#ff0000" stroke="#ff0000" stroke-width=".2749" points="352.4004,-109.2107 342.1326,-106.5987 348.5305,-115.0437 352.4004,-109.2107"/>
</g>
<!-- &#45;7&#45;&gt;1705 -->
<g id="edge30" class="edge">
<title>&#45;7&#45;&gt;1705</title>
<path fill="none" stroke="#ff0000" stroke-width=".1373" d="M495.2478,-151.0775C490.285,-143.2105 482.8299,-131.3927 475.8159,-120.2741"/>
<polygon fill="#ff0000" stroke="#ff0000" stroke-width=".1373" points="478.6371,-118.1863 470.3414,-111.596 472.7167,-121.9212 478.6371,-118.1863"/>
</g>
<!-- &#45;8 -->
<g id="node8" class="node">
<title>&#45;8</title>
<polygon fill="#d3d3d3" stroke="#000000" points="114,-169.196 90,-169.196 90,-151.196 114,-151.196 114,-169.196"/>
<text text-anchor="middle" x="102" y="-157.996" font-family="Times,serif" font-size="9.00" fill="#000000">&#45;8</text>
</g>
<!-- &#45;8&#45;&gt;1701 -->
<g id="edge31" class="edge">
<title>&#45;8&#45;&gt;1701</title>
<path fill="none" stroke="#ff0000" stroke-width=".2692" d="M114.3864,-154.7432C117.2049,-153.5428 120.1952,-152.3007 123,-151.196 166.9503,-133.8846 181.4223,-137.6148 223,-115.196 224.7492,-114.2528 226.5069,-113.2233 228.2508,-112.1373"/>
<polygon fill="#ff0000" stroke="#ff0000" stroke-width=".2692" points="230.4381,-114.8829 236.7508,-106.374 226.5098,-109.0891 230.4381,-114.8829"/>
</g>
<!-- &#45;8&#45;&gt;1702 -->
<g id="edge32" class="edge">
<title>&#45;8&#45;&gt;1702</title>
<path fill="none" stroke="#ff0000" stroke-width=".5" d="M113.3737,-151.0775C125.5327,-141.3296 145.2578,-125.5158 161.5146,-112.4826"/>
<polygon fill="#ff0000" stroke="#ff0000" stroke-width=".5" points="164.0283,-114.9532 169.6412,-105.9673 159.6497,-109.4917 164.0283,-114.9532"/>
</g>
<!-- &#45;8&#45;&gt;1703 -->
<g id="edge33" class="edge">
<title>&#45;8&#45;&gt;1703</title>
<path fill="none" stroke="#00ff00" stroke-width=".5" d="M114.248,-154.335C117.0736,-153.1557 120.1018,-152.0255 123,-151.196 224.1614,-122.2412 260.0035,-155.9841 357,-115.196 358.8814,-114.4048 360.7529,-113.4831 362.5934,-112.4696"/>
<polygon fill="#00ff00" stroke="#00ff00" stroke-width=".5" points="364.8967,-115.1515 371.4395,-106.8183 361.1281,-109.2525 364.8967,-115.1515"/>
</g>
<!-- &#45;8&#45;&gt;1704 -->
<g id="edge34" class="edge">
<title>&#45;8&#45;&gt;1704</title>
<path fill="none" stroke="#00ff00" stroke-width=".5" d="M114.2866,-154.4626C117.1102,-153.2768 120.1278,-152.1116 123,-151.196 195.3402,-128.1345 220.9184,-146.7027 290,-115.196 291.8081,-114.3713 293.612,-113.4347 295.3913,-112.42"/>
<polygon fill="#00ff00" stroke="#00ff00" stroke-width=".5" points="297.497,-115.2262 303.989,-106.8533 293.6926,-109.3502 297.497,-115.2262"/>
</g>
<!-- &#45;8&#45;&gt;1705 -->
<g id="edge35" class="edge">
<title>&#45;8&#45;&gt;1705</title>
<path fill="none" stroke="#00ff00" stroke-width=".5" d="M114.2279,-154.2625C117.0546,-153.087 120.0883,-151.9767 123,-151.196 253.1346,-116.3036 298.9428,-165.3277 424,-115.196 425.8944,-114.4365 427.7761,-113.5395 429.6242,-112.5448"/>
<polygon fill="#00ff00" stroke="#00ff00" stroke-width=".5" points="431.9058,-115.2435 438.4911,-106.9438 428.1674,-109.3253 431.9058,-115.2435"/>
</g>
<!-- &#45;9 -->
<g id="node9" class="node">
<title>&#45;9</title>
<polygon fill="#d3d3d3" stroke="#000000" points="156,-169.196 132,-169.196 132,-151.196 156,-151.196 156,-169.196"/>
<text text-anchor="middle" x="144" y="-157.996" font-family="Times,serif" font-size="9.00" fill="#000000">&#45;9</text>
</g>
<!-- &#45;9&#45;&gt;1701 -->
<g id="edge36" class="edge">
<title>&#45;9&#45;&gt;1701</title>
<path fill="none" stroke="#00ff00" stroke-width=".4283" stroke-dasharray="1,5" d="M156.0555,-153.94C171.7928,-145.6363 200.0363,-130.2617 223,-115.196 224.6616,-114.1058 226.3507,-112.9613 228.0419,-111.7868"/>
<polygon fill="#00ff00" stroke="#00ff00" stroke-width=".4283" points="230.3206,-114.4593 236.3966,-105.7798 226.2342,-108.7758 230.3206,-114.4593"/>
</g>
<!-- &#45;9&#45;&gt;1702 -->
<g id="edge37" class="edge">
<title>&#45;9&#45;&gt;1702</title>
<path fill="none" stroke="#ff0000" stroke-width=".3129" d="M149.883,-151.0775C154.9961,-143.1522 162.6962,-131.2174 169.9158,-120.0272"/>
<polygon fill="#ff0000" stroke="#ff0000" stroke-width=".3129" points="173.0639,-121.6037 175.5442,-111.3033 167.1818,-117.8087 173.0639,-121.6037"/>
</g>
<!-- &#45;9&#45;&gt;1703 -->
<g id="edge38" class="edge">
<title>&#45;9&#45;&gt;1703</title>
<path fill="none" stroke="#ff0000" stroke-width=".4738" d="M156.4081,-154.6099C159.4983,-153.3612 162.834,-152.1315 166,-151.196 248.8428,-126.7174 277.945,-150.016 357,-115.196 358.8187,-114.3949 360.6308,-113.4767 362.4165,-112.4762"/>
<polygon fill="#ff0000" stroke="#ff0000" stroke-width=".4738" points="364.5052,-115.2946 371.0318,-106.9487 360.7251,-109.403 364.5052,-115.2946"/>
</g>
<!-- &#45;9&#45;&gt;1704 -->
<g id="edge39" class="edge">
<title>&#45;9&#45;&gt;1704</title>
<path fill="none" stroke="#ff0000" stroke-width=".4351" d="M156.0157,-155.0123C159.233,-153.6983 162.7268,-152.337 166,-151.196 220.1884,-132.3053 238.6556,-140.8276 290,-115.196 291.778,-114.3083 293.5583,-113.3224 295.3196,-112.2698"/>
<polygon fill="#ff0000" stroke="#ff0000" stroke-width=".4351" points="297.4695,-115.0437 303.8674,-106.5987 293.5996,-109.2107 297.4695,-115.0437"/>
</g>
<!-- &#45;9&#45;&gt;1705 -->
<g id="edge40" class="edge">
<title>&#45;9&#45;&gt;1705</title>
<path fill="none" stroke="#ff0000" stroke-width=".4057" d="M156.3778,-154.5025C159.4689,-153.2571 162.8126,-152.0558 166,-151.196 277.782,-121.0427 316.9629,-159.3265 424,-115.196 425.8869,-114.418 427.7627,-113.5065 429.6064,-112.5009"/>
<polygon fill="#ff0000" stroke="#ff0000" stroke-width=".4057" points="431.9007,-115.1898 438.4613,-106.8705 428.1447,-109.2827 431.9007,-115.1898"/>
</g>
<!-- &#45;10 -->
<g id="node10" class="node">
<title>&#45;10</title>
<polygon fill="#d3d3d3" stroke="#000000" points="71.5,-169.196 42.5,-169.196 42.5,-151.196 71.5,-151.196 71.5,-169.196"/>
<text text-anchor="middle" x="57" y="-157.996" font-family="Times,serif" font-size="9.00" fill="#000000">&#45;10</text>
</g>
<!-- &#45;10&#45;&gt;1701 -->
<g id="edge41" class="edge">
<title>&#45;10&#45;&gt;1701</title>
<path fill="none" stroke="#00ff00" stroke-width=".2601" d="M71.634,-154.4154C74.7064,-153.2845 77.9425,-152.1536 81,-151.196 143.1314,-131.7359 164.2579,-143.274 223,-115.196 224.793,-114.3389 226.585,-113.3769 228.3552,-112.3427"/>
<polygon fill="#00ff00" stroke="#00ff00" stroke-width=".2601" points="230.4839,-115.1323 236.9279,-106.7224 226.6459,-109.2782 230.4839,-115.1323"/>
</g>
<!-- &#45;10&#45;&gt;1702 -->
<g id="edge42" class="edge">
<title>&#45;10&#45;&gt;1702</title>
<path fill="none" stroke="#ff0000" stroke-width=".2877" d="M71.6307,-152.4651C92.2862,-141.5508 130.509,-121.3538 157.7216,-106.9747"/>
<polygon fill="#ff0000" stroke="#ff0000" stroke-width=".2877" points="159.6347,-109.9225 166.8411,-102.156 156.3643,-103.7334 159.6347,-109.9225"/>
</g>
<!-- &#45;10&#45;&gt;1703 -->
<g id="edge43" class="edge">
<title>&#45;10&#45;&gt;1703</title>
<path fill="none" stroke="#00ff00" stroke-width=".2718" d="M71.5543,-154.132C74.6325,-153.0216 77.8911,-151.9707 81,-151.196 201.0344,-121.282 242.4237,-161.837 357,-115.196 358.8904,-114.4264 360.7688,-113.5215 362.6146,-112.5209"/>
<polygon fill="#00ff00" stroke="#00ff00" stroke-width=".2718" points="364.9031,-115.2142 371.475,-106.9039 361.1551,-109.3021 364.9031,-115.2142"/>
</g>
<!-- &#45;10&#45;&gt;1704 -->
<g id="edge44" class="edge">
<title>&#45;10&#45;&gt;1704</title>
<path fill="none" stroke="#00ff00" stroke-width=".5" d="M71.5799,-154.2302C74.6562,-153.1127 77.9076,-152.0341 81,-151.196 171.9746,-126.539 203.4438,-152.5103 290,-115.196 291.8249,-114.4092 293.6419,-113.5023 295.4314,-112.5104"/>
<polygon fill="#00ff00" stroke="#00ff00" stroke-width=".5" points="297.5096,-115.3362 304.057,-107.0066 293.7442,-109.4351 297.5096,-115.3362"/>
</g>
<!-- &#45;11 -->
<g id="node11" class="node">
<title>&#45;11</title>
<polygon fill="#d3d3d3" stroke="#000000" points="203.5,-169.196 174.5,-169.196 174.5,-151.196 203.5,-151.196 203.5,-169.196"/>
<text text-anchor="middle" x="189" y="-157.996" font-family="Times,serif" font-size="9.00" fill="#000000">&#45;11</text>
</g>
<!-- &#45;11&#45;&gt;1701 -->
<g id="edge45" class="edge">
<title>&#45;11&#45;&gt;1701</title>
<path fill="none" stroke="#ff0000" stroke-width=".4459" d="M197.7591,-151.0775C206.3364,-142.1483 219.8029,-128.1294 231.627,-115.8201"/>
<polygon fill="#ff0000" stroke="#ff0000" stroke-width=".4459" points="234.3152,-118.074 238.7186,-108.4376 229.2669,-113.2247 234.3152,-118.074"/>
</g>
<!-- &#45;11&#45;&gt;1702 -->
<g id="edge46" class="edge">
<title>&#45;11&#45;&gt;1702</title>
<path fill="none" stroke="#ff0000" stroke-width=".3344" stroke-dasharray="1,5" d="M189,-151.0775C189,-144.4608 189,-135.0493 189,-125.6096"/>
<polygon fill="#ff0000" stroke="#ff0000" stroke-width=".3344" points="192.5001,-125.4865 189,-115.4865 185.5001,-125.4865 192.5001,-125.4865"/>
</g>
<!-- &#45;11&#45;&gt;1703 -->
<g id="edge47" class="edge">
<title>&#45;11&#45;&gt;1703</title>
<path fill="none" stroke="#00ff00" stroke-width=".2423" d="M203.6315,-154.4076C206.7041,-153.2772 209.9409,-152.1485 213,-151.196 275.9866,-131.5825 297.4331,-143.5471 357,-115.196 358.7944,-114.3419 360.5875,-113.3822 362.3586,-112.3498"/>
<polygon fill="#00ff00" stroke="#00ff00" stroke-width=".2423" points="364.4852,-115.1409 370.9336,-106.7344 360.6503,-109.2848 364.4852,-115.1409"/>
</g>
<!-- &#45;11&#45;&gt;1704 -->
<g id="edge48" class="edge">
<title>&#45;11&#45;&gt;1704</title>
<path fill="none" stroke="#ff0000" stroke-width=".2349" d="M203.6843,-154.1328C227.7663,-144.1094 274.5257,-124.2899 290,-115.196 291.7133,-114.1891 293.4429,-113.1097 295.1652,-111.9853"/>
<polygon fill="#ff0000" stroke="#ff0000" stroke-width=".2349" points="297.3935,-114.6989 303.6057,-106.1164 293.3973,-108.9517 297.3935,-114.6989"/>
</g>
<!-- &#45;11&#45;&gt;1705 -->
<g id="edge49" class="edge">
<title>&#45;11&#45;&gt;1705</title>
<path fill="none" stroke="#ff0000" stroke-width=".2613" d="M203.5789,-154.2264C206.6552,-153.1092 209.9069,-152.0317 213,-151.196 304.8399,-126.3826 336.6094,-152.7879 424,-115.196 425.8255,-114.4107 427.6431,-113.5049 429.4329,-112.5138"/>
<polygon fill="#ff0000" stroke="#ff0000" stroke-width=".2613" points="431.51,-115.3404 438.0595,-107.0125 427.7461,-109.4384 431.51,-115.3404"/>
</g>
<!-- &#45;12 -->
<g id="node12" class="node">
<title>&#45;12</title>
<polygon fill="#d3d3d3" stroke="#000000" points="250.5,-169.196 221.5,-169.196 221.5,-151.196 250.5,-151.196 250.5,-169.196"/>
<text text-anchor="middle" x="236" y="-157.996" font-family="Times,serif" font-size="9.00" fill="#000000">&#45;12</text>
</g>
<!-- &#45;12&#45;&gt;1701 -->
<g id="edge50" class="edge">
<title>&#45;12&#45;&gt;1701</title>
<path fill="none" stroke="#ff0000" stroke-width=".3007" d="M238.6147,-151.0775C240.6158,-144.0985 243.5086,-134.0101 246.362,-124.0591"/>
<polygon fill="#ff0000" stroke="#ff0000" stroke-width=".3007" points="249.7758,-124.8514 249.1678,-114.274 243.047,-122.9219 249.7758,-124.8514"/>
</g>
<!-- &#45;12&#45;&gt;1702 -->
<g id="edge51" class="edge">
<title>&#45;12&#45;&gt;1702</title>
<path fill="none" stroke="#00ff00" stroke-width=".3131" d="M229.8556,-151.0775C224.4226,-143.0149 216.1934,-130.8026 208.5409,-119.4462"/>
<polygon fill="#00ff00" stroke="#00ff00" stroke-width=".3131" points="211.348,-117.3487 202.8573,-111.0116 205.5429,-121.2604 211.348,-117.3487"/>
</g>
<!-- &#45;12&#45;&gt;1703 -->
<g id="edge52" class="edge">
<title>&#45;12&#45;&gt;1703</title>
<path fill="none" stroke="#00ff00" stroke-width=".4333" d="M250.7202,-154.6669C253.7863,-153.5177 256.9981,-152.3159 260,-151.196 303.0839,-135.1228 316.6322,-137.2189 357,-115.196 358.7445,-114.2442 360.4986,-113.208 362.2397,-112.1168"/>
<polygon fill="#00ff00" stroke="#00ff00" stroke-width=".4333" points="364.4327,-114.8581 370.732,-106.3393 360.4952,-109.0705 364.4327,-114.8581"/>
</g>
<!-- &#45;12&#45;&gt;1704 -->
<g id="edge53" class="edge">
<title>&#45;12&#45;&gt;1704</title>
<path fill="none" stroke="#00ff00" stroke-width=".3104" d="M247.3737,-151.0775C259.5327,-141.3296 279.2578,-125.5158 295.5146,-112.4826"/>
<polygon fill="#00ff00" stroke="#00ff00" stroke-width=".3104" points="298.0283,-114.9532 303.6412,-105.9673 293.6497,-109.4917 298.0283,-114.9532"/>
</g>
<!-- &#45;12&#45;&gt;1705 -->
<g id="edge54" class="edge">
<title>&#45;12&#45;&gt;1705</title>
<path fill="none" stroke="#ff0000" stroke-width=".5" d="M250.6107,-154.3389C253.6848,-153.2135 256.9274,-152.1043 260,-151.196 331.563,-130.041 356.1622,-146.2898 424,-115.196 425.8065,-114.3679 427.6092,-113.4286 429.3876,-112.4118"/>
<polygon fill="#ff0000" stroke="#ff0000" stroke-width=".5" points="431.4957,-115.2163 437.9827,-106.8395 427.6878,-109.3427 431.4957,-115.2163"/>
</g>
<!-- &#45;13 -->
<g id="node13" class="node">
<title>&#45;13</title>
<polygon fill="#d3d3d3" stroke="#000000" points="602.5,-169.196 573.5,-169.196 573.5,-151.196 602.5,-151.196 602.5,-169.196"/>
<text text-anchor="middle" x="588" y="-157.996" font-family="Times,serif" font-size="9.00" fill="#000000">&#45;13</text>
</g>
<!-- &#45;13&#45;&gt;1701 -->
<g id="edge55" class="edge">
<title>&#45;13&#45;&gt;1701</title>
<path fill="none" stroke="#00ff00" stroke-width=".213" d="M573.4454,-154.1331C570.3672,-153.0227 567.1087,-151.9715 564,-151.196 444.4001,-121.3607 403.1573,-161.6974 289,-115.196 287.1098,-114.426 285.2315,-113.5208 283.3858,-112.5199"/>
<polygon fill="#00ff00" stroke="#00ff00" stroke-width=".213" points="284.8454,-109.3011 274.5258,-106.9022 281.097,-115.2129 284.8454,-109.3011"/>
</g>
<!-- &#45;13&#45;&gt;1702 -->
<g id="edge56" class="edge">
<title>&#45;13&#45;&gt;1702</title>
<path fill="none" stroke="#ff0000" stroke-width=".2144" d="M573.4602,-154.0721C570.381,-152.9661 567.1183,-151.9321 564,-151.196 415.2488,-116.0806 364.2646,-171.0599 222,-115.196 220.1002,-114.45 218.2145,-113.5633 216.3631,-112.5766"/>
<polygon fill="#ff0000" stroke="#ff0000" stroke-width=".2144" points="217.8167,-109.3563 207.4878,-106.9969 214.091,-115.2824 217.8167,-109.3563"/>
</g>
<!-- &#45;13&#45;&gt;1703 -->
<g id="edge57" class="edge">
<title>&#45;13&#45;&gt;1703</title>
<path fill="none" stroke="#ff0000" stroke-width=".1984" d="M573.3648,-154.4194C570.2925,-153.2882 567.0567,-152.1562 564,-151.196 502.2959,-131.8125 481.3299,-143.1375 423,-115.196 421.2078,-114.3374 419.4163,-113.3742 417.6465,-112.3391"/>
<polygon fill="#ff0000" stroke="#ff0000" stroke-width=".1984" points="419.3563,-109.2749 409.0751,-106.7162 415.5167,-115.1279 419.3563,-109.2749"/>
</g>
<!-- &#45;13&#45;&gt;1704 -->
<g id="edge58" class="edge">
<title>&#45;13&#45;&gt;1704</title>
<path fill="none" stroke="#00ff00" stroke-width=".1243" d="M573.4196,-154.2321C570.3433,-153.1145 567.0921,-152.0353 564,-151.196 473.458,-126.6172 442.1391,-152.3716 356,-115.196 354.1754,-114.4085 352.3586,-113.501 350.5694,-112.5086"/>
<polygon fill="#00ff00" stroke="#00ff00" stroke-width=".1243" points="352.2567,-109.4335 341.9443,-107.0037 348.4907,-115.3341 352.2567,-109.4335"/>
</g>
<!-- &#45;13&#45;&gt;1705 -->
<g id="edge59" class="edge">
<title>&#45;13&#45;&gt;1705</title>
<path fill="none" stroke="#ff0000" stroke-width=".2473" d="M573.4802,-152.4651C552.9812,-141.5508 515.0479,-121.3538 488.0414,-106.9747"/>
<polygon fill="#ff0000" stroke="#ff0000" stroke-width=".2473" points="489.4628,-103.7663 478.9911,-102.156 486.173,-109.9451 489.4628,-103.7663"/>
</g>
<!-- 4727 -->
<g id="node23" class="node">
<title>4727</title>
<ellipse fill="#ffffff" stroke="#000000" cx="588" cy="-90.4472" rx="25" ry="25"/>
<text text-anchor="middle" x="588" y="-88.2472" font-family="Times,serif" font-size="9.00" fill="#000000">4727</text>
</g>
<!-- &#45;13&#45;&gt;4727 -->
<g id="edge80" class="edge">
<title>&#45;13&#45;&gt;4727</title>
<path fill="none" stroke="#ff0000" stroke-width=".5" d="M588,-151.0775C588,-144.4608 588,-135.0493 588,-125.6096"/>
<polygon fill="#ff0000" stroke="#ff0000" stroke-width=".5" points="591.5001,-125.4865 588,-115.4865 584.5001,-125.4865 591.5001,-125.4865"/>
</g>
<!-- &#45;14 -->
<g id="node14" class="node">
<title>&#45;14</title>
<polygon fill="#d3d3d3" stroke="#000000" points="297.5,-169.196 268.5,-169.196 268.5,-151.196 297.5,-151.196 297.5,-169.196"/>
<text text-anchor="middle" x="283" y="-157.996" font-family="Times,serif" font-size="9.00" fill="#000000">&#45;14</text>
</g>
<!-- &#45;14&#45;&gt;1701 -->
<g id="edge60" class="edge">
<title>&#45;14&#45;&gt;1701</title>
<path fill="none" stroke="#ff0000" stroke-width=".3124" d="M279.4702,-151.0775C276.6971,-143.9138 272.6559,-133.4742 268.7057,-123.2696"/>
<polygon fill="#ff0000" stroke="#ff0000" stroke-width=".3124" points="271.8647,-121.7347 264.9906,-113.6725 265.3367,-124.2617 271.8647,-121.7347"/>
</g>
<!-- &#45;14&#45;&gt;1702 -->
<g id="edge61" class="edge">
<title>&#45;14&#45;&gt;1702</title>
<path fill="none" stroke="#ff0000" stroke-width=".229" d="M270.3611,-150.917C258.0097,-141.8385 238.6838,-127.6056 222,-115.196 220.4055,-114.0099 218.7689,-112.7902 217.118,-111.5581"/>
<polygon fill="#ff0000" stroke="#ff0000" stroke-width=".229" points="218.9787,-108.579 208.8745,-105.392 214.7859,-114.1844 218.9787,-108.579"/>
</g>
<!-- &#45;14&#45;&gt;1703 -->
<g id="edge62" class="edge">
<title>&#45;14&#45;&gt;1703</title>
<path fill="none" stroke="#00ff00" stroke-width=".331" d="M297.7255,-151.8094C312.8511,-143.064 336.9509,-128.7632 357,-115.196 358.6458,-114.0822 360.3226,-112.9191 362.0043,-111.7305"/>
<polygon fill="#00ff00" stroke="#00ff00" stroke-width=".331" points="364.2966,-114.3914 370.3329,-105.6843 360.1843,-108.7267 364.2966,-114.3914"/>
</g>
<!-- &#45;14&#45;&gt;1704 -->
<g id="edge63" class="edge">
<title>&#45;14&#45;&gt;1704</title>
<path fill="none" stroke="#ff0000" stroke-width=".1204" stroke-dasharray="1,5" d="M288.2293,-151.0775C292.6301,-143.4038 299.1866,-131.971 305.424,-121.0948"/>
<polygon fill="#ff0000" stroke="#ff0000" stroke-width=".1204" points="308.5952,-122.6005 310.5339,-112.1845 302.5229,-119.118 308.5952,-122.6005"/>
</g>
<!-- &#45;14&#45;&gt;1705 -->
<g id="edge64" class="edge">
<title>&#45;14&#45;&gt;1705</title>
<path fill="none" stroke="#00ff00" stroke-width=".3254" d="M297.6727,-154.5339C300.7423,-153.3944 303.9675,-152.2301 307,-151.196 358.4943,-133.6364 375.5178,-139.8835 424,-115.196 425.7709,-114.2942 427.5456,-113.2971 429.3025,-112.236"/>
<polygon fill="#00ff00" stroke="#00ff00" stroke-width=".3254" points="431.4622,-115.0027 437.8386,-106.5415 427.5774,-109.1796 431.4622,-115.0027"/>
</g>
<!-- &#45;15 -->
<g id="node15" class="node">
<title>&#45;15</title>
<polygon fill="#d3d3d3" stroke="#000000" points="344.5,-169.196 315.5,-169.196 315.5,-151.196 344.5,-151.196 344.5,-169.196"/>
<text text-anchor="middle" x="330" y="-157.996" font-family="Times,serif" font-size="9.00" fill="#000000">&#45;15</text>
</g>
<!-- &#45;15&#45;&gt;1701 -->
<g id="edge65" class="edge">
<title>&#45;15&#45;&gt;1701</title>
<path fill="none" stroke="#ff0000" stroke-width=".4929" d="M320.3258,-151.0775C310.5665,-141.8789 295.0764,-127.2787 281.7423,-114.7107"/>
<polygon fill="#ff0000" stroke="#ff0000" stroke-width=".4929" points="283.8779,-111.9138 274.2002,-107.6018 279.0766,-117.0077 283.8779,-111.9138"/>
</g>
<!-- &#45;15&#45;&gt;1702 -->
<g id="edge66" class="edge">
<title>&#45;15&#45;&gt;1702</title>
<path fill="none" stroke="#ff0000" stroke-width=".4702" d="M315.1432,-154.2449C287.5727,-143.1661 230.5095,-120.0584 222,-115.196 220.2746,-114.21 218.5354,-113.147 216.8059,-112.0353"/>
<polygon fill="#ff0000" stroke="#ff0000" stroke-width=".4702" points="218.5646,-108.9966 208.3452,-106.2011 214.5908,-114.7593 218.5646,-108.9966"/>
</g>
<!-- &#45;15&#45;&gt;1703 -->
<g id="edge67" class="edge">
<title>&#45;15&#45;&gt;1703</title>
<path fill="none" stroke="#00ff00" stroke-width=".2267" stroke-dasharray="1,5" d="M337.844,-151.0775C345.2963,-142.4143 356.8701,-128.9601 367.2234,-116.9245"/>
<polygon fill="#00ff00" stroke="#00ff00" stroke-width=".2267" points="369.9272,-119.1484 373.7953,-109.2849 364.6205,-114.5834 369.9272,-119.1484"/>
</g>
<!-- &#45;15&#45;&gt;1704 -->
<g id="edge68" class="edge">
<title>&#45;15&#45;&gt;1704</title>
<path fill="none" stroke="#ff0000" stroke-width=".4299" d="M329.0849,-151.0775C328.4154,-144.4066 327.4608,-134.8948 326.5056,-125.3775"/>
<polygon fill="#ff0000" stroke="#ff0000" stroke-width=".4299" points="329.9636,-124.7827 325.4824,-115.1822 322.9986,-125.4818 329.9636,-124.7827"/>
</g>
<!-- &#45;15&#45;&gt;1705 -->
<g id="edge69" class="edge">
<title>&#45;15&#45;&gt;1705</title>
<path fill="none" stroke="#ff0000" stroke-width=".3627" d="M344.795,-154.1894C363.7155,-146.2684 397.2333,-131.4224 424,-115.196 425.6994,-114.1658 427.4181,-113.0681 429.132,-111.9297"/>
<polygon fill="#ff0000" stroke="#ff0000" stroke-width=".3627" points="431.3748,-114.6317 437.5494,-106.0221 427.3535,-108.902 431.3748,-114.6317"/>
</g>
<!-- 0 -->
<g id="node16" class="node">
<title>0</title>
<ellipse fill="#add8e6" stroke="#000000" cx="347" cy="-14.8492" rx="14.7" ry="14.7"/>
<text text-anchor="middle" x="347" y="-12.6492" font-family="Times,serif" font-size="9.00" fill="#000000">0</text>
</g>
<!-- 1 -->
<g id="node17" class="node">
<title>1</title>
<ellipse fill="#add8e6" stroke="#000000" cx="299" cy="-14.8492" rx="14.7" ry="14.7"/>
<text text-anchor="middle" x="299" y="-12.6492" font-family="Times,serif" font-size="9.00" fill="#000000">1</text>
</g>
<!-- 1701&#45;&gt;0 -->
<g id="edge70" class="edge">
<title>1701&#45;&gt;0</title>
<path fill="none" stroke="#00ff00" stroke-width=".1009" d="M275.2988,-74.4148C290.7059,-61.6154 312.1933,-43.7648 327.6214,-30.948"/>
<polygon fill="#00ff00" stroke="#00ff00" stroke-width=".1009" points="330.0366,-33.4917 335.4921,-24.4094 325.5635,-28.1073 330.0366,-33.4917"/>
</g>
<!-- 1701&#45;&gt;1 -->
<g id="edge71" class="edge">
<title>1701&#45;&gt;1</title>
<path fill="none" stroke="#00ff00" stroke-width=".1597" d="M268.4374,-68.5812C274.0764,-58.6673 280.7334,-46.9636 286.3926,-37.0142"/>
<polygon fill="#00ff00" stroke="#00ff00" stroke-width=".1597" points="289.545,-38.551 291.4469,-28.1283 283.4604,-35.0901 289.545,-38.551"/>
</g>
<!-- 1702&#45;&gt;0 -->
<g id="edge72" class="edge">
<title>1702&#45;&gt;0</title>
<path fill="none" stroke="#00ff00" stroke-width=".4988" d="M208.2432,-74.5092C212.6046,-71.3321 217.3315,-68.2062 222,-65.6985 263.9817,-43.1474 280.0525,-50.351 323,-29.6985 323.85,-29.2897 324.7079,-28.8585 325.5677,-28.4104"/>
<polygon fill="#00ff00" stroke="#00ff00" stroke-width=".4988" points="327.6558,-31.2471 334.5785,-23.2267 324.1652,-25.1794 327.6558,-31.2471"/>
</g>
<!-- 1702&#45;&gt;1 -->
<g id="edge73" class="edge">
<title>1702&#45;&gt;1</title>
<path fill="none" stroke="#00ff00" stroke-width=".3255" d="M208.7521,-75.3334C213.0819,-72.1049 217.6672,-68.7498 222,-65.6985 240.6135,-52.5904 262.2894,-38.366 277.8921,-28.3039"/>
<polygon fill="#00ff00" stroke="#00ff00" stroke-width=".3255" points="279.784,-31.2485 286.3078,-22.9004 276.0019,-25.3582 279.784,-31.2485"/>
</g>
<!-- 1703&#45;&gt;0 -->
<g id="edge74" class="edge">
<title>1703&#45;&gt;0</title>
<path fill="none" stroke="#00ff00" stroke-width=".5" d="M377.5626,-68.5812C371.9236,-58.6673 365.2666,-46.9636 359.6074,-37.0142"/>
<polygon fill="#00ff00" stroke="#00ff00" stroke-width=".5" points="362.5396,-35.0901 354.5531,-28.1283 356.455,-38.551 362.5396,-35.0901"/>
</g>
<!-- 1703&#45;&gt;1 -->
<g id="edge75" class="edge">
<title>1703&#45;&gt;1</title>
<path fill="none" stroke="#00ff00" stroke-width=".5" d="M370.7012,-74.4148C355.2941,-61.6154 333.8067,-43.7648 318.3786,-30.948"/>
<polygon fill="#00ff00" stroke="#00ff00" stroke-width=".5" points="320.4365,-28.1073 310.5079,-24.4094 315.9634,-33.4917 320.4365,-28.1073"/>
</g>
<!-- 1704&#45;&gt;0 -->
<g id="edge76" class="edge">
<title>1704&#45;&gt;0</title>
<path fill="none" stroke="#00ff00" stroke-width=".1205" stroke-dasharray="1,5" d="M330.5938,-66.5275C333.397,-57.6976 336.5727,-47.6942 339.3784,-38.8566"/>
<polygon fill="#00ff00" stroke="#00ff00" stroke-width=".1205" points="342.7676,-39.7478 342.4576,-29.1575 336.0957,-37.6297 342.7676,-39.7478"/>
</g>
<!-- 1704&#45;&gt;1 -->
<g id="edge77" class="edge">
<title>1704&#45;&gt;1</title>
<path fill="none" stroke="#00ff00" stroke-width=".5" stroke-dasharray="1,5" d="M315.4063,-66.5275C312.603,-57.6976 309.4273,-47.6942 306.6216,-38.8566"/>
<polygon fill="#00ff00" stroke="#00ff00" stroke-width=".5" points="309.9043,-37.6297 303.5424,-29.1575 303.2324,-39.7478 309.9043,-37.6297"/>
</g>
<!-- 1705&#45;&gt;0 -->
<g id="edge78" class="edge">
<title>1705&#45;&gt;0</title>
<path fill="none" stroke="#ff0000" stroke-width=".3454" d="M437.2479,-75.3334C432.9181,-72.1049 428.3328,-68.7498 424,-65.6985 405.3865,-52.5904 383.7106,-38.366 368.1079,-28.3039"/>
<polygon fill="#ff0000" stroke="#ff0000" stroke-width=".3454" points="369.9981,-25.3582 359.6922,-22.9004 366.216,-31.2485 369.9981,-25.3582"/>
</g>
<!-- 1705&#45;&gt;1 -->
<g id="edge79" class="edge">
<title>1705&#45;&gt;1</title>
<path fill="none" stroke="#ff0000" stroke-width=".3837" d="M437.7568,-74.5092C433.3954,-71.3321 428.6685,-68.2062 424,-65.6985 382.0183,-43.1474 365.9475,-50.351 323,-29.6985 322.15,-29.2897 321.2921,-28.8585 320.4323,-28.4104"/>
<polygon fill="#ff0000" stroke="#ff0000" stroke-width=".3837" points="321.8348,-25.1794 311.4215,-23.2267 318.3442,-31.2471 321.8348,-25.1794"/>
</g>
</g>
</svg>
