<?xml version="1.0" encoding="UTF-8" standalone="no"?>
<!DOCTYPE svg PUBLIC "-//W3C//DTD SVG 1.1//EN"
 "http://www.w3.org/Graphics/SVG/1.1/DTD/svg11.dtd">
<!-- Generated by graphviz version 2.40.1 (20161225.0304)
 -->
<!-- Title: %3 Pages: 1 -->
<svg width="774pt" height="354pt"
 viewBox="0.00 0.00 773.89 353.85" xmlns="http://www.w3.org/2000/svg" xmlns:xlink="http://www.w3.org/1999/xlink">
<g id="graph0" class="graph" transform="scale(1 1) rotate(0) translate(4 349.8478)">
<title>%3</title>
<polygon fill="#ffffff" stroke="transparent" points="-4,4 -4,-349.8478 769.8866,-349.8478 769.8866,4 -4,4"/>
<!-- &#45;1 -->
<g id="node1" class="node">
<title>&#45;1</title>
<polygon fill="#d3d3d3" stroke="#000000" points="435.518,-184.9447 411.518,-184.9447 411.518,-166.9447 435.518,-166.9447 435.518,-184.9447"/>
<text text-anchor="middle" x="423.518" y="-173.7447" font-family="Times,serif" font-size="9.00" fill="#000000">&#45;1</text>
</g>
<!-- 1096 -->
<g id="node19" class="node">
<title>1096</title>
<ellipse fill="#ffffff" stroke="#000000" cx="346.518" cy="-90.4472" rx="25" ry="25"/>
<text text-anchor="middle" x="346.518" y="-88.2472" font-family="Times,serif" font-size="9.00" fill="#000000">1096</text>
</g>
<!-- &#45;1&#45;&gt;1096 -->
<g id="edge1" class="edge">
<title>&#45;1&#45;&gt;1096</title>
<path fill="none" stroke="#ff0000" stroke-width=".2927" d="M415.8281,-166.7002C411.8923,-162.0155 406.9981,-156.2609 402.518,-151.196 392.1942,-139.5242 380.5482,-126.8191 370.5612,-116.0595"/>
<polygon fill="#ff0000" stroke="#ff0000" stroke-width=".2927" points="373.0013,-113.5441 363.6249,-108.6112 367.8786,-118.3146 373.0013,-113.5441"/>
</g>
<!-- 1097 -->
<g id="node20" class="node">
<title>1097</title>
<ellipse fill="#ffffff" stroke="#000000" cx="413.518" cy="-90.4472" rx="25" ry="25"/>
<text text-anchor="middle" x="413.518" y="-88.2472" font-family="Times,serif" font-size="9.00" fill="#000000">1097</text>
</g>
<!-- &#45;1&#45;&gt;1097 -->
<g id="edge2" class="edge">
<title>&#45;1&#45;&gt;1097</title>
<path fill="none" stroke="#00ff00" stroke-width=".5" stroke-dasharray="1,5" d="M422.4478,-166.795C421.2852,-156.8547 419.3567,-140.3668 417.5889,-125.2522"/>
<polygon fill="#00ff00" stroke="#00ff00" stroke-width=".5" points="421.0401,-124.6306 416.402,-115.1049 414.0875,-125.4438 421.0401,-124.6306"/>
</g>
<!-- 1099 -->
<g id="node22" class="node">
<title>1099</title>
<ellipse fill="#ffffff" stroke="#000000" cx="480.518" cy="-90.4472" rx="25" ry="25"/>
<text text-anchor="middle" x="480.518" y="-88.2472" font-family="Times,serif" font-size="9.00" fill="#000000">1099</text>
</g>
<!-- &#45;1&#45;&gt;1099 -->
<g id="edge3" class="edge">
<title>&#45;1&#45;&gt;1099</title>
<path fill="none" stroke="#00ff00" stroke-width=".328" d="M429.618,-166.795C437.0331,-155.6727 449.9131,-136.3532 460.8609,-119.9321"/>
<polygon fill="#00ff00" stroke="#00ff00" stroke-width=".328" points="464.0622,-121.4398 466.6972,-111.1779 458.2379,-117.5568 464.0622,-121.4398"/>
</g>
<!-- &#45;2 -->
<g id="node2" class="node">
<title>&#45;2</title>
<polygon fill="#d3d3d3" stroke="#000000" points="477.518,-184.9447 453.518,-184.9447 453.518,-166.9447 477.518,-166.9447 477.518,-184.9447"/>
<text text-anchor="middle" x="465.518" y="-173.7447" font-family="Times,serif" font-size="9.00" fill="#000000">&#45;2</text>
</g>
<!-- &#45;2&#45;&gt;1096 -->
<g id="edge4" class="edge">
<title>&#45;2&#45;&gt;1096</title>
<path fill="none" stroke="#ff0000" stroke-width=".5" d="M458.8368,-166.5228C455.0186,-161.5696 449.9227,-155.6247 444.518,-151.196 418.9746,-130.265 407.2379,-133.1453 379.518,-115.196 377.8499,-114.1158 376.1557,-112.9791 374.4606,-111.8106"/>
<polygon fill="#ff0000" stroke="#ff0000" stroke-width=".5" points="376.2633,-108.7966 366.0951,-105.8202 372.1878,-114.488 376.2633,-108.7966"/>
</g>
<!-- &#45;2&#45;&gt;1097 -->
<g id="edge5" class="edge">
<title>&#45;2&#45;&gt;1097</title>
<path fill="none" stroke="#00ff00" stroke-width=".4344" d="M459.9531,-166.795C453.2769,-155.8181 441.7446,-136.8569 431.8434,-120.5775"/>
<polygon fill="#00ff00" stroke="#00ff00" stroke-width=".4344" points="434.7386,-118.6021 426.5517,-111.877 428.7579,-122.2397 434.7386,-118.6021"/>
</g>
<!-- &#45;2&#45;&gt;1099 -->
<g id="edge6" class="edge">
<title>&#45;2&#45;&gt;1099</title>
<path fill="none" stroke="#ff0000" stroke-width=".2922" d="M467.1233,-166.795C468.8672,-156.8547 471.7599,-140.3668 474.4117,-125.2522"/>
<polygon fill="#ff0000" stroke="#ff0000" stroke-width=".2922" points="477.9112,-125.5593 476.192,-115.1049 471.0165,-124.3496 477.9112,-125.5593"/>
</g>
<!-- &#45;3 -->
<g id="node3" class="node">
<title>&#45;3</title>
<polygon fill="#d3d3d3" stroke="#000000" points="112.518,-345.8478 88.518,-345.8478 88.518,-327.8478 112.518,-327.8478 112.518,-345.8478"/>
<text text-anchor="middle" x="100.518" y="-334.6478" font-family="Times,serif" font-size="9.00" fill="#000000">&#45;3</text>
</g>
<!-- 10403 -->
<g id="node18" class="node">
<title>10403</title>
<ellipse fill="#ffffff" stroke="#000000" cx="100.518" cy="-264.2706" rx="27.6545" ry="27.6545"/>
<text text-anchor="middle" x="100.518" y="-262.0706" font-family="Times,serif" font-size="9.00" fill="#000000">10403</text>
</g>
<!-- &#45;3&#45;&gt;10403 -->
<g id="edge52" class="edge">
<title>&#45;3&#45;&gt;10403</title>
<path fill="none" stroke="#00ff00" stroke-width=".2739" d="M100.518,-327.6558C100.518,-321.1011 100.518,-311.806 100.518,-302.3485"/>
<polygon fill="#00ff00" stroke="#00ff00" stroke-width=".2739" points="104.0181,-302.1443 100.518,-292.1443 97.0181,-302.1444 104.0181,-302.1443"/>
</g>
<!-- &#45;3&#45;&gt;1096 -->
<g id="edge7" class="edge">
<title>&#45;3&#45;&gt;1096</title>
<path fill="none" stroke="#00ff00" stroke-width=".2841" d="M88.0893,-329.0147C76.3333,-321.0084 58.9767,-307.5463 48.518,-291.8478 13.0792,-238.6537 -22.3567,-200.3363 18.518,-151.196 55.5248,-106.7058 234.6472,-94.6569 311.4426,-91.5117"/>
<polygon fill="#00ff00" stroke="#00ff00" stroke-width=".2841" points="311.7152,-95.0039 321.5742,-91.1246 311.4479,-88.0091 311.7152,-95.0039"/>
</g>
<!-- &#45;3&#45;&gt;1097 -->
<g id="edge8" class="edge">
<title>&#45;3&#45;&gt;1097</title>
<path fill="none" stroke="#00ff00" stroke-width=".5" d="M112.7017,-335.2782C180.6626,-326.253 511.9575,-278.6261 570.518,-200.6934 583.7334,-183.1064 583.7282,-168.7869 570.518,-151.196 536.0576,-105.3079 497.8625,-140.8276 446.518,-115.196 444.74,-114.3083 442.9597,-113.3224 441.1985,-112.2698"/>
<polygon fill="#00ff00" stroke="#00ff00" stroke-width=".5" points="442.9184,-109.2107 432.6506,-106.5987 439.0485,-115.0437 442.9184,-109.2107"/>
</g>
<!-- 7593 -->
<g id="node21" class="node">
<title>7593</title>
<ellipse fill="#ffffff" stroke="#000000" cx="52.518" cy="-175.9447" rx="25" ry="25"/>
<text text-anchor="middle" x="52.518" y="-173.7447" font-family="Times,serif" font-size="9.00" fill="#000000">7593</text>
</g>
<!-- &#45;3&#45;&gt;7593 -->
<g id="edge51" class="edge">
<title>&#45;3&#45;&gt;7593</title>
<path fill="none" stroke="#00ff00" stroke-width=".2096" d="M90.0638,-327.6379C81.3269,-319.2586 69.3826,-306.0589 63.518,-291.8478 52.9535,-266.2477 50.5466,-234.8495 50.5914,-211.1931"/>
<polygon fill="#00ff00" stroke="#00ff00" stroke-width=".2096" points="54.0955,-210.9747 50.764,-200.9173 47.0964,-210.8571 54.0955,-210.9747"/>
</g>
<!-- &#45;3&#45;&gt;1099 -->
<g id="edge9" class="edge">
<title>&#45;3&#45;&gt;1099</title>
<path fill="none" stroke="#00ff00" stroke-width=".3943" d="M112.6476,-336.4062C195.2037,-333.1178 673.6477,-309.473 754.518,-200.6934 817.364,-116.1586 602.9029,-96.3032 515.7246,-91.7575"/>
<polygon fill="#00ff00" stroke="#00ff00" stroke-width=".3943" points="515.6668,-88.2507 505.5099,-91.265 515.3297,-95.2426 515.6668,-88.2507"/>
</g>
<!-- &#45;4 -->
<g id="node4" class="node">
<title>&#45;4</title>
<polygon fill="#d3d3d3" stroke="#000000" points="519.518,-184.9447 495.518,-184.9447 495.518,-166.9447 519.518,-166.9447 519.518,-184.9447"/>
<text text-anchor="middle" x="507.518" y="-173.7447" font-family="Times,serif" font-size="9.00" fill="#000000">&#45;4</text>
</g>
<!-- &#45;4&#45;&gt;1096 -->
<g id="edge10" class="edge">
<title>&#45;4&#45;&gt;1096</title>
<path fill="none" stroke="#00ff00" stroke-width=".2722" d="M501.4954,-166.6063C497.7378,-161.4311 492.4878,-155.2439 486.518,-151.196 444.9897,-123.0369 423.9296,-138.5442 379.518,-115.196 377.759,-114.2712 375.9936,-113.2561 374.2438,-112.1812"/>
<polygon fill="#00ff00" stroke="#00ff00" stroke-width=".2722" points="375.9776,-109.1292 365.7275,-106.4485 372.0687,-114.9362 375.9776,-109.1292"/>
</g>
<!-- &#45;4&#45;&gt;1097 -->
<g id="edge11" class="edge">
<title>&#45;4&#45;&gt;1097</title>
<path fill="none" stroke="#ff0000" stroke-width=".28" d="M500.4857,-166.9124C496.5646,-162.0733 491.4825,-156.1131 486.518,-151.196 472.4167,-137.2292 455.4363,-122.9655 441.4021,-111.7722"/>
<polygon fill="#ff0000" stroke="#ff0000" stroke-width=".28" points="443.5438,-109.0038 433.5235,-105.5621 439.2104,-114.5013 443.5438,-109.0038"/>
</g>
<!-- &#45;4&#45;&gt;1099 -->
<g id="edge12" class="edge">
<title>&#45;4&#45;&gt;1099</title>
<path fill="none" stroke="#ff0000" stroke-width=".1247" d="M504.6285,-166.795C501.4146,-156.6178 496.0332,-139.5771 491.1688,-124.1738"/>
<polygon fill="#ff0000" stroke="#ff0000" stroke-width=".1247" points="494.4239,-122.8585 488.0749,-114.3767 487.7489,-124.9665 494.4239,-122.8585"/>
</g>
<!-- &#45;5 -->
<g id="node5" class="node">
<title>&#45;5</title>
<polygon fill="#d3d3d3" stroke="#000000" points="393.518,-184.9447 369.518,-184.9447 369.518,-166.9447 393.518,-166.9447 393.518,-184.9447"/>
<text text-anchor="middle" x="381.518" y="-173.7447" font-family="Times,serif" font-size="9.00" fill="#000000">&#45;5</text>
</g>
<!-- &#45;5&#45;&gt;1096 -->
<g id="edge13" class="edge">
<title>&#45;5&#45;&gt;1096</title>
<path fill="none" stroke="#ff0000" stroke-width=".3508" d="M377.7724,-166.795C373.5081,-156.3781 366.3002,-138.7709 359.8804,-123.0887"/>
<polygon fill="#ff0000" stroke="#ff0000" stroke-width=".3508" points="363.0461,-121.5831 356.0184,-113.6545 356.5679,-124.2351 363.0461,-121.5831"/>
</g>
<!-- &#45;5&#45;&gt;1097 -->
<g id="edge14" class="edge">
<title>&#45;5&#45;&gt;1097</title>
<path fill="none" stroke="#00ff00" stroke-width=".5" d="M384.9426,-166.795C388.8414,-156.3781 395.4314,-138.7709 401.301,-123.0887"/>
<polygon fill="#00ff00" stroke="#00ff00" stroke-width=".5" points="404.6045,-124.2469 404.832,-113.6545 398.0487,-121.7932 404.6045,-124.2469"/>
</g>
<!-- &#45;5&#45;&gt;1099 -->
<g id="edge15" class="edge">
<title>&#45;5&#45;&gt;1099</title>
<path fill="none" stroke="#00ff00" stroke-width=".3849" d="M388.4874,-166.8478C392.39,-161.9898 397.4747,-156.0321 402.518,-151.196 407.064,-146.8368 432.038,-127.5064 452.5208,-111.8052"/>
<polygon fill="#00ff00" stroke="#00ff00" stroke-width=".3849" points="454.8525,-114.4281 460.6661,-105.5707 450.5979,-108.8695 454.8525,-114.4281"/>
</g>
<!-- &#45;6 -->
<g id="node6" class="node">
<title>&#45;6</title>
<polygon fill="#d3d3d3" stroke="#000000" points="561.518,-184.9447 537.518,-184.9447 537.518,-166.9447 561.518,-166.9447 561.518,-184.9447"/>
<text text-anchor="middle" x="549.518" y="-173.7447" font-family="Times,serif" font-size="9.00" fill="#000000">&#45;6</text>
</g>
<!-- &#45;6&#45;&gt;1096 -->
<g id="edge16" class="edge">
<title>&#45;6&#45;&gt;1096</title>
<path fill="none" stroke="#ff0000" stroke-width=".2286" d="M543.9676,-166.8961C540.2364,-161.5552 534.8511,-155.0972 528.518,-151.196 470.5128,-115.4639 441.1488,-144.231 379.518,-115.196 377.7203,-114.349 375.9245,-113.3949 374.1514,-112.3667"/>
<polygon fill="#ff0000" stroke="#ff0000" stroke-width=".2286" points="375.8573,-109.3006 365.5708,-106.7631 372.0298,-115.1615 375.8573,-109.3006"/>
</g>
<!-- &#45;6&#45;&gt;1097 -->
<g id="edge17" class="edge">
<title>&#45;6&#45;&gt;1097</title>
<path fill="none" stroke="#ff0000" stroke-width=".1672" d="M543.3557,-166.8028C539.5516,-161.6931 534.3016,-155.5059 528.518,-151.196 496.6031,-127.4129 480.8879,-135.2685 446.518,-115.196 444.802,-114.1938 443.0702,-113.118 441.3463,-111.9965"/>
<polygon fill="#ff0000" stroke="#ff0000" stroke-width=".1672" points="443.1121,-108.9617 432.9012,-106.1353 439.1209,-114.7124 443.1121,-108.9617"/>
</g>
<!-- &#45;6&#45;&gt;1099 -->
<g id="edge18" class="edge">
<title>&#45;6&#45;&gt;1099</title>
<path fill="none" stroke="#ff0000" stroke-width=".5" d="M542.1338,-166.795C532.7525,-155.1706 516.1448,-134.5921 502.5337,-117.7268"/>
<polygon fill="#ff0000" stroke="#ff0000" stroke-width=".5" points="505.1415,-115.385 496.1375,-109.8012 499.6941,-119.7812 505.1415,-115.385"/>
</g>
<!-- &#45;7 -->
<g id="node7" class="node">
<title>&#45;7</title>
<polygon fill="#d3d3d3" stroke="#000000" points="725.518,-184.9447 701.518,-184.9447 701.518,-166.9447 725.518,-166.9447 725.518,-184.9447"/>
<text text-anchor="middle" x="713.518" y="-173.7447" font-family="Times,serif" font-size="9.00" fill="#000000">&#45;7</text>
</g>
<!-- &#45;7&#45;&gt;1097 -->
<g id="edge19" class="edge">
<title>&#45;7&#45;&gt;1097</title>
<path fill="none" stroke="#ff0000" stroke-width=".169" d="M708.0888,-166.6888C704.4033,-161.2699 699.0233,-154.8027 692.518,-151.196 595.8791,-97.617 548.5329,-157.6546 446.518,-115.196 444.6337,-114.4117 442.76,-113.4954 440.9178,-112.486"/>
<polygon fill="#ff0000" stroke="#ff0000" stroke-width=".169" points="442.3812,-109.2683 432.067,-106.8457 438.6192,-115.1715 442.3812,-109.2683"/>
</g>
<!-- &#45;7&#45;&gt;1099 -->
<g id="edge20" class="edge">
<title>&#45;7&#45;&gt;1099</title>
<path fill="none" stroke="#ff0000" stroke-width=".4348" stroke-dasharray="1,5" d="M707.5633,-166.5037C703.8283,-161.2943 698.5783,-155.1071 692.518,-151.196 636.8264,-115.2541 559.5063,-100.1423 515.2794,-94.1247"/>
<polygon fill="#ff0000" stroke="#ff0000" stroke-width=".4348" points="515.6727,-90.6465 505.3088,-92.8467 514.7827,-97.5897 515.6727,-90.6465"/>
</g>
<!-- &#45;8 -->
<g id="node8" class="node">
<title>&#45;8</title>
<polygon fill="#d3d3d3" stroke="#000000" points="641.518,-184.9447 617.518,-184.9447 617.518,-166.9447 641.518,-166.9447 641.518,-184.9447"/>
<text text-anchor="middle" x="629.518" y="-173.7447" font-family="Times,serif" font-size="9.00" fill="#000000">&#45;8</text>
</g>
<!-- &#45;8&#45;&gt;1096 -->
<g id="edge21" class="edge">
<title>&#45;8&#45;&gt;1096</title>
<path fill="none" stroke="#00ff00" stroke-width=".1032" stroke-dasharray="1,5" d="M617.1403,-169.8473C605.3925,-164.2797 587.1139,-156.1798 570.518,-151.196 487.7845,-126.3507 458.573,-150.016 379.518,-115.196 377.6993,-114.3949 375.8872,-113.4767 374.1015,-112.4762"/>
<polygon fill="#00ff00" stroke="#00ff00" stroke-width=".1032" points="375.7929,-109.403 365.4863,-106.9487 372.0129,-115.2946 375.7929,-109.403"/>
</g>
<!-- &#45;8&#45;&gt;1097 -->
<g id="edge22" class="edge">
<title>&#45;8&#45;&gt;1097</title>
<path fill="none" stroke="#ff0000" stroke-width=".278" d="M622.2275,-166.8908C617.4504,-161.5479 610.7642,-155.0897 603.518,-151.196 540.4569,-117.3104 511.4565,-145.3278 446.518,-115.196 444.7154,-114.3595 442.9157,-113.4136 441.1397,-112.3918"/>
<polygon fill="#ff0000" stroke="#ff0000" stroke-width=".278" points="442.8422,-109.3239 432.551,-106.8056 439.0255,-115.1919 442.8422,-109.3239"/>
</g>
<!-- &#45;8&#45;&gt;1099 -->
<g id="edge23" class="edge">
<title>&#45;8&#45;&gt;1099</title>
<path fill="none" stroke="#00ff00" stroke-width=".4907" stroke-dasharray="1,5" d="M620.9617,-166.5201C616.1511,-161.566 609.853,-155.6212 603.518,-151.196 574.9517,-131.2411 538.8619,-114.2529 513.1789,-103.3582"/>
<polygon fill="#00ff00" stroke="#00ff00" stroke-width=".4907" points="514.4597,-100.1002 503.8826,-99.4875 511.769,-106.5625 514.4597,-100.1002"/>
</g>
<!-- &#45;9 -->
<g id="node9" class="node">
<title>&#45;9</title>
<polygon fill="#d3d3d3" stroke="#000000" points="683.518,-184.9447 659.518,-184.9447 659.518,-166.9447 683.518,-166.9447 683.518,-184.9447"/>
<text text-anchor="middle" x="671.518" y="-173.7447" font-family="Times,serif" font-size="9.00" fill="#000000">&#45;9</text>
</g>
<!-- &#45;9&#45;&gt;1096 -->
<g id="edge24" class="edge">
<title>&#45;9&#45;&gt;1096</title>
<path fill="none" stroke="#00ff00" stroke-width=".1018" d="M666.1056,-166.6584C662.4263,-161.2281 657.047,-154.7595 650.518,-151.196 543.867,-92.9858 491.9994,-161.1394 379.518,-115.196 377.6286,-114.4242 375.7508,-113.5176 373.9056,-112.5156"/>
<polygon fill="#00ff00" stroke="#00ff00" stroke-width=".1018" points="375.3657,-109.297 365.0467,-106.8951 371.6156,-115.2077 375.3657,-109.297"/>
</g>
<!-- &#45;9&#45;&gt;1097 -->
<g id="edge25" class="edge">
<title>&#45;9&#45;&gt;1097</title>
<path fill="none" stroke="#00ff00" stroke-width=".1772" d="M666.0511,-166.7557C662.3513,-161.362 656.9697,-154.8978 650.518,-151.196 570.6619,-105.3763 530.9891,-151.8168 446.518,-115.196 444.6947,-114.4055 442.879,-113.4956 441.0905,-112.5015"/>
<polygon fill="#00ff00" stroke="#00ff00" stroke-width=".1772" points="442.7787,-109.4267 432.4676,-106.9915 439.0096,-115.3253 442.7787,-109.4267"/>
</g>
<!-- &#45;9&#45;&gt;1099 -->
<g id="edge26" class="edge">
<title>&#45;9&#45;&gt;1099</title>
<path fill="none" stroke="#ff0000" stroke-width=".3738" d="M665.4669,-166.6479C661.6998,-161.4866 656.4498,-155.2994 650.518,-151.196 608.5253,-122.1467 551.1303,-105.4678 514.9441,-97.1794"/>
<polygon fill="#ff0000" stroke="#ff0000" stroke-width=".3738" points="515.4017,-93.6964 504.8833,-94.9663 513.8979,-100.533 515.4017,-93.6964"/>
</g>
<!-- &#45;10 -->
<g id="node10" class="node">
<title>&#45;10</title>
<polygon fill="#d3d3d3" stroke="#000000" points="163.018,-184.9447 134.018,-184.9447 134.018,-166.9447 163.018,-166.9447 163.018,-184.9447"/>
<text text-anchor="middle" x="148.518" y="-173.7447" font-family="Times,serif" font-size="9.00" fill="#000000">&#45;10</text>
</g>
<!-- &#45;10&#45;&gt;1096 -->
<g id="edge27" class="edge">
<title>&#45;10&#45;&gt;1096</title>
<path fill="none" stroke="#00ff00" stroke-width=".409" stroke-dasharray="1,5" d="M155.3019,-166.6471C159.4799,-161.4855 165.2299,-155.2984 171.518,-151.196 215.7116,-122.3639 275.1416,-105.5358 312.1241,-97.168"/>
<polygon fill="#00ff00" stroke="#00ff00" stroke-width=".409" points="312.9042,-100.5802 321.9284,-95.0292 311.4122,-93.741 312.9042,-100.5802"/>
</g>
<!-- &#45;10&#45;&gt;1097 -->
<g id="edge28" class="edge">
<title>&#45;10&#45;&gt;1097</title>
<path fill="none" stroke="#00ff00" stroke-width=".2811" d="M154.6869,-166.7452C158.8073,-161.3475 164.7095,-154.8827 171.518,-151.196 254.4032,-106.314 293.9618,-152.5103 380.518,-115.196 382.3429,-114.4092 384.16,-113.5023 385.9494,-112.5104"/>
<polygon fill="#00ff00" stroke="#00ff00" stroke-width=".2811" points="388.0276,-115.3362 394.575,-107.0066 384.2623,-109.4351 388.0276,-115.3362"/>
</g>
<!-- &#45;10&#45;&gt;1099 -->
<g id="edge29" class="edge">
<title>&#45;10&#45;&gt;1099</title>
<path fill="none" stroke="#ff0000" stroke-width=".2185" d="M154.6349,-166.6467C158.7357,-161.2119 164.6356,-154.7428 171.518,-151.196 281.4803,-94.5266 332.9417,-161.837 447.518,-115.196 449.4084,-114.4264 451.2868,-113.5215 453.1326,-112.5209"/>
<polygon fill="#ff0000" stroke="#ff0000" stroke-width=".2185" points="455.4211,-115.2142 461.993,-106.9039 451.6731,-109.3021 455.4211,-115.2142"/>
</g>
<!-- &#45;11 -->
<g id="node11" class="node">
<title>&#45;11</title>
<polygon fill="#d3d3d3" stroke="#000000" points="210.018,-184.9447 181.018,-184.9447 181.018,-166.9447 210.018,-166.9447 210.018,-184.9447"/>
<text text-anchor="middle" x="195.518" y="-173.7447" font-family="Times,serif" font-size="9.00" fill="#000000">&#45;11</text>
</g>
<!-- &#45;11&#45;&gt;1096 -->
<g id="edge30" class="edge">
<title>&#45;11&#45;&gt;1096</title>
<path fill="none" stroke="#ff0000" stroke-width=".2157" d="M202.4765,-166.8995C206.7127,-161.822 212.4627,-155.6348 218.518,-151.196 248.0248,-129.566 286.452,-112.5638 313.474,-102.1133"/>
<polygon fill="#ff0000" stroke="#ff0000" stroke-width=".2157" points="314.757,-105.3701 322.8758,-98.5631 312.2841,-98.8214 314.757,-105.3701"/>
</g>
<!-- &#45;11&#45;&gt;1097 -->
<g id="edge31" class="edge">
<title>&#45;11&#45;&gt;1097</title>
<path fill="none" stroke="#00ff00" stroke-width=".2818" d="M201.7507,-166.8596C205.895,-161.505 211.8001,-155.0454 218.518,-151.196 282.5128,-114.5263 313.509,-146.0147 380.518,-115.196 382.3235,-114.3656 384.1253,-113.4244 385.903,-112.4063"/>
<polygon fill="#00ff00" stroke="#00ff00" stroke-width=".2818" points="388.0129,-115.2095 394.4964,-106.8301 384.2025,-109.3375 388.0129,-115.2095"/>
</g>
<!-- &#45;11&#45;&gt;1099 -->
<g id="edge32" class="edge">
<title>&#45;11&#45;&gt;1099</title>
<path fill="none" stroke="#ff0000" stroke-width=".3926" d="M201.668,-166.71C205.7813,-161.2991 211.6827,-154.8328 218.518,-151.196 309.4728,-102.8023 352.6113,-155.2887 447.518,-115.196 449.3486,-114.4226 451.1702,-113.5261 452.963,-112.5423"/>
<polygon fill="#ff0000" stroke="#ff0000" stroke-width=".3926" points="455.0313,-115.375 461.5981,-107.0607 451.2797,-109.4652 455.0313,-115.375"/>
</g>
<!-- &#45;12 -->
<g id="node12" class="node">
<title>&#45;12</title>
<polygon fill="#d3d3d3" stroke="#000000" points="175.018,-273.2706 146.018,-273.2706 146.018,-255.2706 175.018,-255.2706 175.018,-273.2706"/>
<text text-anchor="middle" x="160.518" y="-262.0706" font-family="Times,serif" font-size="9.00" fill="#000000">&#45;12</text>
</g>
<!-- &#45;12&#45;&gt;1096 -->
<g id="edge33" class="edge">
<title>&#45;12&#45;&gt;1096</title>
<path fill="none" stroke="#ff0000" stroke-width=".316" stroke-dasharray="1,5" d="M152.5153,-255.1077C135.5547,-234.5418 99.5215,-183.9516 124.518,-151.196 147.1676,-121.5158 255.0408,-102.7969 311.6498,-94.8515"/>
<polygon fill="#ff0000" stroke="#ff0000" stroke-width=".316" points="312.1572,-98.3148 321.5912,-93.4931 311.2094,-91.3792 312.1572,-98.3148"/>
</g>
<!-- &#45;12&#45;&gt;7593 -->
<g id="edge49" class="edge">
<title>&#45;12&#45;&gt;7593</title>
<path fill="none" stroke="#00ff00" stroke-width=".2669" d="M153.8026,-255.0682C149.4765,-249.4483 143.55,-242.2913 137.518,-236.6934 120.5354,-220.9331 99.3382,-205.7762 82.3604,-194.5443"/>
<polygon fill="#00ff00" stroke="#00ff00" stroke-width=".2669" points="84.202,-191.5669 73.9114,-189.0461 80.3839,-197.434 84.202,-191.5669"/>
</g>
<!-- &#45;12&#45;&gt;1099 -->
<g id="edge34" class="edge">
<title>&#45;12&#45;&gt;1099</title>
<path fill="none" stroke="#00ff00" stroke-width=".2401" d="M175.0428,-263.7947C260.5536,-260.8478 695.9367,-243.784 734.518,-200.6934 800.0179,-127.5381 599.2827,-100.9363 515.4724,-93.1719"/>
<polygon fill="#00ff00" stroke="#00ff00" stroke-width=".2401" points="515.6607,-89.675 505.3904,-92.2769 515.0417,-96.6475 515.6607,-89.675"/>
</g>
<!-- &#45;13 -->
<g id="node13" class="node">
<title>&#45;13</title>
<polygon fill="#d3d3d3" stroke="#000000" points="257.018,-184.9447 228.018,-184.9447 228.018,-166.9447 257.018,-166.9447 257.018,-184.9447"/>
<text text-anchor="middle" x="242.518" y="-173.7447" font-family="Times,serif" font-size="9.00" fill="#000000">&#45;13</text>
</g>
<!-- &#45;13&#45;&gt;1096 -->
<g id="edge35" class="edge">
<title>&#45;13&#45;&gt;1096</title>
<path fill="none" stroke="#00ff00" stroke-width=".2049" d="M250.65,-166.9164C255.159,-162.0785 260.9635,-156.1181 266.518,-151.196 282.8169,-136.7528 302.2501,-121.9455 317.8818,-110.5659"/>
<polygon fill="#00ff00" stroke="#00ff00" stroke-width=".2049" points="320.0646,-113.307 326.1308,-104.6207 315.9718,-107.6282 320.0646,-113.307"/>
</g>
<!-- &#45;13&#45;&gt;1097 -->
<g id="edge36" class="edge">
<title>&#45;13&#45;&gt;1097</title>
<path fill="none" stroke="#ff0000" stroke-width=".3885" d="M249.6296,-166.5898C254.0001,-161.4091 260.0001,-155.2219 266.518,-151.196 311.7228,-123.2739 333.2594,-139.4805 380.518,-115.196 382.2856,-114.2877 384.0577,-113.2855 385.8126,-112.2205"/>
<polygon fill="#ff0000" stroke="#ff0000" stroke-width=".3885" points="387.9767,-114.9838 394.3431,-106.5151 384.0851,-109.1652 387.9767,-114.9838"/>
</g>
<!-- &#45;13&#45;&gt;1099 -->
<g id="edge37" class="edge">
<title>&#45;13&#45;&gt;1099</title>
<path fill="none" stroke="#ff0000" stroke-width=".3107" d="M249.0718,-166.8091C253.4152,-161.4354 259.5792,-154.9735 266.518,-151.196 338.5547,-111.9782 372.6231,-148.6334 447.518,-115.196 449.3327,-114.3858 451.1416,-113.4605 452.9249,-112.4545"/>
<polygon fill="#ff0000" stroke="#ff0000" stroke-width=".3107" points="455.0202,-115.2682 461.5334,-106.9119 451.2307,-109.3826 455.0202,-115.2682"/>
</g>
<!-- &#45;14 -->
<g id="node14" class="node">
<title>&#45;14</title>
<polygon fill="#d3d3d3" stroke="#000000" points="304.018,-184.9447 275.018,-184.9447 275.018,-166.9447 304.018,-166.9447 304.018,-184.9447"/>
<text text-anchor="middle" x="289.518" y="-173.7447" font-family="Times,serif" font-size="9.00" fill="#000000">&#45;14</text>
</g>
<!-- &#45;14&#45;&gt;1096 -->
<g id="edge38" class="edge">
<title>&#45;14&#45;&gt;1096</title>
<path fill="none" stroke="#ff0000" stroke-width=".2165" d="M295.618,-166.795C303.0331,-155.6727 315.9131,-136.3532 326.8609,-119.9321"/>
<polygon fill="#ff0000" stroke="#ff0000" stroke-width=".2165" points="330.0622,-121.4398 332.6972,-111.1779 324.2379,-117.5568 330.0622,-121.4398"/>
</g>
<!-- &#45;14&#45;&gt;1097 -->
<g id="edge39" class="edge">
<title>&#45;14&#45;&gt;1097</title>
<path fill="none" stroke="#00ff00" stroke-width=".5" d="M297.3568,-166.5583C301.78,-161.6154 307.5959,-155.6691 313.518,-151.196 340.4921,-130.8216 352.0267,-133.3883 380.518,-115.196 382.193,-114.1265 383.8925,-112.998 385.5917,-111.836"/>
<polygon fill="#00ff00" stroke="#00ff00" stroke-width=".5" points="387.8583,-114.5186 393.9686,-105.8633 383.7944,-108.819 387.8583,-114.5186"/>
</g>
<!-- &#45;14&#45;&gt;1099 -->
<g id="edge40" class="edge">
<title>&#45;14&#45;&gt;1099</title>
<path fill="none" stroke="#00ff00" stroke-width=".3501" d="M296.5652,-166.483C300.9143,-161.2667 306.9143,-155.0795 313.518,-151.196 366.6749,-119.9355 392.0697,-142.1838 447.518,-115.196 449.3049,-114.3263 451.0921,-113.3543 452.8586,-112.3125"/>
<polygon fill="#00ff00" stroke="#00ff00" stroke-width=".3501" points="454.9962,-115.0955 461.4211,-106.6711 451.145,-109.2502 454.9962,-115.0955"/>
</g>
<!-- &#45;15 -->
<g id="node15" class="node">
<title>&#45;15</title>
<polygon fill="#d3d3d3" stroke="#000000" points="351.018,-184.9447 322.018,-184.9447 322.018,-166.9447 351.018,-166.9447 351.018,-184.9447"/>
<text text-anchor="middle" x="336.518" y="-173.7447" font-family="Times,serif" font-size="9.00" fill="#000000">&#45;15</text>
</g>
<!-- &#45;15&#45;&gt;1096 -->
<g id="edge41" class="edge">
<title>&#45;15&#45;&gt;1096</title>
<path fill="none" stroke="#00ff00" stroke-width=".2589" d="M337.5882,-166.795C338.7508,-156.8547 340.6793,-140.3668 342.4471,-125.2522"/>
<polygon fill="#00ff00" stroke="#00ff00" stroke-width=".2589" points="345.9485,-125.4438 343.634,-115.1049 338.9959,-124.6306 345.9485,-125.4438"/>
</g>
<!-- &#45;15&#45;&gt;1097 -->
<g id="edge42" class="edge">
<title>&#45;15&#45;&gt;1097</title>
<path fill="none" stroke="#00ff00" stroke-width=".2899" stroke-dasharray="1,5" d="M344.7584,-166.795C355.4572,-154.9155 374.5779,-133.6846 389.9448,-116.6219"/>
<polygon fill="#00ff00" stroke="#00ff00" stroke-width=".2899" points="392.6059,-118.8971 396.6974,-109.1242 387.4044,-114.2126 392.6059,-118.8971"/>
</g>
<!-- &#45;15&#45;&gt;1099 -->
<g id="edge43" class="edge">
<title>&#45;15&#45;&gt;1099</title>
<path fill="none" stroke="#00ff00" stroke-width=".1464" d="M343.7647,-166.7982C348.1802,-161.687 354.1802,-155.4998 360.518,-151.196 395.1366,-127.6871 411.1596,-135.9125 447.518,-115.196 449.2447,-114.2121 450.9847,-113.1508 452.715,-112.0403"/>
<polygon fill="#00ff00" stroke="#00ff00" stroke-width=".1464" points="454.9288,-114.7654 461.1777,-106.2096 450.9572,-109.0011 454.9288,-114.7654"/>
</g>
<!-- 0 -->
<g id="node16" class="node">
<title>0</title>
<ellipse fill="#add8e6" stroke="#000000" cx="413.518" cy="-14.8492" rx="14.7" ry="14.7"/>
<text text-anchor="middle" x="413.518" y="-12.6492" font-family="Times,serif" font-size="9.00" fill="#000000">0</text>
</g>
<!-- 1 -->
<g id="node17" class="node">
<title>1</title>
<ellipse fill="#add8e6" stroke="#000000" cx="356.518" cy="-14.8492" rx="14.7" ry="14.7"/>
<text text-anchor="middle" x="356.518" y="-12.6492" font-family="Times,serif" font-size="9.00" fill="#000000">1</text>
</g>
<!-- 10403&#45;&gt;7593 -->
<g id="edge53" class="edge">
<title>10403&#45;&gt;7593</title>
<path fill="none" stroke="#00ff00" stroke-width=".3943" d="M87.1473,-239.6669C81.6119,-229.4811 75.1312,-217.5557 69.2827,-206.7939"/>
<polygon fill="#00ff00" stroke="#00ff00" stroke-width=".3943" points="72.1958,-204.8242 64.3457,-197.709 66.0454,-208.1666 72.1958,-204.8242"/>
</g>
<!-- 1096&#45;&gt;0 -->
<g id="edge44" class="edge">
<title>1096&#45;&gt;0</title>
<path fill="none" stroke="#00ff00" stroke-width=".3331" d="M363.0798,-71.7601C373.3077,-60.2197 386.3942,-45.4538 396.6741,-33.8547"/>
<polygon fill="#00ff00" stroke="#00ff00" stroke-width=".3331" points="399.569,-35.8652 403.5824,-26.0599 394.3303,-31.2223 399.569,-35.8652"/>
</g>
<!-- 1096&#45;&gt;1 -->
<g id="edge45" class="edge">
<title>1096&#45;&gt;1</title>
<path fill="none" stroke="#ff0000" stroke-width=".1932" d="M349.7924,-65.6936C350.8978,-57.337 352.1315,-48.0107 353.2374,-39.6504"/>
<polygon fill="#ff0000" stroke="#ff0000" stroke-width=".1932" points="356.7089,-40.0956 354.5505,-29.7229 349.7693,-39.1776 356.7089,-40.0956"/>
</g>
<!-- 1097&#45;&gt;0 -->
<g id="edge46" class="edge">
<title>1097&#45;&gt;0</title>
<path fill="none" stroke="#00ff00" stroke-width=".2355" d="M413.518,-65.6936C413.518,-57.4298 413.518,-48.2178 413.518,-39.9294"/>
<polygon fill="#00ff00" stroke="#00ff00" stroke-width=".2355" points="417.0181,-39.7229 413.518,-29.7229 410.0181,-39.723 417.0181,-39.7229"/>
</g>
<!-- 1097&#45;&gt;1 -->
<g id="edge47" class="edge">
<title>1097&#45;&gt;1</title>
<path fill="none" stroke="#00ff00" stroke-width=".2966" d="M398.5419,-70.5847C390.3174,-59.6767 380.1368,-46.1744 371.856,-35.1917"/>
<polygon fill="#00ff00" stroke="#00ff00" stroke-width=".2966" points="374.5109,-32.8992 365.6958,-27.0216 368.9216,-37.1134 374.5109,-32.8992"/>
</g>
<!-- 7593&#45;&gt;1096 -->
<g id="edge50" class="edge">
<title>7593&#45;&gt;1096</title>
<path fill="none" stroke="#00ff00" stroke-width=".2625" stroke-dasharray="1,5" d="M72.8667,-161.2484C78.6793,-157.5529 85.1651,-153.8794 91.518,-151.196 166.6653,-119.4538 261.5968,-102.3796 311.7641,-94.9948"/>
<polygon fill="#00ff00" stroke="#00ff00" stroke-width=".2625" points="312.3629,-98.4448 321.7666,-93.5642 311.3718,-91.5153 312.3629,-98.4448"/>
</g>
<!-- 1099&#45;&gt;0 -->
<g id="edge48" class="edge">
<title>1099&#45;&gt;0</title>
<path fill="none" stroke="#00ff00" stroke-width=".4598" d="M463.9562,-71.7601C453.7283,-60.2197 440.6418,-45.4538 430.362,-33.8547"/>
<polygon fill="#00ff00" stroke="#00ff00" stroke-width=".4598" points="432.7057,-31.2223 423.4537,-26.0599 427.467,-35.8652 432.7057,-31.2223"/>
</g>
</g>
</svg>
