<?xml version="1.0" encoding="UTF-8" standalone="no"?>
<!DOCTYPE svg PUBLIC "-//W3C//DTD SVG 1.1//EN"
 "http://www.w3.org/Graphics/SVG/1.1/DTD/svg11.dtd">
<!-- Generated by graphviz version 2.40.1 (20161225.0304)
 -->
<!-- Title: %3 Pages: 1 -->
<svg width="653pt" height="170pt"
 viewBox="0.00 0.00 652.50 170.12" xmlns="http://www.w3.org/2000/svg" xmlns:xlink="http://www.w3.org/1999/xlink">
<g id="graph0" class="graph" transform="scale(1 1) rotate(0) translate(4 166.1249)">
<title>%3</title>
<polygon fill="#ffffff" stroke="transparent" points="-4,4 -4,-166.1249 648.5,-166.1249 648.5,4 -4,4"/>
<!-- &#45;1 -->
<g id="node1" class="node">
<title>&#45;1</title>
<polygon fill="#d3d3d3" stroke="#000000" points="423,-162.1249 399,-162.1249 399,-144.1249 423,-144.1249 423,-162.1249"/>
<text text-anchor="middle" x="411" y="-150.9249" font-family="Times,serif" font-size="9.00" fill="#000000">&#45;1</text>
</g>
<!-- 864 -->
<g id="node18" class="node">
<title>864</title>
<ellipse fill="#ffffff" stroke="#000000" cx="273" cy="-86.9117" rx="21.4286" ry="21.4286"/>
<text text-anchor="middle" x="273" y="-84.7117" font-family="Times,serif" font-size="9.00" fill="#000000">864</text>
</g>
<!-- &#45;1&#45;&gt;864 -->
<g id="edge5" class="edge">
<title>&#45;1&#45;&gt;864</title>
<path fill="none" stroke="#ff0000" stroke-width=".1667" d="M398.5741,-147.769C395.7577,-146.5635 392.7782,-145.295 390,-144.1249 351.4345,-127.8825 339.6448,-128.3305 303,-108.1249 301.5023,-107.2991 299.9892,-106.4135 298.4803,-105.4898"/>
<polygon fill="#ff0000" stroke="#ff0000" stroke-width=".1667" points="300.302,-102.4988 290.0226,-99.9325 296.458,-108.349 300.302,-102.4988"/>
</g>
<!-- 865 -->
<g id="node19" class="node">
<title>865</title>
<ellipse fill="#ffffff" stroke="#000000" cx="333" cy="-86.9117" rx="21.4286" ry="21.4286"/>
<text text-anchor="middle" x="333" y="-84.7117" font-family="Times,serif" font-size="9.00" fill="#000000">865</text>
</g>
<!-- &#45;1&#45;&gt;865 -->
<g id="edge6" class="edge">
<title>&#45;1&#45;&gt;865</title>
<path fill="none" stroke="#ff0000" stroke-width=".1521" d="M400.1544,-143.9182C388.9935,-134.4439 371.2456,-119.3779 356.7978,-107.1133"/>
<polygon fill="#ff0000" stroke="#ff0000" stroke-width=".1521" points="359.0621,-104.4445 349.1735,-100.6412 354.532,-109.781 359.0621,-104.4445"/>
</g>
<!-- 860 -->
<g id="node20" class="node">
<title>860</title>
<ellipse fill="#ffffff" stroke="#000000" cx="153" cy="-86.9117" rx="21.4286" ry="21.4286"/>
<text text-anchor="middle" x="153" y="-84.7117" font-family="Times,serif" font-size="9.00" fill="#000000">860</text>
</g>
<!-- &#45;1&#45;&gt;860 -->
<g id="edge1" class="edge">
<title>&#45;1&#45;&gt;860</title>
<path fill="none" stroke="#00ff00" stroke-width=".3612" d="M398.7398,-147.3058C395.9148,-146.1244 392.89,-144.9827 390,-144.1249 300.4794,-117.553 269.2321,-143.9582 183,-108.1249 181.3801,-107.4518 179.762,-106.6784 178.1641,-105.8343"/>
<polygon fill="#00ff00" stroke="#00ff00" stroke-width=".3612" points="179.7131,-102.6782 169.3599,-100.4281 176.0502,-108.6434 179.7131,-102.6782"/>
</g>
<!-- 861 -->
<g id="node21" class="node">
<title>861</title>
<ellipse fill="#ffffff" stroke="#000000" cx="213" cy="-86.9117" rx="21.4286" ry="21.4286"/>
<text text-anchor="middle" x="213" y="-84.7117" font-family="Times,serif" font-size="9.00" fill="#000000">861</text>
</g>
<!-- &#45;1&#45;&gt;861 -->
<g id="edge2" class="edge">
<title>&#45;1&#45;&gt;861</title>
<path fill="none" stroke="#ff0000" stroke-width=".1525" d="M398.6941,-147.4508C395.8715,-146.2618 392.8591,-145.0804 390,-144.1249 326.2044,-122.8043 304.2015,-136.0323 243,-108.1249 241.4438,-107.4153 239.8845,-106.6216 238.3398,-105.7693"/>
<polygon fill="#ff0000" stroke="#ff0000" stroke-width=".1525" points="240.1122,-102.7498 229.776,-100.423 236.4052,-108.6876 240.1122,-102.7498"/>
</g>
<!-- 862 -->
<g id="node22" class="node">
<title>862</title>
<ellipse fill="#ffffff" stroke="#000000" cx="393" cy="-86.9117" rx="21.4286" ry="21.4286"/>
<text text-anchor="middle" x="393" y="-84.7117" font-family="Times,serif" font-size="9.00" fill="#000000">862</text>
</g>
<!-- &#45;1&#45;&gt;862 -->
<g id="edge3" class="edge">
<title>&#45;1&#45;&gt;862</title>
<path fill="none" stroke="#00ff00" stroke-width=".5" d="M408.4972,-143.9182C406.6044,-136.9557 403.8908,-126.9735 401.2617,-117.3024"/>
<polygon fill="#00ff00" stroke="#00ff00" stroke-width=".5" points="404.5913,-116.208 398.5905,-107.4764 397.8364,-118.0443 404.5913,-116.208"/>
</g>
<!-- 863 -->
<g id="node23" class="node">
<title>863</title>
<ellipse fill="#ffffff" stroke="#000000" cx="453" cy="-86.9117" rx="21.4286" ry="21.4286"/>
<text text-anchor="middle" x="453" y="-84.7117" font-family="Times,serif" font-size="9.00" fill="#000000">863</text>
</g>
<!-- &#45;1&#45;&gt;863 -->
<g id="edge4" class="edge">
<title>&#45;1&#45;&gt;863</title>
<path fill="none" stroke="#00ff00" stroke-width=".432" d="M416.8399,-143.9182C421.8058,-136.0896 429.1933,-124.4431 435.9989,-113.7139"/>
<polygon fill="#00ff00" stroke="#00ff00" stroke-width=".432" points="439.112,-115.3404 441.5129,-105.0211 433.2009,-111.5908 439.112,-115.3404"/>
</g>
<!-- &#45;2 -->
<g id="node2" class="node">
<title>&#45;2</title>
<polygon fill="#d3d3d3" stroke="#000000" points="465,-162.1249 441,-162.1249 441,-144.1249 465,-144.1249 465,-162.1249"/>
<text text-anchor="middle" x="453" y="-150.9249" font-family="Times,serif" font-size="9.00" fill="#000000">&#45;2</text>
</g>
<!-- &#45;2&#45;&gt;864 -->
<g id="edge11" class="edge">
<title>&#45;2&#45;&gt;864</title>
<path fill="none" stroke="#ff0000" stroke-width=".4513" d="M440.6709,-147.5184C437.8495,-146.3259 434.8435,-145.126 432,-144.1249 375.8541,-124.3575 356.7574,-133.6837 303,-108.1249 301.4554,-107.3905 299.9052,-106.5772 298.3676,-105.7097"/>
<polygon fill="#ff0000" stroke="#ff0000" stroke-width=".4513" points="300.1495,-102.6955 289.8247,-100.3184 296.4136,-108.6153 300.1495,-102.6955"/>
</g>
<!-- &#45;2&#45;&gt;865 -->
<g id="edge12" class="edge">
<title>&#45;2&#45;&gt;865</title>
<path fill="none" stroke="#00ff00" stroke-width=".1853" d="M440.7526,-147.7208C423.1401,-139.79 389.8276,-124.1902 363,-108.1249 361.5326,-107.2462 360.0436,-106.3188 358.5534,-105.3627"/>
<polygon fill="#00ff00" stroke="#00ff00" stroke-width=".1853" points="360.4016,-102.3877 350.1508,-99.7095 356.4941,-108.1956 360.4016,-102.3877"/>
</g>
<!-- &#45;2&#45;&gt;860 -->
<g id="edge7" class="edge">
<title>&#45;2&#45;&gt;860</title>
<path fill="none" stroke="#ff0000" stroke-width=".1319" d="M440.7576,-147.2444C437.9317,-146.0661 434.9019,-144.9413 432,-144.1249 324.3611,-113.8433 286.8602,-149.5516 183,-108.1249 181.3706,-107.475 179.7452,-106.7199 178.1415,-105.8898"/>
<polygon fill="#ff0000" stroke="#ff0000" stroke-width=".1319" points="179.6833,-102.731 169.3209,-100.524 176.0453,-108.7114 179.6833,-102.731"/>
</g>
<!-- &#45;2&#45;&gt;861 -->
<g id="edge8" class="edge">
<title>&#45;2&#45;&gt;861</title>
<path fill="none" stroke="#ff0000" stroke-width=".4111" d="M440.7295,-147.3401C437.905,-146.1569 434.883,-145.0058 432,-144.1249 350.2224,-119.1363 321.6984,-141.5698 243,-108.1249 241.4259,-107.4559 239.8525,-106.6944 238.2968,-105.867"/>
<polygon fill="#ff0000" stroke="#ff0000" stroke-width=".4111" points="240.0548,-102.8394 229.7005,-100.5945 236.3949,-108.8065 240.0548,-102.8394"/>
</g>
<!-- &#45;2&#45;&gt;862 -->
<g id="edge9" class="edge">
<title>&#45;2&#45;&gt;862</title>
<path fill="none" stroke="#ff0000" stroke-width=".1448" d="M444.6573,-143.9182C436.8085,-135.2567 424.725,-121.9219 414.2177,-110.3266"/>
<polygon fill="#ff0000" stroke="#ff0000" stroke-width=".1448" points="416.5752,-107.7158 407.2667,-102.6558 411.388,-112.4162 416.5752,-107.7158"/>
</g>
<!-- &#45;2&#45;&gt;863 -->
<g id="edge10" class="edge">
<title>&#45;2&#45;&gt;863</title>
<path fill="none" stroke="#00ff00" stroke-width=".1196" d="M453,-143.9182C453,-137.2572 453,-127.8323 453,-118.5602"/>
<polygon fill="#00ff00" stroke="#00ff00" stroke-width=".1196" points="456.5001,-118.312 453,-108.3121 449.5001,-118.3121 456.5001,-118.312"/>
</g>
<!-- &#45;3 -->
<g id="node3" class="node">
<title>&#45;3</title>
<polygon fill="#d3d3d3" stroke="#000000" points="507,-162.1249 483,-162.1249 483,-144.1249 507,-144.1249 507,-162.1249"/>
<text text-anchor="middle" x="495" y="-150.9249" font-family="Times,serif" font-size="9.00" fill="#000000">&#45;3</text>
</g>
<!-- &#45;3&#45;&gt;864 -->
<g id="edge17" class="edge">
<title>&#45;3&#45;&gt;864</title>
<path fill="none" stroke="#ff0000" stroke-width=".1555" d="M482.7167,-147.3813C479.8929,-146.1959 476.8744,-145.0336 474,-144.1249 399.9465,-120.7139 374.1829,-139.1892 303,-108.1249 301.4324,-107.4408 299.8641,-106.6673 298.3125,-105.8306"/>
<polygon fill="#ff0000" stroke="#ff0000" stroke-width=".1555" points="300.0757,-102.8059 289.728,-100.5306 296.3982,-108.7622 300.0757,-102.8059"/>
</g>
<!-- &#45;3&#45;&gt;865 -->
<g id="edge18" class="edge">
<title>&#45;3&#45;&gt;865</title>
<path fill="none" stroke="#ff0000" stroke-width=".1541" stroke-dasharray="1,5" d="M482.6392,-147.6055C479.8194,-146.4085 476.8221,-145.1848 474,-144.1249 425.4479,-125.891 409.3668,-131.3606 363,-108.1249 361.4709,-107.3586 359.933,-106.5202 358.405,-105.633"/>
<polygon fill="#ff0000" stroke="#ff0000" stroke-width=".1541" points="360.1999,-102.6264 349.8904,-100.1839 356.4266,-108.5223 360.1999,-102.6264"/>
</g>
<!-- &#45;3&#45;&gt;860 -->
<g id="edge13" class="edge">
<title>&#45;3&#45;&gt;860</title>
<path fill="none" stroke="#ff0000" stroke-width=".336" stroke-dasharray="1,5" d="M482.7698,-147.2002C479.9432,-146.0243 476.9101,-144.9115 474,-144.1249 348.1954,-110.1203 304.534,-155.1632 183,-108.1249 181.3641,-107.4917 179.7334,-106.7498 178.1258,-105.9298"/>
<polygon fill="#ff0000" stroke="#ff0000" stroke-width=".336" points="179.6627,-102.7692 169.2938,-100.593 176.0425,-108.7603 179.6627,-102.7692"/>
</g>
<!-- &#45;3&#45;&gt;861 -->
<g id="edge14" class="edge">
<title>&#45;3&#45;&gt;861</title>
<path fill="none" stroke="#00ff00" stroke-width=".4854" d="M482.7508,-147.2681C479.9253,-146.0886 476.8974,-144.9573 474,-144.1249 374.1333,-115.4352 339.2983,-147.1516 243,-108.1249 241.3742,-107.466 239.7516,-106.7039 238.1501,-105.8684"/>
<polygon fill="#00ff00" stroke="#00ff00" stroke-width=".4854" points="239.6946,-102.7106 229.3357,-100.487 236.047,-108.6852 239.6946,-102.7106"/>
</g>
<!-- &#45;3&#45;&gt;862 -->
<g id="edge15" class="edge">
<title>&#45;3&#45;&gt;862</title>
<path fill="none" stroke="#00ff00" stroke-width=".4324" d="M482.8917,-145.8466C468.4755,-137.1148 443.741,-121.9234 423,-108.1249 421.576,-107.1775 420.1212,-106.1959 418.6577,-105.1976"/>
<polygon fill="#00ff00" stroke="#00ff00" stroke-width=".4324" points="420.5445,-102.2468 410.3338,-99.4198 416.553,-107.9973 420.5445,-102.2468"/>
</g>
<!-- &#45;3&#45;&gt;863 -->
<g id="edge16" class="edge">
<title>&#45;3&#45;&gt;863</title>
<path fill="none" stroke="#ff0000" stroke-width=".3215" stroke-dasharray="1,5" d="M489.1601,-143.9182C484.1942,-136.0896 476.8067,-124.4431 470.0011,-113.7139"/>
<polygon fill="#ff0000" stroke="#ff0000" stroke-width=".3215" points="472.7991,-111.5908 464.4871,-105.0211 466.888,-115.3404 472.7991,-111.5908"/>
</g>
<!-- &#45;4 -->
<g id="node4" class="node">
<title>&#45;4</title>
<polygon fill="#d3d3d3" stroke="#000000" points="24,-162.1249 0,-162.1249 0,-144.1249 24,-144.1249 24,-162.1249"/>
<text text-anchor="middle" x="12" y="-150.9249" font-family="Times,serif" font-size="9.00" fill="#000000">&#45;4</text>
</g>
<!-- &#45;4&#45;&gt;864 -->
<g id="edge23" class="edge">
<title>&#45;4&#45;&gt;864</title>
<path fill="none" stroke="#00ff00" stroke-width=".5" d="M24.2587,-147.3007C27.0837,-146.1195 30.109,-144.9792 33,-144.1249 123.8126,-117.2886 155.5108,-144.3569 243,-108.1249 244.6207,-107.4537 246.2394,-106.6819 247.8378,-105.8389"/>
<polygon fill="#00ff00" stroke="#00ff00" stroke-width=".5" points="249.9503,-108.6491 256.6434,-100.4362 246.2895,-102.6827 249.9503,-108.6491"/>
</g>
<!-- &#45;4&#45;&gt;865 -->
<g id="edge24" class="edge">
<title>&#45;4&#45;&gt;865</title>
<path fill="none" stroke="#ff0000" stroke-width=".202" d="M24.2358,-147.2206C27.0621,-146.0436 30.0936,-144.9253 33,-144.1249 149.7172,-111.983 190.3073,-152.3557 303,-108.1249 304.6329,-107.484 306.2612,-106.736 307.867,-105.9113"/>
<polygon fill="#ff0000" stroke="#ff0000" stroke-width=".202" points="309.9563,-108.7377 316.6938,-100.5611 306.3279,-102.7515 309.9563,-108.7377"/>
</g>
<!-- &#45;4&#45;&gt;860 -->
<g id="edge19" class="edge">
<title>&#45;4&#45;&gt;860</title>
<path fill="none" stroke="#ff0000" stroke-width=".4097" stroke-dasharray="1,5" d="M24.0216,-147.4796C46.0158,-137.1512 93.3,-114.9466 124.0972,-100.4844"/>
<polygon fill="#ff0000" stroke="#ff0000" stroke-width=".4097" points="125.9001,-103.5045 133.464,-96.0857 122.9246,-97.1683 125.9001,-103.5045"/>
</g>
<!-- &#45;4&#45;&gt;861 -->
<g id="edge20" class="edge">
<title>&#45;4&#45;&gt;861</title>
<path fill="none" stroke="#00ff00" stroke-width=".298" d="M24.3026,-147.4409C27.1254,-146.2525 30.1387,-145.0738 33,-144.1249 98.0747,-122.5441 120.5539,-136.4255 183,-108.1249 184.5578,-107.4189 186.1184,-106.6281 187.6641,-105.7779"/>
<polygon fill="#00ff00" stroke="#00ff00" stroke-width=".298" points="189.5959,-108.6982 196.2309,-100.4382 185.893,-102.7577 189.5959,-108.6982"/>
</g>
<!-- &#45;4&#45;&gt;862 -->
<g id="edge21" class="edge">
<title>&#45;4&#45;&gt;862</title>
<path fill="none" stroke="#ff0000" stroke-width=".3097" stroke-dasharray="1,5" d="M24.2219,-147.1691C27.0489,-145.9947 30.0843,-144.8905 33,-144.1249 175.6996,-106.6558 225.0287,-160.3841 363,-108.1249 364.6405,-107.5035 366.2747,-106.7709 367.885,-105.958"/>
<polygon fill="#ff0000" stroke="#ff0000" stroke-width=".3097" points="369.9591,-108.7949 376.7249,-100.6418 366.3514,-102.7962 369.9591,-108.7949"/>
</g>
<!-- &#45;4&#45;&gt;863 -->
<g id="edge22" class="edge">
<title>&#45;4&#45;&gt;863</title>
<path fill="none" stroke="#00ff00" stroke-width=".2318" d="M24.2127,-147.1331C27.0401,-145.9606 30.078,-144.8662 33,-144.1249 201.7245,-101.3174 259.709,-168.4281 423,-108.1249 424.6456,-107.5172 426.2838,-106.7953 427.8972,-105.9906"/>
<polygon fill="#00ff00" stroke="#00ff00" stroke-width=".2318" points="429.9605,-108.8349 436.746,-100.6981 426.3673,-102.8275 429.9605,-108.8349"/>
</g>
<!-- &#45;5 -->
<g id="node5" class="node">
<title>&#45;5</title>
<polygon fill="#d3d3d3" stroke="#000000" points="66,-162.1249 42,-162.1249 42,-144.1249 66,-144.1249 66,-162.1249"/>
<text text-anchor="middle" x="54" y="-150.9249" font-family="Times,serif" font-size="9.00" fill="#000000">&#45;5</text>
</g>
<!-- &#45;5&#45;&gt;864 -->
<g id="edge29" class="edge">
<title>&#45;5&#45;&gt;864</title>
<path fill="none" stroke="#00ff00" stroke-width=".122" d="M66.2857,-147.389C69.1094,-146.2032 72.1273,-145.0387 75,-144.1249 147.7684,-120.9761 173.0675,-138.7934 243,-108.1249 244.5663,-107.438 246.1337,-106.6623 247.6846,-105.8239"/>
<polygon fill="#00ff00" stroke="#00ff00" stroke-width=".122" points="249.6011,-108.754 256.2668,-100.5187 245.9204,-102.7997 249.6011,-108.754"/>
</g>
<!-- &#45;5&#45;&gt;865 -->
<g id="edge30" class="edge">
<title>&#45;5&#45;&gt;865</title>
<path fill="none" stroke="#00ff00" stroke-width=".4095" d="M66.2504,-147.2724C69.0759,-146.0927 72.1034,-144.9602 75,-144.1249 173.5722,-115.7003 207.9611,-146.752 303,-108.1249 304.6251,-107.4644 306.2472,-106.701 307.8483,-105.8645"/>
<polygon fill="#00ff00" stroke="#00ff00" stroke-width=".4095" points="309.9526,-108.6804 316.6615,-100.4803 306.3033,-102.7069 309.9526,-108.6804"/>
</g>
<!-- &#45;5&#45;&gt;860 -->
<g id="edge25" class="edge">
<title>&#45;5&#45;&gt;860</title>
<path fill="none" stroke="#00ff00" stroke-width=".5" d="M66.1393,-145.0059C81.0942,-135.0037 106.9263,-117.7267 126.5431,-104.6066"/>
<polygon fill="#00ff00" stroke="#00ff00" stroke-width=".5" points="128.6911,-107.3807 135.0575,-98.912 124.7995,-101.5621 128.6911,-107.3807"/>
</g>
<!-- &#45;5&#45;&gt;861 -->
<g id="edge26" class="edge">
<title>&#45;5&#45;&gt;861</title>
<path fill="none" stroke="#ff0000" stroke-width=".1171" d="M66.3672,-147.6225C69.1867,-146.4247 72.1822,-145.1962 75,-144.1249 122.2936,-126.1439 137.8581,-130.9768 183,-108.1249 184.526,-107.3524 186.0614,-106.5091 187.5875,-105.6181"/>
<polygon fill="#ff0000" stroke="#ff0000" stroke-width=".1171" points="189.5706,-108.5042 196.0964,-100.1577 185.79,-102.613 189.5706,-108.5042"/>
</g>
<!-- &#45;5&#45;&gt;862 -->
<g id="edge27" class="edge">
<title>&#45;5&#45;&gt;862</title>
<path fill="none" stroke="#00ff00" stroke-width=".4692" d="M66.231,-147.203C69.0575,-146.0269 72.0904,-144.9133 75,-144.1249 199.5059,-110.3865 242.7295,-154.7619 363,-108.1249 364.6355,-107.4907 366.2659,-106.7479 367.8732,-105.9273"/>
<polygon fill="#00ff00" stroke="#00ff00" stroke-width=".4692" points="369.9573,-108.7573 376.7046,-100.5887 366.336,-102.7668 369.9573,-108.7573"/>
</g>
<!-- &#45;5&#45;&gt;863 -->
<g id="edge28" class="edge">
<title>&#45;5&#45;&gt;863</title>
<path fill="none" stroke="#ff0000" stroke-width=".1478" d="M66.2188,-147.157C69.0459,-145.9833 72.0821,-144.8823 75,-144.1249 225.5036,-105.0552 277.4361,-162.796 423,-108.1249 424.6422,-107.5081 426.2777,-106.7791 427.8891,-105.969"/>
<polygon fill="#ff0000" stroke="#ff0000" stroke-width=".1478" points="429.9596,-108.8083 436.732,-100.6606 426.3568,-102.8067 429.9596,-108.8083"/>
</g>
<!-- &#45;6 -->
<g id="node6" class="node">
<title>&#45;6</title>
<polygon fill="#d3d3d3" stroke="#000000" points="597,-162.1249 573,-162.1249 573,-144.1249 597,-144.1249 597,-162.1249"/>
<text text-anchor="middle" x="585" y="-150.9249" font-family="Times,serif" font-size="9.00" fill="#000000">&#45;6</text>
</g>
<!-- &#45;6&#45;&gt;864 -->
<g id="edge34" class="edge">
<title>&#45;6&#45;&gt;864</title>
<path fill="none" stroke="#00ff00" stroke-width=".2185" d="M572.7615,-147.2304C569.9354,-146.0528 566.9046,-144.9318 564,-144.1249 451.1747,-112.7806 411.9061,-151.1534 303,-108.1249 301.3685,-107.4803 299.7414,-106.7294 298.1365,-105.9025"/>
<polygon fill="#00ff00" stroke="#00ff00" stroke-width=".2185" points="299.6767,-102.7431 289.3122,-100.5459 296.0443,-108.7269 299.6767,-102.7431"/>
</g>
<!-- &#45;6&#45;&gt;865 -->
<g id="edge35" class="edge">
<title>&#45;6&#45;&gt;865</title>
<path fill="none" stroke="#00ff00" stroke-width=".3942" d="M572.7366,-147.3166C569.9118,-146.1346 566.8878,-144.99 564,-144.1249 477.0622,-118.0813 446.7191,-143.1614 363,-108.1249 361.3818,-107.4477 359.7651,-106.6712 358.1682,-105.8245"/>
<polygon fill="#00ff00" stroke="#00ff00" stroke-width=".3942" points="359.7184,-102.669 349.3669,-100.4113 356.0512,-108.6315 359.7184,-102.669"/>
</g>
<!-- &#45;6&#45;&gt;861 -->
<g id="edge31" class="edge">
<title>&#45;6&#45;&gt;861</title>
<path fill="none" stroke="#00ff00" stroke-width=".2253" d="M572.7763,-147.1756C569.9495,-146.0009 566.9146,-144.8949 564,-144.1249 425.201,-107.4558 377.1764,-159.1786 243,-108.1249 241.3605,-107.5011 239.727,-106.7665 238.1172,-105.9521"/>
<polygon fill="#00ff00" stroke="#00ff00" stroke-width=".2253" points="239.6515,-102.7905 229.279,-100.6315 236.0412,-108.7877 239.6515,-102.7905"/>
</g>
<!-- &#45;6&#45;&gt;862 -->
<g id="edge32" class="edge">
<title>&#45;6&#45;&gt;862</title>
<path fill="none" stroke="#00ff00" stroke-width=".1118" d="M572.6871,-147.4715C569.8648,-146.2815 566.8544,-145.0944 564,-144.1249 502.7593,-123.3238 481.7154,-135.2472 423,-108.1249 421.4473,-107.4077 419.8908,-106.608 418.3482,-105.751"/>
<polygon fill="#00ff00" stroke="#00ff00" stroke-width=".1118" points="420.1235,-102.733 409.7908,-100.3908 416.4076,-108.6654 420.1235,-102.733"/>
</g>
<!-- &#45;6&#45;&gt;863 -->
<g id="edge33" class="edge">
<title>&#45;6&#45;&gt;863</title>
<path fill="none" stroke="#00ff00" stroke-width=".3665" d="M572.8184,-147.0144C552.1754,-136.6596 509.7983,-115.4026 481.3844,-101.1498"/>
<polygon fill="#00ff00" stroke="#00ff00" stroke-width=".3665" points="482.8431,-97.9658 472.3353,-96.6106 479.7045,-104.2228 482.8431,-97.9658"/>
</g>
<!-- &#45;7 -->
<g id="node7" class="node">
<title>&#45;7</title>
<polygon fill="#d3d3d3" stroke="#000000" points="108,-162.1249 84,-162.1249 84,-144.1249 108,-144.1249 108,-162.1249"/>
<text text-anchor="middle" x="96" y="-150.9249" font-family="Times,serif" font-size="9.00" fill="#000000">&#45;7</text>
</g>
<!-- &#45;7&#45;&gt;864 -->
<g id="edge40" class="edge">
<title>&#45;7&#45;&gt;864</title>
<path fill="none" stroke="#00ff00" stroke-width=".1842" d="M108.3337,-147.5313C111.1549,-146.3382 114.1596,-145.1347 117,-144.1249 171.8758,-124.6147 190.4786,-133.2944 243,-108.1249 244.5424,-107.3857 246.0908,-106.5687 247.627,-105.6983"/>
<polygon fill="#00ff00" stroke="#00ff00" stroke-width=".1842" points="249.5847,-108.6014 256.1657,-100.2983 245.8432,-102.6852 249.5847,-108.6014"/>
</g>
<!-- &#45;7&#45;&gt;865 -->
<g id="edge41" class="edge">
<title>&#45;7&#45;&gt;865</title>
<path fill="none" stroke="#00ff00" stroke-width=".1289" d="M108.2725,-147.3465C111.0968,-146.1629 114.1183,-145.0101 117,-144.1249 197.4888,-119.3997 225.5556,-141.1725 303,-108.1249 304.5731,-107.4536 306.1458,-106.6902 307.7008,-105.8614"/>
<polygon fill="#00ff00" stroke="#00ff00" stroke-width=".1289" points="309.6046,-108.7996 316.2953,-100.5847 305.942,-102.8343 309.6046,-108.7996"/>
</g>
<!-- &#45;7&#45;&gt;860 -->
<g id="edge36" class="edge">
<title>&#45;7&#45;&gt;860</title>
<path fill="none" stroke="#ff0000" stroke-width=".328" d="M103.9256,-143.9182C111.2825,-135.3722 122.5558,-122.2767 132.4431,-110.7913"/>
<polygon fill="#ff0000" stroke="#ff0000" stroke-width=".328" points="135.1299,-113.035 139.0015,-103.1729 129.8248,-108.4681 135.1299,-113.035"/>
</g>
<!-- &#45;7&#45;&gt;861 -->
<g id="edge37" class="edge">
<title>&#45;7&#45;&gt;861</title>
<path fill="none" stroke="#00ff00" stroke-width=".5" stroke-dasharray="1,5" d="M108.1056,-147.5184C125.1796,-139.4651 157.1384,-123.8534 183,-108.1249 184.4613,-107.2362 185.9456,-106.3009 187.432,-105.3386"/>
<polygon fill="#00ff00" stroke="#00ff00" stroke-width=".5" points="189.4982,-108.1666 195.8236,-99.6672 185.5785,-102.3669 189.4982,-108.1666"/>
</g>
<!-- &#45;7&#45;&gt;862 -->
<g id="edge38" class="edge">
<title>&#45;7&#45;&gt;862</title>
<path fill="none" stroke="#ff0000" stroke-width=".3691" d="M108.2435,-147.2481C111.0693,-146.0697 114.0988,-144.9438 117,-144.1249 223.3429,-114.1088 260.4007,-149.1513 363,-108.1249 364.6288,-107.4736 366.2538,-106.7174 367.8571,-105.8864"/>
<polygon fill="#ff0000" stroke="#ff0000" stroke-width=".3691" points="369.9545,-108.7073 376.6768,-100.5182 366.3149,-102.7278 369.9545,-108.7073"/>
</g>
<!-- &#45;7&#45;&gt;863 -->
<g id="edge39" class="edge">
<title>&#45;7&#45;&gt;863</title>
<path fill="none" stroke="#ff0000" stroke-width=".2419" d="M108.2268,-147.1873C111.0535,-146.012 114.0875,-144.9028 117,-144.1249 249.3002,-108.7885 295.1464,-157.1703 423,-108.1249 424.6378,-107.4966 426.2699,-106.7585 427.8787,-105.9415"/>
<polygon fill="#ff0000" stroke="#ff0000" stroke-width=".2419" points="429.9582,-108.7747 436.714,-100.6132 426.3432,-102.7803 429.9582,-108.7747"/>
</g>
<!-- &#45;8 -->
<g id="node8" class="node">
<title>&#45;8</title>
<polygon fill="#d3d3d3" stroke="#000000" points="150,-162.1249 126,-162.1249 126,-144.1249 150,-144.1249 150,-162.1249"/>
<text text-anchor="middle" x="138" y="-150.9249" font-family="Times,serif" font-size="9.00" fill="#000000">&#45;8</text>
</g>
<!-- &#45;8&#45;&gt;864 -->
<g id="edge46" class="edge">
<title>&#45;8&#45;&gt;864</title>
<path fill="none" stroke="#00ff00" stroke-width=".1102" d="M150.0084,-147.9832C177.5097,-136.2073 242.7269,-108.2777 243,-108.1249 244.4925,-107.2897 246.0015,-106.3967 247.5071,-105.4672"/>
<polygon fill="#00ff00" stroke="#00ff00" stroke-width=".1102" points="249.5362,-108.3217 255.9554,-99.8929 245.681,-102.4789 249.5362,-108.3217"/>
</g>
<!-- &#45;8&#45;&gt;865 -->
<g id="edge47" class="edge">
<title>&#45;8&#45;&gt;865</title>
<path fill="none" stroke="#00ff00" stroke-width=".1223" d="M150.3093,-147.4609C153.1318,-146.2715 156.1432,-145.0873 159,-144.1249 221.5176,-123.0642 243.0421,-135.6395 303,-108.1249 304.5545,-107.4115 306.1124,-106.6149 307.6561,-105.7603"/>
<polygon fill="#00ff00" stroke="#00ff00" stroke-width=".1223" points="309.5936,-108.6767 316.2167,-100.4072 305.8823,-102.7416 309.5936,-108.6767"/>
</g>
<!-- &#45;8&#45;&gt;860 -->
<g id="edge42" class="edge">
<title>&#45;8&#45;&gt;860</title>
<path fill="none" stroke="#ff0000" stroke-width=".5" d="M140.0857,-143.9182C141.651,-137.0085 143.8901,-127.1245 146.0655,-117.5222"/>
<polygon fill="#ff0000" stroke="#ff0000" stroke-width=".5" points="149.4824,-118.2802 148.2784,-107.754 142.6553,-116.7336 149.4824,-118.2802"/>
</g>
<!-- &#45;8&#45;&gt;861 -->
<g id="edge43" class="edge">
<title>&#45;8&#45;&gt;861</title>
<path fill="none" stroke="#00ff00" stroke-width=".4797" d="M148.4284,-143.9182C158.9261,-134.6504 175.4843,-120.0322 189.2045,-107.9193"/>
<polygon fill="#00ff00" stroke="#00ff00" stroke-width=".4797" points="191.7074,-110.3785 196.8876,-101.1364 187.0746,-105.1309 191.7074,-110.3785"/>
</g>
<!-- &#45;8&#45;&gt;862 -->
<g id="edge44" class="edge">
<title>&#45;8&#45;&gt;862</title>
<path fill="none" stroke="#ff0000" stroke-width=".5" d="M150.2618,-147.3111C153.0867,-146.1294 156.1111,-144.9863 159,-144.1249 247.229,-117.8172 278.0246,-143.5597 363,-108.1249 364.6191,-107.4497 366.2365,-106.6749 367.8339,-105.8294"/>
<polygon fill="#ff0000" stroke="#ff0000" stroke-width=".5" points="369.9493,-108.6376 376.6366,-100.4198 366.2843,-102.6737 369.9493,-108.6376"/>
</g>
<!-- &#45;8&#45;&gt;863 -->
<g id="edge45" class="edge">
<title>&#45;8&#45;&gt;863</title>
<path fill="none" stroke="#ff0000" stroke-width=".1905" d="M150.2376,-147.227C153.0637,-146.0497 156.0948,-144.9296 159,-144.1249 273.1224,-112.5148 312.8319,-151.5541 423,-108.1249 424.632,-107.4816 426.2595,-106.7317 427.8647,-105.9055"/>
<polygon fill="#ff0000" stroke="#ff0000" stroke-width=".1905" points="429.9559,-108.7306 436.6899,-100.5511 426.3249,-102.746 429.9559,-108.7306"/>
</g>
<!-- &#45;9 -->
<g id="node9" class="node">
<title>&#45;9</title>
<polygon fill="#d3d3d3" stroke="#000000" points="192,-162.1249 168,-162.1249 168,-144.1249 192,-144.1249 192,-162.1249"/>
<text text-anchor="middle" x="180" y="-150.9249" font-family="Times,serif" font-size="9.00" fill="#000000">&#45;9</text>
</g>
<!-- &#45;9&#45;&gt;864 -->
<g id="edge52" class="edge">
<title>&#45;9&#45;&gt;864</title>
<path fill="none" stroke="#00ff00" stroke-width=".3262" d="M192.1581,-144.4687C206.0365,-134.5877 229.1362,-118.1414 247.0975,-105.3535"/>
<polygon fill="#00ff00" stroke="#00ff00" stroke-width=".3262" points="249.3228,-108.0656 255.4391,-99.4145 245.2629,-102.3632 249.3228,-108.0656"/>
</g>
<!-- &#45;9&#45;&gt;865 -->
<g id="edge53" class="edge">
<title>&#45;9&#45;&gt;865</title>
<path fill="none" stroke="#ff0000" stroke-width=".1928" d="M192.3813,-147.6591C195.2,-146.4593 198.1917,-145.2209 201,-144.1249 245.7843,-126.6468 260.3007,-130.2129 303,-108.1249 304.5191,-107.3391 306.0491,-106.4851 307.571,-105.586"/>
<polygon fill="#ff0000" stroke="#ff0000" stroke-width=".1928" points="309.5641,-108.4653 316.0676,-100.1014 305.7677,-102.5842 309.5641,-108.4653"/>
</g>
<!-- &#45;9&#45;&gt;860 -->
<g id="edge48" class="edge">
<title>&#45;9&#45;&gt;860</title>
<path fill="none" stroke="#00ff00" stroke-width=".2981" d="M176.2458,-143.9182C173.281,-136.6476 168.9734,-126.084 164.8698,-116.0204"/>
<polygon fill="#00ff00" stroke="#00ff00" stroke-width=".2981" points="168.0652,-114.5871 161.0483,-106.6489 161.5834,-117.2303 168.0652,-114.5871"/>
</g>
<!-- &#45;9&#45;&gt;861 -->
<g id="edge49" class="edge">
<title>&#45;9&#45;&gt;861</title>
<path fill="none" stroke="#ff0000" stroke-width=".349" d="M184.5885,-143.9182C188.3037,-136.4638 193.7441,-125.5478 198.8723,-115.2583"/>
<polygon fill="#ff0000" stroke="#ff0000" stroke-width=".349" points="202.1075,-116.6135 203.4356,-106.1022 195.8425,-113.491 202.1075,-116.6135"/>
</g>
<!-- &#45;9&#45;&gt;862 -->
<g id="edge50" class="edge">
<title>&#45;9&#45;&gt;862</title>
<path fill="none" stroke="#ff0000" stroke-width=".208" d="M192.2909,-147.4051C195.1143,-146.2185 198.1308,-145.0496 201,-144.1249 271.2005,-121.4999 295.5662,-138.0027 363,-108.1249 364.5637,-107.4321 366.129,-106.6516 367.6783,-105.8096"/>
<polygon fill="#ff0000" stroke="#ff0000" stroke-width=".208" points="369.5995,-108.7366 376.2558,-100.4937 365.912,-102.7866 369.5995,-108.7366"/>
</g>
<!-- &#45;9&#45;&gt;863 -->
<g id="edge51" class="edge">
<title>&#45;9&#45;&gt;863</title>
<path fill="none" stroke="#ff0000" stroke-width=".5" d="M192.253,-147.2813C195.0783,-146.1012 198.1052,-144.9662 201,-144.1249 296.9843,-116.2301 330.479,-145.9531 423,-108.1249 424.6237,-107.461 426.2448,-106.695 427.845,-105.8564"/>
<polygon fill="#ff0000" stroke="#ff0000" stroke-width=".5" points="429.9519,-108.6705 436.6558,-100.4664 426.299,-102.6992 429.9519,-108.6705"/>
</g>
<!-- &#45;10 -->
<g id="node10" class="node">
<title>&#45;10</title>
<polygon fill="#d3d3d3" stroke="#000000" points="554.5,-162.1249 525.5,-162.1249 525.5,-144.1249 554.5,-144.1249 554.5,-162.1249"/>
<text text-anchor="middle" x="540" y="-150.9249" font-family="Times,serif" font-size="9.00" fill="#000000">&#45;10</text>
</g>
<!-- &#45;10&#45;&gt;864 -->
<g id="edge57" class="edge">
<title>&#45;10&#45;&gt;864</title>
<path fill="none" stroke="#00ff00" stroke-width=".266" d="M525.4221,-147.1516C522.3457,-146.0347 519.0937,-144.9582 516,-144.1249 423.2946,-119.1552 391.7466,-144.7557 303,-108.1249 301.3785,-107.4556 299.7592,-106.6853 298.1603,-105.8435"/>
<polygon fill="#00ff00" stroke="#00ff00" stroke-width=".266" points="299.708,-102.687 289.3533,-100.444 296.0493,-108.6547 299.708,-102.687"/>
</g>
<!-- &#45;10&#45;&gt;865 -->
<g id="edge58" class="edge">
<title>&#45;10&#45;&gt;865</title>
<path fill="none" stroke="#ff0000" stroke-width=".2978" d="M525.3786,-147.3035C522.3053,-146.1756 519.0657,-145.0562 516,-144.1249 449.1593,-123.8193 426.6917,-136.8192 363,-108.1249 361.4406,-107.4224 359.8788,-106.6343 358.3321,-105.7863"/>
<polygon fill="#ff0000" stroke="#ff0000" stroke-width=".2978" points="360.1019,-102.7653 349.7625,-100.4528 356.4031,-108.7083 360.1019,-102.7653"/>
</g>
<!-- &#45;10&#45;&gt;860 -->
<g id="edge54" class="edge">
<title>&#45;10&#45;&gt;860</title>
<path fill="none" stroke="#ff0000" stroke-width=".4171" d="M525.4586,-147.0078C522.3795,-145.9013 519.1173,-144.8654 516,-144.1249 371.1681,-109.7196 322.2365,-160.786 183,-108.1249 181.3592,-107.5043 179.7248,-106.7723 178.1143,-105.9599"/>
<polygon fill="#ff0000" stroke="#ff0000" stroke-width=".4171" points="179.6476,-102.798 169.2739,-100.645 176.0408,-108.7973 179.6476,-102.798"/>
</g>
<!-- &#45;10&#45;&gt;862 -->
<g id="edge55" class="edge">
<title>&#45;10&#45;&gt;862</title>
<path fill="none" stroke="#ff0000" stroke-width=".5" d="M525.4356,-147.6333C495.142,-136.1957 427.7492,-110.6662 423,-108.1249 421.492,-107.318 419.9708,-106.4474 418.4556,-105.5353"/>
<polygon fill="#ff0000" stroke="#ff0000" stroke-width=".5" points="420.2684,-102.539 409.9793,-100.0123 416.447,-108.4039 420.2684,-102.539"/>
</g>
<!-- &#45;10&#45;&gt;863 -->
<g id="edge56" class="edge">
<title>&#45;10&#45;&gt;863</title>
<path fill="none" stroke="#00ff00" stroke-width=".5" d="M527.903,-143.9182C515.1005,-134.1746 494.5274,-118.517 478.1788,-106.0745"/>
<polygon fill="#00ff00" stroke="#00ff00" stroke-width=".5" points="480.1553,-103.1805 470.0781,-99.9094 475.916,-108.7508 480.1553,-103.1805"/>
</g>
<!-- &#45;11 -->
<g id="node11" class="node">
<title>&#45;11</title>
<polygon fill="#d3d3d3" stroke="#000000" points="239.5,-162.1249 210.5,-162.1249 210.5,-144.1249 239.5,-144.1249 239.5,-162.1249"/>
<text text-anchor="middle" x="225" y="-150.9249" font-family="Times,serif" font-size="9.00" fill="#000000">&#45;11</text>
</g>
<!-- &#45;11&#45;&gt;864 -->
<g id="edge63" class="edge">
<title>&#45;11&#45;&gt;864</title>
<path fill="none" stroke="#ff0000" stroke-width=".2417" d="M231.6742,-143.9182C237.5861,-135.7631 246.5013,-123.4651 254.5396,-112.3768"/>
<polygon fill="#ff0000" stroke="#ff0000" stroke-width=".2417" points="257.4156,-114.3726 260.4513,-104.2219 251.7482,-110.2641 257.4156,-114.3726"/>
</g>
<!-- &#45;11&#45;&gt;865 -->
<g id="edge64" class="edge">
<title>&#45;11&#45;&gt;865</title>
<path fill="none" stroke="#00ff00" stroke-width=".4809" d="M239.614,-145.2223C255.4679,-136.5277 281.4057,-121.9472 303,-108.1249 304.4405,-107.2028 305.9084,-106.2412 307.382,-105.2584"/>
<polygon fill="#00ff00" stroke="#00ff00" stroke-width=".4809" points="309.4704,-108.0702 315.7359,-99.5266 305.51,-102.2983 309.4704,-108.0702"/>
</g>
<!-- &#45;11&#45;&gt;860 -->
<g id="edge59" class="edge">
<title>&#45;11&#45;&gt;860</title>
<path fill="none" stroke="#ff0000" stroke-width=".5" d="M214.9887,-143.9182C205.0691,-134.7959 189.5127,-120.4897 176.4659,-108.4915"/>
<polygon fill="#ff0000" stroke="#ff0000" stroke-width=".5" points="178.4694,-105.5791 168.7395,-101.3862 173.731,-110.7315 178.4694,-105.5791"/>
</g>
<!-- &#45;11&#45;&gt;861 -->
<g id="edge60" class="edge">
<title>&#45;11&#45;&gt;861</title>
<path fill="none" stroke="#ff0000" stroke-width=".3132" d="M223.3315,-143.9182C222.1018,-137.1334 220.3525,-127.481 218.6421,-118.0433"/>
<polygon fill="#ff0000" stroke="#ff0000" stroke-width=".3132" points="222.0551,-117.2482 216.8278,-108.0326 215.1673,-118.4965 222.0551,-117.2482"/>
</g>
<!-- &#45;11&#45;&gt;862 -->
<g id="edge61" class="edge">
<title>&#45;11&#45;&gt;862</title>
<path fill="none" stroke="#ff0000" stroke-width=".1071" d="M239.5434,-147.2577C242.3372,-146.1807 245.2494,-145.0923 248,-144.1249 298.5234,-126.3561 314.9966,-131.874 363,-108.1249 364.533,-107.3665 366.0739,-106.5342 367.6044,-105.6519"/>
<polygon fill="#ff0000" stroke="#ff0000" stroke-width=".1071" points="369.5769,-108.5452 376.1261,-100.217 365.8128,-102.6433 369.5769,-108.5452"/>
</g>
<!-- &#45;11&#45;&gt;863 -->
<g id="edge62" class="edge">
<title>&#45;11&#45;&gt;863</title>
<path fill="none" stroke="#ff0000" stroke-width=".2077" d="M239.966,-146.8462C242.6156,-145.8563 245.3687,-144.9042 248,-144.1249 324.1374,-121.5756 350.1488,-139.7174 423,-108.1249 424.5691,-107.4444 426.1387,-106.6738 427.6913,-105.8393"/>
<polygon fill="#ff0000" stroke="#ff0000" stroke-width=".2077" points="429.6026,-108.7728 436.2786,-100.5459 425.9294,-102.8139 429.6026,-108.7728"/>
</g>
<!-- &#45;12 -->
<g id="node12" class="node">
<title>&#45;12</title>
<polygon fill="#d3d3d3" stroke="#000000" points="286.5,-162.1249 257.5,-162.1249 257.5,-144.1249 286.5,-144.1249 286.5,-162.1249"/>
<text text-anchor="middle" x="272" y="-150.9249" font-family="Times,serif" font-size="9.00" fill="#000000">&#45;12</text>
</g>
<!-- &#45;12&#45;&gt;864 -->
<g id="edge69" class="edge">
<title>&#45;12&#45;&gt;864</title>
<path fill="none" stroke="#ff0000" stroke-width=".1187" d="M272.139,-143.9182C272.2396,-137.2572 272.382,-127.8323 272.522,-118.5602"/>
<polygon fill="#ff0000" stroke="#ff0000" stroke-width=".1187" points="276.0253,-118.3638 272.6768,-108.3121 269.0261,-118.258 276.0253,-118.3638"/>
</g>
<!-- &#45;12&#45;&gt;865 -->
<g id="edge70" class="edge">
<title>&#45;12&#45;&gt;865</title>
<path fill="none" stroke="#ff0000" stroke-width=".4379" d="M280.4818,-143.9182C288.4613,-135.2567 300.7462,-121.9219 311.4286,-110.3266"/>
<polygon fill="#ff0000" stroke="#ff0000" stroke-width=".4379" points="314.294,-112.3819 318.4955,-102.6558 309.1457,-107.639 314.294,-112.3819"/>
</g>
<!-- &#45;12&#45;&gt;860 -->
<g id="edge65" class="edge">
<title>&#45;12&#45;&gt;860</title>
<path fill="none" stroke="#00ff00" stroke-width=".4782" d="M257.47,-146.5859C239.5554,-138.342 208.3669,-123.3929 183,-108.1249 181.5346,-107.2429 180.0471,-106.313 178.5582,-105.3548"/>
<polygon fill="#00ff00" stroke="#00ff00" stroke-width=".4782" points="180.4081,-102.3809 170.1592,-99.6956 176.4966,-108.1861 180.4081,-102.3809"/>
</g>
<!-- &#45;12&#45;&gt;861 -->
<g id="edge66" class="edge">
<title>&#45;12&#45;&gt;861</title>
<path fill="none" stroke="#00ff00" stroke-width=".4142" d="M263.7963,-143.9182C256.1298,-135.3145 244.3545,-122.0995 234.071,-110.5587"/>
<polygon fill="#00ff00" stroke="#00ff00" stroke-width=".4142" points="236.5246,-108.0513 227.2587,-102.9137 231.2983,-112.7082 236.5246,-108.0513"/>
</g>
<!-- &#45;12&#45;&gt;862 -->
<g id="edge67" class="edge">
<title>&#45;12&#45;&gt;862</title>
<path fill="none" stroke="#ff0000" stroke-width=".5" d="M286.5516,-146.7815C304.831,-138.6217 336.9579,-123.642 363,-108.1249 364.4693,-107.2494 365.9599,-106.3246 367.4512,-105.3705"/>
<polygon fill="#ff0000" stroke="#ff0000" stroke-width=".5" points="369.5084,-108.205 375.8573,-99.7231 365.6048,-102.3945 369.5084,-108.205"/>
</g>
<!-- &#45;12&#45;&gt;863 -->
<g id="edge68" class="edge">
<title>&#45;12&#45;&gt;863</title>
<path fill="none" stroke="#ff0000" stroke-width=".3303" d="M286.6552,-147.4104C289.726,-146.2747 292.9561,-145.1251 296,-144.1249 351.7361,-125.8094 370.0668,-133.4241 423,-108.1249 424.5431,-107.3874 426.0921,-106.5716 427.6288,-105.7021"/>
<polygon fill="#ff0000" stroke="#ff0000" stroke-width=".3303" points="429.5853,-108.6061 436.1689,-100.3051 425.8457,-102.6887 429.5853,-108.6061"/>
</g>
<!-- &#45;13 -->
<g id="node13" class="node">
<title>&#45;13</title>
<polygon fill="#d3d3d3" stroke="#000000" points="333.5,-162.1249 304.5,-162.1249 304.5,-144.1249 333.5,-144.1249 333.5,-162.1249"/>
<text text-anchor="middle" x="319" y="-150.9249" font-family="Times,serif" font-size="9.00" fill="#000000">&#45;13</text>
</g>
<!-- &#45;13&#45;&gt;864 -->
<g id="edge75" class="edge">
<title>&#45;13&#45;&gt;864</title>
<path fill="none" stroke="#00ff00" stroke-width=".4654" d="M312.6039,-143.9182C307.0328,-135.8991 298.6788,-123.8742 291.0774,-112.9326"/>
<polygon fill="#00ff00" stroke="#00ff00" stroke-width=".4654" points="293.7901,-110.7029 285.2102,-104.4872 288.0413,-114.6968 293.7901,-110.7029"/>
</g>
<!-- &#45;13&#45;&gt;865 -->
<g id="edge76" class="edge">
<title>&#45;13&#45;&gt;865</title>
<path fill="none" stroke="#ff0000" stroke-width=".1481" d="M320.9466,-143.9182C322.3922,-137.0812 324.4535,-127.3323 326.4636,-117.8256"/>
<polygon fill="#ff0000" stroke="#ff0000" stroke-width=".1481" points="329.9487,-118.2618 328.5931,-107.754 323.1001,-116.8137 329.9487,-118.2618"/>
</g>
<!-- &#45;13&#45;&gt;860 -->
<g id="edge71" class="edge">
<title>&#45;13&#45;&gt;860</title>
<path fill="none" stroke="#ff0000" stroke-width=".5" d="M304.3172,-147.4922C301.2483,-146.3505 298.026,-145.1779 295,-144.1249 245.6186,-126.9406 229.7756,-131.4888 183,-108.1249 181.4699,-107.3606 179.9313,-106.5238 178.4026,-105.6379"/>
<polygon fill="#ff0000" stroke="#ff0000" stroke-width=".5" points="180.1966,-102.6307 169.8862,-100.1924 176.4257,-108.5282 180.1966,-102.6307"/>
</g>
<!-- &#45;13&#45;&gt;861 -->
<g id="edge72" class="edge">
<title>&#45;13&#45;&gt;861</title>
<path fill="none" stroke="#00ff00" stroke-width=".3478" d="M304.2162,-144.8435C288.743,-136.0667 263.8458,-121.635 243,-108.1249 241.5647,-107.1947 240.101,-106.2267 238.6306,-105.2389"/>
<polygon fill="#00ff00" stroke="#00ff00" stroke-width=".3478" points="240.5073,-102.2817 230.2862,-99.4922 236.5369,-108.0468 240.5073,-102.2817"/>
</g>
<!-- &#45;13&#45;&gt;862 -->
<g id="edge73" class="edge">
<title>&#45;13&#45;&gt;862</title>
<path fill="none" stroke="#ff0000" stroke-width=".3797" d="M329.2894,-143.9182C339.6471,-134.6504 355.9845,-120.0322 369.5218,-107.9193"/>
<polygon fill="#ff0000" stroke="#ff0000" stroke-width=".3797" points="371.984,-110.4128 377.1024,-101.1364 367.3163,-105.1962 371.984,-110.4128"/>
</g>
<!-- &#45;13&#45;&gt;863 -->
<g id="edge74" class="edge">
<title>&#45;13&#45;&gt;863</title>
<path fill="none" stroke="#ff0000" stroke-width=".3625" d="M333.7028,-147.204C358.3472,-137.2062 406.8778,-117.1837 423,-108.1249 424.4911,-107.2871 425.9989,-106.3921 427.5036,-105.461"/>
<polygon fill="#ff0000" stroke="#ff0000" stroke-width=".3625" points="429.5345,-108.3142 435.9493,-99.882 425.6762,-102.4735 429.5345,-108.3142"/>
</g>
<!-- &#45;14 -->
<g id="node14" class="node">
<title>&#45;14</title>
<polygon fill="#d3d3d3" stroke="#000000" points="644.5,-162.1249 615.5,-162.1249 615.5,-144.1249 644.5,-144.1249 644.5,-162.1249"/>
<text text-anchor="middle" x="630" y="-150.9249" font-family="Times,serif" font-size="9.00" fill="#000000">&#45;14</text>
</g>
<!-- &#45;14&#45;&gt;864 -->
<g id="edge80" class="edge">
<title>&#45;14&#45;&gt;864</title>
<path fill="none" stroke="#ff0000" stroke-width=".1208" d="M615.4524,-147.0333C612.3738,-145.925 609.1133,-144.8819 606,-144.1249 474.2254,-112.0849 429.5894,-156.7688 303,-108.1249 301.3625,-107.4957 299.7307,-106.7568 298.1222,-105.9392"/>
<polygon fill="#ff0000" stroke="#ff0000" stroke-width=".1208" points="299.658,-102.7782 289.2875,-100.6093 296.0419,-108.7719 299.658,-102.7782"/>
</g>
<!-- &#45;14&#45;&gt;865 -->
<g id="edge81" class="edge">
<title>&#45;14&#45;&gt;865</title>
<path fill="none" stroke="#00ff00" stroke-width=".3474" d="M615.435,-147.1028C612.3577,-145.9893 609.1021,-144.9266 606,-144.1249 500.2948,-116.8044 464.3386,-148.7512 363,-108.1249 361.3718,-107.4721 359.7472,-106.7148 358.1442,-105.883"/>
<polygon fill="#00ff00" stroke="#00ff00" stroke-width=".3474" points="359.6869,-102.7245 349.3256,-100.5122 356.0458,-108.7031 359.6869,-102.7245"/>
</g>
<!-- &#45;14&#45;&gt;861 -->
<g id="edge77" class="edge">
<title>&#45;14&#45;&gt;861</title>
<path fill="none" stroke="#ff0000" stroke-width=".4008" stroke-dasharray="1,5" d="M615.4636,-146.9865C612.3841,-145.8815 609.1205,-144.8516 606,-144.1249 448.1007,-107.3519 394.8934,-164.8069 243,-108.1249 241.3565,-107.5116 239.7199,-106.7853 238.1077,-105.9773"/>
<polygon fill="#ff0000" stroke="#ff0000" stroke-width=".4008" points="239.6392,-102.8146 229.2626,-100.675 236.04,-108.8185 239.6392,-102.8146"/>
</g>
<!-- &#45;14&#45;&gt;862 -->
<g id="edge78" class="edge">
<title>&#45;14&#45;&gt;862</title>
<path fill="none" stroke="#ff0000" stroke-width=".1677" d="M615.4044,-147.2158C612.3292,-146.0942 609.0823,-144.9996 606,-144.1249 526.2565,-121.4957 499.1909,-140.7753 423,-108.1249 421.4279,-107.4512 419.8561,-106.6859 418.3016,-105.8557"/>
<polygon fill="#ff0000" stroke="#ff0000" stroke-width=".1677" points="420.0612,-102.8289 409.709,-100.5745 416.3959,-108.7926 420.0612,-102.8289"/>
</g>
<!-- &#45;14&#45;&gt;863 -->
<g id="edge79" class="edge">
<title>&#45;14&#45;&gt;863</title>
<path fill="none" stroke="#00ff00" stroke-width=".3562" d="M615.2777,-147.6016C612.2117,-146.452 609.0005,-145.2485 606,-144.1249 563.2895,-128.131 513.8608,-109.6533 483.01,-98.1244"/>
<polygon fill="#00ff00" stroke="#00ff00" stroke-width=".3562" points="483.8889,-94.7164 473.2964,-94.4945 481.4385,-101.2736 483.8889,-94.7164"/>
</g>
<!-- &#45;15 -->
<g id="node15" class="node">
<title>&#45;15</title>
<polygon fill="#d3d3d3" stroke="#000000" points="380.5,-162.1249 351.5,-162.1249 351.5,-144.1249 380.5,-144.1249 380.5,-162.1249"/>
<text text-anchor="middle" x="366" y="-150.9249" font-family="Times,serif" font-size="9.00" fill="#000000">&#45;15</text>
</g>
<!-- &#45;15&#45;&gt;864 -->
<g id="edge86" class="edge">
<title>&#45;15&#45;&gt;864</title>
<path fill="none" stroke="#00ff00" stroke-width=".1672" d="M353.0687,-143.9182C339.0862,-133.9631 316.4325,-117.8343 298.7835,-105.2688"/>
<polygon fill="#00ff00" stroke="#00ff00" stroke-width=".1672" points="300.7576,-102.3779 290.5814,-99.4291 296.6977,-108.0802 300.7576,-102.3779"/>
</g>
<!-- &#45;15&#45;&gt;865 -->
<g id="edge87" class="edge">
<title>&#45;15&#45;&gt;865</title>
<path fill="none" stroke="#00ff00" stroke-width=".3608" d="M361.4115,-143.9182C357.6963,-136.4638 352.2559,-125.5478 347.1277,-115.2583"/>
<polygon fill="#00ff00" stroke="#00ff00" stroke-width=".3608" points="350.1575,-113.491 342.5644,-106.1022 343.8925,-116.6135 350.1575,-113.491"/>
</g>
<!-- &#45;15&#45;&gt;860 -->
<g id="edge82" class="edge">
<title>&#45;15&#45;&gt;860</title>
<path fill="none" stroke="#ff0000" stroke-width=".3873" d="M351.0217,-146.8871C348.3735,-145.8927 345.624,-144.9284 343,-144.1249 273.3055,-122.7832 249.6016,-137.7394 183,-108.1249 181.4372,-107.43 179.8727,-106.6479 178.3239,-105.8046"/>
<polygon fill="#ff0000" stroke="#ff0000" stroke-width=".3873" points="180.0909,-102.7821 169.7481,-100.485 176.401,-108.7306 180.0909,-102.7821"/>
</g>
<!-- &#45;15&#45;&gt;861 -->
<g id="edge83" class="edge">
<title>&#45;15&#45;&gt;861</title>
<path fill="none" stroke="#00ff00" stroke-width=".3251" d="M351.4226,-147.3512C348.6319,-146.2656 345.7296,-145.15 343,-144.1249 298.7792,-127.5168 284.8874,-129.9595 243,-108.1249 241.4833,-107.3343 239.9553,-106.4766 238.4349,-105.5746"/>
<polygon fill="#00ff00" stroke="#00ff00" stroke-width=".3251" points="240.2403,-102.574 229.9428,-100.0813 236.4383,-108.4515 240.2403,-102.574"/>
</g>
<!-- &#45;15&#45;&gt;862 -->
<g id="edge84" class="edge">
<title>&#45;15&#45;&gt;862</title>
<path fill="none" stroke="#ff0000" stroke-width=".1261" d="M369.7542,-143.9182C372.719,-136.6476 377.0266,-126.084 381.1302,-116.0204"/>
<polygon fill="#ff0000" stroke="#ff0000" stroke-width=".1261" points="384.4166,-117.2303 384.9517,-106.6489 377.9348,-114.5871 384.4166,-117.2303"/>
</g>
<!-- &#45;15&#45;&gt;863 -->
<g id="edge85" class="edge">
<title>&#45;15&#45;&gt;863</title>
<path fill="none" stroke="#00ff00" stroke-width=".2952" stroke-dasharray="1,5" d="M378.097,-143.9182C390.8995,-134.1746 411.4726,-118.517 427.8212,-106.0745"/>
<polygon fill="#00ff00" stroke="#00ff00" stroke-width=".2952" points="430.084,-108.7508 435.9219,-99.9094 425.8447,-103.1805 430.084,-108.7508"/>
</g>
<!-- 0 -->
<g id="node16" class="node">
<title>0</title>
<ellipse fill="#add8e6" stroke="#000000" cx="279" cy="-14.8492" rx="14.7" ry="14.7"/>
<text text-anchor="middle" x="279" y="-12.6492" font-family="Times,serif" font-size="9.00" fill="#000000">0</text>
</g>
<!-- 1 -->
<g id="node17" class="node">
<title>1</title>
<ellipse fill="#add8e6" stroke="#000000" cx="330" cy="-14.8492" rx="14.7" ry="14.7"/>
<text text-anchor="middle" x="330" y="-12.6492" font-family="Times,serif" font-size="9.00" fill="#000000">1</text>
</g>
<!-- 864&#45;&gt;0 -->
<g id="edge96" class="edge">
<title>864&#45;&gt;0</title>
<path fill="none" stroke="#00ff00" stroke-width=".5" d="M274.7677,-65.6803C275.4386,-57.6235 276.2089,-48.3716 276.9069,-39.9882"/>
<polygon fill="#00ff00" stroke="#00ff00" stroke-width=".5" points="280.3976,-40.2448 277.7395,-29.9888 273.4217,-39.6639 280.3976,-40.2448"/>
</g>
<!-- 864&#45;&gt;1 -->
<g id="edge97" class="edge">
<title>864&#45;&gt;1</title>
<path fill="none" stroke="#ff0000" stroke-width=".1135" d="M286.2202,-70.198C294.6065,-59.5956 305.4989,-45.8249 314.3208,-34.6717"/>
<polygon fill="#ff0000" stroke="#ff0000" stroke-width=".1135" points="317.1289,-36.7633 320.5876,-26.7489 311.6388,-32.4207 317.1289,-36.7633"/>
</g>
<!-- 865&#45;&gt;0 -->
<g id="edge98" class="edge">
<title>865&#45;&gt;0</title>
<path fill="none" stroke="#00ff00" stroke-width=".173" d="M320.2028,-69.8339C312.4261,-59.456 302.4519,-46.1455 294.2649,-35.2201"/>
<polygon fill="#00ff00" stroke="#00ff00" stroke-width=".173" points="296.956,-32.9748 288.1585,-27.0711 291.3543,-37.1725 296.956,-32.9748"/>
</g>
<!-- 865&#45;&gt;1 -->
<g id="edge99" class="edge">
<title>865&#45;&gt;1</title>
<path fill="none" stroke="#ff0000" stroke-width=".2919" d="M332.1161,-65.6803C331.7807,-57.6235 331.3956,-48.3716 331.0465,-39.9882"/>
<polygon fill="#ff0000" stroke="#ff0000" stroke-width=".2919" points="334.5433,-39.8346 330.6303,-29.9888 327.5493,-40.1258 334.5433,-39.8346"/>
</g>
<!-- 860&#45;&gt;0 -->
<g id="edge88" class="edge">
<title>860&#45;&gt;0</title>
<path fill="none" stroke="#00ff00" stroke-width=".4247" d="M170.1948,-74.1863C174.321,-71.292 178.7616,-68.3046 183,-65.6985 207.327,-50.7401 236.4613,-35.6875 256.2055,-25.8852"/>
<polygon fill="#00ff00" stroke="#00ff00" stroke-width=".4247" points="257.9117,-28.9465 265.3403,-21.3923 254.8222,-22.6652 257.9117,-28.9465"/>
</g>
<!-- 860&#45;&gt;1 -->
<g id="edge89" class="edge">
<title>860&#45;&gt;1</title>
<path fill="none" stroke="#ff0000" stroke-width=".3483" d="M169.855,-73.5678C173.9952,-70.699 178.5273,-67.8782 183,-65.6985 233.0541,-41.3051 251.652,-51.2351 303,-29.6985 304.628,-29.0157 306.2849,-28.2621 307.9363,-27.4675"/>
<polygon fill="#ff0000" stroke="#ff0000" stroke-width=".3483" points="309.8579,-30.4121 317.0929,-22.6723 306.6104,-24.211 309.8579,-30.4121"/>
</g>
<!-- 861&#45;&gt;0 -->
<g id="edge90" class="edge">
<title>861&#45;&gt;0</title>
<path fill="none" stroke="#ff0000" stroke-width=".4173" d="M227.6475,-70.9187C237.7684,-59.8682 251.2661,-45.1307 261.8833,-33.5382"/>
<polygon fill="#ff0000" stroke="#ff0000" stroke-width=".4173" points="264.5235,-35.8375 268.6966,-26.0991 259.3614,-31.1097 264.5235,-35.8375"/>
</g>
<!-- 861&#45;&gt;1 -->
<g id="edge91" class="edge">
<title>861&#45;&gt;1</title>
<path fill="none" stroke="#00ff00" stroke-width=".5" d="M230.2751,-74.314C234.398,-71.4144 238.817,-68.3927 243,-65.6985 264.5933,-51.7907 290.0328,-37.1111 307.8053,-27.1191"/>
<polygon fill="#00ff00" stroke="#00ff00" stroke-width=".5" points="309.7938,-30.0174 316.817,-22.0848 306.3799,-23.9063 309.7938,-30.0174"/>
</g>
<!-- 862&#45;&gt;0 -->
<g id="edge92" class="edge">
<title>862&#45;&gt;0</title>
<path fill="none" stroke="#00ff00" stroke-width=".5" d="M375.6946,-74.3606C371.5729,-71.4591 367.1621,-68.4248 363,-65.6985 342.1846,-52.0635 317.7968,-37.4457 300.678,-27.3987"/>
<polygon fill="#00ff00" stroke="#00ff00" stroke-width=".5" points="302.3848,-24.3424 291.9842,-22.3226 298.8552,-30.3874 302.3848,-24.3424"/>
</g>
<!-- 862&#45;&gt;1 -->
<g id="edge93" class="edge">
<title>862&#45;&gt;1</title>
<path fill="none" stroke="#00ff00" stroke-width=".1188" d="M379.0183,-70.9187C369.4504,-59.9745 356.7208,-45.4137 346.6318,-33.8735"/>
<polygon fill="#00ff00" stroke="#00ff00" stroke-width=".1188" points="349.052,-31.3241 339.8351,-26.0991 343.7819,-35.9314 349.052,-31.3241"/>
</g>
<!-- 863&#45;&gt;0 -->
<g id="edge94" class="edge">
<title>863&#45;&gt;0</title>
<path fill="none" stroke="#ff0000" stroke-width=".1012" d="M436.1339,-73.5906C431.9941,-70.7208 427.465,-67.8939 423,-65.6985 374.177,-41.692 356.0971,-50.9182 306,-29.6985 304.3744,-29.0099 302.7193,-28.2522 301.0692,-27.4544"/>
<polygon fill="#ff0000" stroke="#ff0000" stroke-width=".1012" points="302.3968,-24.1986 291.9153,-22.6528 299.1451,-30.3975 302.3968,-24.1986"/>
</g>
<!-- 863&#45;&gt;1 -->
<g id="edge95" class="edge">
<title>863&#45;&gt;1</title>
<path fill="none" stroke="#ff0000" stroke-width=".478" d="M435.7801,-74.2269C431.6549,-71.3309 427.221,-68.3326 423,-65.6985 399.6027,-51.0973 371.7254,-36.164 352.6332,-26.292"/>
<polygon fill="#ff0000" stroke="#ff0000" stroke-width=".478" points="354.0157,-23.0677 343.5203,-21.6195 350.8219,-29.2966 354.0157,-23.0677"/>
</g>
</g>
</svg>
