<?xml version="1.0" encoding="UTF-8" standalone="no"?>
<!DOCTYPE svg PUBLIC "-//W3C//DTD SVG 1.1//EN"
 "http://www.w3.org/Graphics/SVG/1.1/DTD/svg11.dtd">
<!-- Generated by graphviz version 2.40.1 (20161225.0304)
 -->
<!-- Title: %3 Pages: 1 -->
<svg width="392pt" height="177pt"
 viewBox="0.00 0.00 392.50 177.20" xmlns="http://www.w3.org/2000/svg" xmlns:xlink="http://www.w3.org/1999/xlink">
<g id="graph0" class="graph" transform="scale(1 1) rotate(0) translate(4 173.196)">
<title>%3</title>
<polygon fill="#ffffff" stroke="transparent" points="-4,4 -4,-173.196 388.4975,-173.196 388.4975,4 -4,4"/>
<!-- &#45;1 -->
<g id="node1" class="node">
<title>&#45;1</title>
<polygon fill="#d3d3d3" stroke="#000000" points="153.7487,-169.196 129.7487,-169.196 129.7487,-151.196 153.7487,-151.196 153.7487,-169.196"/>
<text text-anchor="middle" x="141.7487" y="-157.996" font-family="Times,serif" font-size="9.00" fill="#000000">&#45;1</text>
</g>
<!-- 2966 -->
<g id="node6" class="node">
<title>2966</title>
<ellipse fill="#ffffff" stroke="#000000" cx="91.7487" cy="-90.4472" rx="25" ry="25"/>
<text text-anchor="middle" x="91.7487" y="-88.2472" font-family="Times,serif" font-size="9.00" fill="#000000">2966</text>
</g>
<!-- &#45;1&#45;&gt;2966 -->
<g id="edge1" class="edge">
<title>&#45;1&#45;&gt;2966</title>
<path fill="none" stroke="#ff0000" stroke-width=".2165" d="M135.2121,-151.0775C129.3331,-142.8764 120.3763,-130.3819 112.118,-118.8618"/>
<polygon fill="#ff0000" stroke="#ff0000" stroke-width=".2165" points="114.953,-116.8093 106.2822,-110.721 109.2638,-120.8876 114.953,-116.8093"/>
</g>
<!-- 2967 -->
<g id="node7" class="node">
<title>2967</title>
<ellipse fill="#ffffff" stroke="#000000" cx="158.7487" cy="-90.4472" rx="25" ry="25"/>
<text text-anchor="middle" x="158.7487" y="-88.2472" font-family="Times,serif" font-size="9.00" fill="#000000">2967</text>
</g>
<!-- &#45;1&#45;&gt;2967 -->
<g id="edge2" class="edge">
<title>&#45;1&#45;&gt;2967</title>
<path fill="none" stroke="#ff0000" stroke-width=".5" d="M143.9712,-151.0775C145.6587,-144.1539 148.0921,-134.1701 150.4987,-124.296"/>
<polygon fill="#ff0000" stroke="#ff0000" stroke-width=".5" points="153.9002,-125.1203 152.8678,-114.5759 147.0993,-123.4627 153.9002,-125.1203"/>
</g>
<!-- 2968 -->
<g id="node8" class="node">
<title>2968</title>
<ellipse fill="#ffffff" stroke="#000000" cx="225.7487" cy="-90.4472" rx="25" ry="25"/>
<text text-anchor="middle" x="225.7487" y="-88.2472" font-family="Times,serif" font-size="9.00" fill="#000000">2968</text>
</g>
<!-- &#45;1&#45;&gt;2968 -->
<g id="edge3" class="edge">
<title>&#45;1&#45;&gt;2968</title>
<path fill="none" stroke="#00ff00" stroke-width=".182" stroke-dasharray="1,5" d="M152.7303,-151.0775C164.3185,-141.4554 183.0246,-125.9229 198.6018,-112.9884"/>
<polygon fill="#00ff00" stroke="#00ff00" stroke-width=".182" points="200.9506,-115.5875 206.4082,-106.5064 196.4788,-110.202 200.9506,-115.5875"/>
</g>
<!-- 2969 -->
<g id="node9" class="node">
<title>2969</title>
<ellipse fill="#ffffff" stroke="#000000" cx="292.7487" cy="-90.4472" rx="25" ry="25"/>
<text text-anchor="middle" x="292.7487" y="-88.2472" font-family="Times,serif" font-size="9.00" fill="#000000">2969</text>
</g>
<!-- &#45;1&#45;&gt;2969 -->
<g id="edge4" class="edge">
<title>&#45;1&#45;&gt;2969</title>
<path fill="none" stroke="#00ff00" stroke-width=".5" stroke-dasharray="1,5" d="M154.1433,-154.7636C156.9613,-153.5621 159.9494,-152.3145 162.7487,-151.196 205.4506,-134.1337 219.381,-137.2189 259.7487,-115.196 261.4933,-114.2442 263.2474,-113.208 264.9884,-112.1168"/>
<polygon fill="#00ff00" stroke="#00ff00" stroke-width=".5" points="267.1814,-114.8581 273.4807,-106.3393 263.244,-109.0705 267.1814,-114.8581"/>
</g>
<!-- 2970 -->
<g id="node10" class="node">
<title>2970</title>
<ellipse fill="#ffffff" stroke="#000000" cx="24.7487" cy="-90.4472" rx="25" ry="25"/>
<text text-anchor="middle" x="24.7487" y="-88.2472" font-family="Times,serif" font-size="9.00" fill="#000000">2970</text>
</g>
<!-- &#45;1&#45;&gt;2970 -->
<g id="edge5" class="edge">
<title>&#45;1&#45;&gt;2970</title>
<path fill="none" stroke="#ff0000" stroke-width=".2455" d="M129.7417,-154.4827C113.1431,-146.4249 82.4394,-130.9399 57.7487,-115.196 56.0731,-114.1275 54.373,-112.9999 52.6734,-111.8385"/>
<polygon fill="#ff0000" stroke="#ff0000" stroke-width=".2455" points="54.4703,-108.8212 44.2955,-105.8675 50.4075,-114.5216 54.4703,-108.8212"/>
</g>
<!-- &#45;2 -->
<g id="node2" class="node">
<title>&#45;2</title>
<polygon fill="#d3d3d3" stroke="#000000" points="237.7487,-169.196 213.7487,-169.196 213.7487,-151.196 237.7487,-151.196 237.7487,-169.196"/>
<text text-anchor="middle" x="225.7487" y="-157.996" font-family="Times,serif" font-size="9.00" fill="#000000">&#45;2</text>
</g>
<!-- &#45;2&#45;&gt;2966 -->
<g id="edge6" class="edge">
<title>&#45;2&#45;&gt;2966</title>
<path fill="none" stroke="#00ff00" stroke-width=".1138" d="M213.4263,-154.8904C188.3158,-144.0519 132.8996,-119.9861 124.7487,-115.196 123.0354,-114.1891 121.3058,-113.1097 119.5835,-111.9853"/>
<polygon fill="#00ff00" stroke="#00ff00" stroke-width=".1138" points="121.3514,-108.9517 111.143,-106.1164 117.3552,-114.6989 121.3514,-108.9517"/>
</g>
<!-- &#45;2&#45;&gt;2967 -->
<g id="edge7" class="edge">
<title>&#45;2&#45;&gt;2967</title>
<path fill="none" stroke="#ff0000" stroke-width=".1664" d="M216.9897,-151.0775C208.4123,-142.1483 194.9459,-128.1294 183.1217,-115.8201"/>
<polygon fill="#ff0000" stroke="#ff0000" stroke-width=".1664" points="185.4818,-113.2247 176.0301,-108.4376 180.4336,-118.074 185.4818,-113.2247"/>
</g>
<!-- &#45;2&#45;&gt;2968 -->
<g id="edge8" class="edge">
<title>&#45;2&#45;&gt;2968</title>
<path fill="none" stroke="#ff0000" stroke-width=".2434" d="M225.7487,-151.0775C225.7487,-144.4608 225.7487,-135.0493 225.7487,-125.6096"/>
<polygon fill="#ff0000" stroke="#ff0000" stroke-width=".2434" points="229.2488,-125.4865 225.7487,-115.4865 222.2488,-125.4865 229.2488,-125.4865"/>
</g>
<!-- &#45;2&#45;&gt;2969 -->
<g id="edge9" class="edge">
<title>&#45;2&#45;&gt;2969</title>
<path fill="none" stroke="#ff0000" stroke-width=".1183" d="M234.5078,-151.0775C243.0851,-142.1483 256.5516,-128.1294 268.3758,-115.8201"/>
<polygon fill="#ff0000" stroke="#ff0000" stroke-width=".1183" points="271.0639,-118.074 275.4674,-108.4376 266.0157,-113.2247 271.0639,-118.074"/>
</g>
<!-- &#45;2&#45;&gt;2970 -->
<g id="edge10" class="edge">
<title>&#45;2&#45;&gt;2970</title>
<path fill="none" stroke="#ff0000" stroke-width=".1092" d="M213.4428,-154.5218C210.6202,-153.3329 207.6079,-152.1515 204.7487,-151.196 140.9531,-129.8754 118.5536,-143.9573 57.7487,-115.196 55.9523,-114.3462 54.1576,-113.3899 52.3853,-112.3601"/>
<polygon fill="#ff0000" stroke="#ff0000" stroke-width=".1092" points="54.0921,-109.2944 43.8069,-106.7518 50.2617,-115.1534 54.0921,-109.2944"/>
</g>
<!-- 2971 -->
<g id="node11" class="node">
<title>2971</title>
<ellipse fill="#ffffff" stroke="#000000" cx="359.7487" cy="-90.4472" rx="25" ry="25"/>
<text text-anchor="middle" x="359.7487" y="-88.2472" font-family="Times,serif" font-size="9.00" fill="#000000">2971</text>
</g>
<!-- &#45;2&#45;&gt;2971 -->
<g id="edge11" class="edge">
<title>&#45;2&#45;&gt;2971</title>
<path fill="none" stroke="#00ff00" stroke-width=".2036" d="M237.9961,-155.7663C257.4427,-148.5095 296.2966,-133.092 326.7487,-115.196 328.462,-114.1891 330.1917,-113.1097 331.914,-111.9853"/>
<polygon fill="#00ff00" stroke="#00ff00" stroke-width=".2036" points="334.1423,-114.6989 340.3545,-106.1164 330.146,-108.9517 334.1423,-114.6989"/>
</g>
<!-- &#45;3 -->
<g id="node3" class="node">
<title>&#45;3</title>
<polygon fill="#d3d3d3" stroke="#000000" points="195.7487,-169.196 171.7487,-169.196 171.7487,-151.196 195.7487,-151.196 195.7487,-169.196"/>
<text text-anchor="middle" x="183.7487" y="-157.996" font-family="Times,serif" font-size="9.00" fill="#000000">&#45;3</text>
</g>
<!-- &#45;3&#45;&gt;2966 -->
<g id="edge12" class="edge">
<title>&#45;3&#45;&gt;2966</title>
<path fill="none" stroke="#ff0000" stroke-width=".5" d="M171.7213,-151.0775C158.5782,-141.1132 137.075,-124.8108 119.6746,-111.6189"/>
<polygon fill="#ff0000" stroke="#ff0000" stroke-width=".5" points="121.6001,-108.6866 111.5168,-105.4342 117.3711,-114.2647 121.6001,-108.6866"/>
</g>
<!-- &#45;3&#45;&gt;2967 -->
<g id="edge13" class="edge">
<title>&#45;3&#45;&gt;2967</title>
<path fill="none" stroke="#ff0000" stroke-width=".5" d="M180.4804,-151.0775C177.9328,-143.9698 174.2293,-133.6371 170.599,-123.5089"/>
<polygon fill="#ff0000" stroke="#ff0000" stroke-width=".5" points="173.8499,-122.2055 167.181,-113.9728 167.2604,-124.5674 173.8499,-122.2055"/>
</g>
<!-- &#45;3&#45;&gt;2968 -->
<g id="edge14" class="edge">
<title>&#45;3&#45;&gt;2968</title>
<path fill="none" stroke="#ff0000" stroke-width=".4515" d="M189.2395,-151.0775C193.9416,-143.2688 200.9877,-131.5676 207.6393,-120.5213"/>
<polygon fill="#ff0000" stroke="#ff0000" stroke-width=".4515" points="210.6766,-122.262 212.8369,-111.8898 204.6799,-118.651 210.6766,-122.262"/>
</g>
<!-- &#45;3&#45;&gt;2969 -->
<g id="edge15" class="edge">
<title>&#45;3&#45;&gt;2969</title>
<path fill="none" stroke="#00ff00" stroke-width=".1708" d="M195.8435,-153.5733C211.0498,-145.1254 237.8191,-129.8485 259.7487,-115.196 261.4011,-114.0919 263.083,-112.9364 264.7686,-111.7536"/>
<polygon fill="#00ff00" stroke="#00ff00" stroke-width=".1708" points="267.0554,-114.4193 273.1081,-105.7235 262.9537,-108.7468 267.0554,-114.4193"/>
</g>
<!-- &#45;3&#45;&gt;2970 -->
<g id="edge16" class="edge">
<title>&#45;3&#45;&gt;2970</title>
<path fill="none" stroke="#00ff00" stroke-width=".5" d="M171.3747,-154.7114C168.5556,-153.5126 165.5619,-152.2793 162.7487,-151.196 116.7111,-133.467 101.3492,-138.2779 57.7487,-115.196 55.9924,-114.2662 54.2291,-113.2471 52.4809,-112.1692"/>
<polygon fill="#00ff00" stroke="#00ff00" stroke-width=".5" points="54.2167,-109.1182 43.969,-106.4281 50.3024,-114.9216 54.2167,-109.1182"/>
</g>
<!-- &#45;3&#45;&gt;2971 -->
<g id="edge17" class="edge">
<title>&#45;3&#45;&gt;2971</title>
<path fill="none" stroke="#00ff00" stroke-width=".4905" d="M196.0889,-154.6206C198.9098,-153.4265 201.9127,-152.2181 204.7487,-151.196 257.9336,-132.0278 276.223,-140.5574 326.7487,-115.196 328.5248,-114.3045 330.3036,-113.3154 332.0636,-112.2605"/>
<polygon fill="#00ff00" stroke="#00ff00" stroke-width=".4905" points="334.2163,-115.0324 340.6083,-106.5829 330.3423,-109.2021 334.2163,-115.0324"/>
</g>
<!-- 0 -->
<g id="node4" class="node">
<title>0</title>
<ellipse fill="#add8e6" stroke="#000000" cx="167.7487" cy="-14.8492" rx="14.7" ry="14.7"/>
<text text-anchor="middle" x="167.7487" y="-12.6492" font-family="Times,serif" font-size="9.00" fill="#000000">0</text>
</g>
<!-- 1 -->
<g id="node5" class="node">
<title>1</title>
<ellipse fill="#add8e6" stroke="#000000" cx="220.7487" cy="-14.8492" rx="14.7" ry="14.7"/>
<text text-anchor="middle" x="220.7487" y="-12.6492" font-family="Times,serif" font-size="9.00" fill="#000000">1</text>
</g>
<!-- 2966&#45;&gt;0 -->
<g id="edge18" class="edge">
<title>2966&#45;&gt;0</title>
<path fill="none" stroke="#00ff00" stroke-width=".3931" d="M109.3757,-72.9135C121.4618,-60.8913 137.4518,-44.9859 149.6399,-32.8623"/>
<polygon fill="#00ff00" stroke="#00ff00" stroke-width=".3931" points="152.3995,-35.054 157.021,-25.5202 147.4629,-30.0911 152.3995,-35.054"/>
</g>
<!-- 2966&#45;&gt;1 -->
<g id="edge19" class="edge">
<title>2966&#45;&gt;1</title>
<path fill="none" stroke="#ff0000" stroke-width=".2392" d="M111.2853,-75.011C115.6285,-71.8027 120.2738,-68.5372 124.7487,-65.6985 131.5927,-61.3571 172.5268,-39.9207 198.6859,-26.3035"/>
<polygon fill="#ff0000" stroke="#ff0000" stroke-width=".2392" points="200.3072,-29.4054 207.5646,-21.6865 197.0776,-23.1949 200.3072,-29.4054"/>
</g>
<!-- 2967&#45;&gt;0 -->
<g id="edge20" class="edge">
<title>2967&#45;&gt;0</title>
<path fill="none" stroke="#ff0000" stroke-width=".3898" d="M161.6957,-65.6936C162.6795,-57.4298 163.7762,-48.2178 164.7629,-39.9294"/>
<polygon fill="#ff0000" stroke="#ff0000" stroke-width=".3898" points="168.2712,-40.0666 165.978,-29.7229 161.3203,-39.239 168.2712,-40.0666"/>
</g>
<!-- 2967&#45;&gt;1 -->
<g id="edge21" class="edge">
<title>2967&#45;&gt;1</title>
<path fill="none" stroke="#00ff00" stroke-width=".4125" d="M174.7153,-70.9789C183.8645,-59.823 195.3188,-45.8565 204.5128,-34.6461"/>
<polygon fill="#00ff00" stroke="#00ff00" stroke-width=".4125" points="207.392,-36.6547 211.0272,-26.703 201.9795,-32.2157 207.392,-36.6547"/>
</g>
<!-- 2968&#45;&gt;0 -->
<g id="edge22" class="edge">
<title>2968&#45;&gt;0</title>
<path fill="none" stroke="#ff0000" stroke-width=".2323" d="M210.5099,-70.5847C202.1411,-59.6767 191.7819,-46.1744 183.3558,-35.1917"/>
<polygon fill="#ff0000" stroke="#ff0000" stroke-width=".2323" points="185.9516,-32.8251 177.0876,-27.0216 180.3978,-37.0861 185.9516,-32.8251"/>
</g>
<!-- 2968&#45;&gt;1 -->
<g id="edge23" class="edge">
<title>2968&#45;&gt;1</title>
<path fill="none" stroke="#ff0000" stroke-width=".184" d="M224.1116,-65.6936C223.565,-57.4298 222.9557,-48.2178 222.4075,-39.9294"/>
<polygon fill="#ff0000" stroke="#ff0000" stroke-width=".184" points="225.8849,-39.4701 221.7325,-29.7229 218.9001,-39.9322 225.8849,-39.4701"/>
</g>
<!-- 2969&#45;&gt;0 -->
<g id="edge24" class="edge">
<title>2969&#45;&gt;0</title>
<path fill="none" stroke="#00ff00" stroke-width=".317" d="M273.1736,-75.0713C268.8328,-71.8592 264.1982,-68.5769 259.7487,-65.6985 247.2128,-57.5889 213.1174,-39.0727 190.1437,-26.7659"/>
<polygon fill="#00ff00" stroke="#00ff00" stroke-width=".317" points="191.5435,-23.5456 181.0741,-21.9202 188.2448,-29.7196 191.5435,-23.5456"/>
</g>
<!-- 2969&#45;&gt;1 -->
<g id="edge25" class="edge">
<title>2969&#45;&gt;1</title>
<path fill="none" stroke="#00ff00" stroke-width=".5" stroke-dasharray="1,5" d="M275.3195,-72.1471C264.093,-60.3595 249.5484,-45.0881 238.2982,-33.2757"/>
<polygon fill="#00ff00" stroke="#00ff00" stroke-width=".5" points="240.5484,-30.5634 231.1173,-25.7359 235.4795,-35.3911 240.5484,-30.5634"/>
</g>
<!-- 2970&#45;&gt;0 -->
<g id="edge26" class="edge">
<title>2970&#45;&gt;0</title>
<path fill="none" stroke="#ff0000" stroke-width=".1407" d="M44.1714,-74.8259C48.5217,-71.6291 53.1986,-68.4151 57.7487,-65.6985 86.2592,-48.6765 121.4255,-33.3158 144.2042,-24.0378"/>
<polygon fill="#ff0000" stroke="#ff0000" stroke-width=".1407" points="145.7505,-27.1888 153.7299,-20.2189 143.1456,-20.6915 145.7505,-27.1888"/>
</g>
<!-- 2970&#45;&gt;1 -->
<g id="edge27" class="edge">
<title>2970&#45;&gt;1</title>
<path fill="none" stroke="#ff0000" stroke-width=".2785" d="M43.8456,-74.2234C48.2162,-71.064 52.9838,-68.0177 57.7487,-65.6985 113.1971,-38.7106 134.2067,-51.8745 191.7487,-29.6985 194.0199,-28.8232 196.3469,-27.8226 198.6469,-26.7636"/>
<polygon fill="#ff0000" stroke="#ff0000" stroke-width=".2785" points="200.3346,-29.8334 207.7361,-22.2525 197.2226,-23.5631 200.3346,-29.8334"/>
</g>
<!-- 2971&#45;&gt;0 -->
<g id="edge28" class="edge">
<title>2971&#45;&gt;0</title>
<path fill="none" stroke="#00ff00" stroke-width=".1228" stroke-dasharray="1,5" d="M340.6383,-74.2511C336.2686,-71.0901 331.5047,-68.036 326.7487,-65.6985 272.9439,-39.254 252.607,-51.4728 196.7487,-29.6985 194.4809,-28.8145 192.1562,-27.8081 189.8576,-26.7454"/>
<polygon fill="#00ff00" stroke="#00ff00" stroke-width=".1228" points="191.283,-23.5455 180.7701,-22.2301 188.1681,-29.8143 191.283,-23.5455"/>
</g>
<!-- 2971&#45;&gt;1 -->
<g id="edge29" class="edge">
<title>2971&#45;&gt;1</title>
<path fill="none" stroke="#ff0000" stroke-width=".2458" d="M340.2965,-74.8751C335.9481,-71.6752 331.2793,-68.4475 326.7487,-65.6985 299.4829,-49.1545 266.0113,-33.8625 244.0674,-24.4576"/>
<polygon fill="#ff0000" stroke="#ff0000" stroke-width=".2458" points="245.1533,-21.1169 234.5794,-20.4506 242.4299,-27.5655 245.1533,-21.1169"/>
</g>
</g>
</svg>
