<?xml version="1.0" encoding="UTF-8" standalone="no"?>
<!DOCTYPE svg PUBLIC "-//W3C//DTD SVG 1.1//EN"
 "http://www.w3.org/Graphics/SVG/1.1/DTD/svg11.dtd">
<!-- Generated by graphviz version 2.40.1 (20161225.0304)
 -->
<!-- Title: %3 Pages: 1 -->
<svg width="258pt" height="268pt"
 viewBox="0.00 0.00 258.50 268.35" xmlns="http://www.w3.org/2000/svg" xmlns:xlink="http://www.w3.org/1999/xlink">
<g id="graph0" class="graph" transform="scale(1 1) rotate(0) translate(4 264.3503)">
<title>%3</title>
<polygon fill="#ffffff" stroke="transparent" points="-4,4 -4,-264.3503 254.4975,-264.3503 254.4975,4 -4,4"/>
<!-- &#45;1 -->
<g id="node1" class="node">
<title>&#45;1</title>
<polygon fill="#d3d3d3" stroke="#000000" points="224.7487,-260.3503 200.7487,-260.3503 200.7487,-242.3503 224.7487,-242.3503 224.7487,-260.3503"/>
<text text-anchor="middle" x="212.7487" y="-249.1503" font-family="Times,serif" font-size="9.00" fill="#000000">&#45;1</text>
</g>
<!-- 4637 -->
<g id="node8" class="node">
<title>4637</title>
<ellipse fill="#ffffff" stroke="#000000" cx="225.7487" cy="-181.6016" rx="25" ry="25"/>
<text text-anchor="middle" x="225.7487" y="-179.4016" font-family="Times,serif" font-size="9.00" fill="#000000">4637</text>
</g>
<!-- &#45;1&#45;&gt;4637 -->
<g id="edge1" class="edge">
<title>&#45;1&#45;&gt;4637</title>
<path fill="none" stroke="#ff0000" stroke-width=".1864" stroke-dasharray="1,5" d="M214.4483,-242.2319C215.7151,-235.4351 217.5315,-225.6895 219.3386,-215.9935"/>
<polygon fill="#ff0000" stroke="#ff0000" stroke-width=".1864" points="222.8035,-216.505 221.1951,-206.033 215.922,-215.2224 222.8035,-216.505"/>
</g>
<!-- 4638 -->
<g id="node9" class="node">
<title>4638</title>
<ellipse fill="#ffffff" stroke="#000000" cx="158.7487" cy="-181.6016" rx="25" ry="25"/>
<text text-anchor="middle" x="158.7487" y="-179.4016" font-family="Times,serif" font-size="9.00" fill="#000000">4638</text>
</g>
<!-- &#45;1&#45;&gt;4638 -->
<g id="edge2" class="edge">
<title>&#45;1&#45;&gt;4638</title>
<path fill="none" stroke="#ff0000" stroke-width=".4512" d="M205.6892,-242.2319C199.2478,-233.9119 189.3854,-221.1732 180.3603,-209.5159"/>
<polygon fill="#ff0000" stroke="#ff0000" stroke-width=".4512" points="182.8868,-207.062 173.9974,-201.2974 177.3518,-211.3473 182.8868,-207.062"/>
</g>
<!-- &#45;2 -->
<g id="node2" class="node">
<title>&#45;2</title>
<polygon fill="#d3d3d3" stroke="#000000" points="170.7487,-260.3503 146.7487,-260.3503 146.7487,-242.3503 170.7487,-242.3503 170.7487,-260.3503"/>
<text text-anchor="middle" x="158.7487" y="-249.1503" font-family="Times,serif" font-size="9.00" fill="#000000">&#45;2</text>
</g>
<!-- &#45;2&#45;&gt;4637 -->
<g id="edge3" class="edge">
<title>&#45;2&#45;&gt;4637</title>
<path fill="none" stroke="#00ff00" stroke-width=".3832" d="M167.5078,-242.2319C176.0851,-233.3026 189.5516,-219.2837 201.3758,-206.9745"/>
<polygon fill="#00ff00" stroke="#00ff00" stroke-width=".3832" points="204.0639,-209.2283 208.4674,-199.5919 199.0157,-204.379 204.0639,-209.2283"/>
</g>
<!-- &#45;2&#45;&gt;4638 -->
<g id="edge4" class="edge">
<title>&#45;2&#45;&gt;4638</title>
<path fill="none" stroke="#00ff00" stroke-width=".1667" d="M158.7487,-242.2319C158.7487,-235.6151 158.7487,-226.2036 158.7487,-216.764"/>
<polygon fill="#00ff00" stroke="#00ff00" stroke-width=".1667" points="162.2488,-216.6408 158.7487,-206.6408 155.2488,-216.6409 162.2488,-216.6408"/>
</g>
<!-- 4639 -->
<g id="node10" class="node">
<title>4639</title>
<ellipse fill="#ffffff" stroke="#000000" cx="91.7487" cy="-181.6016" rx="25" ry="25"/>
<text text-anchor="middle" x="91.7487" y="-179.4016" font-family="Times,serif" font-size="9.00" fill="#000000">4639</text>
</g>
<!-- &#45;2&#45;&gt;4639 -->
<g id="edge5" class="edge">
<title>&#45;2&#45;&gt;4639</title>
<path fill="none" stroke="#00ff00" stroke-width=".3535" d="M149.9897,-242.2319C141.4123,-233.3026 127.9459,-219.2837 116.1217,-206.9745"/>
<polygon fill="#00ff00" stroke="#00ff00" stroke-width=".3535" points="118.4818,-204.379 109.0301,-199.5919 113.4336,-209.2283 118.4818,-204.379"/>
</g>
<!-- &#45;3 -->
<g id="node3" class="node">
<title>&#45;3</title>
<polygon fill="#d3d3d3" stroke="#000000" points="116.7487,-260.3503 92.7487,-260.3503 92.7487,-242.3503 116.7487,-242.3503 116.7487,-260.3503"/>
<text text-anchor="middle" x="104.7487" y="-249.1503" font-family="Times,serif" font-size="9.00" fill="#000000">&#45;3</text>
</g>
<!-- 4634 -->
<g id="node7" class="node">
<title>4634</title>
<ellipse fill="#ffffff" stroke="#000000" cx="24.7487" cy="-181.6016" rx="25" ry="25"/>
<text text-anchor="middle" x="24.7487" y="-179.4016" font-family="Times,serif" font-size="9.00" fill="#000000">4634</text>
</g>
<!-- &#45;3&#45;&gt;4634 -->
<g id="edge6" class="edge">
<title>&#45;3&#45;&gt;4634</title>
<path fill="none" stroke="#00ff00" stroke-width=".3428" d="M94.2901,-242.2319C83.4265,-232.7603 65.9944,-217.5619 51.3016,-204.7519"/>
<polygon fill="#00ff00" stroke="#00ff00" stroke-width=".3428" points="53.3175,-201.866 43.4799,-197.9325 48.7174,-207.1423 53.3175,-201.866"/>
</g>
<!-- &#45;3&#45;&gt;4637 -->
<g id="edge7" class="edge">
<title>&#45;3&#45;&gt;4637</title>
<path fill="none" stroke="#ff0000" stroke-width=".5" d="M116.7719,-246.0006C134.0513,-238.136 166.6938,-222.616 192.7487,-206.3503 194.4345,-205.2979 196.1425,-204.1829 197.8482,-203.0311"/>
<polygon fill="#ff0000" stroke="#ff0000" stroke-width=".5" points="200.1045,-205.7221 206.243,-197.0867 196.0592,-200.0093 200.1045,-205.7221"/>
</g>
<!-- &#45;3&#45;&gt;4638 -->
<g id="edge8" class="edge">
<title>&#45;3&#45;&gt;4638</title>
<path fill="none" stroke="#00ff00" stroke-width=".2889" d="M111.8083,-242.2319C118.2497,-233.9119 128.1121,-221.1732 137.1372,-209.5159"/>
<polygon fill="#00ff00" stroke="#00ff00" stroke-width=".2889" points="140.1457,-211.3473 143.5,-201.2974 134.6107,-207.062 140.1457,-211.3473"/>
</g>
<!-- &#45;3&#45;&gt;4639 -->
<g id="edge9" class="edge">
<title>&#45;3&#45;&gt;4639</title>
<path fill="none" stroke="#ff0000" stroke-width=".1166" d="M103.0492,-242.2319C101.7824,-235.4351 99.966,-225.6895 98.1588,-215.9935"/>
<polygon fill="#ff0000" stroke="#ff0000" stroke-width=".1166" points="101.5755,-215.2224 96.3024,-206.033 94.694,-216.505 101.5755,-215.2224"/>
</g>
<!-- 0 -->
<g id="node4" class="node">
<title>0</title>
<ellipse fill="#add8e6" stroke="#000000" cx="232.7487" cy="-93.2756" rx="14.7" ry="14.7"/>
<text text-anchor="middle" x="232.7487" y="-91.0756" font-family="Times,serif" font-size="9.00" fill="#000000">0</text>
</g>
<!-- 1 -->
<g id="node5" class="node">
<title>1</title>
<ellipse fill="#add8e6" stroke="#000000" cx="113.7487" cy="-14.8492" rx="14.7" ry="14.7"/>
<text text-anchor="middle" x="113.7487" y="-12.6492" font-family="Times,serif" font-size="9.00" fill="#000000">1</text>
</g>
<!-- 13801 -->
<g id="node6" class="node">
<title>13801</title>
<ellipse fill="#ffffff" stroke="#000000" cx="57.7487" cy="-93.2756" rx="27.6545" ry="27.6545"/>
<text text-anchor="middle" x="57.7487" y="-91.0756" font-family="Times,serif" font-size="9.00" fill="#000000">13801</text>
</g>
<!-- 13801&#45;&gt;1 -->
<g id="edge16" class="edge">
<title>13801&#45;&gt;1</title>
<path fill="none" stroke="#00ff00" stroke-width=".1964" d="M73.9463,-70.5915C81.82,-59.5645 91.2179,-46.4031 98.9041,-35.6387"/>
<polygon fill="#00ff00" stroke="#00ff00" stroke-width=".1964" points="101.9242,-37.4321 104.887,-27.2599 96.2274,-33.3643 101.9242,-37.4321"/>
</g>
<!-- 4634&#45;&gt;1 -->
<g id="edge10" class="edge">
<title>4634&#45;&gt;1</title>
<path fill="none" stroke="#00ff00" stroke-width=".1023" d="M16.9215,-158.0032C10.2089,-133.197 4.0103,-93.9275 20.7487,-65.6985 35.4948,-40.8295 67.1712,-27.333 89.4419,-20.617"/>
<polygon fill="#00ff00" stroke="#00ff00" stroke-width=".1023" points="90.5038,-23.9548 99.2106,-17.9181 88.6396,-17.2076 90.5038,-23.9548"/>
</g>
<!-- 4634&#45;&gt;13801 -->
<g id="edge15" class="edge">
<title>4634&#45;&gt;13801</title>
<path fill="none" stroke="#ff0000" stroke-width=".4123" d="M33.4191,-158.395C36.8344,-149.2539 40.8322,-138.5534 44.589,-128.4983"/>
<polygon fill="#ff0000" stroke="#ff0000" stroke-width=".4123" points="47.8688,-129.72 48.0901,-119.1275 41.3115,-127.2701 47.8688,-129.72"/>
</g>
<!-- 4637&#45;&gt;0 -->
<g id="edge11" class="edge">
<title>4637&#45;&gt;0</title>
<path fill="none" stroke="#ff0000" stroke-width=".3595" d="M227.7359,-156.5272C228.6829,-144.5783 229.8128,-130.321 230.76,-118.3697"/>
<polygon fill="#ff0000" stroke="#ff0000" stroke-width=".3595" points="234.2669,-118.4199 231.568,-108.1746 227.2888,-117.8668 234.2669,-118.4199"/>
</g>
<!-- 4637&#45;&gt;1 -->
<g id="edge12" class="edge">
<title>4637&#45;&gt;1</title>
<path fill="none" stroke="#00ff00" stroke-width=".2136" d="M212.2423,-160.5142C197.2169,-137.1713 172.1083,-98.5063 149.7487,-65.6985 142.8244,-55.5384 134.9514,-44.3755 128.3374,-35.1035"/>
<polygon fill="#00ff00" stroke="#00ff00" stroke-width=".2136" points="131.1219,-32.9804 122.4541,-26.8878 125.4307,-37.0559 131.1219,-32.9804"/>
</g>
<!-- 4638&#45;&gt;1 -->
<g id="edge13" class="edge">
<title>4638&#45;&gt;1</title>
<path fill="none" stroke="#ff0000" stroke-width=".1332" d="M152.2054,-157.3543C143.6641,-125.704 128.8025,-70.6325 120.2715,-39.0199"/>
<polygon fill="#ff0000" stroke="#ff0000" stroke-width=".1332" points="123.6239,-38.0089 117.6393,-29.2662 116.8657,-39.8327 123.6239,-38.0089"/>
</g>
<!-- 4639&#45;&gt;1 -->
<g id="edge14" class="edge">
<title>4639&#45;&gt;1</title>
<path fill="none" stroke="#00ff00" stroke-width=".2634" d="M94.9949,-156.9967C99.1434,-125.5529 106.2854,-71.4187 110.4561,-39.8065"/>
<polygon fill="#00ff00" stroke="#00ff00" stroke-width=".2634" points="113.9595,-40.0102 111.7976,-29.6382 107.0196,-39.0945 113.9595,-40.0102"/>
</g>
</g>
</svg>
