<?xml version="1.0" encoding="UTF-8" standalone="no"?>
<!DOCTYPE svg PUBLIC "-//W3C//DTD SVG 1.1//EN"
 "http://www.w3.org/Graphics/SVG/1.1/DTD/svg11.dtd">
<!-- Generated by graphviz version 2.40.1 (20161225.0304)
 -->
<!-- Title: %3 Pages: 1 -->
<svg width="258pt" height="177pt"
 viewBox="0.00 0.00 258.50 177.20" xmlns="http://www.w3.org/2000/svg" xmlns:xlink="http://www.w3.org/1999/xlink">
<g id="graph0" class="graph" transform="scale(1 1) rotate(0) translate(4 173.196)">
<title>%3</title>
<polygon fill="#ffffff" stroke="transparent" points="-4,4 -4,-173.196 254.4975,-173.196 254.4975,4 -4,4"/>
<!-- &#45;1 -->
<g id="node1" class="node">
<title>&#45;1</title>
<polygon fill="#d3d3d3" stroke="#000000" points="94.7487,-169.196 70.7487,-169.196 70.7487,-151.196 94.7487,-151.196 94.7487,-169.196"/>
<text text-anchor="middle" x="82.7487" y="-157.996" font-family="Times,serif" font-size="9.00" fill="#000000">&#45;1</text>
</g>
<!-- 1389 -->
<g id="node6" class="node">
<title>1389</title>
<ellipse fill="#ffffff" stroke="#000000" cx="24.7487" cy="-90.4472" rx="25" ry="25"/>
<text text-anchor="middle" x="24.7487" y="-88.2472" font-family="Times,serif" font-size="9.00" fill="#000000">1389</text>
</g>
<!-- &#45;1&#45;&gt;1389 -->
<g id="edge1" class="edge">
<title>&#45;1&#45;&gt;1389</title>
<path fill="none" stroke="#00ff00" stroke-width=".2395" d="M75.1663,-151.0775C68.0808,-142.5568 57.1413,-129.4014 47.2609,-117.5196"/>
<polygon fill="#00ff00" stroke="#00ff00" stroke-width=".2395" points="49.7352,-115.0209 40.6502,-109.5698 44.3529,-119.4966 49.7352,-115.0209"/>
</g>
<!-- 1390 -->
<g id="node7" class="node">
<title>1390</title>
<ellipse fill="#ffffff" stroke="#000000" cx="225.7487" cy="-90.4472" rx="25" ry="25"/>
<text text-anchor="middle" x="225.7487" y="-88.2472" font-family="Times,serif" font-size="9.00" fill="#000000">1390</text>
</g>
<!-- &#45;1&#45;&gt;1390 -->
<g id="edge2" class="edge">
<title>&#45;1&#45;&gt;1390</title>
<path fill="none" stroke="#00ff00" stroke-width=".5" d="M95.1678,-154.8236C97.9845,-153.619 100.9659,-152.355 103.7487,-151.196 143.1381,-134.791 155.5917,-136.172 192.7487,-115.196 194.4793,-114.219 196.2224,-113.1631 197.9551,-112.0567"/>
<polygon fill="#00ff00" stroke="#00ff00" stroke-width=".5" points="200.1644,-114.7853 206.4242,-106.2375 196.2002,-109.016 200.1644,-114.7853"/>
</g>
<!-- 1391 -->
<g id="node8" class="node">
<title>1391</title>
<ellipse fill="#ffffff" stroke="#000000" cx="91.7487" cy="-90.4472" rx="25" ry="25"/>
<text text-anchor="middle" x="91.7487" y="-88.2472" font-family="Times,serif" font-size="9.00" fill="#000000">1391</text>
</g>
<!-- &#45;1&#45;&gt;1391 -->
<g id="edge3" class="edge">
<title>&#45;1&#45;&gt;1391</title>
<path fill="none" stroke="#ff0000" stroke-width=".2189" d="M83.9253,-151.0775C84.7861,-144.4066 86.0135,-134.8948 87.2415,-125.3775"/>
<polygon fill="#ff0000" stroke="#ff0000" stroke-width=".2189" points="90.7485,-125.5479 88.5571,-115.1822 83.806,-124.6521 90.7485,-125.5479"/>
</g>
<!-- 1392 -->
<g id="node9" class="node">
<title>1392</title>
<ellipse fill="#ffffff" stroke="#000000" cx="158.7487" cy="-90.4472" rx="25" ry="25"/>
<text text-anchor="middle" x="158.7487" y="-88.2472" font-family="Times,serif" font-size="9.00" fill="#000000">1392</text>
</g>
<!-- &#45;1&#45;&gt;1392 -->
<g id="edge4" class="edge">
<title>&#45;1&#45;&gt;1392</title>
<path fill="none" stroke="#ff0000" stroke-width=".2859" d="M92.6844,-151.0775C102.8691,-141.7306 119.1307,-126.8066 132.9712,-114.1045"/>
<polygon fill="#ff0000" stroke="#ff0000" stroke-width=".2859" points="135.3563,-116.6661 140.3573,-107.3259 130.6232,-111.5088 135.3563,-116.6661"/>
</g>
<!-- &#45;2 -->
<g id="node2" class="node">
<title>&#45;2</title>
<polygon fill="#d3d3d3" stroke="#000000" points="136.7487,-169.196 112.7487,-169.196 112.7487,-151.196 136.7487,-151.196 136.7487,-169.196"/>
<text text-anchor="middle" x="124.7487" y="-157.996" font-family="Times,serif" font-size="9.00" fill="#000000">&#45;2</text>
</g>
<!-- &#45;2&#45;&gt;1389 -->
<g id="edge5" class="edge">
<title>&#45;2&#45;&gt;1389</title>
<path fill="none" stroke="#00ff00" stroke-width=".4357" d="M112.2684,-152.0927C98.7125,-143.2266 76.4853,-128.5004 57.7487,-115.196 56.1284,-114.0454 54.4716,-112.8535 52.8053,-111.6427"/>
<polygon fill="#00ff00" stroke="#00ff00" stroke-width=".4357" points="54.6454,-108.651 44.519,-105.5355 50.4923,-114.2859 54.6454,-108.651"/>
</g>
<!-- &#45;2&#45;&gt;1390 -->
<g id="edge6" class="edge">
<title>&#45;2&#45;&gt;1390</title>
<path fill="none" stroke="#ff0000" stroke-width=".3498" d="M136.9312,-152.4416C150.6518,-143.6374 173.5417,-128.7359 192.7487,-115.196 194.373,-114.0509 196.0329,-112.8634 197.7016,-111.6559"/>
<polygon fill="#ff0000" stroke="#ff0000" stroke-width=".3498" points="200.0115,-114.3018 205.9944,-105.5579 195.8645,-108.6623 200.0115,-114.3018"/>
</g>
<!-- &#45;2&#45;&gt;1391 -->
<g id="edge7" class="edge">
<title>&#45;2&#45;&gt;1391</title>
<path fill="none" stroke="#ff0000" stroke-width=".237" d="M120.4346,-151.0775C116.9213,-143.6519 111.7427,-132.7064 106.7488,-122.1514"/>
<polygon fill="#ff0000" stroke="#ff0000" stroke-width=".237" points="109.8949,-120.617 102.4543,-113.0746 103.5674,-123.6108 109.8949,-120.617"/>
</g>
<!-- &#45;2&#45;&gt;1392 -->
<g id="edge8" class="edge">
<title>&#45;2&#45;&gt;1392</title>
<path fill="none" stroke="#00ff00" stroke-width=".3364" d="M129.1936,-151.0775C132.8412,-143.5948 138.2311,-132.5378 143.4128,-121.9078"/>
<polygon fill="#00ff00" stroke="#00ff00" stroke-width=".3364" points="146.6281,-123.2995 147.8638,-112.7769 140.3359,-120.2322 146.6281,-123.2995"/>
</g>
<!-- &#45;3 -->
<g id="node3" class="node">
<title>&#45;3</title>
<polygon fill="#d3d3d3" stroke="#000000" points="178.7487,-169.196 154.7487,-169.196 154.7487,-151.196 178.7487,-151.196 178.7487,-169.196"/>
<text text-anchor="middle" x="166.7487" y="-157.996" font-family="Times,serif" font-size="9.00" fill="#000000">&#45;3</text>
</g>
<!-- &#45;3&#45;&gt;1389 -->
<g id="edge9" class="edge">
<title>&#45;3&#45;&gt;1389</title>
<path fill="none" stroke="#ff0000" stroke-width=".297" d="M154.3263,-154.8318C151.5098,-153.6267 148.5293,-152.3605 145.7487,-151.196 106.7716,-134.8724 94.5063,-136.0422 57.7487,-115.196 56.0201,-114.2156 54.2785,-113.157 52.547,-112.0486"/>
<polygon fill="#ff0000" stroke="#ff0000" stroke-width=".297" points="54.3033,-109.0086 44.0811,-106.2237 50.3355,-114.7755 54.3033,-109.0086"/>
</g>
<!-- &#45;3&#45;&gt;1390 -->
<g id="edge10" class="edge">
<title>&#45;3&#45;&gt;1390</title>
<path fill="none" stroke="#ff0000" stroke-width=".1304" d="M174.462,-151.0775C181.6696,-142.5568 192.7976,-129.4014 202.8484,-117.5196"/>
<polygon fill="#ff0000" stroke="#ff0000" stroke-width=".1304" points="205.787,-119.4651 209.5731,-109.5698 200.4426,-114.9442 205.787,-119.4651"/>
</g>
<!-- &#45;3&#45;&gt;1391 -->
<g id="edge11" class="edge">
<title>&#45;3&#45;&gt;1391</title>
<path fill="none" stroke="#00ff00" stroke-width=".1392" d="M156.9438,-151.0775C146.9862,-141.8171 131.1422,-127.0825 117.5671,-114.4579"/>
<polygon fill="#00ff00" stroke="#00ff00" stroke-width=".1392" points="119.6045,-111.573 109.8982,-107.3259 114.8374,-116.699 119.6045,-111.573"/>
</g>
<!-- &#45;3&#45;&gt;1392 -->
<g id="edge12" class="edge">
<title>&#45;3&#45;&gt;1392</title>
<path fill="none" stroke="#00ff00" stroke-width=".4666" d="M165.7029,-151.0775C164.9377,-144.4066 163.8468,-134.8948 162.7552,-125.3775"/>
<polygon fill="#00ff00" stroke="#00ff00" stroke-width=".4666" points="166.2026,-124.7182 161.5858,-115.1822 159.2482,-125.5159 166.2026,-124.7182"/>
</g>
<!-- 0 -->
<g id="node4" class="node">
<title>0</title>
<ellipse fill="#add8e6" stroke="#000000" cx="91.7487" cy="-14.8492" rx="14.7" ry="14.7"/>
<text text-anchor="middle" x="91.7487" y="-12.6492" font-family="Times,serif" font-size="9.00" fill="#000000">0</text>
</g>
<!-- 1 -->
<g id="node5" class="node">
<title>1</title>
<ellipse fill="#add8e6" stroke="#000000" cx="148.7487" cy="-14.8492" rx="14.7" ry="14.7"/>
<text text-anchor="middle" x="148.7487" y="-12.6492" font-family="Times,serif" font-size="9.00" fill="#000000">1</text>
</g>
<!-- 1389&#45;&gt;0 -->
<g id="edge13" class="edge">
<title>1389&#45;&gt;0</title>
<path fill="none" stroke="#ff0000" stroke-width=".5" d="M41.3105,-71.7601C51.5384,-60.2197 64.6249,-45.4538 74.9048,-33.8547"/>
<polygon fill="#ff0000" stroke="#ff0000" stroke-width=".5" points="77.7997,-35.8652 81.8131,-26.0599 72.561,-31.2223 77.7997,-35.8652"/>
</g>
<!-- 1389&#45;&gt;1 -->
<g id="edge14" class="edge">
<title>1389&#45;&gt;1</title>
<path fill="none" stroke="#00ff00" stroke-width=".3937" d="M44.3341,-75.0869C48.6742,-71.8738 53.3059,-68.5872 57.7487,-65.6985 80.4886,-50.9129 107.7927,-36.0111 126.5227,-26.197"/>
<polygon fill="#00ff00" stroke="#00ff00" stroke-width=".3937" points="128.2021,-29.2687 135.4661,-21.5561 124.9779,-23.0555 128.2021,-29.2687"/>
</g>
<!-- 1390&#45;&gt;1 -->
<g id="edge15" class="edge">
<title>1390&#45;&gt;1</title>
<path fill="none" stroke="#ff0000" stroke-width=".4257" d="M207.8899,-72.9135C195.6447,-60.8913 179.4443,-44.9859 167.0959,-32.8623"/>
<polygon fill="#ff0000" stroke="#ff0000" stroke-width=".4257" points="169.2054,-30.0286 159.6176,-25.5202 164.3014,-35.0236 169.2054,-30.0286"/>
</g>
<!-- 1391&#45;&gt;0 -->
<g id="edge16" class="edge">
<title>1391&#45;&gt;0</title>
<path fill="none" stroke="#00ff00" stroke-width=".5" d="M91.7487,-65.6936C91.7487,-57.4298 91.7487,-48.2178 91.7487,-39.9294"/>
<polygon fill="#00ff00" stroke="#00ff00" stroke-width=".5" points="95.2488,-39.7229 91.7487,-29.7229 88.2488,-39.723 95.2488,-39.7229"/>
</g>
<!-- 1391&#45;&gt;1 -->
<g id="edge17" class="edge">
<title>1391&#45;&gt;1</title>
<path fill="none" stroke="#ff0000" stroke-width=".3278" d="M106.7248,-70.5847C114.9493,-59.6767 125.1299,-46.1744 133.4108,-35.1917"/>
<polygon fill="#ff0000" stroke="#ff0000" stroke-width=".3278" points="136.3452,-37.1134 139.5709,-27.0216 130.7559,-32.8992 136.3452,-37.1134"/>
</g>
<!-- 1392&#45;&gt;0 -->
<g id="edge18" class="edge">
<title>1392&#45;&gt;0</title>
<path fill="none" stroke="#ff0000" stroke-width=".4931" d="M142.1869,-71.7601C131.959,-60.2197 118.8726,-45.4538 108.5927,-33.8547"/>
<polygon fill="#ff0000" stroke="#ff0000" stroke-width=".4931" points="110.9365,-31.2223 101.6844,-26.0599 105.6978,-35.8652 110.9365,-31.2223"/>
</g>
<!-- 1392&#45;&gt;1 -->
<g id="edge19" class="edge">
<title>1392&#45;&gt;1</title>
<path fill="none" stroke="#ff0000" stroke-width=".2252" d="M155.4744,-65.6936C154.369,-57.337 153.1353,-48.0107 152.0294,-39.6504"/>
<polygon fill="#ff0000" stroke="#ff0000" stroke-width=".2252" points="155.4974,-39.1776 150.7162,-29.7229 148.5579,-40.0956 155.4974,-39.1776"/>
</g>
</g>
</svg>
