<?xml version="1.0" encoding="UTF-8" standalone="no"?>
<!DOCTYPE svg PUBLIC "-//W3C//DTD SVG 1.1//EN"
 "http://www.w3.org/Graphics/SVG/1.1/DTD/svg11.dtd">
<!-- Generated by graphviz version 2.40.1 (20161225.0304)
 -->
<!-- Title: %3 Pages: 1 -->
<svg width="652pt" height="170pt"
 viewBox="0.00 0.00 651.50 170.12" xmlns="http://www.w3.org/2000/svg" xmlns:xlink="http://www.w3.org/1999/xlink">
<g id="graph0" class="graph" transform="scale(1 1) rotate(0) translate(4 166.1249)">
<title>%3</title>
<polygon fill="#ffffff" stroke="transparent" points="-4,4 -4,-166.1249 647.5,-166.1249 647.5,4 -4,4"/>
<!-- &#45;1 -->
<g id="node1" class="node">
<title>&#45;1</title>
<polygon fill="#d3d3d3" stroke="#000000" points="259.5,-162.1249 235.5,-162.1249 235.5,-144.1249 259.5,-144.1249 259.5,-162.1249"/>
<text text-anchor="middle" x="247.5" y="-150.9249" font-family="Times,serif" font-size="9.00" fill="#000000">&#45;1</text>
</g>
<!-- 326 -->
<g id="node18" class="node">
<title>326</title>
<ellipse fill="#ffffff" stroke="#000000" cx="295.5" cy="-86.9117" rx="21.4286" ry="21.4286"/>
<text text-anchor="middle" x="295.5" y="-84.7117" font-family="Times,serif" font-size="9.00" fill="#000000">326</text>
</g>
<!-- &#45;1&#45;&gt;326 -->
<g id="edge1" class="edge">
<title>&#45;1&#45;&gt;326</title>
<path fill="none" stroke="#00ff00" stroke-width=".4939" d="M254.1742,-143.9182C260.0861,-135.7631 269.0013,-123.4651 277.0396,-112.3768"/>
<polygon fill="#00ff00" stroke="#00ff00" stroke-width=".4939" points="279.9156,-114.3726 282.9513,-104.2219 274.2482,-110.2641 279.9156,-114.3726"/>
</g>
<!-- 327 -->
<g id="node19" class="node">
<title>327</title>
<ellipse fill="#ffffff" stroke="#000000" cx="235.5" cy="-86.9117" rx="21.4286" ry="21.4286"/>
<text text-anchor="middle" x="235.5" y="-84.7117" font-family="Times,serif" font-size="9.00" fill="#000000">327</text>
</g>
<!-- &#45;1&#45;&gt;327 -->
<g id="edge2" class="edge">
<title>&#45;1&#45;&gt;327</title>
<path fill="none" stroke="#00ff00" stroke-width=".324" d="M245.8315,-143.9182C244.6018,-137.1334 242.8525,-127.481 241.1421,-118.0433"/>
<polygon fill="#00ff00" stroke="#00ff00" stroke-width=".324" points="244.5551,-117.2482 239.3278,-108.0326 237.6673,-118.4965 244.5551,-117.2482"/>
</g>
<!-- 329 -->
<g id="node20" class="node">
<title>329</title>
<ellipse fill="#ffffff" stroke="#000000" cx="355.5" cy="-86.9117" rx="21.4286" ry="21.4286"/>
<text text-anchor="middle" x="355.5" y="-84.7117" font-family="Times,serif" font-size="9.00" fill="#000000">329</text>
</g>
<!-- &#45;1&#45;&gt;329 -->
<g id="edge3" class="edge">
<title>&#45;1&#45;&gt;329</title>
<path fill="none" stroke="#ff0000" stroke-width=".3419" d="M259.5974,-146.5994C275.108,-138.1303 302.7207,-122.7058 325.5,-108.1249 326.9405,-107.2028 328.4084,-106.2412 329.882,-105.2584"/>
<polygon fill="#ff0000" stroke="#ff0000" stroke-width=".3419" points="331.9704,-108.0702 338.2359,-99.5266 328.01,-102.2983 331.9704,-108.0702"/>
</g>
<!-- 330 -->
<g id="node21" class="node">
<title>330</title>
<ellipse fill="#ffffff" stroke="#000000" cx="415.5" cy="-86.9117" rx="21.4286" ry="21.4286"/>
<text text-anchor="middle" x="415.5" y="-84.7117" font-family="Times,serif" font-size="9.00" fill="#000000">330</text>
</g>
<!-- &#45;1&#45;&gt;330 -->
<g id="edge4" class="edge">
<title>&#45;1&#45;&gt;330</title>
<path fill="none" stroke="#ff0000" stroke-width=".1862" d="M259.849,-147.5738C262.6694,-146.3785 265.6699,-145.1634 268.5,-144.1249 319.5757,-125.3826 336.677,-132.1314 385.5,-108.1249 387.0348,-107.3702 388.5772,-106.5409 390.1088,-105.6609"/>
<polygon fill="#ff0000" stroke="#ff0000" stroke-width=".1862" points="392.0785,-108.5561 398.6339,-100.2328 388.3188,-102.6514 392.0785,-108.5561"/>
</g>
<!-- &#45;2 -->
<g id="node2" class="node">
<title>&#45;2</title>
<polygon fill="#d3d3d3" stroke="#000000" points="301.5,-162.1249 277.5,-162.1249 277.5,-144.1249 301.5,-144.1249 301.5,-162.1249"/>
<text text-anchor="middle" x="289.5" y="-150.9249" font-family="Times,serif" font-size="9.00" fill="#000000">&#45;2</text>
</g>
<!-- &#45;2&#45;&gt;326 -->
<g id="edge5" class="edge">
<title>&#45;2&#45;&gt;326</title>
<path fill="none" stroke="#00ff00" stroke-width=".4128" d="M290.3343,-143.9182C290.9379,-137.2572 291.7919,-127.8323 292.6321,-118.5602"/>
<polygon fill="#00ff00" stroke="#00ff00" stroke-width=".4128" points="296.1439,-118.5872 293.5608,-108.3121 289.1725,-117.9554 296.1439,-118.5872"/>
</g>
<!-- &#45;2&#45;&gt;327 -->
<g id="edge6" class="edge">
<title>&#45;2&#45;&gt;327</title>
<path fill="none" stroke="#00ff00" stroke-width=".1837" d="M281.9915,-143.9182C275.1355,-135.5116 264.6892,-122.7026 255.4342,-111.3545"/>
<polygon fill="#00ff00" stroke="#00ff00" stroke-width=".1837" points="258.0067,-108.9708 248.9741,-103.4333 252.582,-113.3949 258.0067,-108.9708"/>
</g>
<!-- &#45;2&#45;&gt;329 -->
<g id="edge7" class="edge">
<title>&#45;2&#45;&gt;329</title>
<path fill="none" stroke="#00ff00" stroke-width=".3286" d="M298.677,-143.9182C307.5099,-135.0569 321.2184,-121.304 332.9578,-109.5267"/>
<polygon fill="#00ff00" stroke="#00ff00" stroke-width=".3286" points="335.736,-111.6973 340.3168,-102.1439 330.7783,-106.7555 335.736,-111.6973"/>
</g>
<!-- &#45;2&#45;&gt;330 -->
<g id="edge8" class="edge">
<title>&#45;2&#45;&gt;330</title>
<path fill="none" stroke="#ff0000" stroke-width=".1009" d="M301.6362,-147.7597C323.8631,-137.8803 370.2261,-117.0108 385.5,-108.1249 386.9784,-107.2648 388.4761,-106.3522 389.973,-105.4075"/>
<polygon fill="#ff0000" stroke="#ff0000" stroke-width=".1009" points="392.0195,-108.2496 398.3956,-99.7881 388.1345,-102.4267 392.0195,-108.2496"/>
</g>
<!-- &#45;3 -->
<g id="node3" class="node">
<title>&#45;3</title>
<polygon fill="#d3d3d3" stroke="#000000" points="343.5,-162.1249 319.5,-162.1249 319.5,-144.1249 343.5,-144.1249 343.5,-162.1249"/>
<text text-anchor="middle" x="331.5" y="-150.9249" font-family="Times,serif" font-size="9.00" fill="#000000">&#45;3</text>
</g>
<!-- &#45;3&#45;&gt;326 -->
<g id="edge9" class="edge">
<title>&#45;3&#45;&gt;326</title>
<path fill="none" stroke="#ff0000" stroke-width=".3163" d="M326.4944,-143.9182C322.3403,-136.2778 316.209,-125.0009 310.4939,-114.4893"/>
<polygon fill="#ff0000" stroke="#ff0000" stroke-width=".3163" points="313.4904,-112.6731 305.6388,-105.5595 307.3406,-116.0168 313.4904,-112.6731"/>
</g>
<!-- &#45;3&#45;&gt;327 -->
<g id="edge10" class="edge">
<title>&#45;3&#45;&gt;327</title>
<path fill="none" stroke="#ff0000" stroke-width=".176" d="M319.293,-144.8929C306.0139,-135.9168 284.1817,-121.0972 265.5,-108.1249 264.0951,-107.1494 262.6555,-106.1455 261.2037,-105.1299"/>
<polygon fill="#ff0000" stroke="#ff0000" stroke-width=".176" points="263.1078,-102.1902 252.9145,-99.301 259.0813,-107.9162 263.1078,-102.1902"/>
</g>
<!-- &#45;3&#45;&gt;329 -->
<g id="edge11" class="edge">
<title>&#45;3&#45;&gt;329</title>
<path fill="none" stroke="#00ff00" stroke-width=".2682" d="M334.8371,-143.9182C337.426,-136.7758 341.1667,-126.4556 344.7559,-116.5534"/>
<polygon fill="#00ff00" stroke="#00ff00" stroke-width=".2682" points="348.129,-117.518 348.2463,-106.9238 341.548,-115.1325 348.129,-117.518"/>
</g>
<!-- &#45;3&#45;&gt;330 -->
<g id="edge12" class="edge">
<title>&#45;3&#45;&gt;330</title>
<path fill="none" stroke="#ff0000" stroke-width=".4932" d="M343.1798,-143.9182C355.3514,-134.324 374.7974,-118.9956 390.4607,-106.6489"/>
<polygon fill="#ff0000" stroke="#ff0000" stroke-width=".4932" points="393.0164,-109.0911 398.7032,-100.1518 388.683,-103.5936 393.0164,-109.0911"/>
</g>
<!-- &#45;4 -->
<g id="node4" class="node">
<title>&#45;4</title>
<polygon fill="#d3d3d3" stroke="#000000" points="385.5,-162.1249 361.5,-162.1249 361.5,-144.1249 385.5,-144.1249 385.5,-162.1249"/>
<text text-anchor="middle" x="373.5" y="-150.9249" font-family="Times,serif" font-size="9.00" fill="#000000">&#45;4</text>
</g>
<!-- &#45;4&#45;&gt;326 -->
<g id="edge13" class="edge">
<title>&#45;4&#45;&gt;326</title>
<path fill="none" stroke="#ff0000" stroke-width=".1201" stroke-dasharray="1,5" d="M362.6544,-143.9182C351.4935,-134.4439 333.7456,-119.3779 319.2978,-107.1133"/>
<polygon fill="#ff0000" stroke="#ff0000" stroke-width=".1201" points="321.5621,-104.4445 311.6735,-100.6412 317.032,-109.781 321.5621,-104.4445"/>
</g>
<!-- &#45;4&#45;&gt;327 -->
<g id="edge14" class="edge">
<title>&#45;4&#45;&gt;327</title>
<path fill="none" stroke="#00ff00" stroke-width=".2764" d="M361.0741,-147.769C358.2577,-146.5635 355.2782,-145.295 352.5,-144.1249 313.9345,-127.8825 302.1448,-128.3305 265.5,-108.1249 264.0023,-107.2991 262.4892,-106.4135 260.9803,-105.4898"/>
<polygon fill="#00ff00" stroke="#00ff00" stroke-width=".2764" points="262.802,-102.4988 252.5226,-99.9325 258.958,-108.349 262.802,-102.4988"/>
</g>
<!-- &#45;4&#45;&gt;329 -->
<g id="edge15" class="edge">
<title>&#45;4&#45;&gt;329</title>
<path fill="none" stroke="#00ff00" stroke-width=".3077" d="M370.9972,-143.9182C369.1044,-136.9557 366.3908,-126.9735 363.7617,-117.3024"/>
<polygon fill="#00ff00" stroke="#00ff00" stroke-width=".3077" points="367.0913,-116.208 361.0905,-107.4764 360.3364,-118.0443 367.0913,-116.208"/>
</g>
<!-- &#45;4&#45;&gt;330 -->
<g id="edge16" class="edge">
<title>&#45;4&#45;&gt;330</title>
<path fill="none" stroke="#00ff00" stroke-width=".4024" d="M379.3399,-143.9182C384.3058,-136.0896 391.6933,-124.4431 398.4989,-113.7139"/>
<polygon fill="#00ff00" stroke="#00ff00" stroke-width=".4024" points="401.612,-115.3404 404.0129,-105.0211 395.7009,-111.5908 401.612,-115.3404"/>
</g>
<!-- &#45;5 -->
<g id="node5" class="node">
<title>&#45;5</title>
<polygon fill="#d3d3d3" stroke="#000000" points="427.5,-162.1249 403.5,-162.1249 403.5,-144.1249 427.5,-144.1249 427.5,-162.1249"/>
<text text-anchor="middle" x="415.5" y="-150.9249" font-family="Times,serif" font-size="9.00" fill="#000000">&#45;5</text>
</g>
<!-- &#45;5&#45;&gt;326 -->
<g id="edge17" class="edge">
<title>&#45;5&#45;&gt;326</title>
<path fill="none" stroke="#00ff00" stroke-width=".2202" d="M403.2526,-147.7208C385.6401,-139.79 352.3276,-124.1902 325.5,-108.1249 324.0326,-107.2462 322.5436,-106.3188 321.0534,-105.3627"/>
<polygon fill="#00ff00" stroke="#00ff00" stroke-width=".2202" points="322.9016,-102.3877 312.6508,-99.7095 318.9941,-108.1956 322.9016,-102.3877"/>
</g>
<!-- &#45;5&#45;&gt;327 -->
<g id="edge18" class="edge">
<title>&#45;5&#45;&gt;327</title>
<path fill="none" stroke="#00ff00" stroke-width=".4271" d="M403.1709,-147.5184C400.3495,-146.3259 397.3435,-145.126 394.5,-144.1249 338.3541,-124.3575 319.2574,-133.6837 265.5,-108.1249 263.9554,-107.3905 262.4052,-106.5772 260.8676,-105.7097"/>
<polygon fill="#00ff00" stroke="#00ff00" stroke-width=".4271" points="262.6495,-102.6955 252.3247,-100.3184 258.9136,-108.6153 262.6495,-102.6955"/>
</g>
<!-- &#45;5&#45;&gt;329 -->
<g id="edge19" class="edge">
<title>&#45;5&#45;&gt;329</title>
<path fill="none" stroke="#00ff00" stroke-width=".285" d="M407.1573,-143.9182C399.3085,-135.2567 387.225,-121.9219 376.7177,-110.3266"/>
<polygon fill="#00ff00" stroke="#00ff00" stroke-width=".285" points="379.0752,-107.7158 369.7667,-102.6558 373.888,-112.4162 379.0752,-107.7158"/>
</g>
<!-- &#45;5&#45;&gt;330 -->
<g id="edge20" class="edge">
<title>&#45;5&#45;&gt;330</title>
<path fill="none" stroke="#ff0000" stroke-width=".4776" d="M415.5,-143.9182C415.5,-137.2572 415.5,-127.8323 415.5,-118.5602"/>
<polygon fill="#ff0000" stroke="#ff0000" stroke-width=".4776" points="419.0001,-118.312 415.5,-108.3121 412.0001,-118.3121 419.0001,-118.312"/>
</g>
<!-- &#45;6 -->
<g id="node6" class="node">
<title>&#45;6</title>
<polygon fill="#d3d3d3" stroke="#000000" points="469.5,-162.1249 445.5,-162.1249 445.5,-144.1249 469.5,-144.1249 469.5,-162.1249"/>
<text text-anchor="middle" x="457.5" y="-150.9249" font-family="Times,serif" font-size="9.00" fill="#000000">&#45;6</text>
</g>
<!-- &#45;6&#45;&gt;326 -->
<g id="edge21" class="edge">
<title>&#45;6&#45;&gt;326</title>
<path fill="none" stroke="#ff0000" stroke-width=".101" d="M445.1392,-147.6055C442.3194,-146.4085 439.3221,-145.1848 436.5,-144.1249 387.9479,-125.891 371.8668,-131.3606 325.5,-108.1249 323.9709,-107.3586 322.433,-106.5202 320.905,-105.633"/>
<polygon fill="#ff0000" stroke="#ff0000" stroke-width=".101" points="322.6999,-102.6264 312.3904,-100.1839 318.9266,-108.5223 322.6999,-102.6264"/>
</g>
<!-- &#45;6&#45;&gt;327 -->
<g id="edge22" class="edge">
<title>&#45;6&#45;&gt;327</title>
<path fill="none" stroke="#ff0000" stroke-width=".5" d="M445.2167,-147.3813C442.3929,-146.1959 439.3744,-145.0336 436.5,-144.1249 362.4465,-120.7139 336.6829,-139.1892 265.5,-108.1249 263.9324,-107.4408 262.3641,-106.6673 260.8125,-105.8306"/>
<polygon fill="#ff0000" stroke="#ff0000" stroke-width=".5" points="262.5757,-102.8059 252.228,-100.5306 258.8982,-108.7622 262.5757,-102.8059"/>
</g>
<!-- &#45;6&#45;&gt;329 -->
<g id="edge23" class="edge">
<title>&#45;6&#45;&gt;329</title>
<path fill="none" stroke="#00ff00" stroke-width=".1017" stroke-dasharray="1,5" d="M445.3917,-145.8466C430.9755,-137.1148 406.241,-121.9234 385.5,-108.1249 384.076,-107.1775 382.6212,-106.1959 381.1577,-105.1976"/>
<polygon fill="#00ff00" stroke="#00ff00" stroke-width=".1017" points="383.0445,-102.2468 372.8338,-99.4198 379.053,-107.9973 383.0445,-102.2468"/>
</g>
<!-- &#45;6&#45;&gt;330 -->
<g id="edge24" class="edge">
<title>&#45;6&#45;&gt;330</title>
<path fill="none" stroke="#ff0000" stroke-width=".5" d="M451.6601,-143.9182C446.6942,-136.0896 439.3067,-124.4431 432.5011,-113.7139"/>
<polygon fill="#ff0000" stroke="#ff0000" stroke-width=".5" points="435.2991,-111.5908 426.9871,-105.0211 429.388,-115.3404 435.2991,-111.5908"/>
</g>
<!-- &#45;7 -->
<g id="node7" class="node">
<title>&#45;7</title>
<polygon fill="#d3d3d3" stroke="#000000" points="511.5,-162.1249 487.5,-162.1249 487.5,-144.1249 511.5,-144.1249 511.5,-162.1249"/>
<text text-anchor="middle" x="499.5" y="-150.9249" font-family="Times,serif" font-size="9.00" fill="#000000">&#45;7</text>
</g>
<!-- &#45;7&#45;&gt;326 -->
<g id="edge25" class="edge">
<title>&#45;7&#45;&gt;326</title>
<path fill="none" stroke="#00ff00" stroke-width=".4208" d="M487.2005,-147.4315C484.3775,-146.2435 481.3634,-145.0674 478.5,-144.1249 412.1453,-122.2835 389.1917,-136.8192 325.5,-108.1249 323.9406,-107.4224 322.3788,-106.6343 320.8321,-105.7863"/>
<polygon fill="#00ff00" stroke="#00ff00" stroke-width=".4208" points="322.6019,-102.7653 312.2625,-100.4528 318.9031,-108.7083 322.6019,-102.7653"/>
</g>
<!-- &#45;7&#45;&gt;327 -->
<g id="edge26" class="edge">
<title>&#45;7&#45;&gt;327</title>
<path fill="none" stroke="#ff0000" stroke-width=".5" d="M487.2428,-147.2956C484.4177,-146.1147 481.392,-144.9758 478.5,-144.1249 386.395,-117.0241 354.2466,-144.7557 265.5,-108.1249 263.8785,-107.4556 262.2592,-106.6853 260.6603,-105.8435"/>
<polygon fill="#ff0000" stroke="#ff0000" stroke-width=".5" points="262.208,-102.687 251.8533,-100.444 258.5493,-108.6547 262.208,-102.687"/>
</g>
<!-- &#45;7&#45;&gt;329 -->
<g id="edge27" class="edge">
<title>&#45;7&#45;&gt;329</title>
<path fill="none" stroke="#ff0000" stroke-width=".2712" d="M487.0938,-147.7215C484.2764,-146.5185 481.2915,-145.2629 478.5,-144.1249 437.4576,-127.3926 424.5565,-129.0781 385.5,-108.1249 383.9929,-107.3163 382.4723,-106.4444 380.9577,-105.5314"/>
<polygon fill="#ff0000" stroke="#ff0000" stroke-width=".2712" points="382.7713,-102.5356 372.483,-100.0055 378.9479,-108.3992 382.7713,-102.5356"/>
</g>
<!-- &#45;7&#45;&gt;330 -->
<g id="edge28" class="edge">
<title>&#45;7&#45;&gt;330</title>
<path fill="none" stroke="#00ff00" stroke-width=".3734" stroke-dasharray="1,5" d="M487.8202,-143.9182C475.6486,-134.324 456.2026,-118.9956 440.5393,-106.6489"/>
<polygon fill="#00ff00" stroke="#00ff00" stroke-width=".3734" points="442.317,-103.5936 432.2968,-100.1518 437.9836,-109.0911 442.317,-103.5936"/>
</g>
<!-- &#45;8 -->
<g id="node8" class="node">
<title>&#45;8</title>
<polygon fill="#d3d3d3" stroke="#000000" points="643.5,-162.1249 619.5,-162.1249 619.5,-144.1249 643.5,-144.1249 643.5,-162.1249"/>
<text text-anchor="middle" x="631.5" y="-150.9249" font-family="Times,serif" font-size="9.00" fill="#000000">&#45;8</text>
</g>
<!-- &#45;8&#45;&gt;326 -->
<g id="edge29" class="edge">
<title>&#45;8&#45;&gt;326</title>
<path fill="none" stroke="#00ff00" stroke-width=".5" d="M619.2683,-147.2057C616.4418,-146.0295 613.4091,-144.9152 610.5,-144.1249 487.2926,-110.6527 444.5071,-154.3607 325.5,-108.1249 323.8649,-107.4896 322.2349,-106.7461 320.6277,-105.9248"/>
<polygon fill="#00ff00" stroke="#00ff00" stroke-width=".5" points="322.1653,-102.7644 311.7971,-100.5844 318.5428,-108.7542 322.1653,-102.7644"/>
</g>
<!-- &#45;8&#45;&gt;329 -->
<g id="edge30" class="edge">
<title>&#45;8&#45;&gt;329</title>
<path fill="none" stroke="#ff0000" stroke-width=".4873" d="M619.2483,-147.2768C616.4229,-146.0969 613.3957,-144.9631 610.5,-144.1249 513.2219,-115.9653 479.2798,-146.3525 385.5,-108.1249 383.8756,-107.4627 382.254,-106.698 380.6533,-105.8605"/>
<polygon fill="#ff0000" stroke="#ff0000" stroke-width=".4873" points="382.1988,-102.7031 371.8413,-100.4734 378.5477,-108.6755 382.1988,-102.7031"/>
</g>
<!-- &#45;8&#45;&gt;330 -->
<g id="edge31" class="edge">
<title>&#45;8&#45;&gt;330</title>
<path fill="none" stroke="#ff0000" stroke-width=".4627" d="M619.161,-147.5463C616.3401,-146.3524 613.3368,-145.1448 610.5,-144.1249 553.4468,-123.6124 485.1229,-104.8585 446.3676,-94.745"/>
<polygon fill="#ff0000" stroke="#ff0000" stroke-width=".4627" points="446.8126,-91.245 436.2546,-92.1274 445.0585,-98.0216 446.8126,-91.245"/>
</g>
<!-- &#45;9 -->
<g id="node9" class="node">
<title>&#45;9</title>
<polygon fill="#d3d3d3" stroke="#000000" points="553.5,-162.1249 529.5,-162.1249 529.5,-144.1249 553.5,-144.1249 553.5,-162.1249"/>
<text text-anchor="middle" x="541.5" y="-150.9249" font-family="Times,serif" font-size="9.00" fill="#000000">&#45;9</text>
</g>
<!-- &#45;9&#45;&gt;326 -->
<g id="edge32" class="edge">
<title>&#45;9&#45;&gt;326</title>
<path fill="none" stroke="#ff0000" stroke-width=".2449" d="M529.2332,-147.328C526.4085,-146.1455 523.3855,-144.9977 520.5,-144.1249 436.1433,-118.6091 406.7078,-142.3652 325.5,-108.1249 323.924,-107.4604 322.3491,-106.7024 320.7922,-105.8778"/>
<polygon fill="#ff0000" stroke="#ff0000" stroke-width=".2449" points="322.5487,-102.8493 312.1925,-100.6133 318.894,-108.8195 322.5487,-102.8493"/>
</g>
<!-- &#45;9&#45;&gt;327 -->
<g id="edge33" class="edge">
<title>&#45;9&#45;&gt;327</title>
<path fill="none" stroke="#ff0000" stroke-width=".4742" d="M529.2596,-147.2372C526.4336,-146.0593 523.4033,-144.9364 520.5,-144.1249 410.2684,-113.3121 371.8827,-150.3523 265.5,-108.1249 263.8696,-107.4777 262.2432,-106.7248 260.6389,-105.8963"/>
<polygon fill="#ff0000" stroke="#ff0000" stroke-width=".4742" points="262.1799,-102.7372 251.8164,-100.5352 258.5448,-108.7193 262.1799,-102.7372"/>
</g>
<!-- &#45;9&#45;&gt;329 -->
<g id="edge34" class="edge">
<title>&#45;9&#45;&gt;329</title>
<path fill="none" stroke="#ff0000" stroke-width=".3345" d="M529.1794,-147.494C526.3576,-146.3028 523.3492,-145.1096 520.5,-144.1249 461.8094,-123.8416 441.7338,-134.4642 385.5,-108.1249 383.9511,-107.3994 382.3976,-106.5932 380.8575,-105.7311"/>
<polygon fill="#ff0000" stroke="#ff0000" stroke-width=".3345" points="382.6359,-102.715 372.307,-100.356 378.9104,-108.6413 382.6359,-102.715"/>
</g>
<!-- &#45;9&#45;&gt;330 -->
<g id="edge35" class="edge">
<title>&#45;9&#45;&gt;330</title>
<path fill="none" stroke="#00ff00" stroke-width=".144" d="M529.4186,-146.7761C509.8034,-136.4683 470.5184,-115.8239 443.6203,-101.6889"/>
<polygon fill="#00ff00" stroke="#00ff00" stroke-width=".144" points="445.1555,-98.5419 434.6752,-96.9883 441.8992,-104.7384 445.1555,-98.5419"/>
</g>
<!-- &#45;10 -->
<g id="node10" class="node">
<title>&#45;10</title>
<polygon fill="#d3d3d3" stroke="#000000" points="601,-162.1249 572,-162.1249 572,-144.1249 601,-144.1249 601,-162.1249"/>
<text text-anchor="middle" x="586.5" y="-150.9249" font-family="Times,serif" font-size="9.00" fill="#000000">&#45;10</text>
</g>
<!-- &#45;10&#45;&gt;326 -->
<g id="edge36" class="edge">
<title>&#45;10&#45;&gt;326</title>
<path fill="none" stroke="#00ff00" stroke-width=".358" d="M571.9327,-147.1116C568.8555,-145.9975 565.6006,-144.9323 562.5,-144.1249 459.3971,-117.2752 424.3179,-147.9512 325.5,-108.1249 323.873,-107.4692 322.2493,-106.7095 320.6471,-105.8759"/>
<polygon fill="#00ff00" stroke="#00ff00" stroke-width=".358" points="322.1906,-102.7177 311.8305,-100.4999 318.5464,-108.6943 322.1906,-102.7177"/>
</g>
<!-- &#45;10&#45;&gt;327 -->
<g id="edge37" class="edge">
<title>&#45;10&#45;&gt;327</title>
<path fill="none" stroke="#00ff00" stroke-width=".3371" d="M571.9511,-147.0391C568.8725,-145.9303 565.6124,-144.8855 562.5,-144.1249 433.3354,-112.5576 389.5614,-155.9659 265.5,-108.1249 263.8633,-107.4937 262.232,-106.7534 260.6239,-105.9346"/>
<polygon fill="#00ff00" stroke="#00ff00" stroke-width=".3371" points="262.1603,-102.7738 251.7905,-100.6013 258.5422,-108.7662 262.1603,-102.7738"/>
</g>
<!-- &#45;10&#45;&gt;329 -->
<g id="edge38" class="edge">
<title>&#45;10&#45;&gt;329</title>
<path fill="none" stroke="#00ff00" stroke-width=".3363" d="M571.9,-147.2311C568.8252,-146.1084 565.5795,-145.0094 562.5,-144.1249 485.3427,-121.962 459.1857,-139.9817 385.5,-108.1249 383.9301,-107.4462 382.36,-106.6769 380.8068,-105.8435"/>
<polygon fill="#00ff00" stroke="#00ff00" stroke-width=".3363" points="382.5682,-102.8178 372.2182,-100.5533 378.897,-108.7779 382.5682,-102.8178"/>
</g>
<!-- &#45;10&#45;&gt;330 -->
<g id="edge39" class="edge">
<title>&#45;10&#45;&gt;330</title>
<path fill="none" stroke="#00ff00" stroke-width=".418" d="M571.9206,-147.4796C543.9406,-136.6454 482.2126,-112.7436 445.2154,-98.4178"/>
<polygon fill="#00ff00" stroke="#00ff00" stroke-width=".418" points="446.0738,-94.9971 435.4847,-94.65 443.5462,-101.5248 446.0738,-94.9971"/>
</g>
<!-- &#45;11 -->
<g id="node11" class="node">
<title>&#45;11</title>
<polygon fill="#d3d3d3" stroke="#000000" points="29,-162.1249 0,-162.1249 0,-144.1249 29,-144.1249 29,-162.1249"/>
<text text-anchor="middle" x="14.5" y="-150.9249" font-family="Times,serif" font-size="9.00" fill="#000000">&#45;11</text>
</g>
<!-- &#45;11&#45;&gt;326 -->
<g id="edge40" class="edge">
<title>&#45;11&#45;&gt;326</title>
<path fill="none" stroke="#ff0000" stroke-width=".5" d="M29.4367,-146.7431C32.0896,-145.7647 34.8514,-144.8431 37.5,-144.1249 136.5131,-117.2763 170.4611,-146.752 265.5,-108.1249 267.1251,-107.4644 268.7472,-106.701 270.3483,-105.8645"/>
<polygon fill="#ff0000" stroke="#ff0000" stroke-width=".5" points="272.4526,-108.6804 279.1615,-100.4803 268.8033,-102.7069 272.4526,-108.6804"/>
</g>
<!-- &#45;11&#45;&gt;327 -->
<g id="edge41" class="edge">
<title>&#45;11&#45;&gt;327</title>
<path fill="none" stroke="#00ff00" stroke-width=".1786" d="M29.0264,-147.2085C31.8218,-146.136 34.7389,-145.0618 37.5,-144.1249 96.1313,-124.2293 165.9632,-105.0903 205.0669,-94.7749"/>
<polygon fill="#00ff00" stroke="#00ff00" stroke-width=".1786" points="205.999,-98.1489 214.784,-92.2266 204.2232,-91.3778 205.999,-98.1489"/>
</g>
<!-- &#45;11&#45;&gt;329 -->
<g id="edge42" class="edge">
<title>&#45;11&#45;&gt;329</title>
<path fill="none" stroke="#ff0000" stroke-width=".1618" d="M29.4178,-146.6709C32.0728,-145.7005 34.8402,-144.8003 37.5,-144.1249 162.5282,-112.3768 205.2295,-154.7619 325.5,-108.1249 327.1355,-107.4907 328.7659,-106.7479 330.3732,-105.9273"/>
<polygon fill="#ff0000" stroke="#ff0000" stroke-width=".1618" points="332.4573,-108.7573 339.2046,-100.5887 328.836,-102.7668 332.4573,-108.7573"/>
</g>
<!-- &#45;11&#45;&gt;330 -->
<g id="edge43" class="edge">
<title>&#45;11&#45;&gt;330</title>
<path fill="none" stroke="#00ff00" stroke-width=".4113" d="M29.4059,-146.6231C32.0622,-145.658 34.8331,-144.772 37.5,-144.1249 188.6077,-107.4609 239.9361,-162.796 385.5,-108.1249 387.1422,-107.5081 388.7777,-106.7791 390.3891,-105.969"/>
<polygon fill="#00ff00" stroke="#00ff00" stroke-width=".4113" points="392.4596,-108.8083 399.232,-100.6606 388.8568,-102.8067 392.4596,-108.8083"/>
</g>
<!-- &#45;12 -->
<g id="node12" class="node">
<title>&#45;12</title>
<polygon fill="#d3d3d3" stroke="#000000" points="76,-162.1249 47,-162.1249 47,-144.1249 76,-144.1249 76,-162.1249"/>
<text text-anchor="middle" x="61.5" y="-150.9249" font-family="Times,serif" font-size="9.00" fill="#000000">&#45;12</text>
</g>
<!-- &#45;12&#45;&gt;326 -->
<g id="edge44" class="edge">
<title>&#45;12&#45;&gt;326</title>
<path fill="none" stroke="#00ff00" stroke-width=".5" d="M76.4617,-146.8316C79.1118,-145.8434 81.8662,-144.8956 84.5,-144.1249 163.2194,-121.091 190.1444,-140.5107 265.5,-108.1249 267.0714,-107.4496 268.6427,-106.683 270.1967,-105.8517"/>
<polygon fill="#00ff00" stroke="#00ff00" stroke-width=".5" points="272.1038,-108.7878 278.788,-100.5676 268.4365,-102.8253 272.1038,-108.7878"/>
</g>
<!-- &#45;12&#45;&gt;327 -->
<g id="edge45" class="edge">
<title>&#45;12&#45;&gt;327</title>
<path fill="none" stroke="#00ff00" stroke-width=".5" d="M76.0914,-147.3879C78.8808,-146.2989 81.779,-145.1727 84.5,-144.1249 126.5726,-127.9233 175.3755,-109.4989 205.8492,-98.0382"/>
<polygon fill="#00ff00" stroke="#00ff00" stroke-width=".5" points="207.3156,-101.2262 215.4449,-94.4318 204.8528,-94.6737 207.3156,-101.2262"/>
</g>
<!-- &#45;12&#45;&gt;329 -->
<g id="edge46" class="edge">
<title>&#45;12&#45;&gt;329</title>
<path fill="none" stroke="#00ff00" stroke-width=".1893" d="M76.4317,-146.7245C79.0852,-145.7482 81.8484,-144.8321 84.5,-144.1249 189.1419,-116.2168 225.0018,-148.4845 325.5,-108.1249 327.1278,-107.4712 328.7521,-106.7131 330.3548,-105.8806"/>
<polygon fill="#00ff00" stroke="#00ff00" stroke-width=".1893" points="332.454,-108.7002 339.1728,-100.5082 328.8119,-102.7223 332.454,-108.7002"/>
</g>
<!-- &#45;12&#45;&gt;330 -->
<g id="edge47" class="edge">
<title>&#45;12&#45;&gt;330</title>
<path fill="none" stroke="#ff0000" stroke-width=".3402" d="M76.4148,-146.6589C79.0701,-145.6899 81.8384,-144.7932 84.5,-144.1249 215.1746,-111.3128 259.7533,-156.5011 385.5,-108.1249 387.1372,-107.495 388.7689,-106.7557 390.3773,-105.9377"/>
<polygon fill="#ff0000" stroke="#ff0000" stroke-width=".3402" points="392.458,-108.77 399.2115,-100.6067 388.8413,-102.7767 392.458,-108.77"/>
</g>
<!-- &#45;13 -->
<g id="node13" class="node">
<title>&#45;13</title>
<polygon fill="#d3d3d3" stroke="#000000" points="123,-162.1249 94,-162.1249 94,-144.1249 123,-144.1249 123,-162.1249"/>
<text text-anchor="middle" x="108.5" y="-150.9249" font-family="Times,serif" font-size="9.00" fill="#000000">&#45;13</text>
</g>
<!-- &#45;13&#45;&gt;326 -->
<g id="edge48" class="edge">
<title>&#45;13&#45;&gt;326</title>
<path fill="none" stroke="#00ff00" stroke-width=".5" d="M123.146,-147.3823C126.2175,-146.2487 129.4502,-145.107 132.5,-144.1249 190.7901,-125.3529 210.0923,-134.2038 265.5,-108.1249 267.0475,-107.3965 268.5999,-106.588 270.1393,-105.7242"/>
<polygon fill="#00ff00" stroke="#00ff00" stroke-width=".5" points="272.0886,-108.6329 278.6873,-100.3438 268.3597,-102.7087 272.0886,-108.6329"/>
</g>
<!-- &#45;13&#45;&gt;327 -->
<g id="edge49" class="edge">
<title>&#45;13&#45;&gt;327</title>
<path fill="none" stroke="#00ff00" stroke-width=".3629" d="M123.0685,-145.5294C143.6103,-134.8196 181.4863,-115.0725 207.5591,-101.4791"/>
<polygon fill="#00ff00" stroke="#00ff00" stroke-width=".3629" points="209.3277,-104.5042 216.5769,-96.7775 206.0915,-98.2971 209.3277,-104.5042"/>
</g>
<!-- &#45;13&#45;&gt;329 -->
<g id="edge50" class="edge">
<title>&#45;13&#45;&gt;329</title>
<path fill="none" stroke="#ff0000" stroke-width=".1676" d="M123.089,-147.1923C126.1646,-146.0724 129.4134,-144.9844 132.5,-144.1249 216.5589,-120.717 245.1289,-142.1 325.5,-108.1249 327.0754,-107.4589 328.6498,-106.6998 330.2063,-105.8743"/>
<polygon fill="#ff0000" stroke="#ff0000" stroke-width=".1676" points="332.1057,-108.8152 338.8049,-100.6072 328.4493,-102.8461 332.1057,-108.8152"/>
</g>
<!-- &#45;13&#45;&gt;330 -->
<g id="edge51" class="edge">
<title>&#45;13&#45;&gt;330</title>
<path fill="none" stroke="#00ff00" stroke-width=".3507" d="M123.0614,-147.089C126.1391,-145.9765 129.3956,-144.9178 132.5,-144.1249 242.5446,-116.0192 279.9582,-150.0854 385.5,-108.1249 387.1301,-107.4768 388.7561,-106.7232 390.3602,-105.8942"/>
<polygon fill="#00ff00" stroke="#00ff00" stroke-width=".3507" points="392.4551,-108.7167 399.1821,-100.5315 388.819,-102.7352 392.4551,-108.7167"/>
</g>
<!-- &#45;14 -->
<g id="node14" class="node">
<title>&#45;14</title>
<polygon fill="#d3d3d3" stroke="#000000" points="170,-162.1249 141,-162.1249 141,-144.1249 170,-144.1249 170,-162.1249"/>
<text text-anchor="middle" x="155.5" y="-150.9249" font-family="Times,serif" font-size="9.00" fill="#000000">&#45;14</text>
</g>
<!-- &#45;14&#45;&gt;326 -->
<g id="edge52" class="edge">
<title>&#45;14&#45;&gt;326</title>
<path fill="none" stroke="#00ff00" stroke-width=".3297" d="M170.2377,-147.5745C196.0467,-137.7753 248.3157,-117.5551 265.5,-108.1249 266.9994,-107.3021 268.5138,-106.4189 270.0236,-105.497"/>
<polygon fill="#00ff00" stroke="#00ff00" stroke-width=".3297" points="272.0438,-108.3577 278.4844,-99.9452 268.2034,-102.5052 272.0438,-108.3577"/>
</g>
<!-- &#45;14&#45;&gt;327 -->
<g id="edge53" class="edge">
<title>&#45;14&#45;&gt;327</title>
<path fill="none" stroke="#ff0000" stroke-width=".216" d="M166.6237,-143.9182C178.0707,-134.4439 196.2737,-119.3779 211.092,-107.1133"/>
<polygon fill="#ff0000" stroke="#ff0000" stroke-width=".216" points="213.4398,-109.7135 218.9118,-100.6412 208.9765,-104.3209 213.4398,-109.7135"/>
</g>
<!-- &#45;14&#45;&gt;329 -->
<g id="edge54" class="edge">
<title>&#45;14&#45;&gt;329</title>
<path fill="none" stroke="#ff0000" stroke-width=".395" d="M170.1291,-147.3289C173.2019,-146.1991 176.4393,-145.0725 179.5,-144.1249 243.3422,-124.3579 264.7132,-135.9013 325.5,-108.1249 327.0556,-107.4141 328.6145,-106.6194 330.1588,-105.7663"/>
<polygon fill="#ff0000" stroke="#ff0000" stroke-width=".395" points="332.0944,-108.684 338.7216,-100.4178 328.386,-102.7471 332.0944,-108.684"/>
</g>
<!-- &#45;14&#45;&gt;330 -->
<g id="edge55" class="edge">
<title>&#45;14&#45;&gt;330</title>
<path fill="none" stroke="#ff0000" stroke-width=".3892" d="M170.0815,-147.165C173.1577,-146.0471 176.4086,-144.9668 179.5,-144.1249 269.177,-119.7024 299.6869,-143.8254 385.5,-108.1249 387.1196,-107.4511 388.7375,-106.6773 390.3352,-105.8327"/>
<polygon fill="#ff0000" stroke="#ff0000" stroke-width=".3892" points="392.4497,-108.6415 399.1389,-100.4254 388.7861,-102.6767 392.4497,-108.6415"/>
</g>
<!-- &#45;15 -->
<g id="node15" class="node">
<title>&#45;15</title>
<polygon fill="#d3d3d3" stroke="#000000" points="217,-162.1249 188,-162.1249 188,-144.1249 217,-144.1249 217,-162.1249"/>
<text text-anchor="middle" x="202.5" y="-150.9249" font-family="Times,serif" font-size="9.00" fill="#000000">&#45;15</text>
</g>
<!-- &#45;15&#45;&gt;326 -->
<g id="edge56" class="edge">
<title>&#45;15&#45;&gt;326</title>
<path fill="none" stroke="#00ff00" stroke-width=".2396" d="M215.4313,-143.9182C229.4138,-133.9631 252.0675,-117.8343 269.7165,-105.2688"/>
<polygon fill="#00ff00" stroke="#00ff00" stroke-width=".2396" points="271.8023,-108.0802 277.9186,-99.4291 267.7424,-102.3779 271.8023,-108.0802"/>
</g>
<!-- &#45;15&#45;&gt;327 -->
<g id="edge57" class="edge">
<title>&#45;15&#45;&gt;327</title>
<path fill="none" stroke="#ff0000" stroke-width=".178" d="M207.0885,-143.9182C210.8037,-136.4638 216.2441,-125.5478 221.3723,-115.2583"/>
<polygon fill="#ff0000" stroke="#ff0000" stroke-width=".178" points="224.6075,-116.6135 225.9356,-106.1022 218.3425,-113.491 224.6075,-116.6135"/>
</g>
<!-- &#45;15&#45;&gt;329 -->
<g id="edge58" class="edge">
<title>&#45;15&#45;&gt;329</title>
<path fill="none" stroke="#00ff00" stroke-width=".4284" d="M217.2145,-147.5804C220.281,-146.4324 223.4944,-145.2349 226.5,-144.1249 270.4195,-127.9051 284.018,-129.8331 325.5,-108.1249 327.0154,-107.3319 328.5424,-106.4723 330.0621,-105.5687"/>
<polygon fill="#00ff00" stroke="#00ff00" stroke-width=".4284" points="332.0605,-108.4444 338.5518,-100.071 328.2556,-102.5688 332.0605,-108.4444"/>
</g>
<!-- &#45;15&#45;&gt;330 -->
<g id="edge59" class="edge">
<title>&#45;15&#45;&gt;330</title>
<path fill="none" stroke="#ff0000" stroke-width=".5" d="M217.1153,-147.2835C220.1891,-146.157 223.4304,-145.0433 226.5,-144.1249 295.915,-123.3564 319.3144,-137.6078 385.5,-108.1249 387.0623,-107.4289 388.6265,-106.6461 390.175,-105.8021"/>
<polygon fill="#ff0000" stroke="#ff0000" stroke-width=".5" points="392.0987,-108.7275 398.7499,-100.4806 388.4076,-102.7798 392.0987,-108.7275"/>
</g>
<!-- 0 -->
<g id="node16" class="node">
<title>0</title>
<ellipse fill="#add8e6" stroke="#000000" cx="301.5" cy="-14.8492" rx="14.7" ry="14.7"/>
<text text-anchor="middle" x="301.5" y="-12.6492" font-family="Times,serif" font-size="9.00" fill="#000000">0</text>
</g>
<!-- 1 -->
<g id="node17" class="node">
<title>1</title>
<ellipse fill="#add8e6" stroke="#000000" cx="352.5" cy="-14.8492" rx="14.7" ry="14.7"/>
<text text-anchor="middle" x="352.5" y="-12.6492" font-family="Times,serif" font-size="9.00" fill="#000000">1</text>
</g>
<!-- 326&#45;&gt;0 -->
<g id="edge60" class="edge">
<title>326&#45;&gt;0</title>
<path fill="none" stroke="#ff0000" stroke-width=".2509" d="M297.2677,-65.6803C297.9386,-57.6235 298.7089,-48.3716 299.4069,-39.9882"/>
<polygon fill="#ff0000" stroke="#ff0000" stroke-width=".2509" points="302.8976,-40.2448 300.2395,-29.9888 295.9217,-39.6639 302.8976,-40.2448"/>
</g>
<!-- 326&#45;&gt;1 -->
<g id="edge61" class="edge">
<title>326&#45;&gt;1</title>
<path fill="none" stroke="#ff0000" stroke-width=".2644" d="M308.7202,-70.198C317.1065,-59.5956 327.9989,-45.8249 336.8208,-34.6717"/>
<polygon fill="#ff0000" stroke="#ff0000" stroke-width=".2644" points="339.6289,-36.7633 343.0876,-26.7489 334.1388,-32.4207 339.6289,-36.7633"/>
</g>
<!-- 327&#45;&gt;0 -->
<g id="edge62" class="edge">
<title>327&#45;&gt;0</title>
<path fill="none" stroke="#ff0000" stroke-width=".3611" d="M250.1475,-70.9187C260.2684,-59.8682 273.7661,-45.1307 284.3833,-33.5382"/>
<polygon fill="#ff0000" stroke="#ff0000" stroke-width=".3611" points="287.0235,-35.8375 291.1966,-26.0991 281.8614,-31.1097 287.0235,-35.8375"/>
</g>
<!-- 327&#45;&gt;1 -->
<g id="edge63" class="edge">
<title>327&#45;&gt;1</title>
<path fill="none" stroke="#ff0000" stroke-width=".3243" d="M252.7751,-74.314C256.898,-71.4144 261.317,-68.3927 265.5,-65.6985 287.0933,-51.7907 312.5328,-37.1111 330.3053,-27.1191"/>
<polygon fill="#ff0000" stroke="#ff0000" stroke-width=".3243" points="332.2938,-30.0174 339.317,-22.0848 328.8799,-23.9063 332.2938,-30.0174"/>
</g>
<!-- 329&#45;&gt;0 -->
<g id="edge64" class="edge">
<title>329&#45;&gt;0</title>
<path fill="none" stroke="#ff0000" stroke-width=".4508" d="M342.7028,-69.8339C334.9261,-59.456 324.9519,-46.1455 316.7649,-35.2201"/>
<polygon fill="#ff0000" stroke="#ff0000" stroke-width=".4508" points="319.456,-32.9748 310.6585,-27.0711 313.8543,-37.1725 319.456,-32.9748"/>
</g>
<!-- 329&#45;&gt;1 -->
<g id="edge65" class="edge">
<title>329&#45;&gt;1</title>
<path fill="none" stroke="#00ff00" stroke-width=".1232" stroke-dasharray="1,5" d="M354.6161,-65.6803C354.2807,-57.6235 353.8956,-48.3716 353.5465,-39.9882"/>
<polygon fill="#00ff00" stroke="#00ff00" stroke-width=".1232" points="357.0433,-39.8346 353.1303,-29.9888 350.0493,-40.1258 357.0433,-39.8346"/>
</g>
<!-- 330&#45;&gt;0 -->
<g id="edge66" class="edge">
<title>330&#45;&gt;0</title>
<path fill="none" stroke="#00ff00" stroke-width=".1033" d="M398.1946,-74.3606C394.0729,-71.4591 389.6621,-68.4248 385.5,-65.6985 364.6846,-52.0635 340.2968,-37.4457 323.178,-27.3987"/>
<polygon fill="#00ff00" stroke="#00ff00" stroke-width=".1033" points="324.8848,-24.3424 314.4842,-22.3226 321.3552,-30.3874 324.8848,-24.3424"/>
</g>
<!-- 330&#45;&gt;1 -->
<g id="edge67" class="edge">
<title>330&#45;&gt;1</title>
<path fill="none" stroke="#ff0000" stroke-width=".4076" d="M401.5183,-70.9187C391.9504,-59.9745 379.2208,-45.4137 369.1318,-33.8735"/>
<polygon fill="#ff0000" stroke="#ff0000" stroke-width=".4076" points="371.552,-31.3241 362.3351,-26.0991 366.2819,-35.9314 371.552,-31.3241"/>
</g>
</g>
</svg>
