<?xml version="1.0" encoding="UTF-8" standalone="no"?>
<!DOCTYPE svg PUBLIC "-//W3C//DTD SVG 1.1//EN"
 "http://www.w3.org/Graphics/SVG/1.1/DTD/svg11.dtd">
<!-- Generated by graphviz version 2.40.1 (20161225.0304)
 -->
<!-- Title: %3 Pages: 1 -->
<svg width="651pt" height="177pt"
 viewBox="0.00 0.00 650.50 177.20" xmlns="http://www.w3.org/2000/svg" xmlns:xlink="http://www.w3.org/1999/xlink">
<g id="graph0" class="graph" transform="scale(1 1) rotate(0) translate(4 173.196)">
<title>%3</title>
<polygon fill="#ffffff" stroke="transparent" points="-4,4 -4,-173.196 646.5,-173.196 646.5,4 -4,4"/>
<!-- &#45;1 -->
<g id="node1" class="node">
<title>&#45;1</title>
<polygon fill="#d3d3d3" stroke="#000000" points="24,-169.196 0,-169.196 0,-151.196 24,-151.196 24,-169.196"/>
<text text-anchor="middle" x="12" y="-157.996" font-family="Times,serif" font-size="9.00" fill="#000000">&#45;1</text>
</g>
<!-- 1268 -->
<g id="node18" class="node">
<title>1268</title>
<ellipse fill="#ffffff" stroke="#000000" cx="473" cy="-90.4472" rx="25" ry="25"/>
<text text-anchor="middle" x="473" y="-88.2472" font-family="Times,serif" font-size="9.00" fill="#000000">1268</text>
</g>
<!-- &#45;1&#45;&gt;1268 -->
<g id="edge1" class="edge">
<title>&#45;1&#45;&gt;1268</title>
<path fill="none" stroke="#ff0000" stroke-width=".1987" d="M24.2106,-154.1959C27.0381,-153.0238 30.0766,-151.9317 33,-151.196 209.1034,-106.8746 270.4228,-180.1603 440,-115.196 441.9059,-114.4658 443.7965,-113.5915 445.6514,-112.6142"/>
<polygon fill="#ff0000" stroke="#ff0000" stroke-width=".1987" points="447.9124,-115.3284 454.5365,-107.0596 444.2017,-109.3928 447.9124,-115.3284"/>
</g>
<!-- 1269 -->
<g id="node19" class="node">
<title>1269</title>
<ellipse fill="#ffffff" stroke="#000000" cx="406" cy="-90.4472" rx="25" ry="25"/>
<text text-anchor="middle" x="406" y="-88.2472" font-family="Times,serif" font-size="9.00" fill="#000000">1269</text>
</g>
<!-- &#45;1&#45;&gt;1269 -->
<g id="edge2" class="edge">
<title>&#45;1&#45;&gt;1269</title>
<path fill="none" stroke="#ff0000" stroke-width=".5" d="M24.2202,-154.2333C27.0472,-153.0593 30.083,-151.9569 33,-151.196 180.0348,-112.8378 231.5752,-170.7801 373,-115.196 374.8995,-114.4494 376.7851,-113.5623 378.6363,-112.5753"/>
<polygon fill="#ff0000" stroke="#ff0000" stroke-width=".5" points="380.9089,-115.2808 387.5112,-106.9946 377.1827,-109.3549 380.9089,-115.2808"/>
</g>
<!-- 1270 -->
<g id="node20" class="node">
<title>1270</title>
<ellipse fill="#ffffff" stroke="#000000" cx="138" cy="-90.4472" rx="25" ry="25"/>
<text text-anchor="middle" x="138" y="-88.2472" font-family="Times,serif" font-size="9.00" fill="#000000">1270</text>
</g>
<!-- &#45;1&#45;&gt;1270 -->
<g id="edge3" class="edge">
<title>&#45;1&#45;&gt;1270</title>
<path fill="none" stroke="#ff0000" stroke-width=".3112" d="M24.0814,-153.5082C43.0354,-143.0159 80.3555,-122.357 107.1187,-107.5419"/>
<polygon fill="#ff0000" stroke="#ff0000" stroke-width=".3112" points="109.0436,-110.4769 116.0975,-102.5716 105.6534,-104.3526 109.0436,-110.4769"/>
</g>
<!-- 1271 -->
<g id="node21" class="node">
<title>1271</title>
<ellipse fill="#ffffff" stroke="#000000" cx="205" cy="-90.4472" rx="25" ry="25"/>
<text text-anchor="middle" x="205" y="-88.2472" font-family="Times,serif" font-size="9.00" fill="#000000">1271</text>
</g>
<!-- &#45;1&#45;&gt;1271 -->
<g id="edge4" class="edge">
<title>&#45;1&#45;&gt;1271</title>
<path fill="none" stroke="#ff0000" stroke-width=".3302" d="M24.3154,-154.5499C27.1375,-153.3595 30.1473,-152.1704 33,-151.196 93.3901,-130.5676 114.494,-142.8647 172,-115.196 173.7908,-114.3343 175.5811,-113.3687 177.3499,-112.3318"/>
<polygon fill="#ff0000" stroke="#ff0000" stroke-width=".3302" points="179.4819,-115.119 185.9189,-106.7038 175.6391,-109.268 179.4819,-115.119"/>
</g>
<!-- 1272 -->
<g id="node22" class="node">
<title>1272</title>
<ellipse fill="#ffffff" stroke="#000000" cx="272" cy="-90.4472" rx="25" ry="25"/>
<text text-anchor="middle" x="272" y="-88.2472" font-family="Times,serif" font-size="9.00" fill="#000000">1272</text>
</g>
<!-- &#45;1&#45;&gt;1272 -->
<g id="edge5" class="edge">
<title>&#45;1&#45;&gt;1272</title>
<path fill="none" stroke="#00ff00" stroke-width=".2413" d="M24.2607,-154.3786C27.0857,-153.1971 30.1104,-152.055 33,-151.196 122.09,-124.7121 153.695,-152.0942 239,-115.196 240.824,-114.407 242.6402,-113.4983 244.4291,-112.5051"/>
<polygon fill="#00ff00" stroke="#00ff00" stroke-width=".2413" points="246.5089,-115.3297 253.0531,-106.9976 242.7413,-109.4301 246.5089,-115.3297"/>
</g>
<!-- 1273 -->
<g id="node23" class="node">
<title>1273</title>
<ellipse fill="#ffffff" stroke="#000000" cx="339" cy="-90.4472" rx="25" ry="25"/>
<text text-anchor="middle" x="339" y="-88.2472" font-family="Times,serif" font-size="9.00" fill="#000000">1273</text>
</g>
<!-- &#45;1&#45;&gt;1273 -->
<g id="edge6" class="edge">
<title>&#45;1&#45;&gt;1273</title>
<path fill="none" stroke="#00ff00" stroke-width=".5" d="M24.235,-154.2886C27.0613,-153.1117 30.093,-151.9942 33,-151.196 151.0149,-118.7881 192.6807,-161.4184 306,-115.196 307.8898,-114.4251 309.7678,-113.5192 311.6133,-112.5178"/>
<polygon fill="#00ff00" stroke="#00ff00" stroke-width=".5" points="313.9027,-115.2104 320.4728,-106.8986 310.1535,-109.2991 313.9027,-115.2104"/>
</g>
<!-- &#45;2 -->
<g id="node2" class="node">
<title>&#45;2</title>
<polygon fill="#d3d3d3" stroke="#000000" points="66,-169.196 42,-169.196 42,-151.196 66,-151.196 66,-169.196"/>
<text text-anchor="middle" x="54" y="-157.996" font-family="Times,serif" font-size="9.00" fill="#000000">&#45;2</text>
</g>
<!-- &#45;2&#45;&gt;1268 -->
<g id="edge7" class="edge">
<title>&#45;2&#45;&gt;1268</title>
<path fill="none" stroke="#00ff00" stroke-width=".4381" d="M66.2161,-154.2177C69.0434,-153.0446 72.0803,-151.9465 75,-151.196 232.877,-110.6138 288.0747,-174.2786 440,-115.196 441.9022,-114.4562 443.7899,-113.5744 445.6426,-112.5914"/>
<polygon fill="#00ff00" stroke="#00ff00" stroke-width=".4381" points="447.9104,-115.3005 454.5218,-107.0216 444.1906,-109.3707 447.9104,-115.3005"/>
</g>
<!-- &#45;2&#45;&gt;1269 -->
<g id="edge8" class="edge">
<title>&#45;2&#45;&gt;1269</title>
<path fill="none" stroke="#00ff00" stroke-width=".1612" d="M66.2286,-154.2651C69.0552,-153.0895 72.0887,-151.9784 75,-151.196 203.8354,-116.5699 249.201,-164.9086 373,-115.196 374.894,-114.4354 376.7753,-113.5375 378.6232,-112.5422"/>
<polygon fill="#00ff00" stroke="#00ff00" stroke-width=".1612" points="380.9055,-115.2402 387.4893,-106.9394 377.166,-109.3227 380.9055,-115.2402"/>
</g>
<!-- &#45;2&#45;&gt;1270 -->
<g id="edge9" class="edge">
<title>&#45;2&#45;&gt;1270</title>
<path fill="none" stroke="#ff0000" stroke-width=".1103" d="M64.9815,-151.0775C76.5697,-141.4554 95.2759,-125.9229 110.8531,-112.9884"/>
<polygon fill="#ff0000" stroke="#ff0000" stroke-width=".1103" points="113.2019,-115.5875 118.6595,-106.5064 108.7301,-110.202 113.2019,-115.5875"/>
</g>
<!-- &#45;2&#45;&gt;1271 -->
<g id="edge10" class="edge">
<title>&#45;2&#45;&gt;1271</title>
<path fill="none" stroke="#00ff00" stroke-width=".4355" d="M66.3945,-154.7636C69.2125,-153.5621 72.2006,-152.3145 75,-151.196 117.7018,-134.1337 131.6322,-137.2189 172,-115.196 173.7445,-114.2442 175.4986,-113.208 177.2397,-112.1168"/>
<polygon fill="#00ff00" stroke="#00ff00" stroke-width=".4355" points="179.4327,-114.8581 185.732,-106.3393 175.4952,-109.0705 179.4327,-114.8581"/>
</g>
<!-- &#45;2&#45;&gt;1272 -->
<g id="edge11" class="edge">
<title>&#45;2&#45;&gt;1272</title>
<path fill="none" stroke="#00ff00" stroke-width=".3029" d="M66.2891,-154.4706C69.1126,-153.2844 72.1296,-152.117 75,-151.196 146.0561,-128.3965 171.1622,-146.2898 239,-115.196 240.8065,-114.3679 242.6092,-113.4286 244.3876,-112.4118"/>
<polygon fill="#00ff00" stroke="#00ff00" stroke-width=".3029" points="246.4957,-115.2163 252.9827,-106.8395 242.6878,-109.3427 246.4957,-115.2163"/>
</g>
<!-- &#45;2&#45;&gt;1273 -->
<g id="edge12" class="edge">
<title>&#45;2&#45;&gt;1273</title>
<path fill="none" stroke="#ff0000" stroke-width=".1587" d="M66.2492,-154.3391C69.0747,-153.1597 72.1026,-152.0283 75,-151.196 174.8667,-122.5063 210.2574,-155.5668 306,-115.196 307.8311,-114.4238 309.653,-113.5283 311.4462,-112.5452"/>
<polygon fill="#ff0000" stroke="#ff0000" stroke-width=".1587" points="313.5136,-115.3786 320.0822,-107.0657 309.7633,-109.468 313.5136,-115.3786"/>
</g>
<!-- &#45;3 -->
<g id="node3" class="node">
<title>&#45;3</title>
<polygon fill="#d3d3d3" stroke="#000000" points="108,-169.196 84,-169.196 84,-151.196 108,-151.196 108,-169.196"/>
<text text-anchor="middle" x="96" y="-157.996" font-family="Times,serif" font-size="9.00" fill="#000000">&#45;3</text>
</g>
<!-- &#45;3&#45;&gt;1268 -->
<g id="edge13" class="edge">
<title>&#45;3&#45;&gt;1268</title>
<path fill="none" stroke="#ff0000" stroke-width=".232" d="M108.2233,-154.2452C111.0502,-153.0706 114.0852,-151.965 117,-151.196 256.6657,-114.3491 305.712,-168.4025 440,-115.196 441.8975,-114.4442 443.7815,-113.553 445.6314,-112.5629"/>
<polygon fill="#ff0000" stroke="#ff0000" stroke-width=".232" points="447.9077,-115.2656 454.5031,-106.974 444.1765,-109.3429 447.9077,-115.2656"/>
</g>
<!-- &#45;3&#45;&gt;1269 -->
<g id="edge14" class="edge">
<title>&#45;3&#45;&gt;1269</title>
<path fill="none" stroke="#00ff00" stroke-width=".2469" stroke-dasharray="1,5" d="M108.2401,-154.3071C111.0661,-153.1293 114.0965,-152.0067 117,-151.196 227.6639,-120.2946 266.8002,-159.0478 373,-115.196 374.8865,-114.417 376.7619,-113.5047 378.6054,-112.4985"/>
<polygon fill="#00ff00" stroke="#00ff00" stroke-width=".2469" points="380.9004,-115.1868 387.4596,-106.8665 377.1434,-109.2804 380.9004,-115.1868"/>
</g>
<!-- &#45;3&#45;&gt;1270 -->
<g id="edge15" class="edge">
<title>&#45;3&#45;&gt;1270</title>
<path fill="none" stroke="#00ff00" stroke-width=".1042" d="M101.4908,-151.0775C106.1929,-143.2688 113.2389,-131.5676 119.8905,-120.5213"/>
<polygon fill="#00ff00" stroke="#00ff00" stroke-width=".1042" points="122.9279,-122.262 125.0881,-111.8898 116.9312,-118.651 122.9279,-122.262"/>
</g>
<!-- &#45;3&#45;&gt;1271 -->
<g id="edge16" class="edge">
<title>&#45;3&#45;&gt;1271</title>
<path fill="none" stroke="#ff0000" stroke-width=".4137" d="M108.0948,-153.5733C123.3011,-145.1254 150.0704,-129.8485 172,-115.196 173.6524,-114.0919 175.3343,-112.9364 177.0199,-111.7536"/>
<polygon fill="#ff0000" stroke="#ff0000" stroke-width=".4137" points="179.3066,-114.4193 185.3593,-105.7235 175.205,-108.7468 179.3066,-114.4193"/>
</g>
<!-- &#45;3&#45;&gt;1272 -->
<g id="edge17" class="edge">
<title>&#45;3&#45;&gt;1272</title>
<path fill="none" stroke="#ff0000" stroke-width=".2604" d="M108.3402,-154.6206C111.161,-153.4265 114.164,-152.2181 117,-151.196 170.1849,-132.0278 188.4743,-140.5574 239,-115.196 240.7761,-114.3045 242.5549,-113.3154 244.3149,-112.2605"/>
<polygon fill="#ff0000" stroke="#ff0000" stroke-width=".2604" points="246.4676,-115.0324 252.8595,-106.5829 242.5935,-109.2021 246.4676,-115.0324"/>
</g>
<!-- &#45;3&#45;&gt;1273 -->
<g id="edge18" class="edge">
<title>&#45;3&#45;&gt;1273</title>
<path fill="none" stroke="#ff0000" stroke-width=".3846" d="M108.2705,-154.4112C111.095,-153.228 114.117,-152.0769 117,-151.196 198.7776,-126.2074 227.7775,-149.7393 306,-115.196 307.8179,-114.3932 309.6294,-113.4736 311.4146,-112.4721"/>
<polygon fill="#ff0000" stroke="#ff0000" stroke-width=".3846" points="313.5046,-115.2896 320.0286,-106.9416 309.7227,-109.3991 313.5046,-115.2896"/>
</g>
<!-- &#45;4 -->
<g id="node4" class="node">
<title>&#45;4</title>
<polygon fill="#d3d3d3" stroke="#000000" points="150,-169.196 126,-169.196 126,-151.196 150,-151.196 150,-169.196"/>
<text text-anchor="middle" x="138" y="-157.996" font-family="Times,serif" font-size="9.00" fill="#000000">&#45;4</text>
</g>
<!-- &#45;4&#45;&gt;1268 -->
<g id="edge19" class="edge">
<title>&#45;4&#45;&gt;1268</title>
<path fill="none" stroke="#00ff00" stroke-width=".5" d="M150.2328,-154.2806C153.0592,-153.1042 156.0916,-151.9889 159,-151.196 280.4762,-118.0786 323.3284,-162.5348 440,-115.196 441.8912,-114.4286 443.7704,-113.5254 445.6167,-112.526"/>
<polygon fill="#00ff00" stroke="#00ff00" stroke-width=".5" points="447.9037,-115.2205 454.4784,-106.9124 444.1577,-109.3071 447.9037,-115.2205"/>
</g>
<!-- &#45;4&#45;&gt;1269 -->
<g id="edge20" class="edge">
<title>&#45;4&#45;&gt;1269</title>
<path fill="none" stroke="#00ff00" stroke-width=".5" d="M150.2567,-154.365C153.0819,-153.1842 156.1077,-152.0458 159,-151.196 251.5359,-124.007 284.3575,-153.2043 373,-115.196 374.8264,-114.4128 376.6447,-113.5086 378.435,-112.5189"/>
<polygon fill="#00ff00" stroke="#00ff00" stroke-width=".5" points="380.5106,-115.3466 387.0632,-107.0211 376.7489,-109.4431 380.5106,-115.3466"/>
</g>
<!-- &#45;4&#45;&gt;1270 -->
<g id="edge21" class="edge">
<title>&#45;4&#45;&gt;1270</title>
<path fill="none" stroke="#ff0000" stroke-width=".2494" d="M138,-151.0775C138,-144.4608 138,-135.0493 138,-125.6096"/>
<polygon fill="#ff0000" stroke="#ff0000" stroke-width=".2494" points="141.5001,-125.4865 138,-115.4865 134.5001,-125.4865 141.5001,-125.4865"/>
</g>
<!-- &#45;4&#45;&gt;1271 -->
<g id="edge22" class="edge">
<title>&#45;4&#45;&gt;1271</title>
<path fill="none" stroke="#00ff00" stroke-width=".3927" d="M146.7591,-151.0775C155.3364,-142.1483 168.8029,-128.1294 180.627,-115.8201"/>
<polygon fill="#00ff00" stroke="#00ff00" stroke-width=".3927" points="183.3152,-118.074 187.7186,-108.4376 178.2669,-113.2247 183.3152,-118.074"/>
</g>
<!-- &#45;4&#45;&gt;1272 -->
<g id="edge23" class="edge">
<title>&#45;4&#45;&gt;1272</title>
<path fill="none" stroke="#00ff00" stroke-width=".1862" d="M150.3225,-154.8904C175.4329,-144.0519 230.8491,-119.9861 239,-115.196 240.7133,-114.1891 242.4429,-113.1097 244.1652,-111.9853"/>
<polygon fill="#00ff00" stroke="#00ff00" stroke-width=".1862" points="246.3935,-114.6989 252.6057,-106.1164 242.3973,-108.9517 246.3935,-114.6989"/>
</g>
<!-- &#45;4&#45;&gt;1273 -->
<g id="edge24" class="edge">
<title>&#45;4&#45;&gt;1273</title>
<path fill="none" stroke="#ff0000" stroke-width=".197" d="M150.3059,-154.5218C153.1285,-153.3329 156.1409,-152.1515 159,-151.196 222.7956,-129.8754 245.1951,-143.9573 306,-115.196 307.7964,-114.3462 309.5912,-113.3899 311.3635,-112.3601"/>
<polygon fill="#ff0000" stroke="#ff0000" stroke-width=".197" points="313.4871,-115.1534 319.9419,-106.7518 309.6566,-109.2944 313.4871,-115.1534"/>
</g>
<!-- &#45;5 -->
<g id="node5" class="node">
<title>&#45;5</title>
<polygon fill="#d3d3d3" stroke="#000000" points="192,-169.196 168,-169.196 168,-151.196 192,-151.196 192,-169.196"/>
<text text-anchor="middle" x="180" y="-157.996" font-family="Times,serif" font-size="9.00" fill="#000000">&#45;5</text>
</g>
<!-- &#45;5&#45;&gt;1268 -->
<g id="edge25" class="edge">
<title>&#45;5&#45;&gt;1268</title>
<path fill="none" stroke="#00ff00" stroke-width=".4163" d="M192.246,-154.3282C195.0717,-153.1493 198.1005,-152.0209 201,-151.196 304.3198,-121.7991 340.913,-156.6799 440,-115.196 441.8826,-114.4078 443.7551,-113.4883 445.5963,-112.4767"/>
<polygon fill="#00ff00" stroke="#00ff00" stroke-width=".4163" points="447.8976,-115.1601 454.4445,-106.83 444.1319,-109.2593 447.8976,-115.1601"/>
</g>
<!-- &#45;5&#45;&gt;1269 -->
<g id="edge26" class="edge">
<title>&#45;5&#45;&gt;1269</title>
<path fill="none" stroke="#00ff00" stroke-width=".2074" d="M192.2825,-154.4499C195.1064,-153.2646 198.1251,-152.103 201,-151.196 275.4821,-127.6975 301.8438,-147.3915 373,-115.196 374.8106,-114.3767 376.6164,-113.4443 378.3971,-112.4329"/>
<polygon fill="#00ff00" stroke="#00ff00" stroke-width=".2074" points="380.499,-115.2419 386.999,-106.8752 376.7002,-109.3623 380.499,-115.2419"/>
</g>
<!-- &#45;5&#45;&gt;1270 -->
<g id="edge27" class="edge">
<title>&#45;5&#45;&gt;1270</title>
<path fill="none" stroke="#00ff00" stroke-width=".5" d="M174.5092,-151.0775C169.8071,-143.2688 162.7611,-131.5676 156.1095,-120.5213"/>
<polygon fill="#00ff00" stroke="#00ff00" stroke-width=".5" points="159.0688,-118.651 150.9119,-111.8898 153.0721,-122.262 159.0688,-118.651"/>
</g>
<!-- &#45;5&#45;&gt;1271 -->
<g id="edge28" class="edge">
<title>&#45;5&#45;&gt;1271</title>
<path fill="none" stroke="#00ff00" stroke-width=".3847" d="M183.2683,-151.0775C185.8159,-143.9698 189.5195,-133.6371 193.1497,-123.5089"/>
<polygon fill="#00ff00" stroke="#00ff00" stroke-width=".3847" points="196.4883,-124.5674 196.5677,-113.9728 189.8988,-122.2055 196.4883,-124.5674"/>
</g>
<!-- &#45;5&#45;&gt;1272 -->
<g id="edge29" class="edge">
<title>&#45;5&#45;&gt;1272</title>
<path fill="none" stroke="#00ff00" stroke-width=".2709" d="M192.0274,-151.0775C205.1705,-141.1132 226.6737,-124.8108 244.0741,-111.6189"/>
<polygon fill="#00ff00" stroke="#00ff00" stroke-width=".2709" points="246.3776,-114.2647 252.2319,-105.4342 242.1486,-108.6866 246.3776,-114.2647"/>
</g>
<!-- &#45;5&#45;&gt;1273 -->
<g id="edge30" class="edge">
<title>&#45;5&#45;&gt;1273</title>
<path fill="none" stroke="#00ff00" stroke-width=".3577" d="M192.3741,-154.7114C195.1931,-153.5126 198.1868,-152.2793 201,-151.196 247.0376,-133.467 262.3995,-138.2779 306,-115.196 307.7563,-114.2662 309.5197,-113.2471 311.2678,-112.1692"/>
<polygon fill="#00ff00" stroke="#00ff00" stroke-width=".3577" points="313.4463,-114.9216 319.7797,-106.4281 309.5321,-109.1182 313.4463,-114.9216"/>
</g>
<!-- &#45;6 -->
<g id="node6" class="node">
<title>&#45;6</title>
<polygon fill="#d3d3d3" stroke="#000000" points="234,-169.196 210,-169.196 210,-151.196 234,-151.196 234,-169.196"/>
<text text-anchor="middle" x="222" y="-157.996" font-family="Times,serif" font-size="9.00" fill="#000000">&#45;6</text>
</g>
<!-- &#45;6&#45;&gt;1268 -->
<g id="edge31" class="edge">
<title>&#45;6&#45;&gt;1268</title>
<path fill="none" stroke="#00ff00" stroke-width=".2212" d="M234.2657,-154.3952C237.0904,-153.2128 240.1137,-152.0661 243,-151.196 328.2169,-125.5043 358.4463,-150.8467 440,-115.196 441.8209,-114.4 443.6348,-113.4857 445.4218,-112.4883"/>
<polygon fill="#00ff00" stroke="#00ff00" stroke-width=".2212" points="447.5068,-115.3093 454.0407,-106.9691 443.7319,-109.4143 447.5068,-115.3093"/>
</g>
<!-- &#45;6&#45;&gt;1269 -->
<g id="edge32" class="edge">
<title>&#45;6&#45;&gt;1269</title>
<path fill="none" stroke="#00ff00" stroke-width=".3126" d="M234.3276,-154.5852C237.1491,-153.393 240.1555,-152.1942 243,-151.196 299.5696,-131.3428 319.1951,-141.6404 373,-115.196 374.7835,-114.3194 376.5681,-113.3421 378.3326,-112.2961"/>
<polygon fill="#00ff00" stroke="#00ff00" stroke-width=".3126" points="380.475,-115.0756 386.8895,-106.6433 376.6166,-109.235 380.475,-115.0756"/>
</g>
<!-- &#45;6&#45;&gt;1270 -->
<g id="edge33" class="edge">
<title>&#45;6&#45;&gt;1270</title>
<path fill="none" stroke="#00ff00" stroke-width=".3251" d="M211.0185,-151.0775C199.4303,-141.4554 180.7241,-125.9229 165.1469,-112.9884"/>
<polygon fill="#00ff00" stroke="#00ff00" stroke-width=".3251" points="167.2699,-110.202 157.3405,-106.5064 162.7981,-115.5875 167.2699,-110.202"/>
</g>
<!-- &#45;6&#45;&gt;1271 -->
<g id="edge34" class="edge">
<title>&#45;6&#45;&gt;1271</title>
<path fill="none" stroke="#00ff00" stroke-width=".5" d="M219.7775,-151.0775C218.09,-144.1539 215.6567,-134.1701 213.25,-124.296"/>
<polygon fill="#00ff00" stroke="#00ff00" stroke-width=".5" points="216.6495,-123.4627 210.8809,-114.5759 209.8486,-125.1203 216.6495,-123.4627"/>
</g>
<!-- &#45;6&#45;&gt;1272 -->
<g id="edge35" class="edge">
<title>&#45;6&#45;&gt;1272</title>
<path fill="none" stroke="#ff0000" stroke-width=".1222" d="M228.5366,-151.0775C234.4156,-142.8764 243.3725,-130.3819 251.6307,-118.8618"/>
<polygon fill="#ff0000" stroke="#ff0000" stroke-width=".1222" points="254.4849,-120.8876 257.4666,-110.721 248.7957,-116.8093 254.4849,-120.8876"/>
</g>
<!-- &#45;6&#45;&gt;1273 -->
<g id="edge36" class="edge">
<title>&#45;6&#45;&gt;1273</title>
<path fill="none" stroke="#ff0000" stroke-width=".4278" d="M234.007,-154.4827C250.6056,-146.4249 281.3093,-130.9399 306,-115.196 307.6756,-114.1275 309.3757,-112.9999 311.0753,-111.8385"/>
<polygon fill="#ff0000" stroke="#ff0000" stroke-width=".4278" points="313.3412,-114.5216 319.4533,-105.8675 309.2785,-108.8212 313.3412,-114.5216"/>
</g>
<!-- &#45;7 -->
<g id="node7" class="node">
<title>&#45;7</title>
<polygon fill="#d3d3d3" stroke="#000000" points="276,-169.196 252,-169.196 252,-151.196 276,-151.196 276,-169.196"/>
<text text-anchor="middle" x="264" y="-157.996" font-family="Times,serif" font-size="9.00" fill="#000000">&#45;7</text>
</g>
<!-- &#45;7&#45;&gt;1268 -->
<g id="edge37" class="edge">
<title>&#45;7&#45;&gt;1268</title>
<path fill="none" stroke="#00ff00" stroke-width=".3345" d="M276.2975,-154.4964C279.1206,-153.3088 282.1352,-152.1344 285,-151.196 352.2087,-129.1806 375.889,-145.0533 440,-115.196 441.8015,-114.357 443.6002,-113.4091 445.3755,-112.3858"/>
<polygon fill="#00ff00" stroke="#00ff00" stroke-width=".3345" points="447.4915,-115.1846 453.9623,-106.7953 443.6722,-109.3183 447.4915,-115.1846"/>
</g>
<!-- &#45;7&#45;&gt;1269 -->
<g id="edge38" class="edge">
<title>&#45;7&#45;&gt;1269</title>
<path fill="none" stroke="#00ff00" stroke-width=".2162" d="M276.4224,-154.8318C279.239,-153.6267 282.2194,-152.3605 285,-151.196 323.9772,-134.8724 336.2425,-136.0422 373,-115.196 374.7286,-114.2156 376.4702,-113.157 378.2017,-112.0486"/>
<polygon fill="#00ff00" stroke="#00ff00" stroke-width=".2162" points="380.4132,-114.7755 386.6677,-106.2237 376.4454,-109.0086 380.4132,-114.7755"/>
</g>
<!-- &#45;7&#45;&gt;1270 -->
<g id="edge39" class="edge">
<title>&#45;7&#45;&gt;1270</title>
<path fill="none" stroke="#ff0000" stroke-width=".5" d="M251.8874,-154.6893C230.198,-144.7704 185.6295,-124.1065 171,-115.196 169.3028,-114.1622 167.5857,-113.0618 165.8731,-111.9212"/>
<polygon fill="#ff0000" stroke="#ff0000" stroke-width=".5" points="167.6533,-108.8944 157.4593,-106.0078 163.6282,-114.6214 167.6533,-108.8944"/>
</g>
<!-- &#45;7&#45;&gt;1271 -->
<g id="edge40" class="edge">
<title>&#45;7&#45;&gt;1271</title>
<path fill="none" stroke="#ff0000" stroke-width=".3443" d="M256.2868,-151.0775C249.0792,-142.5568 237.9511,-129.4014 227.9003,-117.5196"/>
<polygon fill="#ff0000" stroke="#ff0000" stroke-width=".3443" points="230.3062,-114.9442 221.1756,-109.5698 224.9617,-119.4651 230.3062,-114.9442"/>
</g>
<!-- &#45;7&#45;&gt;1272 -->
<g id="edge41" class="edge">
<title>&#45;7&#45;&gt;1272</title>
<path fill="none" stroke="#00ff00" stroke-width=".5" d="M265.0459,-151.0775C265.811,-144.4066 266.902,-134.8948 267.9936,-125.3775"/>
<polygon fill="#00ff00" stroke="#00ff00" stroke-width=".5" points="271.5006,-125.5159 269.163,-115.1822 264.5462,-124.7182 271.5006,-125.5159"/>
</g>
<!-- &#45;7&#45;&gt;1273 -->
<g id="edge42" class="edge">
<title>&#45;7&#45;&gt;1273</title>
<path fill="none" stroke="#00ff00" stroke-width=".4442" d="M273.8049,-151.0775C283.7625,-141.8171 299.6066,-127.0825 313.1816,-114.4579"/>
<polygon fill="#00ff00" stroke="#00ff00" stroke-width=".4442" points="315.9113,-116.699 320.8506,-107.3259 311.1442,-111.573 315.9113,-116.699"/>
</g>
<!-- &#45;8 -->
<g id="node8" class="node">
<title>&#45;8</title>
<polygon fill="#d3d3d3" stroke="#000000" points="318,-169.196 294,-169.196 294,-151.196 318,-151.196 318,-169.196"/>
<text text-anchor="middle" x="306" y="-157.996" font-family="Times,serif" font-size="9.00" fill="#000000">&#45;8</text>
</g>
<!-- &#45;8&#45;&gt;1268 -->
<g id="edge43" class="edge">
<title>&#45;8&#45;&gt;1268</title>
<path fill="none" stroke="#00ff00" stroke-width=".4628" d="M318.3567,-154.6657C321.1767,-153.4693 324.1751,-152.2485 327,-151.196 376.3923,-132.7929 393.1488,-139.3463 440,-115.196 441.7664,-114.2854 443.5376,-113.2815 445.2918,-112.2151"/>
<polygon fill="#00ff00" stroke="#00ff00" stroke-width=".4628" points="447.4574,-114.9773 453.8204,-106.506 443.5634,-109.1603 447.4574,-114.9773"/>
</g>
<!-- &#45;8&#45;&gt;1269 -->
<g id="edge44" class="edge">
<title>&#45;8&#45;&gt;1269</title>
<path fill="none" stroke="#ff0000" stroke-width=".4487" d="M318.4803,-152.0927C332.0362,-143.2266 354.2634,-128.5004 373,-115.196 374.6203,-114.0454 376.2771,-112.8535 377.9435,-111.6427"/>
<polygon fill="#ff0000" stroke="#ff0000" stroke-width=".4487" points="380.2564,-114.2859 386.2298,-105.5355 376.1033,-108.651 380.2564,-114.2859"/>
</g>
<!-- &#45;8&#45;&gt;1270 -->
<g id="edge45" class="edge">
<title>&#45;8&#45;&gt;1270</title>
<path fill="none" stroke="#00ff00" stroke-width=".5" d="M293.6453,-154.6603C290.8252,-153.4642 287.8262,-152.2449 285,-151.196 235.1872,-132.7083 218.2586,-139.4805 171,-115.196 169.2324,-114.2877 167.4603,-113.2855 165.7054,-112.2205"/>
<polygon fill="#00ff00" stroke="#00ff00" stroke-width=".5" points="167.433,-109.1652 157.1749,-106.5151 163.5414,-114.9838 167.433,-109.1652"/>
</g>
<!-- &#45;8&#45;&gt;1271 -->
<g id="edge46" class="edge">
<title>&#45;8&#45;&gt;1271</title>
<path fill="none" stroke="#ff0000" stroke-width=".3993" d="M293.8176,-152.4416C280.097,-143.6374 257.207,-128.7359 238,-115.196 236.3758,-114.0509 234.7159,-112.8634 233.0472,-111.6559"/>
<polygon fill="#ff0000" stroke="#ff0000" stroke-width=".3993" points="234.8842,-108.6623 224.7544,-105.5579 230.7373,-114.3018 234.8842,-108.6623"/>
</g>
<!-- &#45;8&#45;&gt;1272 -->
<g id="edge47" class="edge">
<title>&#45;8&#45;&gt;1272</title>
<path fill="none" stroke="#00ff00" stroke-width=".137" d="M301.5551,-151.0775C297.9075,-143.5948 292.5176,-132.5378 287.3359,-121.9078"/>
<polygon fill="#00ff00" stroke="#00ff00" stroke-width=".137" points="290.4129,-120.2322 282.8849,-112.7769 284.1206,-123.2995 290.4129,-120.2322"/>
</g>
<!-- &#45;8&#45;&gt;1273 -->
<g id="edge48" class="edge">
<title>&#45;8&#45;&gt;1273</title>
<path fill="none" stroke="#ff0000" stroke-width=".1055" d="M310.3142,-151.0775C313.8274,-143.6519 319.0061,-132.7064 323.9999,-122.1514"/>
<polygon fill="#ff0000" stroke="#ff0000" stroke-width=".1055" points="327.1814,-123.6108 328.2944,-113.0746 320.8538,-120.617 327.1814,-123.6108"/>
</g>
<!-- &#45;9 -->
<g id="node9" class="node">
<title>&#45;9</title>
<polygon fill="#d3d3d3" stroke="#000000" points="360,-169.196 336,-169.196 336,-151.196 360,-151.196 360,-169.196"/>
<text text-anchor="middle" x="348" y="-157.996" font-family="Times,serif" font-size="9.00" fill="#000000">&#45;9</text>
</g>
<!-- &#45;9&#45;&gt;1268 -->
<g id="edge49" class="edge">
<title>&#45;9&#45;&gt;1268</title>
<path fill="none" stroke="#00ff00" stroke-width=".438" stroke-dasharray="1,5" d="M360.293,-155.0699C378.3081,-147.3628 412.7016,-131.9026 440,-115.196 441.695,-114.1586 443.4103,-113.0553 445.1216,-111.9126"/>
<polygon fill="#00ff00" stroke="#00ff00" stroke-width=".438" points="447.3688,-114.6111 453.5318,-105.9932 443.3398,-108.8868 447.3688,-114.6111"/>
</g>
<!-- &#45;9&#45;&gt;1269 -->
<g id="edge50" class="edge">
<title>&#45;9&#45;&gt;1269</title>
<path fill="none" stroke="#00ff00" stroke-width=".2875" d="M355.5825,-151.0775C362.6679,-142.5568 373.6074,-129.4014 383.4878,-117.5196"/>
<polygon fill="#00ff00" stroke="#00ff00" stroke-width=".2875" points="386.3958,-119.4966 390.0985,-109.5698 381.0136,-115.0209 386.3958,-119.4966"/>
</g>
<!-- &#45;9&#45;&gt;1270 -->
<g id="edge51" class="edge">
<title>&#45;9&#45;&gt;1270</title>
<path fill="none" stroke="#00ff00" stroke-width=".5" d="M335.7035,-154.4934C332.8804,-153.306 329.8655,-152.1323 327,-151.196 259.3642,-129.0936 235.5247,-145.1905 171,-115.196 169.1979,-114.3583 167.3988,-113.4114 165.6231,-112.3888"/>
<polygon fill="#00ff00" stroke="#00ff00" stroke-width=".5" points="167.326,-109.3211 157.0353,-106.8005 163.508,-115.1883 167.326,-109.3211"/>
</g>
<!-- &#45;9&#45;&gt;1271 -->
<g id="edge52" class="edge">
<title>&#45;9&#45;&gt;1271</title>
<path fill="none" stroke="#00ff00" stroke-width=".3426" d="M335.581,-154.8236C332.7642,-153.619 329.7829,-152.355 327,-151.196 287.6107,-134.791 275.1571,-136.172 238,-115.196 236.2694,-114.219 234.5263,-113.1631 232.7937,-112.0567"/>
<polygon fill="#00ff00" stroke="#00ff00" stroke-width=".3426" points="234.5486,-109.016 224.3245,-106.2375 230.5843,-114.7853 234.5486,-109.016"/>
</g>
<!-- &#45;9&#45;&gt;1272 -->
<g id="edge53" class="edge">
<title>&#45;9&#45;&gt;1272</title>
<path fill="none" stroke="#ff0000" stroke-width=".4609" d="M338.0643,-151.0775C327.8797,-141.7306 311.6181,-126.8066 297.7776,-114.1045"/>
<polygon fill="#ff0000" stroke="#ff0000" stroke-width=".4609" points="300.1256,-111.5088 290.3914,-107.3259 295.3925,-116.6661 300.1256,-111.5088"/>
</g>
<!-- &#45;9&#45;&gt;1273 -->
<g id="edge54" class="edge">
<title>&#45;9&#45;&gt;1273</title>
<path fill="none" stroke="#ff0000" stroke-width=".4345" d="M346.8234,-151.0775C345.9626,-144.4066 344.7353,-134.8948 343.5072,-125.3775"/>
<polygon fill="#ff0000" stroke="#ff0000" stroke-width=".4345" points="346.9427,-124.6521 342.1917,-115.1822 340.0003,-125.5479 346.9427,-124.6521"/>
</g>
<!-- &#45;10 -->
<g id="node10" class="node">
<title>&#45;10</title>
<polygon fill="#d3d3d3" stroke="#000000" points="407.5,-169.196 378.5,-169.196 378.5,-151.196 407.5,-151.196 407.5,-169.196"/>
<text text-anchor="middle" x="393" y="-157.996" font-family="Times,serif" font-size="9.00" fill="#000000">&#45;10</text>
</g>
<!-- &#45;10&#45;&gt;1268 -->
<g id="edge55" class="edge">
<title>&#45;10&#45;&gt;1268</title>
<path fill="none" stroke="#ff0000" stroke-width=".2087" d="M403.4586,-151.0775C414.3223,-141.606 431.7544,-126.4076 446.4471,-113.5976"/>
<polygon fill="#ff0000" stroke="#ff0000" stroke-width=".2087" points="449.0314,-115.988 454.2688,-106.7782 444.4312,-110.7117 449.0314,-115.988"/>
</g>
<!-- &#45;10&#45;&gt;1269 -->
<g id="edge56" class="edge">
<title>&#45;10&#45;&gt;1269</title>
<path fill="none" stroke="#ff0000" stroke-width=".2646" d="M394.6995,-151.0775C395.9663,-144.2808 397.7828,-134.5351 399.5899,-124.8392"/>
<polygon fill="#ff0000" stroke="#ff0000" stroke-width=".2646" points="403.0548,-125.3507 401.4464,-114.8787 396.1733,-124.0681 403.0548,-125.3507"/>
</g>
<!-- &#45;10&#45;&gt;1270 -->
<g id="edge57" class="edge">
<title>&#45;10&#45;&gt;1270</title>
<path fill="none" stroke="#00ff00" stroke-width=".3079" d="M378.414,-154.2524C375.3382,-153.1333 372.0885,-152.0484 369,-151.196 282.7813,-127.3981 252.9703,-150.9852 171,-115.196 169.1788,-114.4008 167.3646,-113.4872 165.5774,-112.4902"/>
<polygon fill="#00ff00" stroke="#00ff00" stroke-width=".3079" points="167.267,-109.4161 156.9578,-106.9724 163.493,-115.3116 167.267,-109.4161"/>
</g>
<!-- &#45;10&#45;&gt;1271 -->
<g id="edge58" class="edge">
<title>&#45;10&#45;&gt;1271</title>
<path fill="none" stroke="#00ff00" stroke-width=".3166" d="M378.351,-154.4625C375.2797,-153.3282 372.0479,-152.184 369,-151.196 311.5619,-132.5763 292.2155,-141.7761 238,-115.196 236.2156,-114.3211 234.4304,-113.3452 232.6653,-112.3003"/>
<polygon fill="#00ff00" stroke="#00ff00" stroke-width=".3166" points="234.3808,-109.2389 224.107,-106.6504 230.5242,-115.0807 234.3808,-109.2389"/>
</g>
<!-- &#45;10&#45;&gt;1272 -->
<g id="edge59" class="edge">
<title>&#45;10&#45;&gt;1272</title>
<path fill="none" stroke="#00ff00" stroke-width=".4876" d="M378.2567,-153.6028C360.4316,-145.4191 329.7449,-130.6439 305,-115.196 303.3143,-114.1436 301.6062,-113.0285 299.9005,-111.8768"/>
<polygon fill="#00ff00" stroke="#00ff00" stroke-width=".4876" points="301.6895,-108.855 291.5057,-105.9324 297.6442,-114.5678 301.6895,-108.855"/>
</g>
<!-- &#45;10&#45;&gt;1273 -->
<g id="edge60" class="edge">
<title>&#45;10&#45;&gt;1273</title>
<path fill="none" stroke="#00ff00" stroke-width=".2726" d="M385.9404,-151.0775C379.4991,-142.7576 369.6366,-130.0188 360.6115,-118.3616"/>
<polygon fill="#00ff00" stroke="#00ff00" stroke-width=".2726" points="363.1381,-115.9077 354.2487,-110.1431 357.603,-120.193 363.1381,-115.9077"/>
</g>
<!-- &#45;11 -->
<g id="node11" class="node">
<title>&#45;11</title>
<polygon fill="#d3d3d3" stroke="#000000" points="642.5,-169.196 613.5,-169.196 613.5,-151.196 642.5,-151.196 642.5,-169.196"/>
<text text-anchor="middle" x="628" y="-157.996" font-family="Times,serif" font-size="9.00" fill="#000000">&#45;11</text>
</g>
<!-- &#45;11&#45;&gt;1268 -->
<g id="edge61" class="edge">
<title>&#45;11&#45;&gt;1268</title>
<path fill="none" stroke="#00ff00" stroke-width=".4647" d="M613.418,-153.6342C588.7253,-142.5227 538.1301,-119.7552 504.8978,-104.801"/>
<polygon fill="#00ff00" stroke="#00ff00" stroke-width=".4647" points="506.1612,-101.5315 495.6057,-100.6196 503.2887,-107.915 506.1612,-101.5315"/>
</g>
<!-- &#45;11&#45;&gt;1269 -->
<g id="edge62" class="edge">
<title>&#45;11&#45;&gt;1269</title>
<path fill="none" stroke="#00ff00" stroke-width=".2866" d="M613.0269,-153.9409C610.3781,-152.9485 607.6271,-151.9893 605,-151.196 532.7306,-129.3719 507.6669,-146.565 439,-115.196 437.1924,-114.3702 435.389,-113.4327 433.61,-112.4173"/>
<polygon fill="#00ff00" stroke="#00ff00" stroke-width=".2866" points="435.309,-109.3477 425.0131,-106.8488 431.5034,-115.2229 435.309,-109.3477"/>
</g>
<!-- &#45;11&#45;&gt;1271 -->
<g id="edge63" class="edge">
<title>&#45;11&#45;&gt;1271</title>
<path fill="none" stroke="#00ff00" stroke-width=".1639" d="M613.097,-153.6822C610.4404,-152.7185 607.6686,-151.836 605,-151.196 445.6254,-112.9732 390.7656,-174.5585 238,-115.196 236.0976,-114.4567 234.2098,-113.5753 232.3569,-112.5926"/>
<polygon fill="#00ff00" stroke="#00ff00" stroke-width=".1639" points="233.8088,-109.3718 223.4774,-107.0236 230.0895,-115.302 233.8088,-109.3718"/>
</g>
<!-- &#45;11&#45;&gt;1272 -->
<g id="edge64" class="edge">
<title>&#45;11&#45;&gt;1272</title>
<path fill="none" stroke="#ff0000" stroke-width=".1711" d="M613.085,-153.7309C610.4297,-152.7617 607.6615,-151.8648 605,-151.196 474.7598,-118.4657 429.6378,-165.188 305,-115.196 303.1057,-114.4362 301.2242,-113.5388 299.3761,-112.5439"/>
<polygon fill="#ff0000" stroke="#ff0000" stroke-width=".1711" points="300.8331,-109.3245 290.5095,-106.9423 297.0943,-115.2424 300.8331,-109.3245"/>
</g>
<!-- &#45;11&#45;&gt;1273 -->
<g id="edge65" class="edge">
<title>&#45;11&#45;&gt;1273</title>
<path fill="none" stroke="#ff0000" stroke-width=".257" d="M613.0653,-153.8068C610.4122,-152.8292 607.6498,-151.9098 605,-151.196 503.8226,-123.94 468.5785,-155.845 372,-115.196 370.1684,-114.425 368.3461,-113.5304 366.5526,-112.5481"/>
<polygon fill="#ff0000" stroke="#ff0000" stroke-width=".257" points="368.2352,-109.4707 357.9158,-107.0705 364.4861,-115.3821 368.2352,-109.4707"/>
</g>
<!-- &#45;12 -->
<g id="node12" class="node">
<title>&#45;12</title>
<polygon fill="#d3d3d3" stroke="#000000" points="454.5,-169.196 425.5,-169.196 425.5,-151.196 454.5,-151.196 454.5,-169.196"/>
<text text-anchor="middle" x="440" y="-157.996" font-family="Times,serif" font-size="9.00" fill="#000000">&#45;12</text>
</g>
<!-- &#45;12&#45;&gt;1268 -->
<g id="edge66" class="edge">
<title>&#45;12&#45;&gt;1268</title>
<path fill="none" stroke="#ff0000" stroke-width=".1845" d="M444.3142,-151.0775C447.8274,-143.6519 453.0061,-132.7064 457.9999,-122.1514"/>
<polygon fill="#ff0000" stroke="#ff0000" stroke-width=".1845" points="461.1814,-123.6108 462.2944,-113.0746 454.8538,-120.617 461.1814,-123.6108"/>
</g>
<!-- &#45;12&#45;&gt;1269 -->
<g id="edge67" class="edge">
<title>&#45;12&#45;&gt;1269</title>
<path fill="none" stroke="#00ff00" stroke-width=".4204" d="M435.5551,-151.0775C431.9075,-143.5948 426.5176,-132.5378 421.3359,-121.9078"/>
<polygon fill="#00ff00" stroke="#00ff00" stroke-width=".4204" points="424.4129,-120.2322 416.8849,-112.7769 418.1206,-123.2995 424.4129,-120.2322"/>
</g>
<!-- &#45;12&#45;&gt;1270 -->
<g id="edge68" class="edge">
<title>&#45;12&#45;&gt;1270</title>
<path fill="none" stroke="#00ff00" stroke-width=".4216" stroke-dasharray="1,5" d="M425.07,-153.7889C422.4164,-152.8133 419.6526,-151.8992 417,-151.196 310.1918,-122.88 273.0149,-157.6546 171,-115.196 169.1157,-114.4117 167.242,-113.4954 165.3998,-112.486"/>
<polygon fill="#00ff00" stroke="#00ff00" stroke-width=".4216" points="166.8632,-109.2683 156.549,-106.8457 163.1012,-115.1715 166.8632,-109.2683"/>
</g>
<!-- &#45;12&#45;&gt;1271 -->
<g id="edge69" class="edge">
<title>&#45;12&#45;&gt;1271</title>
<path fill="none" stroke="#ff0000" stroke-width=".2737" d="M425.0369,-153.9075C422.387,-152.9187 419.633,-151.9694 417,-151.196 339.1415,-128.3237 312.0636,-148.3572 238,-115.196 236.1862,-114.3839 234.3779,-113.457 232.5952,-112.4499"/>
<polygon fill="#ff0000" stroke="#ff0000" stroke-width=".2737" points="234.29,-109.3782 223.9881,-106.904 230.4985,-115.2626 234.29,-109.3782"/>
</g>
<!-- &#45;12&#45;&gt;1272 -->
<g id="edge70" class="edge">
<title>&#45;12&#45;&gt;1272</title>
<path fill="none" stroke="#00ff00" stroke-width=".1496" d="M425.4506,-154.3457C422.6573,-153.2672 419.7469,-152.1738 417,-151.196 367.742,-133.661 351.444,-139.2123 305,-115.196 303.2348,-114.2832 301.4645,-113.2774 299.711,-112.2097"/>
<polygon fill="#00ff00" stroke="#00ff00" stroke-width=".1496" points="301.4402,-109.1553 291.1843,-106.4968 297.5439,-114.9707 301.4402,-109.1553"/>
</g>
<!-- &#45;12&#45;&gt;1273 -->
<g id="edge71" class="edge">
<title>&#45;12&#45;&gt;1273</title>
<path fill="none" stroke="#ff0000" stroke-width=".1133" d="M425.7714,-151.1271C411.8993,-142.2043 390.2814,-128.0834 372,-115.196 370.3758,-114.0509 368.7159,-112.8634 367.0472,-111.6559"/>
<polygon fill="#ff0000" stroke="#ff0000" stroke-width=".1133" points="368.8842,-108.6623 358.7544,-105.5579 364.7373,-114.3018 368.8842,-108.6623"/>
</g>
<!-- &#45;13 -->
<g id="node13" class="node">
<title>&#45;13</title>
<polygon fill="#d3d3d3" stroke="#000000" points="501.5,-169.196 472.5,-169.196 472.5,-151.196 501.5,-151.196 501.5,-169.196"/>
<text text-anchor="middle" x="487" y="-157.996" font-family="Times,serif" font-size="9.00" fill="#000000">&#45;13</text>
</g>
<!-- &#45;13&#45;&gt;1268 -->
<g id="edge72" class="edge">
<title>&#45;13&#45;&gt;1268</title>
<path fill="none" stroke="#00ff00" stroke-width=".2" stroke-dasharray="1,5" d="M485.1697,-151.0775C483.8055,-144.2808 481.8493,-134.5351 479.9032,-124.8392"/>
<polygon fill="#00ff00" stroke="#00ff00" stroke-width=".2" points="483.3035,-123.9943 477.9039,-114.8787 476.4404,-125.3719 483.3035,-123.9943"/>
</g>
<!-- &#45;13&#45;&gt;1269 -->
<g id="edge73" class="edge">
<title>&#45;13&#45;&gt;1269</title>
<path fill="none" stroke="#ff0000" stroke-width=".1509" d="M476.4107,-151.0775C465.4112,-141.606 447.7612,-126.4076 432.8848,-113.5976"/>
<polygon fill="#ff0000" stroke="#ff0000" stroke-width=".1509" points="434.8269,-110.6512 424.9653,-106.7782 430.2593,-115.9556 434.8269,-110.6512"/>
</g>
<!-- &#45;13&#45;&gt;1270 -->
<g id="edge74" class="edge">
<title>&#45;13&#45;&gt;1270</title>
<path fill="none" stroke="#ff0000" stroke-width=".1566" d="M472.0834,-153.7372C469.4283,-152.7674 466.6605,-151.8686 464,-151.196 336.8004,-119.0387 292.7022,-164.2102 171,-115.196 169.1068,-114.4335 167.2261,-113.5341 165.3787,-112.5376"/>
<polygon fill="#ff0000" stroke="#ff0000" stroke-width=".1566" points="166.8363,-109.3183 156.5138,-106.9318 163.095,-115.2347 166.8363,-109.3183"/>
</g>
<!-- &#45;13&#45;&gt;1271 -->
<g id="edge75" class="edge">
<title>&#45;13&#45;&gt;1271</title>
<path fill="none" stroke="#ff0000" stroke-width=".427" d="M472.0624,-153.8172C469.4097,-152.8385 466.6481,-151.916 464,-151.196 365.8524,-124.5102 331.6533,-154.8715 238,-115.196 236.1702,-114.4208 234.3493,-113.5228 232.5569,-112.5379"/>
<polygon fill="#ff0000" stroke="#ff0000" stroke-width=".427" points="234.2407,-109.461 223.9231,-107.0532 230.4872,-115.3696 234.2407,-109.461"/>
</g>
<!-- &#45;13&#45;&gt;1272 -->
<g id="edge76" class="edge">
<title>&#45;13&#45;&gt;1272</title>
<path fill="none" stroke="#00ff00" stroke-width=".3393" stroke-dasharray="1,5" d="M472.0208,-153.9611C469.3726,-152.9664 466.6234,-152.0012 464,-151.196 394.7343,-129.9346 370.7664,-145.6024 305,-115.196 303.1962,-114.362 301.3957,-113.418 299.619,-112.3977"/>
<polygon fill="#00ff00" stroke="#00ff00" stroke-width=".3393" points="301.3206,-109.3294 291.0283,-106.8155 297.5065,-115.1991 301.3206,-109.3294"/>
</g>
<!-- &#45;13&#45;&gt;1273 -->
<g id="edge77" class="edge">
<title>&#45;13&#45;&gt;1273</title>
<path fill="none" stroke="#00ff00" stroke-width=".426" d="M472.4785,-154.5208C441.6199,-142.46 372.2912,-115.3582 372,-115.196 370.2639,-114.2289 368.5164,-113.1807 366.7805,-112.0803"/>
<polygon fill="#00ff00" stroke="#00ff00" stroke-width=".426" points="368.5312,-109.0373 358.3022,-106.2774 364.5775,-114.8138 368.5312,-109.0373"/>
</g>
<!-- &#45;14 -->
<g id="node14" class="node">
<title>&#45;14</title>
<polygon fill="#d3d3d3" stroke="#000000" points="548.5,-169.196 519.5,-169.196 519.5,-151.196 548.5,-151.196 548.5,-169.196"/>
<text text-anchor="middle" x="534" y="-157.996" font-family="Times,serif" font-size="9.00" fill="#000000">&#45;14</text>
</g>
<!-- &#45;14&#45;&gt;1268 -->
<g id="edge78" class="edge">
<title>&#45;14&#45;&gt;1268</title>
<path fill="none" stroke="#00ff00" stroke-width=".2685" stroke-dasharray="1,5" d="M526.0253,-151.0775C518.4487,-142.4143 506.6821,-128.9601 496.1562,-116.9245"/>
<polygon fill="#00ff00" stroke="#00ff00" stroke-width=".2685" points="498.6926,-114.5082 489.4748,-109.2849 493.4235,-119.1164 498.6926,-114.5082"/>
</g>
<!-- &#45;14&#45;&gt;1269 -->
<g id="edge79" class="edge">
<title>&#45;14&#45;&gt;1269</title>
<path fill="none" stroke="#ff0000" stroke-width=".2901" stroke-dasharray="1,5" d="M519.3717,-154.3524C500.3052,-146.4948 466.1884,-131.6018 439,-115.196 437.2985,-114.1693 435.5781,-113.0743 433.863,-111.938"/>
<polygon fill="#ff0000" stroke="#ff0000" stroke-width=".2901" points="435.6398,-108.9094 425.442,-106.0362 431.6223,-114.6417 435.6398,-108.9094"/>
</g>
<!-- &#45;14&#45;&gt;1270 -->
<g id="edge80" class="edge">
<title>&#45;14&#45;&gt;1270</title>
<path fill="none" stroke="#ff0000" stroke-width=".4439" d="M519.0928,-153.6996C516.4366,-152.7339 513.6661,-151.8462 511,-151.196 363.3721,-115.1881 312.4248,-170.7801 171,-115.196 169.1005,-114.4494 167.2149,-113.5623 165.3637,-112.5753"/>
<polygon fill="#ff0000" stroke="#ff0000" stroke-width=".4439" points="166.8173,-109.3549 156.4888,-106.9946 163.0911,-115.2808 166.8173,-109.3549"/>
</g>
<!-- &#45;14&#45;&gt;1271 -->
<g id="edge81" class="edge">
<title>&#45;14&#45;&gt;1271</title>
<path fill="none" stroke="#ff0000" stroke-width=".3542" d="M519.0783,-153.7571C516.4238,-152.785 513.6575,-151.8803 511,-151.196 392.4832,-120.6748 351.3193,-161.4184 238,-115.196 236.1102,-114.4251 234.2322,-113.5192 232.3867,-112.5178"/>
<polygon fill="#ff0000" stroke="#ff0000" stroke-width=".3542" points="233.8465,-109.2991 223.5272,-106.8986 230.0973,-115.2104 233.8465,-109.2991"/>
</g>
<!-- &#45;14&#45;&gt;1272 -->
<g id="edge82" class="edge">
<title>&#45;14&#45;&gt;1272</title>
<path fill="none" stroke="#ff0000" stroke-width=".3769" stroke-dasharray="1,5" d="M519.0532,-153.8508C516.4014,-152.8683 513.6426,-151.9359 511,-151.196 421.4989,-126.1366 390.305,-152.0942 305,-115.196 303.176,-114.407 301.3598,-113.4983 299.5709,-112.5051"/>
<polygon fill="#ff0000" stroke="#ff0000" stroke-width=".3769" points="301.2587,-109.4301 290.9469,-106.9976 297.4911,-115.3297 301.2587,-109.4301"/>
</g>
<!-- &#45;14&#45;&gt;1273 -->
<g id="edge83" class="edge">
<title>&#45;14&#45;&gt;1273</title>
<path fill="none" stroke="#ff0000" stroke-width=".1691" d="M519.4943,-154.2171C516.697,-153.1505 513.7739,-152.0943 511,-151.196 450.2885,-131.5336 429.506,-142.8647 372,-115.196 370.2092,-114.3343 368.4189,-113.3687 366.6501,-112.3318"/>
<polygon fill="#ff0000" stroke="#ff0000" stroke-width=".1691" points="368.3609,-109.268 358.0811,-106.7038 364.5181,-115.119 368.3609,-109.268"/>
</g>
<!-- &#45;15 -->
<g id="node15" class="node">
<title>&#45;15</title>
<polygon fill="#d3d3d3" stroke="#000000" points="595.5,-169.196 566.5,-169.196 566.5,-151.196 595.5,-151.196 595.5,-169.196"/>
<text text-anchor="middle" x="581" y="-157.996" font-family="Times,serif" font-size="9.00" fill="#000000">&#45;15</text>
</g>
<!-- &#45;15&#45;&gt;1268 -->
<g id="edge84" class="edge">
<title>&#45;15&#45;&gt;1268</title>
<path fill="none" stroke="#00ff00" stroke-width=".4581" d="M566.8809,-151.0775C550.6712,-140.6089 523.629,-123.1445 502.7202,-109.6412"/>
<polygon fill="#00ff00" stroke="#00ff00" stroke-width=".4581" points="504.4836,-106.6136 494.1843,-104.1285 500.686,-112.4939 504.4836,-106.6136"/>
</g>
<!-- &#45;15&#45;&gt;1269 -->
<g id="edge85" class="edge">
<title>&#45;15&#45;&gt;1269</title>
<path fill="none" stroke="#00ff00" stroke-width=".4207" d="M566.464,-154.3074C563.6695,-153.2324 560.7552,-152.1501 558,-151.196 505.7862,-133.1141 488.299,-140.1528 439,-115.196 437.227,-114.2984 435.4506,-113.3046 433.6924,-112.246"/>
<polygon fill="#00ff00" stroke="#00ff00" stroke-width=".4207" points="435.416,-109.1888 425.1528,-106.5584 431.5356,-115.0148 435.416,-109.1888"/>
</g>
<!-- &#45;15&#45;&gt;1270 -->
<g id="edge86" class="edge">
<title>&#45;15&#45;&gt;1270</title>
<path fill="none" stroke="#00ff00" stroke-width=".1696" d="M566.0997,-153.6709C563.4428,-152.7084 560.6702,-151.8293 558,-151.196 389.9201,-111.3316 332.17,-177.3589 171,-115.196 169.0958,-114.4615 167.2065,-113.5838 165.3525,-112.604"/>
<polygon fill="#00ff00" stroke="#00ff00" stroke-width=".1696" points="166.8032,-109.3829 156.4701,-107.0425 163.0884,-115.3159 166.8032,-109.3829"/>
</g>
<!-- &#45;15&#45;&gt;1271 -->
<g id="edge87" class="edge">
<title>&#45;15&#45;&gt;1271</title>
<path fill="none" stroke="#ff0000" stroke-width=".116" d="M566.0892,-153.7143C563.4334,-152.747 560.6639,-151.855 558,-151.196 419.0685,-116.8275 371.0289,-167.9831 238,-115.196 236.1029,-114.4432 234.2192,-113.5513 232.3695,-112.5606"/>
<polygon fill="#ff0000" stroke="#ff0000" stroke-width=".116" points="233.8247,-109.3406 223.4984,-106.9701 230.0926,-115.2627 233.8247,-109.3406"/>
</g>
<!-- &#45;15&#45;&gt;1272 -->
<g id="edge88" class="edge">
<title>&#45;15&#45;&gt;1272</title>
<path fill="none" stroke="#00ff00" stroke-width=".4176" d="M566.0724,-153.78C563.4185,-152.8054 560.654,-151.8939 558,-151.196 448.1579,-122.3087 409.9441,-158.6297 305,-115.196 303.1142,-114.4155 301.2392,-113.502 299.3961,-112.4949"/>
<polygon fill="#00ff00" stroke="#00ff00" stroke-width=".4176" points="300.8585,-109.2769 290.5429,-106.8604 297.1001,-115.1824 300.8585,-109.2769"/>
</g>
<!-- &#45;15&#45;&gt;1273 -->
<g id="edge89" class="edge">
<title>&#45;15&#45;&gt;1273</title>
<path fill="none" stroke="#00ff00" stroke-width=".1772" d="M566.0416,-153.8913C563.3912,-152.9043 560.6358,-151.9598 558,-151.196 477.1271,-127.7578 448.9742,-149.3244 372,-115.196 370.1833,-114.3905 368.3727,-113.4688 366.5882,-112.4656"/>
<polygon fill="#00ff00" stroke="#00ff00" stroke-width=".1772" points="368.2809,-109.393 357.9762,-106.9307 364.4963,-115.2817 368.2809,-109.393"/>
</g>
<!-- 0 -->
<g id="node16" class="node">
<title>0</title>
<ellipse fill="#add8e6" stroke="#000000" cx="272" cy="-14.8492" rx="14.7" ry="14.7"/>
<text text-anchor="middle" x="272" y="-12.6492" font-family="Times,serif" font-size="9.00" fill="#000000">0</text>
</g>
<!-- 1 -->
<g id="node17" class="node">
<title>1</title>
<ellipse fill="#add8e6" stroke="#000000" cx="329" cy="-14.8492" rx="14.7" ry="14.7"/>
<text text-anchor="middle" x="329" y="-12.6492" font-family="Times,serif" font-size="9.00" fill="#000000">1</text>
</g>
<!-- 1268&#45;&gt;1 -->
<g id="edge90" class="edge">
<title>1268&#45;&gt;1</title>
<path fill="none" stroke="#ff0000" stroke-width=".2578" d="M453.5844,-74.8141C449.2337,-71.618 444.5548,-68.4073 440,-65.6985 411.1168,-48.5213 375.4368,-33.1176 352.4558,-23.8787"/>
<polygon fill="#ff0000" stroke="#ff0000" stroke-width=".2578" points="353.7372,-20.6217 343.1509,-20.1963 351.1613,-27.1306 353.7372,-20.6217"/>
</g>
<!-- 1269&#45;&gt;0 -->
<g id="edge91" class="edge">
<title>1269&#45;&gt;0</title>
<path fill="none" stroke="#ff0000" stroke-width=".3022" d="M386.5076,-74.9406C382.1617,-71.7366 377.5041,-68.4907 373,-65.6985 359.0063,-57.0234 319.9907,-37.8866 294.75,-25.7217"/>
<polygon fill="#ff0000" stroke="#ff0000" stroke-width=".3022" points="296.0468,-22.4617 285.5173,-21.2865 293.0157,-28.7715 296.0468,-22.4617"/>
</g>
<!-- 1269&#45;&gt;1 -->
<g id="edge92" class="edge">
<title>1269&#45;&gt;1</title>
<path fill="none" stroke="#00ff00" stroke-width=".1645" d="M388.1411,-72.9135C375.8959,-60.8913 359.6956,-44.9859 347.3471,-32.8623"/>
<polygon fill="#00ff00" stroke="#00ff00" stroke-width=".1645" points="349.4567,-30.0286 339.8689,-25.5202 344.5526,-35.0236 349.4567,-30.0286"/>
</g>
<!-- 1270&#45;&gt;0 -->
<g id="edge93" class="edge">
<title>1270&#45;&gt;0</title>
<path fill="none" stroke="#ff0000" stroke-width=".2884" d="M157.4924,-74.9406C161.8383,-71.7366 166.4959,-68.4907 171,-65.6985 196.667,-49.7868 227.9559,-34.6374 248.8429,-25.0793"/>
<polygon fill="#ff0000" stroke="#ff0000" stroke-width=".2884" points="250.5177,-28.1634 258.1907,-20.8575 247.6364,-21.7839 250.5177,-28.1634"/>
</g>
<!-- 1270&#45;&gt;1 -->
<g id="edge94" class="edge">
<title>1270&#45;&gt;1</title>
<path fill="none" stroke="#00ff00" stroke-width=".1993" d="M157.1287,-74.2881C161.4973,-71.1247 166.2561,-68.0604 171,-65.6985 222.7541,-39.9316 241.7237,-49.6108 296,-29.6985 299.3453,-28.4712 302.8282,-27.0588 306.2234,-25.6036"/>
<polygon fill="#00ff00" stroke="#00ff00" stroke-width=".1993" points="307.6764,-28.7879 315.3731,-21.5071 304.8159,-22.399 307.6764,-28.7879"/>
</g>
<!-- 1271&#45;&gt;0 -->
<g id="edge95" class="edge">
<title>1271&#45;&gt;0</title>
<path fill="none" stroke="#ff0000" stroke-width=".5" d="M221.5618,-71.7601C231.7897,-60.2197 244.8762,-45.4538 255.156,-33.8547"/>
<polygon fill="#ff0000" stroke="#ff0000" stroke-width=".5" points="258.051,-35.8652 262.0643,-26.0599 252.8123,-31.2223 258.051,-35.8652"/>
</g>
<!-- 1271&#45;&gt;1 -->
<g id="edge96" class="edge">
<title>1271&#45;&gt;1</title>
<path fill="none" stroke="#ff0000" stroke-width=".4721" d="M224.5853,-75.0869C228.9255,-71.8738 233.5572,-68.5872 238,-65.6985 260.7399,-50.9129 288.044,-36.0111 306.774,-26.197"/>
<polygon fill="#ff0000" stroke="#ff0000" stroke-width=".4721" points="308.4534,-29.2687 315.7174,-21.5561 305.2292,-23.0555 308.4534,-29.2687"/>
</g>
<!-- 1272&#45;&gt;0 -->
<g id="edge97" class="edge">
<title>1272&#45;&gt;0</title>
<path fill="none" stroke="#00ff00" stroke-width=".1646" d="M272,-65.6936C272,-57.4298 272,-48.2178 272,-39.9294"/>
<polygon fill="#00ff00" stroke="#00ff00" stroke-width=".1646" points="275.5001,-39.7229 272,-29.7229 268.5001,-39.723 275.5001,-39.7229"/>
</g>
<!-- 1272&#45;&gt;1 -->
<g id="edge98" class="edge">
<title>1272&#45;&gt;1</title>
<path fill="none" stroke="#00ff00" stroke-width=".1425" d="M286.9761,-70.5847C295.2006,-59.6767 305.3812,-46.1744 313.662,-35.1917"/>
<polygon fill="#00ff00" stroke="#00ff00" stroke-width=".1425" points="316.5964,-37.1134 319.8222,-27.0216 311.0071,-32.8992 316.5964,-37.1134"/>
</g>
<!-- 1273&#45;&gt;0 -->
<g id="edge99" class="edge">
<title>1273&#45;&gt;0</title>
<path fill="none" stroke="#ff0000" stroke-width=".2002" stroke-dasharray="1,5" d="M322.4382,-71.7601C312.2103,-60.2197 299.1238,-45.4538 288.844,-33.8547"/>
<polygon fill="#ff0000" stroke="#ff0000" stroke-width=".2002" points="291.1877,-31.2223 281.9357,-26.0599 285.949,-35.8652 291.1877,-31.2223"/>
</g>
<!-- 1273&#45;&gt;1 -->
<g id="edge100" class="edge">
<title>1273&#45;&gt;1</title>
<path fill="none" stroke="#00ff00" stroke-width=".2122" d="M335.7256,-65.6936C334.6202,-57.337 333.3866,-48.0107 332.2807,-39.6504"/>
<polygon fill="#00ff00" stroke="#00ff00" stroke-width=".2122" points="335.7487,-39.1776 330.9675,-29.7229 328.8091,-40.0956 335.7487,-39.1776"/>
</g>
</g>
</svg>
