<?xml version="1.0" encoding="UTF-8" standalone="no"?>
<!DOCTYPE svg PUBLIC "-//W3C//DTD SVG 1.1//EN"
 "http://www.w3.org/Graphics/SVG/1.1/DTD/svg11.dtd">
<!-- Generated by graphviz version 2.40.1 (20161225.0304)
 -->
<!-- Title: %3 Pages: 1 -->
<svg width="433pt" height="256pt"
 viewBox="0.00 0.00 432.98 255.62" xmlns="http://www.w3.org/2000/svg" xmlns:xlink="http://www.w3.org/1999/xlink">
<g id="graph0" class="graph" transform="scale(1 1) rotate(0) translate(4 251.6224)">
<title>%3</title>
<polygon fill="#ffffff" stroke="transparent" points="-4,4 -4,-251.6224 428.9827,-251.6224 428.9827,4 -4,4"/>
<!-- &#45;1 -->
<g id="node1" class="node">
<title>&#45;1</title>
<polygon fill="#d3d3d3" stroke="#000000" points="130.0197,-247.6224 106.0197,-247.6224 106.0197,-229.6224 130.0197,-229.6224 130.0197,-247.6224"/>
<text text-anchor="middle" x="118.0197" y="-236.4224" font-family="Times,serif" font-size="9.00" fill="#000000">&#45;1</text>
</g>
<!-- 674 -->
<g id="node6" class="node">
<title>674</title>
<ellipse fill="#ffffff" stroke="#000000" cx="160.0197" cy="-168.8736" rx="21.4286" ry="21.4286"/>
<text text-anchor="middle" x="160.0197" y="-166.6736" font-family="Times,serif" font-size="9.00" fill="#000000">674</text>
</g>
<!-- &#45;1&#45;&gt;674 -->
<g id="edge1" class="edge">
<title>&#45;1&#45;&gt;674</title>
<path fill="none" stroke="#ff0000" stroke-width=".4118" d="M123.5105,-229.5039C128.649,-220.9705 136.5866,-207.7886 143.7497,-195.8929"/>
<polygon fill="#ff0000" stroke="#ff0000" stroke-width=".4118" points="146.857,-197.5175 149.0173,-187.1452 140.8603,-193.9064 146.857,-197.5175"/>
</g>
<!-- 675 -->
<g id="node7" class="node">
<title>675</title>
<ellipse fill="#ffffff" stroke="#000000" cx="220.0197" cy="-168.8736" rx="21.4286" ry="21.4286"/>
<text text-anchor="middle" x="220.0197" y="-166.6736" font-family="Times,serif" font-size="9.00" fill="#000000">675</text>
</g>
<!-- &#45;1&#45;&gt;675 -->
<g id="edge2" class="edge">
<title>&#45;1&#45;&gt;675</title>
<path fill="none" stroke="#00ff00" stroke-width=".5" d="M130.0526,-231.7575C144.6074,-223.3063 169.6858,-208.2678 190.0197,-193.6224 191.8893,-192.2758 193.7936,-190.8484 195.69,-189.3858"/>
<polygon fill="#00ff00" stroke="#00ff00" stroke-width=".5" points="198.1944,-191.8648 203.8224,-182.8883 193.825,-186.3959 198.1944,-191.8648"/>
</g>
<!-- 676 -->
<g id="node8" class="node">
<title>676</title>
<ellipse fill="#ffffff" stroke="#000000" cx="345.0197" cy="-86.9117" rx="21.4286" ry="21.4286"/>
<text text-anchor="middle" x="345.0197" y="-84.7117" font-family="Times,serif" font-size="9.00" fill="#000000">676</text>
</g>
<!-- &#45;1&#45;&gt;676 -->
<g id="edge3" class="edge">
<title>&#45;1&#45;&gt;676</title>
<path fill="none" stroke="#ff0000" stroke-width=".2865" d="M105.9303,-237.752C82.6297,-235.3466 31.8783,-226.4103 10.0197,-193.6224 -2.1831,-175.3182 -4.1662,-160.9389 10.0197,-144.1249 29.5513,-120.9747 233.2856,-98.1524 313.1521,-90.0265"/>
<polygon fill="#ff0000" stroke="#ff0000" stroke-width=".2865" points="313.9679,-93.4622 323.5674,-88.979 313.2674,-86.4974 313.9679,-93.4622"/>
</g>
<!-- 677 -->
<g id="node9" class="node">
<title>677</title>
<ellipse fill="#ffffff" stroke="#000000" cx="318.0197" cy="-168.8736" rx="21.4286" ry="21.4286"/>
<text text-anchor="middle" x="318.0197" y="-166.6736" font-family="Times,serif" font-size="9.00" fill="#000000">677</text>
</g>
<!-- &#45;1&#45;&gt;677 -->
<g id="edge4" class="edge">
<title>&#45;1&#45;&gt;677</title>
<path fill="none" stroke="#ff0000" stroke-width=".2616" d="M130.0603,-234.6095C153.3024,-226.8432 205.9474,-209.153 250.0197,-193.6224 262.7018,-189.1533 276.6657,-184.0951 288.6229,-179.7216"/>
<polygon fill="#ff0000" stroke="#ff0000" stroke-width=".2616" points="289.9397,-182.9667 298.1226,-176.2369 287.529,-176.3949 289.9397,-182.9667"/>
</g>
<!-- 678 -->
<g id="node10" class="node">
<title>678</title>
<ellipse fill="#ffffff" stroke="#000000" cx="40.0197" cy="-168.8736" rx="21.4286" ry="21.4286"/>
<text text-anchor="middle" x="40.0197" y="-166.6736" font-family="Times,serif" font-size="9.00" fill="#000000">678</text>
</g>
<!-- &#45;1&#45;&gt;678 -->
<g id="edge5" class="edge">
<title>&#45;1&#45;&gt;678</title>
<path fill="none" stroke="#ff0000" stroke-width=".1605" d="M107.8226,-229.5039C96.673,-219.5339 78.4274,-203.2183 63.6704,-190.0224"/>
<polygon fill="#ff0000" stroke="#ff0000" stroke-width=".1605" points="65.6856,-187.1292 55.8982,-183.0724 61.0195,-192.3472 65.6856,-187.1292"/>
</g>
<!-- 679 -->
<g id="node11" class="node">
<title>679</title>
<ellipse fill="#ffffff" stroke="#000000" cx="100.0197" cy="-168.8736" rx="21.4286" ry="21.4286"/>
<text text-anchor="middle" x="100.0197" y="-166.6736" font-family="Times,serif" font-size="9.00" fill="#000000">679</text>
</g>
<!-- &#45;1&#45;&gt;679 -->
<g id="edge6" class="edge">
<title>&#45;1&#45;&gt;679</title>
<path fill="none" stroke="#ff0000" stroke-width=".3805" d="M115.6665,-229.5039C113.6674,-221.7575 110.6797,-210.1805 107.8492,-199.2123"/>
<polygon fill="#ff0000" stroke="#ff0000" stroke-width=".3805" points="111.2146,-198.2462 105.3267,-189.438 104.4367,-199.9954 111.2146,-198.2462"/>
</g>
<!-- &#45;2 -->
<g id="node2" class="node">
<title>&#45;2</title>
<polygon fill="#d3d3d3" stroke="#000000" points="232.0197,-247.6224 208.0197,-247.6224 208.0197,-229.6224 232.0197,-229.6224 232.0197,-247.6224"/>
<text text-anchor="middle" x="220.0197" y="-236.4224" font-family="Times,serif" font-size="9.00" fill="#000000">&#45;2</text>
</g>
<!-- &#45;2&#45;&gt;674 -->
<g id="edge7" class="edge">
<title>&#45;2&#45;&gt;674</title>
<path fill="none" stroke="#ff0000" stroke-width=".4273" d="M212.1757,-229.5039C204.2543,-220.2955 191.6765,-205.674 180.8573,-193.0969"/>
<polygon fill="#ff0000" stroke="#ff0000" stroke-width=".4273" points="183.2429,-190.5031 174.0681,-185.2046 177.9362,-195.0681 183.2429,-190.5031"/>
</g>
<!-- &#45;2&#45;&gt;675 -->
<g id="edge8" class="edge">
<title>&#45;2&#45;&gt;675</title>
<path fill="none" stroke="#ff0000" stroke-width=".2523" d="M220.0197,-229.5039C220.0197,-222.0818 220.0197,-211.143 220.0197,-200.5925"/>
<polygon fill="#ff0000" stroke="#ff0000" stroke-width=".2523" points="223.5198,-200.3161 220.0197,-190.3162 216.5198,-200.3162 223.5198,-200.3161"/>
</g>
<!-- &#45;2&#45;&gt;676 -->
<g id="edge9" class="edge">
<title>&#45;2&#45;&gt;676</title>
<path fill="none" stroke="#ff0000" stroke-width=".5" d="M232.2362,-237.7457C271.4201,-234.6564 392.7467,-222.8442 416.0197,-193.6224 429.7247,-176.4142 425.5143,-163.9694 416.0197,-144.1249 407.11,-125.5028 388.8538,-111.0067 373.0853,-101.2653"/>
<polygon fill="#ff0000" stroke="#ff0000" stroke-width=".5" points="374.5818,-98.0868 364.178,-96.0839 371.0621,-104.1375 374.5818,-98.0868"/>
</g>
<!-- &#45;2&#45;&gt;677 -->
<g id="edge10" class="edge">
<title>&#45;2&#45;&gt;677</title>
<path fill="none" stroke="#ff0000" stroke-width=".4269" d="M232.0364,-230.0698C246.996,-219.4228 272.9506,-200.9503 292.4408,-187.0787"/>
<polygon fill="#ff0000" stroke="#ff0000" stroke-width=".4269" points="294.4945,-189.913 300.6122,-181.2629 290.4355,-184.21 294.4945,-189.913"/>
</g>
<!-- &#45;2&#45;&gt;678 -->
<g id="edge11" class="edge">
<title>&#45;2&#45;&gt;678</title>
<path fill="none" stroke="#ff0000" stroke-width=".5" stroke-dasharray="1,5" d="M208.0071,-235.0207C172.4381,-224.356 70.1188,-193.6753 70.0197,-193.6224 67.9874,-192.5368 65.9638,-191.3008 63.9828,-189.9739"/>
<polygon fill="#ff0000" stroke="#ff0000" stroke-width=".5" points="65.7785,-186.9463 55.6747,-183.7583 61.5852,-192.5513 65.7785,-186.9463"/>
</g>
<!-- &#45;2&#45;&gt;679 -->
<g id="edge12" class="edge">
<title>&#45;2&#45;&gt;679</title>
<path fill="none" stroke="#00ff00" stroke-width=".3171" d="M207.9024,-233.6125C190.1649,-226.05 156.3785,-210.7682 130.0197,-193.6224 128.0883,-192.366 126.1387,-191.0049 124.2101,-189.5891"/>
<polygon fill="#00ff00" stroke="#00ff00" stroke-width=".3171" points="126.0474,-186.5833 116.011,-183.1891 121.7402,-192.1013 126.0474,-186.5833"/>
</g>
<!-- 3486 -->
<g id="node12" class="node">
<title>3486</title>
<ellipse fill="#ffffff" stroke="#000000" cx="382.0197" cy="-168.8736" rx="25" ry="25"/>
<text text-anchor="middle" x="382.0197" y="-166.6736" font-family="Times,serif" font-size="9.00" fill="#000000">3486</text>
</g>
<!-- &#45;2&#45;&gt;3486 -->
<g id="edge32" class="edge">
<title>&#45;2&#45;&gt;3486</title>
<path fill="none" stroke="#ff0000" stroke-width=".1658" d="M232.1476,-235.6287C255.4581,-229.6041 307.7716,-214.7624 348.0197,-193.6224 350.0153,-192.5742 352.0242,-191.4188 354.014,-190.1974"/>
<polygon fill="#ff0000" stroke="#ff0000" stroke-width=".1658" points="356.1248,-192.9971 362.516,-184.547 352.2502,-187.1671 356.1248,-192.9971"/>
</g>
<!-- &#45;3 -->
<g id="node3" class="node">
<title>&#45;3</title>
<polygon fill="#d3d3d3" stroke="#000000" points="181.0197,-247.6224 157.0197,-247.6224 157.0197,-229.6224 181.0197,-229.6224 181.0197,-247.6224"/>
<text text-anchor="middle" x="169.0197" y="-236.4224" font-family="Times,serif" font-size="9.00" fill="#000000">&#45;3</text>
</g>
<!-- &#45;3&#45;&gt;674 -->
<g id="edge13" class="edge">
<title>&#45;3&#45;&gt;674</title>
<path fill="none" stroke="#00ff00" stroke-width=".5" d="M167.8431,-229.5039C166.8682,-221.9485 165.4231,-210.749 164.0392,-200.0246"/>
<polygon fill="#00ff00" stroke="#00ff00" stroke-width=".5" points="167.4997,-199.4922 162.7486,-190.0224 160.5572,-200.3881 167.4997,-199.4922"/>
</g>
<!-- &#45;3&#45;&gt;675 -->
<g id="edge14" class="edge">
<title>&#45;3&#45;&gt;675</title>
<path fill="none" stroke="#ff0000" stroke-width=".2363" d="M175.6871,-229.5039C182.2245,-220.5632 192.4931,-206.5195 201.502,-194.1988"/>
<polygon fill="#ff0000" stroke="#ff0000" stroke-width=".2363" points="204.3992,-196.1664 207.4763,-186.0282 198.7486,-192.0346 204.3992,-196.1664"/>
</g>
<!-- &#45;3&#45;&gt;676 -->
<g id="edge15" class="edge">
<title>&#45;3&#45;&gt;676</title>
<path fill="none" stroke="#00ff00" stroke-width=".4513" d="M181.2392,-233.7234C197.9891,-226.6104 228.4555,-212.2166 250.0197,-193.6224 271.0237,-175.5112 269.7502,-164.9914 288.0197,-144.1249 298.7221,-131.9012 311.414,-119.0214 322.1018,-108.5839"/>
<polygon fill="#00ff00" stroke="#00ff00" stroke-width=".4513" points="324.7147,-110.9261 329.4728,-101.4597 319.8499,-105.8928 324.7147,-110.9261"/>
</g>
<!-- &#45;3&#45;&gt;677 -->
<g id="edge16" class="edge">
<title>&#45;3&#45;&gt;677</title>
<path fill="none" stroke="#00ff00" stroke-width=".5" d="M181.0892,-234.9195C202.3667,-228.1628 247.6455,-212.7513 283.0197,-193.6224 286.2887,-191.8546 289.6142,-189.8348 292.8497,-187.7285"/>
<polygon fill="#00ff00" stroke="#00ff00" stroke-width=".5" points="294.8382,-190.6088 301.1035,-182.0649 290.8777,-184.8369 294.8382,-190.6088"/>
</g>
<!-- &#45;3&#45;&gt;678 -->
<g id="edge17" class="edge">
<title>&#45;3&#45;&gt;678</title>
<path fill="none" stroke="#00ff00" stroke-width=".2413" d="M156.9239,-234.3123C137.7377,-227.2193 99.4854,-212.0221 70.0197,-193.6224 68.0653,-192.402 66.099,-191.0672 64.1585,-189.6702"/>
<polygon fill="#00ff00" stroke="#00ff00" stroke-width=".2413" points="65.9859,-186.6589 55.9346,-183.309 61.7031,-192.1958 65.9859,-186.6589"/>
</g>
<!-- &#45;3&#45;&gt;679 -->
<g id="edge18" class="edge">
<title>&#45;3&#45;&gt;679</title>
<path fill="none" stroke="#00ff00" stroke-width=".1251" d="M159.9991,-229.5039C150.4717,-219.8731 135.0869,-204.3213 122.2844,-191.38"/>
<polygon fill="#00ff00" stroke="#00ff00" stroke-width=".1251" points="124.6298,-188.7741 115.1087,-184.1264 119.6534,-193.697 124.6298,-188.7741"/>
</g>
<!-- 0 -->
<g id="node4" class="node">
<title>0</title>
<ellipse fill="#add8e6" stroke="#000000" cx="241.0197" cy="-14.8492" rx="14.7" ry="14.7"/>
<text text-anchor="middle" x="241.0197" y="-12.6492" font-family="Times,serif" font-size="9.00" fill="#000000">0</text>
</g>
<!-- 1 -->
<g id="node5" class="node">
<title>1</title>
<ellipse fill="#add8e6" stroke="#000000" cx="177.0197" cy="-14.8492" rx="14.7" ry="14.7"/>
<text text-anchor="middle" x="177.0197" y="-12.6492" font-family="Times,serif" font-size="9.00" fill="#000000">1</text>
</g>
<!-- 674&#45;&gt;0 -->
<g id="edge19" class="edge">
<title>674&#45;&gt;0</title>
<path fill="none" stroke="#ff0000" stroke-width=".1272" d="M169.9519,-149.9872C184.9709,-121.428 213.3985,-67.3719 229.3717,-36.9983"/>
<polygon fill="#ff0000" stroke="#ff0000" stroke-width=".1272" points="232.5306,-38.511 234.0874,-28.0312 226.3351,-35.2528 232.5306,-38.511"/>
</g>
<!-- 674&#45;&gt;1 -->
<g id="edge20" class="edge">
<title>674&#45;&gt;1</title>
<path fill="none" stroke="#00ff00" stroke-width=".1923" d="M161.0674,-147.4706C162.2351,-126.5603 164.4445,-93.8589 168.0197,-65.6985 169.1153,-57.0687 170.6733,-47.6757 172.1859,-39.3377"/>
<polygon fill="#00ff00" stroke="#00ff00" stroke-width=".1923" points="175.6316,-39.952 174.0391,-29.4775 168.7521,-38.6589 175.6316,-39.952"/>
</g>
<!-- 675&#45;&gt;0 -->
<g id="edge21" class="edge">
<title>675&#45;&gt;0</title>
<path fill="none" stroke="#00ff00" stroke-width=".2575" d="M225.5998,-148.2178C228.5488,-136.5344 231.9723,-121.6074 234.0197,-108.1249 237.5048,-85.1748 239.2804,-58.7722 240.169,-39.9283"/>
<polygon fill="#00ff00" stroke="#00ff00" stroke-width=".2575" points="243.672,-39.9284 240.5959,-29.79 236.6782,-39.6338 243.672,-39.9284"/>
</g>
<!-- 675&#45;&gt;1 -->
<g id="edge22" class="edge">
<title>675&#45;&gt;1</title>
<path fill="none" stroke="#ff0000" stroke-width=".1493" d="M214.3096,-148.4204C206.4214,-120.1649 192.213,-69.2711 183.7966,-39.124"/>
<polygon fill="#ff0000" stroke="#ff0000" stroke-width=".1493" points="187.1412,-38.0875 181.0811,-29.3969 180.399,-39.9698 187.1412,-38.0875"/>
</g>
<!-- 676&#45;&gt;0 -->
<g id="edge23" class="edge">
<title>676&#45;&gt;0</title>
<path fill="none" stroke="#ff0000" stroke-width=".1312" stroke-dasharray="1,5" d="M327.3775,-74.6873C309.2669,-62.1383 281.0921,-42.6158 261.8859,-29.3076"/>
<polygon fill="#ff0000" stroke="#ff0000" stroke-width=".1312" points="263.7243,-26.3233 253.5112,-23.5047 259.7374,-32.0771 263.7243,-26.3233"/>
</g>
<!-- 676&#45;&gt;1 -->
<g id="edge24" class="edge">
<title>676&#45;&gt;1</title>
<path fill="none" stroke="#00ff00" stroke-width=".1385" d="M327.2014,-75.2657C321.795,-71.9652 315.7638,-68.5089 310.0197,-65.6985 299.8642,-60.7296 236.3035,-36.895 200.8521,-23.6956"/>
<polygon fill="#00ff00" stroke="#00ff00" stroke-width=".1385" points="201.8466,-20.3313 191.2537,-20.126 199.4066,-26.8923 201.8466,-20.3313"/>
</g>
<!-- 677&#45;&gt;0 -->
<g id="edge25" class="edge">
<title>677&#45;&gt;0</title>
<path fill="none" stroke="#00ff00" stroke-width=".387" d="M334.8573,-155.6786C358.44,-135.5683 396.1741,-96.3523 375.0197,-65.6985 362.2758,-47.2319 300.9864,-29.5483 265.8735,-20.7091"/>
<polygon fill="#00ff00" stroke="#00ff00" stroke-width=".387" points="266.4457,-17.2457 255.8994,-18.2587 264.7756,-24.0435 266.4457,-17.2457"/>
</g>
<!-- 677&#45;&gt;1 -->
<g id="edge26" class="edge">
<title>677&#45;&gt;1</title>
<path fill="none" stroke="#00ff00" stroke-width=".4376" d="M303.4613,-152.9704C277.2378,-124.3246 222.1941,-64.1965 194.1829,-33.5978"/>
<polygon fill="#00ff00" stroke="#00ff00" stroke-width=".4376" points="196.6949,-31.1585 187.361,-26.1458 191.5317,-35.8852 196.6949,-31.1585"/>
</g>
<!-- 677&#45;&gt;676 -->
<g id="edge31" class="edge">
<title>677&#45;&gt;676</title>
<path fill="none" stroke="#ff0000" stroke-width=".1542" d="M324.6939,-148.6134C327.8417,-139.0576 331.6615,-127.4621 335.1362,-116.9141"/>
<polygon fill="#ff0000" stroke="#ff0000" stroke-width=".1542" points="338.5241,-117.816 338.3287,-107.2229 331.8756,-115.6258 338.5241,-117.816"/>
</g>
<!-- 678&#45;&gt;0 -->
<g id="edge27" class="edge">
<title>678&#45;&gt;0</title>
<path fill="none" stroke="#ff0000" stroke-width=".1996" d="M54.097,-152.7995C73.5343,-131.2237 110.3618,-92.5126 147.0197,-65.6985 169.6953,-49.112 198.4321,-34.3572 218.1271,-25.07"/>
<polygon fill="#ff0000" stroke="#ff0000" stroke-width=".1996" points="219.6529,-28.2206 227.2623,-20.8485 216.7165,-21.8663 219.6529,-28.2206"/>
</g>
<!-- 678&#45;&gt;1 -->
<g id="edge28" class="edge">
<title>678&#45;&gt;1</title>
<path fill="none" stroke="#ff0000" stroke-width=".3329" d="M27.9241,-151.0791C14.5831,-129.0169 -2.6783,-91.2123 16.0197,-65.6985 32.2831,-43.5066 111.2688,-26.5183 152.2431,-19.0351"/>
<polygon fill="#ff0000" stroke="#ff0000" stroke-width=".3329" points="153.0108,-22.4537 162.2452,-17.2598 151.7874,-15.5614 153.0108,-22.4537"/>
</g>
<!-- 679&#45;&gt;0 -->
<g id="edge29" class="edge">
<title>679&#45;&gt;0</title>
<path fill="none" stroke="#ff0000" stroke-width=".1012" d="M113.4799,-152.4166C130.5614,-131.7344 161.161,-95.3533 189.0197,-65.6985 199.7981,-54.2252 212.4111,-41.867 222.5155,-32.207"/>
<polygon fill="#ff0000" stroke="#ff0000" stroke-width=".1012" points="225.1533,-34.5289 229.9983,-25.1067 220.3351,-29.451 225.1533,-34.5289"/>
</g>
<!-- 679&#45;&gt;1 -->
<g id="edge30" class="edge">
<title>679&#45;&gt;1</title>
<path fill="none" stroke="#00ff00" stroke-width=".1474" d="M92.1628,-148.8062C84.9474,-126.8923 77.3973,-91.4852 92.0197,-65.6985 104.9358,-42.9208 132.5602,-29.2494 152.8255,-21.91"/>
<polygon fill="#00ff00" stroke="#00ff00" stroke-width=".1474" points="153.9882,-25.2118 162.3604,-18.7189 151.7665,-18.5737 153.9882,-25.2118"/>
</g>
<!-- 3486&#45;&gt;676 -->
<g id="edge33" class="edge">
<title>3486&#45;&gt;676</title>
<path fill="none" stroke="#00ff00" stroke-width=".3146" d="M371.7131,-146.0427C367.4352,-136.5663 362.4248,-125.4674 357.9076,-115.4607"/>
<polygon fill="#00ff00" stroke="#00ff00" stroke-width=".3146" points="361.0722,-113.9644 353.7677,-106.2901 354.6922,-116.8445 361.0722,-113.9644"/>
</g>
</g>
</svg>
