<?xml version="1.0" encoding="UTF-8" standalone="no"?>
<!DOCTYPE svg PUBLIC "-//W3C//DTD SVG 1.1//EN"
 "http://www.w3.org/Graphics/SVG/1.1/DTD/svg11.dtd">
<!-- Generated by graphviz version 2.43.0 (0)
 -->
<!-- Title: %3 Pages: 1 -->
<svg width="686pt" height="189pt"
 viewBox="0.00 0.00 686.00 188.51" xmlns="http://www.w3.org/2000/svg" xmlns:xlink="http://www.w3.org/1999/xlink">
<g id="graph0" class="graph" transform="scale(1 1) rotate(0) translate(4 184.51)">
<title>%3</title>
<polygon fill="white" stroke="transparent" points="-4,4 -4,-184.51 682,-184.51 682,4 -4,4"/>
<!-- &#45;1 -->
<g id="node1" class="node">
<title>&#45;1</title>
<polygon fill="lightgray" stroke="black" points="276,-180.51 250,-180.51 250,-162.51 276,-162.51 276,-180.51"/>
<text text-anchor="middle" x="263" y="-169.31" font-family="Times,serif" font-size="9.00">&#45;1</text>
</g>
<!-- 1676 -->
<g id="node18" class="node">
<title>1676</title>
<ellipse fill="white" stroke="black" cx="433" cy="-97.52" rx="28.98" ry="28.98"/>
<text text-anchor="middle" x="433" y="-95.32" font-family="Times,serif" font-size="9.00">1676</text>
</g>
<!-- &#45;1&#45;&gt;1676 -->
<g id="edge1" class="edge">
<title>&#45;1&#45;&gt;1676</title>
<path fill="none" stroke="green" stroke-width="0.12" d="M276,-165.7C278.96,-164.63 282.08,-163.52 285,-162.51 333.62,-145.72 349.27,-150.06 395,-126.51 397.44,-125.25 399.9,-123.84 402.32,-122.34"/>
<polygon fill="green" stroke="green" stroke-width="0.12" points="404.49,-125.1 410.86,-116.64 400.6,-119.28 404.49,-125.1"/>
</g>
<!-- 1678 -->
<g id="node19" class="node">
<title>1678</title>
<ellipse fill="white" stroke="black" cx="509" cy="-97.52" rx="28.98" ry="28.98"/>
<text text-anchor="middle" x="509" y="-95.32" font-family="Times,serif" font-size="9.00">1678</text>
</g>
<!-- &#45;1&#45;&gt;1678 -->
<g id="edge2" class="edge">
<title>&#45;1&#45;&gt;1678</title>
<path fill="none" stroke="green" stroke-width="0.29" d="M276.39,-165.26C279.21,-164.26 282.18,-163.29 285,-162.51 366.15,-140.05 393.88,-160.31 471,-126.51 473.52,-125.41 476.03,-124.11 478.49,-122.7"/>
<polygon fill="green" stroke="green" stroke-width="0.29" points="480.59,-125.51 487.11,-117.15 476.81,-119.62 480.59,-125.51"/>
</g>
<!-- 1679 -->
<g id="node20" class="node">
<title>1679</title>
<ellipse fill="white" stroke="black" cx="205" cy="-97.52" rx="28.98" ry="28.98"/>
<text text-anchor="middle" x="205" y="-95.32" font-family="Times,serif" font-size="9.00">1679</text>
</g>
<!-- &#45;1&#45;&gt;1679 -->
<g id="edge3" class="edge">
<title>&#45;1&#45;&gt;1679</title>
<path fill="none" stroke="green" stroke-width="0.37" d="M256.35,-162.25C249.71,-154.01 239.1,-140.85 229.25,-128.62"/>
<polygon fill="green" stroke="green" stroke-width="0.37" points="231.93,-126.37 222.93,-120.78 226.48,-130.76 231.93,-126.37"/>
</g>
<!-- 1680 -->
<g id="node21" class="node">
<title>1680</title>
<ellipse fill="white" stroke="black" cx="281" cy="-97.52" rx="28.98" ry="28.98"/>
<text text-anchor="middle" x="281" y="-95.32" font-family="Times,serif" font-size="9.00">1680</text>
</g>
<!-- &#45;1&#45;&gt;1680 -->
<g id="edge4" class="edge">
<title>&#45;1&#45;&gt;1680</title>
<path fill="none" stroke="red" stroke-width="0.38" d="M265.06,-162.25C266.73,-155.6 269.19,-145.75 271.69,-135.77"/>
<polygon fill="red" stroke="red" stroke-width="0.38" points="275.13,-136.41 274.16,-125.86 268.34,-134.72 275.13,-136.41"/>
</g>
<!-- 1681 -->
<g id="node22" class="node">
<title>1681</title>
<ellipse fill="white" stroke="black" cx="357" cy="-97.52" rx="28.98" ry="28.98"/>
<text text-anchor="middle" x="357" y="-95.32" font-family="Times,serif" font-size="9.00">1681</text>
</g>
<!-- &#45;1&#45;&gt;1681 -->
<g id="edge5" class="edge">
<title>&#45;1&#45;&gt;1681</title>
<path fill="none" stroke="green" stroke-width="0.16" d="M273.78,-162.25C286.5,-152.51 308.18,-135.91 326.23,-122.09"/>
<polygon fill="green" stroke="green" stroke-width="0.16" points="328.4,-124.83 334.22,-115.97 324.15,-119.27 328.4,-124.83"/>
</g>
<!-- &#45;2 -->
<g id="node2" class="node">
<title>&#45;2</title>
<polygon fill="lightgray" stroke="black" points="320,-180.51 294,-180.51 294,-162.51 320,-162.51 320,-180.51"/>
<text text-anchor="middle" x="307" y="-169.31" font-family="Times,serif" font-size="9.00">&#45;2</text>
</g>
<!-- &#45;2&#45;&gt;1676 -->
<g id="edge6" class="edge">
<title>&#45;2&#45;&gt;1676</title>
<path fill="none" stroke="red" stroke-width="0.37" d="M320.2,-164.77C337.74,-156.95 369.5,-142.12 395,-126.51 397.42,-125.03 399.89,-123.43 402.34,-121.78"/>
<polygon fill="red" stroke="red" stroke-width="0.37" points="404.35,-124.65 410.53,-116.05 400.33,-118.91 404.35,-124.65"/>
</g>
<!-- &#45;2&#45;&gt;1678 -->
<g id="edge7" class="edge">
<title>&#45;2&#45;&gt;1678</title>
<path fill="none" stroke="green" stroke-width="0.5" d="M320.42,-165.39C323.24,-164.38 326.2,-163.37 329,-162.51 391.23,-143.36 412.14,-154.33 471,-126.51 473.48,-125.34 475.97,-123.99 478.41,-122.53"/>
<polygon fill="green" stroke="green" stroke-width="0.5" points="480.55,-125.32 487,-116.92 476.72,-119.46 480.55,-125.32"/>
</g>
<!-- &#45;2&#45;&gt;1679 -->
<g id="edge8" class="edge">
<title>&#45;2&#45;&gt;1679</title>
<path fill="none" stroke="red" stroke-width="0.39" d="M294.65,-162.19C281.7,-153.43 260.8,-139.18 243,-126.51 240.68,-124.86 238.3,-123.15 235.9,-121.41"/>
<polygon fill="red" stroke="red" stroke-width="0.39" points="237.96,-118.58 227.82,-115.51 233.84,-124.24 237.96,-118.58"/>
</g>
<!-- &#45;2&#45;&gt;1680 -->
<g id="edge9" class="edge">
<title>&#45;2&#45;&gt;1680</title>
<path fill="none" stroke="green" stroke-width="0.31" d="M304.02,-162.25C301.53,-155.35 297.79,-145 294.05,-134.64"/>
<polygon fill="green" stroke="green" stroke-width="0.31" points="297.33,-133.43 290.64,-125.22 290.75,-135.81 297.33,-133.43"/>
</g>
<!-- &#45;2&#45;&gt;1681 -->
<g id="edge10" class="edge">
<title>&#45;2&#45;&gt;1681</title>
<path fill="none" stroke="red" stroke-width="0.31" d="M312.74,-162.25C318.23,-154.35 326.86,-141.91 335.05,-130.12"/>
<polygon fill="red" stroke="red" stroke-width="0.31" points="338.06,-131.92 340.89,-121.71 332.31,-127.93 338.06,-131.92"/>
</g>
<!-- &#45;3 -->
<g id="node3" class="node">
<title>&#45;3</title>
<polygon fill="lightgray" stroke="black" points="364,-180.51 338,-180.51 338,-162.51 364,-162.51 364,-180.51"/>
<text text-anchor="middle" x="351" y="-169.31" font-family="Times,serif" font-size="9.00">&#45;3</text>
</g>
<!-- &#45;3&#45;&gt;1676 -->
<g id="edge11" class="edge">
<title>&#45;3&#45;&gt;1676</title>
<path fill="none" stroke="red" stroke-width="0.18" d="M360.41,-162.25C370.94,-153 388.53,-137.56 403.75,-124.19"/>
<polygon fill="red" stroke="red" stroke-width="0.18" points="406.25,-126.66 411.45,-117.44 401.63,-121.4 406.25,-126.66"/>
</g>
<!-- &#45;3&#45;&gt;1678 -->
<g id="edge12" class="edge">
<title>&#45;3&#45;&gt;1678</title>
<path fill="none" stroke="red" stroke-width="0.38" d="M364.14,-165.72C395.03,-154.45 469.76,-127.18 471,-126.51 473.34,-125.25 475.69,-123.87 478.02,-122.4"/>
<polygon fill="red" stroke="red" stroke-width="0.38" points="480.45,-124.98 486.79,-116.49 476.54,-119.18 480.45,-124.98"/>
</g>
<!-- &#45;3&#45;&gt;1679 -->
<g id="edge13" class="edge">
<title>&#45;3&#45;&gt;1679</title>
<path fill="none" stroke="green" stroke-width="0.26" d="M337.69,-165.56C312.77,-156.22 260.04,-136.06 243,-126.51 240.69,-125.21 238.35,-123.8 236.03,-122.31"/>
<polygon fill="green" stroke="green" stroke-width="0.26" points="237.52,-119.09 227.29,-116.35 233.58,-124.87 237.52,-119.09"/>
</g>
<!-- &#45;3&#45;&gt;1680 -->
<g id="edge14" class="edge">
<title>&#45;3&#45;&gt;1680</title>
<path fill="none" stroke="red" stroke-width="0.5" d="M342.97,-162.25C334.44,-153.48 320.5,-139.14 308,-126.28"/>
<polygon fill="red" stroke="red" stroke-width="0.5" points="310.34,-123.67 300.85,-118.94 305.32,-128.55 310.34,-123.67"/>
</g>
<!-- &#45;3&#45;&gt;1681 -->
<g id="edge15" class="edge">
<title>&#45;3&#45;&gt;1681</title>
<path fill="none" stroke="green" stroke-width="0.5" d="M351.69,-162.25C352.23,-155.78 353.02,-146.28 353.83,-136.58"/>
<polygon fill="green" stroke="green" stroke-width="0.5" points="357.32,-136.77 354.67,-126.51 350.35,-136.19 357.32,-136.77"/>
</g>
<!-- &#45;4 -->
<g id="node4" class="node">
<title>&#45;4</title>
<polygon fill="lightgray" stroke="black" points="408,-180.51 382,-180.51 382,-162.51 408,-162.51 408,-180.51"/>
<text text-anchor="middle" x="395" y="-169.31" font-family="Times,serif" font-size="9.00">&#45;4</text>
</g>
<!-- &#45;4&#45;&gt;1676 -->
<g id="edge16" class="edge">
<title>&#45;4&#45;&gt;1676</title>
<path fill="none" stroke="green" stroke-width="0.23" d="M399.36,-162.25C403.23,-154.92 409.15,-143.7 414.95,-132.71"/>
<polygon fill="green" stroke="green" stroke-width="0.23" points="418.18,-134.09 419.75,-123.61 411.99,-130.82 418.18,-134.09"/>
</g>
<!-- &#45;4&#45;&gt;1678 -->
<g id="edge17" class="edge">
<title>&#45;4&#45;&gt;1678</title>
<path fill="none" stroke="green" stroke-width="0.14" d="M408.17,-163.46C423.54,-155.11 449.57,-140.54 471,-126.51 473.38,-124.95 475.81,-123.3 478.23,-121.62"/>
<polygon fill="green" stroke="green" stroke-width="0.14" points="480.27,-124.46 486.38,-115.81 476.21,-118.76 480.27,-124.46"/>
</g>
<!-- &#45;4&#45;&gt;1679 -->
<g id="edge18" class="edge">
<title>&#45;4&#45;&gt;1679</title>
<path fill="none" stroke="green" stroke-width="0.43" d="M381.56,-165.43C378.75,-164.42 375.79,-163.4 373,-162.51 315.9,-144.25 296.92,-152.72 243,-126.51 240.53,-125.31 238.05,-123.94 235.62,-122.47"/>
<polygon fill="green" stroke="green" stroke-width="0.43" points="237.32,-119.4 227.04,-116.83 233.47,-125.25 237.32,-119.4"/>
</g>
<!-- &#45;4&#45;&gt;1680 -->
<g id="edge19" class="edge">
<title>&#45;4&#45;&gt;1680</title>
<path fill="none" stroke="green" stroke-width="0.24" d="M381.83,-163.46C366.46,-155.11 340.43,-140.54 319,-126.51 316.62,-124.95 314.19,-123.3 311.77,-121.62"/>
<polygon fill="green" stroke="green" stroke-width="0.24" points="313.79,-118.76 303.62,-115.81 309.73,-124.46 313.79,-118.76"/>
</g>
<!-- &#45;4&#45;&gt;1681 -->
<g id="edge20" class="edge">
<title>&#45;4&#45;&gt;1681</title>
<path fill="none" stroke="green" stroke-width="0.13" d="M390.64,-162.25C386.77,-154.92 380.85,-143.7 375.05,-132.71"/>
<polygon fill="green" stroke="green" stroke-width="0.13" points="378.01,-130.82 370.25,-123.61 371.82,-134.09 378.01,-130.82"/>
</g>
<!-- &#45;5 -->
<g id="node5" class="node">
<title>&#45;5</title>
<polygon fill="lightgray" stroke="black" points="678,-180.51 652,-180.51 652,-162.51 678,-162.51 678,-180.51"/>
<text text-anchor="middle" x="665" y="-169.31" font-family="Times,serif" font-size="9.00">&#45;5</text>
</g>
<!-- 1 -->
<g id="node17" class="node">
<title>1</title>
<ellipse fill="lightblue" stroke="black" cx="420" cy="-16.26" rx="16.03" ry="16.03"/>
<text text-anchor="middle" x="420" y="-14.06" font-family="Times,serif" font-size="9.00">1</text>
</g>
<!-- &#45;5&#45;&gt;1 -->
<g id="edge86" class="edge">
<title>&#45;5&#45;&gt;1</title>
<path fill="none" stroke="red" stroke-width="0.31" d="M657.43,-162.34C639.7,-143.58 593.45,-96.89 547,-68.53 514.04,-48.4 471.77,-33.17 445.28,-24.74"/>
<polygon fill="red" stroke="red" stroke-width="0.31" points="446.21,-21.36 435.63,-21.74 444.14,-28.04 446.21,-21.36"/>
</g>
<!-- &#45;5&#45;&gt;1676 -->
<g id="edge21" class="edge">
<title>&#45;5&#45;&gt;1676</title>
<path fill="none" stroke="red" stroke-width="0.17" d="M651.6,-165.29C648.79,-164.3 645.81,-163.31 643,-162.51 567.89,-141.11 542.29,-158.4 471,-126.51 468.49,-125.39 465.99,-124.08 463.53,-122.65"/>
<polygon fill="red" stroke="red" stroke-width="0.17" points="465.22,-119.57 454.92,-117.09 461.42,-125.46 465.22,-119.57"/>
</g>
<!-- &#45;5&#45;&gt;1678 -->
<g id="edge22" class="edge">
<title>&#45;5&#45;&gt;1678</title>
<path fill="none" stroke="green" stroke-width="0.46" d="M651.97,-164.5C628.54,-153.68 578.57,-130.62 544.38,-114.84"/>
<polygon fill="green" stroke="green" stroke-width="0.46" points="545.73,-111.61 535.18,-110.6 542.8,-117.97 545.73,-111.61"/>
</g>
<!-- &#45;5&#45;&gt;1679 -->
<g id="edge23" class="edge">
<title>&#45;5&#45;&gt;1679</title>
<path fill="none" stroke="red" stroke-width="0.35" d="M651.67,-165.04C648.85,-164.06 645.86,-163.15 643,-162.51 468.78,-123.68 409.91,-189.78 243,-126.51 240.27,-125.48 237.56,-124.19 234.93,-122.73"/>
<polygon fill="red" stroke="red" stroke-width="0.35" points="236.63,-119.67 226.3,-117.3 232.9,-125.59 236.63,-119.67"/>
</g>
<!-- &#45;5&#45;&gt;1680 -->
<g id="edge24" class="edge">
<title>&#45;5&#45;&gt;1680</title>
<path fill="none" stroke="green" stroke-width="0.18" d="M651.66,-165.08C648.84,-164.1 645.85,-163.18 643,-162.51 501.92,-129.52 453.94,-179.28 319,-126.51 316.28,-125.45 313.58,-124.14 310.95,-122.67"/>
<polygon fill="green" stroke="green" stroke-width="0.18" points="312.66,-119.61 302.34,-117.21 308.91,-125.52 312.66,-119.61"/>
</g>
<!-- &#45;5&#45;&gt;1681 -->
<g id="edge25" class="edge">
<title>&#45;5&#45;&gt;1681</title>
<path fill="none" stroke="red" stroke-width="0.37" d="M651.64,-165.16C648.82,-164.17 645.84,-163.22 643,-162.51 534.99,-135.34 498.03,-168.8 395,-126.51 392.46,-125.47 389.93,-124.22 387.46,-122.83"/>
<polygon fill="red" stroke="red" stroke-width="0.37" points="389.13,-119.75 378.8,-117.35 385.38,-125.66 389.13,-119.75"/>
</g>
<!-- &#45;6 -->
<g id="node6" class="node">
<title>&#45;6</title>
<polygon fill="lightgray" stroke="black" points="452,-180.51 426,-180.51 426,-162.51 452,-162.51 452,-180.51"/>
<text text-anchor="middle" x="439" y="-169.31" font-family="Times,serif" font-size="9.00">&#45;6</text>
</g>
<!-- &#45;6&#45;&gt;1676 -->
<g id="edge26" class="edge">
<title>&#45;6&#45;&gt;1676</title>
<path fill="none" stroke="green" stroke-width="0.21" d="M438.31,-162.25C437.77,-155.78 436.98,-146.28 436.17,-136.58"/>
<polygon fill="green" stroke="green" stroke-width="0.21" points="439.65,-136.19 435.33,-126.51 432.68,-136.77 439.65,-136.19"/>
</g>
<!-- &#45;6&#45;&gt;1678 -->
<g id="edge27" class="edge">
<title>&#45;6&#45;&gt;1678</title>
<path fill="none" stroke="green" stroke-width="0.31" d="M447.03,-162.25C455.56,-153.48 469.5,-139.14 482,-126.28"/>
<polygon fill="green" stroke="green" stroke-width="0.31" points="484.68,-128.55 489.15,-118.94 479.66,-123.67 484.68,-128.55"/>
</g>
<!-- &#45;6&#45;&gt;1679 -->
<g id="edge28" class="edge">
<title>&#45;6&#45;&gt;1679</title>
<path fill="none" stroke="red" stroke-width="0.46" d="M425.6,-165.29C422.79,-164.29 419.82,-163.31 417,-162.51 341.03,-140.96 315.13,-158.67 243,-126.51 240.49,-125.39 237.99,-124.08 235.53,-122.66"/>
<polygon fill="red" stroke="red" stroke-width="0.46" points="237.21,-119.58 226.91,-117.1 233.42,-125.46 237.21,-119.58"/>
</g>
<!-- &#45;6&#45;&gt;1680 -->
<g id="edge29" class="edge">
<title>&#45;6&#45;&gt;1680</title>
<path fill="none" stroke="red" stroke-width="0.5" d="M425.86,-165.72C394.97,-154.45 320.24,-127.18 319,-126.51 316.66,-125.25 314.31,-123.87 311.98,-122.4"/>
<polygon fill="red" stroke="red" stroke-width="0.5" points="313.46,-119.18 303.21,-116.49 309.55,-124.98 313.46,-119.18"/>
</g>
<!-- &#45;6&#45;&gt;1681 -->
<g id="edge30" class="edge">
<title>&#45;6&#45;&gt;1681</title>
<path fill="none" stroke="red" stroke-width="0.24" d="M429.59,-162.25C419.06,-153 401.47,-137.56 386.25,-124.19"/>
<polygon fill="red" stroke="red" stroke-width="0.24" points="388.37,-121.4 378.55,-117.44 383.75,-126.66 388.37,-121.4"/>
</g>
<!-- &#45;7 -->
<g id="node7" class="node">
<title>&#45;7</title>
<polygon fill="lightgray" stroke="black" points="496,-180.51 470,-180.51 470,-162.51 496,-162.51 496,-180.51"/>
<text text-anchor="middle" x="483" y="-169.31" font-family="Times,serif" font-size="9.00">&#45;7</text>
</g>
<!-- &#45;7&#45;&gt;1676 -->
<g id="edge31" class="edge">
<title>&#45;7&#45;&gt;1676</title>
<path fill="none" stroke="green" stroke-width="0.13" d="M477.26,-162.25C471.77,-154.35 463.14,-141.91 454.95,-130.12"/>
<polygon fill="green" stroke="green" stroke-width="0.13" points="457.69,-127.93 449.11,-121.71 451.94,-131.92 457.69,-127.93"/>
</g>
<!-- &#45;7&#45;&gt;1678 -->
<g id="edge32" class="edge">
<title>&#45;7&#45;&gt;1678</title>
<path fill="none" stroke="red" stroke-width="0.36" d="M485.98,-162.25C488.47,-155.35 492.21,-145 495.95,-134.64"/>
<polygon fill="red" stroke="red" stroke-width="0.36" points="499.25,-135.81 499.36,-125.22 492.67,-133.43 499.25,-135.81"/>
</g>
<!-- &#45;7&#45;&gt;1679 -->
<g id="edge33" class="edge">
<title>&#45;7&#45;&gt;1679</title>
<path fill="none" stroke="green" stroke-width="0.5" d="M469.63,-165.2C466.81,-164.21 463.83,-163.25 461,-162.51 366,-137.62 333.48,-164.68 243,-126.51 240.47,-125.44 237.95,-124.17 235.48,-122.77"/>
<polygon fill="green" stroke="green" stroke-width="0.5" points="237.15,-119.69 226.84,-117.27 233.39,-125.6 237.15,-119.69"/>
</g>
<!-- &#45;7&#45;&gt;1680 -->
<g id="edge34" class="edge">
<title>&#45;7&#45;&gt;1680</title>
<path fill="none" stroke="green" stroke-width="0.29" d="M469.58,-165.39C466.76,-164.38 463.8,-163.37 461,-162.51 398.77,-143.36 377.86,-154.33 319,-126.51 316.52,-125.34 314.03,-123.99 311.59,-122.53"/>
<polygon fill="green" stroke="green" stroke-width="0.29" points="313.28,-119.46 303,-116.92 309.45,-125.32 313.28,-119.46"/>
</g>
<!-- &#45;7&#45;&gt;1681 -->
<g id="edge35" class="edge">
<title>&#45;7&#45;&gt;1681</title>
<path fill="none" stroke="green" stroke-width="0.44" d="M469.8,-164.77C452.26,-156.95 420.5,-142.12 395,-126.51 392.58,-125.03 390.11,-123.43 387.66,-121.78"/>
<polygon fill="green" stroke="green" stroke-width="0.44" points="389.67,-118.91 379.47,-116.05 385.65,-124.65 389.67,-118.91"/>
</g>
<!-- &#45;8 -->
<g id="node8" class="node">
<title>&#45;8</title>
<polygon fill="lightgray" stroke="black" points="540,-180.51 514,-180.51 514,-162.51 540,-162.51 540,-180.51"/>
<text text-anchor="middle" x="527" y="-169.31" font-family="Times,serif" font-size="9.00">&#45;8</text>
</g>
<!-- &#45;8&#45;&gt;1676 -->
<g id="edge36" class="edge">
<title>&#45;8&#45;&gt;1676</title>
<path fill="none" stroke="red" stroke-width="0.31" d="M516.22,-162.25C503.5,-152.51 481.82,-135.91 463.77,-122.09"/>
<polygon fill="red" stroke="red" stroke-width="0.31" points="465.85,-119.27 455.78,-115.97 461.6,-124.83 465.85,-119.27"/>
</g>
<!-- &#45;8&#45;&gt;1678 -->
<g id="edge37" class="edge">
<title>&#45;8&#45;&gt;1678</title>
<path fill="none" stroke="red" stroke-width="0.5" d="M524.94,-162.25C523.27,-155.6 520.81,-145.75 518.31,-135.77"/>
<polygon fill="red" stroke="red" stroke-width="0.5" points="521.66,-134.72 515.84,-125.86 514.87,-136.41 521.66,-134.72"/>
</g>
<!-- &#45;8&#45;&gt;1679 -->
<g id="edge38" class="edge">
<title>&#45;8&#45;&gt;1679</title>
<path fill="none" stroke="red" stroke-width="0.22" d="M513.64,-165.14C510.82,-164.15 507.84,-163.21 505,-162.51 390.91,-134.27 351.9,-170.73 243,-126.51 240.3,-125.41 237.61,-124.08 234.98,-122.59"/>
<polygon fill="red" stroke="red" stroke-width="0.22" points="236.7,-119.53 226.38,-117.1 232.93,-125.43 236.7,-119.53"/>
</g>
<!-- &#45;8&#45;&gt;1680 -->
<g id="edge39" class="edge">
<title>&#45;8&#45;&gt;1680</title>
<path fill="none" stroke="green" stroke-width="0.12" d="M513.61,-165.26C510.79,-164.26 507.82,-163.29 505,-162.51 423.85,-140.05 396.12,-160.31 319,-126.51 316.48,-125.41 313.97,-124.11 311.51,-122.7"/>
<polygon fill="green" stroke="green" stroke-width="0.12" points="313.19,-119.62 302.89,-117.15 309.41,-125.51 313.19,-119.62"/>
</g>
<!-- &#45;8&#45;&gt;1681 -->
<g id="edge40" class="edge">
<title>&#45;8&#45;&gt;1681</title>
<path fill="none" stroke="green" stroke-width="0.16" d="M514,-165.7C511.04,-164.63 507.92,-163.52 505,-162.51 456.38,-145.72 440.73,-150.06 395,-126.51 392.56,-125.25 390.1,-123.84 387.68,-122.34"/>
<polygon fill="green" stroke="green" stroke-width="0.16" points="389.4,-119.28 379.14,-116.64 385.51,-125.1 389.4,-119.28"/>
</g>
<!-- &#45;9 -->
<g id="node9" class="node">
<title>&#45;9</title>
<polygon fill="lightgray" stroke="black" points="584,-180.51 558,-180.51 558,-162.51 584,-162.51 584,-180.51"/>
<text text-anchor="middle" x="571" y="-169.31" font-family="Times,serif" font-size="9.00">&#45;9</text>
</g>
<!-- &#45;9&#45;&gt;1676 -->
<g id="edge41" class="edge">
<title>&#45;9&#45;&gt;1676</title>
<path fill="none" stroke="green" stroke-width="0.45" d="M557.93,-165.82C538.4,-158.58 500.71,-143.71 471,-126.51 468.7,-125.18 466.38,-123.74 464.07,-122.24"/>
<polygon fill="green" stroke="green" stroke-width="0.45" points="465.58,-119.02 455.35,-116.24 461.61,-124.79 465.58,-119.02"/>
</g>
<!-- &#45;9&#45;&gt;1678 -->
<g id="edge42" class="edge">
<title>&#45;9&#45;&gt;1678</title>
<path fill="none" stroke="red" stroke-width="0.31" d="M563.89,-162.25C556.69,-153.89 545.12,-140.46 534.46,-128.08"/>
<polygon fill="red" stroke="red" stroke-width="0.31" points="536.82,-125.45 527.64,-120.16 531.51,-130.02 536.82,-125.45"/>
</g>
<!-- &#45;9&#45;&gt;1679 -->
<g id="edge43" class="edge">
<title>&#45;9&#45;&gt;1679</title>
<path fill="none" stroke="red" stroke-width="0.27" d="M557.65,-165.1C554.83,-164.11 551.85,-163.19 549,-162.51 415.76,-130.9 370.37,-176.79 243,-126.51 240.28,-125.44 237.59,-124.12 234.96,-122.65"/>
<polygon fill="red" stroke="red" stroke-width="0.27" points="236.67,-119.59 226.35,-117.18 232.91,-125.5 236.67,-119.59"/>
</g>
<!-- &#45;9&#45;&gt;1680 -->
<g id="edge44" class="edge">
<title>&#45;9&#45;&gt;1680</title>
<path fill="none" stroke="green" stroke-width="0.11" d="M557.63,-165.18C554.81,-164.19 551.83,-163.24 549,-162.51 448.8,-136.71 414.5,-166.33 319,-126.51 316.46,-125.45 313.94,-124.19 311.47,-122.8"/>
<polygon fill="green" stroke="green" stroke-width="0.11" points="313.14,-119.71 302.82,-117.31 309.39,-125.62 313.14,-119.71"/>
</g>
<!-- &#45;9&#45;&gt;1681 -->
<g id="edge45" class="edge">
<title>&#45;9&#45;&gt;1681</title>
<path fill="none" stroke="green" stroke-width="0.19" d="M557.59,-165.35C554.77,-164.34 551.8,-163.34 549,-162.51 481.63,-142.46 458.82,-155.96 395,-126.51 392.51,-125.36 390.01,-124.03 387.56,-122.59"/>
<polygon fill="green" stroke="green" stroke-width="0.19" points="389.25,-119.51 378.96,-116.99 385.44,-125.38 389.25,-119.51"/>
</g>
<!-- &#45;10 -->
<g id="node10" class="node">
<title>&#45;10</title>
<polygon fill="lightgray" stroke="black" points="634,-180.51 602,-180.51 602,-162.51 634,-162.51 634,-180.51"/>
<text text-anchor="middle" x="618" y="-169.31" font-family="Times,serif" font-size="9.00">&#45;10</text>
</g>
<!-- &#45;10&#45;&gt;1676 -->
<g id="edge46" class="edge">
<title>&#45;10&#45;&gt;1676</title>
<path fill="none" stroke="green" stroke-width="0.27" d="M601.88,-165.29C598.93,-164.35 595.87,-163.39 593,-162.51 538.96,-145.89 521.63,-151.65 471,-126.51 468.54,-125.29 466.07,-123.91 463.64,-122.43"/>
<polygon fill="green" stroke="green" stroke-width="0.27" points="465.35,-119.36 455.08,-116.76 461.48,-125.19 465.35,-119.36"/>
</g>
<!-- &#45;10&#45;&gt;1678 -->
<g id="edge47" class="edge">
<title>&#45;10&#45;&gt;1678</title>
<path fill="none" stroke="red" stroke-width="0.39" d="M605.5,-162.25C589.97,-151.99 562.89,-134.11 541.36,-119.89"/>
<polygon fill="red" stroke="red" stroke-width="0.39" points="543.1,-116.85 532.83,-114.26 539.24,-122.69 543.1,-116.85"/>
</g>
<!-- &#45;10&#45;&gt;1679 -->
<g id="edge48" class="edge">
<title>&#45;10&#45;&gt;1679</title>
<path fill="none" stroke="red" stroke-width="0.12" d="M601.99,-164.85C599.03,-163.96 595.94,-163.13 593,-162.51 439.93,-130.51 388.87,-182.87 243,-126.51 240.28,-125.46 237.58,-124.16 234.94,-122.7"/>
<polygon fill="red" stroke="red" stroke-width="0.12" points="236.65,-119.63 226.33,-117.24 232.91,-125.55 236.65,-119.63"/>
</g>
<!-- &#45;10&#45;&gt;1680 -->
<g id="edge49" class="edge">
<title>&#45;10&#45;&gt;1680</title>
<path fill="none" stroke="red" stroke-width="0.1" d="M601.98,-164.92C599.02,-164.02 595.94,-163.17 593,-162.51 473.14,-135.69 432.94,-172.38 319,-126.51 316.29,-125.42 313.6,-124.09 310.98,-122.61"/>
<polygon fill="red" stroke="red" stroke-width="0.1" points="312.69,-119.55 302.37,-117.12 308.92,-125.45 312.69,-119.55"/>
</g>
<!-- &#45;10&#45;&gt;1681 -->
<g id="edge50" class="edge">
<title>&#45;10&#45;&gt;1681</title>
<path fill="none" stroke="red" stroke-width="0.25" d="M601.95,-165.04C598.99,-164.12 595.92,-163.24 593,-162.51 506.22,-140.83 477.12,-161.95 395,-126.51 392.48,-125.42 389.96,-124.14 387.5,-122.73"/>
<polygon fill="red" stroke="red" stroke-width="0.25" points="389.18,-119.65 378.87,-117.2 385.4,-125.54 389.18,-119.65"/>
</g>
<!-- &#45;11 -->
<g id="node11" class="node">
<title>&#45;11</title>
<polygon fill="lightgray" stroke="black" points="32,-180.51 0,-180.51 0,-162.51 32,-162.51 32,-180.51"/>
<text text-anchor="middle" x="16" y="-169.31" font-family="Times,serif" font-size="9.00">&#45;11</text>
</g>
<!-- &#45;11&#45;&gt;1676 -->
<g id="edge51" class="edge">
<title>&#45;11&#45;&gt;1676</title>
<path fill="none" stroke="green" stroke-width="0.11" d="M32.01,-164.85C34.97,-163.95 38.06,-163.12 41,-162.51 195.82,-130.24 247.45,-183.42 395,-126.51 397.72,-125.46 400.42,-124.16 403.06,-122.7"/>
<polygon fill="green" stroke="green" stroke-width="0.11" points="405.09,-125.55 411.68,-117.25 401.35,-119.64 405.09,-125.55"/>
</g>
<!-- &#45;11&#45;&gt;1678 -->
<g id="edge52" class="edge">
<title>&#45;11&#45;&gt;1678</title>
<path fill="none" stroke="green" stroke-width="0.33" d="M32.27,-164.72C35.15,-163.86 38.14,-163.08 41,-162.51 229.08,-125.05 291.46,-193.93 471,-126.51 473.73,-125.48 476.44,-124.2 479.08,-122.75"/>
<polygon fill="green" stroke="green" stroke-width="0.33" points="481.1,-125.61 487.71,-117.33 477.38,-119.69 481.1,-125.61"/>
</g>
<!-- &#45;11&#45;&gt;1679 -->
<g id="edge53" class="edge">
<title>&#45;11&#45;&gt;1679</title>
<path fill="none" stroke="green" stroke-width="0.15" d="M32.11,-164.37C62.2,-152.91 127.57,-128.01 168.75,-112.33"/>
<polygon fill="green" stroke="green" stroke-width="0.15" points="170.06,-115.57 178.16,-108.74 167.57,-109.03 170.06,-115.57"/>
</g>
<!-- &#45;11&#45;&gt;1680 -->
<g id="edge54" class="edge">
<title>&#45;11&#45;&gt;1680</title>
<path fill="none" stroke="red" stroke-width="0.36" d="M32.05,-165.03C35.01,-164.12 38.08,-163.23 41,-162.51 129.51,-140.56 159.21,-162.49 243,-126.51 245.52,-125.43 248.04,-124.15 250.5,-122.74"/>
<polygon fill="red" stroke="red" stroke-width="0.36" points="252.6,-125.55 259.14,-117.22 248.83,-119.66 252.6,-125.55"/>
</g>
<!-- &#45;11&#45;&gt;1681 -->
<g id="edge55" class="edge">
<title>&#45;11&#45;&gt;1681</title>
<path fill="none" stroke="red" stroke-width="0.5" stroke-dasharray="1,5" d="M32.02,-164.91C34.98,-164.01 38.06,-163.16 41,-162.51 162.6,-135.41 203.39,-172.93 319,-126.51 321.71,-125.42 324.4,-124.09 327.02,-122.62"/>
<polygon fill="red" stroke="red" stroke-width="0.5" points="329.08,-125.46 335.63,-117.13 325.32,-119.56 329.08,-125.46"/>
</g>
<!-- &#45;12 -->
<g id="node12" class="node">
<title>&#45;12</title>
<polygon fill="lightgray" stroke="black" points="82,-180.51 50,-180.51 50,-162.51 82,-162.51 82,-180.51"/>
<text text-anchor="middle" x="66" y="-169.31" font-family="Times,serif" font-size="9.00">&#45;12</text>
</g>
<!-- &#45;12&#45;&gt;1676 -->
<g id="edge56" class="edge">
<title>&#45;12&#45;&gt;1676</title>
<path fill="none" stroke="red" stroke-width="0.13" d="M82.01,-164.89C84.98,-163.99 88.06,-163.15 91,-162.51 223.96,-133.64 268.47,-176.52 395,-126.51 397.71,-125.44 400.41,-124.12 403.04,-122.65"/>
<polygon fill="red" stroke="red" stroke-width="0.13" points="405.08,-125.5 411.65,-117.18 401.33,-119.59 405.08,-125.5"/>
</g>
<!-- &#45;12&#45;&gt;1678 -->
<g id="edge57" class="edge">
<title>&#45;12&#45;&gt;1678</title>
<path fill="none" stroke="green" stroke-width="0.23" d="M82,-164.83C84.96,-163.94 88.05,-163.11 91,-162.51 257.19,-128.46 312.51,-187.01 471,-126.51 473.73,-125.47 476.43,-124.18 479.07,-122.72"/>
<polygon fill="green" stroke="green" stroke-width="0.23" points="481.1,-125.58 487.69,-117.28 477.36,-119.66 481.1,-125.58"/>
</g>
<!-- &#45;12&#45;&gt;1679 -->
<g id="edge58" class="edge">
<title>&#45;12&#45;&gt;1679</title>
<path fill="none" stroke="red" stroke-width="0.16" d="M81.67,-162.39C103.04,-151.32 141.91,-131.2 170.31,-116.48"/>
<polygon fill="red" stroke="red" stroke-width="0.16" points="172.23,-119.43 179.5,-111.72 169.01,-113.22 172.23,-119.43"/>
</g>
<!-- &#45;12&#45;&gt;1680 -->
<g id="edge59" class="edge">
<title>&#45;12&#45;&gt;1680</title>
<path fill="none" stroke="red" stroke-width="0.13" d="M82.08,-165.16C85.04,-164.24 88.1,-163.32 91,-162.51 157.89,-143.92 180,-155.69 243,-126.51 245.49,-125.36 247.99,-124.02 250.43,-122.58"/>
<polygon fill="red" stroke="red" stroke-width="0.13" points="252.56,-125.37 259.03,-116.98 248.74,-119.5 252.56,-125.37"/>
</g>
<!-- &#45;12&#45;&gt;1681 -->
<g id="edge60" class="edge">
<title>&#45;12&#45;&gt;1681</title>
<path fill="none" stroke="green" stroke-width="0.34" d="M82.04,-164.98C84.99,-164.07 88.07,-163.2 91,-162.51 190.81,-138.81 224.34,-166.06 319,-126.51 321.54,-125.45 324.06,-124.19 326.53,-122.8"/>
<polygon fill="green" stroke="green" stroke-width="0.34" points="328.61,-125.62 335.17,-117.3 324.86,-119.71 328.61,-125.62"/>
</g>
<!-- &#45;13 -->
<g id="node13" class="node">
<title>&#45;13</title>
<polygon fill="lightgray" stroke="black" points="132,-180.51 100,-180.51 100,-162.51 132,-162.51 132,-180.51"/>
<text text-anchor="middle" x="116" y="-169.31" font-family="Times,serif" font-size="9.00">&#45;13</text>
</g>
<!-- &#45;13&#45;&gt;1676 -->
<g id="edge61" class="edge">
<title>&#45;13&#45;&gt;1676</title>
<path fill="none" stroke="green" stroke-width="0.4" d="M132.03,-164.94C134.99,-164.04 138.07,-163.18 141,-162.51 252.14,-137.04 289.45,-169.63 395,-126.51 397.54,-125.47 400.07,-124.22 402.55,-122.84"/>
<polygon fill="green" stroke="green" stroke-width="0.4" points="404.62,-125.67 411.2,-117.37 400.88,-119.75 404.62,-125.67"/>
</g>
<!-- &#45;13&#45;&gt;1678 -->
<g id="edge62" class="edge">
<title>&#45;13&#45;&gt;1678</title>
<path fill="none" stroke="red" stroke-width="0.22" d="M132.01,-164.86C134.97,-163.97 138.06,-163.13 141,-162.51 285.32,-131.87 333.54,-180.1 471,-126.51 473.72,-125.45 476.42,-124.14 479.05,-122.68"/>
<polygon fill="red" stroke="red" stroke-width="0.22" points="481.09,-125.53 487.66,-117.22 477.34,-119.61 481.09,-125.53"/>
</g>
<!-- &#45;13&#45;&gt;1679 -->
<g id="edge63" class="edge">
<title>&#45;13&#45;&gt;1679</title>
<path fill="none" stroke="red" stroke-width="0.24" d="M126.21,-162.25C137.98,-152.73 157.88,-136.64 174.73,-123.01"/>
<polygon fill="red" stroke="red" stroke-width="0.24" points="177.13,-125.56 182.71,-116.55 172.73,-120.12 177.13,-125.56"/>
</g>
<!-- &#45;13&#45;&gt;1680 -->
<g id="edge64" class="edge">
<title>&#45;13&#45;&gt;1680</title>
<path fill="none" stroke="green" stroke-width="0.34" d="M132.48,-165.11C164.51,-154.56 232.93,-131.8 243,-126.51 245.35,-125.27 247.71,-123.9 250.04,-122.45"/>
<polygon fill="green" stroke="green" stroke-width="0.34" points="252.47,-125.04 258.83,-116.57 248.57,-119.23 252.47,-125.04"/>
</g>
<!-- &#45;13&#45;&gt;1681 -->
<g id="edge65" class="edge">
<title>&#45;13&#45;&gt;1681</title>
<path fill="none" stroke="green" stroke-width="0.17" d="M132.06,-165.08C135.02,-164.17 138.09,-163.27 141,-162.51 219.11,-142.18 245.21,-159.22 319,-126.51 321.51,-125.4 324.02,-124.09 326.48,-122.67"/>
<polygon fill="green" stroke="green" stroke-width="0.17" points="328.58,-125.48 335.1,-117.12 324.79,-119.59 328.58,-125.48"/>
</g>
<!-- &#45;14 -->
<g id="node14" class="node">
<title>&#45;14</title>
<polygon fill="lightgray" stroke="black" points="182,-180.51 150,-180.51 150,-162.51 182,-162.51 182,-180.51"/>
<text text-anchor="middle" x="166" y="-169.31" font-family="Times,serif" font-size="9.00">&#45;14</text>
</g>
<!-- &#45;14&#45;&gt;1676 -->
<g id="edge66" class="edge">
<title>&#45;14&#45;&gt;1676</title>
<path fill="none" stroke="green" stroke-width="0.42" d="M182.05,-165.02C185,-164.11 188.08,-163.23 191,-162.51 280.38,-140.43 310.37,-162.77 395,-126.51 397.53,-125.43 400.04,-124.15 402.51,-122.74"/>
<polygon fill="green" stroke="green" stroke-width="0.42" points="404.6,-125.56 411.14,-117.22 400.83,-119.66 404.6,-125.56"/>
</g>
<!-- &#45;14&#45;&gt;1678 -->
<g id="edge67" class="edge">
<title>&#45;14&#45;&gt;1678</title>
<path fill="none" stroke="green" stroke-width="0.37" d="M182.02,-164.91C184.98,-164.01 188.06,-163.16 191,-162.51 313.48,-135.28 354.55,-173.21 471,-126.51 473.71,-125.42 476.4,-124.1 479.03,-122.62"/>
<polygon fill="green" stroke="green" stroke-width="0.37" points="481.08,-125.46 487.63,-117.14 477.32,-119.56 481.08,-125.46"/>
</g>
<!-- &#45;14&#45;&gt;1679 -->
<g id="edge68" class="edge">
<title>&#45;14&#45;&gt;1679</title>
<path fill="none" stroke="green" stroke-width="0.5" d="M170.47,-162.25C174.52,-154.79 180.74,-143.3 186.8,-132.11"/>
<polygon fill="green" stroke="green" stroke-width="0.5" points="189.89,-133.75 191.58,-123.29 183.74,-130.42 189.89,-133.75"/>
</g>
<!-- &#45;14&#45;&gt;1680 -->
<g id="edge69" class="edge">
<title>&#45;14&#45;&gt;1680</title>
<path fill="none" stroke="green" stroke-width="0.24" d="M181.36,-162.42C197.13,-153.95 222.22,-140.03 243,-126.51 245.38,-124.96 247.82,-123.31 250.24,-121.63"/>
<polygon fill="green" stroke="green" stroke-width="0.24" points="252.28,-124.48 258.4,-115.83 248.22,-118.78 252.28,-124.48"/>
</g>
<!-- &#45;14&#45;&gt;1681 -->
<g id="edge70" class="edge">
<title>&#45;14&#45;&gt;1681</title>
<path fill="none" stroke="green" stroke-width="0.11" stroke-dasharray="1,5" d="M182.11,-165.26C185.06,-164.33 188.12,-163.38 191,-162.51 247.6,-145.5 265.9,-152.45 319,-126.51 321.47,-125.3 323.94,-123.93 326.38,-122.46"/>
<polygon fill="green" stroke="green" stroke-width="0.11" points="328.53,-125.24 334.95,-116.81 324.68,-119.39 328.53,-125.24"/>
</g>
<!-- &#45;15 -->
<g id="node15" class="node">
<title>&#45;15</title>
<polygon fill="lightgray" stroke="black" points="232,-180.51 200,-180.51 200,-162.51 232,-162.51 232,-180.51"/>
<text text-anchor="middle" x="216" y="-169.31" font-family="Times,serif" font-size="9.00">&#45;15</text>
</g>
<!-- &#45;15&#45;&gt;1676 -->
<g id="edge71" class="edge">
<title>&#45;15&#45;&gt;1676</title>
<path fill="none" stroke="green" stroke-width="0.28" d="M232.08,-165.15C235.04,-164.23 238.1,-163.31 241,-162.51 308.75,-143.78 331.18,-155.96 395,-126.51 397.49,-125.36 399.99,-124.03 402.44,-122.59"/>
<polygon fill="green" stroke="green" stroke-width="0.28" points="404.56,-125.38 411.04,-116.99 400.75,-119.51 404.56,-125.38"/>
</g>
<!-- &#45;15&#45;&gt;1678 -->
<g id="edge72" class="edge">
<title>&#45;15&#45;&gt;1678</title>
<path fill="none" stroke="red" stroke-width="0.2" d="M232.04,-164.98C234.99,-164.07 238.07,-163.2 241,-162.51 341.68,-138.67 375.5,-166.33 471,-126.51 473.54,-125.45 476.06,-124.19 478.53,-122.8"/>
<polygon fill="red" stroke="red" stroke-width="0.2" points="480.61,-125.62 487.18,-117.31 476.86,-119.71 480.61,-125.62"/>
</g>
<!-- &#45;15&#45;&gt;1679 -->
<g id="edge73" class="edge">
<title>&#45;15&#45;&gt;1679</title>
<path fill="none" stroke="red" stroke-width="0.5" d="M214.74,-162.25C213.75,-155.78 212.3,-146.28 210.82,-136.58"/>
<polygon fill="red" stroke="red" stroke-width="0.5" points="214.25,-135.87 209.28,-126.51 207.33,-136.93 214.25,-135.87"/>
</g>
<!-- &#45;15&#45;&gt;1680 -->
<g id="edge74" class="edge">
<title>&#45;15&#45;&gt;1680</title>
<path fill="none" stroke="green" stroke-width="0.47" d="M223.46,-162.25C231.19,-153.69 243.72,-139.81 255.12,-127.19"/>
<polygon fill="green" stroke="green" stroke-width="0.47" points="257.91,-129.31 262.01,-119.55 252.71,-124.62 257.91,-129.31"/>
</g>
<!-- &#45;15&#45;&gt;1681 -->
<g id="edge75" class="edge">
<title>&#45;15&#45;&gt;1681</title>
<path fill="none" stroke="green" stroke-width="0.25" d="M232.25,-164.9C253.02,-157.43 289.79,-143.2 319,-126.51 321.3,-125.19 323.63,-123.76 325.94,-122.27"/>
<polygon fill="green" stroke="green" stroke-width="0.25" points="328.4,-124.82 334.67,-116.28 324.44,-119.05 328.4,-124.82"/>
</g>
<!-- 0 -->
<g id="node16" class="node">
<title>0</title>
<ellipse fill="lightblue" stroke="black" cx="357" cy="-16.26" rx="16.03" ry="16.03"/>
<text text-anchor="middle" x="357" y="-14.06" font-family="Times,serif" font-size="9.00">0</text>
</g>
<!-- 1676&#45;&gt;0 -->
<g id="edge76" class="edge">
<title>1676&#45;&gt;0</title>
<path fill="none" stroke="red" stroke-width="0.25" d="M413.43,-76.11C401.59,-63.77 386.61,-48.15 375.06,-36.1"/>
<polygon fill="red" stroke="red" stroke-width="0.25" points="377.48,-33.57 368.04,-28.77 372.43,-38.41 377.48,-33.57"/>
</g>
<!-- 1676&#45;&gt;1 -->
<g id="edge77" class="edge">
<title>1676&#45;&gt;1</title>
<path fill="none" stroke="red" stroke-width="0.12" d="M428.45,-68.8C427.05,-60.26 425.52,-50.91 424.15,-42.55"/>
<polygon fill="red" stroke="red" stroke-width="0.12" points="427.59,-41.92 422.52,-32.62 420.68,-43.05 427.59,-41.92"/>
</g>
<!-- 1678&#45;&gt;0 -->
<g id="edge78" class="edge">
<title>1678&#45;&gt;0</title>
<path fill="none" stroke="red" stroke-width="0.21" d="M486.63,-78.83C481.62,-75.21 476.24,-71.59 471,-68.53 454.99,-59.18 409.57,-39.47 381.13,-27.4"/>
<polygon fill="red" stroke="red" stroke-width="0.21" points="382.43,-24.15 371.86,-23.48 379.7,-30.6 382.43,-24.15"/>
</g>
<!-- 1678&#45;&gt;1 -->
<g id="edge79" class="edge">
<title>1678&#45;&gt;1</title>
<path fill="none" stroke="green" stroke-width="0.21" d="M487.46,-77.33C472.83,-64.31 453.66,-47.24 439.49,-34.62"/>
<polygon fill="green" stroke="green" stroke-width="0.21" points="441.6,-31.81 431.8,-27.77 436.94,-37.04 441.6,-31.81"/>
</g>
<!-- 1679&#45;&gt;0 -->
<g id="edge80" class="edge">
<title>1679&#45;&gt;0</title>
<path fill="none" stroke="green" stroke-width="0.5" d="M227.37,-78.83C232.38,-75.21 237.76,-71.59 243,-68.53 272.38,-51.36 308.54,-35.99 332.15,-26.66"/>
<polygon fill="green" stroke="green" stroke-width="0.5" points="333.69,-29.81 341.74,-22.93 331.15,-23.29 333.69,-29.81"/>
</g>
<!-- 1679&#45;&gt;1 -->
<g id="edge81" class="edge">
<title>1679&#45;&gt;1</title>
<path fill="none" stroke="green" stroke-width="0.5" d="M227.01,-78.14C232.04,-74.57 237.52,-71.13 243,-68.53 300.62,-41.11 321.38,-52.46 382,-32.53 386.53,-31.04 391.29,-29.28 395.86,-27.5"/>
<polygon fill="green" stroke="green" stroke-width="0.5" points="397.41,-30.65 405.37,-23.65 394.78,-24.16 397.41,-30.65"/>
</g>
<!-- 1680&#45;&gt;0 -->
<g id="edge82" class="edge">
<title>1680&#45;&gt;0</title>
<path fill="none" stroke="red" stroke-width="0.14" d="M300.57,-76.11C312.41,-63.77 327.39,-48.15 338.94,-36.1"/>
<polygon fill="red" stroke="red" stroke-width="0.14" points="341.57,-38.41 345.96,-28.77 336.52,-33.57 341.57,-38.41"/>
</g>
<!-- 1680&#45;&gt;1 -->
<g id="edge83" class="edge">
<title>1680&#45;&gt;1</title>
<path fill="none" stroke="green" stroke-width="0.48" d="M303.48,-79.01C308.49,-75.39 313.84,-71.71 319,-68.53 344.44,-52.85 375.26,-37.73 396.11,-28.02"/>
<polygon fill="green" stroke="green" stroke-width="0.48" points="397.58,-31.19 405.21,-23.83 394.66,-24.83 397.58,-31.19"/>
</g>
<!-- 1681&#45;&gt;0 -->
<g id="edge84" class="edge">
<title>1681&#45;&gt;0</title>
<path fill="none" stroke="green" stroke-width="0.24" d="M357,-68.35C357,-60.06 357,-51.04 357,-42.91"/>
<polygon fill="green" stroke="green" stroke-width="0.24" points="360.5,-42.89 357,-32.89 353.5,-42.89 360.5,-42.89"/>
</g>
<!-- 1681&#45;&gt;1 -->
<g id="edge85" class="edge">
<title>1681&#45;&gt;1</title>
<path fill="none" stroke="green" stroke-width="0.21" d="M374.55,-74.44C383.72,-62.91 394.86,-48.89 403.82,-37.62"/>
<polygon fill="green" stroke="green" stroke-width="0.21" points="406.69,-39.63 410.18,-29.62 401.21,-35.27 406.69,-39.63"/>
</g>
</g>
</svg>
