<?xml version="1.0" encoding="UTF-8" standalone="no"?>
<!DOCTYPE svg PUBLIC "-//W3C//DTD SVG 1.1//EN"
 "http://www.w3.org/Graphics/SVG/1.1/DTD/svg11.dtd">
<!-- Generated by graphviz version 2.40.1 (20161225.0304)
 -->
<!-- Title: %3 Pages: 1 -->
<svg width="268pt" height="268pt"
 viewBox="0.00 0.00 267.84 268.35" xmlns="http://www.w3.org/2000/svg" xmlns:xlink="http://www.w3.org/1999/xlink">
<g id="graph0" class="graph" transform="scale(1 1) rotate(0) translate(4 264.3503)">
<title>%3</title>
<polygon fill="#ffffff" stroke="transparent" points="-4,4 -4,-264.3503 263.8449,-264.3503 263.8449,4 -4,4"/>
<!-- &#45;1 -->
<g id="node1" class="node">
<title>&#45;1</title>
<polygon fill="#d3d3d3" stroke="#000000" points="94.7487,-260.3503 70.7487,-260.3503 70.7487,-242.3503 94.7487,-242.3503 94.7487,-260.3503"/>
<text text-anchor="middle" x="82.7487" y="-249.1503" font-family="Times,serif" font-size="9.00" fill="#000000">&#45;1</text>
</g>
<!-- 5396 -->
<g id="node7" class="node">
<title>5396</title>
<ellipse fill="#ffffff" stroke="#000000" cx="24.7487" cy="-181.6016" rx="25" ry="25"/>
<text text-anchor="middle" x="24.7487" y="-179.4016" font-family="Times,serif" font-size="9.00" fill="#000000">5396</text>
</g>
<!-- &#45;1&#45;&gt;5396 -->
<g id="edge1" class="edge">
<title>&#45;1&#45;&gt;5396</title>
<path fill="none" stroke="#ff0000" stroke-width=".4119" d="M75.1663,-242.2319C68.0808,-233.7111 57.1413,-220.5557 47.2609,-208.6739"/>
<polygon fill="#ff0000" stroke="#ff0000" stroke-width=".4119" points="49.7352,-206.1752 40.6502,-200.7241 44.3529,-210.6509 49.7352,-206.1752"/>
</g>
<!-- 5399 -->
<g id="node8" class="node">
<title>5399</title>
<ellipse fill="#ffffff" stroke="#000000" cx="91.7487" cy="-181.6016" rx="25" ry="25"/>
<text text-anchor="middle" x="91.7487" y="-179.4016" font-family="Times,serif" font-size="9.00" fill="#000000">5399</text>
</g>
<!-- &#45;1&#45;&gt;5399 -->
<g id="edge2" class="edge">
<title>&#45;1&#45;&gt;5399</title>
<path fill="none" stroke="#ff0000" stroke-width=".2017" d="M83.9253,-242.2319C84.7861,-235.5609 86.0135,-226.0492 87.2415,-216.5318"/>
<polygon fill="#ff0000" stroke="#ff0000" stroke-width=".2017" points="90.7485,-216.7023 88.5571,-206.3365 83.806,-215.8064 90.7485,-216.7023"/>
</g>
<!-- 5400 -->
<g id="node9" class="node">
<title>5400</title>
<ellipse fill="#ffffff" stroke="#000000" cx="158.7487" cy="-181.6016" rx="25" ry="25"/>
<text text-anchor="middle" x="158.7487" y="-179.4016" font-family="Times,serif" font-size="9.00" fill="#000000">5400</text>
</g>
<!-- &#45;1&#45;&gt;5400 -->
<g id="edge3" class="edge">
<title>&#45;1&#45;&gt;5400</title>
<path fill="none" stroke="#00ff00" stroke-width=".1673" d="M92.6844,-242.2319C102.8691,-232.8849 119.1307,-217.9609 132.9712,-205.2588"/>
<polygon fill="#00ff00" stroke="#00ff00" stroke-width=".1673" points="135.3563,-207.8205 140.3573,-198.4802 130.6232,-202.6632 135.3563,-207.8205"/>
</g>
<!-- 5401 -->
<g id="node10" class="node">
<title>5401</title>
<ellipse fill="#ffffff" stroke="#000000" cx="225.7487" cy="-181.6016" rx="25" ry="25"/>
<text text-anchor="middle" x="225.7487" y="-179.4016" font-family="Times,serif" font-size="9.00" fill="#000000">5401</text>
</g>
<!-- &#45;1&#45;&gt;5401 -->
<g id="edge4" class="edge">
<title>&#45;1&#45;&gt;5401</title>
<path fill="none" stroke="#ff0000" stroke-width=".4128" stroke-dasharray="1,5" d="M95.1678,-245.978C97.9845,-244.7734 100.9659,-243.5093 103.7487,-242.3503 143.1381,-225.9454 155.5917,-227.3263 192.7487,-206.3503 194.4793,-205.3733 196.2224,-204.3174 197.9551,-203.2111"/>
<polygon fill="#ff0000" stroke="#ff0000" stroke-width=".4128" points="200.1644,-205.9396 206.4242,-197.3918 196.2002,-200.1703 200.1644,-205.9396"/>
</g>
<!-- &#45;2 -->
<g id="node2" class="node">
<title>&#45;2</title>
<polygon fill="#d3d3d3" stroke="#000000" points="136.7487,-260.3503 112.7487,-260.3503 112.7487,-242.3503 136.7487,-242.3503 136.7487,-260.3503"/>
<text text-anchor="middle" x="124.7487" y="-249.1503" font-family="Times,serif" font-size="9.00" fill="#000000">&#45;2</text>
</g>
<!-- &#45;2&#45;&gt;5396 -->
<g id="edge5" class="edge">
<title>&#45;2&#45;&gt;5396</title>
<path fill="none" stroke="#ff0000" stroke-width=".4693" d="M112.2684,-243.247C98.7125,-234.3809 76.4853,-219.6547 57.7487,-206.3503 56.1284,-205.1997 54.4716,-204.0078 52.8053,-202.797"/>
<polygon fill="#ff0000" stroke="#ff0000" stroke-width=".4693" points="54.6454,-199.8053 44.519,-196.6898 50.4923,-205.4402 54.6454,-199.8053"/>
</g>
<!-- &#45;2&#45;&gt;5399 -->
<g id="edge6" class="edge">
<title>&#45;2&#45;&gt;5399</title>
<path fill="none" stroke="#ff0000" stroke-width=".5" d="M120.4346,-242.2319C116.9213,-234.8062 111.7427,-223.8607 106.7488,-213.3057"/>
<polygon fill="#ff0000" stroke="#ff0000" stroke-width=".5" points="109.8949,-211.7714 102.4543,-204.2289 103.5674,-214.7651 109.8949,-211.7714"/>
</g>
<!-- &#45;2&#45;&gt;5400 -->
<g id="edge7" class="edge">
<title>&#45;2&#45;&gt;5400</title>
<path fill="none" stroke="#00ff00" stroke-width=".1652" d="M129.1936,-242.2319C132.8412,-234.7491 138.2311,-223.6921 143.4128,-213.0622"/>
<polygon fill="#00ff00" stroke="#00ff00" stroke-width=".1652" points="146.6281,-214.4538 147.8638,-203.9313 140.3359,-211.3865 146.6281,-214.4538"/>
</g>
<!-- &#45;2&#45;&gt;5401 -->
<g id="edge8" class="edge">
<title>&#45;2&#45;&gt;5401</title>
<path fill="none" stroke="#ff0000" stroke-width=".5" stroke-dasharray="1,5" d="M136.9312,-243.5959C150.6518,-234.7918 173.5417,-219.8902 192.7487,-206.3503 194.373,-205.2053 196.0329,-204.0177 197.7016,-202.8102"/>
<polygon fill="#ff0000" stroke="#ff0000" stroke-width=".5" points="200.0115,-205.4561 205.9944,-196.7122 195.8645,-199.8167 200.0115,-205.4561"/>
</g>
<!-- &#45;3 -->
<g id="node3" class="node">
<title>&#45;3</title>
<polygon fill="#d3d3d3" stroke="#000000" points="178.7487,-260.3503 154.7487,-260.3503 154.7487,-242.3503 178.7487,-242.3503 178.7487,-260.3503"/>
<text text-anchor="middle" x="166.7487" y="-249.1503" font-family="Times,serif" font-size="9.00" fill="#000000">&#45;3</text>
</g>
<!-- &#45;3&#45;&gt;5396 -->
<g id="edge9" class="edge">
<title>&#45;3&#45;&gt;5396</title>
<path fill="none" stroke="#ff0000" stroke-width=".2804" d="M154.3263,-245.9861C151.5098,-244.7811 148.5293,-243.5148 145.7487,-242.3503 106.7716,-226.0267 94.5063,-227.1965 57.7487,-206.3503 56.0201,-205.3699 54.2785,-204.3113 52.547,-203.2029"/>
<polygon fill="#ff0000" stroke="#ff0000" stroke-width=".2804" points="54.3033,-200.1629 44.0811,-197.378 50.3355,-205.9298 54.3033,-200.1629"/>
</g>
<!-- &#45;3&#45;&gt;5399 -->
<g id="edge10" class="edge">
<title>&#45;3&#45;&gt;5399</title>
<path fill="none" stroke="#ff0000" stroke-width=".4653" d="M156.9438,-242.2319C146.9862,-232.9715 131.1422,-218.2368 117.5671,-205.6122"/>
<polygon fill="#ff0000" stroke="#ff0000" stroke-width=".4653" points="119.6045,-202.7273 109.8982,-198.4802 114.8374,-207.8533 119.6045,-202.7273"/>
</g>
<!-- &#45;3&#45;&gt;5400 -->
<g id="edge11" class="edge">
<title>&#45;3&#45;&gt;5400</title>
<path fill="none" stroke="#ff0000" stroke-width=".3747" d="M165.7029,-242.2319C164.9377,-235.5609 163.8468,-226.0492 162.7552,-216.5318"/>
<polygon fill="#ff0000" stroke="#ff0000" stroke-width=".3747" points="166.2026,-215.8725 161.5858,-206.3365 159.2482,-216.6703 166.2026,-215.8725"/>
</g>
<!-- &#45;3&#45;&gt;5401 -->
<g id="edge12" class="edge">
<title>&#45;3&#45;&gt;5401</title>
<path fill="none" stroke="#00ff00" stroke-width=".2978" d="M174.462,-242.2319C181.6696,-233.7111 192.7976,-220.5557 202.8484,-208.6739"/>
<polygon fill="#00ff00" stroke="#00ff00" stroke-width=".2978" points="205.787,-210.6194 209.5731,-200.7241 200.4426,-206.0986 205.787,-210.6194"/>
</g>
<!-- 0 -->
<g id="node4" class="node">
<title>0</title>
<ellipse fill="#add8e6" stroke="#000000" cx="115.7487" cy="-93.2756" rx="14.7" ry="14.7"/>
<text text-anchor="middle" x="115.7487" y="-91.0756" font-family="Times,serif" font-size="9.00" fill="#000000">0</text>
</g>
<!-- 1 -->
<g id="node5" class="node">
<title>1</title>
<ellipse fill="#add8e6" stroke="#000000" cx="158.7487" cy="-14.8492" rx="14.7" ry="14.7"/>
<text text-anchor="middle" x="158.7487" y="-12.6492" font-family="Times,serif" font-size="9.00" fill="#000000">1</text>
</g>
<!-- 32106 -->
<g id="node6" class="node">
<title>32106</title>
<ellipse fill="#ffffff" stroke="#000000" cx="214.7487" cy="-93.2756" rx="27.6545" ry="27.6545"/>
<text text-anchor="middle" x="214.7487" y="-91.0756" font-family="Times,serif" font-size="9.00" fill="#000000">32106</text>
</g>
<!-- 32106&#45;&gt;1 -->
<g id="edge22" class="edge">
<title>32106&#45;&gt;1</title>
<path fill="none" stroke="#ff0000" stroke-width=".2619" d="M198.5512,-70.5915C190.6775,-59.5645 181.2796,-46.4031 173.5933,-35.6387"/>
<polygon fill="#ff0000" stroke="#ff0000" stroke-width=".2619" points="176.27,-33.3643 167.6105,-27.2599 170.5732,-37.4321 176.27,-33.3643"/>
</g>
<!-- 5396&#45;&gt;0 -->
<g id="edge13" class="edge">
<title>5396&#45;&gt;0</title>
<path fill="none" stroke="#00ff00" stroke-width=".5" d="M42.7274,-164.1512C58.6632,-148.6837 81.8134,-126.2138 97.754,-110.7416"/>
<polygon fill="#00ff00" stroke="#00ff00" stroke-width=".5" points="100.199,-113.246 104.937,-103.7696 95.3236,-108.223 100.199,-113.246"/>
</g>
<!-- 5396&#45;&gt;1 -->
<g id="edge14" class="edge">
<title>5396&#45;&gt;1</title>
<path fill="none" stroke="#00ff00" stroke-width=".5" d="M31.2399,-157.5661C38.9924,-132.3948 53.9799,-92.8234 77.7487,-65.6985 93.814,-47.3648 118.0926,-33.3358 135.8805,-24.7037"/>
<polygon fill="#00ff00" stroke="#00ff00" stroke-width=".5" points="137.4044,-27.8551 145.0015,-20.4703 134.4574,-21.5057 137.4044,-27.8551"/>
</g>
<!-- 5399&#45;&gt;0 -->
<g id="edge15" class="edge">
<title>5399&#45;&gt;0</title>
<path fill="none" stroke="#00ff00" stroke-width=".1616" d="M98.3068,-157.4661C101.6898,-145.016 105.8048,-129.8717 109.1882,-117.4202"/>
<polygon fill="#00ff00" stroke="#00ff00" stroke-width=".1616" points="112.5812,-118.2805 111.8259,-107.7126 105.8262,-116.4449 112.5812,-118.2805"/>
</g>
<!-- 5399&#45;&gt;1 -->
<g id="edge16" class="edge">
<title>5399&#45;&gt;1</title>
<path fill="none" stroke="#00ff00" stroke-width=".4238" d="M85.7974,-157.5525C81.0571,-133.0772 77.3432,-94.716 91.7487,-65.6985 100.89,-47.285 120.2393,-33.7458 135.8048,-25.2886"/>
<polygon fill="#00ff00" stroke="#00ff00" stroke-width=".4238" points="137.5493,-28.3282 144.8825,-20.6813 134.3812,-22.0862 137.5493,-28.3282"/>
</g>
<!-- 5400&#45;&gt;0 -->
<g id="edge17" class="edge">
<title>5400&#45;&gt;0</title>
<path fill="none" stroke="#ff0000" stroke-width=".3863" d="M147.898,-159.3132C141.4114,-145.9891 133.1946,-129.1111 126.6917,-115.7535"/>
<polygon fill="#ff0000" stroke="#ff0000" stroke-width=".3863" points="129.8329,-114.2096 122.3088,-106.7505 123.5391,-117.2737 129.8329,-114.2096"/>
</g>
<!-- 5400&#45;&gt;1 -->
<g id="edge18" class="edge">
<title>5400&#45;&gt;1</title>
<path fill="none" stroke="#ff0000" stroke-width=".3501" stroke-dasharray="1,5" d="M158.7487,-156.637C158.7487,-125.2654 158.7487,-71.7215 158.7487,-40.179"/>
<polygon fill="#ff0000" stroke="#ff0000" stroke-width=".3501" points="162.2488,-40.0119 158.7487,-30.0119 155.2488,-40.012 162.2488,-40.0119"/>
</g>
<!-- 5401&#45;&gt;0 -->
<g id="edge19" class="edge">
<title>5401&#45;&gt;0</title>
<path fill="none" stroke="#00ff00" stroke-width=".1989" d="M206.3362,-166.014C186.3681,-149.9804 155.4327,-125.1404 135.3837,-109.0418"/>
<polygon fill="#00ff00" stroke="#00ff00" stroke-width=".1989" points="137.5103,-106.2607 127.5215,-102.7287 133.1275,-111.7189 137.5103,-106.2607"/>
</g>
<!-- 5401&#45;&gt;1 -->
<g id="edge20" class="edge">
<title>5401&#45;&gt;1</title>
<path fill="none" stroke="#00ff00" stroke-width=".2904" stroke-dasharray="1,5" d="M239.1173,-160.4945C252.6997,-136.1015 269.4188,-95.4988 251.7487,-65.6985 237.0027,-40.8295 205.3262,-27.333 183.0556,-20.617"/>
<polygon fill="#00ff00" stroke="#00ff00" stroke-width=".2904" points="183.8578,-17.2076 173.2868,-17.9181 181.9937,-23.9548 183.8578,-17.2076"/>
</g>
<!-- 5401&#45;&gt;32106 -->
<g id="edge21" class="edge">
<title>5401&#45;&gt;32106</title>
<path fill="none" stroke="#ff0000" stroke-width=".1355" d="M222.6846,-156.9979C221.6794,-148.9264 220.5382,-139.7626 219.4408,-130.9511"/>
<polygon fill="#ff0000" stroke="#ff0000" stroke-width=".1355" points="222.8926,-130.3462 218.1835,-120.8554 215.9462,-131.2113 222.8926,-130.3462"/>
</g>
</g>
</svg>
