<?xml version="1.0" encoding="UTF-8" standalone="no"?>
<!DOCTYPE svg PUBLIC "-//W3C//DTD SVG 1.1//EN"
 "http://www.w3.org/Graphics/SVG/1.1/DTD/svg11.dtd">
<!-- Generated by graphviz version 2.40.1 (20161225.0304)
 -->
<!-- Title: %3 Pages: 1 -->
<svg width="386pt" height="444pt"
 viewBox="0.00 0.00 385.58 443.59" xmlns="http://www.w3.org/2000/svg" xmlns:xlink="http://www.w3.org/1999/xlink">
<g id="graph0" class="graph" transform="scale(1 1) rotate(0) translate(4 439.5879)">
<title>%3</title>
<polygon fill="#ffffff" stroke="transparent" points="-4,4 -4,-439.5879 381.5772,-439.5879 381.5772,4 -4,4"/>
<!-- &#45;1 -->
<g id="node1" class="node">
<title>&#45;1</title>
<polygon fill="#d3d3d3" stroke="#000000" points="24,-102.2756 0,-102.2756 0,-84.2756 24,-84.2756 24,-102.2756"/>
<text text-anchor="middle" x="12" y="-91.0756" font-family="Times,serif" font-size="9.00" fill="#000000">&#45;1</text>
</g>
<!-- 874 -->
<g id="node8" class="node">
<title>874</title>
<ellipse fill="#ffffff" stroke="#000000" cx="113" cy="-21.2132" rx="21.4286" ry="21.4286"/>
<text text-anchor="middle" x="113" y="-19.0132" font-family="Times,serif" font-size="9.00" fill="#000000">874</text>
</g>
<!-- &#45;1&#45;&gt;874 -->
<g id="edge1" class="edge">
<title>&#45;1&#45;&gt;874</title>
<path fill="none" stroke="#00ff00" stroke-width=".4" stroke-dasharray="1,5" d="M24.3846,-84.4394C39.9634,-73.3241 67.1122,-53.9537 87.2664,-39.5738"/>
<polygon fill="#00ff00" stroke="#00ff00" stroke-width=".4" points="89.314,-42.4125 95.4216,-33.7552 85.2483,-36.7142 89.314,-42.4125"/>
</g>
<!-- &#45;2 -->
<g id="node2" class="node">
<title>&#45;2</title>
<polygon fill="#d3d3d3" stroke="#000000" points="140,-435.5879 116,-435.5879 116,-417.5879 140,-417.5879 140,-435.5879"/>
<text text-anchor="middle" x="128" y="-424.3879" font-family="Times,serif" font-size="9.00" fill="#000000">&#45;2</text>
</g>
<!-- 21863 -->
<g id="node6" class="node">
<title>21863</title>
<ellipse fill="#ffffff" stroke="#000000" cx="34" cy="-171.7021" rx="27.6545" ry="27.6545"/>
<text text-anchor="middle" x="34" y="-169.5021" font-family="Times,serif" font-size="9.00" fill="#000000">21863</text>
</g>
<!-- &#45;2&#45;&gt;21863 -->
<g id="edge13" class="edge">
<title>&#45;2&#45;&gt;21863</title>
<path fill="none" stroke="#00ff00" stroke-width=".2909" d="M115.6032,-419.313C103.5238,-411.5454 85.615,-398.0937 76,-381.5879 44.4837,-327.4848 36.2597,-253.6794 34.3199,-209.5436"/>
<polygon fill="#00ff00" stroke="#00ff00" stroke-width=".2909" points="37.817,-209.3963 33.9658,-199.5262 30.8213,-209.6437 37.817,-209.3963"/>
</g>
<!-- &#45;2&#45;&gt;874 -->
<g id="edge2" class="edge">
<title>&#45;2&#45;&gt;874</title>
<path fill="none" stroke="#00ff00" stroke-width=".3686" d="M124.3564,-417.5277C114.8453,-393.0317 90,-323.2613 90,-262.8564 90,-262.8564 90,-262.8564 90,-171.7021 90,-129.855 98.798,-82.206 105.5112,-51.9394"/>
<polygon fill="#00ff00" stroke="#00ff00" stroke-width=".3686" points="108.9675,-52.5248 107.7809,-41.9966 102.1431,-50.9668 108.9675,-52.5248"/>
</g>
<!-- 875 -->
<g id="node9" class="node">
<title>875</title>
<ellipse fill="#ffffff" stroke="#000000" cx="139" cy="-171.7021" rx="21.4286" ry="21.4286"/>
<text text-anchor="middle" x="139" y="-169.5021" font-family="Times,serif" font-size="9.00" fill="#000000">875</text>
</g>
<!-- &#45;2&#45;&gt;875 -->
<g id="edge3" class="edge">
<title>&#45;2&#45;&gt;875</title>
<path fill="none" stroke="#00ff00" stroke-width=".1222" stroke-dasharray="1,5" d="M128.3915,-417.5164C129.8651,-383.3707 135.1218,-261.5646 137.6383,-203.2538"/>
<polygon fill="#00ff00" stroke="#00ff00" stroke-width=".1222" points="141.1403,-203.2819 138.0748,-193.1402 134.1468,-202.98 141.1403,-203.2819"/>
</g>
<!-- 876 -->
<g id="node10" class="node">
<title>876</title>
<ellipse fill="#ffffff" stroke="#000000" cx="245" cy="-354.0107" rx="21.4286" ry="21.4286"/>
<text text-anchor="middle" x="245" y="-351.8107" font-family="Times,serif" font-size="9.00" fill="#000000">876</text>
</g>
<!-- &#45;2&#45;&gt;876 -->
<g id="edge4" class="edge">
<title>&#45;2&#45;&gt;876</title>
<path fill="none" stroke="#ff0000" stroke-width=".4922" d="M140.1079,-421.5586C157.4602,-414.0836 190.0567,-399.034 215,-381.5879 217.4457,-379.8773 219.9,-377.9815 222.2938,-376.0082"/>
<polygon fill="#ff0000" stroke="#ff0000" stroke-width=".4922" points="224.8927,-378.3839 230.098,-369.1559 220.2742,-373.1237 224.8927,-378.3839"/>
</g>
<!-- 6077 -->
<g id="node11" class="node">
<title>6077</title>
<ellipse fill="#ffffff" stroke="#000000" cx="181" cy="-354.0107" rx="25" ry="25"/>
<text text-anchor="middle" x="181" y="-351.8107" font-family="Times,serif" font-size="9.00" fill="#000000">6077</text>
</g>
<!-- &#45;2&#45;&gt;6077 -->
<g id="edge10" class="edge">
<title>&#45;2&#45;&gt;6077</title>
<path fill="none" stroke="#00ff00" stroke-width=".1649" d="M134.7125,-417.3959C141.1399,-408.5943 151.1756,-394.8516 160.2617,-382.4094"/>
<polygon fill="#00ff00" stroke="#00ff00" stroke-width=".1649" points="163.2733,-384.22 166.3443,-374.08 157.6202,-380.0917 163.2733,-384.22"/>
</g>
<!-- &#45;3 -->
<g id="node3" class="node">
<title>&#45;3</title>
<polygon fill="#d3d3d3" stroke="#000000" points="306,-435.5879 282,-435.5879 282,-417.5879 306,-417.5879 306,-435.5879"/>
<text text-anchor="middle" x="294" y="-424.3879" font-family="Times,serif" font-size="9.00" fill="#000000">&#45;3</text>
</g>
<!-- &#45;3&#45;&gt;874 -->
<g id="edge5" class="edge">
<title>&#45;3&#45;&gt;874</title>
<path fill="none" stroke="#00ff00" stroke-width=".2775" stroke-dasharray="1,5" d="M294,-417.3558C294,-392.433 294,-321.6974 294,-262.8564 294,-262.8564 294,-262.8564 294,-171.7021 294,-94.1203 194.4615,-48.8449 143.0154,-30.6256"/>
<polygon fill="#00ff00" stroke="#00ff00" stroke-width=".2775" points="144.0057,-27.2653 133.4112,-27.341 141.7405,-33.8887 144.0057,-27.2653"/>
</g>
<!-- &#45;3&#45;&gt;876 -->
<g id="edge6" class="edge">
<title>&#45;3&#45;&gt;876</title>
<path fill="none" stroke="#00ff00" stroke-width=".4151" d="M287.7941,-417.3959C281.517,-408.0984 271.5175,-393.2875 262.7625,-380.32"/>
<polygon fill="#00ff00" stroke="#00ff00" stroke-width=".4151" points="265.4577,-378.0569 256.9613,-371.7274 259.6561,-381.9738 265.4577,-378.0569"/>
</g>
<!-- 18015 -->
<g id="node12" class="node">
<title>18015</title>
<ellipse fill="#ffffff" stroke="#000000" cx="350" cy="-354.0107" rx="27.6545" ry="27.6545"/>
<text text-anchor="middle" x="350" y="-351.8107" font-family="Times,serif" font-size="9.00" fill="#000000">18015</text>
</g>
<!-- &#45;3&#45;&gt;18015 -->
<g id="edge12" class="edge">
<title>&#45;3&#45;&gt;18015</title>
<path fill="none" stroke="#00ff00" stroke-width=".2849" d="M301.0924,-417.3959C307.5968,-408.9662 317.5982,-396.0042 326.8658,-383.9931"/>
<polygon fill="#00ff00" stroke="#00ff00" stroke-width=".2849" points="329.7749,-385.9523 333.1127,-375.897 324.2328,-381.6761 329.7749,-385.9523"/>
</g>
<!-- 0 -->
<g id="node4" class="node">
<title>0</title>
<ellipse fill="#add8e6" stroke="#000000" cx="208" cy="-262.8564" rx="14.7" ry="14.7"/>
<text text-anchor="middle" x="208" y="-260.6564" font-family="Times,serif" font-size="9.00" fill="#000000">0</text>
</g>
<!-- 0&#45;&gt;875 -->
<g id="edge9" class="edge">
<title>0&#45;&gt;875</title>
<path fill="none" stroke="#00ff00" stroke-width=".1045" stroke-dasharray="1,5" d="M198.9795,-250.9395C188.6826,-237.3366 171.5441,-214.6953 158.218,-197.0905"/>
<polygon fill="#00ff00" stroke="#00ff00" stroke-width=".1045" points="160.8552,-194.7753 152.0291,-188.9144 155.2739,-199.0002 160.8552,-194.7753"/>
</g>
<!-- 1 -->
<g id="node5" class="node">
<title>1</title>
<ellipse fill="#add8e6" stroke="#000000" cx="136" cy="-93.2756" rx="14.7" ry="14.7"/>
<text text-anchor="middle" x="136" y="-91.0756" font-family="Times,serif" font-size="9.00" fill="#000000">1</text>
</g>
<!-- 1&#45;&gt;874 -->
<g id="edge11" class="edge">
<title>1&#45;&gt;874</title>
<path fill="none" stroke="#00ff00" stroke-width=".1427" d="M131.4559,-79.0384C128.9102,-71.0624 125.6361,-60.804 122.554,-51.1474"/>
<polygon fill="#00ff00" stroke="#00ff00" stroke-width=".1427" points="125.8252,-49.8852 119.4503,-41.4229 119.1566,-52.0137 125.8252,-49.8852"/>
</g>
<!-- 21863&#45;&gt;874 -->
<g id="edge14" class="edge">
<title>21863&#45;&gt;874</title>
<path fill="none" stroke="#00ff00" stroke-width=".1834" d="M44.3945,-145.8617C52.3376,-126.8515 63.9412,-100.5751 76,-78.4264 81.7597,-67.8475 88.7914,-56.6323 95.1719,-46.9608"/>
<polygon fill="#00ff00" stroke="#00ff00" stroke-width=".1834" points="98.1322,-48.8305 100.7934,-38.5753 92.3178,-44.9326 98.1322,-48.8305"/>
</g>
<!-- 21897 -->
<g id="node7" class="node">
<title>21897</title>
<ellipse fill="#ffffff" stroke="#000000" cx="350" cy="-262.8564" rx="27.6545" ry="27.6545"/>
<text text-anchor="middle" x="350" y="-260.6564" font-family="Times,serif" font-size="9.00" fill="#000000">21897</text>
</g>
<!-- 21897&#45;&gt;874 -->
<g id="edge16" class="edge">
<title>21897&#45;&gt;874</title>
<path fill="none" stroke="#ff0000" stroke-width=".1297" d="M351.7993,-235.1293C352.8067,-195.1738 348.4926,-121.4884 308,-78.4264 285.5957,-54.6005 193.3698,-35.2775 144.2031,-26.4314"/>
<polygon fill="#ff0000" stroke="#ff0000" stroke-width=".1297" points="144.5758,-22.9433 134.1203,-24.6557 143.3616,-29.8372 144.5758,-22.9433"/>
</g>
<!-- 875&#45;&gt;1 -->
<g id="edge7" class="edge">
<title>875&#45;&gt;1</title>
<path fill="none" stroke="#00ff00" stroke-width=".2366" d="M138.1802,-150.2717C137.8043,-140.4429 137.3559,-128.7231 136.9639,-118.474"/>
<polygon fill="#00ff00" stroke="#00ff00" stroke-width=".2366" points="140.4609,-118.3256 136.5811,-108.4668 133.466,-118.5933 140.4609,-118.3256"/>
</g>
<!-- 876&#45;&gt;0 -->
<g id="edge8" class="edge">
<title>876&#45;&gt;0</title>
<path fill="none" stroke="#00ff00" stroke-width=".5" d="M236.9716,-334.2316C231.2383,-320.107 223.5044,-301.0536 217.4694,-286.1855"/>
<polygon fill="#00ff00" stroke="#00ff00" stroke-width=".5" points="220.6123,-284.6223 213.6082,-276.6729 214.1263,-287.2551 220.6123,-284.6223"/>
</g>
<!-- 18015&#45;&gt;21897 -->
<g id="edge15" class="edge">
<title>18015&#45;&gt;21897</title>
<path fill="none" stroke="#00ff00" stroke-width=".4889" d="M350,-326.1661C350,-318.126 350,-309.2137 350,-300.6757"/>
<polygon fill="#00ff00" stroke="#00ff00" stroke-width=".4889" points="353.5001,-300.5304 350,-290.5305 346.5001,-300.5305 353.5001,-300.5304"/>
</g>
</g>
</svg>
