<?xml version="1.0" encoding="UTF-8" standalone="no"?>
<!DOCTYPE svg PUBLIC "-//W3C//DTD SVG 1.1//EN"
 "http://www.w3.org/Graphics/SVG/1.1/DTD/svg11.dtd">
<!-- Generated by graphviz version 2.40.1 (20161225.0304)
 -->
<!-- Title: %3 Pages: 1 -->
<svg width="653pt" height="261pt"
 viewBox="0.00 0.00 652.50 261.28" xmlns="http://www.w3.org/2000/svg" xmlns:xlink="http://www.w3.org/1999/xlink">
<g id="graph0" class="graph" transform="scale(1 1) rotate(0) translate(4 257.2792)">
<title>%3</title>
<polygon fill="#ffffff" stroke="transparent" points="-4,4 -4,-257.2792 648.5,-257.2792 648.5,4 -4,4"/>
<!-- &#45;1 -->
<g id="node1" class="node">
<title>&#45;1</title>
<polygon fill="#d3d3d3" stroke="#000000" points="71.5,-253.2792 47.5,-253.2792 47.5,-235.2792 71.5,-235.2792 71.5,-253.2792"/>
<text text-anchor="middle" x="59.5" y="-242.0792" font-family="Times,serif" font-size="9.00" fill="#000000">&#45;1</text>
</g>
<!-- 237 -->
<g id="node20" class="node">
<title>237</title>
<ellipse fill="#ffffff" stroke="#000000" cx="273.5" cy="-178.066" rx="21.4286" ry="21.4286"/>
<text text-anchor="middle" x="273.5" y="-175.866" font-family="Times,serif" font-size="9.00" fill="#000000">237</text>
</g>
<!-- &#45;1&#45;&gt;237 -->
<g id="edge1" class="edge">
<title>&#45;1&#45;&gt;237</title>
<path fill="none" stroke="#00ff00" stroke-width=".3098" d="M71.79,-238.5566C74.6135,-237.3702 77.6302,-236.2021 80.5,-235.2792 151.1283,-212.567 175.6499,-229.2887 243.5,-199.2792 245.0642,-198.5874 246.6298,-197.8078 248.1794,-196.9664"/>
<polygon fill="#00ff00" stroke="#00ff00" stroke-width=".3098" points="250.0998,-199.8939 256.7577,-191.6523 246.4134,-193.9432 250.0998,-199.8939"/>
</g>
<!-- 238 -->
<g id="node21" class="node">
<title>238</title>
<ellipse fill="#ffffff" stroke="#000000" cx="333.5" cy="-178.066" rx="21.4286" ry="21.4286"/>
<text text-anchor="middle" x="333.5" y="-175.866" font-family="Times,serif" font-size="9.00" fill="#000000">238</text>
</g>
<!-- &#45;1&#45;&gt;238 -->
<g id="edge2" class="edge">
<title>&#45;1&#45;&gt;238</title>
<path fill="none" stroke="#ff0000" stroke-width=".2471" d="M71.7526,-238.4341C74.5779,-237.254 77.6049,-236.1195 80.5,-235.2792 176.9156,-207.2962 210.5594,-237.2405 303.5,-199.2792 305.124,-198.6159 306.7452,-197.8503 308.3456,-197.0121"/>
<polygon fill="#ff0000" stroke="#ff0000" stroke-width=".2471" points="310.452,-199.8265 317.1568,-191.6231 306.7997,-193.8549 310.452,-199.8265"/>
</g>
<!-- 240 -->
<g id="node22" class="node">
<title>240</title>
<ellipse fill="#ffffff" stroke="#000000" cx="393.5" cy="-178.066" rx="21.4286" ry="21.4286"/>
<text text-anchor="middle" x="393.5" y="-175.866" font-family="Times,serif" font-size="9.00" fill="#000000">240</text>
</g>
<!-- &#45;1&#45;&gt;240 -->
<g id="edge3" class="edge">
<title>&#45;1&#45;&gt;240</title>
<path fill="none" stroke="#ff0000" stroke-width=".3607" d="M71.7323,-238.362C74.5587,-237.1856 77.5912,-236.0708 80.5,-235.2792 202.8418,-201.9845 245.3351,-245.2476 363.5,-199.2792 365.1348,-198.6432 366.7646,-197.8991 368.3716,-197.0774"/>
<polygon fill="#ff0000" stroke="#ff0000" stroke-width=".3607" points="370.4571,-199.9064 377.2017,-191.7357 366.8339,-193.9171 370.4571,-199.9064"/>
</g>
<!-- 241 -->
<g id="node23" class="node">
<title>241</title>
<ellipse fill="#ffffff" stroke="#000000" cx="213.5" cy="-178.066" rx="21.4286" ry="21.4286"/>
<text text-anchor="middle" x="213.5" y="-175.866" font-family="Times,serif" font-size="9.00" fill="#000000">241</text>
</g>
<!-- &#45;1&#45;&gt;241 -->
<g id="edge4" class="edge">
<title>&#45;1&#45;&gt;241</title>
<path fill="none" stroke="#00ff00" stroke-width=".1828" d="M71.5841,-239.0836C95.7205,-228.706 150.4919,-205.1567 184.4949,-190.5369"/>
<polygon fill="#00ff00" stroke="#00ff00" stroke-width=".1828" points="186.1035,-193.6552 193.9079,-186.4898 183.3385,-187.2244 186.1035,-193.6552"/>
</g>
<!-- &#45;2 -->
<g id="node2" class="node">
<title>&#45;2</title>
<polygon fill="#d3d3d3" stroke="#000000" points="602.5,-253.2792 578.5,-253.2792 578.5,-235.2792 602.5,-235.2792 602.5,-253.2792"/>
<text text-anchor="middle" x="590.5" y="-242.0792" font-family="Times,serif" font-size="9.00" fill="#000000">&#45;2</text>
</g>
<!-- 236 -->
<g id="node19" class="node">
<title>236</title>
<ellipse fill="#ffffff" stroke="#000000" cx="453.5" cy="-178.066" rx="21.4286" ry="21.4286"/>
<text text-anchor="middle" x="453.5" y="-175.866" font-family="Times,serif" font-size="9.00" fill="#000000">236</text>
</g>
<!-- &#45;2&#45;&gt;236 -->
<g id="edge5" class="edge">
<title>&#45;2&#45;&gt;236</title>
<path fill="none" stroke="#ff0000" stroke-width=".1304" stroke-dasharray="1,5" d="M578.3422,-238.4032C556.833,-228.0077 511.5436,-206.1189 481.8362,-191.7611"/>
<polygon fill="#ff0000" stroke="#ff0000" stroke-width=".1304" points="483.315,-188.5886 472.7884,-187.3883 480.269,-194.8911 483.315,-188.5886"/>
</g>
<!-- &#45;2&#45;&gt;237 -->
<g id="edge6" class="edge">
<title>&#45;2&#45;&gt;237</title>
<path fill="none" stroke="#00ff00" stroke-width=".1564" d="M578.263,-238.3792C575.4368,-237.202 572.4056,-236.0824 569.5,-235.2792 454.5128,-203.4919 414.5096,-242.9756 303.5,-199.2792 301.8677,-198.6367 300.2399,-197.8874 298.6345,-197.0618"/>
<polygon fill="#00ff00" stroke="#00ff00" stroke-width=".1564" points="300.1741,-193.9022 289.8088,-191.7088 296.544,-199.8873 300.1741,-193.9022"/>
</g>
<!-- &#45;2&#45;&gt;238 -->
<g id="edge7" class="edge">
<title>&#45;2&#45;&gt;238</title>
<path fill="none" stroke="#ff0000" stroke-width=".1595" stroke-dasharray="1,5" d="M578.2393,-238.4619C575.4143,-237.2804 572.3896,-236.1382 569.5,-235.2792 480.41,-208.7954 449.3131,-234.9797 363.5,-199.2792 361.8804,-198.6054 360.2625,-197.8316 358.6648,-196.987"/>
<polygon fill="#ff0000" stroke="#ff0000" stroke-width=".1595" points="360.2139,-193.831 349.8611,-191.5797 356.5503,-199.7958 360.2139,-193.831"/>
</g>
<!-- &#45;2&#45;&gt;240 -->
<g id="edge8" class="edge">
<title>&#45;2&#45;&gt;240</title>
<path fill="none" stroke="#00ff00" stroke-width=".3168" d="M578.193,-238.6084C575.3704,-237.4193 572.3584,-236.237 569.5,-235.2792 506.1305,-214.0453 484.2868,-227.0556 423.5,-199.2792 421.9444,-198.5684 420.3855,-197.7737 418.8412,-196.9207"/>
<polygon fill="#00ff00" stroke="#00ff00" stroke-width=".3168" points="420.614,-193.9014 410.2784,-191.5721 416.9056,-199.8384 420.614,-193.9014"/>
</g>
<!-- &#45;2&#45;&gt;241 -->
<g id="edge9" class="edge">
<title>&#45;2&#45;&gt;241</title>
<path fill="none" stroke="#ff0000" stroke-width=".5" d="M578.2773,-238.3262C575.4504,-237.1518 572.4152,-236.0467 569.5,-235.2792 428.5341,-198.1657 379.7846,-251.0026 243.5,-199.2792 241.86,-198.6568 240.2261,-197.9233 238.616,-197.1098"/>
<polygon fill="#ff0000" stroke="#ff0000" stroke-width=".5" points="240.1499,-193.948 229.7768,-191.7916 236.5411,-199.9461 240.1499,-193.948"/>
</g>
<!-- &#45;3 -->
<g id="node3" class="node">
<title>&#45;3</title>
<polygon fill="#d3d3d3" stroke="#000000" points="644.5,-253.2792 620.5,-253.2792 620.5,-235.2792 644.5,-235.2792 644.5,-253.2792"/>
<text text-anchor="middle" x="632.5" y="-242.0792" font-family="Times,serif" font-size="9.00" fill="#000000">&#45;3</text>
</g>
<!-- &#45;3&#45;&gt;236 -->
<g id="edge10" class="edge">
<title>&#45;3&#45;&gt;236</title>
<path fill="none" stroke="#ff0000" stroke-width=".2838" d="M620.112,-238.8303C617.2937,-237.6297 614.3038,-236.3866 611.5,-235.2792 567.1839,-217.776 515.1038,-199.3192 483.2042,-188.2497"/>
<polygon fill="#ff0000" stroke="#ff0000" stroke-width=".2838" points="484.1864,-184.8861 473.5917,-184.9259 481.8988,-191.5018 484.1864,-184.8861"/>
</g>
<!-- &#45;3&#45;&gt;237 -->
<g id="edge11" class="edge">
<title>&#45;3&#45;&gt;237</title>
<path fill="none" stroke="#00ff00" stroke-width=".1306" stroke-dasharray="1,5" d="M620.2737,-238.34C617.4469,-237.1648 614.4128,-236.056 611.5,-235.2792 478.3335,-199.7651 432.1965,-248.5923 303.5,-199.2792 301.8619,-198.6516 300.2296,-197.914 298.6207,-197.0973"/>
<polygon fill="#00ff00" stroke="#00ff00" stroke-width=".1306" points="300.1561,-193.9361 289.785,-191.7701 296.5417,-199.9308 300.1561,-193.9361"/>
</g>
<!-- &#45;3&#45;&gt;238 -->
<g id="edge12" class="edge">
<title>&#45;3&#45;&gt;238</title>
<path fill="none" stroke="#ff0000" stroke-width=".2031" stroke-dasharray="1,5" d="M620.2572,-238.3999C617.4313,-237.2216 614.4017,-236.0964 611.5,-235.2792 504.2931,-205.0861 466.9399,-240.5725 363.5,-199.2792 361.8708,-198.6289 360.2455,-197.8734 358.642,-197.043"/>
<polygon fill="#ff0000" stroke="#ff0000" stroke-width=".2031" points="360.1839,-193.8843 349.8216,-191.6764 356.5454,-199.8644 360.1839,-193.8843"/>
</g>
<!-- &#45;3&#45;&gt;240 -->
<g id="edge13" class="edge">
<title>&#45;3&#45;&gt;240</title>
<path fill="none" stroke="#ff0000" stroke-width=".3205" stroke-dasharray="1,5" d="M620.2288,-238.4966C617.4044,-237.3132 614.3826,-236.1616 611.5,-235.2792 530.1521,-210.3785 501.7803,-232.5917 423.5,-199.2792 421.9262,-198.6095 420.353,-197.8474 418.7976,-197.0195"/>
<polygon fill="#ff0000" stroke="#ff0000" stroke-width=".3205" points="420.5558,-193.9921 410.2019,-191.7456 416.895,-199.9585 420.5558,-193.9921"/>
</g>
<!-- &#45;3&#45;&gt;241 -->
<g id="edge14" class="edge">
<title>&#45;3&#45;&gt;241</title>
<path fill="none" stroke="#ff0000" stroke-width=".3831" d="M620.2843,-238.2993C617.457,-237.1262 614.42,-236.0286 611.5,-235.2792 452.3216,-194.4301 397.5036,-256.6317 243.5,-199.2792 241.8561,-198.667 240.2192,-197.9416 238.6068,-197.1342"/>
<polygon fill="#ff0000" stroke="#ff0000" stroke-width=".3831" points="240.1379,-193.9715 229.7609,-191.8338 236.5399,-199.9761 240.1379,-193.9715"/>
</g>
<!-- &#45;4 -->
<g id="node4" class="node">
<title>&#45;4</title>
<polygon fill="#d3d3d3" stroke="#000000" points="161.5,-253.2792 137.5,-253.2792 137.5,-235.2792 161.5,-235.2792 161.5,-253.2792"/>
<text text-anchor="middle" x="149.5" y="-242.0792" font-family="Times,serif" font-size="9.00" fill="#000000">&#45;4</text>
</g>
<!-- &#45;4&#45;&gt;236 -->
<g id="edge15" class="edge">
<title>&#45;4&#45;&gt;236</title>
<path fill="none" stroke="#00ff00" stroke-width=".4407" d="M161.7411,-238.3939C164.5671,-237.2159 167.5972,-236.0924 170.5,-235.2792 279.8673,-204.6435 317.9582,-241.2397 423.5,-199.2792 425.1301,-198.6311 426.7561,-197.8775 428.3602,-197.0485"/>
<polygon fill="#00ff00" stroke="#00ff00" stroke-width=".4407" points="430.4551,-199.8711 437.1821,-191.6858 426.819,-193.8895 430.4551,-199.8711"/>
</g>
<!-- &#45;4&#45;&gt;237 -->
<g id="edge16" class="edge">
<title>&#45;4&#45;&gt;237</title>
<path fill="none" stroke="#ff0000" stroke-width=".1514" d="M161.721,-238.7414C183.6081,-228.7719 228.6002,-208.0289 243.5,-199.2792 244.9748,-198.4131 246.4698,-197.4958 247.9646,-196.5474"/>
<polygon fill="#ff0000" stroke="#ff0000" stroke-width=".1514" points="250.0153,-199.3865 256.3807,-190.9171 246.123,-193.5684 250.0153,-199.3865"/>
</g>
<!-- &#45;4&#45;&gt;238 -->
<g id="edge17" class="edge">
<title>&#45;4&#45;&gt;238</title>
<path fill="none" stroke="#ff0000" stroke-width=".5" d="M161.8233,-238.6562C164.645,-237.4646 167.6526,-236.2692 170.5,-235.2792 228.3417,-215.1681 248.0923,-225.3581 303.5,-199.2792 305.0475,-198.5509 306.5999,-197.7424 308.1393,-196.8785"/>
<polygon fill="#ff0000" stroke="#ff0000" stroke-width=".5" points="310.0886,-199.7872 316.6873,-191.4982 306.3597,-193.863 310.0886,-199.7872"/>
</g>
<!-- &#45;4&#45;&gt;240 -->
<g id="edge18" class="edge">
<title>&#45;4&#45;&gt;240</title>
<path fill="none" stroke="#ff0000" stroke-width=".3526" d="M161.768,-238.4863C164.5926,-237.3035 167.6153,-236.1547 170.5,-235.2792 253.9968,-209.9392 283.1289,-233.2543 363.5,-199.2792 365.0754,-198.6133 366.6498,-197.8541 368.2063,-197.0286"/>
<polygon fill="#ff0000" stroke="#ff0000" stroke-width=".3526" points="370.1057,-199.9696 376.8049,-191.7615 366.4493,-194.0004 370.1057,-199.9696"/>
</g>
<!-- &#45;4&#45;&gt;241 -->
<g id="edge19" class="edge">
<title>&#45;4&#45;&gt;241</title>
<path fill="none" stroke="#ff0000" stroke-width=".5" d="M158.3989,-235.0726C166.9078,-226.2695 180.0826,-212.6391 191.416,-200.9137"/>
<polygon fill="#ff0000" stroke="#ff0000" stroke-width=".5" points="194.0969,-203.1762 198.5302,-193.5535 189.0637,-198.3113 194.0969,-203.1762"/>
</g>
<!-- &#45;5 -->
<g id="node5" class="node">
<title>&#45;5</title>
<polygon fill="#d3d3d3" stroke="#000000" points="203.5,-253.2792 179.5,-253.2792 179.5,-235.2792 203.5,-235.2792 203.5,-253.2792"/>
<text text-anchor="middle" x="191.5" y="-242.0792" font-family="Times,serif" font-size="9.00" fill="#000000">&#45;5</text>
</g>
<!-- &#45;5&#45;&gt;236 -->
<g id="edge20" class="edge">
<title>&#45;5&#45;&gt;236</title>
<path fill="none" stroke="#00ff00" stroke-width=".246" d="M203.7582,-238.4533C206.5832,-237.2722 209.6087,-236.1324 212.5,-235.2792 303.7433,-208.3548 335.5917,-235.6442 423.5,-199.2792 425.121,-198.6087 426.7399,-197.8374 428.3384,-196.9948"/>
<polygon fill="#00ff00" stroke="#00ff00" stroke-width=".246" points="430.4504,-199.8053 437.1445,-191.5932 426.7903,-193.8384 430.4504,-199.8053"/>
</g>
<!-- &#45;5&#45;&gt;237 -->
<g id="edge21" class="edge">
<title>&#45;5&#45;&gt;237</title>
<path fill="none" stroke="#00ff00" stroke-width=".3647" d="M202.9017,-235.0726C214.7093,-225.5383 233.5295,-210.3413 248.7698,-198.0351"/>
<polygon fill="#00ff00" stroke="#00ff00" stroke-width=".3647" points="251.2196,-200.5555 256.8011,-191.55 246.822,-195.1094 251.2196,-200.5555"/>
</g>
<!-- &#45;5&#45;&gt;238 -->
<g id="edge22" class="edge">
<title>&#45;5&#45;&gt;238</title>
<path fill="none" stroke="#00ff00" stroke-width=".4843" d="M203.9125,-238.8911C206.7295,-237.6873 209.7127,-236.4276 212.5,-235.2792 252.715,-218.711 265.249,-219.9823 303.5,-199.2792 305.0042,-198.4651 306.5223,-197.5888 308.0351,-196.6723"/>
<polygon fill="#00ff00" stroke="#00ff00" stroke-width=".4843" points="310.0489,-199.5374 316.5044,-191.1364 306.219,-193.6781 310.0489,-199.5374"/>
</g>
<!-- &#45;5&#45;&gt;240 -->
<g id="edge23" class="edge">
<title>&#45;5&#45;&gt;240</title>
<path fill="none" stroke="#ff0000" stroke-width=".4521" d="M203.8016,-238.5921C206.6244,-237.4038 209.638,-236.226 212.5,-235.2792 278.0013,-213.6116 300.6388,-227.711 363.5,-199.2792 365.0584,-198.5744 366.6194,-197.7845 368.1654,-196.9351"/>
<polygon fill="#ff0000" stroke="#ff0000" stroke-width=".4521" points="370.0962,-199.8559 376.7331,-191.5974 366.3947,-193.9146 370.0962,-199.8559"/>
</g>
<!-- &#45;5&#45;&gt;241 -->
<g id="edge24" class="edge">
<title>&#45;5&#45;&gt;241</title>
<path fill="none" stroke="#ff0000" stroke-width=".2118" d="M194.559,-235.0726C196.9144,-227.9835 200.31,-217.7638 203.5775,-207.9295"/>
<polygon fill="#ff0000" stroke="#ff0000" stroke-width=".2118" points="206.9274,-208.9474 206.7591,-198.3539 200.2845,-206.7402 206.9274,-208.9474"/>
</g>
<!-- &#45;6 -->
<g id="node6" class="node">
<title>&#45;6</title>
<polygon fill="#d3d3d3" stroke="#000000" points="245.5,-253.2792 221.5,-253.2792 221.5,-235.2792 245.5,-235.2792 245.5,-253.2792"/>
<text text-anchor="middle" x="233.5" y="-242.0792" font-family="Times,serif" font-size="9.00" fill="#000000">&#45;6</text>
</g>
<!-- &#45;6&#45;&gt;236 -->
<g id="edge25" class="edge">
<title>&#45;6&#45;&gt;236</title>
<path fill="none" stroke="#ff0000" stroke-width=".156" d="M245.7849,-238.5407C248.6086,-237.3551 251.6267,-236.1913 254.5,-235.2792 327.6967,-212.0431 353.1508,-230.0796 423.5,-199.2792 425.0668,-198.5933 426.6344,-197.8183 428.1856,-196.9805"/>
<polygon fill="#ff0000" stroke="#ff0000" stroke-width=".156" points="430.1013,-199.9111 436.7685,-191.6771 426.4217,-193.9561 430.1013,-199.9111"/>
</g>
<!-- &#45;6&#45;&gt;237 -->
<g id="edge26" class="edge">
<title>&#45;6&#45;&gt;237</title>
<path fill="none" stroke="#00ff00" stroke-width=".2432" d="M239.0618,-235.0726C243.7577,-227.2994 250.7272,-215.7624 257.1705,-205.0967"/>
<polygon fill="#00ff00" stroke="#00ff00" stroke-width=".2432" points="260.2226,-206.8133 262.3976,-196.4441 254.231,-203.1937 260.2226,-206.8133"/>
</g>
<!-- &#45;6&#45;&gt;238 -->
<g id="edge27" class="edge">
<title>&#45;6&#45;&gt;238</title>
<path fill="none" stroke="#00ff00" stroke-width=".2225" d="M245.7462,-236.6362C259.8035,-227.81 283.4977,-212.7708 303.5,-199.2792 304.9179,-198.3228 306.3679,-197.3341 307.8278,-196.3302"/>
<polygon fill="#00ff00" stroke="#00ff00" stroke-width=".2225" points="309.9382,-199.1255 316.1406,-190.536 305.9354,-193.3829 309.9382,-199.1255"/>
</g>
<!-- &#45;6&#45;&gt;240 -->
<g id="edge28" class="edge">
<title>&#45;6&#45;&gt;240</title>
<path fill="none" stroke="#ff0000" stroke-width=".4045" d="M245.865,-238.7711C248.6846,-237.5735 251.6807,-236.3467 254.5,-235.2792 302.2128,-217.214 317.9501,-222.259 363.5,-199.2792 365.027,-198.5088 366.5633,-197.6671 368.09,-196.7775"/>
<polygon fill="#ff0000" stroke="#ff0000" stroke-width=".4045" points="370.0716,-199.6647 376.6009,-191.3209 366.2934,-193.7718 370.0716,-199.6647"/>
</g>
<!-- &#45;6&#45;&gt;241 -->
<g id="edge29" class="edge">
<title>&#45;6&#45;&gt;241</title>
<path fill="none" stroke="#00ff00" stroke-width=".4385" d="M230.7191,-235.0726C228.616,-228.1101 225.6008,-218.1278 222.6796,-208.4567"/>
<polygon fill="#00ff00" stroke="#00ff00" stroke-width=".4385" points="225.9537,-207.1915 219.7117,-198.6307 219.2528,-209.2156 225.9537,-207.1915"/>
</g>
<!-- &#45;7 -->
<g id="node7" class="node">
<title>&#45;7</title>
<polygon fill="#d3d3d3" stroke="#000000" points="287.5,-253.2792 263.5,-253.2792 263.5,-235.2792 287.5,-235.2792 287.5,-253.2792"/>
<text text-anchor="middle" x="275.5" y="-242.0792" font-family="Times,serif" font-size="9.00" fill="#000000">&#45;7</text>
</g>
<!-- &#45;7&#45;&gt;236 -->
<g id="edge30" class="edge">
<title>&#45;7&#45;&gt;236</title>
<path fill="none" stroke="#ff0000" stroke-width=".1296" d="M287.8321,-238.6813C290.6534,-237.4884 293.6586,-236.2861 296.5,-235.2792 351.799,-215.6834 370.5668,-224.5784 423.5,-199.2792 425.0431,-198.5417 426.5921,-197.7259 428.1288,-196.8565"/>
<polygon fill="#ff0000" stroke="#ff0000" stroke-width=".1296" points="430.0853,-199.7604 436.6689,-191.4594 426.3457,-193.843 430.0853,-199.7604"/>
</g>
<!-- &#45;7&#45;&gt;237 -->
<g id="edge31" class="edge">
<title>&#45;7&#45;&gt;237</title>
<path fill="none" stroke="#00ff00" stroke-width=".4974" stroke-dasharray="1,5" d="M275.2219,-235.0726C275.0207,-228.4115 274.736,-218.9866 274.456,-209.7145"/>
<polygon fill="#00ff00" stroke="#00ff00" stroke-width=".4974" points="277.9468,-209.3561 274.1464,-199.4664 270.95,-209.5675 277.9468,-209.3561"/>
</g>
<!-- &#45;7&#45;&gt;238 -->
<g id="edge32" class="edge">
<title>&#45;7&#45;&gt;238</title>
<path fill="none" stroke="#ff0000" stroke-width=".4627" d="M283.5647,-235.0726C291.1012,-226.4688 302.6769,-213.2538 312.7862,-201.7131"/>
<polygon fill="#ff0000" stroke="#ff0000" stroke-width=".4627" points="315.5265,-203.8964 319.4829,-194.068 310.261,-199.284 315.5265,-203.8964"/>
</g>
<!-- &#45;7&#45;&gt;240 -->
<g id="edge33" class="edge">
<title>&#45;7&#45;&gt;240</title>
<path fill="none" stroke="#00ff00" stroke-width=".4225" d="M287.7519,-238.6956C305.0306,-230.6695 337.3668,-215.0898 363.5,-199.2792 364.9634,-198.3939 366.4493,-197.4613 367.937,-196.5011"/>
<polygon fill="#00ff00" stroke="#00ff00" stroke-width=".4225" points="370.0009,-199.3308 376.3323,-190.8358 366.0853,-193.5283 370.0009,-199.3308"/>
</g>
<!-- &#45;7&#45;&gt;241 -->
<g id="edge34" class="edge">
<title>&#45;7&#45;&gt;241</title>
<path fill="none" stroke="#ff0000" stroke-width=".1708" d="M266.8792,-235.0726C258.6362,-226.2695 245.8731,-212.6391 234.8939,-200.9137"/>
<polygon fill="#ff0000" stroke="#ff0000" stroke-width=".1708" points="237.3919,-198.4607 228.002,-193.5535 232.2822,-203.2453 237.3919,-198.4607"/>
</g>
<!-- &#45;8 -->
<g id="node8" class="node">
<title>&#45;8</title>
<polygon fill="#d3d3d3" stroke="#000000" points="329.5,-253.2792 305.5,-253.2792 305.5,-235.2792 329.5,-235.2792 329.5,-253.2792"/>
<text text-anchor="middle" x="317.5" y="-242.0792" font-family="Times,serif" font-size="9.00" fill="#000000">&#45;8</text>
</g>
<!-- &#45;8&#45;&gt;236 -->
<g id="edge35" class="edge">
<title>&#45;8&#45;&gt;236</title>
<path fill="none" stroke="#00ff00" stroke-width=".427" d="M329.9331,-238.9404C332.7491,-237.734 335.7266,-236.4608 338.5,-235.2792 376.2436,-219.1987 387.6555,-219.2376 423.5,-199.2792 424.9943,-198.4472 426.5047,-197.5567 428.0114,-196.6292"/>
<polygon fill="#00ff00" stroke="#00ff00" stroke-width=".427" points="430.0382,-199.4853 436.4629,-191.0607 426.1868,-193.64 430.0382,-199.4853"/>
</g>
<!-- &#45;8&#45;&gt;237 -->
<g id="edge36" class="edge">
<title>&#45;8&#45;&gt;237</title>
<path fill="none" stroke="#00ff00" stroke-width=".2107" d="M311.382,-235.0726C306.0904,-227.1095 298.174,-215.1965 290.9441,-204.3167"/>
<polygon fill="#00ff00" stroke="#00ff00" stroke-width=".2107" points="293.806,-202.2996 285.3563,-195.9079 287.9759,-206.1738 293.806,-202.2996"/>
</g>
<!-- &#45;8&#45;&gt;238 -->
<g id="edge37" class="edge">
<title>&#45;8&#45;&gt;238</title>
<path fill="none" stroke="#ff0000" stroke-width=".2" d="M319.7247,-235.0726C321.3944,-228.1628 323.7828,-218.2789 326.1032,-208.6766"/>
<polygon fill="#ff0000" stroke="#ff0000" stroke-width=".2" points="329.5168,-209.4507 328.4636,-198.9084 322.7126,-207.8065 329.5168,-209.4507"/>
</g>
<!-- &#45;8&#45;&gt;240 -->
<g id="edge38" class="edge">
<title>&#45;8&#45;&gt;240</title>
<path fill="none" stroke="#ff0000" stroke-width=".3024" d="M328.0675,-235.0726C338.7733,-225.7454 355.6995,-210.9989 369.6543,-198.841"/>
<polygon fill="#ff0000" stroke="#ff0000" stroke-width=".3024" points="372.2171,-201.2503 377.4578,-192.0424 367.6188,-195.9724 372.2171,-201.2503"/>
</g>
<!-- &#45;8&#45;&gt;241 -->
<g id="edge39" class="edge">
<title>&#45;8&#45;&gt;241</title>
<path fill="none" stroke="#ff0000" stroke-width=".4404" d="M305.2919,-237.2053C290.4893,-228.5483 264.8683,-213.3072 243.5,-199.2792 242.0702,-198.3406 240.6109,-197.3659 239.1438,-196.373"/>
<polygon fill="#ff0000" stroke="#ff0000" stroke-width=".4404" points="241.0254,-193.4188 230.8094,-190.611 237.0447,-199.1768 241.0254,-193.4188"/>
</g>
<!-- &#45;9 -->
<g id="node9" class="node">
<title>&#45;9</title>
<polygon fill="#d3d3d3" stroke="#000000" points="371.5,-253.2792 347.5,-253.2792 347.5,-235.2792 371.5,-235.2792 371.5,-253.2792"/>
<text text-anchor="middle" x="359.5" y="-242.0792" font-family="Times,serif" font-size="9.00" fill="#000000">&#45;9</text>
</g>
<!-- &#45;9&#45;&gt;236 -->
<g id="edge40" class="edge">
<title>&#45;9&#45;&gt;236</title>
<path fill="none" stroke="#ff0000" stroke-width=".352" d="M371.776,-235.6621C384.6647,-226.6115 405.5168,-211.9594 423.5,-199.2792 424.8978,-198.2936 426.3319,-197.2818 427.7793,-196.26"/>
<polygon fill="#ff0000" stroke="#ff0000" stroke-width=".352" points="429.9079,-199.0416 436.0557,-190.4128 425.8688,-193.3244 429.9079,-199.0416"/>
</g>
<!-- &#45;9&#45;&gt;237 -->
<g id="edge41" class="edge">
<title>&#45;9&#45;&gt;237</title>
<path fill="none" stroke="#00ff00" stroke-width=".1902" d="M347.5421,-235.0726C334.8867,-225.3289 314.5501,-209.6713 298.3894,-197.2289"/>
<polygon fill="#00ff00" stroke="#00ff00" stroke-width=".1902" points="300.4406,-194.391 290.3818,-191.0637 296.1702,-199.9375 300.4406,-194.391"/>
</g>
<!-- &#45;9&#45;&gt;238 -->
<g id="edge42" class="edge">
<title>&#45;9&#45;&gt;238</title>
<path fill="none" stroke="#00ff00" stroke-width=".1458" d="M355.8848,-235.0726C353.051,-227.8558 348.9432,-217.3946 345.018,-207.3985"/>
<polygon fill="#00ff00" stroke="#00ff00" stroke-width=".1458" points="348.2711,-206.107 341.3582,-198.0781 341.7554,-208.6655 348.2711,-206.107"/>
</g>
<!-- &#45;9&#45;&gt;240 -->
<g id="edge43" class="edge">
<title>&#45;9&#45;&gt;240</title>
<path fill="none" stroke="#00ff00" stroke-width=".3628" d="M364.2276,-235.0726C368.0833,-227.5637 373.7426,-216.5426 379.0599,-206.1874"/>
<polygon fill="#00ff00" stroke="#00ff00" stroke-width=".3628" points="382.331,-207.4792 383.7854,-196.9847 376.1039,-204.2816 382.331,-207.4792"/>
</g>
<!-- &#45;9&#45;&gt;241 -->
<g id="edge44" class="edge">
<title>&#45;9&#45;&gt;241</title>
<path fill="none" stroke="#00ff00" stroke-width=".5" d="M347.0998,-238.8611C344.282,-237.6589 341.2955,-236.4073 338.5,-235.2792 296.6287,-218.3822 283.3636,-220.4833 243.5,-199.2792 241.99,-198.476 240.4672,-197.6084 238.9509,-196.6986"/>
<polygon fill="#00ff00" stroke="#00ff00" stroke-width=".5" points="240.7619,-193.7013 230.4709,-191.1824 236.9449,-199.5691 240.7619,-193.7013"/>
</g>
<!-- &#45;10 -->
<g id="node10" class="node">
<title>&#45;10</title>
<polygon fill="#d3d3d3" stroke="#000000" points="419,-253.2792 390,-253.2792 390,-235.2792 419,-235.2792 419,-253.2792"/>
<text text-anchor="middle" x="404.5" y="-242.0792" font-family="Times,serif" font-size="9.00" fill="#000000">&#45;10</text>
</g>
<!-- &#45;10&#45;&gt;236 -->
<g id="edge45" class="edge">
<title>&#45;10&#45;&gt;236</title>
<path fill="none" stroke="#00ff00" stroke-width=".4169" d="M411.3132,-235.0726C417.3483,-226.9174 426.4492,-214.6194 434.655,-203.5311"/>
<polygon fill="#00ff00" stroke="#00ff00" stroke-width=".4169" points="437.5546,-205.4966 440.6898,-195.3763 431.9278,-201.3326 437.5546,-205.4966"/>
</g>
<!-- &#45;10&#45;&gt;237 -->
<g id="edge46" class="edge">
<title>&#45;10&#45;&gt;237</title>
<path fill="none" stroke="#00ff00" stroke-width=".3738" d="M389.6777,-238.7373C369.5913,-230.9916 332.8649,-215.9877 303.5,-199.2792 302.0135,-198.4334 300.5092,-197.532 299.0073,-196.596"/>
<polygon fill="#00ff00" stroke="#00ff00" stroke-width=".3738" points="300.8386,-193.6109 290.5699,-191.0025 296.9707,-199.4452 300.8386,-193.6109"/>
</g>
<!-- &#45;10&#45;&gt;238 -->
<g id="edge47" class="edge">
<title>&#45;10&#45;&gt;238</title>
<path fill="none" stroke="#00ff00" stroke-width=".4479" stroke-dasharray="1,5" d="M394.6278,-235.0726C384.8459,-225.9502 369.5055,-211.6441 356.6399,-199.6459"/>
<polygon fill="#00ff00" stroke="#00ff00" stroke-width=".4479" points="358.7213,-196.8011 349.0209,-192.5405 353.9471,-201.9205 358.7213,-196.8011"/>
</g>
<!-- &#45;10&#45;&gt;240 -->
<g id="edge48" class="edge">
<title>&#45;10&#45;&gt;240</title>
<path fill="none" stroke="#ff0000" stroke-width=".1143" d="M402.9705,-235.0726C401.8433,-228.2877 400.2398,-218.6353 398.6719,-209.1976"/>
<polygon fill="#ff0000" stroke="#ff0000" stroke-width=".1143" points="402.1004,-208.4781 397.0088,-199.1869 395.1951,-209.6254 402.1004,-208.4781"/>
</g>
<!-- &#45;10&#45;&gt;241 -->
<g id="edge49" class="edge">
<title>&#45;10&#45;&gt;241</title>
<path fill="none" stroke="#00ff00" stroke-width=".3438" d="M389.8595,-238.5192C386.7876,-237.3868 383.5534,-236.2501 380.5,-235.2792 320.5041,-216.2018 300.5604,-225.8793 243.5,-199.2792 241.9498,-198.5566 240.3953,-197.7526 238.8543,-196.8923"/>
<polygon fill="#00ff00" stroke="#00ff00" stroke-width=".3438" points="240.6316,-193.8755 230.3014,-191.5223 236.9094,-199.8039 240.6316,-193.8755"/>
</g>
<!-- &#45;11 -->
<g id="node11" class="node">
<title>&#45;11</title>
<polygon fill="#d3d3d3" stroke="#000000" points="119,-253.2792 90,-253.2792 90,-235.2792 119,-235.2792 119,-253.2792"/>
<text text-anchor="middle" x="104.5" y="-242.0792" font-family="Times,serif" font-size="9.00" fill="#000000">&#45;11</text>
</g>
<!-- &#45;11&#45;&gt;237 -->
<g id="edge50" class="edge">
<title>&#45;11&#45;&gt;237</title>
<path fill="none" stroke="#00ff00" stroke-width=".5" d="M119.1766,-238.6286C122.2459,-237.4883 125.47,-236.3207 128.5,-235.2792 179.1484,-217.87 195.4966,-223.0284 243.5,-199.2792 245.033,-198.5208 246.5739,-197.6885 248.1044,-196.8062"/>
<polygon fill="#00ff00" stroke="#00ff00" stroke-width=".5" points="250.0769,-199.6995 256.6261,-191.3713 246.3128,-193.7976 250.0769,-199.6995"/>
</g>
<!-- &#45;11&#45;&gt;238 -->
<g id="edge51" class="edge">
<title>&#45;11&#45;&gt;238</title>
<path fill="none" stroke="#00ff00" stroke-width=".3696" d="M119.1015,-238.3907C122.1762,-237.2676 125.4215,-236.1672 128.5,-235.2792 204.7958,-213.2717 230.6488,-230.8718 303.5,-199.2792 305.0691,-198.5987 306.6387,-197.8281 308.1913,-196.9937"/>
<polygon fill="#00ff00" stroke="#00ff00" stroke-width=".3696" points="310.1026,-199.9271 316.7786,-191.7002 306.4294,-193.9683 310.1026,-199.9271"/>
</g>
<!-- &#45;11&#45;&gt;240 -->
<g id="edge52" class="edge">
<title>&#45;11&#45;&gt;240</title>
<path fill="none" stroke="#00ff00" stroke-width=".4901" d="M119.068,-238.2689C122.1452,-237.1547 125.3999,-236.0886 128.5,-235.2792 230.7357,-208.5864 265.5221,-238.8389 363.5,-199.2792 365.1266,-198.6225 366.7499,-197.862 368.3519,-197.0277"/>
<polygon fill="#00ff00" stroke="#00ff00" stroke-width=".4901" points="370.4534,-199.8456 377.1678,-191.65 366.808,-193.8697 370.4534,-199.8456"/>
</g>
<!-- &#45;11&#45;&gt;241 -->
<g id="edge53" class="edge">
<title>&#45;11&#45;&gt;241</title>
<path fill="none" stroke="#ff0000" stroke-width=".2842" d="M119.2002,-235.3494C136.3863,-224.9096 165.1822,-207.4172 186.441,-194.5033"/>
<polygon fill="#ff0000" stroke="#ff0000" stroke-width=".2842" points="188.3051,-197.4661 195.0347,-189.283 184.6709,-191.4834 188.3051,-197.4661"/>
</g>
<!-- &#45;12 -->
<g id="node12" class="node">
<title>&#45;12</title>
<polygon fill="#d3d3d3" stroke="#000000" points="466,-253.2792 437,-253.2792 437,-235.2792 466,-235.2792 466,-253.2792"/>
<text text-anchor="middle" x="451.5" y="-242.0792" font-family="Times,serif" font-size="9.00" fill="#000000">&#45;12</text>
</g>
<!-- &#45;12&#45;&gt;236 -->
<g id="edge54" class="edge">
<title>&#45;12&#45;&gt;236</title>
<path fill="none" stroke="#ff0000" stroke-width=".2821" d="M451.7781,-235.0726C451.9793,-228.4115 452.264,-218.9866 452.544,-209.7145"/>
<polygon fill="#ff0000" stroke="#ff0000" stroke-width=".2821" points="456.05,-209.5675 452.8536,-199.4664 449.0532,-209.3561 456.05,-209.5675"/>
</g>
<!-- &#45;12&#45;&gt;237 -->
<g id="edge55" class="edge">
<title>&#45;12&#45;&gt;237</title>
<path fill="none" stroke="#ff0000" stroke-width=".2825" d="M436.8399,-238.5796C433.7694,-237.4428 430.5407,-236.2891 427.5,-235.2792 373.0385,-217.1912 355.1982,-224.1897 303.5,-199.2792 301.9592,-198.5368 300.4121,-197.7172 298.8768,-196.8447"/>
<polygon fill="#ff0000" stroke="#ff0000" stroke-width=".2825" points="300.6619,-193.8324 290.341,-191.4388 296.9166,-199.7462 300.6619,-193.8324"/>
</g>
<!-- &#45;12&#45;&gt;238 -->
<g id="edge56" class="edge">
<title>&#45;12&#45;&gt;238</title>
<path fill="none" stroke="#00ff00" stroke-width=".1959" d="M436.8291,-237.5683C419.0753,-229.2686 388.4587,-214.3793 363.5,-199.2792 362.0366,-198.3939 360.5507,-197.4613 359.063,-196.5011"/>
<polygon fill="#00ff00" stroke="#00ff00" stroke-width=".1959" points="360.9147,-193.5283 350.6677,-190.8358 356.9991,-199.3308 360.9147,-193.5283"/>
</g>
<!-- &#45;12&#45;&gt;240 -->
<g id="edge57" class="edge">
<title>&#45;12&#45;&gt;240</title>
<path fill="none" stroke="#00ff00" stroke-width=".1215" d="M443.4353,-235.0726C435.8988,-226.4688 424.3231,-213.2538 414.2138,-201.7131"/>
<polygon fill="#00ff00" stroke="#00ff00" stroke-width=".1215" points="416.739,-199.284 407.5171,-194.068 411.4735,-203.8964 416.739,-199.284"/>
</g>
<!-- &#45;12&#45;&gt;241 -->
<g id="edge58" class="edge">
<title>&#45;12&#45;&gt;241</title>
<path fill="none" stroke="#ff0000" stroke-width=".4676" d="M436.9051,-238.3676C433.8299,-237.2462 430.5827,-236.1523 427.5,-235.2792 347.3252,-212.5722 320.1087,-232.062 243.5,-199.2792 241.9276,-198.6063 240.3555,-197.8417 238.8008,-197.0119"/>
<polygon fill="#ff0000" stroke="#ff0000" stroke-width=".4676" points="240.5601,-193.9851 230.2076,-191.7323 236.8957,-199.9493 240.5601,-193.9851"/>
</g>
<!-- &#45;13 -->
<g id="node13" class="node">
<title>&#45;13</title>
<polygon fill="#d3d3d3" stroke="#000000" points="513,-253.2792 484,-253.2792 484,-235.2792 513,-235.2792 513,-253.2792"/>
<text text-anchor="middle" x="498.5" y="-242.0792" font-family="Times,serif" font-size="9.00" fill="#000000">&#45;13</text>
</g>
<!-- &#45;13&#45;&gt;236 -->
<g id="edge59" class="edge">
<title>&#45;13&#45;&gt;236</title>
<path fill="none" stroke="#00ff00" stroke-width=".5" stroke-dasharray="1,5" d="M492.2429,-235.0726C486.793,-227.0535 478.6206,-215.0285 471.1844,-204.087"/>
<polygon fill="#00ff00" stroke="#00ff00" stroke-width=".5" points="473.9605,-201.9449 465.4447,-195.6415 468.171,-205.8796 473.9605,-201.9449"/>
</g>
<!-- &#45;13&#45;&gt;237 -->
<g id="edge60" class="edge">
<title>&#45;13&#45;&gt;237</title>
<path fill="none" stroke="#ff0000" stroke-width=".2083" d="M483.5317,-238.0082C480.8824,-237.0174 478.1299,-236.063 475.5,-235.2792 400.6526,-212.9719 375.0999,-230.4756 303.5,-199.2792 301.932,-198.5961 300.3634,-197.8233 298.8115,-196.9872"/>
<polygon fill="#ff0000" stroke="#ff0000" stroke-width=".2083" points="300.5744,-193.9623 290.2263,-191.6888 296.898,-199.9192 300.5744,-193.9623"/>
</g>
<!-- &#45;13&#45;&gt;238 -->
<g id="edge61" class="edge">
<title>&#45;13&#45;&gt;238</title>
<path fill="none" stroke="#ff0000" stroke-width=".3827" d="M483.9506,-238.429C481.1573,-237.3504 478.2469,-236.2571 475.5,-235.2792 426.242,-217.7443 410.2756,-222.6431 363.5,-199.2792 361.9699,-198.515 360.4313,-197.6781 358.9026,-196.7922"/>
<polygon fill="#ff0000" stroke="#ff0000" stroke-width=".3827" points="360.6966,-193.785 350.3862,-191.3467 356.9257,-199.6825 360.6966,-193.785"/>
</g>
<!-- &#45;13&#45;&gt;240 -->
<g id="edge62" class="edge">
<title>&#45;13&#45;&gt;240</title>
<path fill="none" stroke="#ff0000" stroke-width=".5" d="M483.9239,-235.9689C468.6649,-227.1687 444.104,-212.718 423.5,-199.2792 422.0674,-198.3449 420.6059,-197.3735 419.1371,-196.3832"/>
<polygon fill="#ff0000" stroke="#ff0000" stroke-width=".5" points="421.0163,-193.4275 410.7977,-190.629 417.0407,-199.189 421.0163,-193.4275"/>
</g>
<!-- &#45;13&#45;&gt;241 -->
<g id="edge63" class="edge">
<title>&#45;13&#45;&gt;241</title>
<path fill="none" stroke="#00ff00" stroke-width=".1218" d="M483.5649,-237.8915C480.9118,-236.9137 478.1495,-235.9939 475.5,-235.2792 374.7555,-208.1048 340.2182,-238.4391 243.5,-199.2792 241.874,-198.6209 240.2512,-197.8592 238.6496,-197.024"/>
<polygon fill="#00ff00" stroke="#00ff00" stroke-width=".1218" points="240.194,-193.8661 229.8349,-191.6435 236.5469,-199.841 240.194,-193.8661"/>
</g>
<!-- &#45;14 -->
<g id="node14" class="node">
<title>&#45;14</title>
<polygon fill="#d3d3d3" stroke="#000000" points="560,-253.2792 531,-253.2792 531,-235.2792 560,-235.2792 560,-253.2792"/>
<text text-anchor="middle" x="545.5" y="-242.0792" font-family="Times,serif" font-size="9.00" fill="#000000">&#45;14</text>
</g>
<!-- &#45;14&#45;&gt;236 -->
<g id="edge64" class="edge">
<title>&#45;14&#45;&gt;236</title>
<path fill="none" stroke="#00ff00" stroke-width=".4302" d="M532.7078,-235.0726C519.0013,-225.2079 496.8722,-209.2814 479.4836,-196.7667"/>
<polygon fill="#00ff00" stroke="#00ff00" stroke-width=".4302" points="481.0534,-193.5842 470.8924,-190.5834 476.9643,-199.2657 481.0534,-193.5842"/>
</g>
<!-- &#45;14&#45;&gt;237 -->
<g id="edge65" class="edge">
<title>&#45;14&#45;&gt;237</title>
<path fill="none" stroke="#ff0000" stroke-width=".5" d="M530.5594,-237.9116C527.907,-236.9316 525.1463,-236.0058 522.5,-235.2792 427.3804,-209.1632 394.7625,-236.7082 303.5,-199.2792 301.877,-198.6136 300.2565,-197.8462 298.6567,-197.0065"/>
<polygon fill="#ff0000" stroke="#ff0000" stroke-width=".5" points="300.2033,-193.8496 289.8471,-191.6134 296.5485,-199.8197 300.2033,-193.8496"/>
</g>
<!-- &#45;14&#45;&gt;238 -->
<g id="edge66" class="edge">
<title>&#45;14&#45;&gt;238</title>
<path fill="none" stroke="#ff0000" stroke-width=".1094" d="M530.5208,-238.0444C527.8726,-237.0496 525.1234,-236.0845 522.5,-235.2792 453.2343,-214.0178 429.6856,-228.7621 363.5,-199.2792 361.9377,-198.5833 360.3735,-197.8004 358.825,-196.9564"/>
<polygon fill="#ff0000" stroke="#ff0000" stroke-width=".1094" points="360.5924,-193.9341 350.2501,-191.6349 356.9013,-199.8818 360.5924,-193.9341"/>
</g>
<!-- &#45;14&#45;&gt;240 -->
<g id="edge67" class="edge">
<title>&#45;14&#45;&gt;240</title>
<path fill="none" stroke="#00ff00" stroke-width=".4856" stroke-dasharray="1,5" d="M530.9199,-238.5126C528.1295,-237.4264 525.2279,-236.3088 522.5,-235.2792 478.697,-218.7476 464.982,-220.9874 423.5,-199.2792 421.9846,-198.4862 420.4576,-197.6266 418.9379,-196.723"/>
<polygon fill="#00ff00" stroke="#00ff00" stroke-width=".4856" points="420.7444,-193.7231 410.4482,-191.2253 416.9395,-199.5987 420.7444,-193.7231"/>
</g>
<!-- &#45;14&#45;&gt;241 -->
<g id="edge68" class="edge">
<title>&#45;14&#45;&gt;241</title>
<path fill="none" stroke="#00ff00" stroke-width=".2855" d="M530.5799,-237.8341C527.9252,-236.8627 525.1585,-235.9599 522.5,-235.2792 401.3791,-204.2674 359.9808,-244.7128 243.5,-199.2792 241.8657,-198.6418 240.2364,-197.8965 238.6298,-197.0739"/>
<polygon fill="#00ff00" stroke="#00ff00" stroke-width=".2855" points="240.1679,-193.9137 229.8006,-191.7297 236.5431,-199.9021 240.1679,-193.9137"/>
</g>
<!-- &#45;15 -->
<g id="node15" class="node">
<title>&#45;15</title>
<polygon fill="#d3d3d3" stroke="#000000" points="29,-253.2792 0,-253.2792 0,-235.2792 29,-235.2792 29,-253.2792"/>
<text text-anchor="middle" x="14.5" y="-242.0792" font-family="Times,serif" font-size="9.00" fill="#000000">&#45;15</text>
</g>
<!-- &#45;15&#45;&gt;237 -->
<g id="edge69" class="edge">
<title>&#45;15&#45;&gt;237</title>
<path fill="none" stroke="#00ff00" stroke-width=".1362" d="M29.082,-238.3213C32.1582,-237.2032 35.4089,-236.1224 38.5,-235.2792 127.7445,-210.9348 158.1058,-234.8469 243.5,-199.2792 245.1193,-198.6047 246.737,-197.8304 248.3345,-196.9854"/>
<polygon fill="#00ff00" stroke="#00ff00" stroke-width=".1362" points="250.4495,-199.7939 257.1378,-191.577 246.7852,-193.8295 250.4495,-199.7939"/>
</g>
<!-- &#45;15&#45;&gt;238 -->
<g id="edge70" class="edge">
<title>&#45;15&#45;&gt;238</title>
<path fill="none" stroke="#ff0000" stroke-width=".2121" d="M29.0576,-238.2281C32.1355,-237.1168 35.3932,-236.0623 38.5,-235.2792 153.7553,-206.2304 192.9112,-242.842 303.5,-199.2792 305.1321,-198.6363 306.7598,-197.8867 308.3651,-197.0608"/>
<polygon fill="#ff0000" stroke="#ff0000" stroke-width=".2121" points="310.456,-199.8861 317.1905,-191.7071 306.8254,-193.9012 310.456,-199.8861"/>
</g>
<!-- &#45;15&#45;&gt;240 -->
<g id="edge71" class="edge">
<title>&#45;15&#45;&gt;240</title>
<path fill="none" stroke="#ff0000" stroke-width=".1295" d="M29.0429,-238.1685C32.1219,-237.0615 35.3837,-236.0238 38.5,-235.2792 179.8488,-201.5049 227.6371,-250.8687 363.5,-199.2792 365.1399,-198.6565 366.7737,-197.9228 368.3838,-197.1091"/>
<polygon fill="#ff0000" stroke="#ff0000" stroke-width=".1295" points="370.4589,-199.9453 377.2228,-191.7905 366.8498,-193.9474 370.4589,-199.9453"/>
</g>
<!-- &#45;15&#45;&gt;241 -->
<g id="edge72" class="edge">
<title>&#45;15&#45;&gt;241</title>
<path fill="none" stroke="#ff0000" stroke-width=".2651" d="M29.1869,-238.6582C32.2555,-237.5157 35.4766,-236.3398 38.5,-235.2792 89.15,-217.5119 148.6499,-198.4363 183.5961,-187.4135"/>
<polygon fill="#ff0000" stroke="#ff0000" stroke-width=".2651" points="184.7064,-190.7334 193.1951,-184.3937 182.6056,-184.0561 184.7064,-190.7334"/>
</g>
<!-- 0 -->
<g id="node16" class="node">
<title>0</title>
<ellipse fill="#add8e6" stroke="#000000" cx="359.5" cy="-93.2756" rx="14.7" ry="14.7"/>
<text text-anchor="middle" x="359.5" y="-91.0756" font-family="Times,serif" font-size="9.00" fill="#000000">0</text>
</g>
<!-- 1 -->
<g id="node17" class="node">
<title>1</title>
<ellipse fill="#add8e6" stroke="#000000" cx="297.5" cy="-14.8492" rx="14.7" ry="14.7"/>
<text text-anchor="middle" x="297.5" y="-12.6492" font-family="Times,serif" font-size="9.00" fill="#000000">1</text>
</g>
<!-- 12865 -->
<g id="node18" class="node">
<title>12865</title>
<ellipse fill="#ffffff" stroke="#000000" cx="184.5" cy="-93.2756" rx="27.6545" ry="27.6545"/>
<text text-anchor="middle" x="184.5" y="-91.0756" font-family="Times,serif" font-size="9.00" fill="#000000">12865</text>
</g>
<!-- 12865&#45;&gt;1 -->
<g id="edge83" class="edge">
<title>12865&#45;&gt;1</title>
<path fill="none" stroke="#ff0000" stroke-width=".1037" d="M207.3672,-77.4049C227.7239,-63.2765 257.2389,-42.792 276.8823,-29.1587"/>
<polygon fill="#ff0000" stroke="#ff0000" stroke-width=".1037" points="278.925,-32.0014 285.1447,-23.4243 274.9338,-26.2507 278.925,-32.0014"/>
</g>
<!-- 236&#45;&gt;0 -->
<g id="edge73" class="edge">
<title>236&#45;&gt;0</title>
<path fill="none" stroke="#00ff00" stroke-width=".138" d="M437.5542,-163.6825C421.2591,-148.9839 395.9496,-126.1541 378.596,-110.5007"/>
<polygon fill="#00ff00" stroke="#00ff00" stroke-width=".138" points="380.5602,-107.559 370.7904,-103.4599 375.8716,-112.7568 380.5602,-107.559"/>
</g>
<!-- 236&#45;&gt;1 -->
<g id="edge74" class="edge">
<title>236&#45;&gt;1</title>
<path fill="none" stroke="#00ff00" stroke-width=".2116" d="M449.2593,-156.8951C443.3333,-132.2095 430.3858,-91.5052 405.5,-65.6985 382.4425,-41.7876 345.9216,-27.885 321.8346,-20.8314"/>
<polygon fill="#00ff00" stroke="#00ff00" stroke-width=".2116" points="322.6122,-17.4154 312.0421,-18.1397 320.7568,-24.165 322.6122,-17.4154"/>
</g>
<!-- 237&#45;&gt;0 -->
<g id="edge75" class="edge">
<title>237&#45;&gt;0</title>
<path fill="none" stroke="#ff0000" stroke-width=".5" d="M288.8751,-162.9072C303.604,-148.3855 325.8319,-126.4702 341.4066,-111.1145"/>
<polygon fill="#ff0000" stroke="#ff0000" stroke-width=".5" points="344.2061,-113.2695 348.8698,-103.7563 339.2915,-108.2848 344.2061,-113.2695"/>
</g>
<!-- 237&#45;&gt;1 -->
<g id="edge76" class="edge">
<title>237&#45;&gt;1</title>
<path fill="none" stroke="#ff0000" stroke-width=".3874" d="M276.5884,-157.0624C281.0017,-127.0491 289.0991,-71.9814 293.8181,-39.8885"/>
<polygon fill="#ff0000" stroke="#ff0000" stroke-width=".3874" points="297.2867,-40.3578 295.2788,-29.955 290.3611,-39.3394 297.2867,-40.3578"/>
</g>
<!-- 238&#45;&gt;0 -->
<g id="edge77" class="edge">
<title>238&#45;&gt;0</title>
<path fill="none" stroke="#ff0000" stroke-width=".1658" d="M339.7939,-157.5406C343.5041,-145.4409 348.218,-130.0683 352.1049,-117.3922"/>
<polygon fill="#ff0000" stroke="#ff0000" stroke-width=".1658" points="355.5499,-118.0962 355.1354,-107.5095 348.8574,-116.044 355.5499,-118.0962"/>
</g>
<!-- 238&#45;&gt;1 -->
<g id="edge78" class="edge">
<title>238&#45;&gt;1</title>
<path fill="none" stroke="#00ff00" stroke-width=".4601" d="M328.8673,-157.0624C322.2133,-126.8944 309.976,-71.4131 302.9137,-39.3941"/>
<polygon fill="#00ff00" stroke="#00ff00" stroke-width=".4601" points="306.3045,-38.5168 300.7326,-29.5054 299.4688,-40.0246 306.3045,-38.5168"/>
</g>
<!-- 240&#45;&gt;0 -->
<g id="edge79" class="edge">
<title>240&#45;&gt;0</title>
<path fill="none" stroke="#00ff00" stroke-width=".1806" d="M385.4425,-157.9719C380.4841,-145.6065 374.1068,-129.7026 368.9161,-116.7577"/>
<polygon fill="#00ff00" stroke="#00ff00" stroke-width=".1806" points="372.0278,-115.1137 365.0573,-107.1347 365.5307,-117.719 372.0278,-115.1137"/>
</g>
<!-- 240&#45;&gt;1 -->
<g id="edge80" class="edge">
<title>240&#45;&gt;1</title>
<path fill="none" stroke="#00ff00" stroke-width=".3354" d="M397.0421,-156.7959C399.8895,-132.7512 400.951,-93.3615 383.5,-65.6985 369.4079,-43.3599 341.6527,-29.6052 321.4745,-22.1263"/>
<polygon fill="#00ff00" stroke="#00ff00" stroke-width=".3354" points="322.5931,-18.8099 311.9984,-18.8619 320.3131,-25.4282 322.5931,-18.8099"/>
</g>
<!-- 241&#45;&gt;1 -->
<g id="edge81" class="edge">
<title>241&#45;&gt;1</title>
<path fill="none" stroke="#00ff00" stroke-width=".4011" d="M223.3003,-159.0235C238.9101,-128.6928 269.3501,-69.5461 285.9788,-37.2356"/>
<polygon fill="#00ff00" stroke="#00ff00" stroke-width=".4011" points="289.2003,-38.6246 290.6643,-28.1314 282.9762,-35.4213 289.2003,-38.6246"/>
</g>
<!-- 241&#45;&gt;12865 -->
<g id="edge82" class="edge">
<title>241&#45;&gt;12865</title>
<path fill="none" stroke="#00ff00" stroke-width=".5" d="M206.6274,-157.9719C203.6879,-149.3773 200.1637,-139.0733 196.8011,-129.2416"/>
<polygon fill="#00ff00" stroke="#00ff00" stroke-width=".5" points="200.0678,-127.9773 193.5199,-119.6481 193.4445,-130.2427 200.0678,-127.9773"/>
</g>
</g>
</svg>
