<?xml version="1.0" encoding="UTF-8" standalone="no"?>
<!DOCTYPE svg PUBLIC "-//W3C//DTD SVG 1.1//EN"
 "http://www.w3.org/Graphics/SVG/1.1/DTD/svg11.dtd">
<!-- Generated by graphviz version 2.43.0 (0)
 -->
<!-- Title: %3 Pages: 1 -->
<svg width="686pt" height="266pt"
 viewBox="0.00 0.00 686.00 265.52" xmlns="http://www.w3.org/2000/svg" xmlns:xlink="http://www.w3.org/1999/xlink">
<g id="graph0" class="graph" transform="scale(1 1) rotate(0) translate(4 261.52)">
<title>%3</title>
<polygon fill="white" stroke="transparent" points="-4,4 -4,-261.52 682,-261.52 682,4 -4,4"/>
<!-- &#45;1 -->
<g id="node1" class="node">
<title>&#45;1</title>
<polygon fill="lightgray" stroke="black" points="446,-257.52 420,-257.52 420,-239.52 446,-239.52 446,-257.52"/>
<text text-anchor="middle" x="433" y="-246.32" font-family="Times,serif" font-size="9.00">&#45;1</text>
</g>
<!-- 944 -->
<g id="node18" class="node">
<title>944</title>
<ellipse fill="white" stroke="black" cx="423" cy="-178.77" rx="25" ry="25"/>
<text text-anchor="middle" x="423" y="-176.57" font-family="Times,serif" font-size="9.00">944</text>
</g>
<!-- &#45;1&#45;&gt;944 -->
<g id="edge1" class="edge">
<title>&#45;1&#45;&gt;944</title>
<path fill="none" stroke="red" stroke-width="0.13" d="M431.81,-239.48C430.85,-232.93 429.41,-223.19 427.98,-213.48"/>
<polygon fill="red" stroke="red" stroke-width="0.13" points="431.42,-212.88 426.5,-203.5 424.5,-213.9 431.42,-212.88"/>
</g>
<!-- 945 -->
<g id="node19" class="node">
<title>945</title>
<ellipse fill="white" stroke="black" cx="356" cy="-178.77" rx="25" ry="25"/>
<text text-anchor="middle" x="356" y="-176.57" font-family="Times,serif" font-size="9.00">945</text>
</g>
<!-- &#45;1&#45;&gt;945 -->
<g id="edge2" class="edge">
<title>&#45;1&#45;&gt;945</title>
<path fill="none" stroke="red" stroke-width="0.38" d="M423.86,-239.48C413.58,-230.43 396.41,-215.33 381.91,-202.57"/>
<polygon fill="red" stroke="red" stroke-width="0.38" points="384.02,-199.76 374.2,-195.78 379.39,-205.02 384.02,-199.76"/>
</g>
<!-- 946 -->
<g id="node20" class="node">
<title>946</title>
<ellipse fill="white" stroke="black" cx="490" cy="-178.77" rx="25" ry="25"/>
<text text-anchor="middle" x="490" y="-176.57" font-family="Times,serif" font-size="9.00">946</text>
</g>
<!-- &#45;1&#45;&gt;946 -->
<g id="edge3" class="edge">
<title>&#45;1&#45;&gt;946</title>
<path fill="none" stroke="red" stroke-width="0.24" d="M439.76,-239.48C446.66,-231.28 457.75,-218.11 467.75,-206.21"/>
<polygon fill="red" stroke="red" stroke-width="0.24" points="470.68,-208.17 474.44,-198.26 465.33,-203.66 470.68,-208.17"/>
</g>
<!-- 947 -->
<g id="node21" class="node">
<title>947</title>
<ellipse fill="white" stroke="black" cx="174" cy="-178.77" rx="25" ry="25"/>
<text text-anchor="middle" x="174" y="-176.57" font-family="Times,serif" font-size="9.00">947</text>
</g>
<!-- &#45;1&#45;&gt;947 -->
<g id="edge4" class="edge">
<title>&#45;1&#45;&gt;947</title>
<path fill="none" stroke="green" stroke-width="0.32" d="M419.58,-242.4C416.76,-241.39 413.8,-240.38 411,-239.52 339.53,-217.58 254.19,-197.54 207.91,-187.18"/>
<polygon fill="green" stroke="green" stroke-width="0.32" points="208.63,-183.75 198.11,-185 207.11,-190.59 208.63,-183.75"/>
</g>
<!-- 948 -->
<g id="node22" class="node">
<title>948</title>
<ellipse fill="white" stroke="black" cx="265" cy="-93.28" rx="25" ry="25"/>
<text text-anchor="middle" x="265" y="-91.08" font-family="Times,serif" font-size="9.00">948</text>
</g>
<!-- &#45;1&#45;&gt;948 -->
<g id="edge5" class="edge">
<title>&#45;1&#45;&gt;948</title>
<path fill="none" stroke="green" stroke-width="0.47" d="M446,-242.14C470.06,-232.06 519.5,-210.69 524,-203.52 535.69,-184.89 537.7,-171.24 524,-154.02 496.38,-119.3 364.12,-103.03 300,-97.08"/>
<polygon fill="green" stroke="green" stroke-width="0.47" points="300.23,-93.59 289.96,-96.18 299.61,-100.56 300.23,-93.59"/>
</g>
<!-- &#45;2 -->
<g id="node2" class="node">
<title>&#45;2</title>
<polygon fill="lightgray" stroke="black" points="26,-257.52 0,-257.52 0,-239.52 26,-239.52 26,-257.52"/>
<text text-anchor="middle" x="13" y="-246.32" font-family="Times,serif" font-size="9.00">&#45;2</text>
</g>
<!-- &#45;2&#45;&gt;944 -->
<g id="edge6" class="edge">
<title>&#45;2&#45;&gt;944</title>
<path fill="none" stroke="green" stroke-width="0.19" d="M26.34,-242.08C29.16,-241.09 32.15,-240.17 35,-239.52 189.59,-204.15 241.72,-259.75 390,-203.52 391.88,-202.81 393.75,-201.96 395.59,-201.01"/>
<polygon fill="green" stroke="green" stroke-width="0.19" points="397.69,-203.83 404.44,-195.66 394.07,-197.85 397.69,-203.83"/>
</g>
<!-- &#45;2&#45;&gt;945 -->
<g id="edge7" class="edge">
<title>&#45;2&#45;&gt;945</title>
<path fill="none" stroke="green" stroke-width="0.5" d="M26.38,-242.26C29.2,-241.26 32.18,-240.29 35,-239.52 88.84,-224.83 249.74,-197.39 321.18,-185.51"/>
<polygon fill="green" stroke="green" stroke-width="0.5" points="322.15,-188.89 331.44,-183.8 321,-181.99 322.15,-188.89"/>
</g>
<!-- &#45;2&#45;&gt;947 -->
<g id="edge8" class="edge">
<title>&#45;2&#45;&gt;947</title>
<path fill="none" stroke="green" stroke-width="0.5" d="M26.18,-241.98C51.3,-231.41 106.7,-208.09 142.09,-193.2"/>
<polygon fill="green" stroke="green" stroke-width="0.5" points="143.64,-196.35 151.5,-189.24 140.93,-189.89 143.64,-196.35"/>
</g>
<!-- &#45;2&#45;&gt;948 -->
<g id="edge9" class="edge">
<title>&#45;2&#45;&gt;948</title>
<path fill="none" stroke="red" stroke-width="0.13" d="M14.75,-239.39C19.1,-221.26 32.08,-177.27 60,-154.02 109.45,-112.85 186.09,-100.04 230.32,-96.06"/>
<polygon fill="red" stroke="red" stroke-width="0.13" points="230.61,-99.55 240.3,-95.27 230.05,-92.57 230.61,-99.55"/>
</g>
<!-- &#45;3 -->
<g id="node3" class="node">
<title>&#45;3</title>
<polygon fill="lightgray" stroke="black" points="540,-257.52 514,-257.52 514,-239.52 540,-239.52 540,-257.52"/>
<text text-anchor="middle" x="527" y="-246.32" font-family="Times,serif" font-size="9.00">&#45;3</text>
</g>
<!-- &#45;3&#45;&gt;944 -->
<g id="edge10" class="edge">
<title>&#45;3&#45;&gt;944</title>
<path fill="none" stroke="green" stroke-width="0.12" d="M513.74,-239.68C499.35,-231.08 475.77,-216.74 456,-203.52 454.37,-202.43 452.71,-201.3 451.04,-200.15"/>
<polygon fill="green" stroke="green" stroke-width="0.12" points="452.93,-197.2 442.74,-194.31 448.91,-202.93 452.93,-197.2"/>
</g>
<!-- &#45;3&#45;&gt;945 -->
<g id="edge11" class="edge">
<title>&#45;3&#45;&gt;945</title>
<path fill="none" stroke="red" stroke-width="0.29" d="M513.54,-242.51C510.73,-241.5 507.77,-240.46 505,-239.52 453.84,-222.29 437.31,-227.6 389,-203.52 387.2,-202.62 385.39,-201.63 383.6,-200.58"/>
<polygon fill="red" stroke="red" stroke-width="0.29" points="385.18,-197.43 374.88,-194.94 381.37,-203.31 385.18,-197.43"/>
</g>
<!-- &#45;3&#45;&gt;946 -->
<g id="edge12" class="edge">
<title>&#45;3&#45;&gt;946</title>
<path fill="none" stroke="red" stroke-width="0.38" d="M522.61,-239.48C518.57,-232.09 512.33,-220.65 506.38,-209.76"/>
<polygon fill="red" stroke="red" stroke-width="0.38" points="509.37,-207.94 501.51,-200.84 503.23,-211.29 509.37,-207.94"/>
</g>
<!-- &#45;3&#45;&gt;947 -->
<g id="edge13" class="edge">
<title>&#45;3&#45;&gt;947</title>
<path fill="none" stroke="green" stroke-width="0.15" d="M513.62,-242.25C510.8,-241.25 507.83,-240.28 505,-239.52 449.12,-224.44 281.28,-196.88 208.4,-185.22"/>
<polygon fill="green" stroke="green" stroke-width="0.15" points="208.79,-181.74 198.36,-183.62 207.69,-188.65 208.79,-181.74"/>
</g>
<!-- &#45;3&#45;&gt;948 -->
<g id="edge14" class="edge">
<title>&#45;3&#45;&gt;948</title>
<path fill="none" stroke="red" stroke-width="0.27" d="M535.71,-239.41C543.78,-231.24 555.23,-217.83 560,-203.52 566.96,-182.65 573.93,-171.05 560,-154.02 527.51,-114.3 371.22,-100.36 300.22,-96.02"/>
<polygon fill="red" stroke="red" stroke-width="0.27" points="300.18,-92.51 289.99,-95.43 299.77,-99.5 300.18,-92.51"/>
</g>
<!-- &#45;4 -->
<g id="node4" class="node">
<title>&#45;4</title>
<polygon fill="lightgray" stroke="black" points="402,-257.52 376,-257.52 376,-239.52 402,-239.52 402,-257.52"/>
<text text-anchor="middle" x="389" y="-246.32" font-family="Times,serif" font-size="9.00">&#45;4</text>
</g>
<!-- &#45;4&#45;&gt;944 -->
<g id="edge15" class="edge">
<title>&#45;4&#45;&gt;944</title>
<path fill="none" stroke="green" stroke-width="0.21" d="M393.03,-239.48C396.68,-232.22 402.29,-221.05 407.67,-210.33"/>
<polygon fill="green" stroke="green" stroke-width="0.21" points="410.92,-211.64 412.28,-201.13 404.67,-208.5 410.92,-211.64"/>
</g>
<!-- &#45;4&#45;&gt;945 -->
<g id="edge16" class="edge">
<title>&#45;4&#45;&gt;945</title>
<path fill="none" stroke="green" stroke-width="0.18" d="M385.08,-239.48C381.57,-232.27 376.19,-221.22 371,-210.57"/>
<polygon fill="green" stroke="green" stroke-width="0.18" points="374.07,-208.88 366.55,-201.42 367.78,-211.95 374.07,-208.88"/>
</g>
<!-- &#45;4&#45;&gt;946 -->
<g id="edge17" class="edge">
<title>&#45;4&#45;&gt;946</title>
<path fill="none" stroke="green" stroke-width="0.14" d="M401.91,-239.44C415.68,-230.75 438.07,-216.45 457,-203.52 458.62,-202.42 460.27,-201.27 461.94,-200.11"/>
<polygon fill="green" stroke="green" stroke-width="0.14" points="464.08,-202.88 470.22,-194.25 460.03,-197.17 464.08,-202.88"/>
</g>
<!-- &#45;4&#45;&gt;947 -->
<g id="edge18" class="edge">
<title>&#45;4&#45;&gt;947</title>
<path fill="none" stroke="green" stroke-width="0.14" d="M375.54,-242.51C372.73,-241.5 369.77,-240.45 367,-239.52 311.3,-220.79 245.85,-200.98 207.26,-189.54"/>
<polygon fill="green" stroke="green" stroke-width="0.14" points="208.17,-186.15 197.59,-186.67 206.18,-192.87 208.17,-186.15"/>
</g>
<!-- &#45;4&#45;&gt;948 -->
<g id="edge19" class="edge">
<title>&#45;4&#45;&gt;948</title>
<path fill="none" stroke="red" stroke-width="0.39" d="M375.99,-241.51C361.35,-234.23 337.59,-220.76 322,-203.52 301.53,-180.89 286.18,-149.57 276.59,-126.26"/>
<polygon fill="red" stroke="red" stroke-width="0.39" points="279.78,-124.82 272.84,-116.81 273.28,-127.4 279.78,-124.82"/>
</g>
<!-- &#45;5 -->
<g id="node5" class="node">
<title>&#45;5</title>
<polygon fill="lightgray" stroke="black" points="584,-257.52 558,-257.52 558,-239.52 584,-239.52 584,-257.52"/>
<text text-anchor="middle" x="571" y="-246.32" font-family="Times,serif" font-size="9.00">&#45;5</text>
</g>
<!-- &#45;5&#45;&gt;944 -->
<g id="edge20" class="edge">
<title>&#45;5&#45;&gt;944</title>
<path fill="none" stroke="red" stroke-width="0.32" d="M557.83,-242.7C529.66,-232.36 465.36,-208.57 456,-203.52 454.23,-202.57 452.44,-201.53 450.67,-200.44"/>
<polygon fill="red" stroke="red" stroke-width="0.32" points="452.27,-197.3 442,-194.71 448.41,-203.14 452.27,-197.3"/>
</g>
<!-- &#45;5&#45;&gt;945 -->
<g id="edge21" class="edge">
<title>&#45;5&#45;&gt;945</title>
<path fill="none" stroke="green" stroke-width="0.5" d="M557.59,-242.34C554.78,-241.34 551.81,-240.34 549,-239.52 479.05,-219.03 455.48,-233.41 389,-203.52 387.17,-202.7 385.33,-201.76 383.52,-200.75"/>
<polygon fill="green" stroke="green" stroke-width="0.5" points="385.07,-197.59 374.75,-195.22 381.34,-203.51 385.07,-197.59"/>
</g>
<!-- &#45;5&#45;&gt;946 -->
<g id="edge22" class="edge">
<title>&#45;5&#45;&gt;946</title>
<path fill="none" stroke="green" stroke-width="0.43" d="M561.39,-239.48C550.33,-230.23 531.69,-214.65 516.24,-201.72"/>
<polygon fill="green" stroke="green" stroke-width="0.43" points="518.42,-198.98 508.5,-195.25 513.93,-204.35 518.42,-198.98"/>
</g>
<!-- &#45;5&#45;&gt;947 -->
<g id="edge23" class="edge">
<title>&#45;5&#45;&gt;947</title>
<path fill="none" stroke="red" stroke-width="0.5" d="M557.63,-242.2C554.81,-241.21 551.83,-240.25 549,-239.52 450.1,-213.95 422.87,-219.61 322,-203.52 283.04,-197.31 238.31,-190.12 208.31,-185.3"/>
<polygon fill="red" stroke="red" stroke-width="0.5" points="208.78,-181.83 198.35,-183.69 207.67,-188.74 208.78,-181.83"/>
</g>
<!-- &#45;5&#45;&gt;948 -->
<g id="edge24" class="edge">
<title>&#45;5&#45;&gt;948</title>
<path fill="none" stroke="red" stroke-width="0.38" d="M574.96,-239.39C582.96,-221.64 598.65,-178.98 578,-154.02 543.05,-111.77 374.52,-99.13 300.26,-95.57"/>
<polygon fill="red" stroke="red" stroke-width="0.38" points="300.16,-92.07 290.02,-95.11 299.85,-99.06 300.16,-92.07"/>
</g>
<!-- &#45;6 -->
<g id="node6" class="node">
<title>&#45;6</title>
<polygon fill="lightgray" stroke="black" points="678,-257.52 652,-257.52 652,-239.52 678,-239.52 678,-257.52"/>
<text text-anchor="middle" x="665" y="-246.32" font-family="Times,serif" font-size="9.00">&#45;6</text>
</g>
<!-- &#45;6&#45;&gt;944 -->
<g id="edge25" class="edge">
<title>&#45;6&#45;&gt;944</title>
<path fill="none" stroke="green" stroke-width="0.5" d="M651.61,-242.27C648.79,-241.27 645.82,-240.3 643,-239.52 561.42,-216.99 533.72,-237.03 456,-203.52 454.15,-202.73 452.31,-201.81 450.49,-200.82"/>
<polygon fill="green" stroke="green" stroke-width="0.5" points="452.03,-197.66 441.7,-195.34 448.33,-203.6 452.03,-197.66"/>
</g>
<!-- &#45;6&#45;&gt;945 -->
<g id="edge26" class="edge">
<title>&#45;6&#45;&gt;945</title>
<path fill="none" stroke="green" stroke-width="0.46" d="M651.64,-242.16C648.82,-241.17 645.84,-240.23 643,-239.52 532.38,-211.89 494.79,-246.06 389,-203.52 387.13,-202.77 385.27,-201.89 383.44,-200.93"/>
<polygon fill="green" stroke="green" stroke-width="0.46" points="384.97,-197.76 374.62,-195.52 381.32,-203.73 384.97,-197.76"/>
</g>
<!-- &#45;6&#45;&gt;946 -->
<g id="edge27" class="edge">
<title>&#45;6&#45;&gt;946</title>
<path fill="none" stroke="green" stroke-width="0.35" d="M651.85,-242.43C624.63,-231.89 561.43,-207.43 522.55,-192.37"/>
<polygon fill="green" stroke="green" stroke-width="0.35" points="523.34,-188.93 512.75,-188.58 520.82,-195.46 523.34,-188.93"/>
</g>
<!-- &#45;6&#45;&gt;947 -->
<g id="edge28" class="edge">
<title>&#45;6&#45;&gt;947</title>
<path fill="none" stroke="red" stroke-width="0.33" d="M651.66,-242.1C648.84,-241.11 645.85,-240.19 643,-239.52 503.23,-206.76 464.25,-222.9 322,-203.52 282.9,-198.2 238.2,-190.85 208.25,-185.74"/>
<polygon fill="red" stroke="red" stroke-width="0.33" points="208.75,-182.28 198.3,-184.04 207.57,-189.18 208.75,-182.28"/>
</g>
<!-- &#45;6&#45;&gt;948 -->
<g id="edge29" class="edge">
<title>&#45;6&#45;&gt;948</title>
<path fill="none" stroke="red" stroke-width="0.27" d="M663.76,-239.45C660.47,-221.02 649.74,-175.81 621,-154.02 570.69,-115.89 379.1,-100.77 299.75,-96.06"/>
<polygon fill="red" stroke="red" stroke-width="0.27" points="299.94,-92.57 289.76,-95.49 299.54,-99.56 299.94,-92.57"/>
</g>
<!-- &#45;7 -->
<g id="node7" class="node">
<title>&#45;7</title>
<polygon fill="lightgray" stroke="black" points="70,-257.52 44,-257.52 44,-239.52 70,-239.52 70,-257.52"/>
<text text-anchor="middle" x="57" y="-246.32" font-family="Times,serif" font-size="9.00">&#45;7</text>
</g>
<!-- &#45;7&#45;&gt;944 -->
<g id="edge30" class="edge">
<title>&#45;7&#45;&gt;944</title>
<path fill="none" stroke="green" stroke-width="0.23" d="M70.34,-242.11C73.17,-241.12 76.15,-240.19 79,-239.52 214.42,-207.53 260.25,-253.78 390,-203.52 391.88,-202.8 393.74,-201.94 395.58,-200.98"/>
<polygon fill="green" stroke="green" stroke-width="0.23" points="397.69,-203.8 404.42,-195.61 394.05,-197.81 397.69,-203.8"/>
</g>
<!-- &#45;7&#45;&gt;945 -->
<g id="edge31" class="edge">
<title>&#45;7&#45;&gt;945</title>
<path fill="none" stroke="green" stroke-width="0.5" d="M70.4,-242.32C73.22,-241.32 76.19,-240.33 79,-239.52 165.02,-214.73 268.7,-195 321.48,-185.65"/>
<polygon fill="green" stroke="green" stroke-width="0.5" points="322.4,-189.05 331.64,-183.87 321.19,-182.15 322.4,-189.05"/>
</g>
<!-- &#45;7&#45;&gt;946 -->
<g id="edge32" class="edge">
<title>&#45;7&#45;&gt;946</title>
<path fill="none" stroke="red" stroke-width="0.21" d="M70.33,-242.06C73.16,-241.08 76.15,-240.17 79,-239.52 243.62,-202.39 299.02,-262.87 457,-203.52 458.88,-202.81 460.76,-201.97 462.6,-201.03"/>
<polygon fill="red" stroke="red" stroke-width="0.21" points="464.69,-203.85 471.45,-195.69 461.08,-197.86 464.69,-203.85"/>
</g>
<!-- &#45;7&#45;&gt;947 -->
<g id="edge33" class="edge">
<title>&#45;7&#45;&gt;947</title>
<path fill="none" stroke="green" stroke-width="0.29" d="M70.42,-239.75C88.23,-229.44 120.17,-210.95 143.89,-197.21"/>
<polygon fill="green" stroke="green" stroke-width="0.29" points="145.95,-200.06 152.85,-192.02 142.44,-194 145.95,-200.06"/>
</g>
<!-- &#45;7&#45;&gt;948 -->
<g id="edge34" class="edge">
<title>&#45;7&#45;&gt;948</title>
<path fill="none" stroke="red" stroke-width="0.38" d="M57.46,-239.27C58.9,-221.26 64.83,-178.14 89,-154.02 127.27,-115.85 190.83,-102.05 230.18,-97.07"/>
<polygon fill="red" stroke="red" stroke-width="0.38" points="230.58,-100.55 240.12,-95.94 229.78,-93.59 230.58,-100.55"/>
</g>
<!-- &#45;8 -->
<g id="node8" class="node">
<title>&#45;8</title>
<polygon fill="lightgray" stroke="black" points="114,-257.52 88,-257.52 88,-239.52 114,-239.52 114,-257.52"/>
<text text-anchor="middle" x="101" y="-246.32" font-family="Times,serif" font-size="9.00">&#45;8</text>
</g>
<!-- &#45;8&#45;&gt;944 -->
<g id="edge35" class="edge">
<title>&#45;8&#45;&gt;944</title>
<path fill="none" stroke="red" stroke-width="0.26" d="M114.35,-242.15C117.18,-241.16 120.16,-240.22 123,-239.52 239.27,-210.9 278.75,-247.81 390,-203.52 391.87,-202.78 393.73,-201.9 395.56,-200.94"/>
<polygon fill="red" stroke="red" stroke-width="0.26" points="397.69,-203.75 404.39,-195.54 394.03,-197.77 397.69,-203.75"/>
</g>
<!-- &#45;8&#45;&gt;945 -->
<g id="edge36" class="edge">
<title>&#45;8&#45;&gt;945</title>
<path fill="none" stroke="green" stroke-width="0.44" d="M114.43,-242.4C117.24,-241.4 120.2,-240.39 123,-239.52 192.95,-217.89 276.39,-197.86 322.02,-187.39"/>
<polygon fill="green" stroke="green" stroke-width="0.44" points="323,-190.75 331.97,-185.12 321.44,-183.93 323,-190.75"/>
</g>
<!-- &#45;8&#45;&gt;946 -->
<g id="edge37" class="edge">
<title>&#45;8&#45;&gt;946</title>
<path fill="none" stroke="green" stroke-width="0.5" d="M114.34,-242.09C117.16,-241.11 120.15,-240.18 123,-239.52 268.44,-205.76 317.56,-256.9 457,-203.52 458.88,-202.8 460.75,-201.95 462.59,-201"/>
<polygon fill="green" stroke="green" stroke-width="0.5" points="464.69,-203.82 471.43,-195.64 461.06,-197.83 464.69,-203.82"/>
</g>
<!-- &#45;8&#45;&gt;947 -->
<g id="edge38" class="edge">
<title>&#45;8&#45;&gt;947</title>
<path fill="none" stroke="red" stroke-width="0.31" d="M109.66,-239.48C119.2,-230.64 134.97,-216 148.51,-203.43"/>
<polygon fill="red" stroke="red" stroke-width="0.31" points="151.22,-205.69 156.16,-196.33 146.45,-200.56 151.22,-205.69"/>
</g>
<!-- &#45;8&#45;&gt;948 -->
<g id="edge39" class="edge">
<title>&#45;8&#45;&gt;948</title>
<path fill="none" stroke="red" stroke-width="0.16" d="M98.61,-239.31C94.04,-221.75 86.1,-180.05 105,-154.02 133.91,-114.22 192.54,-100.91 230.24,-96.48"/>
<polygon fill="red" stroke="red" stroke-width="0.16" points="230.68,-99.95 240.27,-95.45 229.96,-92.99 230.68,-99.95"/>
</g>
<!-- &#45;9 -->
<g id="node9" class="node">
<title>&#45;9</title>
<polygon fill="lightgray" stroke="black" points="158,-257.52 132,-257.52 132,-239.52 158,-239.52 158,-257.52"/>
<text text-anchor="middle" x="145" y="-246.32" font-family="Times,serif" font-size="9.00">&#45;9</text>
</g>
<!-- &#45;9&#45;&gt;944 -->
<g id="edge40" class="edge">
<title>&#45;9&#45;&gt;944</title>
<path fill="none" stroke="red" stroke-width="0.12" d="M158.37,-242.21C161.19,-241.21 164.17,-240.26 167,-239.52 264.16,-214.25 297.22,-241.87 390,-203.52 391.86,-202.75 393.71,-201.86 395.54,-200.88"/>
<polygon fill="red" stroke="red" stroke-width="0.12" points="397.68,-203.68 404.35,-195.45 394,-197.72 397.68,-203.68"/>
</g>
<!-- &#45;9&#45;&gt;945 -->
<g id="edge41" class="edge">
<title>&#45;9&#45;&gt;945</title>
<path fill="none" stroke="green" stroke-width="0.19" d="M158.46,-242.52C161.28,-241.51 164.23,-240.46 167,-239.52 221.06,-221.16 284.43,-201.5 322.33,-189.94"/>
<polygon fill="green" stroke="green" stroke-width="0.19" points="323.77,-193.16 332.32,-186.9 321.74,-186.47 323.77,-193.16"/>
</g>
<!-- &#45;9&#45;&gt;946 -->
<g id="edge42" class="edge">
<title>&#45;9&#45;&gt;946</title>
<path fill="none" stroke="red" stroke-width="0.38" d="M158.35,-242.13C161.17,-241.14 164.16,-240.21 167,-239.52 293.27,-209.14 336.08,-250.93 457,-203.52 458.87,-202.79 460.74,-201.92 462.57,-200.96"/>
<polygon fill="red" stroke="red" stroke-width="0.38" points="464.69,-203.77 471.41,-195.58 461.05,-197.8 464.69,-203.77"/>
</g>
<!-- &#45;9&#45;&gt;947 -->
<g id="edge43" class="edge">
<title>&#45;9&#45;&gt;947</title>
<path fill="none" stroke="green" stroke-width="0.22" stroke-dasharray="1,5" d="M148.44,-239.48C151.47,-232.4 156.09,-221.6 160.58,-211.13"/>
<polygon fill="green" stroke="green" stroke-width="0.22" points="163.89,-212.29 164.61,-201.72 157.45,-209.53 163.89,-212.29"/>
</g>
<!-- &#45;9&#45;&gt;948 -->
<g id="edge44" class="edge">
<title>&#45;9&#45;&gt;948</title>
<path fill="none" stroke="green" stroke-width="0.22" d="M137.6,-239.52C130.48,-231.23 120.21,-217.54 116,-203.52 109.68,-182.45 103.67,-172.25 116,-154.02 141.44,-116.41 194.85,-102.48 230.32,-97.31"/>
<polygon fill="green" stroke="green" stroke-width="0.22" points="230.79,-100.78 240.26,-96.02 229.89,-93.84 230.79,-100.78"/>
</g>
<!-- &#45;10 -->
<g id="node10" class="node">
<title>&#45;10</title>
<polygon fill="lightgray" stroke="black" points="634,-257.52 602,-257.52 602,-239.52 634,-239.52 634,-257.52"/>
<text text-anchor="middle" x="618" y="-246.32" font-family="Times,serif" font-size="9.00">&#45;10</text>
</g>
<!-- &#45;10&#45;&gt;944 -->
<g id="edge45" class="edge">
<title>&#45;10&#45;&gt;944</title>
<path fill="none" stroke="red" stroke-width="0.27" d="M601.9,-242.23C598.95,-241.3 595.89,-240.36 593,-239.52 532.55,-221.92 512.95,-230.36 456,-203.52 454.18,-202.66 452.36,-201.7 450.55,-200.67"/>
<polygon fill="red" stroke="red" stroke-width="0.27" points="452.12,-197.52 441.8,-195.09 448.35,-203.42 452.12,-197.52"/>
</g>
<!-- &#45;10&#45;&gt;945 -->
<g id="edge46" class="edge">
<title>&#45;10&#45;&gt;945</title>
<path fill="none" stroke="green" stroke-width="0.25" d="M601.95,-242.03C599,-241.12 595.92,-240.24 593,-239.52 503.62,-217.44 473.83,-239.31 389,-203.52 387.15,-202.74 385.3,-201.84 383.47,-200.85"/>
<polygon fill="green" stroke="green" stroke-width="0.25" points="385.01,-197.69 374.67,-195.39 381.32,-203.64 385.01,-197.69"/>
</g>
<!-- &#45;10&#45;&gt;946 -->
<g id="edge47" class="edge">
<title>&#45;10&#45;&gt;946</title>
<path fill="none" stroke="green" stroke-width="0.24" d="M602.81,-239.48C582.64,-228.81 546.55,-209.7 520.61,-195.97"/>
<polygon fill="green" stroke="green" stroke-width="0.24" points="522.04,-192.77 511.56,-191.19 518.76,-198.96 522.04,-192.77"/>
</g>
<!-- &#45;10&#45;&gt;947 -->
<g id="edge48" class="edge">
<title>&#45;10&#45;&gt;947</title>
<path fill="none" stroke="green" stroke-width="0.42" stroke-dasharray="1,5" d="M601.98,-241.93C599.02,-241.03 595.93,-240.18 593,-239.52 474.45,-212.9 442.22,-221.15 322,-203.52 282.96,-197.8 238.25,-190.52 208.28,-185.54"/>
<polygon fill="green" stroke="green" stroke-width="0.42" points="208.76,-182.08 198.32,-183.88 207.61,-188.98 208.76,-182.08"/>
</g>
<!-- &#45;10&#45;&gt;948 -->
<g id="edge49" class="edge">
<title>&#45;10&#45;&gt;948</title>
<path fill="none" stroke="red" stroke-width="0.34" d="M618.87,-239.36C620.33,-221.16 621.03,-177.04 597,-154.02 554.79,-113.59 376.56,-99.88 300.08,-95.81"/>
<polygon fill="red" stroke="red" stroke-width="0.34" points="300.16,-92.31 289.99,-95.3 299.8,-99.3 300.16,-92.31"/>
</g>
<!-- &#45;11 -->
<g id="node11" class="node">
<title>&#45;11</title>
<polygon fill="lightgray" stroke="black" points="496,-257.52 464,-257.52 464,-239.52 496,-239.52 496,-257.52"/>
<text text-anchor="middle" x="480" y="-246.32" font-family="Times,serif" font-size="9.00">&#45;11</text>
</g>
<!-- &#45;11&#45;&gt;944 -->
<g id="edge50" class="edge">
<title>&#45;11&#45;&gt;944</title>
<path fill="none" stroke="red" stroke-width="0.44" d="M473.24,-239.48C466.34,-231.28 455.25,-218.11 445.25,-206.21"/>
<polygon fill="red" stroke="red" stroke-width="0.44" points="447.67,-203.66 438.56,-198.26 442.32,-208.17 447.67,-203.66"/>
</g>
<!-- &#45;11&#45;&gt;945 -->
<g id="edge51" class="edge">
<title>&#45;11&#45;&gt;945</title>
<path fill="none" stroke="red" stroke-width="0.5" d="M463.78,-240.7C445.23,-232.67 414.18,-218.52 389,-203.52 387.32,-202.52 385.61,-201.46 383.91,-200.36"/>
<polygon fill="red" stroke="red" stroke-width="0.5" points="385.76,-197.38 375.52,-194.66 381.83,-203.17 385.76,-197.38"/>
</g>
<!-- &#45;11&#45;&gt;946 -->
<g id="edge52" class="edge">
<title>&#45;11&#45;&gt;946</title>
<path fill="none" stroke="red" stroke-width="0.36" d="M481.19,-239.48C482.15,-232.93 483.59,-223.19 485.02,-213.48"/>
<polygon fill="red" stroke="red" stroke-width="0.36" points="488.5,-213.9 486.5,-203.5 481.58,-212.88 488.5,-213.9"/>
</g>
<!-- &#45;11&#45;&gt;947 -->
<g id="edge53" class="edge">
<title>&#45;11&#45;&gt;947</title>
<path fill="none" stroke="green" stroke-width="0.35" d="M463.93,-242.12C460.98,-241.2 457.91,-240.29 455,-239.52 366.88,-216.12 261.32,-195.67 208.16,-185.89"/>
<polygon fill="green" stroke="green" stroke-width="0.35" points="208.72,-182.44 198.25,-184.08 207.46,-189.32 208.72,-182.44"/>
</g>
<!-- &#45;11&#45;&gt;948 -->
<g id="edge54" class="edge">
<title>&#45;11&#45;&gt;948</title>
<path fill="none" stroke="red" stroke-width="0.36" d="M496.09,-241.26C511.06,-234.47 532.43,-222.05 542,-203.52 552.1,-183.98 555.82,-171.14 542,-154.02 511.93,-116.78 367.53,-101.63 299.98,-96.51"/>
<polygon fill="red" stroke="red" stroke-width="0.36" points="300.06,-93.01 289.83,-95.77 299.55,-99.99 300.06,-93.01"/>
</g>
<!-- &#45;12 -->
<g id="node12" class="node">
<title>&#45;12</title>
<polygon fill="lightgray" stroke="black" points="208,-257.52 176,-257.52 176,-239.52 208,-239.52 208,-257.52"/>
<text text-anchor="middle" x="192" y="-246.32" font-family="Times,serif" font-size="9.00">&#45;12</text>
</g>
<!-- &#45;12&#45;&gt;944 -->
<g id="edge55" class="edge">
<title>&#45;12&#45;&gt;944</title>
<path fill="none" stroke="green" stroke-width="0.21" d="M208.07,-242.11C211.02,-241.19 214.09,-240.29 217,-239.52 292.95,-219.53 318.11,-235.15 390,-203.52 391.84,-202.71 393.68,-201.79 395.5,-200.78"/>
<polygon fill="green" stroke="green" stroke-width="0.21" points="397.67,-203.56 404.28,-195.28 393.95,-197.63 397.67,-203.56"/>
</g>
<!-- &#45;12&#45;&gt;945 -->
<g id="edge56" class="edge">
<title>&#45;12&#45;&gt;945</title>
<path fill="none" stroke="green" stroke-width="0.31" d="M208.02,-240.9C234.84,-229.82 289.29,-207.33 324.14,-192.93"/>
<polygon fill="green" stroke="green" stroke-width="0.31" points="325.5,-196.16 333.41,-189.11 322.83,-189.69 325.5,-196.16"/>
</g>
<!-- &#45;12&#45;&gt;946 -->
<g id="edge57" class="edge">
<title>&#45;12&#45;&gt;946</title>
<path fill="none" stroke="green" stroke-width="0.27" d="M208.03,-241.97C210.99,-241.07 214.07,-240.21 217,-239.52 322.04,-215.01 357.09,-244.16 457,-203.52 458.86,-202.76 460.72,-201.88 462.55,-200.91"/>
<polygon fill="green" stroke="green" stroke-width="0.27" points="464.68,-203.71 471.37,-195.49 461.02,-197.74 464.68,-203.71"/>
</g>
<!-- &#45;12&#45;&gt;947 -->
<g id="edge58" class="edge">
<title>&#45;12&#45;&gt;947</title>
<path fill="none" stroke="red" stroke-width="0.38" d="M189.86,-239.48C188.08,-232.75 185.4,-222.68 182.75,-212.7"/>
<polygon fill="red" stroke="red" stroke-width="0.38" points="186.09,-211.66 180.14,-202.9 179.33,-213.46 186.09,-211.66"/>
</g>
<!-- &#45;12&#45;&gt;948 -->
<g id="edge59" class="edge">
<title>&#45;12&#45;&gt;948</title>
<path fill="none" stroke="green" stroke-width="0.5" d="M175.99,-241.65C160.53,-235.03 138.04,-222.62 128,-203.52 117.76,-184.05 115.95,-172.43 128,-154.02 150.51,-119.65 197.6,-104.94 230.24,-98.72"/>
<polygon fill="green" stroke="green" stroke-width="0.5" points="231.02,-102.13 240.28,-96.98 229.83,-95.24 231.02,-102.13"/>
</g>
<!-- &#45;13 -->
<g id="node13" class="node">
<title>&#45;13</title>
<polygon fill="lightgray" stroke="black" points="258,-257.52 226,-257.52 226,-239.52 258,-239.52 258,-257.52"/>
<text text-anchor="middle" x="242" y="-246.32" font-family="Times,serif" font-size="9.00">&#45;13</text>
</g>
<!-- &#45;13&#45;&gt;944 -->
<g id="edge60" class="edge">
<title>&#45;13&#45;&gt;944</title>
<path fill="none" stroke="red" stroke-width="0.2" d="M258.12,-242.3C261.07,-241.36 264.12,-240.4 267,-239.52 321.46,-222.84 338.82,-228.52 390,-203.52 391.81,-202.64 393.62,-201.66 395.42,-200.61"/>
<polygon fill="red" stroke="red" stroke-width="0.2" points="397.63,-203.35 404.15,-194.99 393.84,-197.46 397.63,-203.35"/>
</g>
<!-- &#45;13&#45;&gt;945 -->
<g id="edge61" class="edge">
<title>&#45;13&#45;&gt;945</title>
<path fill="none" stroke="red" stroke-width="0.44" d="M255.52,-239.48C272.92,-229.15 303.6,-210.91 326.5,-197.31"/>
<polygon fill="red" stroke="red" stroke-width="0.44" points="328.35,-200.28 335.15,-192.16 324.77,-194.26 328.35,-200.28"/>
</g>
<!-- &#45;13&#45;&gt;946 -->
<g id="edge62" class="edge">
<title>&#45;13&#45;&gt;946</title>
<path fill="none" stroke="green" stroke-width="0.27" d="M258.05,-242.07C261.01,-241.15 264.08,-240.26 267,-239.52 350.31,-218.38 378.02,-237.43 457,-203.52 458.85,-202.73 460.69,-201.82 462.52,-200.82"/>
<polygon fill="green" stroke="green" stroke-width="0.27" points="464.67,-203.6 471.31,-195.35 460.97,-197.66 464.67,-203.6"/>
</g>
<!-- &#45;13&#45;&gt;947 -->
<g id="edge63" class="edge">
<title>&#45;13&#45;&gt;947</title>
<path fill="none" stroke="green" stroke-width="0.29" d="M233.93,-239.48C225.25,-230.83 211.01,-216.65 198.6,-204.28"/>
<polygon fill="green" stroke="green" stroke-width="0.29" points="200.72,-201.45 191.16,-196.87 195.78,-206.41 200.72,-201.45"/>
</g>
<!-- &#45;13&#45;&gt;948 -->
<g id="edge64" class="edge">
<title>&#45;13&#45;&gt;948</title>
<path fill="none" stroke="red" stroke-width="0.37" d="M225.73,-241.62C198.22,-231.49 145.01,-211.14 140,-203.52 127.91,-185.14 128.27,-172.63 140,-154.02 159.74,-122.72 200.9,-107.46 230.61,-100.27"/>
<polygon fill="red" stroke="red" stroke-width="0.37" points="231.58,-103.64 240.58,-98.05 230.06,-96.8 231.58,-103.64"/>
</g>
<!-- &#45;14 -->
<g id="node14" class="node">
<title>&#45;14</title>
<polygon fill="lightgray" stroke="black" points="308,-257.52 276,-257.52 276,-239.52 308,-239.52 308,-257.52"/>
<text text-anchor="middle" x="292" y="-246.32" font-family="Times,serif" font-size="9.00">&#45;14</text>
</g>
<!-- &#45;14&#45;&gt;944 -->
<g id="edge65" class="edge">
<title>&#45;14&#45;&gt;944</title>
<path fill="none" stroke="green" stroke-width="0.41" d="M308.1,-241.46C327.93,-233.73 362.37,-219.45 390,-203.52 391.74,-202.52 393.51,-201.44 395.27,-200.32"/>
<polygon fill="green" stroke="green" stroke-width="0.41" points="397.55,-203 403.89,-194.51 393.64,-197.2 397.55,-203"/>
</g>
<!-- &#45;14&#45;&gt;945 -->
<g id="edge66" class="edge">
<title>&#45;14&#45;&gt;945</title>
<path fill="none" stroke="red" stroke-width="0.42" d="M299.59,-239.48C307.65,-230.95 320.8,-217.03 332.38,-204.78"/>
<polygon fill="red" stroke="red" stroke-width="0.42" points="335,-207.1 339.32,-197.43 329.91,-202.29 335,-207.1"/>
</g>
<!-- &#45;14&#45;&gt;946 -->
<g id="edge67" class="edge">
<title>&#45;14&#45;&gt;946</title>
<path fill="none" stroke="green" stroke-width="0.17" d="M308.1,-242.22C311.05,-241.29 314.11,-240.36 317,-239.52 378.73,-221.72 398.81,-230.76 457,-203.52 458.82,-202.67 460.65,-201.71 462.45,-200.68"/>
<polygon fill="green" stroke="green" stroke-width="0.17" points="464.65,-203.44 471.2,-195.11 460.89,-197.53 464.65,-203.44"/>
</g>
<!-- &#45;14&#45;&gt;947 -->
<g id="edge68" class="edge">
<title>&#45;14&#45;&gt;947</title>
<path fill="none" stroke="green" stroke-width="0.47" d="M277.05,-239.42C261.09,-230.72 235.11,-216.4 213,-203.52 209.96,-201.75 206.81,-199.88 203.67,-198"/>
<polygon fill="green" stroke="green" stroke-width="0.47" points="205.33,-194.92 194.96,-192.74 201.71,-200.91 205.33,-194.92"/>
</g>
<!-- &#45;14&#45;&gt;948 -->
<g id="edge69" class="edge">
<title>&#45;14&#45;&gt;948</title>
<path fill="none" stroke="green" stroke-width="0.24" d="M280.47,-239.26C270.53,-231.37 256.89,-218.48 251,-203.52 241.22,-178.68 246.27,-148.44 252.89,-126.08"/>
<polygon fill="green" stroke="green" stroke-width="0.24" points="256.27,-127 255.99,-116.41 249.6,-124.86 256.27,-127"/>
</g>
<!-- &#45;15 -->
<g id="node15" class="node">
<title>&#45;15</title>
<polygon fill="lightgray" stroke="black" points="358,-257.52 326,-257.52 326,-239.52 358,-239.52 358,-257.52"/>
<text text-anchor="middle" x="342" y="-246.32" font-family="Times,serif" font-size="9.00">&#45;15</text>
</g>
<!-- &#45;15&#45;&gt;944 -->
<g id="edge70" class="edge">
<title>&#45;15&#45;&gt;944</title>
<path fill="none" stroke="red" stroke-width="0.48" d="M351.61,-239.48C362.67,-230.23 381.31,-214.65 396.76,-201.72"/>
<polygon fill="red" stroke="red" stroke-width="0.48" points="399.07,-204.35 404.5,-195.25 394.58,-198.98 399.07,-204.35"/>
</g>
<!-- &#45;15&#45;&gt;945 -->
<g id="edge71" class="edge">
<title>&#45;15&#45;&gt;945</title>
<path fill="none" stroke="red" stroke-width="0.38" d="M343.66,-239.48C345.03,-232.88 347.06,-223.04 349.08,-213.25"/>
<polygon fill="red" stroke="red" stroke-width="0.38" points="352.56,-213.7 351.16,-203.2 345.71,-212.28 352.56,-213.7"/>
</g>
<!-- &#45;15&#45;&gt;946 -->
<g id="edge72" class="edge">
<title>&#45;15&#45;&gt;946</title>
<path fill="none" stroke="red" stroke-width="0.44" d="M358.29,-241.88C385.58,-232.32 439.31,-213.06 457,-203.52 458.77,-202.57 460.56,-201.53 462.33,-200.44"/>
<polygon fill="red" stroke="red" stroke-width="0.44" points="464.59,-203.14 471,-194.71 460.73,-197.3 464.59,-203.14"/>
</g>
<!-- &#45;15&#45;&gt;947 -->
<g id="edge73" class="edge">
<title>&#45;15&#45;&gt;947</title>
<path fill="none" stroke="green" stroke-width="0.17" d="M325.89,-241.03C298.42,-229.95 242,-207.19 206.19,-192.75"/>
<polygon fill="green" stroke="green" stroke-width="0.17" points="207.26,-189.41 196.68,-188.92 204.64,-195.9 207.26,-189.41"/>
</g>
<!-- &#45;15&#45;&gt;948 -->
<g id="edge74" class="edge">
<title>&#45;15&#45;&gt;948</title>
<path fill="none" stroke="red" stroke-width="0.13" d="M327.55,-239.32C315.37,-231.65 298.46,-219.05 289,-203.52 275.13,-180.76 269.24,-151 266.75,-128.29"/>
<polygon fill="red" stroke="red" stroke-width="0.13" points="270.21,-127.72 265.81,-118.09 263.24,-128.37 270.21,-127.72"/>
</g>
<!-- 0 -->
<g id="node16" class="node">
<title>0</title>
<ellipse fill="lightblue" stroke="black" cx="362" cy="-16.26" rx="16.03" ry="16.03"/>
<text text-anchor="middle" x="362" y="-14.06" font-family="Times,serif" font-size="9.00">0</text>
</g>
<!-- 1 -->
<g id="node17" class="node">
<title>1</title>
<ellipse fill="lightblue" stroke="black" cx="311" cy="-16.26" rx="16.03" ry="16.03"/>
<text text-anchor="middle" x="311" y="-14.06" font-family="Times,serif" font-size="9.00">1</text>
</g>
<!-- 944&#45;&gt;0 -->
<g id="edge75" class="edge">
<title>944&#45;&gt;0</title>
<path fill="none" stroke="red" stroke-width="0.11" d="M423.67,-153.63C423.41,-130.71 420.64,-95.8 408,-68.53 401.95,-55.47 391.43,-43.37 381.97,-34.2"/>
<polygon fill="red" stroke="red" stroke-width="0.11" points="384.13,-31.43 374.4,-27.24 379.39,-36.58 384.13,-31.43"/>
</g>
<!-- 944&#45;&gt;1 -->
<g id="edge76" class="edge">
<title>944&#45;&gt;1</title>
<path fill="none" stroke="green" stroke-width="0.23" d="M409.27,-158.09C388.11,-127.77 347.7,-69.86 325.87,-38.58"/>
<polygon fill="green" stroke="green" stroke-width="0.23" points="328.58,-36.34 319.99,-30.14 322.84,-40.35 328.58,-36.34"/>
</g>
<!-- 945&#45;&gt;0 -->
<g id="edge77" class="edge">
<title>945&#45;&gt;0</title>
<path fill="none" stroke="green" stroke-width="0.15" d="M356.9,-153.74C358.01,-123.99 359.9,-73.52 361.04,-43"/>
<polygon fill="green" stroke="green" stroke-width="0.15" points="364.55,-42.85 361.42,-32.73 357.55,-42.59 364.55,-42.85"/>
</g>
<!-- 945&#45;&gt;1 -->
<g id="edge78" class="edge">
<title>945&#45;&gt;1</title>
<path fill="none" stroke="green" stroke-width="0.15" d="M349.55,-154.78C341.16,-124.84 326.55,-72.74 317.93,-41.99"/>
<polygon fill="green" stroke="green" stroke-width="0.15" points="321.22,-40.75 315.15,-32.07 314.48,-42.64 321.22,-40.75"/>
</g>
<!-- 945&#45;&gt;948 -->
<g id="edge85" class="edge">
<title>945&#45;&gt;948</title>
<path fill="none" stroke="green" stroke-width="0.15" d="M338.02,-161.28C324.44,-148.81 305.61,-131.53 290.47,-117.65"/>
<polygon fill="green" stroke="green" stroke-width="0.15" points="292.68,-114.92 282.94,-110.74 287.94,-120.08 292.68,-114.92"/>
</g>
<!-- 946&#45;&gt;0 -->
<g id="edge79" class="edge">
<title>946&#45;&gt;0</title>
<path fill="none" stroke="red" stroke-width="0.5" d="M480.61,-155.64C470.04,-132.35 451.26,-95.41 428,-68.53 415.31,-53.86 397.87,-40.53 384.1,-31.14"/>
<polygon fill="red" stroke="red" stroke-width="0.5" points="385.95,-28.16 375.68,-25.56 382.09,-34 385.95,-28.16"/>
</g>
<!-- 946&#45;&gt;1 -->
<g id="edge80" class="edge">
<title>946&#45;&gt;1</title>
<path fill="none" stroke="green" stroke-width="0.36" d="M472.94,-160.14C451.28,-138.02 412.46,-99.28 377,-68.53 362.43,-55.89 345.21,-42.56 332,-32.66"/>
<polygon fill="green" stroke="green" stroke-width="0.36" points="334.09,-29.85 323.98,-26.69 329.91,-35.47 334.09,-29.85"/>
</g>
<!-- 947&#45;&gt;0 -->
<g id="edge81" class="edge">
<title>947&#45;&gt;0</title>
<path fill="none" stroke="green" stroke-width="0.31" stroke-dasharray="1,5" d="M183.25,-155.55C195.38,-127.3 216.81,-80.73 231,-68.53 268.41,-36.37 291.17,-53.12 336,-32.53 337.18,-31.99 338.37,-31.41 339.56,-30.8"/>
<polygon fill="green" stroke="green" stroke-width="0.31" points="341.44,-33.76 348.51,-25.87 338.06,-27.63 341.44,-33.76"/>
</g>
<!-- 947&#45;&gt;1 -->
<g id="edge82" class="edge">
<title>947&#45;&gt;1</title>
<path fill="none" stroke="red" stroke-width="0.1" d="M173.33,-153.84C173.91,-129.77 178.33,-92.83 198,-68.53 219.92,-41.45 259.24,-28.13 285.23,-21.98"/>
<polygon fill="red" stroke="red" stroke-width="0.1" points="286.1,-25.38 295.13,-19.84 284.62,-18.54 286.1,-25.38"/>
</g>
<!-- 948&#45;&gt;0 -->
<g id="edge83" class="edge">
<title>948&#45;&gt;0</title>
<path fill="none" stroke="green" stroke-width="0.19" d="M284.16,-77.46C300.62,-64.73 324.29,-46.42 341.2,-33.34"/>
<polygon fill="green" stroke="green" stroke-width="0.19" points="343.59,-35.93 349.36,-27.04 339.31,-30.39 343.59,-35.93"/>
</g>
<!-- 948&#45;&gt;1 -->
<g id="edge84" class="edge">
<title>948&#45;&gt;1</title>
<path fill="none" stroke="green" stroke-width="0.16" d="M277.57,-71.78C283.76,-61.68 291.23,-49.5 297.54,-39.21"/>
<polygon fill="green" stroke="green" stroke-width="0.16" points="300.69,-40.77 302.93,-30.42 294.72,-37.11 300.69,-40.77"/>
</g>
</g>
</svg>
