<?xml version="1.0" encoding="UTF-8" standalone="no"?>
<!DOCTYPE svg PUBLIC "-//W3C//DTD SVG 1.1//EN"
 "http://www.w3.org/Graphics/SVG/1.1/DTD/svg11.dtd">
<!-- Generated by graphviz version 2.43.0 (0)
 -->
<!-- Title: %3 Pages: 1 -->
<svg width="392pt" height="180pt"
 viewBox="0.00 0.00 392.50 180.02" xmlns="http://www.w3.org/2000/svg" xmlns:xlink="http://www.w3.org/1999/xlink">
<g id="graph0" class="graph" transform="scale(1 1) rotate(0) translate(4 176.02)">
<title>%3</title>
<polygon fill="white" stroke="transparent" points="-4,4 -4,-176.02 388.5,-176.02 388.5,4 -4,4"/>
<!-- &#45;1 -->
<g id="node1" class="node">
<title>&#45;1</title>
<polygon fill="lightgray" stroke="black" points="160.75,-172.02 134.75,-172.02 134.75,-154.02 160.75,-154.02 160.75,-172.02"/>
<text text-anchor="middle" x="147.75" y="-160.82" font-family="Times,serif" font-size="9.00">&#45;1</text>
</g>
<!-- 728 -->
<g id="node6" class="node">
<title>728</title>
<ellipse fill="white" stroke="black" cx="24.75" cy="-93.28" rx="25" ry="25"/>
<text text-anchor="middle" x="24.75" y="-91.08" font-family="Times,serif" font-size="9.00">728</text>
</g>
<!-- &#45;1&#45;&gt;728 -->
<g id="edge1" class="edge">
<title>&#45;1&#45;&gt;728</title>
<path fill="none" stroke="red" stroke-width="0.13" d="M134.57,-156.42C116.7,-148.65 84.02,-133.74 57.75,-118.02 56.07,-117.02 54.36,-115.95 52.66,-114.85"/>
<polygon fill="red" stroke="red" stroke-width="0.13" points="54.51,-111.88 44.27,-109.15 50.58,-117.67 54.51,-111.88"/>
</g>
<!-- 729 -->
<g id="node7" class="node">
<title>729</title>
<ellipse fill="white" stroke="black" cx="91.75" cy="-93.28" rx="25" ry="25"/>
<text text-anchor="middle" x="91.75" y="-91.08" font-family="Times,serif" font-size="9.00">729</text>
</g>
<!-- &#45;1&#45;&gt;729 -->
<g id="edge2" class="edge">
<title>&#45;1&#45;&gt;729</title>
<path fill="none" stroke="red" stroke-width="0.17" d="M141.1,-153.99C134.33,-145.78 123.43,-132.61 113.6,-120.72"/>
<polygon fill="red" stroke="red" stroke-width="0.17" points="116.1,-118.24 107.03,-112.77 110.71,-122.7 116.1,-118.24"/>
</g>
<!-- 730 -->
<g id="node8" class="node">
<title>730</title>
<ellipse fill="white" stroke="black" cx="158.75" cy="-93.28" rx="25" ry="25"/>
<text text-anchor="middle" x="158.75" y="-91.08" font-family="Times,serif" font-size="9.00">730</text>
</g>
<!-- &#45;1&#45;&gt;730 -->
<g id="edge3" class="edge">
<title>&#45;1&#45;&gt;730</title>
<path fill="none" stroke="red" stroke-width="0.19" d="M149.05,-153.99C150.12,-147.43 151.7,-137.7 153.28,-127.98"/>
<polygon fill="red" stroke="red" stroke-width="0.19" points="156.75,-128.43 154.9,-118 149.84,-127.31 156.75,-128.43"/>
</g>
<!-- 731 -->
<g id="node9" class="node">
<title>731</title>
<ellipse fill="white" stroke="black" cx="225.75" cy="-93.28" rx="25" ry="25"/>
<text text-anchor="middle" x="225.75" y="-91.08" font-family="Times,serif" font-size="9.00">731</text>
</g>
<!-- &#45;1&#45;&gt;731 -->
<g id="edge4" class="edge">
<title>&#45;1&#45;&gt;731</title>
<path fill="none" stroke="red" stroke-width="0.29" d="M157,-153.99C167.42,-144.94 184.81,-129.83 199.5,-117.08"/>
<polygon fill="red" stroke="red" stroke-width="0.29" points="202.06,-119.49 207.31,-110.29 197.47,-114.2 202.06,-119.49"/>
</g>
<!-- 732 -->
<g id="node10" class="node">
<title>732</title>
<ellipse fill="white" stroke="black" cx="292.75" cy="-93.28" rx="25" ry="25"/>
<text text-anchor="middle" x="292.75" y="-91.08" font-family="Times,serif" font-size="9.00">732</text>
</g>
<!-- &#45;1&#45;&gt;732 -->
<g id="edge5" class="edge">
<title>&#45;1&#45;&gt;732</title>
<path fill="none" stroke="red" stroke-width="0.46" d="M160.99,-157.03C188.64,-146.59 250.67,-122.97 259.75,-118.02 261.52,-117.06 263.3,-116.02 265.07,-114.93"/>
<polygon fill="red" stroke="red" stroke-width="0.46" points="267.33,-117.62 273.73,-109.18 263.46,-111.79 267.33,-117.62"/>
</g>
<!-- 733 -->
<g id="node11" class="node">
<title>733</title>
<ellipse fill="white" stroke="black" cx="359.75" cy="-93.28" rx="25" ry="25"/>
<text text-anchor="middle" x="359.75" y="-91.08" font-family="Times,serif" font-size="9.00">733</text>
</g>
<!-- &#45;1&#45;&gt;733 -->
<g id="edge6" class="edge">
<title>&#45;1&#45;&gt;733</title>
<path fill="none" stroke="green" stroke-width="0.25" d="M161.16,-156.85C163.97,-155.85 166.94,-154.85 169.75,-154.02 238.41,-133.75 261.52,-147.52 326.75,-118.02 328.58,-117.2 330.42,-116.26 332.23,-115.24"/>
<polygon fill="green" stroke="green" stroke-width="0.25" points="334.41,-118.01 341,-109.71 330.67,-112.09 334.41,-118.01"/>
</g>
<!-- &#45;2 -->
<g id="node2" class="node">
<title>&#45;2</title>
<polygon fill="lightgray" stroke="black" points="204.75,-172.02 178.75,-172.02 178.75,-154.02 204.75,-154.02 204.75,-172.02"/>
<text text-anchor="middle" x="191.75" y="-160.82" font-family="Times,serif" font-size="9.00">&#45;2</text>
</g>
<!-- &#45;2&#45;&gt;728 -->
<g id="edge7" class="edge">
<title>&#45;2&#45;&gt;728</title>
<path fill="none" stroke="green" stroke-width="0.21" d="M178.75,-157.2C175.8,-156.14 172.67,-155.02 169.75,-154.02 120.28,-137.09 104.43,-141.58 57.75,-118.02 55.95,-117.12 54.15,-116.12 52.36,-115.06"/>
<polygon fill="green" stroke="green" stroke-width="0.21" points="53.94,-111.91 43.65,-109.4 50.13,-117.78 53.94,-111.91"/>
</g>
<!-- &#45;2&#45;&gt;729 -->
<g id="edge8" class="edge">
<title>&#45;2&#45;&gt;729</title>
<path fill="none" stroke="green" stroke-width="0.28" d="M178.8,-153.75C165.22,-145.03 143.32,-130.8 124.75,-118.02 123.13,-116.91 121.48,-115.77 119.82,-114.6"/>
<polygon fill="green" stroke="green" stroke-width="0.28" points="121.73,-111.66 111.54,-108.73 117.68,-117.37 121.73,-111.66"/>
</g>
<!-- &#45;2&#45;&gt;730 -->
<g id="edge9" class="edge">
<title>&#45;2&#45;&gt;730</title>
<path fill="none" stroke="red" stroke-width="0.31" d="M187.83,-153.99C184.32,-146.78 178.94,-135.72 173.75,-125.07"/>
<polygon fill="red" stroke="red" stroke-width="0.31" points="176.82,-123.38 169.29,-115.93 170.53,-126.45 176.82,-123.38"/>
</g>
<!-- &#45;2&#45;&gt;731 -->
<g id="edge10" class="edge">
<title>&#45;2&#45;&gt;731</title>
<path fill="none" stroke="red" stroke-width="0.22" d="M195.78,-153.99C199.43,-146.72 205.03,-135.55 210.41,-124.83"/>
<polygon fill="red" stroke="red" stroke-width="0.22" points="213.67,-126.14 215.03,-115.63 207.42,-123 213.67,-126.14"/>
</g>
<!-- &#45;2&#45;&gt;732 -->
<g id="edge11" class="edge">
<title>&#45;2&#45;&gt;732</title>
<path fill="none" stroke="green" stroke-width="0.11" d="M204.66,-153.94C218.43,-145.25 240.82,-130.95 259.75,-118.02 261.37,-116.92 263.02,-115.78 264.69,-114.61"/>
<polygon fill="green" stroke="green" stroke-width="0.11" points="266.83,-117.39 272.97,-108.75 262.78,-111.67 266.83,-117.39"/>
</g>
<!-- &#45;2&#45;&gt;733 -->
<g id="edge12" class="edge">
<title>&#45;2&#45;&gt;733</title>
<path fill="none" stroke="red" stroke-width="0.27" d="M205.21,-157.03C208.03,-156.01 210.98,-154.97 213.75,-154.02 263.64,-137.01 279.66,-141.71 326.75,-118.02 328.55,-117.12 330.35,-116.12 332.14,-115.06"/>
<polygon fill="red" stroke="red" stroke-width="0.27" points="334.37,-117.79 340.85,-109.41 330.56,-111.92 334.37,-117.79"/>
</g>
<!-- &#45;3 -->
<g id="node3" class="node">
<title>&#45;3</title>
<polygon fill="lightgray" stroke="black" points="248.75,-172.02 222.75,-172.02 222.75,-154.02 248.75,-154.02 248.75,-172.02"/>
<text text-anchor="middle" x="235.75" y="-160.82" font-family="Times,serif" font-size="9.00">&#45;3</text>
</g>
<!-- &#45;3&#45;&gt;728 -->
<g id="edge13" class="edge">
<title>&#45;3&#45;&gt;728</title>
<path fill="none" stroke="red" stroke-width="0.37" d="M222.34,-156.85C219.52,-155.85 216.55,-154.85 213.75,-154.02 145.52,-133.83 122.57,-147.38 57.75,-118.02 55.92,-117.19 54.08,-116.25 52.27,-115.24"/>
<polygon fill="red" stroke="red" stroke-width="0.37" points="53.83,-112.08 43.5,-109.71 50.09,-118 53.83,-112.08"/>
</g>
<!-- &#45;3&#45;&gt;729 -->
<g id="edge14" class="edge">
<title>&#45;3&#45;&gt;729</title>
<path fill="none" stroke="green" stroke-width="0.5" d="M222.62,-157.03C195.23,-146.58 133.75,-122.95 124.75,-118.02 122.98,-117.06 121.2,-116.01 119.43,-114.92"/>
<polygon fill="green" stroke="green" stroke-width="0.5" points="121.04,-111.78 110.77,-109.17 117.17,-117.62 121.04,-111.78"/>
</g>
<!-- &#45;3&#45;&gt;730 -->
<g id="edge15" class="edge">
<title>&#45;3&#45;&gt;730</title>
<path fill="none" stroke="green" stroke-width="0.19" d="M226.61,-153.99C216.33,-144.94 199.16,-129.83 184.66,-117.08"/>
<polygon fill="green" stroke="green" stroke-width="0.19" points="186.77,-114.26 176.95,-110.29 182.14,-119.52 186.77,-114.26"/>
</g>
<!-- &#45;3&#45;&gt;731 -->
<g id="edge16" class="edge">
<title>&#45;3&#45;&gt;731</title>
<path fill="none" stroke="green" stroke-width="0.36" d="M234.56,-153.99C233.59,-147.43 232.16,-137.7 230.72,-127.98"/>
<polygon fill="green" stroke="green" stroke-width="0.36" points="234.17,-127.38 229.25,-118 227.25,-128.4 234.17,-127.38"/>
</g>
<!-- &#45;3&#45;&gt;732 -->
<g id="edge17" class="edge">
<title>&#45;3&#45;&gt;732</title>
<path fill="none" stroke="green" stroke-width="0.15" d="M242.51,-153.99C249.41,-145.78 260.5,-132.61 270.5,-120.72"/>
<polygon fill="green" stroke="green" stroke-width="0.15" points="273.43,-122.67 277.19,-112.77 268.08,-118.16 273.43,-122.67"/>
</g>
<!-- &#45;3&#45;&gt;733 -->
<g id="edge18" class="edge">
<title>&#45;3&#45;&gt;733</title>
<path fill="none" stroke="red" stroke-width="0.5" d="M248.77,-156.58C266.78,-148.87 300.06,-133.92 326.75,-118.02 328.43,-117.02 330.14,-115.96 331.84,-114.86"/>
<polygon fill="red" stroke="red" stroke-width="0.5" points="333.92,-117.68 340.23,-109.17 329.99,-111.88 333.92,-117.68"/>
</g>
<!-- 0 -->
<g id="node4" class="node">
<title>0</title>
<ellipse fill="lightblue" stroke="black" cx="166.75" cy="-16.26" rx="16.03" ry="16.03"/>
<text text-anchor="middle" x="166.75" y="-14.06" font-family="Times,serif" font-size="9.00">0</text>
</g>
<!-- 1 -->
<g id="node5" class="node">
<title>1</title>
<ellipse fill="lightblue" stroke="black" cx="221.75" cy="-16.26" rx="16.03" ry="16.03"/>
<text text-anchor="middle" x="221.75" y="-14.06" font-family="Times,serif" font-size="9.00">1</text>
</g>
<!-- 728&#45;&gt;0 -->
<g id="edge19" class="edge">
<title>728&#45;&gt;0</title>
<path fill="none" stroke="red" stroke-width="0.43" d="M44.24,-77.35C48.59,-74.28 53.25,-71.18 57.75,-68.53 85.73,-52.07 119.85,-36.72 142.38,-27.19"/>
<polygon fill="red" stroke="red" stroke-width="0.43" points="143.97,-30.32 151.85,-23.24 141.28,-23.86 143.97,-30.32"/>
</g>
<!-- 728&#45;&gt;1 -->
<g id="edge20" class="edge">
<title>728&#45;&gt;1</title>
<path fill="none" stroke="green" stroke-width="0.25" d="M43.56,-76.97C48.03,-73.85 52.9,-70.83 57.75,-68.53 113.46,-42.09 134.18,-54.63 191.75,-32.53 194.14,-31.61 196.58,-30.56 199,-29.45"/>
<polygon fill="green" stroke="green" stroke-width="0.25" points="200.56,-32.59 207.98,-25.03 197.47,-26.31 200.56,-32.59"/>
</g>
<!-- 729&#45;&gt;0 -->
<g id="edge21" class="edge">
<title>729&#45;&gt;0</title>
<path fill="none" stroke="green" stroke-width="0.17" d="M108.77,-75.25C120.54,-63.48 136.19,-47.83 148.27,-35.75"/>
<polygon fill="green" stroke="green" stroke-width="0.17" points="151.01,-37.95 155.61,-28.4 146.06,-33 151.01,-37.95"/>
</g>
<!-- 729&#45;&gt;1 -->
<g id="edge22" class="edge">
<title>729&#45;&gt;1</title>
<path fill="none" stroke="red" stroke-width="0.35" d="M111.34,-77.51C115.68,-74.42 120.31,-71.28 124.75,-68.53 138.04,-60.29 174.19,-41.53 198.4,-29.13"/>
<polygon fill="red" stroke="red" stroke-width="0.35" points="200.02,-32.24 207.33,-24.57 196.84,-26 200.02,-32.24"/>
</g>
<!-- 730&#45;&gt;0 -->
<g id="edge23" class="edge">
<title>730&#45;&gt;0</title>
<path fill="none" stroke="red" stroke-width="0.19" d="M161.28,-68.54C162.16,-60.33 163.14,-51.1 164.03,-42.76"/>
<polygon fill="red" stroke="red" stroke-width="0.19" points="167.51,-43.12 165.09,-32.81 160.55,-42.38 167.51,-43.12"/>
</g>
<!-- 730&#45;&gt;1 -->
<g id="edge24" class="edge">
<title>730&#45;&gt;1</title>
<path fill="none" stroke="green" stroke-width="0.13" d="M174.32,-73.73C183.7,-62.56 195.65,-48.34 205.2,-36.97"/>
<polygon fill="green" stroke="green" stroke-width="0.13" points="207.91,-39.18 211.66,-29.27 202.55,-34.68 207.91,-39.18"/>
</g>
<!-- 731&#45;&gt;0 -->
<g id="edge25" class="edge">
<title>731&#45;&gt;0</title>
<path fill="none" stroke="green" stroke-width="0.34" d="M210.86,-73.35C202.26,-62.42 191.45,-48.67 182.69,-37.53"/>
<polygon fill="green" stroke="green" stroke-width="0.34" points="185.38,-35.29 176.45,-29.6 179.88,-39.62 185.38,-35.29"/>
</g>
<!-- 731&#45;&gt;1 -->
<g id="edge26" class="edge">
<title>731&#45;&gt;1</title>
<path fill="none" stroke="green" stroke-width="0.26" d="M224.48,-68.54C224.05,-60.42 223.56,-51.31 223.12,-43.04"/>
<polygon fill="green" stroke="green" stroke-width="0.26" points="226.61,-42.61 222.58,-32.81 219.62,-42.98 226.61,-42.61"/>
</g>
<!-- 732&#45;&gt;0 -->
<g id="edge27" class="edge">
<title>732&#45;&gt;0</title>
<path fill="none" stroke="red" stroke-width="0.3" d="M273.12,-77.57C268.78,-74.48 264.16,-71.32 259.75,-68.53 236.66,-53.93 209.14,-39.06 190.06,-29.12"/>
<polygon fill="red" stroke="red" stroke-width="0.3" points="191.41,-25.87 180.92,-24.4 188.2,-32.09 191.41,-25.87"/>
</g>
<!-- 732&#45;&gt;1 -->
<g id="edge28" class="edge">
<title>732&#45;&gt;1</title>
<path fill="none" stroke="green" stroke-width="0.5" d="M275.92,-74.5C264.99,-62.95 250.77,-47.92 239.63,-36.16"/>
<polygon fill="green" stroke="green" stroke-width="0.5" points="241.91,-33.48 232.5,-28.62 236.83,-38.29 241.91,-33.48"/>
</g>
<!-- 733&#45;&gt;0 -->
<g id="edge29" class="edge">
<title>733&#45;&gt;0</title>
<path fill="none" stroke="green" stroke-width="0.22" d="M340.92,-77C336.46,-73.88 331.59,-70.85 326.75,-68.53 272.69,-42.61 252.64,-54.23 196.75,-32.53 194.37,-31.6 191.92,-30.55 189.5,-29.43"/>
<polygon fill="green" stroke="green" stroke-width="0.22" points="191.04,-26.29 180.52,-25 187.94,-32.57 191.04,-26.29"/>
</g>
<!-- 733&#45;&gt;1 -->
<g id="edge30" class="edge">
<title>733&#45;&gt;1</title>
<path fill="none" stroke="red" stroke-width="0.22" d="M340.22,-77.4C335.88,-74.32 331.23,-71.21 326.75,-68.53 300,-52.53 267.53,-37.27 245.85,-27.62"/>
<polygon fill="red" stroke="red" stroke-width="0.22" points="246.98,-24.3 236.42,-23.48 244.17,-30.71 246.98,-24.3"/>
</g>
</g>
</svg>
