<?xml version="1.0" encoding="UTF-8" standalone="no"?>
<!DOCTYPE svg PUBLIC "-//W3C//DTD SVG 1.1//EN"
 "http://www.w3.org/Graphics/SVG/1.1/DTD/svg11.dtd">
<!-- Generated by graphviz version 2.40.1 (20161225.0304)
 -->
<!-- Title: %3 Pages: 1 -->
<svg width="420pt" height="249pt"
 viewBox="0.00 0.00 420.22 248.55" xmlns="http://www.w3.org/2000/svg" xmlns:xlink="http://www.w3.org/1999/xlink">
<g id="graph0" class="graph" transform="scale(1 1) rotate(0) translate(4 244.5513)">
<title>%3</title>
<polygon fill="#ffffff" stroke="transparent" points="-4,4 -4,-244.5513 416.2163,-244.5513 416.2163,4 -4,4"/>
<!-- &#45;1 -->
<g id="node1" class="node">
<title>&#45;1</title>
<polygon fill="#d3d3d3" stroke="#000000" points="256.2132,-240.5513 232.2132,-240.5513 232.2132,-222.5513 256.2132,-222.5513 256.2132,-240.5513"/>
<text text-anchor="middle" x="244.2132" y="-229.3513" font-family="Times,serif" font-size="9.00" fill="#000000">&#45;1</text>
</g>
<!-- 218 -->
<g id="node6" class="node">
<title>218</title>
<ellipse fill="#ffffff" stroke="#000000" cx="184.2132" cy="-165.3381" rx="21.4286" ry="21.4286"/>
<text text-anchor="middle" x="184.2132" y="-163.1381" font-family="Times,serif" font-size="9.00" fill="#000000">218</text>
</g>
<!-- &#45;1&#45;&gt;218 -->
<g id="edge1" class="edge">
<title>&#45;1&#45;&gt;218</title>
<path fill="none" stroke="#00ff00" stroke-width=".2636" d="M235.8705,-222.3446C228.0217,-213.6831 215.9382,-200.3483 205.4309,-188.753"/>
<polygon fill="#00ff00" stroke="#00ff00" stroke-width=".2636" points="207.7884,-186.1422 198.4799,-181.0822 202.6012,-190.8426 207.7884,-186.1422"/>
</g>
<!-- 219 -->
<g id="node7" class="node">
<title>219</title>
<ellipse fill="#ffffff" stroke="#000000" cx="21.2132" cy="-86.9117" rx="21.4286" ry="21.4286"/>
<text text-anchor="middle" x="21.2132" y="-84.7117" font-family="Times,serif" font-size="9.00" fill="#000000">219</text>
</g>
<!-- &#45;1&#45;&gt;219 -->
<g id="edge2" class="edge">
<title>&#45;1&#45;&gt;219</title>
<path fill="none" stroke="#00ff00" stroke-width=".3083" d="M232.2001,-226.3771C214.5923,-218.6099 180.9661,-203.0757 154.2132,-186.5513 114.3444,-161.9257 71.5281,-128.4391 45.5533,-107.2482"/>
<polygon fill="#00ff00" stroke="#00ff00" stroke-width=".3083" points="47.6855,-104.4702 37.7367,-100.8269 43.242,-109.8791 47.6855,-104.4702"/>
</g>
<!-- 220 -->
<g id="node8" class="node">
<title>220</title>
<ellipse fill="#ffffff" stroke="#000000" cx="293.2132" cy="-86.9117" rx="21.4286" ry="21.4286"/>
<text text-anchor="middle" x="293.2132" y="-84.7117" font-family="Times,serif" font-size="9.00" fill="#000000">220</text>
</g>
<!-- &#45;1&#45;&gt;220 -->
<g id="edge3" class="edge">
<title>&#45;1&#45;&gt;220</title>
<path fill="none" stroke="#ff0000" stroke-width=".4295" d="M251.8317,-222.5225C258.7413,-213.8534 268.6686,-200.1089 274.2132,-186.5513 283.1411,-164.721 287.9278,-138.461 290.4628,-118.3812"/>
<polygon fill="#ff0000" stroke="#ff0000" stroke-width=".4295" points="293.9664,-118.5474 291.6223,-108.2152 287.0115,-117.7541 293.9664,-118.5474"/>
</g>
<!-- 221 -->
<g id="node9" class="node">
<title>221</title>
<ellipse fill="#ffffff" stroke="#000000" cx="342.2132" cy="-165.3381" rx="21.4286" ry="21.4286"/>
<text text-anchor="middle" x="342.2132" y="-163.1381" font-family="Times,serif" font-size="9.00" fill="#000000">221</text>
</g>
<!-- &#45;1&#45;&gt;221 -->
<g id="edge4" class="edge">
<title>&#45;1&#45;&gt;221</title>
<path fill="none" stroke="#ff0000" stroke-width=".3527" d="M256.2299,-223.4323C271.0337,-213.4301 296.6049,-196.1531 316.0236,-183.033"/>
<polygon fill="#ff0000" stroke="#ff0000" stroke-width=".3527" points="318.1254,-185.837 324.4519,-177.3384 314.2065,-180.0367 318.1254,-185.837"/>
</g>
<!-- 222 -->
<g id="node10" class="node">
<title>222</title>
<ellipse fill="#ffffff" stroke="#000000" cx="244.2132" cy="-165.3381" rx="21.4286" ry="21.4286"/>
<text text-anchor="middle" x="244.2132" y="-163.1381" font-family="Times,serif" font-size="9.00" fill="#000000">222</text>
</g>
<!-- &#45;1&#45;&gt;222 -->
<g id="edge5" class="edge">
<title>&#45;1&#45;&gt;222</title>
<path fill="none" stroke="#ff0000" stroke-width=".3213" d="M244.2132,-222.3446C244.2132,-215.6836 244.2132,-206.2587 244.2132,-196.9866"/>
<polygon fill="#ff0000" stroke="#ff0000" stroke-width=".3213" points="247.7133,-196.7384 244.2132,-186.7385 240.7133,-196.7385 247.7133,-196.7384"/>
</g>
<!-- &#45;2 -->
<g id="node2" class="node">
<title>&#45;2</title>
<polygon fill="#d3d3d3" stroke="#000000" points="172.2132,-240.5513 148.2132,-240.5513 148.2132,-222.5513 172.2132,-222.5513 172.2132,-240.5513"/>
<text text-anchor="middle" x="160.2132" y="-229.3513" font-family="Times,serif" font-size="9.00" fill="#000000">&#45;2</text>
</g>
<!-- &#45;2&#45;&gt;218 -->
<g id="edge6" class="edge">
<title>&#45;2&#45;&gt;218</title>
<path fill="none" stroke="#ff0000" stroke-width=".1624" d="M163.5503,-222.3446C166.1392,-215.2022 169.8799,-204.882 173.4691,-194.9799"/>
<polygon fill="#ff0000" stroke="#ff0000" stroke-width=".1624" points="176.8422,-195.9444 176.9595,-185.3502 170.2612,-193.559 176.8422,-195.9444"/>
</g>
<!-- &#45;2&#45;&gt;219 -->
<g id="edge7" class="edge">
<title>&#45;2&#45;&gt;219</title>
<path fill="none" stroke="#00ff00" stroke-width=".2722" d="M148.0544,-230.4277C124.4954,-227.5786 72.5474,-217.9005 45.2132,-186.5513 28.833,-167.7651 23.1929,-139.7051 21.4437,-118.1448"/>
<polygon fill="#00ff00" stroke="#00ff00" stroke-width=".2722" points="24.9374,-117.9339 20.8675,-108.1519 17.9491,-118.3369 24.9374,-117.9339"/>
</g>
<!-- &#45;2&#45;&gt;220 -->
<g id="edge8" class="edge">
<title>&#45;2&#45;&gt;220</title>
<path fill="none" stroke="#ff0000" stroke-width=".1278" d="M156.2278,-222.4415C149.4604,-205.4371 137.9576,-168.3946 154.2132,-144.1249 178.1284,-108.4194 228.7938,-94.9758 261.8979,-89.9281"/>
<polygon fill="#ff0000" stroke="#ff0000" stroke-width=".1278" points="262.5315,-93.3744 271.9727,-88.5667 261.5941,-86.4375 262.5315,-93.3744"/>
</g>
<!-- &#45;2&#45;&gt;221 -->
<g id="edge9" class="edge">
<title>&#45;2&#45;&gt;221</title>
<path fill="none" stroke="#ff0000" stroke-width=".3895" d="M172.4373,-227.104C200.7983,-216.7861 271.7448,-190.9751 312.383,-176.1906"/>
<polygon fill="#ff0000" stroke="#ff0000" stroke-width=".3895" points="313.8166,-179.3935 322.0174,-172.6855 311.4233,-172.8153 313.8166,-179.3935"/>
</g>
<!-- &#45;2&#45;&gt;222 -->
<g id="edge10" class="edge">
<title>&#45;2&#45;&gt;222</title>
<path fill="none" stroke="#ff0000" stroke-width=".2681" d="M171.893,-222.3446C184.0646,-212.7504 203.5106,-197.422 219.174,-185.0753"/>
<polygon fill="#ff0000" stroke="#ff0000" stroke-width=".2681" points="221.7296,-187.5175 227.4164,-178.5782 217.3962,-182.02 221.7296,-187.5175"/>
</g>
<!-- 223 -->
<g id="node11" class="node">
<title>223</title>
<ellipse fill="#ffffff" stroke="#000000" cx="157.2132" cy="-86.9117" rx="21.4286" ry="21.4286"/>
<text text-anchor="middle" x="157.2132" y="-84.7117" font-family="Times,serif" font-size="9.00" fill="#000000">223</text>
</g>
<!-- &#45;2&#45;&gt;223 -->
<g id="edge11" class="edge">
<title>&#45;2&#45;&gt;223</title>
<path fill="none" stroke="#ff0000" stroke-width=".5" d="M148.4788,-222.268C139.0912,-214.033 126.6331,-201.0807 121.2132,-186.5513 114.6228,-168.8843 115.9874,-162.2425 121.2132,-144.1249 124.55,-132.5565 130.9941,-121.0716 137.5191,-111.4611"/>
<polygon fill="#ff0000" stroke="#ff0000" stroke-width=".5" points="140.4527,-113.3764 143.4473,-103.2136 134.7687,-109.2908 140.4527,-113.3764"/>
</g>
<!-- &#45;3 -->
<g id="node3" class="node">
<title>&#45;3</title>
<polygon fill="#d3d3d3" stroke="#000000" points="354.2132,-240.5513 330.2132,-240.5513 330.2132,-222.5513 354.2132,-222.5513 354.2132,-240.5513"/>
<text text-anchor="middle" x="342.2132" y="-229.3513" font-family="Times,serif" font-size="9.00" fill="#000000">&#45;3</text>
</g>
<!-- &#45;3&#45;&gt;218 -->
<g id="edge12" class="edge">
<title>&#45;3&#45;&gt;218</title>
<path fill="none" stroke="#00ff00" stroke-width=".4225" d="M330.1115,-228.5073C306.8457,-222.3968 254.6054,-207.4145 214.2132,-186.5513 212.6936,-185.7664 211.1632,-184.9132 209.641,-184.0147"/>
<polygon fill="#00ff00" stroke="#00ff00" stroke-width=".4225" points="211.4439,-181.0126 201.1436,-178.5317 207.6486,-186.8945 211.4439,-181.0126"/>
</g>
<!-- &#45;3&#45;&gt;220 -->
<g id="edge13" class="edge">
<title>&#45;3&#45;&gt;220</title>
<path fill="none" stroke="#00ff00" stroke-width=".5" d="M354.4308,-226.9479C369.5428,-220.509 394.573,-207.2273 405.2132,-186.5513 413.8414,-169.785 415.0572,-160.2075 405.2132,-144.1249 387.7035,-115.5183 350.8818,-100.6425 324.2282,-93.3191"/>
<polygon fill="#00ff00" stroke="#00ff00" stroke-width=".5" points="324.7733,-89.8468 314.2204,-90.7875 323.0566,-96.6331 324.7733,-89.8468"/>
</g>
<!-- &#45;3&#45;&gt;221 -->
<g id="edge14" class="edge">
<title>&#45;3&#45;&gt;221</title>
<path fill="none" stroke="#00ff00" stroke-width=".1281" stroke-dasharray="1,5" d="M342.2132,-222.3446C342.2132,-215.6836 342.2132,-206.2587 342.2132,-196.9866"/>
<polygon fill="#00ff00" stroke="#00ff00" stroke-width=".1281" points="345.7133,-196.7384 342.2132,-186.7385 338.7133,-196.7385 345.7133,-196.7384"/>
</g>
<!-- &#45;3&#45;&gt;222 -->
<g id="edge15" class="edge">
<title>&#45;3&#45;&gt;222</title>
<path fill="none" stroke="#ff0000" stroke-width=".4031" d="M330.1965,-223.4323C315.3927,-213.4301 289.8215,-196.1531 270.4028,-183.033"/>
<polygon fill="#ff0000" stroke="#ff0000" stroke-width=".4031" points="272.2199,-180.0367 261.9745,-177.3384 268.301,-185.837 272.2199,-180.0367"/>
</g>
<!-- &#45;3&#45;&gt;223 -->
<g id="edge16" class="edge">
<title>&#45;3&#45;&gt;223</title>
<path fill="none" stroke="#00ff00" stroke-width=".4202" d="M350.4214,-222.471C364.7267,-205.5158 390.9902,-168.5521 372.2132,-144.1249 360.8836,-129.3861 245.0038,-104.4589 188.2292,-93.0025"/>
<polygon fill="#00ff00" stroke="#00ff00" stroke-width=".4202" points="188.847,-89.5568 178.3545,-91.0255 187.4728,-96.4206 188.847,-89.5568"/>
</g>
<!-- 0 -->
<g id="node4" class="node">
<title>0</title>
<ellipse fill="#add8e6" stroke="#000000" cx="108.2132" cy="-14.8492" rx="14.7" ry="14.7"/>
<text text-anchor="middle" x="108.2132" y="-12.6492" font-family="Times,serif" font-size="9.00" fill="#000000">0</text>
</g>
<!-- 1 -->
<g id="node5" class="node">
<title>1</title>
<ellipse fill="#add8e6" stroke="#000000" cx="225.2132" cy="-14.8492" rx="14.7" ry="14.7"/>
<text text-anchor="middle" x="225.2132" y="-12.6492" font-family="Times,serif" font-size="9.00" fill="#000000">1</text>
</g>
<!-- 218&#45;&gt;0 -->
<g id="edge17" class="edge">
<title>218&#45;&gt;0</title>
<path fill="none" stroke="#ff0000" stroke-width=".5" d="M163.7565,-158.9399C142.0568,-150.9289 108.9203,-134.9014 94.2132,-108.1249 82.1968,-86.2472 89.4537,-57.3532 97.2924,-37.5548"/>
<polygon fill="#ff0000" stroke="#ff0000" stroke-width=".5" points="100.6159,-38.6855 101.3456,-28.1159 94.1838,-35.9235 100.6159,-38.6855"/>
</g>
<!-- 218&#45;&gt;1 -->
<g id="edge18" class="edge">
<title>218&#45;&gt;1</title>
<path fill="none" stroke="#ff0000" stroke-width=".3106" stroke-dasharray="1,5" d="M189.8281,-144.7288C197.3286,-117.1984 210.5971,-68.4969 218.5813,-39.1912"/>
<polygon fill="#ff0000" stroke="#ff0000" stroke-width=".3106" points="222.0115,-39.9154 221.2633,-29.347 215.2577,-38.0753 222.0115,-39.9154"/>
</g>
<!-- 219&#45;&gt;0 -->
<g id="edge19" class="edge">
<title>219&#45;&gt;0</title>
<path fill="none" stroke="#00ff00" stroke-width=".1662" stroke-dasharray="1,5" d="M37.5772,-73.3573C52.1132,-61.3171 73.38,-43.7017 88.7774,-30.948"/>
<polygon fill="#00ff00" stroke="#00ff00" stroke-width=".1662" points="91.179,-33.5035 96.6476,-24.429 86.7137,-28.1126 91.179,-33.5035"/>
</g>
<!-- 219&#45;&gt;1 -->
<g id="edge20" class="edge">
<title>219&#45;&gt;1</title>
<path fill="none" stroke="#ff0000" stroke-width=".4184" d="M41.5193,-79.7386C79.5303,-66.3113 161.223,-37.4536 201.6135,-23.1858"/>
<polygon fill="#ff0000" stroke="#ff0000" stroke-width=".4184" points="202.9031,-26.4422 211.1663,-19.8113 200.5715,-19.8419 202.9031,-26.4422"/>
</g>
<!-- 220&#45;&gt;0 -->
<g id="edge21" class="edge">
<title>220&#45;&gt;0</title>
<path fill="none" stroke="#ff0000" stroke-width=".1526" d="M273.415,-79.1997C238.9932,-65.7916 168.2862,-38.2493 131.542,-23.9364"/>
<polygon fill="#ff0000" stroke="#ff0000" stroke-width=".1526" points="132.7256,-20.6414 122.1372,-20.273 130.1849,-27.164 132.7256,-20.6414"/>
</g>
<!-- 220&#45;&gt;1 -->
<g id="edge22" class="edge">
<title>220&#45;&gt;1</title>
<path fill="none" stroke="#00ff00" stroke-width=".3426" d="M278.4582,-71.2752C267.9215,-60.109 253.7078,-45.0462 242.6164,-33.2922"/>
<polygon fill="#00ff00" stroke="#00ff00" stroke-width=".3426" points="244.9289,-30.643 235.5202,-25.772 239.8377,-35.4472 244.9289,-30.643"/>
</g>
<!-- 221&#45;&gt;1 -->
<g id="edge23" class="edge">
<title>221&#45;&gt;1</title>
<path fill="none" stroke="#ff0000" stroke-width=".5" d="M343.3036,-143.7508C343.2998,-121.9829 340.1519,-88.4349 323.2132,-65.6985 305.2209,-41.5479 272.3996,-27.888 249.7288,-20.9386"/>
<polygon fill="#ff0000" stroke="#ff0000" stroke-width=".5" points="250.3962,-17.4898 239.8205,-18.1267 248.4851,-24.2239 250.3962,-17.4898"/>
</g>
<!-- 221&#45;&gt;220 -->
<g id="edge28" class="edge">
<title>221&#45;&gt;220</title>
<path fill="none" stroke="#ff0000" stroke-width=".1476" d="M330.8485,-147.1484C324.6022,-137.151 316.7387,-124.5651 309.8168,-113.4864"/>
<polygon fill="#ff0000" stroke="#ff0000" stroke-width=".1476" points="312.7834,-111.629 304.5163,-105.0028 306.8468,-115.3381 312.7834,-111.629"/>
</g>
<!-- 222&#45;&gt;0 -->
<g id="edge24" class="edge">
<title>222&#45;&gt;0</title>
<path fill="none" stroke="#00ff00" stroke-width=".1203" d="M227.1906,-152.3172C223.0573,-149.4351 218.5703,-146.5273 214.2132,-144.1249 177.5684,-123.9193 153.8403,-140.4066 127.2132,-108.1249 111.525,-89.1051 107.6692,-60.5757 107.1827,-40.0798"/>
<polygon fill="#00ff00" stroke="#00ff00" stroke-width=".1203" points="110.6828,-39.9145 107.1978,-29.9093 103.6828,-39.9041 110.6828,-39.9145"/>
</g>
<!-- 222&#45;&gt;1 -->
<g id="edge25" class="edge">
<title>222&#45;&gt;1</title>
<path fill="none" stroke="#00ff00" stroke-width=".1878" stroke-dasharray="1,5" d="M241.5313,-144.0959C238.0664,-116.6522 232.0439,-68.9517 228.3645,-39.8089"/>
<polygon fill="#00ff00" stroke="#00ff00" stroke-width=".1878" points="231.8044,-39.1119 227.0792,-29.6291 224.8595,-39.9888 231.8044,-39.1119"/>
</g>
<!-- 223&#45;&gt;0 -->
<g id="edge26" class="edge">
<title>223&#45;&gt;0</title>
<path fill="none" stroke="#00ff00" stroke-width=".4701" d="M145.1008,-69.0985C138.1929,-58.9392 129.5018,-46.1576 122.2912,-35.5532"/>
<polygon fill="#00ff00" stroke="#00ff00" stroke-width=".4701" points="125.1713,-33.5642 116.654,-27.2628 119.3827,-37.5003 125.1713,-33.5642"/>
</g>
<!-- 223&#45;&gt;1 -->
<g id="edge27" class="edge">
<title>223&#45;&gt;1</title>
<path fill="none" stroke="#ff0000" stroke-width=".4012" d="M171.9682,-71.2752C182.505,-60.109 196.7186,-45.0462 207.81,-33.2922"/>
<polygon fill="#ff0000" stroke="#ff0000" stroke-width=".4012" points="210.5887,-35.4472 214.9063,-25.772 205.4975,-30.643 210.5887,-35.4472"/>
</g>
</g>
</svg>
