<?xml version="1.0" encoding="UTF-8" standalone="no"?>
<!DOCTYPE svg PUBLIC "-//W3C//DTD SVG 1.1//EN"
 "http://www.w3.org/Graphics/SVG/1.1/DTD/svg11.dtd">
<!-- Generated by graphviz version 2.40.1 (20161225.0304)
 -->
<!-- Title: %3 Pages: 1 -->
<svg width="338pt" height="438pt"
 viewBox="0.00 0.00 338.25 437.93" xmlns="http://www.w3.org/2000/svg" xmlns:xlink="http://www.w3.org/1999/xlink">
<g id="graph0" class="graph" transform="scale(1 1) rotate(0) translate(4 433.931)">
<title>%3</title>
<polygon fill="#ffffff" stroke="transparent" points="-4,4 -4,-433.931 334.2452,-433.931 334.2452,4 -4,4"/>
<!-- &#45;1 -->
<g id="node1" class="node">
<title>&#45;1</title>
<polygon fill="#d3d3d3" stroke="#000000" points="103.2132,-429.931 79.2132,-429.931 79.2132,-411.931 103.2132,-411.931 103.2132,-429.931"/>
<text text-anchor="middle" x="91.2132" y="-418.731" font-family="Times,serif" font-size="9.00" fill="#000000">&#45;1</text>
</g>
<!-- 644 -->
<g id="node6" class="node">
<title>644</title>
<ellipse fill="#ffffff" stroke="#000000" cx="81.2132" cy="-263.5635" rx="21.4286" ry="21.4286"/>
<text text-anchor="middle" x="81.2132" y="-261.3635" font-family="Times,serif" font-size="9.00" fill="#000000">644</text>
</g>
<!-- &#45;1&#45;&gt;644 -->
<g id="edge1" class="edge">
<title>&#45;1&#45;&gt;644</title>
<path fill="none" stroke="#00ff00" stroke-width=".1024" d="M79.1571,-416.6565C63.6419,-410.423 37.3606,-397.2066 26.2132,-375.931 14.8365,-354.2179 17.0562,-343.5152 26.2132,-320.7767 32.26,-305.7613 44.3404,-292.4781 55.6429,-282.4995"/>
<polygon fill="#00ff00" stroke="#00ff00" stroke-width=".1024" points="58.1943,-284.9295 63.638,-275.8401 53.7142,-279.5508 58.1943,-284.9295"/>
</g>
<!-- 645 -->
<g id="node7" class="node">
<title>645</title>
<ellipse fill="#ffffff" stroke="#000000" cx="21.2132" cy="-263.5635" rx="21.4286" ry="21.4286"/>
<text text-anchor="middle" x="21.2132" y="-261.3635" font-family="Times,serif" font-size="9.00" fill="#000000">645</text>
</g>
<!-- &#45;1&#45;&gt;645 -->
<g id="edge2" class="edge">
<title>&#45;1&#45;&gt;645</title>
<path fill="none" stroke="#00ff00" stroke-width=".196" d="M79.0051,-417.8156C61.2587,-412.5543 28.958,-400.0429 15.2132,-375.931 .9704,-350.9455 5.0926,-317.5372 11.1679,-293.6558"/>
<polygon fill="#00ff00" stroke="#00ff00" stroke-width=".196" points="14.6189,-294.3109 13.9402,-283.7378 7.8773,-292.4265 14.6189,-294.3109"/>
</g>
<!-- 646 -->
<g id="node8" class="node">
<title>646</title>
<ellipse fill="#ffffff" stroke="#000000" cx="201.2132" cy="-263.5635" rx="21.4286" ry="21.4286"/>
<text text-anchor="middle" x="201.2132" y="-261.3635" font-family="Times,serif" font-size="9.00" fill="#000000">646</text>
</g>
<!-- &#45;1&#45;&gt;646 -->
<g id="edge3" class="edge">
<title>&#45;1&#45;&gt;646</title>
<path fill="none" stroke="#ff0000" stroke-width=".1164" d="M103.4685,-418.5863C133.2374,-412.6168 207.9622,-395.8948 222.2132,-375.931 240.027,-350.9763 228.692,-315.2176 216.9022,-290.7833"/>
<polygon fill="#ff0000" stroke="#ff0000" stroke-width=".1164" points="219.925,-289.0073 212.2503,-281.7033 213.695,-292.1991 219.925,-289.0073"/>
</g>
<!-- 648 -->
<g id="node10" class="node">
<title>648</title>
<ellipse fill="#ffffff" stroke="#000000" cx="261.2132" cy="-263.5635" rx="21.4286" ry="21.4286"/>
<text text-anchor="middle" x="261.2132" y="-261.3635" font-family="Times,serif" font-size="9.00" fill="#000000">648</text>
</g>
<!-- &#45;1&#45;&gt;648 -->
<g id="edge4" class="edge">
<title>&#45;1&#45;&gt;648</title>
<path fill="none" stroke="#ff0000" stroke-width=".4908" d="M103.4475,-418.9045C135.6447,-413.3232 221.5389,-396.7509 240.2132,-375.931 259.8086,-354.0842 263.7729,-319.9834 263.626,-295.0748"/>
<polygon fill="#ff0000" stroke="#ff0000" stroke-width=".4908" points="267.1232,-294.9233 263.3449,-285.0251 260.126,-295.119 267.1232,-294.9233"/>
</g>
<!-- 649 -->
<g id="node11" class="node">
<title>649</title>
<ellipse fill="#ffffff" stroke="#000000" cx="141.2132" cy="-263.5635" rx="21.4286" ry="21.4286"/>
<text text-anchor="middle" x="141.2132" y="-261.3635" font-family="Times,serif" font-size="9.00" fill="#000000">649</text>
</g>
<!-- &#45;1&#45;&gt;649 -->
<g id="edge5" class="edge">
<title>&#45;1&#45;&gt;649</title>
<path fill="none" stroke="#ff0000" stroke-width=".2796" d="M94.1912,-411.5582C101.436,-388.7564 120.2293,-329.6071 131.7439,-293.3667"/>
<polygon fill="#ff0000" stroke="#ff0000" stroke-width=".2796" points="135.0904,-294.3922 134.7829,-283.8018 128.4191,-292.2725 135.0904,-294.3922"/>
</g>
<!-- 28394 -->
<g id="node12" class="node">
<title>28394</title>
<ellipse fill="#ffffff" stroke="#000000" cx="63.2132" cy="-348.3539" rx="27.6545" ry="27.6545"/>
<text text-anchor="middle" x="63.2132" y="-346.1539" font-family="Times,serif" font-size="9.00" fill="#000000">28394</text>
</g>
<!-- &#45;1&#45;&gt;28394 -->
<g id="edge27" class="edge">
<title>&#45;1&#45;&gt;28394</title>
<path fill="none" stroke="#00ff00" stroke-width=".1686" d="M87.667,-411.7391C84.8954,-404.555 80.8538,-394.079 76.8517,-383.7053"/>
<polygon fill="#00ff00" stroke="#00ff00" stroke-width=".1686" points="80.0897,-382.3744 73.2249,-374.3045 73.5589,-384.8941 80.0897,-382.3744"/>
</g>
<!-- &#45;2 -->
<g id="node2" class="node">
<title>&#45;2</title>
<polygon fill="#d3d3d3" stroke="#000000" points="213.2132,-357.3539 189.2132,-357.3539 189.2132,-339.3539 213.2132,-339.3539 213.2132,-357.3539"/>
<text text-anchor="middle" x="201.2132" y="-346.1539" font-family="Times,serif" font-size="9.00" fill="#000000">&#45;2</text>
</g>
<!-- &#45;2&#45;&gt;644 -->
<g id="edge6" class="edge">
<title>&#45;2&#45;&gt;644</title>
<path fill="none" stroke="#00ff00" stroke-width=".4496" d="M195.821,-339.3335C192.0063,-333.5051 186.4706,-326.0518 180.2132,-320.7767 153.7672,-298.482 140.7345,-302.8027 111.2132,-284.7767 109.7535,-283.8854 108.2704,-282.9481 106.785,-281.9842"/>
<polygon fill="#00ff00" stroke="#00ff00" stroke-width=".4496" points="108.6399,-279.0133 98.3962,-276.3081 104.717,-284.8109 108.6399,-279.0133"/>
</g>
<!-- &#45;2&#45;&gt;646 -->
<g id="edge7" class="edge">
<title>&#45;2&#45;&gt;646</title>
<path fill="none" stroke="#ff0000" stroke-width=".2584" d="M201.2132,-339.2798C201.2132,-328.7969 201.2132,-310.9714 201.2132,-295.2489"/>
<polygon fill="#ff0000" stroke="#ff0000" stroke-width=".2584" points="204.7133,-294.816 201.2132,-284.8161 197.7133,-294.8161 204.7133,-294.816"/>
</g>
<!-- &#45;2&#45;&gt;648 -->
<g id="edge8" class="edge">
<title>&#45;2&#45;&gt;648</title>
<path fill="none" stroke="#00ff00" stroke-width=".2591" d="M207.6343,-339.2798C215.9752,-327.4926 230.8855,-306.4218 242.8628,-289.4958"/>
<polygon fill="#00ff00" stroke="#00ff00" stroke-width=".2591" points="245.8891,-291.2782 248.8085,-281.0935 240.175,-287.2348 245.8891,-291.2782"/>
</g>
<!-- &#45;2&#45;&gt;649 -->
<g id="edge9" class="edge">
<title>&#45;2&#45;&gt;649</title>
<path fill="none" stroke="#00ff00" stroke-width=".128" d="M194.7922,-339.2798C186.4512,-327.4926 171.5409,-306.4218 159.5636,-289.4958"/>
<polygon fill="#00ff00" stroke="#00ff00" stroke-width=".128" points="162.2514,-287.2348 153.6179,-281.0935 156.5373,-291.2782 162.2514,-287.2348"/>
</g>
<!-- &#45;3 -->
<g id="node3" class="node">
<title>&#45;3</title>
<polygon fill="#d3d3d3" stroke="#000000" points="171.2132,-357.3539 147.2132,-357.3539 147.2132,-339.3539 171.2132,-339.3539 171.2132,-357.3539"/>
<text text-anchor="middle" x="159.2132" y="-346.1539" font-family="Times,serif" font-size="9.00" fill="#000000">&#45;3</text>
</g>
<!-- &#45;3&#45;&gt;644 -->
<g id="edge10" class="edge">
<title>&#45;3&#45;&gt;644</title>
<path fill="none" stroke="#ff0000" stroke-width=".1152" d="M150.8658,-339.2798C139.4828,-326.9058 118.6883,-304.301 102.7734,-287.0006"/>
<polygon fill="#ff0000" stroke="#ff0000" stroke-width=".1152" points="105.2019,-284.4709 95.8558,-279.4808 100.0502,-289.21 105.2019,-284.4709"/>
</g>
<!-- &#45;3&#45;&gt;645 -->
<g id="edge11" class="edge">
<title>&#45;3&#45;&gt;645</title>
<path fill="none" stroke="#ff0000" stroke-width=".3395" d="M147.0281,-341.62C126.8131,-330.3516 85.2017,-306.7433 51.2132,-284.7767 49.7768,-283.8483 48.3121,-282.8817 46.8409,-281.8951"/>
<polygon fill="#ff0000" stroke="#ff0000" stroke-width=".3395" points="48.7166,-278.9372 38.4944,-276.1517 44.7485,-284.7038 48.7166,-278.9372"/>
</g>
<!-- &#45;3&#45;&gt;646 -->
<g id="edge12" class="edge">
<title>&#45;3&#45;&gt;646</title>
<path fill="none" stroke="#00ff00" stroke-width=".4648" d="M163.7079,-339.2798C169.2626,-328.066 178.9792,-308.4499 187.1305,-291.9939"/>
<polygon fill="#00ff00" stroke="#00ff00" stroke-width=".4648" points="190.4033,-293.2719 191.7057,-282.7574 184.1306,-290.1647 190.4033,-293.2719"/>
</g>
<!-- &#45;3&#45;&gt;648 -->
<g id="edge13" class="edge">
<title>&#45;3&#45;&gt;648</title>
<path fill="none" stroke="#00ff00" stroke-width=".4526" d="M165.0209,-339.3482C168.9274,-333.6681 174.409,-326.3747 180.2132,-320.7767 200.1832,-301.516 208.5531,-300.786 231.2132,-284.7767 232.6101,-283.7898 234.0435,-282.7769 235.4903,-281.7544"/>
<polygon fill="#00ff00" stroke="#00ff00" stroke-width=".4526" points="237.6197,-284.5353 243.765,-275.9048 233.5789,-278.8193 237.6197,-284.5353"/>
</g>
<!-- &#45;3&#45;&gt;649 -->
<g id="edge14" class="edge">
<title>&#45;3&#45;&gt;649</title>
<path fill="none" stroke="#00ff00" stroke-width=".1157" d="M157.2869,-339.2798C155.0252,-328.626 151.1536,-310.3883 147.7768,-294.4817"/>
<polygon fill="#00ff00" stroke="#00ff00" stroke-width=".1157" points="151.1515,-293.5237 145.6511,-284.4685 144.3041,-294.9774 151.1515,-293.5237"/>
</g>
<!-- 0 -->
<g id="node4" class="node">
<title>0</title>
<ellipse fill="#add8e6" stroke="#000000" cx="141.2132" cy="-181.6016" rx="14.7" ry="14.7"/>
<text text-anchor="middle" x="141.2132" y="-179.4016" font-family="Times,serif" font-size="9.00" fill="#000000">0</text>
</g>
<!-- 1 -->
<g id="node5" class="node">
<title>1</title>
<ellipse fill="#add8e6" stroke="#000000" cx="230.2132" cy="-14.8492" rx="14.7" ry="14.7"/>
<text text-anchor="middle" x="230.2132" y="-12.6492" font-family="Times,serif" font-size="9.00" fill="#000000">1</text>
</g>
<!-- 644&#45;&gt;0 -->
<g id="edge15" class="edge">
<title>644&#45;&gt;0</title>
<path fill="none" stroke="#ff0000" stroke-width=".1801" d="M93.9377,-246.1815C103.419,-233.2297 116.3926,-215.5074 126.3507,-201.9042"/>
<polygon fill="#ff0000" stroke="#ff0000" stroke-width=".1801" points="129.3095,-203.7877 132.3922,-193.6513 123.6612,-199.6529 129.3095,-203.7877"/>
</g>
<!-- 644&#45;&gt;1 -->
<g id="edge16" class="edge">
<title>644&#45;&gt;1</title>
<path fill="none" stroke="#00ff00" stroke-width=".2602" d="M85.9788,-242.6275C91.5424,-220.449 101.9687,-184.8401 117.2132,-156.8528 143.8671,-107.9189 187.626,-58.8217 212.1341,-33.1422"/>
<polygon fill="#00ff00" stroke="#00ff00" stroke-width=".2602" points="214.9354,-35.2801 219.3688,-25.6574 209.9023,-30.4151 214.9354,-35.2801"/>
</g>
<!-- 645&#45;&gt;0 -->
<g id="edge17" class="edge">
<title>645&#45;&gt;0</title>
<path fill="none" stroke="#ff0000" stroke-width=".2233" d="M38.6181,-251.1603C42.7357,-248.2527 47.1197,-245.1786 51.2132,-242.3503 74.6973,-226.1245 101.8868,-207.8405 120.1826,-195.6095"/>
<polygon fill="#ff0000" stroke="#ff0000" stroke-width=".2233" points="122.2599,-198.431 128.6335,-189.9677 118.3732,-192.6092 122.2599,-198.431"/>
</g>
<!-- 646&#45;&gt;0 -->
<g id="edge18" class="edge">
<title>646&#45;&gt;0</title>
<path fill="none" stroke="#00ff00" stroke-width=".2393" d="M188.4887,-246.1815C179.0074,-233.2297 166.0339,-215.5074 156.0757,-201.9042"/>
<polygon fill="#00ff00" stroke="#00ff00" stroke-width=".2393" points="158.7653,-199.6529 150.0342,-193.6513 153.1169,-203.7877 158.7653,-199.6529"/>
</g>
<!-- 646&#45;&gt;1 -->
<g id="edge19" class="edge">
<title>646&#45;&gt;1</title>
<path fill="none" stroke="#ff0000" stroke-width=".1481" d="M201.4835,-242.314C202.2445,-205.8984 205.1472,-129.3375 216.2132,-65.6985 217.7353,-56.9452 220.1148,-47.5223 222.4831,-39.1948"/>
<polygon fill="#ff0000" stroke="#ff0000" stroke-width=".1481" points="225.9105,-39.9486 225.4116,-29.3655 219.202,-37.9498 225.9105,-39.9486"/>
</g>
<!-- 16743 -->
<g id="node9" class="node">
<title>16743</title>
<ellipse fill="#ffffff" stroke="#000000" cx="286.2132" cy="-93.2756" rx="27.6545" ry="27.6545"/>
<text text-anchor="middle" x="286.2132" y="-91.0756" font-family="Times,serif" font-size="9.00" fill="#000000">16743</text>
</g>
<!-- 16743&#45;&gt;1 -->
<g id="edge26" class="edge">
<title>16743&#45;&gt;1</title>
<path fill="none" stroke="#ff0000" stroke-width=".2586" d="M270.0157,-70.5915C262.1419,-59.5645 252.7441,-46.4031 245.0578,-35.6387"/>
<polygon fill="#ff0000" stroke="#ff0000" stroke-width=".2586" points="247.7345,-33.3643 239.075,-27.2599 242.0377,-37.4321 247.7345,-33.3643"/>
</g>
<!-- 648&#45;&gt;0 -->
<g id="edge20" class="edge">
<title>648&#45;&gt;0</title>
<path fill="none" stroke="#00ff00" stroke-width=".4181" d="M243.8083,-251.1603C239.6907,-248.2527 235.3067,-245.1786 231.2132,-242.3503 207.7291,-226.1245 180.5396,-207.8405 162.2438,-195.6095"/>
<polygon fill="#00ff00" stroke="#00ff00" stroke-width=".4181" points="164.0532,-192.6092 153.7929,-189.9677 160.1665,-198.431 164.0532,-192.6092"/>
</g>
<!-- 648&#45;&gt;1 -->
<g id="edge21" class="edge">
<title>648&#45;&gt;1</title>
<path fill="none" stroke="#00ff00" stroke-width=".295" stroke-dasharray="1,5" d="M257.6689,-242.4013C255.9188,-231.6247 253.8396,-218.3062 252.2132,-206.3503 244.119,-146.8489 236.5631,-76.6754 232.7676,-40.0236"/>
<polygon fill="#00ff00" stroke="#00ff00" stroke-width=".295" points="236.2183,-39.3637 231.7139,-29.7741 229.255,-40.0796 236.2183,-39.3637"/>
</g>
<!-- 1846 -->
<g id="node13" class="node">
<title>1846</title>
<ellipse fill="#ffffff" stroke="#000000" cx="286.2132" cy="-181.6016" rx="25" ry="25"/>
<text text-anchor="middle" x="286.2132" y="-179.4016" font-family="Times,serif" font-size="9.00" fill="#000000">1846</text>
</g>
<!-- 648&#45;&gt;1846 -->
<g id="edge23" class="edge">
<title>648&#45;&gt;1846</title>
<path fill="none" stroke="#00ff00" stroke-width=".4588" d="M267.5218,-242.881C270.0712,-234.5227 273.0804,-224.6573 275.9306,-215.3128"/>
<polygon fill="#00ff00" stroke="#00ff00" stroke-width=".4588" points="279.3619,-216.0596 278.9318,-205.4735 272.6665,-214.0173 279.3619,-216.0596"/>
</g>
<!-- 649&#45;&gt;0 -->
<g id="edge22" class="edge">
<title>649&#45;&gt;0</title>
<path fill="none" stroke="#ff0000" stroke-width=".1041" d="M141.2132,-242.029C141.2132,-231.1743 141.2132,-217.95 141.2132,-206.6433"/>
<polygon fill="#ff0000" stroke="#ff0000" stroke-width=".1041" points="144.7133,-206.5304 141.2132,-196.5304 137.7133,-206.5304 144.7133,-206.5304"/>
</g>
<!-- 28394&#45;&gt;649 -->
<g id="edge28" class="edge">
<title>28394&#45;&gt;649</title>
<path fill="none" stroke="#ff0000" stroke-width=".4039" d="M82.0948,-327.8285C93.4454,-315.4898 107.9267,-299.7477 119.7159,-286.9323"/>
<polygon fill="#ff0000" stroke="#ff0000" stroke-width=".4039" points="122.462,-289.1168 126.6563,-279.3876 117.3102,-284.3777 122.462,-289.1168"/>
</g>
<!-- 1846&#45;&gt;1 -->
<g id="edge24" class="edge">
<title>1846&#45;&gt;1</title>
<path fill="none" stroke="#ff0000" stroke-width=".5" stroke-dasharray="1,5" d="M301.8344,-162.029C318.9378,-138.0437 341.6352,-96.7669 323.2132,-65.6985 308.4671,-40.8295 276.7907,-27.333 254.5201,-20.617"/>
<polygon fill="#ff0000" stroke="#ff0000" stroke-width=".5" points="255.3223,-17.2076 244.7513,-17.9181 253.4581,-23.9548 255.3223,-17.2076"/>
</g>
<!-- 1846&#45;&gt;16743 -->
<g id="edge25" class="edge">
<title>1846&#45;&gt;16743</title>
<path fill="none" stroke="#ff0000" stroke-width=".1272" d="M286.2132,-156.5272C286.2132,-148.6226 286.2132,-139.7079 286.2132,-131.1188"/>
<polygon fill="#ff0000" stroke="#ff0000" stroke-width=".1272" points="289.7133,-130.8932 286.2132,-120.8932 282.7133,-130.8932 289.7133,-130.8932"/>
</g>
</g>
</svg>
