<?xml version="1.0" encoding="UTF-8" standalone="no"?>
<!DOCTYPE svg PUBLIC "-//W3C//DTD SVG 1.1//EN"
 "http://www.w3.org/Graphics/SVG/1.1/DTD/svg11.dtd">
<!-- Generated by graphviz version 2.40.1 (20161225.0304)
 -->
<!-- Title: %3 Pages: 1 -->
<svg width="651pt" height="157pt"
 viewBox="0.00 0.00 651.00 157.40" xmlns="http://www.w3.org/2000/svg" xmlns:xlink="http://www.w3.org/1999/xlink">
<g id="graph0" class="graph" transform="scale(1 1) rotate(0) translate(4 153.397)">
<title>%3</title>
<polygon fill="#ffffff" stroke="transparent" points="-4,4 -4,-153.397 647,-153.397 647,4 -4,4"/>
<!-- &#45;1 -->
<g id="node1" class="node">
<title>&#45;1</title>
<polygon fill="#d3d3d3" stroke="#000000" points="433,-149.397 409,-149.397 409,-131.397 433,-131.397 433,-149.397"/>
<text text-anchor="middle" x="421" y="-138.197" font-family="Times,serif" font-size="9.00" fill="#000000">&#45;1</text>
</g>
<!-- 2 -->
<g id="node18" class="node">
<title>2</title>
<ellipse fill="#ffffff" stroke="#000000" cx="205" cy="-80.5477" rx="14.7" ry="14.7"/>
<text text-anchor="middle" x="205" y="-78.3477" font-family="Times,serif" font-size="9.00" fill="#000000">2</text>
</g>
<!-- &#45;1&#45;&gt;2 -->
<g id="edge1" class="edge">
<title>&#45;1&#45;&gt;2</title>
<path fill="none" stroke="#ff0000" stroke-width=".3034" d="M408.7167,-134.6534C405.8929,-133.468 402.8744,-132.3057 400,-131.397 325.9465,-107.986 301.103,-124.2613 229,-95.397 228.1244,-95.0464 227.2447,-94.6647 226.3666,-94.2583"/>
<polygon fill="#ff0000" stroke="#ff0000" stroke-width=".3034" points="227.7211,-91.0094 217.2702,-89.269 224.3547,-97.1468 227.7211,-91.0094"/>
</g>
<!-- 3 -->
<g id="node19" class="node">
<title>3</title>
<ellipse fill="#ffffff" stroke="#000000" cx="253" cy="-80.5477" rx="14.7" ry="14.7"/>
<text text-anchor="middle" x="253" y="-78.3477" font-family="Times,serif" font-size="9.00" fill="#000000">3</text>
</g>
<!-- &#45;1&#45;&gt;3 -->
<g id="edge2" class="edge">
<title>&#45;1&#45;&gt;3</title>
<path fill="none" stroke="#00ff00" stroke-width=".4089" d="M408.6615,-134.8169C405.8406,-133.6231 402.8371,-132.416 400,-131.397 346.3927,-112.1434 329.0235,-118.5918 277,-95.397 276.1385,-95.0129 275.2709,-94.6026 274.403,-94.1722"/>
<polygon fill="#00ff00" stroke="#00ff00" stroke-width=".4089" points="275.7839,-90.9329 265.354,-89.0709 272.3463,-97.0307 275.7839,-90.9329"/>
</g>
<!-- 4 -->
<g id="node20" class="node">
<title>4</title>
<ellipse fill="#ffffff" stroke="#000000" cx="301" cy="-80.5477" rx="14.7" ry="14.7"/>
<text text-anchor="middle" x="301" y="-78.3477" font-family="Times,serif" font-size="9.00" fill="#000000">4</text>
</g>
<!-- &#45;1&#45;&gt;4 -->
<g id="edge3" class="edge">
<title>&#45;1&#45;&gt;4</title>
<path fill="none" stroke="#00ff00" stroke-width=".1245" d="M408.9578,-135.2886C390.5532,-127.3621 354.4602,-111.3462 325,-95.397 324.1706,-94.9479 323.3302,-94.4824 322.4851,-94.0056"/>
<polygon fill="#00ff00" stroke="#00ff00" stroke-width=".1245" points="323.9269,-90.7908 313.543,-88.6872 320.3486,-96.8072 323.9269,-90.7908"/>
</g>
<!-- 5 -->
<g id="node21" class="node">
<title>5</title>
<ellipse fill="#ffffff" stroke="#000000" cx="349" cy="-80.5477" rx="14.7" ry="14.7"/>
<text text-anchor="middle" x="349" y="-78.3477" font-family="Times,serif" font-size="9.00" fill="#000000">5</text>
</g>
<!-- &#45;1&#45;&gt;5 -->
<g id="edge4" class="edge">
<title>&#45;1&#45;&gt;5</title>
<path fill="none" stroke="#00ff00" stroke-width=".1235" d="M410.0647,-131.3072C398.9882,-122.0999 381.6271,-107.6687 368.2433,-96.5435"/>
<polygon fill="#00ff00" stroke="#00ff00" stroke-width=".1235" points="370.4431,-93.8208 360.5156,-90.12 365.9685,-99.2039 370.4431,-93.8208"/>
</g>
<!-- 6 -->
<g id="node22" class="node">
<title>6</title>
<ellipse fill="#ffffff" stroke="#000000" cx="397" cy="-80.5477" rx="14.7" ry="14.7"/>
<text text-anchor="middle" x="397" y="-78.3477" font-family="Times,serif" font-size="9.00" fill="#000000">6</text>
</g>
<!-- &#45;1&#45;&gt;6 -->
<g id="edge5" class="edge">
<title>&#45;1&#45;&gt;6</title>
<path fill="none" stroke="#00ff00" stroke-width=".1161" d="M417.3549,-131.3072C414.4352,-124.0262 410.2054,-113.4784 406.3572,-103.8821"/>
<polygon fill="#00ff00" stroke="#00ff00" stroke-width=".1161" points="409.5266,-102.3817 402.556,-94.4029 403.0295,-104.9871 409.5266,-102.3817"/>
</g>
<!-- 7 -->
<g id="node23" class="node">
<title>7</title>
<ellipse fill="#ffffff" stroke="#000000" cx="445" cy="-80.5477" rx="14.7" ry="14.7"/>
<text text-anchor="middle" x="445" y="-78.3477" font-family="Times,serif" font-size="9.00" fill="#000000">7</text>
</g>
<!-- &#45;1&#45;&gt;7 -->
<g id="edge6" class="edge">
<title>&#45;1&#45;&gt;7</title>
<path fill="none" stroke="#ff0000" stroke-width=".3132" d="M424.6451,-131.3072C427.5648,-124.0262 431.7946,-113.4784 435.6428,-103.8821"/>
<polygon fill="#ff0000" stroke="#ff0000" stroke-width=".3132" points="438.9705,-104.9871 439.444,-94.4029 432.4734,-102.3817 438.9705,-104.9871"/>
</g>
<!-- &#45;2 -->
<g id="node2" class="node">
<title>&#45;2</title>
<polygon fill="#d3d3d3" stroke="#000000" points="475,-149.397 451,-149.397 451,-131.397 475,-131.397 475,-149.397"/>
<text text-anchor="middle" x="463" y="-138.197" font-family="Times,serif" font-size="9.00" fill="#000000">&#45;2</text>
</g>
<!-- &#45;2&#45;&gt;2 -->
<g id="edge7" class="edge">
<title>&#45;2&#45;&gt;2</title>
<path fill="none" stroke="#00ff00" stroke-width=".2082" d="M450.7428,-134.5677C447.9177,-133.3868 444.892,-132.2479 442,-131.397 349.895,-104.2962 318.8293,-129.286 229,-95.397 228.1175,-95.064 227.232,-94.6972 226.349,-94.3035"/>
<polygon fill="#00ff00" stroke="#00ff00" stroke-width=".2082" points="227.691,-91.0503 217.2297,-89.373 224.3617,-97.2079 227.691,-91.0503"/>
</g>
<!-- &#45;2&#45;&gt;3 -->
<g id="edge8" class="edge">
<title>&#45;2&#45;&gt;3</title>
<path fill="none" stroke="#ff0000" stroke-width=".1555" d="M450.7117,-134.669C447.8882,-133.4828 444.871,-132.3162 442,-131.397 370.5159,-108.5102 346.5798,-123.5471 277,-95.397 276.1257,-95.0432 275.2471,-94.6587 274.3699,-94.2501"/>
<polygon fill="#ff0000" stroke="#ff0000" stroke-width=".1555" points="275.7268,-91.002 265.2778,-89.2501 272.3537,-97.1357 275.7268,-91.002"/>
</g>
<!-- &#45;2&#45;&gt;4 -->
<g id="edge9" class="edge">
<title>&#45;2&#45;&gt;4</title>
<path fill="none" stroke="#ff0000" stroke-width=".1973" d="M450.651,-134.8459C447.8306,-133.6506 444.8301,-132.4355 442,-131.397 390.9243,-112.6547 374.537,-117.8933 325,-95.397 324.1412,-95.007 323.2759,-94.5917 322.4098,-94.157"/>
<polygon fill="#ff0000" stroke="#ff0000" stroke-width=".1973" points="323.7957,-90.9196 313.3697,-89.0359 320.3454,-97.0102 323.7957,-90.9196"/>
</g>
<!-- &#45;2&#45;&gt;5 -->
<g id="edge10" class="edge">
<title>&#45;2&#45;&gt;5</title>
<path fill="none" stroke="#ff0000" stroke-width=".1525" d="M450.883,-134.7673C433.4292,-126.5621 400.3081,-110.6311 373,-95.397 372.1763,-94.9375 371.3408,-94.4631 370.4999,-93.9787"/>
<polygon fill="#ff0000" stroke="#ff0000" stroke-width=".1525" points="371.9527,-90.7688 361.577,-88.6254 368.3514,-96.7714 371.9527,-90.7688"/>
</g>
<!-- &#45;2&#45;&gt;6 -->
<g id="edge11" class="edge">
<title>&#45;2&#45;&gt;6</title>
<path fill="none" stroke="#ff0000" stroke-width=".3587" d="M452.976,-131.3072C443.0367,-122.2941 427.5768,-108.275 415.4206,-97.2516"/>
<polygon fill="#ff0000" stroke="#ff0000" stroke-width=".3587" points="417.7594,-94.6478 408.0005,-90.523 413.0572,-99.8333 417.7594,-94.6478"/>
</g>
<!-- &#45;2&#45;&gt;7 -->
<g id="edge12" class="edge">
<title>&#45;2&#45;&gt;7</title>
<path fill="none" stroke="#ff0000" stroke-width=".2614" d="M460.2662,-131.3072C458.1283,-124.1989 455.054,-113.9769 452.2238,-104.5665"/>
<polygon fill="#ff0000" stroke="#ff0000" stroke-width=".2614" points="455.5362,-103.4275 449.3043,-94.8593 448.8328,-105.4437 455.5362,-103.4275"/>
</g>
<!-- &#45;3 -->
<g id="node3" class="node">
<title>&#45;3</title>
<polygon fill="#d3d3d3" stroke="#000000" points="517,-149.397 493,-149.397 493,-131.397 517,-131.397 517,-149.397"/>
<text text-anchor="middle" x="505" y="-138.197" font-family="Times,serif" font-size="9.00" fill="#000000">&#45;3</text>
</g>
<!-- &#45;3&#45;&gt;2 -->
<g id="edge13" class="edge">
<title>&#45;3&#45;&gt;2</title>
<path fill="none" stroke="#00ff00" stroke-width=".3977" d="M492.7596,-134.5093C489.9336,-133.3314 486.9033,-132.2085 484,-131.397 373.7684,-100.5842 336.629,-134.3385 229,-95.397 228.1131,-95.0761 227.2238,-94.7195 226.3376,-94.3343"/>
<polygon fill="#00ff00" stroke="#00ff00" stroke-width=".3977" points="227.6715,-91.0785 217.2035,-89.444 224.3675,-97.2497 227.6715,-91.0785"/>
</g>
<!-- &#45;3&#45;&gt;3 -->
<g id="edge14" class="edge">
<title>&#45;3&#45;&gt;3</title>
<path fill="none" stroke="#00ff00" stroke-width=".2116" d="M492.7398,-134.5779C489.9148,-133.3965 486.89,-132.2548 484,-131.397 394.4794,-104.825 364.2915,-128.5661 277,-95.397 276.1183,-95.0619 275.2335,-94.6933 274.3511,-94.2981"/>
<polygon fill="#00ff00" stroke="#00ff00" stroke-width=".2116" points="275.6945,-91.0454 265.2344,-89.3606 272.3608,-97.2006 275.6945,-91.0454"/>
</g>
<!-- &#45;3&#45;&gt;4 -->
<g id="edge15" class="edge">
<title>&#45;3&#45;&gt;4</title>
<path fill="none" stroke="#00ff00" stroke-width=".4943" d="M492.7063,-134.6857C489.8831,-133.4986 486.8674,-132.3274 484,-131.397 415.0823,-109.0334 392.0596,-122.8341 325,-95.397 324.127,-95.0398 323.2497,-94.6524 322.3735,-94.2413"/>
<polygon fill="#00ff00" stroke="#00ff00" stroke-width=".4943" points="323.7329,-90.9941 313.286,-89.2298 320.3526,-97.1238 323.7329,-90.9941"/>
</g>
<!-- &#45;3&#45;&gt;5 -->
<g id="edge16" class="edge">
<title>&#45;3&#45;&gt;5</title>
<path fill="none" stroke="#00ff00" stroke-width=".2912" d="M492.6392,-134.8776C489.8194,-133.6806 486.8221,-132.4568 484,-131.397 435.4479,-113.1631 420.0583,-117.1983 373,-95.397 372.1442,-95.0005 371.2814,-94.5797 370.4175,-94.1404"/>
<polygon fill="#00ff00" stroke="#00ff00" stroke-width=".2912" points="371.809,-90.9051 361.3872,-88.9976 368.3448,-96.9878 371.809,-90.9051"/>
</g>
<!-- &#45;3&#45;&gt;6 -->
<g id="edge17" class="edge">
<title>&#45;3&#45;&gt;6</title>
<path fill="none" stroke="#00ff00" stroke-width=".1974" d="M492.9081,-134.2204C476.4695,-125.7554 446.2263,-109.9392 421,-95.397 420.1829,-94.9259 419.3529,-94.4417 418.5167,-93.9491"/>
<polygon fill="#00ff00" stroke="#00ff00" stroke-width=".1974" points="419.9822,-90.7448 409.6157,-88.5572 416.3554,-96.732 419.9822,-90.7448"/>
</g>
<!-- &#45;3&#45;&gt;7 -->
<g id="edge18" class="edge">
<title>&#45;3&#45;&gt;7</title>
<path fill="none" stroke="#00ff00" stroke-width=".1402" d="M495.8873,-131.3072C487.2347,-122.6763 473.98,-109.4549 463.1674,-98.6695"/>
<polygon fill="#00ff00" stroke="#00ff00" stroke-width=".1402" points="465.3782,-95.9312 455.8265,-91.347 460.4347,-100.8872 465.3782,-95.9312"/>
</g>
<!-- &#45;4 -->
<g id="node4" class="node">
<title>&#45;4</title>
<polygon fill="#d3d3d3" stroke="#000000" points="559,-149.397 535,-149.397 535,-131.397 559,-131.397 559,-149.397"/>
<text text-anchor="middle" x="547" y="-138.197" font-family="Times,serif" font-size="9.00" fill="#000000">&#45;4</text>
</g>
<!-- &#45;4&#45;&gt;2 -->
<g id="edge19" class="edge">
<title>&#45;4&#45;&gt;2</title>
<path fill="none" stroke="#00ff00" stroke-width=".2951" d="M534.7712,-134.467C531.9446,-133.2913 528.9111,-132.18 526,-131.397 397.5976,-96.8597 354.4717,-139.4067 229,-95.397 228.11,-95.0848 227.2181,-94.7356 226.3297,-94.3567"/>
<polygon fill="#00ff00" stroke="#00ff00" stroke-width=".2951" points="227.6579,-91.099 217.1851,-89.4955 224.3721,-97.28 227.6579,-91.099"/>
</g>
<!-- &#45;4&#45;&gt;3 -->
<g id="edge20" class="edge">
<title>&#45;4&#45;&gt;3</title>
<path fill="none" stroke="#00ff00" stroke-width=".2754" d="M534.7576,-134.5165C531.9317,-133.3382 528.9019,-132.2134 526,-131.397 418.3611,-101.1154 382.0831,-133.6156 277,-95.397 276.1136,-95.0746 275.2248,-94.7167 274.339,-94.3306"/>
<polygon fill="#00ff00" stroke="#00ff00" stroke-width=".2754" points="275.6739,-91.075 265.2067,-89.4353 272.3667,-97.2445 275.6739,-91.075"/>
</g>
<!-- &#45;4&#45;&gt;4 -->
<g id="edge21" class="edge">
<title>&#45;4&#45;&gt;4</title>
<path fill="none" stroke="#ff0000" stroke-width=".1869" d="M534.7366,-134.5887C531.9118,-133.4067 528.8878,-132.2621 526,-131.397 439.0622,-105.3534 409.7553,-127.8467 325,-95.397 324.1192,-95.0597 323.2351,-94.6892 322.3532,-94.2924"/>
<polygon fill="#ff0000" stroke="#ff0000" stroke-width=".1869" points="323.6982,-91.0402 313.2394,-89.3475 320.3599,-97.1929 323.6982,-91.0402"/>
</g>
<!-- &#45;4&#45;&gt;5 -->
<g id="edge22" class="edge">
<title>&#45;4&#45;&gt;5</title>
<path fill="none" stroke="#ff0000" stroke-width=".3041" d="M534.7005,-134.7036C531.8775,-133.5156 528.8634,-132.3395 526,-131.397 459.6453,-109.5555 437.5426,-122.1224 373,-95.397 372.1286,-95.0361 371.2525,-94.6456 370.3774,-94.2319"/>
<polygon fill="#ff0000" stroke="#ff0000" stroke-width=".3041" points="371.7396,-90.9857 361.2949,-89.2081 368.3515,-97.1111 371.7396,-90.9857"/>
</g>
<!-- &#45;4&#45;&gt;6 -->
<g id="edge23" class="edge">
<title>&#45;4&#45;&gt;6</title>
<path fill="none" stroke="#00ff00" stroke-width=".1531" d="M534.6259,-134.9124C531.8069,-133.7136 528.8132,-132.4803 526,-131.397 479.9624,-113.668 465.5884,-116.5074 421,-95.397 420.1475,-94.9934 419.2875,-94.5665 418.426,-94.1221"/>
<polygon fill="#00ff00" stroke="#00ff00" stroke-width=".1531" points="419.8238,-90.8893 409.407,-88.9556 416.3443,-96.9633 419.8238,-90.8893"/>
</g>
<!-- &#45;4&#45;&gt;7 -->
<g id="edge24" class="edge">
<title>&#45;4&#45;&gt;7</title>
<path fill="none" stroke="#00ff00" stroke-width=".5" d="M534.8987,-133.2965C518.1497,-123.4688 487.6199,-105.5553 466.8312,-93.3573"/>
<polygon fill="#00ff00" stroke="#00ff00" stroke-width=".5" points="468.4457,-90.2467 458.0495,-88.2046 464.9032,-96.2841 468.4457,-90.2467"/>
</g>
<!-- &#45;5 -->
<g id="node5" class="node">
<title>&#45;5</title>
<polygon fill="#d3d3d3" stroke="#000000" points="601,-149.397 577,-149.397 577,-131.397 601,-131.397 601,-149.397"/>
<text text-anchor="middle" x="589" y="-138.197" font-family="Times,serif" font-size="9.00" fill="#000000">&#45;5</text>
</g>
<!-- &#45;5&#45;&gt;2 -->
<g id="edge25" class="edge">
<title>&#45;5&#45;&gt;2</title>
<path fill="none" stroke="#00ff00" stroke-width=".4035" d="M576.7797,-134.4349C573.9526,-133.2609 570.9168,-132.1584 568,-131.397 421.3988,-93.1277 372.3418,-144.4845 229,-95.397 228.1077,-95.0914 227.2138,-94.7478 226.3238,-94.3737"/>
<polygon fill="#00ff00" stroke="#00ff00" stroke-width=".4035" points="227.648,-91.1147 217.1716,-89.5345 224.376,-97.303 227.648,-91.1147"/>
</g>
<!-- &#45;5&#45;&gt;3 -->
<g id="edge26" class="edge">
<title>&#45;5&#45;&gt;3</title>
<path fill="none" stroke="#00ff00" stroke-width=".17" d="M576.7698,-134.4723C573.9432,-133.2963 570.9101,-132.1836 568,-131.397 442.1954,-97.3923 399.9208,-138.682 277,-95.397 276.1104,-95.0837 275.2188,-94.7336 274.3306,-94.3539"/>
<polygon fill="#00ff00" stroke="#00ff00" stroke-width=".17" points="275.6596,-91.0965 265.1874,-89.4891 272.3715,-97.2762 275.6596,-91.0965"/>
</g>
<!-- &#45;5&#45;&gt;4 -->
<g id="edge27" class="edge">
<title>&#45;5&#45;&gt;4</title>
<path fill="none" stroke="#00ff00" stroke-width=".25" d="M576.7554,-134.524C573.9297,-133.3454 570.9005,-132.2184 568,-131.397 462.9529,-101.6463 427.538,-132.893 325,-95.397 324.1142,-95.073 323.2259,-94.7139 322.3405,-94.3266"/>
<polygon fill="#00ff00" stroke="#00ff00" stroke-width=".25" points="323.6763,-91.0713 313.21,-89.4262 320.366,-97.2391 323.6763,-91.0713"/>
</g>
<!-- &#45;5&#45;&gt;5 -->
<g id="edge28" class="edge">
<title>&#45;5&#45;&gt;5</title>
<path fill="none" stroke="#00ff00" stroke-width=".2753" d="M576.7332,-134.6001C573.9085,-133.4175 570.8855,-132.2698 568,-131.397 483.6433,-105.8812 455.2207,-127.1281 373,-95.397 372.1201,-95.0574 371.2368,-94.6849 370.3556,-94.2864"/>
<polygon fill="#00ff00" stroke="#00ff00" stroke-width=".2753" points="371.7021,-91.0347 361.2448,-89.3336 368.3589,-97.1848 371.7021,-91.0347"/>
</g>
<!-- &#45;5&#45;&gt;6 -->
<g id="edge29" class="edge">
<title>&#45;5&#45;&gt;6</title>
<path fill="none" stroke="#00ff00" stroke-width=".172" d="M576.6941,-134.7228C573.8715,-133.5339 570.8591,-132.3525 568,-131.397 504.2044,-110.0764 483.0294,-121.4123 421,-95.397 420.1302,-95.0322 419.2555,-94.6383 418.3816,-94.2217"/>
<polygon fill="#00ff00" stroke="#00ff00" stroke-width=".172" points="419.7469,-90.9766 409.3047,-89.1848 416.3504,-97.0974 419.7469,-90.9766"/>
</g>
<!-- &#45;5&#45;&gt;7 -->
<g id="edge30" class="edge">
<title>&#45;5&#45;&gt;7</title>
<path fill="none" stroke="#00ff00" stroke-width=".1066" d="M576.5744,-135.0404C573.758,-133.835 570.7784,-132.5666 568,-131.397 533.3718,-116.8196 493.1119,-100.2466 468.3437,-90.0937"/>
<polygon fill="#00ff00" stroke="#00ff00" stroke-width=".1066" points="469.6241,-86.8359 459.0436,-86.2847 466.9711,-93.3137 469.6241,-86.8359"/>
</g>
<!-- &#45;6 -->
<g id="node6" class="node">
<title>&#45;6</title>
<polygon fill="#d3d3d3" stroke="#000000" points="643,-149.397 619,-149.397 619,-131.397 643,-131.397 643,-149.397"/>
<text text-anchor="middle" x="631" y="-138.197" font-family="Times,serif" font-size="9.00" fill="#000000">&#45;6</text>
</g>
<!-- &#45;6&#45;&gt;2 -->
<g id="edge31" class="edge">
<title>&#45;6&#45;&gt;2</title>
<path fill="none" stroke="#00ff00" stroke-width=".1211" d="M618.7861,-134.4099C615.9588,-133.2371 612.9212,-132.1415 610,-131.397 445.1811,-89.3908 390.2303,-149.5686 229,-95.397 228.1059,-95.0966 227.2106,-94.7574 226.3193,-94.3869"/>
<polygon fill="#00ff00" stroke="#00ff00" stroke-width=".1211" points="227.6403,-91.127 217.1612,-89.5651 224.3791,-97.321 227.6403,-91.127"/>
</g>
<!-- &#45;6&#45;&gt;3 -->
<g id="edge32" class="edge">
<title>&#45;6&#45;&gt;3</title>
<path fill="none" stroke="#00ff00" stroke-width=".1953" d="M618.7786,-134.439C615.9516,-133.2648 612.9161,-132.1611 610,-131.397 466,-93.6612 417.7876,-143.7586 277,-95.397 276.108,-95.0905 275.2144,-94.7462 274.3245,-94.3715"/>
<polygon fill="#00ff00" stroke="#00ff00" stroke-width=".1953" points="275.6492,-91.1127 265.1733,-89.5296 272.3755,-97.3 275.6492,-91.1127"/>
</g>
<!-- &#45;6&#45;&gt;4 -->
<g id="edge33" class="edge">
<title>&#45;6&#45;&gt;4</title>
<path fill="none" stroke="#ff0000" stroke-width=".3469" d="M618.7683,-134.4778C615.9418,-133.3016 612.9091,-132.1873 610,-131.397 486.7926,-97.9248 445.3705,-137.9575 325,-95.397 324.1108,-95.0826 323.2195,-94.7315 322.3317,-94.351"/>
<polygon fill="#ff0000" stroke="#ff0000" stroke-width=".3469" points="323.6614,-91.0938 313.1898,-89.4823 320.3709,-97.2722 323.6614,-91.0938"/>
</g>
<!-- &#45;6&#45;&gt;5 -->
<g id="edge34" class="edge">
<title>&#45;6&#45;&gt;5</title>
<path fill="none" stroke="#00ff00" stroke-width=".258" d="M618.7532,-134.5319C615.9275,-133.3528 612.899,-132.2237 610,-131.397 507.5437,-102.177 472.994,-132.1707 373,-95.397 372.1148,-95.0714 371.227,-94.7109 370.342,-94.3224"/>
<polygon fill="#00ff00" stroke="#00ff00" stroke-width=".258" points="371.6789,-91.0675 361.2135,-89.4166 368.3652,-97.2335 371.6789,-91.0675"/>
</g>
<!-- &#45;6&#45;&gt;6 -->
<g id="edge35" class="edge">
<title>&#45;6&#45;&gt;6</title>
<path fill="none" stroke="#ff0000" stroke-width=".1746" d="M618.7295,-134.6122C615.905,-133.429 612.883,-132.2779 610,-131.397 528.2224,-106.4084 500.6881,-126.4101 421,-95.397 420.121,-95.0549 419.2385,-94.6803 418.358,-94.28"/>
<polygon fill="#ff0000" stroke="#ff0000" stroke-width=".1746" points="419.7064,-91.0289 409.2505,-89.3189 416.3579,-97.1761 419.7064,-91.0289"/>
</g>
<!-- &#45;6&#45;&gt;7 -->
<g id="edge36" class="edge">
<title>&#45;6&#45;&gt;7</title>
<path fill="none" stroke="#00ff00" stroke-width=".4399" d="M618.6506,-134.8468C615.8303,-133.6514 612.8298,-132.4361 610,-131.397 560.956,-113.3879 502.2087,-96.3304 469.7055,-87.2768"/>
<polygon fill="#00ff00" stroke="#00ff00" stroke-width=".4399" points="470.3118,-83.8132 459.7408,-84.5235 468.4474,-90.5604 470.3118,-83.8132"/>
</g>
<!-- &#45;7 -->
<g id="node7" class="node">
<title>&#45;7</title>
<polygon fill="#d3d3d3" stroke="#000000" points="24,-149.397 0,-149.397 0,-131.397 24,-131.397 24,-149.397"/>
<text text-anchor="middle" x="12" y="-138.197" font-family="Times,serif" font-size="9.00" fill="#000000">&#45;7</text>
</g>
<!-- &#45;7&#45;&gt;2 -->
<g id="edge37" class="edge">
<title>&#45;7&#45;&gt;2</title>
<path fill="none" stroke="#ff0000" stroke-width=".2804" d="M24.3406,-134.8227C27.1614,-133.6285 30.1643,-132.4198 33,-131.397 84.8048,-112.7113 147.1229,-95.5744 180.7024,-86.7646"/>
<polygon fill="#ff0000" stroke="#ff0000" stroke-width=".2804" points="181.7477,-90.1093 190.5452,-84.2055 179.9863,-83.3345 181.7477,-90.1093"/>
</g>
<!-- &#45;7&#45;&gt;3 -->
<g id="edge38" class="edge">
<title>&#45;7&#45;&gt;3</title>
<path fill="none" stroke="#ff0000" stroke-width=".1975" d="M24.2663,-134.5982C27.0909,-133.4157 30.1141,-132.2684 33,-131.397 117.7868,-105.7932 146.357,-127.2478 229,-95.397 229.8801,-95.0578 230.7635,-94.6856 231.6448,-94.2874"/>
<polygon fill="#ff0000" stroke="#ff0000" stroke-width=".1975" points="233.641,-97.1861 240.7562,-89.336 230.2985,-91.0357 233.641,-97.1861"/>
</g>
<!-- &#45;7&#45;&gt;4 -->
<g id="edge39" class="edge">
<title>&#45;7&#45;&gt;4</title>
<path fill="none" stroke="#00ff00" stroke-width=".119" d="M24.2442,-134.5227C27.07,-133.3441 30.0993,-132.2176 33,-131.397 138.479,-101.5578 174.0379,-133.0134 277,-95.397 277.8859,-95.0733 278.7743,-94.7144 279.6598,-94.3273"/>
<polygon fill="#00ff00" stroke="#00ff00" stroke-width=".119" points="281.6339,-97.2401 288.7906,-89.4277 278.3241,-91.072 281.6339,-97.2401"/>
</g>
<!-- &#45;7&#45;&gt;5 -->
<g id="edge40" class="edge">
<title>&#45;7&#45;&gt;5</title>
<path fill="none" stroke="#ff0000" stroke-width=".1777" d="M24.23,-134.4714C27.0566,-133.2955 30.0897,-132.183 33,-131.397 159.2375,-97.3036 201.6541,-138.8028 325,-95.397 325.8897,-95.0839 326.7813,-94.7339 327.6695,-94.3544"/>
<polygon fill="#ff0000" stroke="#ff0000" stroke-width=".1777" points="329.6284,-97.2768 336.813,-89.4901 326.3407,-91.0969 329.6284,-97.2768"/>
</g>
<!-- &#45;7&#45;&gt;6 -->
<g id="edge41" class="edge">
<title>&#45;7&#45;&gt;6</title>
<path fill="none" stroke="#ff0000" stroke-width=".2836" d="M24.2202,-134.4343C27.0472,-133.2603 30.083,-132.1579 33,-131.397 180.0348,-93.0388 229.2325,-144.6055 373,-95.397 373.8924,-95.0915 374.7862,-94.7481 375.6763,-94.374"/>
<polygon fill="#ff0000" stroke="#ff0000" stroke-width=".2836" points="377.624,-97.3034 384.8287,-89.5354 374.3522,-91.115 377.624,-97.3034"/>
</g>
<!-- &#45;7&#45;&gt;7 -->
<g id="edge42" class="edge">
<title>&#45;7&#45;&gt;7</title>
<path fill="none" stroke="#00ff00" stroke-width=".2143" d="M24.2129,-134.4062C27.0404,-133.2337 30.0782,-132.139 33,-131.397 200.8566,-88.7676 256.7869,-150.4164 421,-95.397 421.8943,-95.0973 422.7899,-94.7588 423.6814,-94.3889"/>
<polygon fill="#00ff00" stroke="#00ff00" stroke-width=".2143" points="425.6204,-97.3236 432.8402,-89.5696 422.3608,-91.1288 425.6204,-97.3236"/>
</g>
<!-- &#45;8 -->
<g id="node8" class="node">
<title>&#45;8</title>
<polygon fill="#d3d3d3" stroke="#000000" points="66,-149.397 42,-149.397 42,-131.397 66,-131.397 66,-149.397"/>
<text text-anchor="middle" x="54" y="-138.197" font-family="Times,serif" font-size="9.00" fill="#000000">&#45;8</text>
</g>
<!-- &#45;8&#45;&gt;2 -->
<g id="edge43" class="edge">
<title>&#45;8&#45;&gt;2</title>
<path fill="none" stroke="#ff0000" stroke-width=".2443" d="M66.4092,-135.0008C69.2264,-133.7975 72.2105,-132.5399 75,-131.397 112.0207,-116.2282 155.3555,-99.4773 181.4657,-89.4927"/>
<polygon fill="#ff0000" stroke="#ff0000" stroke-width=".2443" points="182.8027,-92.7288 190.898,-85.8938 180.3072,-86.1887 182.8027,-92.7288"/>
</g>
<!-- &#45;8&#45;&gt;3 -->
<g id="edge44" class="edge">
<title>&#45;8&#45;&gt;3</title>
<path fill="none" stroke="#00ff00" stroke-width=".2259" d="M66.2985,-134.7005C69.1215,-133.5127 72.1359,-132.3374 75,-131.397 141.7817,-109.4686 164.0381,-122.2409 229,-95.397 229.8717,-95.0368 230.748,-94.6468 231.6233,-94.2335"/>
<polygon fill="#00ff00" stroke="#00ff00" stroke-width=".2259" points="233.6484,-97.1133 240.7066,-89.2119 230.2615,-90.9871 233.6484,-97.1133"/>
</g>
<!-- &#45;8&#45;&gt;4 -->
<g id="edge45" class="edge">
<title>&#45;8&#45;&gt;4</title>
<path fill="none" stroke="#00ff00" stroke-width=".3085" d="M66.2629,-134.5868C69.0877,-133.405 72.1118,-132.2608 75,-131.397 162.3681,-105.2653 191.8221,-127.9666 277,-95.397 277.881,-95.0601 278.7652,-94.6899 279.6471,-94.2934"/>
<polygon fill="#00ff00" stroke="#00ff00" stroke-width=".3085" points="281.64,-97.1942 288.7614,-89.3497 278.3025,-91.0411 281.64,-97.1942"/>
</g>
<!-- &#45;8&#45;&gt;5 -->
<g id="edge46" class="edge">
<title>&#45;8&#45;&gt;5</title>
<path fill="none" stroke="#00ff00" stroke-width=".1869" d="M66.2421,-134.5152C69.068,-133.3371 72.0978,-132.2125 75,-131.397 183.071,-101.0269 219.4927,-133.7361 325,-95.397 325.8865,-95.0748 326.7753,-94.7172 327.6612,-94.3312"/>
<polygon fill="#00ff00" stroke="#00ff00" stroke-width=".1869" points="329.6331,-97.2454 336.7939,-89.4368 326.3265,-91.0756 329.6331,-97.2454"/>
</g>
<!-- &#45;8&#45;&gt;6 -->
<g id="edge47" class="edge">
<title>&#45;8&#45;&gt;6</title>
<path fill="none" stroke="#ff0000" stroke-width=".2246" d="M66.2286,-134.4661C69.0552,-133.2905 72.0887,-132.1794 75,-131.397 203.8354,-96.7709 247.1031,-139.5275 373,-95.397 373.8901,-95.085 374.782,-94.7359 375.6705,-94.3572"/>
<polygon fill="#ff0000" stroke="#ff0000" stroke-width=".2246" points="377.6278,-97.2806 384.8152,-89.4966 374.3423,-91.0995 377.6278,-97.2806"/>
</g>
<!-- &#45;8&#45;&gt;7 -->
<g id="edge48" class="edge">
<title>&#45;8&#45;&gt;7</title>
<path fill="none" stroke="#ff0000" stroke-width=".2123" d="M66.2191,-134.4303C69.0462,-133.2566 72.0824,-132.1553 75,-131.397 224.6363,-92.5052 274.6779,-145.3315 421,-95.397 421.8926,-95.0923 422.7868,-94.7496 423.677,-94.3761"/>
<polygon fill="#ff0000" stroke="#ff0000" stroke-width=".2123" points="425.6235,-97.3063 432.8303,-89.5401 422.3534,-91.117 425.6235,-97.3063"/>
</g>
<!-- &#45;9 -->
<g id="node9" class="node">
<title>&#45;9</title>
<polygon fill="#d3d3d3" stroke="#000000" points="108,-149.397 84,-149.397 84,-131.397 108,-131.397 108,-149.397"/>
<text text-anchor="middle" x="96" y="-138.197" font-family="Times,serif" font-size="9.00" fill="#000000">&#45;9</text>
</g>
<!-- &#45;9&#45;&gt;2 -->
<g id="edge49" class="edge">
<title>&#45;9&#45;&gt;2</title>
<path fill="none" stroke="#00ff00" stroke-width=".1272" d="M108.0814,-133.7634C126.1234,-123.8569 160.3967,-105.0383 182.9714,-92.6431"/>
<polygon fill="#00ff00" stroke="#00ff00" stroke-width=".1272" points="184.7676,-95.6498 191.8487,-87.7688 181.3985,-89.5139 184.7676,-95.6498"/>
</g>
<!-- &#45;9&#45;&gt;3 -->
<g id="edge50" class="edge">
<title>&#45;9&#45;&gt;3</title>
<path fill="none" stroke="#ff0000" stroke-width=".2324" d="M108.3587,-134.8721C111.1786,-133.6754 114.1765,-132.4531 117,-131.397 165.9721,-113.0786 181.5292,-117.3138 229,-95.397 229.8563,-95.0016 230.7196,-94.5817 231.5839,-94.1433"/>
<polygon fill="#ff0000" stroke="#ff0000" stroke-width=".2324" points="233.6551,-96.9917 240.6158,-89.0042 230.1933,-90.9076 233.6551,-96.9917"/>
</g>
<!-- &#45;9&#45;&gt;4 -->
<g id="edge51" class="edge">
<title>&#45;9&#45;&gt;4</title>
<path fill="none" stroke="#00ff00" stroke-width=".4278" d="M108.2927,-134.6828C111.116,-133.4959 114.132,-132.3255 117,-131.397 186.3452,-108.9463 209.5206,-122.9528 277,-95.397 277.8732,-95.0404 278.7508,-94.6535 279.6271,-94.2428"/>
<polygon fill="#00ff00" stroke="#00ff00" stroke-width=".4278" points="281.6473,-97.1258 288.7154,-89.2333 278.2681,-90.9954 281.6473,-97.1258"/>
</g>
<!-- &#45;9&#45;&gt;5 -->
<g id="edge52" class="edge">
<title>&#45;9&#45;&gt;5</title>
<path fill="none" stroke="#ff0000" stroke-width=".1726" d="M108.2597,-134.5762C111.0847,-133.3948 114.1097,-132.2536 117,-131.397 206.9512,-104.7369 237.2856,-128.686 325,-95.397 325.8818,-95.0623 326.7667,-94.694 327.6493,-94.299"/>
<polygon fill="#ff0000" stroke="#ff0000" stroke-width=".1726" points="329.639,-97.2018 336.7664,-89.3627 326.3061,-91.0462 329.639,-97.2018"/>
</g>
<!-- &#45;9&#45;&gt;6 -->
<g id="edge53" class="edge">
<title>&#45;9&#45;&gt;6</title>
<path fill="none" stroke="#00ff00" stroke-width=".135" d="M108.2401,-134.5081C111.0661,-133.3303 114.0965,-132.2077 117,-131.397 227.6639,-100.4956 264.9466,-134.459 373,-95.397 373.887,-95.0763 374.7763,-94.7199 375.6626,-94.335"/>
<polygon fill="#00ff00" stroke="#00ff00" stroke-width=".135" points="377.6324,-97.2505 384.797,-89.4454 374.3289,-91.079 377.6324,-97.2505"/>
</g>
<!-- &#45;9&#45;&gt;7 -->
<g id="edge54" class="edge">
<title>&#45;9&#45;&gt;7</title>
<path fill="none" stroke="#00ff00" stroke-width=".2019" d="M108.2272,-134.461C111.0539,-133.2857 114.0878,-132.176 117,-131.397 248.4339,-96.2382 292.5516,-140.2524 421,-95.397 421.8905,-95.086 422.7827,-94.7379 423.6714,-94.3599"/>
<polygon fill="#00ff00" stroke="#00ff00" stroke-width=".2019" points="425.6272,-97.2842 432.8174,-89.5028 422.3439,-91.1019 425.6272,-97.2842"/>
</g>
<!-- &#45;10 -->
<g id="node10" class="node">
<title>&#45;10</title>
<polygon fill="#d3d3d3" stroke="#000000" points="155.5,-149.397 126.5,-149.397 126.5,-131.397 155.5,-131.397 155.5,-149.397"/>
<text text-anchor="middle" x="141" y="-138.197" font-family="Times,serif" font-size="9.00" fill="#000000">&#45;10</text>
</g>
<!-- &#45;10&#45;&gt;2 -->
<g id="edge55" class="edge">
<title>&#45;10&#45;&gt;2</title>
<path fill="none" stroke="#00ff00" stroke-width=".1988" d="M150.7202,-131.3072C160.1529,-122.4862 174.7131,-108.8704 186.3796,-97.9605"/>
<polygon fill="#00ff00" stroke="#00ff00" stroke-width=".1988" points="188.9821,-100.3188 193.8955,-90.9321 184.2009,-95.206 188.9821,-100.3188"/>
</g>
<!-- &#45;10&#45;&gt;3 -->
<g id="edge56" class="edge">
<title>&#45;10&#45;&gt;3</title>
<path fill="none" stroke="#00ff00" stroke-width=".4488" d="M155.5179,-133.4242C173.1212,-124.8668 203.5895,-109.7236 229,-95.397 229.8216,-94.9337 230.6554,-94.4562 231.4948,-93.9692"/>
<polygon fill="#00ff00" stroke="#00ff00" stroke-width=".4488" points="233.6474,-96.7587 240.4107,-88.6034 230.0379,-90.761 233.6474,-96.7587"/>
</g>
<!-- &#45;10&#45;&gt;4 -->
<g id="edge57" class="edge">
<title>&#45;10&#45;&gt;4</title>
<path fill="none" stroke="#ff0000" stroke-width=".168" d="M155.5474,-134.541C158.3408,-133.463 161.2518,-132.3713 164,-131.397 213.6796,-113.7842 229.1164,-117.4295 277,-95.397 277.8568,-95.0027 278.7205,-94.5838 279.5852,-94.1461"/>
<polygon fill="#ff0000" stroke="#ff0000" stroke-width=".168" points="281.655,-96.9955 288.6188,-89.0108 278.1956,-90.9101 281.655,-96.9955"/>
</g>
<!-- &#45;10&#45;&gt;5 -->
<g id="edge58" class="edge">
<title>&#45;10&#45;&gt;5</title>
<path fill="none" stroke="#ff0000" stroke-width=".1709" d="M155.9774,-134.1562C158.6257,-133.1621 161.3755,-132.1987 164,-131.397 234.1234,-109.975 257.1007,-123.0716 325,-95.397 325.8734,-95.041 326.7512,-94.6546 327.6277,-94.2443"/>
<polygon fill="#ff0000" stroke="#ff0000" stroke-width=".1709" points="329.6471,-97.1279 336.7168,-89.2367 326.2692,-90.9968 329.6471,-97.1279"/>
</g>
<!-- &#45;10&#45;&gt;6 -->
<g id="edge59" class="edge">
<title>&#45;10&#45;&gt;6</title>
<path fill="none" stroke="#00ff00" stroke-width=".306" d="M155.9453,-134.0464C158.5972,-133.0645 161.3565,-132.1337 164,-131.397 254.797,-106.0939 284.8627,-128.806 373,-95.397 373.882,-95.0627 374.767,-94.6947 375.6496,-94.2999"/>
<polygon fill="#00ff00" stroke="#00ff00" stroke-width=".306" points="377.6389,-97.2031 384.7672,-89.3648 374.3067,-91.047 377.6389,-97.2031"/>
</g>
<!-- &#45;10&#45;&gt;7 -->
<g id="edge60" class="edge">
<title>&#45;10&#45;&gt;7</title>
<path fill="none" stroke="#00ff00" stroke-width=".1853" d="M155.9264,-133.9762C158.5804,-133.0021 161.3452,-132.0921 164,-131.397 275.5763,-102.1831 312.5222,-134.5796 421,-95.397 421.8871,-95.0765 422.7765,-94.7203 423.6628,-94.3356"/>
<polygon fill="#00ff00" stroke="#00ff00" stroke-width=".1853" points="425.6323,-97.2513 432.7975,-89.4468 422.3293,-91.0796 425.6323,-97.2513"/>
</g>
<!-- &#45;11 -->
<g id="node11" class="node">
<title>&#45;11</title>
<polygon fill="#d3d3d3" stroke="#000000" points="202.5,-149.397 173.5,-149.397 173.5,-131.397 202.5,-131.397 202.5,-149.397"/>
<text text-anchor="middle" x="188" y="-138.197" font-family="Times,serif" font-size="9.00" fill="#000000">&#45;11</text>
</g>
<!-- &#45;11&#45;&gt;2 -->
<g id="edge61" class="edge">
<title>&#45;11&#45;&gt;2</title>
<path fill="none" stroke="#ff0000" stroke-width=".1833" d="M190.5819,-131.3072C192.601,-124.1989 195.5045,-113.9769 198.1775,-104.5665"/>
<polygon fill="#ff0000" stroke="#ff0000" stroke-width=".1833" points="201.5692,-105.4352 200.9348,-94.8593 194.8356,-103.5224 201.5692,-105.4352"/>
</g>
<!-- &#45;11&#45;&gt;3 -->
<g id="edge62" class="edge">
<title>&#45;11&#45;&gt;3</title>
<path fill="none" stroke="#ff0000" stroke-width=".1168" d="M197.8721,-131.3072C207.4522,-122.4862 222.2399,-108.8704 234.0886,-97.9605"/>
<polygon fill="#ff0000" stroke="#ff0000" stroke-width=".1168" points="236.7362,-100.2805 241.7219,-90.9321 231.9946,-95.1309 236.7362,-100.2805"/>
</g>
<!-- &#45;11&#45;&gt;4 -->
<g id="edge63" class="edge">
<title>&#45;11&#45;&gt;4</title>
<path fill="none" stroke="#00ff00" stroke-width=".212" d="M202.6919,-133.4481C220.5041,-124.9142 251.3274,-109.7943 277,-95.397 277.8227,-94.9356 278.6573,-94.4597 279.4975,-93.974"/>
<polygon fill="#00ff00" stroke="#00ff00" stroke-width=".212" points="281.648,-96.7651 288.4169,-88.6145 278.0426,-90.7649 281.648,-96.7651"/>
</g>
<!-- &#45;11&#45;&gt;5 -->
<g id="edge64" class="edge">
<title>&#45;11&#45;&gt;5</title>
<path fill="none" stroke="#ff0000" stroke-width=".323" d="M202.5454,-134.5353C205.339,-133.4579 208.2506,-132.3678 211,-131.397 261.1014,-113.7062 276.7034,-117.5453 325,-95.397 325.8573,-95.0038 326.7215,-94.5858 327.5865,-94.1489"/>
<polygon fill="#ff0000" stroke="#ff0000" stroke-width=".323" points="329.6549,-96.9993 336.6218,-89.0172 326.1978,-90.9125 329.6549,-96.9993"/>
</g>
<!-- &#45;11&#45;&gt;6 -->
<g id="edge65" class="edge">
<title>&#45;11&#45;&gt;6</title>
<path fill="none" stroke="#00ff00" stroke-width=".3773" d="M202.9765,-134.1533C205.6249,-133.1595 208.375,-132.197 211,-131.397 281.5525,-109.8946 304.6807,-123.1904 373,-95.397 373.8737,-95.0415 374.7516,-94.6556 375.6283,-94.2458"/>
<polygon fill="#00ff00" stroke="#00ff00" stroke-width=".3773" points="377.6469,-97.1298 384.7182,-89.2401 374.2702,-90.9981 377.6469,-97.1298"/>
</g>
<!-- &#45;11&#45;&gt;7 -->
<g id="edge66" class="edge">
<title>&#45;11&#45;&gt;7</title>
<path fill="none" stroke="#00ff00" stroke-width=".2467" d="M202.9448,-134.0446C205.5968,-133.0629 208.3562,-132.1326 211,-131.397 302.2291,-106.0127 332.4397,-128.926 421,-95.397 421.8821,-95.063 422.7672,-94.6953 423.65,-94.3008"/>
<polygon fill="#00ff00" stroke="#00ff00" stroke-width=".2467" points="425.6387,-97.2043 432.768,-89.3669 422.3073,-91.0478 425.6387,-97.2043"/>
</g>
<!-- &#45;12 -->
<g id="node12" class="node">
<title>&#45;12</title>
<polygon fill="#d3d3d3" stroke="#000000" points="249.5,-149.397 220.5,-149.397 220.5,-131.397 249.5,-131.397 249.5,-149.397"/>
<text text-anchor="middle" x="235" y="-138.197" font-family="Times,serif" font-size="9.00" fill="#000000">&#45;12</text>
</g>
<!-- &#45;12&#45;&gt;2 -->
<g id="edge67" class="edge">
<title>&#45;12&#45;&gt;2</title>
<path fill="none" stroke="#ff0000" stroke-width=".1727" d="M230.4436,-131.3072C226.7064,-123.8515 221.2521,-112.9702 216.3511,-103.1928"/>
<polygon fill="#ff0000" stroke="#ff0000" stroke-width=".1727" points="219.3287,-101.3225 211.7186,-93.9511 213.0708,-104.4593 219.3287,-101.3225"/>
</g>
<!-- &#45;12&#45;&gt;3 -->
<g id="edge68" class="edge">
<title>&#45;12&#45;&gt;3</title>
<path fill="none" stroke="#ff0000" stroke-width=".4649" d="M237.7338,-131.3072C239.8717,-124.1989 242.946,-113.9769 245.7762,-104.5665"/>
<polygon fill="#ff0000" stroke="#ff0000" stroke-width=".4649" points="249.1672,-105.4437 248.6957,-94.8593 242.4638,-103.4275 249.1672,-105.4437"/>
</g>
<!-- &#45;12&#45;&gt;4 -->
<g id="edge69" class="edge">
<title>&#45;12&#45;&gt;4</title>
<path fill="none" stroke="#ff0000" stroke-width=".2029" d="M245.024,-131.3072C254.9633,-122.2941 270.4232,-108.275 282.5794,-97.2516"/>
<polygon fill="#ff0000" stroke="#ff0000" stroke-width=".2029" points="284.9428,-99.8333 289.9995,-90.523 280.2406,-94.6478 284.9428,-99.8333"/>
</g>
<!-- &#45;12&#45;&gt;5 -->
<g id="edge70" class="edge">
<title>&#45;12&#45;&gt;5</title>
<path fill="none" stroke="#ff0000" stroke-width=".1189" d="M249.5492,-133.6216C267.5198,-125.1395 298.9123,-109.9503 325,-95.397 325.8237,-94.9375 326.6592,-94.4631 327.5001,-93.9787"/>
<polygon fill="#ff0000" stroke="#ff0000" stroke-width=".1189" points="329.6486,-96.7714 336.423,-88.6254 326.0473,-90.7688 329.6486,-96.7714"/>
</g>
<!-- &#45;12&#45;&gt;6 -->
<g id="edge71" class="edge">
<title>&#45;12&#45;&gt;6</title>
<path fill="none" stroke="#00ff00" stroke-width=".2739" d="M249.5434,-134.5298C252.3372,-133.4528 255.2494,-132.3643 258,-131.397 308.5234,-113.6282 324.2901,-117.6612 373,-95.397 373.8578,-95.0049 374.7224,-94.5878 375.5877,-94.1517"/>
<polygon fill="#00ff00" stroke="#00ff00" stroke-width=".2739" points="377.6548,-97.003 384.6247,-89.0235 374.2,-90.9149 377.6548,-97.003"/>
</g>
<!-- &#45;12&#45;&gt;7 -->
<g id="edge72" class="edge">
<title>&#45;12&#45;&gt;7</title>
<path fill="none" stroke="#00ff00" stroke-width=".1224" d="M249.9756,-134.1504C252.6242,-133.157 255.3744,-132.1953 258,-131.397 328.9816,-109.8142 352.2606,-123.3093 421,-95.397 421.8739,-95.0421 422.7521,-94.6567 423.6289,-94.2472"/>
<polygon fill="#00ff00" stroke="#00ff00" stroke-width=".1224" points="425.6467,-97.1318 432.7196,-89.2435 422.2712,-90.9994 425.6467,-97.1318"/>
</g>
<!-- &#45;13 -->
<g id="node13" class="node">
<title>&#45;13</title>
<polygon fill="#d3d3d3" stroke="#000000" points="296.5,-149.397 267.5,-149.397 267.5,-131.397 296.5,-131.397 296.5,-149.397"/>
<text text-anchor="middle" x="282" y="-138.197" font-family="Times,serif" font-size="9.00" fill="#000000">&#45;13</text>
</g>
<!-- &#45;13&#45;&gt;2 -->
<g id="edge73" class="edge">
<title>&#45;13&#45;&gt;2</title>
<path fill="none" stroke="#ff0000" stroke-width=".1908" d="M270.3054,-131.3072C258.3203,-121.9916 239.4551,-107.3284 225.0762,-96.1522"/>
<polygon fill="#ff0000" stroke="#ff0000" stroke-width=".1908" points="226.8481,-93.0966 216.8047,-89.7231 222.5523,-98.6234 226.8481,-93.0966"/>
</g>
<!-- &#45;13&#45;&gt;3 -->
<g id="edge74" class="edge">
<title>&#45;13&#45;&gt;3</title>
<path fill="none" stroke="#ff0000" stroke-width=".2015" d="M277.5955,-131.3072C273.9829,-123.8515 268.7103,-112.9702 263.9727,-103.1928"/>
<polygon fill="#ff0000" stroke="#ff0000" stroke-width=".2015" points="267.005,-101.4241 259.4946,-93.9511 260.7055,-104.4765 267.005,-101.4241"/>
</g>
<!-- &#45;13&#45;&gt;4 -->
<g id="edge75" class="edge">
<title>&#45;13&#45;&gt;4</title>
<path fill="none" stroke="#00ff00" stroke-width=".1861" d="M284.8857,-131.3072C287.1423,-124.1989 290.3874,-113.9769 293.3749,-104.5665"/>
<polygon fill="#00ff00" stroke="#00ff00" stroke-width=".1861" points="296.7666,-105.4496 296.4566,-94.8593 290.0947,-103.3315 296.7666,-105.4496"/>
</g>
<!-- &#45;13&#45;&gt;5 -->
<g id="edge76" class="edge">
<title>&#45;13&#45;&gt;5</title>
<path fill="none" stroke="#00ff00" stroke-width=".2068" d="M292.1759,-131.3072C302.2658,-122.2941 317.9599,-108.275 330.3003,-97.2516"/>
<polygon fill="#00ff00" stroke="#00ff00" stroke-width=".2068" points="332.7067,-99.7952 337.8329,-90.523 328.0433,-94.5747 332.7067,-99.7952"/>
</g>
<!-- &#45;13&#45;&gt;6 -->
<g id="edge77" class="edge">
<title>&#45;13&#45;&gt;6</title>
<path fill="none" stroke="#ff0000" stroke-width=".1838" d="M296.7192,-133.6453C314.898,-125.1869 346.6479,-110.0218 373,-95.397 373.8247,-94.9393 374.6611,-94.4665 375.5027,-93.9834"/>
<polygon fill="#ff0000" stroke="#ff0000" stroke-width=".1838" points="377.6491,-96.7776 384.429,-88.6361 374.0518,-90.7726 377.6491,-96.7776"/>
</g>
<!-- &#45;13&#45;&gt;7 -->
<g id="edge78" class="edge">
<title>&#45;13&#45;&gt;7</title>
<path fill="none" stroke="#00ff00" stroke-width=".2913" d="M296.5415,-134.5243C299.3355,-133.4478 302.2482,-132.361 305,-131.397 355.9457,-113.55 371.8767,-117.7772 421,-95.397 421.8583,-95.0059 422.7232,-94.5897 423.589,-94.1544"/>
<polygon fill="#00ff00" stroke="#00ff00" stroke-width=".2913" points="425.6547,-97.0066 432.6275,-89.0298 422.2022,-90.9173 425.6547,-97.0066"/>
</g>
<!-- &#45;14 -->
<g id="node14" class="node">
<title>&#45;14</title>
<polygon fill="#d3d3d3" stroke="#000000" points="343.5,-149.397 314.5,-149.397 314.5,-131.397 343.5,-131.397 343.5,-149.397"/>
<text text-anchor="middle" x="329" y="-138.197" font-family="Times,serif" font-size="9.00" fill="#000000">&#45;14</text>
</g>
<!-- &#45;14&#45;&gt;2 -->
<g id="edge79" class="edge">
<title>&#45;14&#45;&gt;2</title>
<path fill="none" stroke="#ff0000" stroke-width=".5" d="M314.4751,-134.5665C294.7583,-126.4938 258.5884,-111.1206 229,-95.397 228.1671,-94.9544 227.3238,-94.4943 226.4763,-94.0221"/>
<polygon fill="#ff0000" stroke="#ff0000" stroke-width=".5" points="227.9114,-90.8045 217.5226,-88.7252 224.3472,-96.8292 227.9114,-90.8045"/>
</g>
<!-- &#45;14&#45;&gt;3 -->
<g id="edge80" class="edge">
<title>&#45;14&#45;&gt;3</title>
<path fill="none" stroke="#00ff00" stroke-width=".1279" d="M317.4572,-131.3072C305.6966,-122.0458 287.2239,-107.4987 273.0635,-96.3475"/>
<polygon fill="#00ff00" stroke="#00ff00" stroke-width=".1279" points="274.9242,-93.3579 264.9024,-89.9208 270.5934,-98.8574 274.9242,-93.3579"/>
</g>
<!-- &#45;14&#45;&gt;4 -->
<g id="edge81" class="edge">
<title>&#45;14&#45;&gt;4</title>
<path fill="none" stroke="#ff0000" stroke-width=".2671" d="M324.7474,-131.3072C321.3052,-123.9496 316.3023,-113.256 311.7752,-103.5793"/>
<polygon fill="#ff0000" stroke="#ff0000" stroke-width=".2671" points="314.8899,-101.9775 307.482,-94.4029 308.5495,-104.9438 314.8899,-101.9775"/>
</g>
<!-- &#45;14&#45;&gt;5 -->
<g id="edge82" class="edge">
<title>&#45;14&#45;&gt;5</title>
<path fill="none" stroke="#00ff00" stroke-width=".2362" d="M332.0376,-131.3072C334.413,-124.1989 337.8289,-113.9769 340.9736,-104.5665"/>
<polygon fill="#00ff00" stroke="#00ff00" stroke-width=".2362" points="344.3675,-105.4531 344.2174,-94.8593 337.7284,-103.2345 344.3675,-105.4531"/>
</g>
<!-- &#45;14&#45;&gt;6 -->
<g id="edge83" class="edge">
<title>&#45;14&#45;&gt;6</title>
<path fill="none" stroke="#ff0000" stroke-width=".1179" d="M339.3277,-131.3072C349.5683,-122.2941 365.4966,-108.275 378.0212,-97.2516"/>
<polygon fill="#ff0000" stroke="#ff0000" stroke-width=".1179" points="380.4719,-99.7572 385.6662,-90.523 375.8471,-94.5026 380.4719,-99.7572"/>
</g>
<!-- &#45;14&#45;&gt;7 -->
<g id="edge84" class="edge">
<title>&#45;14&#45;&gt;7</title>
<path fill="none" stroke="#ff0000" stroke-width=".1454" d="M343.568,-133.8163C361.9002,-125.4117 394.2275,-110.1794 421,-95.397 421.8257,-94.9411 422.6629,-94.4698 423.5053,-93.988"/>
<polygon fill="#ff0000" stroke="#ff0000" stroke-width=".1454" points="425.6496,-96.7837 432.4348,-88.6467 422.0563,-90.7764 425.6496,-96.7837"/>
</g>
<!-- &#45;15 -->
<g id="node15" class="node">
<title>&#45;15</title>
<polygon fill="#d3d3d3" stroke="#000000" points="390.5,-149.397 361.5,-149.397 361.5,-131.397 390.5,-131.397 390.5,-149.397"/>
<text text-anchor="middle" x="376" y="-138.197" font-family="Times,serif" font-size="9.00" fill="#000000">&#45;15</text>
</g>
<!-- &#45;15&#45;&gt;2 -->
<g id="edge85" class="edge">
<title>&#45;15&#45;&gt;2</title>
<path fill="none" stroke="#00ff00" stroke-width=".2377" d="M361.4726,-134.4834C358.6773,-133.4107 355.7605,-132.3357 353,-131.397 298.6684,-112.9222 281.4386,-118.7085 229,-95.397 228.1381,-95.0138 227.2702,-94.6043 226.4019,-94.1746"/>
<polygon fill="#00ff00" stroke="#00ff00" stroke-width=".2377" points="227.782,-90.935 217.3515,-89.0764 224.3464,-97.0339 227.782,-90.935"/>
</g>
<!-- &#45;15&#45;&gt;3 -->
<g id="edge86" class="edge">
<title>&#45;15&#45;&gt;3</title>
<path fill="none" stroke="#ff0000" stroke-width=".2452" d="M361.2922,-134.4057C341.707,-126.2717 306.1465,-110.9564 277,-95.397 276.1679,-94.9528 275.3253,-94.4914 274.4784,-94.018"/>
<polygon fill="#ff0000" stroke="#ff0000" stroke-width=".2452" points="275.9152,-90.8012 265.5276,-88.7159 272.3476,-96.8238 275.9152,-90.8012"/>
</g>
<!-- &#45;15&#45;&gt;4 -->
<g id="edge87" class="edge">
<title>&#45;15&#45;&gt;4</title>
<path fill="none" stroke="#ff0000" stroke-width=".1485" d="M364.6091,-131.3072C353.0711,-122.0999 334.9866,-107.6687 321.0451,-96.5435"/>
<polygon fill="#ff0000" stroke="#ff0000" stroke-width=".1485" points="322.9949,-93.6217 312.9955,-90.12 318.6287,-99.0931 322.9949,-93.6217"/>
</g>
<!-- &#45;15&#45;&gt;5 -->
<g id="edge88" class="edge">
<title>&#45;15&#45;&gt;5</title>
<path fill="none" stroke="#ff0000" stroke-width=".2285" d="M371.8993,-131.3072C368.58,-123.9496 363.7558,-113.256 359.3903,-103.5793"/>
<polygon fill="#ff0000" stroke="#ff0000" stroke-width=".2285" points="362.5532,-102.0789 355.2505,-94.4029 356.1724,-104.9575 362.5532,-102.0789"/>
</g>
<!-- &#45;15&#45;&gt;6 -->
<g id="edge89" class="edge">
<title>&#45;15&#45;&gt;6</title>
<path fill="none" stroke="#ff0000" stroke-width=".1787" d="M379.1894,-131.3072C381.6836,-124.1989 385.2703,-113.9769 388.5723,-104.5665"/>
<polygon fill="#ff0000" stroke="#ff0000" stroke-width=".1787" points="391.9699,-105.4542 391.9783,-94.8593 385.3647,-103.1365 391.9699,-105.4542"/>
</g>
<!-- &#45;15&#45;&gt;7 -->
<g id="edge90" class="edge">
<title>&#45;15&#45;&gt;7</title>
<path fill="none" stroke="#ff0000" stroke-width=".3378" d="M386.4796,-131.3072C396.8708,-122.2941 413.0333,-108.275 425.7421,-97.2516"/>
<polygon fill="#ff0000" stroke="#ff0000" stroke-width=".3378" points="428.2386,-99.7194 433.4995,-90.523 423.6519,-94.4315 428.2386,-99.7194"/>
</g>
<!-- 0 -->
<g id="node16" class="node">
<title>0</title>
<ellipse fill="#add8e6" stroke="#000000" cx="301" cy="-14.8492" rx="14.7" ry="14.7"/>
<text text-anchor="middle" x="301" y="-12.6492" font-family="Times,serif" font-size="9.00" fill="#000000">0</text>
</g>
<!-- 1 -->
<g id="node17" class="node">
<title>1</title>
<ellipse fill="#add8e6" stroke="#000000" cx="349" cy="-14.8492" rx="14.7" ry="14.7"/>
<text text-anchor="middle" x="349" y="-12.6492" font-family="Times,serif" font-size="9.00" fill="#000000">1</text>
</g>
<!-- 2&#45;&gt;0 -->
<g id="edge91" class="edge">
<title>2&#45;&gt;0</title>
<path fill="none" stroke="#00ff00" stroke-width=".232" d="M217.5503,-71.9588C233.4333,-61.0892 261.0163,-42.2124 280.0997,-29.1526"/>
<polygon fill="#00ff00" stroke="#00ff00" stroke-width=".232" points="282.1708,-31.9764 288.4466,-23.4403 278.2174,-26.1996 282.1708,-31.9764"/>
</g>
<!-- 2&#45;&gt;1 -->
<g id="edge92" class="edge">
<title>2&#45;&gt;1</title>
<path fill="none" stroke="#ff0000" stroke-width=".1288" d="M217.4414,-72.2113C221.0842,-69.9473 225.1296,-67.5988 229,-65.6985 269.9035,-45.615 284.0965,-49.782 325,-29.6985 325.8466,-29.2828 326.7017,-28.8456 327.559,-28.3926"/>
<polygon fill="#ff0000" stroke="#ff0000" stroke-width=".1288" points="329.6558,-31.2231 336.5586,-23.1856 326.1501,-25.1642 329.6558,-31.2231"/>
</g>
<!-- 3&#45;&gt;0 -->
<g id="edge93" class="edge">
<title>3&#45;&gt;0</title>
<path fill="none" stroke="#00ff00" stroke-width=".4017" d="M261.8039,-68.4976C268.5524,-59.2609 278.0239,-46.297 285.9657,-35.4269"/>
<polygon fill="#00ff00" stroke="#00ff00" stroke-width=".4017" points="288.8524,-37.4087 291.9257,-27.2694 283.2003,-33.2791 288.8524,-37.4087"/>
</g>
<!-- 3&#45;&gt;1 -->
<g id="edge94" class="edge">
<title>3&#45;&gt;1</title>
<path fill="none" stroke="#00ff00" stroke-width=".2986" d="M265.5503,-71.9588C281.4333,-61.0892 309.0163,-42.2124 328.0997,-29.1526"/>
<polygon fill="#00ff00" stroke="#00ff00" stroke-width=".2986" points="330.1708,-31.9764 336.4466,-23.4403 326.2174,-26.1996 330.1708,-31.9764"/>
</g>
<!-- 4&#45;&gt;0 -->
<g id="edge95" class="edge">
<title>4&#45;&gt;0</title>
<path fill="none" stroke="#00ff00" stroke-width=".3124" d="M301,-65.6397C301,-58.1862 301,-48.9551 301,-40.4154"/>
<polygon fill="#00ff00" stroke="#00ff00" stroke-width=".3124" points="304.5001,-40.1541 301,-30.1542 297.5001,-40.1542 304.5001,-40.1541"/>
</g>
<!-- 4&#45;&gt;1 -->
<g id="edge96" class="edge">
<title>4&#45;&gt;1</title>
<path fill="none" stroke="#ff0000" stroke-width=".1041" d="M309.8039,-68.4976C316.5524,-59.2609 326.0239,-46.297 333.9657,-35.4269"/>
<polygon fill="#ff0000" stroke="#ff0000" stroke-width=".1041" points="336.8524,-37.4087 339.9257,-27.2694 331.2003,-33.2791 336.8524,-37.4087"/>
</g>
<!-- 5&#45;&gt;0 -->
<g id="edge97" class="edge">
<title>5&#45;&gt;0</title>
<path fill="none" stroke="#00ff00" stroke-width=".1723" d="M340.1961,-68.4976C333.4476,-59.2609 323.9761,-46.297 316.0343,-35.4269"/>
<polygon fill="#00ff00" stroke="#00ff00" stroke-width=".1723" points="318.7997,-33.2791 310.0743,-27.2694 313.1476,-37.4087 318.7997,-33.2791"/>
</g>
<!-- 5&#45;&gt;1 -->
<g id="edge98" class="edge">
<title>5&#45;&gt;1</title>
<path fill="none" stroke="#00ff00" stroke-width=".3268" d="M349,-65.6397C349,-58.1862 349,-48.9551 349,-40.4154"/>
<polygon fill="#00ff00" stroke="#00ff00" stroke-width=".3268" points="352.5001,-40.1541 349,-30.1542 345.5001,-40.1542 352.5001,-40.1541"/>
</g>
<!-- 6&#45;&gt;0 -->
<g id="edge99" class="edge">
<title>6&#45;&gt;0</title>
<path fill="none" stroke="#ff0000" stroke-width=".4006" d="M384.4497,-71.9588C368.5667,-61.0892 340.9837,-42.2124 321.9003,-29.1526"/>
<polygon fill="#ff0000" stroke="#ff0000" stroke-width=".4006" points="323.7826,-26.1996 313.5534,-23.4403 319.8292,-31.9764 323.7826,-26.1996"/>
</g>
<!-- 6&#45;&gt;1 -->
<g id="edge100" class="edge">
<title>6&#45;&gt;1</title>
<path fill="none" stroke="#00ff00" stroke-width=".3367" d="M388.1961,-68.4976C381.4476,-59.2609 371.9761,-46.297 364.0343,-35.4269"/>
<polygon fill="#00ff00" stroke="#00ff00" stroke-width=".3367" points="366.7997,-33.2791 358.0743,-27.2694 361.1476,-37.4087 366.7997,-33.2791"/>
</g>
<!-- 7&#45;&gt;0 -->
<g id="edge101" class="edge">
<title>7&#45;&gt;0</title>
<path fill="none" stroke="#00ff00" stroke-width=".2043" d="M432.5586,-72.2113C428.9158,-69.9473 424.8704,-67.5988 421,-65.6985 380.0965,-45.615 365.9035,-49.782 325,-29.6985 324.1534,-29.2828 323.2983,-28.8456 322.441,-28.3926"/>
<polygon fill="#00ff00" stroke="#00ff00" stroke-width=".2043" points="323.8499,-25.1642 313.4414,-23.1856 320.3442,-31.2231 323.8499,-25.1642"/>
</g>
<!-- 7&#45;&gt;1 -->
<g id="edge102" class="edge">
<title>7&#45;&gt;1</title>
<path fill="none" stroke="#00ff00" stroke-width=".2491" d="M432.4497,-71.9588C416.5667,-61.0892 388.9837,-42.2124 369.9003,-29.1526"/>
<polygon fill="#00ff00" stroke="#00ff00" stroke-width=".2491" points="371.7826,-26.1996 361.5534,-23.4403 367.8292,-31.9764 371.7826,-26.1996"/>
</g>
</g>
</svg>
