<?xml version="1.0" encoding="UTF-8" standalone="no"?>
<!DOCTYPE svg PUBLIC "-//W3C//DTD SVG 1.1//EN"
 "http://www.w3.org/Graphics/SVG/1.1/DTD/svg11.dtd">
<!-- Generated by graphviz version 2.43.0 (0)
 -->
<!-- Title: %3 Pages: 1 -->
<svg width="826pt" height="180pt"
 viewBox="0.00 0.00 825.58 180.02" xmlns="http://www.w3.org/2000/svg" xmlns:xlink="http://www.w3.org/1999/xlink">
<g id="graph0" class="graph" transform="scale(1 1) rotate(0) translate(4 176.02)">
<title>%3</title>
<polygon fill="white" stroke="transparent" points="-4,4 -4,-176.02 821.58,-176.02 821.58,4 -4,4"/>
<!-- &#45;1 -->
<g id="node1" class="node">
<title>&#45;1</title>
<polygon fill="lightgray" stroke="black" points="640.18,-172.02 614.18,-172.02 614.18,-154.02 640.18,-154.02 640.18,-172.02"/>
<text text-anchor="middle" x="627.18" y="-160.82" font-family="Times,serif" font-size="9.00">&#45;1</text>
</g>
<!-- 0 -->
<g id="node16" class="node">
<title>0</title>
<ellipse fill="lightblue" stroke="black" cx="330.18" cy="-16.26" rx="16.03" ry="16.03"/>
<text text-anchor="middle" x="330.18" y="-14.06" font-family="Times,serif" font-size="9.00">0</text>
</g>
<!-- &#45;1&#45;&gt;0 -->
<g id="edge102" class="edge">
<title>&#45;1&#45;&gt;0</title>
<path fill="none" stroke="green" stroke-width="0.17" d="M634.32,-153.97C649.04,-136.36 679.61,-93.97 657.18,-68.53 614.96,-20.64 434.23,-47.52 372.18,-32.53 366.43,-31.14 360.38,-29.22 354.72,-27.22"/>
<polygon fill="green" stroke="green" stroke-width="0.17" points="355.69,-23.84 345.09,-23.6 353.23,-30.39 355.69,-23.84"/>
</g>
<!-- 1 -->
<g id="node17" class="node">
<title>1</title>
<ellipse fill="lightblue" stroke="black" cx="397.18" cy="-16.26" rx="16.03" ry="16.03"/>
<text text-anchor="middle" x="397.18" y="-14.06" font-family="Times,serif" font-size="9.00">1</text>
</g>
<!-- &#45;1&#45;&gt;1 -->
<g id="edge103" class="edge">
<title>&#45;1&#45;&gt;1</title>
<path fill="none" stroke="green" stroke-width="0.23" d="M640.61,-156.91C643.42,-155.9 646.39,-154.89 649.18,-154.02 710.13,-135.1 749.12,-168.49 788.18,-118.02 801.65,-100.63 802.69,-85.06 788.18,-68.53 764.06,-41.04 507.9,-23.73 423.78,-18.75"/>
<polygon fill="green" stroke="green" stroke-width="0.23" points="423.93,-15.26 413.74,-18.17 423.52,-22.24 423.93,-15.26"/>
</g>
<!-- 610 -->
<g id="node18" class="node">
<title>610</title>
<ellipse fill="white" stroke="black" cx="464.18" cy="-93.28" rx="25" ry="25"/>
<text text-anchor="middle" x="464.18" y="-91.08" font-family="Times,serif" font-size="9.00">610</text>
</g>
<!-- &#45;1&#45;&gt;610 -->
<g id="edge3" class="edge">
<title>&#45;1&#45;&gt;610</title>
<path fill="none" stroke="green" stroke-width="0.1" d="M614.17,-157.23C611.22,-156.16 608.1,-155.04 605.18,-154.02 557.4,-137.38 542.23,-141.06 497.18,-118.02 495.39,-117.11 493.59,-116.1 491.8,-115.04"/>
<polygon fill="green" stroke="green" stroke-width="0.1" points="493.39,-111.89 483.1,-109.36 489.57,-117.76 493.39,-111.89"/>
</g>
<!-- 608 -->
<g id="node19" class="node">
<title>608</title>
<ellipse fill="white" stroke="black" cx="531.18" cy="-93.28" rx="25" ry="25"/>
<text text-anchor="middle" x="531.18" y="-91.08" font-family="Times,serif" font-size="9.00">608</text>
</g>
<!-- &#45;1&#45;&gt;608 -->
<g id="edge1" class="edge">
<title>&#45;1&#45;&gt;608</title>
<path fill="none" stroke="green" stroke-width="0.32" d="M615.79,-153.99C602.01,-144.26 578.31,-127.54 559.5,-114.26"/>
<polygon fill="green" stroke="green" stroke-width="0.32" points="561.44,-111.34 551.25,-108.44 557.4,-117.06 561.44,-111.34"/>
</g>
<!-- 609 -->
<g id="node20" class="node">
<title>609</title>
<ellipse fill="white" stroke="black" cx="157.18" cy="-93.28" rx="25" ry="25"/>
<text text-anchor="middle" x="157.18" y="-91.08" font-family="Times,serif" font-size="9.00">609</text>
</g>
<!-- &#45;1&#45;&gt;609 -->
<g id="edge2" class="edge">
<title>&#45;1&#45;&gt;609</title>
<path fill="none" stroke="red" stroke-width="0.18" d="M613.85,-156.57C611.02,-155.58 608.03,-154.67 605.18,-154.02 441.43,-117.04 393.47,-152.53 229.18,-118.02 216.1,-115.28 202.06,-110.97 189.89,-106.78"/>
<polygon fill="red" stroke="red" stroke-width="0.18" points="190.76,-103.37 180.17,-103.32 188.41,-109.97 190.76,-103.37"/>
</g>
<!-- 611 -->
<g id="node21" class="node">
<title>611</title>
<ellipse fill="white" stroke="black" cx="263.18" cy="-93.28" rx="25" ry="25"/>
<text text-anchor="middle" x="263.18" y="-91.08" font-family="Times,serif" font-size="9.00">611</text>
</g>
<!-- &#45;1&#45;&gt;611 -->
<g id="edge4" class="edge">
<title>&#45;1&#45;&gt;611</title>
<path fill="none" stroke="red" stroke-width="0.28" d="M613.84,-156.61C611.01,-155.63 608.03,-154.7 605.18,-154.02 470.63,-122.18 425.09,-168.01 296.18,-118.02 294.3,-117.3 292.44,-116.44 290.6,-115.48"/>
<polygon fill="red" stroke="red" stroke-width="0.28" points="292.13,-112.32 281.76,-110.11 288.49,-118.3 292.13,-112.32"/>
</g>
<!-- 612 -->
<g id="node22" class="node">
<title>612</title>
<ellipse fill="white" stroke="black" cx="330.18" cy="-93.28" rx="25" ry="25"/>
<text text-anchor="middle" x="330.18" y="-91.08" font-family="Times,serif" font-size="9.00">612</text>
</g>
<!-- &#45;1&#45;&gt;612 -->
<g id="edge5" class="edge">
<title>&#45;1&#45;&gt;612</title>
<path fill="none" stroke="red" stroke-width="0.2" d="M613.82,-156.68C611,-155.69 608.02,-154.74 605.18,-154.02 499.77,-127.31 463.93,-158.94 363.18,-118.02 361.32,-117.27 359.46,-116.38 357.63,-115.41"/>
<polygon fill="red" stroke="red" stroke-width="0.2" points="359.16,-112.25 348.81,-109.99 355.5,-118.21 359.16,-112.25"/>
</g>
<!-- 613 -->
<g id="node23" class="node">
<title>613</title>
<ellipse fill="white" stroke="black" cx="397.18" cy="-93.28" rx="25" ry="25"/>
<text text-anchor="middle" x="397.18" y="-91.08" font-family="Times,serif" font-size="9.00">613</text>
</g>
<!-- &#45;1&#45;&gt;613 -->
<g id="edge6" class="edge">
<title>&#45;1&#45;&gt;613</title>
<path fill="none" stroke="green" stroke-width="0.16" d="M613.79,-156.8C610.97,-155.8 608,-154.82 605.18,-154.02 528.78,-132.4 502.9,-149.92 430.18,-118.02 428.34,-117.22 426.5,-116.29 424.68,-115.29"/>
<polygon fill="green" stroke="green" stroke-width="0.16" points="426.23,-112.13 415.9,-109.79 422.51,-118.07 426.23,-112.13"/>
</g>
<!-- &#45;2 -->
<g id="node2" class="node">
<title>&#45;2</title>
<polygon fill="lightgray" stroke="black" points="508.18,-172.02 482.18,-172.02 482.18,-154.02 508.18,-154.02 508.18,-172.02"/>
<text text-anchor="middle" x="495.18" y="-160.82" font-family="Times,serif" font-size="9.00">&#45;2</text>
</g>
<!-- &#45;2&#45;&gt;0 -->
<g id="edge104" class="edge">
<title>&#45;2&#45;&gt;0</title>
<path fill="none" stroke="red" stroke-width="0.22" d="M508.44,-157.07C536.67,-146.47 600.37,-122.2 603.18,-118.02 615.46,-99.77 617.49,-85.24 603.18,-68.53 569.39,-29.06 422.5,-45.46 372.18,-32.53 366.45,-31.05 360.41,-29.1 354.75,-27.09"/>
<polygon fill="red" stroke="red" stroke-width="0.22" points="355.71,-23.72 345.12,-23.49 353.26,-30.27 355.71,-23.72"/>
</g>
<!-- &#45;2&#45;&gt;1 -->
<g id="edge105" class="edge">
<title>&#45;2&#45;&gt;1</title>
<path fill="none" stroke="red" stroke-width="0.27" d="M508.55,-156.72C511.37,-155.73 514.35,-154.77 517.18,-154.02 563.81,-141.73 700.04,-154.84 731.18,-118.02 745.39,-101.23 745.51,-85.22 731.18,-68.53 691.39,-22.16 495.21,-17.31 423.5,-17.11"/>
<polygon fill="red" stroke="red" stroke-width="0.27" points="423.47,-13.61 413.47,-17.11 423.47,-20.61 423.47,-13.61"/>
</g>
<!-- &#45;2&#45;&gt;610 -->
<g id="edge9" class="edge">
<title>&#45;2&#45;&gt;610</title>
<path fill="none" stroke="red" stroke-width="0.5" d="M491.5,-153.99C488.26,-146.9 483.32,-136.11 478.53,-125.63"/>
<polygon fill="red" stroke="red" stroke-width="0.5" points="481.56,-123.86 474.22,-116.22 475.2,-126.77 481.56,-123.86"/>
</g>
<!-- &#45;2&#45;&gt;608 -->
<g id="edge7" class="edge">
<title>&#45;2&#45;&gt;608</title>
<path fill="none" stroke="green" stroke-width="0.4" d="M499.45,-153.99C503.35,-146.65 509.37,-135.33 515.12,-124.51"/>
<polygon fill="green" stroke="green" stroke-width="0.4" points="518.23,-126.11 519.83,-115.63 512.05,-122.82 518.23,-126.11"/>
</g>
<!-- &#45;2&#45;&gt;609 -->
<g id="edge8" class="edge">
<title>&#45;2&#45;&gt;609</title>
<path fill="none" stroke="green" stroke-width="0.3" d="M481.82,-156.68C479,-155.69 476.02,-154.74 473.18,-154.02 366.91,-127.16 335.85,-143.29 229.18,-118.02 216.17,-114.94 202.15,-110.57 189.97,-106.41"/>
<polygon fill="green" stroke="green" stroke-width="0.3" points="190.83,-103.01 180.24,-103.01 188.52,-109.61 190.83,-103.01"/>
</g>
<!-- &#45;2&#45;&gt;611 -->
<g id="edge10" class="edge">
<title>&#45;2&#45;&gt;611</title>
<path fill="none" stroke="red" stroke-width="0.31" d="M481.79,-156.8C478.97,-155.8 476,-154.82 473.18,-154.02 395.91,-132.25 369.73,-150.19 296.18,-118.02 294.34,-117.22 292.5,-116.3 290.68,-115.3"/>
<polygon fill="red" stroke="red" stroke-width="0.31" points="292.23,-112.14 281.89,-109.8 288.51,-118.07 292.23,-112.14"/>
</g>
<!-- &#45;2&#45;&gt;612 -->
<g id="edge11" class="edge">
<title>&#45;2&#45;&gt;612</title>
<path fill="none" stroke="red" stroke-width="0.39" d="M482.18,-157.22C479.22,-156.15 476.1,-155.03 473.18,-154.02 424.56,-137.23 409.04,-141.32 363.18,-118.02 361.39,-117.11 359.58,-116.11 357.8,-115.05"/>
<polygon fill="red" stroke="red" stroke-width="0.39" points="359.38,-111.9 349.09,-109.38 355.56,-117.77 359.38,-111.9"/>
</g>
<!-- &#45;2&#45;&gt;613 -->
<g id="edge12" class="edge">
<title>&#45;2&#45;&gt;613</title>
<path fill="none" stroke="red" stroke-width="0.25" d="M483.13,-154.02C470.03,-145.28 448.51,-130.82 430.18,-118.02 428.57,-116.9 426.93,-115.75 425.27,-114.57"/>
<polygon fill="red" stroke="red" stroke-width="0.25" points="427.18,-111.64 417.01,-108.68 423.12,-117.34 427.18,-111.64"/>
</g>
<!-- &#45;3 -->
<g id="node3" class="node">
<title>&#45;3</title>
<polygon fill="lightgray" stroke="black" points="596.18,-172.02 570.18,-172.02 570.18,-154.02 596.18,-154.02 596.18,-172.02"/>
<text text-anchor="middle" x="583.18" y="-160.82" font-family="Times,serif" font-size="9.00">&#45;3</text>
</g>
<!-- &#45;3&#45;&gt;0 -->
<g id="edge106" class="edge">
<title>&#45;3&#45;&gt;0</title>
<path fill="none" stroke="green" stroke-width="0.26" d="M596.24,-156.13C609.83,-149.19 630.32,-136.26 639.18,-118.02 648.8,-98.24 653.66,-85.09 639.18,-68.53 599.78,-23.45 430.32,-46.83 372.18,-32.53 366.44,-31.11 360.39,-29.19 354.73,-27.18"/>
<polygon fill="green" stroke="green" stroke-width="0.26" points="355.69,-23.81 345.1,-23.57 353.24,-30.36 355.69,-23.81"/>
</g>
<!-- &#45;3&#45;&gt;1 -->
<g id="edge107" class="edge">
<title>&#45;3&#45;&gt;1</title>
<path fill="none" stroke="red" stroke-width="0.5" d="M596.58,-156.83C599.4,-155.83 602.37,-154.84 605.18,-154.02 676.85,-133.23 722.41,-176.17 769.18,-118.02 782.97,-100.88 783.64,-85.11 769.18,-68.53 724.06,-16.77 501.34,-15.48 423.83,-16.65"/>
<polygon fill="red" stroke="red" stroke-width="0.5" points="423.42,-13.15 413.48,-16.83 423.55,-20.15 423.42,-13.15"/>
</g>
<!-- &#45;3&#45;&gt;610 -->
<g id="edge15" class="edge">
<title>&#45;3&#45;&gt;610</title>
<path fill="none" stroke="green" stroke-width="0.5" d="M570.03,-156.06C552.86,-148.1 522.08,-133.24 497.18,-118.02 495.51,-117 493.81,-115.92 492.11,-114.81"/>
<polygon fill="green" stroke="green" stroke-width="0.5" points="493.97,-111.84 483.74,-109.09 490.02,-117.62 493.97,-111.84"/>
</g>
<!-- &#45;3&#45;&gt;608 -->
<g id="edge13" class="edge">
<title>&#45;3&#45;&gt;608</title>
<path fill="none" stroke="green" stroke-width="0.41" d="M577.01,-153.99C570.86,-145.98 561.07,-133.22 552.12,-121.55"/>
<polygon fill="green" stroke="green" stroke-width="0.41" points="554.67,-119.13 545.81,-113.33 549.12,-123.39 554.67,-119.13"/>
</g>
<!-- &#45;3&#45;&gt;609 -->
<g id="edge14" class="edge">
<title>&#45;3&#45;&gt;609</title>
<path fill="none" stroke="red" stroke-width="0.14" d="M569.84,-156.59C567.02,-155.61 564.03,-154.69 561.18,-154.02 416.61,-120.42 374.24,-149.44 229.18,-118.02 216.12,-115.19 202.08,-110.87 189.91,-106.69"/>
<polygon fill="red" stroke="red" stroke-width="0.14" points="190.78,-103.28 180.18,-103.24 188.44,-109.88 190.78,-103.28"/>
</g>
<!-- &#45;3&#45;&gt;611 -->
<g id="edge16" class="edge">
<title>&#45;3&#45;&gt;611</title>
<path fill="none" stroke="green" stroke-width="0.39" d="M569.83,-156.65C567,-155.66 564.02,-154.73 561.18,-154.02 445.78,-125.55 406.59,-162.05 296.18,-118.02 294.31,-117.28 292.45,-116.41 290.62,-115.44"/>
<polygon fill="green" stroke="green" stroke-width="0.39" points="292.15,-112.28 281.79,-110.04 288.49,-118.25 292.15,-112.28"/>
</g>
<!-- &#45;3&#45;&gt;612 -->
<g id="edge17" class="edge">
<title>&#45;3&#45;&gt;612</title>
<path fill="none" stroke="red" stroke-width="0.26" d="M569.8,-156.75C566.98,-155.76 564,-154.79 561.18,-154.02 474.84,-130.66 445.5,-153.01 363.18,-118.02 361.33,-117.24 359.48,-116.33 357.66,-115.34"/>
<polygon fill="red" stroke="red" stroke-width="0.26" points="359.2,-112.18 348.86,-109.88 355.51,-118.13 359.2,-112.18"/>
</g>
<!-- &#45;3&#45;&gt;613 -->
<g id="edge18" class="edge">
<title>&#45;3&#45;&gt;613</title>
<path fill="none" stroke="red" stroke-width="0.38" d="M569.74,-156.94C566.93,-155.93 563.97,-154.91 561.18,-154.02 503.65,-135.69 484.65,-144.07 430.18,-118.02 428.37,-117.16 426.55,-116.19 424.74,-115.15"/>
<polygon fill="red" stroke="red" stroke-width="0.38" points="426.31,-112 416,-109.56 422.54,-117.89 426.31,-112"/>
</g>
<!-- &#45;4 -->
<g id="node4" class="node">
<title>&#45;4</title>
<polygon fill="lightgray" stroke="black" points="276.18,-172.02 250.18,-172.02 250.18,-154.02 276.18,-154.02 276.18,-172.02"/>
<text text-anchor="middle" x="263.18" y="-160.82" font-family="Times,serif" font-size="9.00">&#45;4</text>
</g>
<!-- &#45;4&#45;&gt;0 -->
<g id="edge108" class="edge">
<title>&#45;4&#45;&gt;0</title>
<path fill="none" stroke="red" stroke-width="0.5" d="M249.78,-156.83C246.96,-155.83 243.99,-154.84 241.18,-154.02 169.08,-133.15 123.26,-176.48 76.18,-118.02 62.38,-100.89 62.25,-85.55 76.18,-68.53 104.74,-33.62 244.4,-21.95 303.59,-18.52"/>
<polygon fill="red" stroke="red" stroke-width="0.5" points="303.86,-22.02 313.66,-17.98 303.48,-15.03 303.86,-22.02"/>
</g>
<!-- &#45;4&#45;&gt;1 -->
<g id="edge109" class="edge">
<title>&#45;4&#45;&gt;1</title>
<path fill="none" stroke="green" stroke-width="0.17" d="M249.74,-156.94C246.93,-155.93 243.97,-154.91 241.18,-154.02 183.22,-135.62 146.09,-166.35 109.18,-118.02 95.83,-100.54 94.79,-85.17 109.18,-68.53 145.31,-26.73 301.61,-46.03 355.18,-32.53 360.92,-31.08 366.96,-29.14 372.62,-27.13"/>
<polygon fill="green" stroke="green" stroke-width="0.17" points="374.11,-30.31 382.25,-23.53 371.66,-23.76 374.11,-30.31"/>
</g>
<!-- &#45;4&#45;&gt;610 -->
<g id="edge21" class="edge">
<title>&#45;4&#45;&gt;610</title>
<path fill="none" stroke="green" stroke-width="0.29" d="M276.6,-156.89C279.42,-155.88 282.38,-154.88 285.18,-154.02 349.12,-134.58 370.51,-146.05 431.18,-118.02 433.01,-117.18 434.84,-116.23 436.64,-115.21"/>
<polygon fill="green" stroke="green" stroke-width="0.29" points="438.83,-117.96 445.4,-109.65 435.08,-112.05 438.83,-117.96"/>
</g>
<!-- &#45;4&#45;&gt;608 -->
<g id="edge19" class="edge">
<title>&#45;4&#45;&gt;608</title>
<path fill="none" stroke="green" stroke-width="0.13" d="M276.55,-156.72C279.37,-155.73 282.35,-154.77 285.18,-154.02 378.01,-129.52 409.59,-155.02 498.18,-118.02 500.04,-117.25 501.89,-116.35 503.71,-115.37"/>
<polygon fill="green" stroke="green" stroke-width="0.13" points="505.86,-118.16 512.52,-109.92 502.18,-112.21 505.86,-118.16"/>
</g>
<!-- &#45;4&#45;&gt;609 -->
<g id="edge20" class="edge">
<title>&#45;4&#45;&gt;609</title>
<path fill="none" stroke="green" stroke-width="0.3" d="M250.6,-153.99C234.87,-143.93 207.42,-126.38 186.33,-112.91"/>
<polygon fill="green" stroke="green" stroke-width="0.3" points="188.05,-109.85 177.74,-107.41 184.28,-115.75 188.05,-109.85"/>
</g>
<!-- &#45;4&#45;&gt;611 -->
<g id="edge22" class="edge">
<title>&#45;4&#45;&gt;611</title>
<path fill="none" stroke="red" stroke-width="0.15" d="M263.18,-153.99C263.18,-147.55 263.18,-138.05 263.18,-128.52"/>
<polygon fill="red" stroke="red" stroke-width="0.15" points="266.68,-128.3 263.18,-118.3 259.68,-128.3 266.68,-128.3"/>
</g>
<!-- &#45;4&#45;&gt;612 -->
<g id="edge23" class="edge">
<title>&#45;4&#45;&gt;612</title>
<path fill="none" stroke="red" stroke-width="0.16" stroke-dasharray="1,5" d="M271.13,-153.99C279.68,-145.34 293.71,-131.15 305.95,-118.78"/>
<polygon fill="red" stroke="red" stroke-width="0.16" points="308.73,-120.95 313.27,-111.38 303.75,-116.02 308.73,-120.95"/>
</g>
<!-- &#45;4&#45;&gt;613 -->
<g id="edge24" class="edge">
<title>&#45;4&#45;&gt;613</title>
<path fill="none" stroke="red" stroke-width="0.41" d="M276.36,-157.32C296.06,-150.05 334.09,-135.15 364.18,-118.02 365.93,-117.03 367.7,-115.96 369.46,-114.85"/>
<polygon fill="red" stroke="red" stroke-width="0.41" points="371.74,-117.53 378.09,-109.05 367.84,-111.72 371.74,-117.53"/>
</g>
<!-- &#45;5 -->
<g id="node5" class="node">
<title>&#45;5</title>
<polygon fill="lightgray" stroke="black" points="232.18,-172.02 206.18,-172.02 206.18,-154.02 232.18,-154.02 232.18,-172.02"/>
<text text-anchor="middle" x="219.18" y="-160.82" font-family="Times,serif" font-size="9.00">&#45;5</text>
</g>
<!-- &#45;5&#45;&gt;0 -->
<g id="edge110" class="edge">
<title>&#45;5&#45;&gt;0</title>
<path fill="none" stroke="red" stroke-width="0.13" d="M205.75,-156.93C202.93,-155.92 199.97,-154.9 197.18,-154.02 137.94,-135.4 100.01,-167.27 62.18,-118.02 48.78,-100.58 48.16,-85.48 62.18,-68.53 92.72,-31.59 242.42,-21.02 303.83,-18.21"/>
<polygon fill="red" stroke="red" stroke-width="0.13" points="304.04,-21.7 313.89,-17.78 303.75,-14.71 304.04,-21.7"/>
</g>
<!-- &#45;5&#45;&gt;1 -->
<g id="edge111" class="edge">
<title>&#45;5&#45;&gt;1</title>
<path fill="none" stroke="green" stroke-width="0.12" d="M206.16,-157.27C203.21,-156.19 200.09,-155.07 197.18,-154.02 151.92,-137.81 122.95,-157.27 95.18,-118.02 82.47,-100.07 80.73,-85.11 95.18,-68.53 133.49,-24.54 298.57,-46.57 355.18,-32.53 360.92,-31.1 366.97,-29.17 372.63,-27.17"/>
<polygon fill="green" stroke="green" stroke-width="0.12" points="374.12,-30.35 382.26,-23.56 371.66,-23.79 374.12,-30.35"/>
</g>
<!-- &#45;5&#45;&gt;610 -->
<g id="edge27" class="edge">
<title>&#45;5&#45;&gt;610</title>
<path fill="none" stroke="green" stroke-width="0.21" d="M232.57,-156.77C235.38,-155.77 238.36,-154.8 241.18,-154.02 324.06,-131.26 352.2,-151.93 431.18,-118.02 433.03,-117.23 434.87,-116.32 436.7,-115.33"/>
<polygon fill="green" stroke="green" stroke-width="0.21" points="438.85,-118.11 445.49,-109.85 435.15,-112.17 438.85,-118.11"/>
</g>
<!-- &#45;5&#45;&gt;608 -->
<g id="edge25" class="edge">
<title>&#45;5&#45;&gt;608</title>
<path fill="none" stroke="green" stroke-width="0.12" d="M232.54,-156.66C235.36,-155.67 238.34,-154.73 241.18,-154.02 353.1,-126.16 391.13,-160.96 498.18,-118.02 500.05,-117.28 501.91,-116.4 503.74,-115.43"/>
<polygon fill="green" stroke="green" stroke-width="0.12" points="505.87,-118.23 512.56,-110.03 502.21,-112.27 505.87,-118.23"/>
</g>
<!-- &#45;5&#45;&gt;609 -->
<g id="edge26" class="edge">
<title>&#45;5&#45;&gt;609</title>
<path fill="none" stroke="red" stroke-width="0.19" d="M211.82,-153.99C204.14,-145.59 191.69,-131.98 180.61,-119.88"/>
<polygon fill="red" stroke="red" stroke-width="0.19" points="182.92,-117.22 173.59,-112.21 177.76,-121.95 182.92,-117.22"/>
</g>
<!-- &#45;5&#45;&gt;611 -->
<g id="edge28" class="edge">
<title>&#45;5&#45;&gt;611</title>
<path fill="none" stroke="green" stroke-width="0.5" d="M224.4,-153.99C229.41,-146.28 237.27,-134.17 244.61,-122.87"/>
<polygon fill="green" stroke="green" stroke-width="0.5" points="247.55,-124.77 250.06,-114.47 241.68,-120.95 247.55,-124.77"/>
</g>
<!-- &#45;5&#45;&gt;612 -->
<g id="edge29" class="edge">
<title>&#45;5&#45;&gt;612</title>
<path fill="none" stroke="green" stroke-width="0.21" d="M232.41,-155.14C248.14,-146.82 275.04,-132.17 297.18,-118.02 298.83,-116.97 300.51,-115.86 302.2,-114.73"/>
<polygon fill="green" stroke="green" stroke-width="0.21" points="304.31,-117.53 310.53,-108.95 300.32,-111.77 304.31,-117.53"/>
</g>
<!-- &#45;5&#45;&gt;613 -->
<g id="edge30" class="edge">
<title>&#45;5&#45;&gt;613</title>
<path fill="none" stroke="green" stroke-width="0.23" d="M232.63,-156.98C235.44,-155.97 238.4,-154.94 241.18,-154.02 295.31,-136.28 313,-143.02 364.18,-118.02 365.99,-117.14 367.8,-116.16 369.6,-115.12"/>
<polygon fill="green" stroke="green" stroke-width="0.23" points="371.81,-117.85 378.33,-109.5 368.03,-111.97 371.81,-117.85"/>
</g>
<!-- &#45;6 -->
<g id="node6" class="node">
<title>&#45;6</title>
<polygon fill="lightgray" stroke="black" points="464.18,-172.02 438.18,-172.02 438.18,-154.02 464.18,-154.02 464.18,-172.02"/>
<text text-anchor="middle" x="451.18" y="-160.82" font-family="Times,serif" font-size="9.00">&#45;6</text>
</g>
<!-- &#45;6&#45;&gt;0 -->
<g id="edge112" class="edge">
<title>&#45;6&#45;&gt;0</title>
<path fill="none" stroke="red" stroke-width="0.5" d="M464.18,-157.21C467.13,-156.14 470.26,-155.03 473.18,-154.02 522.22,-137.16 553.68,-159.97 584.18,-118.02 597.12,-100.23 598.37,-85.33 584.18,-68.53 553.35,-32.02 418.38,-44.74 372.18,-32.53 366.46,-31.02 360.42,-29.05 354.76,-27.04"/>
<polygon fill="red" stroke="red" stroke-width="0.5" points="355.73,-23.66 345.13,-23.44 353.28,-30.22 355.73,-23.66"/>
</g>
<!-- &#45;6&#45;&gt;1 -->
<g id="edge113" class="edge">
<title>&#45;6&#45;&gt;1</title>
<path fill="none" stroke="green" stroke-width="0.29" d="M464.54,-156.69C467.36,-155.69 470.34,-154.75 473.18,-154.02 525.23,-140.78 677.14,-158.73 712.18,-118.02 726.53,-101.35 726.43,-85.29 712.18,-68.53 675.13,-24.96 492.97,-18.32 423.85,-17.38"/>
<polygon fill="green" stroke="green" stroke-width="0.29" points="423.8,-13.88 413.76,-17.28 423.72,-20.88 423.8,-13.88"/>
</g>
<!-- &#45;6&#45;&gt;610 -->
<g id="edge33" class="edge">
<title>&#45;6&#45;&gt;610</title>
<path fill="none" stroke="red" stroke-width="0.3" d="M452.72,-153.99C453.99,-147.38 455.88,-137.54 457.76,-127.75"/>
<polygon fill="red" stroke="red" stroke-width="0.3" points="461.24,-128.18 459.69,-117.7 454.36,-126.86 461.24,-128.18"/>
</g>
<!-- &#45;6&#45;&gt;608 -->
<g id="edge31" class="edge">
<title>&#45;6&#45;&gt;608</title>
<path fill="none" stroke="green" stroke-width="0.12" d="M460.67,-153.99C471.43,-144.88 489.43,-129.63 504.55,-116.83"/>
<polygon fill="green" stroke="green" stroke-width="0.12" points="507.22,-119.15 512.59,-110.02 502.7,-113.81 507.22,-119.15"/>
</g>
<!-- &#45;6&#45;&gt;609 -->
<g id="edge32" class="edge">
<title>&#45;6&#45;&gt;609</title>
<path fill="none" stroke="red" stroke-width="0.45" d="M437.8,-156.75C434.98,-155.75 432.01,-154.79 429.18,-154.02 341.98,-130.51 316.73,-140.22 229.18,-118.02 216.22,-114.74 202.21,-110.32 190.03,-106.19"/>
<polygon fill="red" stroke="red" stroke-width="0.45" points="190.88,-102.78 180.28,-102.82 188.59,-109.39 190.88,-102.78"/>
</g>
<!-- &#45;6&#45;&gt;611 -->
<g id="edge34" class="edge">
<title>&#45;6&#45;&gt;611</title>
<path fill="none" stroke="red" stroke-width="0.21" d="M437.75,-156.94C434.93,-155.93 431.97,-154.91 429.18,-154.02 370.8,-135.54 351.48,-144.33 296.18,-118.02 294.36,-117.16 292.54,-116.19 290.74,-115.16"/>
<polygon fill="red" stroke="red" stroke-width="0.21" points="292.31,-112.01 282,-109.57 288.54,-117.9 292.31,-112.01"/>
</g>
<!-- &#45;6&#45;&gt;612 -->
<g id="edge35" class="edge">
<title>&#45;6&#45;&gt;612</title>
<path fill="none" stroke="red" stroke-width="0.5" d="M438.01,-156.24C420.49,-148.37 388.76,-133.49 363.18,-118.02 361.5,-117.01 359.8,-115.94 358.1,-114.83"/>
<polygon fill="red" stroke="red" stroke-width="0.5" points="359.96,-111.86 349.72,-109.12 356.02,-117.64 359.96,-111.86"/>
</g>
<!-- &#45;6&#45;&gt;613 -->
<g id="edge36" class="edge">
<title>&#45;6&#45;&gt;613</title>
<path fill="none" stroke="red" stroke-width="0.43" d="M444.77,-153.99C438.28,-145.84 427.88,-132.79 418.45,-120.96"/>
<polygon fill="red" stroke="red" stroke-width="0.43" points="421.11,-118.69 412.14,-113.05 415.64,-123.05 421.11,-118.69"/>
</g>
<!-- &#45;7 -->
<g id="node7" class="node">
<title>&#45;7</title>
<polygon fill="lightgray" stroke="black" points="320.18,-172.02 294.18,-172.02 294.18,-154.02 320.18,-154.02 320.18,-172.02"/>
<text text-anchor="middle" x="307.18" y="-160.82" font-family="Times,serif" font-size="9.00">&#45;7</text>
</g>
<!-- &#45;7&#45;&gt;0 -->
<g id="edge114" class="edge">
<title>&#45;7&#45;&gt;0</title>
<path fill="none" stroke="green" stroke-width="0.34" d="M293.8,-156.76C290.98,-155.76 288,-154.79 285.18,-154.02 200.14,-130.89 146.56,-185.76 90.18,-118.02 76.11,-101.12 76.34,-85.63 90.18,-68.53 116.81,-35.61 246.75,-22.91 303.54,-18.87"/>
<polygon fill="green" stroke="green" stroke-width="0.34" points="304.12,-22.34 313.87,-18.17 303.65,-15.35 304.12,-22.34"/>
</g>
<!-- &#45;7&#45;&gt;1 -->
<g id="edge115" class="edge">
<title>&#45;7&#45;&gt;1</title>
<path fill="none" stroke="red" stroke-width="0.2" d="M293.78,-156.84C290.96,-155.83 287.99,-154.84 285.18,-154.02 214.37,-133.38 169.33,-175.56 123.18,-118.02 109.42,-100.86 108.87,-85.23 123.18,-68.53 157.13,-28.91 304.65,-45.5 355.18,-32.53 360.91,-31.06 366.95,-29.11 372.61,-27.1"/>
<polygon fill="red" stroke="red" stroke-width="0.2" points="374.1,-30.28 382.24,-23.5 371.65,-23.72 374.1,-30.28"/>
</g>
<!-- &#45;7&#45;&gt;610 -->
<g id="edge39" class="edge">
<title>&#45;7&#45;&gt;610</title>
<path fill="none" stroke="green" stroke-width="0.27" d="M320.2,-157.27C323.15,-156.19 326.27,-155.07 329.18,-154.02 374.44,-137.81 388.57,-140.29 431.18,-118.02 432.96,-117.09 434.76,-116.07 436.54,-115"/>
<polygon fill="green" stroke="green" stroke-width="0.27" points="438.79,-117.71 445.23,-109.3 434.95,-111.86 438.79,-117.71"/>
</g>
<!-- &#45;7&#45;&gt;608 -->
<g id="edge37" class="edge">
<title>&#45;7&#45;&gt;608</title>
<path fill="none" stroke="green" stroke-width="0.16" d="M320.58,-156.82C323.4,-155.82 326.37,-154.83 329.18,-154.02 403,-132.85 427.96,-149.12 498.18,-118.02 500.02,-117.21 501.86,-116.28 503.67,-115.28"/>
<polygon fill="green" stroke="green" stroke-width="0.16" points="505.84,-118.05 512.45,-109.77 502.12,-112.12 505.84,-118.05"/>
</g>
<!-- &#45;7&#45;&gt;609 -->
<g id="edge38" class="edge">
<title>&#45;7&#45;&gt;609</title>
<path fill="none" stroke="red" stroke-width="0.47" d="M293.97,-157.11C268.64,-147.64 214.18,-126.99 196.18,-118.02 192.86,-116.37 189.46,-114.53 186.1,-112.63"/>
<polygon fill="red" stroke="red" stroke-width="0.47" points="187.85,-109.59 177.46,-107.52 184.29,-115.62 187.85,-109.59"/>
</g>
<!-- &#45;7&#45;&gt;611 -->
<g id="edge40" class="edge">
<title>&#45;7&#45;&gt;611</title>
<path fill="none" stroke="red" stroke-width="0.35" d="M301.96,-153.99C296.95,-146.28 289.09,-134.17 281.75,-122.87"/>
<polygon fill="red" stroke="red" stroke-width="0.35" points="284.68,-120.95 276.3,-114.47 278.81,-124.77 284.68,-120.95"/>
</g>
<!-- &#45;7&#45;&gt;612 -->
<g id="edge41" class="edge">
<title>&#45;7&#45;&gt;612</title>
<path fill="none" stroke="red" stroke-width="0.5" d="M309.91,-153.99C312.24,-147.13 315.74,-136.81 319.19,-126.66"/>
<polygon fill="red" stroke="red" stroke-width="0.5" points="322.53,-127.7 322.43,-117.1 315.9,-125.45 322.53,-127.7"/>
</g>
<!-- &#45;7&#45;&gt;613 -->
<g id="edge42" class="edge">
<title>&#45;7&#45;&gt;613</title>
<path fill="none" stroke="green" stroke-width="0.41" d="M317.86,-153.99C330.5,-144.47 352.05,-128.25 369.5,-115.11"/>
<polygon fill="green" stroke="green" stroke-width="0.41" points="371.79,-117.77 377.68,-108.96 367.58,-112.18 371.79,-117.77"/>
</g>
<!-- &#45;8 -->
<g id="node8" class="node">
<title>&#45;8</title>
<polygon fill="lightgray" stroke="black" points="88.18,-172.02 62.18,-172.02 62.18,-154.02 88.18,-154.02 88.18,-172.02"/>
<text text-anchor="middle" x="75.18" y="-160.82" font-family="Times,serif" font-size="9.00">&#45;8</text>
</g>
<!-- &#45;8&#45;&gt;0 -->
<g id="edge116" class="edge">
<title>&#45;8&#45;&gt;0</title>
<path fill="none" stroke="red" stroke-width="0.25" d="M62.09,-155.74C48.98,-148.64 29.59,-135.72 21.18,-118.02 11.74,-98.15 6.95,-85.31 21.18,-68.53 57.41,-25.8 235.47,-18.64 303.6,-17.48"/>
<polygon fill="red" stroke="red" stroke-width="0.25" points="303.96,-20.97 313.91,-17.33 303.86,-13.97 303.96,-20.97"/>
</g>
<!-- &#45;8&#45;&gt;1 -->
<g id="edge117" class="edge">
<title>&#45;8&#45;&gt;1</title>
<path fill="none" stroke="green" stroke-width="0.19" d="M69.39,-153.86C57.5,-136.03 33.26,-93.24 55.18,-68.53 99.74,-18.3 289.87,-48.1 355.18,-32.53 360.93,-31.16 366.99,-29.25 372.65,-27.24"/>
<polygon fill="green" stroke="green" stroke-width="0.19" points="374.14,-30.42 382.27,-23.63 371.68,-23.87 374.14,-30.42"/>
</g>
<!-- &#45;8&#45;&gt;610 -->
<g id="edge45" class="edge">
<title>&#45;8&#45;&gt;610</title>
<path fill="none" stroke="red" stroke-width="0.26" d="M88.52,-156.59C91.34,-155.61 94.33,-154.69 97.18,-154.02 242.62,-120.27 291.74,-171.4 431.18,-118.02 433.06,-117.31 434.93,-116.45 436.77,-115.5"/>
<polygon fill="red" stroke="red" stroke-width="0.26" points="438.87,-118.32 445.61,-110.14 435.24,-112.33 438.87,-118.32"/>
</g>
<!-- &#45;8&#45;&gt;608 -->
<g id="edge43" class="edge">
<title>&#45;8&#45;&gt;608</title>
<path fill="none" stroke="red" stroke-width="0.45" d="M88.51,-156.55C91.33,-155.57 94.32,-154.66 97.18,-154.02 271.84,-115.12 330.5,-180.5 498.18,-118.02 500.07,-117.32 501.94,-116.48 503.78,-115.54"/>
<polygon fill="red" stroke="red" stroke-width="0.45" points="505.87,-118.37 512.63,-110.21 502.26,-112.37 505.87,-118.37"/>
</g>
<!-- &#45;8&#45;&gt;609 -->
<g id="edge44" class="edge">
<title>&#45;8&#45;&gt;609</title>
<path fill="none" stroke="green" stroke-width="0.18" d="M84.91,-153.99C96.11,-144.73 114.97,-129.15 130.62,-116.22"/>
<polygon fill="green" stroke="green" stroke-width="0.18" points="132.97,-118.82 138.45,-109.75 128.51,-113.42 132.97,-118.82"/>
</g>
<!-- &#45;8&#45;&gt;611 -->
<g id="edge46" class="edge">
<title>&#45;8&#45;&gt;611</title>
<path fill="none" stroke="green" stroke-width="0.29" d="M88.21,-157.28C91.16,-156.21 94.28,-155.08 97.18,-154.02 143.38,-137.31 196.86,-118.08 230.35,-106.06"/>
<polygon fill="green" stroke="green" stroke-width="0.29" points="231.85,-109.24 240.08,-102.56 229.48,-102.65 231.85,-109.24"/>
</g>
<!-- &#45;8&#45;&gt;612 -->
<g id="edge47" class="edge">
<title>&#45;8&#45;&gt;612</title>
<path fill="none" stroke="green" stroke-width="0.21" d="M88.56,-156.75C91.38,-155.75 94.36,-154.79 97.18,-154.02 184.38,-130.51 214.03,-153.27 297.18,-118.02 299.03,-117.24 300.88,-116.33 302.7,-115.35"/>
<polygon fill="green" stroke="green" stroke-width="0.21" points="304.85,-118.13 311.5,-109.88 301.16,-112.18 304.85,-118.13"/>
</g>
<!-- &#45;8&#45;&gt;613 -->
<g id="edge48" class="edge">
<title>&#45;8&#45;&gt;613</title>
<path fill="none" stroke="red" stroke-width="0.24" d="M88.53,-156.65C91.36,-155.66 94.34,-154.72 97.18,-154.02 213.45,-125.4 252.93,-162.32 364.18,-118.02 366.05,-117.28 367.91,-116.41 369.74,-115.44"/>
<polygon fill="red" stroke="red" stroke-width="0.24" points="371.87,-118.25 378.57,-110.04 368.21,-112.28 371.87,-118.25"/>
</g>
<!-- &#45;9 -->
<g id="node9" class="node">
<title>&#45;9</title>
<polygon fill="lightgray" stroke="black" points="552.18,-172.02 526.18,-172.02 526.18,-154.02 552.18,-154.02 552.18,-172.02"/>
<text text-anchor="middle" x="539.18" y="-160.82" font-family="Times,serif" font-size="9.00">&#45;9</text>
</g>
<!-- &#45;9&#45;&gt;0 -->
<g id="edge118" class="edge">
<title>&#45;9&#45;&gt;0</title>
<path fill="none" stroke="red" stroke-width="0.26" d="M552.49,-156.85C573.67,-148.3 613.47,-130.92 621.18,-118.02 632.47,-99.15 635.58,-85.16 621.18,-68.53 584.58,-26.26 426.4,-46.15 372.18,-32.53 366.44,-31.09 360.4,-29.15 354.74,-27.14"/>
<polygon fill="red" stroke="red" stroke-width="0.26" points="355.7,-23.76 345.11,-23.54 353.25,-30.32 355.7,-23.76"/>
</g>
<!-- &#45;9&#45;&gt;1 -->
<g id="edge119" class="edge">
<title>&#45;9&#45;&gt;1</title>
<path fill="none" stroke="red" stroke-width="0.31" d="M552.57,-156.77C555.38,-155.77 558.36,-154.8 561.18,-154.02 643.63,-131.34 695.67,-183.9 750.18,-118.02 764.21,-101.08 764.57,-85.16 750.18,-68.53 707.78,-19.53 498.84,-16.38 423.95,-16.87"/>
<polygon fill="red" stroke="red" stroke-width="0.31" points="423.48,-13.37 413.51,-16.96 423.55,-20.37 423.48,-13.37"/>
</g>
<!-- &#45;9&#45;&gt;610 -->
<g id="edge51" class="edge">
<title>&#45;9&#45;&gt;610</title>
<path fill="none" stroke="red" stroke-width="0.23" d="M530.28,-153.99C520.33,-145 503.76,-130.03 489.7,-117.33"/>
<polygon fill="red" stroke="red" stroke-width="0.23" points="491.97,-114.66 482.2,-110.56 487.28,-119.86 491.97,-114.66"/>
</g>
<!-- &#45;9&#45;&gt;608 -->
<g id="edge49" class="edge">
<title>&#45;9&#45;&gt;608</title>
<path fill="none" stroke="red" stroke-width="0.11" stroke-dasharray="1,5" d="M538.23,-153.99C537.46,-147.43 536.31,-137.7 535.16,-127.98"/>
<polygon fill="red" stroke="red" stroke-width="0.11" points="538.63,-127.52 533.98,-118 531.68,-128.34 538.63,-127.52"/>
</g>
<!-- &#45;9&#45;&gt;609 -->
<g id="edge50" class="edge">
<title>&#45;9&#45;&gt;609</title>
<path fill="none" stroke="red" stroke-width="0.13" d="M525.83,-156.63C523.01,-155.64 520.02,-154.71 517.18,-154.02 391.78,-123.79 355.03,-146.36 229.18,-118.02 216.14,-115.09 202.11,-110.74 189.94,-106.57"/>
<polygon fill="red" stroke="red" stroke-width="0.13" points="190.8,-103.16 180.2,-103.14 188.47,-109.77 190.8,-103.16"/>
</g>
<!-- &#45;9&#45;&gt;611 -->
<g id="edge52" class="edge">
<title>&#45;9&#45;&gt;611</title>
<path fill="none" stroke="green" stroke-width="0.46" d="M525.81,-156.71C522.99,-155.72 520.01,-154.76 517.18,-154.02 420.88,-128.91 388.12,-156.1 296.18,-118.02 294.32,-117.25 292.47,-116.36 290.64,-115.38"/>
<polygon fill="green" stroke="green" stroke-width="0.46" points="292.18,-112.22 281.83,-109.94 288.5,-118.18 292.18,-112.22"/>
</g>
<!-- &#45;9&#45;&gt;612 -->
<g id="edge53" class="edge">
<title>&#45;9&#45;&gt;612</title>
<path fill="none" stroke="green" stroke-width="0.14" d="M525.77,-156.86C522.95,-155.86 519.98,-154.86 517.18,-154.02 449.81,-133.98 427.17,-147.12 363.18,-118.02 361.35,-117.19 359.52,-116.25 357.71,-115.23"/>
<polygon fill="green" stroke="green" stroke-width="0.14" points="359.26,-112.08 348.94,-109.69 355.52,-118 359.26,-112.08"/>
</g>
<!-- &#45;9&#45;&gt;613 -->
<g id="edge54" class="edge">
<title>&#45;9&#45;&gt;613</title>
<path fill="none" stroke="green" stroke-width="0.33" d="M526.15,-157.21C501.17,-147.92 447.52,-127.58 430.18,-118.02 428.42,-117.05 426.64,-116 424.87,-114.91"/>
<polygon fill="green" stroke="green" stroke-width="0.33" points="426.48,-111.77 416.21,-109.15 422.6,-117.6 426.48,-111.77"/>
</g>
<!-- &#45;10 -->
<g id="node10" class="node">
<title>&#45;10</title>
<polygon fill="lightgray" stroke="black" points="138.18,-172.02 106.18,-172.02 106.18,-154.02 138.18,-154.02 138.18,-172.02"/>
<text text-anchor="middle" x="122.18" y="-160.82" font-family="Times,serif" font-size="9.00">&#45;10</text>
</g>
<!-- &#45;10&#45;&gt;0 -->
<g id="edge120" class="edge">
<title>&#45;10&#45;&gt;0</title>
<path fill="none" stroke="red" stroke-width="0.42" d="M106.04,-156.29C82.93,-147.72 42.31,-131.17 34.18,-118.02 22.61,-99.31 20.01,-85.36 34.18,-68.53 68.62,-27.61 237.84,-19.35 303.8,-17.68"/>
<polygon fill="red" stroke="red" stroke-width="0.42" points="303.89,-21.18 313.81,-17.46 303.74,-14.19 303.89,-21.18"/>
</g>
<!-- &#45;10&#45;&gt;1 -->
<g id="edge121" class="edge">
<title>&#45;10&#45;&gt;1</title>
<path fill="none" stroke="green" stroke-width="0.16" d="M106.08,-154.07C93.17,-146.7 75.96,-134.41 68.18,-118.02 58.74,-98.15 53.62,-85.02 68.18,-68.53 110.71,-20.33 292.69,-47.6 355.18,-32.53 360.93,-31.14 366.98,-29.22 372.64,-27.22"/>
<polygon fill="green" stroke="green" stroke-width="0.16" points="374.14,-30.4 382.27,-23.61 371.68,-23.84 374.14,-30.4"/>
</g>
<!-- &#45;10&#45;&gt;610 -->
<g id="edge57" class="edge">
<title>&#45;10&#45;&gt;610</title>
<path fill="none" stroke="red" stroke-width="0.16" d="M138.2,-156.42C141.16,-155.52 144.24,-154.67 147.18,-154.02 271.4,-126.52 312.79,-164.62 431.18,-118.02 433.05,-117.29 434.92,-116.42 436.75,-115.46"/>
<polygon fill="red" stroke="red" stroke-width="0.16" points="438.87,-118.27 445.58,-110.07 435.22,-112.29 438.87,-118.27"/>
</g>
<!-- &#45;10&#45;&gt;608 -->
<g id="edge55" class="edge">
<title>&#45;10&#45;&gt;608</title>
<path fill="none" stroke="green" stroke-width="0.33" d="M138.19,-156.36C141.15,-155.47 144.24,-154.64 147.18,-154.02 300.68,-121.95 351.58,-173.71 498.18,-118.02 500.06,-117.31 501.93,-116.46 503.77,-115.51"/>
<polygon fill="green" stroke="green" stroke-width="0.33" points="505.87,-118.33 512.62,-110.16 502.25,-112.35 505.87,-118.33"/>
</g>
<!-- &#45;10&#45;&gt;609 -->
<g id="edge56" class="edge">
<title>&#45;10&#45;&gt;609</title>
<path fill="none" stroke="red" stroke-width="0.19" d="M126.33,-153.99C130.09,-146.72 135.86,-135.55 141.4,-124.83"/>
<polygon fill="red" stroke="red" stroke-width="0.19" points="144.67,-126.12 146.15,-115.63 138.45,-122.91 144.67,-126.12"/>
</g>
<!-- &#45;10&#45;&gt;611 -->
<g id="edge58" class="edge">
<title>&#45;10&#45;&gt;611</title>
<path fill="none" stroke="red" stroke-width="0.31" d="M138.35,-154.25C161.1,-143.32 202.99,-123.2 231.93,-109.29"/>
<polygon fill="red" stroke="red" stroke-width="0.31" points="233.7,-112.32 241.2,-104.84 230.67,-106.01 233.7,-112.32"/>
</g>
<!-- &#45;10&#45;&gt;612 -->
<g id="edge59" class="edge">
<title>&#45;10&#45;&gt;612</title>
<path fill="none" stroke="green" stroke-width="0.3" d="M138.27,-156.68C141.22,-155.76 144.28,-154.83 147.18,-154.02 213.21,-135.56 234.85,-146.58 297.18,-118.02 299.01,-117.19 300.84,-116.24 302.65,-115.22"/>
<polygon fill="green" stroke="green" stroke-width="0.3" points="304.84,-117.98 311.41,-109.67 301.09,-112.07 304.84,-117.98"/>
</g>
<!-- &#45;10&#45;&gt;613 -->
<g id="edge60" class="edge">
<title>&#45;10&#45;&gt;613</title>
<path fill="none" stroke="green" stroke-width="0.46" d="M138.22,-156.51C141.18,-155.6 144.26,-154.73 147.18,-154.02 242.21,-131.07 273.91,-155.56 364.18,-118.02 366.04,-117.25 367.89,-116.36 369.72,-115.38"/>
<polygon fill="green" stroke="green" stroke-width="0.46" points="371.86,-118.17 378.53,-109.93 368.18,-112.21 371.86,-118.17"/>
</g>
<!-- &#45;11 -->
<g id="node11" class="node">
<title>&#45;11</title>
<polygon fill="lightgray" stroke="black" points="690.18,-172.02 658.18,-172.02 658.18,-154.02 690.18,-154.02 690.18,-172.02"/>
<text text-anchor="middle" x="674.18" y="-160.82" font-family="Times,serif" font-size="9.00">&#45;11</text>
</g>
<!-- &#45;11&#45;&gt;0 -->
<g id="edge122" class="edge">
<title>&#45;11&#45;&gt;0</title>
<path fill="none" stroke="red" stroke-width="0.34" d="M677.37,-153.78C683.73,-135.78 695.63,-92.68 674.18,-68.53 629.31,-17.99 437.93,-48.17 372.18,-32.53 366.43,-31.16 360.37,-29.25 354.71,-27.25"/>
<polygon fill="red" stroke="red" stroke-width="0.34" points="355.68,-23.87 345.09,-23.63 353.22,-30.42 355.68,-23.87"/>
</g>
<!-- &#45;11&#45;&gt;1 -->
<g id="edge123" class="edge">
<title>&#45;11&#45;&gt;1</title>
<path fill="none" stroke="green" stroke-width="0.37" d="M690.29,-162.24C719.33,-161.64 779.98,-155.68 807.18,-118.02 820.06,-100.19 821.74,-85.02 807.18,-68.53 781.69,-39.65 510.29,-23.14 423.62,-18.57"/>
<polygon fill="green" stroke="green" stroke-width="0.37" points="423.72,-15.07 413.55,-18.05 423.36,-22.07 423.72,-15.07"/>
</g>
<!-- &#45;11&#45;&gt;610 -->
<g id="edge62" class="edge">
<title>&#45;11&#45;&gt;610</title>
<path fill="none" stroke="red" stroke-width="0.3" d="M658.1,-156.68C655.14,-155.75 652.08,-154.83 649.18,-154.02 582.29,-135.43 560.34,-146.85 497.18,-118.02 495.35,-117.19 493.52,-116.25 491.71,-115.23"/>
<polygon fill="red" stroke="red" stroke-width="0.3" points="493.27,-112.07 482.94,-109.68 489.52,-117.99 493.27,-112.07"/>
</g>
<!-- &#45;11&#45;&gt;608 -->
<g id="edge61" class="edge">
<title>&#45;11&#45;&gt;608</title>
<path fill="none" stroke="red" stroke-width="0.11" d="M658.05,-154.38C634.99,-143.46 592.1,-123.14 562.63,-109.17"/>
<polygon fill="red" stroke="red" stroke-width="0.11" points="564.11,-106 553.57,-104.88 561.11,-112.33 564.11,-106"/>
</g>
<!-- &#45;11&#45;&gt;611 -->
<g id="edge63" class="edge">
<title>&#45;11&#45;&gt;611</title>
<path fill="none" stroke="green" stroke-width="0.29" d="M658.17,-156.36C655.21,-155.47 652.12,-154.64 649.18,-154.02 494.8,-121.82 443.62,-173.98 296.18,-118.02 294.3,-117.31 292.43,-116.46 290.59,-115.52"/>
<polygon fill="green" stroke="green" stroke-width="0.29" points="292.11,-112.35 281.74,-110.16 288.49,-118.34 292.11,-112.35"/>
</g>
<!-- &#45;11&#45;&gt;612 -->
<g id="edge64" class="edge">
<title>&#45;11&#45;&gt;612</title>
<path fill="none" stroke="green" stroke-width="0.5" stroke-dasharray="1,5" d="M658.16,-156.42C655.2,-155.52 652.12,-154.67 649.18,-154.02 524.08,-126.38 482.41,-164.89 363.18,-118.02 361.31,-117.29 359.44,-116.42 357.61,-115.46"/>
<polygon fill="green" stroke="green" stroke-width="0.5" points="359.14,-112.3 348.78,-110.08 355.49,-118.27 359.14,-112.3"/>
</g>
<!-- &#45;11&#45;&gt;613 -->
<g id="edge65" class="edge">
<title>&#45;11&#45;&gt;613</title>
<path fill="none" stroke="green" stroke-width="0.45" d="M658.14,-156.51C655.18,-155.6 652.1,-154.73 649.18,-154.02 553.28,-130.93 521.29,-155.83 430.18,-118.02 428.32,-117.25 426.47,-116.36 424.64,-115.38"/>
<polygon fill="green" stroke="green" stroke-width="0.45" points="426.18,-112.22 415.83,-109.94 422.5,-118.17 426.18,-112.22"/>
</g>
<!-- &#45;12 -->
<g id="node12" class="node">
<title>&#45;12</title>
<polygon fill="lightgray" stroke="black" points="188.18,-172.02 156.18,-172.02 156.18,-154.02 188.18,-154.02 188.18,-172.02"/>
<text text-anchor="middle" x="172.18" y="-160.82" font-family="Times,serif" font-size="9.00">&#45;12</text>
</g>
<!-- &#45;12&#45;&gt;0 -->
<g id="edge124" class="edge">
<title>&#45;12&#45;&gt;0</title>
<path fill="none" stroke="red" stroke-width="0.23" d="M155.97,-156.82C123.11,-146.2 51.43,-122.62 48.18,-118.02 35.49,-100.06 34.08,-85.42 48.18,-68.53 80.66,-29.61 240.02,-20.17 303.76,-17.94"/>
<polygon fill="red" stroke="red" stroke-width="0.23" points="303.94,-21.43 313.82,-17.62 303.71,-14.44 303.94,-21.43"/>
</g>
<!-- &#45;12&#45;&gt;1 -->
<g id="edge125" class="edge">
<title>&#45;12&#45;&gt;1</title>
<path fill="none" stroke="red" stroke-width="0.22" d="M155.89,-156.51C132.08,-148.08 89.67,-131.55 81.18,-118.02 69.49,-99.39 66.67,-85.06 81.18,-68.53 121.68,-22.36 295.52,-47.1 355.18,-32.53 360.93,-31.12 366.98,-29.2 372.64,-27.19"/>
<polygon fill="red" stroke="red" stroke-width="0.22" points="374.13,-30.37 382.26,-23.59 371.67,-23.82 374.13,-30.37"/>
</g>
<!-- &#45;12&#45;&gt;610 -->
<g id="edge68" class="edge">
<title>&#45;12&#45;&gt;610</title>
<path fill="none" stroke="green" stroke-width="0.15" d="M188.21,-156.48C191.17,-155.58 194.25,-154.71 197.18,-154.02 299.6,-129.92 333.79,-157.86 431.18,-118.02 433.04,-117.26 434.9,-116.38 436.73,-115.4"/>
<polygon fill="green" stroke="green" stroke-width="0.15" points="438.86,-118.2 445.54,-109.98 435.19,-112.24 438.86,-118.2"/>
</g>
<!-- &#45;12&#45;&gt;608 -->
<g id="edge66" class="edge">
<title>&#45;12&#45;&gt;608</title>
<path fill="none" stroke="green" stroke-width="0.48" d="M188.2,-156.4C191.16,-155.51 194.24,-154.66 197.18,-154.02 328.83,-125.36 372.64,-166.92 498.18,-118.02 500.05,-117.29 501.92,-116.43 503.76,-115.48"/>
<polygon fill="green" stroke="green" stroke-width="0.48" points="505.87,-118.29 512.59,-110.1 502.23,-112.31 505.87,-118.29"/>
</g>
<!-- &#45;12&#45;&gt;609 -->
<g id="edge67" class="edge">
<title>&#45;12&#45;&gt;609</title>
<path fill="none" stroke="green" stroke-width="0.18" d="M170.4,-153.99C168.94,-147.38 166.76,-137.54 164.59,-127.75"/>
<polygon fill="green" stroke="green" stroke-width="0.18" points="167.95,-126.71 162.37,-117.7 161.11,-128.22 167.95,-126.71"/>
</g>
<!-- &#45;12&#45;&gt;611 -->
<g id="edge69" class="edge">
<title>&#45;12&#45;&gt;611</title>
<path fill="none" stroke="red" stroke-width="0.32" d="M182.98,-153.99C195.84,-144.41 217.82,-128.04 235.52,-114.87"/>
<polygon fill="red" stroke="red" stroke-width="0.32" points="237.88,-117.48 243.81,-108.7 233.7,-111.86 237.88,-117.48"/>
</g>
<!-- &#45;12&#45;&gt;612 -->
<g id="edge70" class="edge">
<title>&#45;12&#45;&gt;612</title>
<path fill="none" stroke="green" stroke-width="0.43" d="M188.4,-156.6C219.92,-146.03 287.24,-123.21 297.18,-118.02 298.96,-117.09 300.76,-116.08 302.54,-115"/>
<polygon fill="green" stroke="green" stroke-width="0.43" points="304.79,-117.71 311.23,-109.31 300.95,-111.86 304.79,-117.71"/>
</g>
<!-- &#45;12&#45;&gt;613 -->
<g id="edge71" class="edge">
<title>&#45;12&#45;&gt;613</title>
<path fill="none" stroke="red" stroke-width="0.22" d="M188.25,-156.63C191.21,-155.71 194.27,-154.8 197.18,-154.02 270.54,-134.43 294.79,-148.85 364.18,-118.02 366.02,-117.21 367.86,-116.28 369.67,-115.27"/>
<polygon fill="red" stroke="red" stroke-width="0.22" points="371.84,-118.04 378.45,-109.76 368.12,-112.11 371.84,-118.04"/>
</g>
<!-- &#45;13 -->
<g id="node13" class="node">
<title>&#45;13</title>
<polygon fill="lightgray" stroke="black" points="420.18,-172.02 388.18,-172.02 388.18,-154.02 420.18,-154.02 420.18,-172.02"/>
<text text-anchor="middle" x="404.18" y="-160.82" font-family="Times,serif" font-size="9.00">&#45;13</text>
</g>
<!-- &#45;13&#45;&gt;0 -->
<g id="edge126" class="edge">
<title>&#45;13&#45;&gt;0</title>
<path fill="none" stroke="green" stroke-width="0.26" d="M420.28,-156.74C423.23,-155.81 426.29,-154.87 429.18,-154.02 489.2,-136.49 527.04,-167.57 565.18,-118.02 578.6,-100.59 579.24,-85.45 565.18,-68.53 509.42,-1.41 456.36,-55.51 372.18,-32.53 366.47,-30.97 360.44,-28.99 354.78,-26.97"/>
<polygon fill="green" stroke="green" stroke-width="0.26" points="355.74,-23.59 345.15,-23.38 353.3,-30.15 355.74,-23.59"/>
</g>
<!-- &#45;13&#45;&gt;1 -->
<g id="edge127" class="edge">
<title>&#45;13&#45;&gt;1</title>
<path fill="none" stroke="green" stroke-width="0.23" d="M420.23,-156.53C423.18,-155.62 426.26,-154.74 429.18,-154.02 474.52,-142.88 606.13,-153.76 636.18,-118.02 650.34,-101.19 650.01,-85.64 636.18,-68.53 609.67,-35.73 480.27,-22.96 423.72,-18.89"/>
<polygon fill="green" stroke="green" stroke-width="0.23" points="423.64,-15.37 413.43,-18.19 423.17,-22.36 423.64,-15.37"/>
</g>
<!-- &#45;13&#45;&gt;610 -->
<g id="edge74" class="edge">
<title>&#45;13&#45;&gt;610</title>
<path fill="none" stroke="green" stroke-width="0.16" d="M411.3,-153.99C418.68,-145.65 430.62,-132.17 441.29,-120.12"/>
<polygon fill="green" stroke="green" stroke-width="0.16" points="444.04,-122.29 448.05,-112.49 438.8,-117.65 444.04,-122.29"/>
</g>
<!-- &#45;13&#45;&gt;608 -->
<g id="edge72" class="edge">
<title>&#45;13&#45;&gt;608</title>
<path fill="none" stroke="green" stroke-width="0.21" d="M420.27,-155.57C439.36,-147.68 471.92,-133.44 498.18,-118.02 499.87,-117.03 501.58,-115.98 503.29,-114.88"/>
<polygon fill="green" stroke="green" stroke-width="0.21" points="505.36,-117.71 511.69,-109.21 501.44,-111.91 505.36,-117.71"/>
</g>
<!-- &#45;13&#45;&gt;609 -->
<g id="edge73" class="edge">
<title>&#45;13&#45;&gt;609</title>
<path fill="none" stroke="red" stroke-width="0.31" d="M388.1,-156.68C385.14,-155.76 382.08,-154.83 379.18,-154.02 313.15,-135.56 295.13,-136.78 229.18,-118.02 216.32,-114.37 202.33,-109.87 190.14,-105.78"/>
<polygon fill="red" stroke="red" stroke-width="0.31" points="190.97,-102.37 180.38,-102.47 188.72,-109 190.97,-102.37"/>
</g>
<!-- &#45;13&#45;&gt;611 -->
<g id="edge75" class="edge">
<title>&#45;13&#45;&gt;611</title>
<path fill="none" stroke="green" stroke-width="0.47" d="M387.9,-156.75C366.27,-149.44 327.18,-135.18 296.18,-118.02 294.42,-117.05 292.64,-116 290.87,-114.9"/>
<polygon fill="green" stroke="green" stroke-width="0.47" points="292.48,-111.77 282.22,-109.14 288.6,-117.59 292.48,-111.77"/>
</g>
<!-- &#45;13&#45;&gt;612 -->
<g id="edge76" class="edge">
<title>&#45;13&#45;&gt;612</title>
<path fill="none" stroke="red" stroke-width="0.32" d="M395.4,-153.99C385.58,-145 369.23,-130.03 355.36,-117.33"/>
<polygon fill="red" stroke="red" stroke-width="0.32" points="357.7,-114.73 347.96,-110.56 352.98,-119.89 357.7,-114.73"/>
</g>
<!-- &#45;13&#45;&gt;613 -->
<g id="edge77" class="edge">
<title>&#45;13&#45;&gt;613</title>
<path fill="none" stroke="red" stroke-width="0.32" d="M403.35,-153.99C402.67,-147.43 401.67,-137.7 400.66,-127.98"/>
<polygon fill="red" stroke="red" stroke-width="0.32" points="404.14,-127.58 399.63,-118 397.18,-128.3 404.14,-127.58"/>
</g>
<!-- &#45;14 -->
<g id="node14" class="node">
<title>&#45;14</title>
<polygon fill="lightgray" stroke="black" points="44.18,-172.02 12.18,-172.02 12.18,-154.02 44.18,-154.02 44.18,-172.02"/>
<text text-anchor="middle" x="28.18" y="-160.82" font-family="Times,serif" font-size="9.00">&#45;14</text>
</g>
<!-- &#45;14&#45;&gt;0 -->
<g id="edge128" class="edge">
<title>&#45;14&#45;&gt;0</title>
<path fill="none" stroke="green" stroke-width="0.46" d="M22.59,-153.91C11.14,-136.19 -12.21,-93.61 9.18,-68.53 47.07,-24.1 233.44,-18 303.5,-17.3"/>
<polygon fill="green" stroke="green" stroke-width="0.46" points="303.73,-20.79 313.7,-17.22 303.68,-13.79 303.73,-20.79"/>
</g>
<!-- &#45;14&#45;&gt;1 -->
<g id="edge129" class="edge">
<title>&#45;14&#45;&gt;1</title>
<path fill="none" stroke="red" stroke-width="0.13" d="M26.61,-153.82C23.63,-135.54 19.42,-91.26 43.18,-68.53 93.61,-20.28 287.25,-48.56 355.18,-32.53 360.94,-31.17 366.99,-29.26 372.65,-27.26"/>
<polygon fill="red" stroke="red" stroke-width="0.13" points="374.15,-30.44 382.28,-23.64 371.68,-23.89 374.15,-30.44"/>
</g>
<!-- &#45;14&#45;&gt;610 -->
<g id="edge80" class="edge">
<title>&#45;14&#45;&gt;610</title>
<path fill="none" stroke="red" stroke-width="0.5" d="M44.18,-156.34C47.15,-155.45 50.23,-154.63 53.18,-154.02 218.5,-120.11 273.2,-177.38 431.18,-118.02 433.06,-117.32 434.94,-116.47 436.78,-115.53"/>
<polygon fill="red" stroke="red" stroke-width="0.5" points="438.87,-118.35 445.63,-110.19 435.26,-112.36 438.87,-118.35"/>
</g>
<!-- &#45;14&#45;&gt;608 -->
<g id="edge78" class="edge">
<title>&#45;14&#45;&gt;608</title>
<path fill="none" stroke="red" stroke-width="0.21" d="M44.45,-156.23C47.33,-155.37 50.32,-154.59 53.18,-154.02 247.84,-115.54 311.94,-186.48 498.18,-118.02 500.07,-117.33 501.95,-116.5 503.79,-115.56"/>
<polygon fill="red" stroke="red" stroke-width="0.21" points="505.88,-118.39 512.65,-110.24 502.27,-112.39 505.88,-118.39"/>
</g>
<!-- &#45;14&#45;&gt;609 -->
<g id="edge79" class="edge">
<title>&#45;14&#45;&gt;609</title>
<path fill="none" stroke="green" stroke-width="0.29" d="M43.48,-153.99C63.81,-143.31 100.19,-124.2 126.33,-110.48"/>
<polygon fill="green" stroke="green" stroke-width="0.29" points="128.22,-113.44 135.45,-105.69 124.97,-107.24 128.22,-113.44"/>
</g>
<!-- &#45;14&#45;&gt;611 -->
<g id="edge81" class="edge">
<title>&#45;14&#45;&gt;611</title>
<path fill="none" stroke="green" stroke-width="0.3" d="M44.28,-156.73C47.23,-155.8 50.29,-154.86 53.18,-154.02 114.05,-136.36 130.39,-135.96 191.18,-118.02 204,-114.24 217.98,-109.72 230.18,-105.65"/>
<polygon fill="green" stroke="green" stroke-width="0.3" points="231.59,-108.86 239.95,-102.35 229.36,-102.23 231.59,-108.86"/>
</g>
<!-- &#45;14&#45;&gt;612 -->
<g id="edge82" class="edge">
<title>&#45;14&#45;&gt;612</title>
<path fill="none" stroke="green" stroke-width="0.11" d="M44.21,-156.47C47.17,-155.57 50.25,-154.7 53.18,-154.02 159.96,-129.24 195.59,-159.21 297.18,-118.02 299.04,-117.27 300.9,-116.39 302.73,-115.42"/>
<polygon fill="green" stroke="green" stroke-width="0.11" points="304.86,-118.22 311.55,-110 301.2,-112.25 304.86,-118.22"/>
</g>
<!-- &#45;14&#45;&gt;613 -->
<g id="edge83" class="edge">
<title>&#45;14&#45;&gt;613</title>
<path fill="none" stroke="green" stroke-width="0.14" d="M44.19,-156.39C47.15,-155.5 50.24,-154.66 53.18,-154.02 189.2,-124.68 234.43,-168.28 364.18,-118.02 366.06,-117.3 367.92,-116.44 369.76,-115.49"/>
<polygon fill="green" stroke="green" stroke-width="0.14" points="371.87,-118.3 378.6,-110.11 368.23,-112.32 371.87,-118.3"/>
</g>
<!-- &#45;15 -->
<g id="node15" class="node">
<title>&#45;15</title>
<polygon fill="lightgray" stroke="black" points="370.18,-172.02 338.18,-172.02 338.18,-154.02 370.18,-154.02 370.18,-172.02"/>
<text text-anchor="middle" x="354.18" y="-160.82" font-family="Times,serif" font-size="9.00">&#45;15</text>
</g>
<!-- &#45;15&#45;&gt;0 -->
<g id="edge130" class="edge">
<title>&#45;15&#45;&gt;0</title>
<path fill="none" stroke="red" stroke-width="0.16" d="M338.09,-156.63C304.7,-145.4 230.83,-120.35 229.18,-118.02 216.47,-100.07 217.67,-87.28 229.18,-68.53 245.4,-42.1 279.95,-28.78 304.1,-22.45"/>
<polygon fill="red" stroke="red" stroke-width="0.16" points="305.13,-25.8 314.05,-20.07 303.51,-18.99 305.13,-25.8"/>
</g>
<!-- &#45;15&#45;&gt;1 -->
<g id="edge131" class="edge">
<title>&#45;15&#45;&gt;1</title>
<path fill="none" stroke="green" stroke-width="0.46" d="M370.24,-156.58C373.19,-155.66 376.27,-154.77 379.18,-154.02 460.75,-133.16 511.6,-182.97 565.18,-118.02 579.18,-101.06 578.27,-86.21 565.18,-68.53 532.48,-24.36 462.57,-16.97 424.04,-16.47"/>
<polygon fill="green" stroke="green" stroke-width="0.46" points="423.6,-12.97 413.61,-16.49 423.62,-19.97 423.6,-12.97"/>
</g>
<!-- &#45;15&#45;&gt;610 -->
<g id="edge86" class="edge">
<title>&#45;15&#45;&gt;610</title>
<path fill="none" stroke="green" stroke-width="0.2" d="M369.51,-153.88C385.25,-145.38 410.33,-131.43 431.18,-118.02 432.83,-116.96 434.51,-115.86 436.19,-114.72"/>
<polygon fill="green" stroke="green" stroke-width="0.2" points="438.3,-117.51 444.52,-108.93 434.31,-111.76 438.3,-117.51"/>
</g>
<!-- &#45;15&#45;&gt;608 -->
<g id="edge84" class="edge">
<title>&#45;15&#45;&gt;608</title>
<path fill="none" stroke="red" stroke-width="0.5" d="M370.31,-156.82C373.26,-155.88 376.31,-154.92 379.18,-154.02 431.94,-137.6 448.64,-142.49 498.18,-118.02 499.98,-117.13 501.8,-116.15 503.59,-115.1"/>
<polygon fill="red" stroke="red" stroke-width="0.5" points="505.81,-117.83 512.31,-109.46 502.01,-111.95 505.81,-117.83"/>
</g>
<!-- &#45;15&#45;&gt;609 -->
<g id="edge85" class="edge">
<title>&#45;15&#45;&gt;609</title>
<path fill="none" stroke="green" stroke-width="0.36" d="M338.08,-156.75C335.12,-155.82 332.06,-154.88 329.18,-154.02 270.45,-136.69 252.45,-142.19 196.18,-118.02 192.78,-116.56 189.31,-114.84 185.93,-113.01"/>
<polygon fill="green" stroke="green" stroke-width="0.36" points="187.65,-109.96 177.24,-107.98 184.14,-116.02 187.65,-109.96"/>
</g>
<!-- &#45;15&#45;&gt;611 -->
<g id="edge87" class="edge">
<title>&#45;15&#45;&gt;611</title>
<path fill="none" stroke="green" stroke-width="0.12" d="M343.38,-153.99C330.52,-144.41 308.54,-128.04 290.84,-114.87"/>
<polygon fill="green" stroke="green" stroke-width="0.12" points="292.66,-111.86 282.55,-108.7 288.48,-117.48 292.66,-111.86"/>
</g>
<!-- &#45;15&#45;&gt;612 -->
<g id="edge88" class="edge">
<title>&#45;15&#45;&gt;612</title>
<path fill="none" stroke="green" stroke-width="0.22" d="M351.33,-153.99C348.89,-147.08 345.19,-136.65 341.57,-126.42"/>
<polygon fill="green" stroke="green" stroke-width="0.22" points="344.8,-125.07 338.16,-116.81 338.2,-127.4 344.8,-125.07"/>
</g>
<!-- &#45;15&#45;&gt;613 -->
<g id="edge89" class="edge">
<title>&#45;15&#45;&gt;613</title>
<path fill="none" stroke="red" stroke-width="0.33" d="M359.28,-153.99C364.13,-146.35 371.71,-134.41 378.82,-123.21"/>
<polygon fill="red" stroke="red" stroke-width="0.33" points="381.96,-124.79 384.36,-114.47 376.05,-121.04 381.96,-124.79"/>
</g>
<!-- 610&#45;&gt;0 -->
<g id="edge94" class="edge">
<title>610&#45;&gt;0</title>
<path fill="none" stroke="green" stroke-width="0.38" d="M444.62,-77.45C440.28,-74.37 435.64,-71.24 431.18,-68.53 405.66,-52.99 374.85,-37.84 354.03,-28.09"/>
<polygon fill="green" stroke="green" stroke-width="0.38" points="355.49,-24.91 344.94,-23.88 352.55,-31.26 355.49,-24.91"/>
</g>
<!-- 610&#45;&gt;1 -->
<g id="edge95" class="edge">
<title>610&#45;&gt;1</title>
<path fill="none" stroke="green" stroke-width="0.32" d="M447.96,-74.12C437.86,-62.81 424.88,-48.28 414.57,-36.74"/>
<polygon fill="green" stroke="green" stroke-width="0.32" points="416.89,-34.07 407.62,-28.95 411.67,-38.74 416.89,-34.07"/>
</g>
<!-- 608&#45;&gt;0 -->
<g id="edge90" class="edge">
<title>608&#45;&gt;0</title>
<path fill="none" stroke="red" stroke-width="0.11" d="M512.34,-77.03C507.88,-73.91 503.01,-70.87 498.18,-68.53 445.76,-43.14 427.58,-50.48 372.18,-32.53 366.55,-30.7 360.55,-28.61 354.9,-26.57"/>
<polygon fill="red" stroke="red" stroke-width="0.11" points="355.85,-23.19 345.25,-23.03 353.44,-29.76 355.85,-23.19"/>
</g>
<!-- 608&#45;&gt;1 -->
<g id="edge91" class="edge">
<title>608&#45;&gt;1</title>
<path fill="none" stroke="red" stroke-width="0.46" d="M511.62,-77.45C507.28,-74.37 502.64,-71.24 498.18,-68.53 472.66,-52.99 441.85,-37.84 421.03,-28.09"/>
<polygon fill="red" stroke="red" stroke-width="0.46" points="422.49,-24.91 411.94,-23.88 419.55,-31.26 422.49,-24.91"/>
</g>
<!-- 609&#45;&gt;0 -->
<g id="edge92" class="edge">
<title>609&#45;&gt;0</title>
<path fill="none" stroke="green" stroke-width="0.32" d="M177.43,-78.99C183.35,-75.37 189.92,-71.6 196.18,-68.53 233.06,-50.43 278.04,-34.37 305.37,-25.24"/>
<polygon fill="green" stroke="green" stroke-width="0.32" points="306.53,-28.54 314.93,-22.09 304.34,-21.9 306.53,-28.54"/>
</g>
<!-- 609&#45;&gt;1 -->
<g id="edge93" class="edge">
<title>609&#45;&gt;1</title>
<path fill="none" stroke="red" stroke-width="0.24" d="M180.45,-84.34C194.51,-79.6 212.83,-73.56 229.18,-68.53 284.85,-51.4 299.78,-50.48 355.18,-32.53 360.81,-30.7 366.81,-28.61 372.46,-26.57"/>
<polygon fill="red" stroke="red" stroke-width="0.24" points="373.92,-29.76 382.11,-23.03 371.51,-23.19 373.92,-29.76"/>
</g>
<!-- 611&#45;&gt;0 -->
<g id="edge96" class="edge">
<title>611&#45;&gt;0</title>
<path fill="none" stroke="red" stroke-width="0.4" d="M279.4,-74.12C289.5,-62.81 302.48,-48.28 312.79,-36.74"/>
<polygon fill="red" stroke="red" stroke-width="0.4" points="315.69,-38.74 319.74,-28.95 310.47,-34.07 315.69,-38.74"/>
</g>
<!-- 611&#45;&gt;1 -->
<g id="edge97" class="edge">
<title>611&#45;&gt;1</title>
<path fill="none" stroke="red" stroke-width="0.5" d="M282.74,-77.45C287.08,-74.37 291.72,-71.24 296.18,-68.53 321.7,-52.99 352.51,-37.84 373.33,-28.09"/>
<polygon fill="red" stroke="red" stroke-width="0.5" points="374.81,-31.26 382.42,-23.88 371.87,-24.91 374.81,-31.26"/>
</g>
<!-- 612&#45;&gt;0 -->
<g id="edge98" class="edge">
<title>612&#45;&gt;0</title>
<path fill="none" stroke="green" stroke-width="0.5" d="M330.18,-68.13C330.18,-60.03 330.18,-50.97 330.18,-42.77"/>
<polygon fill="green" stroke="green" stroke-width="0.5" points="333.68,-42.64 330.18,-32.64 326.68,-42.64 333.68,-42.64"/>
</g>
<!-- 612&#45;&gt;1 -->
<g id="edge99" class="edge">
<title>612&#45;&gt;1</title>
<path fill="none" stroke="green" stroke-width="0.11" d="M346.4,-74.12C356.5,-62.81 369.48,-48.28 379.79,-36.74"/>
<polygon fill="green" stroke="green" stroke-width="0.11" points="382.69,-38.74 386.74,-28.95 377.47,-34.07 382.69,-38.74"/>
</g>
<!-- 613&#45;&gt;0 -->
<g id="edge100" class="edge">
<title>613&#45;&gt;0</title>
<path fill="none" stroke="red" stroke-width="0.5" d="M380.96,-74.12C370.86,-62.81 357.88,-48.28 347.57,-36.74"/>
<polygon fill="red" stroke="red" stroke-width="0.5" points="349.89,-34.07 340.62,-28.95 344.67,-38.74 349.89,-34.07"/>
</g>
<!-- 613&#45;&gt;1 -->
<g id="edge101" class="edge">
<title>613&#45;&gt;1</title>
<path fill="none" stroke="red" stroke-width="0.28" d="M397.18,-68.13C397.18,-60.03 397.18,-50.97 397.18,-42.77"/>
<polygon fill="red" stroke="red" stroke-width="0.28" points="400.68,-42.64 397.18,-32.64 393.68,-42.64 400.68,-42.64"/>
</g>
</g>
</svg>
