<?xml version="1.0" encoding="UTF-8" standalone="no"?>
<!DOCTYPE svg PUBLIC "-//W3C//DTD SVG 1.1//EN"
 "http://www.w3.org/Graphics/SVG/1.1/DTD/svg11.dtd">
<!-- Generated by graphviz version 2.40.1 (20161225.0304)
 -->
<!-- Title: %3 Pages: 1 -->
<svg width="421pt" height="348pt"
 viewBox="0.00 0.00 421.33 348.19" xmlns="http://www.w3.org/2000/svg" xmlns:xlink="http://www.w3.org/1999/xlink">
<g id="graph0" class="graph" transform="scale(1 1) rotate(0) translate(4 344.1909)">
<title>%3</title>
<polygon fill="#ffffff" stroke="transparent" points="-4,4 -4,-344.1909 417.3305,-344.1909 417.3305,4 -4,4"/>
<!-- &#45;1 -->
<g id="node1" class="node">
<title>&#45;1</title>
<polygon fill="#d3d3d3" stroke="#000000" points="36.5348,-340.1909 12.5348,-340.1909 12.5348,-322.1909 36.5348,-322.1909 36.5348,-340.1909"/>
<text text-anchor="middle" x="24.5348" y="-328.9909" font-family="Times,serif" font-size="9.00" fill="#000000">&#45;1</text>
</g>
<!-- 1064 -->
<g id="node6" class="node">
<title>1064</title>
<ellipse fill="#ffffff" stroke="#000000" cx="50.5348" cy="-261.4422" rx="25" ry="25"/>
<text text-anchor="middle" x="50.5348" y="-259.2422" font-family="Times,serif" font-size="9.00" fill="#000000">1064</text>
</g>
<!-- &#45;1&#45;&gt;1064 -->
<g id="edge1" class="edge">
<title>&#45;1&#45;&gt;1064</title>
<path fill="none" stroke="#00ff00" stroke-width=".1726" d="M27.9338,-322.0725C30.6042,-314.9088 34.4957,-304.4691 38.2997,-294.2646"/>
<polygon fill="#00ff00" stroke="#00ff00" stroke-width=".1726" points="41.6637,-295.2602 41.8771,-284.6675 35.1046,-292.8151 41.6637,-295.2602"/>
</g>
<!-- 1065 -->
<g id="node7" class="node">
<title>1065</title>
<ellipse fill="#ffffff" stroke="#000000" cx="110.5348" cy="-90.4472" rx="25" ry="25"/>
<text text-anchor="middle" x="110.5348" y="-88.2472" font-family="Times,serif" font-size="9.00" fill="#000000">1065</text>
</g>
<!-- &#45;1&#45;&gt;1065 -->
<g id="edge2" class="edge">
<title>&#45;1&#45;&gt;1065</title>
<path fill="none" stroke="#ff0000" stroke-width=".29" d="M19.0311,-321.9282C14.1245,-313.0937 7.3034,-299.2374 4.5348,-286.1909 -.032,-264.6713 -2.2514,-257.6195 4.5348,-236.6934 20.294,-188.0973 58.9252,-142.1241 84.9345,-115.1168"/>
<polygon fill="#ff0000" stroke="#ff0000" stroke-width=".29" points="87.721,-117.2749 92.2337,-107.6891 82.7282,-112.3685 87.721,-117.2749"/>
</g>
<!-- 1067 -->
<g id="node9" class="node">
<title>1067</title>
<ellipse fill="#ffffff" stroke="#000000" cx="163.5348" cy="-175.9447" rx="25" ry="25"/>
<text text-anchor="middle" x="163.5348" y="-173.7447" font-family="Times,serif" font-size="9.00" fill="#000000">1067</text>
</g>
<!-- &#45;1&#45;&gt;1067 -->
<g id="edge3" class="edge">
<title>&#45;1&#45;&gt;1067</title>
<path fill="none" stroke="#00ff00" stroke-width=".4186" d="M20.2298,-321.9195C12.5282,-303.822 -1.2216,-263.2443 16.5348,-236.6934 41.3674,-199.5616 93.5129,-185.1001 128.5379,-179.4849"/>
<polygon fill="#00ff00" stroke="#00ff00" stroke-width=".4186" points="129.4075,-182.8961 138.8089,-178.0109 128.4131,-175.967 129.4075,-182.8961"/>
</g>
<!-- 1068 -->
<g id="node10" class="node">
<title>1068</title>
<ellipse fill="#ffffff" stroke="#000000" cx="194.5348" cy="-261.4422" rx="25" ry="25"/>
<text text-anchor="middle" x="194.5348" y="-259.2422" font-family="Times,serif" font-size="9.00" fill="#000000">1068</text>
</g>
<!-- &#45;1&#45;&gt;1068 -->
<g id="edge4" class="edge">
<title>&#45;1&#45;&gt;1068</title>
<path fill="none" stroke="#ff0000" stroke-width=".3166" d="M36.7607,-326.1748C62.6188,-315.5655 123.6008,-290.5454 161.7268,-274.9028"/>
<polygon fill="#ff0000" stroke="#ff0000" stroke-width=".3166" points="163.4358,-277.9849 171.3589,-270.9509 160.7787,-271.5087 163.4358,-277.9849"/>
</g>
<!-- &#45;2 -->
<g id="node2" class="node">
<title>&#45;2</title>
<polygon fill="#d3d3d3" stroke="#000000" points="338.5348,-340.1909 314.5348,-340.1909 314.5348,-322.1909 338.5348,-322.1909 338.5348,-340.1909"/>
<text text-anchor="middle" x="326.5348" y="-328.9909" font-family="Times,serif" font-size="9.00" fill="#000000">&#45;2</text>
</g>
<!-- &#45;2&#45;&gt;1064 -->
<g id="edge5" class="edge">
<title>&#45;2&#45;&gt;1064</title>
<path fill="none" stroke="#00ff00" stroke-width=".1163" d="M314.3193,-328.1039C274.3783,-318.0103 146.677,-285.7386 84.7948,-270.1001"/>
<polygon fill="#00ff00" stroke="#00ff00" stroke-width=".1163" points="85.2983,-266.6174 74.7455,-267.5605 83.5831,-273.404 85.2983,-266.6174"/>
</g>
<!-- &#45;2&#45;&gt;1065 -->
<g id="edge6" class="edge">
<title>&#45;2&#45;&gt;1065</title>
<path fill="none" stroke="#00ff00" stroke-width=".3726" stroke-dasharray="1,5" d="M333.4151,-322.0355C345.6984,-304.4814 368.6695,-265.2963 352.5348,-236.6934 349.5391,-231.3829 205.3642,-146.1887 141.0033,-108.3345"/>
<polygon fill="#00ff00" stroke="#00ff00" stroke-width=".3726" points="142.5073,-105.1587 132.1128,-103.1081 138.9598,-111.1932 142.5073,-105.1587"/>
</g>
<!-- 1066 -->
<g id="node8" class="node">
<title>1066</title>
<ellipse fill="#ffffff" stroke="#000000" cx="330.5348" cy="-175.9447" rx="25" ry="25"/>
<text text-anchor="middle" x="330.5348" y="-173.7447" font-family="Times,serif" font-size="9.00" fill="#000000">1066</text>
</g>
<!-- &#45;2&#45;&gt;1066 -->
<g id="edge7" class="edge">
<title>&#45;2&#45;&gt;1066</title>
<path fill="none" stroke="#ff0000" stroke-width=".5" d="M338.6017,-328.3924C356.8874,-323.4285 391.0194,-311.1642 405.5348,-286.1909 416.5896,-267.1714 415.0043,-256.5499 405.5348,-236.6934 396.406,-217.5516 377.9722,-202.4886 361.6652,-192.1501"/>
<polygon fill="#ff0000" stroke="#ff0000" stroke-width=".5" points="363.2742,-189.0339 352.8972,-186.8966 359.6764,-195.0386 363.2742,-189.0339"/>
</g>
<!-- &#45;2&#45;&gt;1067 -->
<g id="edge8" class="edge">
<title>&#45;2&#45;&gt;1067</title>
<path fill="none" stroke="#00ff00" stroke-width=".2328" d="M330.8847,-322.0838C338.8564,-303.9223 353.3432,-262.7131 334.5348,-236.6934 304.6469,-195.3464 273.4705,-218.1585 225.5348,-200.6934 215.9171,-197.1893 205.5561,-193.1573 196.1093,-189.3787"/>
<polygon fill="#00ff00" stroke="#00ff00" stroke-width=".2328" points="197.2483,-186.0642 186.6652,-185.5656 194.6275,-192.555 197.2483,-186.0642"/>
</g>
<!-- &#45;2&#45;&gt;1068 -->
<g id="edge9" class="edge">
<title>&#45;2&#45;&gt;1068</title>
<path fill="none" stroke="#ff0000" stroke-width=".2582" d="M314.3531,-324.7541C294.3982,-314.21 254.1341,-292.9344 225.8058,-277.9658"/>
<polygon fill="#ff0000" stroke="#ff0000" stroke-width=".2582" points="227.1798,-274.7332 216.703,-273.1559 223.9094,-280.9224 227.1798,-274.7332"/>
</g>
<!-- 1069 -->
<g id="node11" class="node">
<title>1069</title>
<ellipse fill="#ffffff" stroke="#000000" cx="300.5348" cy="-261.4422" rx="25" ry="25"/>
<text text-anchor="middle" x="300.5348" y="-259.2422" font-family="Times,serif" font-size="9.00" fill="#000000">1069</text>
</g>
<!-- &#45;2&#45;&gt;1069 -->
<g id="edge10" class="edge">
<title>&#45;2&#45;&gt;1069</title>
<path fill="none" stroke="#ff0000" stroke-width=".4969" d="M323.1357,-322.0725C320.4653,-314.9088 316.5738,-304.4691 312.7699,-294.2646"/>
<polygon fill="#ff0000" stroke="#ff0000" stroke-width=".4969" points="315.9649,-292.8151 309.1924,-284.6675 309.4058,-295.2602 315.9649,-292.8151"/>
</g>
<!-- &#45;3 -->
<g id="node3" class="node">
<title>&#45;3</title>
<polygon fill="#d3d3d3" stroke="#000000" points="179.5348,-340.1909 155.5348,-340.1909 155.5348,-322.1909 179.5348,-322.1909 179.5348,-340.1909"/>
<text text-anchor="middle" x="167.5348" y="-328.9909" font-family="Times,serif" font-size="9.00" fill="#000000">&#45;3</text>
</g>
<!-- &#45;3&#45;&gt;1064 -->
<g id="edge11" class="edge">
<title>&#45;3&#45;&gt;1064</title>
<path fill="none" stroke="#00ff00" stroke-width=".2797" d="M155.282,-324.3335C139.841,-315.6434 112.5378,-300.1166 89.5348,-286.1909 86.4928,-284.3494 83.3345,-282.4032 80.1915,-280.444"/>
<polygon fill="#00ff00" stroke="#00ff00" stroke-width=".2797" points="81.8109,-277.3277 71.4832,-274.9636 78.0825,-283.2522 81.8109,-277.3277"/>
</g>
<!-- &#45;3&#45;&gt;1065 -->
<g id="edge12" class="edge">
<title>&#45;3&#45;&gt;1065</title>
<path fill="none" stroke="#00ff00" stroke-width=".2292" stroke-dasharray="1,5" d="M164.5046,-322.1079C157.5475,-300.9983 140.2096,-246.9061 129.5348,-200.6934 123.7496,-175.6489 118.8681,-147.0349 115.502,-125.2353"/>
<polygon fill="#00ff00" stroke="#00ff00" stroke-width=".2292" points="118.9294,-124.4911 113.974,-115.1266 112.008,-125.5374 118.9294,-124.4911"/>
</g>
<!-- &#45;3&#45;&gt;1066 -->
<g id="edge13" class="edge">
<title>&#45;3&#45;&gt;1066</title>
<path fill="none" stroke="#00ff00" stroke-width=".3647" d="M179.5375,-323.7889C192.4268,-315.5224 213.1281,-301.3052 228.5348,-286.1909 248.3327,-266.7686 247.9757,-257.3028 266.5348,-236.6934 278.3079,-223.6196 292.398,-210.0502 304.3568,-199.0609"/>
<polygon fill="#00ff00" stroke="#00ff00" stroke-width=".3647" points="306.8135,-201.5578 311.862,-192.2431 302.1066,-196.3765 306.8135,-201.5578"/>
</g>
<!-- &#45;3&#45;&gt;1067 -->
<g id="edge14" class="edge">
<title>&#45;3&#45;&gt;1067</title>
<path fill="none" stroke="#00ff00" stroke-width=".4969" d="M165.666,-321.9319C163.9384,-312.8682 161.4977,-298.6459 160.5348,-286.1909 158.5942,-261.0904 159.4384,-232.6912 160.7187,-211.0032"/>
<polygon fill="#00ff00" stroke="#00ff00" stroke-width=".4969" points="164.2168,-211.145 161.372,-200.9393 157.2315,-210.6915 164.2168,-211.145"/>
</g>
<!-- &#45;3&#45;&gt;1068 -->
<g id="edge15" class="edge">
<title>&#45;3&#45;&gt;1068</title>
<path fill="none" stroke="#00ff00" stroke-width=".3069" d="M171.0645,-322.0725C173.8376,-314.9088 177.8789,-304.4691 181.8291,-294.2646"/>
<polygon fill="#00ff00" stroke="#00ff00" stroke-width=".3069" points="185.1981,-295.2567 185.5441,-284.6675 178.6701,-292.7296 185.1981,-295.2567"/>
</g>
<!-- &#45;3&#45;&gt;1069 -->
<g id="edge16" class="edge">
<title>&#45;3&#45;&gt;1069</title>
<path fill="none" stroke="#00ff00" stroke-width=".4824" d="M179.6357,-325.9537C197.7605,-317.986 232.8895,-302.0627 261.5348,-286.1909 264.6452,-284.4675 267.8482,-282.5986 271.0184,-280.6862"/>
<polygon fill="#00ff00" stroke="#00ff00" stroke-width=".4824" points="273.1062,-283.51 279.7619,-275.2667 269.4183,-277.5602 273.1062,-283.51"/>
</g>
<!-- 0 -->
<g id="node4" class="node">
<title>0</title>
<ellipse fill="#add8e6" stroke="#000000" cx="277.5348" cy="-14.8492" rx="14.7" ry="14.7"/>
<text text-anchor="middle" x="277.5348" y="-12.6492" font-family="Times,serif" font-size="9.00" fill="#000000">0</text>
</g>
<!-- 1 -->
<g id="node5" class="node">
<title>1</title>
<ellipse fill="#add8e6" stroke="#000000" cx="110.5348" cy="-14.8492" rx="14.7" ry="14.7"/>
<text text-anchor="middle" x="110.5348" y="-12.6492" font-family="Times,serif" font-size="9.00" fill="#000000">1</text>
</g>
<!-- 1064&#45;&gt;1 -->
<g id="edge17" class="edge">
<title>1064&#45;&gt;1</title>
<path fill="none" stroke="#00ff00" stroke-width=".1805" d="M42.763,-237.627C31.6739,-199.1775 15.5613,-122.0462 43.5348,-65.6985 52.676,-47.285 72.0253,-33.7458 87.5908,-25.2886"/>
<polygon fill="#00ff00" stroke="#00ff00" stroke-width=".1805" points="89.3353,-28.3282 96.6685,-20.6813 86.1672,-22.0862 89.3353,-28.3282"/>
</g>
<!-- 1065&#45;&gt;0 -->
<g id="edge18" class="edge">
<title>1065&#45;&gt;0</title>
<path fill="none" stroke="#ff0000" stroke-width=".1562" d="M133.4052,-80.0942C165.1642,-65.7174 222.3118,-39.8477 254.2762,-25.378"/>
<polygon fill="#ff0000" stroke="#ff0000" stroke-width=".1562" points="256.0386,-28.4222 263.7052,-21.1096 253.1518,-22.0451 256.0386,-28.4222"/>
</g>
<!-- 1065&#45;&gt;1 -->
<g id="edge19" class="edge">
<title>1065&#45;&gt;1</title>
<path fill="none" stroke="#ff0000" stroke-width=".1127" d="M110.5348,-65.6936C110.5348,-57.4298 110.5348,-48.2178 110.5348,-39.9294"/>
<polygon fill="#ff0000" stroke="#ff0000" stroke-width=".1127" points="114.0349,-39.7229 110.5348,-29.7229 107.0349,-39.723 114.0349,-39.7229"/>
</g>
<!-- 1066&#45;&gt;0 -->
<g id="edge20" class="edge">
<title>1066&#45;&gt;0</title>
<path fill="none" stroke="#00ff00" stroke-width=".4898" stroke-dasharray="1,5" d="M322.7144,-152.1745C312.7204,-121.7974 295.5146,-69.4996 285.4671,-38.9598"/>
<polygon fill="#00ff00" stroke="#00ff00" stroke-width=".4898" points="288.6852,-37.5418 282.2352,-29.1365 282.0358,-39.7295 288.6852,-37.5418"/>
</g>
<!-- 1066&#45;&gt;1 -->
<g id="edge21" class="edge">
<title>1066&#45;&gt;1</title>
<path fill="none" stroke="#ff0000" stroke-width=".2" d="M310.232,-161.078C268.3236,-130.3905 172.6687,-60.347 130.7959,-29.6855"/>
<polygon fill="#ff0000" stroke="#ff0000" stroke-width=".2" points="132.8517,-26.8529 122.7157,-23.7688 128.7161,-32.5007 132.8517,-26.8529"/>
</g>
<!-- 1067&#45;&gt;0 -->
<g id="edge22" class="edge">
<title>1067&#45;&gt;0</title>
<path fill="none" stroke="#00ff00" stroke-width=".1796" d="M177.9729,-155.5418C199.7853,-124.7185 240.9169,-66.5946 262.865,-35.5793"/>
<polygon fill="#00ff00" stroke="#00ff00" stroke-width=".1796" points="265.8474,-37.4239 268.7669,-27.2393 260.1333,-33.3804 265.8474,-37.4239"/>
</g>
<!-- 1067&#45;&gt;1 -->
<g id="edge23" class="edge">
<title>1067&#45;&gt;1</title>
<path fill="none" stroke="#00ff00" stroke-width=".4623" d="M162.2105,-151.059C160.3113,-128.1734 155.7015,-93.6551 144.5348,-65.6985 140.057,-54.4882 132.8522,-43.2077 126.225,-34.1296"/>
<polygon fill="#00ff00" stroke="#00ff00" stroke-width=".4623" points="129.0043,-32.0023 120.1559,-26.1749 123.4391,-36.2483 129.0043,-32.0023"/>
</g>
<!-- 1067&#45;&gt;1065 -->
<g id="edge27" class="edge">
<title>1067&#45;&gt;1065</title>
<path fill="none" stroke="#ff0000" stroke-width=".3329" d="M150.4336,-154.8105C143.9997,-144.4315 136.1357,-131.7456 129.0954,-120.3885"/>
<polygon fill="#ff0000" stroke="#ff0000" stroke-width=".3329" points="131.9125,-118.2899 123.6689,-111.6346 125.9629,-121.9781 131.9125,-118.2899"/>
</g>
<!-- 1068&#45;&gt;0 -->
<g id="edge24" class="edge">
<title>1068&#45;&gt;0</title>
<path fill="none" stroke="#00ff00" stroke-width=".4023" d="M202.4931,-237.7978C218.3363,-190.7278 253.6594,-85.7829 269.5358,-38.6142"/>
<polygon fill="#00ff00" stroke="#00ff00" stroke-width=".4023" points="272.9145,-39.5476 272.7874,-28.9536 266.2802,-37.3146 272.9145,-39.5476"/>
</g>
<!-- 1068&#45;&gt;1 -->
<g id="edge25" class="edge">
<title>1068&#45;&gt;1</title>
<path fill="none" stroke="#00ff00" stroke-width=".5" d="M174.7326,-246.1616C145.5784,-222.1273 92.7987,-172.3009 76.5348,-115.196 70.5089,-94.0385 70.1454,-86.7491 76.5348,-65.6985 80.0408,-54.1473 87.1368,-42.8287 93.9434,-33.8136"/>
<polygon fill="#00ff00" stroke="#00ff00" stroke-width=".5" points="96.7288,-35.9348 100.254,-25.9436 91.2676,-31.5557 96.7288,-35.9348"/>
</g>
<!-- 1068&#45;&gt;1067 -->
<g id="edge28" class="edge">
<title>1068&#45;&gt;1067</title>
<path fill="none" stroke="#00ff00" stroke-width=".1516" d="M186.0639,-238.0796C182.7833,-229.0318 178.9697,-218.5139 175.4232,-208.7328"/>
<polygon fill="#00ff00" stroke="#00ff00" stroke-width=".1516" points="178.6945,-207.4871 171.9954,-199.279 172.1138,-209.8732 178.6945,-207.4871"/>
</g>
<!-- 1069&#45;&gt;0 -->
<g id="edge26" class="edge">
<title>1069&#45;&gt;0</title>
<path fill="none" stroke="#00ff00" stroke-width=".5" d="M321.5664,-248.3723C336.6663,-237.6503 355.8279,-220.9627 364.5348,-200.6934 373.2174,-180.4805 370.1947,-172.4543 364.5348,-151.196 351.9429,-103.9016 316.1682,-57.8038 294.6156,-33.1966"/>
<polygon fill="#00ff00" stroke="#00ff00" stroke-width=".5" points="297.1846,-30.8189 287.9057,-25.7048 291.9702,-35.489 297.1846,-30.8189"/>
</g>
</g>
</svg>
