<?xml version="1.0" encoding="UTF-8" standalone="no"?>
<!DOCTYPE svg PUBLIC "-//W3C//DTD SVG 1.1//EN"
 "http://www.w3.org/Graphics/SVG/1.1/DTD/svg11.dtd">
<!-- Generated by graphviz version 2.40.1 (20161225.0304)
 -->
<!-- Title: %3 Pages: 1 -->
<svg width="392pt" height="177pt"
 viewBox="0.00 0.00 392.50 177.20" xmlns="http://www.w3.org/2000/svg" xmlns:xlink="http://www.w3.org/1999/xlink">
<g id="graph0" class="graph" transform="scale(1 1) rotate(0) translate(4 173.196)">
<title>%3</title>
<polygon fill="#ffffff" stroke="transparent" points="-4,4 -4,-173.196 388.4975,-173.196 388.4975,4 -4,4"/>
<!-- &#45;1 -->
<g id="node1" class="node">
<title>&#45;1</title>
<polygon fill="#d3d3d3" stroke="#000000" points="153.7487,-169.196 129.7487,-169.196 129.7487,-151.196 153.7487,-151.196 153.7487,-169.196"/>
<text text-anchor="middle" x="141.7487" y="-157.996" font-family="Times,serif" font-size="9.00" fill="#000000">&#45;1</text>
</g>
<!-- 1646 -->
<g id="node6" class="node">
<title>1646</title>
<ellipse fill="#ffffff" stroke="#000000" cx="91.7487" cy="-90.4472" rx="25" ry="25"/>
<text text-anchor="middle" x="91.7487" y="-88.2472" font-family="Times,serif" font-size="9.00" fill="#000000">1646</text>
</g>
<!-- &#45;1&#45;&gt;1646 -->
<g id="edge1" class="edge">
<title>&#45;1&#45;&gt;1646</title>
<path fill="none" stroke="#00ff00" stroke-width=".3924" d="M135.2121,-151.0775C129.3331,-142.8764 120.3763,-130.3819 112.118,-118.8618"/>
<polygon fill="#00ff00" stroke="#00ff00" stroke-width=".3924" points="114.953,-116.8093 106.2822,-110.721 109.2638,-120.8876 114.953,-116.8093"/>
</g>
<!-- 1647 -->
<g id="node7" class="node">
<title>1647</title>
<ellipse fill="#ffffff" stroke="#000000" cx="292.7487" cy="-90.4472" rx="25" ry="25"/>
<text text-anchor="middle" x="292.7487" y="-88.2472" font-family="Times,serif" font-size="9.00" fill="#000000">1647</text>
</g>
<!-- &#45;1&#45;&gt;1647 -->
<g id="edge2" class="edge">
<title>&#45;1&#45;&gt;1647</title>
<path fill="none" stroke="#ff0000" stroke-width=".1466" d="M154.1433,-154.7636C156.9613,-153.5621 159.9494,-152.3145 162.7487,-151.196 205.4506,-134.1337 219.381,-137.2189 259.7487,-115.196 261.4933,-114.2442 263.2474,-113.208 264.9884,-112.1168"/>
<polygon fill="#ff0000" stroke="#ff0000" stroke-width=".1466" points="267.1814,-114.8581 273.4807,-106.3393 263.244,-109.0705 267.1814,-114.8581"/>
</g>
<!-- 1648 -->
<g id="node8" class="node">
<title>1648</title>
<ellipse fill="#ffffff" stroke="#000000" cx="158.7487" cy="-90.4472" rx="25" ry="25"/>
<text text-anchor="middle" x="158.7487" y="-88.2472" font-family="Times,serif" font-size="9.00" fill="#000000">1648</text>
</g>
<!-- &#45;1&#45;&gt;1648 -->
<g id="edge3" class="edge">
<title>&#45;1&#45;&gt;1648</title>
<path fill="none" stroke="#ff0000" stroke-width=".1883" stroke-dasharray="1,5" d="M143.9712,-151.0775C145.6587,-144.1539 148.0921,-134.1701 150.4987,-124.296"/>
<polygon fill="#ff0000" stroke="#ff0000" stroke-width=".1883" points="153.9002,-125.1203 152.8678,-114.5759 147.0993,-123.4627 153.9002,-125.1203"/>
</g>
<!-- 1649 -->
<g id="node9" class="node">
<title>1649</title>
<ellipse fill="#ffffff" stroke="#000000" cx="225.7487" cy="-90.4472" rx="25" ry="25"/>
<text text-anchor="middle" x="225.7487" y="-88.2472" font-family="Times,serif" font-size="9.00" fill="#000000">1649</text>
</g>
<!-- &#45;1&#45;&gt;1649 -->
<g id="edge4" class="edge">
<title>&#45;1&#45;&gt;1649</title>
<path fill="none" stroke="#ff0000" stroke-width=".5" d="M152.7303,-151.0775C164.3185,-141.4554 183.0246,-125.9229 198.6018,-112.9884"/>
<polygon fill="#ff0000" stroke="#ff0000" stroke-width=".5" points="200.9506,-115.5875 206.4082,-106.5064 196.4788,-110.202 200.9506,-115.5875"/>
</g>
<!-- 1651 -->
<g id="node11" class="node">
<title>1651</title>
<ellipse fill="#ffffff" stroke="#000000" cx="24.7487" cy="-90.4472" rx="25" ry="25"/>
<text text-anchor="middle" x="24.7487" y="-88.2472" font-family="Times,serif" font-size="9.00" fill="#000000">1651</text>
</g>
<!-- &#45;1&#45;&gt;1651 -->
<g id="edge5" class="edge">
<title>&#45;1&#45;&gt;1651</title>
<path fill="none" stroke="#00ff00" stroke-width=".3241" d="M129.7417,-154.4827C113.1431,-146.4249 82.4394,-130.9399 57.7487,-115.196 56.0731,-114.1275 54.373,-112.9999 52.6734,-111.8385"/>
<polygon fill="#00ff00" stroke="#00ff00" stroke-width=".3241" points="54.4703,-108.8212 44.2955,-105.8675 50.4075,-114.5216 54.4703,-108.8212"/>
</g>
<!-- &#45;2 -->
<g id="node2" class="node">
<title>&#45;2</title>
<polygon fill="#d3d3d3" stroke="#000000" points="195.7487,-169.196 171.7487,-169.196 171.7487,-151.196 195.7487,-151.196 195.7487,-169.196"/>
<text text-anchor="middle" x="183.7487" y="-157.996" font-family="Times,serif" font-size="9.00" fill="#000000">&#45;2</text>
</g>
<!-- &#45;2&#45;&gt;1646 -->
<g id="edge6" class="edge">
<title>&#45;2&#45;&gt;1646</title>
<path fill="none" stroke="#ff0000" stroke-width=".1058" d="M171.7213,-151.0775C158.5782,-141.1132 137.075,-124.8108 119.6746,-111.6189"/>
<polygon fill="#ff0000" stroke="#ff0000" stroke-width=".1058" points="121.6001,-108.6866 111.5168,-105.4342 117.3711,-114.2647 121.6001,-108.6866"/>
</g>
<!-- &#45;2&#45;&gt;1647 -->
<g id="edge7" class="edge">
<title>&#45;2&#45;&gt;1647</title>
<path fill="none" stroke="#ff0000" stroke-width=".3346" d="M195.8435,-153.5733C211.0498,-145.1254 237.8191,-129.8485 259.7487,-115.196 261.4011,-114.0919 263.083,-112.9364 264.7686,-111.7536"/>
<polygon fill="#ff0000" stroke="#ff0000" stroke-width=".3346" points="267.0554,-114.4193 273.1081,-105.7235 262.9537,-108.7468 267.0554,-114.4193"/>
</g>
<!-- &#45;2&#45;&gt;1648 -->
<g id="edge8" class="edge">
<title>&#45;2&#45;&gt;1648</title>
<path fill="none" stroke="#00ff00" stroke-width=".5" d="M180.4804,-151.0775C177.9328,-143.9698 174.2293,-133.6371 170.599,-123.5089"/>
<polygon fill="#00ff00" stroke="#00ff00" stroke-width=".5" points="173.8499,-122.2055 167.181,-113.9728 167.2604,-124.5674 173.8499,-122.2055"/>
</g>
<!-- &#45;2&#45;&gt;1649 -->
<g id="edge9" class="edge">
<title>&#45;2&#45;&gt;1649</title>
<path fill="none" stroke="#00ff00" stroke-width=".385" d="M189.2395,-151.0775C193.9416,-143.2688 200.9877,-131.5676 207.6393,-120.5213"/>
<polygon fill="#00ff00" stroke="#00ff00" stroke-width=".385" points="210.6766,-122.262 212.8369,-111.8898 204.6799,-118.651 210.6766,-122.262"/>
</g>
<!-- 1650 -->
<g id="node10" class="node">
<title>1650</title>
<ellipse fill="#ffffff" stroke="#000000" cx="359.7487" cy="-90.4472" rx="25" ry="25"/>
<text text-anchor="middle" x="359.7487" y="-88.2472" font-family="Times,serif" font-size="9.00" fill="#000000">1650</text>
</g>
<!-- &#45;2&#45;&gt;1650 -->
<g id="edge10" class="edge">
<title>&#45;2&#45;&gt;1650</title>
<path fill="none" stroke="#00ff00" stroke-width=".4037" d="M196.0889,-154.6206C198.9098,-153.4265 201.9127,-152.2181 204.7487,-151.196 257.9336,-132.0278 276.223,-140.5574 326.7487,-115.196 328.5248,-114.3045 330.3036,-113.3154 332.0636,-112.2605"/>
<polygon fill="#00ff00" stroke="#00ff00" stroke-width=".4037" points="334.2163,-115.0324 340.6083,-106.5829 330.3423,-109.2021 334.2163,-115.0324"/>
</g>
<!-- &#45;2&#45;&gt;1651 -->
<g id="edge11" class="edge">
<title>&#45;2&#45;&gt;1651</title>
<path fill="none" stroke="#00ff00" stroke-width=".132" d="M171.3747,-154.7114C168.5556,-153.5126 165.5619,-152.2793 162.7487,-151.196 116.7111,-133.467 101.3492,-138.2779 57.7487,-115.196 55.9924,-114.2662 54.2291,-113.2471 52.4809,-112.1692"/>
<polygon fill="#00ff00" stroke="#00ff00" stroke-width=".132" points="54.2167,-109.1182 43.969,-106.4281 50.3024,-114.9216 54.2167,-109.1182"/>
</g>
<!-- &#45;3 -->
<g id="node3" class="node">
<title>&#45;3</title>
<polygon fill="#d3d3d3" stroke="#000000" points="237.7487,-169.196 213.7487,-169.196 213.7487,-151.196 237.7487,-151.196 237.7487,-169.196"/>
<text text-anchor="middle" x="225.7487" y="-157.996" font-family="Times,serif" font-size="9.00" fill="#000000">&#45;3</text>
</g>
<!-- &#45;3&#45;&gt;1646 -->
<g id="edge12" class="edge">
<title>&#45;3&#45;&gt;1646</title>
<path fill="none" stroke="#00ff00" stroke-width=".3426" stroke-dasharray="1,5" d="M213.4263,-154.8904C188.3158,-144.0519 132.8996,-119.9861 124.7487,-115.196 123.0354,-114.1891 121.3058,-113.1097 119.5835,-111.9853"/>
<polygon fill="#00ff00" stroke="#00ff00" stroke-width=".3426" points="121.3514,-108.9517 111.143,-106.1164 117.3552,-114.6989 121.3514,-108.9517"/>
</g>
<!-- &#45;3&#45;&gt;1647 -->
<g id="edge13" class="edge">
<title>&#45;3&#45;&gt;1647</title>
<path fill="none" stroke="#ff0000" stroke-width=".2805" d="M234.5078,-151.0775C243.0851,-142.1483 256.5516,-128.1294 268.3758,-115.8201"/>
<polygon fill="#ff0000" stroke="#ff0000" stroke-width=".2805" points="271.0639,-118.074 275.4674,-108.4376 266.0157,-113.2247 271.0639,-118.074"/>
</g>
<!-- &#45;3&#45;&gt;1648 -->
<g id="edge14" class="edge">
<title>&#45;3&#45;&gt;1648</title>
<path fill="none" stroke="#ff0000" stroke-width=".2392" d="M216.9897,-151.0775C208.4123,-142.1483 194.9459,-128.1294 183.1217,-115.8201"/>
<polygon fill="#ff0000" stroke="#ff0000" stroke-width=".2392" points="185.4818,-113.2247 176.0301,-108.4376 180.4336,-118.074 185.4818,-113.2247"/>
</g>
<!-- &#45;3&#45;&gt;1649 -->
<g id="edge15" class="edge">
<title>&#45;3&#45;&gt;1649</title>
<path fill="none" stroke="#00ff00" stroke-width=".4019" d="M225.7487,-151.0775C225.7487,-144.4608 225.7487,-135.0493 225.7487,-125.6096"/>
<polygon fill="#00ff00" stroke="#00ff00" stroke-width=".4019" points="229.2488,-125.4865 225.7487,-115.4865 222.2488,-125.4865 229.2488,-125.4865"/>
</g>
<!-- &#45;3&#45;&gt;1650 -->
<g id="edge16" class="edge">
<title>&#45;3&#45;&gt;1650</title>
<path fill="none" stroke="#ff0000" stroke-width=".5" d="M237.9961,-155.7663C257.4427,-148.5095 296.2966,-133.092 326.7487,-115.196 328.462,-114.1891 330.1917,-113.1097 331.914,-111.9853"/>
<polygon fill="#ff0000" stroke="#ff0000" stroke-width=".5" points="334.1423,-114.6989 340.3545,-106.1164 330.146,-108.9517 334.1423,-114.6989"/>
</g>
<!-- &#45;3&#45;&gt;1651 -->
<g id="edge17" class="edge">
<title>&#45;3&#45;&gt;1651</title>
<path fill="none" stroke="#00ff00" stroke-width=".4415" d="M213.4428,-154.5218C210.6202,-153.3329 207.6079,-152.1515 204.7487,-151.196 140.9531,-129.8754 118.5536,-143.9573 57.7487,-115.196 55.9523,-114.3462 54.1576,-113.3899 52.3853,-112.3601"/>
<polygon fill="#00ff00" stroke="#00ff00" stroke-width=".4415" points="54.0921,-109.2944 43.8069,-106.7518 50.2617,-115.1534 54.0921,-109.2944"/>
</g>
<!-- 0 -->
<g id="node4" class="node">
<title>0</title>
<ellipse fill="#add8e6" stroke="#000000" cx="158.7487" cy="-14.8492" rx="14.7" ry="14.7"/>
<text text-anchor="middle" x="158.7487" y="-12.6492" font-family="Times,serif" font-size="9.00" fill="#000000">0</text>
</g>
<!-- 1 -->
<g id="node5" class="node">
<title>1</title>
<ellipse fill="#add8e6" stroke="#000000" cx="215.7487" cy="-14.8492" rx="14.7" ry="14.7"/>
<text text-anchor="middle" x="215.7487" y="-12.6492" font-family="Times,serif" font-size="9.00" fill="#000000">1</text>
</g>
<!-- 1646&#45;&gt;0 -->
<g id="edge18" class="edge">
<title>1646&#45;&gt;0</title>
<path fill="none" stroke="#ff0000" stroke-width=".2793" stroke-dasharray="1,5" d="M108.3105,-71.7601C118.5384,-60.2197 131.6249,-45.4538 141.9048,-33.8547"/>
<polygon fill="#ff0000" stroke="#ff0000" stroke-width=".2793" points="144.7997,-35.8652 148.8131,-26.0599 139.561,-31.2223 144.7997,-35.8652"/>
</g>
<!-- 1646&#45;&gt;1 -->
<g id="edge19" class="edge">
<title>1646&#45;&gt;1</title>
<path fill="none" stroke="#00ff00" stroke-width=".1545" d="M111.3341,-75.0869C115.6742,-71.8738 120.3059,-68.5872 124.7487,-65.6985 147.4886,-50.9129 174.7927,-36.0111 193.5227,-26.197"/>
<polygon fill="#00ff00" stroke="#00ff00" stroke-width=".1545" points="195.2021,-29.2687 202.4661,-21.5561 191.9779,-23.0555 195.2021,-29.2687"/>
</g>
<!-- 1647&#45;&gt;1 -->
<g id="edge20" class="edge">
<title>1647&#45;&gt;1</title>
<path fill="none" stroke="#ff0000" stroke-width=".1213" d="M274.8899,-72.9135C262.6447,-60.8913 246.4443,-44.9859 234.0959,-32.8623"/>
<polygon fill="#ff0000" stroke="#ff0000" stroke-width=".1213" points="236.2054,-30.0286 226.6176,-25.5202 231.3014,-35.0236 236.2054,-30.0286"/>
</g>
<!-- 1648&#45;&gt;0 -->
<g id="edge21" class="edge">
<title>1648&#45;&gt;0</title>
<path fill="none" stroke="#00ff00" stroke-width=".1671" d="M158.7487,-65.6936C158.7487,-57.4298 158.7487,-48.2178 158.7487,-39.9294"/>
<polygon fill="#00ff00" stroke="#00ff00" stroke-width=".1671" points="162.2488,-39.7229 158.7487,-29.7229 155.2488,-39.723 162.2488,-39.7229"/>
</g>
<!-- 1648&#45;&gt;1 -->
<g id="edge22" class="edge">
<title>1648&#45;&gt;1</title>
<path fill="none" stroke="#ff0000" stroke-width=".3341" d="M173.7248,-70.5847C181.9493,-59.6767 192.1299,-46.1744 200.4108,-35.1917"/>
<polygon fill="#ff0000" stroke="#ff0000" stroke-width=".3341" points="203.3452,-37.1134 206.5709,-27.0216 197.7559,-32.8992 203.3452,-37.1134"/>
</g>
<!-- 1649&#45;&gt;0 -->
<g id="edge23" class="edge">
<title>1649&#45;&gt;0</title>
<path fill="none" stroke="#00ff00" stroke-width=".5" d="M209.1869,-71.7601C198.959,-60.2197 185.8726,-45.4538 175.5927,-33.8547"/>
<polygon fill="#00ff00" stroke="#00ff00" stroke-width=".5" points="177.9365,-31.2223 168.6844,-26.0599 172.6978,-35.8652 177.9365,-31.2223"/>
</g>
<!-- 1649&#45;&gt;1 -->
<g id="edge24" class="edge">
<title>1649&#45;&gt;1</title>
<path fill="none" stroke="#00ff00" stroke-width=".3685" d="M222.4744,-65.6936C221.369,-57.337 220.1353,-48.0107 219.0294,-39.6504"/>
<polygon fill="#00ff00" stroke="#00ff00" stroke-width=".3685" points="222.4974,-39.1776 217.7162,-29.7229 215.5579,-40.0956 222.4974,-39.1776"/>
</g>
<!-- 1650&#45;&gt;0 -->
<g id="edge25" class="edge">
<title>1650&#45;&gt;0</title>
<path fill="none" stroke="#ff0000" stroke-width=".2967" d="M340.6551,-74.2166C336.2843,-71.0577 331.5158,-68.0133 326.7487,-65.6985 270.8891,-38.5746 250.255,-50.5075 191.7487,-29.6985 188.3914,-28.5044 184.9019,-27.1105 181.5035,-25.664"/>
<polygon fill="#ff0000" stroke="#ff0000" stroke-width=".2967" points="182.9104,-22.4591 172.3529,-21.57 180.0516,-28.8487 182.9104,-22.4591"/>
</g>
<!-- 1650&#45;&gt;1 -->
<g id="edge26" class="edge">
<title>1650&#45;&gt;1</title>
<path fill="none" stroke="#00ff00" stroke-width=".1408" d="M340.3332,-74.8141C335.9824,-71.618 331.3035,-68.4073 326.7487,-65.6985 297.8656,-48.5213 262.1855,-33.1176 239.2045,-23.8787"/>
<polygon fill="#00ff00" stroke="#00ff00" stroke-width=".1408" points="240.4859,-20.6217 229.8996,-20.1963 237.9101,-27.1306 240.4859,-20.6217"/>
</g>
<!-- 1651&#45;&gt;0 -->
<g id="edge27" class="edge">
<title>1651&#45;&gt;0</title>
<path fill="none" stroke="#00ff00" stroke-width=".2702" stroke-dasharray="1,5" d="M44.2411,-74.9406C48.5871,-71.7366 53.2446,-68.4907 57.7487,-65.6985 83.4157,-49.7868 114.7047,-34.6374 135.5916,-25.0793"/>
<polygon fill="#00ff00" stroke="#00ff00" stroke-width=".2702" points="137.2664,-28.1634 144.9394,-20.8575 134.3851,-21.7839 137.2664,-28.1634"/>
</g>
<!-- 1651&#45;&gt;1 -->
<g id="edge28" class="edge">
<title>1651&#45;&gt;1</title>
<path fill="none" stroke="#ff0000" stroke-width=".4223" d="M43.8775,-74.2881C48.2461,-71.1247 53.0048,-68.0604 57.7487,-65.6985 109.5028,-39.9316 128.4724,-49.6108 182.7487,-29.6985 186.0941,-28.4712 189.5769,-27.0588 192.9721,-25.6036"/>
<polygon fill="#ff0000" stroke="#ff0000" stroke-width=".4223" points="194.4251,-28.7879 202.1219,-21.5071 191.5646,-22.399 194.4251,-28.7879"/>
</g>
</g>
</svg>
