<?xml version="1.0" encoding="UTF-8" standalone="no"?>
<!DOCTYPE svg PUBLIC "-//W3C//DTD SVG 1.1//EN"
 "http://www.w3.org/Graphics/SVG/1.1/DTD/svg11.dtd">
<!-- Generated by graphviz version 2.40.1 (20161225.0304)
 -->
<!-- Title: %3 Pages: 1 -->
<svg width="140pt" height="268pt"
 viewBox="0.00 0.00 139.58 268.35" xmlns="http://www.w3.org/2000/svg" xmlns:xlink="http://www.w3.org/1999/xlink">
<g id="graph0" class="graph" transform="scale(1 1) rotate(0) translate(4 264.3503)">
<title>%3</title>
<polygon fill="#ffffff" stroke="transparent" points="-4,4 -4,-264.3503 135.5772,-264.3503 135.5772,4 -4,4"/>
<!-- &#45;1 -->
<g id="node1" class="node">
<title>&#45;1</title>
<polygon fill="#d3d3d3" stroke="#000000" points="24,-260.3503 0,-260.3503 0,-242.3503 24,-242.3503 24,-260.3503"/>
<text text-anchor="middle" x="12" y="-249.1503" font-family="Times,serif" font-size="9.00" fill="#000000">&#45;1</text>
</g>
<!-- 3222 -->
<g id="node7" class="node">
<title>3222</title>
<ellipse fill="#ffffff" stroke="#000000" cx="51" cy="-181.6016" rx="25" ry="25"/>
<text text-anchor="middle" x="51" y="-179.4016" font-family="Times,serif" font-size="9.00" fill="#000000">3222</text>
</g>
<!-- &#45;1&#45;&gt;3222 -->
<g id="edge1" class="edge">
<title>&#45;1&#45;&gt;3222</title>
<path fill="none" stroke="#ff0000" stroke-width=".453" stroke-dasharray="1,5" d="M17.0986,-242.2319C21.3893,-234.5581 27.782,-223.1253 33.8634,-212.2492"/>
<polygon fill="#ff0000" stroke="#ff0000" stroke-width=".453" points="37.02,-213.7752 38.8456,-203.3388 30.9103,-210.3589 37.02,-213.7752"/>
</g>
<!-- &#45;2 -->
<g id="node2" class="node">
<title>&#45;2</title>
<polygon fill="#d3d3d3" stroke="#000000" points="66,-260.3503 42,-260.3503 42,-242.3503 66,-242.3503 66,-260.3503"/>
<text text-anchor="middle" x="54" y="-249.1503" font-family="Times,serif" font-size="9.00" fill="#000000">&#45;2</text>
</g>
<!-- &#45;2&#45;&gt;3222 -->
<g id="edge2" class="edge">
<title>&#45;2&#45;&gt;3222</title>
<path fill="none" stroke="#00ff00" stroke-width=".4809" d="M53.6078,-242.2319C53.3209,-235.5609 52.9118,-226.0492 52.5024,-216.5318"/>
<polygon fill="#00ff00" stroke="#00ff00" stroke-width=".4809" points="55.9905,-216.1769 52.0639,-206.3365 48.9969,-216.4777 55.9905,-216.1769"/>
</g>
<!-- &#45;3 -->
<g id="node3" class="node">
<title>&#45;3</title>
<polygon fill="#d3d3d3" stroke="#000000" points="113,-260.3503 89,-260.3503 89,-242.3503 113,-242.3503 113,-260.3503"/>
<text text-anchor="middle" x="101" y="-249.1503" font-family="Times,serif" font-size="9.00" fill="#000000">&#45;3</text>
</g>
<!-- 19725 -->
<g id="node6" class="node">
<title>19725</title>
<ellipse fill="#ffffff" stroke="#000000" cx="104" cy="-93.2756" rx="27.6545" ry="27.6545"/>
<text text-anchor="middle" x="104" y="-91.0756" font-family="Times,serif" font-size="9.00" fill="#000000">19725</text>
</g>
<!-- &#45;3&#45;&gt;19725 -->
<g id="edge7" class="edge">
<title>&#45;3&#45;&gt;19725</title>
<path fill="none" stroke="#00ff00" stroke-width=".2172" d="M101.1787,-241.9354C101.5828,-220.6414 102.5858,-167.7897 103.28,-131.2111"/>
<polygon fill="#00ff00" stroke="#00ff00" stroke-width=".2172" points="106.7852,-130.9652 103.4757,-120.9005 99.7865,-130.8323 106.7852,-130.9652"/>
</g>
<!-- &#45;3&#45;&gt;3222 -->
<g id="edge3" class="edge">
<title>&#45;3&#45;&gt;3222</title>
<path fill="none" stroke="#ff0000" stroke-width=".5" d="M94.4634,-242.2319C88.5844,-234.0308 79.6275,-221.5362 71.3693,-210.0162"/>
<polygon fill="#ff0000" stroke="#ff0000" stroke-width=".5" points="74.2043,-207.9636 65.5334,-201.8753 68.5151,-212.042 74.2043,-207.9636"/>
</g>
<!-- 0 -->
<g id="node4" class="node">
<title>0</title>
<ellipse fill="#add8e6" stroke="#000000" cx="44" cy="-93.2756" rx="14.7" ry="14.7"/>
<text text-anchor="middle" x="44" y="-91.0756" font-family="Times,serif" font-size="9.00" fill="#000000">0</text>
</g>
<!-- 1 -->
<g id="node5" class="node">
<title>1</title>
<ellipse fill="#add8e6" stroke="#000000" cx="104" cy="-14.8492" rx="14.7" ry="14.7"/>
<text text-anchor="middle" x="104" y="-12.6492" font-family="Times,serif" font-size="9.00" fill="#000000">1</text>
</g>
<!-- 19725&#45;&gt;1 -->
<g id="edge6" class="edge">
<title>19725&#45;&gt;1</title>
<path fill="none" stroke="#ff0000" stroke-width=".4266" d="M104,-65.4046C104,-57.0779 104,-48.0047 104,-39.8726"/>
<polygon fill="#ff0000" stroke="#ff0000" stroke-width=".4266" points="107.5001,-39.8662 104,-29.8663 100.5001,-39.8663 107.5001,-39.8662"/>
</g>
<!-- 3222&#45;&gt;0 -->
<g id="edge4" class="edge">
<title>3222&#45;&gt;0</title>
<path fill="none" stroke="#ff0000" stroke-width=".3909" d="M49.0128,-156.5272C48.0658,-144.5783 46.9359,-130.321 45.9888,-118.3697"/>
<polygon fill="#ff0000" stroke="#ff0000" stroke-width=".3909" points="49.46,-117.8668 45.1808,-108.1746 42.4818,-118.4199 49.46,-117.8668"/>
</g>
<!-- 3222&#45;&gt;19725 -->
<g id="edge5" class="edge">
<title>3222&#45;&gt;19725</title>
<path fill="none" stroke="#00ff00" stroke-width=".2611" d="M63.8298,-160.2203C70.0182,-149.9071 77.5763,-137.3115 84.46,-125.8396"/>
<polygon fill="#00ff00" stroke="#00ff00" stroke-width=".2611" points="87.6528,-127.321 89.797,-116.9454 81.6505,-123.7193 87.6528,-127.321"/>
</g>
</g>
</svg>
