<?xml version="1.0" encoding="UTF-8" standalone="no"?>
<!DOCTYPE svg PUBLIC "-//W3C//DTD SVG 1.1//EN"
 "http://www.w3.org/Graphics/SVG/1.1/DTD/svg11.dtd">
<!-- Generated by graphviz version 2.40.1 (20161225.0304)
 -->
<!-- Title: %3 Pages: 1 -->
<svg width="536pt" height="263pt"
 viewBox="0.00 0.00 536.20 262.69" xmlns="http://www.w3.org/2000/svg" xmlns:xlink="http://www.w3.org/1999/xlink">
<g id="graph0" class="graph" transform="scale(1 1) rotate(0) translate(4 258.6934)">
<title>%3</title>
<polygon fill="#ffffff" stroke="transparent" points="-4,4 -4,-258.6934 532.2,-258.6934 532.2,4 -4,4"/>
<!-- &#45;1 -->
<g id="node1" class="node">
<title>&#45;1</title>
<polygon fill="#d3d3d3" stroke="#000000" points="177.7479,-254.6934 153.7479,-254.6934 153.7479,-236.6934 177.7479,-236.6934 177.7479,-254.6934"/>
<text text-anchor="middle" x="165.7479" y="-243.4934" font-family="Times,serif" font-size="9.00" fill="#000000">&#45;1</text>
</g>
<!-- 1418 -->
<g id="node6" class="node">
<title>1418</title>
<ellipse fill="#ffffff" stroke="#000000" cx="146.7479" cy="-175.9447" rx="25" ry="25"/>
<text text-anchor="middle" x="146.7479" y="-173.7447" font-family="Times,serif" font-size="9.00" fill="#000000">1418</text>
</g>
<!-- &#45;1&#45;&gt;1418 -->
<g id="edge1" class="edge">
<title>&#45;1&#45;&gt;1418</title>
<path fill="none" stroke="#00ff00" stroke-width=".3452" d="M163.264,-236.575C161.378,-229.6513 158.6583,-219.6676 155.9686,-209.7935"/>
<polygon fill="#00ff00" stroke="#00ff00" stroke-width=".3452" points="159.3261,-208.8019 153.3208,-200.0734 152.5722,-210.6418 159.3261,-208.8019"/>
</g>
<!-- 1419 -->
<g id="node7" class="node">
<title>1419</title>
<ellipse fill="#ffffff" stroke="#000000" cx="280.7479" cy="-175.9447" rx="25" ry="25"/>
<text text-anchor="middle" x="280.7479" y="-173.7447" font-family="Times,serif" font-size="9.00" fill="#000000">1419</text>
</g>
<!-- &#45;1&#45;&gt;1419 -->
<g id="edge2" class="edge">
<title>&#45;1&#45;&gt;1419</title>
<path fill="none" stroke="#00ff00" stroke-width=".1771" d="M178.0075,-239.6542C194.3153,-231.467 223.8641,-216.0931 247.7479,-200.6934 249.4181,-199.6165 251.114,-198.4823 252.8103,-197.3158"/>
<polygon fill="#00ff00" stroke="#00ff00" stroke-width=".1771" points="255.0812,-199.9947 261.1793,-191.3308 251.0093,-194.3009 255.0812,-199.9947"/>
</g>
<!-- 1420 -->
<g id="node8" class="node">
<title>1420</title>
<ellipse fill="#ffffff" stroke="#000000" cx="79.7479" cy="-175.9447" rx="25" ry="25"/>
<text text-anchor="middle" x="79.7479" y="-173.7447" font-family="Times,serif" font-size="9.00" fill="#000000">1420</text>
</g>
<!-- &#45;1&#45;&gt;1420 -->
<g id="edge3" class="edge">
<title>&#45;1&#45;&gt;1420</title>
<path fill="none" stroke="#00ff00" stroke-width=".2555" stroke-dasharray="1,5" d="M154.5049,-236.575C142.5633,-226.8899 123.2387,-211.2171 107.2289,-198.2326"/>
<polygon fill="#00ff00" stroke="#00ff00" stroke-width=".2555" points="109.1871,-195.3144 99.2156,-191.7336 104.7777,-200.7511 109.1871,-195.3144"/>
</g>
<!-- 1422 -->
<g id="node10" class="node">
<title>1422</title>
<ellipse fill="#ffffff" stroke="#000000" cx="213.7479" cy="-175.9447" rx="25" ry="25"/>
<text text-anchor="middle" x="213.7479" y="-173.7447" font-family="Times,serif" font-size="9.00" fill="#000000">1422</text>
</g>
<!-- &#45;1&#45;&gt;1422 -->
<g id="edge4" class="edge">
<title>&#45;1&#45;&gt;1422</title>
<path fill="none" stroke="#00ff00" stroke-width=".5" d="M172.0231,-236.575C177.5717,-228.5124 185.976,-216.3001 193.7913,-204.9437"/>
<polygon fill="#00ff00" stroke="#00ff00" stroke-width=".5" points="196.8099,-206.7311 199.5959,-196.5091 191.0435,-202.7627 196.8099,-206.7311"/>
</g>
<!-- &#45;2 -->
<g id="node2" class="node">
<title>&#45;2</title>
<polygon fill="#d3d3d3" stroke="#000000" points="285.7479,-254.6934 261.7479,-254.6934 261.7479,-236.6934 285.7479,-236.6934 285.7479,-254.6934"/>
<text text-anchor="middle" x="273.7479" y="-243.4934" font-family="Times,serif" font-size="9.00" fill="#000000">&#45;2</text>
</g>
<!-- &#45;2&#45;&gt;1418 -->
<g id="edge5" class="edge">
<title>&#45;2&#45;&gt;1418</title>
<path fill="none" stroke="#ff0000" stroke-width=".1869" d="M261.482,-240.7408C243.1468,-233.136 207.7524,-217.6703 179.7479,-200.6934 178.0485,-199.6632 176.3298,-198.5656 174.6159,-197.4272"/>
<polygon fill="#ff0000" stroke="#ff0000" stroke-width=".1869" points="176.3944,-194.3994 166.1985,-191.5196 172.3731,-200.1291 176.3944,-194.3994"/>
</g>
<!-- &#45;2&#45;&gt;1419 -->
<g id="edge6" class="edge">
<title>&#45;2&#45;&gt;1419</title>
<path fill="none" stroke="#ff0000" stroke-width=".4444" stroke-dasharray="1,5" d="M274.6631,-236.575C275.3326,-229.9041 276.2872,-220.3923 277.2423,-210.875"/>
<polygon fill="#ff0000" stroke="#ff0000" stroke-width=".4444" points="280.7494,-210.9792 278.2655,-200.6797 273.7843,-210.2802 280.7494,-210.9792"/>
</g>
<!-- &#45;2&#45;&gt;1420 -->
<g id="edge7" class="edge">
<title>&#45;2&#45;&gt;1420</title>
<path fill="none" stroke="#ff0000" stroke-width=".5" d="M261.6813,-242.3847C224.8567,-232.279 116.2052,-202.3978 112.7479,-200.6934 110.9655,-199.8147 109.1817,-198.8357 107.4178,-197.7885"/>
<polygon fill="#ff0000" stroke="#ff0000" stroke-width=".5" points="109.1346,-194.7278 98.8626,-192.1322 105.274,-200.5669 109.1346,-194.7278"/>
</g>
<!-- 1421 -->
<g id="node9" class="node">
<title>1421</title>
<ellipse fill="#ffffff" stroke="#000000" cx="414.7479" cy="-175.9447" rx="25" ry="25"/>
<text text-anchor="middle" x="414.7479" y="-173.7447" font-family="Times,serif" font-size="9.00" fill="#000000">1421</text>
</g>
<!-- &#45;2&#45;&gt;1421 -->
<g id="edge8" class="edge">
<title>&#45;2&#45;&gt;1421</title>
<path fill="none" stroke="#ff0000" stroke-width=".3718" d="M285.8685,-241.7555C306.3426,-234.8634 348.768,-219.5386 381.7479,-200.6934 383.4734,-199.7075 385.2125,-198.6445 386.9421,-197.5327"/>
<polygon fill="#ff0000" stroke="#ff0000" stroke-width=".3718" points="389.1572,-200.2568 395.4027,-191.6986 385.1833,-194.4941 389.1572,-200.2568"/>
</g>
<!-- &#45;2&#45;&gt;1422 -->
<g id="edge9" class="edge">
<title>&#45;2&#45;&gt;1422</title>
<path fill="none" stroke="#00ff00" stroke-width=".2424" d="M265.904,-236.575C258.4516,-227.9118 246.8779,-214.4575 236.5245,-202.422"/>
<polygon fill="#00ff00" stroke="#00ff00" stroke-width=".2424" points="239.1275,-200.0809 229.9527,-194.7824 233.8208,-204.6459 239.1275,-200.0809"/>
</g>
<!-- 1423 -->
<g id="node11" class="node">
<title>1423</title>
<ellipse fill="#ffffff" stroke="#000000" cx="347.7479" cy="-175.9447" rx="25" ry="25"/>
<text text-anchor="middle" x="347.7479" y="-173.7447" font-family="Times,serif" font-size="9.00" fill="#000000">1423</text>
</g>
<!-- &#45;2&#45;&gt;1423 -->
<g id="edge10" class="edge">
<title>&#45;2&#45;&gt;1423</title>
<path fill="none" stroke="#ff0000" stroke-width=".1302" d="M283.4221,-236.575C293.1815,-227.3763 308.6716,-212.7762 322.0056,-200.2081"/>
<polygon fill="#ff0000" stroke="#ff0000" stroke-width=".1302" points="324.6714,-202.5052 329.5478,-193.0993 319.8701,-197.4113 324.6714,-202.5052"/>
</g>
<!-- &#45;3 -->
<g id="node3" class="node">
<title>&#45;3</title>
<polygon fill="#d3d3d3" stroke="#000000" points="231.7479,-254.6934 207.7479,-254.6934 207.7479,-236.6934 231.7479,-236.6934 231.7479,-254.6934"/>
<text text-anchor="middle" x="219.7479" y="-243.4934" font-family="Times,serif" font-size="9.00" fill="#000000">&#45;3</text>
</g>
<!-- &#45;3&#45;&gt;1418 -->
<g id="edge11" class="edge">
<title>&#45;3&#45;&gt;1418</title>
<path fill="none" stroke="#00ff00" stroke-width=".2744" d="M210.2045,-236.575C200.577,-227.3763 185.2963,-212.7762 172.1424,-200.2081"/>
<polygon fill="#00ff00" stroke="#00ff00" stroke-width=".2744" points="174.3503,-197.4769 164.7022,-193.0993 169.5145,-202.5381 174.3503,-197.4769"/>
</g>
<!-- &#45;3&#45;&gt;1419 -->
<g id="edge12" class="edge">
<title>&#45;3&#45;&gt;1419</title>
<path fill="none" stroke="#ff0000" stroke-width=".5" d="M227.7226,-236.575C235.2992,-227.9118 247.0658,-214.4575 257.5918,-202.422"/>
<polygon fill="#ff0000" stroke="#ff0000" stroke-width=".5" points="260.3245,-204.6139 264.2731,-194.7824 255.0553,-200.0056 260.3245,-204.6139"/>
</g>
<!-- &#45;3&#45;&gt;1420 -->
<g id="edge13" class="edge">
<title>&#45;3&#45;&gt;1420</title>
<path fill="none" stroke="#00ff00" stroke-width=".4309" d="M207.7427,-241.7349C187.4628,-234.8126 145.4368,-219.4442 112.7479,-200.6934 111.0241,-199.7046 109.2863,-198.6394 107.5577,-197.5259"/>
<polygon fill="#00ff00" stroke="#00ff00" stroke-width=".4309" points="109.3177,-194.4879 99.0998,-191.687 105.3408,-200.2486 109.3177,-194.4879"/>
</g>
<!-- &#45;3&#45;&gt;1421 -->
<g id="edge14" class="edge">
<title>&#45;3&#45;&gt;1421</title>
<path fill="none" stroke="#ff0000" stroke-width=".1039" d="M231.8895,-242.3853C268.943,-232.2814 378.2693,-202.4048 381.7479,-200.6934 383.5311,-199.8162 385.3154,-198.8383 387.0797,-197.7919"/>
<polygon fill="#ff0000" stroke="#ff0000" stroke-width=".1039" points="389.2226,-200.5711 395.6361,-192.1379 385.3634,-194.7309 389.2226,-200.5711"/>
</g>
<!-- &#45;3&#45;&gt;1422 -->
<g id="edge15" class="edge">
<title>&#45;3&#45;&gt;1422</title>
<path fill="none" stroke="#ff0000" stroke-width=".1353" d="M218.9635,-236.575C218.3897,-229.9041 217.5715,-220.3923 216.7527,-210.875"/>
<polygon fill="#ff0000" stroke="#ff0000" stroke-width=".1353" points="220.22,-210.3429 215.8757,-200.6797 213.2457,-210.9429 220.22,-210.3429"/>
</g>
<!-- &#45;3&#45;&gt;1423 -->
<g id="edge16" class="edge">
<title>&#45;3&#45;&gt;1423</title>
<path fill="none" stroke="#ff0000" stroke-width=".4385" d="M231.8439,-240.8886C250.2909,-233.3586 286.3095,-217.8536 314.7479,-200.6934 316.4494,-199.6667 318.1698,-198.5718 319.885,-197.4355"/>
<polygon fill="#ff0000" stroke="#ff0000" stroke-width=".4385" points="322.1256,-200.1392 328.3059,-191.5337 318.1081,-194.4069 322.1256,-200.1392"/>
</g>
<!-- 0 -->
<g id="node4" class="node">
<title>0</title>
<ellipse fill="#add8e6" stroke="#000000" cx="287.7479" cy="-14.8492" rx="14.7" ry="14.7"/>
<text text-anchor="middle" x="287.7479" y="-12.6492" font-family="Times,serif" font-size="9.00" fill="#000000">0</text>
</g>
<!-- 1 -->
<g id="node5" class="node">
<title>1</title>
<ellipse fill="#add8e6" stroke="#000000" cx="97.7479" cy="-14.8492" rx="14.7" ry="14.7"/>
<text text-anchor="middle" x="97.7479" y="-12.6492" font-family="Times,serif" font-size="9.00" fill="#000000">1</text>
</g>
<!-- 1418&#45;&gt;0 -->
<g id="edge17" class="edge">
<title>1418&#45;&gt;0</title>
<path fill="none" stroke="#ff0000" stroke-width=".5" d="M162.0354,-156.3983C179.7295,-134.0208 210.0004,-96.4857 237.7479,-65.6985 247.9509,-54.3778 259.9021,-42.1874 269.5614,-32.5811"/>
<polygon fill="#ff0000" stroke="#ff0000" stroke-width=".5" points="272.0804,-35.0125 276.7393,-25.4969 267.1633,-30.0302 272.0804,-35.0125"/>
</g>
<!-- 1418&#45;&gt;1 -->
<g id="edge18" class="edge">
<title>1418&#45;&gt;1</title>
<path fill="none" stroke="#ff0000" stroke-width=".11" d="M127.2118,-160.5078C122.8686,-157.2995 118.2232,-154.0342 113.7479,-151.196 84.8696,-132.8813 63.3866,-144.4921 45.7479,-115.196 34.4008,-96.3494 37.2158,-85.9754 45.7479,-65.6985 52.0699,-50.6741 65.239,-37.872 76.742,-28.8714"/>
<polygon fill="#ff0000" stroke="#ff0000" stroke-width=".11" points="79.0827,-31.495 85.0726,-22.7559 74.9403,-25.8522 79.0827,-31.495"/>
</g>
<!-- 1419&#45;&gt;0 -->
<g id="edge19" class="edge">
<title>1419&#45;&gt;0</title>
<path fill="none" stroke="#ff0000" stroke-width=".4068" d="M281.8263,-151.1266C283.1379,-120.942 285.3394,-70.2776 286.6568,-39.961"/>
<polygon fill="#ff0000" stroke="#ff0000" stroke-width=".4068" points="290.1613,-39.9305 287.0988,-29.7879 283.1679,-39.6265 290.1613,-39.9305"/>
</g>
<!-- 1419&#45;&gt;1 -->
<g id="edge20" class="edge">
<title>1419&#45;&gt;1</title>
<path fill="none" stroke="#00ff00" stroke-width=".5" d="M261.623,-159.7779C257.2542,-156.6151 252.4944,-153.5528 247.7479,-151.196 195.584,-125.2937 162.0242,-157.2652 121.7479,-115.196 102.5861,-95.1811 97.8185,-62.716 97.046,-40.1544"/>
<polygon fill="#00ff00" stroke="#00ff00" stroke-width=".5" points="100.5441,-39.936 96.9422,-29.9722 93.5445,-40.0074 100.5441,-39.936"/>
</g>
<!-- 1420&#45;&gt;0 -->
<g id="edge21" class="edge">
<title>1420&#45;&gt;0</title>
<path fill="none" stroke="#00ff00" stroke-width=".4612" d="M95.9792,-157.1235C116.7812,-133.7481 154.7187,-93.5579 192.7479,-65.6985 215.5983,-48.9588 244.653,-34.2321 264.5785,-24.9933"/>
<polygon fill="#00ff00" stroke="#00ff00" stroke-width=".4612" points="266.1629,-28.1179 273.822,-20.7974 263.2695,-21.7438 266.1629,-28.1179"/>
</g>
<!-- 1420&#45;&gt;1 -->
<g id="edge22" class="edge">
<title>1420&#45;&gt;1</title>
<path fill="none" stroke="#ff0000" stroke-width=".4244" d="M57.5628,-164.3519C40.4185,-154.0213 17.9477,-137.1472 7.7479,-115.196 -1.5221,-95.2456 -3.3401,-84.6986 7.7479,-65.6985 21.7402,-41.7218 51.6833,-28.155 73.1919,-21.172"/>
<polygon fill="#ff0000" stroke="#ff0000" stroke-width=".4244" points="74.3842,-24.4689 82.9663,-18.2561 72.383,-17.761 74.3842,-24.4689"/>
</g>
<!-- 1421&#45;&gt;0 -->
<g id="edge23" class="edge">
<title>1421&#45;&gt;0</title>
<path fill="none" stroke="#00ff00" stroke-width=".2481" stroke-dasharray="1,5" d="M438.7747,-169.5701C463.7965,-161.5041 501.6769,-144.9376 518.7479,-115.196 529.6991,-96.1166 532.5304,-82.8448 518.7479,-65.6985 493.1146,-33.8089 367.4215,-20.7551 312.9741,-16.5356"/>
<polygon fill="#00ff00" stroke="#00ff00" stroke-width=".2481" points="313.0214,-13.0297 302.7914,-15.7861 312.5074,-20.0109 313.0214,-13.0297"/>
</g>
<!-- 1421&#45;&gt;1 -->
<g id="edge24" class="edge">
<title>1421&#45;&gt;1</title>
<path fill="none" stroke="#ff0000" stroke-width=".3895" d="M412.715,-150.8849C409.2593,-125.4914 399.9302,-87.0018 374.7479,-65.6985 336.7076,-33.5177 183.661,-20.3474 122.8448,-16.3151"/>
<polygon fill="#ff0000" stroke="#ff0000" stroke-width=".3895" points="122.8124,-12.8061 112.6109,-15.666 122.3692,-19.792 122.8124,-12.8061"/>
</g>
<!-- 2106 -->
<g id="node13" class="node">
<title>2106</title>
<ellipse fill="#ffffff" stroke="#000000" cx="484.7479" cy="-90.4472" rx="25" ry="25"/>
<text text-anchor="middle" x="484.7479" y="-88.2472" font-family="Times,serif" font-size="9.00" fill="#000000">2106</text>
</g>
<!-- 1421&#45;&gt;2106 -->
<g id="edge31" class="edge">
<title>1421&#45;&gt;2106</title>
<path fill="none" stroke="#00ff00" stroke-width=".4963" d="M430.632,-156.544C440.0295,-145.066 452.0791,-130.3487 462.4217,-117.7163"/>
<polygon fill="#00ff00" stroke="#00ff00" stroke-width=".4963" points="465.2998,-119.7259 468.9267,-109.7711 459.8836,-115.2914 465.2998,-119.7259"/>
</g>
<!-- 1422&#45;&gt;0 -->
<g id="edge25" class="edge">
<title>1422&#45;&gt;0</title>
<path fill="none" stroke="#ff0000" stroke-width=".2698" stroke-dasharray="1,5" d="M224.1934,-153.2053C238.2246,-122.6599 263.0241,-68.6723 277.1386,-37.9455"/>
<polygon fill="#ff0000" stroke="#ff0000" stroke-width=".2698" points="280.4908,-39.0324 281.4846,-28.4843 274.1298,-36.1104 280.4908,-39.0324"/>
</g>
<!-- 1422&#45;&gt;1 -->
<g id="edge26" class="edge">
<title>1422&#45;&gt;1</title>
<path fill="none" stroke="#ff0000" stroke-width=".1954" d="M194.4799,-160.0526C190.12,-156.8726 185.4,-153.734 180.7479,-151.196 140.3802,-129.173 110.0045,-152.9472 83.7479,-115.196 67.809,-92.2793 77.0112,-59.2136 86.3094,-37.3881"/>
<polygon fill="#ff0000" stroke="#ff0000" stroke-width=".1954" points="89.5225,-38.7778 90.4983,-28.228 83.1565,-35.8666 89.5225,-38.7778"/>
</g>
<!-- 1423&#45;&gt;0 -->
<g id="edge27" class="edge">
<title>1423&#45;&gt;0</title>
<path fill="none" stroke="#ff0000" stroke-width=".2137" d="M361.4493,-155.1676C374.8422,-132.0031 391.0281,-94.0708 374.7479,-65.6985 361.4149,-42.4624 332.9043,-28.8305 312.1438,-21.6268"/>
<polygon fill="#ff0000" stroke="#ff0000" stroke-width=".2137" points="312.9865,-18.2218 302.3956,-18.5108 310.8551,-24.8894 312.9865,-18.2218"/>
</g>
<!-- 1423&#45;&gt;1 -->
<g id="edge28" class="edge">
<title>1423&#45;&gt;1</title>
<path fill="none" stroke="#ff0000" stroke-width=".4882" stroke-dasharray="1,5" d="M328.0478,-160.7562C323.7148,-157.5324 319.115,-154.198 314.7479,-151.196 245.1178,-103.3309 159.3791,-51.449 119.7485,-27.85"/>
<polygon fill="#ff0000" stroke="#ff0000" stroke-width=".4882" points="121.0896,-24.5758 110.7042,-22.4792 117.5154,-30.5946 121.0896,-24.5758"/>
</g>
<!-- 1840 -->
<g id="node12" class="node">
<title>1840</title>
<ellipse fill="#ffffff" stroke="#000000" cx="340.7479" cy="-90.4472" rx="25" ry="25"/>
<text text-anchor="middle" x="340.7479" y="-88.2472" font-family="Times,serif" font-size="9.00" fill="#000000">1840</text>
</g>
<!-- 1423&#45;&gt;1840 -->
<g id="edge29" class="edge">
<title>1423&#45;&gt;1840</title>
<path fill="none" stroke="#00ff00" stroke-width=".3589" d="M345.7232,-151.2153C345.063,-143.1511 344.317,-134.0397 343.6074,-125.3725"/>
<polygon fill="#00ff00" stroke="#00ff00" stroke-width=".3589" points="347.0725,-124.8021 342.7681,-115.1211 340.0958,-125.3733 347.0725,-124.8021"/>
</g>
<!-- 1840&#45;&gt;1 -->
<g id="edge30" class="edge">
<title>1840&#45;&gt;1</title>
<path fill="none" stroke="#ff0000" stroke-width=".1077" d="M317.0056,-83.0609C270.5963,-68.6229 168.3255,-36.8061 121.727,-22.3092"/>
<polygon fill="#ff0000" stroke="#ff0000" stroke-width=".1077" points="122.7461,-18.9608 112.1578,-19.3322 120.6666,-25.6449 122.7461,-18.9608"/>
</g>
<!-- 2106&#45;&gt;0 -->
<g id="edge32" class="edge">
<title>2106&#45;&gt;0</title>
<path fill="none" stroke="#00ff00" stroke-width=".1957" d="M464.2554,-76.0739C458.4423,-72.3796 451.9921,-68.626 445.7479,-65.6985 400.5067,-44.4875 344.0644,-28.6816 312.3509,-20.6899"/>
<polygon fill="#00ff00" stroke="#00ff00" stroke-width=".1957" points="313.1432,-17.2805 302.5958,-18.2828 311.4661,-24.0767 313.1432,-17.2805"/>
</g>
</g>
</svg>
