<?xml version="1.0" encoding="UTF-8" standalone="no"?>
<!DOCTYPE svg PUBLIC "-//W3C//DTD SVG 1.1//EN"
 "http://www.w3.org/Graphics/SVG/1.1/DTD/svg11.dtd">
<!-- Generated by graphviz version 2.40.1 (20161225.0304)
 -->
<!-- Title: %3 Pages: 1 -->
<svg width="659pt" height="250pt"
 viewBox="0.00 0.00 658.61 249.97" xmlns="http://www.w3.org/2000/svg" xmlns:xlink="http://www.w3.org/1999/xlink">
<g id="graph0" class="graph" transform="scale(1 1) rotate(0) translate(4 245.9655)">
<title>%3</title>
<polygon fill="#ffffff" stroke="transparent" points="-4,4 -4,-245.9655 654.6089,-245.9655 654.6089,4 -4,4"/>
<!-- &#45;1 -->
<g id="node1" class="node">
<title>&#45;1</title>
<polygon fill="#d3d3d3" stroke="#000000" points="551,-241.9655 527,-241.9655 527,-223.9655 551,-223.9655 551,-241.9655"/>
<text text-anchor="middle" x="539" y="-230.7655" font-family="Times,serif" font-size="9.00" fill="#000000">&#45;1</text>
</g>
<!-- 38 -->
<g id="node18" class="node">
<title>38</title>
<ellipse fill="#ffffff" stroke="#000000" cx="267" cy="-163.2168" rx="18.2703" ry="18.2703"/>
<text text-anchor="middle" x="267" y="-161.0168" font-family="Times,serif" font-size="9.00" fill="#000000">38</text>
</g>
<!-- &#45;1&#45;&gt;38 -->
<g id="edge1" class="edge">
<title>&#45;1&#45;&gt;38</title>
<path fill="none" stroke="#ff0000" stroke-width=".3644" d="M526.696,-227.2856C523.8733,-226.097 520.8604,-224.9172 518,-223.9655 515.3113,-223.071 360.2198,-185.6761 295.2014,-170.01"/>
<polygon fill="#ff0000" stroke="#ff0000" stroke-width=".3644" points="295.7636,-166.5454 285.2219,-167.6057 294.124,-173.3507 295.7636,-166.5454"/>
</g>
<!-- 40 -->
<g id="node19" class="node">
<title>40</title>
<ellipse fill="#ffffff" stroke="#000000" cx="397" cy="-163.2168" rx="18.2703" ry="18.2703"/>
<text text-anchor="middle" x="397" y="-161.0168" font-family="Times,serif" font-size="9.00" fill="#000000">40</text>
</g>
<!-- &#45;1&#45;&gt;40 -->
<g id="edge2" class="edge">
<title>&#45;1&#45;&gt;40</title>
<path fill="none" stroke="#00ff00" stroke-width=".2459" d="M526.8932,-227.0188C504.0167,-215.7821 453.9734,-191.2015 423.1121,-176.0427"/>
<polygon fill="#00ff00" stroke="#00ff00" stroke-width=".2459" points="424.3437,-172.7483 413.825,-171.481 421.2576,-179.0313 424.3437,-172.7483"/>
</g>
<!-- 43 -->
<g id="node21" class="node">
<title>43</title>
<ellipse fill="#ffffff" stroke="#000000" cx="322" cy="-84.0833" rx="18.2703" ry="18.2703"/>
<text text-anchor="middle" x="322" y="-81.8833" font-family="Times,serif" font-size="9.00" fill="#000000">43</text>
</g>
<!-- &#45;1&#45;&gt;43 -->
<g id="edge3" class="edge">
<title>&#45;1&#45;&gt;43</title>
<path fill="none" stroke="#ff0000" stroke-width=".5" d="M551.269,-226.3152C568.4611,-216.7095 598.2671,-198.9072 604,-187.9655 614.2098,-168.4794 618.0055,-155.4326 604,-138.468 572.0512,-99.7691 415.9919,-88.3037 350.7525,-85.1707"/>
<polygon fill="#ff0000" stroke="#ff0000" stroke-width=".5" points="350.8851,-81.6733 340.7383,-84.7217 350.5715,-88.6662 350.8851,-81.6733"/>
</g>
<!-- &#45;2 -->
<g id="node2" class="node">
<title>&#45;2</title>
<polygon fill="#d3d3d3" stroke="#000000" points="509,-241.9655 485,-241.9655 485,-223.9655 509,-223.9655 509,-241.9655"/>
<text text-anchor="middle" x="497" y="-230.7655" font-family="Times,serif" font-size="9.00" fill="#000000">&#45;2</text>
</g>
<!-- &#45;2&#45;&gt;38 -->
<g id="edge4" class="edge">
<title>&#45;2&#45;&gt;38</title>
<path fill="none" stroke="#00ff00" stroke-width=".1289" d="M484.6629,-227.3816C481.8419,-226.188 478.8381,-224.9819 476,-223.9655 412.3209,-201.1614 335.509,-180.5464 295.0646,-170.2086"/>
<polygon fill="#00ff00" stroke="#00ff00" stroke-width=".1289" points="295.6821,-166.7545 285.1286,-167.6892 293.9616,-173.5398 295.6821,-166.7545"/>
</g>
<!-- &#45;2&#45;&gt;40 -->
<g id="edge5" class="edge">
<title>&#45;2&#45;&gt;40</title>
<path fill="none" stroke="#ff0000" stroke-width=".5" d="M484.738,-224.4129C468.8372,-213.3223 440.7624,-193.7405 420.6505,-179.7127"/>
<polygon fill="#ff0000" stroke="#ff0000" stroke-width=".5" points="422.5146,-176.7457 412.3103,-173.8955 418.51,-182.4871 422.5146,-176.7457"/>
</g>
<!-- &#45;2&#45;&gt;43 -->
<g id="edge6" class="edge">
<title>&#45;2&#45;&gt;43</title>
<path fill="none" stroke="#ff0000" stroke-width=".1807" d="M509.3582,-227.5843C532.7585,-217.2729 581.6013,-195.1186 586,-187.9655 597.5235,-169.2263 599.8979,-155.5208 586,-138.468 556.5771,-102.3661 413.305,-89.5263 351.015,-85.6002"/>
<polygon fill="#ff0000" stroke="#ff0000" stroke-width=".1807" points="350.9036,-82.0874 340.713,-84.9863 350.4871,-89.075 350.9036,-82.0874"/>
</g>
<!-- &#45;3 -->
<g id="node3" class="node">
<title>&#45;3</title>
<polygon fill="#d3d3d3" stroke="#000000" points="240,-241.9655 216,-241.9655 216,-223.9655 240,-223.9655 240,-241.9655"/>
<text text-anchor="middle" x="228" y="-230.7655" font-family="Times,serif" font-size="9.00" fill="#000000">&#45;3</text>
</g>
<!-- &#45;3&#45;&gt;38 -->
<g id="edge7" class="edge">
<title>&#45;3&#45;&gt;38</title>
<path fill="none" stroke="#00ff00" stroke-width=".2129" d="M233.0986,-223.8471C238.1333,-214.8429 246.0619,-200.6631 252.986,-188.2798"/>
<polygon fill="#00ff00" stroke="#00ff00" stroke-width=".2129" points="256.1949,-189.7124 258.0205,-179.276 250.0852,-186.2961 256.1949,-189.7124"/>
</g>
<!-- &#45;3&#45;&gt;40 -->
<g id="edge8" class="edge">
<title>&#45;3&#45;&gt;40</title>
<path fill="none" stroke="#00ff00" stroke-width=".5" d="M240.1541,-227.9494C267.2034,-216.7857 332.915,-189.6656 370.1328,-174.3052"/>
<polygon fill="#00ff00" stroke="#00ff00" stroke-width=".5" points="371.9103,-177.3581 379.8188,-170.3077 369.2398,-170.8875 371.9103,-177.3581"/>
</g>
<!-- 41 -->
<g id="node20" class="node">
<title>41</title>
<ellipse fill="#ffffff" stroke="#000000" cx="137" cy="-163.2168" rx="18.2703" ry="18.2703"/>
<text text-anchor="middle" x="137" y="-161.0168" font-family="Times,serif" font-size="9.00" fill="#000000">41</text>
</g>
<!-- &#45;3&#45;&gt;41 -->
<g id="edge9" class="edge">
<title>&#45;3&#45;&gt;41</title>
<path fill="none" stroke="#ff0000" stroke-width=".5" d="M216.1033,-223.8471C201.861,-212.9308 177.6939,-194.4074 159.8111,-180.7008"/>
<polygon fill="#ff0000" stroke="#ff0000" stroke-width=".5" points="161.6741,-177.7189 151.6081,-174.4134 157.4158,-183.2747 161.6741,-177.7189"/>
</g>
<!-- &#45;3&#45;&gt;43 -->
<g id="edge10" class="edge">
<title>&#45;3&#45;&gt;43</title>
<path fill="none" stroke="#ff0000" stroke-width=".4991" d="M226.7922,-223.8179C224.91,-205.9375 223.0739,-165.7227 240,-138.468 252.8166,-117.8307 276.6982,-103.3391 295.3964,-94.5338"/>
<polygon fill="#ff0000" stroke="#ff0000" stroke-width=".4991" points="296.8933,-97.6988 304.6157,-90.4451 294.0554,-91.2998 296.8933,-97.6988"/>
</g>
<!-- &#45;4 -->
<g id="node4" class="node">
<title>&#45;4</title>
<polygon fill="#d3d3d3" stroke="#000000" points="150,-241.9655 126,-241.9655 126,-223.9655 150,-223.9655 150,-241.9655"/>
<text text-anchor="middle" x="138" y="-230.7655" font-family="Times,serif" font-size="9.00" fill="#000000">&#45;4</text>
</g>
<!-- &#45;4&#45;&gt;38 -->
<g id="edge11" class="edge">
<title>&#45;4&#45;&gt;38</title>
<path fill="none" stroke="#00ff00" stroke-width=".4833" d="M150.3691,-226.2777C171.2411,-214.9925 213.8662,-191.9456 241.3983,-177.0593"/>
<polygon fill="#00ff00" stroke="#00ff00" stroke-width=".4833" points="243.315,-180.0019 250.4469,-172.1668 239.9857,-173.8443 243.315,-180.0019"/>
</g>
<!-- &#45;4&#45;&gt;40 -->
<g id="edge12" class="edge">
<title>&#45;4&#45;&gt;40</title>
<path fill="none" stroke="#ff0000" stroke-width=".2497" d="M150.4533,-227.5238C153.5421,-226.2707 156.8658,-225.0028 160,-223.9655 199.1277,-211.0155 315.1254,-182.7899 368.9647,-169.89"/>
<polygon fill="#ff0000" stroke="#ff0000" stroke-width=".2497" points="369.9507,-173.253 378.8626,-167.5234 368.3228,-166.4449 369.9507,-173.253"/>
</g>
<!-- &#45;4&#45;&gt;41 -->
<g id="edge13" class="edge">
<title>&#45;4&#45;&gt;41</title>
<path fill="none" stroke="#ff0000" stroke-width=".3612" d="M137.8693,-223.8471C137.7525,-215.7049 137.5751,-203.3306 137.4109,-191.8795"/>
<polygon fill="#ff0000" stroke="#ff0000" stroke-width=".3612" points="140.9091,-191.7195 137.266,-181.7708 133.9098,-191.8199 140.9091,-191.7195"/>
</g>
<!-- &#45;4&#45;&gt;43 -->
<g id="edge14" class="edge">
<title>&#45;4&#45;&gt;43</title>
<path fill="none" stroke="#ff0000" stroke-width=".2896" d="M130.5044,-223.9167C116.4988,-205.8602 89.5469,-164.8303 110,-138.468 132.4445,-109.5391 241.2449,-93.3447 293.6595,-87.1064"/>
<polygon fill="#ff0000" stroke="#ff0000" stroke-width=".2896" points="294.1086,-90.578 303.6431,-85.958 293.3086,-83.6238 294.1086,-90.578"/>
</g>
<!-- &#45;5 -->
<g id="node5" class="node">
<title>&#45;5</title>
<polygon fill="#d3d3d3" stroke="#000000" points="377,-241.9655 353,-241.9655 353,-223.9655 377,-223.9655 377,-241.9655"/>
<text text-anchor="middle" x="365" y="-230.7655" font-family="Times,serif" font-size="9.00" fill="#000000">&#45;5</text>
</g>
<!-- &#45;5&#45;&gt;38 -->
<g id="edge15" class="edge">
<title>&#45;5&#45;&gt;38</title>
<path fill="none" stroke="#00ff00" stroke-width=".4695" d="M352.9833,-224.4129C337.4004,-213.3223 309.8872,-193.7405 290.1775,-179.7127"/>
<polygon fill="#00ff00" stroke="#00ff00" stroke-width=".4695" points="292.1808,-176.8426 282.0041,-173.8955 288.1218,-182.5456 292.1808,-176.8426"/>
</g>
<!-- &#45;5&#45;&gt;40 -->
<g id="edge16" class="edge">
<title>&#45;5&#45;&gt;40</title>
<path fill="none" stroke="#ff0000" stroke-width=".1065" d="M369.1834,-223.8471C373.1938,-215.106 379.4419,-201.4873 385.0013,-189.3698"/>
<polygon fill="#ff0000" stroke="#ff0000" stroke-width=".1065" points="388.2674,-190.644 389.2562,-180.0954 381.905,-187.725 388.2674,-190.644"/>
</g>
<!-- &#45;5&#45;&gt;41 -->
<g id="edge17" class="edge">
<title>&#45;5&#45;&gt;41</title>
<path fill="none" stroke="#00ff00" stroke-width=".4181" d="M352.6609,-227.387C349.84,-226.1931 346.8368,-224.9855 344,-223.9655 280.9119,-201.2809 204.8423,-180.6182 164.791,-170.241"/>
<polygon fill="#00ff00" stroke="#00ff00" stroke-width=".4181" points="165.5083,-166.8117 154.9517,-167.7113 163.7652,-173.5912 165.5083,-166.8117"/>
</g>
<!-- &#45;5&#45;&gt;43 -->
<g id="edge18" class="edge">
<title>&#45;5&#45;&gt;43</title>
<path fill="none" stroke="#00ff00" stroke-width=".319" d="M377.2125,-227.7874C391.4552,-220.9967 414.2853,-207.5929 424,-187.9655 433.7586,-168.2495 435.3194,-157.3313 424,-138.468 408.098,-111.9681 374.4166,-97.6703 350.1012,-90.4836"/>
<polygon fill="#00ff00" stroke="#00ff00" stroke-width=".319" points="350.9011,-87.0741 340.3329,-87.8242 349.0622,-93.8283 350.9011,-87.0741"/>
</g>
<!-- &#45;6 -->
<g id="node6" class="node">
<title>&#45;6</title>
<polygon fill="#d3d3d3" stroke="#000000" points="419,-241.9655 395,-241.9655 395,-223.9655 419,-223.9655 419,-241.9655"/>
<text text-anchor="middle" x="407" y="-230.7655" font-family="Times,serif" font-size="9.00" fill="#000000">&#45;6</text>
</g>
<!-- &#45;6&#45;&gt;38 -->
<g id="edge19" class="edge">
<title>&#45;6&#45;&gt;38</title>
<path fill="none" stroke="#ff0000" stroke-width=".3542" d="M394.5759,-226.7758C371.8711,-215.4641 323.2367,-191.2342 293.0077,-176.1739"/>
<polygon fill="#ff0000" stroke="#ff0000" stroke-width=".3542" points="294.4074,-172.961 283.896,-171.6344 291.2859,-179.2265 294.4074,-172.961"/>
</g>
<!-- &#45;6&#45;&gt;40 -->
<g id="edge20" class="edge">
<title>&#45;6&#45;&gt;40</title>
<path fill="none" stroke="#00ff00" stroke-width=".2395" d="M405.6927,-223.8471C404.5172,-215.6483 402.7265,-203.1585 401.0752,-191.6411"/>
<polygon fill="#00ff00" stroke="#00ff00" stroke-width=".2395" points="404.5035,-190.8904 399.6196,-181.4883 397.5743,-191.8839 404.5035,-190.8904"/>
</g>
<!-- &#45;6&#45;&gt;41 -->
<g id="edge21" class="edge">
<title>&#45;6&#45;&gt;41</title>
<path fill="none" stroke="#ff0000" stroke-width=".4387" d="M394.6947,-227.2895C391.8721,-226.1007 388.8596,-224.9198 386,-223.9655 380.6773,-222.1892 229.0691,-185.4766 165.073,-170.0014"/>
<polygon fill="#ff0000" stroke="#ff0000" stroke-width=".4387" points="165.7824,-166.5722 155.2399,-167.6241 164.1373,-173.3762 165.7824,-166.5722"/>
</g>
<!-- &#45;6&#45;&gt;43 -->
<g id="edge22" class="edge">
<title>&#45;6&#45;&gt;43</title>
<path fill="none" stroke="#ff0000" stroke-width=".1973" d="M416.9321,-223.7062C425.1693,-215.2952 436.2684,-202.0768 441,-187.9655 447.9936,-167.1079 452.891,-156.9763 441,-138.468 421.1853,-107.6266 379.0617,-94.0573 350.6308,-88.2399"/>
<polygon fill="#ff0000" stroke="#ff0000" stroke-width=".1973" points="350.9485,-84.7396 340.4799,-86.3701 349.6804,-91.6238 350.9485,-84.7396"/>
</g>
<!-- &#45;7 -->
<g id="node7" class="node">
<title>&#45;7</title>
<polygon fill="#d3d3d3" stroke="#000000" points="24,-241.9655 0,-241.9655 0,-223.9655 24,-223.9655 24,-241.9655"/>
<text text-anchor="middle" x="12" y="-230.7655" font-family="Times,serif" font-size="9.00" fill="#000000">&#45;7</text>
</g>
<!-- &#45;7&#45;&gt;38 -->
<g id="edge23" class="edge">
<title>&#45;7&#45;&gt;38</title>
<path fill="none" stroke="#ff0000" stroke-width=".3603" stroke-dasharray="1,5" d="M24.3158,-227.3207C27.1379,-226.1302 30.1475,-224.9408 33,-223.9655 71.5355,-210.7899 186.1149,-182.6808 239.3026,-169.8504"/>
<polygon fill="#ff0000" stroke="#ff0000" stroke-width=".3603" points="240.1775,-173.2398 249.0809,-167.497 238.5395,-166.4342 240.1775,-173.2398"/>
</g>
<!-- &#45;7&#45;&gt;40 -->
<g id="edge24" class="edge">
<title>&#45;7&#45;&gt;40</title>
<path fill="none" stroke="#ff0000" stroke-width=".5" d="M24.2385,-227.071C27.0646,-225.8935 30.0954,-224.7724 33,-223.9655 145.8253,-192.6213 178.931,-209.6708 294,-187.9655 319.8185,-183.0954 348.8979,-175.9534 369.5579,-170.5919"/>
<polygon fill="#ff0000" stroke="#ff0000" stroke-width=".5" points="370.4688,-173.9714 379.2521,-168.0465 368.691,-167.2009 370.4688,-173.9714"/>
</g>
<!-- &#45;7&#45;&gt;41 -->
<g id="edge25" class="edge">
<title>&#45;7&#45;&gt;41</title>
<path fill="none" stroke="#ff0000" stroke-width=".2707" d="M24.4425,-226.0227C44.6819,-214.7294 85.1326,-192.1583 111.625,-177.3758"/>
<polygon fill="#ff0000" stroke="#ff0000" stroke-width=".2707" points="113.6634,-180.2464 120.6905,-172.3173 110.2525,-174.1336 113.6634,-180.2464"/>
</g>
<!-- &#45;7&#45;&gt;43 -->
<g id="edge26" class="edge">
<title>&#45;7&#45;&gt;43</title>
<path fill="none" stroke="#00ff00" stroke-width=".5" d="M13.3725,-223.7452C16.7314,-204.6212 27.2198,-160.5835 55,-138.468 91.747,-109.2142 232.1387,-92.6211 293.2717,-86.649"/>
<polygon fill="#00ff00" stroke="#00ff00" stroke-width=".5" points="293.7626,-90.1182 303.3865,-85.6877 293.1002,-83.1496 293.7626,-90.1182"/>
</g>
<!-- &#45;8 -->
<g id="node8" class="node">
<title>&#45;8</title>
<polygon fill="#d3d3d3" stroke="#000000" points="66,-241.9655 42,-241.9655 42,-223.9655 66,-223.9655 66,-241.9655"/>
<text text-anchor="middle" x="54" y="-230.7655" font-family="Times,serif" font-size="9.00" fill="#000000">&#45;8</text>
</g>
<!-- &#45;8&#45;&gt;38 -->
<g id="edge27" class="edge">
<title>&#45;8&#45;&gt;38</title>
<path fill="none" stroke="#00ff00" stroke-width=".5" d="M66.3552,-227.4311C69.1752,-226.2349 72.1741,-225.0152 75,-223.9655 132.6681,-202.5442 201.7676,-181.8707 239.3403,-171.0371"/>
<polygon fill="#00ff00" stroke="#00ff00" stroke-width=".5" points="240.4172,-174.3694 249.066,-168.2499 238.4887,-167.6403 240.4172,-174.3694"/>
</g>
<!-- &#45;8&#45;&gt;40 -->
<g id="edge28" class="edge">
<title>&#45;8&#45;&gt;40</title>
<path fill="none" stroke="#ff0000" stroke-width=".4237" d="M66.2543,-227.1266C69.0796,-225.9462 72.1061,-224.8099 75,-223.9655 169.6909,-196.3355 197.3142,-207.501 294,-187.9655 319.5992,-182.7931 348.4921,-175.7437 369.1473,-170.4913"/>
<polygon fill="#ff0000" stroke="#ff0000" stroke-width=".4237" points="370.0388,-173.876 378.8554,-168.0007 368.2993,-167.0956 370.0388,-173.876"/>
</g>
<!-- &#45;8&#45;&gt;41 -->
<g id="edge29" class="edge">
<title>&#45;8&#45;&gt;41</title>
<path fill="none" stroke="#ff0000" stroke-width=".3737" d="M64.8508,-223.8471C77.4985,-213.2187 98.7272,-195.3792 114.8921,-181.7951"/>
<polygon fill="#ff0000" stroke="#ff0000" stroke-width=".3737" points="117.4073,-184.2532 122.8114,-175.1401 112.9039,-178.8941 117.4073,-184.2532"/>
</g>
<!-- &#45;8&#45;&gt;43 -->
<g id="edge30" class="edge">
<title>&#45;8&#45;&gt;43</title>
<path fill="none" stroke="#00ff00" stroke-width=".3906" d="M53.9635,-223.8868C54.4078,-205.031 58.2266,-161.4724 83,-138.468 113.4666,-110.1771 236.6724,-93.3889 293.2898,-87.0266"/>
<polygon fill="#00ff00" stroke="#00ff00" stroke-width=".3906" points="293.8035,-90.4914 303.3642,-85.9261 293.0432,-83.5328 293.8035,-90.4914"/>
</g>
<!-- &#45;9 -->
<g id="node9" class="node">
<title>&#45;9</title>
<polygon fill="#d3d3d3" stroke="#000000" points="108,-241.9655 84,-241.9655 84,-223.9655 108,-223.9655 108,-241.9655"/>
<text text-anchor="middle" x="96" y="-230.7655" font-family="Times,serif" font-size="9.00" fill="#000000">&#45;9</text>
</g>
<!-- &#45;9&#45;&gt;38 -->
<g id="edge31" class="edge">
<title>&#45;9&#45;&gt;38</title>
<path fill="none" stroke="#ff0000" stroke-width=".3909" d="M108.4194,-227.5941C111.2361,-226.3894 114.2174,-225.1251 117,-223.9655 160.1058,-206.0019 210.4688,-185.7564 240.4945,-173.7645"/>
<polygon fill="#ff0000" stroke="#ff0000" stroke-width=".3909" points="241.8663,-176.9855 249.8576,-170.0293 239.2726,-170.4838 241.8663,-176.9855"/>
</g>
<!-- &#45;9&#45;&gt;40 -->
<g id="edge32" class="edge">
<title>&#45;9&#45;&gt;40</title>
<path fill="none" stroke="#ff0000" stroke-width=".3121" d="M108.2787,-227.2073C111.1027,-226.0227 114.1225,-224.8644 117,-223.9655 193.6258,-200.0294 215.6267,-205.3458 294,-187.9655 319.4971,-182.3112 348.4011,-175.3145 369.0866,-170.2046"/>
<polygon fill="#ff0000" stroke="#ff0000" stroke-width=".3121" points="369.9483,-173.597 378.8111,-167.7918 368.2625,-166.803 369.9483,-173.597"/>
</g>
<!-- &#45;9&#45;&gt;41 -->
<g id="edge33" class="edge">
<title>&#45;9&#45;&gt;41</title>
<path fill="none" stroke="#ff0000" stroke-width=".1999" d="M101.36,-223.8471C106.7048,-214.7546 115.1519,-200.3845 122.4811,-187.9162"/>
<polygon fill="#ff0000" stroke="#ff0000" stroke-width=".1999" points="125.5097,-189.6706 127.56,-179.276 119.4751,-186.1232 125.5097,-189.6706"/>
</g>
<!-- &#45;9&#45;&gt;43 -->
<g id="edge34" class="edge">
<title>&#45;9&#45;&gt;43</title>
<path fill="none" stroke="#ff0000" stroke-width=".5" d="M93.0766,-223.943C87.7395,-205.5711 78.7292,-163.4501 99,-138.468 123.3634,-108.4421 238.9361,-92.6867 293.434,-86.8205"/>
<polygon fill="#ff0000" stroke="#ff0000" stroke-width=".5" points="293.8892,-90.2921 303.4741,-85.7778 293.166,-83.3296 293.8892,-90.2921"/>
</g>
<!-- &#45;10 -->
<g id="node10" class="node">
<title>&#45;10</title>
<polygon fill="#d3d3d3" stroke="#000000" points="197.5,-241.9655 168.5,-241.9655 168.5,-223.9655 197.5,-223.9655 197.5,-241.9655"/>
<text text-anchor="middle" x="183" y="-230.7655" font-family="Times,serif" font-size="9.00" fill="#000000">&#45;10</text>
</g>
<!-- &#45;10&#45;&gt;38 -->
<g id="edge35" class="edge">
<title>&#45;10&#45;&gt;38</title>
<path fill="none" stroke="#ff0000" stroke-width=".3369" d="M193.9815,-223.8471C206.7816,-213.2187 228.2661,-195.3792 244.6257,-181.7951"/>
<polygon fill="#ff0000" stroke="#ff0000" stroke-width=".3369" points="247.1828,-184.2212 252.6404,-175.1401 242.711,-178.8357 247.1828,-184.2212"/>
</g>
<!-- &#45;10&#45;&gt;40 -->
<g id="edge36" class="edge">
<title>&#45;10&#45;&gt;40</title>
<path fill="none" stroke="#ff0000" stroke-width=".5" stroke-dasharray="1,5" d="M197.6816,-227.3292C200.7505,-226.1878 203.9732,-225.0162 207,-223.9655 264.5662,-203.9826 332.7591,-182.7703 369.7747,-171.4589"/>
<polygon fill="#ff0000" stroke="#ff0000" stroke-width=".5" points="370.8079,-174.8031 379.3536,-168.5404 368.7676,-168.107 370.8079,-174.8031"/>
</g>
<!-- &#45;10&#45;&gt;41 -->
<g id="edge37" class="edge">
<title>&#45;10&#45;&gt;41</title>
<path fill="none" stroke="#ff0000" stroke-width=".4694" d="M176.9863,-223.8471C170.9113,-214.6357 161.2641,-200.0079 152.9677,-187.4282"/>
<polygon fill="#ff0000" stroke="#ff0000" stroke-width=".4694" points="155.6631,-185.1579 147.2357,-178.7369 149.8195,-189.0118 155.6631,-185.1579"/>
</g>
<!-- &#45;10&#45;&gt;43 -->
<g id="edge38" class="edge">
<title>&#45;10&#45;&gt;43</title>
<path fill="none" stroke="#ff0000" stroke-width=".1786" d="M184.6475,-223.8111C188.3476,-205.5647 198.8676,-164.2102 222,-138.468 241.7023,-116.5429 272.393,-101.7047 294.5791,-93.1381"/>
<polygon fill="#ff0000" stroke="#ff0000" stroke-width=".1786" points="295.9235,-96.373 304.1042,-89.6405 293.5106,-89.802 295.9235,-96.373"/>
</g>
<!-- &#45;11 -->
<g id="node11" class="node">
<title>&#45;11</title>
<polygon fill="#d3d3d3" stroke="#000000" points="598.5,-241.9655 569.5,-241.9655 569.5,-223.9655 598.5,-223.9655 598.5,-241.9655"/>
<text text-anchor="middle" x="584" y="-230.7655" font-family="Times,serif" font-size="9.00" fill="#000000">&#45;11</text>
</g>
<!-- &#45;11&#45;&gt;38 -->
<g id="edge39" class="edge">
<title>&#45;11&#45;&gt;38</title>
<path fill="none" stroke="#00ff00" stroke-width=".4905" d="M569.4091,-227.0397C566.3336,-225.9193 563.0853,-224.8294 560,-223.9655 477.2363,-200.7914 454.0312,-206.0107 370,-187.9655 344.4656,-182.4822 315.5656,-175.4667 294.8912,-170.3063"/>
<polygon fill="#00ff00" stroke="#00ff00" stroke-width=".4905" points="295.724,-166.9068 285.1727,-167.8659 294.0192,-173.6961 295.724,-166.9068"/>
</g>
<!-- &#45;11&#45;&gt;40 -->
<g id="edge40" class="edge">
<title>&#45;11&#45;&gt;40</title>
<path fill="none" stroke="#ff0000" stroke-width=".3004" d="M569.2786,-227.4396C566.2126,-226.2902 563.0011,-225.0875 560,-223.9655 512.2675,-206.1209 456.6426,-185.4075 424.2674,-173.3599"/>
<polygon fill="#ff0000" stroke="#ff0000" stroke-width=".3004" points="425.2052,-169.9745 414.6124,-169.7675 422.7641,-176.5351 425.2052,-169.9745"/>
</g>
<!-- &#45;11&#45;&gt;43 -->
<g id="edge41" class="edge">
<title>&#45;11&#45;&gt;43</title>
<path fill="none" stroke="#00ff00" stroke-width=".471" d="M595.0756,-223.9467C604.2658,-215.6898 616.6613,-202.5624 622,-187.9655 629.5564,-167.3051 636.1001,-155.3541 622,-138.468 587.5418,-97.2016 418.8812,-87.1821 350.6897,-84.8037"/>
<polygon fill="#00ff00" stroke="#00ff00" stroke-width=".471" points="350.7502,-81.3039 340.6439,-84.484 350.5275,-88.3004 350.7502,-81.3039"/>
</g>
<!-- &#45;12 -->
<g id="node12" class="node">
<title>&#45;12</title>
<polygon fill="#d3d3d3" stroke="#000000" points="466.5,-241.9655 437.5,-241.9655 437.5,-223.9655 466.5,-223.9655 466.5,-241.9655"/>
<text text-anchor="middle" x="452" y="-230.7655" font-family="Times,serif" font-size="9.00" fill="#000000">&#45;12</text>
</g>
<!-- &#45;12&#45;&gt;38 -->
<g id="edge42" class="edge">
<title>&#45;12&#45;&gt;38</title>
<path fill="none" stroke="#ff0000" stroke-width=".282" d="M437.4834,-227.4924C406.5317,-215.823 333.6438,-188.3428 293.9342,-173.3715"/>
<polygon fill="#ff0000" stroke="#ff0000" stroke-width=".282" points="294.9598,-170.0177 284.368,-169.7648 292.4903,-176.5677 294.9598,-170.0177"/>
</g>
<!-- &#45;12&#45;&gt;40 -->
<g id="edge43" class="edge">
<title>&#45;12&#45;&gt;40</title>
<path fill="none" stroke="#ff0000" stroke-width=".4724" d="M444.8097,-223.8471C437.214,-214.2145 424.9477,-198.6589 414.7417,-185.7161"/>
<polygon fill="#ff0000" stroke="#ff0000" stroke-width=".4724" points="417.3426,-183.3619 408.4023,-177.6767 411.8459,-187.6963 417.3426,-183.3619"/>
</g>
<!-- &#45;12&#45;&gt;41 -->
<g id="edge44" class="edge">
<title>&#45;12&#45;&gt;41</title>
<path fill="none" stroke="#00ff00" stroke-width=".3283" stroke-dasharray="1,5" d="M437.4078,-227.0443C434.3324,-225.9236 431.0845,-224.8324 428,-223.9655 346.0995,-200.9471 323.16,-205.9082 240,-187.9655 214.471,-182.4573 185.5704,-175.4446 164.8944,-170.2915"/>
<polygon fill="#00ff00" stroke="#00ff00" stroke-width=".3283" points="165.726,-166.8917 155.175,-167.8551 164.0239,-173.6817 165.726,-166.8917"/>
</g>
<!-- &#45;12&#45;&gt;43 -->
<g id="edge45" class="edge">
<title>&#45;12&#45;&gt;43</title>
<path fill="none" stroke="#ff0000" stroke-width=".4818" d="M466.5786,-227.4311C497.5675,-215.651 567.2411,-189.0739 568,-187.9655 580.4282,-169.8136 581.7747,-155.6206 568,-138.468 540.9924,-104.8376 409.5903,-90.7465 350.6764,-86.0489"/>
<polygon fill="#ff0000" stroke="#ff0000" stroke-width=".4818" points="350.7979,-82.5481 340.561,-85.2785 350.2662,-89.5279 350.7979,-82.5481"/>
</g>
<!-- 2366 -->
<g id="node22" class="node">
<title>2366</title>
<ellipse fill="#ffffff" stroke="#000000" cx="534" cy="-163.2168" rx="25" ry="25"/>
<text text-anchor="middle" x="534" y="-161.0168" font-family="Times,serif" font-size="9.00" fill="#000000">2366</text>
</g>
<!-- &#45;12&#45;&gt;2366 -->
<g id="edge64" class="edge">
<title>&#45;12&#45;&gt;2366</title>
<path fill="none" stroke="#00ff00" stroke-width=".2684" d="M462.7201,-223.8471C474.0324,-214.2249 492.2931,-198.6924 507.4994,-185.758"/>
<polygon fill="#00ff00" stroke="#00ff00" stroke-width=".2684" points="509.7705,-188.4212 515.12,-179.276 505.2351,-183.0891 509.7705,-188.4212"/>
</g>
<!-- &#45;13 -->
<g id="node13" class="node">
<title>&#45;13</title>
<polygon fill="#d3d3d3" stroke="#000000" points="287.5,-241.9655 258.5,-241.9655 258.5,-223.9655 287.5,-223.9655 287.5,-241.9655"/>
<text text-anchor="middle" x="273" y="-230.7655" font-family="Times,serif" font-size="9.00" fill="#000000">&#45;13</text>
</g>
<!-- &#45;13&#45;&gt;38 -->
<g id="edge46" class="edge">
<title>&#45;13&#45;&gt;38</title>
<path fill="none" stroke="#00ff00" stroke-width=".3006" d="M272.2156,-223.8471C271.5152,-215.7049 270.4507,-203.3306 269.4657,-191.8795"/>
<polygon fill="#00ff00" stroke="#00ff00" stroke-width=".3006" points="272.9403,-191.434 268.5961,-181.7708 265.9661,-192.034 272.9403,-191.434"/>
</g>
<!-- &#45;13&#45;&gt;40 -->
<g id="edge47" class="edge">
<title>&#45;13&#45;&gt;40</title>
<path fill="none" stroke="#00ff00" stroke-width=".3059" d="M287.7114,-224.6905C308.4177,-213.0434 346.4494,-191.651 371.7338,-177.4288"/>
<polygon fill="#00ff00" stroke="#00ff00" stroke-width=".3059" points="373.7375,-180.3174 380.7374,-172.3643 370.3057,-174.2164 373.7375,-180.3174"/>
</g>
<!-- &#45;13&#45;&gt;41 -->
<g id="edge48" class="edge">
<title>&#45;13&#45;&gt;41</title>
<path fill="none" stroke="#ff0000" stroke-width=".5" d="M258.4456,-225.5012C235.5436,-213.7557 190.7919,-190.8044 162.475,-176.2819"/>
<polygon fill="#ff0000" stroke="#ff0000" stroke-width=".5" points="164.0525,-173.1575 153.5573,-171.7083 160.8581,-179.3861 164.0525,-173.1575"/>
</g>
<!-- &#45;13&#45;&gt;43 -->
<g id="edge49" class="edge">
<title>&#45;13&#45;&gt;43</title>
<path fill="none" stroke="#00ff00" stroke-width=".1742" d="M277.823,-223.8564C282.425,-214.9039 289.3297,-200.7616 294,-187.9655 303.1491,-162.8979 310.8068,-133.4566 315.7883,-112.33"/>
<polygon fill="#00ff00" stroke="#00ff00" stroke-width=".1742" points="319.2427,-112.9259 318.0783,-102.3952 312.4215,-111.3535 319.2427,-112.9259"/>
</g>
<!-- &#45;14 -->
<g id="node14" class="node">
<title>&#45;14</title>
<polygon fill="#d3d3d3" stroke="#000000" points="645.5,-241.9655 616.5,-241.9655 616.5,-223.9655 645.5,-223.9655 645.5,-241.9655"/>
<text text-anchor="middle" x="631" y="-230.7655" font-family="Times,serif" font-size="9.00" fill="#000000">&#45;14</text>
</g>
<!-- &#45;14&#45;&gt;38 -->
<g id="edge50" class="edge">
<title>&#45;14&#45;&gt;38</title>
<path fill="none" stroke="#ff0000" stroke-width=".3672" d="M616.0672,-226.5692C613.4139,-225.5924 610.6509,-224.6751 608,-223.9655 504.6575,-196.302 474.9954,-208.4813 370,-187.9655 344.2138,-182.927 315.1307,-175.8045 294.4611,-170.4932"/>
<polygon fill="#ff0000" stroke="#ff0000" stroke-width=".3672" points="295.3203,-167.1003 284.7616,-167.9751 293.5612,-173.8757 295.3203,-167.1003"/>
</g>
<!-- &#45;14&#45;&gt;40 -->
<g id="edge51" class="edge">
<title>&#45;14&#45;&gt;40</title>
<path fill="none" stroke="#00ff00" stroke-width=".5" d="M616.4743,-227.0469C613.6789,-225.9747 610.7616,-224.9011 608,-223.9655 543.0685,-201.9671 465.2329,-180.8958 424.6697,-170.3059"/>
<polygon fill="#00ff00" stroke="#00ff00" stroke-width=".5" points="425.5157,-166.9096 414.9571,-167.785 423.7571,-173.6851 425.5157,-166.9096"/>
</g>
<!-- &#45;14&#45;&gt;43 -->
<g id="edge52" class="edge">
<title>&#45;14&#45;&gt;43</title>
<path fill="none" stroke="#00ff00" stroke-width=".1538" d="M635.6835,-223.8949C644.4867,-205.4343 660.8263,-163.1584 640,-138.468 621.3271,-116.3306 425.2559,-94.4648 350.623,-86.8817"/>
<polygon fill="#00ff00" stroke="#00ff00" stroke-width=".1538" points="350.8279,-83.3847 340.5283,-85.8681 350.1286,-90.3497 350.8279,-83.3847"/>
</g>
<!-- &#45;15 -->
<g id="node15" class="node">
<title>&#45;15</title>
<polygon fill="#d3d3d3" stroke="#000000" points="334.5,-241.9655 305.5,-241.9655 305.5,-223.9655 334.5,-223.9655 334.5,-241.9655"/>
<text text-anchor="middle" x="320" y="-230.7655" font-family="Times,serif" font-size="9.00" fill="#000000">&#45;15</text>
</g>
<!-- &#45;15&#45;&gt;38 -->
<g id="edge53" class="edge">
<title>&#45;15&#45;&gt;38</title>
<path fill="none" stroke="#00ff00" stroke-width=".1572" stroke-dasharray="1,5" d="M313.0712,-223.8471C305.7977,-214.2751 294.0799,-198.8543 284.2824,-185.9606"/>
<polygon fill="#00ff00" stroke="#00ff00" stroke-width=".1572" points="287.0243,-183.784 278.1873,-177.9394 281.4508,-188.0191 287.0243,-183.784"/>
</g>
<!-- &#45;15&#45;&gt;40 -->
<g id="edge54" class="edge">
<title>&#45;15&#45;&gt;40</title>
<path fill="none" stroke="#ff0000" stroke-width=".2028" d="M330.0664,-223.8471C341.5545,-213.4408 360.6742,-196.1217 375.5439,-182.6523"/>
<polygon fill="#ff0000" stroke="#ff0000" stroke-width=".2028" points="378.2305,-184.9412 383.2922,-175.6337 373.531,-179.7532 378.2305,-184.9412"/>
</g>
<!-- &#45;15&#45;&gt;41 -->
<g id="edge55" class="edge">
<title>&#45;15&#45;&gt;41</title>
<path fill="none" stroke="#00ff00" stroke-width=".286" d="M305.408,-227.23C302.6187,-226.1409 299.7206,-225.0143 297,-223.9655 250.2189,-205.9323 195.5946,-185.279 163.791,-173.2942"/>
<polygon fill="#00ff00" stroke="#00ff00" stroke-width=".286" points="164.8978,-169.9711 154.3059,-169.7219 162.4306,-176.5219 164.8978,-169.9711"/>
</g>
<!-- &#45;15&#45;&gt;43 -->
<g id="edge56" class="edge">
<title>&#45;15&#45;&gt;43</title>
<path fill="none" stroke="#00ff00" stroke-width=".1106" d="M321.8687,-223.7065C323.5963,-214.6428 326.0371,-200.4205 327,-187.9655 328.9675,-162.5176 327.2376,-133.4991 325.2937,-112.6124"/>
<polygon fill="#00ff00" stroke="#00ff00" stroke-width=".1106" points="328.7592,-112.0929 324.2761,-102.4933 321.7943,-112.7934 328.7592,-112.0929"/>
</g>
<!-- 0 -->
<g id="node16" class="node">
<title>0</title>
<ellipse fill="#add8e6" stroke="#000000" cx="200" cy="-14.8492" rx="14.7" ry="14.7"/>
<text text-anchor="middle" x="200" y="-12.6492" font-family="Times,serif" font-size="9.00" fill="#000000">0</text>
</g>
<!-- 1 -->
<g id="node17" class="node">
<title>1</title>
<ellipse fill="#add8e6" stroke="#000000" cx="299" cy="-14.8492" rx="14.7" ry="14.7"/>
<text text-anchor="middle" x="299" y="-12.6492" font-family="Times,serif" font-size="9.00" fill="#000000">1</text>
</g>
<!-- 38&#45;&gt;0 -->
<g id="edge57" class="edge">
<title>38&#45;&gt;0</title>
<path fill="none" stroke="#00ff00" stroke-width=".2488" d="M259.3142,-146.1971C247.2704,-119.5268 223.9317,-67.8445 210.3982,-37.8754"/>
<polygon fill="#00ff00" stroke="#00ff00" stroke-width=".2488" points="213.5204,-36.2851 206.2149,-28.6118 207.1408,-39.1661 213.5204,-36.2851"/>
</g>
<!-- 38&#45;&gt;1 -->
<g id="edge58" class="edge">
<title>38&#45;&gt;1</title>
<path fill="none" stroke="#00ff00" stroke-width=".4232" d="M270.9238,-145.024C276.6316,-118.5601 287.2412,-69.3687 293.6574,-39.62"/>
<polygon fill="#00ff00" stroke="#00ff00" stroke-width=".4232" points="297.1277,-40.1309 295.8147,-29.6177 290.285,-38.655 297.1277,-40.1309"/>
</g>
<!-- 38&#45;&gt;43 -->
<g id="edge66" class="edge">
<title>38&#45;&gt;43</title>
<path fill="none" stroke="#00ff00" stroke-width=".3484" d="M277.6046,-147.959C285.5177,-136.5737 296.4781,-120.8039 305.5285,-107.7824"/>
<polygon fill="#00ff00" stroke="#00ff00" stroke-width=".3484" points="308.5948,-109.5032 311.428,-99.2942 302.8468,-105.5081 308.5948,-109.5032"/>
</g>
<!-- 40&#45;&gt;1 -->
<g id="edge59" class="edge">
<title>40&#45;&gt;1</title>
<path fill="none" stroke="#ff0000" stroke-width=".2442" d="M390.3877,-145.7341C382.2856,-125.47 367.3472,-91.5515 349,-65.6985 340.0668,-53.1108 327.9761,-40.7236 317.922,-31.3271"/>
<polygon fill="#ff0000" stroke="#ff0000" stroke-width=".2442" points="320.1489,-28.6215 310.3946,-24.4858 315.4409,-33.8017 320.1489,-28.6215"/>
</g>
<!-- 41&#45;&gt;0 -->
<g id="edge60" class="edge">
<title>41&#45;&gt;0</title>
<path fill="none" stroke="#00ff00" stroke-width=".5" d="M144.2269,-146.1971C155.5517,-119.5268 177.4971,-67.8445 190.2226,-37.8754"/>
<polygon fill="#00ff00" stroke="#00ff00" stroke-width=".5" points="193.4692,-39.1843 194.1561,-28.6118 187.026,-36.4484 193.4692,-39.1843"/>
</g>
<!-- 41&#45;&gt;1 -->
<g id="edge61" class="edge">
<title>41&#45;&gt;1</title>
<path fill="none" stroke="#00ff00" stroke-width=".2868" stroke-dasharray="1,5" d="M150.812,-150.567C179.8737,-123.9509 247.3659,-62.1383 280.2789,-31.995"/>
<polygon fill="#00ff00" stroke="#00ff00" stroke-width=".2868" points="282.8464,-34.3896 287.8571,-25.0545 278.1186,-29.2274 282.8464,-34.3896"/>
</g>
<!-- 43&#45;&gt;0 -->
<g id="edge62" class="edge">
<title>43&#45;&gt;0</title>
<path fill="none" stroke="#ff0000" stroke-width=".4456" d="M305.7993,-74.8895C284.2841,-62.6798 246.1974,-41.0659 222.0694,-27.3734"/>
<polygon fill="#ff0000" stroke="#ff0000" stroke-width=".4456" points="223.6948,-24.2716 213.2702,-22.38 220.2399,-30.3596 223.6948,-24.2716"/>
</g>
<!-- 43&#45;&gt;1 -->
<g id="edge63" class="edge">
<title>43&#45;&gt;1</title>
<path fill="none" stroke="#ff0000" stroke-width=".2384" stroke-dasharray="1,5" d="M316.1961,-66.6126C313.4115,-58.2303 310.0307,-48.0536 307.0062,-38.9493"/>
<polygon fill="#ff0000" stroke="#ff0000" stroke-width=".2384" points="310.2678,-37.6653 303.7936,-29.2787 303.6248,-39.8722 310.2678,-37.6653"/>
</g>
<!-- 2366&#45;&gt;43 -->
<g id="edge65" class="edge">
<title>2366&#45;&gt;43</title>
<path fill="none" stroke="#00ff00" stroke-width=".3147" d="M513.5205,-148.8154C507.7075,-145.121 501.2541,-141.3744 495,-138.468 445.9673,-115.682 384.8666,-98.993 349.9551,-90.4751"/>
<polygon fill="#00ff00" stroke="#00ff00" stroke-width=".3147" points="350.5433,-87.0171 340.0036,-88.0962 348.9158,-93.8253 350.5433,-87.0171"/>
</g>
</g>
</svg>
