<?xml version="1.0" encoding="UTF-8" standalone="no"?>
<!DOCTYPE svg PUBLIC "-//W3C//DTD SVG 1.1//EN"
 "http://www.w3.org/Graphics/SVG/1.1/DTD/svg11.dtd">
<!-- Generated by graphviz version 2.40.1 (20161225.0304)
 -->
<!-- Title: %3 Pages: 1 -->
<svg width="258pt" height="177pt"
 viewBox="0.00 0.00 258.50 177.20" xmlns="http://www.w3.org/2000/svg" xmlns:xlink="http://www.w3.org/1999/xlink">
<g id="graph0" class="graph" transform="scale(1 1) rotate(0) translate(4 173.196)">
<title>%3</title>
<polygon fill="#ffffff" stroke="transparent" points="-4,4 -4,-173.196 254.4975,-173.196 254.4975,4 -4,4"/>
<!-- &#45;1 -->
<g id="node1" class="node">
<title>&#45;1</title>
<polygon fill="#d3d3d3" stroke="#000000" points="187.7487,-169.196 163.7487,-169.196 163.7487,-151.196 187.7487,-151.196 187.7487,-169.196"/>
<text text-anchor="middle" x="175.7487" y="-157.996" font-family="Times,serif" font-size="9.00" fill="#000000">&#45;1</text>
</g>
<!-- 1708 -->
<g id="node7" class="node">
<title>1708</title>
<ellipse fill="#ffffff" stroke="#000000" cx="91.7487" cy="-90.4472" rx="25" ry="25"/>
<text text-anchor="middle" x="91.7487" y="-88.2472" font-family="Times,serif" font-size="9.00" fill="#000000">1708</text>
</g>
<!-- &#45;1&#45;&gt;1708 -->
<g id="edge1" class="edge">
<title>&#45;1&#45;&gt;1708</title>
<path fill="none" stroke="#00ff00" stroke-width=".3017" d="M164.7672,-151.0775C153.179,-141.4554 134.4729,-125.9229 118.8956,-112.9884"/>
<polygon fill="#00ff00" stroke="#00ff00" stroke-width=".3017" points="121.0187,-110.202 111.0892,-106.5064 116.5469,-115.5875 121.0187,-110.202"/>
</g>
<!-- 1710 -->
<g id="node8" class="node">
<title>1710</title>
<ellipse fill="#ffffff" stroke="#000000" cx="158.7487" cy="-90.4472" rx="25" ry="25"/>
<text text-anchor="middle" x="158.7487" y="-88.2472" font-family="Times,serif" font-size="9.00" fill="#000000">1710</text>
</g>
<!-- &#45;1&#45;&gt;1710 -->
<g id="edge2" class="edge">
<title>&#45;1&#45;&gt;1710</title>
<path fill="none" stroke="#00ff00" stroke-width=".258" d="M173.5263,-151.0775C171.8388,-144.1539 169.4054,-134.1701 166.9988,-124.296"/>
<polygon fill="#00ff00" stroke="#00ff00" stroke-width=".258" points="170.3982,-123.4627 164.6297,-114.5759 163.5973,-125.1203 170.3982,-123.4627"/>
</g>
<!-- 1711 -->
<g id="node9" class="node">
<title>1711</title>
<ellipse fill="#ffffff" stroke="#000000" cx="225.7487" cy="-90.4472" rx="25" ry="25"/>
<text text-anchor="middle" x="225.7487" y="-88.2472" font-family="Times,serif" font-size="9.00" fill="#000000">1711</text>
</g>
<!-- &#45;1&#45;&gt;1711 -->
<g id="edge3" class="edge">
<title>&#45;1&#45;&gt;1711</title>
<path fill="none" stroke="#ff0000" stroke-width=".3434" d="M182.2854,-151.0775C188.1644,-142.8764 197.1212,-130.3819 205.3795,-118.8618"/>
<polygon fill="#ff0000" stroke="#ff0000" stroke-width=".3434" points="208.2336,-120.8876 211.2153,-110.721 202.5444,-116.8093 208.2336,-120.8876"/>
</g>
<!-- &#45;2 -->
<g id="node2" class="node">
<title>&#45;2</title>
<polygon fill="#d3d3d3" stroke="#000000" points="145.7487,-169.196 121.7487,-169.196 121.7487,-151.196 145.7487,-151.196 145.7487,-169.196"/>
<text text-anchor="middle" x="133.7487" y="-157.996" font-family="Times,serif" font-size="9.00" fill="#000000">&#45;2</text>
</g>
<!-- 1706 -->
<g id="node6" class="node">
<title>1706</title>
<ellipse fill="#ffffff" stroke="#000000" cx="24.7487" cy="-90.4472" rx="25" ry="25"/>
<text text-anchor="middle" x="24.7487" y="-88.2472" font-family="Times,serif" font-size="9.00" fill="#000000">1706</text>
</g>
<!-- &#45;2&#45;&gt;1706 -->
<g id="edge4" class="edge">
<title>&#45;2&#45;&gt;1706</title>
<path fill="none" stroke="#00ff00" stroke-width=".4215" d="M121.654,-153.5733C106.4477,-145.1254 79.6784,-129.8485 57.7487,-115.196 56.0964,-114.0919 54.4145,-112.9364 52.7289,-111.7536"/>
<polygon fill="#00ff00" stroke="#00ff00" stroke-width=".4215" points="54.5438,-108.7468 44.3894,-105.7235 50.4421,-114.4193 54.5438,-108.7468"/>
</g>
<!-- &#45;2&#45;&gt;1708 -->
<g id="edge5" class="edge">
<title>&#45;2&#45;&gt;1708</title>
<path fill="none" stroke="#00ff00" stroke-width=".3465" d="M128.258,-151.0775C123.5558,-143.2688 116.5098,-131.5676 109.8582,-120.5213"/>
<polygon fill="#00ff00" stroke="#00ff00" stroke-width=".3465" points="112.8176,-118.651 104.6606,-111.8898 106.8208,-122.262 112.8176,-118.651"/>
</g>
<!-- &#45;2&#45;&gt;1710 -->
<g id="edge6" class="edge">
<title>&#45;2&#45;&gt;1710</title>
<path fill="none" stroke="#00ff00" stroke-width=".4571" d="M137.0171,-151.0775C139.5647,-143.9698 143.2682,-133.6371 146.8985,-123.5089"/>
<polygon fill="#00ff00" stroke="#00ff00" stroke-width=".4571" points="150.2371,-124.5674 150.3165,-113.9728 143.6475,-122.2055 150.2371,-124.5674"/>
</g>
<!-- &#45;2&#45;&gt;1711 -->
<g id="edge7" class="edge">
<title>&#45;2&#45;&gt;1711</title>
<path fill="none" stroke="#ff0000" stroke-width=".2286" d="M145.7761,-151.0775C158.9193,-141.1132 180.4225,-124.8108 197.8228,-111.6189"/>
<polygon fill="#ff0000" stroke="#ff0000" stroke-width=".2286" points="200.1264,-114.2647 205.9807,-105.4342 195.8974,-108.6866 200.1264,-114.2647"/>
</g>
<!-- &#45;3 -->
<g id="node3" class="node">
<title>&#45;3</title>
<polygon fill="#d3d3d3" stroke="#000000" points="103.7487,-169.196 79.7487,-169.196 79.7487,-151.196 103.7487,-151.196 103.7487,-169.196"/>
<text text-anchor="middle" x="91.7487" y="-157.996" font-family="Times,serif" font-size="9.00" fill="#000000">&#45;3</text>
</g>
<!-- &#45;3&#45;&gt;1706 -->
<g id="edge8" class="edge">
<title>&#45;3&#45;&gt;1706</title>
<path fill="none" stroke="#ff0000" stroke-width=".4529" d="M82.9897,-151.0775C74.4123,-142.1483 60.9459,-128.1294 49.1217,-115.8201"/>
<polygon fill="#ff0000" stroke="#ff0000" stroke-width=".4529" points="51.4818,-113.2247 42.0301,-108.4376 46.4336,-118.074 51.4818,-113.2247"/>
</g>
<!-- &#45;3&#45;&gt;1708 -->
<g id="edge9" class="edge">
<title>&#45;3&#45;&gt;1708</title>
<path fill="none" stroke="#ff0000" stroke-width=".4035" d="M91.7487,-151.0775C91.7487,-144.4608 91.7487,-135.0493 91.7487,-125.6096"/>
<polygon fill="#ff0000" stroke="#ff0000" stroke-width=".4035" points="95.2488,-125.4865 91.7487,-115.4865 88.2488,-125.4865 95.2488,-125.4865"/>
</g>
<!-- &#45;3&#45;&gt;1710 -->
<g id="edge10" class="edge">
<title>&#45;3&#45;&gt;1710</title>
<path fill="none" stroke="#ff0000" stroke-width=".1856" d="M100.5078,-151.0775C109.0851,-142.1483 122.5516,-128.1294 134.3758,-115.8201"/>
<polygon fill="#ff0000" stroke="#ff0000" stroke-width=".1856" points="137.0639,-118.074 141.4674,-108.4376 132.0157,-113.2247 137.0639,-118.074"/>
</g>
<!-- &#45;3&#45;&gt;1711 -->
<g id="edge11" class="edge">
<title>&#45;3&#45;&gt;1711</title>
<path fill="none" stroke="#ff0000" stroke-width=".2643" d="M104.0712,-154.8904C129.1817,-144.0519 184.5978,-119.9861 192.7487,-115.196 194.462,-114.1891 196.1917,-113.1097 197.914,-111.9853"/>
<polygon fill="#ff0000" stroke="#ff0000" stroke-width=".2643" points="200.1423,-114.6989 206.3545,-106.1164 196.146,-108.9517 200.1423,-114.6989"/>
</g>
<!-- 0 -->
<g id="node4" class="node">
<title>0</title>
<ellipse fill="#add8e6" stroke="#000000" cx="100.7487" cy="-14.8492" rx="14.7" ry="14.7"/>
<text text-anchor="middle" x="100.7487" y="-12.6492" font-family="Times,serif" font-size="9.00" fill="#000000">0</text>
</g>
<!-- 1 -->
<g id="node5" class="node">
<title>1</title>
<ellipse fill="#add8e6" stroke="#000000" cx="153.7487" cy="-14.8492" rx="14.7" ry="14.7"/>
<text text-anchor="middle" x="153.7487" y="-12.6492" font-family="Times,serif" font-size="9.00" fill="#000000">1</text>
</g>
<!-- 1706&#45;&gt;0 -->
<g id="edge12" class="edge">
<title>1706&#45;&gt;0</title>
<path fill="none" stroke="#ff0000" stroke-width=".3277" d="M42.3757,-72.9135C54.4618,-60.8913 70.4518,-44.9859 82.6399,-32.8623"/>
<polygon fill="#ff0000" stroke="#ff0000" stroke-width=".3277" points="85.3995,-35.054 90.021,-25.5202 80.4629,-30.0911 85.3995,-35.054"/>
</g>
<!-- 1706&#45;&gt;1 -->
<g id="edge13" class="edge">
<title>1706&#45;&gt;1</title>
<path fill="none" stroke="#00ff00" stroke-width=".3826" d="M44.2853,-75.011C48.6285,-71.8027 53.2738,-68.5372 57.7487,-65.6985 64.5927,-61.3571 105.5268,-39.9207 131.6859,-26.3035"/>
<polygon fill="#00ff00" stroke="#00ff00" stroke-width=".3826" points="133.3072,-29.4054 140.5646,-21.6865 130.0776,-23.1949 133.3072,-29.4054"/>
</g>
<!-- 1708&#45;&gt;0 -->
<g id="edge14" class="edge">
<title>1708&#45;&gt;0</title>
<path fill="none" stroke="#00ff00" stroke-width=".2359" stroke-dasharray="1,5" d="M94.6957,-65.6936C95.6795,-57.4298 96.7762,-48.2178 97.7629,-39.9294"/>
<polygon fill="#00ff00" stroke="#00ff00" stroke-width=".2359" points="101.2712,-40.0666 98.978,-29.7229 94.3203,-39.239 101.2712,-40.0666"/>
</g>
<!-- 1708&#45;&gt;1 -->
<g id="edge15" class="edge">
<title>1708&#45;&gt;1</title>
<path fill="none" stroke="#ff0000" stroke-width=".3905" d="M107.7153,-70.9789C116.8645,-59.823 128.3188,-45.8565 137.5128,-34.6461"/>
<polygon fill="#ff0000" stroke="#ff0000" stroke-width=".3905" points="140.392,-36.6547 144.0272,-26.703 134.9795,-32.2157 140.392,-36.6547"/>
</g>
<!-- 1710&#45;&gt;0 -->
<g id="edge16" class="edge">
<title>1710&#45;&gt;0</title>
<path fill="none" stroke="#00ff00" stroke-width=".1464" d="M143.5099,-70.5847C135.1411,-59.6767 124.7819,-46.1744 116.3558,-35.1917"/>
<polygon fill="#00ff00" stroke="#00ff00" stroke-width=".1464" points="118.9516,-32.8251 110.0876,-27.0216 113.3978,-37.0861 118.9516,-32.8251"/>
</g>
<!-- 1710&#45;&gt;1 -->
<g id="edge17" class="edge">
<title>1710&#45;&gt;1</title>
<path fill="none" stroke="#00ff00" stroke-width=".282" d="M157.1116,-65.6936C156.565,-57.4298 155.9557,-48.2178 155.4075,-39.9294"/>
<polygon fill="#00ff00" stroke="#00ff00" stroke-width=".282" points="158.8849,-39.4701 154.7325,-29.7229 151.9001,-39.9322 158.8849,-39.4701"/>
</g>
<!-- 1711&#45;&gt;0 -->
<g id="edge18" class="edge">
<title>1711&#45;&gt;0</title>
<path fill="none" stroke="#00ff00" stroke-width=".3658" stroke-dasharray="1,5" d="M206.1736,-75.0713C201.8328,-71.8592 197.1982,-68.5769 192.7487,-65.6985 180.2128,-57.5889 146.1174,-39.0727 123.1437,-26.7659"/>
<polygon fill="#00ff00" stroke="#00ff00" stroke-width=".3658" points="124.5435,-23.5456 114.0741,-21.9202 121.2448,-29.7196 124.5435,-23.5456"/>
</g>
<!-- 1711&#45;&gt;1 -->
<g id="edge19" class="edge">
<title>1711&#45;&gt;1</title>
<path fill="none" stroke="#ff0000" stroke-width=".3407" d="M208.3195,-72.1471C197.093,-60.3595 182.5484,-45.0881 171.2982,-33.2757"/>
<polygon fill="#ff0000" stroke="#ff0000" stroke-width=".3407" points="173.5484,-30.5634 164.1173,-25.7359 168.4795,-35.3911 173.5484,-30.5634"/>
</g>
</g>
</svg>
