<?xml version="1.0" encoding="UTF-8" standalone="no"?>
<!DOCTYPE svg PUBLIC "-//W3C//DTD SVG 1.1//EN"
 "http://www.w3.org/Graphics/SVG/1.1/DTD/svg11.dtd">
<!-- Generated by graphviz version 2.40.1 (20161225.0304)
 -->
<!-- Title: %3 Pages: 1 -->
<svg width="651pt" height="177pt"
 viewBox="0.00 0.00 651.00 177.20" xmlns="http://www.w3.org/2000/svg" xmlns:xlink="http://www.w3.org/1999/xlink">
<g id="graph0" class="graph" transform="scale(1 1) rotate(0) translate(4 173.196)">
<title>%3</title>
<polygon fill="#ffffff" stroke="transparent" points="-4,4 -4,-173.196 647,-173.196 647,4 -4,4"/>
<!-- &#45;1 -->
<g id="node1" class="node">
<title>&#45;1</title>
<polygon fill="#d3d3d3" stroke="#000000" points="433,-169.196 409,-169.196 409,-151.196 433,-151.196 433,-169.196"/>
<text text-anchor="middle" x="421" y="-157.996" font-family="Times,serif" font-size="9.00" fill="#000000">&#45;1</text>
</g>
<!-- 1046 -->
<g id="node18" class="node">
<title>1046</title>
<ellipse fill="#ffffff" stroke="#000000" cx="421" cy="-90.4472" rx="25" ry="25"/>
<text text-anchor="middle" x="421" y="-88.2472" font-family="Times,serif" font-size="9.00" fill="#000000">1046</text>
</g>
<!-- &#45;1&#45;&gt;1046 -->
<g id="edge1" class="edge">
<title>&#45;1&#45;&gt;1046</title>
<path fill="none" stroke="#00ff00" stroke-width=".278" stroke-dasharray="1,5" d="M421,-151.0775C421,-144.4608 421,-135.0493 421,-125.6096"/>
<polygon fill="#00ff00" stroke="#00ff00" stroke-width=".278" points="424.5001,-125.4865 421,-115.4865 417.5001,-125.4865 424.5001,-125.4865"/>
</g>
<!-- 1047 -->
<g id="node19" class="node">
<title>1047</title>
<ellipse fill="#ffffff" stroke="#000000" cx="287" cy="-90.4472" rx="25" ry="25"/>
<text text-anchor="middle" x="287" y="-88.2472" font-family="Times,serif" font-size="9.00" fill="#000000">1047</text>
</g>
<!-- &#45;1&#45;&gt;1047 -->
<g id="edge2" class="edge">
<title>&#45;1&#45;&gt;1047</title>
<path fill="none" stroke="#00ff00" stroke-width=".5" d="M408.6775,-154.8904C383.5671,-144.0519 328.1509,-119.9861 320,-115.196 318.2867,-114.1891 316.5571,-113.1097 314.8348,-111.9853"/>
<polygon fill="#00ff00" stroke="#00ff00" stroke-width=".5" points="316.6027,-108.9517 306.3943,-106.1164 312.6065,-114.6989 316.6027,-108.9517"/>
</g>
<!-- 1050 -->
<g id="node20" class="node">
<title>1050</title>
<ellipse fill="#ffffff" stroke="#000000" cx="220" cy="-90.4472" rx="25" ry="25"/>
<text text-anchor="middle" x="220" y="-88.2472" font-family="Times,serif" font-size="9.00" fill="#000000">1050</text>
</g>
<!-- &#45;1&#45;&gt;1050 -->
<g id="edge3" class="edge">
<title>&#45;1&#45;&gt;1050</title>
<path fill="none" stroke="#ff0000" stroke-width=".3979" d="M408.6941,-154.5218C405.8715,-153.3329 402.8591,-152.1515 400,-151.196 336.2044,-129.8754 313.8049,-143.9573 253,-115.196 251.2036,-114.3462 249.4088,-113.3899 247.6365,-112.3601"/>
<polygon fill="#ff0000" stroke="#ff0000" stroke-width=".3979" points="249.3434,-109.2944 239.0581,-106.7518 245.5129,-115.1534 249.3434,-109.2944"/>
</g>
<!-- 1051 -->
<g id="node21" class="node">
<title>1051</title>
<ellipse fill="#ffffff" stroke="#000000" cx="354" cy="-90.4472" rx="25" ry="25"/>
<text text-anchor="middle" x="354" y="-88.2472" font-family="Times,serif" font-size="9.00" fill="#000000">1051</text>
</g>
<!-- &#45;1&#45;&gt;1051 -->
<g id="edge4" class="edge">
<title>&#45;1&#45;&gt;1051</title>
<path fill="none" stroke="#00ff00" stroke-width=".3815" d="M412.2409,-151.0775C403.6636,-142.1483 390.1971,-128.1294 378.373,-115.8201"/>
<polygon fill="#00ff00" stroke="#00ff00" stroke-width=".3815" points="380.7331,-113.2247 371.2814,-108.4376 375.6848,-118.074 380.7331,-113.2247"/>
</g>
<!-- &#45;2 -->
<g id="node2" class="node">
<title>&#45;2</title>
<polygon fill="#d3d3d3" stroke="#000000" points="643,-169.196 619,-169.196 619,-151.196 643,-151.196 643,-169.196"/>
<text text-anchor="middle" x="631" y="-157.996" font-family="Times,serif" font-size="9.00" fill="#000000">&#45;2</text>
</g>
<!-- 1 -->
<g id="node17" class="node">
<title>1</title>
<ellipse fill="#add8e6" stroke="#000000" cx="354" cy="-14.8492" rx="14.7" ry="14.7"/>
<text text-anchor="middle" x="354" y="-12.6492" font-family="Times,serif" font-size="9.00" fill="#000000">1</text>
</g>
<!-- &#45;2&#45;&gt;1 -->
<g id="edge67" class="edge">
<title>&#45;2&#45;&gt;1</title>
<path fill="none" stroke="#00ff00" stroke-width=".2442" stroke-dasharray="1,5" d="M618.6833,-153.4387C590.073,-137.7739 516.8455,-97.8627 455,-65.6985 428.2078,-51.7646 397.1459,-36.2161 376.6194,-26.0244"/>
<polygon fill="#00ff00" stroke="#00ff00" stroke-width=".2442" points="377.9682,-22.7867 367.454,-21.4822 374.8598,-29.0587 377.9682,-22.7867"/>
</g>
<!-- &#45;2&#45;&gt;1046 -->
<g id="edge5" class="edge">
<title>&#45;2&#45;&gt;1046</title>
<path fill="none" stroke="#ff0000" stroke-width=".2617" d="M618.6413,-154.6711C615.8214,-153.4744 612.8235,-152.2521 610,-151.196 556.4445,-131.1632 492.9273,-111.5821 454.852,-100.2806"/>
<polygon fill="#ff0000" stroke="#ff0000" stroke-width=".2617" points="455.3986,-96.7927 444.8169,-97.319 453.4172,-103.5064 455.3986,-96.7927"/>
</g>
<!-- &#45;2&#45;&gt;1047 -->
<g id="edge6" class="edge">
<title>&#45;2&#45;&gt;1047</title>
<path fill="none" stroke="#ff0000" stroke-width=".3517" d="M618.7695,-154.2722C615.943,-153.0962 612.91,-151.9832 610,-151.196 484.6283,-117.2801 440.4444,-163.7913 320,-115.196 318.1073,-114.4323 316.227,-113.532 314.3798,-112.5348"/>
<polygon fill="#ff0000" stroke="#ff0000" stroke-width=".3517" points="315.8378,-109.3156 305.5157,-106.9271 312.0953,-115.2312 315.8378,-109.3156"/>
</g>
<!-- &#45;2&#45;&gt;1051 -->
<g id="edge7" class="edge">
<title>&#45;2&#45;&gt;1051</title>
<path fill="none" stroke="#ff0000" stroke-width=".2994" d="M618.7474,-154.3509C615.9221,-153.1708 612.8951,-152.0362 610,-151.196 513.5844,-123.2129 479.4001,-154.4545 387,-115.196 385.171,-114.4189 383.3507,-113.5194 381.5588,-112.5333"/>
<polygon fill="#ff0000" stroke="#ff0000" stroke-width=".2994" points="383.2432,-109.4567 372.9264,-107.0455 379.4877,-115.3641 383.2432,-109.4567"/>
</g>
<!-- &#45;3 -->
<g id="node3" class="node">
<title>&#45;3</title>
<polygon fill="#d3d3d3" stroke="#000000" points="475,-169.196 451,-169.196 451,-151.196 475,-151.196 475,-169.196"/>
<text text-anchor="middle" x="463" y="-157.996" font-family="Times,serif" font-size="9.00" fill="#000000">&#45;3</text>
</g>
<!-- &#45;3&#45;&gt;1046 -->
<g id="edge8" class="edge">
<title>&#45;3&#45;&gt;1046</title>
<path fill="none" stroke="#ff0000" stroke-width=".3682" d="M457.5092,-151.0775C452.8071,-143.2688 445.7611,-131.5676 439.1095,-120.5213"/>
<polygon fill="#ff0000" stroke="#ff0000" stroke-width=".3682" points="442.0688,-118.651 433.9119,-111.8898 436.0721,-122.262 442.0688,-118.651"/>
</g>
<!-- &#45;3&#45;&gt;1047 -->
<g id="edge9" class="edge">
<title>&#45;3&#45;&gt;1047</title>
<path fill="none" stroke="#00ff00" stroke-width=".1741" d="M450.6598,-154.6206C447.839,-153.4265 444.836,-152.2181 442,-151.196 388.8151,-132.0278 370.5257,-140.5574 320,-115.196 318.2239,-114.3045 316.4451,-113.3154 314.6851,-112.2605"/>
<polygon fill="#00ff00" stroke="#00ff00" stroke-width=".1741" points="316.4065,-109.2021 306.1405,-106.5829 312.5324,-115.0324 316.4065,-109.2021"/>
</g>
<!-- &#45;3&#45;&gt;1050 -->
<g id="edge10" class="edge">
<title>&#45;3&#45;&gt;1050</title>
<path fill="none" stroke="#ff0000" stroke-width=".3594" d="M450.7295,-154.4112C447.905,-153.228 444.883,-152.0769 442,-151.196 360.2224,-126.2074 331.2225,-149.7393 253,-115.196 251.1821,-114.3932 249.3706,-113.4736 247.5854,-112.4721"/>
<polygon fill="#ff0000" stroke="#ff0000" stroke-width=".3594" points="249.2773,-109.3991 238.9714,-106.9416 245.4954,-115.2896 249.2773,-109.3991"/>
</g>
<!-- &#45;3&#45;&gt;1051 -->
<g id="edge11" class="edge">
<title>&#45;3&#45;&gt;1051</title>
<path fill="none" stroke="#00ff00" stroke-width=".4327" d="M450.9052,-153.5733C435.6989,-145.1254 408.9296,-129.8485 387,-115.196 385.3476,-114.0919 383.6657,-112.9364 381.9801,-111.7536"/>
<polygon fill="#00ff00" stroke="#00ff00" stroke-width=".4327" points="383.795,-108.7468 373.6407,-105.7235 379.6934,-114.4193 383.795,-108.7468"/>
</g>
<!-- &#45;4 -->
<g id="node4" class="node">
<title>&#45;4</title>
<polygon fill="#d3d3d3" stroke="#000000" points="517,-169.196 493,-169.196 493,-151.196 517,-151.196 517,-169.196"/>
<text text-anchor="middle" x="505" y="-157.996" font-family="Times,serif" font-size="9.00" fill="#000000">&#45;4</text>
</g>
<!-- &#45;4&#45;&gt;1046 -->
<g id="edge12" class="edge">
<title>&#45;4&#45;&gt;1046</title>
<path fill="none" stroke="#ff0000" stroke-width=".5" d="M494.0185,-151.0775C482.4303,-141.4554 463.7241,-125.9229 448.1469,-112.9884"/>
<polygon fill="#ff0000" stroke="#ff0000" stroke-width=".5" points="450.2699,-110.202 440.3405,-106.5064 445.7981,-115.5875 450.2699,-110.202"/>
</g>
<!-- &#45;4&#45;&gt;1047 -->
<g id="edge13" class="edge">
<title>&#45;4&#45;&gt;1047</title>
<path fill="none" stroke="#00ff00" stroke-width=".41" d="M492.7109,-154.4706C489.8874,-153.2844 486.8704,-152.117 484,-151.196 412.9439,-128.3965 387.8378,-146.2898 320,-115.196 318.1935,-114.3679 316.3908,-113.4286 314.6124,-112.4118"/>
<polygon fill="#00ff00" stroke="#00ff00" stroke-width=".41" points="316.3122,-109.3427 306.0173,-106.8395 312.5043,-115.2163 316.3122,-109.3427"/>
</g>
<!-- &#45;4&#45;&gt;1050 -->
<g id="edge14" class="edge">
<title>&#45;4&#45;&gt;1050</title>
<path fill="none" stroke="#00ff00" stroke-width=".2911" stroke-dasharray="1,5" d="M492.7508,-154.3391C489.9253,-153.1597 486.8974,-152.0283 484,-151.196 384.1333,-122.5063 348.7426,-155.5668 253,-115.196 251.1689,-114.4238 249.347,-113.5283 247.5538,-112.5452"/>
<polygon fill="#00ff00" stroke="#00ff00" stroke-width=".2911" points="249.2367,-109.468 238.9178,-107.0657 245.4864,-115.3786 249.2367,-109.468"/>
</g>
<!-- &#45;4&#45;&gt;1051 -->
<g id="edge15" class="edge">
<title>&#45;4&#45;&gt;1051</title>
<path fill="none" stroke="#00ff00" stroke-width=".1438" d="M492.6055,-154.7636C489.7875,-153.5621 486.7994,-152.3145 484,-151.196 441.2982,-134.1337 427.3678,-137.2189 387,-115.196 385.2555,-114.2442 383.5014,-113.208 381.7603,-112.1168"/>
<polygon fill="#00ff00" stroke="#00ff00" stroke-width=".1438" points="383.5048,-109.0705 373.268,-106.3393 379.5673,-114.8581 383.5048,-109.0705"/>
</g>
<!-- &#45;5 -->
<g id="node5" class="node">
<title>&#45;5</title>
<polygon fill="#d3d3d3" stroke="#000000" points="559,-169.196 535,-169.196 535,-151.196 559,-151.196 559,-169.196"/>
<text text-anchor="middle" x="547" y="-157.996" font-family="Times,serif" font-size="9.00" fill="#000000">&#45;5</text>
</g>
<!-- &#45;5&#45;&gt;1046 -->
<g id="edge16" class="edge">
<title>&#45;5&#45;&gt;1046</title>
<path fill="none" stroke="#ff0000" stroke-width=".3392" d="M534.9186,-153.5082C515.9646,-143.0159 478.6445,-122.357 451.8813,-107.5419"/>
<polygon fill="#ff0000" stroke="#ff0000" stroke-width=".3392" points="453.3466,-104.3526 442.9025,-102.5716 449.9564,-110.4769 453.3466,-104.3526"/>
</g>
<!-- &#45;5&#45;&gt;1047 -->
<g id="edge17" class="edge">
<title>&#45;5&#45;&gt;1047</title>
<path fill="none" stroke="#00ff00" stroke-width=".3507" d="M534.7393,-154.3786C531.9143,-153.1971 528.8896,-152.055 526,-151.196 436.91,-124.7121 405.305,-152.0942 320,-115.196 318.176,-114.407 316.3598,-113.4983 314.5709,-112.5051"/>
<polygon fill="#00ff00" stroke="#00ff00" stroke-width=".3507" points="316.2587,-109.4301 305.9469,-106.9976 312.4911,-115.3297 316.2587,-109.4301"/>
</g>
<!-- &#45;5&#45;&gt;1050 -->
<g id="edge18" class="edge">
<title>&#45;5&#45;&gt;1050</title>
<path fill="none" stroke="#00ff00" stroke-width=".1813" d="M534.765,-154.2886C531.9387,-153.1117 528.907,-151.9942 526,-151.196 407.9851,-118.7881 366.3193,-161.4184 253,-115.196 251.1102,-114.4251 249.2322,-113.5192 247.3867,-112.5178"/>
<polygon fill="#00ff00" stroke="#00ff00" stroke-width=".1813" points="248.8465,-109.2991 238.5272,-106.8986 245.0973,-115.2104 248.8465,-109.2991"/>
</g>
<!-- &#45;5&#45;&gt;1051 -->
<g id="edge19" class="edge">
<title>&#45;5&#45;&gt;1051</title>
<path fill="none" stroke="#00ff00" stroke-width=".4583" d="M534.6846,-154.5499C531.8625,-153.3595 528.8527,-152.1704 526,-151.196 465.6099,-130.5676 444.506,-142.8647 387,-115.196 385.2092,-114.3343 383.4189,-113.3687 381.6501,-112.3318"/>
<polygon fill="#00ff00" stroke="#00ff00" stroke-width=".4583" points="383.3609,-109.268 373.0811,-106.7038 379.5181,-115.119 383.3609,-109.268"/>
</g>
<!-- &#45;6 -->
<g id="node6" class="node">
<title>&#45;6</title>
<polygon fill="#d3d3d3" stroke="#000000" points="24,-169.196 0,-169.196 0,-151.196 24,-151.196 24,-169.196"/>
<text text-anchor="middle" x="12" y="-157.996" font-family="Times,serif" font-size="9.00" fill="#000000">&#45;6</text>
</g>
<!-- &#45;6&#45;&gt;1046 -->
<g id="edge20" class="edge">
<title>&#45;6&#45;&gt;1046</title>
<path fill="none" stroke="#00ff00" stroke-width=".4319" d="M24.2177,-154.2237C27.0449,-153.0502 30.0814,-151.9505 33,-151.196 186.5394,-111.5036 240.2756,-172.8789 388,-115.196 389.9012,-114.4536 391.7881,-113.5698 393.6402,-112.5852"/>
<polygon fill="#00ff00" stroke="#00ff00" stroke-width=".4319" points="395.9098,-115.293 402.5178,-107.0113 392.1876,-109.3646 395.9098,-115.293"/>
</g>
<!-- &#45;6&#45;&gt;1047 -->
<g id="edge21" class="edge">
<title>&#45;6&#45;&gt;1047</title>
<path fill="none" stroke="#ff0000" stroke-width=".4258" d="M24.2534,-154.3539C27.0788,-153.1737 30.1055,-152.0383 33,-151.196 128.5531,-123.3895 162.4352,-154.1766 254,-115.196 255.8285,-114.4175 257.6483,-113.5171 259.4399,-112.5302"/>
<polygon fill="#ff0000" stroke="#ff0000" stroke-width=".4258" points="261.5119,-115.3603 268.0714,-107.0402 257.7551,-109.4538 261.5119,-115.3603"/>
</g>
<!-- &#45;6&#45;&gt;1050 -->
<g id="edge22" class="edge">
<title>&#45;6&#45;&gt;1050</title>
<path fill="none" stroke="#ff0000" stroke-width=".3353" d="M24.3612,-154.6776C27.1809,-153.4806 30.1781,-152.2565 33,-151.196 85.8652,-131.3276 148.5034,-111.7673 186.2027,-100.4151"/>
<polygon fill="#ff0000" stroke="#ff0000" stroke-width=".3353" points="187.5701,-103.6593 196.1456,-97.4375 185.5619,-96.9535 187.5701,-103.6593"/>
</g>
<!-- &#45;6&#45;&gt;1051 -->
<g id="edge23" class="edge">
<title>&#45;6&#45;&gt;1051</title>
<path fill="none" stroke="#00ff00" stroke-width=".5" d="M24.231,-154.274C27.0575,-153.0979 30.0904,-151.9844 33,-151.196 157.5059,-117.4576 201.3941,-163.512 321,-115.196 322.8924,-114.4315 324.7725,-113.5305 326.6194,-112.5329"/>
<polygon fill="#00ff00" stroke="#00ff00" stroke-width=".5" points="328.9045,-115.2289 335.4831,-106.9239 325.1613,-109.3137 328.9045,-115.2289"/>
</g>
<!-- &#45;7 -->
<g id="node7" class="node">
<title>&#45;7</title>
<polygon fill="#d3d3d3" stroke="#000000" points="66,-169.196 42,-169.196 42,-151.196 66,-151.196 66,-169.196"/>
<text text-anchor="middle" x="54" y="-157.996" font-family="Times,serif" font-size="9.00" fill="#000000">&#45;7</text>
</g>
<!-- &#45;7&#45;&gt;1046 -->
<g id="edge24" class="edge">
<title>&#45;7&#45;&gt;1046</title>
<path fill="none" stroke="#ff0000" stroke-width=".1517" d="M66.2253,-154.2528C69.0521,-153.0778 72.0865,-151.9701 75,-151.196 210.3326,-115.2377 257.9086,-167.0045 388,-115.196 389.8961,-114.4408 391.7791,-113.5471 393.6283,-112.555"/>
<polygon fill="#ff0000" stroke="#ff0000" stroke-width=".1517" points="395.9068,-115.2559 402.4979,-106.9608 392.1725,-109.3352 395.9068,-115.2559"/>
</g>
<!-- &#45;7&#45;&gt;1047 -->
<g id="edge25" class="edge">
<title>&#45;7&#45;&gt;1047</title>
<path fill="none" stroke="#00ff00" stroke-width=".1856" d="M66.2773,-154.4331C69.1014,-153.2488 72.1216,-152.0917 75,-151.196 152.4838,-127.0847 179.9364,-148.3572 254,-115.196 255.8138,-114.3839 257.6221,-113.457 259.4048,-112.4499"/>
<polygon fill="#00ff00" stroke="#00ff00" stroke-width=".1856" points="261.5015,-115.2626 268.0119,-106.904 257.71,-109.3782 261.5015,-115.2626"/>
</g>
<!-- &#45;7&#45;&gt;1050 -->
<g id="edge26" class="edge">
<title>&#45;7&#45;&gt;1050</title>
<path fill="none" stroke="#00ff00" stroke-width=".2103" d="M66.4297,-154.8491C69.2459,-153.6432 72.2244,-152.3722 75,-151.196 113.7215,-134.7875 158.3595,-116.124 187.7646,-103.8641"/>
<polygon fill="#00ff00" stroke="#00ff00" stroke-width=".2103" points="189.238,-107.0419 197.1222,-99.9644 186.5453,-100.5805 189.238,-107.0419"/>
</g>
<!-- &#45;7&#45;&gt;1051 -->
<g id="edge27" class="edge">
<title>&#45;7&#45;&gt;1051</title>
<path fill="none" stroke="#ff0000" stroke-width=".3914" d="M66.2435,-154.3192C69.0693,-153.1407 72.0988,-152.0149 75,-151.196 181.3429,-121.1799 218.9851,-157.6546 321,-115.196 322.8843,-114.4117 324.758,-113.4954 326.6002,-112.486"/>
<polygon fill="#ff0000" stroke="#ff0000" stroke-width=".3914" points="328.8988,-115.1715 335.451,-106.8457 325.1368,-109.2683 328.8988,-115.1715"/>
</g>
<!-- &#45;8 -->
<g id="node8" class="node">
<title>&#45;8</title>
<polygon fill="#d3d3d3" stroke="#000000" points="601,-169.196 577,-169.196 577,-151.196 601,-151.196 601,-169.196"/>
<text text-anchor="middle" x="589" y="-157.996" font-family="Times,serif" font-size="9.00" fill="#000000">&#45;8</text>
</g>
<!-- &#45;8&#45;&gt;1046 -->
<g id="edge28" class="edge">
<title>&#45;8&#45;&gt;1046</title>
<path fill="none" stroke="#00ff00" stroke-width=".1102" d="M576.5745,-154.8391C573.7581,-153.6337 570.7785,-152.3654 568,-151.196 528.6692,-134.6419 483.2579,-115.9376 453.4382,-103.711"/>
<polygon fill="#00ff00" stroke="#00ff00" stroke-width=".1102" points="454.5349,-100.378 443.9545,-99.8253 451.8809,-106.8554 454.5349,-100.378"/>
</g>
<!-- &#45;8&#45;&gt;1047 -->
<g id="edge29" class="edge">
<title>&#45;8&#45;&gt;1047</title>
<path fill="none" stroke="#00ff00" stroke-width=".2268" d="M576.7572,-154.3167C573.9313,-153.1384 570.9017,-152.0132 568,-151.196 460.7931,-121.0029 422.8517,-157.9331 320,-115.196 318.1153,-114.4128 316.2412,-113.4973 314.3987,-112.4886"/>
<polygon fill="#00ff00" stroke="#00ff00" stroke-width=".2268" points="315.8618,-109.2708 305.5472,-106.85 312.1008,-115.1747 315.8618,-109.2708"/>
</g>
<!-- &#45;8&#45;&gt;1051 -->
<g id="edge30" class="edge">
<title>&#45;8&#45;&gt;1051</title>
<path fill="none" stroke="#00ff00" stroke-width=".4831" stroke-dasharray="1,5" d="M576.7241,-154.4285C573.9,-153.2444 570.8794,-152.0886 568,-151.196 489.658,-126.9094 461.8949,-148.6334 387,-115.196 385.1854,-114.3858 383.3764,-113.4605 381.5932,-112.4545"/>
<polygon fill="#00ff00" stroke="#00ff00" stroke-width=".4831" points="383.2873,-109.3826 372.9846,-106.9119 379.4978,-115.2682 383.2873,-109.3826"/>
</g>
<!-- &#45;9 -->
<g id="node9" class="node">
<title>&#45;9</title>
<polygon fill="#d3d3d3" stroke="#000000" points="108,-169.196 84,-169.196 84,-151.196 108,-151.196 108,-169.196"/>
<text text-anchor="middle" x="96" y="-157.996" font-family="Times,serif" font-size="9.00" fill="#000000">&#45;9</text>
</g>
<!-- &#45;9&#45;&gt;1046 -->
<g id="edge31" class="edge">
<title>&#45;9&#45;&gt;1046</title>
<path fill="none" stroke="#ff0000" stroke-width=".4402" d="M108.2355,-154.2907C111.0618,-153.1137 114.0934,-151.9956 117,-151.196 234.1497,-118.9655 275.5186,-161.1394 388,-115.196 389.8894,-114.4242 391.7672,-113.5176 393.6124,-112.5156"/>
<polygon fill="#ff0000" stroke="#ff0000" stroke-width=".4402" points="395.9025,-115.2077 402.4713,-106.8951 392.1524,-109.297 395.9025,-115.2077"/>
</g>
<!-- &#45;9&#45;&gt;1047 -->
<g id="edge32" class="edge">
<title>&#45;9&#45;&gt;1047</title>
<path fill="none" stroke="#ff0000" stroke-width=".3213" d="M108.318,-154.5574C111.1399,-153.3666 114.149,-152.1755 117,-151.196 176.5401,-130.7402 197.3175,-142.5921 254,-115.196 255.7892,-114.3312 257.5783,-113.3631 259.3463,-112.3242"/>
<polygon fill="#ff0000" stroke="#ff0000" stroke-width=".3213" points="261.4805,-115.1098 267.9128,-106.691 257.6344,-109.261 261.4805,-115.1098"/>
</g>
<!-- &#45;9&#45;&gt;1050 -->
<g id="edge33" class="edge">
<title>&#45;9&#45;&gt;1050</title>
<path fill="none" stroke="#00ff00" stroke-width=".2722" d="M108.3429,-153.2532C127.0837,-142.7117 163.2934,-122.3441 189.4049,-107.6567"/>
<polygon fill="#00ff00" stroke="#00ff00" stroke-width=".2722" points="191.1746,-110.6769 198.1745,-102.7238 187.7428,-104.5759 191.1746,-110.6769"/>
</g>
<!-- &#45;9&#45;&gt;1051 -->
<g id="edge34" class="edge">
<title>&#45;9&#45;&gt;1051</title>
<path fill="none" stroke="#00ff00" stroke-width=".5" d="M108.2618,-154.3822C111.0867,-153.2005 114.1111,-152.0574 117,-151.196 205.229,-124.8883 236.5289,-151.8168 321,-115.196 322.8233,-114.4055 324.6391,-113.4956 326.4275,-112.5015"/>
<polygon fill="#00ff00" stroke="#00ff00" stroke-width=".5" points="328.5085,-115.3253 335.0505,-106.9915 324.7393,-109.4267 328.5085,-115.3253"/>
</g>
<!-- &#45;10 -->
<g id="node10" class="node">
<title>&#45;10</title>
<polygon fill="#d3d3d3" stroke="#000000" points="155.5,-169.196 126.5,-169.196 126.5,-151.196 155.5,-151.196 155.5,-169.196"/>
<text text-anchor="middle" x="141" y="-157.996" font-family="Times,serif" font-size="9.00" fill="#000000">&#45;10</text>
</g>
<!-- &#45;10&#45;&gt;1046 -->
<g id="edge35" class="edge">
<title>&#45;10&#45;&gt;1046</title>
<path fill="none" stroke="#ff0000" stroke-width=".4101" d="M155.9384,-153.8203C158.5911,-152.8412 161.3524,-151.9178 164,-151.196 261.2823,-124.673 295.1822,-154.5935 388,-115.196 389.8293,-114.4195 391.6498,-113.5206 393.4418,-112.5348"/>
<polygon fill="#ff0000" stroke="#ff0000" stroke-width=".4101" points="395.5124,-115.366 402.0747,-107.0481 391.7576,-109.4582 395.5124,-115.366"/>
</g>
<!-- &#45;10&#45;&gt;1047 -->
<g id="edge36" class="edge">
<title>&#45;10&#45;&gt;1047</title>
<path fill="none" stroke="#ff0000" stroke-width=".4337" d="M155.8784,-154.3298C186.0387,-142.4303 251.7325,-116.468 254,-115.196 255.7332,-114.2237 257.4784,-113.1714 259.2126,-112.0679"/>
<polygon fill="#ff0000" stroke="#ff0000" stroke-width=".4337" points="261.4189,-114.7988 267.6861,-106.2564 257.4597,-109.026 261.4189,-114.7988"/>
</g>
<!-- &#45;10&#45;&gt;1050 -->
<g id="edge37" class="edge">
<title>&#45;10&#45;&gt;1050</title>
<path fill="none" stroke="#ff0000" stroke-width=".4137" d="M151.3279,-151.0775C161.9851,-141.6683 179.0437,-126.6073 193.4923,-113.8507"/>
<polygon fill="#ff0000" stroke="#ff0000" stroke-width=".4137" points="196.0137,-116.2936 201.1936,-107.0513 191.3807,-111.0461 196.0137,-116.2936"/>
</g>
<!-- &#45;10&#45;&gt;1051 -->
<g id="edge38" class="edge">
<title>&#45;10&#45;&gt;1051</title>
<path fill="none" stroke="#00ff00" stroke-width=".1785" stroke-dasharray="1,5" d="M155.9811,-153.9672C158.629,-152.9718 161.3777,-152.0048 164,-151.196 232.4083,-130.0951 256.0615,-145.3278 321,-115.196 322.8027,-114.3595 324.6023,-113.4136 326.3783,-112.3918"/>
<polygon fill="#00ff00" stroke="#00ff00" stroke-width=".1785" points="328.4925,-115.1919 334.967,-106.8056 324.6758,-109.3239 328.4925,-115.1919"/>
</g>
<!-- &#45;11 -->
<g id="node11" class="node">
<title>&#45;11</title>
<polygon fill="#d3d3d3" stroke="#000000" points="202.5,-169.196 173.5,-169.196 173.5,-151.196 202.5,-151.196 202.5,-169.196"/>
<text text-anchor="middle" x="188" y="-157.996" font-family="Times,serif" font-size="9.00" fill="#000000">&#45;11</text>
</g>
<!-- &#45;11&#45;&gt;1046 -->
<g id="edge39" class="edge">
<title>&#45;11&#45;&gt;1046</title>
<path fill="none" stroke="#00ff00" stroke-width=".5" d="M202.9645,-153.9123C205.6143,-152.923 208.3679,-151.9723 211,-151.196 287.9978,-128.4852 314.7674,-148.0811 388,-115.196 389.8129,-114.3819 391.6205,-113.4535 393.4027,-112.4451"/>
<polygon fill="#00ff00" stroke="#00ff00" stroke-width=".5" points="395.5008,-115.2568 402.0083,-106.896 391.7073,-109.3738 395.5008,-115.2568"/>
</g>
<!-- &#45;11&#45;&gt;1047 -->
<g id="edge40" class="edge">
<title>&#45;11&#45;&gt;1047</title>
<path fill="none" stroke="#00ff00" stroke-width=".1336" d="M201.7759,-151.066C215.2147,-142.0979 236.1785,-127.9444 254,-115.196 255.6163,-114.0398 257.2699,-112.8434 258.9339,-111.6292"/>
<polygon fill="#00ff00" stroke="#00ff00" stroke-width=".1336" points="261.2499,-114.2697 267.2135,-105.5126 257.0906,-108.6395 261.2499,-114.2697"/>
</g>
<!-- &#45;11&#45;&gt;1050 -->
<g id="edge41" class="edge">
<title>&#45;11&#45;&gt;1050</title>
<path fill="none" stroke="#00ff00" stroke-width=".5" d="M192.1834,-151.0775C195.5558,-143.7269 200.5107,-132.9271 205.3077,-122.4713"/>
<polygon fill="#00ff00" stroke="#00ff00" stroke-width=".5" points="208.63,-123.6232 209.6188,-113.0746 202.2676,-120.7041 208.63,-123.6232"/>
</g>
<!-- &#45;11&#45;&gt;1051 -->
<g id="edge42" class="edge">
<title>&#45;11&#45;&gt;1051</title>
<path fill="none" stroke="#00ff00" stroke-width=".2067" d="M202.5536,-154.3575C205.3465,-153.2778 208.2557,-152.1811 211,-151.196 259.4157,-133.8165 275.3697,-138.9447 321,-115.196 322.7628,-114.2785 324.5312,-113.2691 326.2833,-112.1986"/>
<polygon fill="#00ff00" stroke="#00ff00" stroke-width=".2067" points="328.4535,-114.9572 334.8059,-106.4779 324.5522,-109.1451 328.4535,-114.9572"/>
</g>
<!-- &#45;12 -->
<g id="node12" class="node">
<title>&#45;12</title>
<polygon fill="#d3d3d3" stroke="#000000" points="249.5,-169.196 220.5,-169.196 220.5,-151.196 249.5,-151.196 249.5,-169.196"/>
<text text-anchor="middle" x="235" y="-157.996" font-family="Times,serif" font-size="9.00" fill="#000000">&#45;12</text>
</g>
<!-- &#45;12&#45;&gt;1046 -->
<g id="edge43" class="edge">
<title>&#45;12&#45;&gt;1046</title>
<path fill="none" stroke="#00ff00" stroke-width=".3948" d="M249.5181,-154.2546C252.3142,-153.1845 255.2337,-152.1175 258,-151.196 314.8791,-132.2476 334.1951,-141.6404 388,-115.196 389.7835,-114.3194 391.5681,-113.3421 393.3326,-112.2961"/>
<polygon fill="#00ff00" stroke="#00ff00" stroke-width=".3948" points="395.475,-115.0756 401.8895,-106.6433 391.6166,-109.235 395.475,-115.0756"/>
</g>
<!-- &#45;12&#45;&gt;1047 -->
<g id="edge44" class="edge">
<title>&#45;12&#45;&gt;1047</title>
<path fill="none" stroke="#00ff00" stroke-width=".3688" d="M241.7981,-151.0775C247.9566,-142.817 257.3625,-130.2006 266.0026,-118.6116"/>
<polygon fill="#00ff00" stroke="#00ff00" stroke-width=".3688" points="268.93,-120.5407 272.1011,-110.4315 263.318,-116.3567 268.93,-120.5407"/>
</g>
<!-- &#45;12&#45;&gt;1050 -->
<g id="edge45" class="edge">
<title>&#45;12&#45;&gt;1050</title>
<path fill="none" stroke="#00ff00" stroke-width=".1192" d="M233.039,-151.0775C231.5773,-144.2808 229.4814,-134.5351 227.3963,-124.8392"/>
<polygon fill="#00ff00" stroke="#00ff00" stroke-width=".1192" points="230.7785,-123.9193 225.2542,-114.8787 223.935,-125.3911 230.7785,-123.9193"/>
</g>
<!-- &#45;12&#45;&gt;1051 -->
<g id="edge46" class="edge">
<title>&#45;12&#45;&gt;1051</title>
<path fill="none" stroke="#ff0000" stroke-width=".2091" d="M249.701,-153.4013C267.1496,-145.1345 296.9138,-130.3902 321,-115.196 322.6808,-114.1357 324.3849,-113.0145 326.0876,-111.858"/>
<polygon fill="#ff0000" stroke="#ff0000" stroke-width=".2091" points="328.3487,-114.5451 334.4742,-105.9005 324.2948,-108.8383 328.3487,-114.5451"/>
</g>
<!-- &#45;13 -->
<g id="node13" class="node">
<title>&#45;13</title>
<polygon fill="#d3d3d3" stroke="#000000" points="296.5,-169.196 267.5,-169.196 267.5,-151.196 296.5,-151.196 296.5,-169.196"/>
<text text-anchor="middle" x="282" y="-157.996" font-family="Times,serif" font-size="9.00" fill="#000000">&#45;13</text>
</g>
<!-- &#45;13&#45;&gt;1046 -->
<g id="edge47" class="edge">
<title>&#45;13&#45;&gt;1046</title>
<path fill="none" stroke="#ff0000" stroke-width=".4591" d="M296.6171,-154.4997C321.6538,-144.6586 371.6277,-124.624 388,-115.196 389.7221,-114.2043 391.4587,-113.1368 393.1863,-112.0215"/>
<polygon fill="#ff0000" stroke="#ff0000" stroke-width=".4591" points="395.405,-114.7427 401.6414,-106.1778 391.425,-108.9842 395.405,-114.7427"/>
</g>
<!-- &#45;13&#45;&gt;1047 -->
<g id="edge48" class="edge">
<title>&#45;13&#45;&gt;1047</title>
<path fill="none" stroke="#00ff00" stroke-width=".1197" stroke-dasharray="1,5" d="M282.6537,-151.0775C283.1319,-144.4066 283.8137,-134.8948 284.496,-125.3775"/>
<polygon fill="#00ff00" stroke="#00ff00" stroke-width=".1197" points="288.0028,-125.4069 285.2269,-115.1822 281.0207,-124.9063 288.0028,-125.4069"/>
</g>
<!-- &#45;13&#45;&gt;1050 -->
<g id="edge49" class="edge">
<title>&#45;13&#45;&gt;1050</title>
<path fill="none" stroke="#ff0000" stroke-width=".4308" d="M273.8946,-151.0775C266.1399,-142.3537 254.0668,-128.7717 243.3115,-116.6722"/>
<polygon fill="#ff0000" stroke="#ff0000" stroke-width=".4308" points="245.7524,-114.15 236.4927,-109.0012 240.5206,-118.8006 245.7524,-114.15"/>
</g>
<!-- &#45;13&#45;&gt;1051 -->
<g id="edge50" class="edge">
<title>&#45;13&#45;&gt;1051</title>
<path fill="none" stroke="#00ff00" stroke-width=".4129" d="M291.4127,-151.0775C300.8446,-141.9406 315.7777,-127.4744 328.6919,-114.964"/>
<polygon fill="#00ff00" stroke="#00ff00" stroke-width=".4129" points="331.2583,-117.3509 336.0055,-107.8791 326.3877,-112.3231 331.2583,-117.3509"/>
</g>
<!-- &#45;14 -->
<g id="node14" class="node">
<title>&#45;14</title>
<polygon fill="#d3d3d3" stroke="#000000" points="343.5,-169.196 314.5,-169.196 314.5,-151.196 343.5,-151.196 343.5,-169.196"/>
<text text-anchor="middle" x="329" y="-157.996" font-family="Times,serif" font-size="9.00" fill="#000000">&#45;14</text>
</g>
<!-- &#45;14&#45;&gt;1046 -->
<g id="edge51" class="edge">
<title>&#45;14&#45;&gt;1046</title>
<path fill="none" stroke="#00ff00" stroke-width=".2654" d="M341.0274,-151.0775C354.1705,-141.1132 375.6737,-124.8108 393.0741,-111.6189"/>
<polygon fill="#00ff00" stroke="#00ff00" stroke-width=".2654" points="395.3776,-114.2647 401.2319,-105.4342 391.1486,-108.6866 395.3776,-114.2647"/>
</g>
<!-- &#45;14&#45;&gt;1047 -->
<g id="edge52" class="edge">
<title>&#45;14&#45;&gt;1047</title>
<path fill="none" stroke="#00ff00" stroke-width=".3931" d="M323.5092,-151.0775C318.8071,-143.2688 311.7611,-131.5676 305.1095,-120.5213"/>
<polygon fill="#00ff00" stroke="#00ff00" stroke-width=".3931" points="308.0688,-118.651 299.9119,-111.8898 302.0721,-122.262 308.0688,-118.651"/>
</g>
<!-- &#45;14&#45;&gt;1050 -->
<g id="edge53" class="edge">
<title>&#45;14&#45;&gt;1050</title>
<path fill="none" stroke="#00ff00" stroke-width=".125" d="M314.4256,-152.1921C298.9107,-143.5283 273.7821,-129.0818 253,-115.196 251.3476,-114.0919 249.6657,-112.9364 247.9801,-111.7536"/>
<polygon fill="#00ff00" stroke="#00ff00" stroke-width=".125" points="249.795,-108.7468 239.6407,-105.7235 245.6934,-114.4193 249.795,-108.7468"/>
</g>
<!-- &#45;14&#45;&gt;1051 -->
<g id="edge54" class="edge">
<title>&#45;14&#45;&gt;1051</title>
<path fill="none" stroke="#00ff00" stroke-width=".3037" d="M332.2683,-151.0775C334.8159,-143.9698 338.5195,-133.6371 342.1497,-123.5089"/>
<polygon fill="#00ff00" stroke="#00ff00" stroke-width=".3037" points="345.4883,-124.5674 345.5677,-113.9728 338.8988,-122.2055 345.4883,-124.5674"/>
</g>
<!-- &#45;15 -->
<g id="node15" class="node">
<title>&#45;15</title>
<polygon fill="#d3d3d3" stroke="#000000" points="390.5,-169.196 361.5,-169.196 361.5,-151.196 390.5,-151.196 390.5,-169.196"/>
<text text-anchor="middle" x="376" y="-157.996" font-family="Times,serif" font-size="9.00" fill="#000000">&#45;15</text>
</g>
<!-- &#45;15&#45;&gt;1046 -->
<g id="edge55" class="edge">
<title>&#45;15&#45;&gt;1046</title>
<path fill="none" stroke="#ff0000" stroke-width=".2018" d="M381.883,-151.0775C386.9961,-143.1522 394.6962,-131.2174 401.9158,-120.0272"/>
<polygon fill="#ff0000" stroke="#ff0000" stroke-width=".2018" points="405.0639,-121.6037 407.5442,-111.3033 399.1818,-117.8087 405.0639,-121.6037"/>
</g>
<!-- &#45;15&#45;&gt;1047 -->
<g id="edge56" class="edge">
<title>&#45;15&#45;&gt;1047</title>
<path fill="none" stroke="#ff0000" stroke-width=".4535" d="M364.3648,-151.0775C351.9263,-141.3296 331.7478,-125.5158 315.1173,-112.4826"/>
<polygon fill="#ff0000" stroke="#ff0000" stroke-width=".4535" points="316.8337,-109.3809 306.8038,-105.9673 312.5158,-114.8906 316.8337,-109.3809"/>
</g>
<!-- &#45;15&#45;&gt;1050 -->
<g id="edge57" class="edge">
<title>&#45;15&#45;&gt;1050</title>
<path fill="none" stroke="#ff0000" stroke-width=".5" d="M361.4226,-154.4223C358.6319,-153.3367 355.7296,-152.2211 353,-151.196 308.7792,-134.5879 294.5777,-137.6148 253,-115.196 251.2508,-114.2528 249.4931,-113.2233 247.7492,-112.1373"/>
<polygon fill="#ff0000" stroke="#ff0000" stroke-width=".5" points="249.4902,-109.0891 239.2492,-106.374 245.5619,-114.8829 249.4902,-109.0891"/>
</g>
<!-- &#45;15&#45;&gt;1051 -->
<g id="edge58" class="edge">
<title>&#45;15&#45;&gt;1051</title>
<path fill="none" stroke="#ff0000" stroke-width=".1674" d="M373.1239,-151.0775C370.9226,-144.0985 367.7405,-134.0101 364.6018,-124.0591"/>
<polygon fill="#ff0000" stroke="#ff0000" stroke-width=".1674" points="367.8614,-122.758 361.5154,-114.274 361.1856,-124.8637 367.8614,-122.758"/>
</g>
<!-- 0 -->
<g id="node16" class="node">
<title>0</title>
<ellipse fill="#add8e6" stroke="#000000" cx="297" cy="-14.8492" rx="14.7" ry="14.7"/>
<text text-anchor="middle" x="297" y="-12.6492" font-family="Times,serif" font-size="9.00" fill="#000000">0</text>
</g>
<!-- 1046&#45;&gt;0 -->
<g id="edge59" class="edge">
<title>1046&#45;&gt;0</title>
<path fill="none" stroke="#00ff00" stroke-width=".3936" d="M401.4147,-75.0869C397.0745,-71.8738 392.4428,-68.5872 388,-65.6985 365.2601,-50.9129 337.956,-36.0111 319.226,-26.197"/>
<polygon fill="#00ff00" stroke="#00ff00" stroke-width=".3936" points="320.7708,-23.0555 310.2826,-21.5561 317.5466,-29.2687 320.7708,-23.0555"/>
</g>
<!-- 1046&#45;&gt;1 -->
<g id="edge60" class="edge">
<title>1046&#45;&gt;1</title>
<path fill="none" stroke="#ff0000" stroke-width=".1693" d="M404.4382,-71.7601C394.2103,-60.2197 381.1238,-45.4538 370.844,-33.8547"/>
<polygon fill="#ff0000" stroke="#ff0000" stroke-width=".1693" points="373.1877,-31.2223 363.9357,-26.0599 367.949,-35.8652 373.1877,-31.2223"/>
</g>
<!-- 1047&#45;&gt;0 -->
<g id="edge61" class="edge">
<title>1047&#45;&gt;0</title>
<path fill="none" stroke="#00ff00" stroke-width=".4884" d="M290.2744,-65.6936C291.3798,-57.337 292.6134,-48.0107 293.7193,-39.6504"/>
<polygon fill="#00ff00" stroke="#00ff00" stroke-width=".4884" points="297.1909,-40.0956 295.0325,-29.7229 290.2513,-39.1776 297.1909,-40.0956"/>
</g>
<!-- 1047&#45;&gt;1 -->
<g id="edge62" class="edge">
<title>1047&#45;&gt;1</title>
<path fill="none" stroke="#00ff00" stroke-width=".2155" d="M303.5618,-71.7601C313.7897,-60.2197 326.8762,-45.4538 337.156,-33.8547"/>
<polygon fill="#00ff00" stroke="#00ff00" stroke-width=".2155" points="340.051,-35.8652 344.0643,-26.0599 334.8123,-31.2223 340.051,-35.8652"/>
</g>
<!-- 1050&#45;&gt;0 -->
<g id="edge63" class="edge">
<title>1050&#45;&gt;0</title>
<path fill="none" stroke="#00ff00" stroke-width=".3012" d="M237.8589,-72.9135C250.1041,-60.8913 266.3044,-44.9859 278.6529,-32.8623"/>
<polygon fill="#00ff00" stroke="#00ff00" stroke-width=".3012" points="281.4474,-35.0236 286.1311,-25.5202 276.5433,-30.0286 281.4474,-35.0236"/>
</g>
<!-- 1050&#45;&gt;1 -->
<g id="edge64" class="edge">
<title>1050&#45;&gt;1</title>
<path fill="none" stroke="#ff0000" stroke-width=".3" d="M239.4924,-74.9406C243.8383,-71.7366 248.4959,-68.4907 253,-65.6985 266.9937,-57.0234 306.0093,-37.8866 331.25,-25.7217"/>
<polygon fill="#ff0000" stroke="#ff0000" stroke-width=".3" points="332.9843,-28.7715 340.4827,-21.2865 329.9532,-22.4617 332.9843,-28.7715"/>
</g>
<!-- 1051&#45;&gt;0 -->
<g id="edge65" class="edge">
<title>1051&#45;&gt;0</title>
<path fill="none" stroke="#ff0000" stroke-width=".5" d="M339.0239,-70.5847C330.7994,-59.6767 320.6188,-46.1744 312.338,-35.1917"/>
<polygon fill="#ff0000" stroke="#ff0000" stroke-width=".5" points="314.9929,-32.8992 306.1778,-27.0216 309.4036,-37.1134 314.9929,-32.8992"/>
</g>
<!-- 1051&#45;&gt;1 -->
<g id="edge66" class="edge">
<title>1051&#45;&gt;1</title>
<path fill="none" stroke="#ff0000" stroke-width=".1379" d="M354,-65.6936C354,-57.4298 354,-48.2178 354,-39.9294"/>
<polygon fill="#ff0000" stroke="#ff0000" stroke-width=".1379" points="357.5001,-39.7229 354,-29.7229 350.5001,-39.723 357.5001,-39.7229"/>
</g>
</g>
</svg>
