<?xml version="1.0" encoding="UTF-8" standalone="no"?>
<!DOCTYPE svg PUBLIC "-//W3C//DTD SVG 1.1//EN"
 "http://www.w3.org/Graphics/SVG/1.1/DTD/svg11.dtd">
<!-- Generated by graphviz version 2.40.1 (20161225.0304)
 -->
<!-- Title: %3 Pages: 1 -->
<svg width="229pt" height="288pt"
 viewBox="0.00 0.00 229.43 288.15" xmlns="http://www.w3.org/2000/svg" xmlns:xlink="http://www.w3.org/1999/xlink">
<g id="graph0" class="graph" transform="scale(1 1) rotate(0) translate(4 284.1493)">
<title>%3</title>
<polygon fill="#ffffff" stroke="transparent" points="-4,4 -4,-284.1493 225.4264,-284.1493 225.4264,4 -4,4"/>
<!-- &#45;1 -->
<g id="node1" class="node">
<title>&#45;1</title>
<polygon fill="#d3d3d3" stroke="#000000" points="85.8492,-280.1493 61.8492,-280.1493 61.8492,-262.1493 85.8492,-262.1493 85.8492,-280.1493"/>
<text text-anchor="middle" x="73.8492" y="-268.9493" font-family="Times,serif" font-size="9.00" fill="#000000">&#45;1</text>
</g>
<!-- 3539 -->
<g id="node8" class="node">
<title>3539</title>
<ellipse fill="#ffffff" stroke="#000000" cx="98.8492" cy="-195.0366" rx="25" ry="25"/>
<text text-anchor="middle" x="98.8492" y="-192.8366" font-family="Times,serif" font-size="9.00" fill="#000000">3539</text>
</g>
<!-- &#45;1&#45;&gt;3539 -->
<g id="edge1" class="edge">
<title>&#45;1&#45;&gt;3539</title>
<path fill="none" stroke="#00ff00" stroke-width=".2746" d="M76.8152,-262.1193C79.5708,-253.7299 83.8482,-240.7073 87.9039,-228.3598"/>
<polygon fill="#00ff00" stroke="#00ff00" stroke-width=".2746" points="91.2802,-229.2964 91.0756,-218.7035 84.6297,-227.1119 91.2802,-229.2964"/>
</g>
<!-- 3540 -->
<g id="node9" class="node">
<title>3540</title>
<ellipse fill="#ffffff" stroke="#000000" cx="31.8492" cy="-195.0366" rx="25" ry="25"/>
<text text-anchor="middle" x="31.8492" y="-192.8366" font-family="Times,serif" font-size="9.00" fill="#000000">3540</text>
</g>
<!-- &#45;1&#45;&gt;3540 -->
<g id="edge10" class="edge">
<title>&#45;1&#45;&gt;3540</title>
<path fill="none" stroke="#ff0000" stroke-width=".1429" stroke-dasharray="1,5" d="M68.8664,-262.1193C63.8877,-253.0968 55.9518,-238.7153 48.7025,-225.5781"/>
<polygon fill="#ff0000" stroke="#ff0000" stroke-width=".1429" points="51.734,-223.8275 43.8382,-216.7631 45.6052,-227.2095 51.734,-223.8275"/>
</g>
<!-- &#45;2 -->
<g id="node2" class="node">
<title>&#45;2</title>
<polygon fill="#d3d3d3" stroke="#000000" points="43.8492,-280.1493 19.8492,-280.1493 19.8492,-262.1493 43.8492,-262.1493 43.8492,-280.1493"/>
<text text-anchor="middle" x="31.8492" y="-268.9493" font-family="Times,serif" font-size="9.00" fill="#000000">&#45;2</text>
</g>
<!-- &#45;2&#45;&gt;3539 -->
<g id="edge2" class="edge">
<title>&#45;2&#45;&gt;3539</title>
<path fill="none" stroke="#00ff00" stroke-width=".3035" d="M39.7981,-262.1193C48.6308,-252.0853 63.2979,-235.4233 75.8043,-221.2158"/>
<polygon fill="#00ff00" stroke="#00ff00" stroke-width=".3035" points="78.499,-223.4518 82.4793,-213.633 73.2447,-218.8265 78.499,-223.4518"/>
</g>
<!-- &#45;2&#45;&gt;3540 -->
<g id="edge3" class="edge">
<title>&#45;2&#45;&gt;3540</title>
<path fill="none" stroke="#00ff00" stroke-width=".5" d="M31.8492,-262.1193C31.8492,-254.1397 31.8492,-241.9684 31.8492,-230.1733"/>
<polygon fill="#00ff00" stroke="#00ff00" stroke-width=".5" points="35.3493,-230.0196 31.8492,-220.0197 28.3493,-230.0197 35.3493,-230.0196"/>
</g>
<!-- &#45;3 -->
<g id="node3" class="node">
<title>&#45;3</title>
<polygon fill="#d3d3d3" stroke="#000000" points="127.8492,-280.1493 103.8492,-280.1493 103.8492,-262.1493 127.8492,-262.1493 127.8492,-280.1493"/>
<text text-anchor="middle" x="115.8492" y="-268.9493" font-family="Times,serif" font-size="9.00" fill="#000000">&#45;3</text>
</g>
<!-- &#45;3&#45;&gt;3539 -->
<g id="edge4" class="edge">
<title>&#45;3&#45;&gt;3539</title>
<path fill="none" stroke="#00ff00" stroke-width=".1027" d="M113.8324,-262.1193C112.0046,-253.9361 109.1922,-241.3444 106.4956,-229.271"/>
<polygon fill="#00ff00" stroke="#00ff00" stroke-width=".1027" points="109.8776,-228.356 104.2818,-219.3595 103.0459,-229.882 109.8776,-228.356"/>
</g>
<!-- &#45;3&#45;&gt;3540 -->
<g id="edge5" class="edge">
<title>&#45;3&#45;&gt;3540</title>
<path fill="none" stroke="#ff0000" stroke-width=".5" d="M105.2099,-261.9421C94.8296,-252.9168 78.6333,-238.7221 64.8492,-226.1493 62.4059,-223.9206 59.876,-221.5858 57.3538,-219.2397"/>
<polygon fill="#ff0000" stroke="#ff0000" stroke-width=".5" points="59.5953,-216.5436 49.9042,-212.262 54.81,-221.6526 59.5953,-216.5436"/>
</g>
<!-- 138201 -->
<g id="node10" class="node">
<title>138201</title>
<ellipse fill="#ffffff" stroke="#000000" cx="172.8492" cy="-195.0366" rx="31.2258" ry="31.2258"/>
<text text-anchor="middle" x="172.8492" y="-192.8366" font-family="Times,serif" font-size="9.00" fill="#000000">138201</text>
</g>
<!-- &#45;3&#45;&gt;138201 -->
<g id="edge13" class="edge">
<title>&#45;3&#45;&gt;138201</title>
<path fill="none" stroke="#ff0000" stroke-width=".1263" d="M122.6117,-262.1193C128.9497,-253.6561 138.8189,-240.4777 148.1379,-228.0339"/>
<polygon fill="#ff0000" stroke="#ff0000" stroke-width=".1263" points="150.9468,-230.122 154.1397,-220.0197 145.3438,-225.9259 150.9468,-230.122"/>
</g>
<!-- 0 -->
<g id="node4" class="node">
<title>0</title>
<ellipse fill="#add8e6" stroke="#000000" cx="14.8492" cy="-96.8112" rx="14.7" ry="14.7"/>
<text text-anchor="middle" x="14.8492" y="-94.6112" font-family="Times,serif" font-size="9.00" fill="#000000">0</text>
</g>
<!-- 1 -->
<g id="node5" class="node">
<title>1</title>
<ellipse fill="#add8e6" stroke="#000000" cx="116.8492" cy="-14.8492" rx="14.7" ry="14.7"/>
<text text-anchor="middle" x="116.8492" y="-12.6492" font-family="Times,serif" font-size="9.00" fill="#000000">1</text>
</g>
<!-- 137965 -->
<g id="node6" class="node">
<title>137965</title>
<ellipse fill="#ffffff" stroke="#000000" cx="116.8492" cy="-96.8112" rx="31.2258" ry="31.2258"/>
<text text-anchor="middle" x="116.8492" y="-94.6112" font-family="Times,serif" font-size="9.00" fill="#000000">137965</text>
</g>
<!-- 137965&#45;&gt;1 -->
<g id="edge12" class="edge">
<title>137965&#45;&gt;1</title>
<path fill="none" stroke="#ff0000" stroke-width=".3696" d="M116.8492,-65.357C116.8492,-57.0392 116.8492,-48.1671 116.8492,-40.2168"/>
<polygon fill="#ff0000" stroke="#ff0000" stroke-width=".3696" points="120.3493,-40.0855 116.8492,-30.0856 113.3493,-40.0856 120.3493,-40.0855"/>
</g>
<!-- 29458 -->
<g id="node7" class="node">
<title>29458</title>
<ellipse fill="#ffffff" stroke="#000000" cx="193.8492" cy="-96.8112" rx="27.6545" ry="27.6545"/>
<text text-anchor="middle" x="193.8492" y="-94.6112" font-family="Times,serif" font-size="9.00" fill="#000000">29458</text>
</g>
<!-- 29458&#45;&gt;1 -->
<g id="edge9" class="edge">
<title>29458&#45;&gt;1</title>
<path fill="none" stroke="#00ff00" stroke-width=".3045" d="M174.8155,-76.5509C162.4237,-63.3605 146.3806,-46.2836 134.3148,-33.4403"/>
<polygon fill="#00ff00" stroke="#00ff00" stroke-width=".3045" points="136.7822,-30.9549 127.3843,-26.0631 131.6804,-35.7479 136.7822,-30.9549"/>
</g>
<!-- 3539&#45;&gt;1 -->
<g id="edge6" class="edge">
<title>3539&#45;&gt;1</title>
<path fill="none" stroke="#00ff00" stroke-width=".4102" d="M88.4001,-172.5128C77.7177,-146.2597 64.3313,-101.8585 76.8492,-65.6985 81.2258,-53.0562 90.1889,-41.1704 98.5231,-32.0739"/>
<polygon fill="#00ff00" stroke="#00ff00" stroke-width=".4102" points="101.088,-34.4567 105.5541,-24.8491 96.0715,-29.5746 101.088,-34.4567"/>
</g>
<!-- 3539&#45;&gt;137965 -->
<g id="edge11" class="edge">
<title>3539&#45;&gt;137965</title>
<path fill="none" stroke="#ff0000" stroke-width=".1419" d="M103.345,-170.5035C105.1627,-160.5843 107.3107,-148.8627 109.3525,-137.7208"/>
<polygon fill="#ff0000" stroke="#ff0000" stroke-width=".1419" points="112.8253,-138.1868 111.1852,-127.7197 105.9399,-136.925 112.8253,-138.1868"/>
</g>
<!-- 3539&#45;&gt;29458 -->
<g id="edge8" class="edge">
<title>3539&#45;&gt;29458</title>
<path fill="none" stroke="#ff0000" stroke-width=".149" d="M116.2737,-177.0205C130.5808,-162.2277 151.072,-141.0408 167.4017,-124.1567"/>
<polygon fill="#ff0000" stroke="#ff0000" stroke-width=".149" points="170.1383,-126.3617 174.5745,-116.7403 165.1066,-121.4952 170.1383,-126.3617"/>
</g>
<!-- 3540&#45;&gt;0 -->
<g id="edge7" class="edge">
<title>3540&#45;&gt;0</title>
<path fill="none" stroke="#ff0000" stroke-width=".3035" d="M27.6033,-170.5035C25.0234,-155.5971 21.7391,-136.6204 19.1494,-121.6575"/>
<polygon fill="#ff0000" stroke="#ff0000" stroke-width=".3035" points="22.5607,-120.8437 17.4065,-111.5871 15.6632,-122.0375 22.5607,-120.8437"/>
</g>
</g>
</svg>
