<?xml version="1.0" encoding="UTF-8" standalone="no"?>
<!DOCTYPE svg PUBLIC "-//W3C//DTD SVG 1.1//EN"
 "http://www.w3.org/Graphics/SVG/1.1/DTD/svg11.dtd">
<!-- Generated by graphviz version 2.40.1 (20161225.0304)
 -->
<!-- Title: %3 Pages: 1 -->
<svg width="651pt" height="170pt"
 viewBox="0.00 0.00 651.00 170.12" xmlns="http://www.w3.org/2000/svg" xmlns:xlink="http://www.w3.org/1999/xlink">
<g id="graph0" class="graph" transform="scale(1 1) rotate(0) translate(4 166.1249)">
<title>%3</title>
<polygon fill="#ffffff" stroke="transparent" points="-4,4 -4,-166.1249 647,-166.1249 647,4 -4,4"/>
<!-- &#45;1 -->
<g id="node1" class="node">
<title>&#45;1</title>
<polygon fill="#d3d3d3" stroke="#000000" points="559,-162.1249 535,-162.1249 535,-144.1249 559,-144.1249 559,-162.1249"/>
<text text-anchor="middle" x="547" y="-150.9249" font-family="Times,serif" font-size="9.00" fill="#000000">&#45;1</text>
</g>
<!-- 176 -->
<g id="node18" class="node">
<title>176</title>
<ellipse fill="#ffffff" stroke="#000000" cx="379" cy="-86.9117" rx="21.4286" ry="21.4286"/>
<text text-anchor="middle" x="379" y="-84.7117" font-family="Times,serif" font-size="9.00" fill="#000000">176</text>
</g>
<!-- &#45;1&#45;&gt;176 -->
<g id="edge1" class="edge">
<title>&#45;1&#45;&gt;176</title>
<path fill="none" stroke="#00ff00" stroke-width=".1464" d="M534.651,-147.5738C531.8306,-146.3785 528.8301,-145.1634 526,-144.1249 474.9243,-125.3826 457.823,-132.1314 409,-108.1249 407.4652,-107.3702 405.9228,-106.5409 404.3912,-105.6609"/>
<polygon fill="#00ff00" stroke="#00ff00" stroke-width=".1464" points="406.1812,-102.6514 395.8661,-100.2328 402.4215,-108.5561 406.1812,-102.6514"/>
</g>
<!-- 178 -->
<g id="node19" class="node">
<title>178</title>
<ellipse fill="#ffffff" stroke="#000000" cx="259" cy="-86.9117" rx="21.4286" ry="21.4286"/>
<text text-anchor="middle" x="259" y="-84.7117" font-family="Times,serif" font-size="9.00" fill="#000000">178</text>
</g>
<!-- &#45;1&#45;&gt;178 -->
<g id="edge2" class="edge">
<title>&#45;1&#45;&gt;178</title>
<path fill="none" stroke="#ff0000" stroke-width=".3295" d="M534.7532,-147.2598C531.9275,-146.0808 528.899,-144.9517 526,-144.1249 423.5437,-114.9049 387.8179,-147.9512 289,-108.1249 287.373,-107.4692 285.7493,-106.7095 284.1471,-105.8759"/>
<polygon fill="#ff0000" stroke="#ff0000" stroke-width=".3295" points="285.6906,-102.7177 275.3305,-100.4999 282.0464,-108.6943 285.6906,-102.7177"/>
</g>
<!-- 179 -->
<g id="node20" class="node">
<title>179</title>
<ellipse fill="#ffffff" stroke="#000000" cx="319" cy="-86.9117" rx="21.4286" ry="21.4286"/>
<text text-anchor="middle" x="319" y="-84.7117" font-family="Times,serif" font-size="9.00" fill="#000000">179</text>
</g>
<!-- &#45;1&#45;&gt;179 -->
<g id="edge3" class="edge">
<title>&#45;1&#45;&gt;179</title>
<path fill="none" stroke="#00ff00" stroke-width=".5" d="M534.7213,-147.3667C531.8973,-146.1821 528.8775,-145.0237 526,-144.1249 449.3742,-120.1888 422.6857,-139.9817 349,-108.1249 347.4301,-107.4462 345.86,-106.6769 344.3068,-105.8435"/>
<polygon fill="#00ff00" stroke="#00ff00" stroke-width=".5" points="346.0682,-102.8178 335.7182,-100.5533 342.397,-108.7779 346.0682,-102.8178"/>
</g>
<!-- 180 -->
<g id="node21" class="node">
<title>180</title>
<ellipse fill="#ffffff" stroke="#000000" cx="439" cy="-86.9117" rx="21.4286" ry="21.4286"/>
<text text-anchor="middle" x="439" y="-84.7117" font-family="Times,serif" font-size="9.00" fill="#000000">180</text>
</g>
<!-- &#45;1&#45;&gt;180 -->
<g id="edge4" class="edge">
<title>&#45;1&#45;&gt;180</title>
<path fill="none" stroke="#ff0000" stroke-width=".4941" d="M534.611,-145.5294C517.9566,-135.3188 487.9034,-116.8937 465.924,-103.4184"/>
<polygon fill="#ff0000" stroke="#ff0000" stroke-width=".4941" points="467.7098,-100.4079 457.3551,-98.1649 464.0511,-106.3756 467.7098,-100.4079"/>
</g>
<!-- &#45;2 -->
<g id="node2" class="node">
<title>&#45;2</title>
<polygon fill="#d3d3d3" stroke="#000000" points="349,-162.1249 325,-162.1249 325,-144.1249 349,-144.1249 349,-162.1249"/>
<text text-anchor="middle" x="337" y="-150.9249" font-family="Times,serif" font-size="9.00" fill="#000000">&#45;2</text>
</g>
<!-- &#45;2&#45;&gt;176 -->
<g id="edge5" class="edge">
<title>&#45;2&#45;&gt;176</title>
<path fill="none" stroke="#00ff00" stroke-width=".3681" d="M342.8399,-143.9182C347.8058,-136.0896 355.1933,-124.4431 361.9989,-113.7139"/>
<polygon fill="#00ff00" stroke="#00ff00" stroke-width=".3681" points="365.112,-115.3404 367.5129,-105.0211 359.2009,-111.5908 365.112,-115.3404"/>
</g>
<!-- &#45;2&#45;&gt;178 -->
<g id="edge6" class="edge">
<title>&#45;2&#45;&gt;178</title>
<path fill="none" stroke="#ff0000" stroke-width=".1686" d="M326.1544,-143.9182C314.9935,-134.4439 297.2456,-119.3779 282.7978,-107.1133"/>
<polygon fill="#ff0000" stroke="#ff0000" stroke-width=".1686" points="285.0621,-104.4445 275.1735,-100.6412 280.532,-109.781 285.0621,-104.4445"/>
</g>
<!-- &#45;2&#45;&gt;179 -->
<g id="edge7" class="edge">
<title>&#45;2&#45;&gt;179</title>
<path fill="none" stroke="#00ff00" stroke-width=".2308" d="M334.4972,-143.9182C332.6044,-136.9557 329.8908,-126.9735 327.2617,-117.3024"/>
<polygon fill="#00ff00" stroke="#00ff00" stroke-width=".2308" points="330.5913,-116.208 324.5905,-107.4764 323.8364,-118.0443 330.5913,-116.208"/>
</g>
<!-- &#45;2&#45;&gt;180 -->
<g id="edge8" class="edge">
<title>&#45;2&#45;&gt;180</title>
<path fill="none" stroke="#00ff00" stroke-width=".2617" stroke-dasharray="1,5" d="M349.1083,-145.8466C363.5245,-137.1148 388.259,-121.9234 409,-108.1249 410.424,-107.1775 411.8788,-106.1959 413.3423,-105.1976"/>
<polygon fill="#00ff00" stroke="#00ff00" stroke-width=".2617" points="415.447,-107.9973 421.6662,-99.4198 411.4555,-102.2468 415.447,-107.9973"/>
</g>
<!-- 181 -->
<g id="node22" class="node">
<title>181</title>
<ellipse fill="#ffffff" stroke="#000000" cx="199" cy="-86.9117" rx="21.4286" ry="21.4286"/>
<text text-anchor="middle" x="199" y="-84.7117" font-family="Times,serif" font-size="9.00" fill="#000000">181</text>
</g>
<!-- &#45;2&#45;&gt;181 -->
<g id="edge9" class="edge">
<title>&#45;2&#45;&gt;181</title>
<path fill="none" stroke="#ff0000" stroke-width=".4939" d="M324.8053,-148.1281C297.4978,-136.9273 233.4661,-110.5946 229,-108.1249 227.5033,-107.2972 225.991,-106.4102 224.4828,-105.4854"/>
<polygon fill="#ff0000" stroke="#ff0000" stroke-width=".4939" points="226.3053,-102.4949 216.0269,-99.9248 222.4591,-108.3436 226.3053,-102.4949"/>
</g>
<!-- &#45;3 -->
<g id="node3" class="node">
<title>&#45;3</title>
<polygon fill="#d3d3d3" stroke="#000000" points="391,-162.1249 367,-162.1249 367,-144.1249 391,-144.1249 391,-162.1249"/>
<text text-anchor="middle" x="379" y="-150.9249" font-family="Times,serif" font-size="9.00" fill="#000000">&#45;3</text>
</g>
<!-- &#45;3&#45;&gt;176 -->
<g id="edge10" class="edge">
<title>&#45;3&#45;&gt;176</title>
<path fill="none" stroke="#ff0000" stroke-width=".3164" stroke-dasharray="1,5" d="M379,-143.9182C379,-137.2572 379,-127.8323 379,-118.5602"/>
<polygon fill="#ff0000" stroke="#ff0000" stroke-width=".3164" points="382.5001,-118.312 379,-108.3121 375.5001,-118.3121 382.5001,-118.312"/>
</g>
<!-- &#45;3&#45;&gt;178 -->
<g id="edge11" class="edge">
<title>&#45;3&#45;&gt;178</title>
<path fill="none" stroke="#00ff00" stroke-width=".1158" d="M366.7526,-147.7208C349.1401,-139.79 315.8276,-124.1902 289,-108.1249 287.5326,-107.2462 286.0436,-106.3188 284.5534,-105.3627"/>
<polygon fill="#00ff00" stroke="#00ff00" stroke-width=".1158" points="286.4016,-102.3877 276.1508,-99.7095 282.4941,-108.1956 286.4016,-102.3877"/>
</g>
<!-- &#45;3&#45;&gt;179 -->
<g id="edge12" class="edge">
<title>&#45;3&#45;&gt;179</title>
<path fill="none" stroke="#ff0000" stroke-width=".138" d="M370.6573,-143.9182C362.8085,-135.2567 350.725,-121.9219 340.2177,-110.3266"/>
<polygon fill="#ff0000" stroke="#ff0000" stroke-width=".138" points="342.5752,-107.7158 333.2667,-102.6558 337.388,-112.4162 342.5752,-107.7158"/>
</g>
<!-- &#45;3&#45;&gt;180 -->
<g id="edge13" class="edge">
<title>&#45;3&#45;&gt;180</title>
<path fill="none" stroke="#ff0000" stroke-width=".4881" d="M387.3427,-143.9182C395.1915,-135.2567 407.275,-121.9219 417.7823,-110.3266"/>
<polygon fill="#ff0000" stroke="#ff0000" stroke-width=".4881" points="420.612,-112.4162 424.7333,-102.6558 415.4248,-107.7158 420.612,-112.4162"/>
</g>
<!-- &#45;3&#45;&gt;181 -->
<g id="edge14" class="edge">
<title>&#45;3&#45;&gt;181</title>
<path fill="none" stroke="#00ff00" stroke-width=".2612" d="M366.6709,-147.5184C363.8495,-146.3259 360.8435,-145.126 358,-144.1249 301.8541,-124.3575 282.7574,-133.6837 229,-108.1249 227.4554,-107.3905 225.9052,-106.5772 224.3676,-105.7097"/>
<polygon fill="#00ff00" stroke="#00ff00" stroke-width=".2612" points="226.1495,-102.6955 215.8247,-100.3184 222.4136,-108.6153 226.1495,-102.6955"/>
</g>
<!-- &#45;4 -->
<g id="node4" class="node">
<title>&#45;4</title>
<polygon fill="#d3d3d3" stroke="#000000" points="433,-162.1249 409,-162.1249 409,-144.1249 433,-144.1249 433,-162.1249"/>
<text text-anchor="middle" x="421" y="-150.9249" font-family="Times,serif" font-size="9.00" fill="#000000">&#45;4</text>
</g>
<!-- &#45;4&#45;&gt;176 -->
<g id="edge15" class="edge">
<title>&#45;4&#45;&gt;176</title>
<path fill="none" stroke="#ff0000" stroke-width=".3529" d="M415.1601,-143.9182C410.1942,-136.0896 402.8067,-124.4431 396.0011,-113.7139"/>
<polygon fill="#ff0000" stroke="#ff0000" stroke-width=".3529" points="398.7991,-111.5908 390.4871,-105.0211 392.888,-115.3404 398.7991,-111.5908"/>
</g>
<!-- &#45;4&#45;&gt;178 -->
<g id="edge16" class="edge">
<title>&#45;4&#45;&gt;178</title>
<path fill="none" stroke="#00ff00" stroke-width=".2909" d="M408.6392,-147.6055C405.8194,-146.4085 402.8221,-145.1848 400,-144.1249 351.4479,-125.891 335.3668,-131.3606 289,-108.1249 287.4709,-107.3586 285.933,-106.5202 284.405,-105.633"/>
<polygon fill="#00ff00" stroke="#00ff00" stroke-width=".2909" points="286.1999,-102.6264 275.8904,-100.1839 282.4266,-108.5223 286.1999,-102.6264"/>
</g>
<!-- &#45;4&#45;&gt;179 -->
<g id="edge17" class="edge">
<title>&#45;4&#45;&gt;179</title>
<path fill="none" stroke="#ff0000" stroke-width=".5" d="M408.8917,-145.8466C394.4755,-137.1148 369.741,-121.9234 349,-108.1249 347.576,-107.1775 346.1212,-106.1959 344.6577,-105.1976"/>
<polygon fill="#ff0000" stroke="#ff0000" stroke-width=".5" points="346.5445,-102.2468 336.3338,-99.4198 342.553,-107.9973 346.5445,-102.2468"/>
</g>
<!-- &#45;4&#45;&gt;180 -->
<g id="edge18" class="edge">
<title>&#45;4&#45;&gt;180</title>
<path fill="none" stroke="#ff0000" stroke-width=".2932" d="M423.5028,-143.9182C425.3956,-136.9557 428.1092,-126.9735 430.7383,-117.3024"/>
<polygon fill="#ff0000" stroke="#ff0000" stroke-width=".2932" points="434.1636,-118.0443 433.4095,-107.4764 427.4087,-116.208 434.1636,-118.0443"/>
</g>
<!-- &#45;4&#45;&gt;181 -->
<g id="edge19" class="edge">
<title>&#45;4&#45;&gt;181</title>
<path fill="none" stroke="#00ff00" stroke-width=".2362" d="M408.7167,-147.3813C405.8929,-146.1959 402.8744,-145.0336 400,-144.1249 325.9465,-120.7139 300.1829,-139.1892 229,-108.1249 227.4324,-107.4408 225.8641,-106.6673 224.3125,-105.8306"/>
<polygon fill="#00ff00" stroke="#00ff00" stroke-width=".2362" points="226.0757,-102.8059 215.728,-100.5306 222.3982,-108.7622 226.0757,-102.8059"/>
</g>
<!-- &#45;5 -->
<g id="node5" class="node">
<title>&#45;5</title>
<polygon fill="#d3d3d3" stroke="#000000" points="24,-162.1249 0,-162.1249 0,-144.1249 24,-144.1249 24,-162.1249"/>
<text text-anchor="middle" x="12" y="-150.9249" font-family="Times,serif" font-size="9.00" fill="#000000">&#45;5</text>
</g>
<!-- 0 -->
<g id="node16" class="node">
<title>0</title>
<ellipse fill="#add8e6" stroke="#000000" cx="259" cy="-14.8492" rx="14.7" ry="14.7"/>
<text text-anchor="middle" x="259" y="-12.6492" font-family="Times,serif" font-size="9.00" fill="#000000">0</text>
</g>
<!-- &#45;5&#45;&gt;0 -->
<g id="edge84" class="edge">
<title>&#45;5&#45;&gt;0</title>
<path fill="none" stroke="#ff0000" stroke-width=".4861" d="M24.2488,-146.2678C63.4804,-124.3051 186.4053,-55.4892 236.955,-27.1905"/>
<polygon fill="#ff0000" stroke="#ff0000" stroke-width=".4861" points="238.769,-30.1861 245.785,-22.2472 235.3496,-24.0781 238.769,-30.1861"/>
</g>
<!-- &#45;5&#45;&gt;176 -->
<g id="edge20" class="edge">
<title>&#45;5&#45;&gt;176</title>
<path fill="none" stroke="#00ff00" stroke-width=".5" d="M24.2247,-147.1794C27.0515,-146.0045 30.0861,-144.8974 33,-144.1249 169.6324,-107.9001 216.9315,-158.509 349,-108.1249 350.639,-107.4996 352.272,-106.7639 353.8815,-105.9487"/>
<polygon fill="#00ff00" stroke="#00ff00" stroke-width=".5" points="355.9586,-108.7835 362.7188,-100.6256 352.3468,-102.7872 355.9586,-108.7835"/>
</g>
<!-- &#45;5&#45;&gt;178 -->
<g id="edge21" class="edge">
<title>&#45;5&#45;&gt;178</title>
<path fill="none" stroke="#ff0000" stroke-width=".5" d="M24.2663,-147.3261C27.0909,-146.1436 30.1141,-144.9964 33,-144.1249 117.7868,-118.5212 147.3737,-142.4979 229,-108.1249 230.5763,-107.4611 232.1515,-106.7037 233.7085,-105.8795"/>
<polygon fill="#ff0000" stroke="#ff0000" stroke-width=".5" points="235.6062,-108.8216 242.3087,-100.6163 231.9522,-102.8509 235.6062,-108.8216"/>
</g>
<!-- &#45;5&#45;&gt;179 -->
<g id="edge22" class="edge">
<title>&#45;5&#45;&gt;179</title>
<path fill="none" stroke="#ff0000" stroke-width=".377" d="M24.2401,-147.236C27.0661,-146.0582 30.0965,-144.9357 33,-144.1249 143.6639,-113.2235 182.1968,-150.4858 289,-108.1249 290.6306,-107.4781 292.2571,-106.7256 293.8615,-105.8973"/>
<polygon fill="#ff0000" stroke="#ff0000" stroke-width=".377" points="295.9553,-108.7206 302.6843,-100.537 292.3206,-102.7382 295.9553,-108.7206"/>
</g>
<!-- &#45;5&#45;&gt;180 -->
<g id="edge23" class="edge">
<title>&#45;5&#45;&gt;180</title>
<path fill="none" stroke="#00ff00" stroke-width=".2386" d="M24.2145,-147.1405C27.0419,-145.9676 30.0793,-144.8712 33,-144.1249 195.6493,-102.5638 251.6195,-166.5502 409,-108.1249 410.6445,-107.5144 412.2819,-106.7903 413.8947,-105.9839"/>
<polygon fill="#00ff00" stroke="#00ff00" stroke-width=".2386" points="415.9602,-108.8267 422.7417,-100.6865 412.3641,-102.821 415.9602,-108.8267"/>
</g>
<!-- &#45;5&#45;&gt;181 -->
<g id="edge24" class="edge">
<title>&#45;5&#45;&gt;181</title>
<path fill="none" stroke="#ff0000" stroke-width=".1094" d="M24.3753,-147.6437C27.1944,-146.4448 30.1877,-145.2105 33,-144.1249 80.0336,-125.9688 135.5811,-107.3923 169.0103,-96.5167"/>
<polygon fill="#ff0000" stroke="#ff0000" stroke-width=".1094" points="170.2057,-99.8086 178.6408,-93.3977 168.0489,-93.1491 170.2057,-99.8086"/>
</g>
<!-- &#45;6 -->
<g id="node6" class="node">
<title>&#45;6</title>
<polygon fill="#d3d3d3" stroke="#000000" points="643,-162.1249 619,-162.1249 619,-144.1249 643,-144.1249 643,-162.1249"/>
<text text-anchor="middle" x="631" y="-150.9249" font-family="Times,serif" font-size="9.00" fill="#000000">&#45;6</text>
</g>
<!-- 1 -->
<g id="node17" class="node">
<title>1</title>
<ellipse fill="#add8e6" stroke="#000000" cx="349" cy="-14.8492" rx="14.7" ry="14.7"/>
<text text-anchor="middle" x="349" y="-12.6492" font-family="Times,serif" font-size="9.00" fill="#000000">1</text>
</g>
<!-- &#45;6&#45;&gt;1 -->
<g id="edge83" class="edge">
<title>&#45;6&#45;&gt;1</title>
<path fill="none" stroke="#00ff00" stroke-width=".2076" d="M618.6049,-145.915C591.7551,-130.4136 526.0389,-93.0998 469,-65.6985 435.9852,-49.8383 396.7425,-33.7044 372.3484,-23.9844"/>
<polygon fill="#00ff00" stroke="#00ff00" stroke-width=".2076" points="373.4506,-20.6566 362.8643,-20.2309 370.8745,-27.1653 373.4506,-20.6566"/>
</g>
<!-- &#45;6&#45;&gt;176 -->
<g id="edge25" class="edge">
<title>&#45;6&#45;&gt;176</title>
<path fill="none" stroke="#ff0000" stroke-width=".2567" stroke-dasharray="1,5" d="M618.7366,-147.3166C615.9118,-146.1346 612.8878,-144.99 610,-144.1249 523.0622,-118.0813 492.7191,-143.1614 409,-108.1249 407.3818,-107.4477 405.7651,-106.6712 404.1682,-105.8245"/>
<polygon fill="#ff0000" stroke="#ff0000" stroke-width=".2567" points="405.7184,-102.669 395.3669,-100.4113 402.0512,-108.6315 405.7184,-102.669"/>
</g>
<!-- &#45;6&#45;&gt;178 -->
<g id="edge26" class="edge">
<title>&#45;6&#45;&gt;178</title>
<path fill="none" stroke="#00ff00" stroke-width=".345" d="M618.7763,-147.1756C615.9495,-146.0009 612.9146,-144.8949 610,-144.1249 471.201,-107.4558 423.1764,-159.1786 289,-108.1249 287.3605,-107.5011 285.727,-106.7665 284.1172,-105.9521"/>
<polygon fill="#00ff00" stroke="#00ff00" stroke-width=".345" points="285.6515,-102.7905 275.279,-100.6315 282.0412,-108.7877 285.6515,-102.7905"/>
</g>
<!-- &#45;6&#45;&gt;179 -->
<g id="edge27" class="edge">
<title>&#45;6&#45;&gt;179</title>
<path fill="none" stroke="#ff0000" stroke-width=".334" d="M618.7615,-147.2304C615.9354,-146.0528 612.9046,-144.9318 610,-144.1249 497.1747,-112.7806 457.9061,-151.1534 349,-108.1249 347.3685,-107.4803 345.7414,-106.7294 344.1365,-105.9025"/>
<polygon fill="#ff0000" stroke="#ff0000" stroke-width=".334" points="345.6767,-102.7431 335.3122,-100.5459 342.0443,-108.7269 345.6767,-102.7431"/>
</g>
<!-- &#45;6&#45;&gt;180 -->
<g id="edge28" class="edge">
<title>&#45;6&#45;&gt;180</title>
<path fill="none" stroke="#ff0000" stroke-width=".4161" d="M618.6319,-147.6248C615.8125,-146.4269 612.8172,-145.1978 610,-144.1249 561.3493,-125.5967 503.7474,-106.9976 469.353,-96.2382"/>
<polygon fill="#ff0000" stroke="#ff0000" stroke-width=".4161" points="470.0479,-92.7889 459.4596,-93.1595 467.968,-99.4728 470.0479,-92.7889"/>
</g>
<!-- &#45;6&#45;&gt;181 -->
<g id="edge29" class="edge">
<title>&#45;6&#45;&gt;181</title>
<path fill="none" stroke="#ff0000" stroke-width=".2871" d="M618.7861,-147.1378C615.9588,-145.9651 612.9212,-144.8694 610,-144.1249 445.1811,-102.1187 388.4912,-167.2208 229,-108.1249 227.3551,-107.5154 225.7174,-106.7921 224.1044,-105.9864"/>
<polygon fill="#ff0000" stroke="#ff0000" stroke-width=".2871" points="225.6347,-102.8234 215.2568,-100.6907 222.0397,-108.8297 225.6347,-102.8234"/>
</g>
<!-- &#45;7 -->
<g id="node7" class="node">
<title>&#45;7</title>
<polygon fill="#d3d3d3" stroke="#000000" points="475,-162.1249 451,-162.1249 451,-144.1249 475,-144.1249 475,-162.1249"/>
<text text-anchor="middle" x="463" y="-150.9249" font-family="Times,serif" font-size="9.00" fill="#000000">&#45;7</text>
</g>
<!-- &#45;7&#45;&gt;176 -->
<g id="edge30" class="edge">
<title>&#45;7&#45;&gt;176</title>
<path fill="none" stroke="#00ff00" stroke-width=".3086" stroke-dasharray="1,5" d="M451.3202,-143.9182C439.1486,-134.324 419.7026,-118.9956 404.0393,-106.6489"/>
<polygon fill="#00ff00" stroke="#00ff00" stroke-width=".3086" points="405.817,-103.5936 395.7968,-100.1518 401.4836,-109.0911 405.817,-103.5936"/>
</g>
<!-- &#45;7&#45;&gt;178 -->
<g id="edge31" class="edge">
<title>&#45;7&#45;&gt;178</title>
<path fill="none" stroke="#00ff00" stroke-width=".1787" d="M450.7005,-147.4315C447.8775,-146.2435 444.8634,-145.0674 442,-144.1249 375.6453,-122.2835 352.6917,-136.8192 289,-108.1249 287.4406,-107.4224 285.8788,-106.6343 284.3321,-105.7863"/>
<polygon fill="#00ff00" stroke="#00ff00" stroke-width=".1787" points="286.1019,-102.7653 275.7625,-100.4528 282.4031,-108.7083 286.1019,-102.7653"/>
</g>
<!-- &#45;7&#45;&gt;179 -->
<g id="edge32" class="edge">
<title>&#45;7&#45;&gt;179</title>
<path fill="none" stroke="#ff0000" stroke-width=".4363" d="M450.5938,-147.7215C447.7764,-146.5185 444.7915,-145.2629 442,-144.1249 400.9576,-127.3926 388.0565,-129.0781 349,-108.1249 347.4929,-107.3163 345.9723,-106.4444 344.4577,-105.5314"/>
<polygon fill="#ff0000" stroke="#ff0000" stroke-width=".4363" points="346.2713,-102.5356 335.983,-100.0055 342.4479,-108.3992 346.2713,-102.5356"/>
</g>
<!-- &#45;7&#45;&gt;180 -->
<g id="edge33" class="edge">
<title>&#45;7&#45;&gt;180</title>
<path fill="none" stroke="#00ff00" stroke-width=".1434" d="M459.6629,-143.9182C457.074,-136.7758 453.3333,-126.4556 449.7441,-116.5534"/>
<polygon fill="#00ff00" stroke="#00ff00" stroke-width=".1434" points="452.952,-115.1325 446.2537,-106.9238 446.371,-117.518 452.952,-115.1325"/>
</g>
<!-- &#45;7&#45;&gt;181 -->
<g id="edge34" class="edge">
<title>&#45;7&#45;&gt;181</title>
<path fill="none" stroke="#00ff00" stroke-width=".4398" d="M450.7428,-147.2956C447.9177,-146.1147 444.892,-144.9758 442,-144.1249 349.895,-117.0241 317.7466,-144.7557 229,-108.1249 227.3785,-107.4556 225.7592,-106.6853 224.1603,-105.8435"/>
<polygon fill="#00ff00" stroke="#00ff00" stroke-width=".4398" points="225.708,-102.687 215.3533,-100.444 222.0493,-108.6547 225.708,-102.687"/>
</g>
<!-- &#45;8 -->
<g id="node8" class="node">
<title>&#45;8</title>
<polygon fill="#d3d3d3" stroke="#000000" points="601,-162.1249 577,-162.1249 577,-144.1249 601,-144.1249 601,-162.1249"/>
<text text-anchor="middle" x="589" y="-150.9249" font-family="Times,serif" font-size="9.00" fill="#000000">&#45;8</text>
</g>
<!-- &#45;8&#45;&gt;176 -->
<g id="edge35" class="edge">
<title>&#45;8&#45;&gt;176</title>
<path fill="none" stroke="#00ff00" stroke-width=".3563" d="M576.7063,-147.4136C573.8831,-146.2266 570.8674,-145.0553 568,-144.1249 499.0823,-121.7613 475.1856,-137.6078 409,-108.1249 407.4377,-107.4289 405.8735,-106.6461 404.325,-105.8021"/>
<polygon fill="#00ff00" stroke="#00ff00" stroke-width=".3563" points="406.0924,-102.7798 395.7501,-100.4806 402.4013,-108.7275 406.0924,-102.7798"/>
</g>
<!-- &#45;8&#45;&gt;178 -->
<g id="edge36" class="edge">
<title>&#45;8&#45;&gt;178</title>
<path fill="none" stroke="#ff0000" stroke-width=".4046" d="M576.7667,-147.2115C573.9403,-146.035 570.9081,-144.9191 568,-144.1249 447.3892,-111.185 405.4808,-153.5585 289,-108.1249 287.3657,-107.4874 285.7364,-106.7422 284.1298,-105.9196"/>
<polygon fill="#ff0000" stroke="#ff0000" stroke-width=".4046" points="285.6679,-102.7594 275.3006,-100.5753 282.0431,-108.7478 285.6679,-102.7594"/>
</g>
<!-- &#45;8&#45;&gt;179 -->
<g id="edge37" class="edge">
<title>&#45;8&#45;&gt;179</title>
<path fill="none" stroke="#ff0000" stroke-width=".5" d="M576.7457,-147.286C573.9204,-146.1056 570.8939,-144.9693 568,-144.1249 473.3091,-116.4949 440.2625,-145.5538 349,-108.1249 347.377,-107.4593 345.7565,-106.6918 344.1567,-105.8522"/>
<polygon fill="#ff0000" stroke="#ff0000" stroke-width=".5" points="345.7033,-102.6953 335.3471,-100.4591 342.0485,-108.6654 345.7033,-102.6953"/>
</g>
<!-- &#45;8&#45;&gt;180 -->
<g id="edge38" class="edge">
<title>&#45;8&#45;&gt;180</title>
<path fill="none" stroke="#ff0000" stroke-width=".2173" stroke-dasharray="1,5" d="M576.9784,-147.8183C553.4404,-137.4281 500.6953,-114.1453 467.6647,-99.5649"/>
<polygon fill="#ff0000" stroke="#ff0000" stroke-width=".2173" points="469.0683,-96.3587 458.5065,-95.5223 466.2415,-102.7625 469.0683,-96.3587"/>
</g>
<!-- &#45;9 -->
<g id="node9" class="node">
<title>&#45;9</title>
<polygon fill="#d3d3d3" stroke="#000000" points="517,-162.1249 493,-162.1249 493,-144.1249 517,-144.1249 517,-162.1249"/>
<text text-anchor="middle" x="505" y="-150.9249" font-family="Times,serif" font-size="9.00" fill="#000000">&#45;9</text>
</g>
<!-- &#45;9&#45;&gt;176 -->
<g id="edge39" class="edge">
<title>&#45;9&#45;&gt;176</title>
<path fill="none" stroke="#ff0000" stroke-width=".1087" d="M492.8638,-147.7597C470.6369,-137.8803 424.2739,-117.0108 409,-108.1249 407.5216,-107.2648 406.0239,-106.3522 404.527,-105.4075"/>
<polygon fill="#ff0000" stroke="#ff0000" stroke-width=".1087" points="406.3655,-102.4267 396.1044,-99.7881 402.4805,-108.2496 406.3655,-102.4267"/>
</g>
<!-- &#45;9&#45;&gt;178 -->
<g id="edge40" class="edge">
<title>&#45;9&#45;&gt;178</title>
<path fill="none" stroke="#00ff00" stroke-width=".1105" d="M492.7332,-147.328C489.9085,-146.1455 486.8855,-144.9977 484,-144.1249 399.6433,-118.6091 370.2078,-142.3652 289,-108.1249 287.424,-107.4604 285.8491,-106.7024 284.2922,-105.8778"/>
<polygon fill="#00ff00" stroke="#00ff00" stroke-width=".1105" points="286.0487,-102.8493 275.6925,-100.6133 282.394,-108.8195 286.0487,-102.8493"/>
</g>
<!-- &#45;9&#45;&gt;179 -->
<g id="edge41" class="edge">
<title>&#45;9&#45;&gt;179</title>
<path fill="none" stroke="#00ff00" stroke-width=".1283" d="M492.6794,-147.494C489.8576,-146.3028 486.8492,-145.1096 484,-144.1249 425.3094,-123.8416 405.2338,-134.4642 349,-108.1249 347.4511,-107.3994 345.8976,-106.5932 344.3575,-105.7311"/>
<polygon fill="#00ff00" stroke="#00ff00" stroke-width=".1283" points="346.1359,-102.715 335.807,-100.356 342.4104,-108.6413 346.1359,-102.715"/>
</g>
<!-- &#45;9&#45;&gt;180 -->
<g id="edge42" class="edge">
<title>&#45;9&#45;&gt;180</title>
<path fill="none" stroke="#ff0000" stroke-width=".1724" d="M495.823,-143.9182C486.9901,-135.0569 473.2816,-121.304 461.5422,-109.5267"/>
<polygon fill="#ff0000" stroke="#ff0000" stroke-width=".1724" points="463.7217,-106.7555 454.1832,-102.1439 458.764,-111.6973 463.7217,-106.7555"/>
</g>
<!-- &#45;9&#45;&gt;181 -->
<g id="edge43" class="edge">
<title>&#45;9&#45;&gt;181</title>
<path fill="none" stroke="#00ff00" stroke-width=".2104" d="M492.7596,-147.2372C489.9336,-146.0593 486.9033,-144.9364 484,-144.1249 373.7684,-113.3121 335.3827,-150.3523 229,-108.1249 227.3696,-107.4777 225.7432,-106.7248 224.1389,-105.8963"/>
<polygon fill="#00ff00" stroke="#00ff00" stroke-width=".2104" points="225.6799,-102.7372 215.3164,-100.5352 222.0448,-108.7193 225.6799,-102.7372"/>
</g>
<!-- &#45;10 -->
<g id="node10" class="node">
<title>&#45;10</title>
<polygon fill="#d3d3d3" stroke="#000000" points="71.5,-162.1249 42.5,-162.1249 42.5,-144.1249 71.5,-144.1249 71.5,-162.1249"/>
<text text-anchor="middle" x="57" y="-150.9249" font-family="Times,serif" font-size="9.00" fill="#000000">&#45;10</text>
</g>
<!-- &#45;10&#45;&gt;176 -->
<g id="edge44" class="edge">
<title>&#45;10&#45;&gt;176</title>
<path fill="none" stroke="#00ff00" stroke-width=".1437" d="M71.9228,-146.6904C74.5772,-145.7178 77.3431,-144.8118 80,-144.1249 196.7812,-113.9307 236.7281,-152.222 349,-108.1249 350.6328,-107.4836 352.2609,-106.7353 353.8666,-105.9103"/>
<polygon fill="#00ff00" stroke="#00ff00" stroke-width=".1437" points="355.9562,-108.7365 362.6932,-100.5595 352.3274,-102.7506 355.9562,-108.7365"/>
</g>
<!-- &#45;10&#45;&gt;178 -->
<g id="edge45" class="edge">
<title>&#45;10&#45;&gt;178</title>
<path fill="none" stroke="#ff0000" stroke-width=".188" d="M71.9891,-146.9219C74.6362,-145.9236 77.3824,-144.949 80,-144.1249 144.9828,-123.6648 166.9689,-136.2944 229,-108.1249 230.5573,-107.4177 232.1175,-106.6259 233.6628,-105.7751"/>
<polygon fill="#ff0000" stroke="#ff0000" stroke-width=".188" points="235.5955,-108.6947 242.2286,-100.4332 231.8913,-102.7551 235.5955,-108.6947"/>
</g>
<!-- &#45;10&#45;&gt;179 -->
<g id="edge46" class="edge">
<title>&#45;10&#45;&gt;179</title>
<path fill="none" stroke="#ff0000" stroke-width=".3134" d="M71.9453,-146.7743C74.5972,-145.7924 77.3565,-144.8616 80,-144.1249 170.797,-118.8219 201.9299,-144.224 289,-108.1249 290.6204,-107.4531 292.2389,-106.6808 293.8372,-105.8374"/>
<polygon fill="#ff0000" stroke="#ff0000" stroke-width=".3134" points="295.9501,-108.6473 302.6423,-100.4335 292.2886,-102.6812 295.9501,-108.6473"/>
</g>
<!-- &#45;10&#45;&gt;180 -->
<g id="edge47" class="edge">
<title>&#45;10&#45;&gt;180</title>
<path fill="none" stroke="#ff0000" stroke-width=".4541" d="M71.9092,-146.6364C74.5651,-145.6698 77.3351,-144.7798 80,-144.1249 222.8443,-109.0188 271.4504,-160.2501 409,-108.1249 410.6404,-107.5033 412.2745,-106.7704 413.8848,-105.9574"/>
<polygon fill="#ff0000" stroke="#ff0000" stroke-width=".4541" points="415.959,-108.7941 422.7245,-100.6406 412.3511,-102.7956 415.959,-108.7941"/>
</g>
<!-- &#45;10&#45;&gt;181 -->
<g id="edge48" class="edge">
<title>&#45;10&#45;&gt;181</title>
<path fill="none" stroke="#00ff00" stroke-width=".5" d="M71.6617,-146.2883C94.9361,-135.4356 140.7532,-114.0716 170.612,-100.1487"/>
<polygon fill="#00ff00" stroke="#00ff00" stroke-width=".5" points="172.1128,-103.3108 179.6968,-95.9126 169.1546,-96.9666 172.1128,-103.3108"/>
</g>
<!-- &#45;11 -->
<g id="node11" class="node">
<title>&#45;11</title>
<polygon fill="#d3d3d3" stroke="#000000" points="118.5,-162.1249 89.5,-162.1249 89.5,-144.1249 118.5,-144.1249 118.5,-162.1249"/>
<text text-anchor="middle" x="104" y="-150.9249" font-family="Times,serif" font-size="9.00" fill="#000000">&#45;11</text>
</g>
<!-- &#45;11&#45;&gt;176 -->
<g id="edge49" class="edge">
<title>&#45;11&#45;&gt;176</title>
<path fill="none" stroke="#00ff00" stroke-width=".3097" d="M118.9393,-146.7524C121.5919,-145.773 124.3529,-144.8486 127,-144.1249 223.4171,-117.7648 256.479,-145.9531 349,-108.1249 350.6237,-107.461 352.2448,-106.695 353.845,-105.8564"/>
<polygon fill="#00ff00" stroke="#00ff00" stroke-width=".3097" points="355.9519,-108.6705 362.6558,-100.4664 352.299,-102.6992 355.9519,-108.6705"/>
</g>
<!-- &#45;11&#45;&gt;178 -->
<g id="edge50" class="edge">
<title>&#45;11&#45;&gt;178</title>
<path fill="none" stroke="#00ff00" stroke-width=".385" d="M118.5723,-147.3374C121.3634,-146.253 124.2672,-145.1415 127,-144.1249 172.0574,-127.3634 186.3007,-130.2129 229,-108.1249 230.5191,-107.3391 232.0491,-106.4851 233.571,-105.586"/>
<polygon fill="#00ff00" stroke="#00ff00" stroke-width=".385" points="235.5641,-108.4653 242.0676,-100.1014 231.7677,-102.5842 235.5641,-108.4653"/>
</g>
<!-- &#45;11&#45;&gt;179 -->
<g id="edge51" class="edge">
<title>&#45;11&#45;&gt;179</title>
<path fill="none" stroke="#ff0000" stroke-width=".4095" stroke-dasharray="1,5" d="M118.9765,-146.8812C121.6249,-145.8874 124.375,-144.9249 127,-144.1249 197.5525,-122.6225 221.5662,-138.0027 289,-108.1249 290.5637,-107.4321 292.129,-106.6516 293.6783,-105.8096"/>
<polygon fill="#ff0000" stroke="#ff0000" stroke-width=".4095" points="295.5995,-108.7366 302.2558,-100.4937 291.912,-102.7866 295.5995,-108.7366"/>
</g>
<!-- &#45;11&#45;&gt;180 -->
<g id="edge52" class="edge">
<title>&#45;11&#45;&gt;180</title>
<path fill="none" stroke="#ff0000" stroke-width=".1836" d="M118.9193,-146.6768C121.5741,-145.7057 124.3411,-144.8038 127,-144.1249 249.4232,-112.8677 291.2561,-153.9596 409,-108.1249 410.6347,-107.4885 412.2644,-106.7441 413.8713,-105.9222"/>
<polygon fill="#ff0000" stroke="#ff0000" stroke-width=".1836" points="415.957,-108.751 422.7012,-100.5799 412.3334,-102.7619 415.957,-108.751"/>
</g>
<!-- &#45;11&#45;&gt;181 -->
<g id="edge53" class="edge">
<title>&#45;11&#45;&gt;181</title>
<path fill="none" stroke="#00ff00" stroke-width=".1578" d="M117.2093,-143.9182C131.5802,-133.902 154.9177,-117.6362 172.9932,-105.0379"/>
<polygon fill="#00ff00" stroke="#00ff00" stroke-width=".1578" points="175.179,-107.7808 181.3816,-99.1914 171.1764,-102.038 175.179,-107.7808"/>
</g>
<!-- &#45;12 -->
<g id="node12" class="node">
<title>&#45;12</title>
<polygon fill="#d3d3d3" stroke="#000000" points="165.5,-162.1249 136.5,-162.1249 136.5,-144.1249 165.5,-144.1249 165.5,-162.1249"/>
<text text-anchor="middle" x="151" y="-150.9249" font-family="Times,serif" font-size="9.00" fill="#000000">&#45;12</text>
</g>
<!-- &#45;12&#45;&gt;176 -->
<g id="edge54" class="edge">
<title>&#45;12&#45;&gt;176</title>
<path fill="none" stroke="#ff0000" stroke-width=".1712" d="M165.966,-146.8462C168.6156,-145.8563 171.3687,-144.9042 174,-144.1249 250.1374,-121.5756 276.1488,-139.7174 349,-108.1249 350.5691,-107.4444 352.1387,-106.6738 353.6913,-105.8393"/>
<polygon fill="#ff0000" stroke="#ff0000" stroke-width=".1712" points="355.6026,-108.7728 362.2786,-100.5459 351.9294,-102.8139 355.6026,-108.7728"/>
</g>
<!-- &#45;12&#45;&gt;178 -->
<g id="edge55" class="edge">
<title>&#45;12&#45;&gt;178</title>
<path fill="none" stroke="#00ff00" stroke-width=".4936" d="M165.614,-145.2223C181.4679,-136.5277 207.4057,-121.9472 229,-108.1249 230.4405,-107.2028 231.9084,-106.2412 233.382,-105.2584"/>
<polygon fill="#00ff00" stroke="#00ff00" stroke-width=".4936" points="235.4704,-108.0702 241.7359,-99.5266 231.51,-102.2983 235.4704,-108.0702"/>
</g>
<!-- &#45;12&#45;&gt;179 -->
<g id="edge56" class="edge">
<title>&#45;12&#45;&gt;179</title>
<path fill="none" stroke="#ff0000" stroke-width=".5" d="M165.5434,-147.2577C168.3372,-146.1807 171.2494,-145.0923 174,-144.1249 224.5234,-126.3561 240.9966,-131.874 289,-108.1249 290.533,-107.3665 292.0739,-106.5342 293.6044,-105.6519"/>
<polygon fill="#ff0000" stroke="#ff0000" stroke-width=".5" points="295.5769,-108.5452 302.1261,-100.217 291.8128,-102.6433 295.5769,-108.5452"/>
</g>
<!-- &#45;12&#45;&gt;180 -->
<g id="edge57" class="edge">
<title>&#45;12&#45;&gt;180</title>
<path fill="none" stroke="#ff0000" stroke-width=".5" d="M165.934,-146.7328C168.5871,-145.7556 171.3498,-144.837 174,-144.1249 276.0433,-116.706 311.0221,-147.6846 409,-108.1249 410.6266,-107.4681 412.2499,-106.7077 413.8519,-105.8734"/>
<polygon fill="#ff0000" stroke="#ff0000" stroke-width=".5" points="415.9534,-108.6913 422.6678,-100.4957 412.308,-102.7154 415.9534,-108.6913"/>
</g>
<!-- &#45;12&#45;&gt;181 -->
<g id="edge58" class="edge">
<title>&#45;12&#45;&gt;181</title>
<path fill="none" stroke="#00ff00" stroke-width=".236" d="M157.6742,-143.9182C163.5861,-135.7631 172.5013,-123.4651 180.5396,-112.3768"/>
<polygon fill="#00ff00" stroke="#00ff00" stroke-width=".236" points="183.4156,-114.3726 186.4513,-104.2219 177.7482,-110.2641 183.4156,-114.3726"/>
</g>
<!-- &#45;13 -->
<g id="node13" class="node">
<title>&#45;13</title>
<polygon fill="#d3d3d3" stroke="#000000" points="212.5,-162.1249 183.5,-162.1249 183.5,-144.1249 212.5,-144.1249 212.5,-162.1249"/>
<text text-anchor="middle" x="198" y="-150.9249" font-family="Times,serif" font-size="9.00" fill="#000000">&#45;13</text>
</g>
<!-- &#45;13&#45;&gt;176 -->
<g id="edge59" class="edge">
<title>&#45;13&#45;&gt;176</title>
<path fill="none" stroke="#ff0000" stroke-width=".4662" d="M212.5211,-147.1925C215.3169,-146.1216 218.2356,-145.052 221,-144.1249 277.0292,-125.3347 295.6548,-133.5539 349,-108.1249 350.5439,-107.3889 352.0935,-106.5744 353.6306,-105.7059"/>
<polygon fill="#ff0000" stroke="#ff0000" stroke-width=".4662" points="355.5859,-108.6107 362.1721,-100.3118 351.8481,-102.6921 355.5859,-108.6107"/>
</g>
<!-- &#45;13&#45;&gt;178 -->
<g id="edge60" class="edge">
<title>&#45;13&#45;&gt;178</title>
<path fill="none" stroke="#00ff00" stroke-width=".3082" d="M206.4818,-143.9182C214.4613,-135.2567 226.7462,-121.9219 237.4286,-110.3266"/>
<polygon fill="#00ff00" stroke="#00ff00" stroke-width=".3082" points="240.294,-112.3819 244.4955,-102.6558 235.1457,-107.639 240.294,-112.3819"/>
</g>
<!-- &#45;13&#45;&gt;179 -->
<g id="edge61" class="edge">
<title>&#45;13&#45;&gt;179</title>
<path fill="none" stroke="#00ff00" stroke-width=".3413" d="M212.5516,-146.7815C230.831,-138.6217 262.9579,-123.642 289,-108.1249 290.4693,-107.2494 291.9599,-106.3246 293.4512,-105.3705"/>
<polygon fill="#00ff00" stroke="#00ff00" stroke-width=".3413" points="295.5084,-108.205 301.8573,-99.7231 291.6048,-102.3945 295.5084,-108.205"/>
</g>
<!-- &#45;13&#45;&gt;180 -->
<g id="edge62" class="edge">
<title>&#45;13&#45;&gt;180</title>
<path fill="none" stroke="#00ff00" stroke-width=".215" d="M212.9571,-146.8158C215.6077,-145.8293 218.3635,-144.8862 221,-144.1249 302.7348,-120.5249 330.7197,-141.4374 409,-108.1249 410.5738,-107.4552 412.147,-106.693 413.7024,-105.8652"/>
<polygon fill="#00ff00" stroke="#00ff00" stroke-width=".215" points="415.605,-108.8042 422.2981,-100.5913 411.9442,-102.8377 415.605,-108.8042"/>
</g>
<!-- &#45;13&#45;&gt;181 -->
<g id="edge63" class="edge">
<title>&#45;13&#45;&gt;181</title>
<path fill="none" stroke="#00ff00" stroke-width=".2414" d="M198.139,-143.9182C198.2396,-137.2572 198.382,-127.8323 198.522,-118.5602"/>
<polygon fill="#00ff00" stroke="#00ff00" stroke-width=".2414" points="202.0253,-118.3638 198.6768,-108.3121 195.0261,-118.258 202.0253,-118.3638"/>
</g>
<!-- &#45;14 -->
<g id="node14" class="node">
<title>&#45;14</title>
<polygon fill="#d3d3d3" stroke="#000000" points="259.5,-162.1249 230.5,-162.1249 230.5,-144.1249 259.5,-144.1249 259.5,-162.1249"/>
<text text-anchor="middle" x="245" y="-150.9249" font-family="Times,serif" font-size="9.00" fill="#000000">&#45;14</text>
</g>
<!-- &#45;14&#45;&gt;176 -->
<g id="edge64" class="edge">
<title>&#45;14&#45;&gt;176</title>
<path fill="none" stroke="#00ff00" stroke-width=".3471" d="M259.7028,-147.204C284.3472,-137.2062 332.8778,-117.1837 349,-108.1249 350.4911,-107.2871 351.9989,-106.3921 353.5036,-105.461"/>
<polygon fill="#00ff00" stroke="#00ff00" stroke-width=".3471" points="355.5345,-108.3142 361.9493,-99.882 351.6762,-102.4735 355.5345,-108.3142"/>
</g>
<!-- &#45;14&#45;&gt;178 -->
<g id="edge65" class="edge">
<title>&#45;14&#45;&gt;178</title>
<path fill="none" stroke="#ff0000" stroke-width=".2116" d="M246.9466,-143.9182C248.3922,-137.0812 250.4535,-127.3323 252.4636,-117.8256"/>
<polygon fill="#ff0000" stroke="#ff0000" stroke-width=".2116" points="255.9487,-118.2618 254.5931,-107.754 249.1001,-116.8137 255.9487,-118.2618"/>
</g>
<!-- &#45;14&#45;&gt;179 -->
<g id="edge66" class="edge">
<title>&#45;14&#45;&gt;179</title>
<path fill="none" stroke="#ff0000" stroke-width=".1437" d="M255.2894,-143.9182C265.6471,-134.6504 281.9845,-120.0322 295.5218,-107.9193"/>
<polygon fill="#ff0000" stroke="#ff0000" stroke-width=".1437" points="297.984,-110.4128 303.1024,-101.1364 293.3163,-105.1962 297.984,-110.4128"/>
</g>
<!-- &#45;14&#45;&gt;180 -->
<g id="edge67" class="edge">
<title>&#45;14&#45;&gt;180</title>
<path fill="none" stroke="#ff0000" stroke-width=".3905" d="M259.5032,-147.1383C262.3008,-146.0724 265.2245,-145.0185 268,-144.1249 329.5647,-124.3033 350.2846,-135.2472 409,-108.1249 410.5527,-107.4077 412.1092,-106.608 413.6518,-105.751"/>
<polygon fill="#ff0000" stroke="#ff0000" stroke-width=".3905" points="415.5924,-108.6654 422.2092,-100.3908 411.8765,-102.733 415.5924,-108.6654"/>
</g>
<!-- &#45;14&#45;&gt;181 -->
<g id="edge68" class="edge">
<title>&#45;14&#45;&gt;181</title>
<path fill="none" stroke="#ff0000" stroke-width=".4777" d="M238.6039,-143.9182C233.0328,-135.8991 224.6788,-123.8742 217.0774,-112.9326"/>
<polygon fill="#ff0000" stroke="#ff0000" stroke-width=".4777" points="219.7901,-110.7029 211.2102,-104.4872 214.0413,-114.6968 219.7901,-110.7029"/>
</g>
<!-- &#45;15 -->
<g id="node15" class="node">
<title>&#45;15</title>
<polygon fill="#d3d3d3" stroke="#000000" points="306.5,-162.1249 277.5,-162.1249 277.5,-144.1249 306.5,-144.1249 306.5,-162.1249"/>
<text text-anchor="middle" x="292" y="-150.9249" font-family="Times,serif" font-size="9.00" fill="#000000">&#45;15</text>
</g>
<!-- &#45;15&#45;&gt;176 -->
<g id="edge69" class="edge">
<title>&#45;15&#45;&gt;176</title>
<path fill="none" stroke="#00ff00" stroke-width=".5" d="M304.097,-143.9182C316.8995,-134.1746 337.4726,-118.517 353.8212,-106.0745"/>
<polygon fill="#00ff00" stroke="#00ff00" stroke-width=".5" points="356.084,-108.7508 361.9219,-99.9094 351.8447,-103.1805 356.084,-108.7508"/>
</g>
<!-- &#45;15&#45;&gt;178 -->
<g id="edge70" class="edge">
<title>&#45;15&#45;&gt;178</title>
<path fill="none" stroke="#00ff00" stroke-width=".1784" d="M287.4115,-143.9182C283.6963,-136.4638 278.2559,-125.5478 273.1277,-115.2583"/>
<polygon fill="#00ff00" stroke="#00ff00" stroke-width=".1784" points="276.1575,-113.491 268.5644,-106.1022 269.8925,-116.6135 276.1575,-113.491"/>
</g>
<!-- &#45;15&#45;&gt;179 -->
<g id="edge71" class="edge">
<title>&#45;15&#45;&gt;179</title>
<path fill="none" stroke="#ff0000" stroke-width=".3155" stroke-dasharray="1,5" d="M295.7542,-143.9182C298.719,-136.6476 303.0266,-126.084 307.1302,-116.0204"/>
<polygon fill="#ff0000" stroke="#ff0000" stroke-width=".3155" points="310.4166,-117.2303 310.9517,-106.6489 303.9348,-114.5871 310.4166,-117.2303"/>
</g>
<!-- &#45;15&#45;&gt;180 -->
<g id="edge72" class="edge">
<title>&#45;15&#45;&gt;180</title>
<path fill="none" stroke="#ff0000" stroke-width=".3742" d="M306.5644,-147.6333C336.858,-136.1957 404.2508,-110.6662 409,-108.1249 410.508,-107.318 412.0292,-106.4474 413.5444,-105.5353"/>
<polygon fill="#ff0000" stroke="#ff0000" stroke-width=".3742" points="415.553,-108.4039 422.0207,-100.0123 411.7316,-102.539 415.553,-108.4039"/>
</g>
<!-- &#45;15&#45;&gt;181 -->
<g id="edge73" class="edge">
<title>&#45;15&#45;&gt;181</title>
<path fill="none" stroke="#ff0000" stroke-width=".4483" d="M279.0687,-143.9182C265.0862,-133.9631 242.4325,-117.8343 224.7835,-105.2688"/>
<polygon fill="#ff0000" stroke="#ff0000" stroke-width=".4483" points="226.7576,-102.3779 216.5814,-99.4291 222.6977,-108.0802 226.7576,-102.3779"/>
</g>
<!-- 176&#45;&gt;0 -->
<g id="edge74" class="edge">
<title>176&#45;&gt;0</title>
<path fill="none" stroke="#00ff00" stroke-width=".2492" d="M361.7533,-74.2694C357.6293,-71.3717 353.2026,-68.362 349,-65.6985 326.5139,-51.4475 299.8682,-36.6387 281.4335,-26.7034"/>
<polygon fill="#00ff00" stroke="#00ff00" stroke-width=".2492" points="282.8301,-23.4813 272.3615,-21.8504 279.5282,-29.6536 282.8301,-23.4813"/>
</g>
<!-- 176&#45;&gt;1 -->
<g id="edge75" class="edge">
<title>176&#45;&gt;1</title>
<path fill="none" stroke="#00ff00" stroke-width=".3148" d="M370.8024,-67.2203C367.0822,-58.2841 362.6538,-47.6468 358.763,-38.3007"/>
<polygon fill="#00ff00" stroke="#00ff00" stroke-width=".3148" points="361.8855,-36.6945 354.811,-28.8077 355.4232,-39.3848 361.8855,-36.6945"/>
</g>
<!-- 178&#45;&gt;0 -->
<g id="edge76" class="edge">
<title>178&#45;&gt;0</title>
<path fill="none" stroke="#ff0000" stroke-width=".2582" d="M259,-65.6803C259,-57.713 259,-48.5771 259,-40.2679"/>
<polygon fill="#ff0000" stroke="#ff0000" stroke-width=".2582" points="262.5001,-39.9888 259,-29.9888 255.5001,-39.9889 262.5001,-39.9888"/>
</g>
<!-- 178&#45;&gt;1 -->
<g id="edge77" class="edge">
<title>178&#45;&gt;1</title>
<path fill="none" stroke="#ff0000" stroke-width=".2602" d="M275.9283,-73.3573C291.0514,-61.2483 313.2173,-43.5002 329.1664,-30.7298"/>
<polygon fill="#ff0000" stroke="#ff0000" stroke-width=".2602" points="331.6848,-33.1971 337.3033,-24.2147 327.3096,-27.7329 331.6848,-33.1971"/>
</g>
<!-- 179&#45;&gt;0 -->
<g id="edge78" class="edge">
<title>179&#45;&gt;0</title>
<path fill="none" stroke="#00ff00" stroke-width=".5" d="M305.3851,-70.5596C296.3707,-59.7329 284.5091,-45.4867 275.0375,-34.1109"/>
<polygon fill="#00ff00" stroke="#00ff00" stroke-width=".5" points="277.7263,-31.8703 268.638,-26.4248 272.3468,-36.3493 277.7263,-31.8703"/>
</g>
<!-- 179&#45;&gt;1 -->
<g id="edge79" class="edge">
<title>179&#45;&gt;1</title>
<path fill="none" stroke="#ff0000" stroke-width=".3053" d="M327.1976,-67.2203C330.9178,-58.2841 335.3462,-47.6468 339.237,-38.3007"/>
<polygon fill="#ff0000" stroke="#ff0000" stroke-width=".3053" points="342.5768,-39.3848 343.189,-28.8077 336.1145,-36.6945 342.5768,-39.3848"/>
</g>
<!-- 180&#45;&gt;1 -->
<g id="edge80" class="edge">
<title>180&#45;&gt;1</title>
<path fill="none" stroke="#00ff00" stroke-width=".3869" d="M422.0717,-73.3573C406.9486,-61.2483 384.7827,-43.5002 368.8336,-30.7298"/>
<polygon fill="#00ff00" stroke="#00ff00" stroke-width=".3869" points="370.6904,-27.7329 360.6967,-24.2147 366.3152,-33.1971 370.6904,-27.7329"/>
</g>
<!-- 181&#45;&gt;0 -->
<g id="edge81" class="edge">
<title>181&#45;&gt;0</title>
<path fill="none" stroke="#ff0000" stroke-width=".1503" d="M212.6149,-70.5596C221.6293,-59.7329 233.4909,-45.4867 242.9625,-34.1109"/>
<polygon fill="#ff0000" stroke="#ff0000" stroke-width=".1503" points="245.6532,-36.3493 249.362,-26.4248 240.2737,-31.8703 245.6532,-36.3493"/>
</g>
<!-- 181&#45;&gt;1 -->
<g id="edge82" class="edge">
<title>181&#45;&gt;1</title>
<path fill="none" stroke="#ff0000" stroke-width=".4349" d="M216.0374,-73.9176C220.1701,-71.0343 224.6531,-68.1194 229,-65.6985 260.9989,-47.8775 300.5105,-32.2626 325.2397,-23.1892"/>
<polygon fill="#ff0000" stroke="#ff0000" stroke-width=".4349" points="326.6502,-26.4012 334.8678,-19.7138 324.2735,-19.817 326.6502,-26.4012"/>
</g>
</g>
</svg>
