<?xml version="1.0" encoding="UTF-8" standalone="no"?>
<!DOCTYPE svg PUBLIC "-//W3C//DTD SVG 1.1//EN"
 "http://www.w3.org/Graphics/SVG/1.1/DTD/svg11.dtd">
<!-- Generated by graphviz version 2.40.1 (20161225.0304)
 -->
<!-- Title: %3 Pages: 1 -->
<svg width="652pt" height="170pt"
 viewBox="0.00 0.00 651.50 170.12" xmlns="http://www.w3.org/2000/svg" xmlns:xlink="http://www.w3.org/1999/xlink">
<g id="graph0" class="graph" transform="scale(1 1) rotate(0) translate(4 166.1249)">
<title>%3</title>
<polygon fill="#ffffff" stroke="transparent" points="-4,4 -4,-166.1249 647.5,-166.1249 647.5,4 -4,4"/>
<!-- &#45;1 -->
<g id="node1" class="node">
<title>&#45;1</title>
<polygon fill="#d3d3d3" stroke="#000000" points="114,-162.1249 90,-162.1249 90,-144.1249 114,-144.1249 114,-162.1249"/>
<text text-anchor="middle" x="102" y="-150.9249" font-family="Times,serif" font-size="9.00" fill="#000000">&#45;1</text>
</g>
<!-- 680 -->
<g id="node18" class="node">
<title>680</title>
<ellipse fill="#ffffff" stroke="#000000" cx="282" cy="-86.9117" rx="21.4286" ry="21.4286"/>
<text text-anchor="middle" x="282" y="-84.7117" font-family="Times,serif" font-size="9.00" fill="#000000">680</text>
</g>
<!-- &#45;1&#45;&gt;680 -->
<g id="edge1" class="edge">
<title>&#45;1&#45;&gt;680</title>
<path fill="none" stroke="#00ff00" stroke-width=".3688" d="M114.3291,-147.5184C117.1505,-146.3259 120.1565,-145.126 123,-144.1249 179.1459,-124.3575 198.2426,-133.6837 252,-108.1249 253.5446,-107.3905 255.0948,-106.5772 256.6324,-105.7097"/>
<polygon fill="#00ff00" stroke="#00ff00" stroke-width=".3688" points="258.5864,-108.6153 265.1753,-100.3184 254.8505,-102.6955 258.5864,-108.6153"/>
</g>
<!-- 682 -->
<g id="node19" class="node">
<title>682</title>
<ellipse fill="#ffffff" stroke="#000000" cx="342" cy="-86.9117" rx="21.4286" ry="21.4286"/>
<text text-anchor="middle" x="342" y="-84.7117" font-family="Times,serif" font-size="9.00" fill="#000000">682</text>
</g>
<!-- &#45;1&#45;&gt;682 -->
<g id="edge2" class="edge">
<title>&#45;1&#45;&gt;682</title>
<path fill="none" stroke="#00ff00" stroke-width=".2442" d="M114.2705,-147.3401C117.095,-146.1569 120.117,-145.0058 123,-144.1249 204.7776,-119.1363 233.3016,-141.5698 312,-108.1249 313.5741,-107.4559 315.1475,-106.6944 316.7032,-105.867"/>
<polygon fill="#00ff00" stroke="#00ff00" stroke-width=".2442" points="318.6051,-108.8065 325.2995,-100.5945 314.9452,-102.8394 318.6051,-108.8065"/>
</g>
<!-- 684 -->
<g id="node20" class="node">
<title>684</title>
<ellipse fill="#ffffff" stroke="#000000" cx="222" cy="-86.9117" rx="21.4286" ry="21.4286"/>
<text text-anchor="middle" x="222" y="-84.7117" font-family="Times,serif" font-size="9.00" fill="#000000">684</text>
</g>
<!-- &#45;1&#45;&gt;684 -->
<g id="edge3" class="edge">
<title>&#45;1&#45;&gt;684</title>
<path fill="none" stroke="#ff0000" stroke-width=".2695" d="M114.3901,-146.2883C133.0809,-135.9752 168.9748,-116.1697 194.151,-102.2781"/>
<polygon fill="#ff0000" stroke="#ff0000" stroke-width=".2695" points="196.1523,-105.1713 203.217,-97.2757 192.7705,-99.0424 196.1523,-105.1713"/>
</g>
<!-- 685 -->
<g id="node21" class="node">
<title>685</title>
<ellipse fill="#ffffff" stroke="#000000" cx="402" cy="-86.9117" rx="21.4286" ry="21.4286"/>
<text text-anchor="middle" x="402" y="-84.7117" font-family="Times,serif" font-size="9.00" fill="#000000">685</text>
</g>
<!-- &#45;1&#45;&gt;685 -->
<g id="edge4" class="edge">
<title>&#45;1&#45;&gt;685</title>
<path fill="none" stroke="#00ff00" stroke-width=".4425" d="M114.2424,-147.2444C117.0683,-146.0661 120.0981,-144.9413 123,-144.1249 230.6389,-113.8433 268.1398,-149.5516 372,-108.1249 373.6294,-107.475 375.2548,-106.7199 376.8585,-105.8898"/>
<polygon fill="#00ff00" stroke="#00ff00" stroke-width=".4425" points="378.9547,-108.7114 385.6791,-100.524 375.3167,-102.731 378.9547,-108.7114"/>
</g>
<!-- &#45;2 -->
<g id="node2" class="node">
<title>&#45;2</title>
<polygon fill="#d3d3d3" stroke="#000000" points="156,-162.1249 132,-162.1249 132,-144.1249 156,-144.1249 156,-162.1249"/>
<text text-anchor="middle" x="144" y="-150.9249" font-family="Times,serif" font-size="9.00" fill="#000000">&#45;2</text>
</g>
<!-- &#45;2&#45;&gt;680 -->
<g id="edge5" class="edge">
<title>&#45;2&#45;&gt;680</title>
<path fill="none" stroke="#ff0000" stroke-width=".31" stroke-dasharray="1,5" d="M156.4259,-147.769C159.2423,-146.5635 162.2218,-145.295 165,-144.1249 203.5655,-127.8825 215.3552,-128.3305 252,-108.1249 253.4977,-107.2991 255.0108,-106.4135 256.5197,-105.4898"/>
<polygon fill="#ff0000" stroke="#ff0000" stroke-width=".31" points="258.542,-108.349 264.9774,-99.9325 254.698,-102.4988 258.542,-108.349"/>
</g>
<!-- &#45;2&#45;&gt;682 -->
<g id="edge6" class="edge">
<title>&#45;2&#45;&gt;682</title>
<path fill="none" stroke="#ff0000" stroke-width=".4798" d="M156.3059,-147.4508C159.1285,-146.2618 162.1409,-145.0804 165,-144.1249 228.7956,-122.8043 250.7985,-136.0323 312,-108.1249 313.5562,-107.4153 315.1155,-106.6216 316.6602,-105.7693"/>
<polygon fill="#ff0000" stroke="#ff0000" stroke-width=".4798" points="318.5948,-108.6876 325.224,-100.423 314.8878,-102.7498 318.5948,-108.6876"/>
</g>
<!-- &#45;2&#45;&gt;684 -->
<g id="edge7" class="edge">
<title>&#45;2&#45;&gt;684</title>
<path fill="none" stroke="#ff0000" stroke-width=".1294" d="M154.8456,-143.9182C166.0065,-134.4439 183.7544,-119.3779 198.2022,-107.1133"/>
<polygon fill="#ff0000" stroke="#ff0000" stroke-width=".1294" points="200.468,-109.781 205.8265,-100.6412 195.9379,-104.4445 200.468,-109.781"/>
</g>
<!-- &#45;2&#45;&gt;685 -->
<g id="edge8" class="edge">
<title>&#45;2&#45;&gt;685</title>
<path fill="none" stroke="#ff0000" stroke-width=".2795" d="M156.2602,-147.3058C159.0852,-146.1244 162.11,-144.9827 165,-144.1249 254.5206,-117.553 285.7679,-143.9582 372,-108.1249 373.6199,-107.4518 375.238,-106.6784 376.8359,-105.8343"/>
<polygon fill="#ff0000" stroke="#ff0000" stroke-width=".2795" points="378.9498,-108.6434 385.6401,-100.4281 375.2869,-102.6782 378.9498,-108.6434"/>
</g>
<!-- &#45;3 -->
<g id="node3" class="node">
<title>&#45;3</title>
<polygon fill="#d3d3d3" stroke="#000000" points="198,-162.1249 174,-162.1249 174,-144.1249 198,-144.1249 198,-162.1249"/>
<text text-anchor="middle" x="186" y="-150.9249" font-family="Times,serif" font-size="9.00" fill="#000000">&#45;3</text>
</g>
<!-- &#45;3&#45;&gt;680 -->
<g id="edge9" class="edge">
<title>&#45;3&#45;&gt;680</title>
<path fill="none" stroke="#00ff00" stroke-width=".4621" d="M198.207,-144.8929C211.4861,-135.9168 233.3183,-121.0972 252,-108.1249 253.4049,-107.1494 254.8445,-106.1455 256.2963,-105.1299"/>
<polygon fill="#00ff00" stroke="#00ff00" stroke-width=".4621" points="258.4187,-107.9162 264.5855,-99.301 254.3922,-102.1902 258.4187,-107.9162"/>
</g>
<!-- &#45;3&#45;&gt;682 -->
<g id="edge10" class="edge">
<title>&#45;3&#45;&gt;682</title>
<path fill="none" stroke="#00ff00" stroke-width=".4346" d="M198.3741,-147.6403C201.1931,-146.4416 204.1868,-145.2082 207,-144.1249 253.0376,-126.3959 268.0807,-130.5942 312,-108.1249 313.5226,-107.3459 315.0554,-106.4974 316.5795,-105.6025"/>
<polygon fill="#00ff00" stroke="#00ff00" stroke-width=".4346" points="318.5675,-108.4853 325.0824,-100.1302 314.7792,-102.5989 318.5675,-108.4853"/>
</g>
<!-- &#45;3&#45;&gt;684 -->
<g id="edge11" class="edge">
<title>&#45;3&#45;&gt;684</title>
<path fill="none" stroke="#ff0000" stroke-width=".1459" d="M191.0056,-143.9182C195.1597,-136.2778 201.291,-125.0009 207.0061,-114.4893"/>
<polygon fill="#ff0000" stroke="#ff0000" stroke-width=".1459" points="210.1594,-116.0168 211.8612,-105.5595 204.0096,-112.6731 210.1594,-116.0168"/>
</g>
<!-- &#45;3&#45;&gt;685 -->
<g id="edge12" class="edge">
<title>&#45;3&#45;&gt;685</title>
<path fill="none" stroke="#00ff00" stroke-width=".3525" d="M198.2883,-147.3969C201.1118,-146.2107 204.129,-145.0441 207,-144.1249 278.4841,-121.2381 303.3172,-138.3979 372,-108.1249 373.5651,-107.4351 375.1314,-106.657 376.6815,-105.8169"/>
<polygon fill="#00ff00" stroke="#00ff00" stroke-width=".3525" points="378.6003,-108.7454 385.2614,-100.5064 374.9163,-102.7933 378.6003,-108.7454"/>
</g>
<!-- &#45;4 -->
<g id="node4" class="node">
<title>&#45;4</title>
<polygon fill="#d3d3d3" stroke="#000000" points="240,-162.1249 216,-162.1249 216,-144.1249 240,-144.1249 240,-162.1249"/>
<text text-anchor="middle" x="228" y="-150.9249" font-family="Times,serif" font-size="9.00" fill="#000000">&#45;4</text>
</g>
<!-- &#45;4&#45;&gt;680 -->
<g id="edge13" class="edge">
<title>&#45;4&#45;&gt;680</title>
<path fill="none" stroke="#00ff00" stroke-width=".5" d="M235.5085,-143.9182C242.3645,-135.5116 252.8108,-122.7026 262.0658,-111.3545"/>
<polygon fill="#00ff00" stroke="#00ff00" stroke-width=".5" points="264.918,-113.3949 268.5259,-103.4333 259.4933,-108.9708 264.918,-113.3949"/>
</g>
<!-- &#45;4&#45;&gt;682 -->
<g id="edge14" class="edge">
<title>&#45;4&#45;&gt;682</title>
<path fill="none" stroke="#00ff00" stroke-width=".2918" d="M240.2262,-147.1732C256.8169,-138.9631 287.2321,-123.4347 312,-108.1249 313.4548,-107.2256 314.934,-106.282 316.4165,-105.3132"/>
<polygon fill="#00ff00" stroke="#00ff00" stroke-width=".2918" points="318.4898,-108.1361 324.7963,-99.6227 314.5572,-102.3451 318.4898,-108.1361"/>
</g>
<!-- &#45;4&#45;&gt;684 -->
<g id="edge15" class="edge">
<title>&#45;4&#45;&gt;684</title>
<path fill="none" stroke="#ff0000" stroke-width=".2852" d="M227.1657,-143.9182C226.5621,-137.2572 225.7081,-127.8323 224.8679,-118.5602"/>
<polygon fill="#ff0000" stroke="#ff0000" stroke-width=".2852" points="228.3275,-117.9554 223.9392,-108.3121 221.3561,-118.5872 228.3275,-117.9554"/>
</g>
<!-- &#45;4&#45;&gt;685 -->
<g id="edge16" class="edge">
<title>&#45;4&#45;&gt;685</title>
<path fill="none" stroke="#00ff00" stroke-width=".4254" stroke-dasharray="1,5" d="M240.3385,-147.5449C243.1594,-146.3511 246.1629,-145.1439 249,-144.1249 302.6073,-124.8713 320.7131,-132.9059 372,-108.1249 373.54,-107.3808 375.0865,-106.5599 376.6212,-105.6863"/>
<polygon fill="#00ff00" stroke="#00ff00" stroke-width=".4254" points="378.5828,-108.587 385.1556,-100.2774 374.8355,-102.6744 378.5828,-108.587"/>
</g>
<!-- &#45;5 -->
<g id="node5" class="node">
<title>&#45;5</title>
<polygon fill="#d3d3d3" stroke="#000000" points="282,-162.1249 258,-162.1249 258,-144.1249 282,-144.1249 282,-162.1249"/>
<text text-anchor="middle" x="270" y="-150.9249" font-family="Times,serif" font-size="9.00" fill="#000000">&#45;5</text>
</g>
<!-- &#45;5&#45;&gt;680 -->
<g id="edge17" class="edge">
<title>&#45;5&#45;&gt;680</title>
<path fill="none" stroke="#ff0000" stroke-width=".5" d="M271.6685,-143.9182C272.8982,-137.1334 274.6475,-127.481 276.3579,-118.0433"/>
<polygon fill="#ff0000" stroke="#ff0000" stroke-width=".5" points="279.8327,-118.4965 278.1722,-108.0326 272.9449,-117.2482 279.8327,-118.4965"/>
</g>
<!-- &#45;5&#45;&gt;682 -->
<g id="edge18" class="edge">
<title>&#45;5&#45;&gt;682</title>
<path fill="none" stroke="#00ff00" stroke-width=".1623" d="M280.0113,-143.9182C289.9309,-134.7959 305.4873,-120.4897 318.5341,-108.4915"/>
<polygon fill="#00ff00" stroke="#00ff00" stroke-width=".1623" points="321.269,-110.7315 326.2605,-101.3862 316.5306,-105.5791 321.269,-110.7315"/>
</g>
<!-- &#45;5&#45;&gt;684 -->
<g id="edge19" class="edge">
<title>&#45;5&#45;&gt;684</title>
<path fill="none" stroke="#ff0000" stroke-width=".3429" d="M263.3258,-143.9182C257.4139,-135.7631 248.4987,-123.4651 240.4604,-112.3768"/>
<polygon fill="#ff0000" stroke="#ff0000" stroke-width=".3429" points="243.2518,-110.2641 234.5487,-104.2219 237.5844,-114.3726 243.2518,-110.2641"/>
</g>
<!-- &#45;5&#45;&gt;685 -->
<g id="edge20" class="edge">
<title>&#45;5&#45;&gt;685</title>
<path fill="none" stroke="#00ff00" stroke-width=".2852" d="M282.0511,-147.9692C307.2059,-137.1842 363.6642,-112.8478 372,-108.1249 373.4881,-107.2818 374.9935,-106.3826 376.4964,-105.4482"/>
<polygon fill="#00ff00" stroke="#00ff00" stroke-width=".2852" points="378.5311,-108.2988 384.9366,-99.8596 374.6664,-102.4623 378.5311,-108.2988"/>
</g>
<!-- &#45;6 -->
<g id="node6" class="node">
<title>&#45;6</title>
<polygon fill="#d3d3d3" stroke="#000000" points="324,-162.1249 300,-162.1249 300,-144.1249 324,-144.1249 324,-162.1249"/>
<text text-anchor="middle" x="312" y="-150.9249" font-family="Times,serif" font-size="9.00" fill="#000000">&#45;6</text>
</g>
<!-- &#45;6&#45;&gt;680 -->
<g id="edge21" class="edge">
<title>&#45;6&#45;&gt;680</title>
<path fill="none" stroke="#ff0000" stroke-width=".5" d="M307.8286,-143.9182C304.51,-136.5937 299.6773,-125.9273 295.0874,-115.7969"/>
<polygon fill="#ff0000" stroke="#ff0000" stroke-width=".5" points="298.1336,-114.0393 290.8185,-106.3751 291.7575,-116.9282 298.1336,-114.0393"/>
</g>
<!-- &#45;6&#45;&gt;682 -->
<g id="edge22" class="edge">
<title>&#45;6&#45;&gt;682</title>
<path fill="none" stroke="#ff0000" stroke-width=".1988" d="M316.1714,-143.9182C319.49,-136.5937 324.3227,-125.9273 328.9126,-115.7969"/>
<polygon fill="#ff0000" stroke="#ff0000" stroke-width=".1988" points="332.2425,-116.9282 333.1815,-106.3751 325.8664,-114.0393 332.2425,-116.9282"/>
</g>
<!-- &#45;6&#45;&gt;684 -->
<g id="edge23" class="edge">
<title>&#45;6&#45;&gt;684</title>
<path fill="none" stroke="#ff0000" stroke-width=".5" d="M299.8622,-144.1951C286.5423,-134.3956 264.7762,-118.3822 247.6389,-105.7743"/>
<polygon fill="#ff0000" stroke="#ff0000" stroke-width=".5" points="249.2974,-102.6493 239.1684,-99.5425 245.1492,-108.2878 249.2974,-102.6493"/>
</g>
<!-- &#45;6&#45;&gt;685 -->
<g id="edge24" class="edge">
<title>&#45;6&#45;&gt;685</title>
<path fill="none" stroke="#00ff00" stroke-width=".2837" d="M324.1378,-144.1951C337.4577,-134.3956 359.2238,-118.3822 376.3611,-105.7743"/>
<polygon fill="#00ff00" stroke="#00ff00" stroke-width=".2837" points="378.8508,-108.2878 384.8316,-99.5425 374.7026,-102.6493 378.8508,-108.2878"/>
</g>
<!-- &#45;7 -->
<g id="node7" class="node">
<title>&#45;7</title>
<polygon fill="#d3d3d3" stroke="#000000" points="24,-162.1249 0,-162.1249 0,-144.1249 24,-144.1249 24,-162.1249"/>
<text text-anchor="middle" x="12" y="-150.9249" font-family="Times,serif" font-size="9.00" fill="#000000">&#45;7</text>
</g>
<!-- &#45;7&#45;&gt;680 -->
<g id="edge25" class="edge">
<title>&#45;7&#45;&gt;680</title>
<path fill="none" stroke="#ff0000" stroke-width=".1447" d="M24.2543,-147.286C27.0796,-146.1056 30.1061,-144.9693 33,-144.1249 127.6909,-116.4949 160.7375,-145.5538 252,-108.1249 253.623,-107.4593 255.2435,-106.6918 256.8433,-105.8522"/>
<polygon fill="#ff0000" stroke="#ff0000" stroke-width=".1447" points="258.9515,-108.6654 265.6529,-100.4591 255.2967,-102.6953 258.9515,-108.6654"/>
</g>
<!-- &#45;7&#45;&gt;682 -->
<g id="edge26" class="edge">
<title>&#45;7&#45;&gt;682</title>
<path fill="none" stroke="#00ff00" stroke-width=".1774" d="M24.2333,-147.2115C27.0597,-146.035 30.0919,-144.9191 33,-144.1249 153.6108,-111.185 195.5192,-153.5585 312,-108.1249 313.6343,-107.4874 315.2636,-106.7422 316.8702,-105.9196"/>
<polygon fill="#00ff00" stroke="#00ff00" stroke-width=".1774" points="318.9569,-108.7478 325.6994,-100.5753 315.3321,-102.7594 318.9569,-108.7478"/>
</g>
<!-- &#45;7&#45;&gt;684 -->
<g id="edge27" class="edge">
<title>&#45;7&#45;&gt;684</title>
<path fill="none" stroke="#ff0000" stroke-width=".4769" d="M24.3455,-147.5642C27.1661,-146.3694 30.1676,-145.1569 33,-144.1249 88.0587,-124.0632 153.8518,-105.2851 191.4986,-95.0203"/>
<polygon fill="#ff0000" stroke="#ff0000" stroke-width=".4769" points="192.6002,-98.3482 201.3383,-92.3569 190.7712,-91.5914 192.6002,-98.3482"/>
</g>
<!-- &#45;8 -->
<g id="node8" class="node">
<title>&#45;8</title>
<polygon fill="#d3d3d3" stroke="#000000" points="366,-162.1249 342,-162.1249 342,-144.1249 366,-144.1249 366,-162.1249"/>
<text text-anchor="middle" x="354" y="-150.9249" font-family="Times,serif" font-size="9.00" fill="#000000">&#45;8</text>
</g>
<!-- &#45;8&#45;&gt;680 -->
<g id="edge28" class="edge">
<title>&#45;8&#45;&gt;680</title>
<path fill="none" stroke="#ff0000" stroke-width=".3759" stroke-dasharray="1,5" d="M343.9887,-143.9182C334.0691,-134.7959 318.5127,-120.4897 305.4659,-108.4915"/>
<polygon fill="#ff0000" stroke="#ff0000" stroke-width=".3759" points="307.4694,-105.5791 297.7395,-101.3862 302.731,-110.7315 307.4694,-105.5791"/>
</g>
<!-- &#45;8&#45;&gt;682 -->
<g id="edge29" class="edge">
<title>&#45;8&#45;&gt;682</title>
<path fill="none" stroke="#00ff00" stroke-width=".1303" stroke-dasharray="1,5" d="M352.3315,-143.9182C351.1018,-137.1334 349.3525,-127.481 347.6421,-118.0433"/>
<polygon fill="#00ff00" stroke="#00ff00" stroke-width=".1303" points="351.0551,-117.2482 345.8278,-108.0326 344.1673,-118.4965 351.0551,-117.2482"/>
</g>
<!-- &#45;8&#45;&gt;684 -->
<g id="edge30" class="edge">
<title>&#45;8&#45;&gt;684</title>
<path fill="none" stroke="#ff0000" stroke-width=".5" stroke-dasharray="1,5" d="M341.9489,-147.9692C316.7941,-137.1842 260.3358,-112.8478 252,-108.1249 250.5119,-107.2818 249.0065,-106.3826 247.5036,-105.4482"/>
<polygon fill="#ff0000" stroke="#ff0000" stroke-width=".5" points="249.3336,-102.4623 239.0634,-99.8596 245.4689,-108.2988 249.3336,-102.4623"/>
</g>
<!-- &#45;8&#45;&gt;685 -->
<g id="edge31" class="edge">
<title>&#45;8&#45;&gt;685</title>
<path fill="none" stroke="#ff0000" stroke-width=".1984" stroke-dasharray="1,5" d="M360.6742,-143.9182C366.5861,-135.7631 375.5013,-123.4651 383.5396,-112.3768"/>
<polygon fill="#ff0000" stroke="#ff0000" stroke-width=".1984" points="386.4156,-114.3726 389.4513,-104.2219 380.7482,-110.2641 386.4156,-114.3726"/>
</g>
<!-- &#45;9 -->
<g id="node9" class="node">
<title>&#45;9</title>
<polygon fill="#d3d3d3" stroke="#000000" points="408,-162.1249 384,-162.1249 384,-144.1249 408,-144.1249 408,-162.1249"/>
<text text-anchor="middle" x="396" y="-150.9249" font-family="Times,serif" font-size="9.00" fill="#000000">&#45;9</text>
</g>
<!-- &#45;9&#45;&gt;680 -->
<g id="edge32" class="edge">
<title>&#45;9&#45;&gt;680</title>
<path fill="none" stroke="#00ff00" stroke-width=".2273" d="M383.7738,-147.1732C367.1831,-138.9631 336.7679,-123.4347 312,-108.1249 310.5452,-107.2256 309.066,-106.282 307.5835,-105.3132"/>
<polygon fill="#00ff00" stroke="#00ff00" stroke-width=".2273" points="309.4428,-102.3451 299.2037,-99.6227 305.5102,-108.1361 309.4428,-102.3451"/>
</g>
<!-- &#45;9&#45;&gt;682 -->
<g id="edge33" class="edge">
<title>&#45;9&#45;&gt;682</title>
<path fill="none" stroke="#00ff00" stroke-width=".5" d="M388.4915,-143.9182C381.6355,-135.5116 371.1892,-122.7026 361.9342,-111.3545"/>
<polygon fill="#00ff00" stroke="#00ff00" stroke-width=".5" points="364.5067,-108.9708 355.4741,-103.4333 359.082,-113.3949 364.5067,-108.9708"/>
</g>
<!-- &#45;9&#45;&gt;684 -->
<g id="edge34" class="edge">
<title>&#45;9&#45;&gt;684</title>
<path fill="none" stroke="#00ff00" stroke-width=".413" stroke-dasharray="1,5" d="M383.6615,-147.5449C380.8406,-146.3511 377.8371,-145.1439 375,-144.1249 321.3927,-124.8713 303.2869,-132.9059 252,-108.1249 250.46,-107.3808 248.9135,-106.5599 247.3788,-105.6863"/>
<polygon fill="#00ff00" stroke="#00ff00" stroke-width=".413" points="249.1645,-102.6744 238.8444,-100.2774 245.4172,-108.587 249.1645,-102.6744"/>
</g>
<!-- &#45;9&#45;&gt;685 -->
<g id="edge35" class="edge">
<title>&#45;9&#45;&gt;685</title>
<path fill="none" stroke="#ff0000" stroke-width=".213" d="M396.8343,-143.9182C397.4379,-137.2572 398.2919,-127.8323 399.1321,-118.5602"/>
<polygon fill="#ff0000" stroke="#ff0000" stroke-width=".213" points="402.6439,-118.5872 400.0608,-108.3121 395.6725,-117.9554 402.6439,-118.5872"/>
</g>
<!-- &#45;10 -->
<g id="node10" class="node">
<title>&#45;10</title>
<polygon fill="#d3d3d3" stroke="#000000" points="455.5,-162.1249 426.5,-162.1249 426.5,-144.1249 455.5,-144.1249 455.5,-162.1249"/>
<text text-anchor="middle" x="441" y="-150.9249" font-family="Times,serif" font-size="9.00" fill="#000000">&#45;10</text>
</g>
<!-- &#45;10&#45;&gt;680 -->
<g id="edge36" class="edge">
<title>&#45;10&#45;&gt;680</title>
<path fill="none" stroke="#ff0000" stroke-width=".2261" stroke-dasharray="1,5" d="M426.3012,-147.5373C423.2335,-146.3924 420.0157,-145.2071 417,-144.1249 370.5658,-127.4622 355.9193,-130.5942 312,-108.1249 310.4774,-107.3459 308.9446,-106.4974 307.4205,-105.6025"/>
<polygon fill="#ff0000" stroke="#ff0000" stroke-width=".2261" points="309.2208,-102.5989 298.9176,-100.1302 305.4325,-108.4853 309.2208,-102.5989"/>
</g>
<!-- &#45;10&#45;&gt;682 -->
<g id="edge37" class="edge">
<title>&#45;10&#45;&gt;682</title>
<path fill="none" stroke="#00ff00" stroke-width=".4358" d="M426.6244,-143.9723C412.5944,-134.9876 390.6918,-120.8221 372,-108.1249 370.5852,-107.1638 369.1377,-106.1714 367.6798,-105.1647"/>
<polygon fill="#00ff00" stroke="#00ff00" stroke-width=".4358" points="369.575,-102.2192 359.3726,-99.362 365.5664,-107.9578 369.575,-102.2192"/>
</g>
<!-- &#45;10&#45;&gt;684 -->
<g id="edge38" class="edge">
<title>&#45;10&#45;&gt;684</title>
<path fill="none" stroke="#00ff00" stroke-width=".4712" stroke-dasharray="1,5" d="M426.3902,-147.2648C423.3161,-146.1397 420.0731,-145.0312 417,-144.1249 345.0072,-122.8925 320.6828,-138.3979 252,-108.1249 250.4349,-107.4351 248.8686,-106.657 247.3185,-105.8169"/>
<polygon fill="#00ff00" stroke="#00ff00" stroke-width=".4712" points="249.0837,-102.7933 238.7386,-100.5064 245.3997,-108.7454 249.0837,-102.7933"/>
</g>
<!-- &#45;10&#45;&gt;685 -->
<g id="edge39" class="edge">
<title>&#45;10&#45;&gt;685</title>
<path fill="none" stroke="#ff0000" stroke-width=".2968" d="M435.5772,-143.9182C430.9988,-136.1451 424.2034,-124.6081 417.9212,-113.9424"/>
<polygon fill="#ff0000" stroke="#ff0000" stroke-width=".2968" points="420.9158,-112.1299 412.8248,-105.2898 414.8843,-115.6826 420.9158,-112.1299"/>
</g>
<!-- &#45;11 -->
<g id="node11" class="node">
<title>&#45;11</title>
<polygon fill="#d3d3d3" stroke="#000000" points="502.5,-162.1249 473.5,-162.1249 473.5,-144.1249 502.5,-144.1249 502.5,-162.1249"/>
<text text-anchor="middle" x="488" y="-150.9249" font-family="Times,serif" font-size="9.00" fill="#000000">&#45;11</text>
</g>
<!-- &#45;11&#45;&gt;680 -->
<g id="edge40" class="edge">
<title>&#45;11&#45;&gt;680</title>
<path fill="none" stroke="#ff0000" stroke-width=".1307" d="M473.015,-146.9087C470.3675,-145.9119 467.62,-144.9412 465,-144.1249 398.3053,-123.3447 375.6917,-136.8192 312,-108.1249 310.4406,-107.4224 308.8788,-106.6343 307.3321,-105.7863"/>
<polygon fill="#ff0000" stroke="#ff0000" stroke-width=".1307" points="309.1019,-102.7653 298.7625,-100.4528 305.4031,-108.7083 309.1019,-102.7653"/>
</g>
<!-- &#45;11&#45;&gt;682 -->
<g id="edge41" class="edge">
<title>&#45;11&#45;&gt;682</title>
<path fill="none" stroke="#00ff00" stroke-width=".1066" d="M473.4025,-147.4036C470.6137,-146.3132 467.7172,-145.1824 465,-144.1249 423.696,-128.0494 411.0565,-129.0781 372,-108.1249 370.4929,-107.3163 368.9723,-106.4444 367.4577,-105.5314"/>
<polygon fill="#00ff00" stroke="#00ff00" stroke-width=".1066" points="369.2713,-102.5356 358.983,-100.0055 365.4479,-108.3992 369.2713,-102.5356"/>
</g>
<!-- &#45;11&#45;&gt;684 -->
<g id="edge42" class="edge">
<title>&#45;11&#45;&gt;684</title>
<path fill="none" stroke="#00ff00" stroke-width=".3473" d="M473.0566,-146.7673C470.4045,-145.7862 467.6447,-144.8574 465,-144.1249 372.4744,-118.4968 340.7466,-144.7557 252,-108.1249 250.3785,-107.4556 248.7592,-106.6853 247.1603,-105.8435"/>
<polygon fill="#00ff00" stroke="#00ff00" stroke-width=".3473" points="248.708,-102.687 238.3533,-100.444 245.0493,-108.6547 248.708,-102.687"/>
</g>
<!-- &#45;11&#45;&gt;685 -->
<g id="edge43" class="edge">
<title>&#45;11&#45;&gt;685</title>
<path fill="none" stroke="#ff0000" stroke-width=".5" d="M476.0421,-143.9182C463.3867,-134.1746 443.0501,-118.517 426.8894,-106.0745"/>
<polygon fill="#ff0000" stroke="#ff0000" stroke-width=".5" points="428.9406,-103.2367 418.8818,-99.9094 424.6702,-108.7832 428.9406,-103.2367"/>
</g>
<!-- &#45;12 -->
<g id="node12" class="node">
<title>&#45;12</title>
<polygon fill="#d3d3d3" stroke="#000000" points="549.5,-162.1249 520.5,-162.1249 520.5,-144.1249 549.5,-144.1249 549.5,-162.1249"/>
<text text-anchor="middle" x="535" y="-150.9249" font-family="Times,serif" font-size="9.00" fill="#000000">&#45;12</text>
</g>
<!-- &#45;12&#45;&gt;680 -->
<g id="edge44" class="edge">
<title>&#45;12&#45;&gt;680</title>
<path fill="none" stroke="#ff0000" stroke-width=".3974" d="M520.05,-146.7911C517.3986,-145.8073 514.6407,-144.8715 512,-144.1249 425.0895,-119.5525 395.3004,-143.0286 312,-108.1249 310.3821,-107.447 308.7656,-106.6699 307.1689,-105.8228"/>
<polygon fill="#ff0000" stroke="#ff0000" stroke-width=".3974" points="308.7194,-102.6674 298.3681,-100.4084 305.0514,-108.6295 308.7194,-102.6674"/>
</g>
<!-- &#45;12&#45;&gt;682 -->
<g id="edge45" class="edge">
<title>&#45;12&#45;&gt;682</title>
<path fill="none" stroke="#00ff00" stroke-width=".1211" d="M520.4955,-147.1422C517.6981,-146.0759 514.7747,-145.0209 512,-144.1249 450.862,-124.3829 430.3014,-135.1165 372,-108.1249 370.4479,-107.4063 368.8919,-106.6056 367.3497,-105.7478"/>
<polygon fill="#00ff00" stroke="#00ff00" stroke-width=".1211" points="369.1255,-102.7301 358.7934,-100.3852 365.4081,-108.6615 369.1255,-102.7301"/>
</g>
<!-- &#45;12&#45;&gt;684 -->
<g id="edge46" class="edge">
<title>&#45;12&#45;&gt;684</title>
<path fill="none" stroke="#ff0000" stroke-width=".4361" d="M520.0746,-146.7006C517.4205,-145.7269 514.6553,-144.8179 512,-144.1249 399.1228,-114.666 360.4855,-151.0199 252,-108.1249 250.3687,-107.4799 248.7417,-106.7287 247.1369,-105.9015"/>
<polygon fill="#ff0000" stroke="#ff0000" stroke-width=".4361" points="248.6772,-102.7421 238.3129,-100.5442 245.0444,-108.7257 248.6772,-102.7421"/>
</g>
<!-- &#45;12&#45;&gt;685 -->
<g id="edge47" class="edge">
<title>&#45;12&#45;&gt;685</title>
<path fill="none" stroke="#ff0000" stroke-width=".2834" d="M520.2585,-145.7859C498.5995,-135.0031 457.7701,-114.6765 430.2247,-100.9632"/>
<polygon fill="#ff0000" stroke="#ff0000" stroke-width=".2834" points="431.6007,-97.7385 421.0888,-96.4149 428.481,-104.0049 431.6007,-97.7385"/>
</g>
<!-- &#45;13 -->
<g id="node13" class="node">
<title>&#45;13</title>
<polygon fill="#d3d3d3" stroke="#000000" points="643.5,-162.1249 614.5,-162.1249 614.5,-144.1249 643.5,-144.1249 643.5,-162.1249"/>
<text text-anchor="middle" x="629" y="-150.9249" font-family="Times,serif" font-size="9.00" fill="#000000">&#45;13</text>
</g>
<!-- &#45;13&#45;&gt;680 -->
<g id="edge48" class="edge">
<title>&#45;13&#45;&gt;680</title>
<path fill="none" stroke="#ff0000" stroke-width=".4512" d="M614.0836,-146.6652C611.4285,-145.6955 608.6607,-144.797 606,-144.1249 478.3661,-111.8858 434.7976,-155.5645 312,-108.1249 310.3637,-107.4927 308.7327,-106.7516 307.1249,-105.9322"/>
<polygon fill="#ff0000" stroke="#ff0000" stroke-width=".4512" points="308.6615,-102.7715 298.2921,-100.5972 305.0423,-108.7633 308.6615,-102.7715"/>
</g>
<!-- &#45;13&#45;&gt;682 -->
<g id="edge49" class="edge">
<title>&#45;13&#45;&gt;682</title>
<path fill="none" stroke="#ff0000" stroke-width=".44" stroke-dasharray="1,5" d="M614.0656,-146.7343C611.4125,-145.7568 608.65,-144.8379 606,-144.1249 504.3896,-116.7875 469.558,-147.5513 372,-108.1249 370.3736,-107.4676 368.7504,-106.7068 367.1486,-105.8722"/>
<polygon fill="#ff0000" stroke="#ff0000" stroke-width=".44" points="368.6926,-102.7142 358.3331,-100.4936 365.0467,-108.6898 368.6926,-102.7142"/>
</g>
<!-- &#45;13&#45;&gt;685 -->
<g id="edge50" class="edge">
<title>&#45;13&#45;&gt;685</title>
<path fill="none" stroke="#ff0000" stroke-width=".3546" d="M614.4795,-147.1909C611.6836,-146.1201 608.7648,-145.051 606,-144.1249 545.1979,-123.7589 472.6076,-104.5997 432.4778,-94.4475"/>
<polygon fill="#ff0000" stroke="#ff0000" stroke-width=".3546" points="433.3167,-91.0496 422.7651,-92.0062 431.6102,-97.8384 433.3167,-91.0496"/>
</g>
<!-- &#45;14 -->
<g id="node14" class="node">
<title>&#45;14</title>
<polygon fill="#d3d3d3" stroke="#000000" points="596.5,-162.1249 567.5,-162.1249 567.5,-144.1249 596.5,-144.1249 596.5,-162.1249"/>
<text text-anchor="middle" x="582" y="-150.9249" font-family="Times,serif" font-size="9.00" fill="#000000">&#45;14</text>
</g>
<!-- &#45;14&#45;&gt;680 -->
<g id="edge51" class="edge">
<title>&#45;14&#45;&gt;680</title>
<path fill="none" stroke="#00ff00" stroke-width=".5" d="M567.0704,-146.7166C564.4167,-145.7411 561.6528,-144.8274 559,-144.1249 451.7585,-115.7273 415.0196,-149.2847 312,-108.1249 310.371,-107.4741 308.7458,-106.7183 307.1424,-105.8876"/>
<polygon fill="#00ff00" stroke="#00ff00" stroke-width=".5" points="308.6845,-102.7289 298.3224,-100.5201 305.0454,-108.7087 308.6845,-102.7289"/>
</g>
<!-- &#45;14&#45;&gt;682 -->
<g id="edge52" class="edge">
<title>&#45;14&#45;&gt;682</title>
<path fill="none" stroke="#00ff00" stroke-width=".1665" d="M567.0423,-146.818C564.3917,-145.8312 561.6362,-144.8875 559,-144.1249 477.6962,-120.6058 449.8623,-141.3049 372,-108.1249 370.4266,-107.4544 368.8536,-106.6916 367.2984,-105.8633"/>
<polygon fill="#00ff00" stroke="#00ff00" stroke-width=".1665" points="369.0569,-102.836 358.7033,-100.588 365.3952,-108.8019 369.0569,-102.836"/>
</g>
<!-- &#45;14&#45;&gt;684 -->
<g id="edge53" class="edge">
<title>&#45;14&#45;&gt;684</title>
<path fill="none" stroke="#00ff00" stroke-width=".5" d="M567.0865,-146.6538C564.4311,-145.6853 561.6624,-144.7902 559,-144.1249 425.7185,-110.8214 380.275,-157.3042 252,-108.1249 250.3621,-107.4969 248.7298,-106.7591 247.121,-105.9422"/>
<polygon fill="#00ff00" stroke="#00ff00" stroke-width=".5" points="248.6565,-102.781 238.2855,-100.6145 245.0418,-108.7756 248.6565,-102.781"/>
</g>
<!-- &#45;14&#45;&gt;685 -->
<g id="edge54" class="edge">
<title>&#45;14&#45;&gt;685</title>
<path fill="none" stroke="#00ff00" stroke-width=".1889" d="M567.4193,-147.3598C564.6289,-146.2734 561.7276,-145.1554 559,-144.1249 514.9216,-127.4721 463.5764,-108.9198 431.9287,-97.5817"/>
<polygon fill="#00ff00" stroke="#00ff00" stroke-width=".1889" points="432.9744,-94.2386 422.3798,-94.1655 430.6165,-100.8295 432.9744,-94.2386"/>
</g>
<!-- &#45;15 -->
<g id="node15" class="node">
<title>&#45;15</title>
<polygon fill="#d3d3d3" stroke="#000000" points="71.5,-162.1249 42.5,-162.1249 42.5,-144.1249 71.5,-144.1249 71.5,-162.1249"/>
<text text-anchor="middle" x="57" y="-150.9249" font-family="Times,serif" font-size="9.00" fill="#000000">&#45;15</text>
</g>
<!-- &#45;15&#45;&gt;680 -->
<g id="edge55" class="edge">
<title>&#45;15&#45;&gt;680</title>
<path fill="none" stroke="#ff0000" stroke-width=".1843" d="M71.6047,-147.2474C74.6792,-146.1235 77.9236,-145.02 81,-144.1249 155.5737,-122.4277 180.8171,-139.1892 252,-108.1249 253.5676,-107.4408 255.1359,-106.6673 256.6875,-105.8306"/>
<polygon fill="#ff0000" stroke="#ff0000" stroke-width=".1843" points="258.6018,-108.7622 265.272,-100.5306 254.9243,-102.8059 258.6018,-108.7622"/>
</g>
<!-- &#45;15&#45;&gt;682 -->
<g id="edge56" class="edge">
<title>&#45;15&#45;&gt;682</title>
<path fill="none" stroke="#00ff00" stroke-width=".2035" d="M71.5697,-147.1208C74.6467,-146.0061 77.901,-144.9383 81,-144.1249 181.5016,-117.7457 215.7017,-147.1516 312,-108.1249 313.6258,-107.466 315.2484,-106.7039 316.8499,-105.8684"/>
<polygon fill="#00ff00" stroke="#00ff00" stroke-width=".2035" points="318.953,-108.6852 325.6643,-100.487 315.3054,-102.7106 318.953,-108.6852"/>
</g>
<!-- &#45;15&#45;&gt;684 -->
<g id="edge57" class="edge">
<title>&#45;15&#45;&gt;684</title>
<path fill="none" stroke="#00ff00" stroke-width=".486" stroke-dasharray="1,5" d="M71.6426,-147.2489C98.7494,-136.3712 157.215,-112.9094 192.7251,-98.6595"/>
<polygon fill="#00ff00" stroke="#00ff00" stroke-width=".486" points="194.1098,-101.8752 202.0869,-94.9027 191.5027,-95.3787 194.1098,-101.8752"/>
</g>
<!-- &#45;15&#45;&gt;685 -->
<g id="edge58" class="edge">
<title>&#45;15&#45;&gt;685</title>
<path fill="none" stroke="#00ff00" stroke-width=".3195" d="M71.5504,-147.045C74.6288,-145.9358 77.8885,-144.8894 81,-144.1249 207.5552,-113.0302 250.466,-155.1632 372,-108.1249 373.6359,-107.4917 375.2666,-106.7498 376.8742,-105.9298"/>
<polygon fill="#00ff00" stroke="#00ff00" stroke-width=".3195" points="378.9575,-108.7603 385.7062,-100.593 375.3373,-102.7692 378.9575,-108.7603"/>
</g>
<!-- 0 -->
<g id="node16" class="node">
<title>0</title>
<ellipse fill="#add8e6" stroke="#000000" cx="288" cy="-14.8492" rx="14.7" ry="14.7"/>
<text text-anchor="middle" x="288" y="-12.6492" font-family="Times,serif" font-size="9.00" fill="#000000">0</text>
</g>
<!-- 1 -->
<g id="node17" class="node">
<title>1</title>
<ellipse fill="#add8e6" stroke="#000000" cx="339" cy="-14.8492" rx="14.7" ry="14.7"/>
<text text-anchor="middle" x="339" y="-12.6492" font-family="Times,serif" font-size="9.00" fill="#000000">1</text>
</g>
<!-- 680&#45;&gt;0 -->
<g id="edge59" class="edge">
<title>680&#45;&gt;0</title>
<path fill="none" stroke="#00ff00" stroke-width=".4024" d="M283.7677,-65.6803C284.4386,-57.6235 285.2089,-48.3716 285.9069,-39.9882"/>
<polygon fill="#00ff00" stroke="#00ff00" stroke-width=".4024" points="289.3976,-40.2448 286.7395,-29.9888 282.4217,-39.6639 289.3976,-40.2448"/>
</g>
<!-- 680&#45;&gt;1 -->
<g id="edge60" class="edge">
<title>680&#45;&gt;1</title>
<path fill="none" stroke="#ff0000" stroke-width=".4614" d="M295.2202,-70.198C303.6065,-59.5956 314.4989,-45.8249 323.3208,-34.6717"/>
<polygon fill="#ff0000" stroke="#ff0000" stroke-width=".4614" points="326.1289,-36.7633 329.5876,-26.7489 320.6388,-32.4207 326.1289,-36.7633"/>
</g>
<!-- 682&#45;&gt;0 -->
<g id="edge61" class="edge">
<title>682&#45;&gt;0</title>
<path fill="none" stroke="#ff0000" stroke-width=".1851" d="M329.2028,-69.8339C321.4261,-59.456 311.4519,-46.1455 303.2649,-35.2201"/>
<polygon fill="#ff0000" stroke="#ff0000" stroke-width=".1851" points="305.956,-32.9748 297.1585,-27.0711 300.3543,-37.1725 305.956,-32.9748"/>
</g>
<!-- 682&#45;&gt;1 -->
<g id="edge62" class="edge">
<title>682&#45;&gt;1</title>
<path fill="none" stroke="#00ff00" stroke-width=".4664" d="M341.1161,-65.6803C340.7807,-57.6235 340.3956,-48.3716 340.0465,-39.9882"/>
<polygon fill="#00ff00" stroke="#00ff00" stroke-width=".4664" points="343.5433,-39.8346 339.6303,-29.9888 336.5493,-40.1258 343.5433,-39.8346"/>
</g>
<!-- 684&#45;&gt;0 -->
<g id="edge63" class="edge">
<title>684&#45;&gt;0</title>
<path fill="none" stroke="#ff0000" stroke-width=".2223" d="M236.6475,-70.9187C246.7684,-59.8682 260.2661,-45.1307 270.8833,-33.5382"/>
<polygon fill="#ff0000" stroke="#ff0000" stroke-width=".2223" points="273.5235,-35.8375 277.6966,-26.0991 268.3614,-31.1097 273.5235,-35.8375"/>
</g>
<!-- 684&#45;&gt;1 -->
<g id="edge64" class="edge">
<title>684&#45;&gt;1</title>
<path fill="none" stroke="#00ff00" stroke-width=".5" d="M239.2751,-74.314C243.398,-71.4144 247.817,-68.3927 252,-65.6985 273.5933,-51.7907 299.0328,-37.1111 316.8053,-27.1191"/>
<polygon fill="#00ff00" stroke="#00ff00" stroke-width=".5" points="318.7938,-30.0174 325.817,-22.0848 315.3799,-23.9063 318.7938,-30.0174"/>
</g>
<!-- 685&#45;&gt;0 -->
<g id="edge65" class="edge">
<title>685&#45;&gt;0</title>
<path fill="none" stroke="#00ff00" stroke-width=".1028" d="M384.6946,-74.3606C380.5729,-71.4591 376.1621,-68.4248 372,-65.6985 351.1846,-52.0635 326.7968,-37.4457 309.678,-27.3987"/>
<polygon fill="#00ff00" stroke="#00ff00" stroke-width=".1028" points="311.3848,-24.3424 300.9842,-22.3226 307.8552,-30.3874 311.3848,-24.3424"/>
</g>
<!-- 685&#45;&gt;1 -->
<g id="edge66" class="edge">
<title>685&#45;&gt;1</title>
<path fill="none" stroke="#ff0000" stroke-width=".173" d="M388.0183,-70.9187C378.4504,-59.9745 365.7208,-45.4137 355.6318,-33.8735"/>
<polygon fill="#ff0000" stroke="#ff0000" stroke-width=".173" points="358.052,-31.3241 348.8351,-26.0991 352.7819,-35.9314 358.052,-31.3241"/>
</g>
</g>
</svg>
