<?xml version="1.0" encoding="UTF-8" standalone="no"?>
<!DOCTYPE svg PUBLIC "-//W3C//DTD SVG 1.1//EN"
 "http://www.w3.org/Graphics/SVG/1.1/DTD/svg11.dtd">
<!-- Generated by graphviz version 2.40.1 (20161225.0304)
 -->
<!-- Title: %3 Pages: 1 -->
<svg width="653pt" height="177pt"
 viewBox="0.00 0.00 652.50 177.20" xmlns="http://www.w3.org/2000/svg" xmlns:xlink="http://www.w3.org/1999/xlink">
<g id="graph0" class="graph" transform="scale(1 1) rotate(0) translate(4 173.196)">
<title>%3</title>
<polygon fill="#ffffff" stroke="transparent" points="-4,4 -4,-173.196 648.5,-173.196 648.5,4 -4,4"/>
<!-- &#45;1 -->
<g id="node1" class="node">
<title>&#45;1</title>
<polygon fill="#d3d3d3" stroke="#000000" points="470.5,-169.196 446.5,-169.196 446.5,-151.196 470.5,-151.196 470.5,-169.196"/>
<text text-anchor="middle" x="458.5" y="-157.996" font-family="Times,serif" font-size="9.00" fill="#000000">&#45;1</text>
</g>
<!-- 1082 -->
<g id="node18" class="node">
<title>1082</title>
<ellipse fill="#ffffff" stroke="#000000" cx="361.5" cy="-90.4472" rx="25" ry="25"/>
<text text-anchor="middle" x="361.5" y="-88.2472" font-family="Times,serif" font-size="9.00" fill="#000000">1082</text>
</g>
<!-- &#45;1&#45;&gt;1082 -->
<g id="edge1" class="edge">
<title>&#45;1&#45;&gt;1082</title>
<path fill="none" stroke="#00ff00" stroke-width=".252" d="M446.1515,-151.6802C433.2036,-142.7122 412.3039,-128.1266 394.5,-115.196 392.8921,-114.0281 391.245,-112.8227 389.5861,-111.6015"/>
<polygon fill="#00ff00" stroke="#00ff00" stroke-width=".252" points="391.436,-108.6159 381.3204,-105.4657 387.2637,-114.2365 391.436,-108.6159"/>
</g>
<!-- 1083 -->
<g id="node19" class="node">
<title>1083</title>
<ellipse fill="#ffffff" stroke="#000000" cx="294.5" cy="-90.4472" rx="25" ry="25"/>
<text text-anchor="middle" x="294.5" y="-88.2472" font-family="Times,serif" font-size="9.00" fill="#000000">1083</text>
</g>
<!-- &#45;1&#45;&gt;1083 -->
<g id="edge2" class="edge">
<title>&#45;1&#45;&gt;1083</title>
<path fill="none" stroke="#00ff00" stroke-width=".4631" d="M446.1371,-154.6821C443.3174,-153.4849 440.3207,-152.2596 437.5,-151.196 389.3677,-133.0465 373.1303,-138.9447 327.5,-115.196 325.7372,-114.2785 323.9688,-113.2691 322.2167,-112.1986"/>
<polygon fill="#00ff00" stroke="#00ff00" stroke-width=".4631" points="323.9478,-109.1451 313.6941,-106.4779 320.0465,-114.9572 323.9478,-109.1451"/>
</g>
<!-- 1085 -->
<g id="node20" class="node">
<title>1085</title>
<ellipse fill="#ffffff" stroke="#000000" cx="227.5" cy="-90.4472" rx="25" ry="25"/>
<text text-anchor="middle" x="227.5" y="-88.2472" font-family="Times,serif" font-size="9.00" fill="#000000">1085</text>
</g>
<!-- &#45;1&#45;&gt;1085 -->
<g id="edge3" class="edge">
<title>&#45;1&#45;&gt;1085</title>
<path fill="none" stroke="#ff0000" stroke-width=".1203" d="M446.2213,-154.4378C443.3973,-153.2532 440.3775,-152.0948 437.5,-151.196 360.8742,-127.2599 333.7326,-148.0811 260.5,-115.196 258.6871,-114.3819 256.8795,-113.4535 255.0973,-112.4451"/>
<polygon fill="#ff0000" stroke="#ff0000" stroke-width=".1203" points="256.7927,-109.3738 246.4917,-106.896 252.9992,-115.2568 256.7927,-109.3738"/>
</g>
<!-- 1086 -->
<g id="node21" class="node">
<title>1086</title>
<ellipse fill="#ffffff" stroke="#000000" cx="428.5" cy="-90.4472" rx="25" ry="25"/>
<text text-anchor="middle" x="428.5" y="-88.2472" font-family="Times,serif" font-size="9.00" fill="#000000">1086</text>
</g>
<!-- &#45;1&#45;&gt;1086 -->
<g id="edge4" class="edge">
<title>&#45;1&#45;&gt;1086</title>
<path fill="none" stroke="#00ff00" stroke-width=".3796" d="M454.578,-151.0775C451.4407,-143.7834 446.8426,-133.0931 442.3779,-122.7127"/>
<polygon fill="#00ff00" stroke="#00ff00" stroke-width=".3796" points="445.5272,-121.1765 438.3608,-113.3731 439.0968,-123.9424 445.5272,-121.1765"/>
</g>
<!-- &#45;2 -->
<g id="node2" class="node">
<title>&#45;2</title>
<polygon fill="#d3d3d3" stroke="#000000" points="512.5,-169.196 488.5,-169.196 488.5,-151.196 512.5,-151.196 512.5,-169.196"/>
<text text-anchor="middle" x="500.5" y="-157.996" font-family="Times,serif" font-size="9.00" fill="#000000">&#45;2</text>
</g>
<!-- &#45;2&#45;&gt;1082 -->
<g id="edge5" class="edge">
<title>&#45;2&#45;&gt;1082</title>
<path fill="none" stroke="#ff0000" stroke-width=".5" d="M488.0669,-154.8571C485.2509,-153.6508 482.2734,-152.3775 479.5,-151.196 441.7564,-135.1154 430.0616,-135.6541 394.5,-115.196 392.7774,-114.205 391.0406,-113.1381 389.3127,-112.0233"/>
<polygon fill="#ff0000" stroke="#ff0000" stroke-width=".5" points="391.0736,-108.9858 380.8569,-106.1807 387.0945,-114.7448 391.0736,-108.9858"/>
</g>
<!-- &#45;2&#45;&gt;1083 -->
<g id="edge6" class="edge">
<title>&#45;2&#45;&gt;1083</title>
<path fill="none" stroke="#00ff00" stroke-width=".2105" d="M488.1995,-154.5057C485.3766,-153.3176 482.3628,-152.1406 479.5,-151.196 413.5721,-129.4414 390.3704,-144.6419 327.5,-115.196 325.7003,-114.3531 323.9031,-113.4021 322.1289,-112.3764"/>
<polygon fill="#00ff00" stroke="#00ff00" stroke-width=".2105" points="323.8334,-109.3096 313.5451,-106.7795 320.0101,-115.1732 323.8334,-109.3096"/>
</g>
<!-- &#45;2&#45;&gt;1085 -->
<g id="edge7" class="edge">
<title>&#45;2&#45;&gt;1085</title>
<path fill="none" stroke="#ff0000" stroke-width=".2421" d="M488.2457,-154.357C485.4204,-153.1766 482.3939,-152.0404 479.5,-151.196 384.8091,-123.566 351.2297,-153.8987 260.5,-115.196 258.6721,-114.4162 256.8527,-113.5147 255.0615,-112.527"/>
<polygon fill="#ff0000" stroke="#ff0000" stroke-width=".2421" points="256.7466,-109.4508 246.4309,-107.0349 252.9885,-115.3565 256.7466,-109.4508"/>
</g>
<!-- &#45;2&#45;&gt;1086 -->
<g id="edge8" class="edge">
<title>&#45;2&#45;&gt;1086</title>
<path fill="none" stroke="#ff0000" stroke-width=".5" d="M491.0873,-151.0775C481.6554,-141.9406 466.7223,-127.4744 453.8081,-114.964"/>
<polygon fill="#ff0000" stroke="#ff0000" stroke-width=".5" points="456.1123,-112.3231 446.4945,-107.8791 451.2417,-117.3509 456.1123,-112.3231"/>
</g>
<!-- &#45;3 -->
<g id="node3" class="node">
<title>&#45;3</title>
<polygon fill="#d3d3d3" stroke="#000000" points="644.5,-169.196 620.5,-169.196 620.5,-151.196 644.5,-151.196 644.5,-169.196"/>
<text text-anchor="middle" x="632.5" y="-157.996" font-family="Times,serif" font-size="9.00" fill="#000000">&#45;3</text>
</g>
<!-- &#45;3&#45;&gt;1082 -->
<g id="edge9" class="edge">
<title>&#45;3&#45;&gt;1082</title>
<path fill="none" stroke="#ff0000" stroke-width=".3882" stroke-dasharray="1,5" d="M620.2447,-154.3602C617.4195,-153.1796 614.3933,-152.0425 611.5,-151.196 517.6712,-123.7424 484.3947,-153.6209 394.5,-115.196 392.6727,-114.4149 390.8537,-113.5123 389.0629,-112.5238"/>
<polygon fill="#ff0000" stroke="#ff0000" stroke-width=".3882" points="390.7484,-109.4478 380.4332,-107.0294 386.9888,-115.3526 390.7484,-109.4478"/>
</g>
<!-- &#45;3&#45;&gt;1083 -->
<g id="edge10" class="edge">
<title>&#45;3&#45;&gt;1083</title>
<path fill="none" stroke="#00ff00" stroke-width=".2295" d="M620.268,-154.2778C617.4416,-153.1015 614.409,-151.9869 611.5,-151.196 488.7254,-117.8125 445.4291,-162.9535 327.5,-115.196 325.6083,-114.4299 323.7287,-113.5276 321.8821,-112.529"/>
<polygon fill="#00ff00" stroke="#00ff00" stroke-width=".2295" points="323.3407,-109.31 313.0196,-106.9174 319.596,-115.2241 323.3407,-109.31"/>
</g>
<!-- &#45;3&#45;&gt;1086 -->
<g id="edge11" class="edge">
<title>&#45;3&#45;&gt;1086</title>
<path fill="none" stroke="#00ff00" stroke-width=".2946" stroke-dasharray="1,5" d="M620.1338,-154.691C617.3143,-153.4933 614.3185,-152.2655 611.5,-151.196 560.0054,-131.6542 499.1114,-112.1383 462.1705,-100.6871"/>
<polygon fill="#00ff00" stroke="#00ff00" stroke-width=".2946" points="463.0015,-97.2807 452.4141,-97.6778 460.9383,-103.9698 463.0015,-97.2807"/>
</g>
<!-- &#45;4 -->
<g id="node4" class="node">
<title>&#45;4</title>
<polygon fill="#d3d3d3" stroke="#000000" points="554.5,-169.196 530.5,-169.196 530.5,-151.196 554.5,-151.196 554.5,-169.196"/>
<text text-anchor="middle" x="542.5" y="-157.996" font-family="Times,serif" font-size="9.00" fill="#000000">&#45;4</text>
</g>
<!-- &#45;4&#45;&gt;1082 -->
<g id="edge12" class="edge">
<title>&#45;4&#45;&gt;1082</title>
<path fill="none" stroke="#00ff00" stroke-width=".2533" d="M530.1679,-154.598C527.3466,-153.4051 524.3414,-152.2029 521.5,-151.196 466.201,-131.6001 447.0739,-141.2336 394.5,-115.196 392.7192,-114.314 390.9367,-113.3324 389.1738,-112.2832"/>
<polygon fill="#00ff00" stroke="#00ff00" stroke-width=".2533" points="390.8917,-109.2231 380.6212,-106.6215 387.0277,-115.06 390.8917,-109.2231"/>
</g>
<!-- &#45;4&#45;&gt;1083 -->
<g id="edge13" class="edge">
<title>&#45;4&#45;&gt;1083</title>
<path fill="none" stroke="#ff0000" stroke-width=".3857" d="M530.2326,-154.4011C527.408,-153.2184 524.3851,-152.0701 521.5,-151.196 437.5733,-125.7681 407.8041,-150.4312 327.5,-115.196 325.6802,-114.3975 323.8672,-113.4813 322.0808,-112.4823"/>
<polygon fill="#ff0000" stroke="#ff0000" stroke-width=".3857" points="323.7714,-109.4087 313.4637,-106.9591 319.994,-115.3021 323.7714,-109.4087"/>
</g>
<!-- &#45;4&#45;&gt;1085 -->
<g id="edge14" class="edge">
<title>&#45;4&#45;&gt;1085</title>
<path fill="none" stroke="#00ff00" stroke-width=".4337" stroke-dasharray="1,5" d="M530.2615,-154.3014C527.4354,-153.1239 524.4046,-152.0029 521.5,-151.196 408.6747,-119.8517 368.7931,-159.7447 260.5,-115.196 258.6125,-114.4195 256.7362,-113.5092 254.8922,-112.5044"/>
<polygon fill="#00ff00" stroke="#00ff00" stroke-width=".4337" points="256.3535,-109.2861 246.0363,-106.8764 252.5989,-115.1941 256.3535,-109.2861"/>
</g>
<!-- &#45;4&#45;&gt;1086 -->
<g id="edge15" class="edge">
<title>&#45;4&#45;&gt;1086</title>
<path fill="none" stroke="#ff0000" stroke-width=".4462" d="M530.3,-152.7316C513.2886,-142.3235 481.8953,-123.1161 458.4504,-108.7718"/>
<polygon fill="#ff0000" stroke="#ff0000" stroke-width=".4462" points="460.2575,-105.7743 449.9007,-103.5408 456.6041,-111.7454 460.2575,-105.7743"/>
</g>
<!-- &#45;5 -->
<g id="node5" class="node">
<title>&#45;5</title>
<polygon fill="#d3d3d3" stroke="#000000" points="71.5,-169.196 47.5,-169.196 47.5,-151.196 71.5,-151.196 71.5,-169.196"/>
<text text-anchor="middle" x="59.5" y="-157.996" font-family="Times,serif" font-size="9.00" fill="#000000">&#45;5</text>
</g>
<!-- &#45;5&#45;&gt;1082 -->
<g id="edge16" class="edge">
<title>&#45;5&#45;&gt;1082</title>
<path fill="none" stroke="#00ff00" stroke-width=".2528" d="M71.7428,-154.3167C74.5687,-153.1384 77.5983,-152.0132 80.5,-151.196 187.7069,-121.0029 225.6483,-157.9331 328.5,-115.196 330.3847,-114.4128 332.2588,-113.4973 334.1013,-112.4886"/>
<polygon fill="#00ff00" stroke="#00ff00" stroke-width=".2528" points="336.3992,-115.1747 342.9528,-106.85 332.6382,-109.2708 336.3992,-115.1747"/>
</g>
<!-- &#45;5&#45;&gt;1083 -->
<g id="edge17" class="edge">
<title>&#45;5&#45;&gt;1083</title>
<path fill="none" stroke="#ff0000" stroke-width=".1565" d="M71.7759,-154.4285C74.6,-153.2444 77.6206,-152.0886 80.5,-151.196 158.842,-126.9094 186.6051,-148.6334 261.5,-115.196 263.3146,-114.3858 265.1236,-113.4605 266.9068,-112.4545"/>
<polygon fill="#ff0000" stroke="#ff0000" stroke-width=".1565" points="269.0022,-115.2682 275.5154,-106.9119 265.2127,-109.3826 269.0022,-115.2682"/>
</g>
<!-- &#45;5&#45;&gt;1085 -->
<g id="edge18" class="edge">
<title>&#45;5&#45;&gt;1085</title>
<path fill="none" stroke="#00ff00" stroke-width=".1534" d="M71.9255,-154.8391C74.7419,-153.6337 77.7215,-152.3654 80.5,-151.196 119.8308,-134.6419 165.2421,-115.9376 195.0618,-103.711"/>
<polygon fill="#00ff00" stroke="#00ff00" stroke-width=".1534" points="196.6191,-106.8554 204.5455,-99.8253 193.9651,-100.378 196.6191,-106.8554"/>
</g>
<!-- &#45;5&#45;&gt;1086 -->
<g id="edge19" class="edge">
<title>&#45;5&#45;&gt;1086</title>
<path fill="none" stroke="#00ff00" stroke-width=".2508" d="M71.7249,-154.2512C74.5517,-153.0763 77.5862,-151.969 80.5,-151.196 216.6991,-115.06 264.5694,-167.2841 395.5,-115.196 397.3964,-114.4415 399.2796,-113.5483 401.1289,-112.5566"/>
<polygon fill="#00ff00" stroke="#00ff00" stroke-width=".2508" points="403.407,-115.2579 409.9989,-106.9635 399.6733,-109.3368 403.407,-115.2579"/>
</g>
<!-- &#45;6 -->
<g id="node6" class="node">
<title>&#45;6</title>
<polygon fill="#d3d3d3" stroke="#000000" points="113.5,-169.196 89.5,-169.196 89.5,-151.196 113.5,-151.196 113.5,-169.196"/>
<text text-anchor="middle" x="101.5" y="-157.996" font-family="Times,serif" font-size="9.00" fill="#000000">&#45;6</text>
</g>
<!-- &#45;6&#45;&gt;1082 -->
<g id="edge20" class="edge">
<title>&#45;6&#45;&gt;1082</title>
<path fill="none" stroke="#00ff00" stroke-width=".5" d="M113.7607,-154.3786C116.5857,-153.1971 119.6104,-152.055 122.5,-151.196 211.59,-124.7121 243.195,-152.0942 328.5,-115.196 330.324,-114.407 332.1402,-113.4983 333.9291,-112.5051"/>
<polygon fill="#00ff00" stroke="#00ff00" stroke-width=".5" points="336.0089,-115.3297 342.5531,-106.9976 332.2413,-109.4301 336.0089,-115.3297"/>
</g>
<!-- &#45;6&#45;&gt;1083 -->
<g id="edge21" class="edge">
<title>&#45;6&#45;&gt;1083</title>
<path fill="none" stroke="#ff0000" stroke-width=".2887" d="M113.8154,-154.5499C116.6375,-153.3595 119.6473,-152.1704 122.5,-151.196 182.8901,-130.5676 203.994,-142.8647 261.5,-115.196 263.2908,-114.3343 265.0811,-113.3687 266.8499,-112.3318"/>
<polygon fill="#ff0000" stroke="#ff0000" stroke-width=".2887" points="268.9819,-115.119 275.4189,-106.7038 265.1391,-109.268 268.9819,-115.119"/>
</g>
<!-- &#45;6&#45;&gt;1085 -->
<g id="edge22" class="edge">
<title>&#45;6&#45;&gt;1085</title>
<path fill="none" stroke="#00ff00" stroke-width=".3292" d="M113.5814,-153.5082C132.5354,-143.0159 169.8555,-122.357 196.6187,-107.5419"/>
<polygon fill="#00ff00" stroke="#00ff00" stroke-width=".3292" points="198.5436,-110.4769 205.5975,-102.5716 195.1534,-104.3526 198.5436,-110.4769"/>
</g>
<!-- &#45;6&#45;&gt;1086 -->
<g id="edge23" class="edge">
<title>&#45;6&#45;&gt;1086</title>
<path fill="none" stroke="#ff0000" stroke-width=".1887" d="M113.735,-154.2886C116.5613,-153.1117 119.593,-151.9942 122.5,-151.196 240.5149,-118.7881 282.1807,-161.4184 395.5,-115.196 397.3898,-114.4251 399.2678,-113.5192 401.1133,-112.5178"/>
<polygon fill="#ff0000" stroke="#ff0000" stroke-width=".1887" points="403.4027,-115.2104 409.9728,-106.8986 399.6535,-109.2991 403.4027,-115.2104"/>
</g>
<!-- &#45;7 -->
<g id="node7" class="node">
<title>&#45;7</title>
<polygon fill="#d3d3d3" stroke="#000000" points="155.5,-169.196 131.5,-169.196 131.5,-151.196 155.5,-151.196 155.5,-169.196"/>
<text text-anchor="middle" x="143.5" y="-157.996" font-family="Times,serif" font-size="9.00" fill="#000000">&#45;7</text>
</g>
<!-- &#45;7&#45;&gt;1082 -->
<g id="edge24" class="edge">
<title>&#45;7&#45;&gt;1082</title>
<path fill="none" stroke="#ff0000" stroke-width=".5" d="M155.7891,-154.4706C158.6126,-153.2844 161.6296,-152.117 164.5,-151.196 235.5561,-128.3965 260.6622,-146.2898 328.5,-115.196 330.3065,-114.3679 332.1092,-113.4286 333.8876,-112.4118"/>
<polygon fill="#ff0000" stroke="#ff0000" stroke-width=".5" points="335.9957,-115.2163 342.4827,-106.8395 332.1878,-109.3427 335.9957,-115.2163"/>
</g>
<!-- &#45;7&#45;&gt;1083 -->
<g id="edge25" class="edge">
<title>&#45;7&#45;&gt;1083</title>
<path fill="none" stroke="#00ff00" stroke-width=".3347" d="M155.8945,-154.7636C158.7125,-153.5621 161.7006,-152.3145 164.5,-151.196 207.2018,-134.1337 221.1322,-137.2189 261.5,-115.196 263.2445,-114.2442 264.9986,-113.208 266.7397,-112.1168"/>
<polygon fill="#00ff00" stroke="#00ff00" stroke-width=".3347" points="268.9327,-114.8581 275.232,-106.3393 264.9952,-109.0705 268.9327,-114.8581"/>
</g>
<!-- &#45;7&#45;&gt;1085 -->
<g id="edge26" class="edge">
<title>&#45;7&#45;&gt;1085</title>
<path fill="none" stroke="#ff0000" stroke-width=".4856" d="M154.4815,-151.0775C166.0697,-141.4554 184.7759,-125.9229 200.3531,-112.9884"/>
<polygon fill="#ff0000" stroke="#ff0000" stroke-width=".4856" points="202.7019,-115.5875 208.1595,-106.5064 198.2301,-110.202 202.7019,-115.5875"/>
</g>
<!-- &#45;7&#45;&gt;1086 -->
<g id="edge27" class="edge">
<title>&#45;7&#45;&gt;1086</title>
<path fill="none" stroke="#ff0000" stroke-width=".5" d="M155.7492,-154.3391C158.5747,-153.1597 161.6026,-152.0283 164.5,-151.196 264.3667,-122.5063 299.7574,-155.5668 395.5,-115.196 397.3311,-114.4238 399.153,-113.5283 400.9462,-112.5452"/>
<polygon fill="#ff0000" stroke="#ff0000" stroke-width=".5" points="403.0136,-115.3786 409.5822,-107.0657 399.2633,-109.468 403.0136,-115.3786"/>
</g>
<!-- &#45;8 -->
<g id="node8" class="node">
<title>&#45;8</title>
<polygon fill="#d3d3d3" stroke="#000000" points="197.5,-169.196 173.5,-169.196 173.5,-151.196 197.5,-151.196 197.5,-169.196"/>
<text text-anchor="middle" x="185.5" y="-157.996" font-family="Times,serif" font-size="9.00" fill="#000000">&#45;8</text>
</g>
<!-- &#45;8&#45;&gt;1082 -->
<g id="edge28" class="edge">
<title>&#45;8&#45;&gt;1082</title>
<path fill="none" stroke="#00ff00" stroke-width=".1419" d="M197.8402,-154.6206C200.661,-153.4265 203.664,-152.2181 206.5,-151.196 259.6849,-132.0278 277.9743,-140.5574 328.5,-115.196 330.2761,-114.3045 332.0549,-113.3154 333.8149,-112.2605"/>
<polygon fill="#00ff00" stroke="#00ff00" stroke-width=".1419" points="335.9676,-115.0324 342.3595,-106.5829 332.0935,-109.2021 335.9676,-115.0324"/>
</g>
<!-- &#45;8&#45;&gt;1083 -->
<g id="edge29" class="edge">
<title>&#45;8&#45;&gt;1083</title>
<path fill="none" stroke="#ff0000" stroke-width=".4671" d="M197.5948,-153.5733C212.8011,-145.1254 239.5704,-129.8485 261.5,-115.196 263.1524,-114.0919 264.8343,-112.9364 266.5199,-111.7536"/>
<polygon fill="#ff0000" stroke="#ff0000" stroke-width=".4671" points="268.8066,-114.4193 274.8593,-105.7235 264.705,-108.7468 268.8066,-114.4193"/>
</g>
<!-- &#45;8&#45;&gt;1085 -->
<g id="edge30" class="edge">
<title>&#45;8&#45;&gt;1085</title>
<path fill="none" stroke="#00ff00" stroke-width=".4489" d="M190.9908,-151.0775C195.6929,-143.2688 202.7389,-131.5676 209.3905,-120.5213"/>
<polygon fill="#00ff00" stroke="#00ff00" stroke-width=".4489" points="212.4279,-122.262 214.5881,-111.8898 206.4312,-118.651 212.4279,-122.262"/>
</g>
<!-- &#45;8&#45;&gt;1086 -->
<g id="edge31" class="edge">
<title>&#45;8&#45;&gt;1086</title>
<path fill="none" stroke="#ff0000" stroke-width=".2741" d="M197.7705,-154.4112C200.595,-153.228 203.617,-152.0769 206.5,-151.196 288.2776,-126.2074 317.2775,-149.7393 395.5,-115.196 397.3179,-114.3932 399.1294,-113.4736 400.9146,-112.4721"/>
<polygon fill="#ff0000" stroke="#ff0000" stroke-width=".2741" points="403.0046,-115.2896 409.5286,-106.9416 399.2227,-109.3991 403.0046,-115.2896"/>
</g>
<!-- &#45;9 -->
<g id="node9" class="node">
<title>&#45;9</title>
<polygon fill="#d3d3d3" stroke="#000000" points="239.5,-169.196 215.5,-169.196 215.5,-151.196 239.5,-151.196 239.5,-169.196"/>
<text text-anchor="middle" x="227.5" y="-157.996" font-family="Times,serif" font-size="9.00" fill="#000000">&#45;9</text>
</g>
<!-- &#45;9&#45;&gt;1082 -->
<g id="edge32" class="edge">
<title>&#45;9&#45;&gt;1082</title>
<path fill="none" stroke="#ff0000" stroke-width=".3961" d="M239.578,-155.2162C262.7218,-145.6083 312.4464,-124.6303 328.5,-115.196 330.2133,-114.1891 331.9429,-113.1097 333.6652,-111.9853"/>
<polygon fill="#ff0000" stroke="#ff0000" stroke-width=".3961" points="335.8935,-114.6989 342.1057,-106.1164 331.8973,-108.9517 335.8935,-114.6989"/>
</g>
<!-- &#45;9&#45;&gt;1083 -->
<g id="edge33" class="edge">
<title>&#45;9&#45;&gt;1083</title>
<path fill="none" stroke="#00ff00" stroke-width=".3629" stroke-dasharray="1,5" d="M236.2591,-151.0775C244.8364,-142.1483 258.3029,-128.1294 270.127,-115.8201"/>
<polygon fill="#00ff00" stroke="#00ff00" stroke-width=".3629" points="272.8152,-118.074 277.2186,-108.4376 267.7669,-113.2247 272.8152,-118.074"/>
</g>
<!-- &#45;9&#45;&gt;1085 -->
<g id="edge34" class="edge">
<title>&#45;9&#45;&gt;1085</title>
<path fill="none" stroke="#00ff00" stroke-width=".1929" d="M227.5,-151.0775C227.5,-144.4608 227.5,-135.0493 227.5,-125.6096"/>
<polygon fill="#00ff00" stroke="#00ff00" stroke-width=".1929" points="231.0001,-125.4865 227.5,-115.4865 224.0001,-125.4865 231.0001,-125.4865"/>
</g>
<!-- &#45;9&#45;&gt;1086 -->
<g id="edge35" class="edge">
<title>&#45;9&#45;&gt;1086</title>
<path fill="none" stroke="#00ff00" stroke-width=".5" stroke-dasharray="1,5" d="M239.9466,-154.7338C243.0356,-153.4814 246.3611,-152.2189 249.5,-151.196 313.0433,-130.4879 335.1079,-143.8205 395.5,-115.196 397.2958,-114.3448 399.09,-113.3874 400.8619,-112.3567"/>
<polygon fill="#00ff00" stroke="#00ff00" stroke-width=".5" points="402.9865,-115.1493 409.4391,-106.7461 399.1545,-109.2912 402.9865,-115.1493"/>
</g>
<!-- &#45;10 -->
<g id="node10" class="node">
<title>&#45;10</title>
<polygon fill="#d3d3d3" stroke="#000000" points="287,-169.196 258,-169.196 258,-151.196 287,-151.196 287,-169.196"/>
<text text-anchor="middle" x="272.5" y="-157.996" font-family="Times,serif" font-size="9.00" fill="#000000">&#45;10</text>
</g>
<!-- &#45;10&#45;&gt;1082 -->
<g id="edge36" class="edge">
<title>&#45;10&#45;&gt;1082</title>
<path fill="none" stroke="#00ff00" stroke-width=".2694" d="M284.1352,-151.0775C296.5737,-141.3296 316.7522,-125.5158 333.3827,-112.4826"/>
<polygon fill="#00ff00" stroke="#00ff00" stroke-width=".2694" points="335.9842,-114.8906 341.6962,-105.9673 331.6663,-109.3809 335.9842,-114.8906"/>
</g>
<!-- &#45;10&#45;&gt;1083 -->
<g id="edge37" class="edge">
<title>&#45;10&#45;&gt;1083</title>
<path fill="none" stroke="#ff0000" stroke-width=".2637" d="M275.3761,-151.0775C277.5774,-144.0985 280.7595,-134.0101 283.8982,-124.0591"/>
<polygon fill="#ff0000" stroke="#ff0000" stroke-width=".2637" points="287.3144,-124.8637 286.9846,-114.274 280.6386,-122.758 287.3144,-124.8637"/>
</g>
<!-- &#45;10&#45;&gt;1085 -->
<g id="edge38" class="edge">
<title>&#45;10&#45;&gt;1085</title>
<path fill="none" stroke="#ff0000" stroke-width=".2261" stroke-dasharray="1,5" d="M266.617,-151.0775C261.5039,-143.1522 253.8038,-131.2174 246.5842,-120.0272"/>
<polygon fill="#ff0000" stroke="#ff0000" stroke-width=".2261" points="249.3182,-117.8087 240.9558,-111.3033 243.4361,-121.6037 249.3182,-117.8087"/>
</g>
<!-- &#45;10&#45;&gt;1086 -->
<g id="edge39" class="edge">
<title>&#45;10&#45;&gt;1086</title>
<path fill="none" stroke="#ff0000" stroke-width=".1355" d="M287.2145,-154.6515C290.281,-153.5035 293.4944,-152.3059 296.5,-151.196 340.4195,-134.9762 354.3259,-137.4827 395.5,-115.196 397.2477,-114.25 399.0042,-113.2183 400.7472,-112.1306"/>
<polygon fill="#ff0000" stroke="#ff0000" stroke-width=".1355" points="402.9364,-114.8748 409.2447,-106.3627 399.005,-109.083 402.9364,-114.8748"/>
</g>
<!-- &#45;11 -->
<g id="node11" class="node">
<title>&#45;11</title>
<polygon fill="#d3d3d3" stroke="#000000" points="334,-169.196 305,-169.196 305,-151.196 334,-151.196 334,-169.196"/>
<text text-anchor="middle" x="319.5" y="-157.996" font-family="Times,serif" font-size="9.00" fill="#000000">&#45;11</text>
</g>
<!-- &#45;11&#45;&gt;1082 -->
<g id="edge40" class="edge">
<title>&#45;11&#45;&gt;1082</title>
<path fill="none" stroke="#ff0000" stroke-width=".1049" d="M324.9908,-151.0775C329.6929,-143.2688 336.7389,-131.5676 343.3905,-120.5213"/>
<polygon fill="#ff0000" stroke="#ff0000" stroke-width=".1049" points="346.4279,-122.262 348.5881,-111.8898 340.4312,-118.651 346.4279,-122.262"/>
</g>
<!-- &#45;11&#45;&gt;1083 -->
<g id="edge41" class="edge">
<title>&#45;11&#45;&gt;1083</title>
<path fill="none" stroke="#00ff00" stroke-width=".5" d="M316.2317,-151.0775C313.6841,-143.9698 309.9805,-133.6371 306.3503,-123.5089"/>
<polygon fill="#00ff00" stroke="#00ff00" stroke-width=".5" points="309.6012,-122.2055 302.9323,-113.9728 303.0117,-124.5674 309.6012,-122.2055"/>
</g>
<!-- &#45;11&#45;&gt;1085 -->
<g id="edge42" class="edge">
<title>&#45;11&#45;&gt;1085</title>
<path fill="none" stroke="#00ff00" stroke-width=".1136" d="M307.4726,-151.0775C294.3295,-141.1132 272.8263,-124.8108 255.4259,-111.6189"/>
<polygon fill="#00ff00" stroke="#00ff00" stroke-width=".1136" points="257.3514,-108.6866 247.2681,-105.4342 253.1224,-114.2647 257.3514,-108.6866"/>
</g>
<!-- &#45;11&#45;&gt;1086 -->
<g id="edge43" class="edge">
<title>&#45;11&#45;&gt;1086</title>
<path fill="none" stroke="#00ff00" stroke-width=".1203" d="M334.0744,-152.1921C349.5893,-143.5283 374.7179,-129.0818 395.5,-115.196 397.1524,-114.0919 398.8343,-112.9364 400.5199,-111.7536"/>
<polygon fill="#00ff00" stroke="#00ff00" stroke-width=".1203" points="402.8066,-114.4193 408.8593,-105.7235 398.705,-108.7468 402.8066,-114.4193"/>
</g>
<!-- &#45;12 -->
<g id="node12" class="node">
<title>&#45;12</title>
<polygon fill="#d3d3d3" stroke="#000000" points="29,-169.196 0,-169.196 0,-151.196 29,-151.196 29,-169.196"/>
<text text-anchor="middle" x="14.5" y="-157.996" font-family="Times,serif" font-size="9.00" fill="#000000">&#45;12</text>
</g>
<!-- &#45;12&#45;&gt;1082 -->
<g id="edge44" class="edge">
<title>&#45;12&#45;&gt;1082</title>
<path fill="none" stroke="#00ff00" stroke-width=".5" d="M29.0507,-154.1171C32.1291,-153.0078 35.3887,-151.9611 38.5,-151.196 164.6204,-120.18 208.0556,-163.7913 328.5,-115.196 330.3927,-114.4323 332.273,-113.532 334.1202,-112.5348"/>
<polygon fill="#00ff00" stroke="#00ff00" stroke-width=".5" points="336.4047,-115.2312 342.9843,-106.9271 332.6622,-109.3156 336.4047,-115.2312"/>
</g>
<!-- &#45;12&#45;&gt;1083 -->
<g id="edge45" class="edge">
<title>&#45;12&#45;&gt;1083</title>
<path fill="none" stroke="#00ff00" stroke-width=".4125" stroke-dasharray="1,5" d="M29.0731,-154.205C32.1499,-153.0893 35.4032,-152.0178 38.5,-151.196 135.5352,-125.4436 169.0999,-154.4545 261.5,-115.196 263.329,-114.4189 265.1493,-113.5194 266.9412,-112.5333"/>
<polygon fill="#00ff00" stroke="#00ff00" stroke-width=".4125" points="269.0123,-115.3641 275.5736,-107.0455 265.2568,-109.4567 269.0123,-115.3641"/>
</g>
<!-- &#45;12&#45;&gt;1085 -->
<g id="edge46" class="edge">
<title>&#45;12&#45;&gt;1085</title>
<path fill="none" stroke="#00ff00" stroke-width=".3129" d="M29.1828,-154.5632C32.2517,-153.4216 35.474,-152.249 38.5,-151.196 92.5032,-132.4035 155.8878,-112.4551 193.8143,-100.7414"/>
<polygon fill="#00ff00" stroke="#00ff00" stroke-width=".3129" points="195.2807,-103.9521 203.8075,-97.6637 193.2203,-97.2622 195.2807,-103.9521"/>
</g>
<!-- &#45;13 -->
<g id="node13" class="node">
<title>&#45;13</title>
<polygon fill="#d3d3d3" stroke="#000000" points="381,-169.196 352,-169.196 352,-151.196 381,-151.196 381,-169.196"/>
<text text-anchor="middle" x="366.5" y="-157.996" font-family="Times,serif" font-size="9.00" fill="#000000">&#45;13</text>
</g>
<!-- &#45;13&#45;&gt;1082 -->
<g id="edge47" class="edge">
<title>&#45;13&#45;&gt;1082</title>
<path fill="none" stroke="#00ff00" stroke-width=".5" d="M365.8463,-151.0775C365.3681,-144.4066 364.6863,-134.8948 364.004,-125.3775"/>
<polygon fill="#00ff00" stroke="#00ff00" stroke-width=".5" points="367.4793,-124.9063 363.2731,-115.1822 360.4972,-125.4069 367.4793,-124.9063"/>
</g>
<!-- &#45;13&#45;&gt;1083 -->
<g id="edge48" class="edge">
<title>&#45;13&#45;&gt;1083</title>
<path fill="none" stroke="#00ff00" stroke-width=".2693" d="M357.0873,-151.0775C347.6554,-141.9406 332.7223,-127.4744 319.8081,-114.964"/>
<polygon fill="#00ff00" stroke="#00ff00" stroke-width=".2693" points="322.1123,-112.3231 312.4945,-107.8791 317.2417,-117.3509 322.1123,-112.3231"/>
</g>
<!-- &#45;13&#45;&gt;1085 -->
<g id="edge49" class="edge">
<title>&#45;13&#45;&gt;1085</title>
<path fill="none" stroke="#ff0000" stroke-width=".2695" d="M351.8829,-154.4997C326.8462,-144.6586 276.8723,-124.624 260.5,-115.196 258.7779,-114.2043 257.0413,-113.1368 255.3137,-112.0215"/>
<polygon fill="#ff0000" stroke="#ff0000" stroke-width=".2695" points="257.075,-108.9842 246.8586,-106.1778 253.095,-114.7427 257.075,-108.9842"/>
</g>
<!-- &#45;13&#45;&gt;1086 -->
<g id="edge50" class="edge">
<title>&#45;13&#45;&gt;1086</title>
<path fill="none" stroke="#ff0000" stroke-width=".3103" d="M374.6054,-151.0775C382.3601,-142.3537 394.4332,-128.7717 405.1885,-116.6722"/>
<polygon fill="#ff0000" stroke="#ff0000" stroke-width=".3103" points="407.9794,-118.8006 412.0073,-109.0012 402.7476,-114.15 407.9794,-118.8006"/>
</g>
<!-- &#45;14 -->
<g id="node14" class="node">
<title>&#45;14</title>
<polygon fill="#d3d3d3" stroke="#000000" points="602,-169.196 573,-169.196 573,-151.196 602,-151.196 602,-169.196"/>
<text text-anchor="middle" x="587.5" y="-157.996" font-family="Times,serif" font-size="9.00" fill="#000000">&#45;14</text>
</g>
<!-- 1 -->
<g id="node17" class="node">
<title>1</title>
<ellipse fill="#add8e6" stroke="#000000" cx="389.5" cy="-14.8492" rx="14.7" ry="14.7"/>
<text text-anchor="middle" x="389.5" y="-12.6492" font-family="Times,serif" font-size="9.00" fill="#000000">1</text>
</g>
<!-- &#45;14&#45;&gt;1 -->
<g id="edge66" class="edge">
<title>&#45;14&#45;&gt;1</title>
<path fill="none" stroke="#00ff00" stroke-width=".3309" d="M575.8946,-151.1838C553.9482,-134.1947 504.7714,-96.3813 462.5,-65.6985 445.11,-53.0759 425.0613,-39.1549 410.3796,-29.0748"/>
<polygon fill="#00ff00" stroke="#00ff00" stroke-width=".3309" points="412.2323,-26.1016 402.0035,-23.3407 408.2781,-31.8777 412.2323,-26.1016"/>
</g>
<!-- &#45;14&#45;&gt;1082 -->
<g id="edge51" class="edge">
<title>&#45;14&#45;&gt;1082</title>
<path fill="none" stroke="#00ff00" stroke-width=".5" d="M572.8937,-154.3241C569.8193,-153.1998 566.5754,-152.0947 563.5,-151.196 489.7869,-129.6538 464.4112,-146.9781 394.5,-115.196 392.6909,-114.3735 390.8862,-113.4386 389.1063,-112.4252"/>
<polygon fill="#00ff00" stroke="#00ff00" stroke-width=".5" points="390.8043,-109.3552 380.5069,-106.8622 387.0022,-115.2326 390.8043,-109.3552"/>
</g>
<!-- &#45;14&#45;&gt;1083 -->
<g id="edge52" class="edge">
<title>&#45;14&#45;&gt;1083</title>
<path fill="none" stroke="#ff0000" stroke-width=".3758" d="M572.9324,-154.1841C569.8552,-153.07 566.6003,-152.0044 563.5,-151.196 460.8307,-124.4247 425.3326,-156.2624 327.5,-115.196 325.6181,-114.406 323.7462,-113.4852 321.9054,-112.4725"/>
<polygon fill="#ff0000" stroke="#ff0000" stroke-width=".3758" points="323.3704,-109.2552 313.0585,-106.8231 319.6029,-115.155 323.3704,-109.2552"/>
</g>
<!-- &#45;14&#45;&gt;1085 -->
<g id="edge53" class="edge">
<title>&#45;14&#45;&gt;1085</title>
<path fill="none" stroke="#00ff00" stroke-width=".3955" d="M572.9524,-154.1044C569.8738,-152.996 566.6133,-151.9529 563.5,-151.196 431.7254,-119.156 386.3961,-165.6071 260.5,-115.196 258.6053,-114.4373 256.7234,-113.5408 254.8751,-112.5466"/>
<polygon fill="#00ff00" stroke="#00ff00" stroke-width=".3955" points="256.3318,-109.327 246.0078,-106.9467 252.594,-115.2456 256.3318,-109.327"/>
</g>
<!-- &#45;14&#45;&gt;1086 -->
<g id="edge54" class="edge">
<title>&#45;14&#45;&gt;1086</title>
<path fill="none" stroke="#00ff00" stroke-width=".38" d="M572.8267,-153.7592C547.497,-142.6478 495.0008,-119.6192 460.7911,-104.6124"/>
<polygon fill="#00ff00" stroke="#00ff00" stroke-width=".38" points="461.8022,-101.2341 451.2386,-100.422 458.9902,-107.6444 461.8022,-101.2341"/>
</g>
<!-- &#45;15 -->
<g id="node15" class="node">
<title>&#45;15</title>
<polygon fill="#d3d3d3" stroke="#000000" points="428,-169.196 399,-169.196 399,-151.196 428,-151.196 428,-169.196"/>
<text text-anchor="middle" x="413.5" y="-157.996" font-family="Times,serif" font-size="9.00" fill="#000000">&#45;15</text>
</g>
<!-- &#45;15&#45;&gt;1082 -->
<g id="edge55" class="edge">
<title>&#45;15&#45;&gt;1082</title>
<path fill="none" stroke="#ff0000" stroke-width=".393" d="M406.7019,-151.0775C400.5434,-142.817 391.1375,-130.2006 382.4974,-118.6116"/>
<polygon fill="#ff0000" stroke="#ff0000" stroke-width=".393" points="385.182,-116.3567 376.3989,-110.4315 379.57,-120.5407 385.182,-116.3567"/>
</g>
<!-- &#45;15&#45;&gt;1083 -->
<g id="edge56" class="edge">
<title>&#45;15&#45;&gt;1083</title>
<path fill="none" stroke="#00ff00" stroke-width=".5" d="M398.799,-153.4013C381.3504,-145.1345 351.5862,-130.3902 327.5,-115.196 325.8192,-114.1357 324.1151,-113.0145 322.4124,-111.858"/>
<polygon fill="#00ff00" stroke="#00ff00" stroke-width=".5" points="324.2052,-108.8383 314.0258,-105.9005 320.1513,-114.5451 324.2052,-108.8383"/>
</g>
<!-- &#45;15&#45;&gt;1085 -->
<g id="edge57" class="edge">
<title>&#45;15&#45;&gt;1085</title>
<path fill="none" stroke="#00ff00" stroke-width=".388" d="M398.9819,-154.2546C396.1858,-153.1845 393.2663,-152.1175 390.5,-151.196 333.6209,-132.2476 314.3049,-141.6404 260.5,-115.196 258.7165,-114.3194 256.9319,-113.3421 255.1674,-112.2961"/>
<polygon fill="#00ff00" stroke="#00ff00" stroke-width=".388" points="256.8834,-109.235 246.6105,-106.6433 253.025,-115.0756 256.8834,-109.235"/>
</g>
<!-- &#45;15&#45;&gt;1086 -->
<g id="edge58" class="edge">
<title>&#45;15&#45;&gt;1086</title>
<path fill="none" stroke="#ff0000" stroke-width=".5" d="M415.461,-151.0775C416.9227,-144.2808 419.0186,-134.5351 421.1037,-124.8392"/>
<polygon fill="#ff0000" stroke="#ff0000" stroke-width=".5" points="424.565,-125.3911 423.2458,-114.8787 417.7215,-123.9193 424.565,-125.3911"/>
</g>
<!-- 0 -->
<g id="node16" class="node">
<title>0</title>
<ellipse fill="#add8e6" stroke="#000000" cx="332.5" cy="-14.8492" rx="14.7" ry="14.7"/>
<text text-anchor="middle" x="332.5" y="-12.6492" font-family="Times,serif" font-size="9.00" fill="#000000">0</text>
</g>
<!-- 1082&#45;&gt;0 -->
<g id="edge59" class="edge">
<title>1082&#45;&gt;0</title>
<path fill="none" stroke="#ff0000" stroke-width=".3615" d="M352.4832,-66.9419C349.004,-57.8723 345.0309,-47.515 341.5487,-38.4375"/>
<polygon fill="#ff0000" stroke="#ff0000" stroke-width=".3615" points="344.7277,-36.9524 337.8782,-28.8694 338.1921,-39.4596 344.7277,-36.9524"/>
</g>
<!-- 1082&#45;&gt;1 -->
<g id="edge60" class="edge">
<title>1082&#45;&gt;1</title>
<path fill="none" stroke="#ff0000" stroke-width=".2834" d="M370.2059,-66.9419C373.5651,-57.8723 377.4012,-47.515 380.7634,-38.4375"/>
<polygon fill="#ff0000" stroke="#ff0000" stroke-width=".2834" points="384.116,-39.4625 384.3072,-28.8694 377.5518,-37.0312 384.116,-39.4625"/>
</g>
<!-- 1083&#45;&gt;0 -->
<g id="edge61" class="edge">
<title>1083&#45;&gt;0</title>
<path fill="none" stroke="#00ff00" stroke-width=".3379" stroke-dasharray="1,5" d="M305.6957,-68.1742C310.5559,-58.5053 316.2407,-47.1958 321.1213,-37.4863"/>
<polygon fill="#00ff00" stroke="#00ff00" stroke-width=".3379" points="324.3094,-38.9368 325.6735,-28.4301 318.0551,-35.793 324.3094,-38.9368"/>
</g>
<!-- 1085&#45;&gt;0 -->
<g id="edge62" class="edge">
<title>1085&#45;&gt;0</title>
<path fill="none" stroke="#ff0000" stroke-width=".275" d="M247.3253,-75.4355C251.6505,-72.2007 256.2154,-68.8171 260.5,-65.6985 277.7134,-53.1693 297.4822,-39.2402 311.945,-29.1332"/>
<polygon fill="#ff0000" stroke="#ff0000" stroke-width=".275" points="313.9936,-31.9716 320.1941,-23.3807 309.9896,-26.2298 313.9936,-31.9716"/>
</g>
<!-- 1085&#45;&gt;1 -->
<g id="edge63" class="edge">
<title>1085&#45;&gt;1</title>
<path fill="none" stroke="#ff0000" stroke-width=".2944" d="M246.7745,-74.5671C251.134,-71.3863 255.8522,-68.2444 260.5,-65.6985 300.4651,-43.8071 314.3676,-47.0567 356.5,-29.6985 359.7947,-28.3411 363.2493,-26.8563 366.6313,-25.3671"/>
<polygon fill="#ff0000" stroke="#ff0000" stroke-width=".2944" points="368.0881,-28.5497 375.7773,-21.261 365.221,-22.1638 368.0881,-28.5497"/>
</g>
<!-- 1086&#45;&gt;0 -->
<g id="edge64" class="edge">
<title>1086&#45;&gt;0</title>
<path fill="none" stroke="#00ff00" stroke-width=".4408" d="M408.6087,-74.7833C392.053,-61.7459 368.6089,-43.2842 352.1269,-30.3051"/>
<polygon fill="#00ff00" stroke="#00ff00" stroke-width=".4408" points="354.2378,-27.5124 344.216,-24.0753 349.907,-33.0119 354.2378,-27.5124"/>
</g>
<!-- 1086&#45;&gt;1 -->
<g id="edge65" class="edge">
<title>1086&#45;&gt;1</title>
<path fill="none" stroke="#00ff00" stroke-width=".2322" stroke-dasharray="1,5" d="M417.0097,-68.1742C412.0216,-58.5053 406.1872,-47.1958 401.1782,-37.4863"/>
<polygon fill="#00ff00" stroke="#00ff00" stroke-width=".2322" points="404.2015,-35.7125 396.5062,-28.4301 397.9805,-38.9219 404.2015,-35.7125"/>
</g>
</g>
</svg>
