<?xml version="1.0" encoding="UTF-8" standalone="no"?>
<!DOCTYPE svg PUBLIC "-//W3C//DTD SVG 1.1//EN"
 "http://www.w3.org/Graphics/SVG/1.1/DTD/svg11.dtd">
<!-- Generated by graphviz version 2.40.1 (20161225.0304)
 -->
<!-- Title: %3 Pages: 1 -->
<svg width="459pt" height="263pt"
 viewBox="0.00 0.00 459.50 262.69" xmlns="http://www.w3.org/2000/svg" xmlns:xlink="http://www.w3.org/1999/xlink">
<g id="graph0" class="graph" transform="scale(1 1) rotate(0) translate(4 258.6934)">
<title>%3</title>
<polygon fill="#ffffff" stroke="transparent" points="-4,4 -4,-258.6934 455.4975,-258.6934 455.4975,4 -4,4"/>
<!-- &#45;1 -->
<g id="node1" class="node">
<title>&#45;1</title>
<polygon fill="#d3d3d3" stroke="#000000" points="246.7487,-254.6934 222.7487,-254.6934 222.7487,-236.6934 246.7487,-236.6934 246.7487,-254.6934"/>
<text text-anchor="middle" x="234.7487" y="-243.4934" font-family="Times,serif" font-size="9.00" fill="#000000">&#45;1</text>
</g>
<!-- 3141 -->
<g id="node6" class="node">
<title>3141</title>
<ellipse fill="#ffffff" stroke="#000000" cx="373.7487" cy="-90.4472" rx="25" ry="25"/>
<text text-anchor="middle" x="373.7487" y="-88.2472" font-family="Times,serif" font-size="9.00" fill="#000000">3141</text>
</g>
<!-- &#45;1&#45;&gt;3141 -->
<g id="edge1" class="edge">
<title>&#45;1&#45;&gt;3141</title>
<path fill="none" stroke="#00ff00" stroke-width=".5" d="M247.0324,-241.5762C264.4477,-235.2107 296.4505,-221.5 316.7487,-200.6934 328.3911,-188.7595 346.7872,-150.9667 359.5171,-122.9397"/>
<polygon fill="#00ff00" stroke="#00ff00" stroke-width=".5" points="362.8563,-124.0479 363.7632,-113.492 356.4714,-121.1784 362.8563,-124.0479"/>
</g>
<!-- 3142 -->
<g id="node7" class="node">
<title>3142</title>
<ellipse fill="#ffffff" stroke="#000000" cx="153.7487" cy="-90.4472" rx="25" ry="25"/>
<text text-anchor="middle" x="153.7487" y="-88.2472" font-family="Times,serif" font-size="9.00" fill="#000000">3142</text>
</g>
<!-- &#45;1&#45;&gt;3142 -->
<g id="edge2" class="edge">
<title>&#45;1&#45;&gt;3142</title>
<path fill="none" stroke="#00ff00" stroke-width=".1156" stroke-dasharray="1,5" d="M222.6792,-239.5001C209.5129,-232.0951 188.8382,-218.4434 177.7487,-200.6934 163.618,-178.0757 157.7293,-148.3331 155.3128,-125.4415"/>
<polygon fill="#00ff00" stroke="#00ff00" stroke-width=".1156" points="158.7971,-125.1087 154.4296,-115.4559 151.8243,-125.7254 158.7971,-125.1087"/>
</g>
<!-- 3143 -->
<g id="node8" class="node">
<title>3143</title>
<ellipse fill="#ffffff" stroke="#000000" cx="282.7487" cy="-175.9447" rx="25" ry="25"/>
<text text-anchor="middle" x="282.7487" y="-173.7447" font-family="Times,serif" font-size="9.00" fill="#000000">3143</text>
</g>
<!-- &#45;1&#45;&gt;3143 -->
<g id="edge3" class="edge">
<title>&#45;1&#45;&gt;3143</title>
<path fill="none" stroke="#ff0000" stroke-width=".5" stroke-dasharray="1,5" d="M241.0239,-236.575C246.5725,-228.5124 254.9768,-216.3001 262.7921,-204.9437"/>
<polygon fill="#ff0000" stroke="#ff0000" stroke-width=".5" points="265.8107,-206.7311 268.5967,-196.5091 260.0443,-202.7627 265.8107,-206.7311"/>
</g>
<!-- 3144 -->
<g id="node9" class="node">
<title>3144</title>
<ellipse fill="#ffffff" stroke="#000000" cx="229.7487" cy="-90.4472" rx="25" ry="25"/>
<text text-anchor="middle" x="229.7487" y="-88.2472" font-family="Times,serif" font-size="9.00" fill="#000000">3144</text>
</g>
<!-- &#45;1&#45;&gt;3144 -->
<g id="edge4" class="edge">
<title>&#45;1&#45;&gt;3144</title>
<path fill="none" stroke="#00ff00" stroke-width=".3036" d="M234.4509,-236.447C233.7621,-215.0587 232.0292,-161.2526 230.8706,-125.2799"/>
<polygon fill="#00ff00" stroke="#00ff00" stroke-width=".3036" points="234.366,-125.0787 230.5458,-115.1966 227.3697,-125.3041 234.366,-125.0787"/>
</g>
<!-- &#45;2 -->
<g id="node2" class="node">
<title>&#45;2</title>
<polygon fill="#d3d3d3" stroke="#000000" points="108.7487,-254.6934 84.7487,-254.6934 84.7487,-236.6934 108.7487,-236.6934 108.7487,-254.6934"/>
<text text-anchor="middle" x="96.7487" y="-243.4934" font-family="Times,serif" font-size="9.00" fill="#000000">&#45;2</text>
</g>
<!-- &#45;2&#45;&gt;3142 -->
<g id="edge5" class="edge">
<title>&#45;2&#45;&gt;3142</title>
<path fill="none" stroke="#ff0000" stroke-width=".2995" stroke-dasharray="1,5" d="M95.3691,-236.6903C93.1123,-219.3963 89.9757,-180.6368 101.7487,-151.196 107.3899,-137.0891 117.7109,-123.9416 127.6796,-113.5112"/>
<polygon fill="#ff0000" stroke="#ff0000" stroke-width=".2995" points="130.1845,-115.9563 134.8042,-106.4217 125.2469,-110.9944 130.1845,-115.9563"/>
</g>
<!-- &#45;2&#45;&gt;3143 -->
<g id="edge6" class="edge">
<title>&#45;2&#45;&gt;3143</title>
<path fill="none" stroke="#00ff00" stroke-width=".4038" d="M108.9527,-241.117C137.2354,-230.5112 208.046,-203.9577 250.0375,-188.2112"/>
<polygon fill="#00ff00" stroke="#00ff00" stroke-width=".4038" points="251.41,-191.4346 259.5444,-184.6462 248.9521,-184.8803 251.41,-191.4346"/>
</g>
<!-- &#45;2&#45;&gt;3144 -->
<g id="edge7" class="edge">
<title>&#45;2&#45;&gt;3144</title>
<path fill="none" stroke="#ff0000" stroke-width=".4172" d="M104.6702,-236.447C124.3954,-213.4225 176.3049,-152.8303 206.6929,-117.3595"/>
<polygon fill="#ff0000" stroke="#ff0000" stroke-width=".4172" points="209.7107,-119.2165 213.5588,-109.3452 204.3948,-114.6623 209.7107,-119.2165"/>
</g>
<!-- 6231 -->
<g id="node10" class="node">
<title>6231</title>
<ellipse fill="#ffffff" stroke="#000000" cx="24.7487" cy="-175.9447" rx="25" ry="25"/>
<text text-anchor="middle" x="24.7487" y="-173.7447" font-family="Times,serif" font-size="9.00" fill="#000000">6231</text>
</g>
<!-- &#45;2&#45;&gt;6231 -->
<g id="edge20" class="edge">
<title>&#45;2&#45;&gt;6231</title>
<path fill="none" stroke="#00ff00" stroke-width=".2826" d="M87.336,-236.575C77.9042,-227.4381 62.9711,-212.9719 50.0568,-200.4614"/>
<polygon fill="#00ff00" stroke="#00ff00" stroke-width=".2826" points="52.361,-197.8206 42.7432,-193.3766 47.4905,-202.8483 52.361,-197.8206"/>
</g>
<!-- &#45;3 -->
<g id="node3" class="node">
<title>&#45;3</title>
<polygon fill="#d3d3d3" stroke="#000000" points="339.7487,-254.6934 315.7487,-254.6934 315.7487,-236.6934 339.7487,-236.6934 339.7487,-254.6934"/>
<text text-anchor="middle" x="327.7487" y="-243.4934" font-family="Times,serif" font-size="9.00" fill="#000000">&#45;3</text>
</g>
<!-- &#45;3&#45;&gt;3141 -->
<g id="edge8" class="edge">
<title>&#45;3&#45;&gt;3141</title>
<path fill="none" stroke="#00ff00" stroke-width=".2475" stroke-dasharray="1,5" d="M332.9691,-236.6645C337.9146,-227.7713 345.2375,-213.6717 349.7487,-200.6934 358.3545,-175.9357 364.5209,-146.9394 368.4468,-124.8994"/>
<polygon fill="#00ff00" stroke="#00ff00" stroke-width=".2475" points="371.9046,-125.4434 370.1443,-114.9958 365.0052,-124.2608 371.9046,-125.4434"/>
</g>
<!-- &#45;3&#45;&gt;3142 -->
<g id="edge9" class="edge">
<title>&#45;3&#45;&gt;3142</title>
<path fill="none" stroke="#ff0000" stroke-width=".2486" d="M315.7099,-240.4287C299.4943,-232.9971 270.1978,-218.348 248.7487,-200.6934 219.5605,-176.6688 192.0389,-143.0667 174.2067,-119.2896"/>
<polygon fill="#ff0000" stroke="#ff0000" stroke-width=".2486" points="176.8473,-116.9736 168.0902,-111.0101 171.2171,-121.133 176.8473,-116.9736"/>
</g>
<!-- &#45;3&#45;&gt;3143 -->
<g id="edge10" class="edge">
<title>&#45;3&#45;&gt;3143</title>
<path fill="none" stroke="#ff0000" stroke-width=".5" d="M321.8658,-236.575C316.7526,-228.6497 309.0526,-216.7149 301.8329,-205.5246"/>
<polygon fill="#ff0000" stroke="#ff0000" stroke-width=".5" points="304.5669,-203.3062 296.2045,-196.8007 298.6849,-207.1012 304.5669,-203.3062"/>
</g>
<!-- 6077 -->
<g id="node11" class="node">
<title>6077</title>
<ellipse fill="#ffffff" stroke="#000000" cx="426.7487" cy="-175.9447" rx="25" ry="25"/>
<text text-anchor="middle" x="426.7487" y="-173.7447" font-family="Times,serif" font-size="9.00" fill="#000000">6077</text>
</g>
<!-- &#45;3&#45;&gt;6077 -->
<g id="edge18" class="edge">
<title>&#45;3&#45;&gt;6077</title>
<path fill="none" stroke="#ff0000" stroke-width=".4723" d="M339.8881,-237.1409C354.2806,-227.0008 378.7478,-209.7629 398.0536,-196.1614"/>
<polygon fill="#ff0000" stroke="#ff0000" stroke-width=".4723" points="400.0768,-199.0174 406.2359,-190.3967 396.0452,-193.295 400.0768,-199.0174"/>
</g>
<!-- 0 -->
<g id="node4" class="node">
<title>0</title>
<ellipse fill="#add8e6" stroke="#000000" cx="251.7487" cy="-14.8492" rx="14.7" ry="14.7"/>
<text text-anchor="middle" x="251.7487" y="-12.6492" font-family="Times,serif" font-size="9.00" fill="#000000">0</text>
</g>
<!-- 1 -->
<g id="node5" class="node">
<title>1</title>
<ellipse fill="#add8e6" stroke="#000000" cx="320.7487" cy="-14.8492" rx="14.7" ry="14.7"/>
<text text-anchor="middle" x="320.7487" y="-12.6492" font-family="Times,serif" font-size="9.00" fill="#000000">1</text>
</g>
<!-- 3141&#45;&gt;0 -->
<g id="edge11" class="edge">
<title>3141&#45;&gt;0</title>
<path fill="none" stroke="#ff0000" stroke-width=".3956" stroke-dasharray="1,5" d="M352.498,-77.2791C330.2763,-63.5093 295.5895,-42.0154 273.2681,-28.1838"/>
<polygon fill="#ff0000" stroke="#ff0000" stroke-width=".3956" points="274.8752,-25.0622 264.5312,-22.77 271.188,-31.0124 274.8752,-25.0622"/>
</g>
<!-- 3141&#45;&gt;1 -->
<g id="edge12" class="edge">
<title>3141&#45;&gt;1</title>
<path fill="none" stroke="#00ff00" stroke-width=".452" d="M359.2663,-69.7897C351.7955,-59.1337 342.7082,-46.1717 335.2367,-35.5145"/>
<polygon fill="#00ff00" stroke="#00ff00" stroke-width=".452" points="338.0181,-33.3848 329.4116,-27.2058 332.2864,-37.4032 338.0181,-33.3848"/>
</g>
<!-- 3142&#45;&gt;0 -->
<g id="edge13" class="edge">
<title>3142&#45;&gt;0</title>
<path fill="none" stroke="#00ff00" stroke-width=".1622" stroke-dasharray="1,5" d="M173.5805,-75.1488C190.5359,-62.0693 214.8172,-43.3385 231.8048,-30.2342"/>
<polygon fill="#00ff00" stroke="#00ff00" stroke-width=".1622" points="234.1658,-32.8333 239.9459,-23.954 229.8902,-27.2907 234.1658,-32.8333"/>
</g>
<!-- 3143&#45;&gt;0 -->
<g id="edge14" class="edge">
<title>3143&#45;&gt;0</title>
<path fill="none" stroke="#ff0000" stroke-width=".5" d="M278.9504,-151.3434C275.3878,-128.9479 269.7264,-95.0052 263.7487,-65.6985 261.9898,-57.0748 259.8403,-47.6833 257.849,-39.3448"/>
<polygon fill="#ff0000" stroke="#ff0000" stroke-width=".5" points="261.2149,-38.3738 255.4525,-29.483 254.4129,-40.0267 261.2149,-38.3738"/>
</g>
<!-- 3143&#45;&gt;1 -->
<g id="edge15" class="edge">
<title>3143&#45;&gt;1</title>
<path fill="none" stroke="#ff0000" stroke-width=".3872" stroke-dasharray="1,5" d="M288.4377,-151.8271C295.5868,-121.5197 307.7885,-69.7922 314.9765,-39.3197"/>
<polygon fill="#ff0000" stroke="#ff0000" stroke-width=".3872" points="318.404,-40.034 317.2934,-29.4976 311.591,-38.4269 318.404,-40.034"/>
</g>
<!-- 3143&#45;&gt;3144 -->
<g id="edge22" class="edge">
<title>3143&#45;&gt;3144</title>
<path fill="none" stroke="#00ff00" stroke-width=".2335" d="M269.6476,-154.8105C263.2136,-144.4315 255.3497,-131.7456 248.3094,-120.3885"/>
<polygon fill="#00ff00" stroke="#00ff00" stroke-width=".2335" points="251.1265,-118.2899 242.8828,-111.6346 245.1769,-121.9781 251.1265,-118.2899"/>
</g>
<!-- 3144&#45;&gt;0 -->
<g id="edge16" class="edge">
<title>3144&#45;&gt;0</title>
<path fill="none" stroke="#ff0000" stroke-width=".1485" d="M236.7097,-66.5275C239.2793,-57.6976 242.1904,-47.6942 244.7623,-38.8566"/>
<polygon fill="#ff0000" stroke="#ff0000" stroke-width=".1485" points="248.1511,-39.7372 247.5848,-29.1575 241.43,-37.7812 248.1511,-39.7372"/>
</g>
<!-- 3144&#45;&gt;1 -->
<g id="edge17" class="edge">
<title>3144&#45;&gt;1</title>
<path fill="none" stroke="#ff0000" stroke-width=".4117" d="M249.0475,-74.4148C264.4546,-61.6154 285.9421,-43.7648 301.3701,-30.948"/>
<polygon fill="#ff0000" stroke="#ff0000" stroke-width=".4117" points="303.7854,-33.4917 309.2408,-24.4094 299.3123,-28.1073 303.7854,-33.4917"/>
</g>
<!-- 6231&#45;&gt;3142 -->
<g id="edge21" class="edge">
<title>6231&#45;&gt;3142</title>
<path fill="none" stroke="#00ff00" stroke-width=".5" stroke-dasharray="1,5" d="M45.4748,-162.208C66.9147,-147.9983 100.5722,-125.6911 124.6692,-109.7203"/>
<polygon fill="#00ff00" stroke="#00ff00" stroke-width=".5" points="126.6722,-112.5917 133.0741,-104.1498 122.805,-106.7569 126.6722,-112.5917"/>
</g>
<!-- 6077&#45;&gt;3141 -->
<g id="edge19" class="edge">
<title>6077&#45;&gt;3141</title>
<path fill="none" stroke="#00ff00" stroke-width=".1061" d="M413.6476,-154.8105C407.2136,-144.4315 399.3497,-131.7456 392.3094,-120.3885"/>
<polygon fill="#00ff00" stroke="#00ff00" stroke-width=".1061" points="395.1265,-118.2899 386.8828,-111.6346 389.1769,-121.9781 395.1265,-118.2899"/>
</g>
</g>
</svg>
