<?xml version="1.0" encoding="UTF-8" standalone="no"?>
<!DOCTYPE svg PUBLIC "-//W3C//DTD SVG 1.1//EN"
 "http://www.w3.org/Graphics/SVG/1.1/DTD/svg11.dtd">
<!-- Generated by graphviz version 2.40.1 (20161225.0304)
 -->
<!-- Title: %3 Pages: 1 -->
<svg width="651pt" height="170pt"
 viewBox="0.00 0.00 651.00 170.12" xmlns="http://www.w3.org/2000/svg" xmlns:xlink="http://www.w3.org/1999/xlink">
<g id="graph0" class="graph" transform="scale(1 1) rotate(0) translate(4 166.1249)">
<title>%3</title>
<polygon fill="#ffffff" stroke="transparent" points="-4,4 -4,-166.1249 647,-166.1249 647,4 -4,4"/>
<!-- &#45;1 -->
<g id="node1" class="node">
<title>&#45;1</title>
<polygon fill="#d3d3d3" stroke="#000000" points="24,-162.1249 0,-162.1249 0,-144.1249 24,-144.1249 24,-162.1249"/>
<text text-anchor="middle" x="12" y="-150.9249" font-family="Times,serif" font-size="9.00" fill="#000000">&#45;1</text>
</g>
<!-- 740 -->
<g id="node18" class="node">
<title>740</title>
<ellipse fill="#ffffff" stroke="#000000" cx="183" cy="-86.9117" rx="21.4286" ry="21.4286"/>
<text text-anchor="middle" x="183" y="-84.7117" font-family="Times,serif" font-size="9.00" fill="#000000">740</text>
</g>
<!-- &#45;1&#45;&gt;740 -->
<g id="edge1" class="edge">
<title>&#45;1&#45;&gt;740</title>
<path fill="none" stroke="#00ff00" stroke-width=".4582" d="M24.402,-147.7112C27.2197,-146.5088 30.2057,-145.256 33,-144.1249 74.5482,-127.306 123.091,-109.0399 153.4437,-97.7822"/>
<polygon fill="#00ff00" stroke="#00ff00" stroke-width=".4582" points="154.8393,-100.9978 163.0035,-94.2453 152.4103,-94.4327 154.8393,-100.9978"/>
</g>
<!-- 741 -->
<g id="node19" class="node">
<title>741</title>
<ellipse fill="#ffffff" stroke="#000000" cx="303" cy="-86.9117" rx="21.4286" ry="21.4286"/>
<text text-anchor="middle" x="303" y="-84.7117" font-family="Times,serif" font-size="9.00" fill="#000000">741</text>
</g>
<!-- &#45;1&#45;&gt;741 -->
<g id="edge2" class="edge">
<title>&#45;1&#45;&gt;741</title>
<path fill="none" stroke="#00ff00" stroke-width=".2426" d="M24.2457,-147.2558C27.0714,-146.077 30.1002,-144.949 33,-144.1249 136.7516,-114.6396 172.9219,-148.3511 273,-108.1249 274.6276,-107.4707 276.2518,-106.7122 277.8544,-105.8795"/>
<polygon fill="#00ff00" stroke="#00ff00" stroke-width=".2426" points="279.9539,-108.6987 286.672,-100.5062 276.3113,-102.7212 279.9539,-108.6987"/>
</g>
<!-- 742 -->
<g id="node20" class="node">
<title>742</title>
<ellipse fill="#ffffff" stroke="#000000" cx="363" cy="-86.9117" rx="21.4286" ry="21.4286"/>
<text text-anchor="middle" x="363" y="-84.7117" font-family="Times,serif" font-size="9.00" fill="#000000">742</text>
</g>
<!-- &#45;1&#45;&gt;742 -->
<g id="edge3" class="edge">
<title>&#45;1&#45;&gt;742</title>
<path fill="none" stroke="#00ff00" stroke-width=".1342" d="M24.2281,-147.1923C27.0548,-146.0168 30.0884,-144.9062 33,-144.1249 162.7015,-109.3213 207.6746,-156.3673 333,-108.1249 334.6371,-107.4947 336.2686,-106.7551 337.877,-105.9369"/>
<polygon fill="#00ff00" stroke="#00ff00" stroke-width=".1342" points="339.9579,-108.7691 346.711,-100.6054 336.3409,-102.776 339.9579,-108.7691"/>
</g>
<!-- 743 -->
<g id="node21" class="node">
<title>743</title>
<ellipse fill="#ffffff" stroke="#000000" cx="243" cy="-86.9117" rx="21.4286" ry="21.4286"/>
<text text-anchor="middle" x="243" y="-84.7117" font-family="Times,serif" font-size="9.00" fill="#000000">743</text>
</g>
<!-- &#45;1&#45;&gt;743 -->
<g id="edge4" class="edge">
<title>&#45;1&#45;&gt;743</title>
<path fill="none" stroke="#00ff00" stroke-width=".364" d="M24.2766,-147.3597C27.1007,-146.1755 30.1211,-145.0191 33,-144.1249 110.9128,-119.926 138.062,-140.3784 213,-108.1249 214.571,-107.4487 216.142,-106.6815 217.6958,-105.8497"/>
<polygon fill="#00ff00" stroke="#00ff00" stroke-width=".364" points="219.6036,-108.7854 226.2865,-100.5641 215.9353,-102.8235 219.6036,-108.7854"/>
</g>
<!-- 745 -->
<g id="node22" class="node">
<title>745</title>
<ellipse fill="#ffffff" stroke="#000000" cx="423" cy="-86.9117" rx="21.4286" ry="21.4286"/>
<text text-anchor="middle" x="423" y="-84.7117" font-family="Times,serif" font-size="9.00" fill="#000000">745</text>
</g>
<!-- &#45;1&#45;&gt;745 -->
<g id="edge5" class="edge">
<title>&#45;1&#45;&gt;745</title>
<path fill="none" stroke="#00ff00" stroke-width=".5" d="M24.2169,-147.1496C27.0441,-145.9763 30.0808,-144.8774 33,-144.1249 188.7081,-103.9877 242.3727,-164.4047 393,-108.1249 394.6432,-107.5109 396.2796,-106.7841 397.8917,-105.9757"/>
<polygon fill="#00ff00" stroke="#00ff00" stroke-width=".5" points="399.9599,-108.8165 406.7364,-100.6722 396.3601,-102.8131 399.9599,-108.8165"/>
</g>
<!-- &#45;2 -->
<g id="node2" class="node">
<title>&#45;2</title>
<polygon fill="#d3d3d3" stroke="#000000" points="66,-162.1249 42,-162.1249 42,-144.1249 66,-144.1249 66,-162.1249"/>
<text text-anchor="middle" x="54" y="-150.9249" font-family="Times,serif" font-size="9.00" fill="#000000">&#45;2</text>
</g>
<!-- &#45;2&#45;&gt;740 -->
<g id="edge6" class="edge">
<title>&#45;2&#45;&gt;740</title>
<path fill="none" stroke="#ff0000" stroke-width=".5" d="M66.3691,-146.7761C86.5641,-136.4104 127.1242,-115.5917 154.6731,-101.4513"/>
<polygon fill="#ff0000" stroke="#ff0000" stroke-width=".5" points="156.5219,-104.4366 163.8202,-96.7563 153.3254,-98.209 156.5219,-104.4366"/>
</g>
<!-- &#45;2&#45;&gt;741 -->
<g id="edge7" class="edge">
<title>&#45;2&#45;&gt;741</title>
<path fill="none" stroke="#ff0000" stroke-width=".3725" d="M66.2651,-147.3222C69.0898,-146.14 72.1134,-144.9938 75,-144.1249 160.647,-118.3453 190.5368,-142.7632 273,-108.1249 274.5769,-107.4625 276.1525,-106.7062 277.7099,-105.8829"/>
<polygon fill="#ff0000" stroke="#ff0000" stroke-width=".3725" points="279.6064,-108.8257 286.3113,-100.6223 275.9541,-102.8541 279.6064,-108.8257"/>
</g>
<!-- &#45;2&#45;&gt;742 -->
<g id="edge8" class="edge">
<title>&#45;2&#45;&gt;742</title>
<path fill="none" stroke="#ff0000" stroke-width=".2474" d="M66.2395,-147.2337C69.0655,-146.0561 72.0961,-144.9341 75,-144.1249 186.5283,-113.0464 225.3557,-150.7528 333,-108.1249 334.631,-107.479 336.2577,-106.7271 337.8623,-105.8994"/>
<polygon fill="#ff0000" stroke="#ff0000" stroke-width=".2474" points="339.9555,-108.7232 346.6857,-100.5406 336.3217,-102.7402 339.9555,-108.7232"/>
</g>
<!-- &#45;2&#45;&gt;743 -->
<g id="edge9" class="edge">
<title>&#45;2&#45;&gt;743</title>
<path fill="none" stroke="#00ff00" stroke-width=".5" stroke-dasharray="1,5" d="M66.3167,-147.4825C69.1387,-146.292 72.1481,-145.1019 75,-144.1249 134.965,-123.5829 155.526,-134.8554 213,-108.1249 214.5508,-107.4036 216.1059,-106.6007 217.6473,-105.7412"/>
<polygon fill="#00ff00" stroke="#00ff00" stroke-width=".5" points="219.591,-108.6536 226.2013,-100.3738 215.8705,-102.7242 219.591,-108.6536"/>
</g>
<!-- &#45;2&#45;&gt;745 -->
<g id="edge10" class="edge">
<title>&#45;2&#45;&gt;745</title>
<path fill="none" stroke="#00ff00" stroke-width=".2531" d="M66.2243,-147.1778C69.0511,-146.0031 72.0858,-144.8964 75,-144.1249 212.499,-107.7224 260.0884,-158.7769 393,-108.1249 394.6392,-107.5002 396.2724,-106.7649 397.882,-105.9501"/>
<polygon fill="#00ff00" stroke="#00ff00" stroke-width=".2531" points="399.9587,-108.7852 406.7197,-100.628 396.3475,-102.7885 399.9587,-108.7852"/>
</g>
<!-- &#45;3 -->
<g id="node3" class="node">
<title>&#45;3</title>
<polygon fill="#d3d3d3" stroke="#000000" points="108,-162.1249 84,-162.1249 84,-144.1249 108,-144.1249 108,-162.1249"/>
<text text-anchor="middle" x="96" y="-150.9249" font-family="Times,serif" font-size="9.00" fill="#000000">&#45;3</text>
</g>
<!-- &#45;3&#45;&gt;740 -->
<g id="edge11" class="edge">
<title>&#45;3&#45;&gt;740</title>
<path fill="none" stroke="#ff0000" stroke-width=".5" d="M108.097,-143.9182C120.8995,-134.1746 141.4726,-118.517 157.8212,-106.0745"/>
<polygon fill="#ff0000" stroke="#ff0000" stroke-width=".5" points="160.084,-108.7508 165.9219,-99.9094 155.8447,-103.1805 160.084,-108.7508"/>
</g>
<!-- &#45;3&#45;&gt;741 -->
<g id="edge12" class="edge">
<title>&#45;3&#45;&gt;741</title>
<path fill="none" stroke="#00ff00" stroke-width=".1663" d="M108.2965,-147.4224C111.1196,-146.2349 114.1345,-145.0613 117,-144.1249 184.6358,-122.0226 208.0618,-137.2133 273,-108.1249 274.5609,-107.4257 276.1239,-106.6403 277.6715,-105.7943"/>
<polygon fill="#00ff00" stroke="#00ff00" stroke-width=".1663" points="279.5978,-108.7181 286.2438,-100.4669 275.9029,-102.7727 279.5978,-108.7181"/>
</g>
<!-- &#45;3&#45;&gt;742 -->
<g id="edge13" class="edge">
<title>&#45;3&#45;&gt;742</title>
<path fill="none" stroke="#ff0000" stroke-width=".1997" d="M108.2557,-147.2907C111.0809,-146.1101 114.107,-144.9725 117,-144.1249 210.3977,-116.7596 242.9956,-145.1547 333,-108.1249 334.6223,-107.4575 336.2422,-106.6886 337.8415,-105.8479"/>
<polygon fill="#ff0000" stroke="#ff0000" stroke-width=".1997" points="339.9511,-108.6601 346.6498,-100.4517 336.2944,-102.6912 339.9511,-108.6601"/>
</g>
<!-- &#45;3&#45;&gt;743 -->
<g id="edge14" class="edge">
<title>&#45;3&#45;&gt;743</title>
<path fill="none" stroke="#00ff00" stroke-width=".3354" d="M108.3973,-147.6996C111.2152,-146.4977 114.2025,-145.2482 117,-144.1249 159.2864,-127.1453 172.7324,-129.4547 213,-108.1249 214.5114,-107.3243 216.0353,-106.4587 217.5525,-105.5505"/>
<polygon fill="#00ff00" stroke="#00ff00" stroke-width=".3354" points="219.5565,-108.4224 226.035,-100.0391 215.7426,-102.5526 219.5565,-108.4224"/>
</g>
<!-- &#45;3&#45;&gt;745 -->
<g id="edge15" class="edge">
<title>&#45;3&#45;&gt;745</title>
<path fill="none" stroke="#00ff00" stroke-width=".3163" d="M108.2341,-147.2145C111.0605,-146.0378 114.0925,-144.9211 117,-144.1249 236.3127,-111.451 277.7821,-153.1575 393,-108.1249 394.6338,-107.4863 396.2628,-106.7401 397.8692,-105.9169"/>
<polygon fill="#00ff00" stroke="#00ff00" stroke-width=".3163" points="399.9567,-108.7445 406.6976,-100.5707 396.3307,-102.7568 399.9567,-108.7445"/>
</g>
<!-- &#45;4 -->
<g id="node4" class="node">
<title>&#45;4</title>
<polygon fill="#d3d3d3" stroke="#000000" points="150,-162.1249 126,-162.1249 126,-144.1249 150,-144.1249 150,-162.1249"/>
<text text-anchor="middle" x="138" y="-150.9249" font-family="Times,serif" font-size="9.00" fill="#000000">&#45;4</text>
</g>
<!-- &#45;4&#45;&gt;740 -->
<g id="edge16" class="edge">
<title>&#45;4&#45;&gt;740</title>
<path fill="none" stroke="#00ff00" stroke-width=".5" d="M144.2571,-143.9182C149.707,-135.8991 157.8794,-123.8742 165.3156,-112.9326"/>
<polygon fill="#00ff00" stroke="#00ff00" stroke-width=".5" points="168.329,-114.7253 171.0553,-104.4872 162.5395,-110.7906 168.329,-114.7253"/>
</g>
<!-- &#45;4&#45;&gt;741 -->
<g id="edge17" class="edge">
<title>&#45;4&#45;&gt;741</title>
<path fill="none" stroke="#00ff00" stroke-width=".195" d="M150.3547,-147.5893C153.1748,-146.3932 156.1738,-145.1738 159,-144.1249 208.8128,-125.6372 225.4061,-131.7455 273,-108.1249 274.532,-107.3645 276.0722,-106.5308 277.6021,-105.6473"/>
<polygon fill="#00ff00" stroke="#00ff00" stroke-width=".195" points="279.5761,-108.5396 286.1221,-100.2089 275.8097,-102.6392 279.5761,-108.5396"/>
</g>
<!-- &#45;4&#45;&gt;742 -->
<g id="edge18" class="edge">
<title>&#45;4&#45;&gt;742</title>
<path fill="none" stroke="#00ff00" stroke-width=".1762" stroke-dasharray="1,5" d="M150.281,-147.3739C153.1049,-146.1889 156.1241,-145.0286 159,-144.1249 234.3393,-120.4515 260.566,-139.5853 333,-108.1249 334.5688,-107.4435 336.138,-106.6722 337.6904,-105.8372"/>
<polygon fill="#00ff00" stroke="#00ff00" stroke-width=".1762" points="339.6024,-108.7702 346.277,-100.5421 335.9281,-102.812 339.6024,-108.7702"/>
</g>
<!-- &#45;4&#45;&gt;743 -->
<g id="edge19" class="edge">
<title>&#45;4&#45;&gt;743</title>
<path fill="none" stroke="#ff0000" stroke-width=".5" d="M150.1213,-146.2279C165.0938,-137.6231 191.2513,-122.3103 213,-108.1249 214.4326,-107.1905 215.8941,-106.2192 217.3629,-105.2288"/>
<polygon fill="#ff0000" stroke="#ff0000" stroke-width=".5" points="219.4593,-108.0347 225.7023,-99.4746 215.4837,-102.2732 219.4593,-108.0347"/>
</g>
<!-- &#45;4&#45;&gt;745 -->
<g id="edge20" class="edge">
<title>&#45;4&#45;&gt;745</title>
<path fill="none" stroke="#00ff00" stroke-width=".5" d="M150.248,-147.2639C153.0736,-146.0846 156.1018,-144.9544 159,-144.1249 260.1614,-115.1701 295.442,-147.5513 393,-108.1249 394.6264,-107.4676 396.2496,-106.7068 397.8514,-105.8722"/>
<polygon fill="#00ff00" stroke="#00ff00" stroke-width=".5" points="399.9533,-108.6898 406.6669,-100.4936 396.3074,-102.7142 399.9533,-108.6898"/>
</g>
<!-- &#45;5 -->
<g id="node5" class="node">
<title>&#45;5</title>
<polygon fill="#d3d3d3" stroke="#000000" points="192,-162.1249 168,-162.1249 168,-144.1249 192,-144.1249 192,-162.1249"/>
<text text-anchor="middle" x="180" y="-150.9249" font-family="Times,serif" font-size="9.00" fill="#000000">&#45;5</text>
</g>
<!-- &#45;5&#45;&gt;740 -->
<g id="edge21" class="edge">
<title>&#45;5&#45;&gt;740</title>
<path fill="none" stroke="#00ff00" stroke-width=".3177" d="M180.4171,-143.9182C180.7189,-137.2572 181.146,-127.8323 181.5661,-118.5602"/>
<polygon fill="#00ff00" stroke="#00ff00" stroke-width=".3177" points="185.0741,-118.4603 182.0304,-108.3121 178.0813,-118.1434 185.0741,-118.4603"/>
</g>
<!-- &#45;5&#45;&gt;741 -->
<g id="edge22" class="edge">
<title>&#45;5&#45;&gt;741</title>
<path fill="none" stroke="#ff0000" stroke-width=".1407" d="M192.0888,-147.5784C213.7394,-137.5948 258.2472,-116.8298 273,-108.1249 274.473,-107.2557 275.9666,-106.3359 277.4602,-105.3856"/>
<polygon fill="#ff0000" stroke="#ff0000" stroke-width=".1407" points="279.513,-108.2233 285.8731,-99.7498 275.617,-102.4076 279.513,-108.2233"/>
</g>
<!-- &#45;5&#45;&gt;742 -->
<g id="edge23" class="edge">
<title>&#45;5&#45;&gt;742</title>
<path fill="none" stroke="#00ff00" stroke-width=".4961" d="M192.3247,-147.5059C195.1464,-146.3141 198.1536,-145.1176 201,-144.1249 258.4175,-124.0998 278.0051,-134.0736 333,-108.1249 334.5468,-107.3951 336.0987,-106.5854 337.6376,-105.7206"/>
<polygon fill="#00ff00" stroke="#00ff00" stroke-width=".4961" points="339.5881,-108.6286 346.1844,-100.3376 335.8575,-102.7055 339.5881,-108.6286"/>
</g>
<!-- &#45;5&#45;&gt;743 -->
<g id="edge24" class="edge">
<title>&#45;5&#45;&gt;743</title>
<path fill="none" stroke="#00ff00" stroke-width=".2258" d="M188.7599,-143.9182C197.1358,-135.1152 210.1047,-121.4847 221.261,-109.7594"/>
<polygon fill="#00ff00" stroke="#00ff00" stroke-width=".2258" points="223.9066,-112.0565 228.2641,-102.3992 218.8353,-107.2313 223.9066,-112.0565"/>
</g>
<!-- &#45;5&#45;&gt;745 -->
<g id="edge25" class="edge">
<title>&#45;5&#45;&gt;745</title>
<path fill="none" stroke="#00ff00" stroke-width=".5" d="M192.2687,-147.334C195.0932,-146.1511 198.1158,-145.0017 201,-144.1249 284.0669,-118.8728 313.0471,-141.9674 393,-108.1249 394.575,-107.4582 396.1493,-106.6985 397.7055,-105.8725"/>
<polygon fill="#00ff00" stroke="#00ff00" stroke-width=".5" points="399.6056,-108.8131 406.3035,-100.604 395.9483,-102.8445 399.6056,-108.8131"/>
</g>
<!-- &#45;6 -->
<g id="node6" class="node">
<title>&#45;6</title>
<polygon fill="#d3d3d3" stroke="#000000" points="234,-162.1249 210,-162.1249 210,-144.1249 234,-144.1249 234,-162.1249"/>
<text text-anchor="middle" x="222" y="-150.9249" font-family="Times,serif" font-size="9.00" fill="#000000">&#45;6</text>
</g>
<!-- &#45;6&#45;&gt;740 -->
<g id="edge26" class="edge">
<title>&#45;6&#45;&gt;740</title>
<path fill="none" stroke="#ff0000" stroke-width=".453" d="M216.5772,-143.9182C211.9988,-136.1451 205.2034,-124.6081 198.9212,-113.9424"/>
<polygon fill="#ff0000" stroke="#ff0000" stroke-width=".453" points="201.9158,-112.1299 193.8248,-105.2898 195.8843,-115.6826 201.9158,-112.1299"/>
</g>
<!-- &#45;6&#45;&gt;741 -->
<g id="edge27" class="edge">
<title>&#45;6&#45;&gt;741</title>
<path fill="none" stroke="#00ff00" stroke-width=".1075" d="M233.2627,-143.9182C244.9262,-134.3839 263.5169,-119.187 278.5714,-106.8808"/>
<polygon fill="#00ff00" stroke="#00ff00" stroke-width=".1075" points="280.9775,-109.4346 286.5047,-100.3957 276.5472,-104.0149 280.9775,-109.4346"/>
</g>
<!-- &#45;6&#45;&gt;742 -->
<g id="edge28" class="edge">
<title>&#45;6&#45;&gt;742</title>
<path fill="none" stroke="#00ff00" stroke-width=".1812" d="M234.4157,-147.7446C237.2326,-146.5404 240.2149,-145.2785 243,-144.1249 282.8019,-127.6384 295.1512,-128.7033 333,-108.1249 334.5026,-107.3079 336.0195,-106.4294 337.5313,-105.5111"/>
<polygon fill="#00ff00" stroke="#00ff00" stroke-width=".1812" points="339.5473,-108.3748 345.9979,-99.97 335.7139,-102.5177 339.5473,-108.3748"/>
</g>
<!-- &#45;6&#45;&gt;743 -->
<g id="edge29" class="edge">
<title>&#45;6&#45;&gt;743</title>
<path fill="none" stroke="#ff0000" stroke-width=".3898" d="M224.92,-143.9182C227.1683,-136.8291 230.4096,-126.6095 233.5286,-116.7752"/>
<polygon fill="#ff0000" stroke="#ff0000" stroke-width=".3898" points="236.8785,-117.7898 236.5655,-107.1996 230.2061,-115.6736 236.8785,-117.7898"/>
</g>
<!-- &#45;6&#45;&gt;745 -->
<g id="edge30" class="edge">
<title>&#45;6&#45;&gt;745</title>
<path fill="none" stroke="#ff0000" stroke-width=".1749" d="M234.3026,-147.4409C237.1254,-146.2525 240.1387,-145.0738 243,-144.1249 308.0747,-122.5441 330.5539,-136.4255 393,-108.1249 394.5578,-107.4189 396.1184,-106.6281 397.6641,-105.7779"/>
<polygon fill="#ff0000" stroke="#ff0000" stroke-width=".1749" points="399.5959,-108.6982 406.2309,-100.4382 395.893,-102.7577 399.5959,-108.6982"/>
</g>
<!-- &#45;7 -->
<g id="node7" class="node">
<title>&#45;7</title>
<polygon fill="#d3d3d3" stroke="#000000" points="276,-162.1249 252,-162.1249 252,-144.1249 276,-144.1249 276,-162.1249"/>
<text text-anchor="middle" x="264" y="-150.9249" font-family="Times,serif" font-size="9.00" fill="#000000">&#45;7</text>
</g>
<!-- &#45;7&#45;&gt;740 -->
<g id="edge31" class="edge">
<title>&#45;7&#45;&gt;740</title>
<path fill="none" stroke="#ff0000" stroke-width=".1033" d="M252.7373,-143.9182C241.0738,-134.3839 222.4831,-119.187 207.4286,-106.8808"/>
<polygon fill="#ff0000" stroke="#ff0000" stroke-width=".1033" points="209.4528,-104.0149 199.4953,-100.3957 205.0225,-109.4346 209.4528,-104.0149"/>
</g>
<!-- &#45;7&#45;&gt;741 -->
<g id="edge32" class="edge">
<title>&#45;7&#45;&gt;741</title>
<path fill="none" stroke="#00ff00" stroke-width=".3621" d="M269.4228,-143.9182C274.0012,-136.1451 280.7966,-124.6081 287.0788,-113.9424"/>
<polygon fill="#00ff00" stroke="#00ff00" stroke-width=".3621" points="290.1157,-115.6826 292.1752,-105.2898 284.0842,-112.1299 290.1157,-115.6826"/>
</g>
<!-- &#45;7&#45;&gt;742 -->
<g id="edge33" class="edge">
<title>&#45;7&#45;&gt;742</title>
<path fill="none" stroke="#ff0000" stroke-width=".5" d="M276.0567,-145.4561C289.8999,-136.6061 313.2434,-121.5453 333,-108.1249 334.4148,-107.1638 335.8623,-106.1714 337.3202,-105.1647"/>
<polygon fill="#ff0000" stroke="#ff0000" stroke-width=".5" points="339.4336,-107.9578 345.6274,-99.362 335.425,-102.2192 339.4336,-107.9578"/>
</g>
<!-- &#45;7&#45;&gt;743 -->
<g id="edge34" class="edge">
<title>&#45;7&#45;&gt;743</title>
<path fill="none" stroke="#00ff00" stroke-width=".4371" d="M261.08,-143.9182C258.8317,-136.8291 255.5904,-126.6095 252.4714,-116.7752"/>
<polygon fill="#00ff00" stroke="#00ff00" stroke-width=".4371" points="255.7939,-115.6736 249.4345,-107.1996 249.1215,-117.7898 255.7939,-115.6736"/>
</g>
<!-- &#45;7&#45;&gt;745 -->
<g id="edge35" class="edge">
<title>&#45;7&#45;&gt;745</title>
<path fill="none" stroke="#ff0000" stroke-width=".3525" d="M276.3672,-147.6225C279.1867,-146.4247 282.1822,-145.1962 285,-144.1249 332.2936,-126.1439 347.8581,-130.9768 393,-108.1249 394.526,-107.3524 396.0614,-106.5091 397.5875,-105.6181"/>
<polygon fill="#ff0000" stroke="#ff0000" stroke-width=".3525" points="399.5706,-108.5042 406.0964,-100.1577 395.79,-102.613 399.5706,-108.5042"/>
</g>
<!-- &#45;8 -->
<g id="node8" class="node">
<title>&#45;8</title>
<polygon fill="#d3d3d3" stroke="#000000" points="318,-162.1249 294,-162.1249 294,-144.1249 318,-144.1249 318,-162.1249"/>
<text text-anchor="middle" x="306" y="-150.9249" font-family="Times,serif" font-size="9.00" fill="#000000">&#45;8</text>
</g>
<!-- &#45;8&#45;&gt;740 -->
<g id="edge36" class="edge">
<title>&#45;8&#45;&gt;740</title>
<path fill="none" stroke="#ff0000" stroke-width=".1367" d="M293.9112,-147.5784C272.2606,-137.5948 227.7528,-116.8298 213,-108.1249 211.527,-107.2557 210.0334,-106.3359 208.5398,-105.3856"/>
<polygon fill="#ff0000" stroke="#ff0000" stroke-width=".1367" points="210.383,-102.4076 200.1269,-99.7498 206.487,-108.2233 210.383,-102.4076"/>
</g>
<!-- &#45;8&#45;&gt;741 -->
<g id="edge37" class="edge">
<title>&#45;8&#45;&gt;741</title>
<path fill="none" stroke="#00ff00" stroke-width=".2085" d="M305.5829,-143.9182C305.2811,-137.2572 304.854,-127.8323 304.4339,-118.5602"/>
<polygon fill="#00ff00" stroke="#00ff00" stroke-width=".2085" points="307.9187,-118.1434 303.9696,-108.3121 300.9259,-118.4603 307.9187,-118.1434"/>
</g>
<!-- &#45;8&#45;&gt;742 -->
<g id="edge38" class="edge">
<title>&#45;8&#45;&gt;742</title>
<path fill="none" stroke="#ff0000" stroke-width=".2751" d="M313.9256,-143.9182C321.2825,-135.3722 332.5558,-122.2767 342.4431,-110.7913"/>
<polygon fill="#ff0000" stroke="#ff0000" stroke-width=".2751" points="345.1299,-113.035 349.0015,-103.1729 339.8248,-108.4681 345.1299,-113.035"/>
</g>
<!-- &#45;8&#45;&gt;743 -->
<g id="edge39" class="edge">
<title>&#45;8&#45;&gt;743</title>
<path fill="none" stroke="#ff0000" stroke-width=".4467" d="M297.2401,-143.9182C288.8642,-135.1152 275.8953,-121.4847 264.739,-109.7594"/>
<polygon fill="#ff0000" stroke="#ff0000" stroke-width=".4467" points="267.1647,-107.2313 257.7359,-102.3992 262.0934,-112.0565 267.1647,-107.2313"/>
</g>
<!-- &#45;8&#45;&gt;745 -->
<g id="edge40" class="edge">
<title>&#45;8&#45;&gt;745</title>
<path fill="none" stroke="#00ff00" stroke-width=".2427" d="M318.1056,-147.5184C335.1796,-139.4651 367.1384,-123.8534 393,-108.1249 394.4613,-107.2362 395.9456,-106.3009 397.432,-105.3386"/>
<polygon fill="#00ff00" stroke="#00ff00" stroke-width=".2427" points="399.4982,-108.1666 405.8236,-99.6672 395.5785,-102.3669 399.4982,-108.1666"/>
</g>
<!-- &#45;9 -->
<g id="node9" class="node">
<title>&#45;9</title>
<polygon fill="#d3d3d3" stroke="#000000" points="643,-162.1249 619,-162.1249 619,-144.1249 643,-144.1249 643,-162.1249"/>
<text text-anchor="middle" x="631" y="-150.9249" font-family="Times,serif" font-size="9.00" fill="#000000">&#45;9</text>
</g>
<!-- &#45;9&#45;&gt;741 -->
<g id="edge41" class="edge">
<title>&#45;9&#45;&gt;741</title>
<path fill="none" stroke="#ff0000" stroke-width=".3008" d="M618.7661,-147.2135C615.9398,-146.0369 612.9077,-144.9204 610,-144.1249 490.2546,-111.3624 448.6389,-153.2912 333,-108.1249 331.366,-107.4867 329.7369,-106.7408 328.1305,-105.9178"/>
<polygon fill="#ff0000" stroke="#ff0000" stroke-width=".3008" points="329.6688,-102.7577 319.3018,-100.5723 326.0433,-108.7456 329.6688,-102.7577"/>
</g>
<!-- &#45;9&#45;&gt;742 -->
<g id="edge42" class="edge">
<title>&#45;9&#45;&gt;742</title>
<path fill="none" stroke="#00ff00" stroke-width=".5" d="M618.7447,-147.2891C615.9195,-146.1086 612.8933,-144.9714 610,-144.1249 516.1712,-116.6714 483.4237,-145.2877 393,-108.1249 391.3775,-107.4581 389.7574,-106.6897 388.1579,-105.8493"/>
<polygon fill="#00ff00" stroke="#00ff00" stroke-width=".5" points="389.7048,-102.6925 379.3491,-100.4542 386.0487,-108.6619 389.7048,-102.6925"/>
</g>
<!-- &#45;9&#45;&gt;743 -->
<g id="edge43" class="edge">
<title>&#45;9&#45;&gt;743</title>
<path fill="none" stroke="#00ff00" stroke-width=".1125" d="M618.7793,-147.1642C615.9523,-145.9901 612.9166,-144.8872 610,-144.1249 464.2659,-106.0335 413.9236,-161.3219 273,-108.1249 271.3588,-107.5054 269.7241,-106.7742 268.1133,-105.9624"/>
<polygon fill="#00ff00" stroke="#00ff00" stroke-width=".1125" points="269.6464,-102.8004 259.2722,-100.6493 266.0407,-108.8003 269.6464,-102.8004"/>
</g>
<!-- &#45;9&#45;&gt;745 -->
<g id="edge44" class="edge">
<title>&#45;9&#45;&gt;745</title>
<path fill="none" stroke="#00ff00" stroke-width=".413" stroke-dasharray="1,5" d="M618.6522,-147.5705C615.8318,-146.3753 612.8309,-145.1611 610,-144.1249 555.65,-124.2301 490.762,-105.4612 453.4714,-95.1408"/>
<polygon fill="#00ff00" stroke="#00ff00" stroke-width=".413" points="454.2871,-91.7353 443.7171,-92.46 452.432,-98.485 454.2871,-91.7353"/>
</g>
<!-- &#45;10 -->
<g id="node10" class="node">
<title>&#45;10</title>
<polygon fill="#d3d3d3" stroke="#000000" points="365.5,-162.1249 336.5,-162.1249 336.5,-144.1249 365.5,-144.1249 365.5,-162.1249"/>
<text text-anchor="middle" x="351" y="-150.9249" font-family="Times,serif" font-size="9.00" fill="#000000">&#45;10</text>
</g>
<!-- &#45;10&#45;&gt;740 -->
<g id="edge45" class="edge">
<title>&#45;10&#45;&gt;740</title>
<path fill="none" stroke="#00ff00" stroke-width=".4365" d="M336.3213,-147.4802C333.2522,-146.3394 330.0287,-145.1702 327,-144.1249 276.7741,-126.7907 260.5939,-131.7455 213,-108.1249 211.468,-107.3645 209.9278,-106.5308 208.3979,-105.6473"/>
<polygon fill="#00ff00" stroke="#00ff00" stroke-width=".4365" points="210.1903,-102.6392 199.8779,-100.2089 206.4239,-108.5396 210.1903,-102.6392"/>
</g>
<!-- &#45;10&#45;&gt;741 -->
<g id="edge46" class="edge">
<title>&#45;10&#45;&gt;741</title>
<path fill="none" stroke="#ff0000" stroke-width=".5" d="M344.3258,-143.9182C338.4139,-135.7631 329.4987,-123.4651 321.4604,-112.3768"/>
<polygon fill="#ff0000" stroke="#ff0000" stroke-width=".5" points="324.2518,-110.2641 315.5487,-104.2219 318.5844,-114.3726 324.2518,-110.2641"/>
</g>
<!-- &#45;10&#45;&gt;742 -->
<g id="edge47" class="edge">
<title>&#45;10&#45;&gt;742</title>
<path fill="none" stroke="#ff0000" stroke-width=".5" d="M352.6685,-143.9182C353.8982,-137.1334 355.6475,-127.481 357.3579,-118.0433"/>
<polygon fill="#ff0000" stroke="#ff0000" stroke-width=".5" points="360.8327,-118.4965 359.1722,-108.0326 353.9449,-117.2482 360.8327,-118.4965"/>
</g>
<!-- &#45;10&#45;&gt;743 -->
<g id="edge48" class="edge">
<title>&#45;10&#45;&gt;743</title>
<path fill="none" stroke="#ff0000" stroke-width=".5" d="M336.386,-145.2223C320.5321,-136.5277 294.5943,-121.9472 273,-108.1249 271.5595,-107.2028 270.0916,-106.2412 268.618,-105.2584"/>
<polygon fill="#ff0000" stroke="#ff0000" stroke-width=".5" points="270.49,-102.2983 260.2641,-99.5266 266.5296,-108.0702 270.49,-102.2983"/>
</g>
<!-- &#45;10&#45;&gt;745 -->
<g id="edge49" class="edge">
<title>&#45;10&#45;&gt;745</title>
<path fill="none" stroke="#00ff00" stroke-width=".3651" d="M361.0113,-143.9182C370.9309,-134.7959 386.4873,-120.4897 399.5341,-108.4915"/>
<polygon fill="#00ff00" stroke="#00ff00" stroke-width=".3651" points="402.269,-110.7315 407.2605,-101.3862 397.5306,-105.5791 402.269,-110.7315"/>
</g>
<!-- &#45;11 -->
<g id="node11" class="node">
<title>&#45;11</title>
<polygon fill="#d3d3d3" stroke="#000000" points="412.5,-162.1249 383.5,-162.1249 383.5,-144.1249 412.5,-144.1249 412.5,-162.1249"/>
<text text-anchor="middle" x="398" y="-150.9249" font-family="Times,serif" font-size="9.00" fill="#000000">&#45;11</text>
</g>
<!-- &#45;11&#45;&gt;740 -->
<g id="edge50" class="edge">
<title>&#45;11&#45;&gt;740</title>
<path fill="none" stroke="#00ff00" stroke-width=".2563" d="M383.0235,-146.8812C380.3751,-145.8874 377.625,-144.9249 375,-144.1249 304.4475,-122.6225 280.4338,-138.0027 213,-108.1249 211.4363,-107.4321 209.871,-106.6516 208.3217,-105.8096"/>
<polygon fill="#00ff00" stroke="#00ff00" stroke-width=".2563" points="210.088,-102.7866 199.7442,-100.4937 206.4005,-108.7366 210.088,-102.7866"/>
</g>
<!-- &#45;11&#45;&gt;741 -->
<g id="edge51" class="edge">
<title>&#45;11&#45;&gt;741</title>
<path fill="none" stroke="#ff0000" stroke-width=".4869" d="M384.7772,-144.0275C371.6245,-134.9649 350.8808,-120.6357 333,-108.1249 331.5986,-107.1444 330.1617,-106.1366 328.7121,-105.1179"/>
<polygon fill="#ff0000" stroke="#ff0000" stroke-width=".4869" points="330.6194,-102.1802 320.4292,-99.2799 326.5866,-107.9019 330.6194,-102.1802"/>
</g>
<!-- &#45;11&#45;&gt;742 -->
<g id="edge52" class="edge">
<title>&#45;11&#45;&gt;742</title>
<path fill="none" stroke="#ff0000" stroke-width=".1498" d="M393.1334,-143.9182C389.1238,-136.3328 383.2195,-125.163 377.6974,-114.7163"/>
<polygon fill="#ff0000" stroke="#ff0000" stroke-width=".1498" points="380.7679,-113.0356 373.0003,-105.8303 374.5793,-116.3069 380.7679,-113.0356"/>
</g>
<!-- &#45;11&#45;&gt;743 -->
<g id="edge53" class="edge">
<title>&#45;11&#45;&gt;743</title>
<path fill="none" stroke="#ff0000" stroke-width=".2766" d="M383.4277,-147.3374C380.6366,-146.253 377.7328,-145.1415 375,-144.1249 329.9426,-127.3634 315.6993,-130.2129 273,-108.1249 271.4809,-107.3391 269.9509,-106.4851 268.429,-105.586"/>
<polygon fill="#ff0000" stroke="#ff0000" stroke-width=".2766" points="270.2323,-102.5842 259.9324,-100.1014 266.4359,-108.4653 270.2323,-102.5842"/>
</g>
<!-- &#45;11&#45;&gt;745 -->
<g id="edge54" class="edge">
<title>&#45;11&#45;&gt;745</title>
<path fill="none" stroke="#ff0000" stroke-width=".2214" stroke-dasharray="1,5" d="M401.4761,-143.9182C404.1729,-136.7758 408.0695,-126.4556 411.8082,-116.5534"/>
<polygon fill="#ff0000" stroke="#ff0000" stroke-width=".2214" points="415.1861,-117.5155 415.4441,-106.9238 408.6373,-115.0428 415.1861,-117.5155"/>
</g>
<!-- &#45;12 -->
<g id="node12" class="node">
<title>&#45;12</title>
<polygon fill="#d3d3d3" stroke="#000000" points="459.5,-162.1249 430.5,-162.1249 430.5,-144.1249 459.5,-144.1249 459.5,-162.1249"/>
<text text-anchor="middle" x="445" y="-150.9249" font-family="Times,serif" font-size="9.00" fill="#000000">&#45;12</text>
</g>
<!-- &#45;12&#45;&gt;740 -->
<g id="edge55" class="edge">
<title>&#45;12&#45;&gt;740</title>
<path fill="none" stroke="#00ff00" stroke-width=".3501" d="M430.0547,-146.7743C427.4028,-145.7924 424.6435,-144.8616 422,-144.1249 331.203,-118.8219 300.0701,-144.224 213,-108.1249 211.3796,-107.4531 209.7611,-106.6808 208.1628,-105.8374"/>
<polygon fill="#00ff00" stroke="#00ff00" stroke-width=".3501" points="209.7114,-102.6812 199.3577,-100.4335 206.0499,-108.6473 209.7114,-102.6812"/>
</g>
<!-- &#45;12&#45;&gt;741 -->
<g id="edge56" class="edge">
<title>&#45;12&#45;&gt;741</title>
<path fill="none" stroke="#ff0000" stroke-width=".5" d="M430.1699,-147.2725C400.7657,-135.6542 337.5086,-110.5807 333,-108.1249 331.498,-107.3068 329.9816,-106.4273 328.4702,-105.5084"/>
<polygon fill="#ff0000" stroke="#ff0000" stroke-width=".5" points="330.2881,-102.5152 320.0048,-99.9651 326.4534,-108.3714 330.2881,-102.5152"/>
</g>
<!-- &#45;12&#45;&gt;742 -->
<g id="edge57" class="edge">
<title>&#45;12&#45;&gt;742</title>
<path fill="none" stroke="#ff0000" stroke-width=".5" d="M433.5983,-143.9182C421.7907,-134.3839 402.9705,-119.187 387.7302,-106.8808"/>
<polygon fill="#ff0000" stroke="#ff0000" stroke-width=".5" points="389.678,-103.955 379.6989,-100.3957 385.2804,-109.4012 389.678,-103.955"/>
</g>
<!-- &#45;12&#45;&gt;743 -->
<g id="edge58" class="edge">
<title>&#45;12&#45;&gt;743</title>
<path fill="none" stroke="#ff0000" stroke-width=".1416" stroke-dasharray="1,5" d="M430.0109,-146.9219C427.3638,-145.9236 424.6176,-144.949 422,-144.1249 357.0172,-123.6648 335.0311,-136.2944 273,-108.1249 271.4427,-107.4177 269.8825,-106.6259 268.3372,-105.7751"/>
<polygon fill="#ff0000" stroke="#ff0000" stroke-width=".1416" points="270.1087,-102.7551 259.7714,-100.4332 266.4045,-108.6947 270.1087,-102.7551"/>
</g>
<!-- &#45;12&#45;&gt;745 -->
<g id="edge59" class="edge">
<title>&#45;12&#45;&gt;745</title>
<path fill="none" stroke="#ff0000" stroke-width=".3172" d="M441.941,-143.9182C439.5856,-136.8291 436.19,-126.6095 432.9225,-116.7752"/>
<polygon fill="#ff0000" stroke="#ff0000" stroke-width=".3172" points="436.2155,-115.5859 429.7409,-107.1996 429.5726,-117.7931 436.2155,-115.5859"/>
</g>
<!-- &#45;13 -->
<g id="node13" class="node">
<title>&#45;13</title>
<polygon fill="#d3d3d3" stroke="#000000" points="506.5,-162.1249 477.5,-162.1249 477.5,-144.1249 506.5,-144.1249 506.5,-162.1249"/>
<text text-anchor="middle" x="492" y="-150.9249" font-family="Times,serif" font-size="9.00" fill="#000000">&#45;13</text>
</g>
<!-- &#45;13&#45;&gt;740 -->
<g id="edge60" class="edge">
<title>&#45;13&#45;&gt;740</title>
<path fill="none" stroke="#ff0000" stroke-width=".3296" d="M477.0733,-146.7053C474.4193,-145.7311 471.6546,-144.8207 469,-144.1249 357.8573,-114.9927 319.8032,-150.4858 213,-108.1249 211.3694,-107.4781 209.7429,-106.7256 208.1385,-105.8973"/>
<polygon fill="#ff0000" stroke="#ff0000" stroke-width=".3296" points="209.6794,-102.7382 199.3157,-100.537 206.0447,-108.7206 209.6794,-102.7382"/>
</g>
<!-- &#45;13&#45;&gt;741 -->
<g id="edge61" class="edge">
<title>&#45;13&#45;&gt;741</title>
<path fill="none" stroke="#00ff00" stroke-width=".4607" d="M477.4904,-147.1581C474.6934,-146.0903 471.7715,-145.0307 469,-144.1249 409.5673,-124.701 389.647,-134.5946 333,-108.1249 331.4505,-107.4008 329.8965,-106.5958 328.3559,-105.7346"/>
<polygon fill="#00ff00" stroke="#00ff00" stroke-width=".4607" points="330.1337,-102.7181 319.8042,-100.362 326.4099,-108.6455 330.1337,-102.7181"/>
</g>
<!-- &#45;13&#45;&gt;742 -->
<g id="edge62" class="edge">
<title>&#45;13&#45;&gt;742</title>
<path fill="none" stroke="#00ff00" stroke-width=".1098" d="M477.4816,-147.5338C457.8047,-139.7325 421.8188,-124.6658 393,-108.1249 391.5166,-107.2735 390.0149,-106.3677 388.5149,-105.4284"/>
<polygon fill="#00ff00" stroke="#00ff00" stroke-width=".1098" points="390.349,-102.4449 380.0833,-99.8247 386.4745,-108.2748 390.349,-102.4449"/>
</g>
<!-- &#45;13&#45;&gt;743 -->
<g id="edge63" class="edge">
<title>&#45;13&#45;&gt;743</title>
<path fill="none" stroke="#ff0000" stroke-width=".5" d="M477.0477,-146.799C474.3966,-145.8144 471.6394,-144.8762 469,-144.1249 383.8156,-119.8769 354.6263,-142.4979 273,-108.1249 271.4237,-107.4611 269.8485,-106.7037 268.2915,-105.8795"/>
<polygon fill="#ff0000" stroke="#ff0000" stroke-width=".5" points="270.0478,-102.8509 259.6913,-100.6163 266.3938,-108.8216 270.0478,-102.8509"/>
</g>
<!-- &#45;13&#45;&gt;745 -->
<g id="edge64" class="edge">
<title>&#45;13&#45;&gt;745</title>
<path fill="none" stroke="#ff0000" stroke-width=".1428" d="M482.4058,-143.9182C472.9609,-134.8548 458.1834,-120.6741 445.7304,-108.724"/>
<polygon fill="#ff0000" stroke="#ff0000" stroke-width=".1428" points="447.9841,-106.0359 438.3455,-101.6374 443.1374,-111.0866 447.9841,-106.0359"/>
</g>
<!-- &#45;14 -->
<g id="node14" class="node">
<title>&#45;14</title>
<polygon fill="#d3d3d3" stroke="#000000" points="553.5,-162.1249 524.5,-162.1249 524.5,-144.1249 553.5,-144.1249 553.5,-162.1249"/>
<text text-anchor="middle" x="539" y="-150.9249" font-family="Times,serif" font-size="9.00" fill="#000000">&#45;14</text>
</g>
<!-- &#45;14&#45;&gt;740 -->
<g id="edge65" class="edge">
<title>&#45;14&#45;&gt;740</title>
<path fill="none" stroke="#ff0000" stroke-width=".5" d="M524.0857,-146.6572C521.4303,-145.6883 518.6619,-144.7922 516,-144.1249 384.4565,-111.149 339.5894,-156.7688 213,-108.1249 211.3625,-107.4957 209.7307,-106.7568 208.1222,-105.9392"/>
<polygon fill="#ff0000" stroke="#ff0000" stroke-width=".5" points="209.658,-102.7782 199.2875,-100.6093 206.0419,-108.7719 209.658,-102.7782"/>
</g>
<!-- &#45;14&#45;&gt;741 -->
<g id="edge66" class="edge">
<title>&#45;14&#45;&gt;741</title>
<path fill="none" stroke="#00ff00" stroke-width=".3353" d="M524.0397,-146.827C521.3894,-145.8393 518.6346,-144.8928 516,-144.1249 436.4194,-120.9294 409.1909,-140.7753 333,-108.1249 331.4279,-107.4512 329.8561,-106.6859 328.3016,-105.8557"/>
<polygon fill="#00ff00" stroke="#00ff00" stroke-width=".3353" points="330.0612,-102.8289 319.709,-100.5745 326.3959,-108.7926 330.0612,-102.8289"/>
</g>
<!-- &#45;14&#45;&gt;742 -->
<g id="edge67" class="edge">
<title>&#45;14&#45;&gt;742</title>
<path fill="none" stroke="#ff0000" stroke-width=".4209" d="M524.471,-147.2161C521.6758,-146.143 518.7595,-145.0666 516,-144.1249 462.0924,-125.7289 444.2869,-132.9059 393,-108.1249 391.46,-107.3808 389.9135,-106.5599 388.3788,-105.6863"/>
<polygon fill="#ff0000" stroke="#ff0000" stroke-width=".4209" points="390.1645,-102.6744 379.8444,-100.2774 386.4172,-108.587 390.1645,-102.6744"/>
</g>
<!-- &#45;14&#45;&gt;743 -->
<g id="edge68" class="edge">
<title>&#45;14&#45;&gt;743</title>
<path fill="none" stroke="#ff0000" stroke-width=".3385" d="M524.069,-146.7218C521.4155,-145.7458 518.652,-144.8305 516,-144.1249 410.4917,-116.0537 374.3386,-148.7512 273,-108.1249 271.3718,-107.4721 269.7472,-106.7148 268.1442,-105.883"/>
<polygon fill="#ff0000" stroke="#ff0000" stroke-width=".3385" points="269.6869,-102.7245 259.3256,-100.5122 266.0458,-108.7031 269.6869,-102.7245"/>
</g>
<!-- &#45;14&#45;&gt;745 -->
<g id="edge69" class="edge">
<title>&#45;14&#45;&gt;745</title>
<path fill="none" stroke="#00ff00" stroke-width=".4913" d="M524.3085,-144.7389C505.8762,-134.2177 473.8859,-115.9575 450.7775,-102.7672"/>
<polygon fill="#00ff00" stroke="#00ff00" stroke-width=".4913" points="452.2104,-99.5551 441.7905,-97.6374 448.7402,-105.6344 452.2104,-99.5551"/>
</g>
<!-- &#45;15 -->
<g id="node15" class="node">
<title>&#45;15</title>
<polygon fill="#d3d3d3" stroke="#000000" points="600.5,-162.1249 571.5,-162.1249 571.5,-144.1249 600.5,-144.1249 600.5,-162.1249"/>
<text text-anchor="middle" x="586" y="-150.9249" font-family="Times,serif" font-size="9.00" fill="#000000">&#45;15</text>
</g>
<!-- &#45;15&#45;&gt;740 -->
<g id="edge70" class="edge">
<title>&#45;15&#45;&gt;740</title>
<path fill="none" stroke="#ff0000" stroke-width=".5" d="M571.0944,-146.6218C568.4381,-145.6568 565.6671,-144.7712 563,-144.1249 411.0223,-107.2969 359.4077,-163.0641 213,-108.1249 211.3576,-107.5086 209.7219,-106.7799 208.1104,-105.9701"/>
<polygon fill="#ff0000" stroke="#ff0000" stroke-width=".5" points="209.6426,-102.8078 199.2672,-100.6626 206.0403,-108.8097 209.6426,-102.8078"/>
</g>
<!-- &#45;15&#45;&gt;741 -->
<g id="edge71" class="edge">
<title>&#45;15&#45;&gt;741</title>
<path fill="none" stroke="#ff0000" stroke-width=".3857" d="M571.0641,-146.7401C568.4111,-145.762 565.6491,-144.8413 563,-144.1249 463.1213,-117.1134 428.8785,-147.0184 333,-108.1249 331.3745,-107.4655 329.752,-106.703 328.1506,-105.8671"/>
<polygon fill="#ff0000" stroke="#ff0000" stroke-width=".3857" points="329.6953,-102.7094 319.3366,-100.4848 326.0471,-108.6836 329.6953,-102.7094"/>
</g>
<!-- &#45;15&#45;&gt;742 -->
<g id="edge72" class="edge">
<title>&#45;15&#45;&gt;742</title>
<path fill="none" stroke="#00ff00" stroke-width=".1438" d="M571.0302,-146.8591C568.381,-145.8678 565.629,-144.9118 563,-144.1249 489.0122,-121.9787 463.766,-139.0572 393,-108.1249 391.4328,-107.4399 389.8649,-106.6656 388.3134,-105.8284"/>
<polygon fill="#00ff00" stroke="#00ff00" stroke-width=".1438" points="390.077,-102.8039 379.7297,-100.5267 386.3985,-108.7595 390.077,-102.8039"/>
</g>
<!-- &#45;15&#45;&gt;743 -->
<g id="edge73" class="edge">
<title>&#45;15&#45;&gt;743</title>
<path fill="none" stroke="#ff0000" stroke-width=".1985" d="M571.0827,-146.669C568.4277,-145.6988 565.6601,-144.7992 563,-144.1249 437.1033,-112.2132 394.1128,-155.0294 273,-108.1249 271.3642,-107.4914 269.7337,-106.7492 268.1261,-105.929"/>
<polygon fill="#ff0000" stroke="#ff0000" stroke-width=".1985" points="269.6631,-102.7684 259.2943,-100.5916 266.0425,-108.7593 269.6631,-102.7684"/>
</g>
<!-- &#45;15&#45;&gt;745 -->
<g id="edge74" class="edge">
<title>&#45;15&#45;&gt;745</title>
<path fill="none" stroke="#00ff00" stroke-width=".2951" d="M571.2474,-147.1321C544.5,-136.2669 487.535,-113.1269 452.5257,-98.9055"/>
<polygon fill="#00ff00" stroke="#00ff00" stroke-width=".2951" points="453.4321,-95.496 442.8501,-94.9751 450.7976,-101.9814 453.4321,-95.496"/>
</g>
<!-- 0 -->
<g id="node16" class="node">
<title>0</title>
<ellipse fill="#add8e6" stroke="#000000" cx="249" cy="-14.8492" rx="14.7" ry="14.7"/>
<text text-anchor="middle" x="249" y="-12.6492" font-family="Times,serif" font-size="9.00" fill="#000000">0</text>
</g>
<!-- 1 -->
<g id="node17" class="node">
<title>1</title>
<ellipse fill="#add8e6" stroke="#000000" cx="303" cy="-14.8492" rx="14.7" ry="14.7"/>
<text text-anchor="middle" x="303" y="-12.6492" font-family="Times,serif" font-size="9.00" fill="#000000">1</text>
</g>
<!-- 740&#45;&gt;0 -->
<g id="edge75" class="edge">
<title>740&#45;&gt;0</title>
<path fill="none" stroke="#00ff00" stroke-width=".1057" d="M197.6475,-70.9187C207.7684,-59.8682 221.2661,-45.1307 231.8833,-33.5382"/>
<polygon fill="#00ff00" stroke="#00ff00" stroke-width=".1057" points="234.5235,-35.8375 238.6966,-26.0991 229.3614,-31.1097 234.5235,-35.8375"/>
</g>
<!-- 740&#45;&gt;1 -->
<g id="edge76" class="edge">
<title>740&#45;&gt;1</title>
<path fill="none" stroke="#00ff00" stroke-width=".4715" d="M200.2467,-74.2694C204.3707,-71.3717 208.7974,-68.362 213,-65.6985 235.4861,-51.4475 262.1318,-36.6387 280.5665,-26.7034"/>
<polygon fill="#00ff00" stroke="#00ff00" stroke-width=".4715" points="282.4718,-29.6536 289.6385,-21.8504 279.1699,-23.4813 282.4718,-29.6536"/>
</g>
<!-- 741&#45;&gt;0 -->
<g id="edge77" class="edge">
<title>741&#45;&gt;0</title>
<path fill="none" stroke="#00ff00" stroke-width=".3549" d="M290.2028,-69.8339C282.4261,-59.456 272.4519,-46.1455 264.2649,-35.2201"/>
<polygon fill="#00ff00" stroke="#00ff00" stroke-width=".3549" points="266.956,-32.9748 258.1585,-27.0711 261.3543,-37.1725 266.956,-32.9748"/>
</g>
<!-- 741&#45;&gt;1 -->
<g id="edge78" class="edge">
<title>741&#45;&gt;1</title>
<path fill="none" stroke="#00ff00" stroke-width=".324" d="M303,-65.6803C303,-57.713 303,-48.5771 303,-40.2679"/>
<polygon fill="#00ff00" stroke="#00ff00" stroke-width=".324" points="306.5001,-39.9888 303,-29.9888 299.5001,-39.9889 306.5001,-39.9888"/>
</g>
<!-- 742&#45;&gt;0 -->
<g id="edge79" class="edge">
<title>742&#45;&gt;0</title>
<path fill="none" stroke="#00ff00" stroke-width=".2017" d="M345.6946,-74.3606C341.5729,-71.4591 337.1621,-68.4248 333,-65.6985 312.1846,-52.0635 287.7968,-37.4457 270.678,-27.3987"/>
<polygon fill="#00ff00" stroke="#00ff00" stroke-width=".2017" points="272.3848,-24.3424 261.9842,-22.3226 268.8552,-30.3874 272.3848,-24.3424"/>
</g>
<!-- 742&#45;&gt;1 -->
<g id="edge80" class="edge">
<title>742&#45;&gt;1</title>
<path fill="none" stroke="#00ff00" stroke-width=".293" d="M349.3851,-70.5596C340.3707,-59.7329 328.5091,-45.4867 319.0375,-34.1109"/>
<polygon fill="#00ff00" stroke="#00ff00" stroke-width=".293" points="321.7263,-31.8703 312.638,-26.4248 316.3468,-36.3493 321.7263,-31.8703"/>
</g>
<!-- 743&#45;&gt;0 -->
<g id="edge81" class="edge">
<title>743&#45;&gt;0</title>
<path fill="none" stroke="#ff0000" stroke-width=".106" d="M244.7677,-65.6803C245.4386,-57.6235 246.2089,-48.3716 246.9069,-39.9882"/>
<polygon fill="#ff0000" stroke="#ff0000" stroke-width=".106" points="250.3976,-40.2448 247.7395,-29.9888 243.4217,-39.6639 250.3976,-40.2448"/>
</g>
<!-- 743&#45;&gt;1 -->
<g id="edge82" class="edge">
<title>743&#45;&gt;1</title>
<path fill="none" stroke="#00ff00" stroke-width=".3028" d="M256.6149,-70.5596C265.6293,-59.7329 277.4909,-45.4867 286.9625,-34.1109"/>
<polygon fill="#00ff00" stroke="#00ff00" stroke-width=".3028" points="289.6532,-36.3493 293.362,-26.4248 284.2737,-31.8703 289.6532,-36.3493"/>
</g>
<!-- 745&#45;&gt;1 -->
<g id="edge83" class="edge">
<title>745&#45;&gt;1</title>
<path fill="none" stroke="#ff0000" stroke-width=".4093" d="M405.7533,-74.2694C401.6293,-71.3717 397.2026,-68.362 393,-65.6985 370.5139,-51.4475 343.8682,-36.6387 325.4335,-26.7034"/>
<polygon fill="#ff0000" stroke="#ff0000" stroke-width=".4093" points="326.8301,-23.4813 316.3615,-21.8504 323.5282,-29.6536 326.8301,-23.4813"/>
</g>
</g>
</svg>
