<?xml version="1.0" encoding="UTF-8" standalone="no"?>
<!DOCTYPE svg PUBLIC "-//W3C//DTD SVG 1.1//EN"
 "http://www.w3.org/Graphics/SVG/1.1/DTD/svg11.dtd">
<!-- Generated by graphviz version 2.40.1 (20161225.0304)
 -->
<!-- Title: %3 Pages: 1 -->
<svg width="290pt" height="170pt"
 viewBox="0.00 0.00 290.43 170.12" xmlns="http://www.w3.org/2000/svg" xmlns:xlink="http://www.w3.org/1999/xlink">
<g id="graph0" class="graph" transform="scale(1 1) rotate(0) translate(4 166.1249)">
<title>%3</title>
<polygon fill="#ffffff" stroke="transparent" points="-4,4 -4,-166.1249 286.4264,-166.1249 286.4264,4 -4,4"/>
<!-- &#45;1 -->
<g id="node1" class="node">
<title>&#45;1</title>
<polygon fill="#d3d3d3" stroke="#000000" points="111.2132,-162.1249 87.2132,-162.1249 87.2132,-144.1249 111.2132,-144.1249 111.2132,-162.1249"/>
<text text-anchor="middle" x="99.2132" y="-150.9249" font-family="Times,serif" font-size="9.00" fill="#000000">&#45;1</text>
</g>
<!-- 248 -->
<g id="node6" class="node">
<title>248</title>
<ellipse fill="#ffffff" stroke="#000000" cx="261.2132" cy="-86.9117" rx="21.4286" ry="21.4286"/>
<text text-anchor="middle" x="261.2132" y="-84.7117" font-family="Times,serif" font-size="9.00" fill="#000000">248</text>
</g>
<!-- &#45;1&#45;&gt;248 -->
<g id="edge1" class="edge">
<title>&#45;1&#45;&gt;248</title>
<path fill="none" stroke="#ff0000" stroke-width=".4717" d="M111.574,-147.6055C114.3938,-146.4085 117.3911,-145.1848 120.2132,-144.1249 168.7653,-125.891 184.8464,-131.3606 231.2132,-108.1249 232.7423,-107.3586 234.2802,-106.5202 235.8082,-105.633"/>
<polygon fill="#ff0000" stroke="#ff0000" stroke-width=".4717" points="237.7866,-108.5223 244.3228,-100.1839 234.0133,-102.6264 237.7866,-108.5223"/>
</g>
<!-- 250 -->
<g id="node7" class="node">
<title>250</title>
<ellipse fill="#ffffff" stroke="#000000" cx="21.2132" cy="-86.9117" rx="21.4286" ry="21.4286"/>
<text text-anchor="middle" x="21.2132" y="-84.7117" font-family="Times,serif" font-size="9.00" fill="#000000">250</text>
</g>
<!-- &#45;1&#45;&gt;250 -->
<g id="edge2" class="edge">
<title>&#45;1&#45;&gt;250</title>
<path fill="none" stroke="#00ff00" stroke-width=".1838" d="M88.3676,-143.9182C77.2067,-134.4439 59.4589,-119.3779 45.011,-107.1133"/>
<polygon fill="#00ff00" stroke="#00ff00" stroke-width=".1838" points="47.2753,-104.4445 37.3867,-100.6412 42.7452,-109.781 47.2753,-104.4445"/>
</g>
<!-- 251 -->
<g id="node8" class="node">
<title>251</title>
<ellipse fill="#ffffff" stroke="#000000" cx="81.2132" cy="-86.9117" rx="21.4286" ry="21.4286"/>
<text text-anchor="middle" x="81.2132" y="-84.7117" font-family="Times,serif" font-size="9.00" fill="#000000">251</text>
</g>
<!-- &#45;1&#45;&gt;251 -->
<g id="edge3" class="edge">
<title>&#45;1&#45;&gt;251</title>
<path fill="none" stroke="#ff0000" stroke-width=".2693" d="M96.7104,-143.9182C94.8176,-136.9557 92.104,-126.9735 89.4749,-117.3024"/>
<polygon fill="#ff0000" stroke="#ff0000" stroke-width=".2693" points="92.8045,-116.208 86.8037,-107.4764 86.0496,-118.0443 92.8045,-116.208"/>
</g>
<!-- 252 -->
<g id="node9" class="node">
<title>252</title>
<ellipse fill="#ffffff" stroke="#000000" cx="141.2132" cy="-86.9117" rx="21.4286" ry="21.4286"/>
<text text-anchor="middle" x="141.2132" y="-84.7117" font-family="Times,serif" font-size="9.00" fill="#000000">252</text>
</g>
<!-- &#45;1&#45;&gt;252 -->
<g id="edge4" class="edge">
<title>&#45;1&#45;&gt;252</title>
<path fill="none" stroke="#00ff00" stroke-width=".5" d="M105.0531,-143.9182C110.019,-136.0896 117.4065,-124.4431 124.2121,-113.7139"/>
<polygon fill="#00ff00" stroke="#00ff00" stroke-width=".5" points="127.3252,-115.3404 129.7261,-105.0211 121.4141,-111.5908 127.3252,-115.3404"/>
</g>
<!-- 253 -->
<g id="node10" class="node">
<title>253</title>
<ellipse fill="#ffffff" stroke="#000000" cx="201.2132" cy="-86.9117" rx="21.4286" ry="21.4286"/>
<text text-anchor="middle" x="201.2132" y="-84.7117" font-family="Times,serif" font-size="9.00" fill="#000000">253</text>
</g>
<!-- &#45;1&#45;&gt;253 -->
<g id="edge5" class="edge">
<title>&#45;1&#45;&gt;253</title>
<path fill="none" stroke="#00ff00" stroke-width=".5" d="M111.3215,-145.8466C125.7377,-137.1148 150.4722,-121.9234 171.2132,-108.1249 172.6372,-107.1775 174.092,-106.1959 175.5555,-105.1976"/>
<polygon fill="#00ff00" stroke="#00ff00" stroke-width=".5" points="177.6602,-107.9973 183.8794,-99.4198 173.6687,-102.2468 177.6602,-107.9973"/>
</g>
<!-- &#45;2 -->
<g id="node2" class="node">
<title>&#45;2</title>
<polygon fill="#d3d3d3" stroke="#000000" points="153.2132,-162.1249 129.2132,-162.1249 129.2132,-144.1249 153.2132,-144.1249 153.2132,-162.1249"/>
<text text-anchor="middle" x="141.2132" y="-150.9249" font-family="Times,serif" font-size="9.00" fill="#000000">&#45;2</text>
</g>
<!-- &#45;2&#45;&gt;248 -->
<g id="edge6" class="edge">
<title>&#45;2&#45;&gt;248</title>
<path fill="none" stroke="#00ff00" stroke-width=".1871" d="M153.4606,-147.7208C171.0731,-139.79 204.3856,-124.1902 231.2132,-108.1249 232.6806,-107.2462 234.1696,-106.3188 235.6598,-105.3627"/>
<polygon fill="#00ff00" stroke="#00ff00" stroke-width=".1871" points="237.7191,-108.1956 244.0624,-99.7095 233.8116,-102.3877 237.7191,-108.1956"/>
</g>
<!-- &#45;2&#45;&gt;250 -->
<g id="edge7" class="edge">
<title>&#45;2&#45;&gt;250</title>
<path fill="none" stroke="#ff0000" stroke-width=".4559" d="M128.9658,-147.7208C111.3533,-139.79 78.0408,-124.1902 51.2132,-108.1249 49.7458,-107.2462 48.2568,-106.3188 46.7666,-105.3627"/>
<polygon fill="#ff0000" stroke="#ff0000" stroke-width=".4559" points="48.6148,-102.3877 38.364,-99.7095 44.7073,-108.1956 48.6148,-102.3877"/>
</g>
<!-- &#45;2&#45;&gt;251 -->
<g id="edge8" class="edge">
<title>&#45;2&#45;&gt;251</title>
<path fill="none" stroke="#ff0000" stroke-width=".5" d="M132.8705,-143.9182C125.0217,-135.2567 112.9382,-121.9219 102.4309,-110.3266"/>
<polygon fill="#ff0000" stroke="#ff0000" stroke-width=".5" points="104.7884,-107.7158 95.4799,-102.6558 99.6012,-112.4162 104.7884,-107.7158"/>
</g>
<!-- &#45;2&#45;&gt;252 -->
<g id="edge9" class="edge">
<title>&#45;2&#45;&gt;252</title>
<path fill="none" stroke="#ff0000" stroke-width=".1403" d="M141.2132,-143.9182C141.2132,-137.2572 141.2132,-127.8323 141.2132,-118.5602"/>
<polygon fill="#ff0000" stroke="#ff0000" stroke-width=".1403" points="144.7133,-118.312 141.2132,-108.3121 137.7133,-118.3121 144.7133,-118.312"/>
</g>
<!-- &#45;2&#45;&gt;253 -->
<g id="edge10" class="edge">
<title>&#45;2&#45;&gt;253</title>
<path fill="none" stroke="#00ff00" stroke-width=".3198" d="M149.5559,-143.9182C157.4047,-135.2567 169.4882,-121.9219 179.9955,-110.3266"/>
<polygon fill="#00ff00" stroke="#00ff00" stroke-width=".3198" points="182.8252,-112.4162 186.9465,-102.6558 177.638,-107.7158 182.8252,-112.4162"/>
</g>
<!-- &#45;3 -->
<g id="node3" class="node">
<title>&#45;3</title>
<polygon fill="#d3d3d3" stroke="#000000" points="195.2132,-162.1249 171.2132,-162.1249 171.2132,-144.1249 195.2132,-144.1249 195.2132,-162.1249"/>
<text text-anchor="middle" x="183.2132" y="-150.9249" font-family="Times,serif" font-size="9.00" fill="#000000">&#45;3</text>
</g>
<!-- &#45;3&#45;&gt;248 -->
<g id="edge11" class="edge">
<title>&#45;3&#45;&gt;248</title>
<path fill="none" stroke="#ff0000" stroke-width=".5" d="M194.0588,-143.9182C205.2197,-134.4439 222.9676,-119.3779 237.4154,-107.1133"/>
<polygon fill="#ff0000" stroke="#ff0000" stroke-width=".5" points="239.6812,-109.781 245.0397,-100.6412 235.1511,-104.4445 239.6812,-109.781"/>
</g>
<!-- &#45;3&#45;&gt;250 -->
<g id="edge12" class="edge">
<title>&#45;3&#45;&gt;250</title>
<path fill="none" stroke="#00ff00" stroke-width=".5" d="M170.8524,-147.6055C168.0326,-146.4085 165.0353,-145.1848 162.2132,-144.1249 113.6611,-125.891 97.58,-131.3606 51.2132,-108.1249 49.6841,-107.3586 48.1463,-106.5202 46.6182,-105.633"/>
<polygon fill="#00ff00" stroke="#00ff00" stroke-width=".5" points="48.4131,-102.6264 38.1036,-100.1839 44.6398,-108.5223 48.4131,-102.6264"/>
</g>
<!-- &#45;3&#45;&gt;251 -->
<g id="edge13" class="edge">
<title>&#45;3&#45;&gt;251</title>
<path fill="none" stroke="#00ff00" stroke-width=".4335" d="M171.1049,-145.8466C156.6887,-137.1148 131.9542,-121.9234 111.2132,-108.1249 109.7892,-107.1775 108.3344,-106.1959 106.8709,-105.1976"/>
<polygon fill="#00ff00" stroke="#00ff00" stroke-width=".4335" points="108.7577,-102.2468 98.547,-99.4198 104.7662,-107.9973 108.7577,-102.2468"/>
</g>
<!-- &#45;3&#45;&gt;252 -->
<g id="edge14" class="edge">
<title>&#45;3&#45;&gt;252</title>
<path fill="none" stroke="#ff0000" stroke-width=".3433" stroke-dasharray="1,5" d="M177.3733,-143.9182C172.4075,-136.0896 165.0199,-124.4431 158.2143,-113.7139"/>
<polygon fill="#ff0000" stroke="#ff0000" stroke-width=".3433" points="161.0123,-111.5908 152.7003,-105.0211 155.1012,-115.3404 161.0123,-111.5908"/>
</g>
<!-- &#45;3&#45;&gt;253 -->
<g id="edge15" class="edge">
<title>&#45;3&#45;&gt;253</title>
<path fill="none" stroke="#ff0000" stroke-width=".3898" d="M185.716,-143.9182C187.6088,-136.9557 190.3224,-126.9735 192.9515,-117.3024"/>
<polygon fill="#ff0000" stroke="#ff0000" stroke-width=".3898" points="196.3768,-118.0443 195.6227,-107.4764 189.6219,-116.208 196.3768,-118.0443"/>
</g>
<!-- 0 -->
<g id="node4" class="node">
<title>0</title>
<ellipse fill="#add8e6" stroke="#000000" cx="117.2132" cy="-14.8492" rx="14.7" ry="14.7"/>
<text text-anchor="middle" x="117.2132" y="-12.6492" font-family="Times,serif" font-size="9.00" fill="#000000">0</text>
</g>
<!-- 1 -->
<g id="node5" class="node">
<title>1</title>
<ellipse fill="#add8e6" stroke="#000000" cx="165.2132" cy="-14.8492" rx="14.7" ry="14.7"/>
<text text-anchor="middle" x="165.2132" y="-12.6492" font-family="Times,serif" font-size="9.00" fill="#000000">1</text>
</g>
<!-- 248&#45;&gt;0 -->
<g id="edge16" class="edge">
<title>248&#45;&gt;0</title>
<path fill="none" stroke="#ff0000" stroke-width=".4099" d="M244.2111,-73.8534C240.077,-70.9728 235.5844,-68.0751 231.2132,-65.6985 193.3644,-45.1201 179.6759,-49.1052 141.2132,-29.6985 140.3711,-29.2736 139.52,-28.8287 138.6659,-28.3691"/>
<polygon fill="#ff0000" stroke="#ff0000" stroke-width=".4099" points="140.0835,-25.1442 129.6816,-23.1314 136.558,-31.1916 140.0835,-25.1442"/>
</g>
<!-- 248&#45;&gt;1 -->
<g id="edge17" class="edge">
<title>248&#45;&gt;1</title>
<path fill="none" stroke="#ff0000" stroke-width=".1886" d="M244.0503,-74.0284C227.7006,-61.7554 203.0732,-43.2689 185.7025,-30.2296"/>
<polygon fill="#ff0000" stroke="#ff0000" stroke-width=".1886" points="187.4612,-27.1734 177.3625,-23.9692 183.2589,-32.7717 187.4612,-27.1734"/>
</g>
<!-- 250&#45;&gt;0 -->
<g id="edge18" class="edge">
<title>250&#45;&gt;0</title>
<path fill="none" stroke="#00ff00" stroke-width=".468" d="M38.3761,-74.0284C54.7258,-61.7554 79.3532,-43.2689 96.7239,-30.2296"/>
<polygon fill="#00ff00" stroke="#00ff00" stroke-width=".468" points="99.1675,-32.7717 105.0639,-23.9692 94.9652,-27.1734 99.1675,-32.7717"/>
</g>
<!-- 250&#45;&gt;1 -->
<g id="edge19" class="edge">
<title>250&#45;&gt;1</title>
<path fill="none" stroke="#00ff00" stroke-width=".1044" d="M38.2153,-73.8534C42.3495,-70.9728 46.842,-68.0751 51.2132,-65.6985 89.062,-45.1201 102.7505,-49.1052 141.2132,-29.6985 142.0553,-29.2736 142.9064,-28.8287 143.7605,-28.3691"/>
<polygon fill="#00ff00" stroke="#00ff00" stroke-width=".1044" points="145.8684,-31.1916 152.7448,-23.1314 142.3429,-25.1442 145.8684,-31.1916"/>
</g>
<!-- 251&#45;&gt;0 -->
<g id="edge20" class="edge">
<title>251&#45;&gt;0</title>
<path fill="none" stroke="#00ff00" stroke-width=".422" d="M90.8605,-67.6003C95.4842,-58.3449 101.0527,-47.1983 105.8774,-37.5405"/>
<polygon fill="#00ff00" stroke="#00ff00" stroke-width=".422" points="109.0536,-39.0143 110.3916,-28.5043 102.7915,-35.8859 109.0536,-39.0143"/>
</g>
<!-- 251&#45;&gt;1 -->
<g id="edge21" class="edge">
<title>251&#45;&gt;1</title>
<path fill="none" stroke="#ff0000" stroke-width=".2148" d="M97.4092,-73.0173C111.2781,-61.1194 131.2758,-43.9637 145.9606,-31.3658"/>
<polygon fill="#ff0000" stroke="#ff0000" stroke-width=".2148" points="148.5955,-33.7168 153.9064,-24.5492 144.0377,-28.404 148.5955,-33.7168"/>
</g>
<!-- 252&#45;&gt;0 -->
<g id="edge22" class="edge">
<title>252&#45;&gt;0</title>
<path fill="none" stroke="#00ff00" stroke-width=".1623" d="M134.4,-66.4542C131.5001,-57.7471 128.0999,-47.5376 125.0926,-38.5079"/>
<polygon fill="#00ff00" stroke="#00ff00" stroke-width=".1623" points="128.3925,-37.3393 121.9119,-28.9576 121.7511,-39.5512 128.3925,-37.3393"/>
</g>
<!-- 252&#45;&gt;1 -->
<g id="edge23" class="edge">
<title>252&#45;&gt;1</title>
<path fill="none" stroke="#ff0000" stroke-width=".3546" d="M148.0264,-66.4542C150.9263,-57.7471 154.3265,-47.5376 157.3338,-38.5079"/>
<polygon fill="#ff0000" stroke="#ff0000" stroke-width=".3546" points="160.6753,-39.5512 160.5145,-28.9576 154.0339,-37.3393 160.6753,-39.5512"/>
</g>
<!-- 253&#45;&gt;0 -->
<g id="edge24" class="edge">
<title>253&#45;&gt;0</title>
<path fill="none" stroke="#ff0000" stroke-width=".3961" d="M185.0172,-73.0173C171.1483,-61.1194 151.1506,-43.9637 136.4658,-31.3658"/>
<polygon fill="#ff0000" stroke="#ff0000" stroke-width=".3961" points="138.3887,-28.404 128.52,-24.5492 133.8309,-33.7168 138.3887,-28.404"/>
</g>
<!-- 253&#45;&gt;1 -->
<g id="edge25" class="edge">
<title>253&#45;&gt;1</title>
<path fill="none" stroke="#ff0000" stroke-width=".4016" d="M191.5659,-67.6003C186.9422,-58.3449 181.3737,-47.1983 176.549,-37.5405"/>
<polygon fill="#ff0000" stroke="#ff0000" stroke-width=".4016" points="179.6349,-35.8859 172.0348,-28.5043 173.3728,-39.0143 179.6349,-35.8859"/>
</g>
</g>
</svg>
