<?xml version="1.0" encoding="UTF-8" standalone="no"?>
<!DOCTYPE svg PUBLIC "-//W3C//DTD SVG 1.1//EN"
 "http://www.w3.org/Graphics/SVG/1.1/DTD/svg11.dtd">
<!-- Generated by graphviz version 2.40.1 (20161225.0304)
 -->
<!-- Title: %3 Pages: 1 -->
<svg width="352pt" height="268pt"
 viewBox="0.00 0.00 351.61 268.35" xmlns="http://www.w3.org/2000/svg" xmlns:xlink="http://www.w3.org/1999/xlink">
<g id="graph0" class="graph" transform="scale(1 1) rotate(0) translate(4 264.3503)">
<title>%3</title>
<polygon fill="#ffffff" stroke="transparent" points="-4,4 -4,-264.3503 347.6083,-264.3503 347.6083,4 -4,4"/>
<!-- &#45;1 -->
<g id="node1" class="node">
<title>&#45;1</title>
<polygon fill="#d3d3d3" stroke="#000000" points="136.0312,-260.3503 112.0312,-260.3503 112.0312,-242.3503 136.0312,-242.3503 136.0312,-260.3503"/>
<text text-anchor="middle" x="124.0312" y="-249.1503" font-family="Times,serif" font-size="9.00" fill="#000000">&#45;1</text>
</g>
<!-- 1910 -->
<g id="node7" class="node">
<title>1910</title>
<ellipse fill="#ffffff" stroke="#000000" cx="26.0312" cy="-181.6016" rx="25" ry="25"/>
<text text-anchor="middle" x="26.0312" y="-179.4016" font-family="Times,serif" font-size="9.00" fill="#000000">1910</text>
</g>
<!-- &#45;1&#45;&gt;1910 -->
<g id="edge1" class="edge">
<title>&#45;1&#45;&gt;1910</title>
<path fill="none" stroke="#00ff00" stroke-width=".3549" d="M111.9557,-243.1915C98.832,-234.2779 77.2918,-219.5115 59.0312,-206.3503 57.419,-205.1883 55.7686,-203.9875 54.1072,-202.7698"/>
<polygon fill="#00ff00" stroke="#00ff00" stroke-width=".3549" points="55.9537,-199.7821 45.8344,-196.6437 51.7879,-205.4076 55.9537,-199.7821"/>
</g>
<!-- 1911 -->
<g id="node8" class="node">
<title>1911</title>
<ellipse fill="#ffffff" stroke="#000000" cx="93.0312" cy="-181.6016" rx="25" ry="25"/>
<text text-anchor="middle" x="93.0312" y="-179.4016" font-family="Times,serif" font-size="9.00" fill="#000000">1911</text>
</g>
<!-- &#45;1&#45;&gt;1911 -->
<g id="edge2" class="edge">
<title>&#45;1&#45;&gt;1911</title>
<path fill="none" stroke="#00ff00" stroke-width=".3023" d="M119.9785,-242.2319C116.7115,-234.8812 111.9115,-224.0814 107.2644,-213.6256"/>
<polygon fill="#00ff00" stroke="#00ff00" stroke-width=".3023" points="110.3478,-211.9455 103.088,-204.2289 103.9511,-214.7885 110.3478,-211.9455"/>
</g>
<!-- 1912 -->
<g id="node9" class="node">
<title>1912</title>
<ellipse fill="#ffffff" stroke="#000000" cx="160.0312" cy="-181.6016" rx="25" ry="25"/>
<text text-anchor="middle" x="160.0312" y="-179.4016" font-family="Times,serif" font-size="9.00" fill="#000000">1912</text>
</g>
<!-- &#45;1&#45;&gt;1912 -->
<g id="edge3" class="edge">
<title>&#45;1&#45;&gt;1912</title>
<path fill="none" stroke="#00ff00" stroke-width=".3894" d="M128.7375,-242.2319C132.6292,-234.692 138.3939,-223.5231 143.9187,-212.8188"/>
<polygon fill="#00ff00" stroke="#00ff00" stroke-width=".3894" points="147.1827,-214.1261 148.6591,-203.6346 140.9624,-210.9155 147.1827,-214.1261"/>
</g>
<!-- 1913 -->
<g id="node10" class="node">
<title>1913</title>
<ellipse fill="#ffffff" stroke="#000000" cx="227.0312" cy="-181.6016" rx="25" ry="25"/>
<text text-anchor="middle" x="227.0312" y="-179.4016" font-family="Times,serif" font-size="9.00" fill="#000000">1913</text>
</g>
<!-- &#45;1&#45;&gt;1913 -->
<g id="edge4" class="edge">
<title>&#45;1&#45;&gt;1913</title>
<path fill="none" stroke="#ff0000" stroke-width=".323" d="M136.0939,-243.9645C150.1828,-235.2539 174.1011,-220.203 194.0312,-206.3503 195.663,-205.2161 197.3288,-204.037 199.002,-202.836"/>
<polygon fill="#ff0000" stroke="#ff0000" stroke-width=".323" points="201.3059,-205.487 207.3074,-196.7559 197.171,-199.8388 201.3059,-205.487"/>
</g>
<!-- 1915 -->
<g id="node11" class="node">
<title>1915</title>
<ellipse fill="#ffffff" stroke="#000000" cx="294.0312" cy="-181.6016" rx="25" ry="25"/>
<text text-anchor="middle" x="294.0312" y="-179.4016" font-family="Times,serif" font-size="9.00" fill="#000000">1915</text>
</g>
<!-- &#45;1&#45;&gt;1915 -->
<g id="edge5" class="edge">
<title>&#45;1&#45;&gt;1915</title>
<path fill="none" stroke="#ff0000" stroke-width=".4686" d="M136.3821,-245.8043C139.2024,-244.6087 142.2024,-243.3922 145.0312,-242.3503 195.6857,-223.693 212.9571,-230.9034 261.0312,-206.3503 262.801,-205.4464 264.5748,-204.4476 266.3311,-203.3853"/>
<polygon fill="#ff0000" stroke="#ff0000" stroke-width=".4686" points="268.4922,-206.1508 274.8653,-197.6871 264.6052,-200.3292 268.4922,-206.1508"/>
</g>
<!-- &#45;2 -->
<g id="node2" class="node">
<title>&#45;2</title>
<polygon fill="#d3d3d3" stroke="#000000" points="178.0312,-260.3503 154.0312,-260.3503 154.0312,-242.3503 178.0312,-242.3503 178.0312,-260.3503"/>
<text text-anchor="middle" x="166.0312" y="-249.1503" font-family="Times,serif" font-size="9.00" fill="#000000">&#45;2</text>
</g>
<!-- &#45;2&#45;&gt;1910 -->
<g id="edge6" class="edge">
<title>&#45;2&#45;&gt;1910</title>
<path fill="none" stroke="#ff0000" stroke-width=".3317" d="M153.6017,-246.0028C150.7855,-244.7969 147.807,-243.5261 145.0312,-242.3503 106.8769,-226.1889 94.9909,-226.9375 59.0312,-206.3503 57.3065,-205.3629 55.5681,-204.2988 53.839,-203.1862"/>
<polygon fill="#ff0000" stroke="#ff0000" stroke-width=".3317" points="55.5983,-200.1479 45.3797,-197.3497 51.623,-205.9095 55.5983,-200.1479"/>
</g>
<!-- &#45;2&#45;&gt;1911 -->
<g id="edge7" class="edge">
<title>&#45;2&#45;&gt;1911</title>
<path fill="none" stroke="#ff0000" stroke-width=".1201" d="M156.4877,-242.2319C146.8602,-233.0332 131.5795,-218.433 118.4256,-205.865"/>
<polygon fill="#ff0000" stroke="#ff0000" stroke-width=".1201" points="120.6336,-203.1338 110.9854,-198.7561 115.7978,-208.195 120.6336,-203.1338"/>
</g>
<!-- &#45;2&#45;&gt;1912 -->
<g id="edge8" class="edge">
<title>&#45;2&#45;&gt;1912</title>
<path fill="none" stroke="#ff0000" stroke-width=".2083" d="M165.2468,-242.2319C164.6729,-235.5609 163.8547,-226.0492 163.036,-216.5318"/>
<polygon fill="#ff0000" stroke="#ff0000" stroke-width=".2083" points="166.5032,-215.9997 162.159,-206.3365 159.529,-216.5997 166.5032,-215.9997"/>
</g>
<!-- &#45;2&#45;&gt;1913 -->
<g id="edge9" class="edge">
<title>&#45;2&#45;&gt;1913</title>
<path fill="none" stroke="#ff0000" stroke-width=".2585" d="M174.0059,-242.2319C181.5824,-233.5686 193.3491,-220.1144 203.875,-208.0788"/>
<polygon fill="#ff0000" stroke="#ff0000" stroke-width=".2585" points="206.6077,-210.2708 210.5564,-200.4392 201.3385,-205.6625 206.6077,-210.2708"/>
</g>
<!-- &#45;2&#45;&gt;1915 -->
<g id="edge10" class="edge">
<title>&#45;2&#45;&gt;1915</title>
<path fill="none" stroke="#ff0000" stroke-width=".3204" d="M178.1271,-246.5454C196.5741,-239.0154 232.5927,-223.5104 261.0312,-206.3503 262.7327,-205.3236 264.4531,-204.2287 266.1682,-203.0924"/>
<polygon fill="#ff0000" stroke="#ff0000" stroke-width=".3204" points="268.4089,-205.7961 274.5892,-197.1906 264.3913,-200.0637 268.4089,-205.7961"/>
</g>
<!-- &#45;3 -->
<g id="node3" class="node">
<title>&#45;3</title>
<polygon fill="#d3d3d3" stroke="#000000" points="232.0312,-260.3503 208.0312,-260.3503 208.0312,-242.3503 232.0312,-242.3503 232.0312,-260.3503"/>
<text text-anchor="middle" x="220.0312" y="-249.1503" font-family="Times,serif" font-size="9.00" fill="#000000">&#45;3</text>
</g>
<!-- &#45;3&#45;&gt;1911 -->
<g id="edge11" class="edge">
<title>&#45;3&#45;&gt;1911</title>
<path fill="none" stroke="#ff0000" stroke-width=".241" d="M207.7652,-246.3977C189.43,-238.7928 154.0356,-223.3271 126.0312,-206.3503 124.3318,-205.3201 122.6131,-204.2224 120.8992,-203.084"/>
<polygon fill="#ff0000" stroke="#ff0000" stroke-width=".241" points="122.6777,-200.0563 112.4817,-197.1764 118.6564,-205.786 122.6777,-200.0563"/>
</g>
<!-- &#45;3&#45;&gt;1912 -->
<g id="edge12" class="edge">
<title>&#45;3&#45;&gt;1912</title>
<path fill="none" stroke="#00ff00" stroke-width=".1236" d="M212.1872,-242.2319C204.7348,-233.5686 193.1611,-220.1144 182.8077,-208.0788"/>
<polygon fill="#00ff00" stroke="#00ff00" stroke-width=".1236" points="185.4107,-205.7377 176.2359,-200.4392 180.104,-210.3027 185.4107,-205.7377"/>
</g>
<!-- &#45;3&#45;&gt;1913 -->
<g id="edge13" class="edge">
<title>&#45;3&#45;&gt;1913</title>
<path fill="none" stroke="#00ff00" stroke-width=".4606" d="M220.9463,-242.2319C221.6158,-235.5609 222.5704,-226.0492 223.5256,-216.5318"/>
<polygon fill="#00ff00" stroke="#00ff00" stroke-width=".4606" points="227.0326,-216.6361 224.5488,-206.3365 220.0676,-215.937 227.0326,-216.6361"/>
</g>
<!-- &#45;3&#45;&gt;1915 -->
<g id="edge14" class="edge">
<title>&#45;3&#45;&gt;1915</title>
<path fill="none" stroke="#00ff00" stroke-width=".3544" d="M229.7054,-242.2319C239.4647,-233.0332 254.9548,-218.433 268.2889,-205.865"/>
<polygon fill="#00ff00" stroke="#00ff00" stroke-width=".3544" points="270.9546,-208.1621 275.831,-198.7561 266.1533,-203.0682 270.9546,-208.1621"/>
</g>
<!-- 0 -->
<g id="node4" class="node">
<title>0</title>
<ellipse fill="#add8e6" stroke="#000000" cx="179.0312" cy="-14.8492" rx="14.7" ry="14.7"/>
<text text-anchor="middle" x="179.0312" y="-12.6492" font-family="Times,serif" font-size="9.00" fill="#000000">0</text>
</g>
<!-- 1 -->
<g id="node5" class="node">
<title>1</title>
<ellipse fill="#add8e6" stroke="#000000" cx="179.0312" cy="-93.2756" rx="14.7" ry="14.7"/>
<text text-anchor="middle" x="179.0312" y="-91.0756" font-family="Times,serif" font-size="9.00" fill="#000000">1</text>
</g>
<!-- 8548 -->
<g id="node6" class="node">
<title>8548</title>
<ellipse fill="#ffffff" stroke="#000000" cx="45.0312" cy="-93.2756" rx="25" ry="25"/>
<text text-anchor="middle" x="45.0312" y="-91.0756" font-family="Times,serif" font-size="9.00" fill="#000000">8548</text>
</g>
<!-- 1910&#45;&gt;0 -->
<g id="edge15" class="edge">
<title>1910&#45;&gt;0</title>
<path fill="none" stroke="#00ff00" stroke-width=".2814" d="M14.5309,-159.1822C3.3739,-133.9406 -9.1619,-92.9082 11.0312,-65.6985 28.1969,-42.5681 111.623,-25.8704 154.0884,-18.7182"/>
<polygon fill="#00ff00" stroke="#00ff00" stroke-width=".2814" points="154.8718,-22.1367 164.1763,-17.0695 153.7427,-15.2283 154.8718,-22.1367"/>
</g>
<!-- 1910&#45;&gt;1 -->
<g id="edge16" class="edge">
<title>1910&#45;&gt;1</title>
<path fill="none" stroke="#00ff00" stroke-width=".1135" d="M45.568,-166.1657C49.9111,-162.9573 54.5564,-159.6917 59.0312,-156.8528 91.5765,-136.2055 131.4904,-116.0023 156.0905,-104.0957"/>
<polygon fill="#00ff00" stroke="#00ff00" stroke-width=".1135" points="157.8231,-107.1466 165.3272,-99.6673 154.7968,-100.8345 157.8231,-107.1466"/>
</g>
<!-- 1910&#45;&gt;8548 -->
<g id="edge25" class="edge">
<title>1910&#45;&gt;8548</title>
<path fill="none" stroke="#00ff00" stroke-width=".3388" d="M31.3237,-156.9979C33.2796,-147.9055 35.5337,-137.427 37.6417,-127.6274"/>
<polygon fill="#00ff00" stroke="#00ff00" stroke-width=".3388" points="41.0856,-128.2598 39.767,-117.7474 34.2422,-126.7877 41.0856,-128.2598"/>
</g>
<!-- 1911&#45;&gt;0 -->
<g id="edge17" class="edge">
<title>1911&#45;&gt;0</title>
<path fill="none" stroke="#00ff00" stroke-width=".2547" d="M103.0911,-158.5988C113.6284,-134.957 130.9883,-97.2486 148.0312,-65.6985 153.3559,-55.8412 159.727,-45.2183 165.3048,-36.244"/>
<polygon fill="#00ff00" stroke="#00ff00" stroke-width=".2547" points="168.3873,-37.9171 170.753,-27.5898 162.4634,-34.1877 168.3873,-37.9171"/>
</g>
<!-- 1911&#45;&gt;1 -->
<g id="edge18" class="edge">
<title>1911&#45;&gt;1</title>
<path fill="none" stroke="#00ff00" stroke-width=".5" d="M110.4346,-163.7275C125.1466,-148.6176 146.1439,-127.0524 161.0244,-111.7694"/>
<polygon fill="#00ff00" stroke="#00ff00" stroke-width=".5" points="163.7143,-114.0239 168.1828,-104.4174 158.699,-109.1406 163.7143,-114.0239"/>
</g>
<!-- 1912&#45;&gt;0 -->
<g id="edge19" class="edge">
<title>1912&#45;&gt;0</title>
<path fill="none" stroke="#ff0000" stroke-width=".1137" d="M155.3342,-157.3021C151.6071,-133.6225 148.0713,-96.7505 155.0312,-65.6985 157.2649,-55.7324 161.6816,-45.4191 166.1237,-36.7071"/>
<polygon fill="#ff0000" stroke="#ff0000" stroke-width=".1137" points="169.3423,-38.1139 171.0349,-27.6551 163.1896,-34.7757 169.3423,-38.1139"/>
</g>
<!-- 1912&#45;&gt;1 -->
<g id="edge20" class="edge">
<title>1912&#45;&gt;1</title>
<path fill="none" stroke="#00ff00" stroke-width=".1401" d="M165.3237,-156.9979C167.9564,-144.7591 171.1294,-130.0088 173.7593,-117.7832"/>
<polygon fill="#00ff00" stroke="#00ff00" stroke-width=".1401" points="177.222,-118.3285 175.9034,-107.816 170.3785,-116.8563 177.222,-118.3285"/>
</g>
<!-- 1913&#45;&gt;0 -->
<g id="edge21" class="edge">
<title>1913&#45;&gt;0</title>
<path fill="none" stroke="#00ff00" stroke-width=".4129" d="M223.6282,-156.7353C219.9683,-132.9567 213.2588,-96.2962 203.0312,-65.6985 199.7933,-56.0119 195.1934,-45.7497 190.8855,-37.0003"/>
<polygon fill="#00ff00" stroke="#00ff00" stroke-width=".4129" points="193.894,-35.1955 186.234,-27.8761 187.6576,-38.3748 193.894,-35.1955"/>
</g>
<!-- 1913&#45;&gt;1 -->
<g id="edge22" class="edge">
<title>1913&#45;&gt;1</title>
<path fill="none" stroke="#00ff00" stroke-width=".1056" d="M215.166,-159.7682C207.8386,-146.2848 198.4632,-129.0329 191.0985,-115.481"/>
<polygon fill="#00ff00" stroke="#00ff00" stroke-width=".1056" points="193.9994,-113.489 186.1493,-106.3738 187.849,-116.8314 193.9994,-113.489"/>
</g>
<!-- 1915&#45;&gt;0 -->
<g id="edge23" class="edge">
<title>1915&#45;&gt;0</title>
<path fill="none" stroke="#00ff00" stroke-width=".4962" stroke-dasharray="1,5" d="M282.2543,-159.4889C269.1707,-135.5913 246.8646,-96.7609 224.0312,-65.6985 215.7149,-54.385 205.3958,-42.5915 196.7378,-33.2138"/>
<polygon fill="#00ff00" stroke="#00ff00" stroke-width=".4962" points="199.0467,-30.5597 189.6491,-25.6674 193.9447,-35.3524 199.0467,-30.5597"/>
</g>
<!-- 1915&#45;&gt;1 -->
<g id="edge24" class="edge">
<title>1915&#45;&gt;1</title>
<path fill="none" stroke="#ff0000" stroke-width=".2138" d="M274.262,-166.4178C253.1524,-150.2046 219.8958,-124.6617 198.7901,-108.4516"/>
<polygon fill="#ff0000" stroke="#ff0000" stroke-width=".2138" points="200.8848,-105.6471 190.822,-102.3316 196.6209,-111.1987 200.8848,-105.6471"/>
</g>
<!-- 33823 -->
<g id="node12" class="node">
<title>33823</title>
<ellipse fill="#ffffff" stroke="#000000" cx="316.0312" cy="-93.2756" rx="27.6545" ry="27.6545"/>
<text text-anchor="middle" x="316.0312" y="-91.0756" font-family="Times,serif" font-size="9.00" fill="#000000">33823</text>
</g>
<!-- 1915&#45;&gt;33823 -->
<g id="edge26" class="edge">
<title>1915&#45;&gt;33823</title>
<path fill="none" stroke="#00ff00" stroke-width=".4672" d="M300.0428,-157.4661C302.1543,-148.9888 304.5769,-139.2625 306.887,-129.9877"/>
<polygon fill="#00ff00" stroke="#00ff00" stroke-width=".4672" points="310.3089,-130.7306 309.3296,-120.1811 303.5164,-129.0387 310.3089,-130.7306"/>
</g>
<!-- 33823&#45;&gt;0 -->
<g id="edge27" class="edge">
<title>33823&#45;&gt;0</title>
<path fill="none" stroke="#00ff00" stroke-width=".3938" d="M293.1598,-77.727C287.0173,-73.6979 280.33,-69.442 274.0312,-65.6985 249.6811,-51.2269 220.9008,-36.0852 201.4497,-26.1289"/>
<polygon fill="#00ff00" stroke="#00ff00" stroke-width=".3938" points="202.9563,-22.9685 192.4562,-21.5548 199.783,-29.2079 202.9563,-22.9685"/>
</g>
</g>
</svg>
