<?xml version="1.0" encoding="UTF-8" standalone="no"?>
<!DOCTYPE svg PUBLIC "-//W3C//DTD SVG 1.1//EN"
 "http://www.w3.org/Graphics/SVG/1.1/DTD/svg11.dtd">
<!-- Generated by graphviz version 2.40.1 (20161225.0304)
 -->
<!-- Title: %3 Pages: 1 -->
<svg width="234pt" height="268pt"
 viewBox="0.00 0.00 233.68 268.35" xmlns="http://www.w3.org/2000/svg" xmlns:xlink="http://www.w3.org/1999/xlink">
<g id="graph0" class="graph" transform="scale(1 1) rotate(0) translate(4 264.3503)">
<title>%3</title>
<polygon fill="#ffffff" stroke="transparent" points="-4,4 -4,-264.3503 229.6785,-264.3503 229.6785,4 -4,4"/>
<!-- &#45;1 -->
<g id="node1" class="node">
<title>&#45;1</title>
<polygon fill="#d3d3d3" stroke="#000000" points="129.7487,-260.3503 105.7487,-260.3503 105.7487,-242.3503 129.7487,-242.3503 129.7487,-260.3503"/>
<text text-anchor="middle" x="117.7487" y="-249.1503" font-family="Times,serif" font-size="9.00" fill="#000000">&#45;1</text>
</g>
<!-- 2956 -->
<g id="node6" class="node">
<title>2956</title>
<ellipse fill="#ffffff" stroke="#000000" cx="196.7487" cy="-181.6016" rx="25" ry="25"/>
<text text-anchor="middle" x="196.7487" y="-179.4016" font-family="Times,serif" font-size="9.00" fill="#000000">2956</text>
</g>
<!-- &#45;1&#45;&gt;2956 -->
<g id="edge1" class="edge">
<title>&#45;1&#45;&gt;2956</title>
<path fill="none" stroke="#ff0000" stroke-width=".3081" d="M128.0766,-242.2319C138.7339,-232.8226 155.7925,-217.7617 170.241,-205.0051"/>
<polygon fill="#ff0000" stroke="#ff0000" stroke-width=".3081" points="172.7624,-207.4479 177.9423,-198.2057 168.1294,-202.2005 172.7624,-207.4479"/>
</g>
<!-- 2959 -->
<g id="node7" class="node">
<title>2959</title>
<ellipse fill="#ffffff" stroke="#000000" cx="125.7487" cy="-181.6016" rx="25" ry="25"/>
<text text-anchor="middle" x="125.7487" y="-179.4016" font-family="Times,serif" font-size="9.00" fill="#000000">2959</text>
</g>
<!-- &#45;1&#45;&gt;2959 -->
<g id="edge2" class="edge">
<title>&#45;1&#45;&gt;2959</title>
<path fill="none" stroke="#ff0000" stroke-width=".4066" stroke-dasharray="1,5" d="M118.7946,-242.2319C119.5597,-235.5609 120.6507,-226.0492 121.7423,-216.5318"/>
<polygon fill="#ff0000" stroke="#ff0000" stroke-width=".4066" points="125.2493,-216.6703 122.9117,-206.3365 118.2949,-215.8725 125.2493,-216.6703"/>
</g>
<!-- &#45;2 -->
<g id="node2" class="node">
<title>&#45;2</title>
<polygon fill="#d3d3d3" stroke="#000000" points="171.7487,-260.3503 147.7487,-260.3503 147.7487,-242.3503 171.7487,-242.3503 171.7487,-260.3503"/>
<text text-anchor="middle" x="159.7487" y="-249.1503" font-family="Times,serif" font-size="9.00" fill="#000000">&#45;2</text>
</g>
<!-- &#45;2&#45;&gt;2956 -->
<g id="edge3" class="edge">
<title>&#45;2&#45;&gt;2956</title>
<path fill="none" stroke="#00ff00" stroke-width=".2985" d="M164.5858,-242.2319C168.626,-234.6158 174.6303,-223.2971 180.3607,-212.4946"/>
<polygon fill="#00ff00" stroke="#00ff00" stroke-width=".2985" points="183.4664,-214.1088 185.0608,-203.6346 177.2826,-210.8284 183.4664,-214.1088"/>
</g>
<!-- &#45;2&#45;&gt;2959 -->
<g id="edge4" class="edge">
<title>&#45;2&#45;&gt;2959</title>
<path fill="none" stroke="#00ff00" stroke-width=".4173" d="M155.3038,-242.2319C151.6563,-234.7491 146.2664,-223.6921 141.0847,-213.0622"/>
<polygon fill="#00ff00" stroke="#00ff00" stroke-width=".4173" points="144.1616,-211.3865 136.6337,-203.9313 137.8694,-214.4538 144.1616,-211.3865"/>
</g>
<!-- &#45;3 -->
<g id="node3" class="node">
<title>&#45;3</title>
<polygon fill="#d3d3d3" stroke="#000000" points="213.7487,-260.3503 189.7487,-260.3503 189.7487,-242.3503 213.7487,-242.3503 213.7487,-260.3503"/>
<text text-anchor="middle" x="201.7487" y="-249.1503" font-family="Times,serif" font-size="9.00" fill="#000000">&#45;3</text>
</g>
<!-- &#45;3&#45;&gt;2956 -->
<g id="edge5" class="edge">
<title>&#45;3&#45;&gt;2956</title>
<path fill="none" stroke="#ff0000" stroke-width=".309" stroke-dasharray="1,5" d="M201.0951,-242.2319C200.6169,-235.5609 199.935,-226.0492 199.2527,-216.5318"/>
<polygon fill="#ff0000" stroke="#ff0000" stroke-width=".309" points="202.728,-216.0607 198.5219,-206.3365 195.746,-216.5612 202.728,-216.0607"/>
</g>
<!-- &#45;3&#45;&gt;2959 -->
<g id="edge6" class="edge">
<title>&#45;3&#45;&gt;2959</title>
<path fill="none" stroke="#ff0000" stroke-width=".4158" d="M191.8131,-242.2319C181.6284,-232.8849 165.3668,-217.9609 151.5263,-205.2588"/>
<polygon fill="#ff0000" stroke="#ff0000" stroke-width=".4158" points="153.8743,-202.6632 144.1402,-198.4802 149.1412,-207.8205 153.8743,-202.6632"/>
</g>
<!-- 0 -->
<g id="node4" class="node">
<title>0</title>
<ellipse fill="#add8e6" stroke="#000000" cx="82.7487" cy="-93.2756" rx="14.7" ry="14.7"/>
<text text-anchor="middle" x="82.7487" y="-91.0756" font-family="Times,serif" font-size="9.00" fill="#000000">0</text>
</g>
<!-- 1 -->
<g id="node5" class="node">
<title>1</title>
<ellipse fill="#add8e6" stroke="#000000" cx="153.7487" cy="-14.8492" rx="14.7" ry="14.7"/>
<text text-anchor="middle" x="153.7487" y="-12.6492" font-family="Times,serif" font-size="9.00" fill="#000000">1</text>
</g>
<!-- 2956&#45;&gt;1 -->
<g id="edge7" class="edge">
<title>2956&#45;&gt;1</title>
<path fill="none" stroke="#00ff00" stroke-width=".5" d="M208.7242,-159.5934C220.1348,-135.4443 233.5536,-96.0772 218.7487,-65.6985 210.0471,-47.8433 191.7081,-34.4145 176.7214,-25.8542"/>
<polygon fill="#00ff00" stroke="#00ff00" stroke-width=".5" points="177.9631,-22.5499 167.4922,-20.9343 174.6702,-28.727 177.9631,-22.5499"/>
</g>
<!-- 2959&#45;&gt;0 -->
<g id="edge8" class="edge">
<title>2959&#45;&gt;0</title>
<path fill="none" stroke="#ff0000" stroke-width=".3801" d="M114.898,-159.3132C108.4114,-145.9891 100.1946,-129.1111 93.6917,-115.7535"/>
<polygon fill="#ff0000" stroke="#ff0000" stroke-width=".3801" points="96.8329,-114.2096 89.3088,-106.7505 90.5391,-117.2737 96.8329,-114.2096"/>
</g>
<!-- 2959&#45;&gt;1 -->
<g id="edge9" class="edge">
<title>2959&#45;&gt;1</title>
<path fill="none" stroke="#00ff00" stroke-width=".4941" stroke-dasharray="1,5" d="M129.7345,-156.7162C133.5176,-133.2354 139.4038,-97.0556 144.7487,-65.6985 146.2104,-57.1231 147.8571,-47.7432 149.3384,-39.4007"/>
<polygon fill="#00ff00" stroke="#00ff00" stroke-width=".4941" points="152.7892,-39.9861 151.1001,-29.5268 145.898,-38.7566 152.7892,-39.9861"/>
</g>
<!-- 94933 -->
<g id="node8" class="node">
<title>94933</title>
<ellipse fill="#ffffff" stroke="#000000" cx="181.7487" cy="-93.2756" rx="27.6545" ry="27.6545"/>
<text text-anchor="middle" x="181.7487" y="-91.0756" font-family="Times,serif" font-size="9.00" fill="#000000">94933</text>
</g>
<!-- 2959&#45;&gt;94933 -->
<g id="edge12" class="edge">
<title>2959&#45;&gt;94933</title>
<path fill="none" stroke="#00ff00" stroke-width=".3655" d="M139.02,-160.6695C145.6696,-150.1814 153.8686,-137.2495 161.3005,-125.5276"/>
<polygon fill="#00ff00" stroke="#00ff00" stroke-width=".3655" points="164.3971,-127.1799 166.7958,-116.8601 158.4852,-123.4316 164.3971,-127.1799"/>
</g>
<!-- 7003 -->
<g id="node9" class="node">
<title>7003</title>
<ellipse fill="#ffffff" stroke="#000000" cx="24.7487" cy="-93.2756" rx="25" ry="25"/>
<text text-anchor="middle" x="24.7487" y="-91.0756" font-family="Times,serif" font-size="9.00" fill="#000000">7003</text>
</g>
<!-- 2959&#45;&gt;7003 -->
<g id="edge10" class="edge">
<title>2959&#45;&gt;7003</title>
<path fill="none" stroke="#ff0000" stroke-width=".3191" d="M106.7514,-164.9881C91.0924,-151.2941 68.7051,-131.7161 51.2773,-116.4752"/>
<polygon fill="#ff0000" stroke="#ff0000" stroke-width=".3191" points="53.4925,-113.7629 43.6609,-109.8146 48.8844,-119.0322 53.4925,-113.7629"/>
</g>
<!-- 94933&#45;&gt;1 -->
<g id="edge13" class="edge">
<title>94933&#45;&gt;1</title>
<path fill="none" stroke="#00ff00" stroke-width=".4868" d="M172.4251,-67.1608C169.1425,-57.9663 165.4723,-47.6863 162.2601,-38.6892"/>
<polygon fill="#00ff00" stroke="#00ff00" stroke-width=".4868" points="165.5318,-37.4434 158.8732,-29.2025 158.9394,-39.7971 165.5318,-37.4434"/>
</g>
<!-- 7003&#45;&gt;1 -->
<g id="edge11" class="edge">
<title>7003&#45;&gt;1</title>
<path fill="none" stroke="#ff0000" stroke-width=".233" stroke-dasharray="1,5" d="M43.682,-76.8659C48.465,-73.0183 53.6845,-69.0634 58.7487,-65.6985 82.3415,-50.0225 111.2603,-35.1011 130.951,-25.5259"/>
<polygon fill="#ff0000" stroke="#ff0000" stroke-width=".233" points="132.5673,-28.6325 140.0707,-21.1526 129.5405,-22.3207 132.5673,-28.6325"/>
</g>
</g>
</svg>
