<?xml version="1.0" encoding="UTF-8" standalone="no"?>
<!DOCTYPE svg PUBLIC "-//W3C//DTD SVG 1.1//EN"
 "http://www.w3.org/Graphics/SVG/1.1/DTD/svg11.dtd">
<!-- Generated by graphviz version 2.40.1 (20161225.0304)
 -->
<!-- Title: %3 Pages: 1 -->
<svg width="347pt" height="385pt"
 viewBox="0.00 0.00 346.54 384.96" xmlns="http://www.w3.org/2000/svg" xmlns:xlink="http://www.w3.org/1999/xlink">
<g id="graph0" class="graph" transform="scale(1 1) rotate(0) translate(4 380.9605)">
<title>%3</title>
<polygon fill="#ffffff" stroke="transparent" points="-4,4 -4,-380.9605 342.5416,-380.9605 342.5416,4 -4,4"/>
<!-- &#45;1 -->
<g id="node1" class="node">
<title>&#45;1</title>
<polygon fill="#d3d3d3" stroke="#000000" points="208.7487,-304.3833 184.7487,-304.3833 184.7487,-286.3833 208.7487,-286.3833 208.7487,-304.3833"/>
<text text-anchor="middle" x="196.7487" y="-293.1833" font-family="Times,serif" font-size="9.00" fill="#000000">&#45;1</text>
</g>
<!-- 1208 -->
<g id="node9" class="node">
<title>1208</title>
<ellipse fill="#ffffff" stroke="#000000" cx="225.7487" cy="-207.0574" rx="25" ry="25"/>
<text text-anchor="middle" x="225.7487" y="-204.8574" font-family="Times,serif" font-size="9.00" fill="#000000">1208</text>
</g>
<!-- &#45;1&#45;&gt;1208 -->
<g id="edge1" class="edge">
<title>&#45;1&#45;&gt;1208</title>
<path fill="none" stroke="#00ff00" stroke-width=".2844" d="M199.743,-286.2636C203.2664,-275.5323 209.3194,-257.0966 214.6995,-240.7104"/>
<polygon fill="#00ff00" stroke="#00ff00" stroke-width=".2844" points="218.1396,-241.4525 217.9338,-230.8597 211.4889,-239.2688 218.1396,-241.4525"/>
</g>
<!-- 1209 -->
<g id="node10" class="node">
<title>1209</title>
<ellipse fill="#ffffff" stroke="#000000" cx="91.7487" cy="-207.0574" rx="25" ry="25"/>
<text text-anchor="middle" x="91.7487" y="-204.8574" font-family="Times,serif" font-size="9.00" fill="#000000">1209</text>
</g>
<!-- &#45;1&#45;&gt;1209 -->
<g id="edge2" class="edge">
<title>&#45;1&#45;&gt;1209</title>
<path fill="none" stroke="#00ff00" stroke-width=".1868" stroke-dasharray="1,5" d="M185.9074,-286.2636C170.1342,-272.9952 140.3593,-247.9486 118.5,-229.5605"/>
<polygon fill="#00ff00" stroke="#00ff00" stroke-width=".1868" points="120.7509,-226.8803 110.8453,-223.1214 116.2447,-232.2371 120.7509,-226.8803"/>
</g>
<!-- 1210 -->
<g id="node11" class="node">
<title>1210</title>
<ellipse fill="#ffffff" stroke="#000000" cx="158.7487" cy="-207.0574" rx="25" ry="25"/>
<text text-anchor="middle" x="158.7487" y="-204.8574" font-family="Times,serif" font-size="9.00" fill="#000000">1210</text>
</g>
<!-- &#45;1&#45;&gt;1210 -->
<g id="edge3" class="edge">
<title>&#45;1&#45;&gt;1210</title>
<path fill="none" stroke="#00ff00" stroke-width=".5" d="M192.8252,-286.2636C188.1014,-275.2837 179.9076,-256.2383 172.7386,-239.5749"/>
<polygon fill="#00ff00" stroke="#00ff00" stroke-width=".5" points="175.8371,-237.9207 168.67,-230.118 169.407,-240.6872 175.8371,-237.9207"/>
</g>
<!-- 1213 -->
<g id="node13" class="node">
<title>1213</title>
<ellipse fill="#ffffff" stroke="#000000" cx="292.7487" cy="-207.0574" rx="25" ry="25"/>
<text text-anchor="middle" x="292.7487" y="-204.8574" font-family="Times,serif" font-size="9.00" fill="#000000">1213</text>
</g>
<!-- &#45;1&#45;&gt;1213 -->
<g id="edge4" class="edge">
<title>&#45;1&#45;&gt;1213</title>
<path fill="none" stroke="#ff0000" stroke-width=".2087" d="M206.6608,-286.2636C220.7018,-273.345 246.8781,-249.2612 266.6948,-231.0286"/>
<polygon fill="#ff0000" stroke="#ff0000" stroke-width=".2087" points="269.2177,-233.4635 274.207,-224.117 264.4781,-228.3121 269.2177,-233.4635"/>
</g>
<!-- &#45;2 -->
<g id="node2" class="node">
<title>&#45;2</title>
<polygon fill="#d3d3d3" stroke="#000000" points="208.7487,-376.9605 184.7487,-376.9605 184.7487,-358.9605 208.7487,-358.9605 208.7487,-376.9605"/>
<text text-anchor="middle" x="196.7487" y="-365.7605" font-family="Times,serif" font-size="9.00" fill="#000000">&#45;2</text>
</g>
<!-- 16279 -->
<g id="node7" class="node">
<title>16279</title>
<ellipse fill="#ffffff" stroke="#000000" cx="292.7487" cy="-295.3833" rx="27.6545" ry="27.6545"/>
<text text-anchor="middle" x="292.7487" y="-293.1833" font-family="Times,serif" font-size="9.00" fill="#000000">16279</text>
</g>
<!-- &#45;2&#45;&gt;16279 -->
<g id="edge27" class="edge">
<title>&#45;2&#45;&gt;16279</title>
<path fill="none" stroke="#00ff00" stroke-width=".2086" d="M208.9072,-358.7685C222.2955,-348.6468 244.3271,-331.9906 262.4463,-318.2923"/>
<polygon fill="#00ff00" stroke="#00ff00" stroke-width=".2086" points="264.5848,-321.0633 270.451,-312.2407 260.3633,-315.4794 264.5848,-321.0633"/>
</g>
<!-- &#45;2&#45;&gt;1208 -->
<g id="edge5" class="edge">
<title>&#45;2&#45;&gt;1208</title>
<path fill="none" stroke="#00ff00" stroke-width=".3104" d="M202.3187,-358.6865C207.3229,-349.844 214.3852,-335.9824 217.7487,-322.9605 224.6164,-296.372 226.442,-265.2823 226.646,-241.9994"/>
<polygon fill="#00ff00" stroke="#00ff00" stroke-width=".3104" points="230.146,-241.8926 226.638,-231.8955 223.146,-241.8983 230.146,-241.8926"/>
</g>
<!-- &#45;2&#45;&gt;1209 -->
<g id="edge6" class="edge">
<title>&#45;2&#45;&gt;1209</title>
<path fill="none" stroke="#00ff00" stroke-width=".2816" d="M184.4847,-366.6107C162.3774,-363.4493 116.2414,-353.3641 95.7487,-322.9605 79.6989,-299.1483 80.2911,-265.8935 83.9636,-241.1088"/>
<polygon fill="#00ff00" stroke="#00ff00" stroke-width=".2816" points="87.4467,-241.5052 85.6866,-231.0576 80.5473,-240.3225 87.4467,-241.5052"/>
</g>
<!-- &#45;2&#45;&gt;1210 -->
<g id="edge7" class="edge">
<title>&#45;2&#45;&gt;1210</title>
<path fill="none" stroke="#ff0000" stroke-width=".3995" d="M191.4063,-358.623C186.5628,-349.7358 179.6092,-335.8438 175.7487,-322.9605 167.801,-296.4366 163.4986,-265.3428 161.2121,-242.0419"/>
<polygon fill="#ff0000" stroke="#ff0000" stroke-width=".3995" points="164.6841,-241.573 160.2976,-231.9289 157.7126,-242.2035 164.6841,-241.573"/>
</g>
<!-- 1211 -->
<g id="node12" class="node">
<title>1211</title>
<ellipse fill="#ffffff" stroke="#000000" cx="24.7487" cy="-207.0574" rx="25" ry="25"/>
<text text-anchor="middle" x="24.7487" y="-204.8574" font-family="Times,serif" font-size="9.00" fill="#000000">1211</text>
</g>
<!-- &#45;2&#45;&gt;1211 -->
<g id="edge8" class="edge">
<title>&#45;2&#45;&gt;1211</title>
<path fill="none" stroke="#00ff00" stroke-width=".4194" d="M184.4547,-366.364C161.0622,-362.7273 109.7233,-351.7909 78.7487,-322.9605 55.2229,-301.0631 41.0354,-266.8624 33.1483,-241.2787"/>
<polygon fill="#00ff00" stroke="#00ff00" stroke-width=".4194" points="36.4856,-240.2204 30.3334,-231.5949 29.7638,-242.1744 36.4856,-240.2204"/>
</g>
<!-- &#45;2&#45;&gt;1213 -->
<g id="edge9" class="edge">
<title>&#45;2&#45;&gt;1213</title>
<path fill="none" stroke="#ff0000" stroke-width=".1467" stroke-dasharray="1,5" d="M209.1882,-365.6454C239.4048,-359.7434 315.2562,-343.1636 329.7487,-322.9605 348.8019,-296.3997 331.2986,-259.5969 314.4736,-234.641"/>
<polygon fill="#ff0000" stroke="#ff0000" stroke-width=".1467" points="317.2406,-232.4917 308.6117,-226.344 311.5235,-236.5309 317.2406,-232.4917"/>
</g>
<!-- &#45;3 -->
<g id="node3" class="node">
<title>&#45;3</title>
<polygon fill="#d3d3d3" stroke="#000000" points="128.7487,-304.3833 104.7487,-304.3833 104.7487,-286.3833 128.7487,-286.3833 128.7487,-304.3833"/>
<text text-anchor="middle" x="116.7487" y="-293.1833" font-family="Times,serif" font-size="9.00" fill="#000000">&#45;3</text>
</g>
<!-- &#45;3&#45;&gt;1208 -->
<g id="edge10" class="edge">
<title>&#45;3&#45;&gt;1208</title>
<path fill="none" stroke="#ff0000" stroke-width=".5" d="M128.0031,-286.2636C144.474,-272.9167 175.6526,-247.6518 198.3804,-229.2348"/>
<polygon fill="#ff0000" stroke="#ff0000" stroke-width=".5" points="200.7626,-231.8093 206.3285,-222.7942 196.3555,-226.3707 200.7626,-231.8093"/>
</g>
<!-- &#45;3&#45;&gt;1209 -->
<g id="edge11" class="edge">
<title>&#45;3&#45;&gt;1209</title>
<path fill="none" stroke="#ff0000" stroke-width=".2491" d="M114.1675,-286.2636C111.1507,-275.6053 105.9829,-257.3471 101.3687,-241.0451"/>
<polygon fill="#ff0000" stroke="#ff0000" stroke-width=".2491" points="104.6827,-239.9018 98.5915,-231.233 97.9473,-241.8082 104.6827,-239.9018"/>
</g>
<!-- &#45;3&#45;&gt;1210 -->
<g id="edge12" class="edge">
<title>&#45;3&#45;&gt;1210</title>
<path fill="none" stroke="#ff0000" stroke-width=".2862" d="M121.0853,-286.2636C126.3414,-275.21 135.4844,-255.9823 143.4457,-239.2397"/>
<polygon fill="#ff0000" stroke="#ff0000" stroke-width=".2862" points="146.8247,-240.2838 147.9583,-229.7497 140.503,-237.2777 146.8247,-240.2838"/>
</g>
<!-- &#45;3&#45;&gt;1211 -->
<g id="edge13" class="edge">
<title>&#45;3&#45;&gt;1211</title>
<path fill="none" stroke="#00ff00" stroke-width=".1129" stroke-dasharray="1,5" d="M107.2496,-286.2636C93.934,-273.4797 69.2298,-249.762 50.3128,-231.6006"/>
<polygon fill="#00ff00" stroke="#00ff00" stroke-width=".1129" points="52.506,-228.8542 42.8683,-224.4534 47.6581,-233.9038 52.506,-228.8542"/>
</g>
<!-- &#45;3&#45;&gt;1213 -->
<g id="edge14" class="edge">
<title>&#45;3&#45;&gt;1213</title>
<path fill="none" stroke="#00ff00" stroke-width=".3163" d="M128.8996,-289.5637C140.7915,-283.9013 159.4445,-275.108 175.7487,-267.8061 212.8184,-251.2045 224.5849,-252.1355 259.7487,-231.8061 261.4692,-230.8115 263.2044,-229.7417 264.931,-228.6247"/>
<polygon fill="#00ff00" stroke="#00ff00" stroke-width=".3163" points="267.1516,-231.3444 273.3833,-222.7761 263.1684,-225.5881 267.1516,-231.3444"/>
</g>
<!-- 0 -->
<g id="node4" class="node">
<title>0</title>
<ellipse fill="#add8e6" stroke="#000000" cx="101.7487" cy="-118.7315" rx="14.7" ry="14.7"/>
<text text-anchor="middle" x="101.7487" y="-116.5315" font-family="Times,serif" font-size="9.00" fill="#000000">0</text>
</g>
<!-- 1 -->
<g id="node5" class="node">
<title>1</title>
<ellipse fill="#add8e6" stroke="#000000" cx="158.7487" cy="-118.7315" rx="14.7" ry="14.7"/>
<text text-anchor="middle" x="158.7487" y="-116.5315" font-family="Times,serif" font-size="9.00" fill="#000000">1</text>
</g>
<!-- 12037 -->
<g id="node6" class="node">
<title>12037</title>
<ellipse fill="#ffffff" stroke="#000000" cx="249.7487" cy="-27.5772" rx="27.6545" ry="27.6545"/>
<text text-anchor="middle" x="249.7487" y="-25.3772" font-family="Times,serif" font-size="9.00" fill="#000000">12037</text>
</g>
<!-- 16279&#45;&gt;1213 -->
<g id="edge28" class="edge">
<title>16279&#45;&gt;1213</title>
<path fill="none" stroke="#00ff00" stroke-width=".5" d="M292.7487,-267.4364C292.7487,-259.316 292.7487,-250.3461 292.7487,-241.8596"/>
<polygon fill="#00ff00" stroke="#00ff00" stroke-width=".5" points="296.2488,-241.8373 292.7487,-231.8373 289.2488,-241.8373 296.2488,-241.8373"/>
</g>
<!-- 12089 -->
<g id="node8" class="node">
<title>12089</title>
<ellipse fill="#ffffff" stroke="#000000" cx="221.7487" cy="-118.7315" rx="27.6545" ry="27.6545"/>
<text text-anchor="middle" x="221.7487" y="-116.5315" font-family="Times,serif" font-size="9.00" fill="#000000">12089</text>
</g>
<!-- 12089&#45;&gt;12037 -->
<g id="edge26" class="edge">
<title>12089&#45;&gt;12037</title>
<path fill="none" stroke="#00ff00" stroke-width=".2353" d="M229.8475,-92.3659C232.5806,-83.4682 235.681,-73.3749 238.6073,-63.8482"/>
<polygon fill="#00ff00" stroke="#00ff00" stroke-width=".2353" points="241.9805,-64.7862 241.5712,-54.1993 235.2891,-62.7308 241.9805,-64.7862"/>
</g>
<!-- 1208&#45;&gt;0 -->
<g id="edge15" class="edge">
<title>1208&#45;&gt;0</title>
<path fill="none" stroke="#ff0000" stroke-width=".3428" d="M206.061,-191.8507C201.7273,-188.628 197.124,-185.2987 192.7487,-182.3087 167.6995,-165.1905 159.3388,-164.0801 134.7487,-146.3087 130.0589,-142.9193 125.1843,-139.0547 120.6665,-135.3132"/>
<polygon fill="#ff0000" stroke="#ff0000" stroke-width=".3428" points="122.9268,-132.6409 113.0369,-128.8408 118.3984,-137.9789 122.9268,-132.6409"/>
</g>
<!-- 1208&#45;&gt;1 -->
<g id="edge16" class="edge">
<title>1208&#45;&gt;1</title>
<path fill="none" stroke="#ff0000" stroke-width=".2768" stroke-dasharray="1,5" d="M210.5454,-187.0149C199.6746,-172.6839 185.0957,-153.4647 174.1747,-139.0675"/>
<polygon fill="#ff0000" stroke="#ff0000" stroke-width=".2768" points="176.7455,-136.6651 167.9134,-130.8132 171.1684,-140.8956 176.7455,-136.6651"/>
</g>
<!-- 1208&#45;&gt;12037 -->
<g id="edge24" class="edge">
<title>1208&#45;&gt;12037</title>
<path fill="none" stroke="#00ff00" stroke-width=".3146" stroke-dasharray="1,5" d="M240.0987,-186.7648C247.2268,-175.4368 255.0838,-160.7332 258.7487,-146.3087 265.5777,-119.4311 262.7783,-88.1192 258.5662,-64.4007"/>
<polygon fill="#00ff00" stroke="#00ff00" stroke-width=".3146" points="261.9686,-63.5604 256.6301,-54.4088 255.0964,-64.892 261.9686,-63.5604"/>
</g>
<!-- 1208&#45;&gt;12089 -->
<g id="edge25" class="edge">
<title>1208&#45;&gt;12089</title>
<path fill="none" stroke="#00ff00" stroke-width=".1105" d="M224.6132,-181.983C224.2552,-174.0785 223.8515,-165.1637 223.4625,-156.5746"/>
<polygon fill="#00ff00" stroke="#00ff00" stroke-width=".1105" points="226.9484,-156.1804 222.9994,-146.3491 219.9555,-156.4972 226.9484,-156.1804"/>
</g>
<!-- 1209&#45;&gt;0 -->
<g id="edge17" class="edge">
<title>1209&#45;&gt;0</title>
<path fill="none" stroke="#00ff00" stroke-width=".4002" stroke-dasharray="1,5" d="M94.5343,-182.4537C95.911,-170.2939 97.5684,-155.6549 98.9472,-143.476"/>
<polygon fill="#00ff00" stroke="#00ff00" stroke-width=".4002" points="102.4259,-143.8611 100.0732,-133.5308 95.4703,-143.0736 102.4259,-143.8611"/>
</g>
<!-- 1209&#45;&gt;1 -->
<g id="edge18" class="edge">
<title>1209&#45;&gt;1</title>
<path fill="none" stroke="#ff0000" stroke-width=".5" d="M106.9521,-187.0149C117.8229,-172.6839 132.4017,-153.4647 143.3228,-139.0675"/>
<polygon fill="#ff0000" stroke="#ff0000" stroke-width=".5" points="146.329,-140.8956 149.5841,-130.8132 140.752,-136.6651 146.329,-140.8956"/>
</g>
<!-- 1210&#45;&gt;0 -->
<g id="edge19" class="edge">
<title>1210&#45;&gt;0</title>
<path fill="none" stroke="#00ff00" stroke-width=".4235" d="M145.2405,-186.1254C136.2206,-172.1484 124.4,-153.8314 115.3591,-139.8217"/>
<polygon fill="#00ff00" stroke="#00ff00" stroke-width=".4235" points="118.2398,-137.8308 109.8766,-131.3263 112.3582,-141.6265 118.2398,-137.8308"/>
</g>
<!-- 1210&#45;&gt;1 -->
<g id="edge20" class="edge">
<title>1210&#45;&gt;1</title>
<path fill="none" stroke="#ff0000" stroke-width=".1192" d="M158.7487,-181.983C158.7487,-170.0342 158.7487,-155.7769 158.7487,-143.8255"/>
<polygon fill="#ff0000" stroke="#ff0000" stroke-width=".1192" points="162.2488,-143.6305 158.7487,-133.6305 155.2488,-143.6305 162.2488,-143.6305"/>
</g>
<!-- 1211&#45;&gt;0 -->
<g id="edge21" class="edge">
<title>1211&#45;&gt;0</title>
<path fill="none" stroke="#ff0000" stroke-width=".2776" stroke-dasharray="1,5" d="M41.0785,-188.3257C54.0408,-173.4568 72.0893,-152.7535 85.1272,-137.7979"/>
<polygon fill="#ff0000" stroke="#ff0000" stroke-width=".2776" points="87.8578,-139.9919 91.7908,-130.1541 82.5813,-135.392 87.8578,-139.9919"/>
</g>
<!-- 1211&#45;&gt;1 -->
<g id="edge22" class="edge">
<title>1211&#45;&gt;1</title>
<path fill="none" stroke="#ff0000" stroke-width=".4361" d="M44.2849,-191.6205C48.6281,-188.4122 53.2735,-185.1469 57.7487,-182.3087 86.627,-163.994 97.3624,-165.3769 125.7487,-146.3087 130.552,-143.0821 135.4714,-139.2817 139.9965,-135.5507"/>
<polygon fill="#ff0000" stroke="#ff0000" stroke-width=".4361" points="142.2768,-138.2059 147.6054,-129.0486 137.7292,-132.8843 142.2768,-138.2059"/>
</g>
<!-- 1213&#45;&gt;1 -->
<g id="edge23" class="edge">
<title>1213&#45;&gt;1</title>
<path fill="none" stroke="#00ff00" stroke-width=".5" d="M273.296,-191.4861C268.9476,-188.2861 264.279,-185.0582 259.7487,-182.3087 228.1404,-163.1247 214.5995,-168.127 184.7487,-146.3087 181.3787,-143.8455 178.0824,-140.9097 175.0301,-137.8867"/>
<polygon fill="#00ff00" stroke="#00ff00" stroke-width=".5" points="177.4285,-135.3271 168.0426,-130.4123 172.315,-140.1075 177.4285,-135.3271"/>
</g>
</g>
</svg>
