<?xml version="1.0" encoding="UTF-8" standalone="no"?>
<!DOCTYPE svg PUBLIC "-//W3C//DTD SVG 1.1//EN"
 "http://www.w3.org/Graphics/SVG/1.1/DTD/svg11.dtd">
<!-- Generated by graphviz version 2.40.1 (20161225.0304)
 -->
<!-- Title: %3 Pages: 1 -->
<svg width="651pt" height="177pt"
 viewBox="0.00 0.00 651.00 177.20" xmlns="http://www.w3.org/2000/svg" xmlns:xlink="http://www.w3.org/1999/xlink">
<g id="graph0" class="graph" transform="scale(1 1) rotate(0) translate(4 173.196)">
<title>%3</title>
<polygon fill="#ffffff" stroke="transparent" points="-4,4 -4,-173.196 647,-173.196 647,4 -4,4"/>
<!-- &#45;1 -->
<g id="node1" class="node">
<title>&#45;1</title>
<polygon fill="#d3d3d3" stroke="#000000" points="433,-169.196 409,-169.196 409,-151.196 433,-151.196 433,-169.196"/>
<text text-anchor="middle" x="421" y="-157.996" font-family="Times,serif" font-size="9.00" fill="#000000">&#45;1</text>
</g>
<!-- 1424 -->
<g id="node18" class="node">
<title>1424</title>
<ellipse fill="#ffffff" stroke="#000000" cx="160" cy="-90.4472" rx="25" ry="25"/>
<text text-anchor="middle" x="160" y="-88.2472" font-family="Times,serif" font-size="9.00" fill="#000000">1424</text>
</g>
<!-- &#45;1&#45;&gt;1424 -->
<g id="edge1" class="edge">
<title>&#45;1&#45;&gt;1424</title>
<path fill="none" stroke="#00ff00" stroke-width=".1965" d="M408.7398,-154.3769C405.9148,-153.1955 402.89,-152.0538 400,-151.196 310.4794,-124.624 278.722,-152.2329 193,-115.196 191.1757,-114.4078 189.3592,-113.4996 187.5701,-112.5069"/>
<polygon fill="#00ff00" stroke="#00ff00" stroke-width=".1965" points="189.2577,-109.4318 178.9456,-107.0007 185.4909,-115.3319 189.2577,-109.4318"/>
</g>
<!-- 1425 -->
<g id="node19" class="node">
<title>1425</title>
<ellipse fill="#ffffff" stroke="#000000" cx="227" cy="-90.4472" rx="25" ry="25"/>
<text text-anchor="middle" x="227" y="-88.2472" font-family="Times,serif" font-size="9.00" fill="#000000">1425</text>
</g>
<!-- &#45;1&#45;&gt;1425 -->
<g id="edge2" class="edge">
<title>&#45;1&#45;&gt;1425</title>
<path fill="none" stroke="#ff0000" stroke-width=".311" d="M408.6859,-154.5462C405.8637,-153.356 402.8536,-152.1679 400,-151.196 339.1847,-130.4813 317.9179,-143.0011 260,-115.196 258.2085,-114.3359 256.4176,-113.3715 254.6483,-112.3355"/>
<polygon fill="#ff0000" stroke="#ff0000" stroke-width=".311" points="256.3586,-109.2715 246.078,-106.71 252.5174,-115.1235 256.3586,-109.2715"/>
</g>
<!-- 1426 -->
<g id="node20" class="node">
<title>1426</title>
<ellipse fill="#ffffff" stroke="#000000" cx="294" cy="-90.4472" rx="25" ry="25"/>
<text text-anchor="middle" x="294" y="-88.2472" font-family="Times,serif" font-size="9.00" fill="#000000">1426</text>
</g>
<!-- &#45;1&#45;&gt;1426 -->
<g id="edge3" class="edge">
<title>&#45;1&#45;&gt;1426</title>
<path fill="none" stroke="#ff0000" stroke-width=".4838" d="M408.755,-154.6983C386.829,-144.7941 341.7758,-124.1533 327,-115.196 325.3006,-114.1658 323.5819,-113.0681 321.868,-111.9297"/>
<polygon fill="#ff0000" stroke="#ff0000" stroke-width=".4838" points="323.6465,-108.902 313.4506,-106.0221 319.6252,-114.6317 323.6465,-108.902"/>
</g>
<!-- 1427 -->
<g id="node21" class="node">
<title>1427</title>
<ellipse fill="#ffffff" stroke="#000000" cx="361" cy="-90.4472" rx="25" ry="25"/>
<text text-anchor="middle" x="361" y="-88.2472" font-family="Times,serif" font-size="9.00" fill="#000000">1427</text>
</g>
<!-- &#45;1&#45;&gt;1427 -->
<g id="edge4" class="edge">
<title>&#45;1&#45;&gt;1427</title>
<path fill="none" stroke="#ff0000" stroke-width=".3059" d="M413.156,-151.0775C405.7037,-142.4143 394.1299,-128.9601 383.7766,-116.9245"/>
<polygon fill="#ff0000" stroke="#ff0000" stroke-width=".3059" points="386.3795,-114.5834 377.2047,-109.2849 381.0728,-119.1484 386.3795,-114.5834"/>
</g>
<!-- 1428 -->
<g id="node22" class="node">
<title>1428</title>
<ellipse fill="#ffffff" stroke="#000000" cx="428" cy="-90.4472" rx="25" ry="25"/>
<text text-anchor="middle" x="428" y="-88.2472" font-family="Times,serif" font-size="9.00" fill="#000000">1428</text>
</g>
<!-- &#45;1&#45;&gt;1428 -->
<g id="edge5" class="edge">
<title>&#45;1&#45;&gt;1428</title>
<path fill="none" stroke="#ff0000" stroke-width=".402" d="M421.9151,-151.0775C422.5846,-144.4066 423.5392,-134.8948 424.4944,-125.3775"/>
<polygon fill="#ff0000" stroke="#ff0000" stroke-width=".402" points="428.0014,-125.4818 425.5176,-115.1822 421.0364,-124.7827 428.0014,-125.4818"/>
</g>
<!-- 1429 -->
<g id="node23" class="node">
<title>1429</title>
<ellipse fill="#ffffff" stroke="#000000" cx="495" cy="-90.4472" rx="25" ry="25"/>
<text text-anchor="middle" x="495" y="-88.2472" font-family="Times,serif" font-size="9.00" fill="#000000">1429</text>
</g>
<!-- &#45;1&#45;&gt;1429 -->
<g id="edge6" class="edge">
<title>&#45;1&#45;&gt;1429</title>
<path fill="none" stroke="#ff0000" stroke-width=".3834" d="M430.6742,-151.0775C440.4335,-141.8789 455.9236,-127.2787 469.2577,-114.7107"/>
<polygon fill="#ff0000" stroke="#ff0000" stroke-width=".3834" points="471.9234,-117.0077 476.7998,-107.6018 467.1221,-111.9138 471.9234,-117.0077"/>
</g>
<!-- &#45;2 -->
<g id="node2" class="node">
<title>&#45;2</title>
<polygon fill="#d3d3d3" stroke="#000000" points="475,-169.196 451,-169.196 451,-151.196 475,-151.196 475,-169.196"/>
<text text-anchor="middle" x="463" y="-157.996" font-family="Times,serif" font-size="9.00" fill="#000000">&#45;2</text>
</g>
<!-- &#45;2&#45;&gt;1424 -->
<g id="edge7" class="edge">
<title>&#45;2&#45;&gt;1424</title>
<path fill="none" stroke="#ff0000" stroke-width=".1111" d="M450.7576,-154.3155C447.9317,-153.1372 444.9019,-152.0123 442,-151.196 334.3611,-120.9144 296.2701,-158.0724 193,-115.196 191.115,-114.4133 189.2408,-113.4982 187.3982,-112.4899"/>
<polygon fill="#ff0000" stroke="#ff0000" stroke-width=".1111" points="188.8611,-109.2721 178.5464,-106.8521 185.1007,-115.1762 188.8611,-109.2721"/>
</g>
<!-- &#45;2&#45;&gt;1425 -->
<g id="edge8" class="edge">
<title>&#45;2&#45;&gt;1425</title>
<path fill="none" stroke="#00ff00" stroke-width=".3956" d="M450.7248,-154.4263C447.9006,-153.2423 444.8799,-152.0871 442,-151.196 363.2288,-126.8217 335.3106,-148.7715 260,-115.196 258.1849,-114.3868 256.3756,-113.4622 254.5921,-112.4568"/>
<polygon fill="#00ff00" stroke="#00ff00" stroke-width=".3956" points="256.286,-109.3847 245.9829,-106.9157 252.4975,-115.2709 256.286,-109.3847"/>
</g>
<!-- &#45;2&#45;&gt;1426 -->
<g id="edge9" class="edge">
<title>&#45;2&#45;&gt;1426</title>
<path fill="none" stroke="#00ff00" stroke-width=".4355" d="M450.6472,-154.6551C447.827,-153.4593 444.8275,-152.2414 442,-151.196 391.7665,-132.6235 374.6662,-139.6147 327,-115.196 325.2313,-114.2899 323.4583,-113.2894 321.7027,-112.2257"/>
<polygon fill="#00ff00" stroke="#00ff00" stroke-width=".4355" points="323.4294,-109.1701 313.1703,-106.524 319.5401,-114.9902 323.4294,-109.1701"/>
</g>
<!-- &#45;2&#45;&gt;1427 -->
<g id="edge10" class="edge">
<title>&#45;2&#45;&gt;1427</title>
<path fill="none" stroke="#ff0000" stroke-width=".3614" d="M450.8745,-152.6269C436.9681,-143.8686 413.5668,-128.8916 394,-115.196 392.3719,-114.0564 390.7091,-112.8731 389.0381,-111.6689"/>
<polygon fill="#ff0000" stroke="#ff0000" stroke-width=".3614" points="390.872,-108.6735 380.7389,-105.5799 386.7312,-114.3174 390.872,-108.6735"/>
</g>
<!-- &#45;2&#45;&gt;1428 -->
<g id="edge11" class="edge">
<title>&#45;2&#45;&gt;1428</title>
<path fill="none" stroke="#00ff00" stroke-width=".2671" d="M458.4244,-151.0775C454.6695,-143.5948 449.1211,-132.5378 443.787,-121.9078"/>
<polygon fill="#00ff00" stroke="#00ff00" stroke-width=".2671" points="446.8184,-120.145 439.2051,-112.7769 440.5619,-123.2845 446.8184,-120.145"/>
</g>
<!-- &#45;2&#45;&gt;1429 -->
<g id="edge12" class="edge">
<title>&#45;2&#45;&gt;1429</title>
<path fill="none" stroke="#ff0000" stroke-width=".2246" d="M467.1834,-151.0775C470.5558,-143.7269 475.5107,-132.9271 480.3077,-122.4713"/>
<polygon fill="#ff0000" stroke="#ff0000" stroke-width=".2246" points="483.63,-123.6232 484.6188,-113.0746 477.2676,-120.7041 483.63,-123.6232"/>
</g>
<!-- &#45;3 -->
<g id="node3" class="node">
<title>&#45;3</title>
<polygon fill="#d3d3d3" stroke="#000000" points="517,-169.196 493,-169.196 493,-151.196 517,-151.196 517,-169.196"/>
<text text-anchor="middle" x="505" y="-157.996" font-family="Times,serif" font-size="9.00" fill="#000000">&#45;3</text>
</g>
<!-- &#45;3&#45;&gt;1424 -->
<g id="edge13" class="edge">
<title>&#45;3&#45;&gt;1424</title>
<path fill="none" stroke="#ff0000" stroke-width=".289" d="M492.7698,-154.2713C489.9432,-153.0953 486.9101,-151.9826 484,-151.196 358.1954,-117.1913 313.8636,-163.9309 193,-115.196 191.1071,-114.4327 189.2267,-113.5327 187.3794,-112.5357"/>
<polygon fill="#ff0000" stroke="#ff0000" stroke-width=".289" points="188.8373,-109.3165 178.515,-106.9287 185.0952,-115.2324 188.8373,-109.3165"/>
</g>
<!-- &#45;3&#45;&gt;1425 -->
<g id="edge14" class="edge">
<title>&#45;3&#45;&gt;1425</title>
<path fill="none" stroke="#ff0000" stroke-width=".4545" d="M492.7479,-154.3494C489.9225,-153.1694 486.8954,-152.0352 484,-151.196 387.1532,-123.1246 352.8178,-154.5935 260,-115.196 258.1707,-114.4195 256.3502,-113.5206 254.5582,-112.5348"/>
<polygon fill="#ff0000" stroke="#ff0000" stroke-width=".4545" points="256.2424,-109.4582 245.9253,-107.0481 252.4876,-115.366 256.2424,-109.4582"/>
</g>
<!-- &#45;3&#45;&gt;1426 -->
<g id="edge15" class="edge">
<title>&#45;3&#45;&gt;1426</title>
<path fill="none" stroke="#ff0000" stroke-width=".3291" d="M492.7044,-154.4905C489.8813,-153.3032 486.8661,-152.1303 484,-151.196 415.937,-129.0066 391.9385,-145.3278 327,-115.196 325.1973,-114.3595 323.3977,-113.4136 321.6217,-112.3918"/>
<polygon fill="#ff0000" stroke="#ff0000" stroke-width=".3291" points="323.3242,-109.3239 313.033,-106.8056 319.5075,-115.1919 323.3242,-109.3239"/>
</g>
<!-- &#45;3&#45;&gt;1427 -->
<g id="edge16" class="edge">
<title>&#45;3&#45;&gt;1427</title>
<path fill="none" stroke="#00ff00" stroke-width=".2103" d="M492.5843,-154.8156C489.7674,-153.6115 486.7851,-152.3496 484,-151.196 444.1981,-134.7095 431.557,-136.3021 394,-115.196 392.2676,-114.2224 390.5229,-113.169 388.7892,-112.0647"/>
<polygon fill="#00ff00" stroke="#00ff00" stroke-width=".2103" points="390.5426,-109.0232 380.3169,-106.251 386.582,-114.795 390.5426,-109.0232"/>
</g>
<!-- &#45;3&#45;&gt;1428 -->
<g id="edge17" class="edge">
<title>&#45;3&#45;&gt;1428</title>
<path fill="none" stroke="#00ff00" stroke-width=".5" d="M494.9336,-151.0775C484.6149,-141.7306 468.1394,-126.8066 454.1167,-114.1045"/>
<polygon fill="#00ff00" stroke="#00ff00" stroke-width=".5" points="456.3946,-111.4454 446.6334,-107.3259 451.6951,-116.6334 456.3946,-111.4454"/>
</g>
<!-- &#45;3&#45;&gt;1429 -->
<g id="edge18" class="edge">
<title>&#45;3&#45;&gt;1429</title>
<path fill="none" stroke="#ff0000" stroke-width=".1006" d="M503.6927,-151.0775C502.7362,-144.4066 501.3725,-134.8948 500.008,-125.3775"/>
<polygon fill="#ff0000" stroke="#ff0000" stroke-width=".1006" points="503.4302,-124.5842 498.5463,-115.1822 496.501,-125.5777 503.4302,-124.5842"/>
</g>
<!-- &#45;4 -->
<g id="node4" class="node">
<title>&#45;4</title>
<polygon fill="#d3d3d3" stroke="#000000" points="559,-169.196 535,-169.196 535,-151.196 559,-151.196 559,-169.196"/>
<text text-anchor="middle" x="547" y="-157.996" font-family="Times,serif" font-size="9.00" fill="#000000">&#45;4</text>
</g>
<!-- &#45;4&#45;&gt;1424 -->
<g id="edge19" class="edge">
<title>&#45;4&#45;&gt;1424</title>
<path fill="none" stroke="#ff0000" stroke-width=".4743" d="M534.7786,-154.238C531.9516,-153.0638 528.9161,-151.9601 526,-151.196 382,-113.4602 331.4857,-169.8009 193,-115.196 191.1013,-114.4473 189.2163,-113.5586 187.3656,-112.5703"/>
<polygon fill="#ff0000" stroke="#ff0000" stroke-width=".4743" points="188.8198,-109.3501 178.492,-106.9864 185.0916,-115.2747 188.8198,-109.3501"/>
</g>
<!-- &#45;4&#45;&gt;1425 -->
<g id="edge20" class="edge">
<title>&#45;4&#45;&gt;1425</title>
<path fill="none" stroke="#00ff00" stroke-width=".4121" d="M534.763,-154.2959C531.9368,-153.1187 528.9056,-151.9992 526,-151.196 411.0128,-119.4087 370.387,-160.4419 260,-115.196 258.1115,-114.4219 256.2345,-113.5134 254.3898,-112.5101"/>
<polygon fill="#00ff00" stroke="#00ff00" stroke-width=".4121" points="255.8505,-109.2917 245.5324,-106.8859 252.0982,-115.201 255.8505,-109.2917"/>
</g>
<!-- &#45;4&#45;&gt;1426 -->
<g id="edge21" class="edge">
<title>&#45;4&#45;&gt;1426</title>
<path fill="none" stroke="#ff0000" stroke-width=".1715" stroke-dasharray="1,5" d="M534.7355,-154.3914C531.9107,-153.2092 528.887,-152.0636 526,-151.196 439.9228,-125.3284 409.387,-151.1237 327,-115.196 325.1784,-114.4016 323.364,-113.4886 321.5765,-112.4921"/>
<polygon fill="#ff0000" stroke="#ff0000" stroke-width=".1715" points="323.2659,-109.4179 312.9564,-106.9757 319.4927,-115.314 323.2659,-109.4179"/>
</g>
<!-- &#45;4&#45;&gt;1427 -->
<g id="edge22" class="edge">
<title>&#45;4&#45;&gt;1427</title>
<path fill="none" stroke="#ff0000" stroke-width=".1893" d="M534.6753,-154.577C531.8536,-153.3852 528.8464,-152.1887 526,-151.196 468.5825,-131.1709 448.6263,-141.912 394,-115.196 392.2148,-114.3229 390.4289,-113.3483 388.6633,-112.3044"/>
<polygon fill="#ff0000" stroke="#ff0000" stroke-width=".1893" points="390.3781,-109.2427 380.1036,-106.6574 386.5234,-115.0857 390.3781,-109.2427"/>
</g>
<!-- &#45;4&#45;&gt;1428 -->
<g id="edge23" class="edge">
<title>&#45;4&#45;&gt;1428</title>
<path fill="none" stroke="#ff0000" stroke-width=".3576" d="M534.9791,-154.666C518.0367,-146.7037 486.3689,-131.1993 461,-115.196 459.3192,-114.1357 457.6151,-113.0145 455.9124,-111.858"/>
<polygon fill="#ff0000" stroke="#ff0000" stroke-width=".3576" points="457.7052,-108.8383 447.5258,-105.9005 453.6513,-114.5451 457.7052,-108.8383"/>
</g>
<!-- &#45;4&#45;&gt;1429 -->
<g id="edge24" class="edge">
<title>&#45;4&#45;&gt;1429</title>
<path fill="none" stroke="#00ff00" stroke-width=".2821" d="M540.2019,-151.0775C534.0434,-142.817 524.6375,-130.2006 515.9974,-118.6116"/>
<polygon fill="#00ff00" stroke="#00ff00" stroke-width=".2821" points="518.682,-116.3567 509.8989,-110.4315 513.07,-120.5407 518.682,-116.3567"/>
</g>
<!-- &#45;5 -->
<g id="node5" class="node">
<title>&#45;5</title>
<polygon fill="#d3d3d3" stroke="#000000" points="601,-169.196 577,-169.196 577,-151.196 601,-151.196 601,-169.196"/>
<text text-anchor="middle" x="589" y="-157.996" font-family="Times,serif" font-size="9.00" fill="#000000">&#45;5</text>
</g>
<!-- &#45;5&#45;&gt;1424 -->
<g id="edge25" class="edge">
<title>&#45;5&#45;&gt;1424</title>
<path fill="none" stroke="#ff0000" stroke-width=".1614" d="M576.7853,-154.2121C573.958,-153.0392 570.9206,-151.9427 568,-151.196 405.7846,-109.7239 349.127,-175.6785 193,-115.196 191.0968,-114.4587 189.2084,-113.5788 187.3551,-112.5973"/>
<polygon fill="#ff0000" stroke="#ff0000" stroke-width=".1614" points="188.8065,-109.3764 178.4744,-107.0314 185.089,-115.3077 188.8065,-109.3764"/>
</g>
<!-- &#45;5&#45;&gt;1425 -->
<g id="edge26" class="edge">
<title>&#45;5&#45;&gt;1425</title>
<path fill="none" stroke="#00ff00" stroke-width=".4713" d="M576.7737,-154.2568C573.9469,-153.0816 570.9128,-151.9728 568,-151.196 434.8335,-115.6819 387.9936,-166.3057 260,-115.196 258.1046,-114.4391 256.2221,-113.544 254.3733,-112.5508"/>
<polygon fill="#00ff00" stroke="#00ff00" stroke-width=".4713" points="255.8296,-109.3312 245.5049,-106.9539 252.0936,-115.2509 255.8296,-109.3312"/>
</g>
<!-- &#45;5&#45;&gt;1426 -->
<g id="edge27" class="edge">
<title>&#45;5&#45;&gt;1426</title>
<path fill="none" stroke="#ff0000" stroke-width=".4284" d="M576.7547,-154.3256C573.929,-153.1468 570.9,-152.0192 568,-151.196 463.8166,-121.6222 426.9234,-156.9583 327,-115.196 325.1169,-114.4089 323.244,-113.4904 321.4025,-112.4794"/>
<polygon fill="#ff0000" stroke="#ff0000" stroke-width=".4284" points="322.8667,-109.2619 312.5536,-106.8346 319.102,-115.1634 322.8667,-109.2619"/>
</g>
<!-- &#45;5&#45;&gt;1427 -->
<g id="edge28" class="edge">
<title>&#45;5&#45;&gt;1427</title>
<path fill="none" stroke="#00ff00" stroke-width=".1177" d="M576.719,-154.4449C573.8951,-153.26 570.8759,-152.0996 568,-151.196 492.6607,-127.5225 465.9865,-147.6673 394,-115.196 392.1885,-114.3788 390.382,-113.4481 388.6006,-112.4379"/>
<polygon fill="#00ff00" stroke="#00ff00" stroke-width=".1177" points="390.2969,-109.367 379.9972,-106.8837 386.5003,-115.248 390.2969,-109.367"/>
</g>
<!-- &#45;5&#45;&gt;1428 -->
<g id="edge29" class="edge">
<title>&#45;5&#45;&gt;1428</title>
<path fill="none" stroke="#00ff00" stroke-width=".1128" d="M576.6305,-154.6994C573.8112,-153.5013 570.8163,-152.2712 568,-151.196 521.1254,-133.2991 505.4116,-138.5442 461,-115.196 459.241,-114.2712 457.4756,-113.2561 455.7258,-112.1812"/>
<polygon fill="#00ff00" stroke="#00ff00" stroke-width=".1128" points="457.4596,-109.1292 447.2095,-106.4485 453.5507,-114.9362 457.4596,-109.1292"/>
</g>
<!-- &#45;5&#45;&gt;1429 -->
<g id="edge30" class="edge">
<title>&#45;5&#45;&gt;1429</title>
<path fill="none" stroke="#00ff00" stroke-width=".4829" d="M576.7111,-151.0775C563.2823,-141.1132 541.3116,-124.8108 523.533,-111.6189"/>
<polygon fill="#00ff00" stroke="#00ff00" stroke-width=".4829" points="525.3142,-108.5823 515.1978,-105.4342 521.1429,-114.2038 525.3142,-108.5823"/>
</g>
<!-- &#45;6 -->
<g id="node6" class="node">
<title>&#45;6</title>
<polygon fill="#d3d3d3" stroke="#000000" points="643,-169.196 619,-169.196 619,-151.196 643,-151.196 643,-169.196"/>
<text text-anchor="middle" x="631" y="-157.996" font-family="Times,serif" font-size="9.00" fill="#000000">&#45;6</text>
</g>
<!-- &#45;6&#45;&gt;1424 -->
<g id="edge31" class="edge">
<title>&#45;6&#45;&gt;1424</title>
<path fill="none" stroke="#ff0000" stroke-width=".2804" stroke-dasharray="1,5" d="M618.7906,-154.1913C615.963,-153.0195 612.9242,-151.9286 610,-151.196 429.5552,-105.9839 366.7817,-181.5614 193,-115.196 191.0933,-114.4678 189.2022,-113.5951 187.3467,-112.6189"/>
<polygon fill="#ff0000" stroke="#ff0000" stroke-width=".2804" points="188.796,-109.3975 178.4605,-107.0675 185.0872,-115.3342 188.796,-109.3975"/>
</g>
<!-- &#45;6&#45;&gt;1425 -->
<g id="edge32" class="edge">
<title>&#45;6&#45;&gt;1425</title>
<path fill="none" stroke="#00ff00" stroke-width=".5" d="M618.7815,-154.2268C615.9544,-153.0531 612.9181,-151.9526 610,-151.196 458.6291,-111.9484 405.6243,-172.1792 260,-115.196 258.0994,-114.4522 256.2129,-113.5674 254.361,-112.582"/>
<polygon fill="#00ff00" stroke="#00ff00" stroke-width=".5" points="255.814,-109.3615 245.4843,-107.0059 252.0905,-115.289 255.814,-109.3615"/>
</g>
<!-- &#45;6&#45;&gt;1426 -->
<g id="edge33" class="edge">
<title>&#45;6&#45;&gt;1426</title>
<path fill="none" stroke="#00ff00" stroke-width=".3443" d="M618.7677,-154.2787C615.9413,-153.1024 612.9088,-151.9876 610,-151.196 487.6582,-117.9012 444.5099,-162.8139 327,-115.196 325.1084,-114.4294 323.229,-113.5269 321.3825,-112.528"/>
<polygon fill="#00ff00" stroke="#00ff00" stroke-width=".3443" points="322.8412,-109.309 312.5202,-106.9158 319.0961,-115.2229 322.8412,-109.309"/>
</g>
<!-- &#45;6&#45;&gt;1427 -->
<g id="edge34" class="edge">
<title>&#45;6&#45;&gt;1427</title>
<path fill="none" stroke="#00ff00" stroke-width=".147" d="M618.7443,-154.3618C615.9191,-153.1812 612.893,-152.0436 610,-151.196 516.6023,-123.8306 483.4772,-153.482 394,-115.196 392.173,-114.4142 390.3543,-113.5111 388.5636,-112.5222"/>
<polygon fill="#00ff00" stroke="#00ff00" stroke-width=".147" points="390.2493,-109.4463 379.9344,-107.0266 386.489,-115.3506 390.2493,-109.4463"/>
</g>
<!-- &#45;6&#45;&gt;1428 -->
<g id="edge35" class="edge">
<title>&#45;6&#45;&gt;1428</title>
<path fill="none" stroke="#00ff00" stroke-width=".3502" d="M618.6963,-154.5152C615.8736,-153.3266 612.8606,-152.147 610,-151.196 545.3518,-129.7019 522.6307,-144.231 461,-115.196 459.2022,-114.349 457.4065,-113.3949 455.6334,-112.3667"/>
<polygon fill="#00ff00" stroke="#00ff00" stroke-width=".3502" points="457.3393,-109.3006 447.0528,-106.7631 453.5118,-115.1615 457.3393,-109.3006"/>
</g>
<!-- &#45;6&#45;&gt;1429 -->
<g id="edge36" class="edge">
<title>&#45;6&#45;&gt;1429</title>
<path fill="none" stroke="#ff0000" stroke-width=".4125" d="M618.9309,-154.0062C598.2826,-143.4166 555.5585,-121.5052 526.0951,-106.3946"/>
<polygon fill="#ff0000" stroke="#ff0000" stroke-width=".4125" points="527.535,-103.1997 517.0397,-101.7505 524.3406,-109.4283 527.535,-103.1997"/>
</g>
<!-- &#45;7 -->
<g id="node7" class="node">
<title>&#45;7</title>
<polygon fill="#d3d3d3" stroke="#000000" points="24,-169.196 0,-169.196 0,-151.196 24,-151.196 24,-169.196"/>
<text text-anchor="middle" x="12" y="-157.996" font-family="Times,serif" font-size="9.00" fill="#000000">&#45;7</text>
</g>
<!-- &#45;7&#45;&gt;1424 -->
<g id="edge37" class="edge">
<title>&#45;7&#45;&gt;1424</title>
<path fill="none" stroke="#00ff00" stroke-width=".2911" d="M24.1115,-154.4881C46.6689,-143.8574 95.7782,-120.7134 128.363,-105.357"/>
<polygon fill="#00ff00" stroke="#00ff00" stroke-width=".2911" points="129.9343,-108.4857 137.488,-101.0566 126.9501,-102.1536 129.9343,-108.4857"/>
</g>
<!-- &#45;7&#45;&gt;1425 -->
<g id="edge38" class="edge">
<title>&#45;7&#45;&gt;1425</title>
<path fill="none" stroke="#ff0000" stroke-width=".104" d="M24.2918,-154.4789C27.1152,-153.2922 30.1314,-152.1226 33,-151.196 102.7728,-128.6581 127.4053,-145.8773 194,-115.196 195.8049,-114.3644 197.6063,-113.4223 199.3837,-112.4034"/>
<polygon fill="#ff0000" stroke="#ff0000" stroke-width=".104" points="201.4944,-115.2061 207.9762,-106.8253 197.6828,-109.3348 201.4944,-115.2061"/>
</g>
<!-- &#45;7&#45;&gt;1426 -->
<g id="edge39" class="edge">
<title>&#45;7&#45;&gt;1426</title>
<path fill="none" stroke="#00ff00" stroke-width=".3418" d="M24.2504,-154.3434C27.0759,-153.1638 30.1034,-152.0312 33,-151.196 131.5722,-122.7714 166.5111,-155.1496 261,-115.196 262.8304,-114.422 264.6517,-113.525 266.4444,-112.5408"/>
<polygon fill="#00ff00" stroke="#00ff00" stroke-width=".3418" points="268.5131,-115.3733 275.079,-107.0582 264.7609,-109.4638 268.5131,-115.3733"/>
</g>
<!-- &#45;7&#45;&gt;1427 -->
<g id="edge40" class="edge">
<title>&#45;7&#45;&gt;1427</title>
<path fill="none" stroke="#ff0000" stroke-width=".399" d="M24.2293,-154.2677C27.0559,-153.092 30.0892,-151.9802 33,-151.196 160.5364,-116.8363 205.4591,-164.4895 328,-115.196 329.8935,-114.4343 331.7744,-113.5354 333.6221,-112.5394"/>
<polygon fill="#ff0000" stroke="#ff0000" stroke-width=".399" points="335.9052,-115.2369 342.4875,-106.9348 332.1646,-109.3201 335.9052,-115.2369"/>
</g>
<!-- &#45;7&#45;&gt;1428 -->
<g id="edge41" class="edge">
<title>&#45;7&#45;&gt;1428</title>
<path fill="none" stroke="#ff0000" stroke-width=".5" d="M24.2166,-154.2195C27.0438,-153.0462 30.0806,-151.9476 33,-151.196 189.5756,-110.8808 244.3351,-173.8586 395,-115.196 396.9019,-114.4554 398.7893,-113.5731 400.6419,-112.5896"/>
<polygon fill="#ff0000" stroke="#ff0000" stroke-width=".5" points="402.9103,-115.2983 409.5206,-107.0186 399.1897,-109.3689 402.9103,-115.2983"/>
</g>
<!-- &#45;7&#45;&gt;1429 -->
<g id="edge42" class="edge">
<title>&#45;7&#45;&gt;1429</title>
<path fill="none" stroke="#ff0000" stroke-width=".4086" d="M24.2081,-154.1861C27.0358,-153.0146 30.0749,-151.9251 33,-151.196 218.6552,-104.9149 283.1722,-183.2429 462,-115.196 463.9075,-114.4701 465.7994,-113.5991 467.6553,-112.6244"/>
<polygon fill="#ff0000" stroke="#ff0000" stroke-width=".4086" points="469.9133,-115.3409 476.5429,-107.0766 466.2066,-109.4028 469.9133,-115.3409"/>
</g>
<!-- &#45;8 -->
<g id="node8" class="node">
<title>&#45;8</title>
<polygon fill="#d3d3d3" stroke="#000000" points="66,-169.196 42,-169.196 42,-151.196 66,-151.196 66,-169.196"/>
<text text-anchor="middle" x="54" y="-157.996" font-family="Times,serif" font-size="9.00" fill="#000000">&#45;8</text>
</g>
<!-- &#45;8&#45;&gt;1424 -->
<g id="edge43" class="edge">
<title>&#45;8&#45;&gt;1424</title>
<path fill="none" stroke="#ff0000" stroke-width=".5" d="M66.1595,-152.1949C81.8364,-141.8794 109.6093,-123.6047 130.887,-109.6038"/>
<polygon fill="#ff0000" stroke="#ff0000" stroke-width=".5" points="132.8333,-112.5129 139.2632,-104.0922 128.9855,-106.6652 132.8333,-112.5129"/>
</g>
<!-- &#45;8&#45;&gt;1425 -->
<g id="edge44" class="edge">
<title>&#45;8&#45;&gt;1425</title>
<path fill="none" stroke="#ff0000" stroke-width=".3899" d="M66.3454,-154.6349C69.166,-153.4401 72.1675,-152.2278 75,-151.196 126.9187,-132.2836 144.701,-140.1528 194,-115.196 195.773,-114.2984 197.5494,-113.3046 199.3076,-112.246"/>
<polygon fill="#ff0000" stroke="#ff0000" stroke-width=".3899" points="201.4644,-115.0148 207.8472,-106.5584 197.584,-109.1888 201.4644,-115.0148"/>
</g>
<!-- &#45;8&#45;&gt;1426 -->
<g id="edge45" class="edge">
<title>&#45;8&#45;&gt;1426</title>
<path fill="none" stroke="#ff0000" stroke-width=".3458" d="M66.2725,-154.4175C69.0968,-153.234 72.1183,-152.0812 75,-151.196 155.4888,-126.4708 184.0258,-149.3244 261,-115.196 262.8167,-114.3905 264.6273,-113.4688 266.4118,-112.4656"/>
<polygon fill="#ff0000" stroke="#ff0000" stroke-width=".3458" points="268.5037,-115.2817 275.0238,-106.9307 264.7191,-109.393 268.5037,-115.2817"/>
</g>
<!-- &#45;8&#45;&gt;1427 -->
<g id="edge46" class="edge">
<title>&#45;8&#45;&gt;1427</title>
<path fill="none" stroke="#00ff00" stroke-width=".2179" d="M66.2411,-154.3106C69.0671,-153.1326 72.0972,-152.0091 75,-151.196 184.3673,-120.5603 223.0559,-158.6297 328,-115.196 329.8858,-114.4155 331.7608,-113.502 333.6039,-112.4949"/>
<polygon fill="#00ff00" stroke="#00ff00" stroke-width=".2179" points="335.8999,-115.1824 342.4571,-106.8604 332.1415,-109.2769 335.8999,-115.1824"/>
</g>
<!-- &#45;8&#45;&gt;1428 -->
<g id="edge47" class="edge">
<title>&#45;8&#45;&gt;1428</title>
<path fill="none" stroke="#ff0000" stroke-width=".143" d="M66.2239,-154.2474C69.0507,-153.0727 72.0856,-151.9665 75,-151.196 213.3656,-114.6157 261.9711,-167.9831 395,-115.196 396.8971,-114.4432 398.7808,-113.5513 400.6305,-112.5606"/>
<polygon fill="#ff0000" stroke="#ff0000" stroke-width=".143" points="402.9074,-115.2627 409.5016,-106.9701 399.1753,-109.3406 402.9074,-115.2627"/>
</g>
<!-- &#45;8&#45;&gt;1429 -->
<g id="edge48" class="edge">
<title>&#45;8&#45;&gt;1429</title>
<path fill="none" stroke="#00ff00" stroke-width=".5" d="M66.2131,-154.2057C69.0405,-153.0331 72.0783,-151.9383 75,-151.196 242.4226,-108.6556 300.83,-177.3589 462,-115.196 463.9042,-114.4615 465.7935,-113.5838 467.6475,-112.604"/>
<polygon fill="#00ff00" stroke="#00ff00" stroke-width=".5" points="469.9116,-115.3159 476.5299,-107.0425 466.1968,-109.3829 469.9116,-115.3159"/>
</g>
<!-- &#45;9 -->
<g id="node9" class="node">
<title>&#45;9</title>
<polygon fill="#d3d3d3" stroke="#000000" points="108,-169.196 84,-169.196 84,-151.196 108,-151.196 108,-169.196"/>
<text text-anchor="middle" x="96" y="-157.996" font-family="Times,serif" font-size="9.00" fill="#000000">&#45;9</text>
</g>
<!-- &#45;9&#45;&gt;1424 -->
<g id="edge49" class="edge">
<title>&#45;9&#45;&gt;1424</title>
<path fill="none" stroke="#00ff00" stroke-width=".1324" d="M104.3669,-151.0775C112.4273,-142.2931 125.0076,-128.5828 136.1676,-116.4204"/>
<polygon fill="#00ff00" stroke="#00ff00" stroke-width=".1324" points="139.0523,-118.4533 143.2344,-108.7188 133.8946,-113.7207 139.0523,-118.4533"/>
</g>
<!-- &#45;9&#45;&gt;1425 -->
<g id="edge50" class="edge">
<title>&#45;9&#45;&gt;1425</title>
<path fill="none" stroke="#00ff00" stroke-width=".2186" d="M108.0636,-155.0405C130.6586,-145.3215 178.4761,-124.4377 194,-115.196 195.7076,-114.1794 197.4327,-113.0924 199.1516,-111.9622"/>
<polygon fill="#00ff00" stroke="#00ff00" stroke-width=".2186" points="201.3859,-114.671 207.5826,-106.0773 197.3793,-108.931 201.3859,-114.671"/>
</g>
<!-- &#45;9&#45;&gt;1426 -->
<g id="edge51" class="edge">
<title>&#45;9&#45;&gt;1426</title>
<path fill="none" stroke="#00ff00" stroke-width=".337" d="M108.3093,-154.532C111.1318,-153.3425 114.1432,-152.1584 117,-151.196 179.5176,-130.1353 201.4331,-143.5471 261,-115.196 262.7944,-114.3419 264.5875,-113.3822 266.3586,-112.3498"/>
<polygon fill="#00ff00" stroke="#00ff00" stroke-width=".337" points="268.4852,-115.1409 274.9336,-106.7344 264.6503,-109.2848 268.4852,-115.1409"/>
</g>
<!-- &#45;9&#45;&gt;1427 -->
<g id="edge52" class="edge">
<title>&#45;9&#45;&gt;1427</title>
<path fill="none" stroke="#00ff00" stroke-width=".2387" d="M108.2582,-154.37C111.0832,-153.189 114.1087,-152.0491 117,-151.196 208.2433,-124.2715 240.6094,-152.7879 328,-115.196 329.8255,-114.4107 331.6431,-113.5049 333.4329,-112.5138"/>
<polygon fill="#00ff00" stroke="#00ff00" stroke-width=".2387" points="335.51,-115.3404 342.0595,-107.0125 331.7461,-109.4384 335.51,-115.3404"/>
</g>
<!-- &#45;9&#45;&gt;1428 -->
<g id="edge53" class="edge">
<title>&#45;9&#45;&gt;1428</title>
<path fill="none" stroke="#ff0000" stroke-width=".2241" d="M108.2336,-154.2836C111.0599,-153.107 114.0921,-151.9908 117,-151.196 237.1781,-118.3447 279.5856,-162.1161 395,-115.196 396.8907,-114.4273 398.7694,-113.5231 400.6154,-112.523"/>
<polygon fill="#ff0000" stroke="#ff0000" stroke-width=".2241" points="402.9033,-115.2167 409.4764,-106.9074 399.1562,-109.3041 402.9033,-115.2167"/>
</g>
<!-- &#45;9&#45;&gt;1429 -->
<g id="edge54" class="edge">
<title>&#45;9&#45;&gt;1429</title>
<path fill="none" stroke="#00ff00" stroke-width=".2211" d="M108.2193,-154.23C111.0464,-153.0562 114.0825,-151.9547 117,-151.196 266.2027,-112.3931 318.4756,-171.4796 462,-115.196 463.9001,-114.4508 465.7861,-113.5649 467.6377,-112.5787"/>
<polygon fill="#00ff00" stroke="#00ff00" stroke-width=".2211" points="469.9092,-115.2849 476.5135,-107.0003 466.1843,-109.3582 469.9092,-115.2849"/>
</g>
<!-- &#45;10 -->
<g id="node10" class="node">
<title>&#45;10</title>
<polygon fill="#d3d3d3" stroke="#000000" points="155.5,-169.196 126.5,-169.196 126.5,-151.196 155.5,-151.196 155.5,-169.196"/>
<text text-anchor="middle" x="141" y="-157.996" font-family="Times,serif" font-size="9.00" fill="#000000">&#45;10</text>
</g>
<!-- &#45;10&#45;&gt;1424 -->
<g id="edge55" class="edge">
<title>&#45;10&#45;&gt;1424</title>
<path fill="none" stroke="#ff0000" stroke-width=".5" d="M143.4839,-151.0775C145.37,-144.1539 148.0896,-134.1701 150.7794,-124.296"/>
<polygon fill="#ff0000" stroke="#ff0000" stroke-width=".5" points="154.1758,-125.1443 153.4272,-114.5759 147.4219,-123.3044 154.1758,-125.1443"/>
</g>
<!-- &#45;10&#45;&gt;1425 -->
<g id="edge56" class="edge">
<title>&#45;10&#45;&gt;1425</title>
<path fill="none" stroke="#ff0000" stroke-width=".1207" d="M152.243,-151.0775C164.1846,-141.3925 183.5093,-125.7196 199.519,-112.7352"/>
<polygon fill="#ff0000" stroke="#ff0000" stroke-width=".1207" points="201.9702,-115.2536 207.5323,-106.2362 197.5609,-109.8169 201.9702,-115.2536"/>
</g>
<!-- &#45;10&#45;&gt;1426 -->
<g id="edge57" class="edge">
<title>&#45;10&#45;&gt;1426</title>
<path fill="none" stroke="#ff0000" stroke-width=".425" d="M155.5856,-154.4439C158.3755,-153.3563 161.2755,-152.2345 164,-151.196 206.9686,-134.817 220.6322,-137.2189 261,-115.196 262.7445,-114.2442 264.4986,-113.208 266.2397,-112.1168"/>
<polygon fill="#ff0000" stroke="#ff0000" stroke-width=".425" points="268.4327,-114.8581 274.732,-106.3393 264.4952,-109.0705 268.4327,-114.8581"/>
</g>
<!-- &#45;10&#45;&gt;1427 -->
<g id="edge58" class="edge">
<title>&#45;10&#45;&gt;1427</title>
<path fill="none" stroke="#00ff00" stroke-width=".3609" d="M155.9748,-153.9465C158.6234,-152.9534 161.3739,-151.9926 164,-151.196 235.4108,-129.5328 260.1622,-146.2898 328,-115.196 329.8065,-114.3679 331.6092,-113.4286 333.3876,-112.4118"/>
<polygon fill="#00ff00" stroke="#00ff00" stroke-width=".3609" points="335.4957,-115.2163 341.9827,-106.8395 331.6878,-109.3427 335.4957,-115.2163"/>
</g>
<!-- &#45;10&#45;&gt;1428 -->
<g id="edge59" class="edge">
<title>&#45;10&#45;&gt;1428</title>
<path fill="none" stroke="#ff0000" stroke-width=".3526" d="M155.9355,-153.8097C158.5885,-152.8318 161.3507,-151.9115 164,-151.196 264.3116,-124.103 299.2574,-155.5668 395,-115.196 396.8311,-114.4238 398.653,-113.5283 400.4462,-112.5452"/>
<polygon fill="#ff0000" stroke="#ff0000" stroke-width=".3526" points="402.5136,-115.3786 409.0822,-107.0657 398.7633,-109.468 402.5136,-115.3786"/>
</g>
<!-- &#45;10&#45;&gt;1429 -->
<g id="edge60" class="edge">
<title>&#45;10&#45;&gt;1429</title>
<path fill="none" stroke="#ff0000" stroke-width=".2487" d="M155.9154,-153.7327C158.5707,-152.7633 161.3388,-151.8659 164,-151.196 293.3714,-118.6294 338.201,-164.9086 462,-115.196 463.894,-114.4354 465.7753,-113.5375 467.6232,-112.5422"/>
<polygon fill="#ff0000" stroke="#ff0000" stroke-width=".2487" points="469.9055,-115.2402 476.4893,-106.9394 466.166,-109.3227 469.9055,-115.2402"/>
</g>
<!-- &#45;11 -->
<g id="node11" class="node">
<title>&#45;11</title>
<polygon fill="#d3d3d3" stroke="#000000" points="202.5,-169.196 173.5,-169.196 173.5,-151.196 202.5,-151.196 202.5,-169.196"/>
<text text-anchor="middle" x="188" y="-157.996" font-family="Times,serif" font-size="9.00" fill="#000000">&#45;11</text>
</g>
<!-- &#45;11&#45;&gt;1424 -->
<g id="edge61" class="edge">
<title>&#45;11&#45;&gt;1424</title>
<path fill="none" stroke="#ff0000" stroke-width=".4311" d="M184.3395,-151.0775C181.434,-143.84 177.1862,-133.2586 173.0496,-122.9541"/>
<polygon fill="#ff0000" stroke="#ff0000" stroke-width=".4311" points="176.2971,-121.6488 169.3236,-113.6725 169.801,-124.2566 176.2971,-121.6488"/>
</g>
<!-- &#45;11&#45;&gt;1425 -->
<g id="edge62" class="edge">
<title>&#45;11&#45;&gt;1425</title>
<path fill="none" stroke="#ff0000" stroke-width=".2961" d="M193.0986,-151.0775C197.3893,-143.4038 203.782,-131.971 209.8634,-121.0948"/>
<polygon fill="#ff0000" stroke="#ff0000" stroke-width=".2961" points="213.02,-122.6209 214.8456,-112.1845 206.9103,-119.2046 213.02,-122.6209"/>
</g>
<!-- &#45;11&#45;&gt;1426 -->
<g id="edge63" class="edge">
<title>&#45;11&#45;&gt;1426</title>
<path fill="none" stroke="#ff0000" stroke-width=".3075" d="M202.513,-151.7791C217.4234,-143.0094 241.1891,-128.6897 261,-115.196 262.6425,-114.0772 264.3166,-112.9102 265.9963,-111.7186"/>
<polygon fill="#ff0000" stroke="#ff0000" stroke-width=".3075" points="268.2914,-114.3771 274.3193,-105.6642 264.1736,-108.7164 268.2914,-114.3771"/>
</g>
<!-- &#45;11&#45;&gt;1427 -->
<g id="edge64" class="edge">
<title>&#45;11&#45;&gt;1427</title>
<path fill="none" stroke="#00ff00" stroke-width=".2825" d="M202.5396,-154.3179C205.3338,-153.2419 208.247,-152.1566 211,-151.196 262.3682,-133.2708 279.5178,-139.8835 328,-115.196 329.7709,-114.2942 331.5456,-113.2971 333.3025,-112.236"/>
<polygon fill="#00ff00" stroke="#00ff00" stroke-width=".2825" points="335.4622,-115.0027 341.8386,-106.5415 331.5774,-109.1796 335.4622,-115.0027"/>
</g>
<!-- &#45;11&#45;&gt;1428 -->
<g id="edge65" class="edge">
<title>&#45;11&#45;&gt;1428</title>
<path fill="none" stroke="#00ff00" stroke-width=".2904" d="M202.9597,-153.8958C205.61,-152.9083 208.365,-151.9625 211,-151.196 291.0113,-127.9196 318.8577,-149.0479 395,-115.196 396.8159,-114.3886 398.6259,-113.4655 400.4099,-112.4612"/>
<polygon fill="#00ff00" stroke="#00ff00" stroke-width=".2904" points="402.5031,-115.2764 409.0205,-106.9233 398.7166,-109.3889 402.5031,-115.2764"/>
</g>
<!-- &#45;11&#45;&gt;1429 -->
<g id="edge66" class="edge">
<title>&#45;11&#45;&gt;1429</title>
<path fill="none" stroke="#00ff00" stroke-width=".4429" d="M202.9283,-153.7825C205.5821,-152.8076 208.3464,-151.8954 211,-151.196 319.9751,-122.472 357.8929,-158.351 462,-115.196 463.8854,-114.4144 465.76,-113.5001 467.6029,-112.4924"/>
<polygon fill="#00ff00" stroke="#00ff00" stroke-width=".4429" points="469.8996,-115.1793 476.4554,-106.8563 466.1402,-109.2745 469.8996,-115.1793"/>
</g>
<!-- &#45;12 -->
<g id="node12" class="node">
<title>&#45;12</title>
<polygon fill="#d3d3d3" stroke="#000000" points="249.5,-169.196 220.5,-169.196 220.5,-151.196 249.5,-151.196 249.5,-169.196"/>
<text text-anchor="middle" x="235" y="-157.996" font-family="Times,serif" font-size="9.00" fill="#000000">&#45;12</text>
</g>
<!-- &#45;12&#45;&gt;1424 -->
<g id="edge67" class="edge">
<title>&#45;12&#45;&gt;1424</title>
<path fill="none" stroke="#00ff00" stroke-width=".3539" d="M225.1951,-151.0775C215.2375,-141.8171 199.3934,-127.0825 185.8184,-114.4579"/>
<polygon fill="#00ff00" stroke="#00ff00" stroke-width=".3539" points="187.8558,-111.573 178.1494,-107.3259 183.0887,-116.699 187.8558,-111.573"/>
</g>
<!-- &#45;12&#45;&gt;1425 -->
<g id="edge68" class="edge">
<title>&#45;12&#45;&gt;1425</title>
<path fill="none" stroke="#ff0000" stroke-width=".2954" d="M233.9541,-151.0775C233.189,-144.4066 232.098,-134.8948 231.0064,-125.3775"/>
<polygon fill="#ff0000" stroke="#ff0000" stroke-width=".2954" points="234.4538,-124.7182 229.837,-115.1822 227.4994,-125.5159 234.4538,-124.7182"/>
</g>
<!-- &#45;12&#45;&gt;1426 -->
<g id="edge69" class="edge">
<title>&#45;12&#45;&gt;1426</title>
<path fill="none" stroke="#ff0000" stroke-width=".2242" d="M242.7132,-151.0775C249.9208,-142.5568 261.0489,-129.4014 271.0997,-117.5196"/>
<polygon fill="#ff0000" stroke="#ff0000" stroke-width=".2242" points="274.0383,-119.4651 277.8244,-109.5698 268.6938,-114.9442 274.0383,-119.4651"/>
</g>
<!-- &#45;12&#45;&gt;1427 -->
<g id="edge70" class="edge">
<title>&#45;12&#45;&gt;1427</title>
<path fill="none" stroke="#ff0000" stroke-width=".5" d="M249.6314,-154.1627C268.3441,-146.2134 301.4984,-131.3375 328,-115.196 329.6972,-114.1622 331.4143,-113.0618 333.1269,-111.9212"/>
<polygon fill="#ff0000" stroke="#ff0000" stroke-width=".5" points="335.3718,-114.6214 341.5407,-106.0078 331.3467,-108.8944 335.3718,-114.6214"/>
</g>
<!-- &#45;12&#45;&gt;1428 -->
<g id="edge71" class="edge">
<title>&#45;12&#45;&gt;1428</title>
<path fill="none" stroke="#00ff00" stroke-width=".3423" d="M249.5083,-154.2251C252.3054,-153.1577 255.2277,-152.0992 258,-151.196 317.8588,-131.6926 338.3175,-142.5921 395,-115.196 396.7892,-114.3312 398.5783,-113.3631 400.3463,-112.3242"/>
<polygon fill="#00ff00" stroke="#00ff00" stroke-width=".3423" points="402.4805,-115.1098 408.9128,-106.691 398.6344,-109.261 402.4805,-115.1098"/>
</g>
<!-- &#45;12&#45;&gt;1429 -->
<g id="edge72" class="edge">
<title>&#45;12&#45;&gt;1429</title>
<path fill="none" stroke="#00ff00" stroke-width=".3241" d="M249.9479,-153.8545C252.5995,-152.8716 255.358,-151.9381 258,-151.196 346.6374,-126.299 377.5289,-151.8168 462,-115.196 463.8233,-114.4055 465.6391,-113.4956 467.4275,-112.5015"/>
<polygon fill="#00ff00" stroke="#00ff00" stroke-width=".3241" points="469.5085,-115.3253 476.0505,-106.9915 465.7393,-109.4267 469.5085,-115.3253"/>
</g>
<!-- &#45;13 -->
<g id="node13" class="node">
<title>&#45;13</title>
<polygon fill="#d3d3d3" stroke="#000000" points="296.5,-169.196 267.5,-169.196 267.5,-151.196 296.5,-151.196 296.5,-169.196"/>
<text text-anchor="middle" x="282" y="-157.996" font-family="Times,serif" font-size="9.00" fill="#000000">&#45;13</text>
</g>
<!-- &#45;13&#45;&gt;1424 -->
<g id="edge73" class="edge">
<title>&#45;13&#45;&gt;1424</title>
<path fill="none" stroke="#00ff00" stroke-width=".4437" d="M267.3985,-153.7739C249.4118,-145.6479 218.1506,-130.8175 193,-115.196 191.3119,-114.1474 189.602,-113.0354 187.8948,-111.886"/>
<polygon fill="#00ff00" stroke="#00ff00" stroke-width=".4437" points="189.682,-108.8631 179.496,-105.948 185.6409,-114.5789 189.682,-108.8631"/>
</g>
<!-- &#45;13&#45;&gt;1425 -->
<g id="edge74" class="edge">
<title>&#45;13&#45;&gt;1425</title>
<path fill="none" stroke="#00ff00" stroke-width=".3303" d="M274.8097,-151.0775C268.1854,-142.6768 258.0086,-129.7711 248.7442,-118.0224"/>
<polygon fill="#00ff00" stroke="#00ff00" stroke-width=".3303" points="251.4714,-115.8283 242.5311,-110.1431 245.9747,-120.1627 251.4714,-115.8283"/>
</g>
<!-- &#45;13&#45;&gt;1426 -->
<g id="edge75" class="edge">
<title>&#45;13&#45;&gt;1426</title>
<path fill="none" stroke="#00ff00" stroke-width=".5" d="M283.5688,-151.0775C284.7381,-144.2808 286.4148,-134.5351 288.083,-124.8392"/>
<polygon fill="#00ff00" stroke="#00ff00" stroke-width=".5" points="291.5504,-125.3274 289.7967,-114.8787 284.6517,-124.1404 291.5504,-125.3274"/>
</g>
<!-- &#45;13&#45;&gt;1427 -->
<g id="edge76" class="edge">
<title>&#45;13&#45;&gt;1427</title>
<path fill="none" stroke="#ff0000" stroke-width=".3823" d="M292.3279,-151.0775C302.9851,-141.6683 320.0437,-126.6073 334.4923,-113.8507"/>
<polygon fill="#ff0000" stroke="#ff0000" stroke-width=".3823" points="337.0137,-116.2936 342.1936,-107.0513 332.3807,-111.0461 337.0137,-116.2936"/>
</g>
<!-- &#45;13&#45;&gt;1428 -->
<g id="edge77" class="edge">
<title>&#45;13&#45;&gt;1428</title>
<path fill="none" stroke="#00ff00" stroke-width=".5" d="M296.6609,-154.6064C325.157,-143.7058 386.0219,-120.2324 395,-115.196 396.7332,-114.2237 398.4784,-113.1714 400.2126,-112.0679"/>
<polygon fill="#00ff00" stroke="#00ff00" stroke-width=".5" points="402.4189,-114.7988 408.6861,-106.2564 398.4597,-109.026 402.4189,-114.7988"/>
</g>
<!-- &#45;13&#45;&gt;1429 -->
<g id="edge78" class="edge">
<title>&#45;13&#45;&gt;1429</title>
<path fill="none" stroke="#00ff00" stroke-width=".5" stroke-dasharray="1,5" d="M296.6183,-154.3644C299.6918,-153.2372 302.9323,-152.1207 306,-151.196 374.1274,-130.6591 397.4753,-145.1905 462,-115.196 463.8021,-114.3583 465.6012,-113.4114 467.3769,-112.3888"/>
<polygon fill="#00ff00" stroke="#00ff00" stroke-width=".5" points="469.492,-115.1883 475.9647,-106.8005 465.674,-109.3211 469.492,-115.1883"/>
</g>
<!-- &#45;14 -->
<g id="node14" class="node">
<title>&#45;14</title>
<polygon fill="#d3d3d3" stroke="#000000" points="343.5,-169.196 314.5,-169.196 314.5,-151.196 343.5,-151.196 343.5,-169.196"/>
<text text-anchor="middle" x="329" y="-157.996" font-family="Times,serif" font-size="9.00" fill="#000000">&#45;14</text>
</g>
<!-- &#45;14&#45;&gt;1424 -->
<g id="edge79" class="edge">
<title>&#45;14&#45;&gt;1424</title>
<path fill="none" stroke="#00ff00" stroke-width=".2411" d="M314.3172,-154.5632C311.2483,-153.4216 308.026,-152.249 305,-151.196 255.6186,-134.0116 239.444,-139.2123 193,-115.196 191.2348,-114.2832 189.4645,-113.2774 187.711,-112.2097"/>
<polygon fill="#00ff00" stroke="#00ff00" stroke-width=".2411" points="189.4402,-109.1553 179.1843,-106.4968 185.5439,-114.9707 189.4402,-109.1553"/>
</g>
<!-- &#45;14&#45;&gt;1425 -->
<g id="edge80" class="edge">
<title>&#45;14&#45;&gt;1425</title>
<path fill="none" stroke="#ff0000" stroke-width=".3968" d="M314.5455,-151.1579C300.457,-142.258 278.5123,-128.1535 260,-115.196 258.3719,-114.0564 256.7091,-112.8731 255.0381,-111.6689"/>
<polygon fill="#ff0000" stroke="#ff0000" stroke-width=".3968" points="256.872,-108.6735 246.7389,-105.5799 252.7312,-114.3174 256.872,-108.6735"/>
</g>
<!-- &#45;14&#45;&gt;1426 -->
<g id="edge81" class="edge">
<title>&#45;14&#45;&gt;1426</title>
<path fill="none" stroke="#00ff00" stroke-width=".2872" d="M324.4244,-151.0775C320.6695,-143.5948 315.1211,-132.5378 309.787,-121.9078"/>
<polygon fill="#00ff00" stroke="#00ff00" stroke-width=".2872" points="312.8184,-120.145 305.2051,-112.7769 306.5619,-123.2845 312.8184,-120.145"/>
</g>
<!-- &#45;14&#45;&gt;1427 -->
<g id="edge82" class="edge">
<title>&#45;14&#45;&gt;1427</title>
<path fill="none" stroke="#ff0000" stroke-width=".3407" d="M333.1834,-151.0775C336.5558,-143.7269 341.5107,-132.9271 346.3077,-122.4713"/>
<polygon fill="#ff0000" stroke="#ff0000" stroke-width=".3407" points="349.63,-123.6232 350.6188,-113.0746 343.2676,-120.7041 349.63,-123.6232"/>
</g>
<!-- &#45;14&#45;&gt;1428 -->
<g id="edge83" class="edge">
<title>&#45;14&#45;&gt;1428</title>
<path fill="none" stroke="#00ff00" stroke-width=".2607" d="M342.7759,-151.066C356.2147,-142.0979 377.1785,-127.9444 395,-115.196 396.6163,-114.0398 398.2699,-112.8434 399.9339,-111.6292"/>
<polygon fill="#00ff00" stroke="#00ff00" stroke-width=".2607" points="402.2499,-114.2697 408.2135,-105.5126 398.0906,-108.6395 402.2499,-114.2697"/>
</g>
<!-- &#45;14&#45;&gt;1429 -->
<g id="edge84" class="edge">
<title>&#45;14&#45;&gt;1429</title>
<path fill="none" stroke="#ff0000" stroke-width=".3579" d="M343.6894,-154.582C346.7578,-153.439 349.9782,-152.2611 353,-151.196 401.1167,-134.2357 416.7762,-138.8111 462,-115.196 463.7616,-114.2761 465.529,-113.2649 467.2803,-112.1929"/>
<polygon fill="#ff0000" stroke="#ff0000" stroke-width=".3579" points="469.4521,-114.9503 475.8008,-106.4683 465.5484,-109.1399 469.4521,-114.9503"/>
</g>
<!-- &#45;15 -->
<g id="node15" class="node">
<title>&#45;15</title>
<polygon fill="#d3d3d3" stroke="#000000" points="390.5,-169.196 361.5,-169.196 361.5,-151.196 390.5,-151.196 390.5,-169.196"/>
<text text-anchor="middle" x="376" y="-157.996" font-family="Times,serif" font-size="9.00" fill="#000000">&#45;15</text>
</g>
<!-- &#45;15&#45;&gt;1424 -->
<g id="edge85" class="edge">
<title>&#45;15&#45;&gt;1424</title>
<path fill="none" stroke="#00ff00" stroke-width=".5" d="M361.0217,-153.9581C358.3735,-152.9637 355.624,-151.9995 353,-151.196 283.3055,-129.8543 259.1805,-145.7398 193,-115.196 191.1956,-114.3632 189.3947,-113.4202 187.6176,-112.4006"/>
<polygon fill="#00ff00" stroke="#00ff00" stroke-width=".5" points="189.3189,-109.3321 179.0261,-106.8205 185.5061,-115.2026 189.3189,-109.3321"/>
</g>
<!-- &#45;15&#45;&gt;1425 -->
<g id="edge86" class="edge">
<title>&#45;15&#45;&gt;1425</title>
<path fill="none" stroke="#00ff00" stroke-width=".1694" d="M361.4025,-154.4747C358.6137,-153.3842 355.7172,-152.2535 353,-151.196 311.696,-135.1205 298.7594,-136.6938 260,-115.196 258.2621,-114.2321 256.5133,-113.1863 254.7763,-112.0878"/>
<polygon fill="#00ff00" stroke="#00ff00" stroke-width=".1694" points="256.5257,-109.0441 246.295,-106.2902 252.5753,-114.823 256.5257,-109.0441"/>
</g>
<!-- &#45;15&#45;&gt;1426 -->
<g id="edge87" class="edge">
<title>&#45;15&#45;&gt;1426</title>
<path fill="none" stroke="#00ff00" stroke-width=".3494" d="M365.2799,-151.0775C353.9676,-141.4554 335.7069,-125.9229 320.5006,-112.9884"/>
<polygon fill="#00ff00" stroke="#00ff00" stroke-width=".3494" points="322.7649,-110.3196 312.88,-106.5064 318.2295,-115.6516 322.7649,-110.3196"/>
</g>
<!-- &#45;15&#45;&gt;1427 -->
<g id="edge88" class="edge">
<title>&#45;15&#45;&gt;1427</title>
<path fill="none" stroke="#ff0000" stroke-width=".2569" d="M374.039,-151.0775C372.5773,-144.2808 370.4814,-134.5351 368.3963,-124.8392"/>
<polygon fill="#ff0000" stroke="#ff0000" stroke-width=".2569" points="371.7785,-123.9193 366.2542,-114.8787 364.935,-125.3911 371.7785,-123.9193"/>
</g>
<!-- &#45;15&#45;&gt;1428 -->
<g id="edge89" class="edge">
<title>&#45;15&#45;&gt;1428</title>
<path fill="none" stroke="#ff0000" stroke-width=".5" d="M382.7981,-151.0775C388.9566,-142.817 398.3625,-130.2006 407.0026,-118.6116"/>
<polygon fill="#ff0000" stroke="#ff0000" stroke-width=".5" points="409.93,-120.5407 413.1011,-110.4315 404.318,-116.3567 409.93,-120.5407"/>
</g>
<!-- &#45;15&#45;&gt;1429 -->
<g id="edge90" class="edge">
<title>&#45;15&#45;&gt;1429</title>
<path fill="none" stroke="#ff0000" stroke-width=".4362" d="M390.701,-153.4013C408.1496,-145.1345 437.9138,-130.3902 462,-115.196 463.6808,-114.1357 465.3849,-113.0145 467.0876,-111.858"/>
<polygon fill="#ff0000" stroke="#ff0000" stroke-width=".4362" points="469.3487,-114.5451 475.4742,-105.9005 465.2948,-108.8383 469.3487,-114.5451"/>
</g>
<!-- 0 -->
<g id="node16" class="node">
<title>0</title>
<ellipse fill="#add8e6" stroke="#000000" cx="303" cy="-14.8492" rx="14.7" ry="14.7"/>
<text text-anchor="middle" x="303" y="-12.6492" font-family="Times,serif" font-size="9.00" fill="#000000">0</text>
</g>
<!-- 1 -->
<g id="node17" class="node">
<title>1</title>
<ellipse fill="#add8e6" stroke="#000000" cx="356" cy="-14.8492" rx="14.7" ry="14.7"/>
<text text-anchor="middle" x="356" y="-12.6492" font-family="Times,serif" font-size="9.00" fill="#000000">1</text>
</g>
<!-- 1424&#45;&gt;0 -->
<g id="edge91" class="edge">
<title>1424&#45;&gt;0</title>
<path fill="none" stroke="#00ff00" stroke-width=".1049" d="M179.4226,-74.8259C183.7729,-71.6291 188.4499,-68.4151 193,-65.6985 221.5105,-48.6765 256.6768,-33.3158 279.4554,-24.0378"/>
<polygon fill="#00ff00" stroke="#00ff00" stroke-width=".1049" points="281.0017,-27.1888 288.9812,-20.2189 278.3969,-20.6915 281.0017,-27.1888"/>
</g>
<!-- 1424&#45;&gt;1 -->
<g id="edge92" class="edge">
<title>1424&#45;&gt;1</title>
<path fill="none" stroke="#ff0000" stroke-width=".2731" d="M179.0969,-74.2234C183.4675,-71.064 188.235,-68.0177 193,-65.6985 248.4483,-38.7106 269.458,-51.8745 327,-29.6985 329.2712,-28.8232 331.5982,-27.8226 333.8981,-26.7636"/>
<polygon fill="#ff0000" stroke="#ff0000" stroke-width=".2731" points="335.5859,-29.8334 342.9873,-22.2525 332.4739,-23.5631 335.5859,-29.8334"/>
</g>
<!-- 1425&#45;&gt;0 -->
<g id="edge93" class="edge">
<title>1425&#45;&gt;0</title>
<path fill="none" stroke="#ff0000" stroke-width=".4689" d="M244.627,-72.9135C256.7131,-60.8913 272.703,-44.9859 284.8912,-32.8623"/>
<polygon fill="#ff0000" stroke="#ff0000" stroke-width=".4689" points="287.6507,-35.054 292.2722,-25.5202 282.7141,-30.0911 287.6507,-35.054"/>
</g>
<!-- 1425&#45;&gt;1 -->
<g id="edge94" class="edge">
<title>1425&#45;&gt;1</title>
<path fill="none" stroke="#00ff00" stroke-width=".5" d="M246.5366,-75.011C250.8798,-71.8027 255.525,-68.5372 260,-65.6985 266.8439,-61.3571 307.778,-39.9207 333.9372,-26.3035"/>
<polygon fill="#00ff00" stroke="#00ff00" stroke-width=".5" points="335.5585,-29.4054 342.8158,-21.6865 332.3289,-23.1949 335.5585,-29.4054"/>
</g>
<!-- 1426&#45;&gt;0 -->
<g id="edge95" class="edge">
<title>1426&#45;&gt;0</title>
<path fill="none" stroke="#ff0000" stroke-width=".4086" stroke-dasharray="1,5" d="M296.9469,-65.6936C297.9307,-57.4298 299.0274,-48.2178 300.0142,-39.9294"/>
<polygon fill="#ff0000" stroke="#ff0000" stroke-width=".4086" points="303.5225,-40.0666 301.2293,-29.7229 296.5716,-39.239 303.5225,-40.0666"/>
</g>
<!-- 1426&#45;&gt;1 -->
<g id="edge96" class="edge">
<title>1426&#45;&gt;1</title>
<path fill="none" stroke="#00ff00" stroke-width=".2501" d="M309.9665,-70.9789C319.1157,-59.823 330.5701,-45.8565 339.764,-34.6461"/>
<polygon fill="#00ff00" stroke="#00ff00" stroke-width=".2501" points="342.6433,-36.6547 346.2784,-26.703 337.2307,-32.2157 342.6433,-36.6547"/>
</g>
<!-- 1427&#45;&gt;0 -->
<g id="edge97" class="edge">
<title>1427&#45;&gt;0</title>
<path fill="none" stroke="#ff0000" stroke-width=".2837" d="M345.7612,-70.5847C337.3924,-59.6767 327.0332,-46.1744 318.607,-35.1917"/>
<polygon fill="#ff0000" stroke="#ff0000" stroke-width=".2837" points="321.2028,-32.8251 312.3388,-27.0216 315.649,-37.0861 321.2028,-32.8251"/>
</g>
<!-- 1427&#45;&gt;1 -->
<g id="edge98" class="edge">
<title>1427&#45;&gt;1</title>
<path fill="none" stroke="#00ff00" stroke-width=".4116" d="M359.3628,-65.6936C358.8163,-57.4298 358.207,-48.2178 357.6588,-39.9294"/>
<polygon fill="#00ff00" stroke="#00ff00" stroke-width=".4116" points="361.1361,-39.4701 356.9837,-29.7229 354.1514,-39.9322 361.1361,-39.4701"/>
</g>
<!-- 1428&#45;&gt;0 -->
<g id="edge99" class="edge">
<title>1428&#45;&gt;0</title>
<path fill="none" stroke="#00ff00" stroke-width=".4053" d="M408.4248,-75.0713C404.084,-71.8592 399.4495,-68.5769 395,-65.6985 382.464,-57.5889 348.3687,-39.0727 325.395,-26.7659"/>
<polygon fill="#00ff00" stroke="#00ff00" stroke-width=".4053" points="326.7948,-23.5456 316.3253,-21.9202 323.4961,-29.7196 326.7948,-23.5456"/>
</g>
<!-- 1428&#45;&gt;1 -->
<g id="edge100" class="edge">
<title>1428&#45;&gt;1</title>
<path fill="none" stroke="#00ff00" stroke-width=".2525" d="M410.5708,-72.1471C399.3443,-60.3595 384.7997,-45.0881 373.5495,-33.2757"/>
<polygon fill="#00ff00" stroke="#00ff00" stroke-width=".2525" points="375.7997,-30.5634 366.3685,-25.7359 370.7308,-35.3911 375.7997,-30.5634"/>
</g>
<!-- 1429&#45;&gt;0 -->
<g id="edge101" class="edge">
<title>1429&#45;&gt;0</title>
<path fill="none" stroke="#00ff00" stroke-width=".2861" d="M475.8895,-74.2511C471.5198,-71.0901 466.756,-68.036 462,-65.6985 408.1951,-39.254 387.8583,-51.4728 332,-29.6985 329.7322,-28.8145 327.4074,-27.8081 325.1089,-26.7454"/>
<polygon fill="#00ff00" stroke="#00ff00" stroke-width=".2861" points="326.5342,-23.5455 316.0214,-22.2301 323.4194,-29.8143 326.5342,-23.5455"/>
</g>
<!-- 1429&#45;&gt;1 -->
<g id="edge102" class="edge">
<title>1429&#45;&gt;1</title>
<path fill="none" stroke="#00ff00" stroke-width=".1149" stroke-dasharray="1,5" d="M475.5478,-74.8751C471.1993,-71.6752 466.5306,-68.4475 462,-65.6985 434.7342,-49.1545 401.2626,-33.8625 379.3187,-24.4576"/>
<polygon fill="#00ff00" stroke="#00ff00" stroke-width=".1149" points="380.4045,-21.1169 369.8307,-20.4506 377.6811,-27.5655 380.4045,-21.1169"/>
</g>
</g>
</svg>
