<?xml version="1.0" encoding="UTF-8" standalone="no"?>
<!DOCTYPE svg PUBLIC "-//W3C//DTD SVG 1.1//EN"
 "http://www.w3.org/Graphics/SVG/1.1/DTD/svg11.dtd">
<!-- Generated by graphviz version 2.40.1 (20161225.0304)
 -->
<!-- Title: %3 Pages: 1 -->
<svg width="814pt" height="256pt"
 viewBox="0.00 0.00 813.93 255.62" xmlns="http://www.w3.org/2000/svg" xmlns:xlink="http://www.w3.org/1999/xlink">
<g id="graph0" class="graph" transform="scale(1 1) rotate(0) translate(4 251.6224)">
<title>%3</title>
<polygon fill="#ffffff" stroke="transparent" points="-4,4 -4,-251.6224 809.9253,-251.6224 809.9253,4 -4,4"/>
<!-- &#45;1 -->
<g id="node1" class="node">
<title>&#45;1</title>
<polygon fill="#d3d3d3" stroke="#000000" points="377.0382,-177.8736 353.0382,-177.8736 353.0382,-159.8736 377.0382,-159.8736 377.0382,-177.8736"/>
<text text-anchor="middle" x="365.0382" y="-166.6736" font-family="Times,serif" font-size="9.00" fill="#000000">&#45;1</text>
</g>
<!-- 608 -->
<g id="node18" class="node">
<title>608</title>
<ellipse fill="#ffffff" stroke="#000000" cx="384.0382" cy="-86.9117" rx="21.4286" ry="21.4286"/>
<text text-anchor="middle" x="384.0382" y="-84.7117" font-family="Times,serif" font-size="9.00" fill="#000000">608</text>
</g>
<!-- &#45;1&#45;&gt;608 -->
<g id="edge1" class="edge">
<title>&#45;1&#45;&gt;608</title>
<path fill="none" stroke="#00ff00" stroke-width=".2694" d="M367.1441,-159.7891C369.4992,-149.6298 373.4409,-132.6262 376.9247,-117.5977"/>
<polygon fill="#00ff00" stroke="#00ff00" stroke-width=".2694" points="380.3895,-118.1494 379.2383,-107.6173 373.5704,-116.5686 380.3895,-118.1494"/>
</g>
<!-- 611 -->
<g id="node19" class="node">
<title>611</title>
<ellipse fill="#ffffff" stroke="#000000" cx="444.0382" cy="-86.9117" rx="21.4286" ry="21.4286"/>
<text text-anchor="middle" x="444.0382" y="-84.7117" font-family="Times,serif" font-size="9.00" fill="#000000">611</text>
</g>
<!-- &#45;1&#45;&gt;611 -->
<g id="edge3" class="edge">
<title>&#45;1&#45;&gt;611</title>
<path fill="none" stroke="#00ff00" stroke-width=".1303" d="M372.6274,-159.5378C376.5375,-154.8299 381.4392,-149.0821 386.0382,-144.1249 397.185,-132.1098 410.124,-119.2499 420.9489,-108.7715"/>
<polygon fill="#00ff00" stroke="#00ff00" stroke-width=".1303" points="423.6171,-111.0616 428.4017,-101.6086 418.7664,-106.0146 423.6171,-111.0616"/>
</g>
<!-- 609 -->
<g id="node20" class="node">
<title>609</title>
<ellipse fill="#ffffff" stroke="#000000" cx="264.0382" cy="-86.9117" rx="21.4286" ry="21.4286"/>
<text text-anchor="middle" x="264.0382" y="-84.7117" font-family="Times,serif" font-size="9.00" fill="#000000">609</text>
</g>
<!-- &#45;1&#45;&gt;609 -->
<g id="edge2" class="edge">
<title>&#45;1&#45;&gt;609</title>
<path fill="none" stroke="#ff0000" stroke-width=".2795" d="M358.1467,-159.6938C354.267,-154.8114 349.1793,-148.857 344.0382,-144.1249 341.5734,-141.8562 312.0612,-120.8645 289.5926,-104.9601"/>
<polygon fill="#ff0000" stroke="#ff0000" stroke-width=".2795" points="291.5826,-102.0806 281.3973,-99.1633 287.5403,-107.7955 291.5826,-102.0806"/>
</g>
<!-- 612 -->
<g id="node21" class="node">
<title>612</title>
<ellipse fill="#ffffff" stroke="#000000" cx="504.0382" cy="-86.9117" rx="21.4286" ry="21.4286"/>
<text text-anchor="middle" x="504.0382" y="-84.7117" font-family="Times,serif" font-size="9.00" fill="#000000">612</text>
</g>
<!-- &#45;1&#45;&gt;612 -->
<g id="edge4" class="edge">
<title>&#45;1&#45;&gt;612</title>
<path fill="none" stroke="#00ff00" stroke-width=".3952" d="M371.1599,-159.6764C374.9504,-154.5483 380.2004,-148.3611 386.0382,-144.1249 420.2395,-119.3065 436.9924,-128.4545 474.0382,-108.1249 475.5376,-107.3021 477.052,-106.4189 478.5618,-105.497"/>
<polygon fill="#00ff00" stroke="#00ff00" stroke-width=".3952" points="480.582,-108.3577 487.0225,-99.9452 476.7416,-102.5052 480.582,-108.3577"/>
</g>
<!-- 613 -->
<g id="node22" class="node">
<title>613</title>
<ellipse fill="#ffffff" stroke="#000000" cx="324.0382" cy="-86.9117" rx="21.4286" ry="21.4286"/>
<text text-anchor="middle" x="324.0382" y="-84.7117" font-family="Times,serif" font-size="9.00" fill="#000000">613</text>
</g>
<!-- &#45;1&#45;&gt;613 -->
<g id="edge5" class="edge">
<title>&#45;1&#45;&gt;613</title>
<path fill="none" stroke="#ff0000" stroke-width=".2682" d="M360.4938,-159.7891C355.1414,-149.0893 345.9913,-130.7975 338.1974,-115.217"/>
<polygon fill="#ff0000" stroke="#ff0000" stroke-width=".2682" points="341.1701,-113.3361 333.566,-105.9585 334.9096,-116.4678 341.1701,-113.3361"/>
</g>
<!-- &#45;2 -->
<g id="node2" class="node">
<title>&#45;2</title>
<polygon fill="#d3d3d3" stroke="#000000" points="479.0382,-247.6224 455.0382,-247.6224 455.0382,-229.6224 479.0382,-229.6224 479.0382,-247.6224"/>
<text text-anchor="middle" x="467.0382" y="-236.4224" font-family="Times,serif" font-size="9.00" fill="#000000">&#45;2</text>
</g>
<!-- &#45;2&#45;&gt;608 -->
<g id="edge6" class="edge">
<title>&#45;2&#45;&gt;608</title>
<path fill="none" stroke="#00ff00" stroke-width=".2572" d="M454.9568,-238.0554C413.1084,-235.8157 275.4602,-226.0555 249.0382,-193.6224 235.1437,-176.5668 236.2516,-162.0261 249.0382,-144.1249 277.7126,-103.9807 310.1189,-130.5942 354.0382,-108.1249 355.5608,-107.3459 357.0936,-106.4974 358.6177,-105.6025"/>
<polygon fill="#00ff00" stroke="#00ff00" stroke-width=".2572" points="360.6057,-108.4853 367.1206,-100.1302 356.8174,-102.5989 360.6057,-108.4853"/>
</g>
<!-- &#45;2&#45;&gt;611 -->
<g id="edge8" class="edge">
<title>&#45;2&#45;&gt;611</title>
<path fill="none" stroke="#00ff00" stroke-width=".437" d="M479.1743,-238.0648C521.2123,-235.856 659.4852,-226.1862 686.0382,-193.6224 699.9404,-176.5731 700.232,-160.9322 686.0382,-144.1249 624.375,-71.1079 562.3656,-144.6228 474.0382,-108.1249 472.4169,-107.455 470.7978,-106.6842 469.1991,-105.842"/>
<polygon fill="#00ff00" stroke="#00ff00" stroke-width=".437" points="470.747,-102.6855 460.3926,-100.4414 467.0876,-108.6529 470.747,-102.6855"/>
</g>
<!-- &#45;2&#45;&gt;609 -->
<g id="edge7" class="edge">
<title>&#45;2&#45;&gt;609</title>
<path fill="none" stroke="#ff0000" stroke-width=".1706" d="M454.8866,-238.3687C385.7128,-236.8024 43.6127,-227.3772 13.0382,-193.6224 -52.6738,-121.0751 151.4026,-96.1104 232.4091,-89.1873"/>
<polygon fill="#ff0000" stroke="#ff0000" stroke-width=".1706" points="232.8579,-92.6624 242.5404,-88.3612 232.289,-85.6855 232.8579,-92.6624"/>
</g>
<!-- &#45;2&#45;&gt;612 -->
<g id="edge9" class="edge">
<title>&#45;2&#45;&gt;612</title>
<path fill="none" stroke="#ff0000" stroke-width=".3044" d="M479.2553,-237.8654C535.8865,-234.2351 770.9927,-217.7826 792.0382,-193.6224 865.6589,-109.1056 624.2001,-91.4373 535.4569,-87.8206"/>
<polygon fill="#ff0000" stroke="#ff0000" stroke-width=".3044" points="535.5468,-84.3216 525.423,-87.4457 535.2853,-91.3167 535.5468,-84.3216"/>
</g>
<!-- &#45;2&#45;&gt;613 -->
<g id="edge10" class="edge">
<title>&#45;2&#45;&gt;613</title>
<path fill="none" stroke="#00ff00" stroke-width=".2052" d="M454.819,-238.3268C386.7719,-236.5579 56.5637,-226.3216 27.0382,-193.6224 12.2952,-177.2946 12.5592,-160.6872 27.0382,-144.1249 66.443,-99.0505 238.323,-130.0399 294.0382,-108.1249 295.6706,-107.4828 297.2985,-106.7338 298.904,-105.9084"/>
<polygon fill="#00ff00" stroke="#00ff00" stroke-width=".2052" points="300.9943,-108.7342 307.73,-100.5561 297.3645,-102.7488 300.9943,-108.7342"/>
</g>
<!-- 2343 -->
<g id="node23" class="node">
<title>2343</title>
<ellipse fill="#ffffff" stroke="#000000" cx="758.0382" cy="-168.8736" rx="25" ry="25"/>
<text text-anchor="middle" x="758.0382" y="-166.6736" font-family="Times,serif" font-size="9.00" fill="#000000">2343</text>
</g>
<!-- &#45;2&#45;&gt;2343 -->
<g id="edge83" class="edge">
<title>&#45;2&#45;&gt;2343</title>
<path fill="none" stroke="#00ff00" stroke-width=".5" d="M479.2938,-238.1057C516.5794,-236.1875 631.441,-227.7074 719.0382,-193.6224 722.3521,-192.3329 725.6881,-190.7476 728.9392,-189.0076"/>
<polygon fill="#00ff00" stroke="#00ff00" stroke-width=".5" points="730.9367,-191.8934 737.7875,-183.8115 727.392,-185.8573 730.9367,-191.8934"/>
</g>
<!-- &#45;3 -->
<g id="node3" class="node">
<title>&#45;3</title>
<polygon fill="#d3d3d3" stroke="#000000" points="60.0382,-177.8736 36.0382,-177.8736 36.0382,-159.8736 60.0382,-159.8736 60.0382,-177.8736"/>
<text text-anchor="middle" x="48.0382" y="-166.6736" font-family="Times,serif" font-size="9.00" fill="#000000">&#45;3</text>
</g>
<!-- &#45;3&#45;&gt;608 -->
<g id="edge11" class="edge">
<title>&#45;3&#45;&gt;608</title>
<path fill="none" stroke="#ff0000" stroke-width=".1633" d="M53.4426,-159.5726C57.1189,-154.1367 62.4977,-147.6675 69.0382,-144.1249 181.3013,-83.3184 235.0311,-154.3607 354.0382,-108.1249 355.6733,-107.4896 357.3033,-106.7461 358.9104,-105.9248"/>
<polygon fill="#ff0000" stroke="#ff0000" stroke-width=".1633" points="360.9954,-108.7542 367.7411,-100.5844 357.3729,-102.7644 360.9954,-108.7542"/>
</g>
<!-- &#45;3&#45;&gt;611 -->
<g id="edge13" class="edge">
<title>&#45;3&#45;&gt;611</title>
<path fill="none" stroke="#00ff00" stroke-width=".2297" d="M53.4159,-159.5225C57.0821,-154.0678 62.4597,-147.5964 69.0382,-144.1249 205.3842,-72.1745 269.7399,-162.394 414.0382,-108.1249 415.6801,-107.5074 417.3154,-106.7778 418.9267,-105.9672"/>
<polygon fill="#00ff00" stroke="#00ff00" stroke-width=".2297" points="420.9977,-108.8062 427.7691,-100.6576 417.3941,-102.805 420.9977,-108.8062"/>
</g>
<!-- &#45;3&#45;&gt;609 -->
<g id="edge12" class="edge">
<title>&#45;3&#45;&gt;609</title>
<path fill="none" stroke="#ff0000" stroke-width=".1171" stroke-dasharray="1,5" d="M54.0022,-159.447C57.7402,-154.2424 62.9902,-148.0552 69.0382,-144.1249 120.4998,-110.6822 192.0625,-96.2715 232.6467,-90.4696"/>
<polygon fill="#ff0000" stroke="#ff0000" stroke-width=".1171" points="233.303,-93.913 242.7481,-89.113 232.3712,-86.9752 233.303,-93.913"/>
</g>
<!-- &#45;3&#45;&gt;613 -->
<g id="edge14" class="edge">
<title>&#45;3&#45;&gt;613</title>
<path fill="none" stroke="#ff0000" stroke-width=".2216" d="M53.4844,-159.6482C57.1764,-154.2408 62.5571,-147.7749 69.0382,-144.1249 157.2786,-94.4296 200.2584,-146.3525 294.0382,-108.1249 295.6626,-107.4627 297.2842,-106.698 298.8848,-105.8605"/>
<polygon fill="#ff0000" stroke="#ff0000" stroke-width=".2216" points="300.9905,-108.6755 307.6969,-100.4734 297.3393,-102.7031 300.9905,-108.6755"/>
</g>
<!-- &#45;4 -->
<g id="node4" class="node">
<title>&#45;4</title>
<polygon fill="#d3d3d3" stroke="#000000" points="419.0382,-177.8736 395.0382,-177.8736 395.0382,-159.8736 419.0382,-159.8736 419.0382,-177.8736"/>
<text text-anchor="middle" x="407.0382" y="-166.6736" font-family="Times,serif" font-size="9.00" fill="#000000">&#45;4</text>
</g>
<!-- &#45;4&#45;&gt;608 -->
<g id="edge15" class="edge">
<title>&#45;4&#45;&gt;608</title>
<path fill="none" stroke="#00ff00" stroke-width=".253" d="M404.4889,-159.7891C401.638,-149.6298 396.8665,-132.6262 392.6492,-117.5977"/>
<polygon fill="#00ff00" stroke="#00ff00" stroke-width=".253" points="395.9203,-116.2997 389.8485,-107.6173 389.1806,-118.1911 395.9203,-116.2997"/>
</g>
<!-- &#45;4&#45;&gt;611 -->
<g id="edge17" class="edge">
<title>&#45;4&#45;&gt;611</title>
<path fill="none" stroke="#00ff00" stroke-width=".2549" d="M411.1392,-159.7891C415.9382,-149.1583 424.1204,-131.0332 431.124,-115.5189"/>
<polygon fill="#00ff00" stroke="#00ff00" stroke-width=".2549" points="434.3671,-116.8413 435.2917,-106.2869 427.9871,-113.9611 434.3671,-116.8413"/>
</g>
<!-- &#45;4&#45;&gt;609 -->
<g id="edge16" class="edge">
<title>&#45;4&#45;&gt;609</title>
<path fill="none" stroke="#00ff00" stroke-width=".2194" d="M400.9407,-159.6428C397.1582,-154.5034 391.9082,-148.3162 386.0382,-144.1249 350.3043,-118.6103 332.6917,-128.9529 294.0382,-108.1249 292.5325,-107.3136 291.0131,-106.4395 289.4995,-105.5247"/>
<polygon fill="#00ff00" stroke="#00ff00" stroke-width=".2194" points="291.3143,-102.5297 281.0274,-99.9938 287.4876,-108.3912 291.3143,-102.5297"/>
</g>
<!-- &#45;4&#45;&gt;612 -->
<g id="edge18" class="edge">
<title>&#45;4&#45;&gt;612</title>
<path fill="none" stroke="#00ff00" stroke-width=".337" stroke-dasharray="1,5" d="M413.9761,-159.7436C417.8695,-154.8759 422.9553,-148.9195 428.0382,-144.1249 436.6981,-135.956 459.7073,-118.843 478.1575,-105.4504"/>
<polygon fill="#00ff00" stroke="#00ff00" stroke-width=".337" points="480.4503,-108.1118 486.5053,-99.4177 476.3501,-102.4382 480.4503,-108.1118"/>
</g>
<!-- &#45;4&#45;&gt;613 -->
<g id="edge19" class="edge">
<title>&#45;4&#45;&gt;613</title>
<path fill="none" stroke="#ff0000" stroke-width=".1391" d="M399.5183,-159.4724C395.6259,-154.7478 390.7191,-149.0048 386.0382,-144.1249 374.0109,-131.5862 359.8173,-118.383 348.0476,-107.8235"/>
<polygon fill="#ff0000" stroke="#ff0000" stroke-width=".1391" points="350.1427,-105.003 340.343,-100.976 345.4926,-110.2353 350.1427,-105.003"/>
</g>
<!-- &#45;5 -->
<g id="node5" class="node">
<title>&#45;5</title>
<polygon fill="#d3d3d3" stroke="#000000" points="461.0382,-177.8736 437.0382,-177.8736 437.0382,-159.8736 461.0382,-159.8736 461.0382,-177.8736"/>
<text text-anchor="middle" x="449.0382" y="-166.6736" font-family="Times,serif" font-size="9.00" fill="#000000">&#45;5</text>
</g>
<!-- &#45;5&#45;&gt;608 -->
<g id="edge20" class="edge">
<title>&#45;5&#45;&gt;608</title>
<path fill="none" stroke="#00ff00" stroke-width=".3334" d="M441.8337,-159.7891C432.7139,-148.2895 416.6398,-128.0208 403.7547,-111.7733"/>
<polygon fill="#00ff00" stroke="#00ff00" stroke-width=".3334" points="406.3171,-109.3716 397.361,-103.7112 400.8324,-113.7212 406.3171,-109.3716"/>
</g>
<!-- &#45;5&#45;&gt;611 -->
<g id="edge22" class="edge">
<title>&#45;5&#45;&gt;611</title>
<path fill="none" stroke="#00ff00" stroke-width=".1237" d="M448.484,-159.7891C447.8784,-149.8616 446.8741,-133.3987 445.9731,-118.6296"/>
<polygon fill="#00ff00" stroke="#00ff00" stroke-width=".1237" points="449.445,-118.0607 445.3425,-108.2924 442.458,-118.487 449.445,-118.0607"/>
</g>
<!-- &#45;5&#45;&gt;609 -->
<g id="edge21" class="edge">
<title>&#45;5&#45;&gt;609</title>
<path fill="none" stroke="#00ff00" stroke-width=".4641" d="M443.1076,-159.3948C439.3808,-154.1728 434.1308,-147.9856 428.0382,-144.1249 375.9483,-111.1172 349.8589,-134.334 294.0382,-108.1249 292.49,-107.398 290.937,-106.5906 289.3972,-105.7277"/>
<polygon fill="#00ff00" stroke="#00ff00" stroke-width=".4641" points="291.1762,-102.7119 280.848,-100.35 287.449,-108.6371 291.1762,-102.7119"/>
</g>
<!-- &#45;5&#45;&gt;612 -->
<g id="edge23" class="edge">
<title>&#45;5&#45;&gt;612</title>
<path fill="none" stroke="#ff0000" stroke-width=".2142" d="M455.1343,-159.7891C462.6386,-148.606 475.708,-129.1298 486.4488,-113.1237"/>
<polygon fill="#ff0000" stroke="#ff0000" stroke-width=".2142" points="489.4603,-114.917 492.1262,-104.6631 483.6477,-111.0165 489.4603,-114.917"/>
</g>
<!-- &#45;5&#45;&gt;613 -->
<g id="edge24" class="edge">
<title>&#45;5&#45;&gt;613</title>
<path fill="none" stroke="#ff0000" stroke-width=".1808" d="M442.8118,-159.8158C438.9864,-154.7342 433.7364,-148.547 428.0382,-144.1249 399.144,-121.7015 385.5181,-126.7446 354.0382,-108.1249 352.5661,-107.2542 351.0732,-106.3331 349.5802,-105.3819"/>
<polygon fill="#ff0000" stroke="#ff0000" stroke-width=".1808" points="351.4241,-102.4044 341.169,-99.7432 347.5263,-108.2188 351.4241,-102.4044"/>
</g>
<!-- &#45;6 -->
<g id="node6" class="node">
<title>&#45;6</title>
<polygon fill="#d3d3d3" stroke="#000000" points="503.0382,-177.8736 479.0382,-177.8736 479.0382,-159.8736 503.0382,-159.8736 503.0382,-177.8736"/>
<text text-anchor="middle" x="491.0382" y="-166.6736" font-family="Times,serif" font-size="9.00" fill="#000000">&#45;6</text>
</g>
<!-- &#45;6&#45;&gt;608 -->
<g id="edge25" class="edge">
<title>&#45;6&#45;&gt;608</title>
<path fill="none" stroke="#ff0000" stroke-width=".3169" d="M484.2389,-159.5911C480.3861,-154.6787 475.2948,-148.7283 470.0382,-144.1249 447.779,-124.6317 438.5679,-124.6703 414.0382,-108.1249 412.6202,-107.1685 411.1702,-106.1797 409.7104,-105.1759"/>
<polygon fill="#ff0000" stroke="#ff0000" stroke-width=".3169" points="411.6027,-102.2285 401.3975,-99.3817 407.6,-107.9712 411.6027,-102.2285"/>
</g>
<!-- &#45;6&#45;&gt;611 -->
<g id="edge27" class="edge">
<title>&#45;6&#45;&gt;611</title>
<path fill="none" stroke="#ff0000" stroke-width=".1678" d="M485.8288,-159.7891C479.5952,-148.9186 468.8683,-130.2122 459.8433,-114.4738"/>
<polygon fill="#ff0000" stroke="#ff0000" stroke-width=".1678" points="462.7838,-112.5658 454.773,-105.6319 456.7114,-116.048 462.7838,-112.5658"/>
</g>
<!-- &#45;6&#45;&gt;609 -->
<g id="edge26" class="edge">
<title>&#45;6&#45;&gt;609</title>
<path fill="none" stroke="#ff0000" stroke-width=".3366" d="M485.5355,-159.7459C481.8223,-154.3753 476.4391,-147.9137 470.0382,-144.1249 401.3308,-103.4554 367.3066,-139.8496 294.0382,-108.1249 292.4686,-107.4453 290.8988,-106.6754 289.3459,-105.8415"/>
<polygon fill="#ff0000" stroke="#ff0000" stroke-width=".3366" points="291.1076,-102.8159 280.7579,-100.5496 287.4354,-108.7753 291.1076,-102.8159"/>
</g>
<!-- &#45;6&#45;&gt;612 -->
<g id="edge28" class="edge">
<title>&#45;6&#45;&gt;612</title>
<path fill="none" stroke="#ff0000" stroke-width=".5" d="M492.4791,-159.7891C494.0797,-149.6975 496.7515,-132.8526 499.1233,-117.8986"/>
<polygon fill="#ff0000" stroke="#ff0000" stroke-width=".5" points="502.5908,-118.3789 500.7006,-107.954 495.6772,-117.2823 502.5908,-118.3789"/>
</g>
<!-- &#45;6&#45;&gt;613 -->
<g id="edge29" class="edge">
<title>&#45;6&#45;&gt;613</title>
<path fill="none" stroke="#ff0000" stroke-width=".2399" d="M485.0511,-159.4821C481.3054,-154.2892 476.0554,-148.102 470.0382,-144.1249 425.0047,-114.3598 402.4513,-132.0027 354.0382,-108.1249 352.5043,-107.3684 350.9626,-106.5376 349.4315,-105.6564"/>
<polygon fill="#ff0000" stroke="#ff0000" stroke-width=".2399" points="351.2224,-102.6474 340.9082,-100.2249 347.4605,-108.5507 351.2224,-102.6474"/>
</g>
<!-- &#45;7 -->
<g id="node7" class="node">
<title>&#45;7</title>
<polygon fill="#d3d3d3" stroke="#000000" points="545.0382,-177.8736 521.0382,-177.8736 521.0382,-159.8736 545.0382,-159.8736 545.0382,-177.8736"/>
<text text-anchor="middle" x="533.0382" y="-166.6736" font-family="Times,serif" font-size="9.00" fill="#000000">&#45;7</text>
</g>
<!-- &#45;7&#45;&gt;608 -->
<g id="edge30" class="edge">
<title>&#45;7&#45;&gt;608</title>
<path fill="none" stroke="#00ff00" stroke-width=".4656" d="M526.9734,-159.5965C523.2018,-154.4417 517.9518,-148.2545 512.0382,-144.1249 473.9948,-117.5582 455.115,-129.7068 414.0382,-108.1249 412.5241,-107.3294 410.9981,-106.4678 409.4792,-105.5628"/>
<polygon fill="#00ff00" stroke="#00ff00" stroke-width=".4656" points="411.2868,-102.5635 400.9919,-100.0606 407.479,-108.4372 411.2868,-102.5635"/>
</g>
<!-- &#45;7&#45;&gt;611 -->
<g id="edge32" class="edge">
<title>&#45;7&#45;&gt;611</title>
<path fill="none" stroke="#ff0000" stroke-width=".3135" d="M525.9952,-159.852C522.071,-155.016 516.9893,-149.0554 512.0382,-144.1249 498.5864,-130.7292 482.3561,-116.9931 469.126,-106.3386"/>
<polygon fill="#ff0000" stroke="#ff0000" stroke-width=".3135" points="470.9299,-103.3013 460.9245,-99.8166 466.573,-108.7801 470.9299,-103.3013"/>
</g>
<!-- &#45;7&#45;&gt;609 -->
<g id="edge31" class="edge">
<title>&#45;7&#45;&gt;609</title>
<path fill="none" stroke="#00ff00" stroke-width=".1776" d="M527.5855,-159.6596C523.8911,-154.2565 518.5101,-147.7911 512.0382,-144.1249 426.5943,-95.7225 384.8813,-145.4208 294.0382,-108.1249 292.4154,-107.4587 290.7951,-106.6908 289.1955,-105.8508"/>
<polygon fill="#00ff00" stroke="#00ff00" stroke-width=".1776" points="290.7422,-102.6939 280.3863,-100.4567 287.0868,-108.6636 290.7422,-102.6939"/>
</g>
<!-- &#45;7&#45;&gt;612 -->
<g id="edge33" class="edge">
<title>&#45;7&#45;&gt;612</title>
<path fill="none" stroke="#00ff00" stroke-width=".178" d="M529.8239,-159.7891C526.1463,-149.3953 519.934,-131.8378 514.5286,-116.5606"/>
<polygon fill="#00ff00" stroke="#00ff00" stroke-width=".178" points="517.7629,-115.2085 511.1277,-106.9487 511.1638,-117.5435 517.7629,-115.2085"/>
</g>
<!-- &#45;7&#45;&gt;613 -->
<g id="edge34" class="edge">
<title>&#45;7&#45;&gt;613</title>
<path fill="none" stroke="#00ff00" stroke-width=".1352" stroke-dasharray="1,5" d="M527.5056,-159.7959C523.7811,-154.4441 518.3965,-147.9848 512.0382,-144.1249 450.4723,-106.7511 419.8079,-137.4763 354.0382,-108.1249 352.4763,-107.4279 350.9125,-106.6442 349.3643,-105.7996"/>
<polygon fill="#00ff00" stroke="#00ff00" stroke-width=".1352" points="351.1321,-102.7774 340.7903,-100.4761 347.4398,-108.7244 351.1321,-102.7774"/>
</g>
<!-- &#45;8 -->
<g id="node8" class="node">
<title>&#45;8</title>
<polygon fill="#d3d3d3" stroke="#000000" points="587.0382,-177.8736 563.0382,-177.8736 563.0382,-159.8736 587.0382,-159.8736 587.0382,-177.8736"/>
<text text-anchor="middle" x="575.0382" y="-166.6736" font-family="Times,serif" font-size="9.00" fill="#000000">&#45;8</text>
</g>
<!-- &#45;8&#45;&gt;608 -->
<g id="edge35" class="edge">
<title>&#45;8&#45;&gt;608</title>
<path fill="none" stroke="#00ff00" stroke-width=".1243" d="M569.4676,-159.8576C565.7288,-154.5289 560.3425,-148.0723 554.0382,-144.1249 499.5854,-110.0294 472.3396,-135.1165 414.0382,-108.1249 412.4861,-107.4063 410.9301,-106.6056 409.3879,-105.7478"/>
<polygon fill="#00ff00" stroke="#00ff00" stroke-width=".1243" points="411.1637,-102.7301 400.8316,-100.3852 407.4462,-108.6615 411.1637,-102.7301"/>
</g>
<!-- &#45;8&#45;&gt;611 -->
<g id="edge37" class="edge">
<title>&#45;8&#45;&gt;611</title>
<path fill="none" stroke="#00ff00" stroke-width=".5" d="M568.861,-159.7515C565.0519,-154.6484 559.8019,-148.4613 554.0382,-144.1249 522.8816,-120.6842 507.8903,-127.4699 474.0382,-108.1249 472.5532,-107.2763 471.0502,-106.3728 469.5492,-105.4351"/>
<polygon fill="#00ff00" stroke="#00ff00" stroke-width=".5" points="471.382,-102.4507 461.1147,-99.8365 467.5107,-108.2829 471.382,-102.4507"/>
</g>
<!-- &#45;8&#45;&gt;609 -->
<g id="edge36" class="edge">
<title>&#45;8&#45;&gt;609</title>
<path fill="none" stroke="#ff0000" stroke-width=".3573" d="M569.6188,-159.6C565.9369,-154.1744 560.5573,-147.7064 554.0382,-144.1249 451.7941,-87.9534 402.5237,-151.0199 294.0382,-108.1249 292.4069,-107.4799 290.7799,-106.7287 289.175,-105.9015"/>
<polygon fill="#ff0000" stroke="#ff0000" stroke-width=".3573" points="290.7154,-102.7421 280.351,-100.5442 287.0826,-108.7257 290.7154,-102.7421"/>
</g>
<!-- &#45;8&#45;&gt;612 -->
<g id="edge38" class="edge">
<title>&#45;8&#45;&gt;612</title>
<path fill="none" stroke="#ff0000" stroke-width=".2737" d="M567.291,-159.679C563.3407,-155.007 558.4506,-149.2488 554.0382,-144.1249 544.5291,-133.0826 533.9163,-120.9166 524.923,-110.6529"/>
<polygon fill="#ff0000" stroke="#ff0000" stroke-width=".2737" points="527.3358,-108.096 518.1098,-102.8873 522.0739,-112.7126 527.3358,-108.096"/>
</g>
<!-- &#45;8&#45;&gt;613 -->
<g id="edge39" class="edge">
<title>&#45;8&#45;&gt;613</title>
<path fill="none" stroke="#00ff00" stroke-width=".4091" d="M569.5668,-159.6924C565.8653,-154.3016 560.4835,-147.8377 554.0382,-144.1249 475.7771,-99.0424 437.3386,-143.0286 354.0382,-108.1249 352.4203,-107.447 350.8038,-106.6699 349.2071,-105.8228"/>
<polygon fill="#00ff00" stroke="#00ff00" stroke-width=".4091" points="350.7575,-102.6674 340.4063,-100.4084 347.0895,-108.6295 350.7575,-102.6674"/>
</g>
<!-- &#45;9 -->
<g id="node9" class="node">
<title>&#45;9</title>
<polygon fill="#d3d3d3" stroke="#000000" points="629.0382,-177.8736 605.0382,-177.8736 605.0382,-159.8736 629.0382,-159.8736 629.0382,-177.8736"/>
<text text-anchor="middle" x="617.0382" y="-166.6736" font-family="Times,serif" font-size="9.00" fill="#000000">&#45;9</text>
</g>
<!-- &#45;9&#45;&gt;608 -->
<g id="edge40" class="edge">
<title>&#45;9&#45;&gt;608</title>
<path fill="none" stroke="#00ff00" stroke-width=".3299" d="M611.5441,-159.7313C607.8342,-154.3552 602.4513,-147.893 596.0382,-144.1249 524.9453,-102.3539 489.8114,-140.643 414.0382,-108.1249 412.4665,-107.4504 410.8949,-106.6845 409.3406,-105.8537"/>
<polygon fill="#00ff00" stroke="#00ff00" stroke-width=".3299" points="411.1005,-102.8271 400.7487,-100.5711 407.4342,-108.7902 411.1005,-102.8271"/>
</g>
<!-- &#45;9&#45;&gt;611 -->
<g id="edge42" class="edge">
<title>&#45;9&#45;&gt;611</title>
<path fill="none" stroke="#ff0000" stroke-width=".1557" d="M611.0718,-159.4505C607.3331,-154.247 602.0831,-148.0599 596.0382,-144.1249 548.6587,-113.2828 524.9139,-132.7766 474.0382,-108.1249 472.499,-107.3791 470.9532,-106.5568 469.4189,-105.6823"/>
<polygon fill="#ff0000" stroke="#ff0000" stroke-width=".1557" points="471.2053,-102.6707 460.886,-100.2703 467.4561,-108.582 471.2053,-102.6707"/>
</g>
<!-- &#45;9&#45;&gt;609 -->
<g id="edge41" class="edge">
<title>&#45;9&#45;&gt;609</title>
<path fill="none" stroke="#00ff00" stroke-width=".2762" d="M611.6424,-159.5564C607.9694,-154.1145 602.591,-147.6445 596.0382,-144.1249 476.9561,-80.1634 420.2062,-156.635 294.0382,-108.1249 292.4008,-107.4954 290.7691,-106.7563 289.1606,-105.9385"/>
<polygon fill="#00ff00" stroke="#00ff00" stroke-width=".2762" points="290.6965,-102.7775 280.3261,-100.608 287.0802,-108.771 290.6965,-102.7775"/>
</g>
<!-- &#45;9&#45;&gt;612 -->
<g id="edge43" class="edge">
<title>&#45;9&#45;&gt;612</title>
<path fill="none" stroke="#00ff00" stroke-width=".3496" d="M610.2663,-159.5596C606.4215,-154.638 601.3292,-148.6888 596.0382,-144.1249 576.3325,-127.1271 551.0538,-111.7905 531.9822,-101.2847"/>
<polygon fill="#00ff00" stroke="#00ff00" stroke-width=".3496" points="533.6326,-98.1982 523.17,-96.5292 530.3082,-104.3585 533.6326,-98.1982"/>
</g>
<!-- &#45;9&#45;&gt;613 -->
<g id="edge44" class="edge">
<title>&#45;9&#45;&gt;613</title>
<path fill="none" stroke="#ff0000" stroke-width=".4326" d="M611.606,-159.6231C607.9193,-154.2063 602.5392,-147.7393 596.0382,-144.1249 500.9999,-91.2862 454.9566,-148.6178 354.0382,-108.1249 352.4101,-107.4717 350.7857,-106.714 349.1829,-105.8818"/>
<polygon fill="#ff0000" stroke="#ff0000" stroke-width=".4326" points="350.7257,-102.7234 340.3646,-100.5102 347.0841,-108.7016 350.7257,-102.7234"/>
</g>
<!-- &#45;10 -->
<g id="node10" class="node">
<title>&#45;10</title>
<polygon fill="#d3d3d3" stroke="#000000" points="107.5382,-177.8736 78.5382,-177.8736 78.5382,-159.8736 107.5382,-159.8736 107.5382,-177.8736"/>
<text text-anchor="middle" x="93.0382" y="-166.6736" font-family="Times,serif" font-size="9.00" fill="#000000">&#45;10</text>
</g>
<!-- &#45;10&#45;&gt;608 -->
<g id="edge45" class="edge">
<title>&#45;10&#45;&gt;608</title>
<path fill="none" stroke="#ff0000" stroke-width=".2798" d="M99.1808,-159.625C103.2912,-154.2088 109.1923,-147.7419 116.0382,-144.1249 210.6285,-94.1488 254.8002,-148.0845 354.0382,-108.1249 355.6654,-107.4697 357.2892,-106.7104 358.8916,-105.8771"/>
<polygon fill="#ff0000" stroke="#ff0000" stroke-width=".2798" points="360.9919,-108.6958 367.7085,-100.502 357.3482,-102.7189 360.9919,-108.6958"/>
</g>
<!-- &#45;10&#45;&gt;611 -->
<g id="edge47" class="edge">
<title>&#45;10&#45;&gt;611</title>
<path fill="none" stroke="#ff0000" stroke-width=".2398" d="M99.1432,-159.5526C103.2396,-154.1092 109.139,-147.6391 116.0382,-144.1249 234.9126,-83.574 289.5554,-156.0997 414.0382,-108.1249 415.675,-107.4941 417.3064,-106.754 418.9145,-105.9354"/>
<polygon fill="#ff0000" stroke="#ff0000" stroke-width=".2398" points="420.996,-108.7672 427.7481,-100.6027 417.3783,-102.7745 420.996,-108.7672"/>
</g>
<!-- &#45;10&#45;&gt;609 -->
<g id="edge46" class="edge">
<title>&#45;10&#45;&gt;609</title>
<path fill="none" stroke="#ff0000" stroke-width=".3979" d="M99.8763,-159.6576C104.0723,-154.5231 109.8223,-148.336 116.0382,-144.1249 152.8183,-119.2076 201.992,-102.9791 233.3483,-94.3806"/>
<polygon fill="#ff0000" stroke="#ff0000" stroke-width=".3979" points="234.4855,-97.7001 243.2555,-91.7555 232.6926,-90.9336 234.4855,-97.7001"/>
</g>
<!-- &#45;10&#45;&gt;612 -->
<g id="edge48" class="edge">
<title>&#45;10&#45;&gt;612</title>
<path fill="none" stroke="#00ff00" stroke-width=".1234" d="M99.1187,-159.5039C103.2059,-154.0422 109.1042,-147.5699 116.0382,-144.1249 259.25,-72.972 324.2548,-164.1365 474.0382,-108.1249 475.6812,-107.5105 477.3175,-106.7833 478.9294,-105.9746"/>
<polygon fill="#00ff00" stroke="#00ff00" stroke-width=".1234" points="480.998,-108.8152 487.7738,-100.6703 477.3977,-102.812 480.998,-108.8152"/>
</g>
<!-- &#45;10&#45;&gt;613 -->
<g id="edge49" class="edge">
<title>&#45;10&#45;&gt;613</title>
<path fill="none" stroke="#ff0000" stroke-width=".4532" d="M99.2451,-159.7433C103.3799,-154.3716 109.2838,-147.9099 116.0382,-144.1249 186.4491,-104.6677 219.9351,-140.1139 294.0382,-108.1249 295.6084,-107.447 297.1789,-106.6785 298.7322,-105.8456"/>
<polygon fill="#ff0000" stroke="#ff0000" stroke-width=".4532" points="300.6414,-108.7804 307.3216,-100.5569 296.9712,-102.8197 300.6414,-108.7804"/>
</g>
<!-- &#45;11 -->
<g id="node11" class="node">
<title>&#45;11</title>
<polygon fill="#d3d3d3" stroke="#000000" points="154.5382,-177.8736 125.5382,-177.8736 125.5382,-159.8736 154.5382,-159.8736 154.5382,-177.8736"/>
<text text-anchor="middle" x="140.0382" y="-166.6736" font-family="Times,serif" font-size="9.00" fill="#000000">&#45;11</text>
</g>
<!-- &#45;11&#45;&gt;608 -->
<g id="edge50" class="edge">
<title>&#45;11&#45;&gt;608</title>
<path fill="none" stroke="#00ff00" stroke-width=".434" d="M146.2276,-159.7117C150.3557,-154.3281 156.2588,-147.8651 163.0382,-144.1249 238.6743,-102.3961 274.5035,-141.8349 354.0382,-108.1249 355.6129,-107.4575 357.1869,-106.6971 358.7429,-105.8707"/>
<polygon fill="#00ff00" stroke="#00ff00" stroke-width=".434" points="360.6436,-108.8109 367.3404,-100.6009 356.9854,-102.8428 360.6436,-108.8109"/>
</g>
<!-- &#45;11&#45;&gt;611 -->
<g id="edge52" class="edge">
<title>&#45;11&#45;&gt;611</title>
<path fill="none" stroke="#ff0000" stroke-width=".5" d="M146.171,-159.6065C150.2778,-154.1833 156.1785,-147.7156 163.0382,-144.1249 262.8836,-91.8609 309.3372,-149.8185 414.0382,-108.1249 415.6679,-107.4759 417.2937,-106.7216 418.8975,-105.892"/>
<polygon fill="#ff0000" stroke="#ff0000" stroke-width=".5" points="420.9931,-108.7141 427.7188,-100.5278 417.356,-102.7331 420.9931,-108.7141"/>
</g>
<!-- &#45;11&#45;&gt;609 -->
<g id="edge51" class="edge">
<title>&#45;11&#45;&gt;609</title>
<path fill="none" stroke="#00ff00" stroke-width=".1092" d="M147.5252,-159.516C151.7567,-154.5816 157.3313,-148.6342 163.0382,-144.1249 185.5262,-126.3561 214.1995,-110.6724 235.2452,-100.241"/>
<polygon fill="#00ff00" stroke="#00ff00" stroke-width=".1092" points="236.8626,-103.3465 244.3286,-95.8292 233.8043,-97.0499 236.8626,-103.3465"/>
</g>
<!-- &#45;11&#45;&gt;612 -->
<g id="edge53" class="edge">
<title>&#45;11&#45;&gt;612</title>
<path fill="none" stroke="#ff0000" stroke-width=".3351" d="M146.1371,-159.5405C150.2311,-154.0926 156.1303,-147.6219 163.0382,-144.1249 287.1822,-81.2787 344.0773,-157.8396 474.0382,-108.1249 475.6766,-107.4981 477.3092,-106.7613 478.9183,-105.9451"/>
<polygon fill="#ff0000" stroke="#ff0000" stroke-width=".3351" points="480.9966,-108.7791 487.7546,-100.6195 477.3832,-102.7838 480.9966,-108.7791"/>
</g>
<!-- &#45;11&#45;&gt;613 -->
<g id="edge54" class="edge">
<title>&#45;11&#45;&gt;613</title>
<path fill="none" stroke="#00ff00" stroke-width=".1515" d="M146.7232,-159.4189C150.8682,-154.205 156.6182,-148.0178 163.0382,-144.1249 214.6683,-112.8174 239.4559,-133.9436 294.0382,-108.1249 295.5843,-107.3936 297.1356,-106.5827 298.6741,-105.717"/>
<polygon fill="#00ff00" stroke="#00ff00" stroke-width=".1515" points="300.6257,-108.6242 307.2195,-100.3313 296.8934,-102.7022 300.6257,-108.6242"/>
</g>
<!-- &#45;12 -->
<g id="node12" class="node">
<title>&#45;12</title>
<polygon fill="#d3d3d3" stroke="#000000" points="201.5382,-177.8736 172.5382,-177.8736 172.5382,-159.8736 201.5382,-159.8736 201.5382,-177.8736"/>
<text text-anchor="middle" x="187.0382" y="-166.6736" font-family="Times,serif" font-size="9.00" fill="#000000">&#45;12</text>
</g>
<!-- &#45;12&#45;&gt;608 -->
<g id="edge55" class="edge">
<title>&#45;12&#45;&gt;608</title>
<path fill="none" stroke="#ff0000" stroke-width=".5" d="M195.9045,-159.4381C201.2766,-154.2305 208.5266,-148.0434 216.0382,-144.1249 272.237,-114.8082 296.5642,-134.8554 354.0382,-108.1249 355.589,-107.4036 357.144,-106.6007 358.6854,-105.7412"/>
<polygon fill="#ff0000" stroke="#ff0000" stroke-width=".5" points="360.6292,-108.6536 367.2395,-100.3738 356.9086,-102.7242 360.6292,-108.6536"/>
</g>
<!-- &#45;12&#45;&gt;611 -->
<g id="edge57" class="edge">
<title>&#45;12&#45;&gt;611</title>
<path fill="none" stroke="#ff0000" stroke-width=".4979" d="M201.5753,-162.2775C213.9871,-156.8391 232.4162,-149.2176 249.0382,-144.1249 320.8038,-122.137 345.3554,-138.3979 414.0382,-108.1249 415.6032,-107.4351 417.1695,-106.657 418.7197,-105.8169"/>
<polygon fill="#ff0000" stroke="#ff0000" stroke-width=".4979" points="420.6385,-108.7454 427.2996,-100.5064 416.9544,-102.7933 420.6385,-108.7454"/>
</g>
<!-- &#45;12&#45;&gt;609 -->
<g id="edge56" class="edge">
<title>&#45;12&#45;&gt;609</title>
<path fill="none" stroke="#ff0000" stroke-width=".2475" d="M195.5727,-159.7891C206.7444,-147.8975 226.7257,-126.6286 242.2292,-110.1261"/>
<polygon fill="#ff0000" stroke="#ff0000" stroke-width=".2475" points="245.1259,-112.1544 249.422,-102.4697 240.0241,-107.3615 245.1259,-112.1544"/>
</g>
<!-- &#45;12&#45;&gt;612 -->
<g id="edge58" class="edge">
<title>&#45;12&#45;&gt;612</title>
<path fill="none" stroke="#00ff00" stroke-width=".5" d="M202.0031,-161.8119C214.3646,-156.2461 232.5032,-148.6873 249.0382,-144.1249 346.662,-117.1882 380.2584,-146.3525 474.0382,-108.1249 475.6626,-107.4627 477.2842,-106.698 478.8848,-105.8605"/>
<polygon fill="#00ff00" stroke="#00ff00" stroke-width=".5" points="480.9905,-108.6755 487.6969,-100.4734 477.3393,-102.7031 480.9905,-108.6755"/>
</g>
<!-- &#45;12&#45;&gt;613 -->
<g id="edge59" class="edge">
<title>&#45;12&#45;&gt;613</title>
<path fill="none" stroke="#ff0000" stroke-width=".1507" d="M196.4442,-159.6878C201.8794,-154.687 209.0144,-148.6214 216.0382,-144.1249 248.1943,-123.5394 260.9792,-127.2267 294.0382,-108.1249 295.5191,-107.2692 297.0189,-106.3601 298.5173,-105.4181"/>
<polygon fill="#ff0000" stroke="#ff0000" stroke-width=".1507" points="300.5608,-108.2624 306.9445,-99.8066 296.681,-102.4359 300.5608,-108.2624"/>
</g>
<!-- &#45;13 -->
<g id="node13" class="node">
<title>&#45;13</title>
<polygon fill="#d3d3d3" stroke="#000000" points="287.5382,-177.8736 258.5382,-177.8736 258.5382,-159.8736 287.5382,-159.8736 287.5382,-177.8736"/>
<text text-anchor="middle" x="273.0382" y="-166.6736" font-family="Times,serif" font-size="9.00" fill="#000000">&#45;13</text>
</g>
<!-- &#45;13&#45;&gt;608 -->
<g id="edge60" class="edge">
<title>&#45;13&#45;&gt;608</title>
<path fill="none" stroke="#00ff00" stroke-width=".381" d="M280.5982,-159.6066C284.8511,-154.6986 290.4228,-148.7477 296.0382,-144.1249 319.4616,-124.8419 328.7518,-124.8907 354.0382,-108.1249 355.4636,-107.1798 356.9196,-106.1999 358.384,-105.2029"/>
<polygon fill="#00ff00" stroke="#00ff00" stroke-width=".381" points="360.4873,-108.0037 366.7106,-99.4292 356.4985,-102.2513 360.4873,-108.0037"/>
</g>
<!-- &#45;13&#45;&gt;611 -->
<g id="edge62" class="edge">
<title>&#45;13&#45;&gt;611</title>
<path fill="none" stroke="#ff0000" stroke-width=".1298" d="M279.7645,-159.4859C283.9232,-154.2943 289.6732,-148.1071 296.0382,-144.1249 342.5212,-115.0432 364.805,-132.2602 414.0382,-108.1249 415.5739,-107.372 417.117,-106.5442 418.6492,-105.6653"/>
<polygon fill="#ff0000" stroke="#ff0000" stroke-width=".1298" points="420.6174,-108.5614 427.1758,-100.2405 416.8599,-102.6554 420.6174,-108.5614"/>
</g>
<!-- &#45;13&#45;&gt;609 -->
<g id="edge61" class="edge">
<title>&#45;13&#45;&gt;609</title>
<path fill="none" stroke="#00ff00" stroke-width=".2557" d="M272.0406,-159.7891C270.9505,-149.8616 269.1428,-133.3987 267.521,-118.6296"/>
<polygon fill="#00ff00" stroke="#00ff00" stroke-width=".2557" points="270.9566,-117.8506 266.3859,-108.2924 263.9984,-118.6147 270.9566,-117.8506"/>
</g>
<!-- &#45;13&#45;&gt;612 -->
<g id="edge63" class="edge">
<title>&#45;13&#45;&gt;612</title>
<path fill="none" stroke="#00ff00" stroke-width=".1175" d="M279.2451,-159.7433C283.3799,-154.3716 289.2838,-147.9099 296.0382,-144.1249 366.4491,-104.6677 399.9351,-140.1139 474.0382,-108.1249 475.6084,-107.447 477.1789,-106.6785 478.7322,-105.8456"/>
<polygon fill="#00ff00" stroke="#00ff00" stroke-width=".1175" points="480.6414,-108.7804 487.3216,-100.5569 476.9712,-102.8197 480.6414,-108.7804"/>
</g>
<!-- &#45;13&#45;&gt;613 -->
<g id="edge64" class="edge">
<title>&#45;13&#45;&gt;613</title>
<path fill="none" stroke="#00ff00" stroke-width=".4554" d="M278.6909,-159.7891C285.5417,-148.7793 297.3941,-129.7312 307.2637,-113.87"/>
<polygon fill="#00ff00" stroke="#00ff00" stroke-width=".4554" points="310.4812,-115.3238 312.7927,-104.9842 304.5379,-111.6256 310.4812,-115.3238"/>
</g>
<!-- &#45;14 -->
<g id="node14" class="node">
<title>&#45;14</title>
<polygon fill="#d3d3d3" stroke="#000000" points="676.5382,-177.8736 647.5382,-177.8736 647.5382,-159.8736 676.5382,-159.8736 676.5382,-177.8736"/>
<text text-anchor="middle" x="662.0382" y="-166.6736" font-family="Times,serif" font-size="9.00" fill="#000000">&#45;14</text>
</g>
<!-- &#45;14&#45;&gt;608 -->
<g id="edge65" class="edge">
<title>&#45;14&#45;&gt;608</title>
<path fill="none" stroke="#00ff00" stroke-width=".3154" d="M655.5327,-159.6472C651.2075,-154.2394 645.0456,-147.7735 638.0382,-144.1249 548.6023,-97.5575 507.3984,-146.2193 414.0382,-108.1249 412.414,-107.4622 410.7926,-106.697 409.192,-105.8591"/>
<polygon fill="#00ff00" stroke="#00ff00" stroke-width=".3154" points="410.7377,-102.7018 400.3804,-100.4711 407.086,-108.6739 410.7377,-102.7018"/>
</g>
<!-- &#45;14&#45;&gt;611 -->
<g id="edge66" class="edge">
<title>&#45;14&#45;&gt;611</title>
<path fill="none" stroke="#ff0000" stroke-width=".3416" d="M655.4579,-159.7861C651.1045,-154.4305 644.9393,-147.9708 638.0382,-144.1249 572.8527,-107.7979 542.3045,-138.2661 474.0382,-108.1249 472.4736,-107.4341 470.9076,-106.6553 469.3577,-105.8145"/>
<polygon fill="#ff0000" stroke="#ff0000" stroke-width=".3416" points="471.1233,-102.7911 460.7786,-100.5023 467.4381,-108.7425 471.1233,-102.7911"/>
</g>
<!-- &#45;14&#45;&gt;612 -->
<g id="edge67" class="edge">
<title>&#45;14&#45;&gt;612</title>
<path fill="none" stroke="#00ff00" stroke-width=".3631" d="M654.7734,-159.7537C650.3518,-154.6514 644.3518,-148.4642 638.0382,-144.1249 605.5466,-121.7938 562.9488,-105.447 534.5943,-96.0752"/>
<polygon fill="#00ff00" stroke="#00ff00" stroke-width=".3631" points="535.4287,-92.6671 524.8374,-92.9399 533.2871,-99.3315 535.4287,-92.6671"/>
</g>
<!-- &#45;14&#45;&gt;613 -->
<g id="edge68" class="edge">
<title>&#45;14&#45;&gt;613</title>
<path fill="none" stroke="#ff0000" stroke-width=".1655" stroke-dasharray="1,5" d="M655.5748,-159.5649C651.2653,-154.126 645.1053,-147.6565 638.0382,-144.1249 524.2253,-87.2506 472.6242,-154.227 354.0382,-108.1249 352.4032,-107.4893 350.7733,-106.7454 349.1662,-105.9239"/>
<polygon fill="#ff0000" stroke="#ff0000" stroke-width=".1655" points="350.7039,-102.7635 340.3359,-100.5829 347.081,-108.7532 350.7039,-102.7635"/>
</g>
<!-- &#45;15 -->
<g id="node15" class="node">
<title>&#45;15</title>
<polygon fill="#d3d3d3" stroke="#000000" points="334.5382,-177.8736 305.5382,-177.8736 305.5382,-159.8736 334.5382,-159.8736 334.5382,-177.8736"/>
<text text-anchor="middle" x="320.0382" y="-166.6736" font-family="Times,serif" font-size="9.00" fill="#000000">&#45;15</text>
</g>
<!-- &#45;15&#45;&gt;608 -->
<g id="edge69" class="edge">
<title>&#45;15&#45;&gt;608</title>
<path fill="none" stroke="#ff0000" stroke-width=".2524" d="M327.1318,-159.7891C336.1113,-148.2895 351.9381,-128.0208 364.625,-111.7733"/>
<polygon fill="#ff0000" stroke="#ff0000" stroke-width=".2524" points="367.5244,-113.7471 370.9203,-103.7112 362.0071,-109.4389 367.5244,-113.7471"/>
</g>
<!-- &#45;15&#45;&gt;611 -->
<g id="edge71" class="edge">
<title>&#45;15&#45;&gt;611</title>
<path fill="none" stroke="#ff0000" stroke-width=".2823" d="M327.845,-159.4445C332.2588,-154.4891 338.076,-148.5444 344.0382,-144.1249 372.1431,-123.2919 384.1266,-126.2687 414.0382,-108.1249 415.5005,-107.2379 416.9856,-106.3039 418.4727,-105.3427"/>
<polygon fill="#ff0000" stroke="#ff0000" stroke-width=".2823" points="420.5377,-108.1715 426.8662,-99.6744 416.6201,-102.3704 420.5377,-108.1715"/>
</g>
<!-- &#45;15&#45;&gt;609 -->
<g id="edge70" class="edge">
<title>&#45;15&#45;&gt;609</title>
<path fill="none" stroke="#00ff00" stroke-width=".4012" d="M313.8312,-159.7891C306.1905,-148.606 292.8835,-129.1298 281.9474,-113.1237"/>
<polygon fill="#00ff00" stroke="#00ff00" stroke-width=".4012" points="284.698,-110.9454 276.1667,-104.6631 278.9183,-114.8944 284.698,-110.9454"/>
</g>
<!-- &#45;15&#45;&gt;612 -->
<g id="edge72" class="edge">
<title>&#45;15&#45;&gt;612</title>
<path fill="none" stroke="#ff0000" stroke-width=".5" d="M327.0966,-159.4309C331.4494,-154.221 337.4494,-148.0338 344.0382,-144.1249 395.5993,-113.5353 419.8684,-133.8136 474.0382,-108.1249 475.5835,-107.392 477.1343,-106.58 478.6723,-105.7134"/>
<polygon fill="#ff0000" stroke="#ff0000" stroke-width=".5" points="480.6252,-108.6198 487.2165,-100.3249 476.8911,-102.6989 480.6252,-108.6198"/>
</g>
<!-- &#45;15&#45;&gt;613 -->
<g id="edge73" class="edge">
<title>&#45;15&#45;&gt;613</title>
<path fill="none" stroke="#ff0000" stroke-width=".5" d="M320.4815,-159.7891C320.966,-149.8616 321.7695,-133.3987 322.4902,-118.6296"/>
<polygon fill="#ff0000" stroke="#ff0000" stroke-width=".5" points="326.003,-118.4511 322.9947,-108.2924 319.0113,-118.1098 326.003,-118.4511"/>
</g>
<!-- 0 -->
<g id="node16" class="node">
<title>0</title>
<ellipse fill="#add8e6" stroke="#000000" cx="438.0382" cy="-14.8492" rx="14.7" ry="14.7"/>
<text text-anchor="middle" x="438.0382" y="-12.6492" font-family="Times,serif" font-size="9.00" fill="#000000">0</text>
</g>
<!-- 1 -->
<g id="node17" class="node">
<title>1</title>
<ellipse fill="#add8e6" stroke="#000000" cx="384.0382" cy="-14.8492" rx="14.7" ry="14.7"/>
<text text-anchor="middle" x="384.0382" y="-12.6492" font-family="Times,serif" font-size="9.00" fill="#000000">1</text>
</g>
<!-- 608&#45;&gt;0 -->
<g id="edge74" class="edge">
<title>608&#45;&gt;0</title>
<path fill="none" stroke="#ff0000" stroke-width=".5" d="M396.8354,-69.8339C404.6121,-59.456 414.5863,-46.1455 422.7732,-35.2201"/>
<polygon fill="#ff0000" stroke="#ff0000" stroke-width=".5" points="425.6839,-37.1725 428.8797,-27.0711 420.0821,-32.9748 425.6839,-37.1725"/>
</g>
<!-- 608&#45;&gt;1 -->
<g id="edge75" class="edge">
<title>608&#45;&gt;1</title>
<path fill="none" stroke="#ff0000" stroke-width=".5" d="M384.0382,-65.6803C384.0382,-57.713 384.0382,-48.5771 384.0382,-40.2679"/>
<polygon fill="#ff0000" stroke="#ff0000" stroke-width=".5" points="387.5383,-39.9888 384.0382,-29.9888 380.5383,-39.9889 387.5383,-39.9888"/>
</g>
<!-- 611&#45;&gt;0 -->
<g id="edge78" class="edge">
<title>611&#45;&gt;0</title>
<path fill="none" stroke="#ff0000" stroke-width=".1359" d="M442.2704,-65.6803C441.5996,-57.6235 440.8293,-48.3716 440.1313,-39.9882"/>
<polygon fill="#ff0000" stroke="#ff0000" stroke-width=".1359" points="443.6165,-39.6639 439.2987,-29.9888 436.6406,-40.2448 443.6165,-39.6639"/>
</g>
<!-- 611&#45;&gt;1 -->
<g id="edge79" class="edge">
<title>611&#45;&gt;1</title>
<path fill="none" stroke="#00ff00" stroke-width=".1165" d="M430.4232,-70.5596C421.4088,-59.7329 409.5473,-45.4867 400.0757,-34.1109"/>
<polygon fill="#00ff00" stroke="#00ff00" stroke-width=".1165" points="402.7645,-31.8703 393.6761,-26.4248 397.385,-36.3493 402.7645,-31.8703"/>
</g>
<!-- 609&#45;&gt;0 -->
<g id="edge76" class="edge">
<title>609&#45;&gt;0</title>
<path fill="none" stroke="#ff0000" stroke-width=".3333" d="M280.9161,-73.6145C285.0554,-70.7437 289.5813,-67.9104 294.0382,-65.6985 341.6321,-42.0779 358.7498,-49.5422 408.0382,-29.6985 410.5786,-28.6757 413.2004,-27.5263 415.7874,-26.3315"/>
<polygon fill="#ff0000" stroke="#ff0000" stroke-width=".3333" points="417.3355,-29.4706 424.7985,-21.9503 414.2747,-23.1752 417.3355,-29.4706"/>
</g>
<!-- 609&#45;&gt;1 -->
<g id="edge77" class="edge">
<title>609&#45;&gt;1</title>
<path fill="none" stroke="#00ff00" stroke-width=".3645" d="M281.2848,-74.2694C285.4089,-71.3717 289.8356,-68.362 294.0382,-65.6985 316.5243,-51.4475 343.17,-36.6387 361.6047,-26.7034"/>
<polygon fill="#00ff00" stroke="#00ff00" stroke-width=".3645" points="363.5099,-29.6536 370.6766,-21.8504 360.208,-23.4813 363.5099,-29.6536"/>
</g>
<!-- 612&#45;&gt;0 -->
<g id="edge80" class="edge">
<title>612&#45;&gt;0</title>
<path fill="none" stroke="#00ff00" stroke-width=".4899" d="M489.3906,-70.9187C479.2698,-59.8682 465.7721,-45.1307 455.1549,-33.5382"/>
<polygon fill="#00ff00" stroke="#00ff00" stroke-width=".4899" points="457.6768,-31.1097 448.3416,-26.0991 452.5146,-35.8375 457.6768,-31.1097"/>
</g>
<!-- 612&#45;&gt;1 -->
<g id="edge81" class="edge">
<title>612&#45;&gt;1</title>
<path fill="none" stroke="#00ff00" stroke-width=".2804" stroke-dasharray="1,5" d="M486.7915,-74.2694C482.6674,-71.3717 478.2408,-68.362 474.0382,-65.6985 451.5521,-51.4475 424.9064,-36.6387 406.4717,-26.7034"/>
<polygon fill="#00ff00" stroke="#00ff00" stroke-width=".2804" points="407.8683,-23.4813 397.3997,-21.8504 404.5664,-29.6536 407.8683,-23.4813"/>
</g>
<!-- 613&#45;&gt;1 -->
<g id="edge82" class="edge">
<title>613&#45;&gt;1</title>
<path fill="none" stroke="#00ff00" stroke-width=".3141" d="M337.6531,-70.5596C346.6675,-59.7329 358.5291,-45.4867 368.0007,-34.1109"/>
<polygon fill="#00ff00" stroke="#00ff00" stroke-width=".3141" points="370.6913,-36.3493 374.4002,-26.4248 365.3119,-31.8703 370.6913,-36.3493"/>
</g>
<!-- 2343&#45;&gt;612 -->
<g id="edge84" class="edge">
<title>2343&#45;&gt;612</title>
<path fill="none" stroke="#ff0000" stroke-width=".1609" d="M737.6422,-154.2872C731.8295,-150.5921 725.3554,-146.8914 719.0382,-144.1249 656.5763,-116.771 578.018,-99.9358 535.2678,-92.1201"/>
<polygon fill="#ff0000" stroke="#ff0000" stroke-width=".1609" points="535.6611,-88.6352 525.2022,-90.3265 534.4331,-95.5266 535.6611,-88.6352"/>
</g>
</g>
</svg>
