<?xml version="1.0" encoding="UTF-8" standalone="no"?>
<!DOCTYPE svg PUBLIC "-//W3C//DTD SVG 1.1//EN"
 "http://www.w3.org/Graphics/SVG/1.1/DTD/svg11.dtd">
<!-- Generated by graphviz version 2.43.0 (0)
 -->
<!-- Title: %3 Pages: 1 -->
<svg width="695pt" height="282pt"
 viewBox="0.00 0.00 694.77 282.49" xmlns="http://www.w3.org/2000/svg" xmlns:xlink="http://www.w3.org/1999/xlink">
<g id="graph0" class="graph" transform="scale(1 1) rotate(0) translate(4 278.49)">
<title>%3</title>
<polygon fill="white" stroke="transparent" points="-4,4 -4,-278.49 690.77,-278.49 690.77,4 -4,4"/>
<!-- &#45;1 -->
<g id="node1" class="node">
<title>&#45;1</title>
<polygon fill="lightgray" stroke="black" points="120,-274.49 94,-274.49 94,-256.49 120,-256.49 120,-274.49"/>
<text text-anchor="middle" x="107" y="-263.29" font-family="Times,serif" font-size="9.00">&#45;1</text>
</g>
<!-- 1130 -->
<g id="node18" class="node">
<title>1130</title>
<ellipse fill="white" stroke="black" cx="240" cy="-191.5" rx="28.98" ry="28.98"/>
<text text-anchor="middle" x="240" y="-189.3" font-family="Times,serif" font-size="9.00">1130</text>
</g>
<!-- &#45;1&#45;&gt;1130 -->
<g id="edge1" class="edge">
<title>&#45;1&#45;&gt;1130</title>
<path fill="none" stroke="red" stroke-width="0.45" d="M120.24,-257.33C140.01,-246.62 177.92,-226.1 205.82,-211"/>
<polygon fill="red" stroke="red" stroke-width="0.45" points="207.72,-213.95 214.85,-206.11 204.39,-207.8 207.72,-213.95"/>
</g>
<!-- 1131 -->
<g id="node19" class="node">
<title>1131</title>
<ellipse fill="white" stroke="black" cx="430" cy="-191.5" rx="28.98" ry="28.98"/>
<text text-anchor="middle" x="430" y="-189.3" font-family="Times,serif" font-size="9.00">1131</text>
</g>
<!-- &#45;1&#45;&gt;1131 -->
<g id="edge2" class="edge">
<title>&#45;1&#45;&gt;1131</title>
<path fill="none" stroke="green" stroke-width="0.35" d="M120.37,-259.17C123.19,-258.18 126.17,-257.23 129,-256.49 227.03,-231.07 256.02,-246.11 354,-220.49 367.2,-217.04 381.32,-212.18 393.76,-207.48"/>
<polygon fill="green" stroke="green" stroke-width="0.35" points="395.26,-210.65 403.32,-203.77 392.73,-204.12 395.26,-210.65"/>
</g>
<!-- 1132 -->
<g id="node20" class="node">
<title>1132</title>
<ellipse fill="white" stroke="black" cx="544" cy="-191.5" rx="28.98" ry="28.98"/>
<text text-anchor="middle" x="544" y="-189.3" font-family="Times,serif" font-size="9.00">1132</text>
</g>
<!-- &#45;1&#45;&gt;1132 -->
<g id="edge3" class="edge">
<title>&#45;1&#45;&gt;1132</title>
<path fill="none" stroke="green" stroke-width="0.5" d="M120.34,-259.06C123.16,-258.07 126.15,-257.15 129,-256.49 276.62,-222.35 320.45,-254.94 468,-220.49 481.4,-217.36 495.66,-212.54 508.16,-207.77"/>
<polygon fill="green" stroke="green" stroke-width="0.5" points="509.74,-210.91 517.76,-203.99 507.17,-204.4 509.74,-210.91"/>
</g>
<!-- 1133 -->
<g id="node21" class="node">
<title>1133</title>
<ellipse fill="white" stroke="black" cx="316" cy="-191.5" rx="28.98" ry="28.98"/>
<text text-anchor="middle" x="316" y="-189.3" font-family="Times,serif" font-size="9.00">1133</text>
</g>
<!-- &#45;1&#45;&gt;1133 -->
<g id="edge4" class="edge">
<title>&#45;1&#45;&gt;1133</title>
<path fill="none" stroke="green" stroke-width="0.22" d="M120.42,-259.34C123.23,-258.34 126.2,-257.34 129,-256.49 194.23,-236.82 216.25,-249.26 278,-220.49 280.49,-219.33 282.98,-218 285.43,-216.55"/>
<polygon fill="green" stroke="green" stroke-width="0.22" points="287.56,-219.34 294.02,-210.95 283.74,-213.47 287.56,-219.34"/>
</g>
<!-- 1134 -->
<g id="node22" class="node">
<title>1134</title>
<ellipse fill="white" stroke="black" cx="411" cy="-97.52" rx="28.98" ry="28.98"/>
<text text-anchor="middle" x="411" y="-95.32" font-family="Times,serif" font-size="9.00">1134</text>
</g>
<!-- &#45;1&#45;&gt;1134 -->
<g id="edge5" class="edge">
<title>&#45;1&#45;&gt;1134</title>
<path fill="none" stroke="green" stroke-width="0.24" d="M93.8,-259.8C78.39,-253.53 53.67,-240.78 43,-220.49 31,-197.69 26.41,-182.23 43,-162.51 84.72,-112.9 285.69,-101.75 371.75,-99.24"/>
<polygon fill="green" stroke="green" stroke-width="0.24" points="372,-102.74 381.9,-98.97 371.81,-95.74 372,-102.74"/>
</g>
<!-- 1135 -->
<g id="node23" class="node">
<title>1135</title>
<ellipse fill="white" stroke="black" cx="126" cy="-191.5" rx="28.98" ry="28.98"/>
<text text-anchor="middle" x="126" y="-189.3" font-family="Times,serif" font-size="9.00">1135</text>
</g>
<!-- &#45;1&#45;&gt;1135 -->
<g id="edge6" class="edge">
<title>&#45;1&#45;&gt;1135</title>
<path fill="none" stroke="red" stroke-width="0.41" d="M109.18,-256.23C110.93,-249.59 113.53,-239.74 116.17,-229.76"/>
<polygon fill="red" stroke="red" stroke-width="0.41" points="119.62,-230.41 118.78,-219.85 112.85,-228.62 119.62,-230.41"/>
</g>
<!-- &#45;2 -->
<g id="node2" class="node">
<title>&#45;2</title>
<polygon fill="lightgray" stroke="black" points="252,-274.49 226,-274.49 226,-256.49 252,-256.49 252,-274.49"/>
<text text-anchor="middle" x="239" y="-263.29" font-family="Times,serif" font-size="9.00">&#45;2</text>
</g>
<!-- &#45;2&#45;&gt;1130 -->
<g id="edge7" class="edge">
<title>&#45;2&#45;&gt;1130</title>
<path fill="none" stroke="green" stroke-width="0.43" d="M239.11,-256.23C239.2,-249.77 239.34,-240.26 239.47,-230.56"/>
<polygon fill="green" stroke="green" stroke-width="0.43" points="242.97,-230.54 239.61,-220.5 235.97,-230.45 242.97,-230.54"/>
</g>
<!-- &#45;2&#45;&gt;1131 -->
<g id="edge8" class="edge">
<title>&#45;2&#45;&gt;1131</title>
<path fill="none" stroke="red" stroke-width="0.12" d="M252.13,-259.54C280.9,-248.7 350.39,-222.51 393.5,-206.26"/>
<polygon fill="red" stroke="red" stroke-width="0.12" points="394.94,-209.46 403.06,-202.65 392.47,-202.91 394.94,-209.46"/>
</g>
<!-- &#45;2&#45;&gt;1132 -->
<g id="edge9" class="edge">
<title>&#45;2&#45;&gt;1132</title>
<path fill="none" stroke="green" stroke-width="0.28" d="M252.38,-259.2C255.2,-258.21 258.17,-257.25 261,-256.49 351.23,-232.44 377.82,-244.73 468,-220.49 481.18,-216.95 495.29,-212.07 507.73,-207.38"/>
<polygon fill="green" stroke="green" stroke-width="0.28" points="509.23,-210.55 517.3,-203.68 506.71,-204.02 509.23,-210.55"/>
</g>
<!-- &#45;2&#45;&gt;1133 -->
<g id="edge10" class="edge">
<title>&#45;2&#45;&gt;1133</title>
<path fill="none" stroke="green" stroke-width="0.33" stroke-dasharray="1,5" d="M247.83,-256.23C257.5,-247.2 273.49,-232.24 287.56,-219.09"/>
<polygon fill="green" stroke="green" stroke-width="0.33" points="290.21,-221.4 295.13,-212.02 285.43,-216.29 290.21,-221.4"/>
</g>
<!-- &#45;2&#45;&gt;1134 -->
<g id="edge11" class="edge">
<title>&#45;2&#45;&gt;1134</title>
<path fill="none" stroke="green" stroke-width="0.46" d="M225.56,-259.42C222.75,-258.41 219.79,-257.39 217,-256.49 160.32,-238.31 123.99,-267.9 88,-220.49 72.42,-199.97 71.64,-182.42 88,-162.51 123.52,-119.26 293.64,-104.74 371.7,-100.3"/>
<polygon fill="green" stroke="green" stroke-width="0.46" points="372.28,-103.77 382.08,-99.73 371.9,-96.78 372.28,-103.77"/>
</g>
<!-- &#45;2&#45;&gt;1135 -->
<g id="edge12" class="edge">
<title>&#45;2&#45;&gt;1135</title>
<path fill="none" stroke="green" stroke-width="0.23" d="M226.06,-256.44C211.98,-247.67 188.83,-233.18 169,-220.49 165.64,-218.34 162.13,-216.08 158.64,-213.82"/>
<polygon fill="green" stroke="green" stroke-width="0.23" points="160.36,-210.77 150.06,-208.26 156.55,-216.64 160.36,-210.77"/>
</g>
<!-- &#45;3 -->
<g id="node3" class="node">
<title>&#45;3</title>
<polygon fill="lightgray" stroke="black" points="540,-274.49 514,-274.49 514,-256.49 540,-256.49 540,-274.49"/>
<text text-anchor="middle" x="527" y="-263.29" font-family="Times,serif" font-size="9.00">&#45;3</text>
</g>
<!-- &#45;3&#45;&gt;1130 -->
<g id="edge13" class="edge">
<title>&#45;3&#45;&gt;1130</title>
<path fill="none" stroke="red" stroke-width="0.49" d="M513.63,-259.17C510.81,-258.18 507.83,-257.22 505,-256.49 406.1,-230.92 372.24,-259.9 278,-220.49 275.47,-219.43 272.94,-218.17 270.47,-216.78"/>
<polygon fill="red" stroke="red" stroke-width="0.49" points="272.14,-213.69 261.83,-211.28 268.39,-219.6 272.14,-213.69"/>
</g>
<!-- &#45;3&#45;&gt;1131 -->
<g id="edge14" class="edge">
<title>&#45;3&#45;&gt;1131</title>
<path fill="none" stroke="red" stroke-width="0.41" d="M515.87,-256.23C502.67,-246.43 480.08,-229.67 461.39,-215.8"/>
<polygon fill="red" stroke="red" stroke-width="0.41" points="463.24,-212.81 453.12,-209.66 459.07,-218.43 463.24,-212.81"/>
</g>
<!-- &#45;3&#45;&gt;1132 -->
<g id="edge15" class="edge">
<title>&#45;3&#45;&gt;1132</title>
<path fill="none" stroke="red" stroke-width="0.44" d="M528.95,-256.23C530.52,-249.59 532.85,-239.74 535.2,-229.76"/>
<polygon fill="red" stroke="red" stroke-width="0.44" points="538.65,-230.38 537.54,-219.85 531.84,-228.77 538.65,-230.38"/>
</g>
<!-- &#45;3&#45;&gt;1133 -->
<g id="edge16" class="edge">
<title>&#45;3&#45;&gt;1133</title>
<path fill="none" stroke="green" stroke-width="0.13" d="M513.53,-259.5C510.72,-258.48 507.77,-257.44 505,-256.49 455.11,-239.48 441.85,-237.61 392,-220.49 379.09,-216.06 365.05,-210.97 352.58,-206.35"/>
<polygon fill="green" stroke="green" stroke-width="0.13" points="353.57,-202.98 342.98,-202.77 351.13,-209.54 353.57,-202.98"/>
</g>
<!-- &#45;3&#45;&gt;1134 -->
<g id="edge17" class="edge">
<title>&#45;3&#45;&gt;1134</title>
<path fill="none" stroke="red" stroke-width="0.29" d="M540.29,-259.13C564.87,-249.08 615.39,-227.77 620,-220.49 633.79,-198.72 635.32,-183.23 620,-162.51 581,-109.78 499.41,-99.08 450.51,-97.7"/>
<polygon fill="red" stroke="red" stroke-width="0.29" points="450.35,-94.19 440.3,-97.53 450.24,-101.19 450.35,-94.19"/>
</g>
<!-- &#45;3&#45;&gt;1135 -->
<g id="edge18" class="edge">
<title>&#45;3&#45;&gt;1135</title>
<path fill="none" stroke="green" stroke-width="0.19" d="M513.65,-259.08C510.83,-258.1 507.85,-257.17 505,-256.49 373.07,-225.11 333.87,-252.14 202,-220.49 188.62,-217.28 174.37,-212.44 161.86,-207.67"/>
<polygon fill="green" stroke="green" stroke-width="0.19" points="162.85,-204.3 152.26,-203.91 160.29,-210.82 162.85,-204.3"/>
</g>
<!-- &#45;4 -->
<g id="node4" class="node">
<title>&#45;4</title>
<polygon fill="lightgray" stroke="black" points="584,-274.49 558,-274.49 558,-256.49 584,-256.49 584,-274.49"/>
<text text-anchor="middle" x="571" y="-263.29" font-family="Times,serif" font-size="9.00">&#45;4</text>
</g>
<!-- &#45;4&#45;&gt;1130 -->
<g id="edge19" class="edge">
<title>&#45;4&#45;&gt;1130</title>
<path fill="none" stroke="green" stroke-width="0.32" d="M557.65,-259.11C554.83,-258.13 551.84,-257.19 549,-256.49 430.99,-227.56 390.68,-265.95 278,-220.49 275.29,-219.4 272.6,-218.07 269.98,-216.59"/>
<polygon fill="green" stroke="green" stroke-width="0.32" points="271.69,-213.53 261.38,-211.1 267.92,-219.43 271.69,-213.53"/>
</g>
<!-- &#45;4&#45;&gt;1131 -->
<g id="edge20" class="edge">
<title>&#45;4&#45;&gt;1131</title>
<path fill="none" stroke="green" stroke-width="0.28" d="M557.99,-257.85C536.92,-247.09 494.66,-225.51 464.46,-210.1"/>
<polygon fill="green" stroke="green" stroke-width="0.28" points="466.01,-206.96 455.51,-205.53 462.83,-213.19 466.01,-206.96"/>
</g>
<!-- &#45;4&#45;&gt;1132 -->
<g id="edge21" class="edge">
<title>&#45;4&#45;&gt;1132</title>
<path fill="none" stroke="green" stroke-width="0.16" d="M567.9,-256.23C565.29,-249.28 561.37,-238.82 557.45,-228.37"/>
<polygon fill="green" stroke="green" stroke-width="0.16" points="560.68,-227.01 553.89,-218.88 554.13,-229.47 560.68,-227.01"/>
</g>
<!-- &#45;4&#45;&gt;1133 -->
<g id="edge22" class="edge">
<title>&#45;4&#45;&gt;1133</title>
<path fill="none" stroke="red" stroke-width="0.13" d="M557.59,-259.32C554.77,-258.32 551.81,-257.32 549,-256.49 480.34,-236.22 460.62,-240.9 392,-220.49 378.92,-216.6 364.83,-211.64 352.38,-206.97"/>
<polygon fill="red" stroke="red" stroke-width="0.13" points="353.39,-203.61 342.8,-203.32 350.9,-210.15 353.39,-203.61"/>
</g>
<!-- &#45;4&#45;&gt;1134 -->
<g id="edge23" class="edge">
<title>&#45;4&#45;&gt;1134</title>
<path fill="none" stroke="red" stroke-width="0.35" d="M584.12,-257.95C602.14,-248.65 632.99,-231.55 639,-220.49 651.32,-197.86 654.57,-183.05 639,-162.51 616.22,-132.45 508.97,-112.61 450.04,-103.78"/>
<polygon fill="red" stroke="red" stroke-width="0.35" points="450.37,-100.29 439.97,-102.31 449.36,-107.22 450.37,-100.29"/>
</g>
<!-- &#45;4&#45;&gt;1135 -->
<g id="edge24" class="edge">
<title>&#45;4&#45;&gt;1135</title>
<path fill="none" stroke="red" stroke-width="0.34" d="M557.66,-259.05C554.84,-258.07 551.85,-257.15 549,-256.49 397.9,-221.74 353.03,-255.56 202,-220.49 188.6,-217.38 174.34,-212.56 161.84,-207.79"/>
<polygon fill="red" stroke="red" stroke-width="0.34" points="162.82,-204.42 152.23,-204.01 160.26,-210.93 162.82,-204.42"/>
</g>
<!-- &#45;5 -->
<g id="node5" class="node">
<title>&#45;5</title>
<polygon fill="lightgray" stroke="black" points="76,-274.49 50,-274.49 50,-256.49 76,-256.49 76,-274.49"/>
<text text-anchor="middle" x="63" y="-263.29" font-family="Times,serif" font-size="9.00">&#45;5</text>
</g>
<!-- &#45;5&#45;&gt;1130 -->
<g id="edge25" class="edge">
<title>&#45;5&#45;&gt;1130</title>
<path fill="none" stroke="green" stroke-width="0.35" d="M76.02,-259.2C102.71,-248.34 164.5,-223.21 204.14,-207.09"/>
<polygon fill="green" stroke="green" stroke-width="0.35" points="205.52,-210.3 213.46,-203.29 202.88,-203.82 205.52,-210.3"/>
</g>
<!-- &#45;5&#45;&gt;1131 -->
<g id="edge26" class="edge">
<title>&#45;5&#45;&gt;1131</title>
<path fill="none" stroke="green" stroke-width="0.37" d="M76.35,-259.12C79.17,-258.13 82.16,-257.19 85,-256.49 202.14,-227.71 236.92,-249.51 354,-220.49 367.35,-217.18 381.6,-212.31 394.11,-207.56"/>
<polygon fill="green" stroke="green" stroke-width="0.37" points="395.68,-210.71 403.72,-203.81 393.13,-204.19 395.68,-210.71"/>
</g>
<!-- &#45;5&#45;&gt;1132 -->
<g id="edge27" class="edge">
<title>&#45;5&#45;&gt;1132</title>
<path fill="none" stroke="red" stroke-width="0.12" d="M76.33,-259.03C79.16,-258.05 82.15,-257.13 85,-256.49 251.81,-218.97 301.27,-258.35 468,-220.49 481.42,-217.45 495.68,-212.64 508.18,-207.86"/>
<polygon fill="red" stroke="red" stroke-width="0.12" points="509.76,-211 517.78,-204.07 507.19,-204.49 509.76,-211"/>
</g>
<!-- &#45;5&#45;&gt;1133 -->
<g id="edge28" class="edge">
<title>&#45;5&#45;&gt;1133</title>
<path fill="none" stroke="red" stroke-width="0.36" d="M76.38,-259.23C79.2,-258.23 82.18,-257.26 85,-256.49 169.17,-233.51 197.96,-255.25 278,-220.49 280.52,-219.4 283.03,-218.11 285.49,-216.7"/>
<polygon fill="red" stroke="red" stroke-width="0.36" points="287.59,-219.51 294.12,-211.17 283.82,-213.62 287.59,-219.51"/>
</g>
<!-- &#45;5&#45;&gt;1134 -->
<g id="edge29" class="edge">
<title>&#45;5&#45;&gt;1134</title>
<path fill="none" stroke="red" stroke-width="0.16" d="M54.03,-256.43C45.72,-248.3 33.93,-234.93 29,-220.49 20.68,-196.1 12.35,-182.18 29,-162.51 72.68,-110.91 283.41,-100.89 371.83,-98.97"/>
<polygon fill="red" stroke="red" stroke-width="0.16" points="372.05,-102.46 381.98,-98.77 371.92,-95.46 372.05,-102.46"/>
</g>
<!-- &#45;5&#45;&gt;1135 -->
<g id="edge30" class="edge">
<title>&#45;5&#45;&gt;1135</title>
<path fill="none" stroke="green" stroke-width="0.24" d="M70.23,-256.23C77.67,-247.73 89.69,-233.99 100.68,-221.44"/>
<polygon fill="green" stroke="green" stroke-width="0.24" points="103.38,-223.67 107.33,-213.84 98.11,-219.06 103.38,-223.67"/>
</g>
<!-- &#45;6 -->
<g id="node6" class="node">
<title>&#45;6</title>
<polygon fill="lightgray" stroke="black" points="678,-274.49 652,-274.49 652,-256.49 678,-256.49 678,-274.49"/>
<text text-anchor="middle" x="665" y="-263.29" font-family="Times,serif" font-size="9.00">&#45;6</text>
</g>
<!-- &#45;6&#45;&gt;1130 -->
<g id="edge31" class="edge">
<title>&#45;6&#45;&gt;1130</title>
<path fill="none" stroke="red" stroke-width="0.23" d="M651.66,-259.04C648.84,-258.06 645.85,-257.14 643,-256.49 484.05,-220.36 430.18,-278.92 278,-220.49 275.27,-219.45 272.57,-218.15 269.94,-216.69"/>
<polygon fill="red" stroke="red" stroke-width="0.23" points="271.64,-213.63 261.32,-211.25 267.9,-219.55 271.64,-213.63"/>
</g>
<!-- &#45;6&#45;&gt;1131 -->
<g id="edge32" class="edge">
<title>&#45;6&#45;&gt;1131</title>
<path fill="none" stroke="red" stroke-width="0.21" d="M651.57,-259.39C648.76,-258.38 645.79,-257.37 643,-256.49 582.91,-237.72 566.05,-239.39 506,-220.49 492.98,-216.4 478.91,-211.38 466.46,-206.74"/>
<polygon fill="red" stroke="red" stroke-width="0.21" points="467.46,-203.37 456.87,-203.11 464.98,-209.92 467.46,-203.37"/>
</g>
<!-- &#45;6&#45;&gt;1132 -->
<g id="edge33" class="edge">
<title>&#45;6&#45;&gt;1132</title>
<path fill="none" stroke="red" stroke-width="0.3" d="M651.59,-256.51C633.83,-245.95 601.92,-226.96 577.44,-212.4"/>
<polygon fill="red" stroke="red" stroke-width="0.3" points="579.18,-209.36 568.8,-207.26 575.61,-215.38 579.18,-209.36"/>
</g>
<!-- &#45;6&#45;&gt;1133 -->
<g id="edge34" class="edge">
<title>&#45;6&#45;&gt;1133</title>
<path fill="none" stroke="green" stroke-width="0.5" d="M651.64,-259.14C648.82,-258.15 645.84,-257.2 643,-256.49 533.69,-229.09 501.26,-248.12 392,-220.49 378.66,-217.12 364.42,-212.24 351.91,-207.49"/>
<polygon fill="green" stroke="green" stroke-width="0.5" points="352.89,-204.11 342.3,-203.74 350.34,-210.64 352.89,-204.11"/>
</g>
<!-- &#45;6&#45;&gt;1134 -->
<g id="edge35" class="edge">
<title>&#45;6&#45;&gt;1134</title>
<path fill="none" stroke="green" stroke-width="0.23" stroke-dasharray="1,5" d="M669.37,-256.29C678.73,-237.46 698.14,-190.63 676,-162.51 648.35,-127.39 517.22,-109.26 450.38,-102.16"/>
<polygon fill="green" stroke="green" stroke-width="0.23" points="450.54,-98.66 440.23,-101.12 449.82,-105.62 450.54,-98.66"/>
</g>
<!-- &#45;6&#45;&gt;1135 -->
<g id="edge36" class="edge">
<title>&#45;6&#45;&gt;1135</title>
<path fill="none" stroke="green" stroke-width="0.11" d="M651.67,-259C648.85,-258.02 645.86,-257.12 643,-256.49 450.88,-214.52 394.03,-262.86 202,-220.49 188.57,-217.53 174.3,-212.74 161.8,-207.96"/>
<polygon fill="green" stroke="green" stroke-width="0.11" points="162.79,-204.58 152.2,-204.16 160.21,-211.09 162.79,-204.58"/>
</g>
<!-- &#45;7 -->
<g id="node7" class="node">
<title>&#45;7</title>
<polygon fill="lightgray" stroke="black" points="164,-274.49 138,-274.49 138,-256.49 164,-256.49 164,-274.49"/>
<text text-anchor="middle" x="151" y="-263.29" font-family="Times,serif" font-size="9.00">&#45;7</text>
</g>
<!-- &#45;7&#45;&gt;1130 -->
<g id="edge37" class="edge">
<title>&#45;7&#45;&gt;1130</title>
<path fill="none" stroke="green" stroke-width="0.39" d="M161.21,-256.23C172.98,-246.71 192.88,-230.62 209.73,-216.99"/>
<polygon fill="green" stroke="green" stroke-width="0.39" points="212.13,-219.54 217.71,-210.53 207.73,-214.1 212.13,-219.54"/>
</g>
<!-- &#45;7&#45;&gt;1131 -->
<g id="edge38" class="edge">
<title>&#45;7&#45;&gt;1131</title>
<path fill="none" stroke="green" stroke-width="0.22" d="M164.39,-259.26C167.21,-258.26 170.18,-257.28 173,-256.49 251.99,-234.41 275.05,-242.73 354,-220.49 367.14,-216.79 381.23,-211.87 393.68,-207.19"/>
<polygon fill="green" stroke="green" stroke-width="0.22" points="395.17,-210.37 403.25,-203.52 392.66,-203.83 395.17,-210.37"/>
</g>
<!-- &#45;7&#45;&gt;1132 -->
<g id="edge39" class="edge">
<title>&#45;7&#45;&gt;1132</title>
<path fill="none" stroke="green" stroke-width="0.25" d="M164.35,-259.09C167.17,-258.11 170.15,-257.17 173,-256.49 301.45,-225.72 339.61,-251.52 468,-220.49 481.37,-217.26 495.63,-212.41 508.13,-207.65"/>
<polygon fill="green" stroke="green" stroke-width="0.25" points="509.7,-210.79 517.74,-203.89 507.15,-204.28 509.7,-210.79"/>
</g>
<!-- &#45;7&#45;&gt;1133 -->
<g id="edge40" class="edge">
<title>&#45;7&#45;&gt;1133</title>
<path fill="none" stroke="green" stroke-width="0.15" d="M164.01,-259.71C166.97,-258.64 170.09,-257.52 173,-256.49 219.52,-240.06 234.3,-243.39 278,-220.49 280.43,-219.22 282.88,-217.8 285.3,-216.29"/>
<polygon fill="green" stroke="green" stroke-width="0.15" points="287.48,-219.04 293.83,-210.56 283.58,-213.23 287.48,-219.04"/>
</g>
<!-- &#45;7&#45;&gt;1134 -->
<g id="edge41" class="edge">
<title>&#45;7&#45;&gt;1134</title>
<path fill="none" stroke="green" stroke-width="0.1" d="M137.71,-259.13C113.13,-249.08 62.61,-227.77 58,-220.49 44.21,-198.72 41.48,-182.29 58,-162.51 97.67,-115 288.51,-102.69 371.89,-99.56"/>
<polygon fill="green" stroke="green" stroke-width="0.1" points="372.1,-103.05 381.97,-99.21 371.86,-96.06 372.1,-103.05"/>
</g>
<!-- &#45;7&#45;&gt;1135 -->
<g id="edge42" class="edge">
<title>&#45;7&#45;&gt;1135</title>
<path fill="none" stroke="green" stroke-width="0.22" d="M148.13,-256.23C145.76,-249.4 142.22,-239.2 138.65,-228.94"/>
<polygon fill="green" stroke="green" stroke-width="0.22" points="141.86,-227.5 135.27,-219.2 135.25,-229.79 141.86,-227.5"/>
</g>
<!-- &#45;8 -->
<g id="node8" class="node">
<title>&#45;8</title>
<polygon fill="lightgray" stroke="black" points="208,-274.49 182,-274.49 182,-256.49 208,-256.49 208,-274.49"/>
<text text-anchor="middle" x="195" y="-263.29" font-family="Times,serif" font-size="9.00">&#45;8</text>
</g>
<!-- &#45;8&#45;&gt;1130 -->
<g id="edge43" class="edge">
<title>&#45;8&#45;&gt;1130</title>
<path fill="none" stroke="green" stroke-width="0.12" d="M200.16,-256.23C204.95,-248.58 212.38,-236.69 219.54,-225.23"/>
<polygon fill="green" stroke="green" stroke-width="0.12" points="222.58,-226.98 224.91,-216.64 216.64,-223.27 222.58,-226.98"/>
</g>
<!-- &#45;8&#45;&gt;1131 -->
<g id="edge44" class="edge">
<title>&#45;8&#45;&gt;1131</title>
<path fill="none" stroke="red" stroke-width="0.45" d="M208.43,-259.39C211.24,-258.38 214.21,-257.37 217,-256.49 277.09,-237.72 293.95,-239.39 354,-220.49 367.02,-216.4 381.09,-211.38 393.54,-206.74"/>
<polygon fill="red" stroke="red" stroke-width="0.45" points="395.02,-209.92 403.13,-203.11 392.54,-203.37 395.02,-209.92"/>
</g>
<!-- &#45;8&#45;&gt;1132 -->
<g id="edge45" class="edge">
<title>&#45;8&#45;&gt;1132</title>
<path fill="none" stroke="red" stroke-width="0.26" d="M208.36,-259.14C211.18,-258.15 214.16,-257.2 217,-256.49 326.31,-229.09 358.74,-248.12 468,-220.49 481.34,-217.12 495.58,-212.24 508.09,-207.49"/>
<polygon fill="red" stroke="red" stroke-width="0.26" points="509.66,-210.64 517.7,-203.74 507.11,-204.11 509.66,-210.64"/>
</g>
<!-- &#45;8&#45;&gt;1133 -->
<g id="edge46" class="edge">
<title>&#45;8&#45;&gt;1133</title>
<path fill="none" stroke="green" stroke-width="0.28" d="M208.27,-258.21C224.95,-250.15 254.25,-235.42 278,-220.49 280.41,-218.98 282.86,-217.36 285.3,-215.7"/>
<polygon fill="green" stroke="green" stroke-width="0.28" points="287.32,-218.56 293.47,-209.94 283.28,-212.84 287.32,-218.56"/>
</g>
<!-- &#45;8&#45;&gt;1134 -->
<g id="edge47" class="edge">
<title>&#45;8&#45;&gt;1134</title>
<path fill="none" stroke="red" stroke-width="0.41" d="M181.97,-259.75C179.02,-258.68 175.9,-257.54 173,-256.49 128.58,-240.42 100.16,-259.14 73,-220.49 58.18,-199.41 56.56,-182.35 73,-162.51 110.56,-117.17 290.73,-103.71 371.58,-99.92"/>
<polygon fill="red" stroke="red" stroke-width="0.41" points="372.01,-103.41 381.85,-99.47 371.7,-96.41 372.01,-103.41"/>
</g>
<!-- &#45;8&#45;&gt;1135 -->
<g id="edge48" class="edge">
<title>&#45;8&#45;&gt;1135</title>
<path fill="none" stroke="green" stroke-width="0.25" d="M187.08,-256.23C178.68,-247.47 164.94,-233.13 152.61,-220.27"/>
<polygon fill="green" stroke="green" stroke-width="0.25" points="155.02,-217.72 145.57,-212.92 149.96,-222.56 155.02,-217.72"/>
</g>
<!-- &#45;9 -->
<g id="node9" class="node">
<title>&#45;9</title>
<polygon fill="lightgray" stroke="black" points="296,-274.49 270,-274.49 270,-256.49 296,-256.49 296,-274.49"/>
<text text-anchor="middle" x="283" y="-263.29" font-family="Times,serif" font-size="9.00">&#45;9</text>
</g>
<!-- &#45;9&#45;&gt;1130 -->
<g id="edge49" class="edge">
<title>&#45;9&#45;&gt;1130</title>
<path fill="none" stroke="red" stroke-width="0.27" stroke-dasharray="1,5" d="M278.07,-256.23C273.58,-248.72 266.64,-237.1 259.91,-225.83"/>
<polygon fill="red" stroke="red" stroke-width="0.27" points="262.74,-223.75 254.61,-216.96 256.73,-227.34 262.74,-223.75"/>
</g>
<!-- &#45;9&#45;&gt;1131 -->
<g id="edge50" class="edge">
<title>&#45;9&#45;&gt;1131</title>
<path fill="none" stroke="green" stroke-width="0.12" d="M296.05,-258.1C318.11,-247.3 363.49,-225.07 395.3,-209.5"/>
<polygon fill="green" stroke="green" stroke-width="0.12" points="396.84,-212.64 404.28,-205.1 393.76,-206.35 396.84,-212.64"/>
</g>
<!-- &#45;9&#45;&gt;1132 -->
<g id="edge51" class="edge">
<title>&#45;9&#45;&gt;1132</title>
<path fill="none" stroke="green" stroke-width="0.16" d="M296.4,-259.3C299.22,-258.3 302.19,-257.31 305,-256.49 376.24,-235.77 396.81,-241.36 468,-220.49 481.1,-216.65 495.19,-211.7 507.63,-207.03"/>
<polygon fill="green" stroke="green" stroke-width="0.16" points="509.12,-210.21 517.21,-203.38 506.62,-203.67 509.12,-210.21"/>
</g>
<!-- &#45;9&#45;&gt;1133 -->
<g id="edge52" class="edge">
<title>&#45;9&#45;&gt;1133</title>
<path fill="none" stroke="red" stroke-width="0.11" d="M286.79,-256.23C290.06,-249.09 295.03,-238.26 299.94,-227.53"/>
<polygon fill="red" stroke="red" stroke-width="0.11" points="303.22,-228.78 304.2,-218.23 296.86,-225.87 303.22,-228.78"/>
</g>
<!-- &#45;9&#45;&gt;1134 -->
<g id="edge53" class="edge">
<title>&#45;9&#45;&gt;1134</title>
<path fill="none" stroke="red" stroke-width="0.46" d="M269.85,-259.29C248.92,-250.72 209.61,-233.28 202,-220.49 188.83,-198.34 186.68,-183.23 202,-162.51 241,-109.78 322.59,-99.08 371.49,-97.7"/>
<polygon fill="red" stroke="red" stroke-width="0.46" points="371.76,-101.19 381.7,-97.53 371.65,-94.19 371.76,-101.19"/>
</g>
<!-- &#45;9&#45;&gt;1135 -->
<g id="edge54" class="edge">
<title>&#45;9&#45;&gt;1135</title>
<path fill="none" stroke="green" stroke-width="0.29" d="M269.96,-259.63C242.07,-249.22 178.4,-225.3 169,-220.49 165.44,-218.67 161.81,-216.63 158.25,-214.5"/>
<polygon fill="green" stroke="green" stroke-width="0.29" points="159.92,-211.42 149.58,-209.11 156.22,-217.36 159.92,-211.42"/>
</g>
<!-- &#45;10 -->
<g id="node10" class="node">
<title>&#45;10</title>
<polygon fill="lightgray" stroke="black" points="32,-274.49 0,-274.49 0,-256.49 32,-256.49 32,-274.49"/>
<text text-anchor="middle" x="16" y="-263.29" font-family="Times,serif" font-size="9.00">&#45;10</text>
</g>
<!-- &#45;10&#45;&gt;1130 -->
<g id="edge55" class="edge">
<title>&#45;10&#45;&gt;1130</title>
<path fill="none" stroke="green" stroke-width="0.14" d="M32.12,-259.27C35.07,-258.33 38.12,-257.37 41,-256.49 95.46,-239.81 109.91,-238.35 164,-220.49 176.96,-216.22 191.02,-211.16 203.48,-206.53"/>
<polygon fill="green" stroke="green" stroke-width="0.14" points="204.94,-209.72 213.07,-202.93 202.48,-203.16 204.94,-209.72"/>
</g>
<!-- &#45;10&#45;&gt;1131 -->
<g id="edge56" class="edge">
<title>&#45;10&#45;&gt;1131</title>
<path fill="none" stroke="red" stroke-width="0.21" d="M32.01,-258.86C34.97,-257.96 38.06,-257.13 41,-256.49 177.89,-227.01 217.78,-252.92 354,-220.49 367.38,-217.31 381.64,-212.47 394.14,-207.7"/>
<polygon fill="red" stroke="red" stroke-width="0.21" points="395.72,-210.84 403.75,-203.93 393.16,-204.33 395.72,-210.84"/>
</g>
<!-- &#45;10&#45;&gt;1133 -->
<g id="edge57" class="edge">
<title>&#45;10&#45;&gt;1133</title>
<path fill="none" stroke="green" stroke-width="0.45" d="M32.03,-258.95C34.99,-258.04 38.07,-257.18 41,-256.49 144.73,-232.18 179.57,-261.28 278,-220.49 280.54,-219.44 283.06,-218.18 285.54,-216.79"/>
<polygon fill="green" stroke="green" stroke-width="0.45" points="287.61,-219.62 294.18,-211.31 283.86,-213.71 287.61,-219.62"/>
</g>
<!-- &#45;10&#45;&gt;1134 -->
<g id="edge58" class="edge">
<title>&#45;10&#45;&gt;1134</title>
<path fill="none" stroke="red" stroke-width="0.44" d="M12.91,-256.43C6.22,-237.5 -7.18,-189.75 16,-162.51 61.47,-109.07 281.12,-100.12 371.76,-98.73"/>
<polygon fill="red" stroke="red" stroke-width="0.44" points="371.95,-102.22 381.9,-98.59 371.86,-95.22 371.95,-102.22"/>
</g>
<!-- &#45;10&#45;&gt;1135 -->
<g id="edge59" class="edge">
<title>&#45;10&#45;&gt;1135</title>
<path fill="none" stroke="red" stroke-width="0.42" d="M28.62,-256.23C44.29,-245.98 71.62,-228.09 93.34,-213.88"/>
<polygon fill="red" stroke="red" stroke-width="0.42" points="95.5,-216.64 101.95,-208.24 91.67,-210.79 95.5,-216.64"/>
</g>
<!-- &#45;11 -->
<g id="node11" class="node">
<title>&#45;11</title>
<polygon fill="lightgray" stroke="black" points="396,-274.49 364,-274.49 364,-256.49 396,-256.49 396,-274.49"/>
<text text-anchor="middle" x="380" y="-263.29" font-family="Times,serif" font-size="9.00">&#45;11</text>
</g>
<!-- &#45;11&#45;&gt;1130 -->
<g id="edge60" class="edge">
<title>&#45;11&#45;&gt;1130</title>
<path fill="none" stroke="red" stroke-width="0.5" d="M363.91,-258.85C343.34,-251.36 306.94,-237.1 278,-220.49 275.7,-219.17 273.37,-217.74 271.06,-216.24"/>
<polygon fill="red" stroke="red" stroke-width="0.5" points="272.56,-213.02 262.34,-210.25 268.6,-218.79 272.56,-213.02"/>
</g>
<!-- &#45;11&#45;&gt;1131 -->
<g id="edge61" class="edge">
<title>&#45;11&#45;&gt;1131</title>
<path fill="none" stroke="red" stroke-width="0.41" d="M385.74,-256.23C391.23,-248.33 399.86,-235.89 408.05,-224.1"/>
<polygon fill="red" stroke="red" stroke-width="0.41" points="411.06,-225.91 413.89,-215.7 405.31,-221.91 411.06,-225.91"/>
</g>
<!-- &#45;11&#45;&gt;1132 -->
<g id="edge62" class="edge">
<title>&#45;11&#45;&gt;1132</title>
<path fill="none" stroke="red" stroke-width="0.13" d="M396.19,-259.12C424.55,-249.62 482,-229.98 501,-220.49 504.57,-218.71 508.22,-216.69 511.79,-214.58"/>
<polygon fill="red" stroke="red" stroke-width="0.13" points="513.81,-217.44 520.47,-209.2 510.12,-211.49 513.81,-217.44"/>
</g>
<!-- &#45;11&#45;&gt;1133 -->
<g id="edge63" class="edge">
<title>&#45;11&#45;&gt;1133</title>
<path fill="none" stroke="red" stroke-width="0.41" d="M372.66,-256.23C365.1,-247.73 352.88,-233.99 341.73,-221.44"/>
<polygon fill="red" stroke="red" stroke-width="0.41" points="344.23,-218.98 334.97,-213.84 338.99,-223.64 344.23,-218.98"/>
</g>
<!-- &#45;11&#45;&gt;1134 -->
<g id="edge64" class="edge">
<title>&#45;11&#45;&gt;1134</title>
<path fill="none" stroke="red" stroke-width="0.11" d="M396.14,-258.76C419.25,-250.19 459.87,-233.64 468,-220.49 481.55,-198.57 477.17,-186.59 468,-162.51 462.36,-147.71 451.56,-134.16 440.86,-123.37"/>
<polygon fill="red" stroke="red" stroke-width="0.11" points="443.18,-120.74 433.54,-116.36 438.34,-125.8 443.18,-120.74"/>
</g>
<!-- &#45;11&#45;&gt;1135 -->
<g id="edge65" class="edge">
<title>&#45;11&#45;&gt;1135</title>
<path fill="none" stroke="green" stroke-width="0.46" d="M363.92,-259.14C360.96,-258.22 357.9,-257.3 355,-256.49 287.68,-237.83 268.9,-240.6 202,-220.49 188.93,-216.56 174.85,-211.59 162.4,-206.93"/>
<polygon fill="green" stroke="green" stroke-width="0.46" points="163.4,-203.57 152.81,-203.29 160.92,-210.11 163.4,-203.57"/>
</g>
<!-- &#45;12 -->
<g id="node12" class="node">
<title>&#45;12</title>
<polygon fill="lightgray" stroke="black" points="496,-274.49 464,-274.49 464,-256.49 496,-256.49 496,-274.49"/>
<text text-anchor="middle" x="480" y="-263.29" font-family="Times,serif" font-size="9.00">&#45;12</text>
</g>
<!-- &#45;12&#45;&gt;1130 -->
<g id="edge66" class="edge">
<title>&#45;12&#45;&gt;1130</title>
<path fill="none" stroke="green" stroke-width="0.5" d="M463.94,-259.07C460.98,-258.15 457.91,-257.25 455,-256.49 377.32,-236.23 351.37,-253.06 278,-220.49 275.49,-219.38 272.98,-218.07 270.53,-216.65"/>
<polygon fill="green" stroke="green" stroke-width="0.5" points="272.21,-213.57 261.91,-211.1 268.42,-219.46 272.21,-213.57"/>
</g>
<!-- &#45;12&#45;&gt;1131 -->
<g id="edge67" class="edge">
<title>&#45;12&#45;&gt;1131</title>
<path fill="none" stroke="red" stroke-width="0.38" d="M474.26,-256.23C468.77,-248.33 460.14,-235.89 451.95,-224.1"/>
<polygon fill="red" stroke="red" stroke-width="0.38" points="454.69,-221.91 446.11,-215.7 448.94,-225.91 454.69,-221.91"/>
</g>
<!-- &#45;12&#45;&gt;1132 -->
<g id="edge68" class="edge">
<title>&#45;12&#45;&gt;1132</title>
<path fill="none" stroke="green" stroke-width="0.13" d="M487.34,-256.23C494.9,-247.73 507.12,-233.99 518.27,-221.44"/>
<polygon fill="green" stroke="green" stroke-width="0.13" points="521.01,-223.64 525.03,-213.84 515.77,-218.98 521.01,-223.64"/>
</g>
<!-- &#45;12&#45;&gt;1133 -->
<g id="edge69" class="edge">
<title>&#45;12&#45;&gt;1133</title>
<path fill="none" stroke="red" stroke-width="0.39" d="M463.98,-257.46C438.12,-246.11 386.56,-223.48 351.67,-208.16"/>
<polygon fill="red" stroke="red" stroke-width="0.39" points="352.87,-204.86 342.3,-204.05 350.05,-211.27 352.87,-204.86"/>
</g>
<!-- &#45;12&#45;&gt;1134 -->
<g id="edge70" class="edge">
<title>&#45;12&#45;&gt;1134</title>
<path fill="none" stroke="green" stroke-width="0.25" d="M496.31,-259.11C528.6,-248.39 597.86,-224.98 601,-220.49 615.78,-199.38 616.04,-183.44 601,-162.51 566.78,-114.88 495.3,-102.23 450.43,-99.14"/>
<polygon fill="green" stroke="green" stroke-width="0.25" points="450.36,-95.63 440.18,-98.57 449.97,-102.62 450.36,-95.63"/>
</g>
<!-- &#45;12&#45;&gt;1135 -->
<g id="edge71" class="edge">
<title>&#45;12&#45;&gt;1135</title>
<path fill="none" stroke="green" stroke-width="0.36" d="M463.97,-258.92C461.01,-258.02 457.93,-257.16 455,-256.49 344.3,-231.09 312.13,-248.27 202,-220.49 188.66,-217.13 174.42,-212.25 161.91,-207.5"/>
<polygon fill="green" stroke="green" stroke-width="0.36" points="162.88,-204.12 152.3,-203.75 160.34,-210.64 162.88,-204.12"/>
</g>
<!-- &#45;13 -->
<g id="node13" class="node">
<title>&#45;13</title>
<polygon fill="lightgray" stroke="black" points="634,-274.49 602,-274.49 602,-256.49 634,-256.49 634,-274.49"/>
<text text-anchor="middle" x="618" y="-263.29" font-family="Times,serif" font-size="9.00">&#45;13</text>
</g>
<!-- &#45;13&#45;&gt;1130 -->
<g id="edge72" class="edge">
<title>&#45;13&#45;&gt;1130</title>
<path fill="none" stroke="red" stroke-width="0.18" d="M601.99,-258.86C599.03,-257.96 595.94,-257.12 593,-256.49 455.24,-226.88 409.15,-272.02 278,-220.49 275.28,-219.43 272.59,-218.11 269.96,-216.64"/>
<polygon fill="red" stroke="red" stroke-width="0.18" points="271.66,-213.58 261.34,-211.18 267.91,-219.49 271.66,-213.58"/>
</g>
<!-- &#45;13&#45;&gt;1131 -->
<g id="edge73" class="edge">
<title>&#45;13&#45;&gt;1131</title>
<path fill="none" stroke="red" stroke-width="0.15" d="M601.97,-258.35C572.13,-246.93 507.37,-222.13 466.39,-206.44"/>
<polygon fill="red" stroke="red" stroke-width="0.15" points="467.62,-203.16 457.03,-202.85 465.11,-209.7 467.62,-203.16"/>
</g>
<!-- &#45;13&#45;&gt;1132 -->
<g id="edge74" class="edge">
<title>&#45;13&#45;&gt;1132</title>
<path fill="none" stroke="red" stroke-width="0.12" d="M609.51,-256.23C600.29,-247.26 585.06,-232.45 571.61,-219.36"/>
<polygon fill="red" stroke="red" stroke-width="0.12" points="573.98,-216.78 564.37,-212.32 569.09,-221.8 573.98,-216.78"/>
</g>
<!-- &#45;13&#45;&gt;1133 -->
<g id="edge75" class="edge">
<title>&#45;13&#45;&gt;1133</title>
<path fill="none" stroke="red" stroke-width="0.47" d="M601.95,-259.01C598.99,-258.1 595.92,-257.22 593,-256.49 504.92,-234.61 479.59,-244.27 392,-220.49 378.83,-216.92 364.72,-212.03 352.28,-207.34"/>
<polygon fill="red" stroke="red" stroke-width="0.47" points="353.3,-203.98 342.71,-203.65 350.78,-210.51 353.3,-203.98"/>
</g>
<!-- &#45;13&#45;&gt;1134 -->
<g id="edge76" class="edge">
<title>&#45;13&#45;&gt;1134</title>
<path fill="none" stroke="red" stroke-width="0.19" d="M628.88,-256.47C638.61,-248.57 652.19,-235.51 658,-220.49 667.29,-196.46 673.77,-182.89 658,-162.51 632.7,-129.82 513.04,-110.79 450.03,-102.87"/>
<polygon fill="red" stroke="red" stroke-width="0.19" points="450.41,-99.39 440.06,-101.65 449.56,-106.34 450.41,-99.39"/>
</g>
<!-- &#45;13&#45;&gt;1135 -->
<g id="edge77" class="edge">
<title>&#45;13&#45;&gt;1135</title>
<path fill="none" stroke="green" stroke-width="0.39" d="M602,-258.8C599.04,-257.91 595.95,-257.09 593,-256.49 421.99,-221.69 372.22,-258.98 202,-220.49 188.58,-217.46 174.32,-212.65 161.82,-207.88"/>
<polygon fill="green" stroke="green" stroke-width="0.39" points="162.8,-204.5 152.22,-204.09 160.23,-211.01 162.8,-204.5"/>
</g>
<!-- &#45;14 -->
<g id="node14" class="node">
<title>&#45;14</title>
<polygon fill="lightgray" stroke="black" points="346,-274.49 314,-274.49 314,-256.49 346,-256.49 346,-274.49"/>
<text text-anchor="middle" x="330" y="-263.29" font-family="Times,serif" font-size="9.00">&#45;14</text>
</g>
<!-- &#45;14&#45;&gt;1130 -->
<g id="edge78" class="edge">
<title>&#45;14&#45;&gt;1130</title>
<path fill="none" stroke="green" stroke-width="0.11" d="M319.68,-256.23C307.69,-246.65 287.39,-230.41 270.27,-216.72"/>
<polygon fill="green" stroke="green" stroke-width="0.11" points="272.17,-213.76 262.18,-210.24 267.8,-219.22 272.17,-213.76"/>
</g>
<!-- &#45;14&#45;&gt;1131 -->
<g id="edge79" class="edge">
<title>&#45;14&#45;&gt;1131</title>
<path fill="none" stroke="green" stroke-width="0.33" d="M341.47,-256.23C355.24,-246.33 378.88,-229.3 398.28,-215.34"/>
<polygon fill="green" stroke="green" stroke-width="0.33" points="400.49,-218.06 406.56,-209.37 396.4,-212.38 400.49,-218.06"/>
</g>
<!-- &#45;14&#45;&gt;1132 -->
<g id="edge80" class="edge">
<title>&#45;14&#45;&gt;1132</title>
<path fill="none" stroke="green" stroke-width="0.16" d="M346.14,-259.33C349.09,-258.38 352.13,-257.41 355,-256.49 405.21,-240.46 418.15,-237.61 468,-220.49 480.91,-216.06 494.95,-210.97 507.42,-206.35"/>
<polygon fill="green" stroke="green" stroke-width="0.16" points="508.87,-209.54 517.02,-202.77 506.43,-202.98 508.87,-209.54"/>
</g>
<!-- &#45;14&#45;&gt;1133 -->
<g id="edge81" class="edge">
<title>&#45;14&#45;&gt;1133</title>
<path fill="none" stroke="red" stroke-width="0.29" d="M328.39,-256.23C327.11,-249.64 325.22,-239.9 323.29,-230"/>
<polygon fill="red" stroke="red" stroke-width="0.29" points="326.73,-229.32 321.38,-220.17 319.85,-230.65 326.73,-229.32"/>
</g>
<!-- &#45;14&#45;&gt;1134 -->
<g id="edge82" class="edge">
<title>&#45;14&#45;&gt;1134</title>
<path fill="none" stroke="green" stroke-width="0.14" d="M334.58,-256.46C339.52,-247.7 347.56,-233.23 354,-220.49 368.62,-191.58 384.12,-158.22 395.26,-133.71"/>
<polygon fill="green" stroke="green" stroke-width="0.14" points="398.52,-135 399.45,-124.44 392.14,-132.11 398.52,-135"/>
</g>
<!-- &#45;14&#45;&gt;1135 -->
<g id="edge83" class="edge">
<title>&#45;14&#45;&gt;1135</title>
<path fill="none" stroke="red" stroke-width="0.47" d="M313.8,-259.05C289.46,-250.85 242.07,-234.76 202,-220.49 189.14,-215.92 175.11,-210.79 162.64,-206.18"/>
<polygon fill="red" stroke="red" stroke-width="0.47" points="163.63,-202.81 153.03,-202.62 161.19,-209.38 163.63,-202.81"/>
</g>
<!-- &#45;15 -->
<g id="node15" class="node">
<title>&#45;15</title>
<polygon fill="lightgray" stroke="black" points="446,-274.49 414,-274.49 414,-256.49 446,-256.49 446,-274.49"/>
<text text-anchor="middle" x="430" y="-263.29" font-family="Times,serif" font-size="9.00">&#45;15</text>
</g>
<!-- &#45;15&#45;&gt;1130 -->
<g id="edge84" class="edge">
<title>&#45;15&#45;&gt;1130</title>
<path fill="none" stroke="green" stroke-width="0.27" d="M413.89,-259.25C410.94,-258.31 407.88,-257.36 405,-256.49 348.83,-239.55 330.69,-246.3 278,-220.49 275.53,-219.28 273.06,-217.91 270.63,-216.44"/>
<polygon fill="green" stroke="green" stroke-width="0.27" points="272.33,-213.37 262.05,-210.78 268.47,-219.21 272.33,-213.37"/>
</g>
<!-- &#45;15&#45;&gt;1131 -->
<g id="edge85" class="edge">
<title>&#45;15&#45;&gt;1131</title>
<path fill="none" stroke="red" stroke-width="0.38" d="M430,-256.23C430,-249.77 430,-240.26 430,-230.56"/>
<polygon fill="red" stroke="red" stroke-width="0.38" points="433.5,-230.5 430,-220.5 426.5,-230.5 433.5,-230.5"/>
</g>
<!-- &#45;15&#45;&gt;1132 -->
<g id="edge86" class="edge">
<title>&#45;15&#45;&gt;1132</title>
<path fill="none" stroke="green" stroke-width="0.23" d="M443.14,-256.47C457.43,-247.72 480.93,-233.24 501,-220.49 504.37,-218.35 507.88,-216.1 511.38,-213.85"/>
<polygon fill="green" stroke="green" stroke-width="0.23" points="513.46,-216.66 519.95,-208.29 509.66,-210.79 513.46,-216.66"/>
</g>
<!-- &#45;15&#45;&gt;1133 -->
<g id="edge87" class="edge">
<title>&#45;15&#45;&gt;1133</title>
<path fill="none" stroke="green" stroke-width="0.47" d="M416.92,-256.23C400.5,-245.87 371.75,-227.71 349.12,-213.42"/>
<polygon fill="green" stroke="green" stroke-width="0.47" points="350.8,-210.34 340.48,-207.96 347.06,-216.26 350.8,-210.34"/>
</g>
<!-- &#45;15&#45;&gt;1134 -->
<g id="edge88" class="edge">
<title>&#45;15&#45;&gt;1134</title>
<path fill="none" stroke="red" stroke-width="0.17" d="M446.11,-259.25C449.06,-258.31 452.12,-257.36 455,-256.49 511.17,-239.55 546.62,-267.29 582,-220.49 597.54,-199.94 596.69,-183.69 582,-162.51 552.42,-119.86 490.72,-105.59 450.09,-100.84"/>
<polygon fill="red" stroke="red" stroke-width="0.17" points="450.3,-97.35 440,-99.81 449.59,-104.31 450.3,-97.35"/>
</g>
<!-- &#45;15&#45;&gt;1135 -->
<g id="edge89" class="edge">
<title>&#45;15&#45;&gt;1135</title>
<path fill="none" stroke="red" stroke-width="0.44" stroke-dasharray="1,5" d="M413.95,-259.01C411,-258.1 407.92,-257.21 405,-256.49 316.05,-234.48 290.45,-244.42 202,-220.49 188.83,-216.93 174.72,-212.04 162.28,-207.35"/>
<polygon fill="red" stroke="red" stroke-width="0.44" points="163.3,-203.99 152.71,-203.66 160.78,-210.52 163.3,-203.99"/>
</g>
<!-- 0 -->
<g id="node16" class="node">
<title>0</title>
<ellipse fill="lightblue" stroke="black" cx="316" cy="-16.26" rx="16.03" ry="16.03"/>
<text text-anchor="middle" x="316" y="-14.06" font-family="Times,serif" font-size="9.00">0</text>
</g>
<!-- 1 -->
<g id="node17" class="node">
<title>1</title>
<ellipse fill="lightblue" stroke="black" cx="389" cy="-16.26" rx="16.03" ry="16.03"/>
<text text-anchor="middle" x="389" y="-14.06" font-family="Times,serif" font-size="9.00">1</text>
</g>
<!-- 1130&#45;&gt;0 -->
<g id="edge90" class="edge">
<title>1130&#45;&gt;0</title>
<path fill="none" stroke="red" stroke-width="0.5" d="M228.52,-164.83C218.74,-138.79 208.75,-98.2 226,-68.53 239.75,-44.88 268.93,-31.24 290.35,-24.06"/>
<polygon fill="red" stroke="red" stroke-width="0.5" points="291.62,-27.33 300.15,-21.03 289.56,-20.64 291.62,-27.33"/>
</g>
<!-- 1130&#45;&gt;1 -->
<g id="edge91" class="edge">
<title>1130&#45;&gt;1</title>
<path fill="none" stroke="red" stroke-width="0.27" d="M257.57,-168.04C277.16,-143.25 310.05,-102.35 340,-68.53 349.82,-57.44 361.23,-45.45 370.57,-35.86"/>
<polygon fill="red" stroke="red" stroke-width="0.27" points="373.35,-38.02 377.85,-28.43 368.35,-33.12 373.35,-38.02"/>
</g>
<!-- 1131&#45;&gt;0 -->
<g id="edge92" class="edge">
<title>1131&#45;&gt;0</title>
<path fill="none" stroke="red" stroke-width="0.26" d="M409.89,-170.54C398.29,-158.43 383.9,-142.3 373,-126.51 353.84,-98.75 336.66,-63.75 326.29,-40.95"/>
<polygon fill="red" stroke="red" stroke-width="0.26" points="329.42,-39.39 322.15,-31.69 323.03,-42.25 329.42,-39.39"/>
</g>
<!-- 1131&#45;&gt;1 -->
<g id="edge93" class="edge">
<title>1131&#45;&gt;1</title>
<path fill="none" stroke="red" stroke-width="0.16" d="M442.07,-165.05C452.34,-139.53 463.35,-99.67 449,-68.53 441.4,-52.05 425.61,-38.9 412.13,-30.05"/>
<polygon fill="red" stroke="red" stroke-width="0.16" points="413.65,-26.87 403.3,-24.61 409.99,-32.83 413.65,-26.87"/>
</g>
<!-- 1131&#45;&gt;1134 -->
<g id="edge102" class="edge">
<title>1131&#45;&gt;1134</title>
<path fill="none" stroke="green" stroke-width="0.17" d="M424.3,-162.9C422.55,-154.44 420.6,-144.99 418.74,-135.99"/>
<polygon fill="green" stroke="green" stroke-width="0.17" points="422.15,-135.18 416.7,-126.1 415.29,-136.6 422.15,-135.18"/>
</g>
<!-- 1132&#45;&gt;0 -->
<g id="edge94" class="edge">
<title>1132&#45;&gt;0</title>
<path fill="none" stroke="green" stroke-width="0.5" d="M522.79,-171.23C510.11,-159.1 494.16,-142.72 482,-126.51 464.21,-102.79 471.47,-87.87 449,-68.53 440.49,-61.2 377.14,-38.48 341.03,-25.88"/>
<polygon fill="green" stroke="green" stroke-width="0.5" points="341.8,-22.45 331.21,-22.48 339.51,-29.06 341.8,-22.45"/>
</g>
<!-- 1132&#45;&gt;1 -->
<g id="edge95" class="edge">
<title>1132&#45;&gt;1</title>
<path fill="none" stroke="green" stroke-width="0.27" d="M531.98,-164.95C518.71,-138.63 495.42,-97.48 467,-68.53 450.96,-52.19 428.87,-38.27 412.29,-29.08"/>
<polygon fill="green" stroke="green" stroke-width="0.27" points="413.72,-25.88 403.25,-24.23 410.41,-32.04 413.72,-25.88"/>
</g>
<!-- 1133&#45;&gt;0 -->
<g id="edge96" class="edge">
<title>1133&#45;&gt;0</title>
<path fill="none" stroke="red" stroke-width="0.25" d="M308.7,-163.31C306.02,-152.02 303.32,-138.72 302,-126.51 299.23,-100.89 298.58,-94.07 302,-68.53 303.2,-59.56 305.54,-49.93 307.97,-41.47"/>
<polygon fill="red" stroke="red" stroke-width="0.25" points="311.33,-42.44 310.9,-31.85 304.63,-40.4 311.33,-42.44"/>
</g>
<!-- 1133&#45;&gt;1 -->
<g id="edge97" class="edge">
<title>1133&#45;&gt;1</title>
<path fill="none" stroke="red" stroke-width="0.21" d="M326.93,-164.57C341,-131.18 365.25,-73.62 378.91,-41.22"/>
<polygon fill="red" stroke="red" stroke-width="0.21" points="382.28,-42.22 382.94,-31.65 375.83,-39.5 382.28,-42.22"/>
</g>
<!-- 1134&#45;&gt;0 -->
<g id="edge98" class="edge">
<title>1134&#45;&gt;0</title>
<path fill="none" stroke="red" stroke-width="0.23" d="M388.97,-78.14C372.96,-64.79 351.49,-46.87 335.98,-33.93"/>
<polygon fill="red" stroke="red" stroke-width="0.23" points="337.98,-31.04 328.06,-27.32 333.49,-36.41 337.98,-31.04"/>
</g>
<!-- 1134&#45;&gt;1 -->
<g id="edge99" class="edge">
<title>1134&#45;&gt;1</title>
<path fill="none" stroke="green" stroke-width="0.41" d="M403.43,-69.24C400.99,-60.46 398.3,-50.77 395.91,-42.17"/>
<polygon fill="green" stroke="green" stroke-width="0.41" points="399.23,-41.04 393.18,-32.34 392.49,-42.91 399.23,-41.04"/>
</g>
<!-- 1135&#45;&gt;0 -->
<g id="edge100" class="edge">
<title>1135&#45;&gt;0</title>
<path fill="none" stroke="red" stroke-width="0.22" d="M123.84,-162.48C123.32,-135.17 126.97,-94.11 150,-68.53 186.09,-28.43 252.77,-19.34 289.69,-17.5"/>
<polygon fill="red" stroke="red" stroke-width="0.22" points="289.82,-21 299.69,-17.14 289.57,-14 289.82,-21"/>
</g>
<!-- 1135&#45;&gt;1 -->
<g id="edge101" class="edge">
<title>1135&#45;&gt;1</title>
<path fill="none" stroke="green" stroke-width="0.24" d="M147.83,-172.29C178.33,-147.28 235.93,-101.65 289,-68.53 314.03,-52.9 344.39,-37.85 365.05,-28.14"/>
<polygon fill="green" stroke="green" stroke-width="0.24" points="366.74,-31.21 374.34,-23.83 363.8,-24.86 366.74,-31.21"/>
</g>
</g>
</svg>
