<?xml version="1.0" encoding="UTF-8" standalone="no"?>
<!DOCTYPE svg PUBLIC "-//W3C//DTD SVG 1.1//EN"
 "http://www.w3.org/Graphics/SVG/1.1/DTD/svg11.dtd">
<!-- Generated by graphviz version 2.40.1 (20161225.0304)
 -->
<!-- Title: %3 Pages: 1 -->
<svg width="350pt" height="256pt"
 viewBox="0.00 0.00 349.96 255.62" xmlns="http://www.w3.org/2000/svg" xmlns:xlink="http://www.w3.org/1999/xlink">
<g id="graph0" class="graph" transform="scale(1 1) rotate(0) translate(4 251.6224)">
<title>%3</title>
<polygon fill="#ffffff" stroke="transparent" points="-4,4 -4,-251.6224 345.9619,-251.6224 345.9619,4 -4,4"/>
<!-- &#45;1 -->
<g id="node1" class="node">
<title>&#45;1</title>
<polygon fill="#d3d3d3" stroke="#000000" points="165.7487,-247.6224 141.7487,-247.6224 141.7487,-229.6224 165.7487,-229.6224 165.7487,-247.6224"/>
<text text-anchor="middle" x="153.7487" y="-236.4224" font-family="Times,serif" font-size="9.00" fill="#000000">&#45;1</text>
</g>
<!-- 161 -->
<g id="node6" class="node">
<title>161</title>
<ellipse fill="#ffffff" stroke="#000000" cx="114.7487" cy="-86.9117" rx="21.4286" ry="21.4286"/>
<text text-anchor="middle" x="114.7487" y="-84.7117" font-family="Times,serif" font-size="9.00" fill="#000000">161</text>
</g>
<!-- &#45;1&#45;&gt;161 -->
<g id="edge3" class="edge">
<title>&#45;1&#45;&gt;161</title>
<path fill="none" stroke="#00ff00" stroke-width=".3066" d="M141.5819,-232.2639C128.9398,-224.8897 109.8881,-211.4301 101.7487,-193.6224 90.5803,-169.1876 96.0829,-138.4911 103.0391,-116.3012"/>
<polygon fill="#00ff00" stroke="#00ff00" stroke-width=".3066" points="106.3786,-117.3519 106.2829,-106.7575 99.7509,-115.0993 106.3786,-117.3519"/>
</g>
<!-- 160 -->
<g id="node7" class="node">
<title>160</title>
<ellipse fill="#ffffff" stroke="#000000" cx="234.7487" cy="-86.9117" rx="21.4286" ry="21.4286"/>
<text text-anchor="middle" x="234.7487" y="-84.7117" font-family="Times,serif" font-size="9.00" fill="#000000">160</text>
</g>
<!-- &#45;1&#45;&gt;160 -->
<g id="edge2" class="edge">
<title>&#45;1&#45;&gt;160</title>
<path fill="none" stroke="#00ff00" stroke-width=".2672" d="M158.5731,-229.5865C170.403,-207.4294 201.2406,-149.6715 219.8515,-114.8138"/>
<polygon fill="#00ff00" stroke="#00ff00" stroke-width=".2672" points="223.1282,-116.1079 224.7506,-105.638 216.9532,-112.8109 223.1282,-116.1079"/>
</g>
<!-- 1865 -->
<g id="node9" class="node">
<title>1865</title>
<ellipse fill="#ffffff" stroke="#000000" cx="24.7487" cy="-168.8736" rx="25" ry="25"/>
<text text-anchor="middle" x="24.7487" y="-166.6736" font-family="Times,serif" font-size="9.00" fill="#000000">1865</text>
</g>
<!-- &#45;1&#45;&gt;1865 -->
<g id="edge19" class="edge">
<title>&#45;1&#45;&gt;1865</title>
<path fill="none" stroke="#00ff00" stroke-width=".1006" d="M141.6081,-233.0349C124.1254,-224.8809 90.9697,-209.0118 63.7487,-193.6224 60.6532,-191.8723 57.46,-189.986 54.2956,-188.0631"/>
<polygon fill="#00ff00" stroke="#00ff00" stroke-width=".1006" points="55.8999,-184.9392 45.5598,-182.6298 52.203,-190.8833 55.8999,-184.9392"/>
</g>
<!-- 159 -->
<g id="node10" class="node">
<title>159</title>
<ellipse fill="#ffffff" stroke="#000000" cx="320.7487" cy="-168.8736" rx="21.4286" ry="21.4286"/>
<text text-anchor="middle" x="320.7487" y="-166.6736" font-family="Times,serif" font-size="9.00" fill="#000000">159</text>
</g>
<!-- &#45;1&#45;&gt;159 -->
<g id="edge1" class="edge">
<title>&#45;1&#45;&gt;159</title>
<path fill="none" stroke="#ff0000" stroke-width=".5" d="M165.759,-233.6062C191.9159,-222.6816 254.6591,-196.4765 291.7991,-180.9646"/>
<polygon fill="#ff0000" stroke="#ff0000" stroke-width=".5" points="293.2194,-184.1645 301.0981,-177.0809 290.5216,-177.7052 293.2194,-184.1645"/>
</g>
<!-- &#45;2 -->
<g id="node2" class="node">
<title>&#45;2</title>
<polygon fill="#d3d3d3" stroke="#000000" points="167.7487,-177.8736 143.7487,-177.8736 143.7487,-159.8736 167.7487,-159.8736 167.7487,-177.8736"/>
<text text-anchor="middle" x="155.7487" y="-166.6736" font-family="Times,serif" font-size="9.00" fill="#000000">&#45;2</text>
</g>
<!-- &#45;2&#45;&gt;161 -->
<g id="edge5" class="edge">
<title>&#45;2&#45;&gt;161</title>
<path fill="none" stroke="#00ff00" stroke-width=".4782" d="M151.2044,-159.7891C145.852,-149.0893 136.7018,-130.7975 128.908,-115.217"/>
<polygon fill="#00ff00" stroke="#00ff00" stroke-width=".4782" points="131.8806,-113.3361 124.2766,-105.9585 125.6202,-116.4678 131.8806,-113.3361"/>
</g>
<!-- &#45;2&#45;&gt;160 -->
<g id="edge4" class="edge">
<title>&#45;2&#45;&gt;160</title>
<path fill="none" stroke="#ff0000" stroke-width=".2296" d="M164.505,-159.7891C176.071,-147.7894 196.8406,-126.2411 212.8059,-109.6772"/>
<polygon fill="#ff0000" stroke="#ff0000" stroke-width=".2296" points="215.3332,-112.0986 219.753,-102.4697 210.2932,-107.2408 215.3332,-112.0986"/>
</g>
<!-- 162 -->
<g id="node8" class="node">
<title>162</title>
<ellipse fill="#ffffff" stroke="#000000" cx="174.7487" cy="-86.9117" rx="21.4286" ry="21.4286"/>
<text text-anchor="middle" x="174.7487" y="-84.7117" font-family="Times,serif" font-size="9.00" fill="#000000">162</text>
</g>
<!-- &#45;2&#45;&gt;162 -->
<g id="edge6" class="edge">
<title>&#45;2&#45;&gt;162</title>
<path fill="none" stroke="#00ff00" stroke-width=".4606" d="M157.8547,-159.7891C160.2097,-149.6298 164.1514,-132.6262 167.6353,-117.5977"/>
<polygon fill="#00ff00" stroke="#00ff00" stroke-width=".4606" points="171.1001,-118.1494 169.9489,-107.6173 164.2809,-116.5686 171.1001,-118.1494"/>
</g>
<!-- &#45;3 -->
<g id="node3" class="node">
<title>&#45;3</title>
<polygon fill="#d3d3d3" stroke="#000000" points="245.7487,-247.6224 221.7487,-247.6224 221.7487,-229.6224 245.7487,-229.6224 245.7487,-247.6224"/>
<text text-anchor="middle" x="233.7487" y="-236.4224" font-family="Times,serif" font-size="9.00" fill="#000000">&#45;3</text>
</g>
<!-- &#45;3&#45;&gt;161 -->
<g id="edge9" class="edge">
<title>&#45;3&#45;&gt;161</title>
<path fill="none" stroke="#00ff00" stroke-width=".3102" d="M221.4777,-236.76C200.2307,-232.851 156.7593,-221.7079 134.7487,-193.6224 118.0872,-172.3622 113.8122,-141.4656 113.2772,-118.3832"/>
<polygon fill="#00ff00" stroke="#00ff00" stroke-width=".3102" points="116.7771,-118.0713 113.2701,-108.0738 109.7771,-118.0762 116.7771,-118.0713"/>
</g>
<!-- &#45;3&#45;&gt;160 -->
<g id="edge8" class="edge">
<title>&#45;3&#45;&gt;160</title>
<path fill="none" stroke="#00ff00" stroke-width=".1562" stroke-dasharray="1,5" d="M237.479,-229.5065C240.9289,-220.5489 245.8066,-206.403 247.7487,-193.6224 251.0538,-171.8732 250.2012,-165.9866 247.7487,-144.1249 246.7638,-135.3452 244.954,-125.9472 242.9914,-117.3578"/>
<polygon fill="#00ff00" stroke="#00ff00" stroke-width=".1562" points="246.3286,-116.2685 240.5667,-107.3774 239.5265,-117.9211 246.3286,-116.2685"/>
</g>
<!-- &#45;3&#45;&gt;162 -->
<g id="edge10" class="edge">
<title>&#45;3&#45;&gt;162</title>
<path fill="none" stroke="#ff0000" stroke-width=".3835" d="M230.2347,-229.5865C221.745,-207.7564 199.8157,-151.3681 186.2056,-116.3715"/>
<polygon fill="#ff0000" stroke="#ff0000" stroke-width=".3835" points="189.3259,-114.7382 182.4393,-106.6868 182.8018,-117.2755 189.3259,-114.7382"/>
</g>
<!-- &#45;3&#45;&gt;159 -->
<g id="edge7" class="edge">
<title>&#45;3&#45;&gt;159</title>
<path fill="none" stroke="#00ff00" stroke-width=".1803" d="M245.1225,-229.5039C257.909,-219.2529 279.0628,-202.2937 295.7512,-188.9144"/>
<polygon fill="#00ff00" stroke="#00ff00" stroke-width=".1803" points="298.3903,-191.2845 304.0032,-182.2987 294.0117,-185.823 298.3903,-191.2845"/>
</g>
<!-- 0 -->
<g id="node4" class="node">
<title>0</title>
<ellipse fill="#add8e6" stroke="#000000" cx="180.7487" cy="-14.8492" rx="14.7" ry="14.7"/>
<text text-anchor="middle" x="180.7487" y="-12.6492" font-family="Times,serif" font-size="9.00" fill="#000000">0</text>
</g>
<!-- 1 -->
<g id="node5" class="node">
<title>1</title>
<ellipse fill="#add8e6" stroke="#000000" cx="231.7487" cy="-14.8492" rx="14.7" ry="14.7"/>
<text text-anchor="middle" x="231.7487" y="-12.6492" font-family="Times,serif" font-size="9.00" fill="#000000">1</text>
</g>
<!-- 161&#45;&gt;0 -->
<g id="edge15" class="edge">
<title>161&#45;&gt;0</title>
<path fill="none" stroke="#00ff00" stroke-width=".2003" stroke-dasharray="1,5" d="M129.3963,-70.9187C139.5171,-59.8682 153.0148,-45.1307 163.632,-33.5382"/>
<polygon fill="#00ff00" stroke="#00ff00" stroke-width=".2003" points="166.2723,-35.8375 170.4453,-26.0991 161.1101,-31.1097 166.2723,-35.8375"/>
</g>
<!-- 161&#45;&gt;1 -->
<g id="edge16" class="edge">
<title>161&#45;&gt;1</title>
<path fill="none" stroke="#00ff00" stroke-width=".3278" d="M132.0239,-74.314C136.1468,-71.4144 140.5658,-68.3927 144.7487,-65.6985 166.3421,-51.7907 191.7816,-37.1111 209.554,-27.1191"/>
<polygon fill="#00ff00" stroke="#00ff00" stroke-width=".3278" points="211.5425,-30.0174 218.5657,-22.0848 208.1286,-23.9063 211.5425,-30.0174"/>
</g>
<!-- 160&#45;&gt;0 -->
<g id="edge13" class="edge">
<title>160&#45;&gt;0</title>
<path fill="none" stroke="#ff0000" stroke-width=".2416" stroke-dasharray="1,5" d="M221.9515,-69.8339C214.1748,-59.456 204.2006,-46.1455 196.0137,-35.2201"/>
<polygon fill="#ff0000" stroke="#ff0000" stroke-width=".2416" points="198.7048,-32.9748 189.9072,-27.0711 193.103,-37.1725 198.7048,-32.9748"/>
</g>
<!-- 160&#45;&gt;1 -->
<g id="edge14" class="edge">
<title>160&#45;&gt;1</title>
<path fill="none" stroke="#ff0000" stroke-width=".1034" d="M233.8649,-65.6803C233.5295,-57.6235 233.1443,-48.3716 232.7953,-39.9882"/>
<polygon fill="#ff0000" stroke="#ff0000" stroke-width=".1034" points="236.292,-39.8346 232.379,-29.9888 229.2981,-40.1258 236.292,-39.8346"/>
</g>
<!-- 162&#45;&gt;0 -->
<g id="edge17" class="edge">
<title>162&#45;&gt;0</title>
<path fill="none" stroke="#ff0000" stroke-width=".3906" d="M176.5165,-65.6803C177.1873,-57.6235 177.9576,-48.3716 178.6556,-39.9882"/>
<polygon fill="#ff0000" stroke="#ff0000" stroke-width=".3906" points="182.1463,-40.2448 179.4882,-29.9888 175.1704,-39.6639 182.1463,-40.2448"/>
</g>
<!-- 162&#45;&gt;1 -->
<g id="edge18" class="edge">
<title>162&#45;&gt;1</title>
<path fill="none" stroke="#ff0000" stroke-width=".5" stroke-dasharray="1,5" d="M187.969,-70.198C196.3553,-59.5956 207.2476,-45.8249 216.0695,-34.6717"/>
<polygon fill="#ff0000" stroke="#ff0000" stroke-width=".5" points="218.8777,-36.7633 222.3363,-26.7489 213.3875,-32.4207 218.8777,-36.7633"/>
</g>
<!-- 1865&#45;&gt;161 -->
<g id="edge20" class="edge">
<title>1865&#45;&gt;161</title>
<path fill="none" stroke="#ff0000" stroke-width=".2987" d="M43.3968,-151.8911C57.2115,-139.3102 76.1422,-122.0702 91.0329,-108.5094"/>
<polygon fill="#ff0000" stroke="#ff0000" stroke-width=".2987" points="93.7949,-110.728 98.8318,-101.4071 89.0816,-105.5525 93.7949,-110.728"/>
</g>
<!-- 159&#45;&gt;0 -->
<g id="edge11" class="edge">
<title>159&#45;&gt;0</title>
<path fill="none" stroke="#00ff00" stroke-width=".2692" d="M313.5103,-148.6604C304.7154,-126.2926 288.102,-90.1777 264.7487,-65.6985 259.862,-60.5762 225.9493,-40.6916 202.7369,-27.3593"/>
<polygon fill="#00ff00" stroke="#00ff00" stroke-width=".2692" points="204.2735,-24.2061 193.8557,-22.2775 200.797,-30.2818 204.2735,-24.2061"/>
</g>
<!-- 159&#45;&gt;1 -->
<g id="edge12" class="edge">
<title>159&#45;&gt;1</title>
<path fill="none" stroke="#ff0000" stroke-width=".3855" d="M320.1802,-147.5016C318.6828,-125.4337 313.7129,-90.779 297.7487,-65.6985 287.0448,-48.882 268.7386,-35.4351 254.1172,-26.6032"/>
<polygon fill="#ff0000" stroke="#ff0000" stroke-width=".3855" points="255.5757,-23.4054 245.1579,-21.4769 252.0993,-29.4811 255.5757,-23.4054"/>
</g>
<!-- 159&#45;&gt;160 -->
<g id="edge21" class="edge">
<title>159&#45;&gt;160</title>
<path fill="none" stroke="#ff0000" stroke-width=".1423" d="M305.3737,-154.2205C292.1259,-141.5947 272.8114,-123.1872 257.7281,-108.8121"/>
<polygon fill="#ff0000" stroke="#ff0000" stroke-width=".1423" points="259.9344,-106.0798 250.2807,-101.7143 255.105,-111.1471 259.9344,-106.0798"/>
</g>
</g>
</svg>
