<?xml version="1.0" encoding="UTF-8" standalone="no"?>
<!DOCTYPE svg PUBLIC "-//W3C//DTD SVG 1.1//EN"
 "http://www.w3.org/Graphics/SVG/1.1/DTD/svg11.dtd">
<!-- Generated by graphviz version 2.40.1 (20161225.0304)
 -->
<!-- Title: %3 Pages: 1 -->
<svg width="343pt" height="263pt"
 viewBox="0.00 0.00 343.45 262.69" xmlns="http://www.w3.org/2000/svg" xmlns:xlink="http://www.w3.org/1999/xlink">
<g id="graph0" class="graph" transform="scale(1 1) rotate(0) translate(4 258.6934)">
<title>%3</title>
<polygon fill="#ffffff" stroke="transparent" points="-4,4 -4,-258.6934 339.4465,-258.6934 339.4465,4 -4,4"/>
<!-- &#45;1 -->
<g id="node1" class="node">
<title>&#45;1</title>
<polygon fill="#d3d3d3" stroke="#000000" points="147.6977,-184.9447 123.6977,-184.9447 123.6977,-166.9447 147.6977,-166.9447 147.6977,-184.9447"/>
<text text-anchor="middle" x="135.6977" y="-173.7447" font-family="Times,serif" font-size="9.00" fill="#000000">&#45;1</text>
</g>
<!-- 1334 -->
<g id="node7" class="node">
<title>1334</title>
<ellipse fill="#ffffff" stroke="#000000" cx="176.6977" cy="-90.4472" rx="25" ry="25"/>
<text text-anchor="middle" x="176.6977" y="-88.2472" font-family="Times,serif" font-size="9.00" fill="#000000">1334</text>
</g>
<!-- &#45;1&#45;&gt;1334 -->
<g id="edge1" class="edge">
<title>&#45;1&#45;&gt;1334</title>
<path fill="none" stroke="#ff0000" stroke-width=".1387" d="M140.0854,-166.795C145.197,-156.1358 153.919,-137.9478 161.5679,-121.9975"/>
<polygon fill="#ff0000" stroke="#ff0000" stroke-width=".1387" points="164.7439,-123.4689 165.9121,-112.9386 158.4321,-120.442 164.7439,-123.4689"/>
</g>
<!-- 1335 -->
<g id="node8" class="node">
<title>1335</title>
<ellipse fill="#ffffff" stroke="#000000" cx="243.6977" cy="-90.4472" rx="25" ry="25"/>
<text text-anchor="middle" x="243.6977" y="-88.2472" font-family="Times,serif" font-size="9.00" fill="#000000">1335</text>
</g>
<!-- &#45;1&#45;&gt;1335 -->
<g id="edge2" class="edge">
<title>&#45;1&#45;&gt;1335</title>
<path fill="none" stroke="#00ff00" stroke-width=".1315" d="M142.5278,-166.697C146.3896,-161.7948 151.4796,-155.843 156.6977,-151.196 178.2383,-132.0126 187.1507,-131.8554 210.6977,-115.196 212.32,-114.0482 213.9784,-112.8584 215.6459,-111.6493"/>
<polygon fill="#00ff00" stroke="#00ff00" stroke-width=".1315" points="217.9573,-114.2939 223.9355,-105.5467 213.8073,-108.6567 217.9573,-114.2939"/>
</g>
<!-- 1337 -->
<g id="node9" class="node">
<title>1337</title>
<ellipse fill="#ffffff" stroke="#000000" cx="42.6977" cy="-90.4472" rx="25" ry="25"/>
<text text-anchor="middle" x="42.6977" y="-88.2472" font-family="Times,serif" font-size="9.00" fill="#000000">1337</text>
</g>
<!-- &#45;1&#45;&gt;1337 -->
<g id="edge3" class="edge">
<title>&#45;1&#45;&gt;1337</title>
<path fill="none" stroke="#00ff00" stroke-width=".2843" d="M125.7451,-166.795C112.2367,-154.3763 87.6121,-131.7382 68.6716,-114.3257"/>
<polygon fill="#00ff00" stroke="#00ff00" stroke-width=".2843" points="70.9411,-111.6579 61.2106,-107.4666 66.2036,-116.8111 70.9411,-111.6579"/>
</g>
<!-- 1339 -->
<g id="node11" class="node">
<title>1339</title>
<ellipse fill="#ffffff" stroke="#000000" cx="109.6977" cy="-90.4472" rx="25" ry="25"/>
<text text-anchor="middle" x="109.6977" y="-88.2472" font-family="Times,serif" font-size="9.00" fill="#000000">1339</text>
</g>
<!-- &#45;1&#45;&gt;1339 -->
<g id="edge4" class="edge">
<title>&#45;1&#45;&gt;1339</title>
<path fill="none" stroke="#00ff00" stroke-width=".2193" d="M132.9153,-166.795C129.8204,-156.6178 124.6383,-139.5771 119.9541,-124.1738"/>
<polygon fill="#00ff00" stroke="#00ff00" stroke-width=".2193" points="123.2329,-122.9258 116.9748,-114.3767 116.5357,-124.9625 123.2329,-122.9258"/>
</g>
<!-- &#45;2 -->
<g id="node2" class="node">
<title>&#45;2</title>
<polygon fill="#d3d3d3" stroke="#000000" points="168.6977,-254.6934 144.6977,-254.6934 144.6977,-236.6934 168.6977,-236.6934 168.6977,-254.6934"/>
<text text-anchor="middle" x="156.6977" y="-243.4934" font-family="Times,serif" font-size="9.00" fill="#000000">&#45;2</text>
</g>
<!-- 1867 -->
<g id="node6" class="node">
<title>1867</title>
<ellipse fill="#ffffff" stroke="#000000" cx="42.6977" cy="-175.9447" rx="25" ry="25"/>
<text text-anchor="middle" x="42.6977" y="-173.7447" font-family="Times,serif" font-size="9.00" fill="#000000">1867</text>
</g>
<!-- &#45;2&#45;&gt;1867 -->
<g id="edge25" class="edge">
<title>&#45;2&#45;&gt;1867</title>
<path fill="none" stroke="#00ff00" stroke-width=".3754" d="M144.6915,-238.6151C129.8349,-229.8275 103.7943,-214.3305 81.6977,-200.6934 78.6717,-198.8259 75.5238,-196.8627 72.387,-194.8932"/>
<polygon fill="#00ff00" stroke="#00ff00" stroke-width=".3754" points="74.0111,-191.7793 63.687,-189.3994 70.2736,-197.698 74.0111,-191.7793"/>
</g>
<!-- &#45;2&#45;&gt;1334 -->
<g id="edge5" class="edge">
<title>&#45;2&#45;&gt;1334</title>
<path fill="none" stroke="#00ff00" stroke-width=".3115" d="M168.9115,-236.9296C179.0513,-228.8362 192.7411,-215.8055 198.6977,-200.6934 208.7353,-175.228 201.1722,-144.5767 192.2805,-122.0644"/>
<polygon fill="#00ff00" stroke="#00ff00" stroke-width=".3115" points="195.4171,-120.4951 188.2986,-112.648 188.9699,-123.2216 195.4171,-120.4951"/>
</g>
<!-- &#45;2&#45;&gt;1335 -->
<g id="edge6" class="edge">
<title>&#45;2&#45;&gt;1335</title>
<path fill="none" stroke="#ff0000" stroke-width=".4712" d="M168.8373,-239.4626C182.1075,-232.0241 203.0314,-218.3424 214.6977,-200.6934 229.5563,-178.2152 236.8129,-148.4638 240.3507,-125.5332"/>
<polygon fill="#ff0000" stroke="#ff0000" stroke-width=".4712" points="243.8315,-125.9122 241.7285,-115.5281 236.8969,-124.9572 243.8315,-125.9122"/>
</g>
<!-- &#45;2&#45;&gt;1337 -->
<g id="edge7" class="edge">
<title>&#45;2&#45;&gt;1337</title>
<path fill="none" stroke="#ff0000" stroke-width=".2557" d="M144.3259,-243.833C111.7995,-238.6642 25.2485,-223.0246 8.6977,-200.6934 -9.3595,-176.3296 5.8353,-142.2217 21.2659,-118.4179"/>
<polygon fill="#ff0000" stroke="#ff0000" stroke-width=".2557" points="24.1602,-120.3858 26.9004,-110.1514 18.3761,-116.4433 24.1602,-120.3858"/>
</g>
<!-- 1338 -->
<g id="node10" class="node">
<title>1338</title>
<ellipse fill="#ffffff" stroke="#000000" cx="310.6977" cy="-90.4472" rx="25" ry="25"/>
<text text-anchor="middle" x="310.6977" y="-88.2472" font-family="Times,serif" font-size="9.00" fill="#000000">1338</text>
</g>
<!-- &#45;2&#45;&gt;1338 -->
<g id="edge8" class="edge">
<title>&#45;2&#45;&gt;1338</title>
<path fill="none" stroke="#00ff00" stroke-width=".1709" d="M168.7024,-241.2898C185.7783,-234.576 217.3715,-220.4449 238.6977,-200.6934 262.9804,-178.2038 282.8259,-145.8902 295.4865,-122.0578"/>
<polygon fill="#00ff00" stroke="#00ff00" stroke-width=".1709" points="298.656,-123.5482 300.142,-113.0581 292.4386,-120.3319 298.656,-123.5482"/>
</g>
<!-- &#45;2&#45;&gt;1339 -->
<g id="edge9" class="edge">
<title>&#45;2&#45;&gt;1339</title>
<path fill="none" stroke="#00ff00" stroke-width=".352" d="M144.6528,-236.8609C134.6211,-228.7234 120.9952,-215.6667 114.6977,-200.6934 104.6943,-176.9088 103.832,-147.6389 105.2616,-125.2371"/>
<polygon fill="#00ff00" stroke="#00ff00" stroke-width=".352" points="108.7589,-125.4117 106.0861,-115.1595 101.7822,-124.8408 108.7589,-125.4117"/>
</g>
<!-- &#45;3 -->
<g id="node3" class="node">
<title>&#45;3</title>
<polygon fill="#d3d3d3" stroke="#000000" points="189.6977,-184.9447 165.6977,-184.9447 165.6977,-166.9447 189.6977,-166.9447 189.6977,-184.9447"/>
<text text-anchor="middle" x="177.6977" y="-173.7447" font-family="Times,serif" font-size="9.00" fill="#000000">&#45;3</text>
</g>
<!-- &#45;3&#45;&gt;1334 -->
<g id="edge10" class="edge">
<title>&#45;3&#45;&gt;1334</title>
<path fill="none" stroke="#ff0000" stroke-width=".3112" d="M177.5907,-166.795C177.4753,-156.9247 177.2843,-140.5987 177.1086,-125.5717"/>
<polygon fill="#ff0000" stroke="#ff0000" stroke-width=".3112" points="180.6072,-125.4296 176.9904,-115.4712 173.6077,-125.5115 180.6072,-125.4296"/>
</g>
<!-- &#45;3&#45;&gt;1335 -->
<g id="edge11" class="edge">
<title>&#45;3&#45;&gt;1335</title>
<path fill="none" stroke="#00ff00" stroke-width=".5" d="M184.7609,-166.795C193.5961,-155.3496 209.1322,-135.2239 222.0356,-118.5087"/>
<polygon fill="#00ff00" stroke="#00ff00" stroke-width=".5" points="225.1537,-120.1971 228.4939,-110.1426 219.6126,-115.9197 225.1537,-120.1971"/>
</g>
<!-- &#45;3&#45;&gt;1337 -->
<g id="edge12" class="edge">
<title>&#45;3&#45;&gt;1337</title>
<path fill="none" stroke="#00ff00" stroke-width=".13" d="M171.528,-166.8126C167.7215,-161.7062 162.4715,-155.519 156.6977,-151.196 125.1622,-127.5842 109.6714,-135.1406 75.6977,-115.196 73.984,-114.1899 72.254,-113.1111 70.5314,-111.9872"/>
<polygon fill="#00ff00" stroke="#00ff00" stroke-width=".13" points="72.299,-108.9534 62.0901,-106.1196 68.3036,-114.7012 72.299,-108.9534"/>
</g>
<!-- &#45;3&#45;&gt;1338 -->
<g id="edge13" class="edge">
<title>&#45;3&#45;&gt;1338</title>
<path fill="none" stroke="#ff0000" stroke-width=".2572" d="M189.9431,-169.0232C209.0366,-158.1164 246.9059,-136.0227 277.6977,-115.196 279.3438,-114.0826 281.0208,-112.9198 282.7026,-111.7314"/>
<polygon fill="#ff0000" stroke="#ff0000" stroke-width=".2572" points="284.9948,-114.3925 291.0317,-105.6858 280.8828,-108.7275 284.9948,-114.3925"/>
</g>
<!-- &#45;3&#45;&gt;1339 -->
<g id="edge14" class="edge">
<title>&#45;3&#45;&gt;1339</title>
<path fill="none" stroke="#ff0000" stroke-width=".2834" d="M170.4205,-166.795C161.234,-155.2446 145.0164,-134.8539 131.651,-118.0495"/>
<polygon fill="#ff0000" stroke="#ff0000" stroke-width=".2834" points="134.3263,-115.7904 125.3623,-110.1426 128.8478,-120.1477 134.3263,-115.7904"/>
</g>
<!-- 0 -->
<g id="node4" class="node">
<title>0</title>
<ellipse fill="#add8e6" stroke="#000000" cx="152.6977" cy="-14.8492" rx="14.7" ry="14.7"/>
<text text-anchor="middle" x="152.6977" y="-12.6492" font-family="Times,serif" font-size="9.00" fill="#000000">0</text>
</g>
<!-- 1 -->
<g id="node5" class="node">
<title>1</title>
<ellipse fill="#add8e6" stroke="#000000" cx="200.6977" cy="-14.8492" rx="14.7" ry="14.7"/>
<text text-anchor="middle" x="200.6977" y="-12.6492" font-family="Times,serif" font-size="9.00" fill="#000000">1</text>
</g>
<!-- 1867&#45;&gt;1337 -->
<g id="edge26" class="edge">
<title>1867&#45;&gt;1337</title>
<path fill="none" stroke="#00ff00" stroke-width=".2711" d="M42.6977,-150.7551C42.6977,-142.8408 42.6977,-133.9548 42.6977,-125.4862"/>
<polygon fill="#00ff00" stroke="#00ff00" stroke-width=".2711" points="46.1978,-125.4568 42.6977,-115.4568 39.1978,-125.4569 46.1978,-125.4568"/>
</g>
<!-- 1334&#45;&gt;0 -->
<g id="edge15" class="edge">
<title>1334&#45;&gt;0</title>
<path fill="none" stroke="#ff0000" stroke-width=".1778" d="M169.104,-66.5275C166.3007,-57.6976 163.125,-47.6942 160.3193,-38.8566"/>
<polygon fill="#ff0000" stroke="#ff0000" stroke-width=".1778" points="163.602,-37.6297 157.2402,-29.1575 156.9302,-39.7478 163.602,-37.6297"/>
</g>
<!-- 1334&#45;&gt;1 -->
<g id="edge16" class="edge">
<title>1334&#45;&gt;1</title>
<path fill="none" stroke="#00ff00" stroke-width=".2306" d="M184.2915,-66.5275C187.0947,-57.6976 190.2705,-47.6942 193.0762,-38.8566"/>
<polygon fill="#00ff00" stroke="#00ff00" stroke-width=".2306" points="196.4653,-39.7478 196.1553,-29.1575 189.7934,-37.6297 196.4653,-39.7478"/>
</g>
<!-- 1335&#45;&gt;0 -->
<g id="edge17" class="edge">
<title>1335&#45;&gt;0</title>
<path fill="none" stroke="#00ff00" stroke-width=".4711" d="M224.399,-74.4148C208.9918,-61.6154 187.5044,-43.7648 172.0763,-30.948"/>
<polygon fill="#00ff00" stroke="#00ff00" stroke-width=".4711" points="174.1342,-28.1073 164.2056,-24.4094 169.6611,-33.4917 174.1342,-28.1073"/>
</g>
<!-- 1335&#45;&gt;1 -->
<g id="edge18" class="edge">
<title>1335&#45;&gt;1</title>
<path fill="none" stroke="#ff0000" stroke-width=".1936" d="M231.2603,-68.5812C225.6214,-58.6673 218.9643,-46.9636 213.3051,-37.0142"/>
<polygon fill="#ff0000" stroke="#ff0000" stroke-width=".1936" points="216.2373,-35.0901 208.2508,-28.1283 210.1527,-38.551 216.2373,-35.0901"/>
</g>
<!-- 1337&#45;&gt;0 -->
<g id="edge19" class="edge">
<title>1337&#45;&gt;0</title>
<path fill="none" stroke="#00ff00" stroke-width=".1213" stroke-dasharray="1,5" d="M62.4499,-75.3334C66.7796,-72.1049 71.3649,-68.7498 75.6977,-65.6985 94.3112,-52.5904 115.9872,-38.366 131.5898,-28.3039"/>
<polygon fill="#00ff00" stroke="#00ff00" stroke-width=".1213" points="133.4817,-31.2485 140.0055,-22.9004 129.6997,-25.3582 133.4817,-31.2485"/>
</g>
<!-- 1337&#45;&gt;1 -->
<g id="edge20" class="edge">
<title>1337&#45;&gt;1</title>
<path fill="none" stroke="#ff0000" stroke-width=".1883" d="M61.9409,-74.5092C66.3024,-71.3321 71.0293,-68.2062 75.6977,-65.6985 117.6794,-43.1474 133.7502,-50.351 176.6977,-29.6985 177.5477,-29.2897 178.4056,-28.8585 179.2654,-28.4104"/>
<polygon fill="#ff0000" stroke="#ff0000" stroke-width=".1883" points="181.3536,-31.2471 188.2763,-23.2267 177.8629,-25.1794 181.3536,-31.2471"/>
</g>
<!-- 1338&#45;&gt;0 -->
<g id="edge21" class="edge">
<title>1338&#45;&gt;0</title>
<path fill="none" stroke="#00ff00" stroke-width=".1899" d="M291.4546,-74.5092C287.0931,-71.3321 282.3662,-68.2062 277.6977,-65.6985 235.7161,-43.1474 219.6452,-50.351 176.6977,-29.6985 175.8477,-29.2897 174.9898,-28.8585 174.1301,-28.4104"/>
<polygon fill="#00ff00" stroke="#00ff00" stroke-width=".1899" points="175.5325,-25.1794 165.1192,-23.2267 172.0419,-31.2471 175.5325,-25.1794"/>
</g>
<!-- 1338&#45;&gt;1 -->
<g id="edge22" class="edge">
<title>1338&#45;&gt;1</title>
<path fill="none" stroke="#ff0000" stroke-width=".1432" d="M290.9456,-75.3334C286.6158,-72.1049 282.0305,-68.7498 277.6977,-65.6985 259.0843,-52.5904 237.4083,-38.366 221.8057,-28.3039"/>
<polygon fill="#ff0000" stroke="#ff0000" stroke-width=".1432" points="223.6958,-25.3582 213.39,-22.9004 219.9137,-31.2485 223.6958,-25.3582"/>
</g>
<!-- 1339&#45;&gt;0 -->
<g id="edge23" class="edge">
<title>1339&#45;&gt;0</title>
<path fill="none" stroke="#ff0000" stroke-width=".5" d="M122.1351,-68.5812C127.7741,-58.6673 134.4311,-46.9636 140.0903,-37.0142"/>
<polygon fill="#ff0000" stroke="#ff0000" stroke-width=".5" points="143.2427,-38.551 145.1446,-28.1283 137.1581,-35.0901 143.2427,-38.551"/>
</g>
<!-- 1339&#45;&gt;1 -->
<g id="edge24" class="edge">
<title>1339&#45;&gt;1</title>
<path fill="none" stroke="#00ff00" stroke-width=".4423" d="M128.9965,-74.4148C144.4036,-61.6154 165.891,-43.7648 181.3191,-30.948"/>
<polygon fill="#00ff00" stroke="#00ff00" stroke-width=".4423" points="183.7344,-33.4917 189.1898,-24.4094 179.2613,-28.1073 183.7344,-33.4917"/>
</g>
</g>
</svg>
