<?xml version="1.0" encoding="UTF-8" standalone="no"?>
<!DOCTYPE svg PUBLIC "-//W3C//DTD SVG 1.1//EN"
 "http://www.w3.org/Graphics/SVG/1.1/DTD/svg11.dtd">
<!-- Generated by graphviz version 2.40.1 (20161225.0304)
 -->
<!-- Title: %3 Pages: 1 -->
<svg width="652pt" height="177pt"
 viewBox="0.00 0.00 651.50 177.20" xmlns="http://www.w3.org/2000/svg" xmlns:xlink="http://www.w3.org/1999/xlink">
<g id="graph0" class="graph" transform="scale(1 1) rotate(0) translate(4 173.196)">
<title>%3</title>
<polygon fill="#ffffff" stroke="transparent" points="-4,4 -4,-173.196 647.5,-173.196 647.5,4 -4,4"/>
<!-- &#45;1 -->
<g id="node1" class="node">
<title>&#45;1</title>
<polygon fill="#d3d3d3" stroke="#000000" points="259.5,-169.196 235.5,-169.196 235.5,-151.196 259.5,-151.196 259.5,-169.196"/>
<text text-anchor="middle" x="247.5" y="-157.996" font-family="Times,serif" font-size="9.00" fill="#000000">&#45;1</text>
</g>
<!-- 1604 -->
<g id="node18" class="node">
<title>1604</title>
<ellipse fill="#ffffff" stroke="#000000" cx="289.5" cy="-90.4472" rx="25" ry="25"/>
<text text-anchor="middle" x="289.5" y="-88.2472" font-family="Times,serif" font-size="9.00" fill="#000000">1604</text>
</g>
<!-- &#45;1&#45;&gt;1604 -->
<g id="edge1" class="edge">
<title>&#45;1&#45;&gt;1604</title>
<path fill="none" stroke="#00ff00" stroke-width=".2186" d="M252.9908,-151.0775C257.6929,-143.2688 264.7389,-131.5676 271.3905,-120.5213"/>
<polygon fill="#00ff00" stroke="#00ff00" stroke-width=".2186" points="274.4279,-122.262 276.5881,-111.8898 268.4312,-118.651 274.4279,-122.262"/>
</g>
<!-- 1605 -->
<g id="node19" class="node">
<title>1605</title>
<ellipse fill="#ffffff" stroke="#000000" cx="356.5" cy="-90.4472" rx="25" ry="25"/>
<text text-anchor="middle" x="356.5" y="-88.2472" font-family="Times,serif" font-size="9.00" fill="#000000">1605</text>
</g>
<!-- &#45;1&#45;&gt;1605 -->
<g id="edge2" class="edge">
<title>&#45;1&#45;&gt;1605</title>
<path fill="none" stroke="#ff0000" stroke-width=".4934" d="M259.5948,-153.5733C274.8011,-145.1254 301.5704,-129.8485 323.5,-115.196 325.1524,-114.0919 326.8343,-112.9364 328.5199,-111.7536"/>
<polygon fill="#ff0000" stroke="#ff0000" stroke-width=".4934" points="330.8066,-114.4193 336.8593,-105.7235 326.705,-108.7468 330.8066,-114.4193"/>
</g>
<!-- 1606 -->
<g id="node20" class="node">
<title>1606</title>
<ellipse fill="#ffffff" stroke="#000000" cx="155.5" cy="-90.4472" rx="25" ry="25"/>
<text text-anchor="middle" x="155.5" y="-88.2472" font-family="Times,serif" font-size="9.00" fill="#000000">1606</text>
</g>
<!-- &#45;1&#45;&gt;1606 -->
<g id="edge3" class="edge">
<title>&#45;1&#45;&gt;1606</title>
<path fill="none" stroke="#ff0000" stroke-width=".348" d="M235.4726,-151.0775C222.3295,-141.1132 200.8263,-124.8108 183.4259,-111.6189"/>
<polygon fill="#ff0000" stroke="#ff0000" stroke-width=".348" points="185.3514,-108.6866 175.2681,-105.4342 181.1224,-114.2647 185.3514,-108.6866"/>
</g>
<!-- 1607 -->
<g id="node21" class="node">
<title>1607</title>
<ellipse fill="#ffffff" stroke="#000000" cx="423.5" cy="-90.4472" rx="25" ry="25"/>
<text text-anchor="middle" x="423.5" y="-88.2472" font-family="Times,serif" font-size="9.00" fill="#000000">1607</text>
</g>
<!-- &#45;1&#45;&gt;1607 -->
<g id="edge4" class="edge">
<title>&#45;1&#45;&gt;1607</title>
<path fill="none" stroke="#ff0000" stroke-width=".4599" d="M259.8402,-154.6206C262.661,-153.4265 265.664,-152.2181 268.5,-151.196 321.6849,-132.0278 339.9743,-140.5574 390.5,-115.196 392.2761,-114.3045 394.0549,-113.3154 395.8149,-112.2605"/>
<polygon fill="#ff0000" stroke="#ff0000" stroke-width=".4599" points="397.9676,-115.0324 404.3595,-106.5829 394.0935,-109.2021 397.9676,-115.0324"/>
</g>
<!-- 1608 -->
<g id="node22" class="node">
<title>1608</title>
<ellipse fill="#ffffff" stroke="#000000" cx="490.5" cy="-90.4472" rx="25" ry="25"/>
<text text-anchor="middle" x="490.5" y="-88.2472" font-family="Times,serif" font-size="9.00" fill="#000000">1608</text>
</g>
<!-- &#45;1&#45;&gt;1608 -->
<g id="edge5" class="edge">
<title>&#45;1&#45;&gt;1608</title>
<path fill="none" stroke="#ff0000" stroke-width=".4062" d="M259.7705,-154.4112C262.595,-153.228 265.617,-152.0769 268.5,-151.196 350.2776,-126.2074 379.2775,-149.7393 457.5,-115.196 459.3179,-114.3932 461.1294,-113.4736 462.9146,-112.4721"/>
<polygon fill="#ff0000" stroke="#ff0000" stroke-width=".4062" points="465.0046,-115.2896 471.5286,-106.9416 461.2227,-109.3991 465.0046,-115.2896"/>
</g>
<!-- 1609 -->
<g id="node23" class="node">
<title>1609</title>
<ellipse fill="#ffffff" stroke="#000000" cx="222.5" cy="-90.4472" rx="25" ry="25"/>
<text text-anchor="middle" x="222.5" y="-88.2472" font-family="Times,serif" font-size="9.00" fill="#000000">1609</text>
</g>
<!-- &#45;1&#45;&gt;1609 -->
<g id="edge6" class="edge">
<title>&#45;1&#45;&gt;1609</title>
<path fill="none" stroke="#ff0000" stroke-width=".3106" d="M244.2317,-151.0775C241.6841,-143.9698 237.9805,-133.6371 234.3503,-123.5089"/>
<polygon fill="#ff0000" stroke="#ff0000" stroke-width=".3106" points="237.6012,-122.2055 230.9323,-113.9728 231.0117,-124.5674 237.6012,-122.2055"/>
</g>
<!-- &#45;2 -->
<g id="node2" class="node">
<title>&#45;2</title>
<polygon fill="#d3d3d3" stroke="#000000" points="301.5,-169.196 277.5,-169.196 277.5,-151.196 301.5,-151.196 301.5,-169.196"/>
<text text-anchor="middle" x="289.5" y="-157.996" font-family="Times,serif" font-size="9.00" fill="#000000">&#45;2</text>
</g>
<!-- &#45;2&#45;&gt;1604 -->
<g id="edge7" class="edge">
<title>&#45;2&#45;&gt;1604</title>
<path fill="none" stroke="#00ff00" stroke-width=".5" d="M289.5,-151.0775C289.5,-144.4608 289.5,-135.0493 289.5,-125.6096"/>
<polygon fill="#00ff00" stroke="#00ff00" stroke-width=".5" points="293.0001,-125.4865 289.5,-115.4865 286.0001,-125.4865 293.0001,-125.4865"/>
</g>
<!-- &#45;2&#45;&gt;1605 -->
<g id="edge8" class="edge">
<title>&#45;2&#45;&gt;1605</title>
<path fill="none" stroke="#ff0000" stroke-width=".1989" d="M298.2591,-151.0775C306.8364,-142.1483 320.3029,-128.1294 332.127,-115.8201"/>
<polygon fill="#ff0000" stroke="#ff0000" stroke-width=".1989" points="334.8152,-118.074 339.2186,-108.4376 329.7669,-113.2247 334.8152,-118.074"/>
</g>
<!-- &#45;2&#45;&gt;1606 -->
<g id="edge9" class="edge">
<title>&#45;2&#45;&gt;1606</title>
<path fill="none" stroke="#00ff00" stroke-width=".3796" d="M277.1775,-154.8904C252.0671,-144.0519 196.6509,-119.9861 188.5,-115.196 186.7867,-114.1891 185.0571,-113.1097 183.3348,-111.9853"/>
<polygon fill="#00ff00" stroke="#00ff00" stroke-width=".3796" points="185.1027,-108.9517 174.8943,-106.1164 181.1065,-114.6989 185.1027,-108.9517"/>
</g>
<!-- &#45;2&#45;&gt;1607 -->
<g id="edge10" class="edge">
<title>&#45;2&#45;&gt;1607</title>
<path fill="none" stroke="#00ff00" stroke-width=".1896" d="M301.8225,-154.8904C326.9329,-144.0519 382.3491,-119.9861 390.5,-115.196 392.2133,-114.1891 393.9429,-113.1097 395.6652,-111.9853"/>
<polygon fill="#00ff00" stroke="#00ff00" stroke-width=".1896" points="397.8935,-114.6989 404.1057,-106.1164 393.8973,-108.9517 397.8935,-114.6989"/>
</g>
<!-- &#45;2&#45;&gt;1608 -->
<g id="edge11" class="edge">
<title>&#45;2&#45;&gt;1608</title>
<path fill="none" stroke="#ff0000" stroke-width=".2429" d="M301.8059,-154.5218C304.6285,-153.3329 307.6409,-152.1515 310.5,-151.196 374.2956,-129.8754 396.6951,-143.9573 457.5,-115.196 459.2964,-114.3462 461.0912,-113.3899 462.8635,-112.3601"/>
<polygon fill="#ff0000" stroke="#ff0000" stroke-width=".2429" points="464.9871,-115.1534 471.4419,-106.7518 461.1566,-109.2944 464.9871,-115.1534"/>
</g>
<!-- &#45;2&#45;&gt;1609 -->
<g id="edge12" class="edge">
<title>&#45;2&#45;&gt;1609</title>
<path fill="none" stroke="#00ff00" stroke-width=".319" d="M280.7409,-151.0775C272.1636,-142.1483 258.6971,-128.1294 246.873,-115.8201"/>
<polygon fill="#00ff00" stroke="#00ff00" stroke-width=".319" points="249.2331,-113.2247 239.7814,-108.4376 244.1848,-118.074 249.2331,-113.2247"/>
</g>
<!-- &#45;3 -->
<g id="node3" class="node">
<title>&#45;3</title>
<polygon fill="#d3d3d3" stroke="#000000" points="343.5,-169.196 319.5,-169.196 319.5,-151.196 343.5,-151.196 343.5,-169.196"/>
<text text-anchor="middle" x="331.5" y="-157.996" font-family="Times,serif" font-size="9.00" fill="#000000">&#45;3</text>
</g>
<!-- &#45;3&#45;&gt;1604 -->
<g id="edge13" class="edge">
<title>&#45;3&#45;&gt;1604</title>
<path fill="none" stroke="#00ff00" stroke-width=".2382" stroke-dasharray="1,5" d="M326.0092,-151.0775C321.3071,-143.2688 314.2611,-131.5676 307.6095,-120.5213"/>
<polygon fill="#00ff00" stroke="#00ff00" stroke-width=".2382" points="310.5688,-118.651 302.4119,-111.8898 304.5721,-122.262 310.5688,-118.651"/>
</g>
<!-- &#45;3&#45;&gt;1605 -->
<g id="edge14" class="edge">
<title>&#45;3&#45;&gt;1605</title>
<path fill="none" stroke="#00ff00" stroke-width=".2735" stroke-dasharray="1,5" d="M334.7683,-151.0775C337.3159,-143.9698 341.0195,-133.6371 344.6497,-123.5089"/>
<polygon fill="#00ff00" stroke="#00ff00" stroke-width=".2735" points="347.9883,-124.5674 348.0677,-113.9728 341.3988,-122.2055 347.9883,-124.5674"/>
</g>
<!-- &#45;3&#45;&gt;1606 -->
<g id="edge15" class="edge">
<title>&#45;3&#45;&gt;1606</title>
<path fill="none" stroke="#ff0000" stroke-width=".3983" d="M319.1598,-154.6206C316.339,-153.4265 313.336,-152.2181 310.5,-151.196 257.3151,-132.0278 239.0257,-140.5574 188.5,-115.196 186.7239,-114.3045 184.9451,-113.3154 183.1851,-112.2605"/>
<polygon fill="#ff0000" stroke="#ff0000" stroke-width=".3983" points="184.9065,-109.2021 174.6405,-106.5829 181.0324,-115.0324 184.9065,-109.2021"/>
</g>
<!-- &#45;3&#45;&gt;1607 -->
<g id="edge16" class="edge">
<title>&#45;3&#45;&gt;1607</title>
<path fill="none" stroke="#00ff00" stroke-width=".2478" d="M343.5274,-151.0775C356.6705,-141.1132 378.1737,-124.8108 395.5741,-111.6189"/>
<polygon fill="#00ff00" stroke="#00ff00" stroke-width=".2478" points="397.8776,-114.2647 403.7319,-105.4342 393.6486,-108.6866 397.8776,-114.2647"/>
</g>
<!-- &#45;3&#45;&gt;1608 -->
<g id="edge17" class="edge">
<title>&#45;3&#45;&gt;1608</title>
<path fill="none" stroke="#ff0000" stroke-width=".35" d="M343.8741,-154.7114C346.6931,-153.5126 349.6868,-152.2793 352.5,-151.196 398.5376,-133.467 413.8995,-138.2779 457.5,-115.196 459.2563,-114.2662 461.0197,-113.2471 462.7678,-112.1692"/>
<polygon fill="#ff0000" stroke="#ff0000" stroke-width=".35" points="464.9463,-114.9216 471.2797,-106.4281 461.0321,-109.1182 464.9463,-114.9216"/>
</g>
<!-- &#45;3&#45;&gt;1609 -->
<g id="edge18" class="edge">
<title>&#45;3&#45;&gt;1609</title>
<path fill="none" stroke="#ff0000" stroke-width=".1897" d="M319.4052,-153.5733C304.1989,-145.1254 277.4296,-129.8485 255.5,-115.196 253.8476,-114.0919 252.1657,-112.9364 250.4801,-111.7536"/>
<polygon fill="#ff0000" stroke="#ff0000" stroke-width=".1897" points="252.295,-108.7468 242.1407,-105.7235 248.1934,-114.4193 252.295,-108.7468"/>
</g>
<!-- &#45;4 -->
<g id="node4" class="node">
<title>&#45;4</title>
<polygon fill="#d3d3d3" stroke="#000000" points="385.5,-169.196 361.5,-169.196 361.5,-151.196 385.5,-151.196 385.5,-169.196"/>
<text text-anchor="middle" x="373.5" y="-157.996" font-family="Times,serif" font-size="9.00" fill="#000000">&#45;4</text>
</g>
<!-- &#45;4&#45;&gt;1604 -->
<g id="edge19" class="edge">
<title>&#45;4&#45;&gt;1604</title>
<path fill="none" stroke="#ff0000" stroke-width=".4246" d="M362.5185,-151.0775C350.9303,-141.4554 332.2241,-125.9229 316.6469,-112.9884"/>
<polygon fill="#ff0000" stroke="#ff0000" stroke-width=".4246" points="318.7699,-110.202 308.8405,-106.5064 314.2981,-115.5875 318.7699,-110.202"/>
</g>
<!-- &#45;4&#45;&gt;1605 -->
<g id="edge20" class="edge">
<title>&#45;4&#45;&gt;1605</title>
<path fill="none" stroke="#ff0000" stroke-width=".455" d="M371.2775,-151.0775C369.59,-144.1539 367.1567,-134.1701 364.75,-124.296"/>
<polygon fill="#ff0000" stroke="#ff0000" stroke-width=".455" points="368.1495,-123.4627 362.3809,-114.5759 361.3486,-125.1203 368.1495,-123.4627"/>
</g>
<!-- &#45;4&#45;&gt;1606 -->
<g id="edge21" class="edge">
<title>&#45;4&#45;&gt;1606</title>
<path fill="none" stroke="#ff0000" stroke-width=".5" d="M361.2109,-154.4706C358.3874,-153.2844 355.3704,-152.117 352.5,-151.196 281.4439,-128.3965 256.3378,-146.2898 188.5,-115.196 186.6935,-114.3679 184.8908,-113.4286 183.1124,-112.4118"/>
<polygon fill="#ff0000" stroke="#ff0000" stroke-width=".5" points="184.8122,-109.3427 174.5173,-106.8395 181.0043,-115.2163 184.8122,-109.3427"/>
</g>
<!-- &#45;4&#45;&gt;1607 -->
<g id="edge22" class="edge">
<title>&#45;4&#45;&gt;1607</title>
<path fill="none" stroke="#00ff00" stroke-width=".2992" d="M380.0366,-151.0775C385.9156,-142.8764 394.8725,-130.3819 403.1307,-118.8618"/>
<polygon fill="#00ff00" stroke="#00ff00" stroke-width=".2992" points="405.9849,-120.8876 408.9666,-110.721 400.2957,-116.8093 405.9849,-120.8876"/>
</g>
<!-- &#45;4&#45;&gt;1608 -->
<g id="edge23" class="edge">
<title>&#45;4&#45;&gt;1608</title>
<path fill="none" stroke="#00ff00" stroke-width=".3764" d="M385.507,-154.4827C402.1056,-146.4249 432.8093,-130.9399 457.5,-115.196 459.1756,-114.1275 460.8757,-112.9999 462.5753,-111.8385"/>
<polygon fill="#00ff00" stroke="#00ff00" stroke-width=".3764" points="464.8412,-114.5216 470.9533,-105.8675 460.7785,-108.8212 464.8412,-114.5216"/>
</g>
<!-- &#45;4&#45;&gt;1609 -->
<g id="edge24" class="edge">
<title>&#45;4&#45;&gt;1609</title>
<path fill="none" stroke="#ff0000" stroke-width=".1322" d="M361.1055,-154.7636C358.2875,-153.5621 355.2994,-152.3145 352.5,-151.196 309.7982,-134.1337 295.8678,-137.2189 255.5,-115.196 253.7555,-114.2442 252.0014,-113.208 250.2603,-112.1168"/>
<polygon fill="#ff0000" stroke="#ff0000" stroke-width=".1322" points="252.0048,-109.0705 241.768,-106.3393 248.0673,-114.8581 252.0048,-109.0705"/>
</g>
<!-- &#45;5 -->
<g id="node5" class="node">
<title>&#45;5</title>
<polygon fill="#d3d3d3" stroke="#000000" points="643.5,-169.196 619.5,-169.196 619.5,-151.196 643.5,-151.196 643.5,-169.196"/>
<text text-anchor="middle" x="631.5" y="-157.996" font-family="Times,serif" font-size="9.00" fill="#000000">&#45;5</text>
</g>
<!-- &#45;5&#45;&gt;1604 -->
<g id="edge25" class="edge">
<title>&#45;5&#45;&gt;1604</title>
<path fill="none" stroke="#ff0000" stroke-width=".2376" d="M619.269,-154.274C616.4425,-153.0979 613.4096,-151.9844 610.5,-151.196 485.9941,-117.4576 442.1059,-163.512 322.5,-115.196 320.6076,-114.4315 318.7275,-113.5305 316.8806,-112.5329"/>
<polygon fill="#ff0000" stroke="#ff0000" stroke-width=".2376" points="318.3387,-109.3137 308.0169,-106.9239 314.5955,-115.2289 318.3387,-109.3137"/>
</g>
<!-- &#45;5&#45;&gt;1605 -->
<g id="edge26" class="edge">
<title>&#45;5&#45;&gt;1605</title>
<path fill="none" stroke="#ff0000" stroke-width=".1267" d="M619.2466,-154.3539C616.4212,-153.1737 613.3945,-152.0383 610.5,-151.196 514.9469,-123.3895 481.0648,-154.1766 389.5,-115.196 387.6715,-114.4175 385.8517,-113.5171 384.0601,-112.5302"/>
<polygon fill="#ff0000" stroke="#ff0000" stroke-width=".1267" points="385.7449,-109.4538 375.4286,-107.0402 381.9881,-115.3603 385.7449,-109.4538"/>
</g>
<!-- &#45;5&#45;&gt;1607 -->
<g id="edge27" class="edge">
<title>&#45;5&#45;&gt;1607</title>
<path fill="none" stroke="#ff0000" stroke-width=".4637" d="M619.2015,-154.4995C616.3785,-153.3117 613.3641,-152.1364 610.5,-151.196 543.7183,-129.2676 520.1974,-144.9161 456.5,-115.196 454.6991,-114.3557 452.9009,-113.4068 451.1259,-112.3827"/>
<polygon fill="#ff0000" stroke="#ff0000" stroke-width=".4637" points="452.8296,-109.3154 442.5402,-106.7901 449.009,-115.1809 452.8296,-109.3154"/>
</g>
<!-- &#45;5&#45;&gt;1608 -->
<g id="edge28" class="edge">
<title>&#45;5&#45;&gt;1608</title>
<path fill="none" stroke="#00ff00" stroke-width=".2836" d="M619.4784,-154.2492C598.0529,-143.6506 552.6282,-121.1803 521.824,-105.9423"/>
<polygon fill="#00ff00" stroke="#00ff00" stroke-width=".2836" points="523.2914,-102.7634 512.7762,-101.4666 520.1876,-109.0377 523.2914,-102.7634"/>
</g>
<!-- &#45;5&#45;&gt;1609 -->
<g id="edge29" class="edge">
<title>&#45;5&#45;&gt;1609</title>
<path fill="none" stroke="#00ff00" stroke-width=".3288" d="M619.2823,-154.2237C616.4551,-153.0502 613.4186,-151.9505 610.5,-151.196 456.9606,-111.5036 403.2244,-172.8789 255.5,-115.196 253.5988,-114.4536 251.7119,-113.5698 249.8598,-112.5852"/>
<polygon fill="#00ff00" stroke="#00ff00" stroke-width=".3288" points="251.3124,-109.3646 240.9822,-107.0113 247.5902,-115.293 251.3124,-109.3646"/>
</g>
<!-- &#45;6 -->
<g id="node6" class="node">
<title>&#45;6</title>
<polygon fill="#d3d3d3" stroke="#000000" points="427.5,-169.196 403.5,-169.196 403.5,-151.196 427.5,-151.196 427.5,-169.196"/>
<text text-anchor="middle" x="415.5" y="-157.996" font-family="Times,serif" font-size="9.00" fill="#000000">&#45;6</text>
</g>
<!-- &#45;6&#45;&gt;1604 -->
<g id="edge30" class="edge">
<title>&#45;6&#45;&gt;1604</title>
<path fill="none" stroke="#ff0000" stroke-width=".3205" d="M403.3874,-154.6893C381.698,-144.7704 337.1295,-124.1065 322.5,-115.196 320.8028,-114.1622 319.0857,-113.0618 317.3731,-111.9212"/>
<polygon fill="#ff0000" stroke="#ff0000" stroke-width=".3205" points="319.1533,-108.8944 308.9593,-106.0078 315.1282,-114.6214 319.1533,-108.8944"/>
</g>
<!-- &#45;6&#45;&gt;1605 -->
<g id="edge31" class="edge">
<title>&#45;6&#45;&gt;1605</title>
<path fill="none" stroke="#00ff00" stroke-width=".115" d="M407.7868,-151.0775C400.5792,-142.5568 389.4511,-129.4014 379.4003,-117.5196"/>
<polygon fill="#00ff00" stroke="#00ff00" stroke-width=".115" points="381.8062,-114.9442 372.6756,-109.5698 376.4617,-119.4651 381.8062,-114.9442"/>
</g>
<!-- &#45;6&#45;&gt;1606 -->
<g id="edge32" class="edge">
<title>&#45;6&#45;&gt;1606</title>
<path fill="none" stroke="#00ff00" stroke-width=".1858" d="M403.2393,-154.3786C400.4143,-153.1971 397.3896,-152.055 394.5,-151.196 305.41,-124.7121 273.805,-152.0942 188.5,-115.196 186.676,-114.407 184.8598,-113.4983 183.0709,-112.5051"/>
<polygon fill="#00ff00" stroke="#00ff00" stroke-width=".1858" points="184.7587,-109.4301 174.4469,-106.9976 180.9911,-115.3297 184.7587,-109.4301"/>
</g>
<!-- &#45;6&#45;&gt;1607 -->
<g id="edge33" class="edge">
<title>&#45;6&#45;&gt;1607</title>
<path fill="none" stroke="#00ff00" stroke-width=".279" d="M416.5459,-151.0775C417.311,-144.4066 418.402,-134.8948 419.4936,-125.3775"/>
<polygon fill="#00ff00" stroke="#00ff00" stroke-width=".279" points="423.0006,-125.5159 420.663,-115.1822 416.0462,-124.7182 423.0006,-125.5159"/>
</g>
<!-- &#45;6&#45;&gt;1608 -->
<g id="edge34" class="edge">
<title>&#45;6&#45;&gt;1608</title>
<path fill="none" stroke="#ff0000" stroke-width=".3333" d="M425.3049,-151.0775C435.2625,-141.8171 451.1066,-127.0825 464.6816,-114.4579"/>
<polygon fill="#ff0000" stroke="#ff0000" stroke-width=".3333" points="467.4113,-116.699 472.3506,-107.3259 462.6442,-111.573 467.4113,-116.699"/>
</g>
<!-- &#45;6&#45;&gt;1609 -->
<g id="edge35" class="edge">
<title>&#45;6&#45;&gt;1609</title>
<path fill="none" stroke="#ff0000" stroke-width=".1712" d="M403.1846,-154.5499C400.3625,-153.3595 397.3527,-152.1704 394.5,-151.196 334.1099,-130.5676 313.006,-142.8647 255.5,-115.196 253.7092,-114.3343 251.9189,-113.3687 250.1501,-112.3318"/>
<polygon fill="#ff0000" stroke="#ff0000" stroke-width=".1712" points="251.8609,-109.268 241.5811,-106.7038 248.0181,-115.119 251.8609,-109.268"/>
</g>
<!-- &#45;7 -->
<g id="node7" class="node">
<title>&#45;7</title>
<polygon fill="#d3d3d3" stroke="#000000" points="469.5,-169.196 445.5,-169.196 445.5,-151.196 469.5,-151.196 469.5,-169.196"/>
<text text-anchor="middle" x="457.5" y="-157.996" font-family="Times,serif" font-size="9.00" fill="#000000">&#45;7</text>
</g>
<!-- &#45;7&#45;&gt;1604 -->
<g id="edge36" class="edge">
<title>&#45;7&#45;&gt;1604</title>
<path fill="none" stroke="#00ff00" stroke-width=".2721" d="M445.1453,-154.6603C442.3252,-153.4642 439.3262,-152.2449 436.5,-151.196 386.6872,-132.7083 369.7586,-139.4805 322.5,-115.196 320.7324,-114.2877 318.9603,-113.2855 317.2054,-112.2205"/>
<polygon fill="#00ff00" stroke="#00ff00" stroke-width=".2721" points="318.933,-109.1652 308.6749,-106.5151 315.0414,-114.9838 318.933,-109.1652"/>
</g>
<!-- &#45;7&#45;&gt;1605 -->
<g id="edge37" class="edge">
<title>&#45;7&#45;&gt;1605</title>
<path fill="none" stroke="#00ff00" stroke-width=".5" stroke-dasharray="1,5" d="M445.3176,-152.4416C431.597,-143.6374 408.707,-128.7359 389.5,-115.196 387.8758,-114.0509 386.2159,-112.8634 384.5472,-111.6559"/>
<polygon fill="#00ff00" stroke="#00ff00" stroke-width=".5" points="386.3842,-108.6623 376.2544,-105.5579 382.2373,-114.3018 386.3842,-108.6623"/>
</g>
<!-- &#45;7&#45;&gt;1606 -->
<g id="edge38" class="edge">
<title>&#45;7&#45;&gt;1606</title>
<path fill="none" stroke="#ff0000" stroke-width=".1217" d="M445.2572,-154.3167C442.4313,-153.1384 439.4017,-152.0132 436.5,-151.196 329.2931,-121.0029 291.3517,-157.9331 188.5,-115.196 186.6153,-114.4128 184.7412,-113.4973 182.8987,-112.4886"/>
<polygon fill="#ff0000" stroke="#ff0000" stroke-width=".1217" points="184.3618,-109.2708 174.0472,-106.85 180.6008,-115.1747 184.3618,-109.2708"/>
</g>
<!-- &#45;7&#45;&gt;1607 -->
<g id="edge39" class="edge">
<title>&#45;7&#45;&gt;1607</title>
<path fill="none" stroke="#00ff00" stroke-width=".2396" d="M453.0551,-151.0775C449.4075,-143.5948 444.0176,-132.5378 438.8359,-121.9078"/>
<polygon fill="#00ff00" stroke="#00ff00" stroke-width=".2396" points="441.9129,-120.2322 434.3849,-112.7769 435.6206,-123.2995 441.9129,-120.2322"/>
</g>
<!-- &#45;7&#45;&gt;1608 -->
<g id="edge40" class="edge">
<title>&#45;7&#45;&gt;1608</title>
<path fill="none" stroke="#ff0000" stroke-width=".4673" stroke-dasharray="1,5" d="M461.8142,-151.0775C465.3274,-143.6519 470.5061,-132.7064 475.4999,-122.1514"/>
<polygon fill="#ff0000" stroke="#ff0000" stroke-width=".4673" points="478.6814,-123.6108 479.7944,-113.0746 472.3538,-120.617 478.6814,-123.6108"/>
</g>
<!-- &#45;7&#45;&gt;1609 -->
<g id="edge41" class="edge">
<title>&#45;7&#45;&gt;1609</title>
<path fill="none" stroke="#00ff00" stroke-width=".3414" d="M445.2241,-154.4285C442.4,-153.2444 439.3794,-152.0886 436.5,-151.196 358.158,-126.9094 330.3949,-148.6334 255.5,-115.196 253.6854,-114.3858 251.8764,-113.4605 250.0932,-112.4545"/>
<polygon fill="#00ff00" stroke="#00ff00" stroke-width=".3414" points="251.7873,-109.3826 241.4846,-106.9119 247.9978,-115.2682 251.7873,-109.3826"/>
</g>
<!-- &#45;8 -->
<g id="node8" class="node">
<title>&#45;8</title>
<polygon fill="#d3d3d3" stroke="#000000" points="511.5,-169.196 487.5,-169.196 487.5,-151.196 511.5,-151.196 511.5,-169.196"/>
<text text-anchor="middle" x="499.5" y="-157.996" font-family="Times,serif" font-size="9.00" fill="#000000">&#45;8</text>
</g>
<!-- &#45;8&#45;&gt;1604 -->
<g id="edge42" class="edge">
<title>&#45;8&#45;&gt;1604</title>
<path fill="none" stroke="#00ff00" stroke-width=".5" d="M487.2035,-154.4934C484.3804,-153.306 481.3655,-152.1323 478.5,-151.196 410.8642,-129.0936 387.0247,-145.1905 322.5,-115.196 320.6979,-114.3583 318.8988,-113.4114 317.1231,-112.3888"/>
<polygon fill="#00ff00" stroke="#00ff00" stroke-width=".5" points="318.826,-109.3211 308.5353,-106.8005 315.008,-115.1883 318.826,-109.3211"/>
</g>
<!-- &#45;8&#45;&gt;1605 -->
<g id="edge43" class="edge">
<title>&#45;8&#45;&gt;1605</title>
<path fill="none" stroke="#00ff00" stroke-width=".1167" d="M487.081,-154.8236C484.2642,-153.619 481.2829,-152.355 478.5,-151.196 439.1107,-134.791 426.6571,-136.172 389.5,-115.196 387.7694,-114.219 386.0263,-113.1631 384.2937,-112.0567"/>
<polygon fill="#00ff00" stroke="#00ff00" stroke-width=".1167" points="386.0486,-109.016 375.8245,-106.2375 382.0843,-114.7853 386.0486,-109.016"/>
</g>
<!-- &#45;8&#45;&gt;1606 -->
<g id="edge44" class="edge">
<title>&#45;8&#45;&gt;1606</title>
<path fill="none" stroke="#ff0000" stroke-width=".1353" d="M487.2695,-154.2722C484.443,-153.0962 481.41,-151.9832 478.5,-151.196 353.1283,-117.2801 308.9444,-163.7913 188.5,-115.196 186.6073,-114.4323 184.727,-113.532 182.8798,-112.5348"/>
<polygon fill="#ff0000" stroke="#ff0000" stroke-width=".1353" points="184.3378,-109.3156 174.0157,-106.9271 180.5953,-115.2312 184.3378,-109.3156"/>
</g>
<!-- &#45;8&#45;&gt;1607 -->
<g id="edge45" class="edge">
<title>&#45;8&#45;&gt;1607</title>
<path fill="none" stroke="#ff0000" stroke-width=".5" d="M489.5643,-151.0775C479.3797,-141.7306 463.1181,-126.8066 449.2776,-114.1045"/>
<polygon fill="#ff0000" stroke="#ff0000" stroke-width=".5" points="451.6256,-111.5088 441.8914,-107.3259 446.8925,-116.6661 451.6256,-111.5088"/>
</g>
<!-- &#45;8&#45;&gt;1608 -->
<g id="edge46" class="edge">
<title>&#45;8&#45;&gt;1608</title>
<path fill="none" stroke="#00ff00" stroke-width=".4739" d="M498.3234,-151.0775C497.4626,-144.4066 496.2353,-134.8948 495.0072,-125.3775"/>
<polygon fill="#00ff00" stroke="#00ff00" stroke-width=".4739" points="498.4427,-124.6521 493.6917,-115.1822 491.5003,-125.5479 498.4427,-124.6521"/>
</g>
<!-- &#45;8&#45;&gt;1609 -->
<g id="edge47" class="edge">
<title>&#45;8&#45;&gt;1609</title>
<path fill="none" stroke="#00ff00" stroke-width=".2236" d="M487.2474,-154.3509C484.4221,-153.1708 481.3951,-152.0362 478.5,-151.196 382.0844,-123.2129 347.9001,-154.4545 255.5,-115.196 253.671,-114.4189 251.8507,-113.5194 250.0588,-112.5333"/>
<polygon fill="#00ff00" stroke="#00ff00" stroke-width=".2236" points="251.7432,-109.4567 241.4264,-107.0455 247.9877,-115.3641 251.7432,-109.4567"/>
</g>
<!-- &#45;9 -->
<g id="node9" class="node">
<title>&#45;9</title>
<polygon fill="#d3d3d3" stroke="#000000" points="553.5,-169.196 529.5,-169.196 529.5,-151.196 553.5,-151.196 553.5,-169.196"/>
<text text-anchor="middle" x="541.5" y="-157.996" font-family="Times,serif" font-size="9.00" fill="#000000">&#45;9</text>
</g>
<!-- &#45;9&#45;&gt;1604 -->
<g id="edge48" class="edge">
<title>&#45;9&#45;&gt;1604</title>
<path fill="none" stroke="#00ff00" stroke-width=".4369" d="M529.2349,-154.3933C526.4102,-153.211 523.3866,-152.0648 520.5,-151.196 434.853,-125.4163 404.4703,-150.9852 322.5,-115.196 320.6788,-114.4008 318.8646,-113.4872 317.0774,-112.4902"/>
<polygon fill="#00ff00" stroke="#00ff00" stroke-width=".4369" points="318.767,-109.4161 308.4578,-106.9724 314.993,-115.3116 318.767,-109.4161"/>
</g>
<!-- &#45;9&#45;&gt;1605 -->
<g id="edge49" class="edge">
<title>&#45;9&#45;&gt;1605</title>
<path fill="none" stroke="#ff0000" stroke-width=".4131" d="M529.1738,-154.5811C526.3523,-153.3891 523.3455,-152.1914 520.5,-151.196 463.5065,-131.2568 443.7155,-141.7761 389.5,-115.196 387.7156,-114.3211 385.9304,-113.3452 384.1653,-112.3003"/>
<polygon fill="#ff0000" stroke="#ff0000" stroke-width=".4131" points="385.8808,-109.2389 375.607,-106.6504 382.0242,-115.0807 385.8808,-109.2389"/>
</g>
<!-- &#45;9&#45;&gt;1606 -->
<g id="edge50" class="edge">
<title>&#45;9&#45;&gt;1606</title>
<path fill="none" stroke="#ff0000" stroke-width=".4615" d="M529.2784,-154.2387C526.4514,-153.0645 523.416,-151.9606 520.5,-151.196 376.9334,-113.5491 326.5659,-169.6611 188.5,-115.196 186.6014,-114.447 184.7166,-113.5581 182.8659,-112.5696"/>
<polygon fill="#ff0000" stroke="#ff0000" stroke-width=".4615" points="184.3202,-109.3494 173.9925,-106.9852 180.5917,-115.2738 184.3202,-109.3494"/>
</g>
<!-- &#45;9&#45;&gt;1607 -->
<g id="edge51" class="edge">
<title>&#45;9&#45;&gt;1607</title>
<path fill="none" stroke="#ff0000" stroke-width=".1161" stroke-dasharray="1,5" d="M529.3425,-154.5068C512.5376,-146.4771 481.4583,-131.0245 456.5,-115.196 454.8218,-114.1316 453.1196,-113.0072 451.4185,-111.8483"/>
<polygon fill="#ff0000" stroke="#ff0000" stroke-width=".1161" points="453.2132,-108.8298 443.0361,-105.8841 449.155,-114.5334 453.2132,-108.8298"/>
</g>
<!-- &#45;9&#45;&gt;1608 -->
<g id="edge52" class="edge">
<title>&#45;9&#45;&gt;1608</title>
<path fill="none" stroke="#00ff00" stroke-width=".5" d="M534.8326,-151.0775C528.7926,-142.817 519.5675,-130.2006 511.0937,-118.6116"/>
<polygon fill="#00ff00" stroke="#00ff00" stroke-width=".5" points="513.8402,-116.4379 505.1124,-110.4315 508.1896,-120.5696 513.8402,-116.4379"/>
</g>
<!-- &#45;9&#45;&gt;1609 -->
<g id="edge53" class="edge">
<title>&#45;9&#45;&gt;1609</title>
<path fill="none" stroke="#ff0000" stroke-width=".1684" d="M529.2627,-154.297C526.4365,-153.1197 523.4054,-151.9999 520.5,-151.196 405.9452,-119.4973 365.4682,-160.3025 255.5,-115.196 253.6117,-114.4214 251.7348,-113.5126 249.8903,-112.509"/>
<polygon fill="#ff0000" stroke="#ff0000" stroke-width=".1684" points="251.3511,-109.2906 241.0332,-106.884 247.5983,-115.1996 251.3511,-109.2906"/>
</g>
<!-- &#45;10 -->
<g id="node10" class="node">
<title>&#45;10</title>
<polygon fill="#d3d3d3" stroke="#000000" points="601,-169.196 572,-169.196 572,-151.196 601,-151.196 601,-169.196"/>
<text text-anchor="middle" x="586.5" y="-157.996" font-family="Times,serif" font-size="9.00" fill="#000000">&#45;10</text>
</g>
<!-- &#45;10&#45;&gt;1604 -->
<g id="edge54" class="edge">
<title>&#45;10&#45;&gt;1604</title>
<path fill="none" stroke="#ff0000" stroke-width=".2205" stroke-dasharray="1,5" d="M571.9339,-154.1782C568.8566,-153.0644 565.6013,-152.0005 562.5,-151.196 458.0961,-124.1109 422.0052,-156.8191 322.5,-115.196 320.6171,-114.4083 318.7445,-113.4894 316.9031,-112.478"/>
<polygon fill="#ff0000" stroke="#ff0000" stroke-width=".2205" points="318.3674,-109.2606 308.0546,-106.8323 314.6022,-115.1617 318.3674,-109.2606"/>
</g>
<!-- &#45;10&#45;&gt;1605 -->
<g id="edge55" class="edge">
<title>&#45;10&#45;&gt;1605</title>
<path fill="none" stroke="#00ff00" stroke-width=".3048" d="M571.8969,-154.3129C568.8223,-153.1894 565.5775,-152.0875 562.5,-151.196 487.0654,-129.3436 461.0713,-147.5294 389.5,-115.196 387.689,-114.3778 385.8828,-113.4462 384.1017,-112.4354"/>
<polygon fill="#00ff00" stroke="#00ff00" stroke-width=".3048" points="385.7984,-109.3647 375.4991,-106.8795 382.0006,-115.245 385.7984,-109.3647"/>
</g>
<!-- &#45;10&#45;&gt;1606 -->
<g id="edge56" class="edge">
<title>&#45;10&#45;&gt;1606</title>
<path fill="none" stroke="#00ff00" stroke-width=".3157" d="M571.9652,-154.0506C568.8857,-152.9461 565.6215,-151.9182 562.5,-151.196 399.8072,-113.5543 344.2068,-175.5385 188.5,-115.196 186.5969,-114.4584 184.7086,-113.5784 182.8553,-112.5967"/>
<polygon fill="#00ff00" stroke="#00ff00" stroke-width=".3157" points="184.3068,-109.3758 173.9748,-107.0305 180.5891,-115.307 184.3068,-109.3758"/>
</g>
<!-- &#45;10&#45;&gt;1607 -->
<g id="edge57" class="edge">
<title>&#45;10&#45;&gt;1607</title>
<path fill="none" stroke="#00ff00" stroke-width=".4138" d="M571.8036,-154.6016C568.7358,-153.4572 565.5173,-152.2738 562.5,-151.196 515.6456,-134.459 500.5059,-138.411 456.5,-115.196 454.7423,-114.2687 452.9779,-113.2517 451.229,-112.1752"/>
<polygon fill="#00ff00" stroke="#00ff00" stroke-width=".4138" points="452.9637,-109.1238 442.7149,-106.4384 449.0522,-114.9289 452.9637,-109.1238"/>
</g>
<!-- &#45;10&#45;&gt;1608 -->
<g id="edge58" class="edge">
<title>&#45;10&#45;&gt;1608</title>
<path fill="none" stroke="#ff0000" stroke-width=".1082" d="M573.9497,-151.0775C560.1478,-141.0498 537.5108,-124.6029 519.2936,-111.3672"/>
<polygon fill="#ff0000" stroke="#ff0000" stroke-width=".1082" points="520.9112,-108.2162 510.7638,-105.1699 516.7967,-113.8794 520.9112,-108.2162"/>
</g>
<!-- &#45;10&#45;&gt;1609 -->
<g id="edge59" class="edge">
<title>&#45;10&#45;&gt;1609</title>
<path fill="none" stroke="#00ff00" stroke-width=".3979" d="M571.9533,-154.1007C568.8746,-152.9926 565.6139,-151.9506 562.5,-151.196 428.9851,-118.8408 383.0741,-166.166 255.5,-115.196 253.6047,-114.4387 251.7224,-113.5434 249.8737,-112.55"/>
<polygon fill="#00ff00" stroke="#00ff00" stroke-width=".3979" points="251.33,-109.3304 241.0055,-106.9525 247.5937,-115.2498 251.33,-109.3304"/>
</g>
<!-- &#45;11 -->
<g id="node11" class="node">
<title>&#45;11</title>
<polygon fill="#d3d3d3" stroke="#000000" points="29,-169.196 0,-169.196 0,-151.196 29,-151.196 29,-169.196"/>
<text text-anchor="middle" x="14.5" y="-157.996" font-family="Times,serif" font-size="9.00" fill="#000000">&#45;11</text>
</g>
<!-- &#45;11&#45;&gt;1604 -->
<g id="edge60" class="edge">
<title>&#45;11&#45;&gt;1604</title>
<path fill="none" stroke="#00ff00" stroke-width=".2855" d="M29.4406,-153.8283C32.093,-152.8483 34.8537,-151.9225 37.5,-151.196 132.6196,-125.0799 165.7703,-153.8987 256.5,-115.196 258.3279,-114.4162 260.1473,-113.5147 261.9385,-112.527"/>
<polygon fill="#00ff00" stroke="#00ff00" stroke-width=".2855" points="264.0115,-115.3565 270.5691,-107.0349 260.2534,-109.4508 264.0115,-115.3565"/>
</g>
<!-- &#45;11&#45;&gt;1605 -->
<g id="edge61" class="edge">
<title>&#45;11&#45;&gt;1605</title>
<path fill="none" stroke="#ff0000" stroke-width=".3916" stroke-dasharray="1,5" d="M29.4183,-153.7439C32.0732,-152.7733 34.8405,-151.8725 37.5,-151.196 161.6598,-119.6115 204.7326,-163.2327 323.5,-115.196 325.3921,-114.4307 327.2719,-113.5291 329.1187,-112.531"/>
<polygon fill="#ff0000" stroke="#ff0000" stroke-width=".3916" points="331.4042,-115.2265 337.9818,-106.9207 327.6603,-109.3119 331.4042,-115.2265"/>
</g>
<!-- &#45;11&#45;&gt;1606 -->
<g id="edge62" class="edge">
<title>&#45;11&#45;&gt;1606</title>
<path fill="none" stroke="#00ff00" stroke-width=".2124" d="M29.0584,-152.9943C51.3436,-141.9705 94.4423,-120.6507 124.0764,-105.9916"/>
<polygon fill="#00ff00" stroke="#00ff00" stroke-width=".2124" points="125.7698,-109.0588 133.1812,-101.4877 122.6661,-102.7845 125.7698,-109.0588"/>
</g>
<!-- &#45;11&#45;&gt;1607 -->
<g id="edge63" class="edge">
<title>&#45;11&#45;&gt;1607</title>
<path fill="none" stroke="#ff0000" stroke-width=".1804" d="M29.4051,-153.6909C32.0615,-152.7262 34.8327,-151.8411 37.5,-151.196 190.7829,-114.1219 243.6156,-172.599 390.5,-115.196 392.401,-114.4531 394.2877,-113.5688 396.1397,-112.5839"/>
<polygon fill="#ff0000" stroke="#ff0000" stroke-width=".1804" points="398.4097,-115.2914 405.0169,-107.0091 394.687,-109.3634 398.4097,-115.2914"/>
</g>
<!-- &#45;11&#45;&gt;1608 -->
<g id="edge64" class="edge">
<title>&#45;11&#45;&gt;1608</title>
<path fill="none" stroke="#00ff00" stroke-width=".1552" d="M29.3965,-153.6546C32.0538,-152.6939 34.8276,-151.8196 37.5,-151.196 219.9496,-108.6216 282.4568,-181.9817 457.5,-115.196 459.4069,-114.4684 461.2982,-113.5961 463.1538,-112.6203"/>
<polygon fill="#00ff00" stroke="#00ff00" stroke-width=".1552" points="465.4129,-115.3359 472.0404,-107.0699 461.7047,-109.3988 465.4129,-115.3359"/>
</g>
<!-- &#45;11&#45;&gt;1609 -->
<g id="edge65" class="edge">
<title>&#45;11&#45;&gt;1609</title>
<path fill="none" stroke="#ff0000" stroke-width=".4416" d="M29.486,-153.983C32.1334,-152.9858 34.8806,-152.0142 37.5,-151.196 103.7666,-130.4958 126.6296,-144.6419 189.5,-115.196 191.2997,-114.3531 193.0969,-113.4021 194.8711,-112.3764"/>
<polygon fill="#ff0000" stroke="#ff0000" stroke-width=".4416" points="196.9899,-115.1732 203.4549,-106.7795 193.1666,-109.3096 196.9899,-115.1732"/>
</g>
<!-- &#45;12 -->
<g id="node12" class="node">
<title>&#45;12</title>
<polygon fill="#d3d3d3" stroke="#000000" points="76,-169.196 47,-169.196 47,-151.196 76,-151.196 76,-169.196"/>
<text text-anchor="middle" x="61.5" y="-157.996" font-family="Times,serif" font-size="9.00" fill="#000000">&#45;12</text>
</g>
<!-- &#45;12&#45;&gt;1604 -->
<g id="edge66" class="edge">
<title>&#45;12&#45;&gt;1604</title>
<path fill="none" stroke="#ff0000" stroke-width=".5" d="M76.4683,-153.9249C79.1176,-152.9342 81.8701,-151.9798 84.5,-151.196 159.3474,-128.8886 185.3438,-147.3915 256.5,-115.196 258.3106,-114.3767 260.1164,-113.4443 261.8971,-112.4329"/>
<polygon fill="#ff0000" stroke="#ff0000" stroke-width=".5" points="263.999,-115.2419 270.499,-106.8752 260.2002,-109.3623 263.999,-115.2419"/>
</g>
<!-- &#45;12&#45;&gt;1605 -->
<g id="edge67" class="edge">
<title>&#45;12&#45;&gt;1605</title>
<path fill="none" stroke="#00ff00" stroke-width=".363" stroke-dasharray="1,5" d="M76.4325,-153.7983C79.0858,-152.8217 81.8489,-151.9048 84.5,-151.196 188.2756,-123.4509 224.413,-156.6799 323.5,-115.196 325.3826,-114.4078 327.2551,-113.4883 329.0963,-112.4767"/>
<polygon fill="#00ff00" stroke="#00ff00" stroke-width=".363" points="331.3976,-115.1601 337.9445,-106.83 327.6319,-109.2593 331.3976,-115.1601"/>
</g>
<!-- &#45;12&#45;&gt;1606 -->
<g id="edge68" class="edge">
<title>&#45;12&#45;&gt;1606</title>
<path fill="none" stroke="#ff0000" stroke-width=".1998" d="M73.7889,-151.0775C87.2177,-141.1132 109.1884,-124.8108 126.967,-111.6189"/>
<polygon fill="#ff0000" stroke="#ff0000" stroke-width=".1998" points="129.3571,-114.2038 135.3022,-105.4342 125.1858,-108.5823 129.3571,-114.2038"/>
</g>
<!-- &#45;12&#45;&gt;1607 -->
<g id="edge69" class="edge">
<title>&#45;12&#45;&gt;1607</title>
<path fill="none" stroke="#00ff00" stroke-width=".2842" stroke-dasharray="1,5" d="M76.4137,-153.7257C79.0691,-152.7571 81.8377,-151.8617 84.5,-151.196 217.347,-117.9744 263.3454,-166.0263 390.5,-115.196 392.3952,-114.4384 394.2774,-113.5427 396.126,-112.5491"/>
<polygon fill="#00ff00" stroke="#00ff00" stroke-width=".2842" points="398.4062,-115.2488 404.994,-106.951 394.6695,-109.3295 398.4062,-115.2488"/>
</g>
<!-- &#45;12&#45;&gt;1608 -->
<g id="edge70" class="edge">
<title>&#45;12&#45;&gt;1608</title>
<path fill="none" stroke="#00ff00" stroke-width=".3266" d="M76.4022,-153.6787C79.0589,-152.7153 81.8309,-151.8339 84.5,-151.196 246.4858,-112.4808 302.2134,-175.3985 457.5,-115.196 459.403,-114.4582 461.2912,-113.578 463.1445,-112.5961"/>
<polygon fill="#00ff00" stroke="#00ff00" stroke-width=".3266" points="465.4109,-115.3063 472.0249,-107.0295 461.693,-109.3753 465.4109,-115.3063"/>
</g>
<!-- &#45;12&#45;&gt;1609 -->
<g id="edge71" class="edge">
<title>&#45;12&#45;&gt;1609</title>
<path fill="none" stroke="#ff0000" stroke-width=".5" d="M76.0649,-154.3885C78.8567,-153.306 81.7627,-152.2003 84.5,-151.196 130.8145,-134.2036 145.8995,-138.2779 189.5,-115.196 191.2563,-114.2662 193.0197,-113.2471 194.7678,-112.1692"/>
<polygon fill="#ff0000" stroke="#ff0000" stroke-width=".5" points="196.9463,-114.9216 203.2797,-106.4281 193.0321,-109.1182 196.9463,-114.9216"/>
</g>
<!-- &#45;13 -->
<g id="node13" class="node">
<title>&#45;13</title>
<polygon fill="#d3d3d3" stroke="#000000" points="123,-169.196 94,-169.196 94,-151.196 123,-151.196 123,-169.196"/>
<text text-anchor="middle" x="108.5" y="-157.996" font-family="Times,serif" font-size="9.00" fill="#000000">&#45;13</text>
</g>
<!-- &#45;13&#45;&gt;1604 -->
<g id="edge72" class="edge">
<title>&#45;13&#45;&gt;1604</title>
<path fill="none" stroke="#00ff00" stroke-width=".2705" d="M123.0258,-154.2776C125.8212,-153.2053 128.7385,-152.1317 131.5,-151.196 186.2557,-132.6425 204.7459,-140.9629 256.5,-115.196 258.279,-114.3103 260.06,-113.3258 261.8218,-112.2743"/>
<polygon fill="#00ff00" stroke="#00ff00" stroke-width=".2705" points="263.9705,-115.0492 270.3713,-106.6064 260.1025,-109.2149 263.9705,-115.0492"/>
</g>
<!-- &#45;13&#45;&gt;1605 -->
<g id="edge73" class="edge">
<title>&#45;13&#45;&gt;1605</title>
<path fill="none" stroke="#00ff00" stroke-width=".3893" d="M123.4546,-153.8783C126.1055,-152.8927 128.862,-151.9522 131.5,-151.196 214.9591,-127.2721 244.0287,-150.1544 323.5,-115.196 325.3191,-114.3958 327.1315,-113.4783 328.9174,-112.4783"/>
<polygon fill="#00ff00" stroke="#00ff00" stroke-width=".3893" points="331.0054,-115.2971 337.5333,-106.9522 327.2263,-109.4049 331.0054,-115.2971"/>
</g>
<!-- &#45;13&#45;&gt;1606 -->
<g id="edge74" class="edge">
<title>&#45;13&#45;&gt;1606</title>
<path fill="none" stroke="#00ff00" stroke-width=".5" d="M114.6444,-151.0775C120.0774,-143.0149 128.3066,-130.8026 135.9591,-119.4462"/>
<polygon fill="#00ff00" stroke="#00ff00" stroke-width=".5" points="138.9571,-121.2604 141.6427,-111.0116 133.152,-117.3487 138.9571,-121.2604"/>
</g>
<!-- &#45;13&#45;&gt;1607 -->
<g id="edge75" class="edge">
<title>&#45;13&#45;&gt;1607</title>
<path fill="none" stroke="#ff0000" stroke-width=".5" d="M123.4257,-153.7728C126.0798,-152.799 128.8449,-151.8896 131.5,-151.196 243.9435,-121.8188 283.0443,-159.4659 390.5,-115.196 392.3871,-114.4185 394.263,-113.5074 396.1069,-112.5021"/>
<polygon fill="#ff0000" stroke="#ff0000" stroke-width=".5" points="398.4008,-115.1912 404.9621,-106.8725 394.6453,-109.2839 398.4008,-115.1912"/>
</g>
<!-- &#45;13&#45;&gt;1608 -->
<g id="edge76" class="edge">
<title>&#45;13&#45;&gt;1608</title>
<path fill="none" stroke="#00ff00" stroke-width=".5" d="M123.4097,-153.7097C126.0656,-152.7429 128.8354,-151.8522 131.5,-151.196 273.04,-116.3358 321.9528,-168.822 457.5,-115.196 459.3978,-114.4451 461.2821,-113.5547 463.1323,-112.5652"/>
<polygon fill="#00ff00" stroke="#00ff00" stroke-width=".5" points="465.4079,-115.2684 472.0046,-106.9778 461.6776,-109.3451 465.4079,-115.2684"/>
</g>
<!-- &#45;13&#45;&gt;1609 -->
<g id="edge77" class="edge">
<title>&#45;13&#45;&gt;1609</title>
<path fill="none" stroke="#00ff00" stroke-width=".1189" d="M123.1868,-152.8084C139.6877,-144.333 167.0941,-129.7251 189.5,-115.196 191.1674,-114.1147 192.8611,-112.9771 194.5557,-111.808"/>
<polygon fill="#00ff00" stroke="#00ff00" stroke-width=".1189" points="196.8292,-114.4848 202.9201,-105.8158 192.7525,-108.7944 196.8292,-114.4848"/>
</g>
<!-- &#45;14 -->
<g id="node14" class="node">
<title>&#45;14</title>
<polygon fill="#d3d3d3" stroke="#000000" points="170,-169.196 141,-169.196 141,-151.196 170,-151.196 170,-169.196"/>
<text text-anchor="middle" x="155.5" y="-157.996" font-family="Times,serif" font-size="9.00" fill="#000000">&#45;14</text>
</g>
<!-- &#45;14&#45;&gt;1604 -->
<g id="edge78" class="edge">
<title>&#45;14&#45;&gt;1604</title>
<path fill="none" stroke="#ff0000" stroke-width=".3048" d="M170.1843,-154.1328C194.2663,-144.1094 241.0257,-124.2899 256.5,-115.196 258.2133,-114.1891 259.9429,-113.1097 261.6652,-111.9853"/>
<polygon fill="#ff0000" stroke="#ff0000" stroke-width=".3048" points="263.8935,-114.6989 270.1057,-106.1164 259.8973,-108.9517 263.8935,-114.6989"/>
</g>
<!-- &#45;14&#45;&gt;1605 -->
<g id="edge79" class="edge">
<title>&#45;14&#45;&gt;1605</title>
<path fill="none" stroke="#ff0000" stroke-width=".5" d="M170.4935,-154.0068C173.1401,-153.007 175.885,-152.0283 178.5,-151.196 241.7728,-131.0554 263.5206,-143.6838 323.5,-115.196 325.2951,-114.3434 327.0888,-113.3848 328.8602,-112.3533"/>
<polygon fill="#ff0000" stroke="#ff0000" stroke-width=".5" points="330.9859,-115.1451 337.4364,-106.7403 327.1524,-109.288 330.9859,-115.1451"/>
</g>
<!-- &#45;14&#45;&gt;1606 -->
<g id="edge80" class="edge">
<title>&#45;14&#45;&gt;1606</title>
<path fill="none" stroke="#ff0000" stroke-width=".1497" stroke-dasharray="1,5" d="M155.5,-151.0775C155.5,-144.4608 155.5,-135.0493 155.5,-125.6096"/>
<polygon fill="#ff0000" stroke="#ff0000" stroke-width=".1497" points="159.0001,-125.4865 155.5,-115.4865 152.0001,-125.4865 159.0001,-125.4865"/>
</g>
<!-- &#45;14&#45;&gt;1607 -->
<g id="edge81" class="edge">
<title>&#45;14&#45;&gt;1607</title>
<path fill="none" stroke="#ff0000" stroke-width=".1577" d="M170.4439,-153.8401C173.0959,-152.8588 175.8556,-151.9295 178.5,-151.196 270.5934,-125.6491 302.6921,-152.9267 390.5,-115.196 392.3258,-114.4114 394.1436,-113.5061 395.9336,-112.5155"/>
<polygon fill="#ff0000" stroke="#ff0000" stroke-width=".1577" points="398.0102,-115.3425 404.5608,-107.0154 394.2471,-109.44 398.0102,-115.3425"/>
</g>
<!-- &#45;14&#45;&gt;1608 -->
<g id="edge82" class="edge">
<title>&#45;14&#45;&gt;1608</title>
<path fill="none" stroke="#00ff00" stroke-width=".2143" d="M170.4201,-153.7509C173.0748,-152.7795 175.8415,-151.8766 178.5,-151.196 299.6209,-120.1841 341.6666,-162.2556 457.5,-115.196 459.3909,-114.4277 461.2698,-113.5239 463.1158,-112.524"/>
<polygon fill="#00ff00" stroke="#00ff00" stroke-width=".2143" points="465.4034,-115.218 471.977,-106.9091 461.6567,-109.3051 465.4034,-115.218"/>
</g>
<!-- &#45;14&#45;&gt;1609 -->
<g id="edge83" class="edge">
<title>&#45;14&#45;&gt;1609</title>
<path fill="none" stroke="#ff0000" stroke-width=".3851" stroke-dasharray="1,5" d="M164.2591,-151.0775C172.8364,-142.1483 186.3029,-128.1294 198.127,-115.8201"/>
<polygon fill="#ff0000" stroke="#ff0000" stroke-width=".3851" points="200.8152,-118.074 205.2186,-108.4376 195.7669,-113.2247 200.8152,-118.074"/>
</g>
<!-- &#45;15 -->
<g id="node15" class="node">
<title>&#45;15</title>
<polygon fill="#d3d3d3" stroke="#000000" points="217,-169.196 188,-169.196 188,-151.196 217,-151.196 217,-169.196"/>
<text text-anchor="middle" x="202.5" y="-157.996" font-family="Times,serif" font-size="9.00" fill="#000000">&#45;15</text>
</g>
<!-- &#45;15&#45;&gt;1604 -->
<g id="edge84" class="edge">
<title>&#45;15&#45;&gt;1604</title>
<path fill="none" stroke="#00ff00" stroke-width=".4205" d="M213.8737,-151.0775C226.0327,-141.3296 245.7578,-125.5158 262.0146,-112.4826"/>
<polygon fill="#00ff00" stroke="#00ff00" stroke-width=".4205" points="264.5283,-114.9532 270.1412,-105.9673 260.1497,-109.4917 264.5283,-114.9532"/>
</g>
<!-- &#45;15&#45;&gt;1605 -->
<g id="edge85" class="edge">
<title>&#45;15&#45;&gt;1605</title>
<path fill="none" stroke="#00ff00" stroke-width=".2152" d="M217.2202,-154.6669C220.2863,-153.5177 223.4981,-152.3159 226.5,-151.196 269.5839,-135.1228 283.1322,-137.2189 323.5,-115.196 325.2445,-114.2442 326.9986,-113.208 328.7397,-112.1168"/>
<polygon fill="#00ff00" stroke="#00ff00" stroke-width=".2152" points="330.9327,-114.8581 337.232,-106.3393 326.9952,-109.0705 330.9327,-114.8581"/>
</g>
<!-- &#45;15&#45;&gt;1606 -->
<g id="edge86" class="edge">
<title>&#45;15&#45;&gt;1606</title>
<path fill="none" stroke="#ff0000" stroke-width=".2833" d="M196.3556,-151.0775C190.9226,-143.0149 182.6934,-130.8026 175.0409,-119.4462"/>
<polygon fill="#ff0000" stroke="#ff0000" stroke-width=".2833" points="177.848,-117.3487 169.3573,-111.0116 172.0429,-121.2604 177.848,-117.3487"/>
</g>
<!-- &#45;15&#45;&gt;1607 -->
<g id="edge87" class="edge">
<title>&#45;15&#45;&gt;1607</title>
<path fill="none" stroke="#00ff00" stroke-width=".3655" d="M217.1107,-154.3389C220.1848,-153.2135 223.4274,-152.1043 226.5,-151.196 298.063,-130.041 322.6622,-146.2898 390.5,-115.196 392.3065,-114.3679 394.1092,-113.4286 395.8876,-112.4118"/>
<polygon fill="#00ff00" stroke="#00ff00" stroke-width=".3655" points="397.9957,-115.2163 404.4827,-106.8395 394.1878,-109.3427 397.9957,-115.2163"/>
</g>
<!-- &#45;15&#45;&gt;1608 -->
<g id="edge88" class="edge">
<title>&#45;15&#45;&gt;1608</title>
<path fill="none" stroke="#00ff00" stroke-width=".5" d="M217.0697,-154.1919C220.1467,-153.0772 223.401,-152.0094 226.5,-151.196 327.0016,-124.8167 361.7574,-155.5668 457.5,-115.196 459.3311,-114.4238 461.153,-113.5283 462.9462,-112.5452"/>
<polygon fill="#00ff00" stroke="#00ff00" stroke-width=".5" points="465.0136,-115.3786 471.5822,-107.0657 461.2633,-109.468 465.0136,-115.3786"/>
</g>
<!-- &#45;15&#45;&gt;1609 -->
<g id="edge89" class="edge">
<title>&#45;15&#45;&gt;1609</title>
<path fill="none" stroke="#00ff00" stroke-width=".3178" d="M205.1147,-151.0775C207.1158,-144.0985 210.0086,-134.0101 212.862,-124.0591"/>
<polygon fill="#00ff00" stroke="#00ff00" stroke-width=".3178" points="216.2758,-124.8514 215.6678,-114.274 209.547,-122.9219 216.2758,-124.8514"/>
</g>
<!-- 0 -->
<g id="node16" class="node">
<title>0</title>
<ellipse fill="#add8e6" stroke="#000000" cx="298.5" cy="-14.8492" rx="14.7" ry="14.7"/>
<text text-anchor="middle" x="298.5" y="-12.6492" font-family="Times,serif" font-size="9.00" fill="#000000">0</text>
</g>
<!-- 1 -->
<g id="node17" class="node">
<title>1</title>
<ellipse fill="#add8e6" stroke="#000000" cx="351.5" cy="-14.8492" rx="14.7" ry="14.7"/>
<text text-anchor="middle" x="351.5" y="-12.6492" font-family="Times,serif" font-size="9.00" fill="#000000">1</text>
</g>
<!-- 1604&#45;&gt;0 -->
<g id="edge90" class="edge">
<title>1604&#45;&gt;0</title>
<path fill="none" stroke="#00ff00" stroke-width=".4677" d="M292.4469,-65.6936C293.4307,-57.4298 294.5274,-48.2178 295.5142,-39.9294"/>
<polygon fill="#00ff00" stroke="#00ff00" stroke-width=".4677" points="299.0225,-40.0666 296.7293,-29.7229 292.0716,-39.239 299.0225,-40.0666"/>
</g>
<!-- 1604&#45;&gt;1 -->
<g id="edge91" class="edge">
<title>1604&#45;&gt;1</title>
<path fill="none" stroke="#00ff00" stroke-width=".2987" d="M305.4665,-70.9789C314.6157,-59.823 326.0701,-45.8565 335.264,-34.6461"/>
<polygon fill="#00ff00" stroke="#00ff00" stroke-width=".2987" points="338.1433,-36.6547 341.7784,-26.703 332.7307,-32.2157 338.1433,-36.6547"/>
</g>
<!-- 1605&#45;&gt;0 -->
<g id="edge92" class="edge">
<title>1605&#45;&gt;0</title>
<path fill="none" stroke="#00ff00" stroke-width=".1682" stroke-dasharray="1,5" d="M341.2612,-70.5847C332.8924,-59.6767 322.5332,-46.1744 314.107,-35.1917"/>
<polygon fill="#00ff00" stroke="#00ff00" stroke-width=".1682" points="316.7028,-32.8251 307.8388,-27.0216 311.149,-37.0861 316.7028,-32.8251"/>
</g>
<!-- 1605&#45;&gt;1 -->
<g id="edge93" class="edge">
<title>1605&#45;&gt;1</title>
<path fill="none" stroke="#00ff00" stroke-width=".4791" d="M354.8628,-65.6936C354.3163,-57.4298 353.707,-48.2178 353.1588,-39.9294"/>
<polygon fill="#00ff00" stroke="#00ff00" stroke-width=".4791" points="356.6361,-39.4701 352.4837,-29.7229 349.6514,-39.9322 356.6361,-39.4701"/>
</g>
<!-- 1606&#45;&gt;0 -->
<g id="edge94" class="edge">
<title>1606&#45;&gt;0</title>
<path fill="none" stroke="#00ff00" stroke-width=".5" d="M174.9226,-74.8259C179.2729,-71.6291 183.9499,-68.4151 188.5,-65.6985 217.0105,-48.6765 252.1768,-33.3158 274.9554,-24.0378"/>
<polygon fill="#00ff00" stroke="#00ff00" stroke-width=".5" points="276.5017,-27.1888 284.4812,-20.2189 273.8969,-20.6915 276.5017,-27.1888"/>
</g>
<!-- 1606&#45;&gt;1 -->
<g id="edge95" class="edge">
<title>1606&#45;&gt;1</title>
<path fill="none" stroke="#00ff00" stroke-width=".1342" d="M174.5969,-74.2234C178.9675,-71.064 183.735,-68.0177 188.5,-65.6985 243.9483,-38.7106 264.958,-51.8745 322.5,-29.6985 324.7712,-28.8232 327.0982,-27.8226 329.3981,-26.7636"/>
<polygon fill="#00ff00" stroke="#00ff00" stroke-width=".1342" points="331.0859,-29.8334 338.4873,-22.2525 327.9739,-23.5631 331.0859,-29.8334"/>
</g>
<!-- 1607&#45;&gt;0 -->
<g id="edge96" class="edge">
<title>1607&#45;&gt;0</title>
<path fill="none" stroke="#ff0000" stroke-width=".4111" d="M403.9248,-75.0713C399.584,-71.8592 394.9495,-68.5769 390.5,-65.6985 377.964,-57.5889 343.8687,-39.0727 320.895,-26.7659"/>
<polygon fill="#ff0000" stroke="#ff0000" stroke-width=".4111" points="322.2948,-23.5456 311.8253,-21.9202 318.9961,-29.7196 322.2948,-23.5456"/>
</g>
<!-- 1607&#45;&gt;1 -->
<g id="edge97" class="edge">
<title>1607&#45;&gt;1</title>
<path fill="none" stroke="#00ff00" stroke-width=".4394" d="M406.0708,-72.1471C394.8443,-60.3595 380.2997,-45.0881 369.0495,-33.2757"/>
<polygon fill="#00ff00" stroke="#00ff00" stroke-width=".4394" points="371.2997,-30.5634 361.8685,-25.7359 366.2308,-35.3911 371.2997,-30.5634"/>
</g>
<!-- 1608&#45;&gt;0 -->
<g id="edge98" class="edge">
<title>1608&#45;&gt;0</title>
<path fill="none" stroke="#ff0000" stroke-width=".5" d="M471.3895,-74.2511C467.0198,-71.0901 462.256,-68.036 457.5,-65.6985 403.6951,-39.254 383.3583,-51.4728 327.5,-29.6985 325.2322,-28.8145 322.9074,-27.8081 320.6089,-26.7454"/>
<polygon fill="#ff0000" stroke="#ff0000" stroke-width=".5" points="322.0342,-23.5455 311.5214,-22.2301 318.9194,-29.8143 322.0342,-23.5455"/>
</g>
<!-- 1608&#45;&gt;1 -->
<g id="edge99" class="edge">
<title>1608&#45;&gt;1</title>
<path fill="none" stroke="#00ff00" stroke-width=".2222" d="M471.0478,-74.8751C466.6993,-71.6752 462.0306,-68.4475 457.5,-65.6985 430.2342,-49.1545 396.7626,-33.8625 374.8187,-24.4576"/>
<polygon fill="#00ff00" stroke="#00ff00" stroke-width=".2222" points="375.9045,-21.1169 365.3307,-20.4506 373.1811,-27.5655 375.9045,-21.1169"/>
</g>
<!-- 1609&#45;&gt;0 -->
<g id="edge100" class="edge">
<title>1609&#45;&gt;0</title>
<path fill="none" stroke="#00ff00" stroke-width=".5" d="M240.127,-72.9135C252.2131,-60.8913 268.203,-44.9859 280.3912,-32.8623"/>
<polygon fill="#00ff00" stroke="#00ff00" stroke-width=".5" points="283.1507,-35.054 287.7722,-25.5202 278.2141,-30.0911 283.1507,-35.054"/>
</g>
<!-- 1609&#45;&gt;1 -->
<g id="edge101" class="edge">
<title>1609&#45;&gt;1</title>
<path fill="none" stroke="#ff0000" stroke-width=".1744" d="M242.0366,-75.011C246.3798,-71.8027 251.025,-68.5372 255.5,-65.6985 262.3439,-61.3571 303.278,-39.9207 329.4372,-26.3035"/>
<polygon fill="#ff0000" stroke="#ff0000" stroke-width=".1744" points="331.0585,-29.4054 338.3158,-21.6865 327.8289,-23.1949 331.0585,-29.4054"/>
</g>
</g>
</svg>
