<?xml version="1.0" encoding="UTF-8" standalone="no"?>
<!DOCTYPE svg PUBLIC "-//W3C//DTD SVG 1.1//EN"
 "http://www.w3.org/Graphics/SVG/1.1/DTD/svg11.dtd">
<!-- Generated by graphviz version 2.40.1 (20161225.0304)
 -->
<!-- Title: %3 Pages: 1 -->
<svg width="278pt" height="157pt"
 viewBox="0.00 0.00 277.70 157.40" xmlns="http://www.w3.org/2000/svg" xmlns:xlink="http://www.w3.org/1999/xlink">
<g id="graph0" class="graph" transform="scale(1 1) rotate(0) translate(4 153.397)">
<title>%3</title>
<polygon fill="#ffffff" stroke="transparent" points="-4,4 -4,-153.397 273.6985,-153.397 273.6985,4 -4,4"/>
<!-- &#45;1 -->
<g id="node1" class="node">
<title>&#45;1</title>
<polygon fill="#d3d3d3" stroke="#000000" points="104.8492,-149.397 80.8492,-149.397 80.8492,-131.397 104.8492,-131.397 104.8492,-149.397"/>
<text text-anchor="middle" x="92.8492" y="-138.197" font-family="Times,serif" font-size="9.00" fill="#000000">&#45;1</text>
</g>
<!-- 2 -->
<g id="node6" class="node">
<title>2</title>
<ellipse fill="#ffffff" stroke="#000000" cx="14.8492" cy="-80.5477" rx="14.7" ry="14.7"/>
<text text-anchor="middle" x="14.8492" y="-78.3477" font-family="Times,serif" font-size="9.00" fill="#000000">2</text>
</g>
<!-- &#45;1&#45;&gt;2 -->
<g id="edge1" class="edge">
<title>&#45;1&#45;&gt;2</title>
<path fill="none" stroke="#00ff00" stroke-width=".1699" d="M81.0027,-131.3072C68.7475,-121.9037 49.3906,-107.0512 34.7752,-95.8369"/>
<polygon fill="#00ff00" stroke="#00ff00" stroke-width=".1699" points="36.8715,-93.0338 26.8073,-89.7231 32.6103,-98.5874 36.8715,-93.0338"/>
</g>
<!-- 3 -->
<g id="node7" class="node">
<title>3</title>
<ellipse fill="#ffffff" stroke="#000000" cx="62.8492" cy="-80.5477" rx="14.7" ry="14.7"/>
<text text-anchor="middle" x="62.8492" y="-78.3477" font-family="Times,serif" font-size="9.00" fill="#000000">3</text>
</g>
<!-- &#45;1&#45;&gt;3 -->
<g id="edge2" class="edge">
<title>&#45;1&#45;&gt;3</title>
<path fill="none" stroke="#00ff00" stroke-width=".284" d="M88.2929,-131.3072C84.5556,-123.8515 79.1013,-112.9702 74.2003,-103.1928"/>
<polygon fill="#00ff00" stroke="#00ff00" stroke-width=".284" points="77.1779,-101.3225 69.5678,-93.9511 70.9201,-104.4593 77.1779,-101.3225"/>
</g>
<!-- 4 -->
<g id="node8" class="node">
<title>4</title>
<ellipse fill="#ffffff" stroke="#000000" cx="110.8492" cy="-80.5477" rx="14.7" ry="14.7"/>
<text text-anchor="middle" x="110.8492" y="-78.3477" font-family="Times,serif" font-size="9.00" fill="#000000">4</text>
</g>
<!-- &#45;1&#45;&gt;4 -->
<g id="edge3" class="edge">
<title>&#45;1&#45;&gt;4</title>
<path fill="none" stroke="#00ff00" stroke-width=".4338" d="M95.5831,-131.3072C97.7209,-124.1989 100.7952,-113.9769 103.6255,-104.5665"/>
<polygon fill="#00ff00" stroke="#00ff00" stroke-width=".4338" points="107.0165,-105.4437 106.5449,-94.8593 100.3131,-103.4275 107.0165,-105.4437"/>
</g>
<!-- 5 -->
<g id="node9" class="node">
<title>5</title>
<ellipse fill="#ffffff" stroke="#000000" cx="158.8492" cy="-80.5477" rx="14.7" ry="14.7"/>
<text text-anchor="middle" x="158.8492" y="-78.3477" font-family="Times,serif" font-size="9.00" fill="#000000">5</text>
</g>
<!-- &#45;1&#45;&gt;5 -->
<g id="edge4" class="edge">
<title>&#45;1&#45;&gt;5</title>
<path fill="none" stroke="#00ff00" stroke-width=".2788" d="M102.8732,-131.3072C112.8126,-122.2941 128.2724,-108.275 140.4287,-97.2516"/>
<polygon fill="#00ff00" stroke="#00ff00" stroke-width=".2788" points="142.792,-99.8333 147.8488,-90.523 138.0898,-94.6478 142.792,-99.8333"/>
</g>
<!-- 6 -->
<g id="node10" class="node">
<title>6</title>
<ellipse fill="#ffffff" stroke="#000000" cx="206.8492" cy="-80.5477" rx="14.7" ry="14.7"/>
<text text-anchor="middle" x="206.8492" y="-78.3477" font-family="Times,serif" font-size="9.00" fill="#000000">6</text>
</g>
<!-- &#45;1&#45;&gt;6 -->
<g id="edge5" class="edge">
<title>&#45;1&#45;&gt;6</title>
<path fill="none" stroke="#00ff00" stroke-width=".3464" d="M104.9663,-134.7673C122.4201,-126.5621 155.5411,-110.6311 182.8492,-95.397 183.6729,-94.9375 184.5085,-94.4631 185.3494,-93.9787"/>
<polygon fill="#00ff00" stroke="#00ff00" stroke-width=".3464" points="187.4978,-96.7714 194.2723,-88.6254 183.8965,-90.7688 187.4978,-96.7714"/>
</g>
<!-- 7 -->
<g id="node11" class="node">
<title>7</title>
<ellipse fill="#ffffff" stroke="#000000" cx="254.8492" cy="-80.5477" rx="14.7" ry="14.7"/>
<text text-anchor="middle" x="254.8492" y="-78.3477" font-family="Times,serif" font-size="9.00" fill="#000000">7</text>
</g>
<!-- &#45;1&#45;&gt;7 -->
<g id="edge6" class="edge">
<title>&#45;1&#45;&gt;7</title>
<path fill="none" stroke="#00ff00" stroke-width=".1182" d="M105.1983,-134.8459C108.0186,-133.6506 111.0192,-132.4355 113.8492,-131.397 164.9249,-112.6547 181.3122,-117.8933 230.8492,-95.397 231.708,-95.007 232.5734,-94.5917 233.4394,-94.157"/>
<polygon fill="#00ff00" stroke="#00ff00" stroke-width=".1182" points="235.5038,-97.0102 242.4796,-89.0359 232.0535,-90.9196 235.5038,-97.0102"/>
</g>
<!-- &#45;2 -->
<g id="node2" class="node">
<title>&#45;2</title>
<polygon fill="#d3d3d3" stroke="#000000" points="146.8492,-149.397 122.8492,-149.397 122.8492,-131.397 146.8492,-131.397 146.8492,-149.397"/>
<text text-anchor="middle" x="134.8492" y="-138.197" font-family="Times,serif" font-size="9.00" fill="#000000">&#45;2</text>
</g>
<!-- &#45;2&#45;&gt;2 -->
<g id="edge7" class="edge">
<title>&#45;2&#45;&gt;2</title>
<path fill="none" stroke="#ff0000" stroke-width=".1289" d="M122.807,-135.2886C104.4024,-127.3621 68.3095,-111.3462 38.8492,-95.397 38.0198,-94.9479 37.1794,-94.4824 36.3344,-94.0056"/>
<polygon fill="#ff0000" stroke="#ff0000" stroke-width=".1289" points="37.7761,-90.7908 27.3922,-88.6872 34.1979,-96.8072 37.7761,-90.7908"/>
</g>
<!-- &#45;2&#45;&gt;3 -->
<g id="edge8" class="edge">
<title>&#45;2&#45;&gt;3</title>
<path fill="none" stroke="#00ff00" stroke-width=".1555" d="M123.914,-131.3072C112.8375,-122.0999 95.4764,-107.6687 82.0925,-96.5435"/>
<polygon fill="#00ff00" stroke="#00ff00" stroke-width=".1555" points="84.2924,-93.8208 74.3649,-90.12 79.8177,-99.2039 84.2924,-93.8208"/>
</g>
<!-- &#45;2&#45;&gt;4 -->
<g id="edge9" class="edge">
<title>&#45;2&#45;&gt;4</title>
<path fill="none" stroke="#00ff00" stroke-width=".5" d="M131.2042,-131.3072C128.2844,-124.0262 124.0547,-113.4784 120.2065,-103.8821"/>
<polygon fill="#00ff00" stroke="#00ff00" stroke-width=".5" points="123.3758,-102.3817 116.4053,-94.4029 116.8788,-104.9871 123.3758,-102.3817"/>
</g>
<!-- &#45;2&#45;&gt;5 -->
<g id="edge10" class="edge">
<title>&#45;2&#45;&gt;5</title>
<path fill="none" stroke="#ff0000" stroke-width=".4392" d="M138.4943,-131.3072C141.414,-124.0262 145.6438,-113.4784 149.492,-103.8821"/>
<polygon fill="#ff0000" stroke="#ff0000" stroke-width=".4392" points="152.8197,-104.9871 153.2932,-94.4029 146.3226,-102.3817 152.8197,-104.9871"/>
</g>
<!-- &#45;2&#45;&gt;6 -->
<g id="edge11" class="edge">
<title>&#45;2&#45;&gt;6</title>
<path fill="none" stroke="#ff0000" stroke-width=".4298" d="M145.7845,-131.3072C156.861,-122.0999 174.2221,-107.6687 187.606,-96.5435"/>
<polygon fill="#ff0000" stroke="#ff0000" stroke-width=".4298" points="189.8808,-99.2039 195.3336,-90.12 185.4061,-93.8208 189.8808,-99.2039"/>
</g>
<!-- &#45;2&#45;&gt;7 -->
<g id="edge12" class="edge">
<title>&#45;2&#45;&gt;7</title>
<path fill="none" stroke="#ff0000" stroke-width=".2447" d="M146.8914,-135.2886C165.2961,-127.3621 201.389,-111.3462 230.8492,-95.397 231.6787,-94.9479 232.5191,-94.4824 233.3641,-94.0056"/>
<polygon fill="#ff0000" stroke="#ff0000" stroke-width=".2447" points="235.5006,-96.8072 242.3062,-88.6872 231.9223,-90.7908 235.5006,-96.8072"/>
</g>
<!-- &#45;3 -->
<g id="node3" class="node">
<title>&#45;3</title>
<polygon fill="#d3d3d3" stroke="#000000" points="188.8492,-149.397 164.8492,-149.397 164.8492,-131.397 188.8492,-131.397 188.8492,-149.397"/>
<text text-anchor="middle" x="176.8492" y="-138.197" font-family="Times,serif" font-size="9.00" fill="#000000">&#45;3</text>
</g>
<!-- &#45;3&#45;&gt;2 -->
<g id="edge13" class="edge">
<title>&#45;3&#45;&gt;2</title>
<path fill="none" stroke="#ff0000" stroke-width=".2829" d="M164.5002,-134.8459C161.6798,-133.6506 158.6793,-132.4355 155.8492,-131.397 104.7735,-112.6547 88.3863,-117.8933 38.8492,-95.397 37.9905,-95.007 37.1251,-94.5917 36.2591,-94.157"/>
<polygon fill="#ff0000" stroke="#ff0000" stroke-width=".2829" points="37.645,-90.9196 27.2189,-89.0359 34.1947,-97.0102 37.645,-90.9196"/>
</g>
<!-- &#45;3&#45;&gt;3 -->
<g id="edge14" class="edge">
<title>&#45;3&#45;&gt;3</title>
<path fill="none" stroke="#ff0000" stroke-width=".22" d="M164.7322,-134.7673C147.2784,-126.5621 114.1574,-110.6311 86.8492,-95.397 86.0255,-94.9375 85.19,-94.4631 84.3491,-93.9787"/>
<polygon fill="#ff0000" stroke="#ff0000" stroke-width=".22" points="85.802,-90.7688 75.4262,-88.6254 82.2007,-96.7714 85.802,-90.7688"/>
</g>
<!-- &#45;3&#45;&gt;4 -->
<g id="edge15" class="edge">
<title>&#45;3&#45;&gt;4</title>
<path fill="none" stroke="#00ff00" stroke-width=".2593" d="M166.8253,-131.3072C156.8859,-122.2941 141.4261,-108.275 129.2698,-97.2516"/>
<polygon fill="#00ff00" stroke="#00ff00" stroke-width=".2593" points="131.6087,-94.6478 121.8497,-90.523 126.9064,-99.8333 131.6087,-94.6478"/>
</g>
<!-- &#45;3&#45;&gt;5 -->
<g id="edge16" class="edge">
<title>&#45;3&#45;&gt;5</title>
<path fill="none" stroke="#00ff00" stroke-width=".1152" d="M174.1154,-131.3072C171.9776,-124.1989 168.9033,-113.9769 166.073,-104.5665"/>
<polygon fill="#00ff00" stroke="#00ff00" stroke-width=".1152" points="169.3854,-103.4275 163.1535,-94.8593 162.682,-105.4437 169.3854,-103.4275"/>
</g>
<!-- &#45;3&#45;&gt;6 -->
<g id="edge17" class="edge">
<title>&#45;3&#45;&gt;6</title>
<path fill="none" stroke="#ff0000" stroke-width=".2603" d="M181.4056,-131.3072C185.1428,-123.8515 190.5972,-112.9702 195.4982,-103.1928"/>
<polygon fill="#ff0000" stroke="#ff0000" stroke-width=".2603" points="198.7784,-104.4593 200.1307,-93.9511 192.5206,-101.3225 198.7784,-104.4593"/>
</g>
<!-- &#45;3&#45;&gt;7 -->
<g id="edge18" class="edge">
<title>&#45;3&#45;&gt;7</title>
<path fill="none" stroke="#ff0000" stroke-width=".3575" d="M188.6958,-131.3072C200.951,-121.9037 220.3079,-107.0512 234.9233,-95.8369"/>
<polygon fill="#ff0000" stroke="#ff0000" stroke-width=".3575" points="237.0882,-98.5874 242.8912,-89.7231 232.8269,-93.0338 237.0882,-98.5874"/>
</g>
<!-- 0 -->
<g id="node4" class="node">
<title>0</title>
<ellipse fill="#add8e6" stroke="#000000" cx="110.8492" cy="-14.8492" rx="14.7" ry="14.7"/>
<text text-anchor="middle" x="110.8492" y="-12.6492" font-family="Times,serif" font-size="9.00" fill="#000000">0</text>
</g>
<!-- 1 -->
<g id="node5" class="node">
<title>1</title>
<ellipse fill="#add8e6" stroke="#000000" cx="158.8492" cy="-14.8492" rx="14.7" ry="14.7"/>
<text text-anchor="middle" x="158.8492" y="-12.6492" font-family="Times,serif" font-size="9.00" fill="#000000">1</text>
</g>
<!-- 2&#45;&gt;0 -->
<g id="edge19" class="edge">
<title>2&#45;&gt;0</title>
<path fill="none" stroke="#00ff00" stroke-width=".1748" d="M27.3996,-71.9588C43.2825,-61.0892 70.8656,-42.2124 89.9489,-29.1526"/>
<polygon fill="#00ff00" stroke="#00ff00" stroke-width=".1748" points="92.02,-31.9764 98.2958,-23.4403 88.0666,-26.1996 92.02,-31.9764"/>
</g>
<!-- 2&#45;&gt;1 -->
<g id="edge20" class="edge">
<title>2&#45;&gt;1</title>
<path fill="none" stroke="#ff0000" stroke-width=".4016" d="M27.2906,-72.2113C30.9334,-69.9473 34.9789,-67.5988 38.8492,-65.6985 79.7527,-45.615 93.9457,-49.782 134.8492,-29.6985 135.6959,-29.2828 136.5509,-28.8456 137.4083,-28.3926"/>
<polygon fill="#ff0000" stroke="#ff0000" stroke-width=".4016" points="139.505,-31.2231 146.4078,-23.1856 135.9994,-25.1642 139.505,-31.2231"/>
</g>
<!-- 3&#45;&gt;0 -->
<g id="edge21" class="edge">
<title>3&#45;&gt;0</title>
<path fill="none" stroke="#00ff00" stroke-width=".4479" d="M71.6532,-68.4976C78.4016,-59.2609 87.8732,-46.297 95.815,-35.4269"/>
<polygon fill="#00ff00" stroke="#00ff00" stroke-width=".4479" points="98.7017,-37.4087 101.775,-27.2694 93.0495,-33.2791 98.7017,-37.4087"/>
</g>
<!-- 3&#45;&gt;1 -->
<g id="edge22" class="edge">
<title>3&#45;&gt;1</title>
<path fill="none" stroke="#ff0000" stroke-width=".2416" d="M75.3996,-71.9588C91.2825,-61.0892 118.8656,-42.2124 137.9489,-29.1526"/>
<polygon fill="#ff0000" stroke="#ff0000" stroke-width=".2416" points="140.02,-31.9764 146.2958,-23.4403 136.0666,-26.1996 140.02,-31.9764"/>
</g>
<!-- 4&#45;&gt;0 -->
<g id="edge23" class="edge">
<title>4&#45;&gt;0</title>
<path fill="none" stroke="#00ff00" stroke-width=".278" d="M110.8492,-65.6397C110.8492,-58.1862 110.8492,-48.9551 110.8492,-40.4154"/>
<polygon fill="#00ff00" stroke="#00ff00" stroke-width=".278" points="114.3493,-40.1541 110.8492,-30.1542 107.3493,-40.1542 114.3493,-40.1541"/>
</g>
<!-- 4&#45;&gt;1 -->
<g id="edge24" class="edge">
<title>4&#45;&gt;1</title>
<path fill="none" stroke="#ff0000" stroke-width=".1976" d="M119.6532,-68.4976C126.4016,-59.2609 135.8732,-46.297 143.815,-35.4269"/>
<polygon fill="#ff0000" stroke="#ff0000" stroke-width=".1976" points="146.7017,-37.4087 149.775,-27.2694 141.0495,-33.2791 146.7017,-37.4087"/>
</g>
<!-- 5&#45;&gt;0 -->
<g id="edge25" class="edge">
<title>5&#45;&gt;0</title>
<path fill="none" stroke="#ff0000" stroke-width=".1772" d="M150.0453,-68.4976C143.2969,-59.2609 133.8253,-46.297 125.8835,-35.4269"/>
<polygon fill="#ff0000" stroke="#ff0000" stroke-width=".1772" points="128.649,-33.2791 119.9235,-27.2694 122.9968,-37.4087 128.649,-33.2791"/>
</g>
<!-- 5&#45;&gt;1 -->
<g id="edge26" class="edge">
<title>5&#45;&gt;1</title>
<path fill="none" stroke="#ff0000" stroke-width=".1418" d="M158.8492,-65.6397C158.8492,-58.1862 158.8492,-48.9551 158.8492,-40.4154"/>
<polygon fill="#ff0000" stroke="#ff0000" stroke-width=".1418" points="162.3493,-40.1541 158.8492,-30.1542 155.3493,-40.1542 162.3493,-40.1541"/>
</g>
<!-- 6&#45;&gt;0 -->
<g id="edge27" class="edge">
<title>6&#45;&gt;0</title>
<path fill="none" stroke="#00ff00" stroke-width=".1807" d="M194.2989,-71.9588C178.416,-61.0892 150.8329,-42.2124 131.7496,-29.1526"/>
<polygon fill="#00ff00" stroke="#00ff00" stroke-width=".1807" points="133.6319,-26.1996 123.4026,-23.4403 129.6785,-31.9764 133.6319,-26.1996"/>
</g>
<!-- 6&#45;&gt;1 -->
<g id="edge28" class="edge">
<title>6&#45;&gt;1</title>
<path fill="none" stroke="#00ff00" stroke-width=".336" d="M198.0453,-68.4976C191.2969,-59.2609 181.8253,-46.297 173.8835,-35.4269"/>
<polygon fill="#00ff00" stroke="#00ff00" stroke-width=".336" points="176.649,-33.2791 167.9235,-27.2694 170.9968,-37.4087 176.649,-33.2791"/>
</g>
<!-- 7&#45;&gt;0 -->
<g id="edge29" class="edge">
<title>7&#45;&gt;0</title>
<path fill="none" stroke="#00ff00" stroke-width=".4767" d="M242.4078,-72.2113C238.7651,-69.9473 234.7196,-67.5988 230.8492,-65.6985 189.9457,-45.615 175.7527,-49.782 134.8492,-29.6985 134.0026,-29.2828 133.1476,-28.8456 132.2902,-28.3926"/>
<polygon fill="#00ff00" stroke="#00ff00" stroke-width=".4767" points="133.6991,-25.1642 123.2906,-23.1856 130.1935,-31.2231 133.6991,-25.1642"/>
</g>
<!-- 7&#45;&gt;1 -->
<g id="edge30" class="edge">
<title>7&#45;&gt;1</title>
<path fill="none" stroke="#00ff00" stroke-width=".3035" d="M242.2989,-71.9588C226.416,-61.0892 198.8329,-42.2124 179.7496,-29.1526"/>
<polygon fill="#00ff00" stroke="#00ff00" stroke-width=".3035" points="181.6319,-26.1996 171.4026,-23.4403 177.6785,-31.9764 181.6319,-26.1996"/>
</g>
</g>
</svg>
