<?xml version="1.0" encoding="UTF-8" standalone="no"?>
<!DOCTYPE svg PUBLIC "-//W3C//DTD SVG 1.1//EN"
 "http://www.w3.org/Graphics/SVG/1.1/DTD/svg11.dtd">
<!-- Generated by graphviz version 2.40.1 (20161225.0304)
 -->
<!-- Title: %3 Pages: 1 -->
<svg width="155pt" height="237pt"
 viewBox="0.00 0.00 155.23 237.24" xmlns="http://www.w3.org/2000/svg" xmlns:xlink="http://www.w3.org/1999/xlink">
<g id="graph0" class="graph" transform="scale(1 1) rotate(0) translate(4 233.2376)">
<title>%3</title>
<polygon fill="#ffffff" stroke="transparent" points="-4,4 -4,-233.2376 151.234,-233.2376 151.234,4 -4,4"/>
<!-- &#45;1 -->
<g id="node1" class="node">
<title>&#45;1</title>
<polygon fill="#d3d3d3" stroke="#000000" points="30.3848,-229.2376 6.3848,-229.2376 6.3848,-211.2376 30.3848,-211.2376 30.3848,-229.2376"/>
<text text-anchor="middle" x="18.3848" y="-218.0376" font-family="Times,serif" font-size="9.00" fill="#000000">&#45;1</text>
</g>
<!-- 40 -->
<g id="node6" class="node">
<title>40</title>
<ellipse fill="#ffffff" stroke="#000000" cx="18.3848" cy="-156.8528" rx="18.2703" ry="18.2703"/>
<text text-anchor="middle" x="18.3848" y="-154.6528" font-family="Times,serif" font-size="9.00" fill="#000000">40</text>
</g>
<!-- &#45;1&#45;&gt;40 -->
<g id="edge1" class="edge">
<title>&#45;1&#45;&gt;40</title>
<path fill="none" stroke="#ff0000" stroke-width=".3818" d="M18.3848,-211.1561C18.3848,-204.3911 18.3848,-194.7581 18.3848,-185.479"/>
<polygon fill="#ff0000" stroke="#ff0000" stroke-width=".3818" points="21.8849,-185.3247 18.3848,-175.3247 14.8849,-185.3248 21.8849,-185.3247"/>
</g>
<!-- &#45;2 -->
<g id="node2" class="node">
<title>&#45;2</title>
<polygon fill="#d3d3d3" stroke="#000000" points="76.3848,-229.2376 52.3848,-229.2376 52.3848,-211.2376 76.3848,-211.2376 76.3848,-229.2376"/>
<text text-anchor="middle" x="64.3848" y="-218.0376" font-family="Times,serif" font-size="9.00" fill="#000000">&#45;2</text>
</g>
<!-- &#45;2&#45;&gt;40 -->
<g id="edge2" class="edge">
<title>&#45;2&#45;&gt;40</title>
<path fill="none" stroke="#ff0000" stroke-width=".1107" stroke-dasharray="1,5" d="M57.7941,-211.1561C51.9134,-203.0529 43.0464,-190.8347 35.2115,-180.0388"/>
<polygon fill="#ff0000" stroke="#ff0000" stroke-width=".1107" points="37.9323,-177.8289 29.2261,-171.7914 32.267,-181.9404 37.9323,-177.8289"/>
</g>
<!-- 42 -->
<g id="node7" class="node">
<title>42</title>
<ellipse fill="#ffffff" stroke="#000000" cx="108.3848" cy="-84.0833" rx="18.2703" ry="18.2703"/>
<text text-anchor="middle" x="108.3848" y="-81.8833" font-family="Times,serif" font-size="9.00" fill="#000000">42</text>
</g>
<!-- &#45;2&#45;&gt;42 -->
<g id="edge3" class="edge">
<title>&#45;2&#45;&gt;42</title>
<path fill="none" stroke="#00ff00" stroke-width=".5" d="M65.9017,-210.993C68.5566,-195.6604 74.6109,-164.1171 83.3848,-138.468 86.6945,-128.7925 91.1538,-118.5194 95.3898,-109.5379"/>
<polygon fill="#00ff00" stroke="#00ff00" stroke-width=".5" points="98.6131,-110.9126 99.8337,-100.3883 92.3165,-107.8543 98.6131,-110.9126"/>
</g>
<!-- 43 -->
<g id="node8" class="node">
<title>43</title>
<ellipse fill="#ffffff" stroke="#000000" cx="110.3848" cy="-156.8528" rx="18.2703" ry="18.2703"/>
<text text-anchor="middle" x="110.3848" y="-154.6528" font-family="Times,serif" font-size="9.00" fill="#000000">43</text>
</g>
<!-- &#45;2&#45;&gt;43 -->
<g id="edge4" class="edge">
<title>&#45;2&#45;&gt;43</title>
<path fill="none" stroke="#00ff00" stroke-width=".3849" d="M70.9755,-211.1561C76.8562,-203.0529 85.7232,-190.8347 93.5581,-180.0388"/>
<polygon fill="#00ff00" stroke="#00ff00" stroke-width=".3849" points="96.5026,-181.9404 99.5435,-171.7914 90.8373,-177.8289 96.5026,-181.9404"/>
</g>
<!-- &#45;3 -->
<g id="node3" class="node">
<title>&#45;3</title>
<polygon fill="#d3d3d3" stroke="#000000" points="122.3848,-229.2376 98.3848,-229.2376 98.3848,-211.2376 122.3848,-211.2376 122.3848,-229.2376"/>
<text text-anchor="middle" x="110.3848" y="-218.0376" font-family="Times,serif" font-size="9.00" fill="#000000">&#45;3</text>
</g>
<!-- &#45;3&#45;&gt;40 -->
<g id="edge5" class="edge">
<title>&#45;3&#45;&gt;40</title>
<path fill="none" stroke="#00ff00" stroke-width=".4521" d="M98.3574,-211.9511C84.126,-202.1462 60.0927,-185.5881 42.0797,-173.1778"/>
<polygon fill="#00ff00" stroke="#00ff00" stroke-width=".4521" points="44.0105,-170.2578 33.79,-167.4665 40.0391,-176.0222 44.0105,-170.2578"/>
</g>
<!-- &#45;3&#45;&gt;42 -->
<g id="edge6" class="edge">
<title>&#45;3&#45;&gt;42</title>
<path fill="none" stroke="#ff0000" stroke-width=".4716" d="M118.0444,-210.9385C124.6296,-202.2971 133.6395,-188.7592 137.3848,-175.2376 141.747,-159.4885 141.3477,-154.3223 137.3848,-138.468 134.7656,-127.9898 129.7035,-117.3197 124.532,-108.2379"/>
<polygon fill="#ff0000" stroke="#ff0000" stroke-width=".4716" points="127.371,-106.1688 119.201,-99.4234 121.3812,-109.7915 127.371,-106.1688"/>
</g>
<!-- &#45;3&#45;&gt;43 -->
<g id="edge7" class="edge">
<title>&#45;3&#45;&gt;43</title>
<path fill="none" stroke="#00ff00" stroke-width=".1423" stroke-dasharray="1,5" d="M110.3848,-211.1561C110.3848,-204.3911 110.3848,-194.7581 110.3848,-185.479"/>
<polygon fill="#00ff00" stroke="#00ff00" stroke-width=".1423" points="113.8849,-185.3247 110.3848,-175.3247 106.8849,-185.3248 113.8849,-185.3247"/>
</g>
<!-- 0 -->
<g id="node4" class="node">
<title>0</title>
<ellipse fill="#add8e6" stroke="#000000" cx="62.3848" cy="-14.8492" rx="14.7" ry="14.7"/>
<text text-anchor="middle" x="62.3848" y="-12.6492" font-family="Times,serif" font-size="9.00" fill="#000000">0</text>
</g>
<!-- 1 -->
<g id="node5" class="node">
<title>1</title>
<ellipse fill="#add8e6" stroke="#000000" cx="132.3848" cy="-14.8492" rx="14.7" ry="14.7"/>
<text text-anchor="middle" x="132.3848" y="-12.6492" font-family="Times,serif" font-size="9.00" fill="#000000">1</text>
</g>
<!-- 40&#45;&gt;0 -->
<g id="edge8" class="edge">
<title>40&#45;&gt;0</title>
<path fill="none" stroke="#00ff00" stroke-width=".2005" d="M23.8684,-139.1551C31.7061,-113.8602 46.1344,-67.2949 54.9339,-38.896"/>
<polygon fill="#00ff00" stroke="#00ff00" stroke-width=".2005" points="58.2819,-39.9161 57.8985,-29.3282 51.5955,-37.8442 58.2819,-39.9161"/>
</g>
<!-- 42&#45;&gt;0 -->
<g id="edge9" class="edge">
<title>42&#45;&gt;0</title>
<path fill="none" stroke="#ff0000" stroke-width=".5" d="M98.1759,-68.718C91.7887,-59.1047 83.4717,-46.5869 76.4629,-36.038"/>
<polygon fill="#ff0000" stroke="#ff0000" stroke-width=".5" points="79.1709,-33.7893 70.7217,-27.397 73.3405,-37.6631 79.1709,-33.7893"/>
</g>
<!-- 42&#45;&gt;1 -->
<g id="edge10" class="edge">
<title>42&#45;&gt;1</title>
<path fill="none" stroke="#00ff00" stroke-width=".4749" d="M114.441,-66.6126C117.3467,-58.2303 120.8745,-48.0536 124.0305,-38.9493"/>
<polygon fill="#00ff00" stroke="#00ff00" stroke-width=".4749" points="127.4144,-39.8735 127.3828,-29.2787 120.8005,-37.5807 127.4144,-39.8735"/>
</g>
<!-- 43&#45;&gt;0 -->
<g id="edge11" class="edge">
<title>43&#45;&gt;0</title>
<path fill="none" stroke="#ff0000" stroke-width=".3922" d="M100.5471,-141.2118C94.2694,-130.6246 86.3982,-116.1296 81.3848,-102.468 73.8447,-81.9212 68.8554,-57.5115 65.8896,-39.6813"/>
<polygon fill="#ff0000" stroke="#ff0000" stroke-width=".3922" points="69.343,-39.1105 64.3365,-29.7732 62.4274,-40.1946 69.343,-39.1105"/>
</g>
<!-- 43&#45;&gt;1 -->
<g id="edge12" class="edge">
<title>43&#45;&gt;1</title>
<path fill="none" stroke="#00ff00" stroke-width=".4027" d="M119.9783,-140.8391C125.6978,-130.334 132.408,-116.0709 135.3848,-102.468 139.9386,-81.6589 138.6167,-57.4153 136.4825,-39.7117"/>
<polygon fill="#00ff00" stroke="#00ff00" stroke-width=".4027" points="139.9249,-39.0524 135.094,-29.6231 132.9902,-40.0069 139.9249,-39.0524"/>
</g>
<!-- 43&#45;&gt;42 -->
<g id="edge13" class="edge">
<title>43&#45;&gt;42</title>
<path fill="none" stroke="#00ff00" stroke-width=".1029" d="M109.8697,-138.1128C109.6558,-130.3288 109.4028,-121.1231 109.1668,-112.5368"/>
<polygon fill="#00ff00" stroke="#00ff00" stroke-width=".1029" points="112.6647,-112.4078 108.8912,-102.5078 105.6673,-112.6002 112.6647,-112.4078"/>
</g>
</g>
</svg>
