<?xml version="1.0" encoding="UTF-8" standalone="no"?>
<!DOCTYPE svg PUBLIC "-//W3C//DTD SVG 1.1//EN"
 "http://www.w3.org/Graphics/SVG/1.1/DTD/svg11.dtd">
<!-- Generated by graphviz version 2.40.1 (20161225.0304)
 -->
<!-- Title: %3 Pages: 1 -->
<svg width="472pt" height="385pt"
 viewBox="0.00 0.00 471.58 384.96" xmlns="http://www.w3.org/2000/svg" xmlns:xlink="http://www.w3.org/1999/xlink">
<g id="graph0" class="graph" transform="scale(1 1) rotate(0) translate(4 380.9605)">
<title>%3</title>
<polygon fill="#ffffff" stroke="transparent" points="-4,4 -4,-380.9605 467.5833,-380.9605 467.5833,4 -4,4"/>
<!-- &#45;1 -->
<g id="node1" class="node">
<title>&#45;1</title>
<polygon fill="#d3d3d3" stroke="#000000" points="53.0061,-376.9605 29.0061,-376.9605 29.0061,-358.9605 53.0061,-358.9605 53.0061,-376.9605"/>
<text text-anchor="middle" x="41.0061" y="-365.7605" font-family="Times,serif" font-size="9.00" fill="#000000">&#45;1</text>
</g>
<!-- 1 -->
<g id="node5" class="node">
<title>1</title>
<ellipse fill="#add8e6" stroke="#000000" cx="84.0061" cy="-204.229" rx="14.7" ry="14.7"/>
<text text-anchor="middle" x="84.0061" y="-202.029" font-family="Times,serif" font-size="9.00" fill="#000000">1</text>
</g>
<!-- &#45;1&#45;&gt;1 -->
<g id="edge20" class="edge">
<title>&#45;1&#45;&gt;1</title>
<path fill="none" stroke="#ff0000" stroke-width=".3716" d="M31.074,-358.7012C22.8369,-350.2901 11.7377,-337.0718 7.0061,-322.9605 -.7868,-299.7191 -3.4415,-289.9812 7.0061,-267.8061 18.1429,-244.1684 42.8581,-226.3258 61.3018,-215.6485"/>
<polygon fill="#ff0000" stroke="#ff0000" stroke-width=".3716" points="63.1882,-218.6057 70.2699,-210.7254 59.8196,-212.4695 63.1882,-218.6057"/>
</g>
<!-- 1095 -->
<g id="node7" class="node">
<title>1095</title>
<ellipse fill="#ffffff" stroke="#000000" cx="41.0061" cy="-295.3833" rx="25" ry="25"/>
<text text-anchor="middle" x="41.0061" y="-293.1833" font-family="Times,serif" font-size="9.00" fill="#000000">1095</text>
</g>
<!-- &#45;1&#45;&gt;1095 -->
<g id="edge1" class="edge">
<title>&#45;1&#45;&gt;1095</title>
<path fill="none" stroke="#00ff00" stroke-width=".1896" d="M41.0061,-358.7685C41.0061,-351.5594 41.0061,-341.0354 41.0061,-330.6263"/>
<polygon fill="#00ff00" stroke="#00ff00" stroke-width=".1896" points="44.5062,-330.3824 41.0061,-320.3825 37.5062,-330.3825 44.5062,-330.3824"/>
</g>
<!-- 1099 -->
<g id="node10" class="node">
<title>1099</title>
<ellipse fill="#ffffff" stroke="#000000" cx="108.0061" cy="-295.3833" rx="25" ry="25"/>
<text text-anchor="middle" x="108.0061" y="-293.1833" font-family="Times,serif" font-size="9.00" fill="#000000">1099</text>
</g>
<!-- &#45;1&#45;&gt;1099 -->
<g id="edge2" class="edge">
<title>&#45;1&#45;&gt;1099</title>
<path fill="none" stroke="#ff0000" stroke-width=".2376" d="M49.4917,-358.7685C58.2046,-349.3304 72.1624,-334.2107 84.2607,-321.1053"/>
<polygon fill="#ff0000" stroke="#ff0000" stroke-width=".2376" points="86.904,-323.4019 91.1154,-313.68 81.7606,-318.6537 86.904,-323.4019"/>
</g>
<!-- &#45;2 -->
<g id="node2" class="node">
<title>&#45;2</title>
<polygon fill="#d3d3d3" stroke="#000000" points="336.0061,-376.9605 312.0061,-376.9605 312.0061,-358.9605 336.0061,-358.9605 336.0061,-376.9605"/>
<text text-anchor="middle" x="324.0061" y="-365.7605" font-family="Times,serif" font-size="9.00" fill="#000000">&#45;2</text>
</g>
<!-- 16640 -->
<g id="node6" class="node">
<title>16640</title>
<ellipse fill="#ffffff" stroke="#000000" cx="436.0061" cy="-295.3833" rx="27.6545" ry="27.6545"/>
<text text-anchor="middle" x="436.0061" y="-293.1833" font-family="Times,serif" font-size="9.00" fill="#000000">16640</text>
</g>
<!-- &#45;2&#45;&gt;16640 -->
<g id="edge14" class="edge">
<title>&#45;2&#45;&gt;16640</title>
<path fill="none" stroke="#00ff00" stroke-width=".303" d="M336.1691,-360.1917C350.15,-351.25 373.7743,-336.1052 394.0061,-322.9605 397.3663,-320.7773 400.873,-318.4897 404.3654,-316.2054"/>
<polygon fill="#00ff00" stroke="#00ff00" stroke-width=".303" points="406.4801,-319.0042 412.9255,-310.5954 402.6431,-313.1494 406.4801,-319.0042"/>
</g>
<!-- 1097 -->
<g id="node8" class="node">
<title>1097</title>
<ellipse fill="#ffffff" stroke="#000000" cx="265.0061" cy="-295.3833" rx="25" ry="25"/>
<text text-anchor="middle" x="265.0061" y="-293.1833" font-family="Times,serif" font-size="9.00" fill="#000000">1097</text>
</g>
<!-- &#45;2&#45;&gt;1097 -->
<g id="edge3" class="edge">
<title>&#45;2&#45;&gt;1097</title>
<path fill="none" stroke="#ff0000" stroke-width=".3893" d="M316.5337,-358.7685C309.2081,-349.7571 297.672,-335.5663 287.3708,-322.8946"/>
<polygon fill="#ff0000" stroke="#ff0000" stroke-width=".3893" points="289.8602,-320.4083 280.8364,-314.8565 284.4286,-324.8238 289.8602,-320.4083"/>
</g>
<!-- 1098 -->
<g id="node9" class="node">
<title>1098</title>
<ellipse fill="#ffffff" stroke="#000000" cx="322.0061" cy="-115.9031" rx="25" ry="25"/>
<text text-anchor="middle" x="322.0061" y="-113.7031" font-family="Times,serif" font-size="9.00" fill="#000000">1098</text>
</g>
<!-- &#45;2&#45;&gt;1098 -->
<g id="edge4" class="edge">
<title>&#45;2&#45;&gt;1098</title>
<path fill="none" stroke="#ff0000" stroke-width=".5" d="M328.8966,-358.6539C342.9348,-330.694 381.0995,-245.144 361.0061,-176.6518 357.5133,-164.7459 350.8895,-152.9634 344.0786,-142.9894"/>
<polygon fill="#ff0000" stroke="#ff0000" stroke-width=".5" points="346.8096,-140.7927 338.1192,-134.7323 341.1335,-144.8893 346.8096,-140.7927"/>
</g>
<!-- &#45;2&#45;&gt;1099 -->
<g id="edge5" class="edge">
<title>&#45;2&#45;&gt;1099</title>
<path fill="none" stroke="#ff0000" stroke-width=".5" stroke-dasharray="1,5" d="M311.7742,-363.8505C279.2954,-352.9374 190.0382,-322.9465 141.1277,-306.5123"/>
<polygon fill="#ff0000" stroke="#ff0000" stroke-width=".5" points="142.2191,-303.1868 131.6251,-303.3194 139.9895,-309.8222 142.2191,-303.1868"/>
</g>
<!-- 51702 -->
<g id="node13" class="node">
<title>51702</title>
<ellipse fill="#ffffff" stroke="#000000" cx="324.0061" cy="-204.229" rx="27.6545" ry="27.6545"/>
<text text-anchor="middle" x="324.0061" y="-202.029" font-family="Times,serif" font-size="9.00" fill="#000000">51702</text>
</g>
<!-- &#45;2&#45;&gt;51702 -->
<g id="edge15" class="edge">
<title>&#45;2&#45;&gt;51702</title>
<path fill="none" stroke="#00ff00" stroke-width=".2475" d="M324.0061,-358.6884C324.0061,-336.7368 324.0061,-280.5683 324.0061,-242.3717"/>
<polygon fill="#00ff00" stroke="#00ff00" stroke-width=".2475" points="327.5062,-242.1182 324.0061,-232.1183 320.5062,-242.1183 327.5062,-242.1182"/>
</g>
<!-- &#45;3 -->
<g id="node3" class="node">
<title>&#45;3</title>
<polygon fill="#d3d3d3" stroke="#000000" points="196.0061,-376.9605 172.0061,-376.9605 172.0061,-358.9605 196.0061,-358.9605 196.0061,-376.9605"/>
<text text-anchor="middle" x="184.0061" y="-365.7605" font-family="Times,serif" font-size="9.00" fill="#000000">&#45;3</text>
</g>
<!-- &#45;3&#45;&gt;1095 -->
<g id="edge6" class="edge">
<title>&#45;3&#45;&gt;1095</title>
<path fill="none" stroke="#ff0000" stroke-width=".2963" d="M171.8787,-364.3592C150.9817,-357.8636 107.2331,-342.978 74.0061,-322.9605 71.8237,-321.6457 69.6368,-320.1914 67.4852,-318.6581"/>
<polygon fill="#ff0000" stroke="#ff0000" stroke-width=".2963" points="69.5092,-315.7994 59.4473,-312.4815 65.244,-321.3499 69.5092,-315.7994"/>
</g>
<!-- &#45;3&#45;&gt;1097 -->
<g id="edge7" class="edge">
<title>&#45;3&#45;&gt;1097</title>
<path fill="none" stroke="#00ff00" stroke-width=".5" d="M194.2648,-358.7685C205.4302,-348.7642 223.7201,-332.3762 238.9052,-318.7701"/>
<polygon fill="#00ff00" stroke="#00ff00" stroke-width=".5" points="241.3967,-321.2372 246.5088,-311.9572 236.7254,-316.0238 241.3967,-321.2372"/>
</g>
<!-- &#45;3&#45;&gt;1098 -->
<g id="edge8" class="edge">
<title>&#45;3&#45;&gt;1098</title>
<path fill="none" stroke="#00ff00" stroke-width=".3201" d="M179.9973,-358.5641C168.0104,-328.8671 135.6352,-235.5226 175.0061,-176.6518 199.8388,-139.5199 251.9843,-125.0585 287.0093,-119.4433"/>
<polygon fill="#00ff00" stroke="#00ff00" stroke-width=".3201" points="287.8789,-122.8544 297.2803,-117.9693 286.8845,-115.9254 287.8789,-122.8544"/>
</g>
<!-- 63626 -->
<g id="node11" class="node">
<title>63626</title>
<ellipse fill="#ffffff" stroke="#000000" cx="212.0061" cy="-204.229" rx="27.6545" ry="27.6545"/>
<text text-anchor="middle" x="212.0061" y="-202.029" font-family="Times,serif" font-size="9.00" fill="#000000">63626</text>
</g>
<!-- &#45;3&#45;&gt;63626 -->
<g id="edge17" class="edge">
<title>&#45;3&#45;&gt;63626</title>
<path fill="none" stroke="#00ff00" stroke-width=".4478" d="M185.5918,-358.6884C189.3669,-336.6131 199.0596,-279.9343 205.5934,-241.7279"/>
<polygon fill="#00ff00" stroke="#00ff00" stroke-width=".4478" points="209.1091,-241.9326 207.3449,-231.4856 202.2093,-240.7525 209.1091,-241.9326"/>
</g>
<!-- 0 -->
<g id="node4" class="node">
<title>0</title>
<ellipse fill="#add8e6" stroke="#000000" cx="265.0061" cy="-27.5772" rx="14.7" ry="14.7"/>
<text text-anchor="middle" x="265.0061" y="-25.3772" font-family="Times,serif" font-size="9.00" fill="#000000">0</text>
</g>
<!-- 1095&#45;&gt;0 -->
<g id="edge9" class="edge">
<title>1095&#45;&gt;0</title>
<path fill="none" stroke="#ff0000" stroke-width=".1186" stroke-dasharray="1,5" d="M39.6518,-270.3015C39.4453,-244.8738 42.4285,-205.2982 60.0061,-176.6518 104.4177,-104.2741 198.3549,-56.3079 241.9202,-37.0756"/>
<polygon fill="#ff0000" stroke="#ff0000" stroke-width=".1186" points="243.3365,-40.2764 251.1366,-33.1063 240.5677,-33.8473 243.3365,-40.2764"/>
</g>
<!-- 1095&#45;&gt;1 -->
<g id="edge10" class="edge">
<title>1095&#45;&gt;1</title>
<path fill="none" stroke="#ff0000" stroke-width=".1264" d="M51.6354,-272.8508C58.1995,-258.9356 66.5983,-241.1313 73.1958,-227.1454"/>
<polygon fill="#ff0000" stroke="#ff0000" stroke-width=".1264" points="76.5285,-228.284 77.6295,-217.7466 70.1976,-225.2975 76.5285,-228.284"/>
</g>
<!-- 1097&#45;&gt;0 -->
<g id="edge11" class="edge">
<title>1097&#45;&gt;0</title>
<path fill="none" stroke="#00ff00" stroke-width=".3445" d="M265.0061,-270.1887C265.0061,-219.1184 265.0061,-103.9189 265.0061,-52.8135"/>
<polygon fill="#00ff00" stroke="#00ff00" stroke-width=".3445" points="268.5062,-52.6498 265.0061,-42.6498 261.5062,-52.6498 268.5062,-52.6498"/>
</g>
<!-- 1097&#45;&gt;63626 -->
<g id="edge21" class="edge">
<title>1097&#45;&gt;63626</title>
<path fill="none" stroke="#ff0000" stroke-width=".2787" d="M252.4459,-273.781C246.1037,-262.8731 238.2723,-249.4039 231.1955,-237.2326"/>
<polygon fill="#ff0000" stroke="#ff0000" stroke-width=".2787" points="234.0203,-235.1277 225.9681,-228.242 227.9688,-238.6462 234.0203,-235.1277"/>
</g>
<!-- 1098&#45;&gt;0 -->
<g id="edge12" class="edge">
<title>1098&#45;&gt;0</title>
<path fill="none" stroke="#ff0000" stroke-width=".2763" stroke-dasharray="1,5" d="M308.4979,-94.9711C299.478,-80.994 287.6574,-62.677 278.6165,-48.6674"/>
<polygon fill="#ff0000" stroke="#ff0000" stroke-width=".2763" points="281.4972,-46.6765 273.134,-40.172 275.6156,-50.4721 281.4972,-46.6765"/>
</g>
<!-- 73330 -->
<g id="node12" class="node">
<title>73330</title>
<ellipse fill="#ffffff" stroke="#000000" cx="325.0061" cy="-27.5772" rx="27.6545" ry="27.6545"/>
<text text-anchor="middle" x="325.0061" y="-25.3772" font-family="Times,serif" font-size="9.00" fill="#000000">73330</text>
</g>
<!-- 1098&#45;&gt;73330 -->
<g id="edge19" class="edge">
<title>1098&#45;&gt;73330</title>
<path fill="none" stroke="#ff0000" stroke-width=".1347" d="M322.8578,-90.8287C323.1263,-82.9242 323.4291,-74.0094 323.7208,-65.4203"/>
<polygon fill="#ff0000" stroke="#ff0000" stroke-width=".1347" points="327.2265,-65.3078 324.0681,-55.1947 320.2306,-65.0701 327.2265,-65.3078"/>
</g>
<!-- 1099&#45;&gt;1 -->
<g id="edge13" class="edge">
<title>1099&#45;&gt;1</title>
<path fill="none" stroke="#00ff00" stroke-width=".5" stroke-dasharray="1,5" d="M101.7004,-271.4336C98.2155,-258.1977 93.8966,-241.7939 90.3981,-228.5063"/>
<polygon fill="#00ff00" stroke="#00ff00" stroke-width=".5" points="93.7307,-227.4173 87.7999,-218.6381 86.9614,-229.1997 93.7307,-227.4173"/>
</g>
<!-- 63626&#45;&gt;1098 -->
<g id="edge18" class="edge">
<title>63626&#45;&gt;1098</title>
<path fill="none" stroke="#ff0000" stroke-width=".1116" stroke-dasharray="1,5" d="M233.7386,-186.7786C251.1917,-172.7644 275.8039,-153.0017 294.6066,-137.9038"/>
<polygon fill="#ff0000" stroke="#ff0000" stroke-width=".1116" points="296.9243,-140.5316 302.5304,-131.5414 292.5416,-135.0734 296.9243,-140.5316"/>
</g>
<!-- 51702&#45;&gt;1098 -->
<g id="edge16" class="edge">
<title>51702&#45;&gt;1098</title>
<path fill="none" stroke="#00ff00" stroke-width=".3767" d="M323.3733,-176.2821C323.1894,-168.1617 322.9863,-159.1918 322.7942,-150.7053"/>
<polygon fill="#00ff00" stroke="#00ff00" stroke-width=".3767" points="326.2928,-150.6012 322.5672,-140.683 319.2946,-150.7597 326.2928,-150.6012"/>
</g>
</g>
</svg>
