<?xml version="1.0" encoding="UTF-8" standalone="no"?>
<!DOCTYPE svg PUBLIC "-//W3C//DTD SVG 1.1//EN"
 "http://www.w3.org/Graphics/SVG/1.1/DTD/svg11.dtd">
<!-- Generated by graphviz version 2.40.1 (20161225.0304)
 -->
<!-- Title: %3 Pages: 1 -->
<svg width="653pt" height="263pt"
 viewBox="0.00 0.00 653.00 262.69" xmlns="http://www.w3.org/2000/svg" xmlns:xlink="http://www.w3.org/1999/xlink">
<g id="graph0" class="graph" transform="scale(1 1) rotate(0) translate(4 258.6934)">
<title>%3</title>
<polygon fill="#ffffff" stroke="transparent" points="-4,4 -4,-258.6934 649,-258.6934 649,4 -4,4"/>
<!-- &#45;1 -->
<g id="node1" class="node">
<title>&#45;1</title>
<polygon fill="#d3d3d3" stroke="#000000" points="603,-254.6934 579,-254.6934 579,-236.6934 603,-236.6934 603,-254.6934"/>
<text text-anchor="middle" x="591" y="-243.4934" font-family="Times,serif" font-size="9.00" fill="#000000">&#45;1</text>
</g>
<!-- 1562 -->
<g id="node18" class="node">
<title>1562</title>
<ellipse fill="#ffffff" stroke="#000000" cx="354" cy="-90.4472" rx="25" ry="25"/>
<text text-anchor="middle" x="354" y="-88.2472" font-family="Times,serif" font-size="9.00" fill="#000000">1562</text>
</g>
<!-- &#45;1&#45;&gt;1562 -->
<g id="edge1" class="edge">
<title>&#45;1&#45;&gt;1562</title>
<path fill="none" stroke="#ff0000" stroke-width=".276" d="M589.4917,-236.4093C585.9408,-217.5549 575.2851,-174.5907 549,-151.196 503.5826,-110.7729 431.5232,-97.2467 388.887,-92.7215"/>
<polygon fill="#ff0000" stroke="#ff0000" stroke-width=".276" points="389.0019,-89.2167 378.7154,-91.754 388.339,-96.1852 389.0019,-89.2167"/>
</g>
<!-- 1564 -->
<g id="node19" class="node">
<title>1564</title>
<ellipse fill="#ffffff" stroke="#000000" cx="225" cy="-175.9447" rx="25" ry="25"/>
<text text-anchor="middle" x="225" y="-173.7447" font-family="Times,serif" font-size="9.00" fill="#000000">1564</text>
</g>
<!-- &#45;1&#45;&gt;1564 -->
<g id="edge2" class="edge">
<title>&#45;1&#45;&gt;1564</title>
<path fill="none" stroke="#ff0000" stroke-width=".1897" d="M578.6362,-239.9471C575.5447,-238.7032 572.1973,-237.5159 569,-236.6934 434.242,-202.0283 387.2522,-252.2225 258,-200.6934 256.1041,-199.9376 254.2214,-199.0433 252.3723,-198.0508"/>
<polygon fill="#ff0000" stroke="#ff0000" stroke-width=".1897" points="253.8283,-194.8311 243.5032,-192.4555 250.0933,-200.7514 253.8283,-194.8311"/>
</g>
<!-- 1566 -->
<g id="node20" class="node">
<title>1566</title>
<ellipse fill="#ffffff" stroke="#000000" cx="292" cy="-175.9447" rx="25" ry="25"/>
<text text-anchor="middle" x="292" y="-173.7447" font-family="Times,serif" font-size="9.00" fill="#000000">1566</text>
</g>
<!-- &#45;1&#45;&gt;1566 -->
<g id="edge3" class="edge">
<title>&#45;1&#45;&gt;1566</title>
<path fill="none" stroke="#ff0000" stroke-width=".5" d="M578.5742,-240.1657C575.4846,-238.9152 572.1536,-237.6701 569,-236.6934 496.4712,-214.2323 476.1496,-217.0267 402,-200.6934 376.7007,-195.1207 348.1612,-188.6955 326.4929,-183.7887"/>
<polygon fill="#ff0000" stroke="#ff0000" stroke-width=".5" points="326.9785,-180.31 316.4521,-181.5122 325.4306,-187.1368 326.9785,-180.31"/>
</g>
<!-- 1567 -->
<g id="node21" class="node">
<title>1567</title>
<ellipse fill="#ffffff" stroke="#000000" cx="436" cy="-175.9447" rx="25" ry="25"/>
<text text-anchor="middle" x="436" y="-173.7447" font-family="Times,serif" font-size="9.00" fill="#000000">1567</text>
</g>
<!-- &#45;1&#45;&gt;1567 -->
<g id="edge4" class="edge">
<title>&#45;1&#45;&gt;1567</title>
<path fill="none" stroke="#ff0000" stroke-width=".2581" d="M578.8374,-240.2204C555.1576,-229.5646 502.1811,-205.7256 467.8247,-190.2655"/>
<polygon fill="#ff0000" stroke="#ff0000" stroke-width=".2581" points="469.2235,-187.057 458.668,-186.1451 466.351,-193.4405 469.2235,-187.057"/>
</g>
<!-- &#45;2 -->
<g id="node2" class="node">
<title>&#45;2</title>
<polygon fill="#d3d3d3" stroke="#000000" points="24,-254.6934 0,-254.6934 0,-236.6934 24,-236.6934 24,-254.6934"/>
<text text-anchor="middle" x="12" y="-243.4934" font-family="Times,serif" font-size="9.00" fill="#000000">&#45;2</text>
</g>
<!-- &#45;2&#45;&gt;1562 -->
<g id="edge5" class="edge">
<title>&#45;2&#45;&gt;1562</title>
<path fill="none" stroke="#00ff00" stroke-width=".2679" d="M14.2879,-236.4459C19.5388,-217.2705 34.3476,-173.1408 64,-151.196 104.2297,-121.4231 250.8563,-101.8127 318.8879,-94.1175"/>
<polygon fill="#00ff00" stroke="#00ff00" stroke-width=".2679" points="319.5499,-97.5657 329.1034,-92.9851 318.7786,-90.6083 319.5499,-97.5657"/>
</g>
<!-- &#45;2&#45;&gt;1564 -->
<g id="edge6" class="edge">
<title>&#45;2&#45;&gt;1564</title>
<path fill="none" stroke="#00ff00" stroke-width=".4957" d="M24.3552,-240.159C27.1752,-238.9628 30.1741,-237.7431 33,-236.6934 87.7556,-216.354 152.817,-196.6888 191.4118,-185.4806"/>
<polygon fill="#00ff00" stroke="#00ff00" stroke-width=".4957" points="192.4614,-188.8206 201.0981,-182.684 190.5197,-182.0952 192.4614,-188.8206"/>
</g>
<!-- &#45;2&#45;&gt;1566 -->
<g id="edge7" class="edge">
<title>&#45;2&#45;&gt;1566</title>
<path fill="none" stroke="#ff0000" stroke-width=".2705" d="M24.2513,-239.8438C27.0767,-238.664 30.104,-237.5307 33,-236.6934 130.7095,-208.4455 165.3467,-240.369 259,-200.6934 260.8298,-199.9182 262.6507,-199.0203 264.4431,-198.0353"/>
<polygon fill="#ff0000" stroke="#ff0000" stroke-width=".2705" points="266.5128,-200.8671 273.0769,-192.5507 262.7593,-194.9585 266.5128,-200.8671"/>
</g>
<!-- &#45;3 -->
<g id="node3" class="node">
<title>&#45;3</title>
<polygon fill="#d3d3d3" stroke="#000000" points="466,-254.6934 442,-254.6934 442,-236.6934 466,-236.6934 466,-254.6934"/>
<text text-anchor="middle" x="454" y="-243.4934" font-family="Times,serif" font-size="9.00" fill="#000000">&#45;3</text>
</g>
<!-- &#45;3&#45;&gt;1562 -->
<g id="edge8" class="edge">
<title>&#45;3&#45;&gt;1562</title>
<path fill="none" stroke="#00ff00" stroke-width=".5" stroke-dasharray="1,5" d="M463.9321,-236.4341C472.1693,-228.0231 483.2684,-214.8047 488,-200.6934 494.9936,-179.8358 499.9191,-169.6861 488,-151.196 466.2089,-117.3911 420.5297,-102.189 388.5923,-95.4945"/>
<polygon fill="#00ff00" stroke="#00ff00" stroke-width=".5" points="389.2339,-92.0538 378.7535,-93.607 387.915,-98.9284 389.2339,-92.0538"/>
</g>
<!-- &#45;3&#45;&gt;1564 -->
<g id="edge9" class="edge">
<title>&#45;3&#45;&gt;1564</title>
<path fill="none" stroke="#00ff00" stroke-width=".3276" stroke-dasharray="1,5" d="M441.5799,-240.1471C438.4902,-238.8972 435.1576,-237.657 432,-236.6934 356.4671,-213.6451 329.9865,-233.1647 258,-200.6934 256.1885,-199.8763 254.382,-198.9455 252.6006,-197.9353"/>
<polygon fill="#00ff00" stroke="#00ff00" stroke-width=".3276" points="254.2969,-194.8645 243.9972,-192.3812 250.5003,-200.7454 254.2969,-194.8645"/>
</g>
<!-- &#45;3&#45;&gt;1566 -->
<g id="edge10" class="edge">
<title>&#45;3&#45;&gt;1566</title>
<path fill="none" stroke="#ff0000" stroke-width=".1664" stroke-dasharray="1,5" d="M441.8237,-240.4509C417.1391,-229.8231 360.4843,-205.4305 324.3495,-189.8727"/>
<polygon fill="#ff0000" stroke="#ff0000" stroke-width=".1664" points="325.3144,-186.4775 314.7454,-185.7377 322.5462,-192.907 325.3144,-186.4775"/>
</g>
<!-- &#45;3&#45;&gt;1567 -->
<g id="edge11" class="edge">
<title>&#45;3&#45;&gt;1567</title>
<path fill="none" stroke="#00ff00" stroke-width=".1743" d="M451.6468,-236.575C449.86,-229.6513 447.2835,-219.6676 444.7353,-209.7935"/>
<polygon fill="#00ff00" stroke="#00ff00" stroke-width=".1743" points="448.1147,-208.8816 442.2269,-200.0734 441.3368,-210.6308 448.1147,-208.8816"/>
</g>
<!-- &#45;4 -->
<g id="node4" class="node">
<title>&#45;4</title>
<polygon fill="#d3d3d3" stroke="#000000" points="645,-254.6934 621,-254.6934 621,-236.6934 645,-236.6934 645,-254.6934"/>
<text text-anchor="middle" x="633" y="-243.4934" font-family="Times,serif" font-size="9.00" fill="#000000">&#45;4</text>
</g>
<!-- &#45;4&#45;&gt;1562 -->
<g id="edge12" class="edge">
<title>&#45;4&#45;&gt;1562</title>
<path fill="none" stroke="#ff0000" stroke-width=".3571" stroke-dasharray="1,5" d="M630.4117,-236.5749C624.5568,-217.6436 608.4599,-173.9502 579,-151.196 549.2179,-128.1928 443.9248,-106.5453 388.5782,-96.4282"/>
<polygon fill="#ff0000" stroke="#ff0000" stroke-width=".3571" points="388.9952,-92.947 378.5331,-94.6185 387.754,-99.8361 388.9952,-92.947"/>
</g>
<!-- &#45;4&#45;&gt;1564 -->
<g id="edge13" class="edge">
<title>&#45;4&#45;&gt;1564</title>
<path fill="none" stroke="#00ff00" stroke-width=".1148" d="M620.7822,-239.7218C617.955,-238.5483 614.9185,-237.4484 612,-236.6934 458.8943,-197.09 405.3044,-258.2364 258,-200.6934 256.0989,-199.9508 254.2121,-199.0668 252.36,-198.0821"/>
<polygon fill="#00ff00" stroke="#00ff00" stroke-width=".1148" points="253.8127,-194.8615 243.4827,-192.5077 250.0902,-200.7896 253.8127,-194.8615"/>
</g>
<!-- &#45;4&#45;&gt;1566 -->
<g id="edge14" class="edge">
<title>&#45;4&#45;&gt;1566</title>
<path fill="none" stroke="#00ff00" stroke-width=".4572" d="M620.7413,-239.8692C617.9163,-238.688 614.891,-237.5478 612,-236.6934 521.1874,-209.8572 494.8902,-219.0924 402,-200.6934 376.5879,-195.66 348.0522,-189.2166 326.4139,-184.1662"/>
<polygon fill="#00ff00" stroke="#00ff00" stroke-width=".4572" points="326.925,-180.6911 316.3895,-181.8111 325.324,-187.5055 326.925,-180.6911"/>
</g>
<!-- &#45;4&#45;&gt;1567 -->
<g id="edge15" class="edge">
<title>&#45;4&#45;&gt;1567</title>
<path fill="none" stroke="#ff0000" stroke-width=".3755" d="M620.6243,-240.2132C617.8053,-239.0142 614.8121,-237.7797 612,-236.6934 563.0125,-217.7704 505.3191,-198.3991 469.6991,-186.7696"/>
<polygon fill="#ff0000" stroke="#ff0000" stroke-width=".3755" points="470.4177,-183.323 459.8256,-183.5599 468.2536,-189.9801 470.4177,-183.323"/>
</g>
<!-- &#45;5 -->
<g id="node5" class="node">
<title>&#45;5</title>
<polygon fill="#d3d3d3" stroke="#000000" points="66,-254.6934 42,-254.6934 42,-236.6934 66,-236.6934 66,-254.6934"/>
<text text-anchor="middle" x="54" y="-243.4934" font-family="Times,serif" font-size="9.00" fill="#000000">&#45;5</text>
</g>
<!-- &#45;5&#45;&gt;1562 -->
<g id="edge16" class="edge">
<title>&#45;5&#45;&gt;1562</title>
<path fill="none" stroke="#00ff00" stroke-width=".3985" d="M55.839,-236.532C60.1517,-217.5193 72.7621,-173.6806 101,-151.196 134.6559,-124.3972 258.2963,-103.846 319.3797,-95.0819"/>
<polygon fill="#00ff00" stroke="#00ff00" stroke-width=".3985" points="319.9098,-98.5418 329.3234,-93.6802 318.9327,-91.6104 319.9098,-98.5418"/>
</g>
<!-- &#45;5&#45;&gt;1564 -->
<g id="edge17" class="edge">
<title>&#45;5&#45;&gt;1564</title>
<path fill="none" stroke="#ff0000" stroke-width=".5" stroke-dasharray="1,5" d="M66.4194,-240.322C69.2361,-239.1173 72.2174,-237.853 75,-236.6934 115.1933,-219.9436 161.6961,-201.2098 192.1382,-189.033"/>
<polygon fill="#ff0000" stroke="#ff0000" stroke-width=".5" points="193.8263,-192.1276 201.814,-185.1672 191.2292,-185.6272 193.8263,-192.1276"/>
</g>
<!-- &#45;5&#45;&gt;1566 -->
<g id="edge18" class="edge">
<title>&#45;5&#45;&gt;1566</title>
<path fill="none" stroke="#00ff00" stroke-width=".5" stroke-dasharray="1,5" d="M66.2738,-239.9193C69.0981,-238.7356 72.1192,-237.5816 75,-236.6934 154.6299,-212.1437 182.8577,-234.5454 259,-200.6934 260.8159,-199.8861 262.6259,-198.963 264.4099,-197.9587"/>
<polygon fill="#00ff00" stroke="#00ff00" stroke-width=".5" points="266.5031,-200.7739 273.0205,-192.4208 262.7166,-194.8864 266.5031,-200.7739"/>
</g>
<!-- &#45;5&#45;&gt;1567 -->
<g id="edge19" class="edge">
<title>&#45;5&#45;&gt;1567</title>
<path fill="none" stroke="#00ff00" stroke-width=".1173" stroke-dasharray="1,5" d="M66.2418,-239.8105C69.0677,-238.6324 72.0976,-237.5082 75,-236.6934 183.5031,-206.2348 215.1618,-221.0779 326,-200.6934 351.4785,-196.0076 380.012,-189.5524 401.6325,-184.4095"/>
<polygon fill="#00ff00" stroke="#00ff00" stroke-width=".1173" points="402.7414,-187.7428 411.6473,-182.0038 401.1063,-180.9364 402.7414,-187.7428"/>
</g>
<!-- &#45;6 -->
<g id="node6" class="node">
<title>&#45;6</title>
<polygon fill="#d3d3d3" stroke="#000000" points="108,-254.6934 84,-254.6934 84,-236.6934 108,-236.6934 108,-254.6934"/>
<text text-anchor="middle" x="96" y="-243.4934" font-family="Times,serif" font-size="9.00" fill="#000000">&#45;6</text>
</g>
<!-- &#45;6&#45;&gt;1562 -->
<g id="edge20" class="edge">
<title>&#45;6&#45;&gt;1562</title>
<path fill="none" stroke="#00ff00" stroke-width=".2891" d="M96.8794,-236.6494C99.199,-217.8591 107.204,-174.4177 133,-151.196 160.4357,-126.4982 264.1926,-105.6899 319.2277,-96.1068"/>
<polygon fill="#00ff00" stroke="#00ff00" stroke-width=".2891" points="319.9615,-99.5322 329.2279,-94.3957 318.7809,-92.6324 319.9615,-99.5322"/>
</g>
<!-- &#45;6&#45;&gt;1564 -->
<g id="edge21" class="edge">
<title>&#45;6&#45;&gt;1564</title>
<path fill="none" stroke="#ff0000" stroke-width=".5" d="M108.3691,-239.0056C127.9724,-228.4063 166.7649,-207.4317 194.219,-192.5876"/>
<polygon fill="#ff0000" stroke="#ff0000" stroke-width=".5" points="195.9188,-195.6474 203.0507,-187.8124 192.5895,-189.4899 195.9188,-195.6474"/>
</g>
<!-- &#45;6&#45;&gt;1566 -->
<g id="edge22" class="edge">
<title>&#45;6&#45;&gt;1566</title>
<path fill="none" stroke="#00ff00" stroke-width=".3724" d="M108.3117,-240.0365C111.134,-238.8467 114.1448,-237.6606 117,-236.6934 178.6662,-215.8058 200.2579,-228.7715 259,-200.6934 260.793,-199.8364 262.585,-198.8744 264.3552,-197.8402"/>
<polygon fill="#00ff00" stroke="#00ff00" stroke-width=".3724" points="266.4839,-200.6298 272.9279,-192.2198 262.6459,-194.7757 266.4839,-200.6298"/>
</g>
<!-- &#45;6&#45;&gt;1567 -->
<g id="edge23" class="edge">
<title>&#45;6&#45;&gt;1567</title>
<path fill="none" stroke="#00ff00" stroke-width=".1517" d="M108.2592,-239.8709C111.0842,-238.6897 114.1094,-237.5489 117,-236.6934 207.3819,-209.9453 233.5468,-219.0441 326,-200.6934 351.4101,-195.6499 379.9459,-189.2068 401.5846,-184.1591"/>
<polygon fill="#00ff00" stroke="#00ff00" stroke-width=".1517" points="402.6741,-187.4986 411.6094,-181.8055 401.0741,-180.6839 402.6741,-187.4986"/>
</g>
<!-- &#45;7 -->
<g id="node7" class="node">
<title>&#45;7</title>
<polygon fill="#d3d3d3" stroke="#000000" points="150,-254.6934 126,-254.6934 126,-236.6934 150,-236.6934 150,-254.6934"/>
<text text-anchor="middle" x="138" y="-243.4934" font-family="Times,serif" font-size="9.00" fill="#000000">&#45;7</text>
</g>
<!-- &#45;7&#45;&gt;1562 -->
<g id="edge24" class="edge">
<title>&#45;7&#45;&gt;1562</title>
<path fill="none" stroke="#00ff00" stroke-width=".5" stroke-dasharray="1,5" d="M136.7883,-236.5795C134.8648,-218.039 133.3037,-175.6234 155,-151.196 176.8809,-126.5607 268.6347,-106.1866 319.5635,-96.511"/>
<polygon fill="#00ff00" stroke="#00ff00" stroke-width=".5" points="320.2818,-99.9375 329.472,-94.6657 319.0002,-93.0558 320.2818,-99.9375"/>
</g>
<!-- &#45;7&#45;&gt;1564 -->
<g id="edge25" class="edge">
<title>&#45;7&#45;&gt;1564</title>
<path fill="none" stroke="#00ff00" stroke-width=".372" d="M149.3737,-236.575C161.5327,-226.8271 181.2578,-211.0133 197.5146,-197.98"/>
<polygon fill="#00ff00" stroke="#00ff00" stroke-width=".372" points="200.0283,-200.4507 205.6412,-191.4648 195.6497,-194.9892 200.0283,-200.4507"/>
</g>
<!-- &#45;7&#45;&gt;1566 -->
<g id="edge26" class="edge">
<title>&#45;7&#45;&gt;1566</title>
<path fill="none" stroke="#ff0000" stroke-width=".1874" d="M150.3864,-240.2407C153.2049,-239.0402 156.1952,-237.7982 159,-236.6934 202.9503,-219.3821 217.4223,-223.1123 259,-200.6934 260.7492,-199.7503 262.5069,-198.7208 264.2508,-197.6347"/>
<polygon fill="#ff0000" stroke="#ff0000" stroke-width=".1874" points="266.4381,-200.3804 272.7508,-191.8715 262.5098,-194.5866 266.4381,-200.3804"/>
</g>
<!-- &#45;7&#45;&gt;1567 -->
<g id="edge27" class="edge">
<title>&#45;7&#45;&gt;1567</title>
<path fill="none" stroke="#ff0000" stroke-width=".3134" d="M150.2866,-239.9601C153.1102,-238.7742 156.1278,-237.6091 159,-236.6934 231.3402,-213.632 251.8504,-217.0267 326,-200.6934 351.2993,-195.1207 379.8388,-188.6955 401.5071,-183.7887"/>
<polygon fill="#ff0000" stroke="#ff0000" stroke-width=".3134" points="402.5694,-187.1368 411.5479,-181.5122 401.0215,-180.31 402.5694,-187.1368"/>
</g>
<!-- &#45;8 -->
<g id="node8" class="node">
<title>&#45;8</title>
<polygon fill="#d3d3d3" stroke="#000000" points="192,-254.6934 168,-254.6934 168,-236.6934 192,-236.6934 192,-254.6934"/>
<text text-anchor="middle" x="180" y="-243.4934" font-family="Times,serif" font-size="9.00" fill="#000000">&#45;8</text>
</g>
<!-- &#45;8&#45;&gt;1562 -->
<g id="edge28" class="edge">
<title>&#45;8&#45;&gt;1562</title>
<path fill="none" stroke="#00ff00" stroke-width=".3108" d="M174.9042,-236.6042C165.4968,-218.4749 148.0182,-177.3207 167,-151.196 185.1238,-126.2521 270.7882,-106.2616 319.646,-96.6548"/>
<polygon fill="#00ff00" stroke="#00ff00" stroke-width=".3108" points="320.3165,-100.0901 329.4755,-94.7644 318.9944,-93.216 320.3165,-100.0901"/>
</g>
<!-- &#45;8&#45;&gt;1564 -->
<g id="edge29" class="edge">
<title>&#45;8&#45;&gt;1564</title>
<path fill="none" stroke="#ff0000" stroke-width=".5" d="M185.883,-236.575C190.9961,-228.6497 198.6962,-216.7149 205.9158,-205.5246"/>
<polygon fill="#ff0000" stroke="#ff0000" stroke-width=".5" points="209.0639,-207.1012 211.5442,-196.8007 203.1818,-203.3062 209.0639,-207.1012"/>
</g>
<!-- &#45;8&#45;&gt;1566 -->
<g id="edge30" class="edge">
<title>&#45;8&#45;&gt;1566</title>
<path fill="none" stroke="#ff0000" stroke-width=".3468" d="M192.0555,-239.4374C207.7928,-231.1338 236.0363,-215.7592 259,-200.6934 260.6616,-199.6033 262.3507,-198.4587 264.0419,-197.2843"/>
<polygon fill="#ff0000" stroke="#ff0000" stroke-width=".3468" points="266.3206,-199.9567 272.3966,-191.2773 262.2342,-194.2733 266.3206,-199.9567"/>
</g>
<!-- &#45;8&#45;&gt;1567 -->
<g id="edge31" class="edge">
<title>&#45;8&#45;&gt;1567</title>
<path fill="none" stroke="#ff0000" stroke-width=".4326" d="M192.3151,-240.0464C195.1372,-238.8561 198.147,-237.6672 201,-236.6934 271.0745,-212.7749 355.6645,-193.0713 401.8315,-183.0648"/>
<polygon fill="#ff0000" stroke="#ff0000" stroke-width=".4326" points="402.5812,-186.4837 411.6241,-180.9632 401.1123,-179.6395 402.5812,-186.4837"/>
</g>
<!-- &#45;9 -->
<g id="node9" class="node">
<title>&#45;9</title>
<polygon fill="#d3d3d3" stroke="#000000" points="376,-254.6934 352,-254.6934 352,-236.6934 376,-236.6934 376,-254.6934"/>
<text text-anchor="middle" x="364" y="-243.4934" font-family="Times,serif" font-size="9.00" fill="#000000">&#45;9</text>
</g>
<!-- &#45;9&#45;&gt;1562 -->
<g id="edge32" class="edge">
<title>&#45;9&#45;&gt;1562</title>
<path fill="none" stroke="#ff0000" stroke-width=".2091" d="M363.6059,-236.5658C362.8579,-219.6969 361.1162,-182.5035 359,-151.196 358.4317,-142.789 357.7333,-133.7347 357.0405,-125.2492"/>
<polygon fill="#ff0000" stroke="#ff0000" stroke-width=".2091" points="360.5267,-124.9369 356.2076,-115.2624 353.551,-125.5188 360.5267,-124.9369"/>
</g>
<!-- &#45;9&#45;&gt;1564 -->
<g id="edge33" class="edge">
<title>&#45;9&#45;&gt;1564</title>
<path fill="none" stroke="#00ff00" stroke-width=".1955" d="M351.857,-240.7324C325.8902,-230.0956 266.6193,-205.6569 258,-200.6934 256.2779,-199.7017 254.5413,-198.6342 252.8137,-197.519"/>
<polygon fill="#00ff00" stroke="#00ff00" stroke-width=".1955" points="254.575,-194.4817 244.3586,-191.6753 250.595,-200.2402 254.575,-194.4817"/>
</g>
<!-- &#45;9&#45;&gt;1566 -->
<g id="edge34" class="edge">
<title>&#45;9&#45;&gt;1566</title>
<path fill="none" stroke="#00ff00" stroke-width=".5" d="M354.5873,-236.575C345.1554,-227.4381 330.2223,-212.9719 317.3081,-200.4614"/>
<polygon fill="#00ff00" stroke="#00ff00" stroke-width=".5" points="319.6123,-197.8206 309.9945,-193.3766 314.7417,-202.8483 319.6123,-197.8206"/>
</g>
<!-- &#45;9&#45;&gt;1567 -->
<g id="edge35" class="edge">
<title>&#45;9&#45;&gt;1567</title>
<path fill="none" stroke="#ff0000" stroke-width=".2707" d="M373.4127,-236.575C382.8446,-227.4381 397.7777,-212.9719 410.6919,-200.4614"/>
<polygon fill="#ff0000" stroke="#ff0000" stroke-width=".2707" points="413.2583,-202.8483 418.0055,-193.3766 408.3877,-197.8206 413.2583,-202.8483"/>
</g>
<!-- &#45;10 -->
<g id="node10" class="node">
<title>&#45;10</title>
<polygon fill="#d3d3d3" stroke="#000000" points="333.5,-254.6934 304.5,-254.6934 304.5,-236.6934 333.5,-236.6934 333.5,-254.6934"/>
<text text-anchor="middle" x="319" y="-243.4934" font-family="Times,serif" font-size="9.00" fill="#000000">&#45;10</text>
</g>
<!-- &#45;10&#45;&gt;1562 -->
<g id="edge36" class="edge">
<title>&#45;10&#45;&gt;1562</title>
<path fill="none" stroke="#ff0000" stroke-width=".3393" d="M321.0846,-236.447C325.9333,-214.9399 338.1721,-160.6538 346.2818,-124.682"/>
<polygon fill="#ff0000" stroke="#ff0000" stroke-width=".3393" points="349.7666,-125.1388 348.5517,-114.6139 342.938,-123.5993 349.7666,-125.1388"/>
</g>
<!-- &#45;10&#45;&gt;1564 -->
<g id="edge37" class="edge">
<title>&#45;10&#45;&gt;1564</title>
<path fill="none" stroke="#00ff00" stroke-width=".1928" d="M306.3611,-236.4145C294.0097,-227.336 274.6838,-213.1031 258,-200.6934 256.4055,-199.5074 254.7689,-198.2877 253.118,-197.0555"/>
<polygon fill="#00ff00" stroke="#00ff00" stroke-width=".1928" points="254.9787,-194.0765 244.8745,-190.8895 250.7859,-199.6819 254.9787,-194.0765"/>
</g>
<!-- &#45;10&#45;&gt;1566 -->
<g id="edge38" class="edge">
<title>&#45;10&#45;&gt;1566</title>
<path fill="none" stroke="#ff0000" stroke-width=".1606" d="M315.4702,-236.575C312.6971,-229.4113 308.6559,-218.9717 304.7057,-208.7671"/>
<polygon fill="#ff0000" stroke="#ff0000" stroke-width=".1606" points="307.8647,-207.2322 300.9906,-199.17 301.3367,-209.7592 307.8647,-207.2322"/>
</g>
<!-- &#45;10&#45;&gt;1567 -->
<g id="edge39" class="edge">
<title>&#45;10&#45;&gt;1567</title>
<path fill="none" stroke="#ff0000" stroke-width=".5" d="M333.8181,-236.8597C351.8406,-226.1158 382.7139,-207.7108 405.8193,-193.9367"/>
<polygon fill="#ff0000" stroke="#ff0000" stroke-width=".5" points="407.7644,-196.852 414.5617,-188.725 404.1799,-190.8393 407.7644,-196.852"/>
</g>
<!-- &#45;11 -->
<g id="node11" class="node">
<title>&#45;11</title>
<polygon fill="#d3d3d3" stroke="#000000" points="560.5,-254.6934 531.5,-254.6934 531.5,-236.6934 560.5,-236.6934 560.5,-254.6934"/>
<text text-anchor="middle" x="546" y="-243.4934" font-family="Times,serif" font-size="9.00" fill="#000000">&#45;11</text>
</g>
<!-- &#45;11&#45;&gt;1562 -->
<g id="edge40" class="edge">
<title>&#45;11&#45;&gt;1562</title>
<path fill="none" stroke="#ff0000" stroke-width=".2173" d="M546.6759,-236.6204C547.5381,-218.1555 546.8204,-175.8719 525,-151.196 490.1853,-111.8252 428.1334,-97.9695 389.1242,-93.0939"/>
<polygon fill="#ff0000" stroke="#ff0000" stroke-width=".2173" points="389.1,-89.5697 378.7745,-91.9431 388.3264,-96.5268 389.1,-89.5697"/>
</g>
<!-- &#45;11&#45;&gt;1564 -->
<g id="edge41" class="edge">
<title>&#45;11&#45;&gt;1564</title>
<path fill="none" stroke="#ff0000" stroke-width=".3152" d="M531.4421,-239.6435C528.3642,-238.5321 525.1066,-237.4773 522,-236.6934 407.1791,-207.7233 367.5494,-245.6605 258,-200.6934 256.1119,-199.9184 254.2352,-199.0092 252.3907,-198.0053"/>
<polygon fill="#ff0000" stroke="#ff0000" stroke-width=".3152" points="253.8517,-194.787 243.5339,-192.3796 250.0985,-200.6957 253.8517,-194.787"/>
</g>
<!-- &#45;11&#45;&gt;1566 -->
<g id="edge42" class="edge">
<title>&#45;11&#45;&gt;1566</title>
<path fill="none" stroke="#00ff00" stroke-width=".1912" d="M531.3586,-239.9364C528.2868,-238.8038 525.0527,-237.6663 522,-236.6934 453.3678,-214.8222 371.494,-194.5548 326.2791,-183.8579"/>
<polygon fill="#00ff00" stroke="#00ff00" stroke-width=".1912" points="326.9396,-180.4179 316.404,-181.5362 325.3375,-187.2321 326.9396,-180.4179"/>
</g>
<!-- &#45;11&#45;&gt;1567 -->
<g id="edge43" class="edge">
<title>&#45;11&#45;&gt;1567</title>
<path fill="none" stroke="#ff0000" stroke-width=".2067" d="M531.6194,-236.575C515.0076,-226.0418 487.2261,-208.4261 465.877,-194.8891"/>
<polygon fill="#ff0000" stroke="#ff0000" stroke-width=".2067" points="467.4921,-191.7689 457.1725,-189.3697 463.7436,-197.6807 467.4921,-191.7689"/>
</g>
<!-- &#45;12 -->
<g id="node12" class="node">
<title>&#45;12</title>
<polygon fill="#d3d3d3" stroke="#000000" points="239.5,-254.6934 210.5,-254.6934 210.5,-236.6934 239.5,-236.6934 239.5,-254.6934"/>
<text text-anchor="middle" x="225" y="-243.4934" font-family="Times,serif" font-size="9.00" fill="#000000">&#45;12</text>
</g>
<!-- &#45;12&#45;&gt;1562 -->
<g id="edge44" class="edge">
<title>&#45;12&#45;&gt;1562</title>
<path fill="none" stroke="#ff0000" stroke-width=".133" d="M210.77,-236.5616C199.7841,-228.5932 185.4113,-215.9344 179,-200.6934 170.4699,-180.4157 166.2477,-169.1216 179,-151.196 195.5954,-127.8683 273.7471,-107.6059 319.8101,-97.4277"/>
<polygon fill="#ff0000" stroke="#ff0000" stroke-width=".133" points="320.6365,-100.83 329.6702,-95.2945 319.1562,-93.9883 320.6365,-100.83"/>
</g>
<!-- &#45;12&#45;&gt;1564 -->
<g id="edge45" class="edge">
<title>&#45;12&#45;&gt;1564</title>
<path fill="none" stroke="#00ff00" stroke-width=".5" d="M225,-236.575C225,-229.9583 225,-220.5468 225,-211.1071"/>
<polygon fill="#00ff00" stroke="#00ff00" stroke-width=".5" points="228.5001,-210.9839 225,-200.984 221.5001,-210.984 228.5001,-210.9839"/>
</g>
<!-- &#45;12&#45;&gt;1566 -->
<g id="edge46" class="edge">
<title>&#45;12&#45;&gt;1566</title>
<path fill="none" stroke="#ff0000" stroke-width=".1776" d="M233.7591,-236.575C242.3364,-227.6458 255.8029,-213.6269 267.627,-201.3176"/>
<polygon fill="#ff0000" stroke="#ff0000" stroke-width=".1776" points="270.3152,-203.5715 274.7186,-193.9351 265.2669,-198.7222 270.3152,-203.5715"/>
</g>
<!-- &#45;12&#45;&gt;1567 -->
<g id="edge47" class="edge">
<title>&#45;12&#45;&gt;1567</title>
<path fill="none" stroke="#ff0000" stroke-width=".2862" d="M239.5507,-239.8466C242.3438,-238.7678 245.2539,-237.6734 248,-236.6934 301.4476,-217.6207 364.3331,-197.8276 402.1344,-186.2112"/>
<polygon fill="#ff0000" stroke="#ff0000" stroke-width=".2862" points="403.5654,-189.4335 412.1025,-183.1591 401.5159,-182.7403 403.5654,-189.4335"/>
</g>
<!-- &#45;13 -->
<g id="node13" class="node">
<title>&#45;13</title>
<polygon fill="#d3d3d3" stroke="#000000" points="286.5,-254.6934 257.5,-254.6934 257.5,-236.6934 286.5,-236.6934 286.5,-254.6934"/>
<text text-anchor="middle" x="272" y="-243.4934" font-family="Times,serif" font-size="9.00" fill="#000000">&#45;13</text>
</g>
<!-- &#45;13&#45;&gt;1562 -->
<g id="edge48" class="edge">
<title>&#45;13&#45;&gt;1562</title>
<path fill="none" stroke="#00ff00" stroke-width=".1842" d="M257.4694,-239.7497C236.2319,-230.7321 198.4239,-213.3104 191,-200.6934 179.8438,-181.7332 178.4512,-169.2647 191,-151.196 206.0712,-129.4952 276.6866,-109.0798 319.8782,-98.3303"/>
<polygon fill="#00ff00" stroke="#00ff00" stroke-width=".1842" points="320.8089,-101.7059 329.6945,-95.9356 319.1499,-94.9054 320.8089,-101.7059"/>
</g>
<!-- &#45;13&#45;&gt;1564 -->
<g id="edge49" class="edge">
<title>&#45;13&#45;&gt;1564</title>
<path fill="none" stroke="#ff0000" stroke-width=".31" d="M265.8556,-236.575C260.4226,-228.5124 252.1934,-216.3001 244.5409,-204.9437"/>
<polygon fill="#ff0000" stroke="#ff0000" stroke-width=".31" points="247.348,-202.8461 238.8573,-196.5091 241.5429,-206.7579 247.348,-202.8461"/>
</g>
<!-- &#45;13&#45;&gt;1566 -->
<g id="edge50" class="edge">
<title>&#45;13&#45;&gt;1566</title>
<path fill="none" stroke="#00ff00" stroke-width=".1485" d="M274.6147,-236.575C276.6158,-229.5959 279.5086,-219.5076 282.362,-209.5565"/>
<polygon fill="#00ff00" stroke="#00ff00" stroke-width=".1485" points="285.7758,-210.3488 285.1678,-199.7714 279.047,-208.4193 285.7758,-210.3488"/>
</g>
<!-- &#45;13&#45;&gt;1567 -->
<g id="edge51" class="edge">
<title>&#45;13&#45;&gt;1567</title>
<path fill="none" stroke="#00ff00" stroke-width=".2552" d="M286.5539,-239.5037C312.7082,-228.3803 368.2342,-204.7653 403.7476,-189.6616"/>
<polygon fill="#00ff00" stroke="#00ff00" stroke-width=".2552" points="405.36,-192.7793 413.1925,-185.6447 402.6203,-186.3376 405.36,-192.7793"/>
</g>
<!-- &#45;14 -->
<g id="node14" class="node">
<title>&#45;14</title>
<polygon fill="#d3d3d3" stroke="#000000" points="513.5,-254.6934 484.5,-254.6934 484.5,-236.6934 513.5,-236.6934 513.5,-254.6934"/>
<text text-anchor="middle" x="499" y="-243.4934" font-family="Times,serif" font-size="9.00" fill="#000000">&#45;14</text>
</g>
<!-- &#45;14&#45;&gt;1562 -->
<g id="edge52" class="edge">
<title>&#45;14&#45;&gt;1562</title>
<path fill="none" stroke="#00ff00" stroke-width=".2938" d="M503.0669,-236.6785C510.511,-218.6828 523.9883,-177.7569 506,-151.196 479.9655,-112.7542 425.2554,-98.6366 389.0728,-93.4531"/>
<polygon fill="#00ff00" stroke="#00ff00" stroke-width=".2938" points="389.3067,-89.9547 378.9448,-92.1644 388.4231,-96.8987 389.3067,-89.9547"/>
</g>
<!-- &#45;14&#45;&gt;1564 -->
<g id="edge53" class="edge">
<title>&#45;14&#45;&gt;1564</title>
<path fill="none" stroke="#00ff00" stroke-width=".5" d="M484.4241,-239.7129C481.3475,-238.5965 478.095,-237.522 475,-236.6934 380.5632,-211.4108 347.8947,-239.1184 258,-200.6934 256.1727,-199.9124 254.3537,-199.0098 252.5629,-198.0213"/>
<polygon fill="#00ff00" stroke="#00ff00" stroke-width=".5" points="254.2484,-194.9453 243.9332,-192.5269 250.4888,-200.85 254.2484,-194.9453"/>
</g>
<!-- &#45;14&#45;&gt;1566 -->
<g id="edge54" class="edge">
<title>&#45;14&#45;&gt;1566</title>
<path fill="none" stroke="#00ff00" stroke-width=".1583" d="M484.3094,-240.083C481.2411,-238.9398 478.021,-237.7608 475,-236.6934 423.0685,-218.3442 362.2992,-198.488 325.5031,-186.6413"/>
<polygon fill="#00ff00" stroke="#00ff00" stroke-width=".1583" points="326.379,-183.2466 315.7877,-183.5202 324.238,-189.9111 326.379,-183.2466"/>
</g>
<!-- &#45;14&#45;&gt;1567 -->
<g id="edge55" class="edge">
<title>&#45;14&#45;&gt;1567</title>
<path fill="none" stroke="#00ff00" stroke-width=".3969" d="M490.7639,-236.575C482.8841,-227.8512 470.6162,-214.2691 459.6875,-202.1697"/>
<polygon fill="#00ff00" stroke="#00ff00" stroke-width=".3969" points="462.0591,-199.5736 452.7587,-194.4987 456.8644,-204.2657 462.0591,-199.5736"/>
</g>
<!-- &#45;15 -->
<g id="node15" class="node">
<title>&#45;15</title>
<polygon fill="#d3d3d3" stroke="#000000" points="423.5,-254.6934 394.5,-254.6934 394.5,-236.6934 423.5,-236.6934 423.5,-254.6934"/>
<text text-anchor="middle" x="409" y="-243.4934" font-family="Times,serif" font-size="9.00" fill="#000000">&#45;15</text>
</g>
<!-- &#45;15&#45;&gt;1562 -->
<g id="edge56" class="edge">
<title>&#45;15&#45;&gt;1562</title>
<path fill="none" stroke="#ff0000" stroke-width=".5" d="M423.7465,-239.645C438.5153,-232.6895 460.3903,-219.7242 470,-200.6934 479.916,-181.0561 481.3893,-170.0171 470,-151.196 452.467,-122.2222 416.0595,-106.398 388.681,-98.2307"/>
<polygon fill="#ff0000" stroke="#ff0000" stroke-width=".5" points="389.2596,-94.7593 378.6882,-95.464 387.3917,-101.5055 389.2596,-94.7593"/>
</g>
<!-- &#45;15&#45;&gt;1564 -->
<g id="edge57" class="edge">
<title>&#45;15&#45;&gt;1564</title>
<path fill="none" stroke="#ff0000" stroke-width=".353" stroke-dasharray="1,5" d="M394.3448,-239.9789C391.274,-238.8432 388.0439,-237.6937 385,-236.6934 329.2639,-218.3779 310.5739,-226.7311 258,-200.6934 256.2192,-199.8115 254.4367,-198.8299 252.6738,-197.7807"/>
<polygon fill="#ff0000" stroke="#ff0000" stroke-width=".353" points="254.3917,-194.7206 244.1212,-192.1189 250.5277,-200.5575 254.3917,-194.7206"/>
</g>
<!-- &#45;15&#45;&gt;1566 -->
<g id="edge58" class="edge">
<title>&#45;15&#45;&gt;1566</title>
<path fill="none" stroke="#00ff00" stroke-width=".1426" d="M394.1819,-236.8597C376.1594,-226.1158 345.2861,-207.7108 322.1807,-193.9367"/>
<polygon fill="#00ff00" stroke="#00ff00" stroke-width=".1426" points="323.8201,-190.8393 313.4383,-188.725 320.2356,-196.852 323.8201,-190.8393"/>
</g>
<!-- &#45;15&#45;&gt;1567 -->
<g id="edge59" class="edge">
<title>&#45;15&#45;&gt;1567</title>
<path fill="none" stroke="#ff0000" stroke-width=".5" d="M412.5298,-236.575C415.3029,-229.4113 419.3441,-218.9717 423.2943,-208.7671"/>
<polygon fill="#ff0000" stroke="#ff0000" stroke-width=".5" points="426.6633,-209.7592 427.0094,-199.17 420.1353,-207.2322 426.6633,-209.7592"/>
</g>
<!-- 0 -->
<g id="node16" class="node">
<title>0</title>
<ellipse fill="#add8e6" stroke="#000000" cx="285" cy="-14.8492" rx="14.7" ry="14.7"/>
<text text-anchor="middle" x="285" y="-12.6492" font-family="Times,serif" font-size="9.00" fill="#000000">0</text>
</g>
<!-- 1 -->
<g id="node17" class="node">
<title>1</title>
<ellipse fill="#add8e6" stroke="#000000" cx="354" cy="-14.8492" rx="14.7" ry="14.7"/>
<text text-anchor="middle" x="354" y="-12.6492" font-family="Times,serif" font-size="9.00" fill="#000000">1</text>
</g>
<!-- 1562&#45;&gt;0 -->
<g id="edge60" class="edge">
<title>1562&#45;&gt;0</title>
<path fill="none" stroke="#ff0000" stroke-width=".3697" d="M337.297,-72.1471C326.6679,-60.5015 312.9351,-45.4556 302.2093,-33.7042"/>
<polygon fill="#ff0000" stroke="#ff0000" stroke-width=".3697" points="304.6659,-31.2038 295.3393,-26.1772 299.4956,-35.9228 304.6659,-31.2038"/>
</g>
<!-- 1562&#45;&gt;1 -->
<g id="edge61" class="edge">
<title>1562&#45;&gt;1</title>
<path fill="none" stroke="#ff0000" stroke-width=".2997" d="M354,-65.6936C354,-57.4298 354,-48.2178 354,-39.9294"/>
<polygon fill="#ff0000" stroke="#ff0000" stroke-width=".2997" points="357.5001,-39.7229 354,-29.7229 350.5001,-39.723 357.5001,-39.7229"/>
</g>
<!-- 1564&#45;&gt;0 -->
<g id="edge62" class="edge">
<title>1564&#45;&gt;0</title>
<path fill="none" stroke="#00ff00" stroke-width=".3013" d="M233.7245,-152.52C245.1128,-121.9434 264.9284,-68.7401 276.303,-38.2"/>
<polygon fill="#00ff00" stroke="#00ff00" stroke-width=".3013" points="279.6021,-39.3699 279.8126,-28.7771 273.0423,-36.9266 279.6021,-39.3699"/>
</g>
<!-- 1566&#45;&gt;0 -->
<g id="edge63" class="edge">
<title>1566&#45;&gt;0</title>
<path fill="none" stroke="#ff0000" stroke-width=".3783" d="M289.6075,-151.1405C288.6371,-140.14 287.6045,-127.0327 287,-115.196 285.6953,-89.6475 285.2293,-60.3998 285.0691,-40.0982"/>
<polygon fill="#ff0000" stroke="#ff0000" stroke-width=".3783" points="288.5675,-39.7994 285.0082,-29.8203 281.5676,-39.8409 288.5675,-39.7994"/>
</g>
<!-- 1566&#45;&gt;1 -->
<g id="edge64" class="edge">
<title>1566&#45;&gt;1</title>
<path fill="none" stroke="#00ff00" stroke-width=".4255" d="M295.8203,-151.0608C299.9082,-128.1765 307.5457,-93.659 320,-65.6985 324.7963,-54.9306 331.8254,-43.9407 338.2494,-34.9456"/>
<polygon fill="#00ff00" stroke="#00ff00" stroke-width=".4255" points="341.2207,-36.8147 344.3665,-26.6977 335.5982,-32.6448 341.2207,-36.8147"/>
</g>
<!-- 1567&#45;&gt;0 -->
<g id="edge65" class="edge">
<title>1567&#45;&gt;0</title>
<path fill="none" stroke="#00ff00" stroke-width=".3058" d="M430.6557,-151.7172C424.1957,-127.3595 411.189,-90.0267 388,-65.6985 376.3484,-53.4744 335.0324,-35.1688 308.4021,-24.1788"/>
<polygon fill="#00ff00" stroke="#00ff00" stroke-width=".3058" points="309.5889,-20.883 299.0074,-20.3528 306.9487,-27.366 309.5889,-20.883"/>
</g>
<!-- 1567&#45;&gt;1 -->
<g id="edge66" class="edge">
<title>1567&#45;&gt;1</title>
<path fill="none" stroke="#ff0000" stroke-width=".1487" d="M437.8649,-150.9847C438.4672,-127.4202 436.2895,-91.8888 421,-65.6985 410.6965,-48.0491 391.6343,-34.4999 376.4694,-25.8426"/>
<polygon fill="#ff0000" stroke="#ff0000" stroke-width=".1487" points="378.1081,-22.7499 367.6439,-21.0915 374.79,-28.9135 378.1081,-22.7499"/>
</g>
<!-- 1567&#45;&gt;1562 -->
<g id="edge67" class="edge">
<title>1567&#45;&gt;1562</title>
<path fill="none" stroke="#00ff00" stroke-width=".5" d="M418.6099,-157.8129C406.9773,-145.6841 391.4982,-129.5448 378.6073,-116.104"/>
<polygon fill="#00ff00" stroke="#00ff00" stroke-width=".5" points="380.813,-113.3474 371.365,-108.5529 375.761,-118.1928 380.813,-113.3474"/>
</g>
</g>
</svg>
