<?xml version="1.0" encoding="UTF-8" standalone="no"?>
<!DOCTYPE svg PUBLIC "-//W3C//DTD SVG 1.1//EN"
 "http://www.w3.org/Graphics/SVG/1.1/DTD/svg11.dtd">
<!-- Generated by graphviz version 2.40.1 (20161225.0304)
 -->
<!-- Title: %3 Pages: 1 -->
<svg width="323pt" height="275pt"
 viewBox="0.00 0.00 322.69 275.42" xmlns="http://www.w3.org/2000/svg" xmlns:xlink="http://www.w3.org/1999/xlink">
<g id="graph0" class="graph" transform="scale(1 1) rotate(0) translate(4 271.4214)">
<title>%3</title>
<polygon fill="#ffffff" stroke="transparent" points="-4,4 -4,-271.4214 318.6907,-271.4214 318.6907,4 -4,4"/>
<!-- &#45;1 -->
<g id="node1" class="node">
<title>&#45;1</title>
<polygon fill="#d3d3d3" stroke="#000000" points="73.942,-267.4214 49.942,-267.4214 49.942,-249.4214 73.942,-249.4214 73.942,-267.4214"/>
<text text-anchor="middle" x="61.942" y="-256.2214" font-family="Times,serif" font-size="9.00" fill="#000000">&#45;1</text>
</g>
<!-- 4768 -->
<g id="node6" class="node">
<title>4768</title>
<ellipse fill="#ffffff" stroke="#000000" cx="86.942" cy="-90.4472" rx="25" ry="25"/>
<text text-anchor="middle" x="86.942" y="-88.2472" font-family="Times,serif" font-size="9.00" fill="#000000">4768</text>
</g>
<!-- &#45;1&#45;&gt;4768 -->
<g id="edge2" class="edge">
<title>&#45;1&#45;&gt;4768</title>
<path fill="none" stroke="#ff0000" stroke-width=".3387" d="M49.5481,-252.124C36.6688,-244.802 17.2559,-231.3868 8.942,-213.4214 -2.6729,-188.3229 -3.2005,-176.0435 8.942,-151.196 18.5434,-131.5483 37.9074,-116.4105 54.9386,-106.1601"/>
<polygon fill="#ff0000" stroke="#ff0000" stroke-width=".3387" points="57.1137,-108.9502 64.0836,-100.9707 53.6589,-102.8621 57.1137,-108.9502"/>
</g>
<!-- 4767 -->
<g id="node11" class="node">
<title>4767</title>
<ellipse fill="#ffffff" stroke="#000000" cx="222.942" cy="-182.3087" rx="25" ry="25"/>
<text text-anchor="middle" x="222.942" y="-180.1087" font-family="Times,serif" font-size="9.00" fill="#000000">4767</text>
</g>
<!-- &#45;1&#45;&gt;4767 -->
<g id="edge1" class="edge">
<title>&#45;1&#45;&gt;4767</title>
<path fill="none" stroke="#ff0000" stroke-width=".5" stroke-dasharray="1,5" d="M73.961,-255.964C97.5293,-250.7772 150.9125,-237.1907 189.942,-213.4214 192.7665,-211.7012 195.5524,-209.708 198.2365,-207.5777"/>
<polygon fill="#ff0000" stroke="#ff0000" stroke-width=".5" points="200.6602,-210.1086 205.9194,-200.9113 196.0725,-204.8215 200.6602,-210.1086"/>
</g>
<!-- &#45;2 -->
<g id="node2" class="node">
<title>&#45;2</title>
<polygon fill="#d3d3d3" stroke="#000000" points="142.942,-267.4214 118.942,-267.4214 118.942,-249.4214 142.942,-249.4214 142.942,-267.4214"/>
<text text-anchor="middle" x="130.942" y="-256.2214" font-family="Times,serif" font-size="9.00" fill="#000000">&#45;2</text>
</g>
<!-- &#45;2&#45;&gt;4768 -->
<g id="edge5" class="edge">
<title>&#45;2&#45;&gt;4768</title>
<path fill="none" stroke="#ff0000" stroke-width=".4364" stroke-dasharray="1,5" d="M118.7269,-256.3871C98.5735,-252.3 58.902,-241.0014 41.942,-213.4214 27.4553,-189.8634 33.2745,-177.4584 41.942,-151.196 46.194,-138.3125 54.3489,-125.9289 62.5617,-115.7419"/>
<polygon fill="#ff0000" stroke="#ff0000" stroke-width=".4364" points="65.2707,-117.9591 69.0871,-108.0755 59.9402,-113.4219 65.2707,-117.9591"/>
</g>
<!-- 145506 -->
<g id="node7" class="node">
<title>145506</title>
<ellipse fill="#ffffff" stroke="#000000" cx="81.942" cy="-182.3087" rx="31.2258" ry="31.2258"/>
<text text-anchor="middle" x="81.942" y="-180.1087" font-family="Times,serif" font-size="9.00" fill="#000000">145506</text>
</g>
<!-- &#45;2&#45;&gt;145506 -->
<g id="edge17" class="edge">
<title>&#45;2&#45;&gt;145506</title>
<path fill="none" stroke="#00ff00" stroke-width=".313" d="M125.1286,-249.3913C119.9472,-241.3429 112.0203,-229.03 104.3657,-217.1399"/>
<polygon fill="#00ff00" stroke="#00ff00" stroke-width=".313" points="107.2393,-215.1376 98.8833,-208.6239 101.3535,-218.9268 107.2393,-215.1376"/>
</g>
<!-- 4766 -->
<g id="node10" class="node">
<title>4766</title>
<ellipse fill="#ffffff" stroke="#000000" cx="289.942" cy="-182.3087" rx="25" ry="25"/>
<text text-anchor="middle" x="289.942" y="-180.1087" font-family="Times,serif" font-size="9.00" fill="#000000">4766</text>
</g>
<!-- &#45;2&#45;&gt;4766 -->
<g id="edge3" class="edge">
<title>&#45;2&#45;&gt;4766</title>
<path fill="none" stroke="#ff0000" stroke-width=".2491" d="M143.1326,-255.8407C166.51,-250.5218 218.7111,-236.8344 256.942,-213.4214 259.7622,-211.6942 262.5453,-209.6963 265.2275,-207.5631"/>
<polygon fill="#ff0000" stroke="#ff0000" stroke-width=".2491" points="267.6531,-210.0922 272.9079,-200.8923 263.0629,-204.8073 267.6531,-210.0922"/>
</g>
<!-- &#45;2&#45;&gt;4767 -->
<g id="edge4" class="edge">
<title>&#45;2&#45;&gt;4767</title>
<path fill="none" stroke="#00ff00" stroke-width=".394" d="M142.9804,-249.81C155.1092,-241.0029 174.2275,-226.7593 189.942,-213.4214 192.4633,-211.2813 195.0456,-209.0061 197.6009,-206.6975"/>
<polygon fill="#00ff00" stroke="#00ff00" stroke-width=".394" points="200.1261,-209.1297 205.0983,-199.7741 195.3771,-203.9871 200.1261,-209.1297"/>
</g>
<!-- &#45;3 -->
<g id="node3" class="node">
<title>&#45;3</title>
<polygon fill="#d3d3d3" stroke="#000000" points="234.942,-267.4214 210.942,-267.4214 210.942,-249.4214 234.942,-249.4214 234.942,-267.4214"/>
<text text-anchor="middle" x="222.942" y="-256.2214" font-family="Times,serif" font-size="9.00" fill="#000000">&#45;3</text>
</g>
<!-- 9111 -->
<g id="node9" class="node">
<title>9111</title>
<ellipse fill="#ffffff" stroke="#000000" cx="155.942" cy="-182.3087" rx="25" ry="25"/>
<text text-anchor="middle" x="155.942" y="-180.1087" font-family="Times,serif" font-size="9.00" fill="#000000">9111</text>
</g>
<!-- &#45;3&#45;&gt;9111 -->
<g id="edge15" class="edge">
<title>&#45;3&#45;&gt;9111</title>
<path fill="none" stroke="#00ff00" stroke-width=".5" d="M214.9931,-249.3913C206.1605,-239.3574 191.4933,-222.6954 178.9869,-208.4879"/>
<polygon fill="#00ff00" stroke="#00ff00" stroke-width=".5" points="181.5465,-206.0986 172.3119,-200.9051 176.2922,-210.7238 181.5465,-206.0986"/>
</g>
<!-- &#45;3&#45;&gt;4766 -->
<g id="edge6" class="edge">
<title>&#45;3&#45;&gt;4766</title>
<path fill="none" stroke="#00ff00" stroke-width=".2323" d="M230.8909,-249.3913C239.7235,-239.3574 254.3906,-222.6954 266.8971,-208.4879"/>
<polygon fill="#00ff00" stroke="#00ff00" stroke-width=".2323" points="269.5917,-210.7238 273.572,-200.9051 264.3374,-206.0986 269.5917,-210.7238"/>
</g>
<!-- &#45;3&#45;&gt;4767 -->
<g id="edge7" class="edge">
<title>&#45;3&#45;&gt;4767</title>
<path fill="none" stroke="#ff0000" stroke-width=".4065" d="M222.942,-249.3913C222.942,-241.4118 222.942,-229.2405 222.942,-217.4454"/>
<polygon fill="#ff0000" stroke="#ff0000" stroke-width=".4065" points="226.4421,-217.2917 222.942,-207.2917 219.4421,-217.2918 226.4421,-217.2917"/>
</g>
<!-- 0 -->
<g id="node4" class="node">
<title>0</title>
<ellipse fill="#add8e6" stroke="#000000" cx="116.942" cy="-14.8492" rx="14.7" ry="14.7"/>
<text text-anchor="middle" x="116.942" y="-12.6492" font-family="Times,serif" font-size="9.00" fill="#000000">0</text>
</g>
<!-- 1 -->
<g id="node5" class="node">
<title>1</title>
<ellipse fill="#add8e6" stroke="#000000" cx="222.942" cy="-14.8492" rx="14.7" ry="14.7"/>
<text text-anchor="middle" x="222.942" y="-12.6492" font-family="Times,serif" font-size="9.00" fill="#000000">1</text>
</g>
<!-- 4768&#45;&gt;0 -->
<g id="edge11" class="edge">
<title>4768&#45;&gt;0</title>
<path fill="none" stroke="#00ff00" stroke-width=".2783" stroke-dasharray="1,5" d="M96.106,-67.3546C99.7504,-58.1708 103.9394,-47.6149 107.6011,-38.3876"/>
<polygon fill="#00ff00" stroke="#00ff00" stroke-width=".2783" points="110.8814,-39.6102 111.3168,-29.0243 104.375,-37.0281 110.8814,-39.6102"/>
</g>
<!-- 4768&#45;&gt;1 -->
<g id="edge12" class="edge">
<title>4768&#45;&gt;1</title>
<path fill="none" stroke="#ff0000" stroke-width=".3636" d="M108.7927,-78.3011C134.0932,-64.2374 175.5319,-41.203 200.9094,-27.0964"/>
<polygon fill="#ff0000" stroke="#ff0000" stroke-width=".3636" points="202.7421,-30.0821 209.782,-22.1644 199.3411,-23.9638 202.7421,-30.0821"/>
</g>
<!-- 145506&#45;&gt;4768 -->
<g id="edge18" class="edge">
<title>145506&#45;&gt;4768</title>
<path fill="none" stroke="#00ff00" stroke-width=".2048" d="M83.6347,-151.2086C84.0859,-142.9196 84.5764,-133.9087 85.038,-125.4269"/>
<polygon fill="#00ff00" stroke="#00ff00" stroke-width=".2048" points="88.5335,-125.6029 85.5823,-115.4274 81.5439,-125.2224 88.5335,-125.6029"/>
</g>
<!-- 9038 -->
<g id="node8" class="node">
<title>9038</title>
<ellipse fill="#ffffff" stroke="#000000" cx="196.942" cy="-90.4472" rx="25" ry="25"/>
<text text-anchor="middle" x="196.942" y="-88.2472" font-family="Times,serif" font-size="9.00" fill="#000000">9038</text>
</g>
<!-- 9038&#45;&gt;1 -->
<g id="edge14" class="edge">
<title>9038&#45;&gt;1</title>
<path fill="none" stroke="#00ff00" stroke-width=".2367" d="M205.026,-66.9419C208.102,-57.9983 211.6085,-47.8025 214.699,-38.8165"/>
<polygon fill="#00ff00" stroke="#00ff00" stroke-width=".2367" points="218.0238,-39.911 217.9664,-29.3163 211.4043,-37.6343 218.0238,-39.911"/>
</g>
<!-- 9111&#45;&gt;4768 -->
<g id="edge16" class="edge">
<title>9111&#45;&gt;4768</title>
<path fill="none" stroke="#00ff00" stroke-width=".5" d="M140.97,-162.3761C131.2952,-149.4958 118.5654,-132.5483 107.8925,-118.3391"/>
<polygon fill="#00ff00" stroke="#00ff00" stroke-width=".5" points="110.689,-116.2345 101.8847,-110.3409 105.0921,-120.4386 110.689,-116.2345"/>
</g>
<!-- 4766&#45;&gt;1 -->
<g id="edge8" class="edge">
<title>4766&#45;&gt;1</title>
<path fill="none" stroke="#00ff00" stroke-width=".1169" d="M281.2496,-158.9694C272.3796,-135.3506 258.0879,-97.8335 244.942,-65.6985 241.1845,-56.5134 236.8824,-46.4728 233.085,-37.7581"/>
<polygon fill="#00ff00" stroke="#00ff00" stroke-width=".1169" points="236.2896,-36.3508 229.0679,-28.5985 229.879,-39.1623 236.2896,-36.3508"/>
</g>
<!-- 4767&#45;&gt;0 -->
<g id="edge9" class="edge">
<title>4767&#45;&gt;0</title>
<path fill="none" stroke="#ff0000" stroke-width=".363" d="M204.804,-165.0085C191.9882,-152.1198 175.0125,-133.633 162.942,-115.196 146.8845,-90.669 133.5926,-59.6249 125.4946,-38.6094"/>
<polygon fill="#ff0000" stroke="#ff0000" stroke-width=".363" points="128.7416,-37.3001 121.947,-29.1708 122.1891,-39.7629 128.7416,-37.3001"/>
</g>
<!-- 4767&#45;&gt;1 -->
<g id="edge10" class="edge">
<title>4767&#45;&gt;1</title>
<path fill="none" stroke="#00ff00" stroke-width=".4262" d="M226.5675,-157.8267C228.267,-145.1375 230.1002,-129.3691 230.942,-115.196 232.2462,-93.2358 232.6567,-87.6304 230.942,-65.6985 230.2661,-57.0536 228.9533,-47.6569 227.5834,-39.3202"/>
<polygon fill="#00ff00" stroke="#00ff00" stroke-width=".4262" points="231.0303,-38.7122 225.8615,-29.4638 224.1348,-39.917 231.0303,-38.7122"/>
</g>
<!-- 4767&#45;&gt;9038 -->
<g id="edge13" class="edge">
<title>4767&#45;&gt;9038</title>
<path fill="none" stroke="#ff0000" stroke-width=".2647" d="M216.1108,-158.1731C213.1849,-147.8356 209.7162,-135.5804 206.5393,-124.3557"/>
<polygon fill="#ff0000" stroke="#ff0000" stroke-width=".2647" points="209.8187,-123.0904 203.7275,-114.4215 203.0833,-124.9968 209.8187,-123.0904"/>
</g>
</g>
</svg>
