<?xml version="1.0" encoding="UTF-8" standalone="no"?>
<!DOCTYPE svg PUBLIC "-//W3C//DTD SVG 1.1//EN"
 "http://www.w3.org/Graphics/SVG/1.1/DTD/svg11.dtd">
<!-- Generated by graphviz version 2.40.1 (20161225.0304)
 -->
<!-- Title: %3 Pages: 1 -->
<svg width="651pt" height="170pt"
 viewBox="0.00 0.00 651.00 170.12" xmlns="http://www.w3.org/2000/svg" xmlns:xlink="http://www.w3.org/1999/xlink">
<g id="graph0" class="graph" transform="scale(1 1) rotate(0) translate(4 166.1249)">
<title>%3</title>
<polygon fill="#ffffff" stroke="transparent" points="-4,4 -4,-166.1249 647,-166.1249 647,4 -4,4"/>
<!-- &#45;1 -->
<g id="node1" class="node">
<title>&#45;1</title>
<polygon fill="#d3d3d3" stroke="#000000" points="433,-162.1249 409,-162.1249 409,-144.1249 433,-144.1249 433,-162.1249"/>
<text text-anchor="middle" x="421" y="-150.9249" font-family="Times,serif" font-size="9.00" fill="#000000">&#45;1</text>
</g>
<!-- 176 -->
<g id="node18" class="node">
<title>176</title>
<ellipse fill="#ffffff" stroke="#000000" cx="358" cy="-86.9117" rx="21.4286" ry="21.4286"/>
<text text-anchor="middle" x="358" y="-84.7117" font-family="Times,serif" font-size="9.00" fill="#000000">176</text>
</g>
<!-- &#45;1&#45;&gt;176 -->
<g id="edge1" class="edge">
<title>&#45;1&#45;&gt;176</title>
<path fill="none" stroke="#00ff00" stroke-width=".3405" stroke-dasharray="1,5" d="M412.2401,-143.9182C403.8642,-135.1152 390.8953,-121.4847 379.739,-109.7594"/>
<polygon fill="#00ff00" stroke="#00ff00" stroke-width=".3405" points="382.1647,-107.2313 372.7359,-102.3992 377.0934,-112.0565 382.1647,-107.2313"/>
</g>
<!-- 177 -->
<g id="node19" class="node">
<title>177</title>
<ellipse fill="#ffffff" stroke="#000000" cx="418" cy="-86.9117" rx="21.4286" ry="21.4286"/>
<text text-anchor="middle" x="418" y="-84.7117" font-family="Times,serif" font-size="9.00" fill="#000000">177</text>
</g>
<!-- &#45;1&#45;&gt;177 -->
<g id="edge2" class="edge">
<title>&#45;1&#45;&gt;177</title>
<path fill="none" stroke="#00ff00" stroke-width=".1087" d="M420.5829,-143.9182C420.2811,-137.2572 419.854,-127.8323 419.4339,-118.5602"/>
<polygon fill="#00ff00" stroke="#00ff00" stroke-width=".1087" points="422.9187,-118.1434 418.9696,-108.3121 415.9259,-118.4603 422.9187,-118.1434"/>
</g>
<!-- 179 -->
<g id="node20" class="node">
<title>179</title>
<ellipse fill="#ffffff" stroke="#000000" cx="238" cy="-86.9117" rx="21.4286" ry="21.4286"/>
<text text-anchor="middle" x="238" y="-84.7117" font-family="Times,serif" font-size="9.00" fill="#000000">179</text>
</g>
<!-- &#45;1&#45;&gt;179 -->
<g id="edge3" class="edge">
<title>&#45;1&#45;&gt;179</title>
<path fill="none" stroke="#ff0000" stroke-width=".3095" d="M408.6753,-147.5059C405.8536,-146.3141 402.8464,-145.1176 400,-144.1249 342.5825,-124.0998 322.9949,-134.0736 268,-108.1249 266.4532,-107.3951 264.9013,-106.5854 263.3624,-105.7206"/>
<polygon fill="#ff0000" stroke="#ff0000" stroke-width=".3095" points="265.1425,-102.7055 254.8156,-100.3376 261.4119,-108.6286 265.1425,-102.7055"/>
</g>
<!-- 181 -->
<g id="node21" class="node">
<title>181</title>
<ellipse fill="#ffffff" stroke="#000000" cx="298" cy="-86.9117" rx="21.4286" ry="21.4286"/>
<text text-anchor="middle" x="298" y="-84.7117" font-family="Times,serif" font-size="9.00" fill="#000000">181</text>
</g>
<!-- &#45;1&#45;&gt;181 -->
<g id="edge4" class="edge">
<title>&#45;1&#45;&gt;181</title>
<path fill="none" stroke="#00ff00" stroke-width=".4949" d="M408.9112,-147.5784C387.2606,-137.5948 342.7528,-116.8298 328,-108.1249 326.527,-107.2557 325.0334,-106.3359 323.5398,-105.3856"/>
<polygon fill="#00ff00" stroke="#00ff00" stroke-width=".4949" points="325.383,-102.4076 315.1269,-99.7498 321.487,-108.2233 325.383,-102.4076"/>
</g>
<!-- &#45;2 -->
<g id="node2" class="node">
<title>&#45;2</title>
<polygon fill="#d3d3d3" stroke="#000000" points="475,-162.1249 451,-162.1249 451,-144.1249 475,-144.1249 475,-162.1249"/>
<text text-anchor="middle" x="463" y="-150.9249" font-family="Times,serif" font-size="9.00" fill="#000000">&#45;2</text>
</g>
<!-- &#45;2&#45;&gt;176 -->
<g id="edge5" class="edge">
<title>&#45;2&#45;&gt;176</title>
<path fill="none" stroke="#ff0000" stroke-width=".2853" stroke-dasharray="1,5" d="M450.8787,-146.2279C435.9062,-137.6231 409.7487,-122.3103 388,-108.1249 386.5674,-107.1905 385.1059,-106.2192 383.6371,-105.2288"/>
<polygon fill="#ff0000" stroke="#ff0000" stroke-width=".2853" points="385.5163,-102.2732 375.2977,-99.4746 381.5407,-108.0347 385.5163,-102.2732"/>
</g>
<!-- &#45;2&#45;&gt;177 -->
<g id="edge6" class="edge">
<title>&#45;2&#45;&gt;177</title>
<path fill="none" stroke="#00ff00" stroke-width=".2563" d="M456.7429,-143.9182C451.293,-135.8991 443.1206,-123.8742 435.6844,-112.9326"/>
<polygon fill="#00ff00" stroke="#00ff00" stroke-width=".2563" points="438.4605,-110.7906 429.9447,-104.4872 432.671,-114.7253 438.4605,-110.7906"/>
</g>
<!-- &#45;2&#45;&gt;179 -->
<g id="edge7" class="edge">
<title>&#45;2&#45;&gt;179</title>
<path fill="none" stroke="#00ff00" stroke-width=".1379" d="M450.719,-147.3739C447.8951,-146.1889 444.8759,-145.0286 442,-144.1249 366.6607,-120.4515 340.434,-139.5853 268,-108.1249 266.4312,-107.4435 264.862,-106.6722 263.3096,-105.8372"/>
<polygon fill="#00ff00" stroke="#00ff00" stroke-width=".1379" points="265.0719,-102.812 254.723,-100.5421 261.3976,-108.7702 265.0719,-102.812"/>
</g>
<!-- &#45;2&#45;&gt;181 -->
<g id="edge8" class="edge">
<title>&#45;2&#45;&gt;181</title>
<path fill="none" stroke="#00ff00" stroke-width=".3922" d="M450.6453,-147.5893C447.8252,-146.3932 444.8262,-145.1738 442,-144.1249 392.1872,-125.6372 375.5939,-131.7455 328,-108.1249 326.468,-107.3645 324.9278,-106.5308 323.3979,-105.6473"/>
<polygon fill="#00ff00" stroke="#00ff00" stroke-width=".3922" points="325.1903,-102.6392 314.8779,-100.2089 321.4239,-108.5396 325.1903,-102.6392"/>
</g>
<!-- &#45;3 -->
<g id="node3" class="node">
<title>&#45;3</title>
<polygon fill="#d3d3d3" stroke="#000000" points="517,-162.1249 493,-162.1249 493,-144.1249 517,-144.1249 517,-162.1249"/>
<text text-anchor="middle" x="505" y="-150.9249" font-family="Times,serif" font-size="9.00" fill="#000000">&#45;3</text>
</g>
<!-- &#45;3&#45;&gt;176 -->
<g id="edge9" class="edge">
<title>&#45;3&#45;&gt;176</title>
<path fill="none" stroke="#ff0000" stroke-width=".1738" d="M492.6027,-147.6996C489.7848,-146.4977 486.7975,-145.2482 484,-144.1249 441.7136,-127.1453 428.2676,-129.4547 388,-108.1249 386.4886,-107.3243 384.9647,-106.4587 383.4475,-105.5505"/>
<polygon fill="#ff0000" stroke="#ff0000" stroke-width=".1738" points="385.2574,-102.5526 374.965,-100.0391 381.4435,-108.4224 385.2574,-102.5526"/>
</g>
<!-- &#45;3&#45;&gt;177 -->
<g id="edge10" class="edge">
<title>&#45;3&#45;&gt;177</title>
<path fill="none" stroke="#ff0000" stroke-width=".346" d="M492.903,-143.9182C480.1005,-134.1746 459.5274,-118.517 443.1788,-106.0745"/>
<polygon fill="#ff0000" stroke="#ff0000" stroke-width=".346" points="445.1553,-103.1805 435.0781,-99.9094 440.916,-108.7508 445.1553,-103.1805"/>
</g>
<!-- &#45;3&#45;&gt;179 -->
<g id="edge11" class="edge">
<title>&#45;3&#45;&gt;179</title>
<path fill="none" stroke="#ff0000" stroke-width=".363" d="M492.7443,-147.2907C489.9191,-146.1101 486.893,-144.9725 484,-144.1249 390.6023,-116.7596 358.0044,-145.1547 268,-108.1249 266.3777,-107.4575 264.7578,-106.6886 263.1585,-105.8479"/>
<polygon fill="#ff0000" stroke="#ff0000" stroke-width=".363" points="264.7056,-102.6912 254.3502,-100.4517 261.0489,-108.6601 264.7056,-102.6912"/>
</g>
<!-- &#45;3&#45;&gt;181 -->
<g id="edge12" class="edge">
<title>&#45;3&#45;&gt;181</title>
<path fill="none" stroke="#ff0000" stroke-width=".1036" d="M492.7035,-147.4224C489.8804,-146.2349 486.8655,-145.0613 484,-144.1249 416.3642,-122.0226 392.9382,-137.2133 328,-108.1249 326.4391,-107.4257 324.8761,-106.6403 323.3285,-105.7943"/>
<polygon fill="#ff0000" stroke="#ff0000" stroke-width=".1036" points="325.0971,-102.7727 314.7562,-100.4669 321.4022,-108.7181 325.0971,-102.7727"/>
</g>
<!-- &#45;4 -->
<g id="node4" class="node">
<title>&#45;4</title>
<polygon fill="#d3d3d3" stroke="#000000" points="559,-162.1249 535,-162.1249 535,-144.1249 559,-144.1249 559,-162.1249"/>
<text text-anchor="middle" x="547" y="-150.9249" font-family="Times,serif" font-size="9.00" fill="#000000">&#45;4</text>
</g>
<!-- &#45;4&#45;&gt;176 -->
<g id="edge13" class="edge">
<title>&#45;4&#45;&gt;176</title>
<path fill="none" stroke="#00ff00" stroke-width=".2911" d="M534.6833,-147.4825C531.8613,-146.292 528.8519,-145.1019 526,-144.1249 466.035,-123.5829 445.474,-134.8554 388,-108.1249 386.4492,-107.4036 384.8941,-106.6007 383.3527,-105.7412"/>
<polygon fill="#00ff00" stroke="#00ff00" stroke-width=".2911" points="385.1295,-102.7242 374.7987,-100.3738 381.409,-108.6536 385.1295,-102.7242"/>
</g>
<!-- &#45;4&#45;&gt;177 -->
<g id="edge14" class="edge">
<title>&#45;4&#45;&gt;177</title>
<path fill="none" stroke="#ff0000" stroke-width=".1281" stroke-dasharray="1,5" d="M534.6309,-146.7761C514.4359,-136.4104 473.8758,-115.5917 446.3269,-101.4513"/>
<polygon fill="#ff0000" stroke="#ff0000" stroke-width=".1281" points="447.6746,-98.209 437.1798,-96.7563 444.4781,-104.4366 447.6746,-98.209"/>
</g>
<!-- &#45;4&#45;&gt;179 -->
<g id="edge15" class="edge">
<title>&#45;4&#45;&gt;179</title>
<path fill="none" stroke="#00ff00" stroke-width=".3439" d="M534.7605,-147.2337C531.9345,-146.0561 528.9039,-144.9341 526,-144.1249 414.4717,-113.0464 375.6443,-150.7528 268,-108.1249 266.369,-107.479 264.7423,-106.7271 263.1377,-105.8994"/>
<polygon fill="#00ff00" stroke="#00ff00" stroke-width=".3439" points="264.6783,-102.7402 254.3143,-100.5406 261.0445,-108.7232 264.6783,-102.7402"/>
</g>
<!-- &#45;4&#45;&gt;181 -->
<g id="edge16" class="edge">
<title>&#45;4&#45;&gt;181</title>
<path fill="none" stroke="#ff0000" stroke-width=".3592" d="M534.7349,-147.3222C531.9102,-146.14 528.8866,-144.9938 526,-144.1249 440.353,-118.3453 410.4632,-142.7632 328,-108.1249 326.4231,-107.4625 324.8475,-106.7062 323.2901,-105.8829"/>
<polygon fill="#ff0000" stroke="#ff0000" stroke-width=".3592" points="325.0459,-102.8541 314.6887,-100.6223 321.3936,-108.8257 325.0459,-102.8541"/>
</g>
<!-- &#45;5 -->
<g id="node5" class="node">
<title>&#45;5</title>
<polygon fill="#d3d3d3" stroke="#000000" points="601,-162.1249 577,-162.1249 577,-144.1249 601,-144.1249 601,-162.1249"/>
<text text-anchor="middle" x="589" y="-150.9249" font-family="Times,serif" font-size="9.00" fill="#000000">&#45;5</text>
</g>
<!-- &#45;5&#45;&gt;176 -->
<g id="edge17" class="edge">
<title>&#45;5&#45;&gt;176</title>
<path fill="none" stroke="#00ff00" stroke-width=".3803" d="M576.7234,-147.3597C573.8993,-146.1755 570.8789,-145.0191 568,-144.1249 490.0872,-119.926 462.938,-140.3784 388,-108.1249 386.429,-107.4487 384.858,-106.6815 383.3042,-105.8497"/>
<polygon fill="#00ff00" stroke="#00ff00" stroke-width=".3803" points="385.0647,-102.8235 374.7135,-100.5641 381.3964,-108.7854 385.0647,-102.8235"/>
</g>
<!-- &#45;5&#45;&gt;177 -->
<g id="edge18" class="edge">
<title>&#45;5&#45;&gt;177</title>
<path fill="none" stroke="#00ff00" stroke-width=".4364" d="M576.598,-147.7112C573.7803,-146.5088 570.7943,-145.256 568,-144.1249 526.4518,-127.306 477.909,-109.0399 447.5563,-97.7822"/>
<polygon fill="#00ff00" stroke="#00ff00" stroke-width=".4364" points="448.5897,-94.4327 437.9965,-94.2453 446.1607,-100.9978 448.5897,-94.4327"/>
</g>
<!-- &#45;5&#45;&gt;179 -->
<g id="edge19" class="edge">
<title>&#45;5&#45;&gt;179</title>
<path fill="none" stroke="#00ff00" stroke-width=".4216" d="M576.7719,-147.1923C573.9452,-146.0168 570.9116,-144.9062 568,-144.1249 438.2985,-109.3213 393.3254,-156.3673 268,-108.1249 266.3629,-107.4947 264.7314,-106.7551 263.123,-105.9369"/>
<polygon fill="#00ff00" stroke="#00ff00" stroke-width=".4216" points="264.6591,-102.776 254.289,-100.6054 261.0421,-108.7691 264.6591,-102.776"/>
</g>
<!-- &#45;5&#45;&gt;181 -->
<g id="edge20" class="edge">
<title>&#45;5&#45;&gt;181</title>
<path fill="none" stroke="#00ff00" stroke-width=".4828" d="M576.7543,-147.2558C573.9286,-146.077 570.8998,-144.949 568,-144.1249 464.2484,-114.6396 428.0781,-148.3511 328,-108.1249 326.3724,-107.4707 324.7482,-106.7122 323.1456,-105.8795"/>
<polygon fill="#00ff00" stroke="#00ff00" stroke-width=".4828" points="324.6887,-102.7212 314.328,-100.5062 321.0461,-108.6987 324.6887,-102.7212"/>
</g>
<!-- &#45;6 -->
<g id="node6" class="node">
<title>&#45;6</title>
<polygon fill="#d3d3d3" stroke="#000000" points="643,-162.1249 619,-162.1249 619,-144.1249 643,-144.1249 643,-162.1249"/>
<text text-anchor="middle" x="631" y="-150.9249" font-family="Times,serif" font-size="9.00" fill="#000000">&#45;6</text>
</g>
<!-- &#45;6&#45;&gt;176 -->
<g id="edge21" class="edge">
<title>&#45;6&#45;&gt;176</title>
<path fill="none" stroke="#ff0000" stroke-width=".1609" d="M618.747,-147.2813C615.9217,-146.1012 612.8948,-144.9662 610,-144.1249 514.0157,-116.2301 480.521,-145.9531 388,-108.1249 386.3763,-107.461 384.7552,-106.695 383.155,-105.8564"/>
<polygon fill="#ff0000" stroke="#ff0000" stroke-width=".1609" points="384.701,-102.6992 374.3442,-100.4664 381.0481,-108.6705 384.701,-102.6992"/>
</g>
<!-- &#45;6&#45;&gt;177 -->
<g id="edge22" class="edge">
<title>&#45;6&#45;&gt;177</title>
<path fill="none" stroke="#00ff00" stroke-width=".2722" d="M618.6578,-147.5551C615.837,-146.3608 612.8346,-145.1508 610,-144.1249 553.9467,-123.8384 486.8916,-105.0716 448.6888,-94.8821"/>
<polygon fill="#00ff00" stroke="#00ff00" stroke-width=".2722" points="449.2746,-91.4167 438.7119,-92.2415 447.4835,-98.1837 449.2746,-91.4167"/>
</g>
<!-- &#45;6&#45;&gt;179 -->
<g id="edge23" class="edge">
<title>&#45;6&#45;&gt;179</title>
<path fill="none" stroke="#00ff00" stroke-width=".5" d="M618.7802,-147.1609C615.9531,-145.987 612.9172,-144.885 610,-144.1249 462.0981,-105.5889 411.0327,-161.9919 268,-108.1249 266.3584,-107.5066 264.7232,-106.7764 263.1122,-105.9654"/>
<polygon fill="#00ff00" stroke="#00ff00" stroke-width=".5" points="264.6449,-102.8033 254.2703,-100.6546 261.0406,-108.804 264.6449,-102.8033"/>
</g>
<!-- &#45;6&#45;&gt;181 -->
<g id="edge24" class="edge">
<title>&#45;6&#45;&gt;181</title>
<path fill="none" stroke="#ff0000" stroke-width=".449" d="M618.7675,-147.2086C615.9411,-146.0322 612.9086,-144.9171 610,-144.1249 488.091,-110.9189 445.7439,-153.9596 328,-108.1249 326.3653,-107.4885 324.7356,-106.7441 323.1287,-105.9222"/>
<polygon fill="#ff0000" stroke="#ff0000" stroke-width=".449" points="324.6666,-102.7619 314.2988,-100.5799 321.043,-108.751 324.6666,-102.7619"/>
</g>
<!-- &#45;7 -->
<g id="node7" class="node">
<title>&#45;7</title>
<polygon fill="#d3d3d3" stroke="#000000" points="24,-162.1249 0,-162.1249 0,-144.1249 24,-144.1249 24,-162.1249"/>
<text text-anchor="middle" x="12" y="-150.9249" font-family="Times,serif" font-size="9.00" fill="#000000">&#45;7</text>
</g>
<!-- &#45;7&#45;&gt;176 -->
<g id="edge25" class="edge">
<title>&#45;7&#45;&gt;176</title>
<path fill="none" stroke="#00ff00" stroke-width=".5" d="M24.2293,-147.1966C27.0559,-146.0209 30.0892,-144.9091 33,-144.1249 160.5364,-109.7652 204.7811,-155.6983 328,-108.1249 329.6365,-107.4931 331.2675,-106.7522 332.8755,-105.933"/>
<polygon fill="#00ff00" stroke="#00ff00" stroke-width=".5" points="334.9577,-108.7643 341.7084,-100.5986 331.3389,-102.7722 334.9577,-108.7643"/>
</g>
<!-- &#45;7&#45;&gt;177 -->
<g id="edge26" class="edge">
<title>&#45;7&#45;&gt;177</title>
<path fill="none" stroke="#00ff00" stroke-width=".1645" d="M24.2177,-147.1526C27.0449,-145.9791 30.0814,-144.8794 33,-144.1249 186.5394,-104.4325 239.4826,-163.7343 388,-108.1249 389.6428,-107.5098 391.2789,-106.782 392.8906,-105.9729"/>
<polygon fill="#00ff00" stroke="#00ff00" stroke-width=".1645" points="394.9598,-108.8132 401.7346,-100.6675 391.3587,-102.8105 394.9598,-108.8132"/>
</g>
<!-- &#45;7&#45;&gt;179 -->
<g id="edge27" class="edge">
<title>&#45;7&#45;&gt;179</title>
<path fill="none" stroke="#ff0000" stroke-width=".1376" stroke-dasharray="1,5" d="M24.3291,-147.5184C27.1505,-146.326 30.1565,-145.126 33,-144.1249 93.758,-122.7332 166.8279,-103.9452 207.2683,-94.1343"/>
<polygon fill="#ff0000" stroke="#ff0000" stroke-width=".1376" points="208.1531,-97.5214 217.0578,-91.7805 206.5166,-90.7154 208.1531,-97.5214"/>
</g>
<!-- &#45;7&#45;&gt;181 -->
<g id="edge28" class="edge">
<title>&#45;7&#45;&gt;181</title>
<path fill="none" stroke="#ff0000" stroke-width=".13" d="M24.2476,-147.2625C27.0732,-146.0833 30.1015,-144.9535 33,-144.1249 134.593,-115.0817 170.0221,-147.6846 268,-108.1249 269.6266,-107.4681 271.2499,-106.7077 272.8519,-105.8734"/>
<polygon fill="#ff0000" stroke="#ff0000" stroke-width=".13" points="274.9534,-108.6913 281.6678,-100.4957 271.308,-102.7154 274.9534,-108.6913"/>
</g>
<!-- &#45;8 -->
<g id="node8" class="node">
<title>&#45;8</title>
<polygon fill="#d3d3d3" stroke="#000000" points="66,-162.1249 42,-162.1249 42,-144.1249 66,-144.1249 66,-162.1249"/>
<text text-anchor="middle" x="54" y="-150.9249" font-family="Times,serif" font-size="9.00" fill="#000000">&#45;8</text>
</g>
<!-- &#45;8&#45;&gt;176 -->
<g id="edge29" class="edge">
<title>&#45;8&#45;&gt;176</title>
<path fill="none" stroke="#ff0000" stroke-width=".4157" stroke-dasharray="1,5" d="M66.2411,-147.2396C69.0671,-146.0616 72.0972,-144.938 75,-144.1249 184.3673,-113.4892 222.4582,-150.0854 328,-108.1249 329.6301,-107.4768 331.2561,-106.7232 332.8602,-105.8942"/>
<polygon fill="#ff0000" stroke="#ff0000" stroke-width=".4157" points="334.9551,-108.7167 341.6821,-100.5315 331.319,-102.7352 334.9551,-108.7167"/>
</g>
<!-- &#45;8&#45;&gt;177 -->
<g id="edge30" class="edge">
<title>&#45;8&#45;&gt;177</title>
<path fill="none" stroke="#ff0000" stroke-width=".3856" d="M66.2253,-147.1817C69.0521,-146.0067 72.0865,-144.899 75,-144.1249 210.3326,-108.1666 257.1961,-158.1074 388,-108.1249 389.6386,-107.4987 391.2714,-106.7623 392.8807,-105.9466"/>
<polygon fill="#ff0000" stroke="#ff0000" stroke-width=".3856" points="394.9585,-108.7809 401.7174,-100.622 391.3457,-102.7852 394.9585,-108.7809"/>
</g>
<!-- &#45;8&#45;&gt;179 -->
<g id="edge31" class="edge">
<title>&#45;8&#45;&gt;179</title>
<path fill="none" stroke="#00ff00" stroke-width=".1084" d="M66.3799,-147.6555C69.1987,-146.4559 72.1908,-145.2185 75,-144.1249 120.8985,-126.2576 174.9885,-107.7692 207.8713,-96.8095"/>
<polygon fill="#00ff00" stroke="#00ff00" stroke-width=".1084" points="209.3766,-99.9978 217.7651,-93.5261 207.1717,-93.3541 209.3766,-99.9978"/>
</g>
<!-- &#45;8&#45;&gt;181 -->
<g id="edge32" class="edge">
<title>&#45;8&#45;&gt;181</title>
<path fill="none" stroke="#00ff00" stroke-width=".4094" d="M66.268,-147.332C69.0926,-146.1492 72.1153,-145.0003 75,-144.1249 158.4968,-118.7849 187.6289,-142.1 268,-108.1249 269.5754,-107.4589 271.1498,-106.6998 272.7063,-105.8743"/>
<polygon fill="#00ff00" stroke="#00ff00" stroke-width=".4094" points="274.6057,-108.8152 281.3049,-100.6072 270.9493,-102.8461 274.6057,-108.8152"/>
</g>
<!-- &#45;9 -->
<g id="node9" class="node">
<title>&#45;9</title>
<polygon fill="#d3d3d3" stroke="#000000" points="108,-162.1249 84,-162.1249 84,-144.1249 108,-144.1249 108,-162.1249"/>
<text text-anchor="middle" x="96" y="-150.9249" font-family="Times,serif" font-size="9.00" fill="#000000">&#45;9</text>
</g>
<!-- &#45;9&#45;&gt;176 -->
<g id="edge33" class="edge">
<title>&#45;9&#45;&gt;176</title>
<path fill="none" stroke="#ff0000" stroke-width=".2946" d="M108.2582,-147.299C111.0832,-146.1179 114.1087,-144.9781 117,-144.1249 208.2433,-117.2005 240.0917,-144.4898 328,-108.1249 329.621,-107.4543 331.2399,-106.6831 332.8384,-105.8405"/>
<polygon fill="#ff0000" stroke="#ff0000" stroke-width=".2946" points="334.9504,-108.651 341.6445,-100.4388 331.2903,-102.6841 334.9504,-108.651"/>
</g>
<!-- &#45;9&#45;&gt;177 -->
<g id="edge34" class="edge">
<title>&#45;9&#45;&gt;177</title>
<path fill="none" stroke="#ff0000" stroke-width=".5" d="M108.2355,-147.2196C111.0618,-146.0426 114.0934,-144.9246 117,-144.1249 234.1497,-111.8944 274.8865,-152.4893 388,-108.1249 389.6331,-107.4844 391.2615,-106.7367 392.8674,-105.9122"/>
<polygon fill="#ff0000" stroke="#ff0000" stroke-width=".5" points="394.9564,-108.7389 401.6944,-100.5627 391.3283,-102.7524 394.9564,-108.7389"/>
</g>
<!-- &#45;9&#45;&gt;179 -->
<g id="edge35" class="edge">
<title>&#45;9&#45;&gt;179</title>
<path fill="none" stroke="#ff0000" stroke-width=".4971" d="M108.1068,-147.4796C130.2571,-137.1512 177.8766,-114.9466 208.8922,-100.4844"/>
<polygon fill="#ff0000" stroke="#ff0000" stroke-width=".4971" points="210.7414,-103.4839 218.3254,-96.0857 207.7832,-97.1397 210.7414,-103.4839"/>
</g>
<!-- &#45;9&#45;&gt;181 -->
<g id="edge36" class="edge">
<title>&#45;9&#45;&gt;181</title>
<path fill="none" stroke="#ff0000" stroke-width=".3711" d="M108.3016,-147.4377C111.1244,-146.2495 114.138,-145.0717 117,-144.1249 182.5013,-122.4572 205.1388,-136.5567 268,-108.1249 269.5584,-107.4201 271.1194,-106.6302 272.6654,-105.7808"/>
<polygon fill="#ff0000" stroke="#ff0000" stroke-width=".3711" points="274.5962,-108.7016 281.2331,-100.4431 270.8947,-102.7602 274.5962,-108.7016"/>
</g>
<!-- &#45;10 -->
<g id="node10" class="node">
<title>&#45;10</title>
<polygon fill="#d3d3d3" stroke="#000000" points="155.5,-162.1249 126.5,-162.1249 126.5,-144.1249 155.5,-144.1249 155.5,-162.1249"/>
<text text-anchor="middle" x="141" y="-150.9249" font-family="Times,serif" font-size="9.00" fill="#000000">&#45;10</text>
</g>
<!-- &#45;10&#45;&gt;176 -->
<g id="edge37" class="edge">
<title>&#45;10&#45;&gt;176</title>
<path fill="none" stroke="#00ff00" stroke-width=".5" d="M155.9748,-146.8755C158.6234,-145.8824 161.3739,-144.9215 164,-144.1249 235.4108,-122.4617 259.7336,-138.2661 328,-108.1249 329.5646,-107.4341 331.1306,-106.6553 332.6804,-105.8145"/>
<polygon fill="#00ff00" stroke="#00ff00" stroke-width=".5" points="334.6001,-108.7425 341.2595,-100.5023 330.9149,-102.7911 334.6001,-108.7425"/>
</g>
<!-- &#45;10&#45;&gt;177 -->
<g id="edge38" class="edge">
<title>&#45;10&#45;&gt;177</title>
<path fill="none" stroke="#ff0000" stroke-width=".1221" d="M155.9384,-146.7492C158.5911,-145.7702 161.3524,-144.8467 164,-144.1249 261.2823,-117.602 294.6398,-146.2193 388,-108.1249 389.6242,-107.4622 391.2456,-106.697 392.8461,-105.8591"/>
<polygon fill="#ff0000" stroke="#ff0000" stroke-width=".1221" points="394.9522,-108.6739 401.6578,-100.4711 391.3004,-102.7018 394.9522,-108.6739"/>
</g>
<!-- &#45;10&#45;&gt;179 -->
<g id="edge39" class="edge">
<title>&#45;10&#45;&gt;179</title>
<path fill="none" stroke="#ff0000" stroke-width=".2666" d="M154.4874,-143.9182C169.3174,-133.7951 193.4993,-117.2884 212.0347,-104.6359"/>
<polygon fill="#ff0000" stroke="#ff0000" stroke-width=".2666" points="214.0707,-107.4838 220.3567,-98.9552 210.1242,-101.7023 214.0707,-107.4838"/>
</g>
<!-- &#45;10&#45;&gt;181 -->
<g id="edge40" class="edge">
<title>&#45;10&#45;&gt;181</title>
<path fill="none" stroke="#ff0000" stroke-width=".3644" d="M155.5673,-147.324C158.3589,-146.2409 161.2641,-145.1332 164,-144.1249 209.8952,-127.2096 224.4877,-130.467 268,-108.1249 269.5215,-107.3437 271.0534,-106.4934 272.5767,-105.5971"/>
<polygon fill="#ff0000" stroke="#ff0000" stroke-width=".3644" points="274.5664,-108.4787 281.0776,-100.1208 270.7755,-102.5941 274.5664,-108.4787"/>
</g>
<!-- &#45;11 -->
<g id="node11" class="node">
<title>&#45;11</title>
<polygon fill="#d3d3d3" stroke="#000000" points="202.5,-162.1249 173.5,-162.1249 173.5,-144.1249 202.5,-144.1249 202.5,-162.1249"/>
<text text-anchor="middle" x="188" y="-150.9249" font-family="Times,serif" font-size="9.00" fill="#000000">&#45;11</text>
</g>
<!-- &#45;11&#45;&gt;176 -->
<g id="edge41" class="edge">
<title>&#45;11&#45;&gt;176</title>
<path fill="none" stroke="#ff0000" stroke-width=".5" d="M202.5396,-147.2468C205.3338,-146.1709 208.247,-145.0855 211,-144.1249 262.3682,-126.1997 279.177,-132.1314 328,-108.1249 329.5348,-107.3702 331.0772,-106.5409 332.6088,-105.6609"/>
<polygon fill="#ff0000" stroke="#ff0000" stroke-width=".5" points="334.5785,-108.5561 341.1339,-100.2328 330.8188,-102.6514 334.5785,-108.5561"/>
</g>
<!-- &#45;11&#45;&gt;177 -->
<g id="edge42" class="edge">
<title>&#45;11&#45;&gt;177</title>
<path fill="none" stroke="#ff0000" stroke-width=".3957" d="M202.9645,-146.8412C205.6143,-145.8519 208.3679,-144.9012 211,-144.1249 287.9978,-121.4141 314.3143,-139.9817 388,-108.1249 389.5699,-107.4462 391.14,-106.6769 392.6932,-105.8435"/>
<polygon fill="#ff0000" stroke="#ff0000" stroke-width=".3957" points="394.603,-108.7779 401.2818,-100.5533 390.9318,-102.8178 394.603,-108.7779"/>
</g>
<!-- &#45;11&#45;&gt;179 -->
<g id="edge43" class="edge">
<title>&#45;11&#45;&gt;179</title>
<path fill="none" stroke="#00ff00" stroke-width=".2018" d="M194.9523,-143.9182C201.1533,-135.7065 210.5263,-123.2941 218.9447,-112.146"/>
<polygon fill="#00ff00" stroke="#00ff00" stroke-width=".2018" points="221.8947,-114.0473 225.1278,-103.9579 216.3085,-109.829 221.8947,-114.0473"/>
</g>
<!-- &#45;11&#45;&gt;181 -->
<g id="edge44" class="edge">
<title>&#45;11&#45;&gt;181</title>
<path fill="none" stroke="#00ff00" stroke-width=".2638" stroke-dasharray="1,5" d="M202.7155,-145.4366C218.9679,-136.8105 245.7779,-122.1791 268,-108.1249 269.4455,-107.2107 270.9173,-106.2553 272.394,-105.2773"/>
<polygon fill="#00ff00" stroke="#00ff00" stroke-width=".2638" points="274.4772,-108.0929 280.757,-99.5597 270.5265,-102.3144 274.4772,-108.0929"/>
</g>
<!-- &#45;12 -->
<g id="node12" class="node">
<title>&#45;12</title>
<polygon fill="#d3d3d3" stroke="#000000" points="249.5,-162.1249 220.5,-162.1249 220.5,-144.1249 249.5,-144.1249 249.5,-162.1249"/>
<text text-anchor="middle" x="235" y="-150.9249" font-family="Times,serif" font-size="9.00" fill="#000000">&#45;12</text>
</g>
<!-- &#45;12&#45;&gt;176 -->
<g id="edge45" class="edge">
<title>&#45;12&#45;&gt;176</title>
<path fill="none" stroke="#ff0000" stroke-width=".4161" d="M249.561,-146.9741C268.1993,-138.9007 301.2751,-123.8939 328,-108.1249 329.473,-107.2557 330.9666,-106.3359 332.4602,-105.3856"/>
<polygon fill="#ff0000" stroke="#ff0000" stroke-width=".4161" points="334.513,-108.2233 340.8731,-99.7498 330.617,-102.4076 334.513,-108.2233"/>
</g>
<!-- &#45;12&#45;&gt;177 -->
<g id="edge46" class="edge">
<title>&#45;12&#45;&gt;177</title>
<path fill="none" stroke="#00ff00" stroke-width=".3394" d="M249.652,-147.4008C252.7231,-146.2658 255.9541,-145.1189 259,-144.1249 315.5868,-125.6574 334.2426,-133.6837 388,-108.1249 389.5446,-107.3905 391.0948,-106.5772 392.6324,-105.7097"/>
<polygon fill="#00ff00" stroke="#00ff00" stroke-width=".3394" points="394.5864,-108.6153 401.1753,-100.3184 390.8505,-102.6955 394.5864,-108.6153"/>
</g>
<!-- &#45;12&#45;&gt;179 -->
<g id="edge47" class="edge">
<title>&#45;12&#45;&gt;179</title>
<path fill="none" stroke="#ff0000" stroke-width=".5" d="M235.4171,-143.9182C235.7189,-137.2572 236.146,-127.8323 236.5661,-118.5602"/>
<polygon fill="#ff0000" stroke="#ff0000" stroke-width=".5" points="240.0741,-118.4603 237.0304,-108.3121 233.0813,-118.1434 240.0741,-118.4603"/>
</g>
<!-- &#45;12&#45;&gt;181 -->
<g id="edge48" class="edge">
<title>&#45;12&#45;&gt;181</title>
<path fill="none" stroke="#ff0000" stroke-width=".1223" d="M243.7599,-143.9182C252.1358,-135.1152 265.1047,-121.4847 276.261,-109.7594"/>
<polygon fill="#ff0000" stroke="#ff0000" stroke-width=".1223" points="278.9066,-112.0565 283.2641,-102.3992 273.8353,-107.2313 278.9066,-112.0565"/>
</g>
<!-- &#45;13 -->
<g id="node13" class="node">
<title>&#45;13</title>
<polygon fill="#d3d3d3" stroke="#000000" points="296.5,-162.1249 267.5,-162.1249 267.5,-144.1249 296.5,-144.1249 296.5,-162.1249"/>
<text text-anchor="middle" x="282" y="-150.9249" font-family="Times,serif" font-size="9.00" fill="#000000">&#45;13</text>
</g>
<!-- &#45;13&#45;&gt;176 -->
<g id="edge49" class="edge">
<title>&#45;13&#45;&gt;176</title>
<path fill="none" stroke="#ff0000" stroke-width=".2797" d="M292.5675,-143.9182C303.2733,-134.591 320.1995,-119.8445 334.1543,-107.6867"/>
<polygon fill="#ff0000" stroke="#ff0000" stroke-width=".2797" points="336.7171,-110.096 341.9578,-100.8881 332.1188,-104.8181 336.7171,-110.096"/>
</g>
<!-- &#45;13&#45;&gt;177 -->
<g id="edge50" class="edge">
<title>&#45;13&#45;&gt;177</title>
<path fill="none" stroke="#ff0000" stroke-width=".4858" d="M296.5903,-147.3813C321.5856,-137.4671 371.4973,-117.3228 388,-108.1249 389.494,-107.2922 391.0041,-106.4013 392.5105,-105.4734"/>
<polygon fill="#ff0000" stroke="#ff0000" stroke-width=".4858" points="394.5378,-108.3291 400.9614,-99.9037 390.6856,-102.4843 394.5378,-108.3291"/>
</g>
<!-- &#45;13&#45;&gt;179 -->
<g id="edge51" class="edge">
<title>&#45;13&#45;&gt;179</title>
<path fill="none" stroke="#00ff00" stroke-width=".4619" d="M275.882,-143.9182C270.5904,-135.9552 262.674,-124.0422 255.4441,-113.1623"/>
<polygon fill="#00ff00" stroke="#00ff00" stroke-width=".4619" points="258.306,-111.1452 249.8563,-104.7536 252.4759,-115.0195 258.306,-111.1452"/>
</g>
<!-- &#45;13&#45;&gt;181 -->
<g id="edge52" class="edge">
<title>&#45;13&#45;&gt;181</title>
<path fill="none" stroke="#ff0000" stroke-width=".4454" d="M284.2247,-143.9182C285.8944,-137.0085 288.2828,-127.1245 290.6032,-117.5222"/>
<polygon fill="#ff0000" stroke="#ff0000" stroke-width=".4454" points="294.0168,-118.2964 292.9636,-107.754 287.2126,-116.6522 294.0168,-118.2964"/>
</g>
<!-- &#45;14 -->
<g id="node14" class="node">
<title>&#45;14</title>
<polygon fill="#d3d3d3" stroke="#000000" points="343.5,-162.1249 314.5,-162.1249 314.5,-144.1249 343.5,-144.1249 343.5,-162.1249"/>
<text text-anchor="middle" x="329" y="-150.9249" font-family="Times,serif" font-size="9.00" fill="#000000">&#45;14</text>
</g>
<!-- &#45;14&#45;&gt;176 -->
<g id="edge53" class="edge">
<title>&#45;14&#45;&gt;176</title>
<path fill="none" stroke="#00ff00" stroke-width=".4772" d="M333.0323,-143.9182C336.2403,-136.5937 340.912,-125.9273 345.3489,-115.7969"/>
<polygon fill="#00ff00" stroke="#00ff00" stroke-width=".4772" points="348.6695,-116.9392 349.4754,-106.3751 342.2575,-114.1309 348.6695,-116.9392"/>
</g>
<!-- &#45;14&#45;&gt;177 -->
<g id="edge54" class="edge">
<title>&#45;14&#45;&gt;177</title>
<path fill="none" stroke="#ff0000" stroke-width=".5" stroke-dasharray="1,5" d="M341.3751,-143.9182C354.5532,-134.1141 375.7797,-118.3223 392.5535,-105.8431"/>
<polygon fill="#ff0000" stroke="#ff0000" stroke-width=".5" points="394.9191,-108.4456 400.8531,-99.6685 390.7407,-102.8294 394.9191,-108.4456"/>
</g>
<!-- &#45;14&#45;&gt;179 -->
<g id="edge55" class="edge">
<title>&#45;14&#45;&gt;179</title>
<path fill="none" stroke="#00ff00" stroke-width=".1743" d="M316.3468,-143.9182C302.7894,-134.0536 280.9008,-118.1271 263.7012,-105.6123"/>
<polygon fill="#00ff00" stroke="#00ff00" stroke-width=".1743" points="265.3486,-102.4826 255.2033,-99.4291 261.2301,-108.1428 265.3486,-102.4826"/>
</g>
<!-- &#45;14&#45;&gt;181 -->
<g id="edge56" class="edge">
<title>&#45;14&#45;&gt;181</title>
<path fill="none" stroke="#ff0000" stroke-width=".318" d="M324.6896,-143.9182C321.225,-136.5182 316.1634,-125.707 311.377,-115.4837"/>
<polygon fill="#ff0000" stroke="#ff0000" stroke-width=".318" points="314.5224,-113.9476 307.1125,-106.3751 308.1829,-116.9157 314.5224,-113.9476"/>
</g>
<!-- &#45;15 -->
<g id="node15" class="node">
<title>&#45;15</title>
<polygon fill="#d3d3d3" stroke="#000000" points="390.5,-162.1249 361.5,-162.1249 361.5,-144.1249 390.5,-144.1249 390.5,-162.1249"/>
<text text-anchor="middle" x="376" y="-150.9249" font-family="Times,serif" font-size="9.00" fill="#000000">&#45;15</text>
</g>
<!-- &#45;15&#45;&gt;176 -->
<g id="edge57" class="edge">
<title>&#45;15&#45;&gt;176</title>
<path fill="none" stroke="#00ff00" stroke-width=".4804" d="M373.4972,-143.9182C371.6044,-136.9557 368.8908,-126.9735 366.2617,-117.3024"/>
<polygon fill="#00ff00" stroke="#00ff00" stroke-width=".4804" points="369.5913,-116.208 363.5905,-107.4764 362.8364,-118.0443 369.5913,-116.208"/>
</g>
<!-- &#45;15&#45;&gt;177 -->
<g id="edge58" class="edge">
<title>&#45;15&#45;&gt;177</title>
<path fill="none" stroke="#00ff00" stroke-width=".1212" d="M381.8399,-143.9182C386.8058,-136.0896 394.1933,-124.4431 400.9989,-113.7139"/>
<polygon fill="#00ff00" stroke="#00ff00" stroke-width=".1212" points="404.112,-115.3404 406.5129,-105.0211 398.2009,-111.5908 404.112,-115.3404"/>
</g>
<!-- &#45;15&#45;&gt;179 -->
<g id="edge59" class="edge">
<title>&#45;15&#45;&gt;179</title>
<path fill="none" stroke="#ff0000" stroke-width=".1411" stroke-dasharray="1,5" d="M361.1554,-147.1521C333.6058,-136.0361 276.5768,-112.8677 268,-108.1249 266.5033,-107.2972 264.991,-106.4102 263.4828,-105.4854"/>
<polygon fill="#ff0000" stroke="#ff0000" stroke-width=".1411" points="265.3053,-102.4949 255.0269,-99.9248 261.4591,-108.3436 265.3053,-102.4949"/>
</g>
<!-- &#45;15&#45;&gt;181 -->
<g id="edge60" class="edge">
<title>&#45;15&#45;&gt;181</title>
<path fill="none" stroke="#ff0000" stroke-width=".4347" d="M365.1544,-143.9182C353.9935,-134.4439 336.2456,-119.3779 321.7978,-107.1133"/>
<polygon fill="#ff0000" stroke="#ff0000" stroke-width=".4347" points="324.0621,-104.4445 314.1735,-100.6412 319.532,-109.781 324.0621,-104.4445"/>
</g>
<!-- 0 -->
<g id="node16" class="node">
<title>0</title>
<ellipse fill="#add8e6" stroke="#000000" cx="304" cy="-14.8492" rx="14.7" ry="14.7"/>
<text text-anchor="middle" x="304" y="-12.6492" font-family="Times,serif" font-size="9.00" fill="#000000">0</text>
</g>
<!-- 1 -->
<g id="node17" class="node">
<title>1</title>
<ellipse fill="#add8e6" stroke="#000000" cx="355" cy="-14.8492" rx="14.7" ry="14.7"/>
<text text-anchor="middle" x="355" y="-12.6492" font-family="Times,serif" font-size="9.00" fill="#000000">1</text>
</g>
<!-- 176&#45;&gt;0 -->
<g id="edge61" class="edge">
<title>176&#45;&gt;0</title>
<path fill="none" stroke="#ff0000" stroke-width=".3196" stroke-dasharray="1,5" d="M345.2028,-69.8339C337.4261,-59.456 327.4519,-46.1455 319.2649,-35.2201"/>
<polygon fill="#ff0000" stroke="#ff0000" stroke-width=".3196" points="321.956,-32.9748 313.1585,-27.0711 316.3543,-37.1725 321.956,-32.9748"/>
</g>
<!-- 176&#45;&gt;1 -->
<g id="edge62" class="edge">
<title>176&#45;&gt;1</title>
<path fill="none" stroke="#ff0000" stroke-width=".3807" d="M357.1161,-65.6803C356.7807,-57.6235 356.3956,-48.3716 356.0465,-39.9882"/>
<polygon fill="#ff0000" stroke="#ff0000" stroke-width=".3807" points="359.5433,-39.8346 355.6303,-29.9888 352.5493,-40.1258 359.5433,-39.8346"/>
</g>
<!-- 177&#45;&gt;0 -->
<g id="edge63" class="edge">
<title>177&#45;&gt;0</title>
<path fill="none" stroke="#00ff00" stroke-width=".1399" stroke-dasharray="1,5" d="M400.6946,-74.3606C396.5729,-71.4591 392.1621,-68.4248 388,-65.6985 367.1846,-52.0635 342.7968,-37.4457 325.678,-27.3987"/>
<polygon fill="#00ff00" stroke="#00ff00" stroke-width=".1399" points="327.3848,-24.3424 316.9842,-22.3226 323.8552,-30.3874 327.3848,-24.3424"/>
</g>
<!-- 177&#45;&gt;1 -->
<g id="edge64" class="edge">
<title>177&#45;&gt;1</title>
<path fill="none" stroke="#ff0000" stroke-width=".485" d="M404.0183,-70.9187C394.4504,-59.9745 381.7208,-45.4137 371.6318,-33.8735"/>
<polygon fill="#ff0000" stroke="#ff0000" stroke-width=".485" points="374.052,-31.3241 364.8351,-26.0991 368.7819,-35.9314 374.052,-31.3241"/>
</g>
<!-- 179&#45;&gt;0 -->
<g id="edge65" class="edge">
<title>179&#45;&gt;0</title>
<path fill="none" stroke="#ff0000" stroke-width=".2754" d="M252.6475,-70.9187C262.7684,-59.8682 276.2661,-45.1307 286.8833,-33.5382"/>
<polygon fill="#ff0000" stroke="#ff0000" stroke-width=".2754" points="289.5235,-35.8375 293.6966,-26.0991 284.3614,-31.1097 289.5235,-35.8375"/>
</g>
<!-- 179&#45;&gt;1 -->
<g id="edge66" class="edge">
<title>179&#45;&gt;1</title>
<path fill="none" stroke="#ff0000" stroke-width=".3826" d="M255.2751,-74.314C259.398,-71.4144 263.817,-68.3927 268,-65.6985 289.5933,-51.7907 315.0328,-37.1111 332.8053,-27.1191"/>
<polygon fill="#ff0000" stroke="#ff0000" stroke-width=".3826" points="334.7938,-30.0174 341.817,-22.0848 331.3799,-23.9063 334.7938,-30.0174"/>
</g>
<!-- 181&#45;&gt;0 -->
<g id="edge67" class="edge">
<title>181&#45;&gt;0</title>
<path fill="none" stroke="#00ff00" stroke-width=".1698" d="M299.7677,-65.6803C300.4386,-57.6235 301.2089,-48.3716 301.9069,-39.9882"/>
<polygon fill="#00ff00" stroke="#00ff00" stroke-width=".1698" points="305.3976,-40.2448 302.7395,-29.9888 298.4217,-39.6639 305.3976,-40.2448"/>
</g>
<!-- 181&#45;&gt;1 -->
<g id="edge68" class="edge">
<title>181&#45;&gt;1</title>
<path fill="none" stroke="#00ff00" stroke-width=".1551" stroke-dasharray="1,5" d="M311.2202,-70.198C319.6065,-59.5956 330.4989,-45.8249 339.3208,-34.6717"/>
<polygon fill="#00ff00" stroke="#00ff00" stroke-width=".1551" points="342.1289,-36.7633 345.5876,-26.7489 336.6388,-32.4207 342.1289,-36.7633"/>
</g>
</g>
</svg>
