<?xml version="1.0" encoding="UTF-8" standalone="no"?>
<!DOCTYPE svg PUBLIC "-//W3C//DTD SVG 1.1//EN"
 "http://www.w3.org/Graphics/SVG/1.1/DTD/svg11.dtd">
<!-- Generated by graphviz version 2.40.1 (20161225.0304)
 -->
<!-- Title: %3 Pages: 1 -->
<svg width="653pt" height="177pt"
 viewBox="0.00 0.00 652.50 177.20" xmlns="http://www.w3.org/2000/svg" xmlns:xlink="http://www.w3.org/1999/xlink">
<g id="graph0" class="graph" transform="scale(1 1) rotate(0) translate(4 173.196)">
<title>%3</title>
<polygon fill="#ffffff" stroke="transparent" points="-4,4 -4,-173.196 648.5,-173.196 648.5,4 -4,4"/>
<!-- &#45;1 -->
<g id="node1" class="node">
<title>&#45;1</title>
<polygon fill="#d3d3d3" stroke="#000000" points="387,-169.196 363,-169.196 363,-151.196 387,-151.196 387,-169.196"/>
<text text-anchor="middle" x="375" y="-157.996" font-family="Times,serif" font-size="9.00" fill="#000000">&#45;1</text>
</g>
<!-- 1113 -->
<g id="node18" class="node">
<title>1113</title>
<ellipse fill="#ffffff" stroke="#000000" cx="303" cy="-90.4472" rx="25" ry="25"/>
<text text-anchor="middle" x="303" y="-88.2472" font-family="Times,serif" font-size="9.00" fill="#000000">1113</text>
</g>
<!-- &#45;1&#45;&gt;1113 -->
<g id="edge1" class="edge">
<title>&#45;1&#45;&gt;1113</title>
<path fill="none" stroke="#ff0000" stroke-width=".3759" d="M365.5873,-151.0775C356.1554,-141.9406 341.2223,-127.4744 328.3081,-114.964"/>
<polygon fill="#ff0000" stroke="#ff0000" stroke-width=".3759" points="330.6123,-112.3231 320.9945,-107.8791 325.7417,-117.3509 330.6123,-112.3231"/>
</g>
<!-- 1115 -->
<g id="node19" class="node">
<title>1115</title>
<ellipse fill="#ffffff" stroke="#000000" cx="236" cy="-90.4472" rx="25" ry="25"/>
<text text-anchor="middle" x="236" y="-88.2472" font-family="Times,serif" font-size="9.00" fill="#000000">1115</text>
</g>
<!-- &#45;1&#45;&gt;1115 -->
<g id="edge2" class="edge">
<title>&#45;1&#45;&gt;1115</title>
<path fill="none" stroke="#00ff00" stroke-width=".33" d="M362.5669,-154.8571C359.7509,-153.6508 356.7734,-152.3775 354,-151.196 316.2564,-135.1154 304.5616,-135.6541 269,-115.196 267.2774,-114.205 265.5406,-113.1381 263.8127,-112.0233"/>
<polygon fill="#00ff00" stroke="#00ff00" stroke-width=".33" points="265.5736,-108.9858 255.3569,-106.1807 261.5945,-114.7448 265.5736,-108.9858"/>
</g>
<!-- 1116 -->
<g id="node20" class="node">
<title>1116</title>
<ellipse fill="#ffffff" stroke="#000000" cx="437" cy="-90.4472" rx="25" ry="25"/>
<text text-anchor="middle" x="437" y="-88.2472" font-family="Times,serif" font-size="9.00" fill="#000000">1116</text>
</g>
<!-- &#45;1&#45;&gt;1116 -->
<g id="edge3" class="edge">
<title>&#45;1&#45;&gt;1116</title>
<path fill="none" stroke="#ff0000" stroke-width=".185" d="M383.1054,-151.0775C390.8601,-142.3537 402.9332,-128.7717 413.6885,-116.6722"/>
<polygon fill="#ff0000" stroke="#ff0000" stroke-width=".185" points="416.4794,-118.8006 420.5073,-109.0012 411.2476,-114.15 416.4794,-118.8006"/>
</g>
<!-- 1117 -->
<g id="node21" class="node">
<title>1117</title>
<ellipse fill="#ffffff" stroke="#000000" cx="370" cy="-90.4472" rx="25" ry="25"/>
<text text-anchor="middle" x="370" y="-88.2472" font-family="Times,serif" font-size="9.00" fill="#000000">1117</text>
</g>
<!-- &#45;1&#45;&gt;1117 -->
<g id="edge4" class="edge">
<title>&#45;1&#45;&gt;1117</title>
<path fill="none" stroke="#ff0000" stroke-width=".3004" d="M374.3463,-151.0775C373.8681,-144.4066 373.1863,-134.8948 372.504,-125.3775"/>
<polygon fill="#ff0000" stroke="#ff0000" stroke-width=".3004" points="375.9793,-124.9063 371.7731,-115.1822 368.9972,-125.4069 375.9793,-124.9063"/>
</g>
<!-- &#45;2 -->
<g id="node2" class="node">
<title>&#45;2</title>
<polygon fill="#d3d3d3" stroke="#000000" points="429,-169.196 405,-169.196 405,-151.196 429,-151.196 429,-169.196"/>
<text text-anchor="middle" x="417" y="-157.996" font-family="Times,serif" font-size="9.00" fill="#000000">&#45;2</text>
</g>
<!-- &#45;2&#45;&gt;1113 -->
<g id="edge5" class="edge">
<title>&#45;2&#45;&gt;1113</title>
<path fill="none" stroke="#00ff00" stroke-width=".3666" d="M404.8983,-154.1318C388.7988,-145.9172 359.6206,-130.5129 336,-115.196 334.3326,-114.1147 332.6389,-112.9771 330.9443,-111.808"/>
<polygon fill="#00ff00" stroke="#00ff00" stroke-width=".3666" points="332.7475,-108.7944 322.5799,-105.8158 328.6708,-114.4848 332.7475,-108.7944"/>
</g>
<!-- &#45;2&#45;&gt;1115 -->
<g id="edge6" class="edge">
<title>&#45;2&#45;&gt;1115</title>
<path fill="none" stroke="#00ff00" stroke-width=".4957" d="M404.6679,-154.598C401.8466,-153.4051 398.8414,-152.2029 396,-151.196 340.701,-131.6001 321.5739,-141.2336 269,-115.196 267.2192,-114.314 265.4367,-113.3324 263.6738,-112.2832"/>
<polygon fill="#00ff00" stroke="#00ff00" stroke-width=".4957" points="265.3917,-109.2231 255.1212,-106.6215 261.5277,-115.06 265.3917,-109.2231"/>
</g>
<!-- &#45;2&#45;&gt;1116 -->
<g id="edge7" class="edge">
<title>&#45;2&#45;&gt;1116</title>
<path fill="none" stroke="#00ff00" stroke-width=".3283" d="M419.6147,-151.0775C421.6158,-144.0985 424.5086,-134.0101 427.362,-124.0591"/>
<polygon fill="#00ff00" stroke="#00ff00" stroke-width=".3283" points="430.7758,-124.8514 430.1678,-114.274 424.047,-122.9219 430.7758,-124.8514"/>
</g>
<!-- &#45;2&#45;&gt;1117 -->
<g id="edge8" class="edge">
<title>&#45;2&#45;&gt;1117</title>
<path fill="none" stroke="#ff0000" stroke-width=".266" d="M410.8556,-151.0775C405.4226,-143.0149 397.1934,-130.8026 389.5409,-119.4462"/>
<polygon fill="#ff0000" stroke="#ff0000" stroke-width=".266" points="392.348,-117.3487 383.8573,-111.0116 386.5429,-121.2604 392.348,-117.3487"/>
</g>
<!-- &#45;3 -->
<g id="node3" class="node">
<title>&#45;3</title>
<polygon fill="#d3d3d3" stroke="#000000" points="471,-169.196 447,-169.196 447,-151.196 471,-151.196 471,-169.196"/>
<text text-anchor="middle" x="459" y="-157.996" font-family="Times,serif" font-size="9.00" fill="#000000">&#45;3</text>
</g>
<!-- &#45;3&#45;&gt;1113 -->
<g id="edge9" class="edge">
<title>&#45;3&#45;&gt;1113</title>
<path fill="none" stroke="#00ff00" stroke-width=".272" stroke-dasharray="1,5" d="M446.6187,-154.7302C443.8,-153.5304 440.8083,-152.292 438,-151.196 393.2157,-133.7179 378.3859,-137.8795 336,-115.196 334.2479,-114.2583 332.4878,-113.2331 330.7422,-112.1503"/>
<polygon fill="#00ff00" stroke="#00ff00" stroke-width=".272" points="332.481,-109.101 322.2373,-106.3962 328.5585,-114.8987 332.481,-109.101"/>
</g>
<!-- &#45;3&#45;&gt;1115 -->
<g id="edge10" class="edge">
<title>&#45;3&#45;&gt;1115</title>
<path fill="none" stroke="#00ff00" stroke-width=".1876" d="M446.7151,-154.4574C443.8914,-153.2718 440.8733,-152.1081 438,-151.196 364.8033,-127.9598 338.9112,-146.9781 269,-115.196 267.1909,-114.3735 265.3862,-113.4386 263.6063,-112.4252"/>
<polygon fill="#00ff00" stroke="#00ff00" stroke-width=".1876" points="265.3043,-109.3552 255.0069,-106.8622 261.5022,-115.2326 265.3043,-109.3552"/>
</g>
<!-- &#45;3&#45;&gt;1116 -->
<g id="edge11" class="edge">
<title>&#45;3&#45;&gt;1116</title>
<path fill="none" stroke="#00ff00" stroke-width=".4811" d="M456.1239,-151.0775C453.9226,-144.0985 450.7405,-134.0101 447.6018,-124.0591"/>
<polygon fill="#00ff00" stroke="#00ff00" stroke-width=".4811" points="450.8614,-122.758 444.5154,-114.274 444.1856,-124.8637 450.8614,-122.758"/>
</g>
<!-- &#45;3&#45;&gt;1117 -->
<g id="edge12" class="edge">
<title>&#45;3&#45;&gt;1117</title>
<path fill="none" stroke="#00ff00" stroke-width=".1895" stroke-dasharray="1,5" d="M447.3648,-151.0775C434.9263,-141.3296 414.7478,-125.5158 398.1173,-112.4826"/>
<polygon fill="#00ff00" stroke="#00ff00" stroke-width=".1895" points="399.8337,-109.3809 389.8038,-105.9673 395.5158,-114.8906 399.8337,-109.3809"/>
</g>
<!-- &#45;4 -->
<g id="node4" class="node">
<title>&#45;4</title>
<polygon fill="#d3d3d3" stroke="#000000" points="513,-169.196 489,-169.196 489,-151.196 513,-151.196 513,-169.196"/>
<text text-anchor="middle" x="501" y="-157.996" font-family="Times,serif" font-size="9.00" fill="#000000">&#45;4</text>
</g>
<!-- &#45;4&#45;&gt;1113 -->
<g id="edge13" class="edge">
<title>&#45;4&#45;&gt;1113</title>
<path fill="none" stroke="#ff0000" stroke-width=".4149" d="M488.6907,-154.532C485.8682,-153.3425 482.8568,-152.1584 480,-151.196 417.4824,-130.1353 395.5669,-143.5471 336,-115.196 334.2056,-114.3419 332.4125,-113.3822 330.6414,-112.3498"/>
<polygon fill="#ff0000" stroke="#ff0000" stroke-width=".4149" points="332.3497,-109.2848 322.0664,-106.7344 328.5148,-115.1409 332.3497,-109.2848"/>
</g>
<!-- &#45;4&#45;&gt;1115 -->
<g id="edge14" class="edge">
<title>&#45;4&#45;&gt;1115</title>
<path fill="none" stroke="#ff0000" stroke-width=".5" d="M488.7418,-154.37C485.9168,-153.189 482.8913,-152.0491 480,-151.196 388.7567,-124.2715 356.3906,-152.7879 269,-115.196 267.1745,-114.4107 265.3569,-113.5049 263.5671,-112.5138"/>
<polygon fill="#ff0000" stroke="#ff0000" stroke-width=".5" points="265.2539,-109.4384 254.9405,-107.0125 261.49,-115.3404 265.2539,-109.4384"/>
</g>
<!-- &#45;4&#45;&gt;1116 -->
<g id="edge15" class="edge">
<title>&#45;4&#45;&gt;1116</title>
<path fill="none" stroke="#ff0000" stroke-width=".3995" stroke-dasharray="1,5" d="M492.6331,-151.0775C484.5727,-142.2931 471.9924,-128.5828 460.8324,-116.4204"/>
<polygon fill="#ff0000" stroke="#ff0000" stroke-width=".3995" points="463.1054,-113.7207 453.7656,-108.7188 457.9477,-118.4533 463.1054,-113.7207"/>
</g>
<!-- &#45;4&#45;&gt;1117 -->
<g id="edge16" class="edge">
<title>&#45;4&#45;&gt;1117</title>
<path fill="none" stroke="#ff0000" stroke-width=".2272" d="M488.9364,-155.0405C466.3414,-145.3215 418.5239,-124.4377 403,-115.196 401.2924,-114.1794 399.5673,-113.0924 397.8484,-111.9622"/>
<polygon fill="#ff0000" stroke="#ff0000" stroke-width=".2272" points="399.6207,-108.931 389.4174,-106.0773 395.6141,-114.671 399.6207,-108.931"/>
</g>
<!-- &#45;5 -->
<g id="node5" class="node">
<title>&#45;5</title>
<polygon fill="#d3d3d3" stroke="#000000" points="555,-169.196 531,-169.196 531,-151.196 555,-151.196 555,-169.196"/>
<text text-anchor="middle" x="543" y="-157.996" font-family="Times,serif" font-size="9.00" fill="#000000">&#45;5</text>
</g>
<!-- &#45;5&#45;&gt;1113 -->
<g id="edge17" class="edge">
<title>&#45;5&#45;&gt;1113</title>
<path fill="none" stroke="#00ff00" stroke-width=".2919" stroke-dasharray="1,5" d="M530.7275,-154.4175C527.9032,-153.234 524.8817,-152.0812 522,-151.196 441.5112,-126.4708 412.9742,-149.3244 336,-115.196 334.1833,-114.3905 332.3727,-113.4688 330.5882,-112.4656"/>
<polygon fill="#00ff00" stroke="#00ff00" stroke-width=".2919" points="332.2809,-109.393 321.9762,-106.9307 328.4963,-115.2817 332.2809,-109.393"/>
</g>
<!-- &#45;5&#45;&gt;1115 -->
<g id="edge18" class="edge">
<title>&#45;5&#45;&gt;1115</title>
<path fill="none" stroke="#ff0000" stroke-width=".401" d="M530.7589,-154.3106C527.9329,-153.1326 524.9028,-152.0091 522,-151.196 412.6327,-120.5603 373.9441,-158.6297 269,-115.196 267.1142,-114.4155 265.2392,-113.502 263.3961,-112.4949"/>
<polygon fill="#ff0000" stroke="#ff0000" stroke-width=".401" points="264.8585,-109.2769 254.5429,-106.8604 261.1001,-115.1824 264.8585,-109.2769"/>
</g>
<!-- &#45;5&#45;&gt;1116 -->
<g id="edge19" class="edge">
<title>&#45;5&#45;&gt;1116</title>
<path fill="none" stroke="#00ff00" stroke-width=".4821" d="M530.8405,-152.1949C515.1636,-141.8794 487.3907,-123.6047 466.113,-109.6038"/>
<polygon fill="#00ff00" stroke="#00ff00" stroke-width=".4821" points="468.0145,-106.6652 457.7368,-104.0922 464.1667,-112.5129 468.0145,-106.6652"/>
</g>
<!-- &#45;5&#45;&gt;1117 -->
<g id="edge20" class="edge">
<title>&#45;5&#45;&gt;1117</title>
<path fill="none" stroke="#00ff00" stroke-width=".5" d="M530.6546,-154.6349C527.834,-153.4401 524.8325,-152.2278 522,-151.196 470.0813,-132.2836 452.299,-140.1528 403,-115.196 401.227,-114.2984 399.4506,-113.3046 397.6924,-112.246"/>
<polygon fill="#00ff00" stroke="#00ff00" stroke-width=".5" points="399.416,-109.1888 389.1528,-106.5584 395.5356,-115.0148 399.416,-109.1888"/>
</g>
<!-- &#45;6 -->
<g id="node6" class="node">
<title>&#45;6</title>
<polygon fill="#d3d3d3" stroke="#000000" points="597,-169.196 573,-169.196 573,-151.196 597,-151.196 597,-169.196"/>
<text text-anchor="middle" x="585" y="-157.996" font-family="Times,serif" font-size="9.00" fill="#000000">&#45;6</text>
</g>
<!-- &#45;6&#45;&gt;1113 -->
<g id="edge21" class="edge">
<title>&#45;6&#45;&gt;1113</title>
<path fill="none" stroke="#ff0000" stroke-width=".4614" d="M572.7496,-154.3434C569.9241,-153.1638 566.8966,-152.0312 564,-151.196 465.4278,-122.7714 430.4889,-155.1496 336,-115.196 334.1696,-114.422 332.3483,-113.525 330.5556,-112.5408"/>
<polygon fill="#ff0000" stroke="#ff0000" stroke-width=".4614" points="332.2391,-109.4638 321.921,-107.0582 328.4869,-115.3733 332.2391,-109.4638"/>
</g>
<!-- &#45;6&#45;&gt;1115 -->
<g id="edge22" class="edge">
<title>&#45;6&#45;&gt;1115</title>
<path fill="none" stroke="#00ff00" stroke-width=".1552" d="M572.7707,-154.2677C569.9441,-153.092 566.9108,-151.9802 564,-151.196 436.4636,-116.8363 391.5409,-164.4895 269,-115.196 267.1065,-114.4343 265.2256,-113.5354 263.3779,-112.5394"/>
<polygon fill="#00ff00" stroke="#00ff00" stroke-width=".1552" points="264.8354,-109.3201 254.5125,-106.9348 261.0948,-115.2369 264.8354,-109.3201"/>
</g>
<!-- &#45;6&#45;&gt;1116 -->
<g id="edge23" class="edge">
<title>&#45;6&#45;&gt;1116</title>
<path fill="none" stroke="#ff0000" stroke-width=".1366" d="M572.8885,-154.4881C550.3311,-143.8574 501.2218,-120.7134 468.637,-105.357"/>
<polygon fill="#ff0000" stroke="#ff0000" stroke-width=".1366" points="470.0499,-102.1536 459.512,-101.0566 467.0657,-108.4857 470.0499,-102.1536"/>
</g>
<!-- &#45;6&#45;&gt;1117 -->
<g id="edge24" class="edge">
<title>&#45;6&#45;&gt;1117</title>
<path fill="none" stroke="#00ff00" stroke-width=".4753" d="M572.7082,-154.4789C569.8848,-153.2922 566.8686,-152.1226 564,-151.196 494.2272,-128.6581 469.5947,-145.8773 403,-115.196 401.1951,-114.3644 399.3937,-113.4223 397.6163,-112.4034"/>
<polygon fill="#00ff00" stroke="#00ff00" stroke-width=".4753" points="399.3172,-109.3348 389.0238,-106.8253 395.5056,-115.2061 399.3172,-109.3348"/>
</g>
<!-- &#45;7 -->
<g id="node7" class="node">
<title>&#45;7</title>
<polygon fill="#d3d3d3" stroke="#000000" points="114,-169.196 90,-169.196 90,-151.196 114,-151.196 114,-169.196"/>
<text text-anchor="middle" x="102" y="-157.996" font-family="Times,serif" font-size="9.00" fill="#000000">&#45;7</text>
</g>
<!-- &#45;7&#45;&gt;1113 -->
<g id="edge25" class="edge">
<title>&#45;7&#45;&gt;1113</title>
<path fill="none" stroke="#ff0000" stroke-width=".1742" d="M114.3059,-154.5218C117.1285,-153.3329 120.1409,-152.1515 123,-151.196 186.7956,-129.8754 209.1951,-143.9573 270,-115.196 271.7964,-114.3462 273.5912,-113.3899 275.3635,-112.3601"/>
<polygon fill="#ff0000" stroke="#ff0000" stroke-width=".1742" points="277.4871,-115.1534 283.9419,-106.7518 273.6566,-109.2944 277.4871,-115.1534"/>
</g>
<!-- &#45;7&#45;&gt;1115 -->
<g id="edge26" class="edge">
<title>&#45;7&#45;&gt;1115</title>
<path fill="none" stroke="#ff0000" stroke-width=".3115" d="M114.3662,-153.7592C134.7399,-143.1544 175.9682,-121.6946 204.7498,-106.7134"/>
<polygon fill="#ff0000" stroke="#ff0000" stroke-width=".3115" points="206.7309,-109.628 213.9852,-101.9062 203.4989,-103.4188 206.7309,-109.628"/>
</g>
<!-- &#45;7&#45;&gt;1116 -->
<g id="edge27" class="edge">
<title>&#45;7&#45;&gt;1116</title>
<path fill="none" stroke="#ff0000" stroke-width=".2794" stroke-dasharray="1,5" d="M114.2328,-154.2806C117.0592,-153.1042 120.0916,-151.9889 123,-151.196 244.4762,-118.0786 287.3284,-162.5348 404,-115.196 405.8912,-114.4286 407.7704,-113.5254 409.6167,-112.526"/>
<polygon fill="#ff0000" stroke="#ff0000" stroke-width=".2794" points="411.9037,-115.2205 418.4784,-106.9124 408.1577,-109.3071 411.9037,-115.2205"/>
</g>
<!-- &#45;7&#45;&gt;1117 -->
<g id="edge28" class="edge">
<title>&#45;7&#45;&gt;1117</title>
<path fill="none" stroke="#ff0000" stroke-width=".3942" d="M114.2567,-154.365C117.0819,-153.1842 120.1077,-152.0458 123,-151.196 215.5359,-124.007 248.3575,-153.2043 337,-115.196 338.8264,-114.4128 340.6447,-113.5086 342.435,-112.5189"/>
<polygon fill="#ff0000" stroke="#ff0000" stroke-width=".3942" points="344.5106,-115.3466 351.0632,-107.0211 340.7489,-109.4431 344.5106,-115.3466"/>
</g>
<!-- &#45;8 -->
<g id="node8" class="node">
<title>&#45;8</title>
<polygon fill="#d3d3d3" stroke="#000000" points="24,-169.196 0,-169.196 0,-151.196 24,-151.196 24,-169.196"/>
<text text-anchor="middle" x="12" y="-157.996" font-family="Times,serif" font-size="9.00" fill="#000000">&#45;8</text>
</g>
<!-- &#45;8&#45;&gt;1113 -->
<g id="edge29" class="edge">
<title>&#45;8&#45;&gt;1113</title>
<path fill="none" stroke="#ff0000" stroke-width=".1847" d="M24.3857,-154.5313C27.4765,-153.285 30.8181,-152.076 34,-151.196 136.2625,-122.9108 172.1674,-156.2624 270,-115.196 271.8819,-114.406 273.7538,-113.4852 275.5946,-112.4725"/>
<polygon fill="#ff0000" stroke="#ff0000" stroke-width=".1847" points="277.8971,-115.155 284.4415,-106.8231 274.1296,-109.2552 277.8971,-115.155"/>
</g>
<!-- &#45;8&#45;&gt;1115 -->
<g id="edge30" class="edge">
<title>&#45;8&#45;&gt;1115</title>
<path fill="none" stroke="#ff0000" stroke-width=".3171" d="M24.0232,-155.0336C27.2403,-153.7193 30.7323,-152.3527 34,-151.196 92.2749,-130.5672 161.5277,-110.7297 201.9426,-99.6094"/>
<polygon fill="#ff0000" stroke="#ff0000" stroke-width=".3171" points="203.093,-102.9234 211.815,-96.9088 201.2459,-96.1715 203.093,-102.9234"/>
</g>
<!-- &#45;8&#45;&gt;1117 -->
<g id="edge31" class="edge">
<title>&#45;8&#45;&gt;1117</title>
<path fill="none" stroke="#ff0000" stroke-width=".3394" d="M24.3656,-154.4564C27.457,-153.2124 30.804,-152.0232 34,-151.196 165.2869,-117.2127 211.1039,-165.6071 337,-115.196 338.8947,-114.4373 340.7766,-113.5408 342.6249,-112.5466"/>
<polygon fill="#ff0000" stroke="#ff0000" stroke-width=".3394" points="344.906,-115.2456 351.4922,-106.9467 341.1682,-109.327 344.906,-115.2456"/>
</g>
<!-- &#45;9 -->
<g id="node9" class="node">
<title>&#45;9</title>
<polygon fill="#d3d3d3" stroke="#000000" points="156,-169.196 132,-169.196 132,-151.196 156,-151.196 156,-169.196"/>
<text text-anchor="middle" x="144" y="-157.996" font-family="Times,serif" font-size="9.00" fill="#000000">&#45;9</text>
</g>
<!-- &#45;9&#45;&gt;1113 -->
<g id="edge32" class="edge">
<title>&#45;9&#45;&gt;1113</title>
<path fill="none" stroke="#00ff00" stroke-width=".2031" d="M156.0563,-155.1242C159.2732,-153.8093 162.7567,-152.4196 166,-151.196 211.7642,-133.9294 226.8047,-138.145 270,-115.196 271.755,-114.2636 273.5172,-113.2425 275.2645,-112.163"/>
<polygon fill="#00ff00" stroke="#00ff00" stroke-width=".2031" points="277.4448,-114.9141 283.7742,-106.4176 273.5278,-109.1126 277.4448,-114.9141"/>
</g>
<!-- &#45;9&#45;&gt;1115 -->
<g id="edge33" class="edge">
<title>&#45;9&#45;&gt;1115</title>
<path fill="none" stroke="#ff0000" stroke-width=".3577" stroke-dasharray="1,5" d="M156.0274,-151.0775C169.1705,-141.1132 190.6737,-124.8108 208.0741,-111.6189"/>
<polygon fill="#ff0000" stroke="#ff0000" stroke-width=".3577" points="210.3776,-114.2647 216.2319,-105.4342 206.1486,-108.6866 210.3776,-114.2647"/>
</g>
<!-- &#45;9&#45;&gt;1116 -->
<g id="edge34" class="edge">
<title>&#45;9&#45;&gt;1116</title>
<path fill="none" stroke="#ff0000" stroke-width=".2299" d="M156.3849,-154.5285C159.4757,-153.2822 162.8176,-152.0741 166,-151.196 269.1274,-122.7411 305.3311,-156.5408 404,-115.196 405.8824,-114.4072 407.7547,-113.4873 409.5957,-112.4753"/>
<polygon fill="#ff0000" stroke="#ff0000" stroke-width=".2299" points="411.8974,-115.1584 418.4435,-106.8277 408.1311,-109.2579 411.8974,-115.1584"/>
</g>
<!-- &#45;9&#45;&gt;1117 -->
<g id="edge35" class="edge">
<title>&#45;9&#45;&gt;1117</title>
<path fill="none" stroke="#00ff00" stroke-width=".5" stroke-dasharray="1,5" d="M156.4224,-154.6574C159.5122,-153.4073 162.8441,-152.165 166,-151.196 240.245,-128.3994 266.2589,-147.2537 337,-115.196 338.8101,-114.3757 340.6155,-113.4424 342.396,-112.4304"/>
<polygon fill="#00ff00" stroke="#00ff00" stroke-width=".5" points="344.4986,-115.2388 350.997,-106.8709 340.6987,-109.36 344.4986,-115.2388"/>
</g>
<!-- &#45;10 -->
<g id="node10" class="node">
<title>&#45;10</title>
<polygon fill="#d3d3d3" stroke="#000000" points="71.5,-169.196 42.5,-169.196 42.5,-151.196 71.5,-151.196 71.5,-169.196"/>
<text text-anchor="middle" x="57" y="-157.996" font-family="Times,serif" font-size="9.00" fill="#000000">&#45;10</text>
</g>
<!-- &#45;10&#45;&gt;1113 -->
<g id="edge36" class="edge">
<title>&#45;10&#45;&gt;1113</title>
<path fill="none" stroke="#00ff00" stroke-width=".2112" d="M71.5915,-154.2724C74.667,-153.1519 77.9151,-152.0614 81,-151.196 163.332,-128.0997 191.7775,-149.7393 270,-115.196 271.8179,-114.3932 273.6294,-113.4736 275.4146,-112.4721"/>
<polygon fill="#00ff00" stroke="#00ff00" stroke-width=".2112" points="277.5046,-115.2896 284.0286,-106.9416 273.7227,-109.3991 277.5046,-115.2896"/>
</g>
<!-- &#45;10&#45;&gt;1115 -->
<g id="edge37" class="edge">
<title>&#45;10&#45;&gt;1115</title>
<path fill="none" stroke="#ff0000" stroke-width=".1282" d="M71.6483,-154.4881C100.2826,-143.3306 164.2918,-118.3889 203.4414,-103.1339"/>
<polygon fill="#ff0000" stroke="#ff0000" stroke-width=".1282" points="204.7756,-106.3705 212.8225,-99.4785 202.2341,-99.8481 204.7756,-106.3705"/>
</g>
<!-- &#45;10&#45;&gt;1116 -->
<g id="edge38" class="edge">
<title>&#45;10&#45;&gt;1116</title>
<path fill="none" stroke="#00ff00" stroke-width=".3975" d="M71.5433,-154.0869C74.6223,-152.9798 77.884,-151.9416 81,-151.196 221.4782,-117.5794 269.712,-168.4025 404,-115.196 405.8975,-114.4442 407.7815,-113.553 409.6314,-112.5629"/>
<polygon fill="#00ff00" stroke="#00ff00" stroke-width=".3975" points="411.9077,-115.2656 418.5031,-106.974 408.1765,-109.3429 411.9077,-115.2656"/>
</g>
<!-- &#45;11 -->
<g id="node11" class="node">
<title>&#45;11</title>
<polygon fill="#d3d3d3" stroke="#000000" points="203.5,-169.196 174.5,-169.196 174.5,-151.196 203.5,-151.196 203.5,-169.196"/>
<text text-anchor="middle" x="189" y="-157.996" font-family="Times,serif" font-size="9.00" fill="#000000">&#45;11</text>
</g>
<!-- &#45;11&#45;&gt;1113 -->
<g id="edge39" class="edge">
<title>&#45;11&#45;&gt;1113</title>
<path fill="none" stroke="#00ff00" stroke-width=".1247" d="M203.6868,-152.8084C220.1877,-144.333 247.5941,-129.7251 270,-115.196 271.6674,-114.1147 273.3611,-112.9771 275.0557,-111.808"/>
<polygon fill="#00ff00" stroke="#00ff00" stroke-width=".1247" points="277.3292,-114.4848 283.4201,-105.8158 273.2525,-108.7944 277.3292,-114.4848"/>
</g>
<!-- &#45;11&#45;&gt;1115 -->
<g id="edge40" class="edge">
<title>&#45;11&#45;&gt;1115</title>
<path fill="none" stroke="#00ff00" stroke-width=".5" d="M195.1444,-151.0775C200.5774,-143.0149 208.8066,-130.8026 216.4591,-119.4462"/>
<polygon fill="#00ff00" stroke="#00ff00" stroke-width=".5" points="219.4571,-121.2604 222.1427,-111.0116 213.652,-117.3487 219.4571,-121.2604"/>
</g>
<!-- &#45;11&#45;&gt;1116 -->
<g id="edge41" class="edge">
<title>&#45;11&#45;&gt;1116</title>
<path fill="none" stroke="#ff0000" stroke-width=".2284" d="M203.5903,-154.2678C206.6658,-153.1476 209.9143,-152.0584 213,-151.196 296.1953,-127.9439 324.945,-150.016 404,-115.196 405.8187,-114.3949 407.6308,-113.4767 409.4165,-112.4762"/>
<polygon fill="#ff0000" stroke="#ff0000" stroke-width=".2284" points="411.5052,-115.2946 418.0318,-106.9487 407.7251,-109.403 411.5052,-115.2946"/>
</g>
<!-- &#45;11&#45;&gt;1117 -->
<g id="edge42" class="edge">
<title>&#45;11&#45;&gt;1117</title>
<path fill="none" stroke="#00ff00" stroke-width=".2241" d="M203.6601,-154.4964C206.7306,-153.3596 209.9593,-152.2058 213,-151.196 267.4615,-133.1079 285.6556,-140.8276 337,-115.196 338.778,-114.3083 340.5583,-113.3224 342.3196,-112.2698"/>
<polygon fill="#00ff00" stroke="#00ff00" stroke-width=".2241" points="344.4695,-115.0437 350.8674,-106.5987 340.5996,-109.2107 344.4695,-115.0437"/>
</g>
<!-- &#45;12 -->
<g id="node12" class="node">
<title>&#45;12</title>
<polygon fill="#d3d3d3" stroke="#000000" points="250.5,-169.196 221.5,-169.196 221.5,-151.196 250.5,-151.196 250.5,-169.196"/>
<text text-anchor="middle" x="236" y="-157.996" font-family="Times,serif" font-size="9.00" fill="#000000">&#45;12</text>
</g>
<!-- &#45;12&#45;&gt;1113 -->
<g id="edge43" class="edge">
<title>&#45;12&#45;&gt;1113</title>
<path fill="none" stroke="#ff0000" stroke-width=".5" d="M244.7591,-151.0775C253.3364,-142.1483 266.8029,-128.1294 278.627,-115.8201"/>
<polygon fill="#ff0000" stroke="#ff0000" stroke-width=".5" points="281.3152,-118.074 285.7186,-108.4376 276.2669,-113.2247 281.3152,-118.074"/>
</g>
<!-- &#45;12&#45;&gt;1115 -->
<g id="edge44" class="edge">
<title>&#45;12&#45;&gt;1115</title>
<path fill="none" stroke="#ff0000" stroke-width=".1454" d="M236,-151.0775C236,-144.4608 236,-135.0493 236,-125.6096"/>
<polygon fill="#ff0000" stroke="#ff0000" stroke-width=".1454" points="239.5001,-125.4865 236,-115.4865 232.5001,-125.4865 239.5001,-125.4865"/>
</g>
<!-- &#45;12&#45;&gt;1116 -->
<g id="edge45" class="edge">
<title>&#45;12&#45;&gt;1116</title>
<path fill="none" stroke="#ff0000" stroke-width=".4096" d="M250.6315,-154.4076C253.7041,-153.2772 256.9409,-152.1485 260,-151.196 322.9866,-131.5825 344.4331,-143.5471 404,-115.196 405.7944,-114.3419 407.5875,-113.3822 409.3586,-112.3498"/>
<polygon fill="#ff0000" stroke="#ff0000" stroke-width=".4096" points="411.4852,-115.1409 417.9336,-106.7344 407.6503,-109.2848 411.4852,-115.1409"/>
</g>
<!-- &#45;12&#45;&gt;1117 -->
<g id="edge46" class="edge">
<title>&#45;12&#45;&gt;1117</title>
<path fill="none" stroke="#ff0000" stroke-width=".1801" d="M250.6843,-154.1328C274.7663,-144.1094 321.5257,-124.2899 337,-115.196 338.7133,-114.1891 340.4429,-113.1097 342.1652,-111.9853"/>
<polygon fill="#ff0000" stroke="#ff0000" stroke-width=".1801" points="344.3935,-114.6989 350.6057,-106.1164 340.3973,-108.9517 344.3935,-114.6989"/>
</g>
<!-- &#45;13 -->
<g id="node13" class="node">
<title>&#45;13</title>
<polygon fill="#d3d3d3" stroke="#000000" points="297.5,-169.196 268.5,-169.196 268.5,-151.196 297.5,-151.196 297.5,-169.196"/>
<text text-anchor="middle" x="283" y="-157.996" font-family="Times,serif" font-size="9.00" fill="#000000">&#45;13</text>
</g>
<!-- &#45;13&#45;&gt;1113 -->
<g id="edge47" class="edge">
<title>&#45;13&#45;&gt;1113</title>
<path fill="none" stroke="#00ff00" stroke-width=".3356" d="M285.6147,-151.0775C287.6158,-144.0985 290.5086,-134.0101 293.362,-124.0591"/>
<polygon fill="#00ff00" stroke="#00ff00" stroke-width=".3356" points="296.7758,-124.8514 296.1678,-114.274 290.047,-122.9219 296.7758,-124.8514"/>
</g>
<!-- &#45;13&#45;&gt;1115 -->
<g id="edge48" class="edge">
<title>&#45;13&#45;&gt;1115</title>
<path fill="none" stroke="#00ff00" stroke-width=".2122" d="M276.8556,-151.0775C271.4226,-143.0149 263.1934,-130.8026 255.5409,-119.4462"/>
<polygon fill="#00ff00" stroke="#00ff00" stroke-width=".2122" points="258.348,-117.3487 249.8573,-111.0116 252.5429,-121.2604 258.348,-117.3487"/>
</g>
<!-- &#45;13&#45;&gt;1116 -->
<g id="edge49" class="edge">
<title>&#45;13&#45;&gt;1116</title>
<path fill="none" stroke="#00ff00" stroke-width=".2167" stroke-dasharray="1,5" d="M297.7202,-154.6669C300.7863,-153.5177 303.9981,-152.3159 307,-151.196 350.0839,-135.1228 363.6322,-137.2189 404,-115.196 405.7445,-114.2442 407.4986,-113.208 409.2397,-112.1168"/>
<polygon fill="#00ff00" stroke="#00ff00" stroke-width=".2167" points="411.4327,-114.8581 417.732,-106.3393 407.4952,-109.0705 411.4327,-114.8581"/>
</g>
<!-- &#45;13&#45;&gt;1117 -->
<g id="edge50" class="edge">
<title>&#45;13&#45;&gt;1117</title>
<path fill="none" stroke="#ff0000" stroke-width=".3969" d="M294.3737,-151.0775C306.5327,-141.3296 326.2578,-125.5158 342.5146,-112.4826"/>
<polygon fill="#ff0000" stroke="#ff0000" stroke-width=".3969" points="345.0283,-114.9532 350.6412,-105.9673 340.6497,-109.4917 345.0283,-114.9532"/>
</g>
<!-- &#45;14 -->
<g id="node14" class="node">
<title>&#45;14</title>
<polygon fill="#d3d3d3" stroke="#000000" points="644.5,-169.196 615.5,-169.196 615.5,-151.196 644.5,-151.196 644.5,-169.196"/>
<text text-anchor="middle" x="630" y="-157.996" font-family="Times,serif" font-size="9.00" fill="#000000">&#45;14</text>
</g>
<!-- &#45;14&#45;&gt;1113 -->
<g id="edge51" class="edge">
<title>&#45;14&#45;&gt;1113</title>
<path fill="none" stroke="#ff0000" stroke-width=".4476" stroke-dasharray="1,5" d="M615.4439,-154.1389C612.3659,-153.028 609.1078,-151.9752 606,-151.196 488.5727,-121.754 448.0625,-160.9999 336,-115.196 334.1107,-114.4238 332.2331,-113.5167 330.388,-112.5145"/>
<polygon fill="#ff0000" stroke="#ff0000" stroke-width=".4476" points="331.8482,-109.2959 321.5294,-106.8933 328.0977,-115.2064 331.8482,-109.2959"/>
</g>
<!-- &#45;14&#45;&gt;1116 -->
<g id="edge52" class="edge">
<title>&#45;14&#45;&gt;1116</title>
<path fill="none" stroke="#00ff00" stroke-width=".5" d="M615.2887,-154.6429C612.2219,-153.4955 609.0076,-152.3004 606,-151.196 558.8509,-133.8823 504.118,-114.3025 470.0173,-102.1649"/>
<polygon fill="#00ff00" stroke="#00ff00" stroke-width=".5" points="471.1437,-98.8509 460.549,-98.7974 468.798,-105.4461 471.1437,-98.8509"/>
</g>
<!-- &#45;14&#45;&gt;1117 -->
<g id="edge53" class="edge">
<title>&#45;14&#45;&gt;1117</title>
<path fill="none" stroke="#00ff00" stroke-width=".2909" d="M615.4169,-154.242C612.3408,-153.1237 609.0904,-152.0417 606,-151.196 517.6202,-127.0078 487.0541,-151.6781 403,-115.196 401.177,-114.4047 399.3615,-113.4942 397.5733,-112.4996"/>
<polygon fill="#00ff00" stroke="#00ff00" stroke-width=".2909" points="399.2617,-109.425 388.9509,-106.9884 395.4918,-115.3231 399.2617,-109.425"/>
</g>
<!-- &#45;15 -->
<g id="node15" class="node">
<title>&#45;15</title>
<polygon fill="#d3d3d3" stroke="#000000" points="344.5,-169.196 315.5,-169.196 315.5,-151.196 344.5,-151.196 344.5,-169.196"/>
<text text-anchor="middle" x="330" y="-157.996" font-family="Times,serif" font-size="9.00" fill="#000000">&#45;15</text>
</g>
<!-- &#45;15&#45;&gt;1113 -->
<g id="edge54" class="edge">
<title>&#45;15&#45;&gt;1113</title>
<path fill="none" stroke="#00ff00" stroke-width=".1318" d="M326.4702,-151.0775C323.6971,-143.9138 319.6559,-133.4742 315.7057,-123.2696"/>
<polygon fill="#00ff00" stroke="#00ff00" stroke-width=".1318" points="318.8647,-121.7347 311.9906,-113.6725 312.3367,-124.2617 318.8647,-121.7347"/>
</g>
<!-- &#45;15&#45;&gt;1115 -->
<g id="edge55" class="edge">
<title>&#45;15&#45;&gt;1115</title>
<path fill="none" stroke="#ff0000" stroke-width=".2914" d="M317.3611,-150.917C305.0097,-141.8385 285.6838,-127.6056 269,-115.196 267.4055,-114.0099 265.7689,-112.7902 264.118,-111.5581"/>
<polygon fill="#ff0000" stroke="#ff0000" stroke-width=".2914" points="265.9787,-108.579 255.8745,-105.392 261.7859,-114.1844 265.9787,-108.579"/>
</g>
<!-- &#45;15&#45;&gt;1116 -->
<g id="edge56" class="edge">
<title>&#45;15&#45;&gt;1116</title>
<path fill="none" stroke="#00ff00" stroke-width=".1676" stroke-dasharray="1,5" d="M344.7255,-151.8094C359.8511,-143.064 383.9509,-128.7632 404,-115.196 405.6458,-114.0822 407.3226,-112.9191 409.0043,-111.7305"/>
<polygon fill="#00ff00" stroke="#00ff00" stroke-width=".1676" points="411.2966,-114.3914 417.3329,-105.6843 407.1843,-108.7267 411.2966,-114.3914"/>
</g>
<!-- &#45;15&#45;&gt;1117 -->
<g id="edge57" class="edge">
<title>&#45;15&#45;&gt;1117</title>
<path fill="none" stroke="#ff0000" stroke-width=".2235" d="M335.2293,-151.0775C339.6301,-143.4038 346.1866,-131.971 352.424,-121.0948"/>
<polygon fill="#ff0000" stroke="#ff0000" stroke-width=".2235" points="355.5952,-122.6005 357.5339,-112.1845 349.5229,-119.118 355.5952,-122.6005"/>
</g>
<!-- 0 -->
<g id="node16" class="node">
<title>0</title>
<ellipse fill="#add8e6" stroke="#000000" cx="365" cy="-14.8492" rx="14.7" ry="14.7"/>
<text text-anchor="middle" x="365" y="-12.6492" font-family="Times,serif" font-size="9.00" fill="#000000">0</text>
</g>
<!-- 1 -->
<g id="node17" class="node">
<title>1</title>
<ellipse fill="#add8e6" stroke="#000000" cx="312" cy="-14.8492" rx="14.7" ry="14.7"/>
<text text-anchor="middle" x="312" y="-12.6492" font-family="Times,serif" font-size="9.00" fill="#000000">1</text>
</g>
<!-- 1113&#45;&gt;0 -->
<g id="edge58" class="edge">
<title>1113&#45;&gt;0</title>
<path fill="none" stroke="#ff0000" stroke-width=".4866" stroke-dasharray="1,5" d="M318.9665,-70.9789C328.1157,-59.823 339.5701,-45.8565 348.764,-34.6461"/>
<polygon fill="#ff0000" stroke="#ff0000" stroke-width=".4866" points="351.6433,-36.6547 355.2784,-26.703 346.2307,-32.2157 351.6433,-36.6547"/>
</g>
<!-- 1113&#45;&gt;1 -->
<g id="edge59" class="edge">
<title>1113&#45;&gt;1</title>
<path fill="none" stroke="#00ff00" stroke-width=".2237" d="M305.9469,-65.6936C306.9307,-57.4298 308.0274,-48.2178 309.0142,-39.9294"/>
<polygon fill="#00ff00" stroke="#00ff00" stroke-width=".2237" points="312.5225,-40.0666 310.2293,-29.7229 305.5716,-39.239 312.5225,-40.0666"/>
</g>
<!-- 1115&#45;&gt;0 -->
<g id="edge60" class="edge">
<title>1115&#45;&gt;0</title>
<path fill="none" stroke="#ff0000" stroke-width=".4932" stroke-dasharray="1,5" d="M255.5366,-75.011C259.8798,-71.8027 264.525,-68.5372 269,-65.6985 275.8439,-61.3571 316.778,-39.9207 342.9372,-26.3035"/>
<polygon fill="#ff0000" stroke="#ff0000" stroke-width=".4932" points="344.5585,-29.4054 351.8158,-21.6865 341.3289,-23.1949 344.5585,-29.4054"/>
</g>
<!-- 1115&#45;&gt;1 -->
<g id="edge61" class="edge">
<title>1115&#45;&gt;1</title>
<path fill="none" stroke="#00ff00" stroke-width=".1977" d="M253.627,-72.9135C265.7131,-60.8913 281.703,-44.9859 293.8912,-32.8623"/>
<polygon fill="#00ff00" stroke="#00ff00" stroke-width=".1977" points="296.6507,-35.054 301.2722,-25.5202 291.7141,-30.0911 296.6507,-35.054"/>
</g>
<!-- 1116&#45;&gt;0 -->
<g id="edge62" class="edge">
<title>1116&#45;&gt;0</title>
<path fill="none" stroke="#00ff00" stroke-width=".4163" d="M419.5708,-72.1471C408.3443,-60.3595 393.7997,-45.0881 382.5495,-33.2757"/>
<polygon fill="#00ff00" stroke="#00ff00" stroke-width=".4163" points="384.7997,-30.5634 375.3685,-25.7359 379.7308,-35.3911 384.7997,-30.5634"/>
</g>
<!-- 1116&#45;&gt;1 -->
<g id="edge63" class="edge">
<title>1116&#45;&gt;1</title>
<path fill="none" stroke="#ff0000" stroke-width=".1507" d="M417.4248,-75.0713C413.084,-71.8592 408.4495,-68.5769 404,-65.6985 391.464,-57.5889 357.3687,-39.0727 334.395,-26.7659"/>
<polygon fill="#ff0000" stroke="#ff0000" stroke-width=".1507" points="335.7948,-23.5456 325.3253,-21.9202 332.4961,-29.7196 335.7948,-23.5456"/>
</g>
<!-- 1117&#45;&gt;0 -->
<g id="edge64" class="edge">
<title>1117&#45;&gt;0</title>
<path fill="none" stroke="#00ff00" stroke-width=".3624" d="M368.3628,-65.6936C367.8163,-57.4298 367.207,-48.2178 366.6588,-39.9294"/>
<polygon fill="#00ff00" stroke="#00ff00" stroke-width=".3624" points="370.1361,-39.4701 365.9837,-29.7229 363.1514,-39.9322 370.1361,-39.4701"/>
</g>
<!-- 1117&#45;&gt;1 -->
<g id="edge65" class="edge">
<title>1117&#45;&gt;1</title>
<path fill="none" stroke="#ff0000" stroke-width=".2533" d="M354.7612,-70.5847C346.3924,-59.6767 336.0332,-46.1744 327.607,-35.1917"/>
<polygon fill="#ff0000" stroke="#ff0000" stroke-width=".2533" points="330.2028,-32.8251 321.3388,-27.0216 324.649,-37.0861 330.2028,-32.8251"/>
</g>
</g>
</svg>
