<?xml version="1.0" encoding="UTF-8" standalone="no"?>
<!DOCTYPE svg PUBLIC "-//W3C//DTD SVG 1.1//EN"
 "http://www.w3.org/Graphics/SVG/1.1/DTD/svg11.dtd">
<!-- Generated by graphviz version 2.40.1 (20161225.0304)
 -->
<!-- Title: %3 Pages: 1 -->
<svg width="654pt" height="177pt"
 viewBox="0.00 0.00 653.50 177.20" xmlns="http://www.w3.org/2000/svg" xmlns:xlink="http://www.w3.org/1999/xlink">
<g id="graph0" class="graph" transform="scale(1 1) rotate(0) translate(4 173.196)">
<title>%3</title>
<polygon fill="#ffffff" stroke="transparent" points="-4,4 -4,-173.196 649.5,-173.196 649.5,4 -4,4"/>
<!-- &#45;1 -->
<g id="node1" class="node">
<title>&#45;1</title>
<polygon fill="#d3d3d3" stroke="#000000" points="508,-169.196 484,-169.196 484,-151.196 508,-151.196 508,-169.196"/>
<text text-anchor="middle" x="496" y="-157.996" font-family="Times,serif" font-size="9.00" fill="#000000">&#45;1</text>
</g>
<!-- 1113 -->
<g id="node18" class="node">
<title>1113</title>
<ellipse fill="#ffffff" stroke="#000000" cx="312" cy="-90.4472" rx="25" ry="25"/>
<text text-anchor="middle" x="312" y="-88.2472" font-family="Times,serif" font-size="9.00" fill="#000000">1113</text>
</g>
<!-- &#45;1&#45;&gt;1113 -->
<g id="edge1" class="edge">
<title>&#45;1&#45;&gt;1113</title>
<path fill="none" stroke="#00ff00" stroke-width=".4366" d="M483.6724,-154.5852C480.8509,-153.393 477.8445,-152.1942 475,-151.196 418.4304,-131.3428 398.8049,-141.6404 345,-115.196 343.2165,-114.3194 341.4319,-113.3421 339.6674,-112.2961"/>
<polygon fill="#00ff00" stroke="#00ff00" stroke-width=".4366" points="341.3834,-109.235 331.1105,-106.6433 337.525,-115.0756 341.3834,-109.235"/>
</g>
<!-- 1114 -->
<g id="node19" class="node">
<title>1114</title>
<ellipse fill="#ffffff" stroke="#000000" cx="379" cy="-90.4472" rx="25" ry="25"/>
<text text-anchor="middle" x="379" y="-88.2472" font-family="Times,serif" font-size="9.00" fill="#000000">1114</text>
</g>
<!-- &#45;1&#45;&gt;1114 -->
<g id="edge2" class="edge">
<title>&#45;1&#45;&gt;1114</title>
<path fill="none" stroke="#ff0000" stroke-width=".1327" stroke-dasharray="1,5" d="M483.9196,-152.9943C466.4209,-142.5626 433.4568,-122.9113 409.1295,-108.4087"/>
<polygon fill="#ff0000" stroke="#ff0000" stroke-width=".1327" points="410.6607,-105.2468 400.279,-103.1325 407.0763,-111.2595 410.6607,-105.2468"/>
</g>
<!-- 1117 -->
<g id="node20" class="node">
<title>1117</title>
<ellipse fill="#ffffff" stroke="#000000" cx="245" cy="-90.4472" rx="25" ry="25"/>
<text text-anchor="middle" x="245" y="-88.2472" font-family="Times,serif" font-size="9.00" fill="#000000">1117</text>
</g>
<!-- &#45;1&#45;&gt;1117 -->
<g id="edge3" class="edge">
<title>&#45;1&#45;&gt;1117</title>
<path fill="none" stroke="#00ff00" stroke-width=".1715" stroke-dasharray="1,5" d="M483.7343,-154.3952C480.9096,-153.2128 477.8863,-152.0661 475,-151.196 389.7831,-125.5043 359.5537,-150.8467 278,-115.196 276.1791,-114.4 274.3652,-113.4857 272.5782,-112.4883"/>
<polygon fill="#00ff00" stroke="#00ff00" stroke-width=".1715" points="274.2681,-109.4143 263.9593,-106.9691 270.4932,-115.3093 274.2681,-109.4143"/>
</g>
<!-- &#45;2 -->
<g id="node2" class="node">
<title>&#45;2</title>
<polygon fill="#d3d3d3" stroke="#000000" points="598,-169.196 574,-169.196 574,-151.196 598,-151.196 598,-169.196"/>
<text text-anchor="middle" x="586" y="-157.996" font-family="Times,serif" font-size="9.00" fill="#000000">&#45;2</text>
</g>
<!-- &#45;2&#45;&gt;1113 -->
<g id="edge4" class="edge">
<title>&#45;2&#45;&gt;1113</title>
<path fill="none" stroke="#00ff00" stroke-width=".4505" d="M573.7461,-154.3555C570.9208,-153.1751 567.8942,-152.0393 565,-151.196 469.878,-123.4777 436.1472,-154.0376 345,-115.196 343.1718,-114.4169 341.3522,-113.5159 339.5608,-112.5286"/>
<polygon fill="#00ff00" stroke="#00ff00" stroke-width=".4505" points="341.2457,-109.4523 330.9297,-107.0375 337.4883,-115.3584 341.2457,-109.4523"/>
</g>
<!-- &#45;2&#45;&gt;1114 -->
<g id="edge5" class="edge">
<title>&#45;2&#45;&gt;1114</title>
<path fill="none" stroke="#00ff00" stroke-width=".3536" d="M573.6376,-154.6809C570.8179,-153.4837 567.821,-152.2587 565,-151.196 512.5514,-131.4369 450.4503,-111.914 412.9236,-100.53"/>
<polygon fill="#00ff00" stroke="#00ff00" stroke-width=".3536" points="413.604,-97.0795 403.0192,-97.5416 411.5819,-103.7811 413.604,-97.0795"/>
</g>
<!-- &#45;2&#45;&gt;1117 -->
<g id="edge6" class="edge">
<title>&#45;2&#45;&gt;1117</title>
<path fill="none" stroke="#00ff00" stroke-width=".5" stroke-dasharray="1,5" d="M573.7688,-154.2749C570.9423,-153.0988 567.9095,-151.985 565,-151.196 440.927,-117.5463 397.1866,-163.3724 278,-115.196 276.1078,-114.4311 274.2278,-113.5298 272.3809,-112.5319"/>
<polygon fill="#00ff00" stroke="#00ff00" stroke-width=".5" points="273.8392,-109.3128 263.5176,-106.9223 270.0957,-115.2277 273.8392,-109.3128"/>
</g>
<!-- &#45;3 -->
<g id="node3" class="node">
<title>&#45;3</title>
<polygon fill="#d3d3d3" stroke="#000000" points="108,-169.196 84,-169.196 84,-151.196 108,-151.196 108,-169.196"/>
<text text-anchor="middle" x="96" y="-157.996" font-family="Times,serif" font-size="9.00" fill="#000000">&#45;3</text>
</g>
<!-- &#45;3&#45;&gt;1113 -->
<g id="edge7" class="edge">
<title>&#45;3&#45;&gt;1113</title>
<path fill="none" stroke="#00ff00" stroke-width=".3165" d="M108.2909,-154.4761C111.1143,-153.2896 114.1308,-152.1207 117,-151.196 187.2005,-128.5709 211.991,-146.0147 279,-115.196 280.8055,-114.3656 282.6073,-113.4244 284.385,-112.4063"/>
<polygon fill="#00ff00" stroke="#00ff00" stroke-width=".3165" points="286.4949,-115.2095 292.9784,-106.8301 282.6845,-109.3375 286.4949,-115.2095"/>
</g>
<!-- &#45;3&#45;&gt;1114 -->
<g id="edge8" class="edge">
<title>&#45;3&#45;&gt;1114</title>
<path fill="none" stroke="#00ff00" stroke-width=".4397" d="M108.25,-154.342C111.0755,-153.1624 114.1032,-152.0302 117,-151.196 216.0037,-122.683 251.0932,-155.2887 346,-115.196 347.8306,-114.4226 349.6521,-113.5261 351.445,-112.5423"/>
<polygon fill="#00ff00" stroke="#00ff00" stroke-width=".4397" points="353.5133,-115.375 360.0801,-107.0607 349.7617,-109.4652 353.5133,-115.375"/>
</g>
<!-- &#45;3&#45;&gt;1117 -->
<g id="edge9" class="edge">
<title>&#45;3&#45;&gt;1117</title>
<path fill="none" stroke="#ff0000" stroke-width=".128" stroke-dasharray="1,5" d="M108.1933,-154.4881C130.9031,-143.8574 180.3443,-120.7134 213.1492,-105.357"/>
<polygon fill="#ff0000" stroke="#ff0000" stroke-width=".128" points="214.763,-108.4661 222.3359,-101.0566 211.7952,-102.1263 214.763,-108.4661"/>
</g>
<!-- &#45;4 -->
<g id="node4" class="node">
<title>&#45;4</title>
<polygon fill="#d3d3d3" stroke="#000000" points="66,-169.196 42,-169.196 42,-151.196 66,-151.196 66,-169.196"/>
<text text-anchor="middle" x="54" y="-157.996" font-family="Times,serif" font-size="9.00" fill="#000000">&#45;4</text>
</g>
<!-- &#45;4&#45;&gt;1113 -->
<g id="edge10" class="edge">
<title>&#45;4&#45;&gt;1113</title>
<path fill="none" stroke="#00ff00" stroke-width=".4092" d="M66.2618,-154.3822C69.0867,-153.2005 72.1111,-152.0574 75,-151.196 163.229,-124.8883 194.5289,-151.8168 279,-115.196 280.8233,-114.4055 282.6391,-113.4956 284.4275,-112.5015"/>
<polygon fill="#00ff00" stroke="#00ff00" stroke-width=".4092" points="286.5085,-115.3253 293.0505,-106.9915 282.7393,-109.4267 286.5085,-115.3253"/>
</g>
<!-- &#45;4&#45;&gt;1114 -->
<g id="edge11" class="edge">
<title>&#45;4&#45;&gt;1114</title>
<path fill="none" stroke="#ff0000" stroke-width=".5" d="M66.2355,-154.2907C69.0618,-153.1137 72.0934,-151.9956 75,-151.196 192.1497,-118.9655 233.5186,-161.1394 346,-115.196 347.8894,-114.4242 349.7672,-113.5176 351.6124,-112.5156"/>
<polygon fill="#ff0000" stroke="#ff0000" stroke-width=".5" points="353.9025,-115.2077 360.4713,-106.8951 350.1524,-109.297 353.9025,-115.2077"/>
</g>
<!-- &#45;4&#45;&gt;1117 -->
<g id="edge12" class="edge">
<title>&#45;4&#45;&gt;1117</title>
<path fill="none" stroke="#ff0000" stroke-width=".3284" d="M66.3845,-154.7383C69.203,-153.5381 72.1939,-152.2974 75,-151.196 122.1324,-132.6952 177.4789,-113.352 211.9021,-101.5975"/>
<polygon fill="#ff0000" stroke="#ff0000" stroke-width=".3284" points="213.117,-104.8813 221.4565,-98.3465 210.862,-98.2544 213.117,-104.8813"/>
</g>
<!-- &#45;5 -->
<g id="node5" class="node">
<title>&#45;5</title>
<polygon fill="#d3d3d3" stroke="#000000" points="150,-169.196 126,-169.196 126,-151.196 150,-151.196 150,-169.196"/>
<text text-anchor="middle" x="138" y="-157.996" font-family="Times,serif" font-size="9.00" fill="#000000">&#45;5</text>
</g>
<!-- &#45;5&#45;&gt;1113 -->
<g id="edge13" class="edge">
<title>&#45;5&#45;&gt;1113</title>
<path fill="none" stroke="#00ff00" stroke-width=".4055" d="M150.3436,-154.6301C153.1643,-153.4355 156.1663,-152.2245 159,-151.196 211.3406,-132.1984 229.2923,-140.2876 279,-115.196 280.7741,-114.3004 282.5513,-113.3083 284.3101,-112.2509"/>
<polygon fill="#00ff00" stroke="#00ff00" stroke-width=".4055" points="286.4655,-115.0208 292.8514,-106.5667 282.5873,-109.1933 286.4655,-115.0208"/>
</g>
<!-- &#45;5&#45;&gt;1114 -->
<g id="edge14" class="edge">
<title>&#45;5&#45;&gt;1114</title>
<path fill="none" stroke="#ff0000" stroke-width=".3957" d="M150.2718,-154.4154C153.0962,-153.232 156.1179,-152.0797 159,-151.196 239.9183,-126.383 268.6097,-149.4626 346,-115.196 347.8171,-114.3914 349.628,-113.4704 351.4128,-112.4678"/>
<polygon fill="#ff0000" stroke="#ff0000" stroke-width=".3957" points="353.504,-115.2844 360.0255,-106.9344 349.7203,-109.3951 353.504,-115.2844"/>
</g>
<!-- &#45;5&#45;&gt;1117 -->
<g id="edge15" class="edge">
<title>&#45;5&#45;&gt;1117</title>
<path fill="none" stroke="#00ff00" stroke-width=".4818" d="M150.2743,-152.1949C166.099,-141.8794 194.1339,-123.6047 215.6123,-109.6038"/>
<polygon fill="#00ff00" stroke="#00ff00" stroke-width=".4818" points="217.6015,-112.4851 224.0676,-104.0922 213.7789,-106.621 217.6015,-112.4851"/>
</g>
<!-- &#45;6 -->
<g id="node6" class="node">
<title>&#45;6</title>
<polygon fill="#d3d3d3" stroke="#000000" points="192,-169.196 168,-169.196 168,-151.196 192,-151.196 192,-169.196"/>
<text text-anchor="middle" x="180" y="-157.996" font-family="Times,serif" font-size="9.00" fill="#000000">&#45;6</text>
</g>
<!-- &#45;6&#45;&gt;1113 -->
<g id="edge16" class="edge">
<title>&#45;6&#45;&gt;1113</title>
<path fill="none" stroke="#00ff00" stroke-width=".1323" stroke-dasharray="1,5" d="M192.077,-154.8825C216.6874,-144.0293 271.0012,-119.937 279,-115.196 280.7095,-114.1827 282.4362,-113.0983 284.1562,-111.9701"/>
<polygon fill="#00ff00" stroke="#00ff00" stroke-width=".1323" points="286.3885,-114.6804 292.5905,-106.0905 282.3854,-108.938 286.3885,-114.6804"/>
</g>
<!-- &#45;6&#45;&gt;1114 -->
<g id="edge17" class="edge">
<title>&#45;6&#45;&gt;1114</title>
<path fill="none" stroke="#ff0000" stroke-width=".1206" d="M192.3082,-154.5286C195.1307,-153.3393 198.1424,-152.156 201,-151.196 263.9435,-130.0487 286.0206,-143.6838 346,-115.196 347.7951,-114.3434 349.5888,-113.3848 351.3602,-112.3533"/>
<polygon fill="#ff0000" stroke="#ff0000" stroke-width=".1206" points="353.4859,-115.1451 359.9364,-106.7403 349.6524,-109.288 353.4859,-115.1451"/>
</g>
<!-- &#45;6&#45;&gt;1117 -->
<g id="edge18" class="edge">
<title>&#45;6&#45;&gt;1117</title>
<path fill="none" stroke="#00ff00" stroke-width=".471" d="M188.4976,-151.0775C196.7619,-142.2095 209.7046,-128.3212 221.1186,-116.0733"/>
<polygon fill="#00ff00" stroke="#00ff00" stroke-width=".471" points="223.7153,-118.4207 227.9724,-108.7188 218.5943,-113.6483 223.7153,-118.4207"/>
</g>
<!-- &#45;7 -->
<g id="node7" class="node">
<title>&#45;7</title>
<polygon fill="#d3d3d3" stroke="#000000" points="234,-169.196 210,-169.196 210,-151.196 234,-151.196 234,-169.196"/>
<text text-anchor="middle" x="222" y="-157.996" font-family="Times,serif" font-size="9.00" fill="#000000">&#45;7</text>
</g>
<!-- &#45;7&#45;&gt;1113 -->
<g id="edge19" class="edge">
<title>&#45;7&#45;&gt;1113</title>
<path fill="none" stroke="#ff0000" stroke-width=".5" d="M233.7659,-151.0775C246.5414,-141.1767 267.3915,-125.0182 284.3554,-111.8714"/>
<polygon fill="#ff0000" stroke="#ff0000" stroke-width=".5" points="286.5584,-114.5922 292.3187,-105.7 282.2704,-109.0592 286.5584,-114.5922"/>
</g>
<!-- &#45;7&#45;&gt;1114 -->
<g id="edge20" class="edge">
<title>&#45;7&#45;&gt;1114</title>
<path fill="none" stroke="#ff0000" stroke-width=".4175" d="M234.0613,-155.1375C237.2782,-153.8224 240.7605,-152.4294 244,-151.196 288.9275,-134.0896 303.6141,-137.8795 346,-115.196 347.7521,-114.2583 349.5122,-113.2331 351.2578,-112.1503"/>
<polygon fill="#ff0000" stroke="#ff0000" stroke-width=".4175" points="353.4415,-114.8987 359.7627,-106.3962 349.519,-109.101 353.4415,-114.8987"/>
</g>
<!-- &#45;7&#45;&gt;1117 -->
<g id="edge21" class="edge">
<title>&#45;7&#45;&gt;1117</title>
<path fill="none" stroke="#ff0000" stroke-width=".1866" stroke-dasharray="1,5" d="M225.0068,-151.0775C227.3507,-143.9698 230.7579,-133.6371 234.0978,-123.5089"/>
<polygon fill="#ff0000" stroke="#ff0000" stroke-width=".1866" points="237.4345,-124.5659 237.2423,-113.9728 230.7866,-122.3737 237.4345,-124.5659"/>
</g>
<!-- &#45;8 -->
<g id="node8" class="node">
<title>&#45;8</title>
<polygon fill="#d3d3d3" stroke="#000000" points="24,-169.196 0,-169.196 0,-151.196 24,-151.196 24,-169.196"/>
<text text-anchor="middle" x="12" y="-157.996" font-family="Times,serif" font-size="9.00" fill="#000000">&#45;8</text>
</g>
<!-- &#45;8&#45;&gt;1113 -->
<g id="edge22" class="edge">
<title>&#45;8&#45;&gt;1113</title>
<path fill="none" stroke="#00ff00" stroke-width=".4209" stroke-dasharray="1,5" d="M24.2435,-154.3192C27.0693,-153.1407 30.0988,-152.0149 33,-151.196 139.3429,-121.1799 176.9851,-157.6546 279,-115.196 280.8843,-114.4117 282.758,-113.4954 284.6002,-112.486"/>
<polygon fill="#00ff00" stroke="#00ff00" stroke-width=".4209" points="286.8988,-115.1715 293.451,-106.8457 283.1368,-109.2683 286.8988,-115.1715"/>
</g>
<!-- &#45;8&#45;&gt;1117 -->
<g id="edge23" class="edge">
<title>&#45;8&#45;&gt;1117</title>
<path fill="none" stroke="#00ff00" stroke-width=".1717" stroke-dasharray="1,5" d="M24.3343,-154.604C27.1554,-153.4108 30.16,-152.2069 33,-151.196 94.8127,-129.1926 168.8693,-109.4255 211.0781,-98.7607"/>
<polygon fill="#00ff00" stroke="#00ff00" stroke-width=".1717" points="211.9958,-102.1391 220.8445,-96.3122 210.2935,-95.3492 211.9958,-102.1391"/>
</g>
<!-- &#45;9 -->
<g id="node9" class="node">
<title>&#45;9</title>
<polygon fill="#d3d3d3" stroke="#000000" points="324,-169.196 300,-169.196 300,-151.196 324,-151.196 324,-169.196"/>
<text text-anchor="middle" x="312" y="-157.996" font-family="Times,serif" font-size="9.00" fill="#000000">&#45;9</text>
</g>
<!-- &#45;9&#45;&gt;1113 -->
<g id="edge24" class="edge">
<title>&#45;9&#45;&gt;1113</title>
<path fill="none" stroke="#ff0000" stroke-width=".1066" d="M312,-151.0775C312,-144.4608 312,-135.0493 312,-125.6096"/>
<polygon fill="#ff0000" stroke="#ff0000" stroke-width=".1066" points="315.5001,-125.4865 312,-115.4865 308.5001,-125.4865 315.5001,-125.4865"/>
</g>
<!-- &#45;9&#45;&gt;1114 -->
<g id="edge25" class="edge">
<title>&#45;9&#45;&gt;1114</title>
<path fill="none" stroke="#ff0000" stroke-width=".3321" d="M320.7591,-151.0775C329.3364,-142.1483 342.8029,-128.1294 354.627,-115.8201"/>
<polygon fill="#ff0000" stroke="#ff0000" stroke-width=".3321" points="357.3152,-118.074 361.7186,-108.4376 352.2669,-113.2247 357.3152,-118.074"/>
</g>
<!-- &#45;9&#45;&gt;1117 -->
<g id="edge26" class="edge">
<title>&#45;9&#45;&gt;1117</title>
<path fill="none" stroke="#00ff00" stroke-width=".4866" stroke-dasharray="1,5" d="M303.2409,-151.0775C294.6636,-142.1483 281.1971,-128.1294 269.373,-115.8201"/>
<polygon fill="#00ff00" stroke="#00ff00" stroke-width=".4866" points="271.7331,-113.2247 262.2814,-108.4376 266.6848,-118.074 271.7331,-113.2247"/>
</g>
<!-- &#45;10 -->
<g id="node10" class="node">
<title>&#45;10</title>
<polygon fill="#d3d3d3" stroke="#000000" points="281.5,-169.196 252.5,-169.196 252.5,-151.196 281.5,-151.196 281.5,-169.196"/>
<text text-anchor="middle" x="267" y="-157.996" font-family="Times,serif" font-size="9.00" fill="#000000">&#45;10</text>
</g>
<!-- &#45;10&#45;&gt;1113 -->
<g id="edge27" class="edge">
<title>&#45;10&#45;&gt;1113</title>
<path fill="none" stroke="#ff0000" stroke-width=".5" d="M272.883,-151.0775C277.9961,-143.1522 285.6962,-131.2174 292.9158,-120.0272"/>
<polygon fill="#ff0000" stroke="#ff0000" stroke-width=".5" points="296.0639,-121.6037 298.5442,-111.3033 290.1818,-117.8087 296.0639,-121.6037"/>
</g>
<!-- &#45;10&#45;&gt;1114 -->
<g id="edge28" class="edge">
<title>&#45;10&#45;&gt;1114</title>
<path fill="none" stroke="#ff0000" stroke-width=".3208" stroke-dasharray="1,5" d="M281.5954,-152.5957C297.7005,-144.0467 324.2241,-129.4824 346,-115.196 347.6616,-114.1058 349.3507,-112.9613 351.0419,-111.7868"/>
<polygon fill="#ff0000" stroke="#ff0000" stroke-width=".3208" points="353.3206,-114.4593 359.3966,-105.7798 349.2342,-108.7758 353.3206,-114.4593"/>
</g>
<!-- &#45;10&#45;&gt;1117 -->
<g id="edge29" class="edge">
<title>&#45;10&#45;&gt;1117</title>
<path fill="none" stroke="#00ff00" stroke-width=".2293" d="M264.1239,-151.0775C261.9226,-144.0985 258.7405,-134.0101 255.6018,-124.0591"/>
<polygon fill="#00ff00" stroke="#00ff00" stroke-width=".2293" points="258.8614,-122.758 252.5154,-114.274 252.1856,-124.8637 258.8614,-122.758"/>
</g>
<!-- &#45;11 -->
<g id="node11" class="node">
<title>&#45;11</title>
<polygon fill="#d3d3d3" stroke="#000000" points="371.5,-169.196 342.5,-169.196 342.5,-151.196 371.5,-151.196 371.5,-169.196"/>
<text text-anchor="middle" x="357" y="-157.996" font-family="Times,serif" font-size="9.00" fill="#000000">&#45;11</text>
</g>
<!-- &#45;11&#45;&gt;1113 -->
<g id="edge30" class="edge">
<title>&#45;11&#45;&gt;1113</title>
<path fill="none" stroke="#00ff00" stroke-width=".345" d="M351.117,-151.0775C346.0039,-143.1522 338.3038,-131.2174 331.0842,-120.0272"/>
<polygon fill="#00ff00" stroke="#00ff00" stroke-width=".345" points="333.8182,-117.8087 325.4558,-111.3033 327.9361,-121.6037 333.8182,-117.8087"/>
</g>
<!-- &#45;11&#45;&gt;1114 -->
<g id="edge31" class="edge">
<title>&#45;11&#45;&gt;1114</title>
<path fill="none" stroke="#ff0000" stroke-width=".451" d="M359.8761,-151.0775C362.0774,-144.0985 365.2595,-134.0101 368.3982,-124.0591"/>
<polygon fill="#ff0000" stroke="#ff0000" stroke-width=".451" points="371.8144,-124.8637 371.4846,-114.274 365.1386,-122.758 371.8144,-124.8637"/>
</g>
<!-- &#45;11&#45;&gt;1117 -->
<g id="edge32" class="edge">
<title>&#45;11&#45;&gt;1117</title>
<path fill="none" stroke="#ff0000" stroke-width=".2454" d="M342.4046,-152.5957C326.2995,-144.0467 299.7759,-129.4824 278,-115.196 276.3384,-114.1058 274.6493,-112.9613 272.9581,-111.7868"/>
<polygon fill="#ff0000" stroke="#ff0000" stroke-width=".2454" points="274.7658,-108.7758 264.6034,-105.7798 270.6794,-114.4593 274.7658,-108.7758"/>
</g>
<!-- &#45;12 -->
<g id="node12" class="node">
<title>&#45;12</title>
<polygon fill="#d3d3d3" stroke="#000000" points="418.5,-169.196 389.5,-169.196 389.5,-151.196 418.5,-151.196 418.5,-169.196"/>
<text text-anchor="middle" x="404" y="-157.996" font-family="Times,serif" font-size="9.00" fill="#000000">&#45;12</text>
</g>
<!-- &#45;12&#45;&gt;1113 -->
<g id="edge33" class="edge">
<title>&#45;12&#45;&gt;1113</title>
<path fill="none" stroke="#ff0000" stroke-width=".4026" d="M391.9726,-151.0775C378.8295,-141.1132 357.3263,-124.8108 339.9259,-111.6189"/>
<polygon fill="#ff0000" stroke="#ff0000" stroke-width=".4026" points="341.8514,-108.6866 331.7681,-105.4342 337.6224,-114.2647 341.8514,-108.6866"/>
</g>
<!-- &#45;12&#45;&gt;1114 -->
<g id="edge34" class="edge">
<title>&#45;12&#45;&gt;1114</title>
<path fill="none" stroke="#ff0000" stroke-width=".2452" stroke-dasharray="1,5" d="M400.7317,-151.0775C398.1841,-143.9698 394.4805,-133.6371 390.8503,-123.5089"/>
<polygon fill="#ff0000" stroke="#ff0000" stroke-width=".2452" points="394.1012,-122.2055 387.4323,-113.9728 387.5117,-124.5674 394.1012,-122.2055"/>
</g>
<!-- &#45;12&#45;&gt;1117 -->
<g id="edge35" class="edge">
<title>&#45;12&#45;&gt;1117</title>
<path fill="none" stroke="#ff0000" stroke-width=".1672" stroke-dasharray="1,5" d="M389.4302,-154.4017C386.6389,-153.318 383.7343,-152.2084 381,-151.196 335.5239,-134.3576 320.7905,-138.0122 278,-115.196 276.2464,-114.2609 274.4853,-113.2378 272.7388,-112.1567"/>
<polygon fill="#ff0000" stroke="#ff0000" stroke-width=".1672" points="274.4766,-109.1068 264.2315,-106.407 270.5568,-114.9065 274.4766,-109.1068"/>
</g>
<!-- &#45;13 -->
<g id="node13" class="node">
<title>&#45;13</title>
<polygon fill="#d3d3d3" stroke="#000000" points="465.5,-169.196 436.5,-169.196 436.5,-151.196 465.5,-151.196 465.5,-169.196"/>
<text text-anchor="middle" x="451" y="-157.996" font-family="Times,serif" font-size="9.00" fill="#000000">&#45;13</text>
</g>
<!-- &#45;13&#45;&gt;1113 -->
<g id="edge36" class="edge">
<title>&#45;13&#45;&gt;1113</title>
<path fill="none" stroke="#00ff00" stroke-width=".2298" d="M436.3829,-154.4997C411.3462,-144.6586 361.3723,-124.624 345,-115.196 343.2779,-114.2043 341.5413,-113.1368 339.8137,-112.0215"/>
<polygon fill="#00ff00" stroke="#00ff00" stroke-width=".2298" points="341.575,-108.9842 331.3586,-106.1778 337.595,-114.7427 341.575,-108.9842"/>
</g>
<!-- &#45;13&#45;&gt;1114 -->
<g id="edge37" class="edge">
<title>&#45;13&#45;&gt;1114</title>
<path fill="none" stroke="#00ff00" stroke-width=".3978" d="M441.5873,-151.0775C432.1554,-141.9406 417.2223,-127.4744 404.3081,-114.964"/>
<polygon fill="#00ff00" stroke="#00ff00" stroke-width=".3978" points="406.6123,-112.3231 396.9945,-107.8791 401.7417,-117.3509 406.6123,-112.3231"/>
</g>
<!-- &#45;13&#45;&gt;1117 -->
<g id="edge38" class="edge">
<title>&#45;13&#45;&gt;1117</title>
<path fill="none" stroke="#ff0000" stroke-width=".1623" d="M436.0119,-153.9896C433.3648,-152.9917 430.6182,-152.0181 428,-151.196 362.5894,-130.6559 340.0439,-144.3679 278,-115.196 276.2016,-114.3504 274.4053,-113.3973 272.6319,-112.37"/>
<polygon fill="#ff0000" stroke="#ff0000" stroke-width=".1623" points="274.3373,-109.3036 264.0502,-106.7686 270.5112,-115.1655 274.3373,-109.3036"/>
</g>
<!-- &#45;14 -->
<g id="node14" class="node">
<title>&#45;14</title>
<polygon fill="#d3d3d3" stroke="#000000" points="645.5,-169.196 616.5,-169.196 616.5,-151.196 645.5,-151.196 645.5,-169.196"/>
<text text-anchor="middle" x="631" y="-157.996" font-family="Times,serif" font-size="9.00" fill="#000000">&#45;14</text>
</g>
<!-- &#45;14&#45;&gt;1113 -->
<g id="edge39" class="edge">
<title>&#45;14&#45;&gt;1113</title>
<path fill="none" stroke="#ff0000" stroke-width=".4517" d="M616.4415,-154.1485C613.3637,-153.0369 610.1062,-151.9814 607,-151.196 493.0477,-122.383 453.7119,-159.8842 345,-115.196 343.1123,-114.42 341.2359,-113.51 339.3917,-112.5056"/>
<polygon fill="#ff0000" stroke="#ff0000" stroke-width=".4517" points="340.8529,-109.2873 330.5355,-106.8783 337.0987,-115.1955 340.8529,-109.2873"/>
</g>
<!-- &#45;14&#45;&gt;1114 -->
<g id="edge40" class="edge">
<title>&#45;14&#45;&gt;1114</title>
<path fill="none" stroke="#00ff00" stroke-width=".3701" d="M616.357,-154.4441C613.2852,-153.3111 610.0517,-152.1721 607,-151.196 538.9491,-129.4288 457.7928,-109.1236 412.9763,-98.3922"/>
<polygon fill="#00ff00" stroke="#00ff00" stroke-width=".3701" points="413.7269,-94.9731 403.1882,-96.0625 412.106,-101.7829 413.7269,-94.9731"/>
</g>
<!-- &#45;15 -->
<g id="node15" class="node">
<title>&#45;15</title>
<polygon fill="#d3d3d3" stroke="#000000" points="555.5,-169.196 526.5,-169.196 526.5,-151.196 555.5,-151.196 555.5,-169.196"/>
<text text-anchor="middle" x="541" y="-157.996" font-family="Times,serif" font-size="9.00" fill="#000000">&#45;15</text>
</g>
<!-- &#45;15&#45;&gt;1113 -->
<g id="edge41" class="edge">
<title>&#45;15&#45;&gt;1113</title>
<path fill="none" stroke="#00ff00" stroke-width=".2" d="M526.3961,-154.3157C523.3216,-153.192 520.077,-152.0892 517,-151.196 441.9959,-129.4212 416.1562,-147.3915 345,-115.196 343.1894,-114.3767 341.3836,-113.4443 339.6029,-112.4329"/>
<polygon fill="#00ff00" stroke="#00ff00" stroke-width=".2" points="341.2998,-109.3623 331.001,-106.8752 337.501,-115.2419 341.2998,-109.3623"/>
</g>
<!-- &#45;15&#45;&gt;1114 -->
<g id="edge42" class="edge">
<title>&#45;15&#45;&gt;1114</title>
<path fill="none" stroke="#ff0000" stroke-width=".3757" d="M526.3379,-153.8832C500.4948,-142.7565 446.2688,-119.4097 411.3008,-104.3543"/>
<polygon fill="#ff0000" stroke="#ff0000" stroke-width=".3757" points="412.5573,-101.0847 401.9883,-100.3448 409.7891,-107.5141 412.5573,-101.0847"/>
</g>
<!-- &#45;15&#45;&gt;1117 -->
<g id="edge43" class="edge">
<title>&#45;15&#45;&gt;1117</title>
<path fill="none" stroke="#00ff00" stroke-width=".478" d="M526.4335,-154.1796C523.3563,-153.0658 520.1011,-152.0015 517,-151.196 413.0298,-124.1893 377.087,-156.6799 278,-115.196 276.1174,-114.4078 274.2449,-113.4883 272.4037,-112.4767"/>
<polygon fill="#00ff00" stroke="#00ff00" stroke-width=".478" points="273.8681,-109.2593 263.5555,-106.83 270.1024,-115.1601 273.8681,-109.2593"/>
</g>
<!-- 0 -->
<g id="node16" class="node">
<title>0</title>
<ellipse fill="#add8e6" stroke="#000000" cx="352" cy="-14.8492" rx="14.7" ry="14.7"/>
<text text-anchor="middle" x="352" y="-12.6492" font-family="Times,serif" font-size="9.00" fill="#000000">0</text>
</g>
<!-- 1 -->
<g id="node17" class="node">
<title>1</title>
<ellipse fill="#add8e6" stroke="#000000" cx="278" cy="-14.8492" rx="14.7" ry="14.7"/>
<text text-anchor="middle" x="278" y="-12.6492" font-family="Times,serif" font-size="9.00" fill="#000000">1</text>
</g>
<!-- 1113&#45;&gt;1 -->
<g id="edge44" class="edge">
<title>1113&#45;&gt;1</title>
<path fill="none" stroke="#00ff00" stroke-width=".351" stroke-dasharray="1,5" d="M301.7989,-67.7653C297.5598,-58.3398 292.6454,-47.4128 288.3869,-37.9442"/>
<polygon fill="#00ff00" stroke="#00ff00" stroke-width=".351" points="291.5361,-36.4133 284.2423,-28.7288 285.1521,-39.2845 291.5361,-36.4133"/>
</g>
<!-- 1114&#45;&gt;0 -->
<g id="edge45" class="edge">
<title>1114&#45;&gt;0</title>
<path fill="none" stroke="#00ff00" stroke-width=".1603" d="M370.605,-66.9419C367.3658,-57.8723 363.6667,-47.515 360.4246,-38.4375"/>
<polygon fill="#00ff00" stroke="#00ff00" stroke-width=".1603" points="363.6669,-37.1095 357.0073,-28.8694 357.0747,-39.464 363.6669,-37.1095"/>
</g>
<!-- 1117&#45;&gt;0 -->
<g id="edge46" class="edge">
<title>1117&#45;&gt;0</title>
<path fill="none" stroke="#ff0000" stroke-width=".5" d="M264.795,-75.3937C269.1221,-72.1615 273.6955,-68.7895 278,-65.6985 295.7203,-52.9737 316.1821,-38.9646 331.0917,-28.8785"/>
<polygon fill="#ff0000" stroke="#ff0000" stroke-width=".5" points="333.2494,-31.6449 339.5834,-23.1519 329.3356,-25.8413 333.2494,-31.6449"/>
</g>
<!-- 1117&#45;&gt;1 -->
<g id="edge47" class="edge">
<title>1117&#45;&gt;1</title>
<path fill="none" stroke="#ff0000" stroke-width=".2466" d="M255.0804,-67.3546C259.145,-58.0433 263.8252,-47.3215 267.8925,-38.0039"/>
<polygon fill="#ff0000" stroke="#ff0000" stroke-width=".2466" points="271.2142,-39.1429 272.0072,-28.5778 264.7988,-36.3424 271.2142,-39.1429"/>
</g>
</g>
</svg>
