<?xml version="1.0" encoding="UTF-8" standalone="no"?>
<!DOCTYPE svg PUBLIC "-//W3C//DTD SVG 1.1//EN"
 "http://www.w3.org/Graphics/SVG/1.1/DTD/svg11.dtd">
<!-- Generated by graphviz version 2.40.1 (20161225.0304)
 -->
<!-- Title: %3 Pages: 1 -->
<svg width="300pt" height="348pt"
 viewBox="0.00 0.00 299.95 348.19" xmlns="http://www.w3.org/2000/svg" xmlns:xlink="http://www.w3.org/1999/xlink">
<g id="graph0" class="graph" transform="scale(1 1) rotate(0) translate(4 344.1909)">
<title>%3</title>
<polygon fill="#ffffff" stroke="transparent" points="-4,4 -4,-344.1909 295.9522,-344.1909 295.9522,4 -4,4"/>
<!-- &#45;1 -->
<g id="node1" class="node">
<title>&#45;1</title>
<polygon fill="#d3d3d3" stroke="#000000" points="87.7487,-270.4422 63.7487,-270.4422 63.7487,-252.4422 87.7487,-252.4422 87.7487,-270.4422"/>
<text text-anchor="middle" x="75.7487" y="-259.2422" font-family="Times,serif" font-size="9.00" fill="#000000">&#45;1</text>
</g>
<!-- 2607 -->
<g id="node7" class="node">
<title>2607</title>
<ellipse fill="#ffffff" stroke="#000000" cx="141.7487" cy="-90.4472" rx="25" ry="25"/>
<text text-anchor="middle" x="141.7487" y="-88.2472" font-family="Times,serif" font-size="9.00" fill="#000000">2607</text>
</g>
<!-- &#45;1&#45;&gt;2607 -->
<g id="edge1" class="edge">
<title>&#45;1&#45;&gt;2607</title>
<path fill="none" stroke="#00ff00" stroke-width=".4534" d="M76.8118,-252.2429C79.2842,-232.8798 86.4151,-186.7723 101.7487,-151.196 106.6582,-139.8052 113.6891,-128.212 120.4907,-118.2487"/>
<polygon fill="#00ff00" stroke="#00ff00" stroke-width=".4534" points="123.4363,-120.1451 126.3498,-109.9587 117.7199,-116.105 123.4363,-120.1451"/>
</g>
<!-- 2609 -->
<g id="node8" class="node">
<title>2609</title>
<ellipse fill="#ffffff" stroke="#000000" cx="24.7487" cy="-175.9447" rx="25" ry="25"/>
<text text-anchor="middle" x="24.7487" y="-173.7447" font-family="Times,serif" font-size="9.00" fill="#000000">2609</text>
</g>
<!-- &#45;1&#45;&gt;2609 -->
<g id="edge2" class="edge">
<title>&#45;1&#45;&gt;2609</title>
<path fill="none" stroke="#ff0000" stroke-width=".4525" d="M70.2908,-252.2924C63.7431,-241.3156 52.4325,-222.3544 42.7217,-206.075"/>
<polygon fill="#ff0000" stroke="#ff0000" stroke-width=".4525" points="45.6606,-204.1696 37.5318,-197.3745 39.6489,-207.7557 45.6606,-204.1696"/>
</g>
<!-- 2610 -->
<g id="node9" class="node">
<title>2610</title>
<ellipse fill="#ffffff" stroke="#000000" cx="168.7487" cy="-175.9447" rx="25" ry="25"/>
<text text-anchor="middle" x="168.7487" y="-173.7447" font-family="Times,serif" font-size="9.00" fill="#000000">2610</text>
</g>
<!-- &#45;1&#45;&gt;2610 -->
<g id="edge3" class="edge">
<title>&#45;1&#45;&gt;2610</title>
<path fill="none" stroke="#00ff00" stroke-width=".1908" d="M85.7014,-252.2924C99.2097,-239.8738 123.8344,-217.2357 142.7748,-199.8232"/>
<polygon fill="#00ff00" stroke="#00ff00" stroke-width=".1908" points="145.2429,-202.3086 150.2359,-192.9641 140.5053,-197.1553 145.2429,-202.3086"/>
</g>
<!-- &#45;2 -->
<g id="node2" class="node">
<title>&#45;2</title>
<polygon fill="#d3d3d3" stroke="#000000" points="213.7487,-340.1909 189.7487,-340.1909 189.7487,-322.1909 213.7487,-322.1909 213.7487,-340.1909"/>
<text text-anchor="middle" x="201.7487" y="-328.9909" font-family="Times,serif" font-size="9.00" fill="#000000">&#45;2</text>
</g>
<!-- 2606 -->
<g id="node6" class="node">
<title>2606</title>
<ellipse fill="#ffffff" stroke="#000000" cx="244.7487" cy="-261.4422" rx="25" ry="25"/>
<text text-anchor="middle" x="244.7487" y="-259.2422" font-family="Times,serif" font-size="9.00" fill="#000000">2606</text>
</g>
<!-- &#45;2&#45;&gt;2606 -->
<g id="edge4" class="edge">
<title>&#45;2&#45;&gt;2606</title>
<path fill="none" stroke="#ff0000" stroke-width=".347" d="M207.3702,-322.0725C212.2202,-314.2055 219.5059,-302.3876 226.3605,-291.2691"/>
<polygon fill="#ff0000" stroke="#ff0000" stroke-width=".347" points="229.442,-292.9401 231.7105,-282.5909 223.4833,-289.2665 229.442,-292.9401"/>
</g>
<!-- &#45;2&#45;&gt;2607 -->
<g id="edge5" class="edge">
<title>&#45;2&#45;&gt;2607</title>
<path fill="none" stroke="#ff0000" stroke-width=".5" d="M213.815,-328.2113C231.722,-323.0658 264.7232,-310.6327 278.7487,-286.1909 289.6978,-267.1103 286.5669,-257.2562 278.7487,-236.6934 257.8084,-181.6173 204.6118,-135.4052 171.0047,-110.435"/>
<polygon fill="#ff0000" stroke="#ff0000" stroke-width=".5" points="172.6493,-107.3037 162.5015,-104.2585 168.5354,-112.9673 172.6493,-107.3037"/>
</g>
<!-- &#45;2&#45;&gt;2609 -->
<g id="edge6" class="edge">
<title>&#45;2&#45;&gt;2609</title>
<path fill="none" stroke="#00ff00" stroke-width=".471" d="M189.6848,-328.2101C156.2906,-319.8614 64.4537,-296.2053 54.7487,-286.1909 35.3887,-266.2136 28.2372,-235.0373 25.7281,-210.9281"/>
<polygon fill="#00ff00" stroke="#00ff00" stroke-width=".471" points="29.199,-210.4294 24.8946,-200.7484 22.2224,-211.0006 29.199,-210.4294"/>
</g>
<!-- &#45;2&#45;&gt;2610 -->
<g id="edge7" class="edge">
<title>&#45;2&#45;&gt;2610</title>
<path fill="none" stroke="#ff0000" stroke-width=".2914" d="M199.7833,-321.9445C195.2242,-300.4968 183.7359,-246.4509 176.0893,-210.478"/>
<polygon fill="#ff0000" stroke="#ff0000" stroke-width=".2914" points="179.4503,-209.4558 173.9475,-200.4021 172.6033,-210.9113 179.4503,-209.4558"/>
</g>
<!-- &#45;3 -->
<g id="node3" class="node">
<title>&#45;3</title>
<polygon fill="#d3d3d3" stroke="#000000" points="154.7487,-340.1909 130.7487,-340.1909 130.7487,-322.1909 154.7487,-322.1909 154.7487,-340.1909"/>
<text text-anchor="middle" x="142.7487" y="-328.9909" font-family="Times,serif" font-size="9.00" fill="#000000">&#45;3</text>
</g>
<!-- &#45;3&#45;&gt;2606 -->
<g id="edge8" class="edge">
<title>&#45;3&#45;&gt;2606</title>
<path fill="none" stroke="#00ff00" stroke-width=".4301" d="M154.85,-322.9159C169.7438,-312.7314 195.5345,-295.0954 215.6829,-281.3177"/>
<polygon fill="#00ff00" stroke="#00ff00" stroke-width=".4301" points="217.9244,-284.0251 224.2034,-275.4913 213.9731,-278.2468 217.9244,-284.0251"/>
</g>
<!-- &#45;3&#45;&gt;2607 -->
<g id="edge9" class="edge">
<title>&#45;3&#45;&gt;2607</title>
<path fill="none" stroke="#ff0000" stroke-width=".2423" d="M141.6598,-321.8174C138.7047,-295.1315 131.0008,-216.4636 134.7487,-151.196 135.2334,-142.7565 136.0937,-133.69 137.0492,-125.2029"/>
<polygon fill="#ff0000" stroke="#ff0000" stroke-width=".2423" points="140.5309,-125.5639 138.243,-115.2191 133.5804,-124.7328 140.5309,-125.5639"/>
</g>
<!-- &#45;3&#45;&gt;2609 -->
<g id="edge10" class="edge">
<title>&#45;3&#45;&gt;2609</title>
<path fill="none" stroke="#ff0000" stroke-width=".4414" stroke-dasharray="1,5" d="M130.593,-328.5101C102.5359,-322.0507 34.6678,-304.7791 21.7487,-286.1909 6.4234,-264.1406 8.79,-233.1626 14.0635,-209.6566"/>
<polygon fill="#ff0000" stroke="#ff0000" stroke-width=".4414" points="17.5063,-210.3166 16.5477,-199.7652 10.7172,-208.6114 17.5063,-210.3166"/>
</g>
<!-- &#45;3&#45;&gt;2610 -->
<g id="edge11" class="edge">
<title>&#45;3&#45;&gt;2610</title>
<path fill="none" stroke="#ff0000" stroke-width=".3965" d="M144.2973,-321.9445C147.8893,-300.4968 156.9406,-246.4509 162.9652,-210.478"/>
<polygon fill="#ff0000" stroke="#ff0000" stroke-width=".3965" points="166.4528,-210.8429 164.6527,-200.4021 159.549,-209.6866 166.4528,-210.8429"/>
</g>
<!-- 0 -->
<g id="node4" class="node">
<title>0</title>
<ellipse fill="#add8e6" stroke="#000000" cx="165.7487" cy="-14.8492" rx="14.7" ry="14.7"/>
<text text-anchor="middle" x="165.7487" y="-12.6492" font-family="Times,serif" font-size="9.00" fill="#000000">0</text>
</g>
<!-- 1 -->
<g id="node5" class="node">
<title>1</title>
<ellipse fill="#add8e6" stroke="#000000" cx="117.7487" cy="-14.8492" rx="14.7" ry="14.7"/>
<text text-anchor="middle" x="117.7487" y="-12.6492" font-family="Times,serif" font-size="9.00" fill="#000000">1</text>
</g>
<!-- 2606&#45;&gt;0 -->
<g id="edge12" class="edge">
<title>2606&#45;&gt;0</title>
<path fill="none" stroke="#00ff00" stroke-width=".2914" d="M257.8315,-240.0848C263.9761,-228.811 270.6256,-214.4852 273.7487,-200.6934 286.9996,-142.1772 305.8917,-116.3597 273.7487,-65.6985 255.5819,-37.0653 216.5173,-24.2613 190.6906,-18.7491"/>
<polygon fill="#00ff00" stroke="#00ff00" stroke-width=".2914" points="191.0112,-15.2471 180.532,-16.8082 189.6976,-22.1227 191.0112,-15.2471"/>
</g>
<!-- 2606&#45;&gt;1 -->
<g id="edge13" class="edge">
<title>2606&#45;&gt;1</title>
<path fill="none" stroke="#ff0000" stroke-width=".17" stroke-dasharray="1,5" d="M240.3276,-237.0481C232.4015,-198.1251 213.0089,-120.7561 175.7487,-65.6985 165.9648,-51.2411 151.1056,-38.3224 138.877,-29.124"/>
<polygon fill="#ff0000" stroke="#ff0000" stroke-width=".17" points="140.7054,-26.1273 130.5478,-23.1149 136.6098,-31.8042 140.7054,-26.1273"/>
</g>
<!-- 2606&#45;&gt;2610 -->
<g id="edge19" class="edge">
<title>2606&#45;&gt;2610</title>
<path fill="none" stroke="#ff0000" stroke-width=".4588" d="M228.2579,-242.8905C217.7011,-231.0145 203.8421,-215.4236 192.1548,-202.2758"/>
<polygon fill="#ff0000" stroke="#ff0000" stroke-width=".4588" points="194.4671,-199.6089 185.2074,-194.4602 189.2353,-204.2595 194.4671,-199.6089"/>
</g>
<!-- 2607&#45;&gt;0 -->
<g id="edge14" class="edge">
<title>2607&#45;&gt;0</title>
<path fill="none" stroke="#00ff00" stroke-width=".3168" stroke-dasharray="1,5" d="M149.3425,-66.5275C152.1457,-57.6976 155.3215,-47.6942 158.1272,-38.8566"/>
<polygon fill="#00ff00" stroke="#00ff00" stroke-width=".3168" points="161.5163,-39.7478 161.2063,-29.1575 154.8444,-37.6297 161.5163,-39.7478"/>
</g>
<!-- 2607&#45;&gt;1 -->
<g id="edge15" class="edge">
<title>2607&#45;&gt;1</title>
<path fill="none" stroke="#00ff00" stroke-width=".2781" d="M134.155,-66.5275C131.3518,-57.6976 128.176,-47.6942 125.3703,-38.8566"/>
<polygon fill="#00ff00" stroke="#00ff00" stroke-width=".2781" points="128.653,-37.6297 122.2912,-29.1575 121.9812,-39.7478 128.653,-37.6297"/>
</g>
<!-- 2609&#45;&gt;0 -->
<g id="edge16" class="edge">
<title>2609&#45;&gt;0</title>
<path fill="none" stroke="#ff0000" stroke-width=".3843" stroke-dasharray="1,5" d="M41.0152,-157.1857C51.0473,-145.3749 64.005,-129.6762 74.7487,-115.196 90.5031,-93.9625 90.3245,-85.5846 107.7487,-65.6985 119.2531,-52.5687 134.0805,-39.6255 145.8636,-30.0833"/>
<polygon fill="#ff0000" stroke="#ff0000" stroke-width=".3843" points="148.151,-32.7364 153.8144,-23.7823 143.8032,-27.2503 148.151,-32.7364"/>
</g>
<!-- 2609&#45;&gt;1 -->
<g id="edge17" class="edge">
<title>2609&#45;&gt;1</title>
<path fill="none" stroke="#ff0000" stroke-width=".124" d="M33.152,-152.6198C41.9266,-129.6297 56.8891,-93.9415 74.7487,-65.6985 82.1086,-54.0597 91.9283,-42.2436 100.3256,-32.9347"/>
<polygon fill="#ff0000" stroke="#ff0000" stroke-width=".124" points="103.0146,-35.1822 107.2414,-25.467 97.8787,-30.4259 103.0146,-35.1822"/>
</g>
<!-- 2610&#45;&gt;2607 -->
<g id="edge18" class="edge">
<title>2610&#45;&gt;2607</title>
<path fill="none" stroke="#ff0000" stroke-width=".1507" d="M161.2277,-152.1289C158.4483,-143.3277 155.2452,-133.1848 152.2496,-123.6989"/>
<polygon fill="#ff0000" stroke="#ff0000" stroke-width=".1507" points="155.5784,-122.6171 149.2294,-114.1353 148.9033,-124.7251 155.5784,-122.6171"/>
</g>
</g>
</svg>
