<?xml version="1.0" encoding="UTF-8" standalone="no"?>
<!DOCTYPE svg PUBLIC "-//W3C//DTD SVG 1.1//EN"
 "http://www.w3.org/Graphics/SVG/1.1/DTD/svg11.dtd">
<!-- Generated by graphviz version 2.40.1 (20161225.0304)
 -->
<!-- Title: %3 Pages: 1 -->
<svg width="652pt" height="170pt"
 viewBox="0.00 0.00 651.50 170.12" xmlns="http://www.w3.org/2000/svg" xmlns:xlink="http://www.w3.org/1999/xlink">
<g id="graph0" class="graph" transform="scale(1 1) rotate(0) translate(4 166.1249)">
<title>%3</title>
<polygon fill="#ffffff" stroke="transparent" points="-4,4 -4,-166.1249 647.5,-166.1249 647.5,4 -4,4"/>
<!-- &#45;1 -->
<g id="node1" class="node">
<title>&#45;1</title>
<polygon fill="#d3d3d3" stroke="#000000" points="114,-162.1249 90,-162.1249 90,-144.1249 114,-144.1249 114,-162.1249"/>
<text text-anchor="middle" x="102" y="-150.9249" font-family="Times,serif" font-size="9.00" fill="#000000">&#45;1</text>
</g>
<!-- 134 -->
<g id="node18" class="node">
<title>134</title>
<ellipse fill="#ffffff" stroke="#000000" cx="252" cy="-86.9117" rx="21.4286" ry="21.4286"/>
<text text-anchor="middle" x="252" y="-84.7117" font-family="Times,serif" font-size="9.00" fill="#000000">134</text>
</g>
<!-- &#45;1&#45;&gt;134 -->
<g id="edge1" class="edge">
<title>&#45;1&#45;&gt;134</title>
<path fill="none" stroke="#ff0000" stroke-width=".3994" d="M114.3891,-147.6788C117.2074,-146.478 120.1969,-145.2342 123,-144.1249 166.5338,-126.8967 180.518,-129.8331 222,-108.1249 223.5154,-107.3319 225.0424,-106.4723 226.5621,-105.5687"/>
<polygon fill="#ff0000" stroke="#ff0000" stroke-width=".3994" points="228.5605,-108.4444 235.0518,-100.071 224.7556,-102.5688 228.5605,-108.4444"/>
</g>
<!-- 135 -->
<g id="node19" class="node">
<title>135</title>
<ellipse fill="#ffffff" stroke="#000000" cx="312" cy="-86.9117" rx="21.4286" ry="21.4286"/>
<text text-anchor="middle" x="312" y="-84.7117" font-family="Times,serif" font-size="9.00" fill="#000000">135</text>
</g>
<!-- &#45;1&#45;&gt;135 -->
<g id="edge2" class="edge">
<title>&#45;1&#45;&gt;135</title>
<path fill="none" stroke="#ff0000" stroke-width=".1247" d="M114.2937,-147.4136C117.1169,-146.2266 120.1326,-145.0553 123,-144.1249 191.9177,-121.7613 215.8144,-137.6078 282,-108.1249 283.5623,-107.4289 285.1265,-106.6461 286.675,-105.8021"/>
<polygon fill="#ff0000" stroke="#ff0000" stroke-width=".1247" points="288.5987,-108.7275 295.2499,-100.4806 284.9076,-102.7798 288.5987,-108.7275"/>
</g>
<!-- 136 -->
<g id="node20" class="node">
<title>136</title>
<ellipse fill="#ffffff" stroke="#000000" cx="372" cy="-86.9117" rx="21.4286" ry="21.4286"/>
<text text-anchor="middle" x="372" y="-84.7117" font-family="Times,serif" font-size="9.00" fill="#000000">136</text>
</g>
<!-- &#45;1&#45;&gt;136 -->
<g id="edge3" class="edge">
<title>&#45;1&#45;&gt;136</title>
<path fill="none" stroke="#ff0000" stroke-width=".1021" d="M114.2543,-147.286C117.0796,-146.1056 120.1061,-144.9693 123,-144.1249 217.6909,-116.4949 250.7375,-145.5538 342,-108.1249 343.623,-107.4593 345.2435,-106.6918 346.8433,-105.8522"/>
<polygon fill="#ff0000" stroke="#ff0000" stroke-width=".1021" points="348.9515,-108.6654 355.6529,-100.4591 345.2967,-102.6953 348.9515,-108.6654"/>
</g>
<!-- 138 -->
<g id="node21" class="node">
<title>138</title>
<ellipse fill="#ffffff" stroke="#000000" cx="432" cy="-86.9117" rx="21.4286" ry="21.4286"/>
<text text-anchor="middle" x="432" y="-84.7117" font-family="Times,serif" font-size="9.00" fill="#000000">138</text>
</g>
<!-- &#45;1&#45;&gt;138 -->
<g id="edge4" class="edge">
<title>&#45;1&#45;&gt;138</title>
<path fill="none" stroke="#ff0000" stroke-width=".4323" d="M114.2333,-147.2115C117.0597,-146.035 120.0919,-144.9191 123,-144.1249 243.6108,-111.185 285.5192,-153.5585 402,-108.1249 403.6343,-107.4874 405.2636,-106.7422 406.8702,-105.9196"/>
<polygon fill="#ff0000" stroke="#ff0000" stroke-width=".4323" points="408.9569,-108.7478 415.6994,-100.5753 405.3321,-102.7594 408.9569,-108.7478"/>
</g>
<!-- 139 -->
<g id="node22" class="node">
<title>139</title>
<ellipse fill="#ffffff" stroke="#000000" cx="192" cy="-86.9117" rx="21.4286" ry="21.4286"/>
<text text-anchor="middle" x="192" y="-84.7117" font-family="Times,serif" font-size="9.00" fill="#000000">139</text>
</g>
<!-- &#45;1&#45;&gt;139 -->
<g id="edge5" class="edge">
<title>&#45;1&#45;&gt;139</title>
<path fill="none" stroke="#ff0000" stroke-width=".3418" d="M114.1378,-144.1951C127.4577,-134.3956 149.2238,-118.3822 166.3611,-105.7743"/>
<polygon fill="#ff0000" stroke="#ff0000" stroke-width=".3418" points="168.8508,-108.2878 174.8316,-99.5425 164.7026,-102.6493 168.8508,-108.2878"/>
</g>
<!-- &#45;2 -->
<g id="node2" class="node">
<title>&#45;2</title>
<polygon fill="#d3d3d3" stroke="#000000" points="156,-162.1249 132,-162.1249 132,-144.1249 156,-144.1249 156,-162.1249"/>
<text text-anchor="middle" x="144" y="-150.9249" font-family="Times,serif" font-size="9.00" fill="#000000">&#45;2</text>
</g>
<!-- &#45;2&#45;&gt;134 -->
<g id="edge6" class="edge">
<title>&#45;2&#45;&gt;134</title>
<path fill="none" stroke="#ff0000" stroke-width=".3689" d="M156.0974,-146.5994C171.608,-138.1303 199.2207,-122.7058 222,-108.1249 223.4405,-107.2028 224.9084,-106.2412 226.382,-105.2584"/>
<polygon fill="#ff0000" stroke="#ff0000" stroke-width=".3689" points="228.4704,-108.0702 234.7359,-99.5266 224.51,-102.2983 228.4704,-108.0702"/>
</g>
<!-- &#45;2&#45;&gt;135 -->
<g id="edge7" class="edge">
<title>&#45;2&#45;&gt;135</title>
<path fill="none" stroke="#00ff00" stroke-width=".2965" d="M156.349,-147.5738C159.1694,-146.3785 162.1699,-145.1634 165,-144.1249 216.0757,-125.3826 233.177,-132.1314 282,-108.1249 283.5348,-107.3702 285.0772,-106.5409 286.6088,-105.6609"/>
<polygon fill="#00ff00" stroke="#00ff00" stroke-width=".2965" points="288.5785,-108.5561 295.1339,-100.2328 284.8188,-102.6514 288.5785,-108.5561"/>
</g>
<!-- &#45;2&#45;&gt;136 -->
<g id="edge8" class="edge">
<title>&#45;2&#45;&gt;136</title>
<path fill="none" stroke="#ff0000" stroke-width=".3415" d="M156.2787,-147.3667C159.1027,-146.1821 162.1225,-145.0237 165,-144.1249 241.6258,-120.1888 268.3143,-139.9817 342,-108.1249 343.5699,-107.4462 345.14,-106.6769 346.6932,-105.8435"/>
<polygon fill="#ff0000" stroke="#ff0000" stroke-width=".3415" points="348.603,-108.7779 355.2818,-100.5533 344.9318,-102.8178 348.603,-108.7779"/>
</g>
<!-- &#45;2&#45;&gt;138 -->
<g id="edge9" class="edge">
<title>&#45;2&#45;&gt;138</title>
<path fill="none" stroke="#00ff00" stroke-width=".5" stroke-dasharray="1,5" d="M156.2468,-147.2598C159.0725,-146.0808 162.101,-144.9517 165,-144.1249 267.4563,-114.9049 303.1821,-147.9512 402,-108.1249 403.627,-107.4692 405.2507,-106.7095 406.8529,-105.8759"/>
<polygon fill="#00ff00" stroke="#00ff00" stroke-width=".5" points="408.9536,-108.6943 415.6695,-100.4999 405.3094,-102.7177 408.9536,-108.6943"/>
</g>
<!-- &#45;2&#45;&gt;139 -->
<g id="edge10" class="edge">
<title>&#45;2&#45;&gt;139</title>
<path fill="none" stroke="#ff0000" stroke-width=".3131" d="M150.6742,-143.9182C156.5861,-135.7631 165.5013,-123.4651 173.5396,-112.3768"/>
<polygon fill="#ff0000" stroke="#ff0000" stroke-width=".3131" points="176.4156,-114.3726 179.4513,-104.2219 170.7482,-110.2641 176.4156,-114.3726"/>
</g>
<!-- &#45;3 -->
<g id="node3" class="node">
<title>&#45;3</title>
<polygon fill="#d3d3d3" stroke="#000000" points="198,-162.1249 174,-162.1249 174,-144.1249 198,-144.1249 198,-162.1249"/>
<text text-anchor="middle" x="186" y="-150.9249" font-family="Times,serif" font-size="9.00" fill="#000000">&#45;3</text>
</g>
<!-- &#45;3&#45;&gt;134 -->
<g id="edge11" class="edge">
<title>&#45;3&#45;&gt;134</title>
<path fill="none" stroke="#ff0000" stroke-width=".171" d="M195.177,-143.9182C204.0099,-135.0569 217.7184,-121.304 229.4578,-109.5267"/>
<polygon fill="#ff0000" stroke="#ff0000" stroke-width=".171" points="232.236,-111.6973 236.8168,-102.1439 227.2783,-106.7555 232.236,-111.6973"/>
</g>
<!-- &#45;3&#45;&gt;135 -->
<g id="edge12" class="edge">
<title>&#45;3&#45;&gt;135</title>
<path fill="none" stroke="#ff0000" stroke-width=".4597" d="M198.1362,-147.7597C220.3631,-137.8803 266.7261,-117.0108 282,-108.1249 283.4784,-107.2648 284.9761,-106.3522 286.473,-105.4075"/>
<polygon fill="#ff0000" stroke="#ff0000" stroke-width=".4597" points="288.5195,-108.2496 294.8956,-99.7881 284.6345,-102.4267 288.5195,-108.2496"/>
</g>
<!-- &#45;3&#45;&gt;136 -->
<g id="edge13" class="edge">
<title>&#45;3&#45;&gt;136</title>
<path fill="none" stroke="#00ff00" stroke-width=".2335" d="M198.3206,-147.494C201.1424,-146.3028 204.1508,-145.1096 207,-144.1249 265.6906,-123.8416 285.7662,-134.4642 342,-108.1249 343.5489,-107.3994 345.1024,-106.5932 346.6425,-105.7311"/>
<polygon fill="#00ff00" stroke="#00ff00" stroke-width=".2335" points="348.5896,-108.6413 355.193,-100.356 344.8641,-102.715 348.5896,-108.6413"/>
</g>
<!-- &#45;3&#45;&gt;138 -->
<g id="edge14" class="edge">
<title>&#45;3&#45;&gt;138</title>
<path fill="none" stroke="#ff0000" stroke-width=".1131" d="M198.2668,-147.328C201.0915,-146.1455 204.1145,-144.9977 207,-144.1249 291.3567,-118.6091 320.7922,-142.3652 402,-108.1249 403.576,-107.4604 405.1509,-106.7024 406.7078,-105.8778"/>
<polygon fill="#ff0000" stroke="#ff0000" stroke-width=".1131" points="408.606,-108.8195 415.3075,-100.6133 404.9513,-102.8493 408.606,-108.8195"/>
</g>
<!-- &#45;3&#45;&gt;139 -->
<g id="edge15" class="edge">
<title>&#45;3&#45;&gt;139</title>
<path fill="none" stroke="#ff0000" stroke-width=".155" d="M186.8343,-143.9182C187.4379,-137.2572 188.2919,-127.8323 189.1321,-118.5602"/>
<polygon fill="#ff0000" stroke="#ff0000" stroke-width=".155" points="192.6439,-118.5872 190.0608,-108.3121 185.6725,-117.9554 192.6439,-118.5872"/>
</g>
<!-- &#45;4 -->
<g id="node4" class="node">
<title>&#45;4</title>
<polygon fill="#d3d3d3" stroke="#000000" points="240,-162.1249 216,-162.1249 216,-144.1249 240,-144.1249 240,-162.1249"/>
<text text-anchor="middle" x="228" y="-150.9249" font-family="Times,serif" font-size="9.00" fill="#000000">&#45;4</text>
</g>
<!-- &#45;4&#45;&gt;134 -->
<g id="edge16" class="edge">
<title>&#45;4&#45;&gt;134</title>
<path fill="none" stroke="#ff0000" stroke-width=".4178" d="M231.3371,-143.9182C233.926,-136.7758 237.6667,-126.4556 241.2559,-116.5534"/>
<polygon fill="#ff0000" stroke="#ff0000" stroke-width=".4178" points="244.629,-117.518 244.7463,-106.9238 238.048,-115.1325 244.629,-117.518"/>
</g>
<!-- &#45;4&#45;&gt;135 -->
<g id="edge17" class="edge">
<title>&#45;4&#45;&gt;135</title>
<path fill="none" stroke="#ff0000" stroke-width=".1425" d="M239.6798,-143.9182C251.8514,-134.324 271.2974,-118.9956 286.9607,-106.6489"/>
<polygon fill="#ff0000" stroke="#ff0000" stroke-width=".1425" points="289.5164,-109.0911 295.2032,-100.1518 285.183,-103.5936 289.5164,-109.0911"/>
</g>
<!-- &#45;4&#45;&gt;136 -->
<g id="edge18" class="edge">
<title>&#45;4&#45;&gt;136</title>
<path fill="none" stroke="#00ff00" stroke-width=".4077" d="M240.4062,-147.7215C243.2236,-146.5185 246.2085,-145.2629 249,-144.1249 290.0424,-127.3926 302.9435,-129.0781 342,-108.1249 343.5071,-107.3163 345.0277,-106.4444 346.5423,-105.5314"/>
<polygon fill="#00ff00" stroke="#00ff00" stroke-width=".4077" points="348.5521,-108.3992 355.017,-100.0055 344.7287,-102.5356 348.5521,-108.3992"/>
</g>
<!-- &#45;4&#45;&gt;138 -->
<g id="edge19" class="edge">
<title>&#45;4&#45;&gt;138</title>
<path fill="none" stroke="#00ff00" stroke-width=".3111" d="M240.2995,-147.4315C243.1225,-146.2435 246.1366,-145.0674 249,-144.1249 315.3547,-122.2835 338.3083,-136.8192 402,-108.1249 403.5594,-107.4224 405.1212,-106.6343 406.6679,-105.7863"/>
<polygon fill="#00ff00" stroke="#00ff00" stroke-width=".3111" points="408.5969,-108.7083 415.2375,-100.4528 404.8981,-102.7653 408.5969,-108.7083"/>
</g>
<!-- &#45;4&#45;&gt;139 -->
<g id="edge20" class="edge">
<title>&#45;4&#45;&gt;139</title>
<path fill="none" stroke="#00ff00" stroke-width=".1945" d="M222.9944,-143.9182C218.8403,-136.2778 212.709,-125.0009 206.9939,-114.4893"/>
<polygon fill="#00ff00" stroke="#00ff00" stroke-width=".1945" points="209.9904,-112.6731 202.1388,-105.5595 203.8406,-116.0168 209.9904,-112.6731"/>
</g>
<!-- &#45;5 -->
<g id="node5" class="node">
<title>&#45;5</title>
<polygon fill="#d3d3d3" stroke="#000000" points="282,-162.1249 258,-162.1249 258,-144.1249 282,-144.1249 282,-162.1249"/>
<text text-anchor="middle" x="270" y="-150.9249" font-family="Times,serif" font-size="9.00" fill="#000000">&#45;5</text>
</g>
<!-- &#45;5&#45;&gt;134 -->
<g id="edge21" class="edge">
<title>&#45;5&#45;&gt;134</title>
<path fill="none" stroke="#ff0000" stroke-width=".363" d="M267.4972,-143.9182C265.6044,-136.9557 262.8908,-126.9735 260.2617,-117.3024"/>
<polygon fill="#ff0000" stroke="#ff0000" stroke-width=".363" points="263.5913,-116.208 257.5905,-107.4764 256.8364,-118.0443 263.5913,-116.208"/>
</g>
<!-- &#45;5&#45;&gt;135 -->
<g id="edge22" class="edge">
<title>&#45;5&#45;&gt;135</title>
<path fill="none" stroke="#00ff00" stroke-width=".1828" d="M275.8399,-143.9182C280.8058,-136.0896 288.1933,-124.4431 294.9989,-113.7139"/>
<polygon fill="#00ff00" stroke="#00ff00" stroke-width=".1828" points="298.112,-115.3404 300.5129,-105.0211 292.2009,-111.5908 298.112,-115.3404"/>
</g>
<!-- &#45;5&#45;&gt;136 -->
<g id="edge23" class="edge">
<title>&#45;5&#45;&gt;136</title>
<path fill="none" stroke="#00ff00" stroke-width=".4284" d="M282.1083,-145.8466C296.5245,-137.1148 321.259,-121.9234 342,-108.1249 343.424,-107.1775 344.8788,-106.1959 346.3423,-105.1976"/>
<polygon fill="#00ff00" stroke="#00ff00" stroke-width=".4284" points="348.447,-107.9973 354.6662,-99.4198 344.4555,-102.2468 348.447,-107.9973"/>
</g>
<!-- &#45;5&#45;&gt;138 -->
<g id="edge24" class="edge">
<title>&#45;5&#45;&gt;138</title>
<path fill="none" stroke="#ff0000" stroke-width=".5" stroke-dasharray="1,5" d="M282.3608,-147.6055C285.1806,-146.4085 288.1779,-145.1848 291,-144.1249 339.5521,-125.891 355.6332,-131.3606 402,-108.1249 403.5291,-107.3586 405.067,-106.5202 406.595,-105.633"/>
<polygon fill="#ff0000" stroke="#ff0000" stroke-width=".5" points="408.5734,-108.5223 415.1096,-100.1839 404.8001,-102.6264 408.5734,-108.5223"/>
</g>
<!-- &#45;5&#45;&gt;139 -->
<g id="edge25" class="edge">
<title>&#45;5&#45;&gt;139</title>
<path fill="none" stroke="#00ff00" stroke-width=".1601" d="M259.1544,-143.9182C247.9935,-134.4439 230.2456,-119.3779 215.7978,-107.1133"/>
<polygon fill="#00ff00" stroke="#00ff00" stroke-width=".1601" points="218.0621,-104.4445 208.1735,-100.6412 213.532,-109.781 218.0621,-104.4445"/>
</g>
<!-- &#45;6 -->
<g id="node6" class="node">
<title>&#45;6</title>
<polygon fill="#d3d3d3" stroke="#000000" points="324,-162.1249 300,-162.1249 300,-144.1249 324,-144.1249 324,-162.1249"/>
<text text-anchor="middle" x="312" y="-150.9249" font-family="Times,serif" font-size="9.00" fill="#000000">&#45;6</text>
</g>
<!-- &#45;6&#45;&gt;134 -->
<g id="edge26" class="edge">
<title>&#45;6&#45;&gt;134</title>
<path fill="none" stroke="#ff0000" stroke-width=".5" d="M303.6573,-143.9182C295.8085,-135.2567 283.725,-121.9219 273.2177,-110.3266"/>
<polygon fill="#ff0000" stroke="#ff0000" stroke-width=".5" points="275.5752,-107.7158 266.2667,-102.6558 270.388,-112.4162 275.5752,-107.7158"/>
</g>
<!-- &#45;6&#45;&gt;135 -->
<g id="edge27" class="edge">
<title>&#45;6&#45;&gt;135</title>
<path fill="none" stroke="#00ff00" stroke-width=".4678" d="M312,-143.9182C312,-137.2572 312,-127.8323 312,-118.5602"/>
<polygon fill="#00ff00" stroke="#00ff00" stroke-width=".4678" points="315.5001,-118.312 312,-108.3121 308.5001,-118.3121 315.5001,-118.312"/>
</g>
<!-- &#45;6&#45;&gt;136 -->
<g id="edge28" class="edge">
<title>&#45;6&#45;&gt;136</title>
<path fill="none" stroke="#00ff00" stroke-width=".3232" d="M320.3427,-143.9182C328.1915,-135.2567 340.275,-121.9219 350.7823,-110.3266"/>
<polygon fill="#00ff00" stroke="#00ff00" stroke-width=".3232" points="353.612,-112.4162 357.7333,-102.6558 348.4248,-107.7158 353.612,-112.4162"/>
</g>
<!-- &#45;6&#45;&gt;138 -->
<g id="edge29" class="edge">
<title>&#45;6&#45;&gt;138</title>
<path fill="none" stroke="#00ff00" stroke-width=".1018" stroke-dasharray="1,5" d="M324.2474,-147.7208C341.8599,-139.79 375.1724,-124.1902 402,-108.1249 403.4674,-107.2462 404.9564,-106.3188 406.4466,-105.3627"/>
<polygon fill="#00ff00" stroke="#00ff00" stroke-width=".1018" points="408.5059,-108.1956 414.8492,-99.7095 404.5984,-102.3877 408.5059,-108.1956"/>
</g>
<!-- &#45;6&#45;&gt;139 -->
<g id="edge30" class="edge">
<title>&#45;6&#45;&gt;139</title>
<path fill="none" stroke="#ff0000" stroke-width=".2707" d="M299.7526,-147.7208C282.1401,-139.79 248.8276,-124.1902 222,-108.1249 220.5326,-107.2462 219.0436,-106.3188 217.5534,-105.3627"/>
<polygon fill="#ff0000" stroke="#ff0000" stroke-width=".2707" points="219.4016,-102.3877 209.1508,-99.7095 215.4941,-108.1956 219.4016,-102.3877"/>
</g>
<!-- &#45;7 -->
<g id="node7" class="node">
<title>&#45;7</title>
<polygon fill="#d3d3d3" stroke="#000000" points="366,-162.1249 342,-162.1249 342,-144.1249 366,-144.1249 366,-162.1249"/>
<text text-anchor="middle" x="354" y="-150.9249" font-family="Times,serif" font-size="9.00" fill="#000000">&#45;7</text>
</g>
<!-- &#45;7&#45;&gt;134 -->
<g id="edge31" class="edge">
<title>&#45;7&#45;&gt;134</title>
<path fill="none" stroke="#00ff00" stroke-width=".3177" d="M341.8917,-145.8466C327.4755,-137.1148 302.741,-121.9234 282,-108.1249 280.576,-107.1775 279.1212,-106.1959 277.6577,-105.1976"/>
<polygon fill="#00ff00" stroke="#00ff00" stroke-width=".3177" points="279.5445,-102.2468 269.3338,-99.4198 275.553,-107.9973 279.5445,-102.2468"/>
</g>
<!-- &#45;7&#45;&gt;135 -->
<g id="edge32" class="edge">
<title>&#45;7&#45;&gt;135</title>
<path fill="none" stroke="#00ff00" stroke-width=".1587" d="M348.1601,-143.9182C343.1942,-136.0896 335.8067,-124.4431 329.0011,-113.7139"/>
<polygon fill="#00ff00" stroke="#00ff00" stroke-width=".1587" points="331.7991,-111.5908 323.4871,-105.0211 325.888,-115.3404 331.7991,-111.5908"/>
</g>
<!-- &#45;7&#45;&gt;136 -->
<g id="edge33" class="edge">
<title>&#45;7&#45;&gt;136</title>
<path fill="none" stroke="#ff0000" stroke-width=".2968" d="M356.5028,-143.9182C358.3956,-136.9557 361.1092,-126.9735 363.7383,-117.3024"/>
<polygon fill="#ff0000" stroke="#ff0000" stroke-width=".2968" points="367.1636,-118.0443 366.4095,-107.4764 360.4087,-116.208 367.1636,-118.0443"/>
</g>
<!-- &#45;7&#45;&gt;138 -->
<g id="edge34" class="edge">
<title>&#45;7&#45;&gt;138</title>
<path fill="none" stroke="#00ff00" stroke-width=".1756" d="M364.8456,-143.9182C376.0065,-134.4439 393.7544,-119.3779 408.2022,-107.1133"/>
<polygon fill="#00ff00" stroke="#00ff00" stroke-width=".1756" points="410.468,-109.781 415.8265,-100.6412 405.9379,-104.4445 410.468,-109.781"/>
</g>
<!-- &#45;7&#45;&gt;139 -->
<g id="edge35" class="edge">
<title>&#45;7&#45;&gt;139</title>
<path fill="none" stroke="#ff0000" stroke-width=".1087" d="M341.6392,-147.6055C338.8194,-146.4085 335.8221,-145.1848 333,-144.1249 284.4479,-125.891 268.3668,-131.3606 222,-108.1249 220.4709,-107.3586 218.933,-106.5202 217.405,-105.633"/>
<polygon fill="#ff0000" stroke="#ff0000" stroke-width=".1087" points="219.1999,-102.6264 208.8904,-100.1839 215.4266,-108.5223 219.1999,-102.6264"/>
</g>
<!-- &#45;8 -->
<g id="node8" class="node">
<title>&#45;8</title>
<polygon fill="#d3d3d3" stroke="#000000" points="408,-162.1249 384,-162.1249 384,-144.1249 408,-144.1249 408,-162.1249"/>
<text text-anchor="middle" x="396" y="-150.9249" font-family="Times,serif" font-size="9.00" fill="#000000">&#45;8</text>
</g>
<!-- &#45;8&#45;&gt;134 -->
<g id="edge36" class="edge">
<title>&#45;8&#45;&gt;134</title>
<path fill="none" stroke="#ff0000" stroke-width=".2213" d="M383.5938,-147.7215C380.7764,-146.5185 377.7915,-145.2629 375,-144.1249 333.9576,-127.3926 321.0565,-129.0781 282,-108.1249 280.4929,-107.3163 278.9723,-106.4444 277.4577,-105.5314"/>
<polygon fill="#ff0000" stroke="#ff0000" stroke-width=".2213" points="279.2713,-102.5356 268.983,-100.0055 275.4479,-108.3992 279.2713,-102.5356"/>
</g>
<!-- &#45;8&#45;&gt;135 -->
<g id="edge37" class="edge">
<title>&#45;8&#45;&gt;135</title>
<path fill="none" stroke="#00ff00" stroke-width=".1455" d="M384.3202,-143.9182C372.1486,-134.324 352.7026,-118.9956 337.0393,-106.6489"/>
<polygon fill="#00ff00" stroke="#00ff00" stroke-width=".1455" points="338.817,-103.5936 328.7968,-100.1518 334.4836,-109.0911 338.817,-103.5936"/>
</g>
<!-- &#45;8&#45;&gt;136 -->
<g id="edge38" class="edge">
<title>&#45;8&#45;&gt;136</title>
<path fill="none" stroke="#00ff00" stroke-width=".2539" d="M392.6629,-143.9182C390.074,-136.7758 386.3333,-126.4556 382.7441,-116.5534"/>
<polygon fill="#00ff00" stroke="#00ff00" stroke-width=".2539" points="385.952,-115.1325 379.2537,-106.9238 379.371,-117.518 385.952,-115.1325"/>
</g>
<!-- &#45;8&#45;&gt;138 -->
<g id="edge39" class="edge">
<title>&#45;8&#45;&gt;138</title>
<path fill="none" stroke="#ff0000" stroke-width=".3191" d="M401.0056,-143.9182C405.1597,-136.2778 411.291,-125.0009 417.0061,-114.4893"/>
<polygon fill="#ff0000" stroke="#ff0000" stroke-width=".3191" points="420.1594,-116.0168 421.8612,-105.5595 414.0096,-112.6731 420.1594,-116.0168"/>
</g>
<!-- &#45;8&#45;&gt;139 -->
<g id="edge40" class="edge">
<title>&#45;8&#45;&gt;139</title>
<path fill="none" stroke="#ff0000" stroke-width=".3094" d="M383.7005,-147.4315C380.8775,-146.2435 377.8634,-145.0674 375,-144.1249 308.6453,-122.2835 285.6917,-136.8192 222,-108.1249 220.4406,-107.4224 218.8788,-106.6343 217.3321,-105.7863"/>
<polygon fill="#ff0000" stroke="#ff0000" stroke-width=".3094" points="219.1019,-102.7653 208.7625,-100.4528 215.4031,-108.7083 219.1019,-102.7653"/>
</g>
<!-- &#45;9 -->
<g id="node9" class="node">
<title>&#45;9</title>
<polygon fill="#d3d3d3" stroke="#000000" points="24,-162.1249 0,-162.1249 0,-144.1249 24,-144.1249 24,-162.1249"/>
<text text-anchor="middle" x="12" y="-150.9249" font-family="Times,serif" font-size="9.00" fill="#000000">&#45;9</text>
</g>
<!-- &#45;9&#45;&gt;134 -->
<g id="edge41" class="edge">
<title>&#45;9&#45;&gt;134</title>
<path fill="none" stroke="#ff0000" stroke-width=".4895" d="M24.2705,-147.3401C27.095,-146.1569 30.117,-145.0058 33,-144.1249 114.7776,-119.1363 143.3016,-141.5698 222,-108.1249 223.5741,-107.4559 225.1475,-106.6944 226.7032,-105.867"/>
<polygon fill="#ff0000" stroke="#ff0000" stroke-width=".4895" points="228.6051,-108.8065 235.2995,-100.5945 224.9452,-102.8394 228.6051,-108.8065"/>
</g>
<!-- &#45;9&#45;&gt;135 -->
<g id="edge42" class="edge">
<title>&#45;9&#45;&gt;135</title>
<path fill="none" stroke="#00ff00" stroke-width=".1343" d="M24.2424,-147.2444C27.0683,-146.0661 30.0981,-144.9413 33,-144.1249 140.6389,-113.8433 178.1398,-149.5516 282,-108.1249 283.6294,-107.475 285.2548,-106.7199 286.8585,-105.8898"/>
<polygon fill="#00ff00" stroke="#00ff00" stroke-width=".1343" points="288.9547,-108.7114 295.6791,-100.524 285.3167,-102.731 288.9547,-108.7114"/>
</g>
<!-- &#45;9&#45;&gt;136 -->
<g id="edge43" class="edge">
<title>&#45;9&#45;&gt;136</title>
<path fill="none" stroke="#00ff00" stroke-width=".5" stroke-dasharray="1,5" d="M24.2261,-147.1849C27.0529,-146.0097 30.0871,-144.9012 33,-144.1249 166.5997,-108.522 212.8821,-157.5719 342,-108.1249 343.6382,-107.4975 345.2706,-106.7602 346.8796,-105.9437"/>
<polygon fill="#00ff00" stroke="#00ff00" stroke-width=".5" points="348.9583,-108.7774 355.7155,-100.617 345.3443,-102.7824 348.9583,-108.7774"/>
</g>
<!-- &#45;9&#45;&gt;139 -->
<g id="edge44" class="edge">
<title>&#45;9&#45;&gt;139</title>
<path fill="none" stroke="#ff0000" stroke-width=".2679" d="M24.3863,-147.6718C27.2047,-146.4714 30.1951,-145.2295 33,-144.1249 77.5819,-126.5686 129.9956,-108.1264 162.102,-97.0745"/>
<polygon fill="#ff0000" stroke="#ff0000" stroke-width=".2679" points="163.4532,-100.3113 171.777,-93.7564 161.1823,-93.6899 163.4532,-100.3113"/>
</g>
<!-- &#45;10 -->
<g id="node10" class="node">
<title>&#45;10</title>
<polygon fill="#d3d3d3" stroke="#000000" points="455.5,-162.1249 426.5,-162.1249 426.5,-144.1249 455.5,-144.1249 455.5,-162.1249"/>
<text text-anchor="middle" x="441" y="-150.9249" font-family="Times,serif" font-size="9.00" fill="#000000">&#45;10</text>
</g>
<!-- &#45;10&#45;&gt;134 -->
<g id="edge45" class="edge">
<title>&#45;10&#45;&gt;134</title>
<path fill="none" stroke="#ff0000" stroke-width=".5" stroke-dasharray="1,5" d="M426.3568,-147.3735C423.2851,-146.2405 420.0516,-145.1013 417,-144.1249 357.8573,-125.2003 338.2338,-134.4642 282,-108.1249 280.4511,-107.3994 278.8976,-106.5932 277.3575,-105.7311"/>
<polygon fill="#ff0000" stroke="#ff0000" stroke-width=".5" points="279.1359,-102.715 268.807,-100.356 275.4104,-108.6413 279.1359,-102.715"/>
</g>
<!-- &#45;10&#45;&gt;135 -->
<g id="edge46" class="edge">
<title>&#45;10&#45;&gt;135</title>
<path fill="none" stroke="#00ff00" stroke-width=".1979" d="M426.4816,-147.5338C406.8047,-139.7325 370.8188,-124.6658 342,-108.1249 340.5166,-107.2735 339.0149,-106.3677 337.5149,-105.4284"/>
<polygon fill="#00ff00" stroke="#00ff00" stroke-width=".1979" points="339.349,-102.4449 329.0833,-99.8247 335.4745,-108.2748 339.349,-102.4449"/>
</g>
<!-- &#45;10&#45;&gt;136 -->
<g id="edge47" class="edge">
<title>&#45;10&#45;&gt;136</title>
<path fill="none" stroke="#ff0000" stroke-width=".335" d="M431.4058,-143.9182C421.9609,-134.8548 407.1834,-120.6741 394.7304,-108.724"/>
<polygon fill="#ff0000" stroke="#ff0000" stroke-width=".335" points="396.9841,-106.0359 387.3455,-101.6374 392.1374,-111.0866 396.9841,-106.0359"/>
</g>
<!-- &#45;10&#45;&gt;138 -->
<g id="edge48" class="edge">
<title>&#45;10&#45;&gt;138</title>
<path fill="none" stroke="#00ff00" stroke-width=".2252" d="M439.7486,-143.9182C438.8264,-137.1334 437.5144,-127.481 436.2316,-118.0433"/>
<polygon fill="#00ff00" stroke="#00ff00" stroke-width=".2252" points="439.6859,-117.4701 434.8709,-108.0326 432.7497,-118.4129 439.6859,-117.4701"/>
</g>
<!-- &#45;10&#45;&gt;139 -->
<g id="edge49" class="edge">
<title>&#45;10&#45;&gt;139</title>
<path fill="none" stroke="#00ff00" stroke-width=".3949" d="M426.4122,-147.1878C423.3365,-146.0683 420.0874,-144.9816 417,-144.1249 332.0774,-120.561 303.2078,-142.3652 222,-108.1249 220.424,-107.4604 218.8491,-106.7024 217.2922,-105.8778"/>
<polygon fill="#00ff00" stroke="#00ff00" stroke-width=".3949" points="219.0487,-102.8493 208.6925,-100.6133 215.394,-108.8195 219.0487,-102.8493"/>
</g>
<!-- &#45;11 -->
<g id="node11" class="node">
<title>&#45;11</title>
<polygon fill="#d3d3d3" stroke="#000000" points="502.5,-162.1249 473.5,-162.1249 473.5,-144.1249 502.5,-144.1249 502.5,-162.1249"/>
<text text-anchor="middle" x="488" y="-150.9249" font-family="Times,serif" font-size="9.00" fill="#000000">&#45;11</text>
</g>
<!-- &#45;11&#45;&gt;134 -->
<g id="edge50" class="edge">
<title>&#45;11&#45;&gt;134</title>
<path fill="none" stroke="#00ff00" stroke-width=".3678" d="M473.0397,-146.827C470.3894,-145.8393 467.6346,-144.8928 465,-144.1249 385.4194,-120.9294 358.1909,-140.7753 282,-108.1249 280.4279,-107.4512 278.8561,-106.6859 277.3016,-105.8557"/>
<polygon fill="#00ff00" stroke="#00ff00" stroke-width=".3678" points="279.0612,-102.8289 268.709,-100.5745 275.3959,-108.7926 279.0612,-102.8289"/>
</g>
<!-- &#45;11&#45;&gt;135 -->
<g id="edge51" class="edge">
<title>&#45;11&#45;&gt;135</title>
<path fill="none" stroke="#ff0000" stroke-width=".1019" d="M473.471,-147.2161C470.6758,-146.143 467.7595,-145.0666 465,-144.1249 411.0924,-125.7289 393.2869,-132.9059 342,-108.1249 340.46,-107.3808 338.9135,-106.5599 337.3788,-105.6863"/>
<polygon fill="#ff0000" stroke="#ff0000" stroke-width=".1019" points="339.1645,-102.6744 328.8444,-100.2774 335.4172,-108.587 339.1645,-102.6744"/>
</g>
<!-- &#45;11&#45;&gt;136 -->
<g id="edge52" class="edge">
<title>&#45;11&#45;&gt;136</title>
<path fill="none" stroke="#ff0000" stroke-width=".4117" d="M473.3719,-146.2129C455.9934,-137.8333 426.2965,-122.9804 402,-108.1249 400.5408,-107.2327 399.0582,-106.2947 397.573,-105.3303"/>
<polygon fill="#ff0000" stroke="#ff0000" stroke-width=".4117" points="399.4284,-102.3597 389.1853,-99.6526 395.5045,-108.1566 399.4284,-102.3597"/>
</g>
<!-- &#45;11&#45;&gt;138 -->
<g id="edge53" class="edge">
<title>&#45;11&#45;&gt;138</title>
<path fill="none" stroke="#ff0000" stroke-width=".1237" d="M480.2134,-143.9182C473.0551,-135.4544 462.1227,-122.5281 452.4768,-111.1231"/>
<polygon fill="#ff0000" stroke="#ff0000" stroke-width=".1237" points="454.883,-108.5481 445.7529,-103.1729 449.5382,-113.0684 454.883,-108.5481"/>
</g>
<!-- &#45;11&#45;&gt;139 -->
<g id="edge54" class="edge">
<title>&#45;11&#45;&gt;139</title>
<path fill="none" stroke="#00ff00" stroke-width=".273" stroke-dasharray="1,5" d="M473.069,-146.7218C470.4155,-145.7458 467.652,-144.8305 465,-144.1249 359.4917,-116.0537 323.3386,-148.7512 222,-108.1249 220.3718,-107.4721 218.7472,-106.7148 217.1442,-105.883"/>
<polygon fill="#00ff00" stroke="#00ff00" stroke-width=".273" points="218.6869,-102.7245 208.3256,-100.5122 215.0458,-108.7031 218.6869,-102.7245"/>
</g>
<!-- &#45;12 -->
<g id="node12" class="node">
<title>&#45;12</title>
<polygon fill="#d3d3d3" stroke="#000000" points="549.5,-162.1249 520.5,-162.1249 520.5,-144.1249 549.5,-144.1249 549.5,-162.1249"/>
<text text-anchor="middle" x="535" y="-150.9249" font-family="Times,serif" font-size="9.00" fill="#000000">&#45;12</text>
</g>
<!-- &#45;12&#45;&gt;134 -->
<g id="edge55" class="edge">
<title>&#45;12&#45;&gt;134</title>
<path fill="none" stroke="#00ff00" stroke-width=".1815" d="M520.0641,-146.7401C517.4111,-145.762 514.6491,-144.8413 512,-144.1249 412.1213,-117.1134 377.8785,-147.0184 282,-108.1249 280.3745,-107.4655 278.752,-106.703 277.1506,-105.8671"/>
<polygon fill="#00ff00" stroke="#00ff00" stroke-width=".1815" points="278.6953,-102.7094 268.3366,-100.4848 275.0471,-108.6836 278.6953,-102.7094"/>
</g>
<!-- &#45;12&#45;&gt;135 -->
<g id="edge56" class="edge">
<title>&#45;12&#45;&gt;135</title>
<path fill="none" stroke="#ff0000" stroke-width=".2635" stroke-dasharray="1,5" d="M520.0302,-146.8591C517.381,-145.8678 514.629,-144.9118 512,-144.1249 438.0122,-121.9787 412.766,-139.0572 342,-108.1249 340.4328,-107.4399 338.8649,-106.6656 337.3134,-105.8284"/>
<polygon fill="#ff0000" stroke="#ff0000" stroke-width=".2635" points="339.077,-102.8039 328.7297,-100.5267 335.3985,-108.7595 339.077,-102.8039"/>
</g>
<!-- &#45;12&#45;&gt;136 -->
<g id="edge57" class="edge">
<title>&#45;12&#45;&gt;136</title>
<path fill="none" stroke="#ff0000" stroke-width=".3043" d="M520.4464,-147.2864C517.6535,-146.2068 514.7443,-145.11 512,-144.1249 463.5843,-126.7455 447.9582,-131.2326 402,-108.1249 400.4719,-107.3566 398.9349,-106.5165 397.4075,-105.6281"/>
<polygon fill="#ff0000" stroke="#ff0000" stroke-width=".3043" points="399.2032,-102.622 388.8947,-100.1753 395.4275,-108.5164 399.2032,-102.622"/>
</g>
<!-- &#45;12&#45;&gt;138 -->
<g id="edge58" class="edge">
<title>&#45;12&#45;&gt;138</title>
<path fill="none" stroke="#00ff00" stroke-width=".1329" d="M520.6783,-143.9182C504.668,-133.626 478.3929,-116.7352 458.5904,-104.0052"/>
<polygon fill="#00ff00" stroke="#00ff00" stroke-width=".1329" points="460.312,-100.9512 450.0075,-98.4877 456.5267,-106.8394 460.312,-100.9512"/>
</g>
<!-- &#45;12&#45;&gt;139 -->
<g id="edge59" class="edge">
<title>&#45;12&#45;&gt;139</title>
<path fill="none" stroke="#00ff00" stroke-width=".3804" d="M520.0827,-146.669C517.4277,-145.6988 514.6601,-144.7992 512,-144.1249 386.1033,-112.2132 343.1128,-155.0294 222,-108.1249 220.3642,-107.4914 218.7337,-106.7492 217.1261,-105.929"/>
<polygon fill="#00ff00" stroke="#00ff00" stroke-width=".3804" points="218.6631,-102.7684 208.2943,-100.5916 215.0425,-108.7593 218.6631,-102.7684"/>
</g>
<!-- &#45;13 -->
<g id="node13" class="node">
<title>&#45;13</title>
<polygon fill="#d3d3d3" stroke="#000000" points="596.5,-162.1249 567.5,-162.1249 567.5,-144.1249 596.5,-144.1249 596.5,-162.1249"/>
<text text-anchor="middle" x="582" y="-150.9249" font-family="Times,serif" font-size="9.00" fill="#000000">&#45;13</text>
</g>
<!-- &#45;13&#45;&gt;134 -->
<g id="edge60" class="edge">
<title>&#45;13&#45;&gt;134</title>
<path fill="none" stroke="#00ff00" stroke-width=".5" d="M567.0794,-146.6818C564.4248,-145.7102 561.6582,-144.8068 559,-144.1249 438.7472,-113.2766 397.6389,-153.2912 282,-108.1249 280.366,-107.4867 278.7369,-106.7408 277.1305,-105.9178"/>
<polygon fill="#00ff00" stroke="#00ff00" stroke-width=".5" points="278.6688,-102.7577 268.3018,-100.5723 275.0433,-108.7456 278.6688,-102.7577"/>
</g>
<!-- &#45;13&#45;&gt;135 -->
<g id="edge61" class="edge">
<title>&#45;13&#45;&gt;135</title>
<path fill="none" stroke="#00ff00" stroke-width=".2971" d="M567.0585,-146.7605C564.4062,-145.7802 561.6458,-144.8534 559,-144.1249 464.7453,-118.1716 432.4237,-145.2877 342,-108.1249 340.3775,-107.4581 338.7574,-106.6897 337.1579,-105.8493"/>
<polygon fill="#00ff00" stroke="#00ff00" stroke-width=".2971" points="338.7048,-102.6925 328.3491,-100.4542 335.0487,-108.6619 338.7048,-102.6925"/>
</g>
<!-- &#45;13&#45;&gt;136 -->
<g id="edge62" class="edge">
<title>&#45;13&#45;&gt;136</title>
<path fill="none" stroke="#00ff00" stroke-width=".2421" d="M567.0189,-146.8961C564.371,-145.9007 561.6223,-144.9338 559,-144.1249 490.5917,-123.024 467.3539,-137.3448 402,-108.1249 400.4386,-107.4268 398.8752,-106.6422 397.3273,-105.797"/>
<polygon fill="#00ff00" stroke="#00ff00" stroke-width=".2421" points="399.0955,-102.775 388.7541,-100.4715 395.4019,-108.7213 399.0955,-102.775"/>
</g>
<!-- &#45;13&#45;&gt;138 -->
<g id="edge63" class="edge">
<title>&#45;13&#45;&gt;138</title>
<path fill="none" stroke="#ff0000" stroke-width=".171" d="M567.3443,-146.6555C542.7591,-135.8031 492.7781,-113.7405 460.9163,-99.676"/>
<polygon fill="#ff0000" stroke="#ff0000" stroke-width=".171" points="462.2198,-96.4256 451.658,-95.5892 459.393,-102.8294 462.2198,-96.4256"/>
</g>
<!-- &#45;13&#45;&gt;139 -->
<g id="edge64" class="edge">
<title>&#45;13&#45;&gt;139</title>
<path fill="none" stroke="#ff0000" stroke-width=".4718" d="M567.0923,-146.6306C564.4362,-145.6647 561.6658,-144.7764 559,-144.1249 412.6768,-108.363 362.9236,-161.3219 222,-108.1249 220.3588,-107.5054 218.7241,-106.7742 217.1133,-105.9624"/>
<polygon fill="#ff0000" stroke="#ff0000" stroke-width=".4718" points="218.6464,-102.8004 208.2722,-100.6493 215.0407,-108.8003 218.6464,-102.8004"/>
</g>
<!-- &#45;14 -->
<g id="node14" class="node">
<title>&#45;14</title>
<polygon fill="#d3d3d3" stroke="#000000" points="643.5,-162.1249 614.5,-162.1249 614.5,-144.1249 643.5,-144.1249 643.5,-162.1249"/>
<text text-anchor="middle" x="629" y="-150.9249" font-family="Times,serif" font-size="9.00" fill="#000000">&#45;14</text>
</g>
<!-- &#45;14&#45;&gt;134 -->
<g id="edge65" class="edge">
<title>&#45;14&#45;&gt;134</title>
<path fill="none" stroke="#ff0000" stroke-width=".5" d="M614.0899,-146.6401C611.4341,-145.6731 608.6644,-144.7821 606,-144.1249 465.3296,-109.4286 417.4412,-159.5804 282,-108.1249 280.3602,-107.5019 278.7264,-106.768 277.1165,-105.9541"/>
<polygon fill="#ff0000" stroke="#ff0000" stroke-width=".5" points="278.6505,-102.7924 268.2777,-100.635 275.0411,-108.7901 278.6505,-102.7924"/>
</g>
<!-- &#45;14&#45;&gt;135 -->
<g id="edge66" class="edge">
<title>&#45;14&#45;&gt;135</title>
<path fill="none" stroke="#ff0000" stroke-width=".4271" d="M614.0758,-146.6959C611.4215,-145.7228 608.656,-144.8151 606,-144.1249 491.3879,-114.3393 452.1681,-151.5541 342,-108.1249 340.368,-107.4816 338.7405,-106.7317 337.1353,-105.9055"/>
<polygon fill="#ff0000" stroke="#ff0000" stroke-width=".4271" points="338.6751,-102.746 328.3101,-100.5511 335.0441,-108.7306 338.6751,-102.746"/>
</g>
<!-- &#45;14&#45;&gt;136 -->
<g id="edge67" class="edge">
<title>&#45;14&#45;&gt;136</title>
<path fill="none" stroke="#ff0000" stroke-width=".3048" d="M614.0521,-146.7834C611.4005,-145.8005 608.642,-144.867 606,-144.1249 517.3626,-119.2279 486.9754,-143.5597 402,-108.1249 400.3809,-107.4497 398.7635,-106.6749 397.1661,-105.8294"/>
<polygon fill="#ff0000" stroke="#ff0000" stroke-width=".3048" points="398.7157,-102.6737 388.3634,-100.4198 395.0507,-108.6376 398.7157,-102.6737"/>
</g>
<!-- &#45;14&#45;&gt;138 -->
<g id="edge68" class="edge">
<title>&#45;14&#45;&gt;138</title>
<path fill="none" stroke="#ff0000" stroke-width=".5" stroke-dasharray="1,5" d="M614.4453,-147.2895C611.6525,-146.2096 608.7436,-145.1119 606,-144.1249 555.8898,-126.0979 496.8789,-107.1724 462.0569,-96.2386"/>
<polygon fill="#ff0000" stroke="#ff0000" stroke-width=".5" points="463.0727,-92.8891 452.4837,-93.2428 460.9821,-99.5697 463.0727,-92.8891"/>
</g>
<!-- &#45;15 -->
<g id="node15" class="node">
<title>&#45;15</title>
<polygon fill="#d3d3d3" stroke="#000000" points="71.5,-162.1249 42.5,-162.1249 42.5,-144.1249 71.5,-144.1249 71.5,-162.1249"/>
<text text-anchor="middle" x="57" y="-150.9249" font-family="Times,serif" font-size="9.00" fill="#000000">&#45;15</text>
</g>
<!-- &#45;15&#45;&gt;134 -->
<g id="edge69" class="edge">
<title>&#45;15&#45;&gt;134</title>
<path fill="none" stroke="#ff0000" stroke-width=".2054" d="M71.6352,-147.3483C74.7075,-146.2171 77.9433,-145.0851 81,-144.1249 142.7041,-124.7414 163.2846,-135.2472 222,-108.1249 223.5527,-107.4077 225.1092,-106.608 226.6518,-105.751"/>
<polygon fill="#ff0000" stroke="#ff0000" stroke-width=".2054" points="228.5924,-108.6654 235.2092,-100.3908 224.8765,-102.733 228.5924,-108.6654"/>
</g>
<!-- &#45;15&#45;&gt;135 -->
<g id="edge70" class="edge">
<title>&#45;15&#45;&gt;135</title>
<path fill="none" stroke="#00ff00" stroke-width=".1464" d="M71.5842,-147.1751C74.6602,-146.0564 77.9104,-144.9733 81,-144.1249 168.5152,-120.0929 198.2809,-143.1614 282,-108.1249 283.6182,-107.4477 285.2349,-106.6712 286.8318,-105.8245"/>
<polygon fill="#00ff00" stroke="#00ff00" stroke-width=".1464" points="288.9488,-108.6315 295.6331,-100.4113 285.2816,-102.669 288.9488,-108.6315"/>
</g>
<!-- &#45;15&#45;&gt;136 -->
<g id="edge71" class="edge">
<title>&#45;15&#45;&gt;136</title>
<path fill="none" stroke="#00ff00" stroke-width=".3473" d="M71.5588,-147.0787C74.6366,-145.967 77.894,-144.9111 81,-144.1249 194.518,-115.3906 233.0939,-151.1534 342,-108.1249 343.6315,-107.4803 345.2586,-106.7294 346.8635,-105.9025"/>
<polygon fill="#00ff00" stroke="#00ff00" stroke-width=".3473" points="348.9557,-108.7269 355.6878,-100.5459 345.3233,-102.7431 348.9557,-108.7269"/>
</g>
<!-- &#45;15&#45;&gt;138 -->
<g id="edge72" class="edge">
<title>&#45;15&#45;&gt;138</title>
<path fill="none" stroke="#ff0000" stroke-width=".1706" d="M71.5437,-147.0175C74.6226,-145.9102 77.8842,-144.8716 81,-144.1249 220.6076,-110.666 267.8236,-159.1786 402,-108.1249 403.6395,-107.5011 405.273,-106.7665 406.8828,-105.9521"/>
<polygon fill="#ff0000" stroke="#ff0000" stroke-width=".1706" points="408.9588,-108.7877 415.721,-100.6315 405.3485,-102.7905 408.9588,-108.7877"/>
</g>
<!-- &#45;15&#45;&gt;139 -->
<g id="edge73" class="edge">
<title>&#45;15&#45;&gt;139</title>
<path fill="none" stroke="#00ff00" stroke-width=".4596" d="M71.7044,-145.9129C93.5891,-135.1791 135.1588,-114.7905 163.227,-101.0239"/>
<polygon fill="#00ff00" stroke="#00ff00" stroke-width=".4596" points="165.1006,-104.0033 172.5376,-96.4574 162.0181,-97.7186 165.1006,-104.0033"/>
</g>
<!-- 0 -->
<g id="node16" class="node">
<title>0</title>
<ellipse fill="#add8e6" stroke="#000000" cx="366" cy="-14.8492" rx="14.7" ry="14.7"/>
<text text-anchor="middle" x="366" y="-12.6492" font-family="Times,serif" font-size="9.00" fill="#000000">0</text>
</g>
<!-- 1 -->
<g id="node17" class="node">
<title>1</title>
<ellipse fill="#add8e6" stroke="#000000" cx="312" cy="-14.8492" rx="14.7" ry="14.7"/>
<text text-anchor="middle" x="312" y="-12.6492" font-family="Times,serif" font-size="9.00" fill="#000000">1</text>
</g>
<!-- 134&#45;&gt;0 -->
<g id="edge74" class="edge">
<title>134&#45;&gt;0</title>
<path fill="none" stroke="#ff0000" stroke-width=".2248" d="M269.3054,-74.3606C273.4271,-71.4591 277.8379,-68.4248 282,-65.6985 302.8154,-52.0635 327.2032,-37.4457 344.322,-27.3987"/>
<polygon fill="#ff0000" stroke="#ff0000" stroke-width=".2248" points="346.1448,-30.3874 353.0158,-22.3226 342.6152,-24.3424 346.1448,-30.3874"/>
</g>
<!-- 134&#45;&gt;1 -->
<g id="edge75" class="edge">
<title>134&#45;&gt;1</title>
<path fill="none" stroke="#ff0000" stroke-width=".2334" d="M265.6149,-70.5596C274.6293,-59.7329 286.4909,-45.4867 295.9625,-34.1109"/>
<polygon fill="#ff0000" stroke="#ff0000" stroke-width=".2334" points="298.6532,-36.3493 302.362,-26.4248 293.2737,-31.8703 298.6532,-36.3493"/>
</g>
<!-- 135&#45;&gt;0 -->
<g id="edge76" class="edge">
<title>135&#45;&gt;0</title>
<path fill="none" stroke="#ff0000" stroke-width=".4969" d="M324.7972,-69.8339C332.5739,-59.456 342.5481,-46.1455 350.7351,-35.2201"/>
<polygon fill="#ff0000" stroke="#ff0000" stroke-width=".4969" points="353.6457,-37.1725 356.8415,-27.0711 348.044,-32.9748 353.6457,-37.1725"/>
</g>
<!-- 135&#45;&gt;1 -->
<g id="edge77" class="edge">
<title>135&#45;&gt;1</title>
<path fill="none" stroke="#ff0000" stroke-width=".1573" d="M312,-65.6803C312,-57.713 312,-48.5771 312,-40.2679"/>
<polygon fill="#ff0000" stroke="#ff0000" stroke-width=".1573" points="315.5001,-39.9888 312,-29.9888 308.5001,-39.9889 315.5001,-39.9888"/>
</g>
<!-- 136&#45;&gt;0 -->
<g id="edge78" class="edge">
<title>136&#45;&gt;0</title>
<path fill="none" stroke="#ff0000" stroke-width=".4644" stroke-dasharray="1,5" d="M370.2323,-65.6803C369.5614,-57.6235 368.7911,-48.3716 368.0931,-39.9882"/>
<polygon fill="#ff0000" stroke="#ff0000" stroke-width=".4644" points="371.5783,-39.6639 367.2605,-29.9888 364.6024,-40.2448 371.5783,-39.6639"/>
</g>
<!-- 136&#45;&gt;1 -->
<g id="edge79" class="edge">
<title>136&#45;&gt;1</title>
<path fill="none" stroke="#00ff00" stroke-width=".3125" d="M358.3851,-70.5596C349.3707,-59.7329 337.5091,-45.4867 328.0375,-34.1109"/>
<polygon fill="#00ff00" stroke="#00ff00" stroke-width=".3125" points="330.7263,-31.8703 321.638,-26.4248 325.3468,-36.3493 330.7263,-31.8703"/>
</g>
<!-- 138&#45;&gt;0 -->
<g id="edge80" class="edge">
<title>138&#45;&gt;0</title>
<path fill="none" stroke="#00ff00" stroke-width=".1986" d="M417.3525,-70.9187C407.2316,-59.8682 393.7339,-45.1307 383.1167,-33.5382"/>
<polygon fill="#00ff00" stroke="#00ff00" stroke-width=".1986" points="385.6386,-31.1097 376.3034,-26.0991 380.4765,-35.8375 385.6386,-31.1097"/>
</g>
<!-- 138&#45;&gt;1 -->
<g id="edge81" class="edge">
<title>138&#45;&gt;1</title>
<path fill="none" stroke="#00ff00" stroke-width=".5" d="M414.7533,-74.2694C410.6293,-71.3717 406.2026,-68.362 402,-65.6985 379.5139,-51.4475 352.8682,-36.6387 334.4335,-26.7034"/>
<polygon fill="#00ff00" stroke="#00ff00" stroke-width=".5" points="335.8301,-23.4813 325.3615,-21.8504 332.5282,-29.6536 335.8301,-23.4813"/>
</g>
<!-- 139&#45;&gt;1 -->
<g id="edge82" class="edge">
<title>139&#45;&gt;1</title>
<path fill="none" stroke="#00ff00" stroke-width=".5" d="M209.2467,-74.2694C213.3707,-71.3717 217.7974,-68.362 222,-65.6985 244.4861,-51.4475 271.1318,-36.6387 289.5665,-26.7034"/>
<polygon fill="#00ff00" stroke="#00ff00" stroke-width=".5" points="291.4718,-29.6536 298.6385,-21.8504 288.1699,-23.4813 291.4718,-29.6536"/>
</g>
</g>
</svg>
