<?xml version="1.0" encoding="UTF-8" standalone="no"?>
<!DOCTYPE svg PUBLIC "-//W3C//DTD SVG 1.1//EN"
 "http://www.w3.org/Graphics/SVG/1.1/DTD/svg11.dtd">
<!-- Generated by graphviz version 2.40.1 (20161225.0304)
 -->
<!-- Title: %3 Pages: 1 -->
<svg width="334pt" height="250pt"
 viewBox="0.00 0.00 334.42 249.97" xmlns="http://www.w3.org/2000/svg" xmlns:xlink="http://www.w3.org/1999/xlink">
<g id="graph0" class="graph" transform="scale(1 1) rotate(0) translate(4 245.9655)">
<title>%3</title>
<polygon fill="#ffffff" stroke="transparent" points="-4,4 -4,-245.9655 330.4242,-245.9655 330.4242,4 -4,4"/>
<!-- &#45;1 -->
<g id="node1" class="node">
<title>&#45;1</title>
<polygon fill="#d3d3d3" stroke="#000000" points="197.6755,-241.9655 173.6755,-241.9655 173.6755,-223.9655 197.6755,-223.9655 197.6755,-241.9655"/>
<text text-anchor="middle" x="185.6755" y="-230.7655" font-family="Times,serif" font-size="9.00" fill="#000000">&#45;1</text>
</g>
<!-- 96 -->
<g id="node6" class="node">
<title>96</title>
<ellipse fill="#ffffff" stroke="#000000" cx="185.6755" cy="-163.2168" rx="18.2703" ry="18.2703"/>
<text text-anchor="middle" x="185.6755" y="-161.0168" font-family="Times,serif" font-size="9.00" fill="#000000">96</text>
</g>
<!-- &#45;1&#45;&gt;96 -->
<g id="edge3" class="edge">
<title>&#45;1&#45;&gt;96</title>
<path fill="none" stroke="#ff0000" stroke-width=".1256" d="M185.6755,-223.8471C185.6755,-215.7049 185.6755,-203.3306 185.6755,-191.8795"/>
<polygon fill="#ff0000" stroke="#ff0000" stroke-width=".1256" points="189.1756,-191.7707 185.6755,-181.7708 182.1756,-191.7708 189.1756,-191.7707"/>
</g>
<!-- 97 -->
<g id="node7" class="node">
<title>97</title>
<ellipse fill="#ffffff" stroke="#000000" cx="38.6755" cy="-163.2168" rx="18.2703" ry="18.2703"/>
<text text-anchor="middle" x="38.6755" y="-161.0168" font-family="Times,serif" font-size="9.00" fill="#000000">97</text>
</g>
<!-- &#45;1&#45;&gt;97 -->
<g id="edge4" class="edge">
<title>&#45;1&#45;&gt;97</title>
<path fill="none" stroke="#00ff00" stroke-width=".5" stroke-dasharray="1,5" d="M173.6459,-227.2577C149.9078,-215.9944 96.5654,-190.6845 64.505,-175.4724"/>
<polygon fill="#00ff00" stroke="#00ff00" stroke-width=".5" points="65.8298,-172.227 55.2948,-171.1023 62.829,-178.5512 65.8298,-172.227"/>
</g>
<!-- 92 -->
<g id="node8" class="node">
<title>92</title>
<ellipse fill="#ffffff" stroke="#000000" cx="130.6755" cy="-163.2168" rx="18.2703" ry="18.2703"/>
<text text-anchor="middle" x="130.6755" y="-161.0168" font-family="Times,serif" font-size="9.00" fill="#000000">92</text>
</g>
<!-- &#45;1&#45;&gt;92 -->
<g id="edge1" class="edge">
<title>&#45;1&#45;&gt;92</title>
<path fill="none" stroke="#00ff00" stroke-width=".1994" d="M178.4852,-223.8471C170.8895,-214.2145 158.6232,-198.6589 148.4173,-185.7161"/>
<polygon fill="#00ff00" stroke="#00ff00" stroke-width=".1994" points="151.0181,-183.3619 142.0778,-177.6767 145.5215,-187.6963 151.0181,-183.3619"/>
</g>
<!-- 1821 -->
<g id="node9" class="node">
<title>1821</title>
<ellipse fill="#ffffff" stroke="#000000" cx="301.6755" cy="-163.2168" rx="25" ry="25"/>
<text text-anchor="middle" x="301.6755" y="-161.0168" font-family="Times,serif" font-size="9.00" fill="#000000">1821</text>
</g>
<!-- &#45;1&#45;&gt;1821 -->
<g id="edge24" class="edge">
<title>&#45;1&#45;&gt;1821</title>
<path fill="none" stroke="#00ff00" stroke-width=".3341" d="M197.9023,-226.875C214.1737,-218.6311 243.6824,-203.1944 267.6755,-187.9655 269.5787,-186.7575 271.5173,-185.4809 273.4552,-184.1699"/>
<polygon fill="#00ff00" stroke="#00ff00" stroke-width=".3341" points="275.6475,-186.9077 281.8342,-178.3068 271.6342,-181.1723 275.6475,-186.9077"/>
</g>
<!-- 95 -->
<g id="node11" class="node">
<title>95</title>
<ellipse fill="#ffffff" stroke="#000000" cx="240.6755" cy="-163.2168" rx="18.2703" ry="18.2703"/>
<text text-anchor="middle" x="240.6755" y="-161.0168" font-family="Times,serif" font-size="9.00" fill="#000000">95</text>
</g>
<!-- &#45;1&#45;&gt;95 -->
<g id="edge2" class="edge">
<title>&#45;1&#45;&gt;95</title>
<path fill="none" stroke="#00ff00" stroke-width=".2274" d="M192.8658,-223.8471C200.4615,-214.2145 212.7278,-198.6589 222.9338,-185.7161"/>
<polygon fill="#00ff00" stroke="#00ff00" stroke-width=".2274" points="225.8296,-187.6963 229.2732,-177.6767 220.3329,-183.3619 225.8296,-187.6963"/>
</g>
<!-- &#45;2 -->
<g id="node2" class="node">
<title>&#45;2</title>
<polygon fill="#d3d3d3" stroke="#000000" points="106.6755,-241.9655 82.6755,-241.9655 82.6755,-223.9655 106.6755,-223.9655 106.6755,-241.9655"/>
<text text-anchor="middle" x="94.6755" y="-230.7655" font-family="Times,serif" font-size="9.00" fill="#000000">&#45;2</text>
</g>
<!-- &#45;2&#45;&gt;96 -->
<g id="edge8" class="edge">
<title>&#45;2&#45;&gt;96</title>
<path fill="none" stroke="#ff0000" stroke-width=".2032" d="M107.0277,-224.7029C119.9335,-215.9415 140.6358,-201.5221 157.6755,-187.9655 159.7634,-186.3044 161.9031,-184.5383 164.0241,-182.7438"/>
<polygon fill="#ff0000" stroke="#ff0000" stroke-width=".2032" points="166.7106,-185.0461 171.9619,-175.8442 162.1184,-179.7628 166.7106,-185.0461"/>
</g>
<!-- &#45;2&#45;&gt;97 -->
<g id="edge9" class="edge">
<title>&#45;2&#45;&gt;97</title>
<path fill="none" stroke="#00ff00" stroke-width=".3143" d="M87.3545,-223.8471C79.6207,-214.2145 67.1313,-198.6589 56.7398,-185.7161"/>
<polygon fill="#00ff00" stroke="#00ff00" stroke-width=".3143" points="59.275,-183.2832 50.2851,-177.6767 53.8166,-187.6657 59.275,-183.2832"/>
</g>
<!-- &#45;2&#45;&gt;92 -->
<g id="edge5" class="edge">
<title>&#45;2&#45;&gt;92</title>
<path fill="none" stroke="#00ff00" stroke-width=".4588" d="M99.3819,-223.8471C103.9686,-214.9606 111.1572,-201.0329 117.4884,-188.7664"/>
<polygon fill="#00ff00" stroke="#00ff00" stroke-width=".4588" points="120.6291,-190.3124 122.1055,-179.8209 114.4088,-187.1018 120.6291,-190.3124"/>
</g>
<!-- 94 -->
<g id="node10" class="node">
<title>94</title>
<ellipse fill="#ffffff" stroke="#000000" cx="31.6755" cy="-84.0833" rx="18.2703" ry="18.2703"/>
<text text-anchor="middle" x="31.6755" y="-81.8833" font-family="Times,serif" font-size="9.00" fill="#000000">94</text>
</g>
<!-- &#45;2&#45;&gt;94 -->
<g id="edge6" class="edge">
<title>&#45;2&#45;&gt;94</title>
<path fill="none" stroke="#00ff00" stroke-width=".5" d="M82.6435,-230.514C63.6253,-225.9188 27.1878,-214.0214 11.6755,-187.9655 -2.7288,-163.7708 7.2928,-131.2977 17.6502,-109.1391"/>
<polygon fill="#00ff00" stroke="#00ff00" stroke-width=".5" points="20.8576,-110.5503 22.1923,-100.0398 14.5945,-107.4239 20.8576,-110.5503"/>
</g>
<!-- &#45;2&#45;&gt;95 -->
<g id="edge7" class="edge">
<title>&#45;2&#45;&gt;95</title>
<path fill="none" stroke="#00ff00" stroke-width=".1408" d="M107.07,-227.5332C109.888,-226.3317 112.8761,-225.0841 115.6755,-223.9655 158.3773,-206.9032 173.225,-211.5923 212.6755,-187.9655 215.1802,-186.4655 217.6695,-184.7281 220.0714,-182.8831"/>
<polygon fill="#00ff00" stroke="#00ff00" stroke-width=".1408" points="222.3971,-185.5005 227.7966,-176.3847 217.891,-180.1437 222.3971,-185.5005"/>
</g>
<!-- &#45;3 -->
<g id="node3" class="node">
<title>&#45;3</title>
<polygon fill="#d3d3d3" stroke="#000000" points="148.6755,-241.9655 124.6755,-241.9655 124.6755,-223.9655 148.6755,-223.9655 148.6755,-241.9655"/>
<text text-anchor="middle" x="136.6755" y="-230.7655" font-family="Times,serif" font-size="9.00" fill="#000000">&#45;3</text>
</g>
<!-- &#45;3&#45;&gt;96 -->
<g id="edge13" class="edge">
<title>&#45;3&#45;&gt;96</title>
<path fill="none" stroke="#00ff00" stroke-width=".2604" d="M143.0814,-223.8471C149.6576,-214.4863 160.1633,-199.5319 169.0954,-186.8176"/>
<polygon fill="#00ff00" stroke="#00ff00" stroke-width=".2604" points="172.0755,-188.6642 174.9601,-178.4695 166.3477,-184.6402 172.0755,-188.6642"/>
</g>
<!-- &#45;3&#45;&gt;97 -->
<g id="edge14" class="edge">
<title>&#45;3&#45;&gt;97</title>
<path fill="none" stroke="#00ff00" stroke-width=".3019" d="M124.3593,-224.8874C110.9867,-216.0428 89.0751,-201.3349 70.6755,-187.9655 67.5967,-185.7284 64.3876,-183.3296 61.2412,-180.9376"/>
<polygon fill="#00ff00" stroke="#00ff00" stroke-width=".3019" points="63.2501,-178.0671 53.1919,-174.738 58.9788,-183.6129 63.2501,-178.0671"/>
</g>
<!-- &#45;3&#45;&gt;92 -->
<g id="edge10" class="edge">
<title>&#45;3&#45;&gt;92</title>
<path fill="none" stroke="#ff0000" stroke-width=".3371" d="M135.8911,-223.8471C135.1907,-215.7049 134.1262,-203.3306 133.1412,-191.8795"/>
<polygon fill="#ff0000" stroke="#ff0000" stroke-width=".3371" points="136.6159,-191.434 132.2716,-181.7708 129.6416,-192.034 136.6159,-191.434"/>
</g>
<!-- &#45;3&#45;&gt;94 -->
<g id="edge11" class="edge">
<title>&#45;3&#45;&gt;94</title>
<path fill="none" stroke="#ff0000" stroke-width=".4658" d="M129.777,-223.7102C123.0497,-214.6492 112.5622,-200.4289 103.6755,-187.9655 84.1683,-160.607 62.2374,-128.8105 47.7615,-107.6734"/>
<polygon fill="#ff0000" stroke="#ff0000" stroke-width=".4658" points="50.5768,-105.5898 42.0428,-99.3112 44.7988,-109.5414 50.5768,-105.5898"/>
</g>
<!-- &#45;3&#45;&gt;95 -->
<g id="edge12" class="edge">
<title>&#45;3&#45;&gt;95</title>
<path fill="none" stroke="#00ff00" stroke-width=".2095" stroke-dasharray="1,5" d="M148.6986,-226.7652C164.0606,-218.6394 191.2282,-203.5773 212.6755,-187.9655 214.8326,-186.3953 217.0193,-184.6909 219.1703,-182.9359"/>
<polygon fill="#00ff00" stroke="#00ff00" stroke-width=".2095" points="221.8376,-185.2595 227.152,-176.0939 217.2818,-179.9449 221.8376,-185.2595"/>
</g>
<!-- 0 -->
<g id="node4" class="node">
<title>0</title>
<ellipse fill="#add8e6" stroke="#000000" cx="153.6755" cy="-14.8492" rx="14.7" ry="14.7"/>
<text text-anchor="middle" x="153.6755" y="-12.6492" font-family="Times,serif" font-size="9.00" fill="#000000">0</text>
</g>
<!-- 1 -->
<g id="node5" class="node">
<title>1</title>
<ellipse fill="#add8e6" stroke="#000000" cx="68.6755" cy="-14.8492" rx="14.7" ry="14.7"/>
<text text-anchor="middle" x="68.6755" y="-12.6492" font-family="Times,serif" font-size="9.00" fill="#000000">1</text>
</g>
<!-- 96&#45;&gt;0 -->
<g id="edge21" class="edge">
<title>96&#45;&gt;0</title>
<path fill="none" stroke="#00ff00" stroke-width=".14" d="M181.7517,-145.024C176.0439,-118.5601 165.4343,-69.3687 159.0181,-39.62"/>
<polygon fill="#00ff00" stroke="#00ff00" stroke-width=".14" points="162.3905,-38.655 156.8608,-29.6177 155.5479,-40.1309 162.3905,-38.655"/>
</g>
<!-- 97&#45;&gt;0 -->
<g id="edge22" class="edge">
<title>97&#45;&gt;0</title>
<path fill="none" stroke="#00ff00" stroke-width=".31" d="M50.1226,-148.4483C70.9092,-121.6304 114.8688,-64.9158 138.2667,-34.729"/>
<polygon fill="#00ff00" stroke="#00ff00" stroke-width=".31" points="141.1926,-36.6673 144.5525,-26.6193 135.6599,-32.3789 141.1926,-36.6673"/>
</g>
<!-- 97&#45;&gt;1 -->
<g id="edge23" class="edge">
<title>97&#45;&gt;1</title>
<path fill="none" stroke="#ff0000" stroke-width=".5" d="M26.771,-148.9249C12.1724,-129.5529 -9.042,-94.1174 4.6755,-65.6985 13.2276,-47.9809 31.2858,-34.5406 46.0464,-25.9409"/>
<polygon fill="#ff0000" stroke="#ff0000" stroke-width=".5" points="48.0273,-28.8476 55.1369,-20.9924 44.6805,-22.6995 48.0273,-28.8476"/>
</g>
<!-- 97&#45;&gt;94 -->
<g id="edge25" class="edge">
<title>97&#45;&gt;94</title>
<path fill="none" stroke="#ff0000" stroke-width=".4711" d="M37.052,-144.8631C36.2099,-135.3434 35.162,-123.4977 34.2157,-112.7991"/>
<polygon fill="#ff0000" stroke="#ff0000" stroke-width=".4711" points="37.6821,-112.2642 33.3145,-102.6116 30.7093,-112.8811 37.6821,-112.2642"/>
</g>
<!-- 92&#45;&gt;0 -->
<g id="edge15" class="edge">
<title>92&#45;&gt;0</title>
<path fill="none" stroke="#ff0000" stroke-width=".1536" d="M133.4958,-145.024C137.5982,-118.5601 145.2239,-69.3687 149.8355,-39.62"/>
<polygon fill="#ff0000" stroke="#ff0000" stroke-width=".1536" points="153.3128,-40.0359 151.3861,-29.6177 146.3954,-38.9635 153.3128,-40.0359"/>
</g>
<!-- 92&#45;&gt;1 -->
<g id="edge16" class="edge">
<title>92&#45;&gt;1</title>
<path fill="none" stroke="#00ff00" stroke-width=".4519" d="M123.5633,-146.1971C112.4183,-119.5268 90.8212,-67.8445 78.2977,-37.8754"/>
<polygon fill="#00ff00" stroke="#00ff00" stroke-width=".4519" points="81.5118,-36.4891 74.4266,-28.6118 75.053,-39.1881 81.5118,-36.4891"/>
</g>
<!-- 94&#45;&gt;0 -->
<g id="edge17" class="edge">
<title>94&#45;&gt;0</title>
<path fill="none" stroke="#ff0000" stroke-width=".5" d="M47.6139,-74.8962C52.7381,-71.9507 58.4425,-68.68 63.6755,-65.6985 86.6997,-52.5805 113.105,-37.6785 131.3315,-27.4146"/>
<polygon fill="#ff0000" stroke="#ff0000" stroke-width=".5" points="133.5446,-30.1853 140.5424,-22.2304 130.1112,-24.0851 133.5446,-30.1853"/>
</g>
<!-- 94&#45;&gt;1 -->
<g id="edge18" class="edge">
<title>94&#45;&gt;1</title>
<path fill="none" stroke="#00ff00" stroke-width=".442" d="M40.444,-67.6758C45.3023,-58.5849 51.4124,-47.1519 56.7047,-37.249"/>
<polygon fill="#00ff00" stroke="#00ff00" stroke-width=".442" points="59.834,-38.819 61.4606,-28.3497 53.6603,-35.5196 59.834,-38.819"/>
</g>
<!-- 95&#45;&gt;0 -->
<g id="edge19" class="edge">
<title>95&#45;&gt;0</title>
<path fill="none" stroke="#ff0000" stroke-width=".1103" stroke-dasharray="1,5" d="M246.4786,-145.6499C252.1747,-125.0019 258.1037,-90.4221 243.6755,-65.6985 229.6832,-41.7218 199.7401,-28.155 178.2315,-21.172"/>
<polygon fill="#ff0000" stroke="#ff0000" stroke-width=".1103" points="179.0404,-17.761 168.4572,-18.2561 177.0393,-24.4689 179.0404,-17.761"/>
</g>
<!-- 95&#45;&gt;1 -->
<g id="edge20" class="edge">
<title>95&#45;&gt;1</title>
<path fill="none" stroke="#00ff00" stroke-width=".267" d="M226.753,-150.8403C222.2706,-146.8746 217.274,-142.4738 212.6755,-138.468 168.3207,-99.8309 115.7966,-54.9619 88.0694,-31.3443"/>
<polygon fill="#00ff00" stroke="#00ff00" stroke-width=".267" points="90.1803,-28.5448 80.297,-24.7274 85.6426,-33.8748 90.1803,-28.5448"/>
</g>
</g>
</svg>
