<?xml version="1.0" encoding="UTF-8" standalone="no"?>
<!DOCTYPE svg PUBLIC "-//W3C//DTD SVG 1.1//EN"
 "http://www.w3.org/Graphics/SVG/1.1/DTD/svg11.dtd">
<!-- Generated by graphviz version 2.40.1 (20161225.0304)
 -->
<!-- Title: %3 Pages: 1 -->
<svg width="283pt" height="250pt"
 viewBox="0.00 0.00 283.13 249.97" xmlns="http://www.w3.org/2000/svg" xmlns:xlink="http://www.w3.org/1999/xlink">
<g id="graph0" class="graph" transform="scale(1 1) rotate(0) translate(4 245.9655)">
<title>%3</title>
<polygon fill="#ffffff" stroke="transparent" points="-4,4 -4,-245.9655 279.1335,-245.9655 279.1335,4 -4,4"/>
<!-- &#45;1 -->
<g id="node1" class="node">
<title>&#45;1</title>
<polygon fill="#d3d3d3" stroke="#000000" points="206.7487,-241.9655 182.7487,-241.9655 182.7487,-223.9655 206.7487,-223.9655 206.7487,-241.9655"/>
<text text-anchor="middle" x="194.7487" y="-230.7655" font-family="Times,serif" font-size="9.00" fill="#000000">&#45;1</text>
</g>
<!-- 27 -->
<g id="node7" class="node">
<title>27</title>
<ellipse fill="#ffffff" stroke="#000000" cx="146.7487" cy="-169.5807" rx="18.2703" ry="18.2703"/>
<text text-anchor="middle" x="146.7487" y="-167.3807" font-family="Times,serif" font-size="9.00" fill="#000000">27</text>
</g>
<!-- &#45;1&#45;&gt;27 -->
<g id="edge1" class="edge">
<title>&#45;1&#45;&gt;27</title>
<path fill="none" stroke="#ff0000" stroke-width=".4233" d="M187.8715,-223.884C181.7351,-215.7808 172.4826,-203.5627 164.307,-192.7667"/>
<polygon fill="#ff0000" stroke="#ff0000" stroke-width=".4233" points="166.8887,-190.3784 158.0614,-184.5193 161.3083,-194.6043 166.8887,-190.3784"/>
</g>
<!-- 29 -->
<g id="node8" class="node">
<title>29</title>
<ellipse fill="#ffffff" stroke="#000000" cx="54.7487" cy="-169.5807" rx="18.2703" ry="18.2703"/>
<text text-anchor="middle" x="54.7487" y="-167.3807" font-family="Times,serif" font-size="9.00" fill="#000000">29</text>
</g>
<!-- &#45;1&#45;&gt;29 -->
<g id="edge2" class="edge">
<title>&#45;1&#45;&gt;29</title>
<path fill="none" stroke="#00ff00" stroke-width=".1188" d="M182.3247,-227.3405C159.6198,-217.061 110.9854,-195.0418 80.7564,-181.3557"/>
<polygon fill="#00ff00" stroke="#00ff00" stroke-width=".1188" points="82.1981,-178.1664 71.6447,-177.2304 79.311,-184.5433 82.1981,-178.1664"/>
</g>
<!-- 30 -->
<g id="node9" class="node">
<title>30</title>
<ellipse fill="#ffffff" stroke="#000000" cx="256.7487" cy="-169.5807" rx="18.2703" ry="18.2703"/>
<text text-anchor="middle" x="256.7487" y="-167.3807" font-family="Times,serif" font-size="9.00" fill="#000000">30</text>
</g>
<!-- &#45;1&#45;&gt;30 -->
<g id="edge3" class="edge">
<title>&#45;1&#45;&gt;30</title>
<path fill="none" stroke="#00ff00" stroke-width=".5" stroke-dasharray="1,5" d="M203.6318,-223.884C212.1199,-215.2064 225.2239,-201.8097 236.2922,-190.4941"/>
<polygon fill="#00ff00" stroke="#00ff00" stroke-width=".5" points="239.0575,-192.6725 243.548,-183.0763 234.0533,-187.7777 239.0575,-192.6725"/>
</g>
<!-- 31 -->
<g id="node10" class="node">
<title>31</title>
<ellipse fill="#ffffff" stroke="#000000" cx="201.7487" cy="-169.5807" rx="18.2703" ry="18.2703"/>
<text text-anchor="middle" x="201.7487" y="-167.3807" font-family="Times,serif" font-size="9.00" fill="#000000">31</text>
</g>
<!-- &#45;1&#45;&gt;31 -->
<g id="edge4" class="edge">
<title>&#45;1&#45;&gt;31</title>
<path fill="none" stroke="#00ff00" stroke-width=".1281" stroke-dasharray="1,5" d="M195.7517,-223.884C196.4988,-217.119 197.5626,-207.486 198.5874,-198.2069"/>
<polygon fill="#00ff00" stroke="#00ff00" stroke-width=".1281" points="202.0898,-198.3764 199.7088,-188.0526 195.1321,-197.608 202.0898,-198.3764"/>
</g>
<!-- &#45;2 -->
<g id="node2" class="node">
<title>&#45;2</title>
<polygon fill="#d3d3d3" stroke="#000000" points="158.7487,-241.9655 134.7487,-241.9655 134.7487,-223.9655 158.7487,-223.9655 158.7487,-241.9655"/>
<text text-anchor="middle" x="146.7487" y="-230.7655" font-family="Times,serif" font-size="9.00" fill="#000000">&#45;2</text>
</g>
<!-- 1 -->
<g id="node5" class="node">
<title>1</title>
<ellipse fill="#add8e6" stroke="#000000" cx="120.7487" cy="-90.4472" rx="14.7" ry="14.7"/>
<text text-anchor="middle" x="120.7487" y="-88.2472" font-family="Times,serif" font-size="9.00" fill="#000000">1</text>
</g>
<!-- &#45;2&#45;&gt;1 -->
<g id="edge20" class="edge">
<title>&#45;2&#45;&gt;1</title>
<path fill="none" stroke="#00ff00" stroke-width=".1184" d="M139.0892,-223.6665C132.5039,-215.025 123.494,-201.4871 119.7487,-187.9655 113.1136,-164.0104 114.4176,-135.4587 116.7371,-115.4611"/>
<polygon fill="#00ff00" stroke="#00ff00" stroke-width=".1184" points="120.2375,-115.6889 118.0861,-105.3148 113.2986,-114.7663 120.2375,-115.6889"/>
</g>
<!-- &#45;2&#45;&gt;27 -->
<g id="edge5" class="edge">
<title>&#45;2&#45;&gt;27</title>
<path fill="none" stroke="#ff0000" stroke-width=".1667" d="M146.7487,-223.884C146.7487,-217.119 146.7487,-207.486 146.7487,-198.2069"/>
<polygon fill="#ff0000" stroke="#ff0000" stroke-width=".1667" points="150.2488,-198.0526 146.7487,-188.0526 143.2488,-198.0527 150.2488,-198.0526"/>
</g>
<!-- &#45;2&#45;&gt;29 -->
<g id="edge6" class="edge">
<title>&#45;2&#45;&gt;29</title>
<path fill="none" stroke="#00ff00" stroke-width=".2022" d="M134.7213,-224.6791C120.4899,-214.8741 96.4566,-198.316 78.4437,-185.9057"/>
<polygon fill="#00ff00" stroke="#00ff00" stroke-width=".2022" points="80.3745,-182.9857 70.1539,-180.1944 76.403,-188.7501 80.3745,-182.9857"/>
</g>
<!-- &#45;2&#45;&gt;30 -->
<g id="edge7" class="edge">
<title>&#45;2&#45;&gt;30</title>
<path fill="none" stroke="#ff0000" stroke-width=".5" d="M158.8674,-226.7C175.0191,-218.2623 204.3956,-202.6117 228.7487,-187.9655 230.0569,-187.1788 231.3912,-186.3601 232.7325,-185.5242"/>
<polygon fill="#ff0000" stroke="#ff0000" stroke-width=".5" points="234.952,-188.259 241.4834,-179.9168 231.1753,-182.3652 234.952,-188.259"/>
</g>
<!-- &#45;2&#45;&gt;31 -->
<g id="edge8" class="edge">
<title>&#45;2&#45;&gt;31</title>
<path fill="none" stroke="#00ff00" stroke-width=".5" d="M154.6289,-223.884C161.9906,-215.4 173.2665,-202.4051 182.942,-191.2546"/>
<polygon fill="#00ff00" stroke="#00ff00" stroke-width=".5" points="185.7153,-193.3989 189.6256,-183.5521 180.4282,-188.8112 185.7153,-193.3989"/>
</g>
<!-- &#45;3 -->
<g id="node3" class="node">
<title>&#45;3</title>
<polygon fill="#d3d3d3" stroke="#000000" points="258.7487,-241.9655 234.7487,-241.9655 234.7487,-223.9655 258.7487,-223.9655 258.7487,-241.9655"/>
<text text-anchor="middle" x="246.7487" y="-230.7655" font-family="Times,serif" font-size="9.00" fill="#000000">&#45;3</text>
</g>
<!-- &#45;3&#45;&gt;30 -->
<g id="edge9" class="edge">
<title>&#45;3&#45;&gt;30</title>
<path fill="none" stroke="#ff0000" stroke-width=".1575" d="M248.1815,-223.884C249.2682,-216.996 250.824,-207.1348 252.3123,-197.7011"/>
<polygon fill="#ff0000" stroke="#ff0000" stroke-width=".1575" points="255.7742,-198.2166 253.8754,-187.7934 248.8597,-197.1257 255.7742,-198.2166"/>
</g>
<!-- &#45;3&#45;&gt;31 -->
<g id="edge10" class="edge">
<title>&#45;3&#45;&gt;31</title>
<path fill="none" stroke="#ff0000" stroke-width=".452" d="M240.3013,-223.884C234.6252,-215.8889 226.105,-203.8877 218.5167,-193.1993"/>
<polygon fill="#ff0000" stroke="#ff0000" stroke-width=".452" points="221.3459,-191.1383 212.703,-185.0104 215.6381,-195.1906 221.3459,-191.1383"/>
</g>
<!-- 0 -->
<g id="node4" class="node">
<title>0</title>
<ellipse fill="#add8e6" stroke="#000000" cx="163.7487" cy="-14.8492" rx="14.7" ry="14.7"/>
<text text-anchor="middle" x="163.7487" y="-12.6492" font-family="Times,serif" font-size="9.00" fill="#000000">0</text>
</g>
<!-- 2141 -->
<g id="node6" class="node">
<title>2141</title>
<ellipse fill="#ffffff" stroke="#000000" cx="24.7487" cy="-90.4472" rx="25" ry="25"/>
<text text-anchor="middle" x="24.7487" y="-88.2472" font-family="Times,serif" font-size="9.00" fill="#000000">2141</text>
</g>
<!-- 2141&#45;&gt;0 -->
<g id="edge19" class="edge">
<title>2141&#45;&gt;0</title>
<path fill="none" stroke="#ff0000" stroke-width=".2313" d="M45.5751,-76.7179C51.3895,-73.0262 57.7569,-69.1128 63.7487,-65.6985 89.7798,-50.8652 120.6342,-35.4982 141.1163,-25.5947"/>
<polygon fill="#ff0000" stroke="#ff0000" stroke-width=".2313" points="142.7721,-28.6822 150.2714,-21.1981 139.7418,-22.3721 142.7721,-28.6822"/>
</g>
<!-- 27&#45;&gt;0 -->
<g id="edge11" class="edge">
<title>27&#45;&gt;0</title>
<path fill="none" stroke="#ff0000" stroke-width=".2272" d="M148.7656,-151.2234C151.8025,-123.5822 157.5577,-71.1993 160.9836,-40.0174"/>
<polygon fill="#ff0000" stroke="#ff0000" stroke-width=".2272" points="164.4768,-40.2699 162.0899,-29.9474 157.5187,-39.5053 164.4768,-40.2699"/>
</g>
<!-- 27&#45;&gt;1 -->
<g id="edge12" class="edge">
<title>27&#45;&gt;1</title>
<path fill="none" stroke="#ff0000" stroke-width=".4102" d="M140.9785,-152.0184C137.3319,-140.9195 132.5724,-126.4335 128.5861,-114.301"/>
<polygon fill="#ff0000" stroke="#ff0000" stroke-width=".4102" points="131.9075,-113.197 125.4609,-104.7892 125.2573,-115.382 131.9075,-113.197"/>
</g>
<!-- 29&#45;&gt;0 -->
<g id="edge13" class="edge">
<title>29&#45;&gt;0</title>
<path fill="none" stroke="#00ff00" stroke-width=".2589" stroke-dasharray="1,5" d="M58.8811,-151.5676C64.5894,-129.5957 76.5402,-92.1219 96.7487,-65.6985 108.9013,-49.8085 127.2337,-36.3636 141.6519,-27.2972"/>
<polygon fill="#00ff00" stroke="#00ff00" stroke-width=".2589" points="143.6994,-30.1498 150.4572,-21.9899 140.0858,-24.1546 143.6994,-30.1498"/>
</g>
<!-- 29&#45;&gt;1 -->
<g id="edge14" class="edge">
<title>29&#45;&gt;1</title>
<path fill="none" stroke="#ff0000" stroke-width=".2931" d="M66.5482,-155.4332C77.2105,-142.6493 92.9932,-123.7259 104.7813,-109.5921"/>
<polygon fill="#ff0000" stroke="#ff0000" stroke-width=".2931" points="107.4742,-111.8277 111.1914,-101.9063 102.0985,-107.3442 107.4742,-111.8277"/>
</g>
<!-- 29&#45;&gt;2141 -->
<g id="edge18" class="edge">
<title>29&#45;&gt;2141</title>
<path fill="none" stroke="#ff0000" stroke-width=".1008" d="M48.0908,-152.0184C44.88,-143.5491 40.9215,-133.1075 37.1823,-123.2444"/>
<polygon fill="#ff0000" stroke="#ff0000" stroke-width=".1008" points="40.3697,-121.7784 33.5521,-113.6685 33.8243,-124.2599 40.3697,-121.7784"/>
</g>
<!-- 30&#45;&gt;0 -->
<g id="edge15" class="edge">
<title>30&#45;&gt;0</title>
<path fill="none" stroke="#00ff00" stroke-width=".1517" d="M247.6532,-153.2329C236.1156,-132.6379 215.4641,-96.2437 196.7487,-65.6985 190.6457,-55.7377 183.631,-44.855 177.6427,-35.7224"/>
<polygon fill="#00ff00" stroke="#00ff00" stroke-width=".1517" points="180.4964,-33.6923 172.0682,-27.2723 174.6533,-37.5469 180.4964,-33.6923"/>
</g>
<!-- 31&#45;&gt;0 -->
<g id="edge16" class="edge">
<title>31&#45;&gt;0</title>
<path fill="none" stroke="#ff0000" stroke-width=".1933" d="M197.3153,-151.5282C190.5202,-123.8593 177.5128,-70.895 169.8382,-39.6448"/>
<polygon fill="#ff0000" stroke="#ff0000" stroke-width=".1933" points="173.149,-38.4506 167.3649,-29.5739 166.351,-40.1201 173.149,-38.4506"/>
</g>
<!-- 31&#45;&gt;1 -->
<g id="edge17" class="edge">
<title>31&#45;&gt;1</title>
<path fill="none" stroke="#ff0000" stroke-width=".3948" d="M188.3732,-156.5134C174.9042,-143.3548 154.0277,-122.9593 139.0336,-108.3108"/>
<polygon fill="#ff0000" stroke="#ff0000" stroke-width=".3948" points="141.3982,-105.7278 131.7993,-101.2431 136.5065,-110.7349 141.3982,-105.7278"/>
</g>
</g>
</svg>
