<?xml version="1.0" encoding="UTF-8" standalone="no"?>
<!DOCTYPE svg PUBLIC "-//W3C//DTD SVG 1.1//EN"
 "http://www.w3.org/Graphics/SVG/1.1/DTD/svg11.dtd">
<!-- Generated by graphviz version 2.40.1 (20161225.0304)
 -->
<!-- Title: %3 Pages: 1 -->
<svg width="652pt" height="170pt"
 viewBox="0.00 0.00 651.50 170.12" xmlns="http://www.w3.org/2000/svg" xmlns:xlink="http://www.w3.org/1999/xlink">
<g id="graph0" class="graph" transform="scale(1 1) rotate(0) translate(4 166.1249)">
<title>%3</title>
<polygon fill="#ffffff" stroke="transparent" points="-4,4 -4,-166.1249 647.5,-166.1249 647.5,4 -4,4"/>
<!-- &#45;1 -->
<g id="node1" class="node">
<title>&#45;1</title>
<polygon fill="#d3d3d3" stroke="#000000" points="470,-162.1249 446,-162.1249 446,-144.1249 470,-144.1249 470,-162.1249"/>
<text text-anchor="middle" x="458" y="-150.9249" font-family="Times,serif" font-size="9.00" fill="#000000">&#45;1</text>
</g>
<!-- 708 -->
<g id="node18" class="node">
<title>708</title>
<ellipse fill="#ffffff" stroke="#000000" cx="306" cy="-86.9117" rx="21.4286" ry="21.4286"/>
<text text-anchor="middle" x="306" y="-84.7117" font-family="Times,serif" font-size="9.00" fill="#000000">708</text>
</g>
<!-- &#45;1&#45;&gt;708 -->
<g id="edge2" class="edge">
<title>&#45;1&#45;&gt;708</title>
<path fill="none" stroke="#ff0000" stroke-width=".3568" d="M445.6162,-147.6656C442.7976,-146.4655 439.8066,-145.2252 437,-144.1249 392.6329,-126.7303 378.2932,-130.0861 336,-108.1249 334.4821,-107.3367 332.9531,-106.4809 331.4319,-105.5803"/>
<polygon fill="#ff0000" stroke="#ff0000" stroke-width=".3568" points="333.2362,-102.5792 322.9376,-100.0914 329.437,-108.4585 333.2362,-102.5792"/>
</g>
<!-- 705 -->
<g id="node19" class="node">
<title>705</title>
<ellipse fill="#ffffff" stroke="#000000" cx="366" cy="-86.9117" rx="21.4286" ry="21.4286"/>
<text text-anchor="middle" x="366" y="-84.7117" font-family="Times,serif" font-size="9.00" fill="#000000">705</text>
</g>
<!-- &#45;1&#45;&gt;705 -->
<g id="edge1" class="edge">
<title>&#45;1&#45;&gt;705</title>
<path fill="none" stroke="#ff0000" stroke-width=".1698" d="M445.9726,-144.4687C432.2435,-134.5877 409.3922,-118.1414 391.624,-105.3535"/>
<polygon fill="#ff0000" stroke="#ff0000" stroke-width=".1698" points="393.5331,-102.4153 383.3721,-99.4145 389.444,-108.0968 393.5331,-102.4153"/>
</g>
<!-- &#45;2 -->
<g id="node2" class="node">
<title>&#45;2</title>
<polygon fill="#d3d3d3" stroke="#000000" points="512,-162.1249 488,-162.1249 488,-144.1249 512,-144.1249 512,-162.1249"/>
<text text-anchor="middle" x="500" y="-150.9249" font-family="Times,serif" font-size="9.00" fill="#000000">&#45;2</text>
</g>
<!-- &#45;2&#45;&gt;708 -->
<g id="edge4" class="edge">
<title>&#45;2&#45;&gt;708</title>
<path fill="none" stroke="#00ff00" stroke-width=".3685" d="M487.6895,-147.4644C484.8671,-146.2748 481.856,-145.0896 479,-144.1249 416.9082,-123.1508 395.5436,-135.5087 336,-108.1249 334.4461,-107.4103 332.8886,-106.6126 331.3454,-105.7572"/>
<polygon fill="#00ff00" stroke="#00ff00" stroke-width=".3685" points="333.1196,-102.7387 322.7857,-100.4018 329.4068,-108.673 333.1196,-102.7387"/>
</g>
<!-- &#45;2&#45;&gt;705 -->
<g id="edge3" class="edge">
<title>&#45;2&#45;&gt;705</title>
<path fill="none" stroke="#ff0000" stroke-width=".3852" d="M487.6338,-147.0144C466.5616,-136.602 423.1802,-115.1661 394.3351,-100.9129"/>
<polygon fill="#ff0000" stroke="#ff0000" stroke-width=".3852" points="395.6791,-97.673 385.1633,-96.3808 392.578,-103.9487 395.6791,-97.673"/>
</g>
<!-- &#45;3 -->
<g id="node3" class="node">
<title>&#45;3</title>
<polygon fill="#d3d3d3" stroke="#000000" points="554,-162.1249 530,-162.1249 530,-144.1249 554,-144.1249 554,-162.1249"/>
<text text-anchor="middle" x="542" y="-150.9249" font-family="Times,serif" font-size="9.00" fill="#000000">&#45;3</text>
</g>
<!-- &#45;3&#45;&gt;708 -->
<g id="edge6" class="edge">
<title>&#45;3&#45;&gt;708</title>
<path fill="none" stroke="#ff0000" stroke-width=".2474" d="M529.7269,-147.3486C526.9026,-146.165 523.8812,-145.0116 521,-144.1249 440.9407,-119.4875 413.0265,-141.0401 336,-108.1249 334.4272,-107.4528 332.8548,-106.6888 331.3,-105.8595"/>
<polygon fill="#ff0000" stroke="#ff0000" stroke-width=".2474" points="333.059,-102.8325 322.7061,-100.5813 329.3955,-108.7973 333.059,-102.8325"/>
</g>
<!-- &#45;3&#45;&gt;705 -->
<g id="edge5" class="edge">
<title>&#45;3&#45;&gt;705</title>
<path fill="none" stroke="#00ff00" stroke-width=".2831" stroke-dasharray="1,5" d="M529.6069,-147.6889C526.7889,-146.4876 523.8004,-145.241 521,-144.1249 477.7208,-126.8764 426.9658,-108.4842 395.6428,-97.3429"/>
<polygon fill="#00ff00" stroke="#00ff00" stroke-width=".2831" points="396.7846,-94.0343 386.1899,-93.991 394.4451,-100.6318 396.7846,-94.0343"/>
</g>
<!-- &#45;4 -->
<g id="node4" class="node">
<title>&#45;4</title>
<polygon fill="#d3d3d3" stroke="#000000" points="596,-162.1249 572,-162.1249 572,-144.1249 596,-144.1249 596,-162.1249"/>
<text text-anchor="middle" x="584" y="-150.9249" font-family="Times,serif" font-size="9.00" fill="#000000">&#45;4</text>
</g>
<!-- &#45;4&#45;&gt;705 -->
<g id="edge7" class="edge">
<title>&#45;4&#45;&gt;705</title>
<path fill="none" stroke="#00ff00" stroke-width=".3203" d="M571.663,-147.5405C568.842,-146.3469 565.8382,-145.1409 563,-144.1249 504.9793,-123.3544 435.3894,-104.5232 396.3784,-94.4992"/>
<polygon fill="#00ff00" stroke="#00ff00" stroke-width=".3203" points="397.2375,-91.1063 386.6828,-92.0278 395.5085,-97.8894 397.2375,-91.1063"/>
</g>
<!-- &#45;5 -->
<g id="node5" class="node">
<title>&#45;5</title>
<polygon fill="#d3d3d3" stroke="#000000" points="66,-162.1249 42,-162.1249 42,-144.1249 66,-144.1249 66,-162.1249"/>
<text text-anchor="middle" x="54" y="-150.9249" font-family="Times,serif" font-size="9.00" fill="#000000">&#45;5</text>
</g>
<!-- &#45;5&#45;&gt;708 -->
<g id="edge9" class="edge">
<title>&#45;5&#45;&gt;708</title>
<path fill="none" stroke="#ff0000" stroke-width=".1098" d="M66.3078,-147.4563C69.1303,-146.2671 72.1421,-145.0842 75,-144.1249 145.1656,-120.5733 230.2455,-101.9673 275.0092,-92.9179"/>
<polygon fill="#ff0000" stroke="#ff0000" stroke-width=".1098" points="275.8489,-96.3194 284.9694,-90.9281 274.4775,-89.4551 275.8489,-96.3194"/>
</g>
<!-- &#45;5&#45;&gt;705 -->
<g id="edge8" class="edge">
<title>&#45;5&#45;&gt;705</title>
<path fill="none" stroke="#ff0000" stroke-width=".4899" d="M66.2385,-147.2304C69.0646,-146.0528 72.0954,-144.9318 75,-144.1249 187.8253,-112.7806 227.0939,-151.1534 336,-108.1249 337.6315,-107.4803 339.2586,-106.7294 340.8635,-105.9025"/>
<polygon fill="#ff0000" stroke="#ff0000" stroke-width=".4899" points="342.9557,-108.7269 349.6878,-100.5459 339.3233,-102.7431 342.9557,-108.7269"/>
</g>
<!-- &#45;6 -->
<g id="node6" class="node">
<title>&#45;6</title>
<polygon fill="#d3d3d3" stroke="#000000" points="108,-162.1249 84,-162.1249 84,-144.1249 108,-144.1249 108,-162.1249"/>
<text text-anchor="middle" x="96" y="-150.9249" font-family="Times,serif" font-size="9.00" fill="#000000">&#45;6</text>
</g>
<!-- &#45;6&#45;&gt;708 -->
<g id="edge11" class="edge">
<title>&#45;6&#45;&gt;708</title>
<path fill="none" stroke="#ff0000" stroke-width=".5" d="M108.3455,-147.5642C111.1661,-146.3694 114.1676,-145.1569 117,-144.1249 172.0587,-124.0632 237.8518,-105.2851 275.4986,-95.0203"/>
<polygon fill="#ff0000" stroke="#ff0000" stroke-width=".5" points="276.6002,-98.3482 285.3383,-92.3569 274.7712,-91.5914 276.6002,-98.3482"/>
</g>
<!-- &#45;6&#45;&gt;705 -->
<g id="edge10" class="edge">
<title>&#45;6&#45;&gt;705</title>
<path fill="none" stroke="#00ff00" stroke-width=".126" stroke-dasharray="1,5" d="M108.2543,-147.286C111.0796,-146.1056 114.1061,-144.9693 117,-144.1249 211.6909,-116.4949 244.7375,-145.5538 336,-108.1249 337.623,-107.4593 339.2435,-106.6918 340.8433,-105.8522"/>
<polygon fill="#00ff00" stroke="#00ff00" stroke-width=".126" points="342.9515,-108.6654 349.6529,-100.4591 339.2967,-102.6953 342.9515,-108.6654"/>
</g>
<!-- &#45;7 -->
<g id="node7" class="node">
<title>&#45;7</title>
<polygon fill="#d3d3d3" stroke="#000000" points="24,-162.1249 0,-162.1249 0,-144.1249 24,-144.1249 24,-162.1249"/>
<text text-anchor="middle" x="12" y="-150.9249" font-family="Times,serif" font-size="9.00" fill="#000000">&#45;7</text>
</g>
<!-- &#45;7&#45;&gt;708 -->
<g id="edge12" class="edge">
<title>&#45;7&#45;&gt;708</title>
<path fill="none" stroke="#00ff00" stroke-width=".1945" d="M24.2827,-147.3793C27.1065,-146.1941 30.1252,-145.0323 33,-144.1249 118.5796,-117.1131 223.3175,-99.2275 274.63,-91.4102"/>
<polygon fill="#00ff00" stroke="#00ff00" stroke-width=".1945" points="275.3715,-94.8383 284.7425,-89.8952 274.3343,-87.9155 275.3715,-94.8383"/>
</g>
<!-- &#45;8 -->
<g id="node8" class="node">
<title>&#45;8</title>
<polygon fill="#d3d3d3" stroke="#000000" points="150,-162.1249 126,-162.1249 126,-144.1249 150,-144.1249 150,-162.1249"/>
<text text-anchor="middle" x="138" y="-150.9249" font-family="Times,serif" font-size="9.00" fill="#000000">&#45;8</text>
</g>
<!-- &#45;8&#45;&gt;708 -->
<g id="edge14" class="edge">
<title>&#45;8&#45;&gt;708</title>
<path fill="none" stroke="#00ff00" stroke-width=".5" d="M150.4078,-147.7253C153.2251,-146.5221 156.2095,-145.2655 159,-144.1249 199.5397,-127.5542 246.7954,-109.3596 276.5557,-98.0367"/>
<polygon fill="#00ff00" stroke="#00ff00" stroke-width=".5" points="277.8364,-101.2943 285.9427,-94.4725 275.3515,-94.7502 277.8364,-101.2943"/>
</g>
<!-- &#45;8&#45;&gt;705 -->
<g id="edge13" class="edge">
<title>&#45;8&#45;&gt;705</title>
<path fill="none" stroke="#00ff00" stroke-width=".1537" d="M150.2787,-147.3667C153.1027,-146.1821 156.1225,-145.0237 159,-144.1249 235.6258,-120.1888 262.3143,-139.9817 336,-108.1249 337.5699,-107.4462 339.14,-106.6769 340.6932,-105.8435"/>
<polygon fill="#00ff00" stroke="#00ff00" stroke-width=".1537" points="342.603,-108.7779 349.2818,-100.5533 338.9318,-102.8178 342.603,-108.7779"/>
</g>
<!-- &#45;9 -->
<g id="node9" class="node">
<title>&#45;9</title>
<polygon fill="#d3d3d3" stroke="#000000" points="192,-162.1249 168,-162.1249 168,-144.1249 192,-144.1249 192,-162.1249"/>
<text text-anchor="middle" x="180" y="-150.9249" font-family="Times,serif" font-size="9.00" fill="#000000">&#45;9</text>
</g>
<!-- &#45;9&#45;&gt;708 -->
<g id="edge16" class="edge">
<title>&#45;9&#45;&gt;708</title>
<path fill="none" stroke="#00ff00" stroke-width=".5" stroke-dasharray="1,5" d="M192.0814,-146.7761C211.6966,-136.4683 250.9816,-115.8239 277.8797,-101.6889"/>
<polygon fill="#00ff00" stroke="#00ff00" stroke-width=".5" points="279.6008,-104.7384 286.8248,-96.9883 276.3445,-98.5419 279.6008,-104.7384"/>
</g>
<!-- &#45;9&#45;&gt;705 -->
<g id="edge15" class="edge">
<title>&#45;9&#45;&gt;705</title>
<path fill="none" stroke="#00ff00" stroke-width=".1194" d="M192.0004,-147.8967C195.2178,-146.5829 198.7155,-145.233 202,-144.1249 260.4315,-124.4112 280.1793,-134.334 336,-108.1249 337.5482,-107.398 339.1011,-106.5906 340.6409,-105.7277"/>
<polygon fill="#00ff00" stroke="#00ff00" stroke-width=".1194" points="342.5891,-108.6371 349.1902,-100.35 338.862,-102.7119 342.5891,-108.6371"/>
</g>
<!-- &#45;10 -->
<g id="node10" class="node">
<title>&#45;10</title>
<polygon fill="#d3d3d3" stroke="#000000" points="239.5,-162.1249 210.5,-162.1249 210.5,-144.1249 239.5,-144.1249 239.5,-162.1249"/>
<text text-anchor="middle" x="225" y="-150.9249" font-family="Times,serif" font-size="9.00" fill="#000000">&#45;10</text>
</g>
<!-- &#45;10&#45;&gt;708 -->
<g id="edge18" class="edge">
<title>&#45;10&#45;&gt;708</title>
<path fill="none" stroke="#00ff00" stroke-width=".4467" d="M236.2627,-143.9182C247.9262,-134.3839 266.5169,-119.187 281.5714,-106.8808"/>
<polygon fill="#00ff00" stroke="#00ff00" stroke-width=".4467" points="283.9775,-109.4346 289.5047,-100.3957 279.5472,-104.0149 283.9775,-109.4346"/>
</g>
<!-- &#45;10&#45;&gt;705 -->
<g id="edge17" class="edge">
<title>&#45;10&#45;&gt;705</title>
<path fill="none" stroke="#ff0000" stroke-width=".2296" stroke-dasharray="1,5" d="M239.8213,-147.3363C267.9687,-136.3109 327.1509,-112.9628 336,-108.1249 337.5007,-107.3044 339.0161,-106.4231 340.5268,-105.5027"/>
<polygon fill="#ff0000" stroke="#ff0000" stroke-width=".2296" points="342.5452,-108.3646 348.9899,-99.9553 338.7077,-102.5102 342.5452,-108.3646"/>
</g>
<!-- &#45;11 -->
<g id="node11" class="node">
<title>&#45;11</title>
<polygon fill="#d3d3d3" stroke="#000000" points="643.5,-162.1249 614.5,-162.1249 614.5,-144.1249 643.5,-144.1249 643.5,-162.1249"/>
<text text-anchor="middle" x="629" y="-150.9249" font-family="Times,serif" font-size="9.00" fill="#000000">&#45;11</text>
</g>
<!-- 0 -->
<g id="node16" class="node">
<title>0</title>
<ellipse fill="#add8e6" stroke="#000000" cx="393" cy="-14.8492" rx="14.7" ry="14.7"/>
<text text-anchor="middle" x="393" y="-12.6492" font-family="Times,serif" font-size="9.00" fill="#000000">0</text>
</g>
<!-- &#45;11&#45;&gt;0 -->
<g id="edge32" class="edge">
<title>&#45;11&#45;&gt;0</title>
<path fill="none" stroke="#ff0000" stroke-width=".1715" d="M614.2371,-144.4751C574.02,-120.9113 462.3627,-55.4898 414.8521,-27.6527"/>
<polygon fill="#ff0000" stroke="#ff0000" stroke-width=".1715" points="416.3877,-24.4959 405.9902,-22.4604 412.8489,-30.5356 416.3877,-24.4959"/>
</g>
<!-- &#45;11&#45;&gt;708 -->
<g id="edge20" class="edge">
<title>&#45;11&#45;&gt;708</title>
<path fill="none" stroke="#ff0000" stroke-width=".2808" stroke-dasharray="1,5" d="M614.4436,-147.069C611.3656,-145.958 608.1076,-144.9049 605,-144.1249 488.0072,-114.7616 448.2719,-152.222 336,-108.1249 334.3672,-107.4836 332.7391,-106.7353 331.1334,-105.9103"/>
<polygon fill="#ff0000" stroke="#ff0000" stroke-width=".2808" points="332.6726,-102.7506 322.3068,-100.5595 329.0438,-108.7365 332.6726,-102.7506"/>
</g>
<!-- &#45;11&#45;&gt;705 -->
<g id="edge19" class="edge">
<title>&#45;11&#45;&gt;705</title>
<path fill="none" stroke="#00ff00" stroke-width=".256" d="M614.3758,-147.3127C611.3027,-146.1841 608.0639,-145.0621 605,-144.1249 531.3803,-121.6041 442.8019,-102.4062 396.9287,-93.0358"/>
<polygon fill="#00ff00" stroke="#00ff00" stroke-width=".256" points="397.5092,-89.5824 387.0134,-91.0281 396.1199,-96.4432 397.5092,-89.5824"/>
</g>
<!-- &#45;12 -->
<g id="node12" class="node">
<title>&#45;12</title>
<polygon fill="#d3d3d3" stroke="#000000" points="286.5,-162.1249 257.5,-162.1249 257.5,-144.1249 286.5,-144.1249 286.5,-162.1249"/>
<text text-anchor="middle" x="272" y="-150.9249" font-family="Times,serif" font-size="9.00" fill="#000000">&#45;12</text>
</g>
<!-- &#45;12&#45;&gt;708 -->
<g id="edge22" class="edge">
<title>&#45;12&#45;&gt;708</title>
<path fill="none" stroke="#ff0000" stroke-width=".4134" d="M276.7276,-143.9182C280.5833,-136.4094 286.2426,-125.3883 291.5599,-115.0331"/>
<polygon fill="#ff0000" stroke="#ff0000" stroke-width=".4134" points="294.831,-116.3249 296.2854,-105.8303 288.6039,-113.1273 294.831,-116.3249"/>
</g>
<!-- &#45;12&#45;&gt;705 -->
<g id="edge21" class="edge">
<title>&#45;12&#45;&gt;705</title>
<path fill="none" stroke="#ff0000" stroke-width=".5" d="M285.2452,-143.8272C298.1927,-134.7349 318.4609,-120.492 336,-108.1249 337.3978,-107.1393 338.8319,-106.1274 340.2793,-105.1056"/>
<polygon fill="#ff0000" stroke="#ff0000" stroke-width=".5" points="342.4079,-107.8872 348.5557,-99.2584 338.3688,-102.1701 342.4079,-107.8872"/>
</g>
<!-- &#45;13 -->
<g id="node13" class="node">
<title>&#45;13</title>
<polygon fill="#d3d3d3" stroke="#000000" points="333.5,-162.1249 304.5,-162.1249 304.5,-144.1249 333.5,-144.1249 333.5,-162.1249"/>
<text text-anchor="middle" x="319" y="-150.9249" font-family="Times,serif" font-size="9.00" fill="#000000">&#45;13</text>
</g>
<!-- &#45;13&#45;&gt;708 -->
<g id="edge24" class="edge">
<title>&#45;13&#45;&gt;708</title>
<path fill="none" stroke="#ff0000" stroke-width=".25" d="M317.1924,-143.9182C315.8501,-137.0812 313.936,-127.3323 312.0695,-117.8256"/>
<polygon fill="#ff0000" stroke="#ff0000" stroke-width=".25" points="315.4532,-116.8924 310.0921,-107.754 308.5843,-118.241 315.4532,-116.8924"/>
</g>
<!-- &#45;13&#45;&gt;705 -->
<g id="edge23" class="edge">
<title>&#45;13&#45;&gt;705</title>
<path fill="none" stroke="#00ff00" stroke-width=".3228" stroke-dasharray="1,5" d="M325.5351,-143.9182C331.3239,-135.7631 340.0534,-123.4651 347.9242,-112.3768"/>
<polygon fill="#00ff00" stroke="#00ff00" stroke-width=".3228" points="350.7784,-114.4024 353.7127,-104.2219 345.0703,-110.3505 350.7784,-114.4024"/>
</g>
<!-- &#45;14 -->
<g id="node14" class="node">
<title>&#45;14</title>
<polygon fill="#d3d3d3" stroke="#000000" points="380.5,-162.1249 351.5,-162.1249 351.5,-144.1249 380.5,-144.1249 380.5,-162.1249"/>
<text text-anchor="middle" x="366" y="-150.9249" font-family="Times,serif" font-size="9.00" fill="#000000">&#45;14</text>
</g>
<!-- &#45;14&#45;&gt;708 -->
<g id="edge26" class="edge">
<title>&#45;14&#45;&gt;708</title>
<path fill="none" stroke="#00ff00" stroke-width=".4665" d="M357.6573,-143.9182C349.8085,-135.2567 337.725,-121.9219 327.2177,-110.3266"/>
<polygon fill="#00ff00" stroke="#00ff00" stroke-width=".4665" points="329.5752,-107.7158 320.2667,-102.6558 324.388,-112.4162 329.5752,-107.7158"/>
</g>
<!-- &#45;14&#45;&gt;705 -->
<g id="edge25" class="edge">
<title>&#45;14&#45;&gt;705</title>
<path fill="none" stroke="#ff0000" stroke-width=".4273" d="M366,-143.9182C366,-137.2572 366,-127.8323 366,-118.5602"/>
<polygon fill="#ff0000" stroke="#ff0000" stroke-width=".4273" points="369.5001,-118.312 366,-108.3121 362.5001,-118.3121 369.5001,-118.312"/>
</g>
<!-- &#45;15 -->
<g id="node15" class="node">
<title>&#45;15</title>
<polygon fill="#d3d3d3" stroke="#000000" points="427.5,-162.1249 398.5,-162.1249 398.5,-144.1249 427.5,-144.1249 427.5,-162.1249"/>
<text text-anchor="middle" x="413" y="-150.9249" font-family="Times,serif" font-size="9.00" fill="#000000">&#45;15</text>
</g>
<!-- &#45;15&#45;&gt;708 -->
<g id="edge28" class="edge">
<title>&#45;15&#45;&gt;708</title>
<path fill="none" stroke="#ff0000" stroke-width=".3191" d="M398.2982,-145.0339C382.633,-136.2973 357.2183,-121.7905 336,-108.1249 334.5621,-107.1988 333.0963,-106.234 331.6242,-105.2488"/>
<polygon fill="#ff0000" stroke="#ff0000" stroke-width=".3191" points="333.4985,-102.29 323.275,-99.5096 329.5332,-108.0586 333.4985,-102.29"/>
</g>
<!-- &#45;15&#45;&gt;705 -->
<g id="edge27" class="edge">
<title>&#45;15&#45;&gt;705</title>
<path fill="none" stroke="#00ff00" stroke-width=".3068" d="M406.4649,-143.9182C400.6761,-135.7631 391.9466,-123.4651 384.0758,-112.3768"/>
<polygon fill="#00ff00" stroke="#00ff00" stroke-width=".3068" points="386.9297,-110.3505 378.2873,-104.2219 381.2216,-114.4024 386.9297,-110.3505"/>
</g>
<!-- 1 -->
<g id="node17" class="node">
<title>1</title>
<ellipse fill="#add8e6" stroke="#000000" cx="339" cy="-14.8492" rx="14.7" ry="14.7"/>
<text text-anchor="middle" x="339" y="-12.6492" font-family="Times,serif" font-size="9.00" fill="#000000">1</text>
</g>
<!-- 708&#45;&gt;1 -->
<g id="edge31" class="edge">
<title>708&#45;&gt;1</title>
<path fill="none" stroke="#ff0000" stroke-width=".1962" d="M314.8434,-67.6003C319.0376,-58.4413 324.08,-47.4303 328.4704,-37.8428"/>
<polygon fill="#ff0000" stroke="#ff0000" stroke-width=".1962" points="331.7655,-39.0536 332.7469,-28.5043 325.401,-36.139 331.7655,-39.0536"/>
</g>
<!-- 705&#45;&gt;0 -->
<g id="edge29" class="edge">
<title>705&#45;&gt;0</title>
<path fill="none" stroke="#00ff00" stroke-width=".3548" d="M373.521,-66.8383C376.7861,-58.1239 380.6359,-47.8488 384.0471,-38.7443"/>
<polygon fill="#00ff00" stroke="#00ff00" stroke-width=".3548" points="387.4265,-39.7003 387.6576,-29.108 380.8715,-37.2443 387.4265,-39.7003"/>
</g>
<!-- 705&#45;&gt;1 -->
<g id="edge30" class="edge">
<title>705&#45;&gt;1</title>
<path fill="none" stroke="#ff0000" stroke-width=".4139" d="M358.479,-66.8383C355.2139,-58.1239 351.3641,-47.8488 347.9529,-38.7443"/>
<polygon fill="#ff0000" stroke="#ff0000" stroke-width=".4139" points="351.1285,-37.2443 344.3424,-29.108 344.5735,-39.7003 351.1285,-37.2443"/>
</g>
</g>
</svg>
