<?xml version="1.0" encoding="UTF-8" standalone="no"?>
<!DOCTYPE svg PUBLIC "-//W3C//DTD SVG 1.1//EN"
 "http://www.w3.org/Graphics/SVG/1.1/DTD/svg11.dtd">
<!-- Generated by graphviz version 2.40.1 (20161225.0304)
 -->
<!-- Title: %3 Pages: 1 -->
<svg width="383pt" height="249pt"
 viewBox="0.00 0.00 383.50 248.55" xmlns="http://www.w3.org/2000/svg" xmlns:xlink="http://www.w3.org/1999/xlink">
<g id="graph0" class="graph" transform="scale(1 1) rotate(0) translate(4 244.5513)">
<title>%3</title>
<polygon fill="#ffffff" stroke="transparent" points="-4,4 -4,-244.5513 379.4957,-244.5513 379.4957,4 -4,4"/>
<!-- &#45;1 -->
<g id="node1" class="node">
<title>&#45;1</title>
<polygon fill="#d3d3d3" stroke="#000000" points="250.2132,-240.5513 226.2132,-240.5513 226.2132,-222.5513 250.2132,-222.5513 250.2132,-240.5513"/>
<text text-anchor="middle" x="238.2132" y="-229.3513" font-family="Times,serif" font-size="9.00" fill="#000000">&#45;1</text>
</g>
<!-- 278 -->
<g id="node6" class="node">
<title>278</title>
<ellipse fill="#ffffff" stroke="#000000" cx="337.2132" cy="-165.3381" rx="21.4286" ry="21.4286"/>
<text text-anchor="middle" x="337.2132" y="-163.1381" font-family="Times,serif" font-size="9.00" fill="#000000">278</text>
</g>
<!-- &#45;1&#45;&gt;278 -->
<g id="edge1" class="edge">
<title>&#45;1&#45;&gt;278</title>
<path fill="none" stroke="#00ff00" stroke-width=".16" stroke-dasharray="1,5" d="M250.2699,-223.8825C264.1131,-215.0325 287.4566,-199.9717 307.2132,-186.5513 308.628,-185.5902 310.0755,-184.5978 311.5334,-183.5911"/>
<polygon fill="#00ff00" stroke="#00ff00" stroke-width=".16" points="313.6468,-186.3842 319.8406,-177.7884 309.6382,-180.6456 313.6468,-186.3842"/>
</g>
<!-- 279 -->
<g id="node7" class="node">
<title>279</title>
<ellipse fill="#ffffff" stroke="#000000" cx="21.2132" cy="-165.3381" rx="21.4286" ry="21.4286"/>
<text text-anchor="middle" x="21.2132" y="-163.1381" font-family="Times,serif" font-size="9.00" fill="#000000">279</text>
</g>
<!-- &#45;1&#45;&gt;279 -->
<g id="edge2" class="edge">
<title>&#45;1&#45;&gt;279</title>
<path fill="none" stroke="#ff0000" stroke-width=".1541" d="M225.7857,-226.0291C222.6961,-224.7785 219.3656,-223.5319 216.2132,-222.5513 144.5419,-200.2577 119.896,-216.8243 51.2132,-186.5513 49.6481,-185.8615 48.0818,-185.0835 46.5317,-184.2433"/>
<polygon fill="#ff0000" stroke="#ff0000" stroke-width=".1541" points="48.2969,-181.2197 37.9518,-178.9328 44.6129,-187.1718 48.2969,-181.2197"/>
</g>
<!-- 280 -->
<g id="node8" class="node">
<title>280</title>
<ellipse fill="#ffffff" stroke="#000000" cx="81.2132" cy="-165.3381" rx="21.4286" ry="21.4286"/>
<text text-anchor="middle" x="81.2132" y="-163.1381" font-family="Times,serif" font-size="9.00" fill="#000000">280</text>
</g>
<!-- &#45;1&#45;&gt;280 -->
<g id="edge3" class="edge">
<title>&#45;1&#45;&gt;280</title>
<path fill="none" stroke="#00ff00" stroke-width=".3725" d="M226.1544,-226.4656C201.6471,-216.1299 145.4049,-192.4103 110.6284,-177.7437"/>
<polygon fill="#00ff00" stroke="#00ff00" stroke-width=".3725" points="111.5827,-174.3476 101.0085,-173.6866 108.8625,-180.7975 111.5827,-174.3476"/>
</g>
<!-- 281 -->
<g id="node9" class="node">
<title>281</title>
<ellipse fill="#ffffff" stroke="#000000" cx="277.2132" cy="-165.3381" rx="21.4286" ry="21.4286"/>
<text text-anchor="middle" x="277.2132" y="-163.1381" font-family="Times,serif" font-size="9.00" fill="#000000">281</text>
</g>
<!-- &#45;1&#45;&gt;281 -->
<g id="edge4" class="edge">
<title>&#45;1&#45;&gt;281</title>
<path fill="none" stroke="#00ff00" stroke-width=".5" d="M243.636,-222.3446C248.2144,-214.5715 255.0098,-203.0345 261.292,-192.3688"/>
<polygon fill="#00ff00" stroke="#00ff00" stroke-width=".5" points="264.329,-194.109 266.3884,-183.7162 258.2974,-190.5563 264.329,-194.109"/>
</g>
<!-- 282 -->
<g id="node10" class="node">
<title>282</title>
<ellipse fill="#ffffff" stroke="#000000" cx="187.2132" cy="-86.9117" rx="21.4286" ry="21.4286"/>
<text text-anchor="middle" x="187.2132" y="-84.7117" font-family="Times,serif" font-size="9.00" fill="#000000">282</text>
</g>
<!-- &#45;1&#45;&gt;282 -->
<g id="edge5" class="edge">
<title>&#45;1&#45;&gt;282</title>
<path fill="none" stroke="#ff0000" stroke-width=".1056" d="M250.2844,-229.177C279.6055,-223.1399 353.2035,-206.2761 367.2132,-186.5513 378.1321,-171.1782 378.3454,-159.3443 367.2132,-144.1249 349.4856,-119.8886 264.9939,-101.0473 218.3409,-92.2864"/>
<polygon fill="#ff0000" stroke="#ff0000" stroke-width=".1056" points="218.9175,-88.8338 208.4503,-90.4736 217.6555,-95.7192 218.9175,-88.8338"/>
</g>
<!-- 283 -->
<g id="node11" class="node">
<title>283</title>
<ellipse fill="#ffffff" stroke="#000000" cx="217.2132" cy="-165.3381" rx="21.4286" ry="21.4286"/>
<text text-anchor="middle" x="217.2132" y="-163.1381" font-family="Times,serif" font-size="9.00" fill="#000000">283</text>
</g>
<!-- &#45;1&#45;&gt;283 -->
<g id="edge6" class="edge">
<title>&#45;1&#45;&gt;283</title>
<path fill="none" stroke="#00ff00" stroke-width=".5" d="M235.2932,-222.3446C233.0449,-215.2555 229.8036,-205.0359 226.6846,-195.2016"/>
<polygon fill="#00ff00" stroke="#00ff00" stroke-width=".5" points="230.0071,-194.1 223.6477,-185.626 223.3347,-196.2162 230.0071,-194.1"/>
</g>
<!-- &#45;2 -->
<g id="node2" class="node">
<title>&#45;2</title>
<polygon fill="#d3d3d3" stroke="#000000" points="164.2132,-240.5513 140.2132,-240.5513 140.2132,-222.5513 164.2132,-222.5513 164.2132,-240.5513"/>
<text text-anchor="middle" x="152.2132" y="-229.3513" font-family="Times,serif" font-size="9.00" fill="#000000">&#45;2</text>
</g>
<!-- &#45;2&#45;&gt;278 -->
<g id="edge7" class="edge">
<title>&#45;2&#45;&gt;278</title>
<path fill="none" stroke="#ff0000" stroke-width=".5" d="M164.215,-226.3273C167.4324,-225.0135 170.9297,-223.6625 174.2132,-222.5513 232.2196,-202.9202 251.8055,-212.6302 307.2132,-186.5513 308.7607,-185.8229 310.3131,-185.0144 311.8525,-184.1506"/>
<polygon fill="#ff0000" stroke="#ff0000" stroke-width=".5" points="313.8018,-187.0593 320.4005,-178.7702 310.0729,-181.1351 313.8018,-187.0593"/>
</g>
<!-- &#45;2&#45;&gt;279 -->
<g id="edge8" class="edge">
<title>&#45;2&#45;&gt;279</title>
<path fill="none" stroke="#ff0000" stroke-width=".1938" d="M140.0246,-227.0201C120.6585,-219.6241 81.9128,-204.0193 51.2132,-186.5513 49.7267,-185.7055 48.2224,-184.8041 46.7205,-183.8681"/>
<polygon fill="#ff0000" stroke="#ff0000" stroke-width=".1938" points="48.5518,-180.883 38.2831,-178.2746 44.6839,-186.7173 48.5518,-180.883"/>
</g>
<!-- &#45;2&#45;&gt;280 -->
<g id="edge9" class="edge">
<title>&#45;2&#45;&gt;280</title>
<path fill="none" stroke="#00ff00" stroke-width=".184" d="M142.341,-222.3446C132.5591,-213.2223 117.2187,-198.9161 104.3531,-186.9179"/>
<polygon fill="#00ff00" stroke="#00ff00" stroke-width=".184" points="106.4345,-184.0732 96.7341,-179.8126 101.6604,-189.1925 106.4345,-184.0732"/>
</g>
<!-- &#45;2&#45;&gt;281 -->
<g id="edge10" class="edge">
<title>&#45;2&#45;&gt;281</title>
<path fill="none" stroke="#00ff00" stroke-width=".2172" d="M164.2497,-226.6462C182.6189,-218.9853 218.5373,-203.3117 247.2132,-186.5513 248.6898,-185.6883 250.1862,-184.7733 251.6821,-183.8267"/>
<polygon fill="#00ff00" stroke="#00ff00" stroke-width=".2172" points="253.7306,-186.6674 260.1014,-178.202 249.842,-180.8468 253.7306,-186.6674"/>
</g>
<!-- &#45;2&#45;&gt;282 -->
<g id="edge11" class="edge">
<title>&#45;2&#45;&gt;282</title>
<path fill="none" stroke="#ff0000" stroke-width=".3875" d="M154.4026,-222.5034C159.3721,-201.9667 171.6967,-151.0347 179.7456,-117.772"/>
<polygon fill="#ff0000" stroke="#ff0000" stroke-width=".3875" points="183.2437,-118.1969 182.1939,-107.6542 176.4401,-116.5505 183.2437,-118.1969"/>
</g>
<!-- &#45;2&#45;&gt;283 -->
<g id="edge12" class="edge">
<title>&#45;2&#45;&gt;283</title>
<path fill="none" stroke="#ff0000" stroke-width=".1008" d="M161.2512,-222.3446C169.9502,-213.4833 183.4511,-199.7304 195.0126,-187.9531"/>
<polygon fill="#ff0000" stroke="#ff0000" stroke-width=".1008" points="197.7523,-190.1584 202.2601,-180.5703 192.757,-185.2546 197.7523,-190.1584"/>
</g>
<!-- &#45;3 -->
<g id="node3" class="node">
<title>&#45;3</title>
<polygon fill="#d3d3d3" stroke="#000000" points="207.2132,-240.5513 183.2132,-240.5513 183.2132,-222.5513 207.2132,-222.5513 207.2132,-240.5513"/>
<text text-anchor="middle" x="195.2132" y="-229.3513" font-family="Times,serif" font-size="9.00" fill="#000000">&#45;3</text>
</g>
<!-- &#45;3&#45;&gt;278 -->
<g id="edge13" class="edge">
<title>&#45;3&#45;&gt;278</title>
<path fill="none" stroke="#00ff00" stroke-width=".46" d="M207.3099,-226.5828C210.5265,-225.2671 213.9998,-223.8513 217.2132,-222.5513 257.1504,-206.3952 269.3644,-207.1297 307.2132,-186.5513 308.7158,-185.7343 310.2327,-184.8558 311.7445,-183.9376"/>
<polygon fill="#00ff00" stroke="#00ff00" stroke-width=".46" points="313.7605,-186.8012 320.2111,-178.3964 309.9271,-180.9441 313.7605,-186.8012"/>
</g>
<!-- &#45;3&#45;&gt;279 -->
<g id="edge14" class="edge">
<title>&#45;3&#45;&gt;279</title>
<path fill="none" stroke="#ff0000" stroke-width=".1194" d="M183.1941,-226.3774C179.9769,-225.0633 176.4839,-223.6996 173.2132,-222.5513 119.8713,-203.8245 102.089,-211.203 51.2132,-186.5513 49.674,-185.8055 48.1282,-184.9832 46.594,-184.1087"/>
<polygon fill="#ff0000" stroke="#ff0000" stroke-width=".1194" points="48.3804,-181.0971 38.061,-178.6967 44.6311,-187.0084 48.3804,-181.0971"/>
</g>
<!-- &#45;3&#45;&gt;280 -->
<g id="edge15" class="edge">
<title>&#45;3&#45;&gt;280</title>
<path fill="none" stroke="#00ff00" stroke-width=".5" d="M183.0132,-224.4653C165.3668,-214.216 132.2449,-194.9782 108.5727,-181.229"/>
<polygon fill="#00ff00" stroke="#00ff00" stroke-width=".5" points="110.1087,-178.0736 99.7036,-176.0776 106.5929,-184.1267 110.1087,-178.0736"/>
</g>
<!-- &#45;3&#45;&gt;281 -->
<g id="edge16" class="edge">
<title>&#45;3&#45;&gt;281</title>
<path fill="none" stroke="#ff0000" stroke-width=".1337" d="M206.615,-222.3446C218.4225,-212.8103 237.2427,-197.6134 252.483,-185.3072"/>
<polygon fill="#ff0000" stroke="#ff0000" stroke-width=".1337" points="254.9328,-187.8276 260.5143,-178.8221 250.5352,-182.3814 254.9328,-187.8276"/>
</g>
<!-- &#45;3&#45;&gt;282 -->
<g id="edge17" class="edge">
<title>&#45;3&#45;&gt;282</title>
<path fill="none" stroke="#00ff00" stroke-width=".2346" d="M193.078,-222.3072C191.1039,-213.2545 188.3147,-199.0401 187.2132,-186.5513 185.2128,-163.8701 185.2694,-138.1717 185.7967,-118.5547"/>
<polygon fill="#00ff00" stroke="#00ff00" stroke-width=".2346" points="189.3019,-118.448 186.1279,-108.3398 182.3055,-118.2211 189.3019,-118.448"/>
</g>
<!-- &#45;3&#45;&gt;283 -->
<g id="edge18" class="edge">
<title>&#45;3&#45;&gt;283</title>
<path fill="none" stroke="#00ff00" stroke-width=".1427" d="M198.2722,-222.3446C200.6276,-215.2555 204.0232,-205.0359 207.2908,-195.2016"/>
<polygon fill="#00ff00" stroke="#00ff00" stroke-width=".1427" points="210.6406,-196.2195 210.4723,-185.626 203.9977,-194.0123 210.6406,-196.2195"/>
</g>
<!-- 0 -->
<g id="node4" class="node">
<title>0</title>
<ellipse fill="#add8e6" stroke="#000000" cx="163.2132" cy="-14.8492" rx="14.7" ry="14.7"/>
<text text-anchor="middle" x="163.2132" y="-12.6492" font-family="Times,serif" font-size="9.00" fill="#000000">0</text>
</g>
<!-- 1 -->
<g id="node5" class="node">
<title>1</title>
<ellipse fill="#add8e6" stroke="#000000" cx="211.2132" cy="-14.8492" rx="14.7" ry="14.7"/>
<text text-anchor="middle" x="211.2132" y="-12.6492" font-family="Times,serif" font-size="9.00" fill="#000000">1</text>
</g>
<!-- 278&#45;&gt;0 -->
<g id="edge19" class="edge">
<title>278&#45;&gt;0</title>
<path fill="none" stroke="#00ff00" stroke-width=".4061" d="M324.0846,-148.5226C307.2375,-127.5973 276.4421,-91.4812 245.2132,-65.6985 244.5259,-65.1311 208.4861,-42.8289 184.4193,-27.9519"/>
<polygon fill="#00ff00" stroke="#00ff00" stroke-width=".4061" points="186.227,-24.9546 175.8804,-22.6745 182.5468,-30.9091 186.227,-24.9546"/>
</g>
<!-- 278&#45;&gt;1 -->
<g id="edge20" class="edge">
<title>278&#45;&gt;1</title>
<path fill="none" stroke="#ff0000" stroke-width=".2722" d="M335.0424,-144.0618C331.8338,-122.2308 324.0131,-88.3456 305.2132,-65.6985 286.983,-43.7376 256.7209,-29.8088 235.4691,-22.1886"/>
<polygon fill="#ff0000" stroke="#ff0000" stroke-width=".2722" points="236.4465,-18.8247 225.8523,-18.9471 234.2105,-25.458 236.4465,-18.8247"/>
</g>
<!-- 279&#45;&gt;0 -->
<g id="edge21" class="edge">
<title>279&#45;&gt;0</title>
<path fill="none" stroke="#00ff00" stroke-width=".4355" d="M11.9833,-146.1294C3.0708,-124.4892 -6.7913,-89.269 10.2132,-65.6985 25.4396,-44.5928 99.2712,-27.3194 138.536,-19.4466"/>
<polygon fill="#00ff00" stroke="#00ff00" stroke-width=".4355" points="139.2482,-22.8737 148.3923,-17.5226 137.907,-16.0034 139.2482,-22.8737"/>
</g>
<!-- 279&#45;&gt;1 -->
<g id="edge22" class="edge">
<title>279&#45;&gt;1</title>
<path fill="none" stroke="#00ff00" stroke-width=".3666" d="M34.9037,-149.0723C53.1273,-128.0764 87.046,-91.2156 121.2132,-65.6985 147.9845,-45.7049 158.3286,-46.495 187.2132,-29.6985 188.0286,-29.2244 188.857,-28.7376 189.692,-28.2427"/>
<polygon fill="#00ff00" stroke="#00ff00" stroke-width=".3666" points="191.8567,-31.023 198.587,-22.8405 188.223,-25.0399 191.8567,-31.023"/>
</g>
<!-- 280&#45;&gt;0 -->
<g id="edge23" class="edge">
<title>280&#45;&gt;0</title>
<path fill="none" stroke="#ff0000" stroke-width=".359" d="M77.057,-144.3631C73.9762,-123.0829 72.3901,-89.9169 86.2132,-65.6985 97.9389,-45.1548 121.7544,-31.3932 139.8125,-23.4245"/>
<polygon fill="#ff0000" stroke="#ff0000" stroke-width=".359" points="141.223,-26.6289 149.1391,-19.5872 138.5595,-20.1554 141.223,-26.6289"/>
</g>
<!-- 280&#45;&gt;1 -->
<g id="edge24" class="edge">
<title>280&#45;&gt;1</title>
<path fill="none" stroke="#ff0000" stroke-width=".2108" d="M93.306,-147.7357C107.6594,-127.2756 132.743,-92.8489 157.2132,-65.6985 168.0679,-53.6549 181.3074,-41.1581 191.9603,-31.5671"/>
<polygon fill="#ff0000" stroke="#ff0000" stroke-width=".2108" points="194.3661,-34.1115 199.5201,-24.8548 189.7185,-28.877 194.3661,-34.1115"/>
</g>
<!-- 281&#45;&gt;0 -->
<g id="edge25" class="edge">
<title>281&#45;&gt;0</title>
<path fill="none" stroke="#ff0000" stroke-width=".1453" d="M267.591,-145.969C256.7803,-125.1176 238.0036,-91.4751 217.2132,-65.6985 206.9056,-52.9188 193.4706,-40.2556 182.5802,-30.763"/>
<polygon fill="#ff0000" stroke="#ff0000" stroke-width=".1453" points="184.7246,-27.992 174.8422,-24.1725 180.1858,-33.3211 184.7246,-27.992"/>
</g>
<!-- 281&#45;&gt;1 -->
<g id="edge26" class="edge">
<title>281&#45;&gt;1</title>
<path fill="none" stroke="#ff0000" stroke-width=".1575" d="M285.6934,-145.7205C293.4182,-124.6566 301.7358,-90.8338 288.2132,-65.6985 277.0062,-44.8674 253.111,-31.1499 234.8926,-23.27"/>
<polygon fill="#ff0000" stroke="#ff0000" stroke-width=".1575" points="236.0558,-19.9655 225.4719,-19.4848 233.446,-26.4608 236.0558,-19.9655"/>
</g>
<!-- 282&#45;&gt;0 -->
<g id="edge27" class="edge">
<title>282&#45;&gt;0</title>
<path fill="none" stroke="#00ff00" stroke-width=".2864" d="M180.4,-66.4542C177.5001,-57.7471 174.0999,-47.5376 171.0926,-38.5079"/>
<polygon fill="#00ff00" stroke="#00ff00" stroke-width=".2864" points="174.3925,-37.3393 167.9119,-28.9576 167.7511,-39.5512 174.3925,-37.3393"/>
</g>
<!-- 282&#45;&gt;1 -->
<g id="edge28" class="edge">
<title>282&#45;&gt;1</title>
<path fill="none" stroke="#ff0000" stroke-width=".3064" d="M194.0264,-66.4542C196.9263,-57.7471 200.3265,-47.5376 203.3338,-38.5079"/>
<polygon fill="#ff0000" stroke="#ff0000" stroke-width=".3064" points="206.6753,-39.5512 206.5145,-28.9576 200.0339,-37.3393 206.6753,-39.5512"/>
</g>
<!-- 283&#45;&gt;0 -->
<g id="edge29" class="edge">
<title>283&#45;&gt;0</title>
<path fill="none" stroke="#ff0000" stroke-width=".1476" d="M198.9542,-154.0406C184.5958,-143.9867 165.6552,-127.8395 157.2132,-108.1249 147.7815,-86.0989 151.2259,-58.4506 155.8308,-38.9932"/>
<polygon fill="#ff0000" stroke="#ff0000" stroke-width=".1476" points="159.2703,-39.6757 158.434,-29.114 152.5014,-37.892 159.2703,-39.6757"/>
</g>
<!-- 283&#45;&gt;1 -->
<g id="edge30" class="edge">
<title>283&#45;&gt;1</title>
<path fill="none" stroke="#00ff00" stroke-width=".2096" d="M217.9382,-143.9365C218.4506,-123.7447 218.7971,-92.6377 217.2132,-65.6985 216.7198,-57.3071 215.7723,-48.1769 214.7734,-39.9986"/>
<polygon fill="#00ff00" stroke="#00ff00" stroke-width=".2096" points="218.2255,-39.403 213.4646,-29.9381 211.284,-40.3061 218.2255,-39.403"/>
</g>
<!-- 283&#45;&gt;282 -->
<g id="edge31" class="edge">
<title>283&#45;&gt;282</title>
<path fill="none" stroke="#ff0000" stroke-width=".2303" d="M209.4875,-145.1413C206.1373,-136.3834 202.1485,-125.9557 198.4782,-116.3609"/>
<polygon fill="#ff0000" stroke="#ff0000" stroke-width=".2303" points="201.6507,-114.858 194.8089,-106.7685 195.1128,-117.359 201.6507,-114.858"/>
</g>
</g>
</svg>
