<?xml version="1.0" encoding="UTF-8" standalone="no"?>
<!DOCTYPE svg PUBLIC "-//W3C//DTD SVG 1.1//EN"
 "http://www.w3.org/Graphics/SVG/1.1/DTD/svg11.dtd">
<!-- Generated by graphviz version 2.40.1 (20161225.0304)
 -->
<!-- Title: %3 Pages: 1 -->
<svg width="543pt" height="354pt"
 viewBox="0.00 0.00 542.97 353.85" xmlns="http://www.w3.org/2000/svg" xmlns:xlink="http://www.w3.org/1999/xlink">
<g id="graph0" class="graph" transform="scale(1 1) rotate(0) translate(4 349.8478)">
<title>%3</title>
<polygon fill="#ffffff" stroke="transparent" points="-4,4 -4,-349.8478 538.9688,-349.8478 538.9688,4 -4,4"/>
<!-- &#45;1 -->
<g id="node1" class="node">
<title>&#45;1</title>
<polygon fill="#d3d3d3" stroke="#000000" points="372.4079,-345.8478 348.4079,-345.8478 348.4079,-327.8478 372.4079,-327.8478 372.4079,-345.8478"/>
<text text-anchor="middle" x="360.4079" y="-334.6478" font-family="Times,serif" font-size="9.00" fill="#000000">&#45;1</text>
</g>
<!-- 7902 -->
<g id="node7" class="node">
<title>7902</title>
<ellipse fill="#ffffff" stroke="#000000" cx="267.4079" cy="-267.099" rx="25" ry="25"/>
<text text-anchor="middle" x="267.4079" y="-264.899" font-family="Times,serif" font-size="9.00" fill="#000000">7902</text>
</g>
<!-- &#45;1&#45;&gt;7902 -->
<g id="edge29" class="edge">
<title>&#45;1&#45;&gt;7902</title>
<path fill="none" stroke="#ff0000" stroke-width=".1274" d="M348.2498,-327.7293C334.9638,-317.765 313.2268,-301.4626 295.6373,-288.2707"/>
<polygon fill="#ff0000" stroke="#ff0000" stroke-width=".1274" points="297.4909,-285.2859 287.3909,-282.086 293.2909,-290.886 297.4909,-285.2859"/>
</g>
<!-- 6014 -->
<g id="node8" class="node">
<title>6014</title>
<ellipse fill="#ffffff" stroke="#000000" cx="491.4079" cy="-267.099" rx="25" ry="25"/>
<text text-anchor="middle" x="491.4079" y="-264.899" font-family="Times,serif" font-size="9.00" fill="#000000">6014</text>
</g>
<!-- &#45;1&#45;&gt;6014 -->
<g id="edge27" class="edge">
<title>&#45;1&#45;&gt;6014</title>
<path fill="none" stroke="#ff0000" stroke-width=".1014" d="M372.5341,-331.4369C390.3415,-323.375 424.4787,-307.4771 452.4079,-291.8478 455.511,-290.1112 458.7093,-288.2337 461.8766,-286.3162"/>
<polygon fill="#ff0000" stroke="#ff0000" stroke-width=".1014" points="463.9668,-289.1382 470.6163,-280.8899 460.2745,-283.1912 463.9668,-289.1382"/>
</g>
<!-- 4730 -->
<g id="node9" class="node">
<title>4730</title>
<ellipse fill="#ffffff" stroke="#000000" cx="269.4079" cy="-178.7731" rx="25" ry="25"/>
<text text-anchor="middle" x="269.4079" y="-176.5731" font-family="Times,serif" font-size="9.00" fill="#000000">4730</text>
</g>
<!-- &#45;1&#45;&gt;4730 -->
<g id="edge1" class="edge">
<title>&#45;1&#45;&gt;4730</title>
<path fill="none" stroke="#00ff00" stroke-width=".3465" d="M354.988,-327.4329C341.8662,-304.6392 307.9284,-245.6864 286.9466,-209.2393"/>
<polygon fill="#00ff00" stroke="#00ff00" stroke-width=".3465" points="289.9344,-207.4139 281.9119,-200.4936 283.8678,-210.9064 289.9344,-207.4139"/>
</g>
<!-- 4731 -->
<g id="node10" class="node">
<title>4731</title>
<ellipse fill="#ffffff" stroke="#000000" cx="398.4079" cy="-90.4472" rx="25" ry="25"/>
<text text-anchor="middle" x="398.4079" y="-88.2472" font-family="Times,serif" font-size="9.00" fill="#000000">4731</text>
</g>
<!-- &#45;1&#45;&gt;4731 -->
<g id="edge2" class="edge">
<title>&#45;1&#45;&gt;4731</title>
<path fill="none" stroke="#ff0000" stroke-width=".3259" d="M372.6427,-335.411C407.5765,-331.0328 506.4839,-316.6241 525.4079,-291.8478 536.3063,-277.579 540.334,-177.5926 523.4079,-151.196 503.4273,-120.0357 462.5042,-104.406 432.9142,-96.8832"/>
<polygon fill="#ff0000" stroke="#ff0000" stroke-width=".3259" points="433.5088,-93.4276 422.9734,-94.5482 431.9081,-100.2422 433.5088,-93.4276"/>
</g>
<!-- 4732 -->
<g id="node11" class="node">
<title>4732</title>
<ellipse fill="#ffffff" stroke="#000000" cx="55.4079" cy="-90.4472" rx="25" ry="25"/>
<text text-anchor="middle" x="55.4079" y="-88.2472" font-family="Times,serif" font-size="9.00" fill="#000000">4732</text>
</g>
<!-- &#45;1&#45;&gt;4732 -->
<g id="edge3" class="edge">
<title>&#45;1&#45;&gt;4732</title>
<path fill="none" stroke="#ff0000" stroke-width=".1162" stroke-dasharray="1,5" d="M348.1865,-336.3384C312.5462,-334.4735 206.2041,-326.1982 126.4079,-291.8478 66.5908,-266.0979 37.1275,-264.2976 7.4079,-206.3503 -3.7787,-184.5386 -.6362,-174.3516 7.4079,-151.196 12.0828,-137.7389 21.1139,-125.0121 30.0931,-114.7175"/>
<polygon fill="#ff0000" stroke="#ff0000" stroke-width=".1162" points="32.6795,-117.0756 36.8763,-107.3474 27.5289,-112.3351 32.6795,-117.0756"/>
</g>
<!-- 4733 -->
<g id="node12" class="node">
<title>4733</title>
<ellipse fill="#ffffff" stroke="#000000" cx="125.4079" cy="-178.7731" rx="25" ry="25"/>
<text text-anchor="middle" x="125.4079" y="-176.5731" font-family="Times,serif" font-size="9.00" fill="#000000">4733</text>
</g>
<!-- &#45;1&#45;&gt;4733 -->
<g id="edge4" class="edge">
<title>&#45;1&#45;&gt;4733</title>
<path fill="none" stroke="#00ff00" stroke-width=".2509" d="M348.3529,-335.7787C309.0542,-332.0569 185.5616,-318.4237 157.4079,-291.8478 136.2479,-271.8736 128.7331,-239.0583 126.227,-213.91"/>
<polygon fill="#00ff00" stroke="#00ff00" stroke-width=".2509" points="129.6952,-213.3617 125.4345,-203.6613 122.716,-213.9015 129.6952,-213.3617"/>
</g>
<!-- 4734 -->
<g id="node13" class="node">
<title>4734</title>
<ellipse fill="#ffffff" stroke="#000000" cx="295.4079" cy="-90.4472" rx="25" ry="25"/>
<text text-anchor="middle" x="295.4079" y="-88.2472" font-family="Times,serif" font-size="9.00" fill="#000000">4734</text>
</g>
<!-- &#45;1&#45;&gt;4734 -->
<g id="edge5" class="edge">
<title>&#45;1&#45;&gt;4734</title>
<path fill="none" stroke="#00ff00" stroke-width=".4838" d="M366.1841,-327.6233C371.3341,-318.8158 378.495,-304.9778 381.4079,-291.8478 395.1426,-229.9376 389.2759,-206.0225 357.4079,-151.196 348.7109,-136.2334 335.3395,-122.4699 323.238,-111.8408"/>
<polygon fill="#00ff00" stroke="#00ff00" stroke-width=".4838" points="325.4278,-109.1089 315.5308,-105.3274 320.9095,-114.4554 325.4278,-109.1089"/>
</g>
<!-- 4735 -->
<g id="node14" class="node">
<title>4735</title>
<ellipse fill="#ffffff" stroke="#000000" cx="489.4079" cy="-178.7731" rx="25" ry="25"/>
<text text-anchor="middle" x="489.4079" y="-176.5731" font-family="Times,serif" font-size="9.00" fill="#000000">4735</text>
</g>
<!-- &#45;1&#45;&gt;4735 -->
<g id="edge6" class="edge">
<title>&#45;1&#45;&gt;4735</title>
<path fill="none" stroke="#00ff00" stroke-width=".5" d="M372.4312,-328.425C383.9842,-319.9813 401.5373,-306.2049 414.4079,-291.8478 437.3125,-266.2977 458.4338,-233.2144 472.3855,-209.4429"/>
<polygon fill="#00ff00" stroke="#00ff00" stroke-width=".5" points="475.5759,-210.9173 477.5499,-200.508 469.5154,-207.4143 475.5759,-210.9173"/>
</g>
<!-- &#45;2 -->
<g id="node2" class="node">
<title>&#45;2</title>
<polygon fill="#d3d3d3" stroke="#000000" points="190.4079,-276.099 166.4079,-276.099 166.4079,-258.099 190.4079,-258.099 190.4079,-276.099"/>
<text text-anchor="middle" x="178.4079" y="-264.899" font-family="Times,serif" font-size="9.00" fill="#000000">&#45;2</text>
</g>
<!-- 31233 -->
<g id="node6" class="node">
<title>31233</title>
<ellipse fill="#ffffff" stroke="#000000" cx="55.4079" cy="-178.7731" rx="27.6545" ry="27.6545"/>
<text text-anchor="middle" x="55.4079" y="-176.5731" font-family="Times,serif" font-size="9.00" fill="#000000">31233</text>
</g>
<!-- &#45;2&#45;&gt;31233 -->
<g id="edge32" class="edge">
<title>&#45;2&#45;&gt;31233</title>
<path fill="none" stroke="#00ff00" stroke-width=".3973" d="M166.1845,-258.8145C149.2396,-247.2734 117.724,-225.6031 91.4079,-206.3503 89.5493,-204.9906 87.6455,-203.5815 85.731,-202.1522"/>
<polygon fill="#00ff00" stroke="#00ff00" stroke-width=".3973" points="87.4666,-199.0771 77.3765,-195.8459 83.2493,-204.6641 87.4666,-199.0771"/>
</g>
<!-- &#45;2&#45;&gt;4730 -->
<g id="edge7" class="edge">
<title>&#45;2&#45;&gt;4730</title>
<path fill="none" stroke="#00ff00" stroke-width=".4223" d="M187.8038,-257.9793C200.9161,-245.2522 225.1934,-221.6884 243.8719,-203.5588"/>
<polygon fill="#00ff00" stroke="#00ff00" stroke-width=".4223" points="246.7472,-205.6455 251.4853,-196.1691 241.8718,-200.6225 246.7472,-205.6455"/>
</g>
<!-- &#45;2&#45;&gt;4731 -->
<g id="edge8" class="edge">
<title>&#45;2&#45;&gt;4731</title>
<path fill="none" stroke="#00ff00" stroke-width=".3441" d="M181.844,-258.0527C191.2929,-233.5761 218.1117,-166.8387 235.4079,-151.196 237.9434,-148.9029 318.4793,-119.4472 365.3777,-102.4112"/>
<polygon fill="#00ff00" stroke="#00ff00" stroke-width=".3441" points="366.6288,-105.6806 374.8346,-98.9787 364.2404,-99.1007 366.6288,-105.6806"/>
</g>
<!-- &#45;2&#45;&gt;4732 -->
<g id="edge9" class="edge">
<title>&#45;2&#45;&gt;4732</title>
<path fill="none" stroke="#00ff00" stroke-width=".2822" stroke-dasharray="1,5" d="M165.9921,-264.2923C131.5257,-256.2246 36.0413,-231.907 18.4079,-206.3503 -.1559,-179.4452 17.2451,-142.7144 33.9127,-117.8692"/>
<polygon fill="#00ff00" stroke="#00ff00" stroke-width=".2822" points="36.8294,-119.8061 39.7175,-109.6124 31.1029,-115.7801 36.8294,-119.8061"/>
</g>
<!-- &#45;2&#45;&gt;4733 -->
<g id="edge10" class="edge">
<title>&#45;2&#45;&gt;4733</title>
<path fill="none" stroke="#00ff00" stroke-width=".5" d="M172.9356,-257.9793C165.9988,-246.4189 153.6968,-225.9173 143.3469,-208.6689"/>
<polygon fill="#00ff00" stroke="#00ff00" stroke-width=".5" points="146.2977,-206.784 138.1512,-200.0101 140.2954,-210.3858 146.2977,-206.784"/>
</g>
<!-- &#45;2&#45;&gt;4734 -->
<g id="edge11" class="edge">
<title>&#45;2&#45;&gt;4734</title>
<path fill="none" stroke="#00ff00" stroke-width=".4434" d="M178.0345,-258.0746C177.6184,-237.3127 179.1485,-185.3276 202.4079,-151.196 217.1273,-129.5962 242.3287,-113.8399 262.7873,-103.7939"/>
<polygon fill="#00ff00" stroke="#00ff00" stroke-width=".4434" points="264.51,-106.8524 272.09,-99.4501 261.5483,-100.5097 264.51,-106.8524"/>
</g>
<!-- &#45;2&#45;&gt;4735 -->
<g id="edge12" class="edge">
<title>&#45;2&#45;&gt;4735</title>
<path fill="none" stroke="#00ff00" stroke-width=".379" d="M190.8173,-260.741C201.7978,-255.3038 218.3673,-247.5547 233.4079,-242.3503 310.9818,-215.5078 405.4319,-195.0851 455.0926,-185.2521"/>
<polygon fill="#00ff00" stroke="#00ff00" stroke-width=".379" points="455.8458,-188.6712 464.9876,-183.3161 454.5016,-181.8014 455.8458,-188.6712"/>
</g>
<!-- &#45;3 -->
<g id="node3" class="node">
<title>&#45;3</title>
<polygon fill="#d3d3d3" stroke="#000000" points="372.4079,-276.099 348.4079,-276.099 348.4079,-258.099 372.4079,-258.099 372.4079,-276.099"/>
<text text-anchor="middle" x="360.4079" y="-264.899" font-family="Times,serif" font-size="9.00" fill="#000000">&#45;3</text>
</g>
<!-- &#45;3&#45;&gt;4730 -->
<g id="edge13" class="edge">
<title>&#45;3&#45;&gt;4730</title>
<path fill="none" stroke="#ff0000" stroke-width=".385" d="M351.0121,-257.9793C337.8997,-245.2522 313.6224,-221.6884 294.944,-203.5588"/>
<polygon fill="#ff0000" stroke="#ff0000" stroke-width=".385" points="296.944,-200.6225 287.3306,-196.1691 292.0686,-205.6455 296.944,-200.6225"/>
</g>
<!-- &#45;3&#45;&gt;4731 -->
<g id="edge14" class="edge">
<title>&#45;3&#45;&gt;4731</title>
<path fill="none" stroke="#00ff00" stroke-width=".411" d="M362.5583,-258.0561C365.3623,-246.2004 370.3838,-224.7475 374.4079,-206.3503 380.3861,-179.0194 386.7938,-147.9769 391.4832,-124.9011"/>
<polygon fill="#00ff00" stroke="#00ff00" stroke-width=".411" points="394.9538,-125.3971 393.5092,-114.9012 388.0931,-124.007 394.9538,-125.3971"/>
</g>
<!-- &#45;3&#45;&gt;4732 -->
<g id="edge15" class="edge">
<title>&#45;3&#45;&gt;4732</title>
<path fill="none" stroke="#ff0000" stroke-width=".4044" d="M357.0648,-257.9437C347.8535,-233.1885 321.5856,-165.805 303.4079,-151.196 270.6494,-124.8686 150.3622,-104.2142 90.1803,-95.2726"/>
<polygon fill="#ff0000" stroke="#ff0000" stroke-width=".4044" points="90.4228,-91.7709 80.0221,-93.7899 89.4118,-98.6975 90.4228,-91.7709"/>
</g>
<!-- &#45;3&#45;&gt;4733 -->
<g id="edge16" class="edge">
<title>&#45;3&#45;&gt;4733</title>
<path fill="none" stroke="#ff0000" stroke-width=".5" d="M348.2773,-261.7992C336.4005,-256.6605 317.7583,-248.728 301.4079,-242.3503 252.0976,-223.1161 194.2688,-202.6142 158.7346,-190.248"/>
<polygon fill="#ff0000" stroke="#ff0000" stroke-width=".5" points="159.4878,-186.8047 148.893,-186.8328 157.1929,-193.4178 159.4878,-186.8047"/>
</g>
<!-- &#45;3&#45;&gt;4734 -->
<g id="edge17" class="edge">
<title>&#45;3&#45;&gt;4734</title>
<path fill="none" stroke="#ff0000" stroke-width=".4825" d="M359.7307,-258.0241C357.9836,-238.0119 352.2921,-188.8772 336.4079,-151.196 331.5149,-139.5884 324.2747,-127.8735 317.2345,-117.8702"/>
<polygon fill="#ff0000" stroke="#ff0000" stroke-width=".4825" points="319.8905,-115.5728 311.1631,-109.5658 314.2396,-119.7041 319.8905,-115.5728"/>
</g>
<!-- &#45;3&#45;&gt;4735 -->
<g id="edge18" class="edge">
<title>&#45;3&#45;&gt;4735</title>
<path fill="none" stroke="#ff0000" stroke-width=".2429" d="M372.777,-258.63C392.807,-244.9155 432.8705,-217.4841 460.403,-198.6327"/>
<polygon fill="#ff0000" stroke="#ff0000" stroke-width=".2429" points="462.5867,-201.3794 468.8605,-192.8419 458.6319,-195.6035 462.5867,-201.3794"/>
</g>
<!-- 0 -->
<g id="node4" class="node">
<title>0</title>
<ellipse fill="#add8e6" stroke="#000000" cx="295.4079" cy="-14.8492" rx="14.7" ry="14.7"/>
<text text-anchor="middle" x="295.4079" y="-12.6492" font-family="Times,serif" font-size="9.00" fill="#000000">0</text>
</g>
<!-- 1 -->
<g id="node5" class="node">
<title>1</title>
<ellipse fill="#add8e6" stroke="#000000" cx="242.4079" cy="-14.8492" rx="14.7" ry="14.7"/>
<text text-anchor="middle" x="242.4079" y="-12.6492" font-family="Times,serif" font-size="9.00" fill="#000000">1</text>
</g>
<!-- 31233&#45;&gt;4732 -->
<g id="edge33" class="edge">
<title>31233&#45;&gt;4732</title>
<path fill="none" stroke="#00ff00" stroke-width=".4512" d="M55.4079,-150.8263C55.4079,-142.7058 55.4079,-133.736 55.4079,-125.2495"/>
<polygon fill="#00ff00" stroke="#00ff00" stroke-width=".4512" points="58.908,-125.2271 55.4079,-115.2271 51.908,-125.2272 58.908,-125.2271"/>
</g>
<!-- 7902&#45;&gt;4730 -->
<g id="edge30" class="edge">
<title>7902&#45;&gt;4730</title>
<path fill="none" stroke="#00ff00" stroke-width=".2035" d="M267.9757,-242.0246C268.1737,-233.2794 268.3997,-223.2975 268.6128,-213.8882"/>
<polygon fill="#00ff00" stroke="#00ff00" stroke-width=".2035" points="272.1183,-213.6812 268.8456,-203.6045 265.1201,-213.5227 272.1183,-213.6812"/>
</g>
<!-- 6014&#45;&gt;4735 -->
<g id="edge28" class="edge">
<title>6014&#45;&gt;4735</title>
<path fill="none" stroke="#ff0000" stroke-width=".4003" stroke-dasharray="1,5" d="M490.8401,-242.0246C490.6421,-233.2794 490.4161,-223.2975 490.203,-213.8882"/>
<polygon fill="#ff0000" stroke="#ff0000" stroke-width=".4003" points="493.6958,-213.5227 489.9702,-203.6045 486.6975,-213.6812 493.6958,-213.5227"/>
</g>
<!-- 4730&#45;&gt;1 -->
<g id="edge19" class="edge">
<title>4730&#45;&gt;1</title>
<path fill="none" stroke="#00ff00" stroke-width=".1652" d="M265.3657,-154.2321C260.2861,-123.3926 251.6165,-70.7569 246.5092,-39.7493"/>
<polygon fill="#00ff00" stroke="#00ff00" stroke-width=".1652" points="249.9418,-39.0529 244.863,-29.7547 243.0348,-40.1907 249.9418,-39.0529"/>
</g>
<!-- 4730&#45;&gt;4734 -->
<g id="edge34" class="edge">
<title>4730&#45;&gt;4734</title>
<path fill="none" stroke="#ff0000" stroke-width=".1004" d="M276.5125,-154.6377C279.2866,-145.2139 282.515,-134.2465 285.5101,-124.0717"/>
<polygon fill="#ff0000" stroke="#ff0000" stroke-width=".1004" points="288.9356,-124.8291 288.4019,-114.2477 282.2204,-122.8523 288.9356,-124.8291"/>
</g>
<!-- 4732&#45;&gt;1 -->
<g id="edge20" class="edge">
<title>4732&#45;&gt;1</title>
<path fill="none" stroke="#00ff00" stroke-width=".294" d="M78.7135,-81.0255C114.5362,-66.5436 182.7546,-38.9651 218.774,-24.4036"/>
<polygon fill="#00ff00" stroke="#00ff00" stroke-width=".294" points="220.4781,-27.49 228.4373,-20.4971 217.8545,-21.0003 220.4781,-27.49"/>
</g>
<!-- 4733&#45;&gt;0 -->
<g id="edge21" class="edge">
<title>4733&#45;&gt;0</title>
<path fill="none" stroke="#ff0000" stroke-width=".4006" d="M143.2796,-161.5402C175.8149,-130.1678 244.3759,-64.0573 277.1755,-32.43"/>
<polygon fill="#ff0000" stroke="#ff0000" stroke-width=".4006" points="279.9311,-34.635 284.7002,-25.1743 275.0722,-29.596 279.9311,-34.635"/>
</g>
<!-- 4733&#45;&gt;1 -->
<g id="edge22" class="edge">
<title>4733&#45;&gt;1</title>
<path fill="none" stroke="#ff0000" stroke-width=".3304" d="M134.1849,-155.5937C143.9501,-131.6067 161.3052,-93.7868 183.4079,-65.6985 194.3088,-51.8455 209.4066,-38.9156 221.6005,-29.5608"/>
<polygon fill="#ff0000" stroke="#ff0000" stroke-width=".3304" points="223.9264,-32.193 229.8648,-23.4187 219.7509,-26.5747 223.9264,-32.193"/>
</g>
<!-- 4734&#45;&gt;0 -->
<g id="edge23" class="edge">
<title>4734&#45;&gt;0</title>
<path fill="none" stroke="#ff0000" stroke-width=".247" d="M295.4079,-65.6936C295.4079,-57.4298 295.4079,-48.2178 295.4079,-39.9294"/>
<polygon fill="#ff0000" stroke="#ff0000" stroke-width=".247" points="298.908,-39.7229 295.4079,-29.7229 291.908,-39.723 298.908,-39.7229"/>
</g>
<!-- 4734&#45;&gt;1 -->
<g id="edge24" class="edge">
<title>4734&#45;&gt;1</title>
<path fill="none" stroke="#00ff00" stroke-width=".2982" stroke-dasharray="1,5" d="M280.9254,-69.7897C273.4547,-59.1337 264.3674,-46.1717 256.8959,-35.5145"/>
<polygon fill="#00ff00" stroke="#00ff00" stroke-width=".2982" points="259.6773,-33.3848 251.0708,-27.2058 253.9455,-37.4032 259.6773,-33.3848"/>
</g>
<!-- 4735&#45;&gt;0 -->
<g id="edge25" class="edge">
<title>4735&#45;&gt;0</title>
<path fill="none" stroke="#00ff00" stroke-width=".5" d="M490.9886,-153.9021C491.1992,-128.5353 487.4409,-89.6044 465.4079,-65.6985 445.674,-44.287 362.3821,-26.7695 320.1625,-19.0709"/>
<polygon fill="#00ff00" stroke="#00ff00" stroke-width=".5" points="320.5982,-15.5936 310.1397,-17.2876 319.3719,-22.4853 320.5982,-15.5936"/>
</g>
<!-- 4735&#45;&gt;1 -->
<g id="edge26" class="edge">
<title>4735&#45;&gt;1</title>
<path fill="none" stroke="#00ff00" stroke-width=".175" d="M480.4569,-155.527C468.6461,-126.0203 447.5815,-77.5218 432.4079,-65.6985 374.5706,-20.6313 340.37,-54.607 271.4079,-29.6985 269.1187,-28.8716 266.7796,-27.9032 264.4722,-26.8641"/>
<polygon fill="#00ff00" stroke="#00ff00" stroke-width=".175" points="265.8908,-23.6613 255.3741,-22.3771 262.7946,-29.9393 265.8908,-23.6613"/>
</g>
<!-- 4735&#45;&gt;4731 -->
<g id="edge31" class="edge">
<title>4735&#45;&gt;4731</title>
<path fill="none" stroke="#00ff00" stroke-width=".209" d="M471.4292,-161.3228C457.8438,-148.1365 439.015,-129.861 423.8799,-115.1707"/>
<polygon fill="#00ff00" stroke="#00ff00" stroke-width=".209" points="425.9627,-112.3147 416.3492,-107.8613 421.0873,-117.3377 425.9627,-112.3147"/>
</g>
</g>
</svg>
