<?xml version="1.0" encoding="utf-8" standalone="no"?>
<!DOCTYPE svg PUBLIC "-//W3C//DTD SVG 1.1//EN"
  "http://www.w3.org/Graphics/SVG/1.1/DTD/svg11.dtd">
<!-- Created with matplotlib (https://matplotlib.org/) -->
<svg height="345.6pt" version="1.1" viewBox="0 0 460.8 345.6" width="460.8pt" xmlns="http://www.w3.org/2000/svg" xmlns:xlink="http://www.w3.org/1999/xlink">
 <defs>
  <style type="text/css">
*{stroke-linecap:butt;stroke-linejoin:round;}
  </style>
 </defs>
 <g id="figure_1">
  <g id="patch_1">
   <path d="M 0 345.6 
L 460.8 345.6 
L 460.8 0 
L 0 0 
z
" style="fill:#ffffff;"/>
  </g>
  <g id="axes_1">
   <g id="patch_2">
    <path d="M 57.6 307.584 
L 414.72 307.584 
L 414.72 41.472 
L 57.6 41.472 
z
" style="fill:#ffffff;"/>
   </g>
   <g id="PolyCollection_1">
    <path clip-path="url(#p335bcdcfb9)" d="M 73.832727 167.813103 
L 73.832727 307.584 
L 74.918528 307.584 
L 76.00433 307.584 
L 77.090131 307.584 
L 78.175932 307.584 
L 79.261733 307.584 
L 80.347534 307.584 
L 81.433335 307.584 
L 82.519137 307.584 
L 83.604938 307.584 
L 84.690739 307.584 
L 85.77654 307.584 
L 86.862341 307.584 
L 87.948142 307.584 
L 89.033943 307.584 
L 90.119745 307.584 
L 91.205546 307.584 
L 92.291347 307.584 
L 93.377148 307.584 
L 94.462949 307.584 
L 95.54875 307.584 
L 96.634552 307.584 
L 97.720353 307.584 
L 98.806154 307.584 
L 99.891955 307.584 
L 100.977756 307.584 
L 102.063557 307.584 
L 103.149358 307.584 
L 104.23516 307.584 
L 105.320961 307.584 
L 106.406762 307.584 
L 107.492563 307.584 
L 108.578364 307.584 
L 109.664165 307.584 
L 110.749967 307.584 
L 111.835768 307.584 
L 112.921569 307.584 
L 114.00737 307.584 
L 115.093171 307.584 
L 116.178972 307.584 
L 117.264773 307.584 
L 118.350575 307.584 
L 119.436376 307.584 
L 120.522177 307.584 
L 121.607978 307.584 
L 122.693779 307.584 
L 123.77958 307.584 
L 124.865382 307.584 
L 125.951183 307.584 
L 127.036984 307.584 
L 128.122785 307.584 
L 129.208586 307.584 
L 130.294387 307.584 
L 131.380189 307.584 
L 132.46599 307.584 
L 133.551791 307.584 
L 134.637592 307.584 
L 135.723393 307.584 
L 136.809194 307.584 
L 137.894995 307.584 
L 138.980797 307.584 
L 140.066598 307.584 
L 141.152399 307.584 
L 142.2382 307.584 
L 143.324001 307.584 
L 144.409802 307.584 
L 145.495604 307.584 
L 146.581405 307.584 
L 147.667206 307.584 
L 148.753007 307.584 
L 149.838808 307.584 
L 150.924609 307.584 
L 152.01041 307.584 
L 153.096212 307.584 
L 154.182013 307.584 
L 155.267814 307.584 
L 156.353615 307.584 
L 157.439416 307.584 
L 158.525217 307.584 
L 159.611019 307.584 
L 160.69682 307.584 
L 161.782621 307.584 
L 162.868422 307.584 
L 163.954223 307.584 
L 165.040024 307.584 
L 166.125825 307.584 
L 167.211627 307.584 
L 168.297428 307.584 
L 169.383229 307.584 
L 170.46903 307.584 
L 171.554831 307.584 
L 172.640632 307.584 
L 173.726434 307.584 
L 174.812235 307.584 
L 175.898036 307.584 
L 176.983837 307.584 
L 178.069638 307.584 
L 179.155439 307.584 
L 180.24124 307.584 
L 181.327042 307.584 
L 182.412843 307.584 
L 183.498644 307.584 
L 184.584445 307.584 
L 185.670246 307.584 
L 186.756047 307.584 
L 187.841849 307.584 
L 188.92765 307.584 
L 190.013451 307.584 
L 191.099252 307.584 
L 192.185053 307.584 
L 193.270854 307.584 
L 194.356656 307.584 
L 195.442457 307.584 
L 196.528258 307.584 
L 197.614059 307.584 
L 198.69986 307.584 
L 199.785661 307.584 
L 200.871462 307.584 
L 201.957264 307.584 
L 203.043065 307.584 
L 204.128866 307.584 
L 205.214667 307.584 
L 206.300468 307.584 
L 207.386269 307.584 
L 208.472071 307.584 
L 209.557872 307.584 
L 210.643673 307.584 
L 211.729474 307.584 
L 212.815275 307.584 
L 213.901076 307.584 
L 214.986877 307.584 
L 216.072679 307.584 
L 217.15848 307.584 
L 218.244281 307.584 
L 219.330082 307.584 
L 220.415883 307.584 
L 221.501684 307.584 
L 222.587486 307.584 
L 223.673287 307.584 
L 224.759088 307.584 
L 225.844889 307.584 
L 226.93069 307.584 
L 228.016491 307.584 
L 229.102292 307.584 
L 230.188094 307.584 
L 231.273895 307.584 
L 232.359696 307.584 
L 233.445497 307.584 
L 234.531298 307.584 
L 235.617099 307.584 
L 236.702901 307.584 
L 237.788702 307.584 
L 238.874503 307.584 
L 239.960304 307.584 
L 241.046105 307.584 
L 242.131906 307.584 
L 243.217708 307.584 
L 244.303509 307.584 
L 245.38931 307.584 
L 246.475111 307.584 
L 247.560912 307.584 
L 248.646713 307.584 
L 249.732514 307.584 
L 250.818316 307.584 
L 251.904117 307.584 
L 252.989918 307.584 
L 254.075719 307.584 
L 255.16152 307.584 
L 256.247321 307.584 
L 257.333123 307.584 
L 258.418924 307.584 
L 259.504725 307.584 
L 260.590526 307.584 
L 261.676327 307.584 
L 262.762128 307.584 
L 263.847929 307.584 
L 264.933731 307.584 
L 266.019532 307.584 
L 267.105333 307.584 
L 268.191134 307.584 
L 269.276935 307.584 
L 270.362736 307.584 
L 271.448538 307.584 
L 272.534339 307.584 
L 273.62014 307.584 
L 274.705941 307.584 
L 275.791742 307.584 
L 276.877543 307.584 
L 277.963344 307.584 
L 279.049146 307.584 
L 280.134947 307.584 
L 281.220748 307.584 
L 282.306549 307.584 
L 283.39235 307.584 
L 284.478151 307.584 
L 285.563953 307.584 
L 286.649754 307.584 
L 287.735555 307.584 
L 288.821356 307.584 
L 289.907157 307.584 
L 290.992958 307.584 
L 292.07876 307.584 
L 293.164561 307.584 
L 294.250362 307.584 
L 295.336163 307.584 
L 296.421964 307.584 
L 297.507765 307.584 
L 298.593566 307.584 
L 299.679368 307.584 
L 300.765169 307.584 
L 301.85097 307.584 
L 302.936771 307.584 
L 304.022572 307.584 
L 305.108373 307.584 
L 306.194175 307.584 
L 307.279976 307.584 
L 308.365777 307.584 
L 309.451578 307.584 
L 310.537379 307.584 
L 311.62318 307.584 
L 312.708981 307.584 
L 313.794783 307.584 
L 314.880584 307.584 
L 315.966385 307.584 
L 317.052186 307.584 
L 318.137987 307.584 
L 319.223788 307.584 
L 320.30959 307.584 
L 321.395391 307.584 
L 322.481192 307.584 
L 323.566993 307.584 
L 324.652794 307.584 
L 325.738595 307.584 
L 326.824396 307.584 
L 327.910198 307.584 
L 328.995999 307.584 
L 330.0818 307.584 
L 331.167601 307.584 
L 332.253402 307.584 
L 333.339203 307.584 
L 334.425005 307.584 
L 335.510806 307.584 
L 336.596607 307.584 
L 337.682408 307.584 
L 338.768209 307.584 
L 339.85401 307.584 
L 340.939811 307.584 
L 342.025613 307.584 
L 343.111414 307.584 
L 344.197215 307.584 
L 345.283016 307.584 
L 346.368817 307.584 
L 347.454618 307.584 
L 348.54042 307.584 
L 349.626221 307.584 
L 350.712022 307.584 
L 351.797823 307.584 
L 352.883624 307.584 
L 353.969425 307.584 
L 355.055227 307.584 
L 356.141028 307.584 
L 357.226829 307.584 
L 358.31263 307.584 
L 359.398431 307.584 
L 360.484232 307.584 
L 361.570033 307.584 
L 362.655835 307.584 
L 363.741636 307.584 
L 364.827437 307.584 
L 365.913238 307.584 
L 366.999039 307.584 
L 368.08484 307.584 
L 369.170642 307.584 
L 370.256443 307.584 
L 371.342244 307.584 
L 372.428045 307.584 
L 373.513846 307.584 
L 374.599647 307.584 
L 375.685448 307.584 
L 376.77125 307.584 
L 377.857051 307.584 
L 378.942852 307.584 
L 380.028653 307.584 
L 381.114454 307.584 
L 382.200255 307.584 
L 383.286057 307.584 
L 384.371858 307.584 
L 385.457659 307.584 
L 386.54346 307.584 
L 387.629261 307.584 
L 388.715062 307.584 
L 389.800863 307.584 
L 390.886665 307.584 
L 391.972466 307.584 
L 393.058267 307.584 
L 394.144068 307.584 
L 395.229869 307.584 
L 396.31567 307.584 
L 397.401472 307.584 
L 398.487273 307.584 
L 398.487273 307.584 
L 398.487273 307.584 
L 397.401472 307.584 
L 396.31567 307.584 
L 395.229869 307.584 
L 394.144068 307.584 
L 393.058267 307.584 
L 391.972466 307.584 
L 390.886665 307.584 
L 389.800863 307.584 
L 388.715062 307.584 
L 387.629261 307.584 
L 386.54346 307.584 
L 385.457659 307.584 
L 384.371858 307.584 
L 383.286057 307.584 
L 382.200255 307.584 
L 381.114454 307.584 
L 380.028653 307.584 
L 378.942852 307.584 
L 377.857051 307.584 
L 376.77125 307.584 
L 375.685448 307.584 
L 374.599647 307.584 
L 373.513846 307.584 
L 372.428045 307.584 
L 371.342244 307.584 
L 370.256443 307.584 
L 369.170642 307.584 
L 368.08484 307.584 
L 366.999039 307.584 
L 365.913238 307.584 
L 364.827437 307.584 
L 363.741636 307.584 
L 362.655835 307.584 
L 361.570033 307.584 
L 360.484232 307.584 
L 359.398431 307.584 
L 358.31263 307.584 
L 357.226829 307.584 
L 356.141028 307.584 
L 355.055227 307.584 
L 353.969425 307.584 
L 352.883624 307.584 
L 351.797823 307.584 
L 350.712022 307.584 
L 349.626221 307.584 
L 348.54042 307.584 
L 347.454618 307.584 
L 346.368817 307.584 
L 345.283016 307.584 
L 344.197215 307.584 
L 343.111414 307.584 
L 342.025613 307.584 
L 340.939811 307.584 
L 339.85401 307.584 
L 338.768209 307.584 
L 337.682408 307.584 
L 336.596607 307.584 
L 335.510806 307.584 
L 334.425005 307.584 
L 333.339203 307.584 
L 332.253402 307.584 
L 331.167601 307.584 
L 330.0818 307.584 
L 328.995999 307.584 
L 327.910198 307.584 
L 326.824396 307.584 
L 325.738595 307.584 
L 324.652794 307.584 
L 323.566993 307.584 
L 322.481192 307.584 
L 321.395391 307.584 
L 320.30959 307.584 
L 319.223788 307.584 
L 318.137987 307.584 
L 317.052186 307.584 
L 315.966385 307.584 
L 314.880584 307.584 
L 313.794783 307.584 
L 312.708981 307.584 
L 311.62318 307.584 
L 310.537379 307.584 
L 309.451578 307.584 
L 308.365777 307.584 
L 307.279976 307.584 
L 306.194175 307.584 
L 305.108373 307.584 
L 304.022572 307.584 
L 302.936771 307.584 
L 301.85097 307.584 
L 300.765169 307.584 
L 299.679368 307.584 
L 298.593566 307.584 
L 297.507765 307.584 
L 296.421964 307.584 
L 295.336163 307.584 
L 294.250362 307.584 
L 293.164561 307.584 
L 292.07876 307.584 
L 290.992958 307.584 
L 289.907157 307.584 
L 288.821356 307.584 
L 287.735555 307.584 
L 286.649754 307.584 
L 285.563953 307.584 
L 284.478151 307.584 
L 283.39235 307.584 
L 282.306549 307.584 
L 281.220748 307.584 
L 280.134947 307.584 
L 279.049146 307.584 
L 277.963344 307.584 
L 276.877543 307.584 
L 275.791742 307.584 
L 274.705941 307.584 
L 273.62014 307.584 
L 272.534339 307.584 
L 271.448538 307.584 
L 270.362736 307.584 
L 269.276935 307.584 
L 268.191134 307.584 
L 267.105333 307.584 
L 266.019532 307.584 
L 264.933731 307.584 
L 263.847929 307.584 
L 262.762128 307.584 
L 261.676327 307.584 
L 260.590526 307.584 
L 259.504725 307.584 
L 258.418924 307.584 
L 257.333123 307.584 
L 256.247321 307.584 
L 255.16152 307.584 
L 254.075719 307.584 
L 252.989918 307.584 
L 251.904117 307.584 
L 250.818316 307.584 
L 249.732514 307.584 
L 248.646713 307.584 
L 247.560912 307.584 
L 246.475111 307.584 
L 245.38931 307.584 
L 244.303509 307.584 
L 243.217708 307.584 
L 242.131906 307.584 
L 241.046105 307.584 
L 239.960304 307.584 
L 238.874503 307.584 
L 237.788702 307.584 
L 236.702901 307.584 
L 235.617099 307.584 
L 234.531298 307.584 
L 233.445497 307.584 
L 232.359696 307.584 
L 231.273895 307.584 
L 230.188094 307.584 
L 229.102292 307.584 
L 228.016491 307.584 
L 226.93069 307.584 
L 225.844889 307.584 
L 224.759088 307.584 
L 223.673287 307.584 
L 222.587486 307.584 
L 221.501684 307.584 
L 220.415883 307.584 
L 219.330082 307.584 
L 218.244281 307.584 
L 217.15848 307.584 
L 216.072679 307.584 
L 214.986877 307.584 
L 213.901076 307.584 
L 212.815275 307.584 
L 211.729474 307.584 
L 210.643673 307.584 
L 209.557872 307.584 
L 208.472071 307.584 
L 207.386269 307.584 
L 206.300468 307.584 
L 205.214667 307.584 
L 204.128866 307.584 
L 203.043065 307.584 
L 201.957264 307.584 
L 200.871462 307.584 
L 199.785661 307.584 
L 198.69986 307.584 
L 197.614059 307.584 
L 196.528258 307.584 
L 195.442457 307.584 
L 194.356656 307.584 
L 193.270854 307.584 
L 192.185053 307.584 
L 191.099252 307.584 
L 190.013451 307.584 
L 188.92765 307.584 
L 187.841849 307.584 
L 186.756047 307.584 
L 185.670246 307.584 
L 184.584445 307.584 
L 183.498644 307.584 
L 182.412843 307.584 
L 181.327042 307.584 
L 180.24124 307.584 
L 179.155439 307.584 
L 178.069638 307.584 
L 176.983837 307.584 
L 175.898036 307.584 
L 174.812235 307.584 
L 173.726434 307.584 
L 172.640632 307.584 
L 171.554831 307.584 
L 170.46903 307.584 
L 169.383229 307.584 
L 168.297428 307.584 
L 167.211627 307.584 
L 166.125825 307.584 
L 165.040024 307.584 
L 163.954223 307.584 
L 162.868422 307.584 
L 161.782621 307.584 
L 160.69682 307.584 
L 159.611019 307.584 
L 158.525217 307.584 
L 157.439416 307.584 
L 156.353615 307.584 
L 155.267814 307.584 
L 154.182013 307.584 
L 153.096212 307.584 
L 152.01041 307.584 
L 150.924609 307.584 
L 149.838808 307.584 
L 148.753007 307.584 
L 147.667206 307.584 
L 146.581405 307.584 
L 145.495604 307.584 
L 144.409802 307.584 
L 143.324001 307.584 
L 142.2382 307.584 
L 141.152399 307.584 
L 140.066598 307.584 
L 138.980797 307.584 
L 137.894995 307.584 
L 136.809194 307.584 
L 135.723393 226.752638 
L 134.637592 227.594631 
L 133.551791 230.962605 
L 132.46599 226.752638 
L 131.380189 230.120611 
L 130.294387 231.804598 
L 129.208586 230.120611 
L 128.122785 225.910645 
L 127.036984 232.646591 
L 125.951183 232.646591 
L 124.865382 231.804598 
L 123.77958 227.594631 
L 122.693779 228.436625 
L 121.607978 230.962605 
L 120.522177 230.120611 
L 119.436376 228.436625 
L 118.350575 227.594631 
L 117.264773 228.436625 
L 116.178972 224.226658 
L 115.093171 223.384664 
L 114.00737 223.384664 
L 112.921569 222.542671 
L 111.835768 223.384664 
L 110.749967 221.700678 
L 109.664165 225.910645 
L 108.578364 223.384664 
L 107.492563 227.594631 
L 106.406762 226.752638 
L 105.320961 225.910645 
L 104.23516 225.910645 
L 103.149358 223.384664 
L 102.063557 222.542671 
L 100.977756 220.016691 
L 99.891955 227.594631 
L 98.806154 226.752638 
L 97.720353 229.278618 
L 96.634552 239.382538 
L 95.54875 240.224532 
L 94.462949 241.066525 
L 93.377148 239.382538 
L 92.291347 241.908518 
L 91.205546 234.330578 
L 90.119745 237.698551 
L 89.033943 234.330578 
L 87.948142 235.172571 
L 86.862341 236.856558 
L 85.77654 233.488585 
L 84.690739 234.330578 
L 83.604938 235.172571 
L 82.519137 233.488585 
L 81.433335 235.172571 
L 80.347534 241.066525 
L 79.261733 253.696425 
L 78.175932 273.904266 
L 77.090131 186.336957 
L 76.00433 137.501342 
L 74.918528 182.12699 
L 73.832727 167.813103 
z
" style="fill:#1f77b4;"/>
   </g>
   <g id="PolyCollection_2">
    <path clip-path="url(#p335bcdcfb9)" d="M 73.832727 86.139748 
L 73.832727 167.813103 
L 74.918528 182.12699 
L 76.00433 137.501342 
L 77.090131 186.336957 
L 78.175932 273.904266 
L 79.261733 253.696425 
L 80.347534 241.066525 
L 81.433335 235.172571 
L 82.519137 233.488585 
L 83.604938 235.172571 
L 84.690739 234.330578 
L 85.77654 233.488585 
L 86.862341 236.856558 
L 87.948142 235.172571 
L 89.033943 234.330578 
L 90.119745 237.698551 
L 91.205546 234.330578 
L 92.291347 241.908518 
L 93.377148 239.382538 
L 94.462949 241.066525 
L 95.54875 240.224532 
L 96.634552 239.382538 
L 97.720353 229.278618 
L 98.806154 226.752638 
L 99.891955 227.594631 
L 100.977756 220.016691 
L 102.063557 222.542671 
L 103.149358 223.384664 
L 104.23516 225.910645 
L 105.320961 225.910645 
L 106.406762 226.752638 
L 107.492563 227.594631 
L 108.578364 223.384664 
L 109.664165 225.910645 
L 110.749967 221.700678 
L 111.835768 223.384664 
L 112.921569 222.542671 
L 114.00737 223.384664 
L 115.093171 223.384664 
L 116.178972 224.226658 
L 117.264773 228.436625 
L 118.350575 227.594631 
L 119.436376 228.436625 
L 120.522177 230.120611 
L 121.607978 230.962605 
L 122.693779 228.436625 
L 123.77958 227.594631 
L 124.865382 231.804598 
L 125.951183 232.646591 
L 127.036984 232.646591 
L 128.122785 225.910645 
L 129.208586 230.120611 
L 130.294387 231.804598 
L 131.380189 230.120611 
L 132.46599 226.752638 
L 133.551791 230.962605 
L 134.637592 227.594631 
L 135.723393 226.752638 
L 136.809194 307.584 
L 137.894995 307.584 
L 138.980797 307.584 
L 140.066598 307.584 
L 141.152399 307.584 
L 142.2382 307.584 
L 143.324001 307.584 
L 144.409802 307.584 
L 145.495604 307.584 
L 146.581405 307.584 
L 147.667206 307.584 
L 148.753007 307.584 
L 149.838808 307.584 
L 150.924609 307.584 
L 152.01041 307.584 
L 153.096212 307.584 
L 154.182013 307.584 
L 155.267814 307.584 
L 156.353615 307.584 
L 157.439416 307.584 
L 158.525217 307.584 
L 159.611019 307.584 
L 160.69682 307.584 
L 161.782621 307.584 
L 162.868422 307.584 
L 163.954223 307.584 
L 165.040024 307.584 
L 166.125825 307.584 
L 167.211627 307.584 
L 168.297428 307.584 
L 169.383229 307.584 
L 170.46903 307.584 
L 171.554831 307.584 
L 172.640632 307.584 
L 173.726434 307.584 
L 174.812235 307.584 
L 175.898036 307.584 
L 176.983837 307.584 
L 178.069638 307.584 
L 179.155439 307.584 
L 180.24124 307.584 
L 181.327042 307.584 
L 182.412843 307.584 
L 183.498644 307.584 
L 184.584445 307.584 
L 185.670246 307.584 
L 186.756047 307.584 
L 187.841849 307.584 
L 188.92765 307.584 
L 190.013451 307.584 
L 191.099252 307.584 
L 192.185053 307.584 
L 193.270854 307.584 
L 194.356656 307.584 
L 195.442457 307.584 
L 196.528258 307.584 
L 197.614059 307.584 
L 198.69986 307.584 
L 199.785661 307.584 
L 200.871462 307.584 
L 201.957264 307.584 
L 203.043065 307.584 
L 204.128866 307.584 
L 205.214667 307.584 
L 206.300468 307.584 
L 207.386269 307.584 
L 208.472071 307.584 
L 209.557872 307.584 
L 210.643673 307.584 
L 211.729474 307.584 
L 212.815275 307.584 
L 213.901076 307.584 
L 214.986877 307.584 
L 216.072679 307.584 
L 217.15848 307.584 
L 218.244281 307.584 
L 219.330082 307.584 
L 220.415883 307.584 
L 221.501684 307.584 
L 222.587486 307.584 
L 223.673287 307.584 
L 224.759088 307.584 
L 225.844889 307.584 
L 226.93069 307.584 
L 228.016491 307.584 
L 229.102292 307.584 
L 230.188094 307.584 
L 231.273895 307.584 
L 232.359696 307.584 
L 233.445497 307.584 
L 234.531298 307.584 
L 235.617099 307.584 
L 236.702901 307.584 
L 237.788702 307.584 
L 238.874503 307.584 
L 239.960304 307.584 
L 241.046105 307.584 
L 242.131906 307.584 
L 243.217708 307.584 
L 244.303509 307.584 
L 245.38931 307.584 
L 246.475111 307.584 
L 247.560912 307.584 
L 248.646713 307.584 
L 249.732514 307.584 
L 250.818316 307.584 
L 251.904117 307.584 
L 252.989918 307.584 
L 254.075719 307.584 
L 255.16152 307.584 
L 256.247321 307.584 
L 257.333123 307.584 
L 258.418924 307.584 
L 259.504725 307.584 
L 260.590526 307.584 
L 261.676327 307.584 
L 262.762128 307.584 
L 263.847929 307.584 
L 264.933731 307.584 
L 266.019532 307.584 
L 267.105333 307.584 
L 268.191134 307.584 
L 269.276935 307.584 
L 270.362736 307.584 
L 271.448538 307.584 
L 272.534339 307.584 
L 273.62014 307.584 
L 274.705941 307.584 
L 275.791742 307.584 
L 276.877543 307.584 
L 277.963344 307.584 
L 279.049146 307.584 
L 280.134947 307.584 
L 281.220748 307.584 
L 282.306549 307.584 
L 283.39235 307.584 
L 284.478151 307.584 
L 285.563953 307.584 
L 286.649754 307.584 
L 287.735555 307.584 
L 288.821356 307.584 
L 289.907157 307.584 
L 290.992958 307.584 
L 292.07876 307.584 
L 293.164561 307.584 
L 294.250362 307.584 
L 295.336163 307.584 
L 296.421964 307.584 
L 297.507765 307.584 
L 298.593566 307.584 
L 299.679368 307.584 
L 300.765169 307.584 
L 301.85097 307.584 
L 302.936771 307.584 
L 304.022572 307.584 
L 305.108373 307.584 
L 306.194175 307.584 
L 307.279976 307.584 
L 308.365777 307.584 
L 309.451578 307.584 
L 310.537379 307.584 
L 311.62318 307.584 
L 312.708981 307.584 
L 313.794783 307.584 
L 314.880584 307.584 
L 315.966385 307.584 
L 317.052186 307.584 
L 318.137987 307.584 
L 319.223788 307.584 
L 320.30959 307.584 
L 321.395391 307.584 
L 322.481192 307.584 
L 323.566993 307.584 
L 324.652794 307.584 
L 325.738595 307.584 
L 326.824396 307.584 
L 327.910198 307.584 
L 328.995999 307.584 
L 330.0818 307.584 
L 331.167601 307.584 
L 332.253402 307.584 
L 333.339203 307.584 
L 334.425005 307.584 
L 335.510806 307.584 
L 336.596607 307.584 
L 337.682408 307.584 
L 338.768209 307.584 
L 339.85401 307.584 
L 340.939811 307.584 
L 342.025613 307.584 
L 343.111414 307.584 
L 344.197215 307.584 
L 345.283016 307.584 
L 346.368817 307.584 
L 347.454618 307.584 
L 348.54042 307.584 
L 349.626221 307.584 
L 350.712022 307.584 
L 351.797823 307.584 
L 352.883624 307.584 
L 353.969425 307.584 
L 355.055227 307.584 
L 356.141028 307.584 
L 357.226829 307.584 
L 358.31263 307.584 
L 359.398431 307.584 
L 360.484232 307.584 
L 361.570033 307.584 
L 362.655835 307.584 
L 363.741636 307.584 
L 364.827437 307.584 
L 365.913238 307.584 
L 366.999039 307.584 
L 368.08484 307.584 
L 369.170642 307.584 
L 370.256443 307.584 
L 371.342244 307.584 
L 372.428045 307.584 
L 373.513846 307.584 
L 374.599647 307.584 
L 375.685448 307.584 
L 376.77125 307.584 
L 377.857051 307.584 
L 378.942852 307.584 
L 380.028653 307.584 
L 381.114454 307.584 
L 382.200255 307.584 
L 383.286057 307.584 
L 384.371858 307.584 
L 385.457659 307.584 
L 386.54346 307.584 
L 387.629261 307.584 
L 388.715062 307.584 
L 389.800863 307.584 
L 390.886665 307.584 
L 391.972466 307.584 
L 393.058267 307.584 
L 394.144068 307.584 
L 395.229869 307.584 
L 396.31567 307.584 
L 397.401472 307.584 
L 398.487273 307.584 
L 398.487273 179.60101 
L 398.487273 179.60101 
L 397.401472 180.443003 
L 396.31567 182.12699 
L 395.229869 182.968983 
L 394.144068 182.12699 
L 393.058267 181.284997 
L 391.972466 182.12699 
L 390.886665 181.284997 
L 389.800863 182.12699 
L 388.715062 182.968983 
L 387.629261 180.443003 
L 386.54346 181.284997 
L 385.457659 180.443003 
L 384.371858 182.12699 
L 383.286057 181.284997 
L 382.200255 180.443003 
L 381.114454 181.284997 
L 380.028653 180.443003 
L 378.942852 181.284997 
L 377.857051 182.12699 
L 376.77125 181.284997 
L 375.685448 182.968983 
L 374.599647 182.12699 
L 373.513846 183.810977 
L 372.428045 182.12699 
L 371.342244 181.284997 
L 370.256443 182.12699 
L 369.170642 181.284997 
L 368.08484 180.443003 
L 366.999039 181.284997 
L 365.913238 182.968983 
L 364.827437 183.810977 
L 363.741636 182.968983 
L 362.655835 180.443003 
L 361.570033 179.60101 
L 360.484232 178.759017 
L 359.398431 180.443003 
L 358.31263 179.60101 
L 357.226829 181.284997 
L 356.141028 180.443003 
L 355.055227 182.12699 
L 353.969425 181.284997 
L 352.883624 182.12699 
L 351.797823 181.284997 
L 350.712022 180.443003 
L 349.626221 182.12699 
L 348.54042 181.284997 
L 347.454618 179.60101 
L 346.368817 180.443003 
L 345.283016 179.60101 
L 344.197215 180.443003 
L 343.111414 179.60101 
L 342.025613 182.12699 
L 340.939811 180.443003 
L 339.85401 179.60101 
L 338.768209 178.759017 
L 337.682408 179.60101 
L 336.596607 181.284997 
L 335.510806 178.759017 
L 334.425005 180.443003 
L 333.339203 179.60101 
L 332.253402 182.968983 
L 331.167601 182.12699 
L 330.0818 181.284997 
L 328.995999 179.60101 
L 327.910198 180.443003 
L 326.824396 181.284997 
L 325.738595 180.443003 
L 324.652794 181.284997 
L 323.566993 179.60101 
L 322.481192 180.443003 
L 321.395391 178.759017 
L 320.30959 177.917023 
L 319.223788 180.443003 
L 318.137987 182.968983 
L 317.052186 181.284997 
L 315.966385 180.443003 
L 314.880584 179.60101 
L 313.794783 182.12699 
L 312.708981 180.443003 
L 311.62318 181.284997 
L 310.537379 180.443003 
L 309.451578 181.284997 
L 308.365777 179.60101 
L 307.279976 180.443003 
L 306.194175 181.284997 
L 305.108373 182.968983 
L 304.022572 179.60101 
L 302.936771 180.443003 
L 301.85097 183.810977 
L 300.765169 185.494963 
L 299.679368 182.968983 
L 298.593566 182.12699 
L 297.507765 183.810977 
L 296.421964 181.284997 
L 295.336163 180.443003 
L 294.250362 182.12699 
L 293.164561 181.284997 
L 292.07876 180.443003 
L 290.992958 181.284997 
L 289.907157 183.810977 
L 288.821356 181.284997 
L 287.735555 182.968983 
L 286.649754 182.12699 
L 285.563953 184.65297 
L 284.478151 183.810977 
L 283.39235 182.12699 
L 282.306549 183.810977 
L 281.220748 182.968983 
L 280.134947 184.65297 
L 279.049146 183.810977 
L 277.963344 182.968983 
L 276.877543 181.284997 
L 275.791742 180.443003 
L 274.705941 181.284997 
L 273.62014 178.759017 
L 272.534339 180.443003 
L 271.448538 181.284997 
L 270.362736 180.443003 
L 269.276935 181.284997 
L 268.191134 182.12699 
L 267.105333 182.968983 
L 266.019532 182.12699 
L 264.933731 180.443003 
L 263.847929 182.12699 
L 262.762128 181.284997 
L 261.676327 180.443003 
L 260.590526 181.284997 
L 259.504725 182.12699 
L 258.418924 182.968983 
L 257.333123 184.65297 
L 256.247321 183.810977 
L 255.16152 182.12699 
L 254.075719 182.968983 
L 252.989918 184.65297 
L 251.904117 182.12699 
L 250.818316 182.968983 
L 249.732514 181.284997 
L 248.646713 179.60101 
L 247.560912 180.443003 
L 246.475111 182.12699 
L 245.38931 182.968983 
L 244.303509 181.284997 
L 243.217708 183.810977 
L 242.131906 182.12699 
L 241.046105 182.968983 
L 239.960304 181.284997 
L 238.874503 180.443003 
L 237.788702 178.759017 
L 236.702901 182.12699 
L 235.617099 182.968983 
L 234.531298 180.443003 
L 233.445497 178.759017 
L 232.359696 179.60101 
L 231.273895 181.284997 
L 230.188094 179.60101 
L 229.102292 180.443003 
L 228.016491 181.284997 
L 226.93069 182.12699 
L 225.844889 183.810977 
L 224.759088 182.968983 
L 223.673287 181.284997 
L 222.587486 182.12699 
L 221.501684 181.284997 
L 220.415883 179.60101 
L 219.330082 181.284997 
L 218.244281 179.60101 
L 217.15848 180.443003 
L 216.072679 181.284997 
L 214.986877 180.443003 
L 213.901076 182.12699 
L 212.815275 181.284997 
L 211.729474 180.443003 
L 210.643673 181.284997 
L 209.557872 180.443003 
L 208.472071 179.60101 
L 207.386269 181.284997 
L 206.300468 182.12699 
L 205.214667 181.284997 
L 204.128866 182.968983 
L 203.043065 183.810977 
L 201.957264 181.284997 
L 200.871462 182.12699 
L 199.785661 180.443003 
L 198.69986 178.759017 
L 197.614059 179.60101 
L 196.528258 177.917023 
L 195.442457 177.07503 
L 194.356656 177.917023 
L 193.270854 180.443003 
L 192.185053 181.284997 
L 191.099252 180.443003 
L 190.013451 182.968983 
L 188.92765 182.12699 
L 187.841849 182.968983 
L 186.756047 181.284997 
L 185.670246 182.12699 
L 184.584445 181.284997 
L 183.498644 180.443003 
L 182.412843 181.284997 
L 181.327042 179.60101 
L 180.24124 181.284997 
L 179.155439 180.443003 
L 178.069638 178.759017 
L 176.983837 177.07503 
L 175.898036 177.917023 
L 174.812235 178.759017 
L 173.726434 179.60101 
L 172.640632 178.759017 
L 171.554831 179.60101 
L 170.46903 178.759017 
L 169.383229 177.917023 
L 168.297428 178.759017 
L 167.211627 177.07503 
L 166.125825 180.443003 
L 165.040024 181.284997 
L 163.954223 178.759017 
L 162.868422 182.12699 
L 161.782621 178.759017 
L 160.69682 180.443003 
L 159.611019 177.917023 
L 158.525217 178.759017 
L 157.439416 177.07503 
L 156.353615 177.917023 
L 155.267814 178.759017 
L 154.182013 176.233037 
L 153.096212 177.917023 
L 152.01041 178.759017 
L 150.924609 176.233037 
L 149.838808 178.759017 
L 148.753007 177.07503 
L 147.667206 179.60101 
L 146.581405 180.443003 
L 145.495604 179.60101 
L 144.409802 178.759017 
L 143.324001 179.60101 
L 142.2382 178.759017 
L 141.152399 177.917023 
L 140.066598 175.391043 
L 138.980797 178.759017 
L 137.894995 179.60101 
L 136.809194 180.443003 
L 135.723393 143.395296 
L 134.637592 145.921276 
L 133.551791 147.605262 
L 132.46599 144.237289 
L 131.380189 145.921276 
L 130.294387 148.447256 
L 129.208586 145.079282 
L 128.122785 141.711309 
L 127.036984 146.763269 
L 125.951183 148.447256 
L 124.865382 148.447256 
L 123.77958 143.395296 
L 122.693779 143.395296 
L 121.607978 145.079282 
L 120.522177 145.079282 
L 119.436376 145.079282 
L 118.350575 143.395296 
L 117.264773 143.395296 
L 116.178972 138.343336 
L 115.093171 138.343336 
L 114.00737 139.185329 
L 112.921569 137.501342 
L 111.835768 137.501342 
L 110.749967 137.501342 
L 109.664165 140.027322 
L 108.578364 138.343336 
L 107.492563 140.869316 
L 106.406762 142.553302 
L 105.320961 140.869316 
L 104.23516 140.027322 
L 103.149358 139.185329 
L 102.063557 139.185329 
L 100.977756 139.185329 
L 99.891955 144.237289 
L 98.806154 145.079282 
L 97.720353 150.131243 
L 96.634552 176.233037 
L 95.54875 178.759017 
L 94.462949 180.443003 
L 93.377148 182.968983 
L 92.291347 184.65297 
L 91.205546 178.759017 
L 90.119745 182.968983 
L 89.033943 178.759017 
L 87.948142 181.284997 
L 86.862341 182.12699 
L 85.77654 180.443003 
L 84.690739 183.810977 
L 83.604938 186.336957 
L 82.519137 186.336957 
L 81.433335 191.388917 
L 80.347534 202.334831 
L 79.261733 221.700678 
L 78.175932 268.852306 
L 77.090131 132.449382 
L 76.00433 96.243668 
L 74.918528 62.563934 
L 73.832727 86.139748 
z
" style="fill:#ff7f0e;"/>
   </g>
   <g id="PolyCollection_3">
    <path clip-path="url(#p335bcdcfb9)" d="M 73.832727 69.29988 
L 73.832727 86.139748 
L 74.918528 62.563934 
L 76.00433 96.243668 
L 77.090131 132.449382 
L 78.175932 268.852306 
L 79.261733 221.700678 
L 80.347534 202.334831 
L 81.433335 191.388917 
L 82.519137 186.336957 
L 83.604938 186.336957 
L 84.690739 183.810977 
L 85.77654 180.443003 
L 86.862341 182.12699 
L 87.948142 181.284997 
L 89.033943 178.759017 
L 90.119745 182.968983 
L 91.205546 178.759017 
L 92.291347 184.65297 
L 93.377148 182.968983 
L 94.462949 180.443003 
L 95.54875 178.759017 
L 96.634552 176.233037 
L 97.720353 150.131243 
L 98.806154 145.079282 
L 99.891955 144.237289 
L 100.977756 139.185329 
L 102.063557 139.185329 
L 103.149358 139.185329 
L 104.23516 140.027322 
L 105.320961 140.869316 
L 106.406762 142.553302 
L 107.492563 140.869316 
L 108.578364 138.343336 
L 109.664165 140.027322 
L 110.749967 137.501342 
L 111.835768 137.501342 
L 112.921569 137.501342 
L 114.00737 139.185329 
L 115.093171 138.343336 
L 116.178972 138.343336 
L 117.264773 143.395296 
L 118.350575 143.395296 
L 119.436376 145.079282 
L 120.522177 145.079282 
L 121.607978 145.079282 
L 122.693779 143.395296 
L 123.77958 143.395296 
L 124.865382 148.447256 
L 125.951183 148.447256 
L 127.036984 146.763269 
L 128.122785 141.711309 
L 129.208586 145.079282 
L 130.294387 148.447256 
L 131.380189 145.921276 
L 132.46599 144.237289 
L 133.551791 147.605262 
L 134.637592 145.921276 
L 135.723393 143.395296 
L 136.809194 180.443003 
L 137.894995 179.60101 
L 138.980797 178.759017 
L 140.066598 175.391043 
L 141.152399 177.917023 
L 142.2382 178.759017 
L 143.324001 179.60101 
L 144.409802 178.759017 
L 145.495604 179.60101 
L 146.581405 180.443003 
L 147.667206 179.60101 
L 148.753007 177.07503 
L 149.838808 178.759017 
L 150.924609 176.233037 
L 152.01041 178.759017 
L 153.096212 177.917023 
L 154.182013 176.233037 
L 155.267814 178.759017 
L 156.353615 177.917023 
L 157.439416 177.07503 
L 158.525217 178.759017 
L 159.611019 177.917023 
L 160.69682 180.443003 
L 161.782621 178.759017 
L 162.868422 182.12699 
L 163.954223 178.759017 
L 165.040024 181.284997 
L 166.125825 180.443003 
L 167.211627 177.07503 
L 168.297428 178.759017 
L 169.383229 177.917023 
L 170.46903 178.759017 
L 171.554831 179.60101 
L 172.640632 178.759017 
L 173.726434 179.60101 
L 174.812235 178.759017 
L 175.898036 177.917023 
L 176.983837 177.07503 
L 178.069638 178.759017 
L 179.155439 180.443003 
L 180.24124 181.284997 
L 181.327042 179.60101 
L 182.412843 181.284997 
L 183.498644 180.443003 
L 184.584445 181.284997 
L 185.670246 182.12699 
L 186.756047 181.284997 
L 187.841849 182.968983 
L 188.92765 182.12699 
L 190.013451 182.968983 
L 191.099252 180.443003 
L 192.185053 181.284997 
L 193.270854 180.443003 
L 194.356656 177.917023 
L 195.442457 177.07503 
L 196.528258 177.917023 
L 197.614059 179.60101 
L 198.69986 178.759017 
L 199.785661 180.443003 
L 200.871462 182.12699 
L 201.957264 181.284997 
L 203.043065 183.810977 
L 204.128866 182.968983 
L 205.214667 181.284997 
L 206.300468 182.12699 
L 207.386269 181.284997 
L 208.472071 179.60101 
L 209.557872 180.443003 
L 210.643673 181.284997 
L 211.729474 180.443003 
L 212.815275 181.284997 
L 213.901076 182.12699 
L 214.986877 180.443003 
L 216.072679 181.284997 
L 217.15848 180.443003 
L 218.244281 179.60101 
L 219.330082 181.284997 
L 220.415883 179.60101 
L 221.501684 181.284997 
L 222.587486 182.12699 
L 223.673287 181.284997 
L 224.759088 182.968983 
L 225.844889 183.810977 
L 226.93069 182.12699 
L 228.016491 181.284997 
L 229.102292 180.443003 
L 230.188094 179.60101 
L 231.273895 181.284997 
L 232.359696 179.60101 
L 233.445497 178.759017 
L 234.531298 180.443003 
L 235.617099 182.968983 
L 236.702901 182.12699 
L 237.788702 178.759017 
L 238.874503 180.443003 
L 239.960304 181.284997 
L 241.046105 182.968983 
L 242.131906 182.12699 
L 243.217708 183.810977 
L 244.303509 181.284997 
L 245.38931 182.968983 
L 246.475111 182.12699 
L 247.560912 180.443003 
L 248.646713 179.60101 
L 249.732514 181.284997 
L 250.818316 182.968983 
L 251.904117 182.12699 
L 252.989918 184.65297 
L 254.075719 182.968983 
L 255.16152 182.12699 
L 256.247321 183.810977 
L 257.333123 184.65297 
L 258.418924 182.968983 
L 259.504725 182.12699 
L 260.590526 181.284997 
L 261.676327 180.443003 
L 262.762128 181.284997 
L 263.847929 182.12699 
L 264.933731 180.443003 
L 266.019532 182.12699 
L 267.105333 182.968983 
L 268.191134 182.12699 
L 269.276935 181.284997 
L 270.362736 180.443003 
L 271.448538 181.284997 
L 272.534339 180.443003 
L 273.62014 178.759017 
L 274.705941 181.284997 
L 275.791742 180.443003 
L 276.877543 181.284997 
L 277.963344 182.968983 
L 279.049146 183.810977 
L 280.134947 184.65297 
L 281.220748 182.968983 
L 282.306549 183.810977 
L 283.39235 182.12699 
L 284.478151 183.810977 
L 285.563953 184.65297 
L 286.649754 182.12699 
L 287.735555 182.968983 
L 288.821356 181.284997 
L 289.907157 183.810977 
L 290.992958 181.284997 
L 292.07876 180.443003 
L 293.164561 181.284997 
L 294.250362 182.12699 
L 295.336163 180.443003 
L 296.421964 181.284997 
L 297.507765 183.810977 
L 298.593566 182.12699 
L 299.679368 182.968983 
L 300.765169 185.494963 
L 301.85097 183.810977 
L 302.936771 180.443003 
L 304.022572 179.60101 
L 305.108373 182.968983 
L 306.194175 181.284997 
L 307.279976 180.443003 
L 308.365777 179.60101 
L 309.451578 181.284997 
L 310.537379 180.443003 
L 311.62318 181.284997 
L 312.708981 180.443003 
L 313.794783 182.12699 
L 314.880584 179.60101 
L 315.966385 180.443003 
L 317.052186 181.284997 
L 318.137987 182.968983 
L 319.223788 180.443003 
L 320.30959 177.917023 
L 321.395391 178.759017 
L 322.481192 180.443003 
L 323.566993 179.60101 
L 324.652794 181.284997 
L 325.738595 180.443003 
L 326.824396 181.284997 
L 327.910198 180.443003 
L 328.995999 179.60101 
L 330.0818 181.284997 
L 331.167601 182.12699 
L 332.253402 182.968983 
L 333.339203 179.60101 
L 334.425005 180.443003 
L 335.510806 178.759017 
L 336.596607 181.284997 
L 337.682408 179.60101 
L 338.768209 178.759017 
L 339.85401 179.60101 
L 340.939811 180.443003 
L 342.025613 182.12699 
L 343.111414 179.60101 
L 344.197215 180.443003 
L 345.283016 179.60101 
L 346.368817 180.443003 
L 347.454618 179.60101 
L 348.54042 181.284997 
L 349.626221 182.12699 
L 350.712022 180.443003 
L 351.797823 181.284997 
L 352.883624 182.12699 
L 353.969425 181.284997 
L 355.055227 182.12699 
L 356.141028 180.443003 
L 357.226829 181.284997 
L 358.31263 179.60101 
L 359.398431 180.443003 
L 360.484232 178.759017 
L 361.570033 179.60101 
L 362.655835 180.443003 
L 363.741636 182.968983 
L 364.827437 183.810977 
L 365.913238 182.968983 
L 366.999039 181.284997 
L 368.08484 180.443003 
L 369.170642 181.284997 
L 370.256443 182.12699 
L 371.342244 181.284997 
L 372.428045 182.12699 
L 373.513846 183.810977 
L 374.599647 182.12699 
L 375.685448 182.968983 
L 376.77125 181.284997 
L 377.857051 182.12699 
L 378.942852 181.284997 
L 380.028653 180.443003 
L 381.114454 181.284997 
L 382.200255 180.443003 
L 383.286057 181.284997 
L 384.371858 182.12699 
L 385.457659 180.443003 
L 386.54346 181.284997 
L 387.629261 180.443003 
L 388.715062 182.968983 
L 389.800863 182.12699 
L 390.886665 181.284997 
L 391.972466 182.12699 
L 393.058267 181.284997 
L 394.144068 182.12699 
L 395.229869 182.968983 
L 396.31567 182.12699 
L 397.401472 180.443003 
L 398.487273 179.60101 
L 398.487273 54.985993 
L 398.487273 54.985993 
L 397.401472 54.985993 
L 396.31567 54.985993 
L 395.229869 54.985993 
L 394.144068 54.985993 
L 393.058267 54.985993 
L 391.972466 54.985993 
L 390.886665 54.985993 
L 389.800863 54.985993 
L 388.715062 54.985993 
L 387.629261 54.985993 
L 386.54346 54.985993 
L 385.457659 54.985993 
L 384.371858 54.985993 
L 383.286057 54.985993 
L 382.200255 54.985993 
L 381.114454 54.985993 
L 380.028653 54.985993 
L 378.942852 54.985993 
L 377.857051 54.985993 
L 376.77125 54.985993 
L 375.685448 54.985993 
L 374.599647 54.985993 
L 373.513846 54.985993 
L 372.428045 54.985993 
L 371.342244 54.985993 
L 370.256443 54.985993 
L 369.170642 54.985993 
L 368.08484 54.985993 
L 366.999039 54.985993 
L 365.913238 54.985993 
L 364.827437 54.985993 
L 363.741636 54.985993 
L 362.655835 54.985993 
L 361.570033 54.985993 
L 360.484232 54.985993 
L 359.398431 54.985993 
L 358.31263 54.985993 
L 357.226829 54.985993 
L 356.141028 54.985993 
L 355.055227 54.985993 
L 353.969425 54.985993 
L 352.883624 54.985993 
L 351.797823 54.985993 
L 350.712022 54.985993 
L 349.626221 54.985993 
L 348.54042 54.985993 
L 347.454618 54.985993 
L 346.368817 54.985993 
L 345.283016 54.985993 
L 344.197215 54.985993 
L 343.111414 54.985993 
L 342.025613 54.985993 
L 340.939811 54.985993 
L 339.85401 54.985993 
L 338.768209 54.985993 
L 337.682408 54.985993 
L 336.596607 54.985993 
L 335.510806 54.985993 
L 334.425005 54.985993 
L 333.339203 54.985993 
L 332.253402 54.985993 
L 331.167601 54.985993 
L 330.0818 54.985993 
L 328.995999 54.985993 
L 327.910198 54.985993 
L 326.824396 54.985993 
L 325.738595 54.985993 
L 324.652794 54.985993 
L 323.566993 54.985993 
L 322.481192 54.985993 
L 321.395391 54.985993 
L 320.30959 54.985993 
L 319.223788 54.985993 
L 318.137987 54.985993 
L 317.052186 54.985993 
L 315.966385 54.985993 
L 314.880584 54.985993 
L 313.794783 54.985993 
L 312.708981 54.985993 
L 311.62318 54.985993 
L 310.537379 54.985993 
L 309.451578 54.985993 
L 308.365777 54.985993 
L 307.279976 54.985993 
L 306.194175 54.985993 
L 305.108373 54.985993 
L 304.022572 54.985993 
L 302.936771 54.985993 
L 301.85097 54.985993 
L 300.765169 54.985993 
L 299.679368 54.985993 
L 298.593566 54.985993 
L 297.507765 54.985993 
L 296.421964 54.985993 
L 295.336163 54.985993 
L 294.250362 54.985993 
L 293.164561 54.985993 
L 292.07876 54.985993 
L 290.992958 54.985993 
L 289.907157 54.985993 
L 288.821356 54.985993 
L 287.735555 54.985993 
L 286.649754 54.985993 
L 285.563953 54.985993 
L 284.478151 54.985993 
L 283.39235 54.985993 
L 282.306549 54.985993 
L 281.220748 54.985993 
L 280.134947 54.985993 
L 279.049146 54.985993 
L 277.963344 54.985993 
L 276.877543 54.985993 
L 275.791742 54.985993 
L 274.705941 54.985993 
L 273.62014 54.985993 
L 272.534339 54.985993 
L 271.448538 54.985993 
L 270.362736 54.985993 
L 269.276935 54.985993 
L 268.191134 54.985993 
L 267.105333 54.985993 
L 266.019532 54.985993 
L 264.933731 54.985993 
L 263.847929 54.985993 
L 262.762128 54.985993 
L 261.676327 54.985993 
L 260.590526 54.985993 
L 259.504725 54.985993 
L 258.418924 54.985993 
L 257.333123 54.985993 
L 256.247321 54.985993 
L 255.16152 54.985993 
L 254.075719 54.985993 
L 252.989918 54.985993 
L 251.904117 54.985993 
L 250.818316 54.985993 
L 249.732514 54.985993 
L 248.646713 54.985993 
L 247.560912 54.985993 
L 246.475111 54.985993 
L 245.38931 54.985993 
L 244.303509 54.985993 
L 243.217708 54.985993 
L 242.131906 54.985993 
L 241.046105 54.985993 
L 239.960304 54.985993 
L 238.874503 54.985993 
L 237.788702 54.985993 
L 236.702901 54.985993 
L 235.617099 54.985993 
L 234.531298 54.985993 
L 233.445497 54.985993 
L 232.359696 54.985993 
L 231.273895 54.985993 
L 230.188094 54.985993 
L 229.102292 54.985993 
L 228.016491 54.985993 
L 226.93069 54.985993 
L 225.844889 54.985993 
L 224.759088 54.985993 
L 223.673287 54.985993 
L 222.587486 54.985993 
L 221.501684 54.985993 
L 220.415883 54.985993 
L 219.330082 54.985993 
L 218.244281 54.985993 
L 217.15848 54.985993 
L 216.072679 54.985993 
L 214.986877 54.985993 
L 213.901076 54.985993 
L 212.815275 54.985993 
L 211.729474 54.985993 
L 210.643673 54.985993 
L 209.557872 54.985993 
L 208.472071 54.985993 
L 207.386269 54.985993 
L 206.300468 54.985993 
L 205.214667 54.985993 
L 204.128866 54.985993 
L 203.043065 54.985993 
L 201.957264 54.985993 
L 200.871462 54.985993 
L 199.785661 54.985993 
L 198.69986 54.985993 
L 197.614059 54.985993 
L 196.528258 54.985993 
L 195.442457 54.985993 
L 194.356656 54.985993 
L 193.270854 54.985993 
L 192.185053 54.985993 
L 191.099252 54.985993 
L 190.013451 54.985993 
L 188.92765 54.985993 
L 187.841849 54.985993 
L 186.756047 54.985993 
L 185.670246 54.985993 
L 184.584445 54.985993 
L 183.498644 54.985993 
L 182.412843 54.985993 
L 181.327042 54.985993 
L 180.24124 54.985993 
L 179.155439 54.985993 
L 178.069638 54.985993 
L 176.983837 54.985993 
L 175.898036 54.985993 
L 174.812235 54.985993 
L 173.726434 54.985993 
L 172.640632 54.985993 
L 171.554831 54.985993 
L 170.46903 54.985993 
L 169.383229 54.985993 
L 168.297428 54.985993 
L 167.211627 54.985993 
L 166.125825 54.985993 
L 165.040024 54.985993 
L 163.954223 54.985993 
L 162.868422 54.985993 
L 161.782621 54.985993 
L 160.69682 54.985993 
L 159.611019 54.985993 
L 158.525217 54.985993 
L 157.439416 54.985993 
L 156.353615 54.985993 
L 155.267814 54.985993 
L 154.182013 54.985993 
L 153.096212 54.985993 
L 152.01041 54.985993 
L 150.924609 54.985993 
L 149.838808 54.985993 
L 148.753007 54.985993 
L 147.667206 54.985993 
L 146.581405 54.985993 
L 145.495604 54.985993 
L 144.409802 54.985993 
L 143.324001 54.985993 
L 142.2382 54.985993 
L 141.152399 54.985993 
L 140.066598 54.985993 
L 138.980797 54.985993 
L 137.894995 54.985993 
L 136.809194 54.985993 
L 135.723393 54.985993 
L 134.637592 54.985993 
L 133.551791 55.827987 
L 132.46599 55.827987 
L 131.380189 55.827987 
L 130.294387 55.827987 
L 129.208586 54.985993 
L 128.122785 54.985993 
L 127.036984 54.985993 
L 125.951183 54.985993 
L 124.865382 55.827987 
L 123.77958 55.827987 
L 122.693779 54.985993 
L 121.607978 54.985993 
L 120.522177 54.985993 
L 119.436376 54.985993 
L 118.350575 54.985993 
L 117.264773 55.827987 
L 116.178972 55.827987 
L 115.093171 54.985993 
L 114.00737 55.827987 
L 112.921569 54.985993 
L 111.835768 54.144 
L 110.749967 54.144 
L 109.664165 54.985993 
L 108.578364 54.144 
L 107.492563 54.144 
L 106.406762 54.985993 
L 105.320961 55.827987 
L 104.23516 54.985993 
L 103.149358 54.985993 
L 102.063557 54.985993 
L 100.977756 54.985993 
L 99.891955 54.144 
L 98.806154 54.985993 
L 97.720353 54.985993 
L 96.634552 102.137621 
L 95.54875 101.295628 
L 94.462949 103.821608 
L 93.377148 100.453635 
L 92.291347 104.663601 
L 91.205546 103.821608 
L 90.119745 104.663601 
L 89.033943 103.821608 
L 87.948142 103.821608 
L 86.862341 107.189581 
L 85.77654 104.663601 
L 84.690739 105.505595 
L 83.604938 107.189581 
L 82.519137 106.347588 
L 81.433335 105.505595 
L 80.347534 106.347588 
L 79.261733 102.137621 
L 78.175932 94.559681 
L 77.090131 95.401674 
L 76.00433 74.351841 
L 74.918528 59.19596 
L 73.832727 69.29988 
z
" style="fill:#2ca02c;"/>
   </g>
   <g id="PolyCollection_4">
    <path clip-path="url(#p335bcdcfb9)" d="M 73.832727 54.985993 
L 73.832727 69.29988 
L 74.918528 59.19596 
L 76.00433 74.351841 
L 77.090131 95.401674 
L 78.175932 94.559681 
L 79.261733 102.137621 
L 80.347534 106.347588 
L 81.433335 105.505595 
L 82.519137 106.347588 
L 83.604938 107.189581 
L 84.690739 105.505595 
L 85.77654 104.663601 
L 86.862341 107.189581 
L 87.948142 103.821608 
L 89.033943 103.821608 
L 90.119745 104.663601 
L 91.205546 103.821608 
L 92.291347 104.663601 
L 93.377148 100.453635 
L 94.462949 103.821608 
L 95.54875 101.295628 
L 96.634552 102.137621 
L 97.720353 54.985993 
L 98.806154 54.985993 
L 99.891955 54.144 
L 100.977756 54.985993 
L 102.063557 54.985993 
L 103.149358 54.985993 
L 104.23516 54.985993 
L 105.320961 55.827987 
L 106.406762 54.985993 
L 107.492563 54.144 
L 108.578364 54.144 
L 109.664165 54.985993 
L 110.749967 54.144 
L 111.835768 54.144 
L 112.921569 54.985993 
L 114.00737 55.827987 
L 115.093171 54.985993 
L 116.178972 55.827987 
L 117.264773 55.827987 
L 118.350575 54.985993 
L 119.436376 54.985993 
L 120.522177 54.985993 
L 121.607978 54.985993 
L 122.693779 54.985993 
L 123.77958 55.827987 
L 124.865382 55.827987 
L 125.951183 54.985993 
L 127.036984 54.985993 
L 128.122785 54.985993 
L 129.208586 54.985993 
L 130.294387 55.827987 
L 131.380189 55.827987 
L 132.46599 55.827987 
L 133.551791 55.827987 
L 134.637592 54.985993 
L 135.723393 54.985993 
L 136.809194 54.985993 
L 137.894995 54.985993 
L 138.980797 54.985993 
L 140.066598 54.985993 
L 141.152399 54.985993 
L 142.2382 54.985993 
L 143.324001 54.985993 
L 144.409802 54.985993 
L 145.495604 54.985993 
L 146.581405 54.985993 
L 147.667206 54.985993 
L 148.753007 54.985993 
L 149.838808 54.985993 
L 150.924609 54.985993 
L 152.01041 54.985993 
L 153.096212 54.985993 
L 154.182013 54.985993 
L 155.267814 54.985993 
L 156.353615 54.985993 
L 157.439416 54.985993 
L 158.525217 54.985993 
L 159.611019 54.985993 
L 160.69682 54.985993 
L 161.782621 54.985993 
L 162.868422 54.985993 
L 163.954223 54.985993 
L 165.040024 54.985993 
L 166.125825 54.985993 
L 167.211627 54.985993 
L 168.297428 54.985993 
L 169.383229 54.985993 
L 170.46903 54.985993 
L 171.554831 54.985993 
L 172.640632 54.985993 
L 173.726434 54.985993 
L 174.812235 54.985993 
L 175.898036 54.985993 
L 176.983837 54.985993 
L 178.069638 54.985993 
L 179.155439 54.985993 
L 180.24124 54.985993 
L 181.327042 54.985993 
L 182.412843 54.985993 
L 183.498644 54.985993 
L 184.584445 54.985993 
L 185.670246 54.985993 
L 186.756047 54.985993 
L 187.841849 54.985993 
L 188.92765 54.985993 
L 190.013451 54.985993 
L 191.099252 54.985993 
L 192.185053 54.985993 
L 193.270854 54.985993 
L 194.356656 54.985993 
L 195.442457 54.985993 
L 196.528258 54.985993 
L 197.614059 54.985993 
L 198.69986 54.985993 
L 199.785661 54.985993 
L 200.871462 54.985993 
L 201.957264 54.985993 
L 203.043065 54.985993 
L 204.128866 54.985993 
L 205.214667 54.985993 
L 206.300468 54.985993 
L 207.386269 54.985993 
L 208.472071 54.985993 
L 209.557872 54.985993 
L 210.643673 54.985993 
L 211.729474 54.985993 
L 212.815275 54.985993 
L 213.901076 54.985993 
L 214.986877 54.985993 
L 216.072679 54.985993 
L 217.15848 54.985993 
L 218.244281 54.985993 
L 219.330082 54.985993 
L 220.415883 54.985993 
L 221.501684 54.985993 
L 222.587486 54.985993 
L 223.673287 54.985993 
L 224.759088 54.985993 
L 225.844889 54.985993 
L 226.93069 54.985993 
L 228.016491 54.985993 
L 229.102292 54.985993 
L 230.188094 54.985993 
L 231.273895 54.985993 
L 232.359696 54.985993 
L 233.445497 54.985993 
L 234.531298 54.985993 
L 235.617099 54.985993 
L 236.702901 54.985993 
L 237.788702 54.985993 
L 238.874503 54.985993 
L 239.960304 54.985993 
L 241.046105 54.985993 
L 242.131906 54.985993 
L 243.217708 54.985993 
L 244.303509 54.985993 
L 245.38931 54.985993 
L 246.475111 54.985993 
L 247.560912 54.985993 
L 248.646713 54.985993 
L 249.732514 54.985993 
L 250.818316 54.985993 
L 251.904117 54.985993 
L 252.989918 54.985993 
L 254.075719 54.985993 
L 255.16152 54.985993 
L 256.247321 54.985993 
L 257.333123 54.985993 
L 258.418924 54.985993 
L 259.504725 54.985993 
L 260.590526 54.985993 
L 261.676327 54.985993 
L 262.762128 54.985993 
L 263.847929 54.985993 
L 264.933731 54.985993 
L 266.019532 54.985993 
L 267.105333 54.985993 
L 268.191134 54.985993 
L 269.276935 54.985993 
L 270.362736 54.985993 
L 271.448538 54.985993 
L 272.534339 54.985993 
L 273.62014 54.985993 
L 274.705941 54.985993 
L 275.791742 54.985993 
L 276.877543 54.985993 
L 277.963344 54.985993 
L 279.049146 54.985993 
L 280.134947 54.985993 
L 281.220748 54.985993 
L 282.306549 54.985993 
L 283.39235 54.985993 
L 284.478151 54.985993 
L 285.563953 54.985993 
L 286.649754 54.985993 
L 287.735555 54.985993 
L 288.821356 54.985993 
L 289.907157 54.985993 
L 290.992958 54.985993 
L 292.07876 54.985993 
L 293.164561 54.985993 
L 294.250362 54.985993 
L 295.336163 54.985993 
L 296.421964 54.985993 
L 297.507765 54.985993 
L 298.593566 54.985993 
L 299.679368 54.985993 
L 300.765169 54.985993 
L 301.85097 54.985993 
L 302.936771 54.985993 
L 304.022572 54.985993 
L 305.108373 54.985993 
L 306.194175 54.985993 
L 307.279976 54.985993 
L 308.365777 54.985993 
L 309.451578 54.985993 
L 310.537379 54.985993 
L 311.62318 54.985993 
L 312.708981 54.985993 
L 313.794783 54.985993 
L 314.880584 54.985993 
L 315.966385 54.985993 
L 317.052186 54.985993 
L 318.137987 54.985993 
L 319.223788 54.985993 
L 320.30959 54.985993 
L 321.395391 54.985993 
L 322.481192 54.985993 
L 323.566993 54.985993 
L 324.652794 54.985993 
L 325.738595 54.985993 
L 326.824396 54.985993 
L 327.910198 54.985993 
L 328.995999 54.985993 
L 330.0818 54.985993 
L 331.167601 54.985993 
L 332.253402 54.985993 
L 333.339203 54.985993 
L 334.425005 54.985993 
L 335.510806 54.985993 
L 336.596607 54.985993 
L 337.682408 54.985993 
L 338.768209 54.985993 
L 339.85401 54.985993 
L 340.939811 54.985993 
L 342.025613 54.985993 
L 343.111414 54.985993 
L 344.197215 54.985993 
L 345.283016 54.985993 
L 346.368817 54.985993 
L 347.454618 54.985993 
L 348.54042 54.985993 
L 349.626221 54.985993 
L 350.712022 54.985993 
L 351.797823 54.985993 
L 352.883624 54.985993 
L 353.969425 54.985993 
L 355.055227 54.985993 
L 356.141028 54.985993 
L 357.226829 54.985993 
L 358.31263 54.985993 
L 359.398431 54.985993 
L 360.484232 54.985993 
L 361.570033 54.985993 
L 362.655835 54.985993 
L 363.741636 54.985993 
L 364.827437 54.985993 
L 365.913238 54.985993 
L 366.999039 54.985993 
L 368.08484 54.985993 
L 369.170642 54.985993 
L 370.256443 54.985993 
L 371.342244 54.985993 
L 372.428045 54.985993 
L 373.513846 54.985993 
L 374.599647 54.985993 
L 375.685448 54.985993 
L 376.77125 54.985993 
L 377.857051 54.985993 
L 378.942852 54.985993 
L 380.028653 54.985993 
L 381.114454 54.985993 
L 382.200255 54.985993 
L 383.286057 54.985993 
L 384.371858 54.985993 
L 385.457659 54.985993 
L 386.54346 54.985993 
L 387.629261 54.985993 
L 388.715062 54.985993 
L 389.800863 54.985993 
L 390.886665 54.985993 
L 391.972466 54.985993 
L 393.058267 54.985993 
L 394.144068 54.985993 
L 395.229869 54.985993 
L 396.31567 54.985993 
L 397.401472 54.985993 
L 398.487273 54.985993 
L 398.487273 54.985993 
L 398.487273 54.985993 
L 397.401472 54.985993 
L 396.31567 54.985993 
L 395.229869 54.985993 
L 394.144068 54.985993 
L 393.058267 54.985993 
L 391.972466 54.985993 
L 390.886665 54.985993 
L 389.800863 54.985993 
L 388.715062 54.985993 
L 387.629261 54.985993 
L 386.54346 54.985993 
L 385.457659 54.985993 
L 384.371858 54.985993 
L 383.286057 54.985993 
L 382.200255 54.985993 
L 381.114454 54.985993 
L 380.028653 54.985993 
L 378.942852 54.985993 
L 377.857051 54.985993 
L 376.77125 54.985993 
L 375.685448 54.985993 
L 374.599647 54.985993 
L 373.513846 54.985993 
L 372.428045 54.985993 
L 371.342244 54.985993 
L 370.256443 54.985993 
L 369.170642 54.985993 
L 368.08484 54.985993 
L 366.999039 54.985993 
L 365.913238 54.985993 
L 364.827437 54.985993 
L 363.741636 54.985993 
L 362.655835 54.985993 
L 361.570033 54.985993 
L 360.484232 54.985993 
L 359.398431 54.985993 
L 358.31263 54.985993 
L 357.226829 54.985993 
L 356.141028 54.985993 
L 355.055227 54.985993 
L 353.969425 54.985993 
L 352.883624 54.985993 
L 351.797823 54.985993 
L 350.712022 54.985993 
L 349.626221 54.985993 
L 348.54042 54.985993 
L 347.454618 54.985993 
L 346.368817 54.985993 
L 345.283016 54.985993 
L 344.197215 54.985993 
L 343.111414 54.985993 
L 342.025613 54.985993 
L 340.939811 54.985993 
L 339.85401 54.985993 
L 338.768209 54.985993 
L 337.682408 54.985993 
L 336.596607 54.985993 
L 335.510806 54.985993 
L 334.425005 54.985993 
L 333.339203 54.985993 
L 332.253402 54.985993 
L 331.167601 54.985993 
L 330.0818 54.985993 
L 328.995999 54.985993 
L 327.910198 54.985993 
L 326.824396 54.985993 
L 325.738595 54.985993 
L 324.652794 54.985993 
L 323.566993 54.985993 
L 322.481192 54.985993 
L 321.395391 54.985993 
L 320.30959 54.985993 
L 319.223788 54.985993 
L 318.137987 54.985993 
L 317.052186 54.985993 
L 315.966385 54.985993 
L 314.880584 54.985993 
L 313.794783 54.985993 
L 312.708981 54.985993 
L 311.62318 54.985993 
L 310.537379 54.985993 
L 309.451578 54.985993 
L 308.365777 54.985993 
L 307.279976 54.985993 
L 306.194175 54.985993 
L 305.108373 54.985993 
L 304.022572 54.985993 
L 302.936771 54.985993 
L 301.85097 54.985993 
L 300.765169 54.985993 
L 299.679368 54.985993 
L 298.593566 54.985993 
L 297.507765 54.985993 
L 296.421964 54.985993 
L 295.336163 54.985993 
L 294.250362 54.985993 
L 293.164561 54.985993 
L 292.07876 54.985993 
L 290.992958 54.985993 
L 289.907157 54.985993 
L 288.821356 54.985993 
L 287.735555 54.985993 
L 286.649754 54.985993 
L 285.563953 54.985993 
L 284.478151 54.985993 
L 283.39235 54.985993 
L 282.306549 54.985993 
L 281.220748 54.985993 
L 280.134947 54.985993 
L 279.049146 54.985993 
L 277.963344 54.985993 
L 276.877543 54.985993 
L 275.791742 54.985993 
L 274.705941 54.985993 
L 273.62014 54.985993 
L 272.534339 54.985993 
L 271.448538 54.985993 
L 270.362736 54.985993 
L 269.276935 54.985993 
L 268.191134 54.985993 
L 267.105333 54.985993 
L 266.019532 54.985993 
L 264.933731 54.985993 
L 263.847929 54.985993 
L 262.762128 54.985993 
L 261.676327 54.985993 
L 260.590526 54.985993 
L 259.504725 54.985993 
L 258.418924 54.985993 
L 257.333123 54.985993 
L 256.247321 54.985993 
L 255.16152 54.985993 
L 254.075719 54.985993 
L 252.989918 54.985993 
L 251.904117 54.985993 
L 250.818316 54.985993 
L 249.732514 54.985993 
L 248.646713 54.985993 
L 247.560912 54.985993 
L 246.475111 54.985993 
L 245.38931 54.985993 
L 244.303509 54.985993 
L 243.217708 54.985993 
L 242.131906 54.985993 
L 241.046105 54.985993 
L 239.960304 54.985993 
L 238.874503 54.985993 
L 237.788702 54.985993 
L 236.702901 54.985993 
L 235.617099 54.985993 
L 234.531298 54.985993 
L 233.445497 54.985993 
L 232.359696 54.985993 
L 231.273895 54.985993 
L 230.188094 54.985993 
L 229.102292 54.985993 
L 228.016491 54.985993 
L 226.93069 54.985993 
L 225.844889 54.985993 
L 224.759088 54.985993 
L 223.673287 54.985993 
L 222.587486 54.985993 
L 221.501684 54.985993 
L 220.415883 54.985993 
L 219.330082 54.985993 
L 218.244281 54.985993 
L 217.15848 54.985993 
L 216.072679 54.985993 
L 214.986877 54.985993 
L 213.901076 54.985993 
L 212.815275 54.985993 
L 211.729474 54.985993 
L 210.643673 54.985993 
L 209.557872 54.985993 
L 208.472071 54.985993 
L 207.386269 54.985993 
L 206.300468 54.985993 
L 205.214667 54.985993 
L 204.128866 54.985993 
L 203.043065 54.985993 
L 201.957264 54.985993 
L 200.871462 54.985993 
L 199.785661 54.985993 
L 198.69986 54.985993 
L 197.614059 54.985993 
L 196.528258 54.985993 
L 195.442457 54.985993 
L 194.356656 54.985993 
L 193.270854 54.985993 
L 192.185053 54.985993 
L 191.099252 54.985993 
L 190.013451 54.985993 
L 188.92765 54.985993 
L 187.841849 54.985993 
L 186.756047 54.985993 
L 185.670246 54.985993 
L 184.584445 54.985993 
L 183.498644 54.985993 
L 182.412843 54.985993 
L 181.327042 54.985993 
L 180.24124 54.985993 
L 179.155439 54.985993 
L 178.069638 54.985993 
L 176.983837 54.985993 
L 175.898036 54.985993 
L 174.812235 54.985993 
L 173.726434 54.985993 
L 172.640632 54.985993 
L 171.554831 54.985993 
L 170.46903 54.985993 
L 169.383229 54.985993 
L 168.297428 54.985993 
L 167.211627 54.985993 
L 166.125825 54.985993 
L 165.040024 54.985993 
L 163.954223 54.985993 
L 162.868422 54.985993 
L 161.782621 54.985993 
L 160.69682 54.985993 
L 159.611019 54.985993 
L 158.525217 54.985993 
L 157.439416 54.985993 
L 156.353615 54.985993 
L 155.267814 54.985993 
L 154.182013 54.985993 
L 153.096212 54.985993 
L 152.01041 54.985993 
L 150.924609 54.985993 
L 149.838808 54.985993 
L 148.753007 54.985993 
L 147.667206 54.985993 
L 146.581405 54.985993 
L 145.495604 54.985993 
L 144.409802 54.985993 
L 143.324001 54.985993 
L 142.2382 54.985993 
L 141.152399 54.985993 
L 140.066598 54.985993 
L 138.980797 54.985993 
L 137.894995 54.985993 
L 136.809194 54.985993 
L 135.723393 54.985993 
L 134.637592 54.985993 
L 133.551791 55.827987 
L 132.46599 55.827987 
L 131.380189 55.827987 
L 130.294387 55.827987 
L 129.208586 54.985993 
L 128.122785 54.985993 
L 127.036984 54.985993 
L 125.951183 54.985993 
L 124.865382 55.827987 
L 123.77958 55.827987 
L 122.693779 54.985993 
L 121.607978 54.985993 
L 120.522177 54.985993 
L 119.436376 54.985993 
L 118.350575 54.985993 
L 117.264773 55.827987 
L 116.178972 55.827987 
L 115.093171 54.985993 
L 114.00737 55.827987 
L 112.921569 54.985993 
L 111.835768 54.144 
L 110.749967 54.144 
L 109.664165 54.985993 
L 108.578364 54.144 
L 107.492563 54.144 
L 106.406762 54.985993 
L 105.320961 55.827987 
L 104.23516 54.985993 
L 103.149358 54.985993 
L 102.063557 54.985993 
L 100.977756 54.985993 
L 99.891955 54.144 
L 98.806154 54.985993 
L 97.720353 54.985993 
L 96.634552 54.144 
L 95.54875 54.985993 
L 94.462949 54.144 
L 93.377148 54.985993 
L 92.291347 55.827987 
L 91.205546 54.144 
L 90.119745 54.144 
L 89.033943 54.144 
L 87.948142 54.985993 
L 86.862341 55.827987 
L 85.77654 54.985993 
L 84.690739 54.144 
L 83.604938 54.144 
L 82.519137 54.144 
L 81.433335 54.985993 
L 80.347534 54.985993 
L 79.261733 54.144 
L 78.175932 54.144 
L 77.090131 54.144 
L 76.00433 54.144 
L 74.918528 54.985993 
L 73.832727 54.985993 
z
" style="fill:#d62728;"/>
   </g>
   <g id="matplotlib.axis_1">
    <g id="xtick_1">
     <g id="line2d_1">
      <defs>
       <path d="M 0 0 
L 0 3.5 
" id="m14a44967c9" style="stroke:#000000;stroke-width:0.8;"/>
      </defs>
      <g>
       <use style="stroke:#000000;stroke-width:0.8;" x="73.832727" xlink:href="#m14a44967c9" y="307.584"/>
      </g>
     </g>
     <g id="text_1">
      <!-- 0 -->
      <defs>
       <path d="M 31.78125 66.40625 
Q 24.171875 66.40625 20.328125 58.90625 
Q 16.5 51.421875 16.5 36.375 
Q 16.5 21.390625 20.328125 13.890625 
Q 24.171875 6.390625 31.78125 6.390625 
Q 39.453125 6.390625 43.28125 13.890625 
Q 47.125 21.390625 47.125 36.375 
Q 47.125 51.421875 43.28125 58.90625 
Q 39.453125 66.40625 31.78125 66.40625 
z
M 31.78125 74.21875 
Q 44.046875 74.21875 50.515625 64.515625 
Q 56.984375 54.828125 56.984375 36.375 
Q 56.984375 17.96875 50.515625 8.265625 
Q 44.046875 -1.421875 31.78125 -1.421875 
Q 19.53125 -1.421875 13.0625 8.265625 
Q 6.59375 17.96875 6.59375 36.375 
Q 6.59375 54.828125 13.0625 64.515625 
Q 19.53125 74.21875 31.78125 74.21875 
z
" id="DejaVuSans-48"/>
      </defs>
      <g transform="translate(70.651477 322.182437)scale(0.1 -0.1)">
       <use xlink:href="#DejaVuSans-48"/>
      </g>
     </g>
    </g>
    <g id="xtick_2">
     <g id="line2d_2">
      <g>
       <use style="stroke:#000000;stroke-width:0.8;" x="128.122785" xlink:href="#m14a44967c9" y="307.584"/>
      </g>
     </g>
     <g id="text_2">
      <!-- 50 -->
      <defs>
       <path d="M 10.796875 72.90625 
L 49.515625 72.90625 
L 49.515625 64.59375 
L 19.828125 64.59375 
L 19.828125 46.734375 
Q 21.96875 47.46875 24.109375 47.828125 
Q 26.265625 48.1875 28.421875 48.1875 
Q 40.625 48.1875 47.75 41.5 
Q 54.890625 34.8125 54.890625 23.390625 
Q 54.890625 11.625 47.5625 5.09375 
Q 40.234375 -1.421875 26.90625 -1.421875 
Q 22.3125 -1.421875 17.546875 -0.640625 
Q 12.796875 0.140625 7.71875 1.703125 
L 7.71875 11.625 
Q 12.109375 9.234375 16.796875 8.0625 
Q 21.484375 6.890625 26.703125 6.890625 
Q 35.15625 6.890625 40.078125 11.328125 
Q 45.015625 15.765625 45.015625 23.390625 
Q 45.015625 31 40.078125 35.4375 
Q 35.15625 39.890625 26.703125 39.890625 
Q 22.75 39.890625 18.8125 39.015625 
Q 14.890625 38.140625 10.796875 36.28125 
z
" id="DejaVuSans-53"/>
      </defs>
      <g transform="translate(121.760285 322.182437)scale(0.1 -0.1)">
       <use xlink:href="#DejaVuSans-53"/>
       <use x="63.623047" xlink:href="#DejaVuSans-48"/>
      </g>
     </g>
    </g>
    <g id="xtick_3">
     <g id="line2d_3">
      <g>
       <use style="stroke:#000000;stroke-width:0.8;" x="182.412843" xlink:href="#m14a44967c9" y="307.584"/>
      </g>
     </g>
     <g id="text_3">
      <!-- 100 -->
      <defs>
       <path d="M 12.40625 8.296875 
L 28.515625 8.296875 
L 28.515625 63.921875 
L 10.984375 60.40625 
L 10.984375 69.390625 
L 28.421875 72.90625 
L 38.28125 72.90625 
L 38.28125 8.296875 
L 54.390625 8.296875 
L 54.390625 0 
L 12.40625 0 
z
" id="DejaVuSans-49"/>
      </defs>
      <g transform="translate(172.869093 322.182437)scale(0.1 -0.1)">
       <use xlink:href="#DejaVuSans-49"/>
       <use x="63.623047" xlink:href="#DejaVuSans-48"/>
       <use x="127.246094" xlink:href="#DejaVuSans-48"/>
      </g>
     </g>
    </g>
    <g id="xtick_4">
     <g id="line2d_4">
      <g>
       <use style="stroke:#000000;stroke-width:0.8;" x="236.702901" xlink:href="#m14a44967c9" y="307.584"/>
      </g>
     </g>
     <g id="text_4">
      <!-- 150 -->
      <g transform="translate(227.159151 322.182437)scale(0.1 -0.1)">
       <use xlink:href="#DejaVuSans-49"/>
       <use x="63.623047" xlink:href="#DejaVuSans-53"/>
       <use x="127.246094" xlink:href="#DejaVuSans-48"/>
      </g>
     </g>
    </g>
    <g id="xtick_5">
     <g id="line2d_5">
      <g>
       <use style="stroke:#000000;stroke-width:0.8;" x="290.992958" xlink:href="#m14a44967c9" y="307.584"/>
      </g>
     </g>
     <g id="text_5">
      <!-- 200 -->
      <defs>
       <path d="M 19.1875 8.296875 
L 53.609375 8.296875 
L 53.609375 0 
L 7.328125 0 
L 7.328125 8.296875 
Q 12.9375 14.109375 22.625 23.890625 
Q 32.328125 33.6875 34.8125 36.53125 
Q 39.546875 41.84375 41.421875 45.53125 
Q 43.3125 49.21875 43.3125 52.78125 
Q 43.3125 58.59375 39.234375 62.25 
Q 35.15625 65.921875 28.609375 65.921875 
Q 23.96875 65.921875 18.8125 64.3125 
Q 13.671875 62.703125 7.8125 59.421875 
L 7.8125 69.390625 
Q 13.765625 71.78125 18.9375 73 
Q 24.125 74.21875 28.421875 74.21875 
Q 39.75 74.21875 46.484375 68.546875 
Q 53.21875 62.890625 53.21875 53.421875 
Q 53.21875 48.921875 51.53125 44.890625 
Q 49.859375 40.875 45.40625 35.40625 
Q 44.1875 33.984375 37.640625 27.21875 
Q 31.109375 20.453125 19.1875 8.296875 
z
" id="DejaVuSans-50"/>
      </defs>
      <g transform="translate(281.449208 322.182437)scale(0.1 -0.1)">
       <use xlink:href="#DejaVuSans-50"/>
       <use x="63.623047" xlink:href="#DejaVuSans-48"/>
       <use x="127.246094" xlink:href="#DejaVuSans-48"/>
      </g>
     </g>
    </g>
    <g id="xtick_6">
     <g id="line2d_6">
      <g>
       <use style="stroke:#000000;stroke-width:0.8;" x="345.283016" xlink:href="#m14a44967c9" y="307.584"/>
      </g>
     </g>
     <g id="text_6">
      <!-- 250 -->
      <g transform="translate(335.739266 322.182437)scale(0.1 -0.1)">
       <use xlink:href="#DejaVuSans-50"/>
       <use x="63.623047" xlink:href="#DejaVuSans-53"/>
       <use x="127.246094" xlink:href="#DejaVuSans-48"/>
      </g>
     </g>
    </g>
    <g id="xtick_7">
     <g id="line2d_7">
      <g>
       <use style="stroke:#000000;stroke-width:0.8;" x="399.573074" xlink:href="#m14a44967c9" y="307.584"/>
      </g>
     </g>
     <g id="text_7">
      <!-- 300 -->
      <defs>
       <path d="M 40.578125 39.3125 
Q 47.65625 37.796875 51.625 33 
Q 55.609375 28.21875 55.609375 21.1875 
Q 55.609375 10.40625 48.1875 4.484375 
Q 40.765625 -1.421875 27.09375 -1.421875 
Q 22.515625 -1.421875 17.65625 -0.515625 
Q 12.796875 0.390625 7.625 2.203125 
L 7.625 11.71875 
Q 11.71875 9.328125 16.59375 8.109375 
Q 21.484375 6.890625 26.8125 6.890625 
Q 36.078125 6.890625 40.9375 10.546875 
Q 45.796875 14.203125 45.796875 21.1875 
Q 45.796875 27.640625 41.28125 31.265625 
Q 36.765625 34.90625 28.71875 34.90625 
L 20.21875 34.90625 
L 20.21875 43.015625 
L 29.109375 43.015625 
Q 36.375 43.015625 40.234375 45.921875 
Q 44.09375 48.828125 44.09375 54.296875 
Q 44.09375 59.90625 40.109375 62.90625 
Q 36.140625 65.921875 28.71875 65.921875 
Q 24.65625 65.921875 20.015625 65.03125 
Q 15.375 64.15625 9.8125 62.3125 
L 9.8125 71.09375 
Q 15.4375 72.65625 20.34375 73.4375 
Q 25.25 74.21875 29.59375 74.21875 
Q 40.828125 74.21875 47.359375 69.109375 
Q 53.90625 64.015625 53.90625 55.328125 
Q 53.90625 49.265625 50.4375 45.09375 
Q 46.96875 40.921875 40.578125 39.3125 
z
" id="DejaVuSans-51"/>
      </defs>
      <g transform="translate(390.029324 322.182437)scale(0.1 -0.1)">
       <use xlink:href="#DejaVuSans-51"/>
       <use x="63.623047" xlink:href="#DejaVuSans-48"/>
       <use x="127.246094" xlink:href="#DejaVuSans-48"/>
      </g>
     </g>
    </g>
    <g id="text_8">
     <!-- Generations -->
     <defs>
      <path d="M 59.515625 10.40625 
L 59.515625 29.984375 
L 43.40625 29.984375 
L 43.40625 38.09375 
L 69.28125 38.09375 
L 69.28125 6.78125 
Q 63.578125 2.734375 56.6875 0.65625 
Q 49.8125 -1.421875 42 -1.421875 
Q 24.90625 -1.421875 15.25 8.5625 
Q 5.609375 18.5625 5.609375 36.375 
Q 5.609375 54.25 15.25 64.234375 
Q 24.90625 74.21875 42 74.21875 
Q 49.125 74.21875 55.546875 72.453125 
Q 61.96875 70.703125 67.390625 67.28125 
L 67.390625 56.78125 
Q 61.921875 61.421875 55.765625 63.765625 
Q 49.609375 66.109375 42.828125 66.109375 
Q 29.4375 66.109375 22.71875 58.640625 
Q 16.015625 51.171875 16.015625 36.375 
Q 16.015625 21.625 22.71875 14.15625 
Q 29.4375 6.6875 42.828125 6.6875 
Q 48.046875 6.6875 52.140625 7.59375 
Q 56.25 8.5 59.515625 10.40625 
z
" id="DejaVuSans-71"/>
      <path d="M 56.203125 29.59375 
L 56.203125 25.203125 
L 14.890625 25.203125 
Q 15.484375 15.921875 20.484375 11.0625 
Q 25.484375 6.203125 34.421875 6.203125 
Q 39.59375 6.203125 44.453125 7.46875 
Q 49.3125 8.734375 54.109375 11.28125 
L 54.109375 2.78125 
Q 49.265625 0.734375 44.1875 -0.34375 
Q 39.109375 -1.421875 33.890625 -1.421875 
Q 20.796875 -1.421875 13.15625 6.1875 
Q 5.515625 13.8125 5.515625 26.8125 
Q 5.515625 40.234375 12.765625 48.109375 
Q 20.015625 56 32.328125 56 
Q 43.359375 56 49.78125 48.890625 
Q 56.203125 41.796875 56.203125 29.59375 
z
M 47.21875 32.234375 
Q 47.125 39.59375 43.09375 43.984375 
Q 39.0625 48.390625 32.421875 48.390625 
Q 24.90625 48.390625 20.390625 44.140625 
Q 15.875 39.890625 15.1875 32.171875 
z
" id="DejaVuSans-101"/>
      <path d="M 54.890625 33.015625 
L 54.890625 0 
L 45.90625 0 
L 45.90625 32.71875 
Q 45.90625 40.484375 42.875 44.328125 
Q 39.84375 48.1875 33.796875 48.1875 
Q 26.515625 48.1875 22.3125 43.546875 
Q 18.109375 38.921875 18.109375 30.90625 
L 18.109375 0 
L 9.078125 0 
L 9.078125 54.6875 
L 18.109375 54.6875 
L 18.109375 46.1875 
Q 21.34375 51.125 25.703125 53.5625 
Q 30.078125 56 35.796875 56 
Q 45.21875 56 50.046875 50.171875 
Q 54.890625 44.34375 54.890625 33.015625 
z
" id="DejaVuSans-110"/>
      <path d="M 41.109375 46.296875 
Q 39.59375 47.171875 37.8125 47.578125 
Q 36.03125 48 33.890625 48 
Q 26.265625 48 22.1875 43.046875 
Q 18.109375 38.09375 18.109375 28.8125 
L 18.109375 0 
L 9.078125 0 
L 9.078125 54.6875 
L 18.109375 54.6875 
L 18.109375 46.1875 
Q 20.953125 51.171875 25.484375 53.578125 
Q 30.03125 56 36.53125 56 
Q 37.453125 56 38.578125 55.875 
Q 39.703125 55.765625 41.0625 55.515625 
z
" id="DejaVuSans-114"/>
      <path d="M 34.28125 27.484375 
Q 23.390625 27.484375 19.1875 25 
Q 14.984375 22.515625 14.984375 16.5 
Q 14.984375 11.71875 18.140625 8.90625 
Q 21.296875 6.109375 26.703125 6.109375 
Q 34.1875 6.109375 38.703125 11.40625 
Q 43.21875 16.703125 43.21875 25.484375 
L 43.21875 27.484375 
z
M 52.203125 31.203125 
L 52.203125 0 
L 43.21875 0 
L 43.21875 8.296875 
Q 40.140625 3.328125 35.546875 0.953125 
Q 30.953125 -1.421875 24.3125 -1.421875 
Q 15.921875 -1.421875 10.953125 3.296875 
Q 6 8.015625 6 15.921875 
Q 6 25.140625 12.171875 29.828125 
Q 18.359375 34.515625 30.609375 34.515625 
L 43.21875 34.515625 
L 43.21875 35.40625 
Q 43.21875 41.609375 39.140625 45 
Q 35.0625 48.390625 27.6875 48.390625 
Q 23 48.390625 18.546875 47.265625 
Q 14.109375 46.140625 10.015625 43.890625 
L 10.015625 52.203125 
Q 14.9375 54.109375 19.578125 55.046875 
Q 24.21875 56 28.609375 56 
Q 40.484375 56 46.34375 49.84375 
Q 52.203125 43.703125 52.203125 31.203125 
z
" id="DejaVuSans-97"/>
      <path d="M 18.3125 70.21875 
L 18.3125 54.6875 
L 36.8125 54.6875 
L 36.8125 47.703125 
L 18.3125 47.703125 
L 18.3125 18.015625 
Q 18.3125 11.328125 20.140625 9.421875 
Q 21.96875 7.515625 27.59375 7.515625 
L 36.8125 7.515625 
L 36.8125 0 
L 27.59375 0 
Q 17.1875 0 13.234375 3.875 
Q 9.28125 7.765625 9.28125 18.015625 
L 9.28125 47.703125 
L 2.6875 47.703125 
L 2.6875 54.6875 
L 9.28125 54.6875 
L 9.28125 70.21875 
z
" id="DejaVuSans-116"/>
      <path d="M 9.421875 54.6875 
L 18.40625 54.6875 
L 18.40625 0 
L 9.421875 0 
z
M 9.421875 75.984375 
L 18.40625 75.984375 
L 18.40625 64.59375 
L 9.421875 64.59375 
z
" id="DejaVuSans-105"/>
      <path d="M 30.609375 48.390625 
Q 23.390625 48.390625 19.1875 42.75 
Q 14.984375 37.109375 14.984375 27.296875 
Q 14.984375 17.484375 19.15625 11.84375 
Q 23.34375 6.203125 30.609375 6.203125 
Q 37.796875 6.203125 41.984375 11.859375 
Q 46.1875 17.53125 46.1875 27.296875 
Q 46.1875 37.015625 41.984375 42.703125 
Q 37.796875 48.390625 30.609375 48.390625 
z
M 30.609375 56 
Q 42.328125 56 49.015625 48.375 
Q 55.71875 40.765625 55.71875 27.296875 
Q 55.71875 13.875 49.015625 6.21875 
Q 42.328125 -1.421875 30.609375 -1.421875 
Q 18.84375 -1.421875 12.171875 6.21875 
Q 5.515625 13.875 5.515625 27.296875 
Q 5.515625 40.765625 12.171875 48.375 
Q 18.84375 56 30.609375 56 
z
" id="DejaVuSans-111"/>
      <path d="M 44.28125 53.078125 
L 44.28125 44.578125 
Q 40.484375 46.53125 36.375 47.5 
Q 32.28125 48.484375 27.875 48.484375 
Q 21.1875 48.484375 17.84375 46.4375 
Q 14.5 44.390625 14.5 40.28125 
Q 14.5 37.15625 16.890625 35.375 
Q 19.28125 33.59375 26.515625 31.984375 
L 29.59375 31.296875 
Q 39.15625 29.25 43.1875 25.515625 
Q 47.21875 21.78125 47.21875 15.09375 
Q 47.21875 7.46875 41.1875 3.015625 
Q 35.15625 -1.421875 24.609375 -1.421875 
Q 20.21875 -1.421875 15.453125 -0.5625 
Q 10.6875 0.296875 5.421875 2 
L 5.421875 11.28125 
Q 10.40625 8.6875 15.234375 7.390625 
Q 20.0625 6.109375 24.8125 6.109375 
Q 31.15625 6.109375 34.5625 8.28125 
Q 37.984375 10.453125 37.984375 14.40625 
Q 37.984375 18.0625 35.515625 20.015625 
Q 33.0625 21.96875 24.703125 23.78125 
L 21.578125 24.515625 
Q 13.234375 26.265625 9.515625 29.90625 
Q 5.8125 33.546875 5.8125 39.890625 
Q 5.8125 47.609375 11.28125 51.796875 
Q 16.75 56 26.8125 56 
Q 31.78125 56 36.171875 55.265625 
Q 40.578125 54.546875 44.28125 53.078125 
z
" id="DejaVuSans-115"/>
     </defs>
     <g transform="translate(205.662344 335.860562)scale(0.1 -0.1)">
      <use xlink:href="#DejaVuSans-71"/>
      <use x="77.490234" xlink:href="#DejaVuSans-101"/>
      <use x="139.013672" xlink:href="#DejaVuSans-110"/>
      <use x="202.392578" xlink:href="#DejaVuSans-101"/>
      <use x="263.916016" xlink:href="#DejaVuSans-114"/>
      <use x="305.029297" xlink:href="#DejaVuSans-97"/>
      <use x="366.308594" xlink:href="#DejaVuSans-116"/>
      <use x="405.517578" xlink:href="#DejaVuSans-105"/>
      <use x="433.300781" xlink:href="#DejaVuSans-111"/>
      <use x="494.482422" xlink:href="#DejaVuSans-110"/>
      <use x="557.861328" xlink:href="#DejaVuSans-115"/>
     </g>
    </g>
   </g>
   <g id="matplotlib.axis_2">
    <g id="ytick_1">
     <g id="line2d_8">
      <defs>
       <path d="M 0 0 
L -3.5 0 
" id="m4d5e1b4030" style="stroke:#000000;stroke-width:0.8;"/>
      </defs>
      <g>
       <use style="stroke:#000000;stroke-width:0.8;" x="57.6" xlink:href="#m4d5e1b4030" y="307.584"/>
      </g>
     </g>
     <g id="text_9">
      <!-- 0 -->
      <g transform="translate(44.2375 311.383219)scale(0.1 -0.1)">
       <use xlink:href="#DejaVuSans-48"/>
      </g>
     </g>
    </g>
    <g id="ytick_2">
     <g id="line2d_9">
      <g>
       <use style="stroke:#000000;stroke-width:0.8;" x="57.6" xlink:href="#m4d5e1b4030" y="265.484332"/>
      </g>
     </g>
     <g id="text_10">
      <!-- 50 -->
      <g transform="translate(37.875 269.283551)scale(0.1 -0.1)">
       <use xlink:href="#DejaVuSans-53"/>
       <use x="63.623047" xlink:href="#DejaVuSans-48"/>
      </g>
     </g>
    </g>
    <g id="ytick_3">
     <g id="line2d_10">
      <g>
       <use style="stroke:#000000;stroke-width:0.8;" x="57.6" xlink:href="#m4d5e1b4030" y="223.384664"/>
      </g>
     </g>
     <g id="text_11">
      <!-- 100 -->
      <g transform="translate(31.5125 227.183883)scale(0.1 -0.1)">
       <use xlink:href="#DejaVuSans-49"/>
       <use x="63.623047" xlink:href="#DejaVuSans-48"/>
       <use x="127.246094" xlink:href="#DejaVuSans-48"/>
      </g>
     </g>
    </g>
    <g id="ytick_4">
     <g id="line2d_11">
      <g>
       <use style="stroke:#000000;stroke-width:0.8;" x="57.6" xlink:href="#m4d5e1b4030" y="181.284997"/>
      </g>
     </g>
     <g id="text_12">
      <!-- 150 -->
      <g transform="translate(31.5125 185.084215)scale(0.1 -0.1)">
       <use xlink:href="#DejaVuSans-49"/>
       <use x="63.623047" xlink:href="#DejaVuSans-53"/>
       <use x="127.246094" xlink:href="#DejaVuSans-48"/>
      </g>
     </g>
    </g>
    <g id="ytick_5">
     <g id="line2d_12">
      <g>
       <use style="stroke:#000000;stroke-width:0.8;" x="57.6" xlink:href="#m4d5e1b4030" y="139.185329"/>
      </g>
     </g>
     <g id="text_13">
      <!-- 200 -->
      <g transform="translate(31.5125 142.984548)scale(0.1 -0.1)">
       <use xlink:href="#DejaVuSans-50"/>
       <use x="63.623047" xlink:href="#DejaVuSans-48"/>
       <use x="127.246094" xlink:href="#DejaVuSans-48"/>
      </g>
     </g>
    </g>
    <g id="ytick_6">
     <g id="line2d_13">
      <g>
       <use style="stroke:#000000;stroke-width:0.8;" x="57.6" xlink:href="#m4d5e1b4030" y="97.085661"/>
      </g>
     </g>
     <g id="text_14">
      <!-- 250 -->
      <g transform="translate(31.5125 100.88488)scale(0.1 -0.1)">
       <use xlink:href="#DejaVuSans-50"/>
       <use x="63.623047" xlink:href="#DejaVuSans-53"/>
       <use x="127.246094" xlink:href="#DejaVuSans-48"/>
      </g>
     </g>
    </g>
    <g id="ytick_7">
     <g id="line2d_14">
      <g>
       <use style="stroke:#000000;stroke-width:0.8;" x="57.6" xlink:href="#m4d5e1b4030" y="54.985993"/>
      </g>
     </g>
     <g id="text_15">
      <!-- 300 -->
      <g transform="translate(31.5125 58.785212)scale(0.1 -0.1)">
       <use xlink:href="#DejaVuSans-51"/>
       <use x="63.623047" xlink:href="#DejaVuSans-48"/>
       <use x="127.246094" xlink:href="#DejaVuSans-48"/>
      </g>
     </g>
    </g>
    <g id="text_16">
     <!-- Size per Species -->
     <defs>
      <path d="M 53.515625 70.515625 
L 53.515625 60.890625 
Q 47.90625 63.578125 42.921875 64.890625 
Q 37.9375 66.21875 33.296875 66.21875 
Q 25.25 66.21875 20.875 63.09375 
Q 16.5 59.96875 16.5 54.203125 
Q 16.5 49.359375 19.40625 46.890625 
Q 22.3125 44.4375 30.421875 42.921875 
L 36.375 41.703125 
Q 47.40625 39.59375 52.65625 34.296875 
Q 57.90625 29 57.90625 20.125 
Q 57.90625 9.515625 50.796875 4.046875 
Q 43.703125 -1.421875 29.984375 -1.421875 
Q 24.8125 -1.421875 18.96875 -0.25 
Q 13.140625 0.921875 6.890625 3.21875 
L 6.890625 13.375 
Q 12.890625 10.015625 18.65625 8.296875 
Q 24.421875 6.59375 29.984375 6.59375 
Q 38.421875 6.59375 43.015625 9.90625 
Q 47.609375 13.234375 47.609375 19.390625 
Q 47.609375 24.75 44.3125 27.78125 
Q 41.015625 30.8125 33.5 32.328125 
L 27.484375 33.5 
Q 16.453125 35.6875 11.515625 40.375 
Q 6.59375 45.0625 6.59375 53.421875 
Q 6.59375 63.09375 13.40625 68.65625 
Q 20.21875 74.21875 32.171875 74.21875 
Q 37.3125 74.21875 42.625 73.28125 
Q 47.953125 72.359375 53.515625 70.515625 
z
" id="DejaVuSans-83"/>
      <path d="M 5.515625 54.6875 
L 48.1875 54.6875 
L 48.1875 46.484375 
L 14.40625 7.171875 
L 48.1875 7.171875 
L 48.1875 0 
L 4.296875 0 
L 4.296875 8.203125 
L 38.09375 47.515625 
L 5.515625 47.515625 
z
" id="DejaVuSans-122"/>
      <path id="DejaVuSans-32"/>
      <path d="M 18.109375 8.203125 
L 18.109375 -20.796875 
L 9.078125 -20.796875 
L 9.078125 54.6875 
L 18.109375 54.6875 
L 18.109375 46.390625 
Q 20.953125 51.265625 25.265625 53.625 
Q 29.59375 56 35.59375 56 
Q 45.5625 56 51.78125 48.09375 
Q 58.015625 40.1875 58.015625 27.296875 
Q 58.015625 14.40625 51.78125 6.484375 
Q 45.5625 -1.421875 35.59375 -1.421875 
Q 29.59375 -1.421875 25.265625 0.953125 
Q 20.953125 3.328125 18.109375 8.203125 
z
M 48.6875 27.296875 
Q 48.6875 37.203125 44.609375 42.84375 
Q 40.53125 48.484375 33.40625 48.484375 
Q 26.265625 48.484375 22.1875 42.84375 
Q 18.109375 37.203125 18.109375 27.296875 
Q 18.109375 17.390625 22.1875 11.75 
Q 26.265625 6.109375 33.40625 6.109375 
Q 40.53125 6.109375 44.609375 11.75 
Q 48.6875 17.390625 48.6875 27.296875 
z
" id="DejaVuSans-112"/>
      <path d="M 48.78125 52.59375 
L 48.78125 44.1875 
Q 44.96875 46.296875 41.140625 47.34375 
Q 37.3125 48.390625 33.40625 48.390625 
Q 24.65625 48.390625 19.8125 42.84375 
Q 14.984375 37.3125 14.984375 27.296875 
Q 14.984375 17.28125 19.8125 11.734375 
Q 24.65625 6.203125 33.40625 6.203125 
Q 37.3125 6.203125 41.140625 7.25 
Q 44.96875 8.296875 48.78125 10.40625 
L 48.78125 2.09375 
Q 45.015625 0.34375 40.984375 -0.53125 
Q 36.96875 -1.421875 32.421875 -1.421875 
Q 20.0625 -1.421875 12.78125 6.34375 
Q 5.515625 14.109375 5.515625 27.296875 
Q 5.515625 40.671875 12.859375 48.328125 
Q 20.21875 56 33.015625 56 
Q 37.15625 56 41.109375 55.140625 
Q 45.0625 54.296875 48.78125 52.59375 
z
" id="DejaVuSans-99"/>
     </defs>
     <g transform="translate(25.432812 215.520969)rotate(-90)scale(0.1 -0.1)">
      <use xlink:href="#DejaVuSans-83"/>
      <use x="63.476562" xlink:href="#DejaVuSans-105"/>
      <use x="91.259766" xlink:href="#DejaVuSans-122"/>
      <use x="143.75" xlink:href="#DejaVuSans-101"/>
      <use x="205.273438" xlink:href="#DejaVuSans-32"/>
      <use x="237.060547" xlink:href="#DejaVuSans-112"/>
      <use x="300.537109" xlink:href="#DejaVuSans-101"/>
      <use x="362.060547" xlink:href="#DejaVuSans-114"/>
      <use x="403.173828" xlink:href="#DejaVuSans-32"/>
      <use x="434.960938" xlink:href="#DejaVuSans-83"/>
      <use x="498.4375" xlink:href="#DejaVuSans-112"/>
      <use x="561.914062" xlink:href="#DejaVuSans-101"/>
      <use x="623.4375" xlink:href="#DejaVuSans-99"/>
      <use x="678.417969" xlink:href="#DejaVuSans-105"/>
      <use x="706.201172" xlink:href="#DejaVuSans-101"/>
      <use x="767.724609" xlink:href="#DejaVuSans-115"/>
     </g>
    </g>
   </g>
   <g id="patch_3">
    <path d="M 57.6 307.584 
L 57.6 41.472 
" style="fill:none;stroke:#000000;stroke-linecap:square;stroke-linejoin:miter;stroke-width:0.8;"/>
   </g>
   <g id="patch_4">
    <path d="M 414.72 307.584 
L 414.72 41.472 
" style="fill:none;stroke:#000000;stroke-linecap:square;stroke-linejoin:miter;stroke-width:0.8;"/>
   </g>
   <g id="patch_5">
    <path d="M 57.6 307.584 
L 414.72 307.584 
" style="fill:none;stroke:#000000;stroke-linecap:square;stroke-linejoin:miter;stroke-width:0.8;"/>
   </g>
   <g id="patch_6">
    <path d="M 57.6 41.472 
L 414.72 41.472 
" style="fill:none;stroke:#000000;stroke-linecap:square;stroke-linejoin:miter;stroke-width:0.8;"/>
   </g>
   <g id="text_17">
    <!-- Speciation -->
    <g transform="translate(204.714375 35.472)scale(0.12 -0.12)">
     <use xlink:href="#DejaVuSans-83"/>
     <use x="63.476562" xlink:href="#DejaVuSans-112"/>
     <use x="126.953125" xlink:href="#DejaVuSans-101"/>
     <use x="188.476562" xlink:href="#DejaVuSans-99"/>
     <use x="243.457031" xlink:href="#DejaVuSans-105"/>
     <use x="271.240234" xlink:href="#DejaVuSans-97"/>
     <use x="332.519531" xlink:href="#DejaVuSans-116"/>
     <use x="371.728516" xlink:href="#DejaVuSans-105"/>
     <use x="399.511719" xlink:href="#DejaVuSans-111"/>
     <use x="460.693359" xlink:href="#DejaVuSans-110"/>
    </g>
   </g>
  </g>
 </g>
 <defs>
  <clipPath id="p335bcdcfb9">
   <rect height="266.112" width="357.12" x="57.6" y="41.472"/>
  </clipPath>
 </defs>
</svg>
